<svg width="24" height="24" viewBox="0 0 24 24" fill="none" xmlns="http://www.w3.org/2000/svg">
<g clip-path="url(#clip0_184_20)">
<path fill-rule="evenodd" clip-rule="evenodd" d="M19.5 5C20.844 5 22 6.03 22 7.344V16.5C22 17.844 20.97 19 19.656 19H4.5C3.156 19 2 17.97 2 16.656V7.5C2 6.187 3.03 5 4.344 5H19.5ZM20 11H4V16.5C4 16.752 4.156 17 4.406 17H19.5C19.75 17 20 16.844 20 16.594V11ZM19.594 7H4.5C4.25 7 4 7.188 4 7.406V9H20V7.5C20 7.25 19.846 7 19.594 7ZM11 13C11.563 13 12 13.469 12 14C12 14.531 11.595 15 11.094 15H7C6.437 15 6 14.562 6 14C6 13.5 6.405 13 6.906 13H11Z" fill="#1A1C1F"/>
</g>
<defs>
<clipPath id="clip0_184_20">
<rect width="24" height="24" fill="white"/>
</clipPath>
</defs>
</svg>
