<svg width="32" height="32" viewBox="0 0 32 32" fill="none" xmlns="http://www.w3.org/2000/svg">
<g clip-path="url(#clip0_184_42)">
<path fill-rule="evenodd" clip-rule="evenodd" d="M27 6C28.656 6 30 7.375 30 9V23C30 24.656 28.625 26 27 26H5C3.344 26 2 24.625 2 23V9C2 8.20435 2.31607 7.44129 2.87868 6.87868C3.44129 6.31607 4.20435 6 5 6H27ZM28 14H4V23C4 23.5 4.374 24 4.875 24H27C27.563 24 28 23.531 28 23V14ZM27 8H5C4.437 8 4 8.469 4 9V12H28V9C28 8.437 27.531 8 27 8Z" fill="#1A1C1F"/>
</g>
<defs>
<clipPath id="clip0_184_42">
<rect width="32" height="32" fill="white"/>
</clipPath>
</defs>
</svg>
