<svg width="12" height="12" viewBox="0 0 12 12" fill="none" xmlns="http://www.w3.org/2000/svg">
<g clip-path="url(#clip0_231_124)">
<path fill-rule="evenodd" clip-rule="evenodd" d="M6.90095 1.4985C7.11102 1.50042 7.31691 1.55735 7.49812 1.66362C7.67932 1.7699 7.82951 1.92181 7.93372 2.10422C8.03792 2.28663 8.0925 2.49316 8.09201 2.70323C8.09153 2.9133 8.036 3.11958 7.93095 3.3015H9.45395C10.191 3.3015 10.8 3.9105 10.8 4.6475V9.14351C10.8 9.8455 10.297 10.5015 9.45395 10.5015H2.54595C2.18779 10.4986 1.8453 10.3542 1.59316 10.0998C1.34102 9.84544 1.19968 9.50168 1.19995 9.14351V4.6475C1.19995 3.9105 1.81995 3.3015 2.54595 3.3015H4.06795C3.96291 3.11958 3.90737 2.9133 3.90689 2.70323C3.9064 2.49316 3.96098 2.28663 4.06519 2.10422C4.16939 1.92181 4.31958 1.7699 4.50079 1.66362C4.68199 1.55735 4.88789 1.50042 5.09795 1.4985C5.46095 1.4985 5.77795 1.6625 5.99995 1.9085C6.22195 1.6625 6.53895 1.4985 6.90095 1.4985ZM5.40295 6.8955H2.40595V9.2955H5.40295V6.8955ZM9.59395 6.8955H6.59695V9.2955H9.59395V6.8955ZM5.40295 4.4955H2.40595V5.7015H5.40295V4.4955ZM9.59395 4.4955H6.59695V5.7015H9.59395V4.4955Z" fill="#1A1C1F"/>
</g>
<defs>
<clipPath id="clip0_231_124">
<rect width="12" height="12" fill="white"/>
</clipPath>
</defs>
</svg>
