<svg width="32" height="32" viewBox="0 0 32 32" fill="none" xmlns="http://www.w3.org/2000/svg">
<g clip-path="url(#clip0_184_57)">
<path fill-rule="evenodd" clip-rule="evenodd" d="M19.5 3C20.2022 3.00009 20.892 3.18504 21.5001 3.53624C22.1081 3.88744 22.613 4.39253 22.964 5.00073C23.315 5.60893 23.4997 6.2988 23.4995 7.001C23.4993 7.7032 23.3143 8.39298 22.963 9.001L27 9C27.7956 9 28.5587 9.31607 29.1213 9.87868C29.6839 10.4413 30 11.2044 30 12V26C30 26.7957 29.6839 27.5587 29.1213 28.1213C28.5587 28.6839 27.7956 29 27 29H5C4.20435 29 3.44129 28.6839 2.87868 28.1213C2.31607 27.5587 2 26.7957 2 26V12C2 11.2044 2.31607 10.4413 2.87868 9.87868C3.44129 9.31607 4.20435 9 5 9L9.036 9.001C8.77749 8.54361 8.61161 8.03977 8.54782 7.51827C8.48402 6.99677 8.52357 6.46781 8.66421 5.96159C8.80484 5.45537 9.04381 4.98181 9.36746 4.56794C9.69111 4.15407 10.0931 3.80801 10.5505 3.5495C11.0079 3.29099 11.5117 3.12511 12.0332 3.06132C12.5547 2.99752 13.0837 3.03707 13.5899 3.17771C14.0961 3.31834 14.5697 3.55731 14.9836 3.88096C15.3974 4.20461 15.7435 4.60661 16.002 5.064C16.347 4.43837 16.8535 3.91681 17.4688 3.55375C18.0841 3.1907 18.7856 2.99946 19.5 3ZM15 17H4V26C4 26.2652 4.10536 26.5196 4.29289 26.7071C4.48043 26.8946 4.73478 27 5 27H15V17ZM28 17H17V27H27C27.2652 27 27.5196 26.8946 27.7071 26.7071C27.8946 26.5196 28 26.2652 28 26V17ZM15 11H5C4.73478 11 4.48043 11.1054 4.29289 11.2929C4.10536 11.4804 4 11.7348 4 12V15H15V11ZM27 11H17V15H28V12C28 11.7348 27.8946 11.4804 27.7071 11.2929C27.5196 11.1054 27.2652 11 27 11ZM12.5 5C12.1044 5 11.7178 5.1173 11.3889 5.33706C11.06 5.55682 10.8036 5.86918 10.6522 6.23463C10.5009 6.60009 10.4613 7.00222 10.5384 7.39018C10.6156 7.77814 10.8061 8.13451 11.0858 8.41421C11.3655 8.69392 11.7219 8.8844 12.1098 8.96157C12.4978 9.03874 12.8999 8.99914 13.2654 8.84776C13.6308 8.69638 13.9432 8.44004 14.1629 8.11114C14.3827 7.78224 14.5 7.39556 14.5 7C14.5 5.9 13.5 5 12.5 5ZM19.5 5C18.9696 5 18.4609 5.21071 18.0858 5.58579C17.7107 5.96086 17.5 6.46957 17.5 7C17.5 7.53043 17.7107 8.03914 18.0858 8.41421C18.4609 8.78929 18.9696 9 19.5 9C20.0304 9 20.5391 8.78929 20.9142 8.41421C21.2893 8.03914 21.5 7.53043 21.5 7C21.5 6.46957 21.2893 5.96086 20.9142 5.58579C20.5391 5.21071 20.0304 5 19.5 5ZM12 22C12.2652 22 12.5196 22.1054 12.7071 22.2929C12.8946 22.4804 13 22.7348 13 23C13 23.2652 12.8946 23.5196 12.7071 23.7071C12.5196 23.8946 12.2652 24 12 24H7C6.73478 24 6.48043 23.8946 6.29289 23.7071C6.10536 23.5196 6 23.2652 6 23C6 22.7348 6.10536 22.4804 6.29289 22.2929C6.48043 22.1054 6.73478 22 7 22H12Z" fill="#1A1C1F"/>
</g>
<defs>
<clipPath id="clip0_184_57">
<rect width="32" height="32" fill="white"/>
</clipPath>
</defs>
</svg>
