<svg width="14" height="14" viewBox="0 0 14 14" fill="none" xmlns="http://www.w3.org/2000/svg">
<g clip-path="url(#clip0_184_67)">
<path fill-rule="evenodd" clip-rule="evenodd" d="M8.05202 1.7485C8.29709 1.75063 8.53733 1.81695 8.74877 1.94087C8.96021 2.06479 9.13548 2.24197 9.25709 2.45474C9.37871 2.66752 9.44242 2.90845 9.44188 3.15353C9.44135 3.39861 9.37657 3.63927 9.25402 3.8515H11.029C11.889 3.8515 12.6 4.5615 12.6 5.4225V10.6675C12.6 11.4875 12.013 12.2515 11.03 12.2515H2.97002C2.11002 12.2515 1.40002 11.5415 1.40002 10.6675V5.4225C1.40002 4.5625 2.12402 3.8525 2.97002 3.8525H4.74602C4.61969 3.64211 4.55394 3.4009 4.55602 3.1555C4.55416 2.78437 4.69974 2.42769 4.96077 2.16385C5.22179 1.90002 5.57689 1.75062 5.94802 1.7485C6.37202 1.7485 6.74002 1.9395 7.00002 2.2265C7.26002 1.9395 7.62802 1.7485 8.05202 1.7485ZM6.30302 8.0455H2.80702V10.8455H6.30302V8.0455ZM11.193 8.0455H7.69702V10.8455H11.193V8.0455ZM6.30302 5.2455H2.80702V6.6515H6.30302V5.2455ZM11.193 5.2455H7.69702V6.6515H11.193V5.2455Z" fill="#1A1C1F"/>
</g>
<defs>
<clipPath id="clip0_184_67">
<rect width="14" height="14" fill="white"/>
</clipPath>
</defs>
</svg>
