<svg width="28" height="28" viewBox="0 0 28 28" fill="none" xmlns="http://www.w3.org/2000/svg">
<g clip-path="url(#clip0_184_59)">
<path fill-rule="evenodd" clip-rule="evenodd" d="M17.063 2.625C17.6774 2.62509 18.281 2.78693 18.8131 3.09425C19.3451 3.40157 19.7869 3.84354 20.094 4.37572C20.4011 4.90791 20.5627 5.51156 20.5625 6.126C20.5623 6.74043 20.4004 7.34399 20.093 7.876L23.625 7.875C24.3212 7.875 24.9889 8.15156 25.4812 8.64385C25.9734 9.13613 26.25 9.80381 26.25 10.5V22.75C26.25 23.4462 25.9734 24.1139 25.4812 24.6062C24.9889 25.0984 24.3212 25.375 23.625 25.375H4.375C3.67881 25.375 3.01113 25.0984 2.51884 24.6062C2.02656 24.1139 1.75 23.4462 1.75 22.75V10.5C1.75 9.80381 2.02656 9.13613 2.51884 8.64385C3.01113 8.15156 3.67881 7.875 4.375 7.875L7.906 7.876C7.44916 7.06776 7.33212 6.11113 7.5806 5.21659C7.82909 4.32204 8.42275 3.56284 9.231 3.106C10.0392 2.64917 10.9959 2.53212 11.8904 2.7806C12.785 3.02909 13.5442 3.62276 14.001 4.431C14.3029 3.88338 14.7464 3.42689 15.285 3.1092C15.8236 2.79151 16.4377 2.62429 17.063 2.625ZM13.125 14.875H3.5V22.75C3.5 23.233 3.892 23.625 4.375 23.625H13.125V14.875ZM24.5 14.875H14.875V23.625H23.625C23.8571 23.625 24.0796 23.5328 24.2437 23.3687C24.4078 23.2046 24.5 22.9821 24.5 22.75V14.875ZM13.125 9.625H4.375C4.14294 9.625 3.92038 9.71719 3.75628 9.88128C3.59219 10.0454 3.5 10.2679 3.5 10.5V13.125H13.125V9.625ZM23.625 9.625H14.875V13.125H24.5V10.5C24.5 10.2679 24.4078 10.0454 24.2437 9.88128C24.0796 9.71719 23.8571 9.625 23.625 9.625ZM10.937 4.375C10.5909 4.375 10.2525 4.47764 9.96475 4.66993C9.67697 4.86222 9.45266 5.13554 9.32021 5.45531C9.18776 5.77508 9.1531 6.12694 9.22063 6.46641C9.28815 6.80588 9.45482 7.1177 9.69956 7.36244C9.9443 7.60718 10.2561 7.77385 10.5956 7.84138C10.9351 7.9089 11.2869 7.87425 11.6067 7.74179C11.9265 7.60934 12.1998 7.38504 12.3921 7.09725C12.5844 6.80946 12.687 6.47112 12.687 6.125C12.687 5.162 11.813 4.375 10.937 4.375ZM17.063 4.375C16.5989 4.375 16.1538 4.55938 15.8256 4.88757C15.4974 5.21575 15.313 5.66087 15.313 6.125C15.313 6.58913 15.4974 7.03425 15.8256 7.36244C16.1538 7.69063 16.5989 7.875 17.063 7.875C17.5271 7.875 17.9722 7.69063 18.3004 7.36244C18.6286 7.03425 18.813 6.58913 18.813 6.125C18.813 5.66087 18.6286 5.21575 18.3004 4.88757C17.9722 4.55938 17.5271 4.375 17.063 4.375ZM10.5 19.25C10.7321 19.25 10.9546 19.3422 11.1187 19.5063C11.2828 19.6704 11.375 19.8929 11.375 20.125C11.375 20.3571 11.2828 20.5796 11.1187 20.7437C10.9546 20.9078 10.7321 21 10.5 21H6.125C5.89294 21 5.67038 20.9078 5.50628 20.7437C5.34219 20.5796 5.25 20.3571 5.25 20.125C5.25 19.8929 5.34219 19.6704 5.50628 19.5063C5.67038 19.3422 5.89294 19.25 6.125 19.25H10.5Z" fill="#1A1C1F"/>
</g>
<defs>
<clipPath id="clip0_184_59">
<rect width="28" height="28" fill="white"/>
</clipPath>
</defs>
</svg>
