<svg width="20" height="20" viewBox="0 0 20 20" fill="none" xmlns="http://www.w3.org/2000/svg">
<g clip-path="url(#clip0_184_76)">
<path fill-rule="evenodd" clip-rule="evenodd" d="M10.657 3C11.847 3 12.821 3.259 12.822 4.254C12.822 4.795 12.559 5.061 12.122 5.061C11.916 5.061 11.222 4.881 10.637 4.881C9.56497 4.881 9.03897 5.124 9.03897 5.731C9.03897 7.531 13.793 7.087 13.793 10.101C13.793 11.092 13.207 11.983 12.296 12.408C12.64 12.873 12.802 13.439 12.782 14.026C12.782 15.948 11.548 17 9.38197 17C8.24197 17 6.68697 16.746 6.68697 15.632C6.68697 15.212 6.94697 14.832 7.44597 14.832C7.75597 14.832 8.52197 15.139 9.32197 15.139C10.354 15.139 10.88 14.815 10.88 14.188C10.88 12.327 6.20697 12.893 6.20697 9.96C6.22083 9.46206 6.37674 8.97845 6.65632 8.56617C6.9359 8.15389 7.32749 7.83012 7.78497 7.633C7.39997 7.168 7.23797 6.561 7.23797 5.953C7.23797 4.074 8.45197 3 10.658 3H10.657ZM9.07997 8.604C8.26997 8.887 7.98697 9.231 7.98697 9.595C7.98697 10.223 8.51297 10.405 10.941 11.355C11.709 11.012 11.952 10.749 11.952 10.324C11.952 9.737 11.487 9.554 9.07997 8.604Z" fill="#1A1C1F"/>
</g>
<defs>
<clipPath id="clip0_184_76">
<rect width="20" height="20" fill="white"/>
</clipPath>
</defs>
</svg>
