<svg width="12" height="12" viewBox="0 0 12 12" fill="none" xmlns="http://www.w3.org/2000/svg">
<g clip-path="url(#clip0_231_126)">
<path fill-rule="evenodd" clip-rule="evenodd" d="M6.394 1.79999C7.108 1.79999 7.693 1.95499 7.694 2.55299C7.694 2.87699 7.536 3.03699 7.274 3.03699C7.15 3.03699 6.733 2.92899 6.382 2.92899C5.739 2.92899 5.423 3.07499 5.423 3.43899C5.423 4.51899 8.276 4.25199 8.276 6.06099C8.276 6.65499 7.924 7.18999 7.378 7.44499C7.584 7.72399 7.681 8.06399 7.669 8.41499C7.669 9.56899 6.929 10.2 5.629 10.2C4.945 10.2 4.012 10.048 4.012 9.37999C4.012 9.12699 4.168 8.89999 4.467 8.89999C4.653 8.89999 5.113 9.08299 5.593 9.08299C6.213 9.08299 6.528 8.88899 6.528 8.51299C6.528 7.39599 3.724 7.73599 3.724 5.97599C3.7324 5.67724 3.826 5.38712 3.99377 5.13979C4.16155 4.89246 4.39652 4.69823 4.671 4.57999C4.441 4.29999 4.343 3.93599 4.343 3.57199C4.343 2.44299 5.071 1.79999 6.394 1.79999ZM5.448 5.16199C4.962 5.33199 4.792 5.53899 4.792 5.75699C4.792 6.13399 5.108 6.24299 6.564 6.81299C7.026 6.60699 7.171 6.44899 7.171 6.19399C7.171 5.84199 6.892 5.73299 5.448 5.16199Z" fill="#1A1C1F"/>
</g>
<defs>
<clipPath id="clip0_231_126">
<rect width="12" height="12" fill="white"/>
</clipPath>
</defs>
</svg>
