<svg width="14" height="14" viewBox="0 0 14 14" fill="none" xmlns="http://www.w3.org/2000/svg">
<g clip-path="url(#clip0_184_80)">
<path fill-rule="evenodd" clip-rule="evenodd" d="M7.45997 2.10001C8.29297 2.10001 8.97497 2.28101 8.97597 2.97801C8.97597 3.35701 8.79097 3.54301 8.48597 3.54301C8.34097 3.54301 7.85497 3.41701 7.44597 3.41701C6.69597 3.41701 6.32697 3.58701 6.32697 4.01201C6.32697 5.27201 9.65497 4.96101 9.65497 7.07101C9.65497 7.76501 9.24497 8.38801 8.60697 8.68501C8.84797 9.01101 8.96097 9.40801 8.94697 9.81801C8.94697 11.164 8.08297 11.9 6.56797 11.9C5.76997 11.9 4.68097 11.722 4.68097 10.943C4.68097 10.649 4.86197 10.383 5.21197 10.383C5.42897 10.383 5.96497 10.597 6.52597 10.597C7.24797 10.597 7.61597 10.371 7.61597 9.93201C7.61597 8.62901 4.34497 9.02501 4.34497 6.97201C4.35459 6.62349 4.46362 6.28499 4.65922 5.99638C4.85482 5.70777 5.12883 5.48107 5.44897 5.34301C5.17997 5.01701 5.06697 4.59301 5.06697 4.16801C5.06697 2.85101 5.91697 2.10001 7.45997 2.10001ZM6.35597 6.02301C5.78897 6.22101 5.59097 6.46201 5.59097 6.71701C5.59097 7.15601 5.95897 7.28301 7.65797 7.94901C8.19697 7.70901 8.36697 7.52401 8.36697 7.22701C8.36697 6.81601 8.04097 6.68801 6.35597 6.02301Z" fill="#1A1C1F"/>
</g>
<defs>
<clipPath id="clip0_184_80">
<rect width="14" height="14" fill="white"/>
</clipPath>
</defs>
</svg>
