<svg width="24" height="24" viewBox="0 0 24 24" fill="none" xmlns="http://www.w3.org/2000/svg">
<g clip-path="url(#clip0_184_74)">
<path fill-rule="evenodd" clip-rule="evenodd" d="M12.7238 4C14.0558 4 15.1338 4.239 15.1338 5.31C15.1338 5.74 14.8578 6.117 14.3178 6.117C13.8908 6.117 13.3378 5.889 12.7048 5.889C11.5668 5.889 10.9118 6.275 10.9118 7.027C10.9118 9.167 16.2318 8.607 16.2318 12.154C16.2377 12.7146 16.0707 13.2634 15.7534 13.7256C15.4361 14.1879 14.984 14.541 14.4588 14.737C14.8828 15.277 15.0558 15.933 15.0558 16.607C15.0558 18.767 13.7258 20 11.2588 20C9.94377 20 8.30877 19.687 8.30877 18.496C8.33877 18.103 8.61877 17.757 9.10177 17.757C9.39877 17.757 10.3518 18.111 11.1818 18.111C12.5118 18.111 13.1088 17.725 13.1088 16.858C13.1088 14.255 7.76877 15.278 7.76877 11.576C7.75639 11.0043 7.90779 10.4409 8.20511 9.95243C8.50242 9.46393 8.93325 9.07065 9.44677 8.819C9.15456 8.33055 9.0075 7.76898 9.02277 7.2C9.02277 5.195 10.3338 4 12.7238 4ZM10.6228 9.957C10.0248 10.169 9.58877 10.727 9.58177 11.364C9.57277 12.094 9.92877 12.347 13.0708 13.639C13.9378 13.349 14.3238 12.945 14.3238 12.347C14.3238 11.672 13.9578 11.46 10.6228 9.957Z" fill="#1A1C1F"/>
</g>
<defs>
<clipPath id="clip0_184_74">
<rect width="24" height="24" fill="white"/>
</clipPath>
</defs>
</svg>
