<svg width="28" height="28" viewBox="0 0 28 28" fill="none" xmlns="http://www.w3.org/2000/svg">
<g clip-path="url(#clip0_184_72)">
<path fill-rule="evenodd" clip-rule="evenodd" d="M14.87 3.4975C16.131 3.4975 17.982 3.7775 17.982 4.8995C17.982 5.4325 17.59 5.6565 17.141 5.6565C16.581 5.6565 15.991 5.2925 14.785 5.2925C13.103 5.2925 12.289 5.9655 12.289 7.1995C12.289 8.6015 13.383 9.1345 14.841 9.8355L16.356 10.5655C17.562 11.1535 19.469 12.0515 19.469 14.6315C19.469 16.1455 18.796 17.3795 17.085 17.9685C17.702 18.6695 17.87 19.5105 17.87 20.3525C17.87 23.0725 16.131 24.5025 13.243 24.5025C11.504 24.5025 9.23301 23.9985 9.23301 22.8485C9.23301 22.4565 9.48501 22.0345 10.046 22.0345C10.746 22.0345 11.448 22.7085 13.075 22.7085C14.785 22.7085 15.711 22.1085 15.711 20.7725C15.711 19.7625 15.206 19.0625 14.505 18.6975L12.261 17.5475C10.214 16.4825 8.53101 15.6405 8.53101 13.3975C8.53101 11.6305 9.56901 10.6205 11.196 9.8915C10.55 9.1905 10.242 8.3775 10.242 7.3955C10.242 5.0115 11.953 3.4975 14.87 3.4975ZM12.822 11.1255C11.364 11.3215 10.494 12.0515 10.494 13.1165C10.494 14.4905 11.869 15.1365 12.43 15.3885L15.374 16.7625C16.776 16.4545 17.365 15.8375 17.365 14.7155C17.365 13.4815 16.636 13.0885 16.272 12.8925L14.813 12.1075L12.823 11.1255H12.822Z" fill="#1A1C1F"/>
</g>
<defs>
<clipPath id="clip0_184_72">
<rect width="28" height="28" fill="white"/>
</clipPath>
</defs>
</svg>
