<svg width="16" height="16" viewBox="0 0 16 16" fill="none" xmlns="http://www.w3.org/2000/svg">
<g clip-path="url(#clip0_184_78)">
<path fill-rule="evenodd" clip-rule="evenodd" d="M8.52603 2.39999C9.47703 2.39999 10.256 2.60699 10.258 3.40299C10.258 3.83599 10.048 4.04899 9.69803 4.04899C9.53303 4.04899 8.97803 3.90499 8.51003 3.90499C7.65203 3.90499 7.23103 4.09899 7.23103 4.58499C7.23103 6.02499 11.035 5.66899 11.035 8.08099C11.035 8.87399 10.565 9.58599 9.83703 9.92599C10.112 10.298 10.242 10.751 10.225 11.221C10.225 12.758 9.23803 13.6 7.50603 13.6C6.59403 13.6 5.35003 13.397 5.35003 12.506C5.35003 12.17 5.55703 11.866 5.95703 11.866C6.20503 11.866 6.81703 12.111 7.45703 12.111C8.28303 12.111 8.70403 11.852 8.70403 11.351C8.70403 9.86099 4.96503 10.314 4.96503 7.96799C4.97604 7.56949 5.1008 7.18245 5.32459 6.85254C5.54837 6.52262 5.86184 6.26359 6.22803 6.10599C5.92003 5.73399 5.79103 5.24899 5.79103 4.76299C5.79103 3.25799 6.76103 2.39999 8.52603 2.39999ZM7.26403 6.88299C6.61603 7.10999 6.39003 7.38499 6.39003 7.67599C6.39003 8.17799 6.81003 8.32399 8.75303 9.08399C9.36803 8.80899 9.56203 8.59899 9.56203 8.25899C9.56203 7.78899 9.19003 7.64399 7.26403 6.88299Z" fill="#1A1C1F"/>
</g>
<defs>
<clipPath id="clip0_184_78">
<rect width="16" height="16" fill="white"/>
</clipPath>
</defs>
</svg>
