<svg width="32" height="32" viewBox="0 0 32 32" fill="none" xmlns="http://www.w3.org/2000/svg">
<g clip-path="url(#clip0_184_70)">
<path fill-rule="evenodd" clip-rule="evenodd" d="M16.994 3.99701C18.436 3.99701 20.551 4.31701 20.551 5.60001C20.551 6.20801 20.103 6.46501 19.59 6.46501C18.949 6.46501 18.276 6.04801 16.897 6.04801C14.974 6.04801 14.045 6.81801 14.045 8.22801C14.045 9.83001 15.295 10.439 16.962 11.241L18.692 12.074C20.071 12.747 22.25 13.773 22.25 16.721C22.25 18.452 21.48 19.862 19.526 20.535C20.231 21.337 20.423 22.298 20.423 23.26C20.423 26.369 18.436 28.003 15.135 28.003C13.148 28.003 10.551 27.426 10.551 26.113C10.551 25.665 10.84 25.183 11.481 25.183C12.282 25.183 13.083 25.952 14.942 25.952C16.897 25.952 17.955 25.267 17.955 23.74C17.955 22.587 17.378 21.785 16.577 21.369L14.013 20.055C11.673 18.837 9.75 17.875 9.75 15.311C9.75 13.291 10.936 12.138 12.795 11.305C12.058 10.503 11.705 9.57401 11.705 8.45201C11.705 5.72801 13.66 3.99701 16.994 3.99701ZM14.654 12.715C12.987 12.939 11.994 13.773 11.994 14.99C11.994 16.561 13.564 17.298 14.205 17.587L17.57 19.157C19.173 18.805 19.846 18.099 19.846 16.817C19.846 15.407 19.013 14.958 18.596 14.734L16.929 13.837L14.654 12.715Z" fill="#1A1C1F"/>
</g>
<defs>
<clipPath id="clip0_184_70">
<rect width="32" height="32" fill="white"/>
</clipPath>
</defs>
</svg>
