<svg width="24" height="24" viewBox="0 0 24 24" fill="none" xmlns="http://www.w3.org/2000/svg">
<g clip-path="url(#clip0_184_87)">
<path fill-rule="evenodd" clip-rule="evenodd" d="M17.411 17.2574L17.447 17.3414L18.775 21.3414C18.8152 21.4602 18.8092 21.5897 18.7584 21.7043C18.7076 21.8189 18.6155 21.9102 18.5005 21.9602C18.3855 22.0101 18.256 22.015 18.1375 21.974C18.0191 21.9329 17.9204 21.8488 17.861 21.7384L17.826 21.6554L17.474 20.5984H16.33L15.923 21.6754C15.8816 21.785 15.8031 21.8765 15.7011 21.934C15.5991 21.9916 15.4802 22.0116 15.365 21.9904L15.278 21.9664C15.1686 21.9248 15.0773 21.8462 15.02 21.7443C14.9626 21.6423 14.9428 21.5235 14.964 21.4084L14.988 21.3214L16.505 17.3214C16.5388 17.232 16.5975 17.1542 16.6741 17.0971C16.7508 17.04 16.8422 17.0061 16.9375 16.9993C17.0328 16.9926 17.1281 17.0133 17.212 17.0591C17.2959 17.1048 17.365 17.1736 17.411 17.2574ZM13.741 16.9984C14.703 16.9984 15.245 17.5404 15.245 18.5534C15.245 19.5114 14.77 20.0334 13.9 20.0884L13.742 20.0934H13.11L13.111 21.4984C13.111 21.6154 13.07 21.7288 12.9951 21.8187C12.9202 21.9086 12.8161 21.9693 12.701 21.9904L12.611 21.9984C12.494 21.9985 12.3806 21.9574 12.2907 21.8825C12.2008 21.8076 12.1401 21.7035 12.119 21.5884L12.111 21.4984V17.4984C12.111 17.3814 12.152 17.2681 12.2269 17.1782C12.3018 17.0883 12.4059 17.0275 12.521 17.0064L12.611 16.9984H13.741ZM6.496 16.9984C6.933 16.9984 7.354 17.0974 7.703 17.2654C7.8186 17.3253 7.90628 17.4279 7.94739 17.5515C7.9885 17.675 7.9798 17.8097 7.92314 17.9269C7.86648 18.0442 7.76634 18.1347 7.64399 18.1792C7.52165 18.2237 7.38676 18.2188 7.268 18.1654C7.02609 18.0536 6.76249 17.9966 6.496 17.9984C6.235 17.9984 6.156 18.0694 6.156 18.2314C6.156 18.4194 6.271 18.5704 6.654 18.8394L6.93 19.0254C7.804 19.5934 8.133 19.9324 8.133 20.6274C8.133 21.4394 7.46 21.9984 6.566 21.9984C6.10179 21.9984 5.64579 21.8759 5.244 21.6434C5.1876 21.6098 5.13837 21.5654 5.09912 21.5128C5.05988 21.4601 5.03139 21.4002 5.01528 21.3366C4.99917 21.2729 4.99575 21.2067 5.00523 21.1418C5.0147 21.0768 5.03688 21.0143 5.0705 20.9579C5.10412 20.9015 5.14852 20.8523 5.20116 20.813C5.2538 20.7738 5.31366 20.7453 5.37732 20.7292C5.44097 20.7131 5.50718 20.7097 5.57215 20.7191C5.63713 20.7286 5.6996 20.7508 5.756 20.7844C5.975 20.9144 6.273 20.9984 6.566 20.9984C6.944 20.9984 7.133 20.8414 7.133 20.6284C7.133 20.4484 7.02 20.3014 6.643 20.0374L6.372 19.8544C5.488 19.2794 5.155 18.9364 5.155 18.2314C5.155 17.4904 5.708 16.9984 6.496 16.9984ZM11.102 16.9984C11.2269 16.9982 11.3475 17.0447 11.4398 17.1289C11.5321 17.2131 11.5896 17.3288 11.6009 17.4532C11.6122 17.5777 11.5765 17.7018 11.5008 17.8012C11.4251 17.9007 11.3149 17.9682 11.192 17.9904L11.102 17.9984H9.555V18.9024H10.73C10.856 18.9007 10.978 18.9466 11.0716 19.0309C11.1652 19.1152 11.2235 19.2318 11.2349 19.3572C11.2462 19.4827 11.2098 19.6078 11.1329 19.7076C11.056 19.8074 10.9442 19.8745 10.82 19.8954L10.73 19.9034L9.555 19.9024V20.9984H11.189C11.306 20.9984 11.4194 21.0394 11.5093 21.1143C11.5992 21.1892 11.6599 21.2933 11.681 21.4084L11.689 21.4984C11.689 21.6154 11.648 21.7288 11.5731 21.8187C11.4982 21.9086 11.3941 21.9693 11.279 21.9904L11.189 21.9984H9.056C8.93897 21.9985 8.82564 21.9574 8.73574 21.8825C8.64584 21.8076 8.58506 21.7035 8.564 21.5884L8.556 21.4984V17.4984C8.55596 17.3814 8.59697 17.2681 8.67189 17.1782C8.74681 17.0883 8.85089 17.0275 8.966 17.0064L9.056 16.9984H11.102ZM16.94 18.9904L16.71 19.5984H17.142L16.94 18.9904ZM13.742 17.9984H13.11V19.0934H13.742C14.163 19.0934 14.245 19.0134 14.245 18.5534C14.245 18.1304 14.165 18.0164 13.838 18.0004L13.742 17.9984ZM18 1.99841C18.7956 1.99841 19.5587 2.31448 20.1213 2.87709C20.6839 3.4397 21 4.20276 21 4.99841V11.9984C21 12.7941 20.6839 13.5571 20.1213 14.1197C19.5587 14.6823 18.7956 14.9984 18 14.9984H6C5.20435 14.9984 4.44129 14.6823 3.87868 14.1197C3.31607 13.5571 3 12.7941 3 11.9984V4.99841C3 4.20276 3.31607 3.4397 3.87868 2.87709C4.44129 2.31448 5.20435 1.99841 6 1.99841H18ZM18 3.99841H6C5.73478 3.99841 5.48043 4.10377 5.29289 4.29131C5.10536 4.47884 5 4.7332 5 4.99841V11.9984C5 12.2636 5.10536 12.518 5.29289 12.7055C5.48043 12.8931 5.73478 12.9984 6 12.9984H18C18.2652 12.9984 18.5196 12.8931 18.7071 12.7055C18.8946 12.518 19 12.2636 19 11.9984V4.99841C19 4.7332 18.8946 4.47884 18.7071 4.29131C18.5196 4.10377 18.2652 3.99841 18 3.99841ZM14 8.99841C14.2652 8.99841 14.5196 9.10377 14.7071 9.29131C14.8946 9.47884 15 9.7332 15 9.99841C15 10.2636 14.8946 10.518 14.7071 10.7055C14.5196 10.8931 14.2652 10.9984 14 10.9984H8C7.73478 10.9984 7.48043 10.8931 7.29289 10.7055C7.10536 10.518 7 10.2636 7 9.99841C7 9.7332 7.10536 9.47884 7.29289 9.29131C7.48043 9.10377 7.73478 8.99841 8 8.99841H14ZM17 4.99841C17.2652 4.99841 17.5196 5.10377 17.7071 5.29131C17.8946 5.47884 18 5.7332 18 5.99841C18 6.26363 17.8946 6.51798 17.7071 6.70552C17.5196 6.89306 17.2652 6.99841 17 6.99841C16.7348 6.99841 16.4804 6.89306 16.2929 6.70552C16.1054 6.51798 16 6.26363 16 5.99841C16 5.7332 16.1054 5.47884 16.2929 5.29131C16.4804 5.10377 16.7348 4.99841 17 4.99841Z" fill="#1A1C1F"/>
</g>
<defs>
<clipPath id="clip0_184_87">
<rect width="24" height="24" fill="white"/>
</clipPath>
</defs>
</svg>
