<svg width="32" height="32" viewBox="0 0 32 32" fill="none" xmlns="http://www.w3.org/2000/svg">
<g clip-path="url(#clip0_184_96)">
<path fill-rule="evenodd" clip-rule="evenodd" d="M15.999 2.49951C16.787 2.49938 17.5673 2.65448 18.2954 2.95595C19.0235 3.25742 19.685 3.69935 20.2423 4.25652C20.7995 4.81368 21.2416 5.47516 21.5432 6.20318C21.8448 6.9312 22 7.7115 22 8.49951H24.999C25.2556 8.49945 25.5024 8.59803 25.6883 8.77486C25.8743 8.95169 25.9851 9.19323 25.998 9.44951L26.999 28.4495C27.0059 28.585 26.9852 28.7204 26.9381 28.8476C26.891 28.9748 26.8185 29.0911 26.7251 29.1895C26.6316 29.2878 26.5192 29.366 26.3945 29.4195C26.2699 29.473 26.1356 29.5006 26 29.5005H5.99898C5.42898 29.5005 4.97298 29.0215 5.00098 28.4495L6.00098 9.44951C6.02798 8.91851 6.46698 8.49951 6.99898 8.49951H9.99998C9.99998 6.90839 10.632 5.38241 11.757 4.25722C12.882 3.13204 14.4079 2.49978 15.999 2.49951ZM24.05 10.4995H7.94998L7.05098 27.4995H24.949L24.05 10.4995ZM15.999 4.49951C14.9383 4.49978 13.9211 4.92132 13.1712 5.67144C12.4213 6.42156 12 7.43882 12 8.49951H20C20 7.97414 19.8965 7.45391 19.6954 6.96855C19.4943 6.48318 19.1996 6.04218 18.8281 5.67073C18.4565 5.29928 18.0154 5.00467 17.53 4.80371C17.0446 4.60275 16.5244 4.49938 15.999 4.49951ZM15.999 17.4995C14.9383 17.4992 13.9211 17.0777 13.1712 16.3276C12.4213 15.5775 12 14.5602 12 13.4995C12 13.2343 11.8946 12.9799 11.7071 12.7924C11.5196 12.6049 11.2652 12.4995 11 12.4995C10.7348 12.4995 10.4804 12.6049 10.2929 12.7924C10.1053 12.9799 9.99998 13.2343 9.99998 13.4995C9.99998 15.0908 10.6321 16.6169 11.7573 17.7422C12.8826 18.8674 14.4087 19.4995 16 19.4995C17.5913 19.4995 19.1174 18.8674 20.2426 17.7422C21.3678 16.6169 22 15.0908 22 13.4995C22 13.2343 21.8946 12.9799 21.7071 12.7924C21.5196 12.6049 21.2652 12.4995 21 12.4995C20.7348 12.4995 20.4804 12.6049 20.2929 12.7924C20.1053 12.9799 20 13.2343 20 13.4995C20 14.0249 19.8965 14.5451 19.6954 15.0305C19.4943 15.5158 19.1996 15.9568 18.8281 16.3283C18.4565 16.6997 18.0154 16.9944 17.53 17.1953C17.0446 17.3963 16.5244 17.4996 15.999 17.4995Z" fill="#1A1C1F"/>
</g>
<defs>
<clipPath id="clip0_184_96">
<rect width="32" height="32" fill="white"/>
</clipPath>
</defs>
</svg>
