<svg width="28" height="28" viewBox="0 0 28 28" fill="none" xmlns="http://www.w3.org/2000/svg">
<g clip-path="url(#clip0_184_98)">
<path fill-rule="evenodd" clip-rule="evenodd" d="M14 2.18701C16.9 2.18701 19.25 4.53701 19.25 7.43701H21.874C22.341 7.43701 22.726 7.80401 22.748 8.26801L23.624 24.893C23.649 25.393 23.251 25.813 22.75 25.813H5.24998C5.13132 25.8129 5.01391 25.7887 4.90489 25.7418C4.79587 25.6949 4.69751 25.6264 4.61578 25.5404C4.53405 25.4543 4.47065 25.3526 4.42943 25.2413C4.38821 25.13 4.37002 25.0115 4.37598 24.893L5.24998 8.26801C5.26151 8.04391 5.3586 7.83279 5.52122 7.67817C5.68384 7.52355 5.89959 7.43723 6.12398 7.43701H8.74998C8.74998 4.53701 11.1 2.18701 14 2.18701ZM21.044 9.18701H6.95598L6.16998 24.062H21.83L21.044 9.18701ZM13.999 3.93701C13.0709 3.93728 12.1809 4.30614 11.5248 4.96249C10.8686 5.61884 10.5 6.50893 10.5 7.43701H17.5C17.5 6.50875 17.1312 5.61852 16.4749 4.96214C15.8185 4.30576 14.9282 3.93701 14 3.93701H13.999ZM13.999 15.312C13.0709 15.3117 12.1809 14.9429 11.5248 14.2865C10.8686 13.6302 10.5 12.7401 10.5 11.812C10.5 11.5799 10.4078 11.3574 10.2437 11.1933C10.0796 11.0292 9.85705 10.937 9.62498 10.937C9.39292 10.937 9.17036 11.0292 9.00627 11.1933C8.84217 11.3574 8.74998 11.5799 8.74998 11.812C8.74998 13.2044 9.30311 14.5398 10.2877 15.5243C11.2722 16.5089 12.6076 17.062 14 17.062C15.3924 17.062 16.7277 16.5089 17.7123 15.5243C18.6969 14.5398 19.25 13.2044 19.25 11.812C19.25 11.5799 19.1578 11.3574 18.9937 11.1933C18.8296 11.0292 18.607 10.937 18.375 10.937C18.1429 10.937 17.9204 11.0292 17.7563 11.1933C17.5922 11.3574 17.5 11.5799 17.5 11.812C17.5 12.7403 17.1312 13.6305 16.4749 14.2869C15.8185 14.9433 14.9282 15.312 14 15.312H13.999Z" fill="#1A1C1F"/>
</g>
<defs>
<clipPath id="clip0_184_98">
<rect width="28" height="28" fill="white"/>
</clipPath>
</defs>
</svg>
