<svg width="12" height="12" viewBox="0 0 12 12" fill="none" xmlns="http://www.w3.org/2000/svg">
<g clip-path="url(#clip0_2202_1489)">
<path fill-rule="evenodd" clip-rule="evenodd" d="M5.98319 1.49829C6.96019 1.49829 7.73319 1.98629 8.12219 2.73029L8.87819 1.97429C8.99193 1.86831 9.14236 1.81061 9.2978 1.81335C9.45325 1.81609 9.60155 1.87906 9.71148 1.98899C9.82141 2.09892 9.88438 2.24723 9.88713 2.40267C9.88987 2.55811 9.83217 2.70855 9.72619 2.82229C7.22719 5.32329 4.72719 7.82329 2.22619 10.3223C2.17067 10.3788 2.10452 10.4237 2.03155 10.4545C1.95858 10.4853 1.88023 10.5014 1.80103 10.5017C1.72183 10.5021 1.64334 10.4868 1.57009 10.4567C1.49683 10.4265 1.43027 10.3822 1.37423 10.3263C1.31819 10.2703 1.27379 10.2038 1.24358 10.1305C1.21338 10.0573 1.19797 9.97886 1.19825 9.89966C1.19852 9.82045 1.21447 9.74209 1.24519 9.66908C1.2759 9.59608 1.32076 9.52987 1.37719 9.47429C1.59919 9.24929 1.82219 9.02629 2.04719 8.80429L1.21319 4.61829C1.19676 4.52978 1.19981 4.43875 1.22212 4.35154C1.24443 4.26432 1.28547 4.18301 1.34237 4.11325C1.39928 4.0435 1.4707 3.98697 1.55166 3.94761C1.63262 3.90824 1.72118 3.88697 1.81119 3.88529H3.60719C3.60719 2.55029 4.58019 1.49829 5.98319 1.49829ZM10.3392 3.90329C10.6402 3.98229 10.8552 4.29329 10.7902 4.61829L9.85519 9.40829C9.82555 9.54544 9.75027 9.66848 9.64165 9.7573C9.53303 9.84613 9.39749 9.89548 9.25719 9.89729H4.34419L10.3392 3.90329ZM6.00219 2.69829C5.25419 2.69829 4.80519 3.20529 4.80519 3.90129H6.95019L7.18119 3.67129C7.08919 3.09629 6.64819 2.69829 6.00219 2.69829Z" fill="#1A1C1F"/>
</g>
<defs>
<clipPath id="clip0_2202_1489">
<rect width="12" height="12" fill="white"/>
</clipPath>
</defs>
</svg>
