<svg width="24" height="24" viewBox="0 0 24 24" fill="none" xmlns="http://www.w3.org/2000/svg">
<g clip-path="url(#clip0_184_126)">
<path fill-rule="evenodd" clip-rule="evenodd" d="M20.2237 7.99993H20.6347C21.4347 7.99993 22.1387 8.75193 21.9807 9.59393C21.4097 13.0319 20.8357 16.4689 20.2597 19.9059C20.0497 21.0699 19.1857 21.9199 17.9637 21.9949L17.7877 21.9999H6.23869L8.23969 19.9969L17.7877 19.9999C17.8862 19.9954 17.9812 19.9621 18.061 19.9041C18.1408 19.8462 18.2018 19.7662 18.2367 19.6739L18.2797 19.5939L20.2237 7.99993ZM11.9967 1.99993C13.0994 1.99531 14.1819 2.29614 15.1241 2.86909C16.0663 3.44204 16.8314 4.26472 17.3347 5.24593L19.8227 2.75593C20.0102 2.56829 20.2646 2.46282 20.5298 2.46273C20.7951 2.46263 21.0495 2.56792 21.2372 2.75543C21.4248 2.94294 21.5303 3.19731 21.5304 3.46258C21.5305 3.72785 21.4252 3.98229 21.2377 4.16993C15.398 10.0176 9.55636 15.8633 3.71269 21.7069C3.52518 21.8946 3.27081 22 3.00554 22.0001C2.74027 22.0002 2.48583 21.8949 2.29819 21.7074C2.11055 21.5199 2.00508 21.2656 2.00499 21.0003C2.00489 20.735 2.11018 20.4806 2.29769 20.2929C2.73369 19.8539 3.16969 19.4169 3.60869 18.9809L2.01469 9.62493C1.89669 8.85793 2.37669 7.99993 3.23469 7.99993C4.15536 7.99793 5.07602 7.99793 5.99669 7.99993C5.99669 7.21192 6.15192 6.43162 6.45351 5.7036C6.7551 4.97558 7.19714 4.3141 7.7544 3.75694C8.31166 3.19977 8.97321 2.75784 9.70128 2.45637C10.4294 2.1549 11.2097 1.9998 11.9977 1.99993H11.9967ZM12.5817 9.99993H4.11169L5.34069 17.2479L12.5827 9.99993H12.5817ZM11.9967 3.99993C10.9693 3.99623 9.98009 4.38941 9.23555 5.09743C8.49101 5.80545 8.04863 6.77361 8.00069 7.79993L7.99669 7.99993H14.5817L15.8047 6.77693C15.5452 5.971 15.037 5.26805 14.353 4.7691C13.6689 4.27014 12.8444 4.00085 11.9977 3.99993H11.9967Z" fill="#1A1C1F"/>
</g>
<defs>
<clipPath id="clip0_184_126">
<rect width="24" height="24" fill="white"/>
</clipPath>
</defs>
</svg>
