<svg width="14" height="14" viewBox="0 0 14 14" fill="none" xmlns="http://www.w3.org/2000/svg">
<g clip-path="url(#clip0_2202_1487)">
<path fill-rule="evenodd" clip-rule="evenodd" d="M6.97811 1.75C8.1181 1.75 9.0201 2.319 9.4731 3.187L10.3551 2.305C10.4864 2.17372 10.6644 2.09996 10.8501 2.09996C11.0358 2.09996 11.2138 2.17372 11.3451 2.305C11.4764 2.43628 11.5501 2.61434 11.5501 2.8C11.5501 2.98566 11.4764 3.16372 11.3451 3.295C8.42972 6.21294 5.51305 9.12961 2.5951 12.045C2.5301 12.11 2.45293 12.1616 2.368 12.1968C2.28307 12.2319 2.19204 12.2501 2.1001 12.2501C2.00817 12.2501 1.91714 12.2319 1.83221 12.1968C1.74728 12.1616 1.67011 12.11 1.6051 12.045C1.4743 11.9135 1.40088 11.7355 1.40088 11.55C1.40088 11.3645 1.4743 11.1865 1.6051 11.055C1.8641 10.793 2.1241 10.533 2.3851 10.273L1.4131 5.39C1.3939 5.28663 1.39746 5.18032 1.42356 5.07847C1.44965 4.97662 1.49764 4.88168 1.56419 4.80029C1.63074 4.71889 1.71423 4.65298 1.80887 4.60717C1.9035 4.56135 2.00698 4.53672 2.1121 4.535H4.2071C4.2071 2.978 5.34011 1.75 6.97811 1.75ZM12.0601 4.556C12.2366 4.60306 12.389 4.71495 12.4866 4.86936C12.5843 5.02376 12.6202 5.20931 12.5871 5.389L11.4951 10.98C11.4605 11.14 11.3726 11.2835 11.2458 11.3871C11.119 11.4906 10.9608 11.548 10.7971 11.55H5.0651L12.0601 4.556ZM7.0001 3.15C6.1271 3.15 5.60311 3.742 5.60311 4.553H8.1061L8.37611 4.285C8.26811 3.615 7.75411 3.15 7.0001 3.15Z" fill="#1A1C1F"/>
</g>
<defs>
<clipPath id="clip0_2202_1487">
<rect width="14" height="14" fill="white"/>
</clipPath>
</defs>
</svg>
