<svg width="12" height="12" viewBox="0 0 12 12" fill="none" xmlns="http://www.w3.org/2000/svg">
<g clip-path="url(#clip0_2202_1481)">
<path fill-rule="evenodd" clip-rule="evenodd" d="M5.98094 1.80048C7.40294 1.80048 8.39394 2.83448 8.39394 4.18748H10.1899C10.28 4.18916 10.3685 4.21042 10.4495 4.24979C10.5304 4.28916 10.6018 4.34568 10.6588 4.41544C10.7157 4.48519 10.7567 4.5665 10.779 4.65372C10.8013 4.74094 10.8044 4.83196 10.7879 4.92048L9.85294 9.71048C9.82331 9.84762 9.74803 9.97067 9.63941 10.0595C9.53078 10.1483 9.39525 10.1977 9.25494 10.1995H2.74494C2.60673 10.1973 2.47353 10.1474 2.36785 10.0583C2.26217 9.96918 2.1905 9.84632 2.16494 9.71048L1.21194 4.92048C1.19552 4.83196 1.19857 4.74094 1.22088 4.65372C1.24319 4.5665 1.28422 4.48519 1.34113 4.41544C1.39804 4.34568 1.46945 4.28916 1.55041 4.24979C1.63137 4.21042 1.71993 4.18916 1.80994 4.18748H3.60594C3.60594 2.85248 4.57794 1.80048 5.98094 1.80048ZM5.99994 3.00048C5.25194 3.00048 4.80294 3.50748 4.80294 4.20348H7.19694C7.19694 3.50748 6.72994 3.00048 5.99994 3.00048Z" fill="#1A1C1F"/>
</g>
<defs>
<clipPath id="clip0_2202_1481">
<rect width="12" height="12" fill="white"/>
</clipPath>
</defs>
</svg>
