<svg width="32" height="32" viewBox="0 0 32 32" fill="none" xmlns="http://www.w3.org/2000/svg">
<g clip-path="url(#clip0_2202_1397)">
<path fill-rule="evenodd" clip-rule="evenodd" d="M23.11 25.875C23.3257 25.8747 23.5393 25.917 23.7386 25.9995C23.938 26.0819 24.1191 26.2028 24.2716 26.3553C24.4241 26.5079 24.5451 26.689 24.6275 26.8883C24.7099 27.0877 24.7522 27.3013 24.752 27.517C24.752 28.391 24.018 29.125 23.11 29.125C22.8986 29.1257 22.6892 29.0845 22.4938 29.0039C22.2984 28.9234 22.1209 28.8049 21.9715 28.6555C21.822 28.5061 21.7036 28.3285 21.623 28.1331C21.5424 27.9377 21.5013 27.7284 21.502 27.517C21.502 26.609 22.201 25.875 23.11 25.875ZM11.61 25.875C11.8257 25.8747 12.0393 25.917 12.2386 25.9995C12.438 26.0819 12.6191 26.2028 12.7716 26.3553C12.9241 26.5079 13.0451 26.689 13.1275 26.8883C13.2099 27.0877 13.2522 27.3013 13.252 27.517C13.252 28.391 12.518 29.125 11.61 29.125C11.3986 29.1257 11.1892 29.0845 10.9938 29.0039C10.7984 28.9234 10.6209 28.8049 10.4715 28.6555C10.322 28.5061 10.2036 28.3285 10.123 28.1331C10.0424 27.9377 10.0013 27.7284 10.002 27.517C10.002 26.609 10.701 25.875 11.61 25.875ZM4.93395 2.875C6.25295 2.875 7.41095 3.755 7.73395 5.011L7.93095 5.89L25.073 5.889L27.79 3.172C27.9776 2.98436 28.2321 2.87894 28.4975 2.87894C28.7628 2.87894 29.0173 2.98436 29.205 3.172C29.3926 3.35964 29.498 3.61414 29.498 3.8795C29.498 4.14486 29.3926 4.39936 29.205 4.587C21.8748 11.9205 14.5428 19.2522 7.20895 26.582C7.11671 26.6775 7.00636 26.7537 6.88436 26.8061C6.76235 26.8585 6.63113 26.8861 6.49835 26.8873C6.36558 26.8884 6.2339 26.8631 6.111 26.8128C5.9881 26.7625 5.87645 26.6883 5.78256 26.5944C5.68867 26.5005 5.61441 26.3888 5.56413 26.266C5.51385 26.1431 5.48855 26.0114 5.4897 25.8786C5.49086 25.7458 5.51844 25.6146 5.57085 25.4926C5.62326 25.3706 5.69944 25.2602 5.79495 25.168C6.9315 24.0275 8.06983 22.8889 9.20995 21.752L9.18695 21.658L5.92795 5.826C5.77195 5.152 5.35095 4.863 4.93395 4.863H3.49595C3.23281 4.86143 2.9809 4.7562 2.79483 4.57012C2.60876 4.38405 2.50353 4.13214 2.50195 3.869C2.50353 3.60586 2.60876 3.35395 2.79483 3.16788C2.9809 2.9818 3.23281 2.87657 3.49595 2.875H4.93395ZM23.999 21.883C24.2621 21.8846 24.514 21.9898 24.7001 22.1759C24.8861 22.3619 24.9914 22.6139 24.993 22.877C24.9916 23.1403 24.8865 23.3925 24.7004 23.5788C24.5143 23.7651 24.2623 23.8704 23.999 23.872H12.722L14.711 21.883H23.999ZM12.227 18.735L10.625 18.905L10.879 20.083L12.227 18.735ZM28.962 7.63C28.992 7.847 28.986 8.072 28.938 8.295L27.206 15.089C26.949 16.276 25.987 17.174 24.8 17.399L18.528 18.065L20.789 15.803L24.544 15.41C24.897 15.314 25.154 15.025 25.249 14.64L26.384 10.207L28.962 7.63ZM23.084 7.878H8.33395L10.194 16.918L14.497 16.465L23.084 7.878Z" fill="#1A1C1F"/>
</g>
<defs>
<clipPath id="clip0_2202_1397">
<rect width="32" height="32" fill="white"/>
</clipPath>
</defs>
</svg>
