<svg width="28" height="28" viewBox="0 0 28 28" fill="none" xmlns="http://www.w3.org/2000/svg">
<g clip-path="url(#clip0_184_150)">
<path fill-rule="evenodd" clip-rule="evenodd" d="M20.125 1.75C20.8211 1.75027 21.4886 2.02691 21.9809 2.51914C22.4731 3.01136 22.7497 3.67889 22.75 4.375V23.625C22.7497 24.3211 22.4731 24.9886 21.9809 25.4809C21.4886 25.9731 20.8211 26.2497 20.125 26.25H7.875C7.17889 26.2497 6.51136 25.9731 6.01914 25.4809C5.52691 24.9886 5.25027 24.3211 5.25 23.625V4.375C5.25027 3.67889 5.52691 3.01136 6.01914 2.51914C6.51136 2.02691 7.17889 1.75027 7.875 1.75H20.125ZM20.125 3.5H7.875C7.75968 3.49852 7.64524 3.52015 7.53841 3.5636C7.43158 3.60704 7.33454 3.67144 7.25299 3.75299C7.17144 3.83454 7.10704 3.93158 7.0636 4.03841C7.02015 4.14524 6.99852 4.25968 7 4.375V23.625C7 24.117 7.383 24.5 7.875 24.5H20.125C20.2403 24.5015 20.3548 24.4799 20.4616 24.4364C20.5684 24.393 20.6655 24.3286 20.747 24.247C20.8286 24.1655 20.893 24.0684 20.9364 23.9616C20.9799 23.8548 21.0015 23.7403 21 23.625V4.375C21.0015 4.25968 20.9799 4.14524 20.9364 4.03841C20.893 3.93158 20.8286 3.83454 20.747 3.75299C20.6655 3.67144 20.5684 3.60704 20.4616 3.5636C20.3548 3.52015 20.2403 3.49852 20.125 3.5ZM8.75 20.125C8.75 19.633 9.133 19.25 9.625 19.25H10.5C10.992 19.25 11.375 19.633 11.375 20.125C11.3765 20.2403 11.3549 20.3548 11.3114 20.4616C11.268 20.5684 11.2036 20.6655 11.122 20.747C11.0405 20.8286 10.9434 20.893 10.8366 20.9364C10.7298 20.9799 10.6153 21.0015 10.5 21H9.625C9.50968 21.0015 9.39524 20.9799 9.28841 20.9364C9.18158 20.893 9.08454 20.8286 9.00299 20.747C8.92144 20.6655 8.85704 20.5684 8.81359 20.4616C8.77015 20.3548 8.74852 20.2403 8.75 20.125ZM12.688 20.125C12.688 19.633 13.07 19.25 13.562 19.25H14.438C14.93 19.25 15.312 19.633 15.312 20.125C15.3135 20.2402 15.2919 20.3546 15.2485 20.4614C15.2051 20.5681 15.1408 20.6651 15.0594 20.7466C14.9779 20.8282 14.881 20.8926 14.7743 20.9361C14.6676 20.9796 14.5532 21.0013 14.438 21H13.562C13.4468 21.0013 13.3324 20.9796 13.2257 20.9361C13.119 20.8926 13.0221 20.8282 12.9406 20.7466C12.8592 20.6651 12.7949 20.5681 12.7515 20.4614C12.7081 20.3546 12.6865 20.2402 12.688 20.125ZM16.625 20.125C16.625 19.633 17.008 19.25 17.5 19.25H18.375C18.867 19.25 19.25 19.633 19.25 20.125C19.2515 20.2403 19.2299 20.3548 19.1864 20.4616C19.143 20.5684 19.0786 20.6655 18.997 20.747C18.9155 20.8286 18.8184 20.893 18.7116 20.9364C18.6048 20.9799 18.4903 21.0015 18.375 21H17.5C17.3847 21.0015 17.2702 20.9799 17.1634 20.9364C17.0566 20.893 16.9595 20.8286 16.878 20.747C16.7964 20.6655 16.732 20.5684 16.6886 20.4616C16.6451 20.3548 16.6235 20.2403 16.625 20.125Z" fill="#1A1C1F"/>
</g>
<defs>
<clipPath id="clip0_184_150">
<rect width="28" height="28" fill="white"/>
</clipPath>
</defs>
</svg>
