<svg width="28" height="28" viewBox="0 0 28 28" fill="none" xmlns="http://www.w3.org/2000/svg">
<g clip-path="url(#clip0_184_163)">
<path fill-rule="evenodd" clip-rule="evenodd" d="M15.75 5.6835C17.2 5.6835 18.375 6.8855 18.375 8.3335V23.1635C18.375 24.6105 17.199 25.8125 15.75 25.8125H5.25C3.8 25.8125 2.625 24.6105 2.625 23.1625V8.3335C2.625 6.8865 3.801 5.6845 5.25 5.6845H15.75V5.6835ZM15.75 7.4315H5.25C4.758 7.4315 4.375 7.8415 4.375 8.3325V23.1625C4.375 23.6545 4.758 24.0375 5.25 24.0375H15.75C15.8653 24.0391 15.9797 24.0176 16.0865 23.9743C16.1933 23.9309 16.2904 23.8666 16.372 23.7852C16.4535 23.7037 16.5179 23.6067 16.5614 23.4999C16.6049 23.3932 16.6265 23.2788 16.625 23.1635V8.3335C16.625 7.8415 16.242 7.4315 15.75 7.4315ZM22.75 2.1875C24.2 2.1875 25.375 3.3895 25.375 4.8375V19.6675C25.375 21.1145 24.199 22.3165 22.75 22.3165H21.027C20.535 22.3165 20.152 21.9065 20.152 21.4155C20.1536 21.184 20.2463 20.9625 20.4101 20.7989C20.5739 20.6353 20.7955 20.5428 21.027 20.5415H22.75C22.8653 20.5431 22.9797 20.5216 23.0865 20.4783C23.1933 20.4349 23.2904 20.3706 23.372 20.2892C23.4535 20.2077 23.5179 20.1107 23.5614 20.0039C23.6049 19.8972 23.6265 19.7828 23.625 19.6675V4.8375C23.6266 4.72215 23.6051 4.60764 23.5617 4.50075C23.5183 4.39386 23.4539 4.29676 23.3723 4.21518C23.2907 4.13361 23.1936 4.06922 23.0868 4.02581C22.9799 3.98241 22.8654 3.96088 22.75 3.9625H12.25C12.0185 3.96119 11.7969 3.86872 11.6331 3.70512C11.4693 3.54153 11.3766 3.31999 11.375 3.0885C11.375 2.5975 11.758 2.1875 12.25 2.1875H22.75ZM7 19.6675C7.492 19.6675 7.875 20.0775 7.875 20.5685C7.87343 20.8 7.7807 21.0215 7.61692 21.1851C7.45314 21.3487 7.23149 21.4412 7 21.4425C6.76851 21.4412 6.54686 21.3487 6.38308 21.1851C6.2193 21.0215 6.12657 20.8 6.125 20.5685C6.125 20.0765 6.508 19.6675 7 19.6675ZM10.5 19.6675C10.992 19.6675 11.375 20.0775 11.375 20.5685C11.3734 20.8 11.2807 21.0215 11.1169 21.1851C10.9531 21.3487 10.7315 21.4412 10.5 21.4425C10.2685 21.4412 10.0469 21.3487 9.88308 21.1851C9.7193 21.0215 9.62657 20.8 9.625 20.5685C9.625 20.0765 10.008 19.6675 10.5 19.6675ZM14 19.6675C14.492 19.6675 14.875 20.0775 14.875 20.5685C14.8734 20.8 14.7807 21.0215 14.6169 21.1851C14.4531 21.3487 14.2315 21.4412 14 21.4425C13.7685 21.4412 13.5469 21.3487 13.3831 21.1851C13.2193 21.0215 13.1266 20.8 13.125 20.5685C13.125 20.0765 13.508 19.6675 14 19.6675ZM21 15.2975C21.2315 15.2988 21.4531 15.3913 21.6169 15.5549C21.7807 15.7185 21.8734 15.94 21.875 16.1715C21.8765 16.2868 21.8549 16.4012 21.8114 16.5079C21.7679 16.6147 21.7035 16.7117 21.622 16.7932C21.5404 16.8746 21.4433 16.9389 21.3365 16.9823C21.2297 17.0256 21.1153 17.0471 21 17.0455C20.8847 17.0471 20.7703 17.0256 20.6635 16.9823C20.5567 16.9389 20.4596 16.8746 20.378 16.7932C20.2965 16.7117 20.2321 16.6147 20.1886 16.5079C20.1451 16.4012 20.1235 16.2868 20.125 16.1715C20.1266 15.94 20.2193 15.7185 20.3831 15.5549C20.5469 15.3913 20.7685 15.2988 21 15.2975Z" fill="#1A1C1F"/>
</g>
<defs>
<clipPath id="clip0_184_163">
<rect width="28" height="28" fill="white"/>
</clipPath>
</defs>
</svg>
