<svg width="14" height="14" viewBox="0 0 14 14" fill="none" xmlns="http://www.w3.org/2000/svg">
<g clip-path="url(#clip0_184_158)">
<path fill-rule="evenodd" clip-rule="evenodd" d="M4.19999 12.6H9.79999C10.566 12.6 11.2 11.966 11.2 11.2V2.80002C11.2 2.01302 10.566 1.40002 9.79999 1.40002H4.19999C3.43399 1.40002 2.79999 2.01302 2.79999 2.80002V11.2C2.79999 11.966 3.43399 12.6 4.19999 12.6ZM4.19999 11.2V2.80002H9.79999V11.2H4.19999ZM4.89999 9.08902C4.89999 8.73302 5.19799 8.40002 5.58899 8.40002C6.00199 8.40002 6.29999 8.73302 6.29999 9.08902C6.30038 9.18251 6.28227 9.27514 6.24667 9.36158C6.21108 9.44802 6.15873 9.52656 6.09263 9.59266C6.02652 9.65876 5.94799 9.71112 5.86154 9.74671C5.7751 9.7823 5.68247 9.80042 5.58899 9.80002C5.19899 9.80002 4.89999 9.46702 4.89999 9.08902ZM7.69799 9.08902C7.69799 8.73302 8.01399 8.40002 8.39799 8.40002C8.78199 8.40002 9.09799 8.73302 9.09799 9.08902C9.09648 9.27523 9.02259 9.45356 8.89194 9.58625C8.7613 9.71895 8.58415 9.79562 8.39799 9.80002C8.21182 9.79562 8.03468 9.71895 7.90403 9.58625C7.77339 9.45356 7.69949 9.27523 7.69799 9.08902Z" fill="#1A1C1F"/>
</g>
<defs>
<clipPath id="clip0_184_158">
<rect width="14" height="14" fill="white"/>
</clipPath>
</defs>
</svg>
