<svg width="24" height="24" viewBox="0 0 24 24" fill="none" xmlns="http://www.w3.org/2000/svg">
<g clip-path="url(#clip0_184_152)">
<path fill-rule="evenodd" clip-rule="evenodd" d="M15.993 2C16.7898 2.00106 17.5538 2.31793 18.1174 2.88119C18.681 3.44445 18.9984 4.20817 19 5.005V18.995C18.9984 19.7918 18.681 20.5555 18.1174 21.1188C17.5538 21.6821 16.7898 21.9989 15.993 22H8.007C7.21016 21.9989 6.44624 21.6821 5.8826 21.1188C5.31897 20.5555 5.00159 19.7918 5 18.995V5.005C5.00159 4.20817 5.31897 3.44445 5.8826 2.88119C6.44624 2.31793 7.21016 2.00106 8.007 2H15.993ZM15.993 4.019H7.983C7.8519 4.02044 7.72237 4.04771 7.60183 4.09928C7.48128 4.15084 7.37209 4.22567 7.2805 4.31948C7.18892 4.4133 7.11673 4.52426 7.06809 4.64601C7.01944 4.76775 6.99528 4.8979 6.997 5.029V19.019C6.997 19.559 7.443 20.005 7.983 20.005H15.993C16.1241 20.0067 16.2542 19.9826 16.376 19.9339C16.4977 19.8853 16.6087 19.8131 16.7025 19.7215C16.7963 19.6299 16.8712 19.5207 16.9227 19.4002C16.9743 19.2796 17.0016 19.1501 17.003 19.019V5.029C17.003 4.465 16.557 4.019 15.993 4.019ZM8.007 17C8.007 17.54 8.453 17.986 9.017 17.986C9.557 17.986 10.003 17.54 10.003 17C10.003 16.7353 9.89785 16.4815 9.71069 16.2943C9.52353 16.1071 9.26969 16.002 9.005 16.002C8.74031 16.002 8.48647 16.1071 8.29931 16.2943C8.11215 16.4815 8.007 16.7353 8.007 17ZM10.99 17C10.99 17.54 11.436 17.986 12 17.986C12.54 17.986 12.987 17.54 12.987 17C12.987 16.7352 12.8818 16.4812 12.6945 16.294C12.5073 16.1067 12.2533 16.0015 11.9885 16.0015C11.7237 16.0015 11.4697 16.1067 11.2825 16.294C11.0952 16.4812 10.99 16.7352 10.99 17ZM13.997 17C13.997 17.54 14.443 17.986 14.983 17.986C15.2476 17.986 15.5013 17.8809 15.6883 17.6938C15.8754 17.5068 15.9805 17.2531 15.9805 16.9885C15.9805 16.7239 15.8754 16.4702 15.6883 16.2832C15.5013 16.0961 15.2476 15.991 14.983 15.991C14.8519 15.9924 14.7224 16.0197 14.6018 16.0713C14.4813 16.1228 14.3721 16.1977 14.2805 16.2915C14.1889 16.3853 14.1167 16.4963 14.0681 16.618C14.0194 16.7398 13.9953 16.8689 13.997 17Z" fill="#1A1C1F"/>
</g>
<defs>
<clipPath id="clip0_184_152">
<rect width="24" height="24" fill="white"/>
</clipPath>
</defs>
</svg>
