<svg width="20" height="20" viewBox="0 0 20 20" fill="none" xmlns="http://www.w3.org/2000/svg">
<g clip-path="url(#clip0_184_154)">
<path fill-rule="evenodd" clip-rule="evenodd" d="M6 18H14C15.094 18 16 17.094 16 16V4C16 2.875 15.094 2 14 2H6C4.906 2 4 2.875 4 4V16C4 17.094 4.906 18 6 18ZM6 16V4H14V16H6ZM7 12.984C7 12.476 7.426 12 7.984 12C8.574 12 9 12.476 9 12.984C9.0008 13.1176 8.97506 13.2501 8.92428 13.3737C8.87351 13.4974 8.7987 13.6097 8.7042 13.7042C8.60969 13.7987 8.49737 13.8735 8.37375 13.9243C8.25012 13.9751 8.11765 14.0008 7.984 14C7.426 14 7 13.524 7 12.984ZM10.997 12.984C10.997 12.476 11.448 12 11.997 12C12.545 12 12.997 12.476 12.997 12.984C12.997 13.524 12.545 14 11.997 14C11.448 14 10.997 13.524 10.997 12.984Z" fill="#1A1C1F"/>
</g>
<defs>
<clipPath id="clip0_184_154">
<rect width="20" height="20" fill="white"/>
</clipPath>
</defs>
</svg>
