<svg width="14" height="14" viewBox="0 0 14 14" fill="none" xmlns="http://www.w3.org/2000/svg">
<g clip-path="url(#clip0_2202_1495)">
<path fill-rule="evenodd" clip-rule="evenodd" d="M11.146 2.80005C11.949 2.80005 12.6 3.45005 12.6 4.25405V5.60005C12.6 5.7857 12.5263 5.96375 12.395 6.09502C12.2637 6.2263 12.0857 6.30005 11.9 6.30005C11.7144 6.30005 11.5363 6.3738 11.4051 6.50507C11.2738 6.63635 11.2 6.8144 11.2 7.00005C11.2 7.1857 11.2738 7.36375 11.4051 7.49502C11.5363 7.6263 11.7144 7.70005 11.9 7.70005C12.0857 7.70005 12.2637 7.7738 12.395 7.90507C12.5263 8.03635 12.6 8.2144 12.6 8.40005V9.74605C12.6 10.549 11.95 11.2 11.146 11.2H2.85402C2.05102 11.2 1.40002 10.55 1.40002 9.74605V8.40005C1.40002 8.2144 1.47377 8.03635 1.60505 7.90507C1.73633 7.7738 1.91437 7.70005 2.10002 7.70005C2.28568 7.70005 2.46372 7.6263 2.595 7.49502C2.72627 7.36375 2.80002 7.1857 2.80002 7.00005C2.80002 6.8144 2.72627 6.63635 2.595 6.50507C2.46372 6.3738 2.28568 6.30005 2.10002 6.30005C1.91437 6.30005 1.73633 6.2263 1.60505 6.09502C1.47377 5.96375 1.40002 5.7857 1.40002 5.60005V4.25405C1.40002 3.45105 2.05002 2.80005 2.85402 2.80005H11.146ZM8.39302 7.69605C8.20825 7.69631 8.03112 7.76983 7.90046 7.90049C7.76981 8.03114 7.69629 8.20827 7.69602 8.39305C7.69444 8.53296 7.73459 8.67016 7.81133 8.78715C7.88808 8.90414 7.99794 8.99561 8.1269 9.04988C8.25586 9.10415 8.39807 9.11877 8.53537 9.09186C8.67268 9.06495 8.79885 8.99774 8.89778 8.89881C8.99672 8.79987 9.06393 8.6737 9.09084 8.5364C9.11775 8.39909 9.10313 8.25688 9.04886 8.12792C8.99459 7.99896 8.90312 7.8891 8.78613 7.81236C8.66914 7.73561 8.53193 7.69547 8.39202 7.69705L8.39302 7.69605ZM8.05202 4.95305L4.96802 8.05205L5.94802 9.03205L9.04702 5.94805L8.05202 4.95305ZM5.60702 4.89605C5.42031 4.89419 5.24051 4.96658 5.10717 5.0973C4.97383 5.22801 4.89788 5.40634 4.89602 5.59305C4.89417 5.77976 4.96656 5.95956 5.09727 6.0929C5.22798 6.22624 5.40631 6.30219 5.59302 6.30405C5.68547 6.30497 5.7772 6.28767 5.86297 6.25314C5.94873 6.21861 6.02686 6.16752 6.09288 6.1028C6.1589 6.03808 6.21153 5.96099 6.24776 5.87593C6.28399 5.79086 6.3031 5.6995 6.30402 5.60705C6.30494 5.5146 6.28764 5.42287 6.25311 5.33711C6.21858 5.25134 6.1675 5.17322 6.10278 5.1072C6.03805 5.04117 5.96096 4.98855 5.8759 4.95232C5.79084 4.91609 5.69947 4.89697 5.60702 4.89605Z" fill="#1A1C1F"/>
</g>
<defs>
<clipPath id="clip0_2202_1495">
<rect width="14" height="14" fill="white"/>
</clipPath>
</defs>
</svg>
