<svg width="14" height="14" viewBox="0 0 14 14" fill="none" xmlns="http://www.w3.org/2000/svg">
<g clip-path="url(#clip0_184_184)">
<path fill-rule="evenodd" clip-rule="evenodd" d="M11.146 2.80005C11.949 2.80005 12.6 3.45005 12.6 4.25405V5.60005C12.6 5.7857 12.5263 5.96375 12.395 6.09502C12.2637 6.2263 12.0857 6.30005 11.9 6.30005C11.7144 6.30005 11.5363 6.3738 11.4051 6.50507C11.2738 6.63635 11.2 6.8144 11.2 7.00005C11.2 7.1857 11.2738 7.36375 11.4051 7.49502C11.5363 7.6263 11.7144 7.70005 11.9 7.70005C12.0857 7.70005 12.2637 7.7738 12.395 7.90507C12.5263 8.03635 12.6 8.2144 12.6 8.40005V9.74605C12.6 10.549 11.95 11.2 11.146 11.2H2.85402C2.05102 11.2 1.40002 10.55 1.40002 9.74605V8.40005C1.40002 8.2144 1.47377 8.03635 1.60505 7.90507C1.73633 7.7738 1.91437 7.70005 2.10002 7.70005C2.28568 7.70005 2.46372 7.6263 2.595 7.49502C2.72627 7.36375 2.80002 7.1857 2.80002 7.00005C2.80002 6.8144 2.72627 6.63635 2.595 6.50507C2.46372 6.3738 2.28568 6.30005 2.10002 6.30005C1.91437 6.30005 1.73633 6.2263 1.60505 6.09502C1.47377 5.96375 1.40002 5.7857 1.40002 5.60005V4.25405C1.40002 3.45105 2.05002 2.80005 2.85402 2.80005H11.146ZM11.146 4.20005H2.85402C2.8397 4.20005 2.82597 4.20574 2.81584 4.21586C2.80571 4.22599 2.80002 4.23973 2.80002 4.25405V5.01905C3.58302 5.29905 4.14702 6.01905 4.19602 6.87705L4.20002 7.00005C4.20022 7.43303 4.06657 7.85549 3.81739 8.20958C3.5682 8.56366 3.21566 8.83207 2.80802 8.97805L2.80002 9.74605C2.80002 9.76805 2.81402 9.78805 2.83302 9.79605L2.85302 9.80005H11.146C11.176 9.80005 11.2 9.77605 11.2 9.74605V8.98005C10.417 8.70005 9.85302 7.98005 9.80402 7.12305L9.80002 7.00005C9.79983 6.56707 9.93347 6.14461 10.1827 5.79052C10.4318 5.43643 10.7844 5.16803 11.192 5.02205L11.2 4.25405C11.2001 4.24339 11.197 4.23295 11.1911 4.22405C11.1852 4.21516 11.1768 4.20819 11.167 4.20405L11.147 4.20005H11.146ZM8.39302 7.69605C8.48753 7.69167 8.58194 7.70638 8.67063 7.73931C8.75932 7.77224 8.84047 7.8227 8.90922 7.88769C8.97797 7.95268 9.03291 8.03085 9.07078 8.11755C9.10864 8.20425 9.12863 8.29769 9.12958 8.39229C9.13052 8.48689 9.11238 8.58071 9.07625 8.66814C9.04013 8.75558 8.98675 8.83483 8.9193 8.90118C8.85186 8.96752 8.77174 9.01959 8.68372 9.05427C8.5957 9.08896 8.5016 9.10555 8.40702 9.10305C8.22481 9.09824 8.05156 9.02293 7.92373 8.89298C7.7959 8.76304 7.72346 8.58857 7.72165 8.4063C7.71983 8.22403 7.78879 8.04815 7.914 7.91569C8.03922 7.78322 8.21094 7.70449 8.39302 7.69605ZM8.05202 4.95305L9.04702 5.94805L5.94802 9.03205L4.96802 8.05205L8.05202 4.95305ZM5.60702 4.89605C5.69963 4.89643 5.79124 4.91519 5.87654 4.95123C5.96185 4.98727 6.03915 5.03988 6.10398 5.10601C6.16881 5.17214 6.21987 5.25048 6.25421 5.33649C6.28855 5.42249 6.30548 5.51445 6.30402 5.60705C6.30376 5.79182 6.23024 5.96895 6.09959 6.09961C5.96893 6.23027 5.7918 6.30378 5.60702 6.30405C5.51241 6.30762 5.41804 6.29206 5.32958 6.25831C5.24111 6.22457 5.16036 6.17332 5.09216 6.10764C5.02396 6.04197 4.96971 5.96321 4.93265 5.87607C4.8956 5.78894 4.8765 5.69523 4.8765 5.60055C4.8765 5.50587 4.8956 5.41215 4.93265 5.32502C4.96971 5.23789 5.02396 5.15913 5.09216 5.09345C5.16036 5.02778 5.24111 4.97653 5.32958 4.94278C5.41804 4.90904 5.51241 4.89248 5.60702 4.89605Z" fill="#1A1C1F"/>
</g>
<defs>
<clipPath id="clip0_184_184">
<rect width="14" height="14" fill="white"/>
</clipPath>
</defs>
</svg>
