<svg width="28" height="28" viewBox="0 0 28 28" fill="none" xmlns="http://www.w3.org/2000/svg">
<g clip-path="url(#clip0_184_176)">
<path fill-rule="evenodd" clip-rule="evenodd" d="M23.625 5.25C24.3212 5.25 24.9889 5.52656 25.4812 6.01884C25.9734 6.51113 26.25 7.17881 26.25 7.875V11.375C26.25 11.6071 26.1578 11.8296 25.9937 11.9937C25.8296 12.1578 25.6071 12.25 25.375 12.25C24.9109 12.25 24.4658 12.4344 24.1376 12.7626C23.8094 13.0908 23.625 13.5359 23.625 14C23.625 14.4641 23.8094 14.9092 24.1376 15.2374C24.4658 15.5656 24.9109 15.75 25.375 15.75C25.858 15.75 26.25 16.142 26.25 16.625V20.125C26.25 20.8212 25.9734 21.4889 25.4812 21.9812C24.9889 22.4734 24.3212 22.75 23.625 22.75H4.375C3.67881 22.75 3.01113 22.4734 2.51884 21.9812C2.02656 21.4889 1.75 20.8212 1.75 20.125V16.625C1.75 16.142 2.142 15.75 2.625 15.75C3.08913 15.75 3.53425 15.5656 3.86244 15.2374C4.19063 14.9092 4.375 14.4641 4.375 14C4.375 13.5359 4.19063 13.0908 3.86244 12.7626C3.53425 12.4344 3.08913 12.25 2.625 12.25C2.39294 12.25 2.17038 12.1578 2.00628 11.9937C1.84219 11.8296 1.75 11.6071 1.75 11.375V7.875C1.75 7.17881 2.02656 6.51113 2.51884 6.01884C3.01113 5.52656 3.67881 5.25 4.375 5.25H23.625ZM23.625 7H4.375C4.14294 7 3.92038 7.09219 3.75628 7.25628C3.59219 7.42038 3.5 7.64294 3.5 7.875V10.61L3.636 10.648C4.32719 10.8568 4.93696 11.2741 5.38181 11.8428C5.82665 12.4115 6.08483 13.1039 6.121 13.825L6.125 14C6.12487 14.752 5.88267 15.484 5.43423 16.0877C4.98579 16.6914 4.35493 17.1347 3.635 17.352L3.5 17.389V20.125C3.5 20.574 3.838 20.944 4.273 20.995L4.375 21H23.625C23.8571 21 24.0796 20.9078 24.2437 20.7437C24.4078 20.5796 24.5 20.3571 24.5 20.125V17.389L24.364 17.352C23.6728 17.1432 23.063 16.7259 22.6182 16.1572C22.1733 15.5885 21.9152 14.8961 21.879 14.175L21.875 14C21.8751 13.248 22.1173 12.516 22.5658 11.9123C23.0142 11.3086 23.6451 10.8653 24.365 10.648L24.5 10.61V7.875C24.5002 7.66043 24.4216 7.45326 24.2791 7.29286C24.1366 7.13246 23.9401 7.03001 23.727 7.005L23.625 7ZM17.513 9.68C17.892 9.68 18.377 10.015 18.377 10.555C18.3774 10.6668 18.3555 10.7775 18.3126 10.8807C18.2697 10.9839 18.2066 11.0775 18.127 11.156L11.128 18.02C10.9554 18.1831 10.7254 18.2715 10.488 18.266C10.3755 18.2673 10.2638 18.2464 10.1593 18.2045C10.0549 18.1625 9.95979 18.1004 9.87943 18.0216C9.79906 17.9428 9.73504 17.8489 9.69104 17.7454C9.64703 17.6418 9.62391 17.5305 9.623 17.418C9.62246 17.3061 9.64429 17.1951 9.68722 17.0918C9.73016 16.9884 9.79332 16.8946 9.873 16.816L16.9 9.953C17.0621 9.78666 17.2809 9.68893 17.513 9.68ZM17.429 14.82C18.405 14.82 19.185 15.613 19.185 16.543C19.185 17.5 18.405 18.266 17.429 18.266C16.453 18.266 15.673 17.5 15.673 16.543C15.673 15.613 16.453 14.82 17.429 14.82ZM10.989 9.68C11.965 9.68 12.745 10.445 12.745 11.402C12.745 12.359 11.965 13.125 10.989 13.125C10.013 13.125 9.233 12.359 9.233 11.402C9.233 10.445 10.013 9.68 10.989 9.68Z" fill="#1A1C1F"/>
</g>
<defs>
<clipPath id="clip0_184_176">
<rect width="28" height="28" fill="white"/>
</clipPath>
</defs>
</svg>
