<svg width="16" height="16" viewBox="0 0 16 16" fill="none" xmlns="http://www.w3.org/2000/svg">
<g clip-path="url(#clip0_184_182)">
<path fill-rule="evenodd" clip-rule="evenodd" d="M12.738 3.19995C13.656 3.19995 14.4 3.94395 14.4 4.86195V6.39995C14.4 6.50501 14.3793 6.60904 14.3391 6.7061C14.2989 6.80316 14.2399 6.89135 14.1657 6.96564C14.0914 7.03992 14.0032 7.09885 13.9061 7.13905C13.8091 7.17926 13.705 7.19995 13.6 7.19995C13.3878 7.19995 13.1843 7.28424 13.0343 7.43427C12.8843 7.5843 12.8 7.78778 12.8 7.99995C12.8 8.21212 12.8843 8.41561 13.0343 8.56564C13.1843 8.71567 13.3878 8.79995 13.6 8.79995C13.705 8.79995 13.8091 8.82064 13.9061 8.86085C14.0032 8.90105 14.0914 8.95998 14.1657 9.03427C14.2399 9.10855 14.2989 9.19674 14.3391 9.2938C14.3793 9.39086 14.4 9.49489 14.4 9.59995V11.138C14.4 12.056 13.656 12.8 12.738 12.8H3.26198C2.82119 12.8 2.39845 12.6248 2.08676 12.3132C1.77508 12.0015 1.59998 11.5787 1.59998 11.138V9.59995C1.59998 9.38778 1.68426 9.18429 1.83429 9.03427C1.98432 8.88424 2.1878 8.79995 2.39998 8.79995C2.50503 8.79995 2.60906 8.77926 2.70612 8.73905C2.80318 8.69885 2.89137 8.63992 2.96566 8.56564C3.03995 8.49135 3.09888 8.40316 3.13908 8.3061C3.17928 8.20904 3.19998 8.10501 3.19998 7.99995C3.19998 7.89489 3.17928 7.79087 3.13908 7.6938C3.09888 7.59674 3.03995 7.50855 2.96566 7.43427C2.89137 7.35998 2.80318 7.30105 2.70612 7.26085C2.60906 7.22064 2.50503 7.19995 2.39998 7.19995C2.29492 7.19995 2.19089 7.17926 2.09383 7.13905C1.99677 7.09885 1.90858 7.03992 1.83429 6.96564C1.76 6.89135 1.70108 6.80316 1.66087 6.7061C1.62067 6.60904 1.59998 6.50501 1.59998 6.39995V4.86195C1.59998 3.94395 2.34398 3.19995 3.26198 3.19995H12.738ZM12.738 4.79995H3.26198C3.24553 4.79995 3.22976 4.80648 3.21813 4.81811C3.20651 4.82974 3.19998 4.84551 3.19998 4.86195V5.73595L3.20998 5.73995C3.65283 5.89898 4.03922 6.18458 4.32117 6.56129C4.60313 6.938 4.76823 7.38923 4.79598 7.85895L4.79998 7.99995C4.8 8.49455 4.64728 8.97709 4.36268 9.38161C4.07809 9.78613 3.67551 10.0929 3.20998 10.26L3.19998 10.263V11.138C3.19974 11.1502 3.20325 11.1622 3.21004 11.1724C3.21683 11.1826 3.22658 11.1905 3.23798 11.195L3.26198 11.2H12.738C12.7544 11.2 12.7702 11.1934 12.7818 11.1818C12.7934 11.1702 12.8 11.1544 12.8 11.138V10.263L12.79 10.26C12.3471 10.1009 11.9607 9.81532 11.6788 9.43861C11.3968 9.0619 11.2317 8.61067 11.204 8.14095L11.2 7.99995C11.2 6.95895 11.863 6.07195 12.79 5.73995L12.8 5.73595V4.86195C12.7999 4.84977 12.7963 4.83786 12.7896 4.82773C12.7828 4.81759 12.7732 4.80967 12.762 4.80495L12.738 4.79995ZM9.59198 8.79595C9.69756 8.7949 9.80231 8.81466 9.90026 8.85409C9.99821 8.89352 10.0874 8.95187 10.1628 9.02578C10.2382 9.0997 10.2983 9.18774 10.3397 9.28488C10.3811 9.38203 10.4029 9.48637 10.404 9.59195C10.405 9.69753 10.3853 9.80229 10.3458 9.90024C10.3064 9.99819 10.2481 10.0874 10.1741 10.1628C10.1002 10.2382 10.0122 10.2983 9.91504 10.3397C9.8179 10.3811 9.71356 10.4029 9.60798 10.404C9.39474 10.4061 9.1894 10.3234 9.03712 10.1741C8.88484 10.0248 8.7981 9.82119 8.79598 9.60795C8.79385 9.39472 8.87653 9.18937 9.0258 9.03709C9.17508 8.88481 9.37874 8.79807 9.59198 8.79595ZM9.20198 5.66095L10.339 6.79795L6.79798 10.323L5.67798 9.20195L9.20198 5.66095ZM6.40798 5.59595C6.51371 5.59647 6.6183 5.61794 6.71569 5.65913C6.81307 5.70032 6.90133 5.7604 6.97535 5.83591C7.04937 5.91142 7.10769 6.00086 7.14693 6.09904C7.18618 6.19723 7.20556 6.30222 7.20398 6.40795C7.20371 6.61898 7.11976 6.82129 6.97054 6.97052C6.82132 7.11974 6.61901 7.20369 6.40798 7.20395C6.19474 7.20395 5.99024 7.11924 5.83946 6.96847C5.68868 6.81769 5.60398 6.61319 5.60398 6.39995C5.60398 6.18672 5.68868 5.98222 5.83946 5.83144C5.99024 5.68066 6.19474 5.59595 6.40798 5.59595Z" fill="#1A1C1F"/>
</g>
<defs>
<clipPath id="clip0_184_182">
<rect width="16" height="16" fill="white"/>
</clipPath>
</defs>
</svg>
