<svg width="32" height="32" viewBox="0 0 32 32" fill="none" xmlns="http://www.w3.org/2000/svg">
<g clip-path="url(#clip0_184_174)">
<path fill-rule="evenodd" clip-rule="evenodd" d="M27 6C27.7956 6 28.5587 6.31607 29.1213 6.87868C29.6839 7.44129 30 8.20435 30 9V13C30 13.2652 29.8946 13.5196 29.7071 13.7071C29.5196 13.8946 29.2652 14 29 14C28.4696 14 27.9609 14.2107 27.5858 14.5858C27.2107 14.9609 27 15.4696 27 16C27 16.5304 27.2107 17.0391 27.5858 17.4142C27.9609 17.7893 28.4696 18 29 18C29.2652 18 29.5196 18.1054 29.7071 18.2929C29.8946 18.4804 30 18.7348 30 19V23C30 23.7956 29.6839 24.5587 29.1213 25.1213C28.5587 25.6839 27.7956 26 27 26H5C4.20435 26 3.44129 25.6839 2.87868 25.1213C2.31607 24.5587 2 23.7956 2 23V19C2 18.7348 2.10536 18.4804 2.29289 18.2929C2.48043 18.1054 2.73478 18 3 18C3.53043 18 4.03914 17.7893 4.41421 17.4142C4.78929 17.0391 5 16.5304 5 16C5 15.4696 4.78929 14.9609 4.41421 14.5858C4.03914 14.2107 3.53043 14 3 14C2.73478 14 2.48043 13.8946 2.29289 13.7071C2.10536 13.5196 2 13.2652 2 13V9C2 8.20435 2.31607 7.44129 2.87868 6.87868C3.44129 6.31607 4.20435 6 5 6H27ZM27 8H5C4.73478 8 4.48043 8.10536 4.29289 8.29289C4.10536 8.48043 4 8.73478 4 9V12.126L4.155 12.169C4.94498 12.4076 5.64189 12.8845 6.1503 13.5345C6.6587 14.1845 6.95374 14.9758 6.995 15.8L7 16C6.99976 16.8592 6.723 17.6956 6.21064 18.3853C5.69828 19.0751 4.97753 19.5816 4.155 19.83L4 19.874V23C4.00003 23.2449 4.08996 23.4813 4.25272 23.6644C4.41547 23.8474 4.63975 23.9643 4.883 23.993L5 24H27C27.2652 24 27.5196 23.8946 27.7071 23.7071C27.8946 23.5196 28 23.2652 28 23V19.873L27.845 19.831C27.055 19.5924 26.3581 19.1155 25.8497 18.4655C25.3413 17.8155 25.0463 17.0242 25.005 16.2L25 16C25.0002 15.1408 25.277 14.3044 25.7894 13.6147C26.3017 12.9249 27.0225 12.4184 27.845 12.17L28 12.126V9C28 8.75507 27.91 8.51866 27.7473 8.33563C27.5845 8.15259 27.3603 8.03566 27.117 8.007L27 8ZM20.015 11.063C20.447 11.063 21.002 11.445 21.002 12.063C21.002 12.313 20.907 12.563 20.715 12.75L12.718 20.594C12.5203 20.7808 12.2568 20.8818 11.985 20.875C11.8565 20.8763 11.7291 20.8523 11.6099 20.8043C11.4907 20.7563 11.3822 20.6852 11.2905 20.5952C11.1988 20.5052 11.1258 20.398 11.0756 20.2797C11.0254 20.1615 10.999 20.0345 10.998 19.906C10.998 19.656 11.093 19.406 11.285 19.219L19.314 11.375C19.505 11.188 19.76 11.062 20.014 11.062L20.015 11.063ZM19.919 16.937C21.034 16.937 21.926 17.844 21.926 18.907C21.926 20 21.034 20.875 19.919 20.875C18.804 20.875 17.912 20 17.912 18.906C17.912 17.844 18.804 16.937 19.919 16.937ZM12.559 11.062C13.674 11.062 14.566 11.938 14.566 13.032C14.566 14.125 13.674 15 12.559 15C11.444 15 10.552 14.125 10.552 13.031C10.552 11.937 11.444 11.062 12.559 11.062Z" fill="#1A1C1F"/>
</g>
<defs>
<clipPath id="clip0_184_174">
<rect width="32" height="32" fill="white"/>
</clipPath>
</defs>
</svg>
