<svg width="20" height="20" viewBox="0 0 20 20" fill="none" xmlns="http://www.w3.org/2000/svg">
<g clip-path="url(#clip0_184_180)">
<path fill-rule="evenodd" clip-rule="evenodd" d="M15.923 4C17.07 4 18 4.93 18 6.077V8C18 8.26522 17.8946 8.51957 17.7071 8.70711C17.5196 8.89464 17.2652 9 17 9C16.7348 9 16.4804 9.10536 16.2929 9.29289C16.1054 9.48043 16 9.73478 16 10C16 10.2652 16.1054 10.5196 16.2929 10.7071C16.4804 10.8946 16.7348 11 17 11C17.2652 11 17.5196 11.1054 17.7071 11.2929C17.8946 11.4804 18 11.7348 18 12V13.923C18 15.07 17.07 16 15.923 16H4.077C3.52615 16 2.99785 15.7812 2.60834 15.3917C2.21883 15.0021 2 14.4739 2 13.923V12C2 11.7348 2.10536 11.4804 2.29289 11.2929C2.48043 11.1054 2.73478 11 3 11C3.26522 11 3.51957 10.8946 3.70711 10.7071C3.89464 10.5196 4 10.2652 4 10C4 9.73478 3.89464 9.48043 3.70711 9.29289C3.51957 9.10536 3.26522 9 3 9C2.73478 9 2.48043 8.89464 2.29289 8.70711C2.10536 8.51957 2 8.26522 2 8V6.077C2 4.93 2.93 4 4.077 4H15.923ZM15.923 6H4.077C4.05658 6 4.03699 6.00811 4.02255 6.02255C4.00811 6.03699 4 6.05658 4 6.077V7.17L4.012 7.175C4.56573 7.37367 5.04888 7.73066 5.40143 8.20161C5.75398 8.67257 5.96039 9.23673 5.995 9.824L6 10C6 11.302 5.17 12.41 4.012 12.825L4 12.83V13.924C4 13.956 4.02 13.984 4.047 13.995L4.077 14.001H15.923C15.9434 14.001 15.963 13.9929 15.9774 13.9784C15.9919 13.964 16 13.9444 16 13.924V12.83L15.988 12.826C15.4343 12.6273 14.9511 12.2703 14.5986 11.7994C14.246 11.3284 14.0396 10.7643 14.005 10.177L14 10C14 8.698 14.83 7.59 15.988 7.175L16 7.17V6.077C16 6.045 15.98 6.017 15.953 6.006L15.923 6ZM11.99 10.995C12.1264 10.9864 12.2631 11.0056 12.3918 11.0516C12.5205 11.0975 12.6385 11.1692 12.7386 11.2623C12.8387 11.3553 12.9188 11.4678 12.9739 11.5928C13.0291 11.7179 13.0582 11.8528 13.0595 11.9895C13.0608 12.1261 13.0343 12.2616 12.9815 12.3877C12.9287 12.5137 12.8507 12.6277 12.7524 12.7226C12.6541 12.8176 12.5375 12.8915 12.4097 12.9399C12.2819 12.9882 12.1455 13.0101 12.009 13.004C11.7518 12.9926 11.5088 12.883 11.3299 12.6978C11.1511 12.5126 11.0501 12.2659 11.0476 12.0085C11.0452 11.7511 11.1415 11.5025 11.3169 11.314C11.4922 11.1254 11.7331 11.0113 11.99 10.995ZM11.502 7.076L12.924 8.498L8.498 12.904L7.096 11.502L11.502 7.076ZM8.01 6.995C8.558 6.995 9.005 7.442 9.005 8.01C9.00474 8.27381 8.89982 8.52674 8.71328 8.71328C8.52674 8.89982 8.27381 9.00474 8.01 9.005C7.87788 9.00685 7.7467 8.98252 7.62402 8.93342C7.50135 8.88432 7.38961 8.81142 7.29525 8.71892C7.20089 8.62642 7.12577 8.51615 7.07424 8.39448C7.02271 8.27281 6.99578 8.14213 6.995 8.01C6.995 7.442 7.442 6.995 8.01 6.995Z" fill="#1A1C1F"/>
</g>
<defs>
<clipPath id="clip0_184_180">
<rect width="20" height="20" fill="white"/>
</clipPath>
</defs>
</svg>
