<svg width="12" height="12" viewBox="0 0 12 12" fill="none" xmlns="http://www.w3.org/2000/svg">
<g clip-path="url(#clip0_2202_1497)">
<path fill-rule="evenodd" clip-rule="evenodd" d="M9.55395 2.40002C10.242 2.40002 10.8 2.95802 10.8 3.64602V4.80002C10.8 4.95915 10.7367 5.11177 10.6242 5.22429C10.5117 5.33681 10.3591 5.40002 10.2 5.40002C10.0408 5.40002 9.88821 5.46324 9.77569 5.57576C9.66317 5.68828 9.59995 5.84089 9.59995 6.00002C9.59995 6.15915 9.66317 6.31177 9.77569 6.42429C9.88821 6.53681 10.0408 6.60002 10.2 6.60002C10.3591 6.60002 10.5117 6.66324 10.6242 6.77576C10.7367 6.88828 10.8 7.04089 10.8 7.20002V8.35402C10.8 9.04202 10.242 9.60002 9.55395 9.60002H2.44595C2.28232 9.60002 2.1203 9.5678 1.96913 9.50518C1.81796 9.44256 1.6806 9.35078 1.5649 9.23508C1.33123 9.00141 1.19995 8.68448 1.19995 8.35402V7.20002C1.19995 7.04089 1.26317 6.88828 1.37569 6.77576C1.48821 6.66324 1.64082 6.60002 1.79995 6.60002C1.95908 6.60002 2.11169 6.53681 2.22422 6.42429C2.33674 6.31177 2.39995 6.15915 2.39995 6.00002C2.39995 5.84089 2.33674 5.68828 2.22422 5.57576C2.11169 5.46324 1.95908 5.40002 1.79995 5.40002C1.64082 5.40002 1.48821 5.33681 1.37569 5.22429C1.26317 5.11177 1.19995 4.95915 1.19995 4.80002V3.64602C1.19995 2.95802 1.75795 2.40002 2.44595 2.40002H9.55395ZM7.19395 6.59702C7.0357 6.59729 6.884 6.66027 6.7721 6.77217C6.6602 6.88408 6.59722 7.03577 6.59695 7.19402C6.59577 7.31379 6.63027 7.43119 6.69607 7.53127C6.76187 7.63135 6.85598 7.70956 6.96641 7.75594C7.07683 7.80233 7.19857 7.81477 7.3161 7.7917C7.43362 7.76862 7.54162 7.71107 7.62631 7.62638C7.711 7.54169 7.76855 7.4337 7.79162 7.31617C7.8147 7.19864 7.80225 7.07691 7.75587 6.96648C7.70949 6.85606 7.63127 6.76194 7.5312 6.69614C7.43112 6.63034 7.31372 6.59584 7.19395 6.59702ZM6.89995 4.24602L4.25795 6.90002L5.09795 7.74102L7.75495 5.10002L6.90195 4.24702L6.89995 4.24602ZM4.80495 4.19602C4.64489 4.19443 4.49076 4.25649 4.37645 4.36854C4.26215 4.4806 4.19704 4.63347 4.19545 4.79352C4.19386 4.95358 4.25592 5.10772 4.36797 5.22202C4.48002 5.33632 4.63289 5.40143 4.79295 5.40302C4.95288 5.40462 5.10688 5.34261 5.22109 5.23065C5.3353 5.11869 5.40036 4.96595 5.40195 4.80602C5.40354 4.6461 5.34154 4.49209 5.22958 4.37788C5.11762 4.26367 4.96488 4.19762 4.80495 4.19602Z" fill="#1A1C1F"/>
</g>
<defs>
<clipPath id="clip0_2202_1497">
<rect width="12" height="12" fill="white"/>
</clipPath>
</defs>
</svg>
