<svg width="24" height="24" viewBox="0 0 24 24" fill="none" xmlns="http://www.w3.org/2000/svg">
<g clip-path="url(#clip0_184_178)">
<path fill-rule="evenodd" clip-rule="evenodd" d="M19.615 5C20.2475 5 20.8542 5.25128 21.3014 5.69855C21.7487 6.14582 22 6.75246 22 7.385V10C22 10.2652 21.8946 10.5196 21.7071 10.7071C21.5196 10.8946 21.2652 11 21 11C20.397 11 19.923 11.456 19.923 12C19.923 12.544 20.397 13 21 13C21.2652 13 21.5196 13.1054 21.7071 13.2929C21.8946 13.4804 22 13.7348 22 14V16.615C22 17.2475 21.7487 17.8542 21.3014 18.3014C20.8542 18.7487 20.2475 19 19.615 19H4.385C3.75246 19 3.14582 18.7487 2.69855 18.3014C2.25128 17.8542 2 17.2475 2 16.615V14C2 13.7348 2.10536 13.4804 2.29289 13.2929C2.48043 13.1054 2.73478 13 3 13C3.603 13 4.077 12.544 4.077 12C4.077 11.456 3.603 11 3 11C2.73478 11 2.48043 10.8946 2.29289 10.7071C2.10536 10.5196 2 10.2652 2 10V7.385C2 6.75246 2.25128 6.14582 2.69855 5.69855C3.14582 5.25128 3.75246 5 4.385 5H19.615ZM19.615 7H4.385C4.28289 7 4.18497 7.04056 4.11276 7.11276C4.04056 7.18497 4 7.28289 4 7.385V9.162L4.034 9.174C5.167 9.568 5.998 10.592 6.072 11.823L6.077 12C6.077 13.309 5.221 14.413 4.034 14.826L4 14.837V16.615C4 16.801 4.132 16.956 4.307 16.992L4.385 17H19.615C19.7171 17 19.815 16.9594 19.8872 16.8872C19.9594 16.815 20 16.7171 20 16.615V14.837L19.966 14.826C18.833 14.432 18.002 13.408 17.928 12.177L17.923 12C17.923 10.691 18.779 9.587 19.966 9.174L20 9.162V7.385C20 7.29644 19.9695 7.21058 19.9135 7.14191C19.8576 7.07324 19.7797 7.02594 19.693 7.008L19.615 7ZM15.011 13.02C15.57 13.02 16.007 13.457 16.007 14.016C16.0083 14.1471 15.9835 14.2772 15.9339 14.3986C15.8843 14.52 15.811 14.6302 15.7182 14.7229C15.6254 14.8156 15.5151 14.8888 15.3937 14.9383C15.2722 14.9877 15.1421 15.0125 15.011 15.011C14.88 15.0123 14.75 14.9875 14.6287 14.938C14.5073 14.8885 14.3971 14.8152 14.3044 14.7226C14.2118 14.6299 14.1385 14.5197 14.089 14.3983C14.0395 14.277 14.0147 14.147 14.016 14.016C14.016 13.457 14.453 13.02 15.011 13.02ZM13.991 8.989C14.1257 8.98628 14.2596 9.0108 14.3845 9.0611C14.5095 9.11139 14.623 9.18643 14.7183 9.28169C14.8136 9.37695 14.8886 9.49048 14.9389 9.61547C14.9892 9.74045 15.0137 9.8743 15.011 10.009C15.011 10.251 14.914 10.519 14.72 10.713L10.713 14.72C10.5181 14.9096 10.2559 15.0142 9.984 15.011C9.85124 15.0109 9.71985 14.9843 9.59753 14.9327C9.47521 14.8811 9.36445 14.8055 9.27175 14.7105C9.17905 14.6155 9.10628 14.5029 9.05772 14.3793C9.00917 14.2557 8.9858 14.1237 8.989 13.991C8.989 13.749 9.086 13.481 9.28 13.287L13.287 9.28C13.481 9.086 13.749 8.989 13.991 8.989ZM9.013 8.916C9.596 8.916 10.057 9.401 10.057 9.96C10.057 10.543 9.596 11.004 9.013 11.004C8.87564 11.0049 8.73946 10.9786 8.61238 10.9264C8.4853 10.8743 8.36984 10.7974 8.27271 10.7003C8.17558 10.6032 8.09871 10.4877 8.04657 10.3606C7.99444 10.2335 7.96807 10.0974 7.969 9.96C7.969 9.401 8.43 8.916 9.013 8.916Z" fill="#1A1C1F"/>
</g>
<defs>
<clipPath id="clip0_184_178">
<rect width="24" height="24" fill="white"/>
</clipPath>
</defs>
</svg>
