<svg width="20" height="20" viewBox="0 0 20 20" fill="none" xmlns="http://www.w3.org/2000/svg">
<g clip-path="url(#clip0_2202_1491)">
<path fill-rule="evenodd" clip-rule="evenodd" d="M15.923 4C17.07 4 18 4.93 18 6.077V8C18 8.26522 17.8946 8.51957 17.7071 8.70711C17.5196 8.89464 17.2652 9 17 9C16.7348 9 16.4804 9.10536 16.2929 9.29289C16.1054 9.48043 16 9.73478 16 10C16 10.2652 16.1054 10.5196 16.2929 10.7071C16.4804 10.8946 16.7348 11 17 11C17.2652 11 17.5196 11.1054 17.7071 11.2929C17.8946 11.4804 18 11.7348 18 12V13.923C18 15.07 17.07 16 15.923 16H4.077C3.52615 16 2.99785 15.7812 2.60834 15.3917C2.21883 15.0021 2 14.4739 2 13.923V12C2 11.7348 2.10536 11.4804 2.29289 11.2929C2.48043 11.1054 2.73478 11 3 11C3.26522 11 3.51957 10.8946 3.70711 10.7071C3.89464 10.5196 4 10.2652 4 10C4 9.73478 3.89464 9.48043 3.70711 9.29289C3.51957 9.10536 3.26522 9 3 9C2.73478 9 2.48043 8.89464 2.29289 8.70711C2.10536 8.51957 2 8.26522 2 8V6.077C2 4.93 2.93 4 4.077 4H15.923ZM11.99 10.995C11.7262 10.9953 11.4733 11.1002 11.2867 11.2867C11.1002 11.4733 10.9953 11.7262 10.995 11.99C10.9928 12.1899 11.0503 12.3859 11.16 12.553C11.2697 12.7201 11.4266 12.8508 11.6109 12.9283C11.7952 13.0058 11.9984 13.0266 12.1945 12.9881C12.3907 12.9497 12.5709 12.8536 12.7123 12.7123C12.8536 12.5709 12.9497 12.3907 12.9881 12.1945C13.0266 11.9984 13.0058 11.7952 12.9283 11.6109C12.8508 11.4266 12.7201 11.2697 12.553 11.16C12.3859 11.0503 12.1899 10.9928 11.99 10.995ZM11.502 7.076L7.096 11.502L8.498 12.904L12.924 8.498L11.502 7.076ZM8.01 6.995C7.87425 6.98894 7.73868 7.01045 7.61147 7.05822C7.48426 7.106 7.36805 7.17905 7.26984 7.27297C7.17164 7.36689 7.09348 7.47973 7.04008 7.60468C6.98669 7.72964 6.95916 7.86411 6.95916 8C6.95916 8.13589 6.98669 8.27036 7.04008 8.39532C7.09348 8.52027 7.17164 8.63311 7.26984 8.72703C7.36805 8.82095 7.48426 8.894 7.61147 8.94178C7.73868 8.98955 7.87425 9.01106 8.01 9.005C8.27381 9.00474 8.52674 8.89982 8.71328 8.71328C8.89982 8.52674 9.00474 8.27381 9.005 8.01C9.005 7.442 8.558 6.995 8.01 6.995Z" fill="#1A1C1F"/>
</g>
<defs>
<clipPath id="clip0_2202_1491">
<rect width="20" height="20" fill="white"/>
</clipPath>
</defs>
</svg>
