<svg width="16" height="16" viewBox="0 0 16 16" fill="none" xmlns="http://www.w3.org/2000/svg">
<g clip-path="url(#clip0_2202_1493)">
<path fill-rule="evenodd" clip-rule="evenodd" d="M12.738 3.19995C13.656 3.19995 14.4 3.94395 14.4 4.86195V6.39995C14.4 6.50501 14.3793 6.60904 14.3391 6.7061C14.2989 6.80316 14.2399 6.89135 14.1657 6.96564C14.0914 7.03992 14.0032 7.09885 13.9061 7.13905C13.8091 7.17926 13.705 7.19995 13.6 7.19995C13.3878 7.19995 13.1843 7.28424 13.0343 7.43427C12.8843 7.5843 12.8 7.78778 12.8 7.99995C12.8 8.21212 12.8843 8.41561 13.0343 8.56564C13.1843 8.71567 13.3878 8.79995 13.6 8.79995C13.705 8.79995 13.8091 8.82064 13.9061 8.86085C14.0032 8.90105 14.0914 8.95998 14.1657 9.03427C14.2399 9.10855 14.2989 9.19674 14.3391 9.2938C14.3793 9.39086 14.4 9.49489 14.4 9.59995V11.138C14.4 12.056 13.656 12.8 12.738 12.8H3.26198C2.82119 12.8 2.39845 12.6248 2.08676 12.3132C1.77508 12.0015 1.59998 11.5787 1.59998 11.138V9.59995C1.59998 9.38778 1.68426 9.18429 1.83429 9.03427C1.98432 8.88424 2.1878 8.79995 2.39998 8.79995C2.50503 8.79995 2.60906 8.77926 2.70612 8.73905C2.80318 8.69885 2.89137 8.63992 2.96566 8.56564C3.03995 8.49135 3.09888 8.40316 3.13908 8.3061C3.17928 8.20904 3.19998 8.10501 3.19998 7.99995C3.19998 7.89489 3.17928 7.79087 3.13908 7.6938C3.09888 7.59674 3.03995 7.50855 2.96566 7.43427C2.89137 7.35998 2.80318 7.30105 2.70612 7.26085C2.60906 7.22064 2.50503 7.19995 2.39998 7.19995C2.29492 7.19995 2.19089 7.17926 2.09383 7.13905C1.99677 7.09885 1.90858 7.03992 1.83429 6.96564C1.76 6.89135 1.70108 6.80316 1.66087 6.7061C1.62067 6.60904 1.59998 6.50501 1.59998 6.39995V4.86195C1.59998 3.94395 2.34398 3.19995 3.26198 3.19995H12.738ZM9.59198 8.79595C9.38094 8.79622 9.17863 8.88017 9.02941 9.02939C8.88019 9.17861 8.79624 9.38092 8.79598 9.59195C8.79439 9.75164 8.8404 9.90818 8.92814 10.0416C9.01587 10.175 9.14135 10.2793 9.28859 10.3412C9.43582 10.403 9.59813 10.4196 9.75484 10.3888C9.91154 10.3581 10.0555 10.2813 10.1684 10.1684C10.2814 10.0555 10.3581 9.91151 10.3889 9.75481C10.4196 9.59811 10.403 9.43579 10.3412 9.28856C10.2794 9.14133 10.1751 9.01584 10.0416 8.92811C9.9082 8.84038 9.75166 8.79437 9.59198 8.79595ZM9.20198 5.66095L5.67698 9.20195L6.79798 10.322L10.339 6.79795L9.20198 5.66095ZM6.40798 5.59595C6.30233 5.5949 6.19751 5.61467 6.0995 5.65413C6.00149 5.69359 5.91221 5.75197 5.83677 5.82593C5.76132 5.89989 5.70118 5.98799 5.65978 6.08519C5.61838 6.1824 5.59653 6.2868 5.59548 6.39245C5.59443 6.4981 5.61419 6.60292 5.65365 6.70093C5.69311 6.79894 5.75149 6.88821 5.82545 6.96366C5.89941 7.03911 5.98751 7.09925 6.08472 7.14065C6.18192 7.18205 6.28633 7.2039 6.39198 7.20495C6.60547 7.20707 6.81107 7.1243 6.96354 6.97483C7.11601 6.82536 7.20285 6.62145 7.20498 6.40795C7.2071 6.19445 7.12432 5.98885 6.97485 5.83639C6.82539 5.68392 6.62147 5.59707 6.40798 5.59495V5.59595Z" fill="#1A1C1F"/>
</g>
<defs>
<clipPath id="clip0_2202_1493">
<rect width="16" height="16" fill="white"/>
</clipPath>
</defs>
</svg>
