<svg width="12" height="12" viewBox="0 0 12 12" fill="none" xmlns="http://www.w3.org/2000/svg">
<g clip-path="url(#clip0_231_142)">
<path fill-rule="evenodd" clip-rule="evenodd" d="M9.55395 2.40002C10.242 2.40002 10.8 2.95802 10.8 3.64602V4.80002C10.8 4.95915 10.7367 5.11177 10.6242 5.22429C10.5117 5.33681 10.3591 5.40002 10.2 5.40002C10.0408 5.40002 9.88821 5.46324 9.77569 5.57576C9.66317 5.68828 9.59995 5.84089 9.59995 6.00002C9.59995 6.15915 9.66317 6.31177 9.77569 6.42429C9.88821 6.53681 10.0408 6.60002 10.2 6.60002C10.3591 6.60002 10.5117 6.66324 10.6242 6.77576C10.7367 6.88828 10.8 7.04089 10.8 7.20002V8.35402C10.8 9.04202 10.242 9.60002 9.55395 9.60002H2.44595C2.28232 9.60002 2.1203 9.5678 1.96913 9.50518C1.81796 9.44256 1.6806 9.35078 1.5649 9.23508C1.33123 9.00141 1.19995 8.68448 1.19995 8.35402V7.20002C1.19995 7.04089 1.26317 6.88828 1.37569 6.77576C1.48821 6.66324 1.64082 6.60002 1.79995 6.60002C1.95908 6.60002 2.11169 6.53681 2.22422 6.42429C2.33674 6.31177 2.39995 6.15915 2.39995 6.00002C2.39995 5.84089 2.33674 5.68828 2.22422 5.57576C2.11169 5.46324 1.95908 5.40002 1.79995 5.40002C1.64082 5.40002 1.48821 5.33681 1.37569 5.22429C1.26317 5.11177 1.19995 4.95915 1.19995 4.80002V3.64602C1.19995 2.95802 1.75795 2.40002 2.44595 2.40002H9.55395ZM9.55395 3.60002H2.44595C2.43375 3.60002 2.42205 3.60487 2.41342 3.6135C2.4048 3.62212 2.39995 3.63382 2.39995 3.64602V4.30202C3.06995 4.54202 3.55395 5.15902 3.59695 5.89402L3.59995 6.00002C3.60004 6.37106 3.48547 6.73306 3.27191 7.03648C3.05836 7.33989 2.75625 7.5699 2.40695 7.69502L2.39995 8.35402C2.39995 8.37302 2.41195 8.38902 2.42795 8.39602L2.44595 8.40002H9.55395C9.57895 8.40002 9.59995 8.38002 9.59995 8.35402V7.69702C9.26626 7.57866 8.9748 7.36466 8.76193 7.08173C8.54906 6.7988 8.42421 6.45945 8.40295 6.10602L8.39995 6.00002C8.39986 5.62899 8.51443 5.26699 8.72799 4.96357C8.94155 4.66016 9.24365 4.43015 9.59295 4.30502L9.59995 3.64602C9.59989 3.63706 9.5972 3.6283 9.59223 3.62084C9.58725 3.61338 9.5802 3.60753 9.57195 3.60402L9.55395 3.60002ZM7.19395 6.59702C7.27314 6.59624 7.35171 6.61105 7.42517 6.64063C7.49863 6.6702 7.56554 6.71396 7.62209 6.7694C7.67865 6.82483 7.72372 6.89086 7.75475 6.96372C7.78579 7.03658 7.80216 7.11484 7.80295 7.19402C7.80374 7.27321 7.78892 7.35178 7.75935 7.42524C7.72977 7.4987 7.68602 7.56562 7.63058 7.62217C7.57514 7.67872 7.50911 7.7238 7.43625 7.75483C7.36339 7.78586 7.28514 7.80224 7.20595 7.80302C7.04603 7.80462 6.89202 7.74261 6.77781 7.63065C6.6636 7.51869 6.59854 7.36595 6.59695 7.20602C6.59536 7.0461 6.65736 6.89209 6.76932 6.77788C6.88128 6.66367 7.03403 6.59862 7.19395 6.59702ZM6.89995 4.24602L7.75295 5.09902L5.09995 7.74202L4.25895 6.90202L6.89995 4.24602ZM4.80495 4.19602C4.88434 4.19641 4.96286 4.21255 5.03597 4.2435C5.10908 4.27445 5.17531 4.31961 5.23084 4.37635C5.28637 4.43309 5.33009 4.50028 5.35946 4.57404C5.38883 4.64779 5.40328 4.72665 5.40195 4.80602C5.40169 4.96428 5.3387 5.11597 5.2268 5.22788C5.1149 5.33978 4.9632 5.40276 4.80495 5.40302C4.72576 5.40302 4.64735 5.38743 4.57419 5.35712C4.50103 5.32682 4.43456 5.2824 4.37857 5.22641C4.32257 5.17042 4.27816 5.10394 4.24785 5.03078C4.21755 4.95762 4.20195 4.87921 4.20195 4.80002C4.20195 4.72084 4.21755 4.64243 4.24785 4.56927C4.27816 4.49611 4.32257 4.42963 4.37857 4.37364C4.43456 4.31765 4.50103 4.27323 4.57419 4.24293C4.64735 4.21262 4.72576 4.19602 4.80495 4.19602Z" fill="#1A1C1F"/>
</g>
<defs>
<clipPath id="clip0_231_142">
<rect width="12" height="12" fill="white"/>
</clipPath>
</defs>
</svg>
