<svg width="28" height="28" viewBox="0 0 28 28" fill="none" xmlns="http://www.w3.org/2000/svg">
<g clip-path="url(#clip0_187_278)">
<path fill-rule="evenodd" clip-rule="evenodd" d="M14 6.125C19.1133 6.125 22.8047 8.66792 26.0859 13.5078C26.1953 13.6582 26.25 13.8291 26.25 14C26.25 14.1709 26.1953 14.3418 26.0859 14.4922C22.8047 19.3321 19.1133 21.875 14.0002 21.875C8.88672 21.875 5.19531 19.3321 1.91406 14.4922C1.80469 14.3418 1.75 14.1709 1.75 14C1.75 13.8291 1.80469 13.6582 1.91406 13.5078C5.19531 8.66792 8.88672 6.125 14 6.125ZM14 7.875C9.89844 7.875 6.75391 9.73438 3.69141 14C6.73966 18.135 9.87109 20.125 14 20.125C18.3477 20.125 21.2461 18.2656 24.3086 14C21.2734 9.78906 18.3477 7.875 14 7.875ZM14 9.625C16.4062 9.625 18.375 11.5938 18.375 14C18.375 16.4062 16.4062 18.375 14 18.375C11.5938 18.375 9.62501 16.4062 9.62501 14C9.62501 11.5938 11.5938 9.625 14 9.625ZM14 11.375C12.5508 11.375 11.375 12.5508 11.375 14C11.375 15.4492 12.5508 16.625 14 16.625C15.4492 16.625 16.625 15.4492 16.625 14C16.625 12.5508 15.4492 11.375 14 11.375Z" fill="#1A1C1F"/>
</g>
<defs>
<clipPath id="clip0_187_278">
<rect width="28" height="28" fill="white"/>
</clipPath>
</defs>
</svg>
