<svg width="32" height="32" viewBox="0 0 32 32" fill="none" xmlns="http://www.w3.org/2000/svg">
<g clip-path="url(#clip0_187_289)">
<path fill-rule="evenodd" clip-rule="evenodd" d="M27 3.98441C27.25 3.98441 27.5 4.07822 27.7188 4.26566C27.9062 4.45319 28 4.73444 28 4.98445C28 5.2657 27.9062 5.51571 27.7188 5.70314L5.71875 27.7032C5.4375 27.9532 5.09375 28.0782 4.71875 27.9845C4.375 27.8907 4.09375 27.6094 4.03125 27.2657C3.9375 26.922 4.03124 26.547 4.28125 26.297L8 22.5781C5.6875 20.9845 3.6875 18.9219 2.1875 16.5469C1.9375 16.2032 1.9375 15.7657 2.1875 15.4219C4.65625 11.7969 8.78125 6.98444 16 6.98444C18.1563 6.98444 20.2812 7.45322 22.2187 8.35945L26.2813 4.26566C26.5 4.07822 26.75 3.98441 27 3.98441ZM16 8.98443C11.3437 8.98443 7.6875 11.1407 4.21875 15.9844C5.59375 18.0469 7.375 19.797 9.4375 21.1407L11.8437 18.7345C11.2812 17.9219 11 16.9531 11 15.9844C11 13.2344 13.25 10.9844 16 10.9844C16.9687 10.9844 17.9375 11.2657 18.75 11.8282L20.6875 9.85942C19.2188 9.26568 17.625 8.98443 16 8.98443ZM16 12.9844C14.3437 12.9844 13 14.3282 13 15.9844C13 16.422 13.0938 16.8594 13.3125 17.2657L17.2813 13.2969C16.875 13.0782 16.4375 12.9844 16 12.9844ZM24.2187 12.0157C25.5625 13.2032 26.75 14.5157 27.7813 15.9844C24.3125 20.8282 20.6563 22.9845 16 22.9845C15.1562 22.9845 14.3125 22.922 13.4688 22.7657L11.8437 24.3907C13.1875 24.7969 14.5938 24.9844 16 24.9844C23.2188 24.9844 27.3437 20.172 29.8125 16.5469C30.0625 16.2032 30.0625 15.7657 29.8125 15.4219C28.6563 13.6407 27.25 12.0157 25.625 10.6095L24.2187 12.0157ZM15.3125 20.922C15.5312 20.9532 15.7812 20.9845 16 20.9845C18.75 20.9845 21 18.7345 21 15.9844C21 15.7657 20.9688 15.5157 20.9375 15.297L15.3125 20.922Z" fill="#1A1C1F"/>
</g>
<defs>
<clipPath id="clip0_187_289">
<rect width="32" height="32" fill="white"/>
</clipPath>
</defs>
</svg>
