<svg width="16" height="16" viewBox="0 0 16 16" fill="none" xmlns="http://www.w3.org/2000/svg">
<g clip-path="url(#clip0_187_284)">
<path fill-rule="evenodd" clip-rule="evenodd" d="M7.99998 3.21249C11.3 3.21249 13.2249 6.01249 14.25 7.53753C14.35 7.66257 14.4 7.83753 14.4 7.98753C14.4 8.13753 14.35 8.31249 14.25 8.43753C13.2249 9.96257 11.3 12.7875 7.99998 12.7875C4.69998 12.7875 2.77502 9.96257 1.74998 8.43753C1.64998 8.31249 1.59998 8.13753 1.59998 7.98753C1.59998 7.83753 1.64998 7.66257 1.74998 7.53753C2.77502 6.01249 4.69998 3.21249 7.99998 3.21249ZM7.99998 4.81249C5.92494 4.81249 4.52494 6.39369 3.37502 7.99994C4.52494 9.63125 5.92494 11.2124 7.99998 11.2124C10.075 11.2124 11.475 9.63125 12.6249 7.99994C11.475 6.39369 10.075 4.81249 7.99998 4.81249ZM7.98759 9.61249C8.88063 9.61249 9.59998 8.89315 9.59998 8.02488C9.59998 7.13184 8.88063 6.41249 7.98759 6.41249C7.09456 6.41249 6.39998 7.13184 6.39998 8.02488C6.39998 8.89315 7.09456 9.61249 7.98759 9.61249Z" fill="#1A1C1F"/>
</g>
<defs>
<clipPath id="clip0_187_284">
<rect width="16" height="16" fill="white"/>
</clipPath>
</defs>
</svg>
