<svg width="20" height="20" viewBox="0 0 20 20" fill="none" xmlns="http://www.w3.org/2000/svg">
<g clip-path="url(#clip0_187_282)">
<path fill-rule="evenodd" clip-rule="evenodd" d="M10 4.01559C14.125 4.01559 16.5312 7.51559 17.8125 9.42189C17.9375 9.57819 18 9.79689 18 9.98439C18 10.1719 17.9375 10.3906 17.8125 10.5469C16.5312 12.4532 14.125 15.9844 10 15.9844C5.875 15.9844 3.4688 12.4532 2.1875 10.5469C2.0625 10.3906 2 10.1719 2 9.98439C2 9.79689 2.0625 9.57819 2.1875 9.42189C3.4688 7.51559 5.875 4.01559 10 4.01559ZM10 6.01559C7.4062 6.01559 5.6562 7.99209 4.2188 9.9999C5.6562 12.039 7.4062 14.0155 10 14.0154C12.5938 14.0155 14.3438 12.039 15.7812 9.9999C14.3438 7.99209 12.5938 6.01559 10 6.01559ZM9.98452 12.0156C11.1008 12.0156 12 11.1164 12 10.0311C12 8.91478 11.1008 8.01559 9.98452 8.01559C8.86823 8.01559 8 8.91478 8 10.0311C8 11.1164 8.86823 12.0156 9.98452 12.0156Z" fill="#1A1C1F"/>
</g>
<defs>
<clipPath id="clip0_187_282">
<rect width="20" height="20" fill="white"/>
</clipPath>
</defs>
</svg>
