<svg width="24" height="24" viewBox="0 0 24 24" fill="none" xmlns="http://www.w3.org/2000/svg">
<g clip-path="url(#clip0_187_280)">
<path fill-rule="evenodd" clip-rule="evenodd" d="M12 5C15.6875 5 18.4062 7.1875 21.7812 11.375C21.9375 11.5625 22 11.7812 22 12C22 12.2188 21.9375 12.4375 21.7812 12.625C18.4062 16.8438 15.6875 19 12 19C8.5312 19 6.0625 17.3125 2.2188 12.625C2.0625 12.4375 2 12.2188 2 12C2 11.7812 2.0625 11.5625 2.2188 11.375C5.5938 7.1875 8.3125 5 12 5ZM12 7C9.4688 7 7.3125 8.4062 4.2812 12C7.2188 15.5 9.25 16.9062 12 17C14.5312 17 16.6875 15.5938 19.7188 12C16.7812 8.5 14.75 7.0938 12 7ZM12 9C13.6562 9 15 10.3438 15 12C15 13.6562 13.6562 15 12 15C10.3438 15 9 13.6562 9 12C9 10.3438 10.3438 9 12 9ZM12 11C11.4375 11 11 11.4688 11 12C11 12.5625 11.4375 13.0312 12 13.0312C12.5625 13.0312 13 12.5625 13 12C13 11.4688 12.5625 11 12 11Z" fill="#1A1C1F"/>
</g>
<defs>
<clipPath id="clip0_187_280">
<rect width="24" height="24" fill="white"/>
</clipPath>
</defs>
</svg>
