<svg width="12" height="12" viewBox="0 0 12 12" fill="none" xmlns="http://www.w3.org/2000/svg">
<g clip-path="url(#clip0_232_431)">
<path fill-rule="evenodd" clip-rule="evenodd" d="M9.60971 1.80487C9.9219 1.80487 10.1951 2.05856 10.1951 2.39024C10.1951 2.54633 10.1365 2.70243 10.0195 2.8195L2.81946 10.0195C2.70239 10.1365 2.54629 10.1951 2.40971 10.1951C2.05849 10.1951 1.80483 9.92194 1.80483 9.59021C1.80483 9.45365 1.86463 9.2988 1.98044 9.18048L2.878 8.26338C2.27312 7.69755 1.74629 7.03414 1.29751 6.3317C1.23898 6.23411 1.19995 6.1171 1.19995 5.99996C1.19995 5.88295 1.23898 5.76581 1.29751 5.66829C2.078 4.51703 3.5219 2.40972 5.99995 2.40972C6.76093 2.40972 7.50239 2.62438 8.14629 3.01463L9.18044 1.98051C9.29751 1.86338 9.45361 1.80487 9.60971 1.80487ZM5.99995 3.61954C4.43898 3.61954 3.38532 4.79027 2.52678 5.99996C2.878 6.50734 3.28776 6.99511 3.73654 7.42438L4.84873 6.31216C4.80971 6.19515 4.7902 6.09755 4.7902 5.98048C4.7902 5.33661 5.33654 4.79027 5.99995 4.79027C6.09751 4.79027 6.21459 4.80975 6.31215 4.84877L7.24873 3.89264C6.85849 3.71707 6.42922 3.61954 5.99995 3.61954ZM9.08288 5.47316C9.21946 5.6488 9.33654 5.82438 9.47312 5.99996C8.6341 7.17069 7.61946 8.32194 6.15605 8.39999L5.06337 9.49267C5.37556 9.57072 5.68776 9.60975 5.99995 9.60975C8.478 9.60975 9.9219 7.48289 10.7024 6.3317C10.7609 6.23411 10.8 6.1171 10.8 5.99996C10.8 5.88295 10.7609 5.76581 10.7024 5.66829C10.4878 5.35609 10.2341 5.00487 9.94141 4.61463L9.08288 5.47316Z" fill="#1A1C1F"/>
</g>
<defs>
<clipPath id="clip0_232_431">
<rect width="12" height="12" fill="white"/>
</clipPath>
</defs>
</svg>
