<svg width="28" height="28" viewBox="0 0 28 28" fill="none" xmlns="http://www.w3.org/2000/svg">
<g clip-path="url(#clip0_187_291)">
<path fill-rule="evenodd" clip-rule="evenodd" d="M23.625 3.48636C23.8438 3.48636 24.0625 3.56845 24.2539 3.73245C24.418 3.89654 24.5 4.14264 24.5 4.3614C24.5 4.60749 24.418 4.82625 24.2539 4.99026L5.0039 24.2403C4.75781 24.4591 4.45703 24.5684 4.12891 24.4864C3.82813 24.4043 3.58203 24.1582 3.52734 23.8575C3.44531 23.5567 3.52734 23.2286 3.74609 23.0099L7 19.7559C4.97656 18.3614 3.22656 16.5567 1.91406 14.4786C1.69531 14.1778 1.69531 13.795 1.91406 13.4942C4.07422 10.3223 7.68359 6.11139 14 6.11139C15.8867 6.11139 17.7461 6.52157 19.4414 7.31452L22.9961 3.73245C23.1875 3.56845 23.4062 3.48636 23.625 3.48636ZM14 7.86138C9.92578 7.86138 6.72656 9.74813 3.69141 13.9864C4.89453 15.791 6.45312 17.3224 8.25782 18.4981L10.3633 16.3927C9.87109 15.6817 9.625 14.834 9.625 13.9864C9.625 11.5801 11.5937 9.61137 14 9.61137C14.8477 9.61137 15.6953 9.85746 16.4063 10.3496L18.1016 8.62699C16.8164 8.10747 15.4219 7.86138 14 7.86138ZM14 11.3614C12.5508 11.3614 11.375 12.5372 11.375 13.9864C11.375 14.3692 11.457 14.752 11.6484 15.1075L15.1211 11.6348C14.7656 11.4434 14.3828 11.3614 14 11.3614ZM21.1914 10.5137C22.3672 11.5528 23.4062 12.7013 24.3086 13.9864C21.2734 18.2246 18.0742 20.1114 14 20.1114C13.2617 20.1114 12.5234 20.0567 11.7852 19.92L10.3633 21.3419C11.5391 21.6973 12.7695 21.8614 14 21.8614C20.3164 21.8614 23.9258 17.6505 26.0859 14.4786C26.3047 14.1778 26.3047 13.795 26.0859 13.4942C25.0742 11.9356 23.8438 10.5137 22.4219 9.28327L21.1914 10.5137ZM13.3984 18.3067C13.5898 18.3341 13.8086 18.3614 14 18.3614C16.4063 18.3614 18.375 16.3927 18.375 13.9864C18.375 13.795 18.3477 13.5762 18.3203 13.3849L13.3984 18.3067Z" fill="#1A1C1F"/>
</g>
<defs>
<clipPath id="clip0_187_291">
<rect width="28" height="28" fill="white"/>
</clipPath>
</defs>
</svg>
