<svg width="32" height="32" viewBox="0 0 32 32" fill="none" xmlns="http://www.w3.org/2000/svg">
<g clip-path="url(#clip0_187_276)">
<path fill-rule="evenodd" clip-rule="evenodd" d="M16 7C21.8438 7 26.0625 9.9062 29.8125 15.4375C29.9375 15.6094 30 15.8047 30 16C30 16.1953 29.9375 16.3906 29.8125 16.5625C26.0625 22.0938 21.8438 25 16.0002 25C10.1562 25 5.9375 22.0938 2.1875 16.5625C2.0625 16.3906 2 16.1953 2 16C2 15.8047 2.0625 15.6094 2.1875 15.4375C5.9375 9.9062 10.1562 7 16 7ZM16 9C11.3125 9 7.71875 11.125 4.21875 16C7.70247 20.7257 11.2812 23 16 23C20.9688 23 24.2812 20.875 27.7812 16C24.3125 11.1875 20.9688 9 16 9ZM16 11C18.75 11 21 13.25 21 16C21 18.75 18.75 21 16 21C13.25 21 11 18.75 11 16C11 13.25 13.25 11 16 11ZM16 13C14.3438 13 13 14.3438 13 16C13 17.6562 14.3438 19 16 19C17.6562 19 19 17.6562 19 16C19 14.3438 17.6562 13 16 13Z" fill="#1A1C1F"/>
</g>
<defs>
<clipPath id="clip0_187_276">
<rect width="32" height="32" fill="white"/>
</clipPath>
</defs>
</svg>
