<svg width="12" height="12" viewBox="0 0 12 12" fill="none" xmlns="http://www.w3.org/2000/svg">
<g clip-path="url(#clip0_232_429)">
<path fill-rule="evenodd" clip-rule="evenodd" d="M5.99995 2.40936C8.47495 2.40936 9.91867 4.50936 10.6875 5.65314C10.7625 5.74692 10.8 5.87814 10.8 5.99064C10.8 6.10314 10.7625 6.23436 10.6875 6.32814C9.91867 7.47192 8.47495 9.59064 5.99995 9.59064C3.52495 9.59064 2.08123 7.47192 1.31245 6.32814C1.23745 6.23436 1.19995 6.10314 1.19995 5.99064C1.19995 5.87814 1.23745 5.74692 1.31245 5.65314C2.08123 4.50936 3.52495 2.40936 5.99995 2.40936ZM5.99995 3.60936C4.44367 3.60936 3.39367 4.79526 2.53123 5.99995C3.39367 7.22343 4.44367 8.40933 5.99995 8.40927C7.55623 8.40933 8.60623 7.22343 9.46867 5.99995C8.60623 4.79526 7.55623 3.60936 5.99995 3.60936ZM5.99066 7.20936C6.66044 7.20936 7.19995 6.66985 7.19995 6.01865C7.19995 5.34887 6.66044 4.80936 5.99066 4.80936C5.32089 4.80936 4.79995 5.34887 4.79995 6.01865C4.79995 6.66985 5.32089 7.20936 5.99066 7.20936Z" fill="#1A1C1F"/>
</g>
<defs>
<clipPath id="clip0_232_429">
<rect width="12" height="12" fill="white"/>
</clipPath>
</defs>
</svg>
