<svg width="16" height="16" viewBox="0 0 16 16" fill="none" xmlns="http://www.w3.org/2000/svg">
<g clip-path="url(#clip0_187_297)">
<path fill-rule="evenodd" clip-rule="evenodd" d="M12.813 2.40651C13.2292 2.40651 13.5935 2.74476 13.5935 3.187C13.5935 3.39513 13.5154 3.60326 13.3593 3.75935L3.75933 13.3594C3.60323 13.5154 3.3951 13.5935 3.21298 13.5935C2.74469 13.5935 2.40648 13.2293 2.40648 12.787C2.40648 12.6049 2.48622 12.3984 2.64063 12.2407L3.83737 11.0178C3.03087 10.2634 2.32843 9.37887 1.73006 8.44228C1.65201 8.31216 1.59998 8.15614 1.59998 7.99996C1.59998 7.84395 1.65201 7.68777 1.73006 7.55773C2.77071 6.02273 4.69591 3.21297 7.99998 3.21297C9.01461 3.21297 10.0032 3.49919 10.8618 4.01952L12.2406 2.6407C12.3967 2.48452 12.6049 2.40651 12.813 2.40651ZM7.99998 4.82606C5.91867 4.82606 4.5138 6.38704 3.36908 7.99996C3.83737 8.67647 4.38372 9.32683 4.98209 9.89919L6.46502 8.41622C6.41298 8.26021 6.38697 8.13009 6.38697 7.97399C6.38697 7.11549 7.11542 6.38704 7.99998 6.38704C8.13006 6.38704 8.28615 6.41301 8.41624 6.46505L9.66502 5.19021C9.14469 4.9561 8.57233 4.82606 7.99998 4.82606ZM12.1105 7.29757C12.2927 7.53175 12.4488 7.76586 12.6309 7.99996C11.5122 9.56094 10.1593 11.0959 8.20811 11.2L6.75119 12.6569C7.16746 12.761 7.58372 12.813 7.99998 12.813C11.304 12.813 13.2292 9.9772 14.2699 8.44228C14.3479 8.31216 14.4 8.15614 14.4 7.99996C14.4 7.84395 14.3479 7.68777 14.2699 7.55773C13.9837 7.14147 13.6455 6.67318 13.2553 6.15285L12.1105 7.29757Z" fill="#1A1C1F"/>
</g>
<defs>
<clipPath id="clip0_187_297">
<rect width="16" height="16" fill="white"/>
</clipPath>
</defs>
</svg>
