<svg width="14" height="14" viewBox="0 0 14 14" fill="none" xmlns="http://www.w3.org/2000/svg">
<g clip-path="url(#clip0_187_286)">
<path fill-rule="evenodd" clip-rule="evenodd" d="M7.00002 2.81091C9.88752 2.81091 11.5719 5.26091 12.4688 6.59532C12.5563 6.70473 12.6 6.85782 12.6 6.98907C12.6 7.12032 12.5563 7.27341 12.4688 7.38282C11.5719 8.71723 9.88752 11.1891 7.00002 11.1891C4.11252 11.1891 2.42818 8.71723 1.53127 7.38282C1.44377 7.27341 1.40002 7.12032 1.40002 6.98907C1.40002 6.85782 1.44377 6.70473 1.53127 6.59532C2.42818 5.26091 4.11252 2.81091 7.00002 2.81091ZM7.00002 4.21091C5.18436 4.21091 3.95936 5.59446 2.95318 6.99993C3.95936 8.42733 5.18436 9.81087 7.00002 9.8108C8.81568 9.81087 10.0407 8.42733 11.0469 6.99993C10.0407 5.59446 8.81568 4.21091 7.00002 4.21091ZM6.98919 8.41091C7.77059 8.41091 8.40002 7.78148 8.40002 7.02175C8.40002 6.24034 7.77059 5.61091 6.98919 5.61091C6.20778 5.61091 5.60002 6.24034 5.60002 7.02175C5.60002 7.78148 6.20778 8.41091 6.98919 8.41091Z" fill="#1A1C1F"/>
</g>
<defs>
<clipPath id="clip0_187_286">
<rect width="14" height="14" fill="white"/>
</clipPath>
</defs>
</svg>
