<svg width="20" height="20" viewBox="0 0 20 20" fill="none" xmlns="http://www.w3.org/2000/svg">
<g clip-path="url(#clip0_187_295)">
<path fill-rule="evenodd" clip-rule="evenodd" d="M16.0163 3.00813C16.5366 3.00813 16.9919 3.43095 16.9919 3.98374C16.9919 4.24391 16.8943 4.50407 16.6992 4.69919L4.69919 16.6992C4.50406 16.8943 4.2439 16.9919 4.01626 16.9919C3.43089 16.9919 3.00813 16.5366 3.00813 15.9837C3.00813 15.7561 3.1078 15.498 3.30081 15.3008L4.79675 13.7723C3.78862 12.8293 2.91057 11.7236 2.1626 10.5528C2.06504 10.3902 2 10.1952 2 9.99995C2 9.80493 2.06504 9.60971 2.1626 9.44716C3.46341 7.52841 5.86992 4.01621 10 4.01621C11.2683 4.01621 12.5041 4.37399 13.5772 5.02439L15.3008 3.30087C15.4959 3.10564 15.7561 3.00813 16.0163 3.00813ZM10 6.03258C7.39837 6.03258 5.64228 7.98379 4.21138 9.99995C4.79675 10.8456 5.47967 11.6585 6.22764 12.374L8.0813 10.5203C8.01626 10.3253 7.98374 10.1626 7.98374 9.96748C7.98374 8.89436 8.89431 7.98379 10 7.98379C10.1626 7.98379 10.3577 8.01626 10.5203 8.0813L12.0813 6.48776C11.4309 6.19512 10.7154 6.03258 10 6.03258ZM15.1382 9.12195C15.3659 9.41469 15.561 9.70732 15.7886 9.99995C14.3902 11.9512 12.6992 13.8699 10.2602 14L8.43902 15.8211C8.95935 15.9512 9.47967 16.0163 10 16.0163C14.1301 16.0163 16.5366 12.4715 17.8374 10.5528C17.935 10.3902 18 10.1952 18 9.99995C18 9.80493 17.935 9.60971 17.8374 9.44716C17.4797 8.92683 17.0569 8.34147 16.5691 7.69106L15.1382 9.12195Z" fill="#1A1C1F"/>
</g>
<defs>
<clipPath id="clip0_187_295">
<rect width="20" height="20" fill="white"/>
</clipPath>
</defs>
</svg>
