<svg width="24" height="24" viewBox="0 0 24 24" fill="none" xmlns="http://www.w3.org/2000/svg">
<g clip-path="url(#clip0_187_293)">
<path fill-rule="evenodd" clip-rule="evenodd" d="M20 3C20.5312 3 21 3.4375 21 4C21 4.25 20.9062 4.5312 20.7188 4.7188L4.71875 20.7188C4.5 20.9062 4.25 21 4 21C3.4375 21 3 20.5938 3 20C3 19.75 3.09375 19.5 3.28125 19.3125L6 16.5938C4.59375 15.4062 3.3125 14.0938 2.21875 12.625C2.0625 12.4375 2 12.2188 2 12C2 11.7812 2.0625 11.5625 2.21875 11.375C3.875 9.3125 7.3125 5 12 5C13.5312 5.0312 15.0312 5.4688 16.3438 6.25L19.2812 3.3125C19.5 3.0938 19.75 3 20 3ZM12 7C8.65625 7 5.875 10.0625 4.28125 12C5.21875 13.1875 6.25 14.2188 7.40625 15.1562L9.78125 12.8125C9.65625 12.5625 9.625 12.2812 9.625 12C9.625 10.6875 10.6875 9.625 12 9.625C12.2812 9.625 12.5625 9.6875 12.8125 9.7812L14.8438 7.7188C13.9688 7.2812 13 7.0312 12 7ZM18.0625 10.1562C18.7188 10.8125 19.25 11.4375 19.7188 12C18.125 13.9688 15.3438 17 12 17C11.75 17 11.5312 17 11.2812 16.9688L9.625 18.625C10.375 18.875 11.1875 19 12 19C16.6875 19 20.125 14.6875 21.7812 12.625C21.9375 12.4375 22 12.2188 22 12C22 11.7812 21.9375 11.5625 21.7812 11.375C21.0625 10.4688 20.3125 9.5938 19.5 8.75L18.0625 10.1562Z" fill="#1A1C1F"/>
</g>
<defs>
<clipPath id="clip0_187_293">
<rect width="24" height="24" fill="white"/>
</clipPath>
</defs>
</svg>
