<svg width="14" height="14" viewBox="0 0 14 14" fill="none" xmlns="http://www.w3.org/2000/svg">
<g clip-path="url(#clip0_187_299)">
<path fill-rule="evenodd" clip-rule="evenodd" d="M11.2114 2.1057C11.5756 2.1057 11.8943 2.40167 11.8943 2.78862C11.8943 2.97074 11.826 3.15285 11.6895 3.28944L3.28946 11.6895C3.15287 11.826 2.97076 11.8943 2.81141 11.8943C2.40165 11.8943 2.10572 11.5756 2.10572 11.1886C2.10572 11.0293 2.17548 10.8486 2.31059 10.7106L3.35775 9.64062C2.65206 8.98049 2.03742 8.20651 1.51385 7.387C1.44555 7.27314 1.40002 7.13663 1.40002 6.99997C1.40002 6.86346 1.44555 6.7268 1.51385 6.61301C2.42441 5.26989 4.10897 2.81135 7.00002 2.81135C7.88783 2.81135 8.75287 3.0618 9.50409 3.51708L10.7106 2.31061C10.8472 2.17395 11.0293 2.1057 11.2114 2.1057ZM7.00002 4.22281C5.17889 4.22281 3.94962 5.58866 2.94799 6.99997C3.35775 7.59191 3.8358 8.16098 4.35937 8.6618L5.65693 7.3642C5.61141 7.22768 5.58864 7.11383 5.58864 6.97724C5.58864 6.22606 6.22604 5.58866 7.00002 5.58866C7.11385 5.58866 7.25043 5.61139 7.36425 5.65692L8.45693 4.54143C8.00165 4.33659 7.50084 4.22281 7.00002 4.22281ZM10.5968 6.38537C10.7561 6.59029 10.8927 6.79513 11.0521 6.99997C10.0732 8.36582 8.88945 9.70895 7.18214 9.80001L5.90734 11.0748C6.27157 11.1659 6.6358 11.2114 7.00002 11.2114C9.89108 11.2114 11.5756 8.73005 12.4862 7.387C12.5545 7.27314 12.6 7.13663 12.6 6.99997C12.6 6.86346 12.5545 6.7268 12.4862 6.61301C12.2358 6.24879 11.9399 5.83903 11.5984 5.38375L10.5968 6.38537Z" fill="#1A1C1F"/>
</g>
<defs>
<clipPath id="clip0_187_299">
<rect width="14" height="14" fill="white"/>
</clipPath>
</defs>
</svg>
