<svg width="14" height="14" viewBox="0 0 14 14" fill="none" xmlns="http://www.w3.org/2000/svg">
<g clip-path="url(#clip0_187_273)">
<path fill-rule="evenodd" clip-rule="evenodd" d="M10.5756 1.4756L11.8258 1.4826C12.1149 1.491 12.4285 1.8102 12.4495 2.1602L12.6 4.8286C12.5755 5.1737 12.3067 5.46 11.9532 5.4985L11.172 5.5832L11.0628 6.4757C10.9928 6.7417 10.7772 6.94889 10.5014 7.0042L9.47799 7.2086L9.21504 7.47102C9.17879 7.50724 9.14143 7.54457 9.1042 7.58178L8.8061 7.87979L8.743 7.9429C9.0706 9.4521 8.5344 10.6582 7.7567 11.4352C6.3112 12.8807 3.9508 12.8961 2.4906 11.4352C1.0297 9.97499 1.043 7.616 2.4906 6.1691C3.2676 5.3921 4.3526 5.0043 5.3886 5.0869L8.7948 1.6898C8.94179 1.5428 9.1406 1.4749 9.3016 1.4749L10.5756 1.4756ZM9.5886 2.8749L5.9206 6.5331L5.278 6.4827C5.2234 6.4778 5.1688 6.4757 5.1142 6.4757C4.5101 6.4757 3.9144 6.7249 3.4804 7.1596C3.0429 7.5964 2.8007 8.17879 2.79999 8.7997C2.7993 9.4213 3.0408 10.0058 3.4804 10.4461C3.9186 10.8843 4.5017 11.1251 5.1219 11.1251C5.7449 11.1251 6.3287 10.8843 6.7662 10.4461C7.1743 10.0387 7.61039 9.3247 7.3752 8.2397L7.2135 7.4949L8.7885 5.9185L9.744 5.7274L9.91689 4.3099L11.1608 4.1762L11.0873 2.8784L9.5886 2.8749ZM5.88007 8.04559C6.29797 8.46349 6.29797 9.14109 5.88007 9.55899C5.46217 9.97689 4.78457 9.97689 4.36667 9.55899C3.94877 9.14109 3.94877 8.46349 4.36667 8.04559C4.78457 7.62769 5.46217 7.62769 5.88007 8.04559Z" fill="#1A1C1F"/>
</g>
<defs>
<clipPath id="clip0_187_273">
<rect width="14" height="14" fill="white"/>
</clipPath>
</defs>
</svg>
