<svg width="12" height="12" viewBox="0 0 12 12" fill="none" xmlns="http://www.w3.org/2000/svg">
<g clip-path="url(#clip0_232_425)">
<path fill-rule="evenodd" clip-rule="evenodd" d="M6.00002 1.20001C7.162 1.20001 8.15092 2.03146 8.35967 3.16173C8.41986 3.48759 8.20449 3.80054 7.87863 3.86073C7.57604 3.91661 7.28459 3.7349 7.19631 3.44776C7.07596 2.80296 6.58076 2.40001 6.00002 2.40001C5.36761 2.40001 4.80215 2.90906 4.80041 3.59963C4.79938 4.00316 4.79938 4.40672 4.80041 4.81031H8.40002C9.06277 4.81031 9.60002 5.34757 9.60002 6.01031V9.60001C9.60002 10.2628 9.06277 10.8 8.40002 10.8H3.60002C2.93728 10.8 2.40002 10.2628 2.40002 9.60001V6.01031C2.40002 5.34757 2.93728 4.81031 3.60002 4.81031L3.60041 3.59963C3.60041 2.27436 4.67475 1.20001 6.00002 1.20001ZM8.40002 6.01031H3.60002V9.60001H8.40002V6.01031ZM6.00002 6.60001C6.30773 6.60001 6.56133 6.83164 6.59599 7.13004L6.60002 7.20001V8.39707C6.60002 8.72844 6.3314 8.99707 6.00002 8.99707C5.69232 8.99707 5.43872 8.76545 5.40406 8.46704L5.40002 8.39707V7.20001C5.40002 6.86864 5.66865 6.60001 6.00002 6.60001Z" fill="#1A1C1F"/>
</g>
<defs>
<clipPath id="clip0_232_425">
<rect width="12" height="12" fill="white"/>
</clipPath>
</defs>
</svg>
