<svg width="12" height="12" viewBox="0 0 12 12" fill="none" xmlns="http://www.w3.org/2000/svg">
<g clip-path="url(#clip0_2214_5829)">
<path fill-rule="evenodd" clip-rule="evenodd" d="M6.00002 1.50514C7.28534 1.50514 8.39701 2.55068 8.40002 3.90514V4.50514C9.06277 4.50514 9.60002 5.0424 9.60002 5.70514V9.29484C9.60002 9.95759 9.06277 10.4948 8.40002 10.4948H3.60002C2.93728 10.4948 2.40002 9.95759 2.40002 9.29484V5.70514C2.40002 5.0424 2.93728 4.50514 3.60002 4.50514V3.90514C3.60002 2.57966 4.67454 1.50514 6.00002 1.50514ZM6.00002 6.29484C5.66865 6.29484 5.40002 6.56347 5.40002 6.89484V8.0919L5.40406 8.16187C5.43872 8.46028 5.69232 8.6919 6.00002 8.6919C6.3314 8.6919 6.60002 8.42327 6.60002 8.0919V6.89484L6.59599 6.82487C6.56133 6.52647 6.30773 6.29484 6.00002 6.29484ZM6.00002 2.70514C5.36741 2.70514 4.80181 3.20645 4.80002 3.90514C4.799 4.30512 4.80002 4.50514 4.80002 4.50514H7.20002V3.90514C7.20002 3.2424 6.66277 2.70514 6.00002 2.70514Z" fill="#1A1C1F"/>
</g>
<defs>
<clipPath id="clip0_2214_5829">
<rect width="12" height="12" fill="white"/>
</clipPath>
</defs>
</svg>
