<svg width="12" height="12" viewBox="0 0 12 12" fill="none" xmlns="http://www.w3.org/2000/svg">
<g clip-path="url(#clip0_232_433)">
<path fill-rule="evenodd" clip-rule="evenodd" d="M6.00002 1.20001C6.06894 1.20001 6.13837 1.21621 6.20265 1.24861L9.4442 2.92201C9.53883 2.96941 9.60002 3.07801 9.60002 3.19801V4.80001C9.60002 7.49881 8.43774 9.51121 6.1142 10.7712C6.07871 10.7904 6.03911 10.8 6.00002 10.8C5.96094 10.8 5.92134 10.7904 5.88585 10.7712C3.56231 9.51121 2.40002 7.49881 2.40002 4.80001V3.19801C2.40002 3.07801 2.46122 2.96941 2.55585 2.92201L5.7974 1.24861C5.86168 1.21621 5.93111 1.20001 6.00002 1.20001ZM6.99696 4.37595L5.51545 5.75168L5.00309 5.27591C4.75046 5.04132 4.34212 5.04132 4.08949 5.27591C3.83687 5.5105 3.83687 5.88968 4.08949 6.12427L5.05865 7.02422C5.18464 7.14122 5.35004 7.20001 5.51545 7.20001C5.68085 7.20001 5.84625 7.14122 5.97224 7.02422L7.91055 5.22431C8.16318 4.98972 8.16318 4.61054 7.91055 4.37595C7.65793 4.14137 7.24959 4.14137 6.99696 4.37595Z" fill="#1A1C1F"/>
</g>
<defs>
<clipPath id="clip0_232_433">
<rect width="12" height="12" fill="white"/>
</clipPath>
</defs>
</svg>
