<svg width="12" height="12" viewBox="0 0 12 12" fill="none" xmlns="http://www.w3.org/2000/svg">
<g clip-path="url(#clip0_232_223)">
<path fill-rule="evenodd" clip-rule="evenodd" d="M7.20001 1.95C8.85687 1.95 10.2 3.29314 10.2 4.95L10.1922 5.1558L10.2437 5.21344C10.5362 5.56389 10.7247 5.99268 10.7817 6.45314L10.7958 6.60774L10.8 6.75C10.8 7.98199 9.86925 9.00466 8.64634 9.1365L8.5231 9.14669L8.39941 9.14674C8.06851 9.14688 7.80015 8.87875 7.80001 8.54785C7.80001 8.54777 7.80001 8.54794 7.80001 8.54785C7.80001 8.21677 8.06834 7.9481 8.39941 7.94797L8.47107 7.94795C9.07284 7.91308 9.55237 7.43528 9.59667 6.84011L9.60001 6.75C9.60001 6.42771 9.47286 6.12725 9.25191 5.90499L9.17484 5.83388L8.91079 5.6105L8.97175 5.27006C8.99049 5.16535 9.00001 5.05842 9.00001 4.95C9.00001 3.95588 8.19412 3.15 7.20001 3.15C6.58285 3.15 6.02139 3.46277 5.69342 3.96625L5.63099 4.06945L5.4237 4.43942L5.00576 4.36747C4.93845 4.35588 4.86974 4.35 4.80001 4.35C4.30099 4.35 3.86161 4.65746 3.68312 5.10929L3.65096 5.20153L3.55781 5.50833L3.25098 5.60138C2.74977 5.75339 2.40001 6.21775 2.40001 6.75C2.40001 7.38261 2.88954 7.9009 3.51045 7.94671L3.60001 7.95C3.93122 7.95 4.20001 8.21849 4.20001 8.5497C4.20001 8.881 3.93161 9.14967 3.60031 9.15C2.315 9.15 1.26536 8.13962 1.20295 6.86978L1.20001 6.75C1.20001 5.85115 1.69845 5.04953 2.45783 4.63858L2.56807 4.58256L2.61241 4.5624L2.63238 4.51817C2.9878 3.77198 3.70961 3.25217 4.54501 3.16347L4.67782 3.15308L4.80001 3.15L4.90948 3.01322C5.43944 2.38547 6.35483 1.98979 7.20001 1.95ZM6.00001 5.55L6.04516 5.55167L6.12045 5.56214L6.1873 5.57984L6.25395 5.6062L6.31244 5.63759L6.37528 5.68181L6.42428 5.72573L7.32428 6.62573C7.55859 6.86005 7.55859 7.23995 7.32428 7.47426C7.12801 7.67052 6.82961 7.7024 6.60017 7.56988L6.60001 9.45C6.60001 9.78137 6.33138 10.05 6.00001 10.05C5.69231 10.05 5.43871 9.8204 5.40405 9.522L5.40001 9.45L5.40044 7.56954C5.19198 7.69025 4.92642 7.67513 4.73227 7.52417L4.67575 7.47426C4.45946 7.25797 4.44282 6.91763 4.62583 6.68226L4.67575 6.62573L5.57575 5.72573C5.59698 5.7045 5.61942 5.68518 5.64283 5.6678L5.70957 5.6248L5.77721 5.59273L5.84042 5.5715L5.91093 5.55661L5.94599 5.5524L6.00001 5.55Z" fill="#1A1C1F"/>
</g>
<defs>
<clipPath id="clip0_232_223">
<rect width="12" height="12" fill="white"/>
</clipPath>
</defs>
</svg>
