<svg width="20" height="20" viewBox="0 0 20 20" fill="none" xmlns="http://www.w3.org/2000/svg">
<g clip-path="url(#clip0_185_921)">
<path fill-rule="evenodd" clip-rule="evenodd" d="M16 12C16.5312 12 17 12.4375 17 13V15C17 16.6562 15.6562 18 14 18H6C4.3438 18 3 16.6562 3 15V13C3 12.4375 3.4688 12 4 12C4.5625 12 5 12.4375 5 13V15C5 15.5312 5.4375 16 6 16H14C14.5625 16 15 15.5312 15 15V13C15 12.4375 15.4375 12 16 12ZM10 2C10.5625 2 11 2.4688 11 3V9.5938L12.2812 8.3125C12.5 8.0938 12.6875 8 13 8C13.5625 8 14 8.4688 14 9C14 9.1875 13.9375 9.4375 13.7812 9.625L10.7188 12.7188C10.5 12.9062 10.2812 13 10.0312 13C9.7812 13 9.5312 12.9062 9.3125 12.7188L6.2812 9.7188C6.0938 9.5312 6 9.2812 6 9.0312C6 8.4375 6.5312 8 7.0312 8C7.2812 8 7.5312 8.0938 7.7188 8.3125L9 9.5938V3C9 2.4688 9.4375 2 10 2Z" fill="#1A1C1F"/>
</g>
<defs>
<clipPath id="clip0_185_921">
<rect width="20" height="20" fill="white"/>
</clipPath>
</defs>
</svg>
