<svg width="24" height="24" viewBox="0 0 24 24" fill="none" xmlns="http://www.w3.org/2000/svg">
<g clip-path="url(#clip0_185_919)">
<path fill-rule="evenodd" clip-rule="evenodd" d="M6 22H18C19.6562 22 21 20.6562 21 19V15C21 14.4375 20.5625 14 20 14C19.4375 14 19 14.4375 19 15V19C19 19.5625 18.5625 20 18 20H6C5.4375 20 5 19.5625 5 19V15C5 14.4375 4.5625 14 4 14C3.4375 14 3 14.4375 3 15V19C3 20.6562 4.3438 22 6 22ZM12 16C12.25 16 12.5312 15.9065 12.7188 15.7194L16.6875 11.7283C16.9062 11.5412 17 11.2918 17 11.0111C17 10.4811 16.5625 10.0446 16 10.0446C15.75 10.0446 15.4688 10.1381 15.2812 10.3252L13 12.6014V2.99778C13 2.43653 12.5312 2 12 2C11.4375 2 11 2.43653 11 2.99778V12.6014L8.7188 10.3252C8.5 10.1381 8.25 10.0446 8 10.0446C7.4375 10.0446 7 10.4811 7 11.0423C7 11.2918 7.0938 11.5412 7.3125 11.7283L11.2812 15.7194C11.4688 15.9065 11.75 16 12 16Z" fill="#1A1C1F"/>
</g>
<defs>
<clipPath id="clip0_185_919">
<rect width="24" height="24" fill="white"/>
</clipPath>
</defs>
</svg>
