<svg width="12" height="12" viewBox="0 0 12 12" fill="none" xmlns="http://www.w3.org/2000/svg">
<g clip-path="url(#clip0_232_227)">
<path fill-rule="evenodd" clip-rule="evenodd" d="M9.59999 7.20001C9.91871 7.20001 10.2 7.46251 10.2 7.80001V9.00001C10.2 9.99373 9.39371 10.8 8.39999 10.8H3.59999C2.60627 10.8 1.79999 9.99373 1.79999 9.00001V7.80001C1.79999 7.46251 2.08127 7.20001 2.39999 7.20001C2.73749 7.20001 2.99999 7.46251 2.99999 7.80001V9.00001C2.99999 9.31873 3.26249 9.60001 3.59999 9.60001H8.39999C8.73749 9.60001 8.99999 9.31873 8.99999 9.00001V7.80001C8.99999 7.46251 9.26249 7.20001 9.59999 7.20001ZM5.99999 1.20001C6.33749 1.20001 6.59999 1.48129 6.59999 1.80001V5.75629L7.36871 4.98751C7.49999 4.85629 7.61249 4.80001 7.79999 4.80001C8.13749 4.80001 8.39999 5.08129 8.39999 5.40001C8.39999 5.51251 8.36249 5.66251 8.26871 5.77501L6.43127 7.63129C6.29999 7.74373 6.16871 7.80001 6.01871 7.80001C5.86871 7.80001 5.71871 7.74373 5.58749 7.63129L3.76871 5.83129C3.65627 5.71873 3.59999 5.56873 3.59999 5.41873C3.59999 5.06251 3.91871 4.80001 4.21871 4.80001C4.36871 4.80001 4.51871 4.85629 4.63127 4.98751L5.39999 5.75629V1.80001C5.39999 1.48129 5.66249 1.20001 5.99999 1.20001Z" fill="#1A1C1F"/>
</g>
<defs>
<clipPath id="clip0_232_227">
<rect width="12" height="12" fill="white"/>
</clipPath>
</defs>
</svg>
