<svg width="32" height="32" viewBox="0 0 32 32" fill="none" xmlns="http://www.w3.org/2000/svg">
<g clip-path="url(#clip0_185_941)">
<path fill-rule="evenodd" clip-rule="evenodd" d="M14.4998 5C14.7169 5 14.9818 5.06651 15.237 5.31904L18.9148 9H24.9998C26.5975 9 28.0006 10.2907 28.0006 12.0265V13.3262C28.973 13.8224 29.8495 15.0067 29.5953 16.4932L28.2647 24.4932C28.0337 25.8795 26.8874 26.9085 25.4734 27H6.69403C5.28862 27 3.99978 26 3.73485 24.4932L2.40152 16.4932C2.1809 15.1695 2.86321 13.904 3.99885 13.326L3.99978 8C3.99978 6.40232 5.28948 5 6.99978 5H14.4998ZM5.32235 15.0067C4.69157 15.0498 4.29111 15.5331 4.37814 16.2111L5.70764 24.1644C5.7813 24.6064 6.138 24.9402 6.57347 24.9928L25.3055 25C25.7536 25 26.207 24.672 26.2919 24.1644L27.6193 16.2111C27.7106 15.4856 27.2547 15.0669 26.6999 15.0067H5.32235ZM14.0848 7H6.99978C6.48694 7 5.99923 7.40607 5.99923 8V13H25.9992L25.9998 12C25.9998 11.4872 25.5746 11.0366 24.9998 11H18.4998C18.2788 11 17.9833 10.9045 17.7927 10.7071L14.0848 7Z" fill="#1A1C1F"/>
</g>
<defs>
<clipPath id="clip0_185_941">
<rect width="32" height="32" fill="white"/>
</clipPath>
</defs>
</svg>
