<svg width="24" height="24" viewBox="0 0 24 24" fill="none" xmlns="http://www.w3.org/2000/svg">
<g clip-path="url(#clip0_185_932)">
<path fill-rule="evenodd" clip-rule="evenodd" d="M9.5 4H5.5C4.11929 4 3 5.11929 3 6.5V17.5C3 18.8807 4.11929 20 5.5 20H18.5C19.8807 20 21 18.8807 21 17.5V8.5C21 7.06485 19.8255 6 18.5 6H11.915L10.2071 4.29289C10.0196 4.10536 9.76522 4 9.5 4ZM5.5 6H9.085L10.7929 7.70711C10.9804 7.89464 11.2348 8 11.5 8H18.5C18.7761 8 19 8.22386 19 8.5V17.5C19 17.7761 18.7761 18 18.5 18H5.5C5.22386 18 5 17.7761 5 17.5V6.5C5 6.22386 5.22386 6 5.5 6Z" fill="#1A1C1F"/>
</g>
<defs>
<clipPath id="clip0_185_932">
<rect width="24" height="24" fill="white"/>
</clipPath>
</defs>
</svg>
