<svg width="12" height="12" viewBox="0 0 12 12" fill="none" xmlns="http://www.w3.org/2000/svg">
<g clip-path="url(#clip0_232_231)">
<path fill-rule="evenodd" clip-rule="evenodd" d="M5.43209 2.39996C5.56797 2.39996 5.69875 2.39996 5.86428 2.58378C6.09561 2.82163 6.32543 3.06036 6.55375 3.29996H8.99875C9.63137 3.29996 10.1988 3.80977 10.1988 4.49996C10.1997 4.79995 10.1997 5.09995 10.1988 5.39996C10.5537 5.39996 10.8715 5.71362 10.7871 6.11763C10.6205 6.95698 10.4527 7.7962 10.2836 8.6353C10.1776 9.16505 9.6949 9.59996 9.10687 9.59996C7.03483 9.60118 4.96276 9.60118 2.89064 9.59996C2.3504 9.59996 1.79875 9.17805 1.71394 8.6353C1.54491 7.79623 1.37707 6.957 1.2104 6.11763C1.14079 5.76956 1.40326 5.39996 1.79875 5.39996C1.79875 4.82184 1.79875 4.22184 1.79875 3.59996C1.79875 2.96735 2.32013 2.39996 2.99875 2.39996C3.80983 2.39891 4.62094 2.39891 5.43209 2.39996ZM9.46675 6.59996H2.53015L2.89064 8.39996H9.10687L9.46675 6.59996ZM5.17735 3.59996H2.99875L2.99855 5.39996H8.99855L8.99875 4.49996H6.29875C6.16287 4.49996 5.99845 4.45155 5.86656 4.31615C5.63466 4.07762 5.40493 3.83889 5.17735 3.59996Z" fill="#1A1C1F"/>
</g>
<defs>
<clipPath id="clip0_232_231">
<rect width="12" height="12" fill="white"/>
</clipPath>
</defs>
</svg>
