<svg width="20" height="20" viewBox="0 0 20 20" fill="none" xmlns="http://www.w3.org/2000/svg">
<g clip-path="url(#clip0_185_947)">
<path fill-rule="evenodd" clip-rule="evenodd" d="M9.05344 3.99992C9.2799 3.99992 9.49788 3.99992 9.77376 4.30628C10.1593 4.7027 10.5423 5.10058 10.9229 5.49992H14.9979C16.0522 5.49992 16.9979 6.34959 16.9979 7.49992C16.9995 7.9999 16.9995 8.4999 16.9979 8.99992C17.5895 8.99992 18.1191 9.52268 17.9785 10.196C17.7009 11.5949 17.4211 12.9937 17.1392 14.3922C16.9627 15.2751 16.1581 15.9999 15.1781 15.9999C11.7247 16.0019 8.27122 16.0019 4.81768 15.9999C3.91729 15.9999 2.99788 15.2967 2.85652 14.3922C2.57481 12.9937 2.29507 11.595 2.0173 10.196C1.90128 9.61592 2.33872 8.99992 2.99788 8.99992C2.99788 8.03637 2.99788 7.03637 2.99788 5.99992C2.99788 4.94556 3.86685 3.99992 4.99788 3.99992C6.34967 3.99816 7.70153 3.99816 9.05344 3.99992ZM15.7779 10.9999H4.21688L4.81768 13.9999H15.1781L15.7779 10.9999ZM8.62888 5.99992H4.99788L4.99754 8.99992H14.9975L14.9979 7.49992H10.4979C10.2714 7.49992 9.99738 7.41922 9.77756 7.19356C9.39106 6.79601 9.00817 6.39813 8.62888 5.99992Z" fill="#1A1C1F"/>
</g>
<defs>
<clipPath id="clip0_185_947">
<rect width="20" height="20" fill="white"/>
</clipPath>
</defs>
</svg>
