<svg width="14" height="14" viewBox="0 0 14 14" fill="none" xmlns="http://www.w3.org/2000/svg">
<g clip-path="url(#clip0_2208_3415)">
<path fill-rule="evenodd" clip-rule="evenodd" d="M10.5 2.09998C11.238 2.09998 11.902 2.75068 11.9 3.49998V10.5C11.9 11.238 11.2508 11.9019 10.5 11.9H3.49998C2.76192 11.9 2.10474 11.2437 2.09998 10.5V3.49998C2.09998 2.76192 2.76569 2.10447 3.49998 2.09998H10.5ZM10.5 3.49998H3.49998V8.31668L4.58693 7.77388C4.7253 7.70469 4.88186 7.68367 5.03213 7.71256L6.81028 8.29848L8.605 6.505C8.85734 6.25266 9.2544 6.23325 9.52901 6.44677L10.5 7.40948V3.49998ZM5.24998 4.19998C5.82993 4.19998 6.29998 4.67011 6.29998 5.24998C6.29998 5.82984 5.82993 6.29998 5.24998 6.29998C4.67002 6.29998 4.19998 5.82984 4.19998 5.24998C4.19998 4.67011 4.67002 4.19998 5.24998 4.19998Z" fill="#1A1C1F"/>
</g>
<defs>
<clipPath id="clip0_2208_3415">
<rect width="14" height="14" fill="white"/>
</clipPath>
</defs>
</svg>
