<svg width="24" height="24" viewBox="0 0 24 24" fill="none" xmlns="http://www.w3.org/2000/svg">
<g clip-path="url(#clip0_3479_32)">
<path fill-rule="evenodd" clip-rule="evenodd" d="M14.1256 9.87586C14.3131 10.0634 14.4185 10.3177 14.4185 10.583C14.4185 10.8482 14.3131 11.1025 14.1256 11.2901C13.938 11.4776 13.6837 11.583 13.4185 11.583C13.1532 11.583 12.8989 11.4776 12.7113 11.2901C12.2626 10.8412 11.6599 10.5798 11.0255 10.5589C10.3912 10.538 9.77261 10.7592 9.29532 11.1776L5.77746 14.687C5.3168 15.1454 5.05277 15.7652 5.04131 16.415C5.02986 17.0648 5.27189 17.6935 5.7161 18.1679C6.16031 18.6423 6.77179 18.925 7.42093 18.9562C8.07007 18.9874 8.70584 18.7646 9.19349 18.335L10.7979 16.7376C10.9778 16.5549 11.221 16.4482 11.4773 16.4397C11.7336 16.4311 11.9834 16.5214 12.1751 16.6918C12.3667 16.8622 12.4856 17.0997 12.5071 17.3553C12.5286 17.6108 12.4511 17.8648 12.2906 18.0649L10.7272 19.6368C9.89627 20.4677 8.77328 20.9406 7.59826 20.9544C6.42324 20.9683 5.28942 20.5219 4.43916 19.7108C3.58889 18.8997 3.08963 17.7882 3.04809 16.6138C3.00656 15.4394 3.42604 14.2954 4.21688 13.4262L7.76231 9.87515C8.60622 9.03124 9.75082 8.55713 10.9443 8.55713C12.1378 8.55713 13.2824 9.03124 14.1263 9.87515L14.1256 9.87586ZM19.6375 4.36396C20.4551 5.18198 20.9264 6.28342 20.9535 7.4397C20.9807 8.59598 20.5615 9.71831 19.7831 10.5738L16.2462 14.1178C15.4023 14.9617 14.2577 15.4358 13.0642 15.4358C11.8707 15.4358 10.7261 14.9617 9.88222 14.1178C9.69468 13.9303 9.58932 13.6759 9.58932 13.4107C9.58932 13.1455 9.69468 12.8911 9.88222 12.7036C10.245 12.3408 10.8559 12.2744 11.2095 12.6265C12.181 13.5938 13.7296 13.6787 14.7118 12.8167L18.2225 9.313C18.6789 8.85379 18.9392 8.23547 18.9489 7.58817C18.9586 6.94086 18.7168 6.31505 18.2744 5.84242C17.832 5.36979 17.2235 5.08719 16.5769 5.05411C15.9304 5.02103 15.2963 5.24003 14.8079 5.66504L13.2021 7.26239C13.0215 7.44218 12.7792 7.54627 12.5245 7.55341C12.2698 7.56055 12.022 7.4702 11.8316 7.3008C11.6413 7.13141 11.5228 6.89575 11.5004 6.64195C11.4779 6.38814 11.5532 6.13534 11.7108 5.93515L13.2728 4.36325C14.1167 3.51934 15.2613 3.04524 16.4548 3.04524C17.6482 3.04524 18.7928 3.51934 19.6368 4.36325L19.6375 4.36396Z" fill="#1A1C1F"/>
</g>
<defs>
<clipPath id="clip0_3479_32">
<rect width="24" height="24" fill="white"/>
</clipPath>
</defs>
</svg>
