<svg width="14" height="14" viewBox="0 0 14 14" fill="none" xmlns="http://www.w3.org/2000/svg">
<g clip-path="url(#clip0_3479_41)">
<path fill-rule="evenodd" clip-rule="evenodd" d="M8.15006 6.20204C7.95348 6.50327 7.54336 6.63338 7.25203 6.4467C6.66089 6.07052 5.98419 6.11365 5.51467 6.51246L3.88479 8.13527C3.62224 8.39782 3.47474 8.75392 3.47474 9.12522C3.47474 9.49653 3.62224 9.85262 3.88479 10.1152C4.40663 10.637 5.24031 10.6618 5.86469 10.1152C6.15531 9.85991 6.58099 9.84152 6.85464 10.1152C6.98591 10.2464 7.05966 10.4245 7.05966 10.6101C7.05966 10.7958 6.98591 10.9738 6.85464 11.1051C6.33879 11.625 5.6398 11.9221 4.90751 11.9326C4.17522 11.9432 3.46794 11.6665 2.93729 11.1617C2.40664 10.657 2.09488 9.9644 2.06883 9.2325C2.04279 8.5006 2.30454 7.78763 2.79797 7.24644L4.43845 5.60171C4.8923 5.14762 5.48841 4.86329 6.12692 4.79635C6.76543 4.72941 7.40755 4.88393 7.9457 5.23401C8.10108 5.33536 8.20988 5.49423 8.2482 5.67574C8.28651 5.85725 8.25122 6.04654 8.15006 6.20204ZM11.1114 2.88713C11.6195 3.39506 11.913 4.07888 11.931 4.79711C11.949 5.51534 11.6903 6.21302 11.2083 6.74581L9.56922 8.39054C9.11537 8.84462 8.51926 9.12895 7.88075 9.19589C7.24225 9.26283 6.60013 9.10832 6.06197 8.75823C5.90641 8.65687 5.79749 8.49786 5.75916 8.31619C5.72084 8.13452 5.75625 7.94506 5.85762 7.7895C5.95898 7.63394 6.11799 7.52501 6.29966 7.48669C6.48133 7.44836 6.67079 7.48378 6.82635 7.58514C7.07862 7.74894 7.37693 7.82715 7.67711 7.80817C7.97729 7.7892 8.26337 7.67405 8.493 7.47978L10.1229 5.85697C10.3854 5.59442 10.5329 5.23833 10.5329 4.86702C10.5329 4.49572 10.3854 4.13963 10.1229 3.87708C9.60104 3.35523 8.76807 3.3326 8.14299 3.87708C7.85095 4.13093 7.42598 4.15002 7.15304 3.87708C7.08803 3.81207 7.03647 3.73491 7.0013 3.64998C6.96612 3.56505 6.94801 3.47403 6.94801 3.3821C6.94801 3.29018 6.96612 3.19915 7.0013 3.11422C7.03647 3.02929 7.08803 2.95213 7.15304 2.88713C7.67814 2.36202 8.39033 2.06702 9.13293 2.06702C9.87554 2.06702 10.5877 2.36202 11.1128 2.88713H11.1114Z" fill="#1A1C1F"/>
</g>
<defs>
<clipPath id="clip0_3479_41">
<rect width="14" height="14" fill="white"/>
</clipPath>
</defs>
</svg>
