<svg width="28" height="28" viewBox="0 0 28 28" fill="none" xmlns="http://www.w3.org/2000/svg">
<g clip-path="url(#clip0_3479_29)">
<path fill-rule="evenodd" clip-rule="evenodd" d="M17.0998 11.5167C17.2576 11.6746 17.3491 11.8867 17.3555 12.1098C17.362 12.3329 17.283 12.55 17.1347 12.7167C16.9864 12.8835 16.7799 12.9873 16.5576 13.0068C16.3353 13.0264 16.1139 12.9603 15.9388 12.822L15.5541 12.4458C14.919 11.8107 14.0641 11.4439 13.1662 11.4216C12.2683 11.3992 11.3961 11.7229 10.7302 12.3256L5.65461 17.3956C5.01252 18.042 4.64779 18.9132 4.63791 19.8243C4.62804 20.7353 4.97379 21.6143 5.60171 22.2744C6.22963 22.9345 7.09022 23.3238 8.0006 23.3595C8.91098 23.3952 9.7994 23.0745 10.4771 22.4655L12.4605 20.4892C12.6184 20.3314 12.8305 20.24 13.0536 20.2335C13.2767 20.227 13.4938 20.306 13.6606 20.4543C13.8273 20.6026 13.9311 20.8091 13.9507 21.0314C13.9702 21.2537 13.9041 21.4751 13.7658 21.6502L11.8418 23.5828C10.8706 24.5617 9.5533 25.1192 8.17447 25.1348C6.79564 25.1505 5.466 24.6231 4.47283 23.6665C3.47966 22.7099 2.90271 21.401 2.86663 20.0225C2.83055 18.6441 3.33823 17.3068 4.27999 16.2996L9.36692 11.2084C10.3274 10.248 11.6227 9.69729 12.9806 9.67185C14.3386 9.6464 15.6536 10.1482 16.6494 11.0719L17.0998 11.5167ZM23.5974 4.4025C24.5578 5.36296 25.1085 6.65824 25.134 8.01623C25.1594 9.37421 24.6576 10.6892 23.7339 11.685L18.6477 16.7769C17.6873 17.7375 16.3919 18.2885 15.0338 18.3141C13.6756 18.3397 12.3604 17.8379 11.3645 16.914L10.9127 16.4664C10.7549 16.3086 10.6634 16.0964 10.6569 15.8733C10.6505 15.6503 10.7295 15.4331 10.8778 15.2664C11.0261 15.0996 11.2325 14.9959 11.4549 14.9763C11.6772 14.9567 11.8986 15.0229 12.0737 15.1611L12.4598 15.5387C13.0947 16.1738 13.9495 16.5405 14.8472 16.563C15.745 16.5855 16.617 16.2621 17.283 15.6596L22.36 10.5897C23.0078 9.94439 23.3774 9.0712 23.3897 8.15691C23.4019 7.24262 23.0559 6.35983 22.4256 5.69739C21.7953 5.03495 20.9308 4.64547 20.0171 4.61227C19.1033 4.57907 18.2128 4.90478 17.5361 5.51973L15.5534 7.4968C15.3954 7.65431 15.1832 7.74553 14.9602 7.75182C14.7373 7.75811 14.5203 7.67899 14.3537 7.53062C14.1871 7.38226 14.0834 7.17587 14.0639 6.95364C14.0444 6.73141 14.1106 6.51012 14.2488 6.33502L16.1728 4.4025C18.2234 2.35189 21.5468 2.35189 23.5974 4.4025Z" fill="#1A1C1F"/>
</g>
<defs>
<clipPath id="clip0_3479_29">
<rect width="28" height="28" fill="white"/>
</clipPath>
</defs>
</svg>
