<svg width="32" height="32" viewBox="0 0 32 32" fill="none" xmlns="http://www.w3.org/2000/svg">
<g clip-path="url(#clip0_3479_26)">
<path fill-rule="evenodd" clip-rule="evenodd" d="M19.5363 13.168C19.7163 13.3484 19.8206 13.5908 19.828 13.8456C19.8353 14.1003 19.7451 14.3483 19.5757 14.5388C19.4064 14.7293 19.1707 14.8479 18.9168 14.8704C18.6629 14.8929 18.41 14.8177 18.2097 14.66L17.7699 14.2301C17.0443 13.5044 16.0674 13.0854 15.0415 13.0597C14.0156 13.0341 13.0191 13.4037 12.258 14.0922L6.45621 19.8869C5.71829 20.6248 5.29796 21.6219 5.28491 22.6653C5.27185 23.7088 5.6671 24.7161 6.38632 25.4722C7.10554 26.2283 8.09178 26.6735 9.1346 26.7126C10.1774 26.7517 11.1942 26.3818 11.9681 25.6817L14.2344 23.4225C14.4148 23.2424 14.6572 23.1381 14.9119 23.1308C15.1667 23.1234 15.4147 23.2137 15.6052 23.383C15.7956 23.5524 15.9143 23.7881 15.9368 24.042C15.9593 24.2958 15.8841 24.5487 15.7264 24.749L13.5273 26.958C12.4162 28.0713 10.9124 28.7038 9.33965 28.7193C7.76687 28.7349 6.25088 28.1322 5.11804 27.0411C3.9852 25.95 3.32611 24.4576 3.28266 22.8854C3.23921 21.3131 3.81488 19.7867 4.88573 18.6346L10.6989 12.8159C11.7965 11.7181 13.2769 11.0885 14.829 11.0594C16.3811 11.0303 17.8841 11.6038 19.0222 12.6596L19.5363 13.168ZM26.9623 5.03768C28.06 6.13534 28.6896 7.61574 28.7188 9.16785C28.7479 10.72 28.1743 12.2229 27.1186 13.361L21.3055 19.1798C20.2078 20.2776 18.7274 20.9071 17.1753 20.9363C15.6232 20.9654 14.1202 20.3919 12.9821 19.3361L12.4652 18.8249C12.2854 18.6443 12.1813 18.4019 12.1742 18.1472C12.167 17.8926 12.2574 17.6447 12.4268 17.4544C12.5962 17.2641 12.8318 17.1456 13.0856 17.1231C13.3395 17.1007 13.5923 17.1759 13.7924 17.3336L14.2344 17.7656C14.96 18.4913 15.9369 18.9103 16.9628 18.9359C17.9887 18.9616 18.9852 18.592 19.7463 17.9035L25.5481 12.1088C26.286 11.3709 26.7063 10.3738 26.7194 9.33033C26.7325 8.28686 26.3372 7.2796 25.618 6.52347C24.8988 5.76734 23.9125 5.32223 22.8697 5.28309C21.8269 5.24396 20.8101 5.61391 20.0362 6.31401L17.7699 8.57322C17.5894 8.75301 17.347 8.8571 17.0923 8.86424C16.8376 8.87138 16.5898 8.78102 16.3995 8.61163C16.2091 8.44224 16.0906 8.20658 16.0682 7.95277C16.0457 7.69897 16.121 7.44616 16.2786 7.24598L18.477 5.03768C19.6022 3.91247 21.1284 3.28033 22.7197 3.28033C24.311 3.28033 25.8371 3.91247 26.9623 5.03768Z" fill="#1A1C1F"/>
</g>
<defs>
<clipPath id="clip0_3479_26">
<rect width="32" height="32" fill="white"/>
</clipPath>
</defs>
</svg>
