<svg width="16" height="16" viewBox="0 0 16 16" fill="none" xmlns="http://www.w3.org/2000/svg">
<g clip-path="url(#clip0_3479_38)">
<path fill-rule="evenodd" clip-rule="evenodd" d="M9.30921 7.0924C9.08576 7.43605 8.61695 7.58525 8.2839 7.37241C7.60791 6.94108 6.83433 6.99199 6.29764 7.44666L4.43583 9.3014C4.13577 9.60146 3.9672 10.0084 3.9672 10.4328C3.9672 10.8571 4.13577 11.2641 4.43583 11.5641C5.03192 12.1602 5.98439 12.1892 6.69857 11.5641C7.0302 11.2735 7.5174 11.2516 7.82994 11.5641C7.97997 11.7142 8.06425 11.9177 8.06425 12.1298C8.06425 12.342 7.97997 12.5455 7.82994 12.6955C7.23963 13.2858 6.44198 13.6221 5.6072 13.6326C4.77243 13.643 3.96662 13.3268 3.36172 12.7514C2.75681 12.1761 2.40072 11.3871 2.36941 10.5528C2.33811 9.71855 2.63407 8.90509 3.19415 8.286L5.06869 6.4058C5.58728 5.88732 6.26821 5.56269 6.99754 5.48623C7.72686 5.40977 8.46031 5.58613 9.07516 5.98578C9.2529 6.10152 9.3774 6.28311 9.42129 6.49063C9.46518 6.69815 9.42487 6.9146 9.30921 7.0924ZM12.6955 3.30443C13.2761 3.88496 13.6113 4.66641 13.6318 5.48715C13.6523 6.30788 13.3566 7.10512 12.8059 7.71395L10.9313 9.59414C10.4126 10.1127 9.73148 10.4373 9.002 10.5136C8.27253 10.59 7.53897 10.4134 6.92414 10.0135C6.75266 9.89497 6.6342 9.71425 6.59396 9.50975C6.55373 9.30524 6.59489 9.09311 6.70868 8.9185C6.82248 8.74388 6.99994 8.62057 7.20328 8.57481C7.40661 8.52905 7.61978 8.56446 7.79741 8.67349C8.08586 8.86058 8.4269 8.94977 8.77001 8.92787C9.11312 8.90596 9.44004 8.77412 9.70236 8.55187L11.5642 6.69854C11.8642 6.39848 12.0328 5.99152 12.0328 5.56717C12.0328 5.14282 11.8642 4.73586 11.5642 4.4358C10.9674 3.839 10.0163 3.81284 9.30143 4.4358C8.96909 4.72571 8.4826 4.74834 8.17006 4.4358C8.02003 4.28577 7.93574 4.08229 7.93574 3.87011C7.93574 3.65794 8.02003 3.45446 8.17006 3.30443C8.77018 2.70431 9.58411 2.36717 10.4328 2.36717C11.2815 2.36717 12.0954 2.70431 12.6955 3.30443Z" fill="#1A1C1F"/>
</g>
<defs>
<clipPath id="clip0_3479_38">
<rect width="16" height="16" fill="white"/>
</clipPath>
</defs>
</svg>
