<svg width="12" height="12" viewBox="0 0 12 12" fill="none" xmlns="http://www.w3.org/2000/svg">
<g clip-path="url(#clip0_3479_44)">
<path fill-rule="evenodd" clip-rule="evenodd" d="M6.98252 5.3194C6.81493 5.57749 6.46279 5.68922 6.21319 5.53012C5.70619 5.20697 5.12707 5.24445 4.72331 5.58598L3.32748 6.97615C3.10244 7.2012 2.97601 7.50642 2.97601 7.82468C2.97601 8.14294 3.10244 8.44816 3.32748 8.67321C3.77437 9.1201 4.48926 9.14202 5.02454 8.67321C5.27344 8.45542 5.63831 8.43845 5.87307 8.67321C5.98559 8.78573 6.0488 8.93834 6.0488 9.09747C6.0488 9.2566 5.98559 9.40921 5.87307 9.52174C5.43033 9.96449 4.8321 10.2167 4.20601 10.2245C3.57993 10.2324 2.97557 9.9952 2.5219 9.56367C2.06822 9.13214 1.80115 8.5404 1.77767 7.9147C1.75419 7.28901 1.97616 6.67892 2.39622 6.2146L3.80124 4.80533C4.19009 4.41577 4.70102 4.17169 5.2484 4.11402C5.79579 4.05635 6.34637 4.18858 6.80786 4.48855C6.87392 4.53161 6.93084 4.58726 6.97538 4.65233C7.01991 4.7174 7.05118 4.79061 7.0674 4.86777C7.08362 4.94494 7.08448 5.02454 7.06991 5.10204C7.05535 5.17953 7.02565 5.25339 6.98252 5.3194ZM9.52174 2.47895C9.95714 2.91435 10.2085 3.50044 10.2239 4.11599C10.2393 4.73154 10.0176 5.32947 9.60447 5.78609L8.19945 7.19535C7.8103 7.58477 7.29911 7.82855 6.75157 7.88584C6.20404 7.94313 5.65345 7.81044 5.19212 7.51002C5.06273 7.42143 4.97315 7.28571 4.94258 7.1319C4.91201 6.9781 4.94286 6.81844 5.02854 6.6871C5.11422 6.55576 5.24791 6.46318 5.401 6.42919C5.55409 6.3952 5.7144 6.42249 5.84761 6.50522C6.06398 6.64562 6.31983 6.71256 6.57724 6.69613C6.83465 6.6797 7.07991 6.58077 7.27667 6.414L8.6725 5.02383C8.89755 4.79879 9.02397 4.49356 9.02397 4.1753C9.02397 3.85704 8.89755 3.55182 8.6725 3.32677C8.2249 2.87917 7.51214 2.85938 6.97545 3.32677C6.72584 3.54386 6.36097 3.56083 6.12692 3.32677C6.0144 3.21425 5.95118 3.06164 5.95118 2.90251C5.95118 2.74338 6.0144 2.59077 6.12692 2.47825C6.57701 2.02816 7.18746 1.7753 7.82397 1.7753C8.46049 1.7753 9.07165 2.02887 9.52174 2.47895Z" fill="#1A1C1F"/>
</g>
<defs>
<clipPath id="clip0_3479_44">
<rect width="12" height="12" fill="white"/>
</clipPath>
</defs>
</svg>
