<svg width="20" height="20" viewBox="0 0 20 20" fill="none" xmlns="http://www.w3.org/2000/svg">
<g clip-path="url(#clip0_3479_35)">
<path fill-rule="evenodd" clip-rule="evenodd" d="M11.637 8.86506C11.357 9.29498 10.7708 9.48095 10.3543 9.21578C9.51 8.67697 8.54339 8.7399 7.87164 9.30841L5.54526 11.6263C5.17018 12.0014 4.95947 12.5101 4.95947 13.0405C4.95947 13.571 5.17018 14.0797 5.54526 14.4547C6.29055 15.2 7.4799 15.2368 8.37368 14.4547C8.78805 14.0913 9.39687 14.0637 9.7879 14.4547C9.97543 14.6423 10.0808 14.8966 10.0808 15.1618C10.0808 15.4271 9.97543 15.6814 9.7879 15.869C9.05 16.6069 8.05295 17.0272 7.00948 17.0403C5.966 17.0533 4.95874 16.6581 4.20262 15.9388C3.44649 15.2196 3.00137 14.2334 2.96224 13.1906C2.92311 12.1477 3.29306 11.1309 3.99316 10.3571L6.3358 8.00734C6.98402 7.3591 7.83523 6.95319 8.74697 6.85755C9.6587 6.76191 10.5756 6.98235 11.3442 7.48196C11.5664 7.62661 11.722 7.85355 11.7769 8.11291C11.8318 8.37226 11.7815 8.6428 11.637 8.86506ZM15.869 4.13098C16.5947 4.85664 17.0137 5.83345 17.0393 6.85938C17.065 7.8853 16.6954 8.88184 16.0069 9.64288L13.6643 11.9926C13.0159 12.6409 12.1645 13.0468 11.2526 13.1423C10.3407 13.2378 9.42373 13.0171 8.65511 12.5173C8.54088 12.4476 8.44179 12.3557 8.36372 12.247C8.28565 12.1383 8.23018 12.0151 8.20061 11.8846C8.17103 11.7541 8.16795 11.619 8.19154 11.4873C8.21513 11.3556 8.26491 11.2299 8.33794 11.1178C8.41097 11.0057 8.50576 10.9093 8.6167 10.8345C8.72763 10.7597 8.85245 10.7079 8.98377 10.6822C9.11509 10.6565 9.25023 10.6574 9.38119 10.6849C9.51215 10.7123 9.63626 10.7658 9.74618 10.8421C10.1068 11.076 10.5331 11.1876 10.962 11.1603C11.3909 11.1331 11.7996 10.9684 12.1277 10.6908L14.4548 8.37362C14.8299 7.99855 15.0406 7.48984 15.0406 6.95941C15.0406 6.42897 14.8299 5.92026 14.4548 5.54519C13.7088 4.79919 12.5202 4.76737 11.6264 5.54519C11.2106 5.90723 10.6025 5.93551 10.2122 5.54519C10.0246 5.35766 9.91927 5.1033 9.91927 4.83809C9.91927 4.57287 10.0246 4.31851 10.2122 4.13098C10.9623 3.38083 11.9797 2.95941 13.0406 2.95941C14.1015 2.95941 15.1189 3.38083 15.869 4.13098Z" fill="#1A1C1F"/>
</g>
<defs>
<clipPath id="clip0_3479_35">
<rect width="20" height="20" fill="white"/>
</clipPath>
</defs>
</svg>
