<svg width="9" height="9" viewBox="0 0 9 9" fill="none" xmlns="http://www.w3.org/2000/svg">
<path fill-rule="evenodd" clip-rule="evenodd" d="M5.54583 3.77504C5.36733 4.04996 4.99224 4.16896 4.72636 3.99949C4.18633 3.65529 3.56946 3.69521 3.13939 4.059L1.65259 5.53977C1.41288 5.77948 1.27822 6.1046 1.27822 6.4436C1.27822 6.7826 1.41288 7.10772 1.65259 7.34743C2.12861 7.82344 2.89009 7.84679 3.46025 7.34743C3.72537 7.11544 4.11402 7.09737 4.36408 7.34743C4.48393 7.46728 4.55127 7.62984 4.55127 7.79934C4.55127 7.96884 4.48393 8.1314 4.36408 8.25125C3.89249 8.72286 3.25527 8.99149 2.58838 8.99984C1.9215 9.00818 1.27775 8.75558 0.794509 8.29592C0.311265 7.83627 0.0267898 7.20596 0.00178041 6.53949C-0.023229 5.87302 0.213209 5.22316 0.660643 4.72858L2.15723 3.22748C2.57141 2.81252 3.11564 2.55254 3.69871 2.49111C4.28177 2.42967 4.86823 2.57052 5.3598 2.89005C5.43016 2.93591 5.49079 2.99519 5.53823 3.0645C5.58566 3.13381 5.61897 3.21179 5.63625 3.29398C5.65353 3.37618 5.65444 3.46097 5.63892 3.54351C5.62341 3.62606 5.59178 3.70473 5.54583 3.77504ZM8.25054 0.749479C8.71431 1.21325 8.9821 1.83754 8.9985 2.49321C9.0149 3.14888 8.77867 3.78577 8.33866 4.27215L6.84208 5.77326C6.42757 6.18805 5.88306 6.44772 5.29984 6.50875C4.71662 6.56977 4.13015 6.42843 3.63876 6.10843C3.50093 6.01407 3.40552 5.8695 3.37295 5.70567C3.34038 5.54184 3.37325 5.37177 3.46451 5.23188C3.55578 5.09198 3.69818 4.99337 3.86125 4.95716C4.02431 4.92095 4.19507 4.95002 4.33696 5.03814C4.56744 5.18769 4.83996 5.259 5.11414 5.2415C5.38833 5.224 5.64957 5.11862 5.85916 4.94098L7.34596 3.46021C7.58567 3.2205 7.72034 2.89538 7.72034 2.55638C7.72034 2.21738 7.58567 1.89226 7.34596 1.65255C6.86919 1.17578 6.10997 1.1547 5.5383 1.65255C5.27243 1.88378 4.88378 1.90186 4.63447 1.65255C4.51462 1.5327 4.44729 1.37014 4.44729 1.20064C4.44729 1.03114 4.51462 0.868581 4.63447 0.748726C5.11389 0.269306 5.76413 -2.98974e-05 6.44213 -2.98974e-05C7.12013 -2.98974e-05 7.77112 0.270059 8.25054 0.749479Z" fill="#1A1C1E"/>
</svg>
