<svg width="12" height="12" viewBox="0 0 12 12" fill="none" xmlns="http://www.w3.org/2000/svg">
<g clip-path="url(#clip0_232_237)">
<path fill-rule="evenodd" clip-rule="evenodd" d="M9.59999 1.20001C9.93136 1.20001 10.2 1.46864 10.2 1.80001V10.2C10.2 10.5314 9.93136 10.8 9.59999 10.8H3.59999C3.26862 10.8 2.99999 10.5314 2.99999 10.2L2.99899 7.79901L2.39999 7.80001C2.06862 7.80001 1.79999 7.53138 1.79999 7.20001C1.79999 6.86864 2.06862 6.60001 2.39999 6.60001L2.99899 6.59901V5.40001H2.39999C2.06862 5.40001 1.79999 5.13138 1.79999 4.80001C1.79999 4.46864 2.06862 4.20001 2.39999 4.20001H2.99899L2.99999 1.80001C2.99999 1.50178 3.21758 1.25437 3.50266 1.20787L3.59999 1.20001H9.59999ZM8.99999 2.40001H4.19999L4.19987 4.78787C4.19995 4.79191 4.19999 4.79595 4.19999 4.80001L4.19899 4.81201L4.19987 7.18774C4.19995 7.19182 4.19999 7.19591 4.19999 7.20001L4.19899 7.21101L4.19999 9.60001H8.99999V2.40001ZM7.79999 6.60001V7.80001H5.39999V6.60001H7.79999ZM7.79999 4.20001V5.40001H5.39999V4.20001H7.79999Z" fill="#1A1C1F"/>
</g>
<defs>
<clipPath id="clip0_232_237">
<rect width="12" height="12" fill="white"/>
</clipPath>
</defs>
</svg>
