<svg width="12" height="12" viewBox="0 0 12 12" fill="none" xmlns="http://www.w3.org/2000/svg">
<g clip-path="url(#clip0_232_239)">
<path fill-rule="evenodd" clip-rule="evenodd" d="M8.61298 2.29721C9.2331 2.92189 9.2543 3.91623 8.67786 4.56618L5.37167 7.87663C5.13736 8.11094 4.75746 8.11094 4.52314 7.87663C4.30556 7.65905 4.29002 7.31594 4.47652 7.08043L7.76017 3.79108C7.93909 3.61215 7.93962 3.32223 7.76135 3.14266C7.60026 2.98039 7.34654 2.96599 7.16902 3.10008L3.8466 6.41635C3.25793 7.00502 3.25706 7.95917 3.84466 8.54891C4.4066 9.11291 5.30532 9.13707 5.8961 8.62021L8.77122 5.74987C9.00553 5.51556 9.38543 5.51556 9.61975 5.74987C9.83732 5.96745 9.85287 6.31056 9.66637 6.54607L6.81528 9.40287C5.7583 10.456 4.04771 10.4529 2.99457 9.3959C1.96995 8.36752 1.94215 6.72185 2.91008 5.65997L6.27718 2.28871C6.92454 1.64606 7.9703 1.64987 8.61298 2.29721Z" fill="#1A1C1F"/>
</g>
<defs>
<clipPath id="clip0_232_239">
<rect width="12" height="12" fill="white"/>
</clipPath>
</defs>
</svg>
