<svg width="24" height="24" viewBox="0 0 24 24" fill="none" xmlns="http://www.w3.org/2000/svg">
<g clip-path="url(#clip0_185_1010)">
<path fill-rule="evenodd" clip-rule="evenodd" d="M6 22H18C19.6562 22 21 20.6562 21 19V15C21 14.4375 20.5625 14 20 14C19.4375 14 19 14.4375 19 15V19C19 19.5625 18.5625 20 18 20H6C5.4375 20 5 19.5625 5 19V15C5 14.4375 4.5625 14 4 14C3.4375 14 3 14.4375 3 15V19C3 20.6562 4.3438 22 6 22ZM12 2C12.25 2 12.5312 2.09349 12.7188 2.28057L16.6875 6.27168C16.9062 6.45876 17 6.70821 17 6.98888C17 7.5189 16.5625 7.95543 16 7.95543C15.75 7.95543 15.4688 7.86194 15.2812 7.67475L13 5.39863V15.0022C13 15.5635 12.5312 16 12 16C11.4375 16 11 15.5635 11 15.0022V5.39863L8.7188 7.67475C8.5 7.86194 8.25 7.95543 8 7.95543C7.4375 7.95543 7 7.5189 7 6.95765C7 6.70821 7.0938 6.45876 7.3125 6.27168L11.2812 2.28057C11.4688 2.09349 11.75 2 12 2Z" fill="#1A1C1F"/>
</g>
<defs>
<clipPath id="clip0_185_1010">
<rect width="24" height="24" fill="white"/>
</clipPath>
</defs>
</svg>
