<svg width="12" height="12" viewBox="0 0 12 12" fill="none" xmlns="http://www.w3.org/2000/svg">
<g clip-path="url(#clip0_232_241)">
<path fill-rule="evenodd" clip-rule="evenodd" d="M3.59999 10.8H8.39999C9.39371 10.8 10.2 9.99367 10.2 8.99995V7.79995C10.2 7.46245 9.91871 7.19995 9.59999 7.19995C9.26249 7.19995 8.99999 7.46245 8.99999 7.79995V8.99995C8.99999 9.31867 8.73749 9.59995 8.39999 9.59995H3.59999C3.26249 9.59995 2.99999 9.31867 2.99999 8.99995V7.79995C2.99999 7.46245 2.73749 7.19995 2.39999 7.19995C2.08127 7.19995 1.79999 7.46245 1.79999 7.79995V8.99995C1.79999 9.99367 2.60627 10.8 3.59999 10.8ZM5.58749 1.36867C5.71871 1.25623 5.86871 1.19995 6.01871 1.19995C6.16871 1.19995 6.29999 1.25623 6.43127 1.36867L8.26871 3.22495C8.36249 3.33745 8.39999 3.48745 8.39999 3.59995C8.39999 3.91867 8.13749 4.19995 7.79999 4.19995C7.61249 4.19995 7.49999 4.14367 7.36871 4.01245L6.59999 3.24367V7.19995C6.59999 7.51867 6.33749 7.79995 5.99999 7.79995C5.66249 7.79995 5.39999 7.51867 5.39999 7.19995V3.24367L4.63127 4.01245C4.51871 4.14367 4.36871 4.19995 4.21871 4.19995C3.91871 4.19995 3.59999 3.93745 3.59999 3.58123C3.59999 3.43123 3.65627 3.28123 3.76871 3.16867L5.58749 1.36867Z" fill="#1A1C1F"/>
</g>
<defs>
<clipPath id="clip0_232_241">
<rect width="12" height="12" fill="white"/>
</clipPath>
</defs>
</svg>
