<svg width="20" height="20" viewBox="0 0 20 20" fill="none" xmlns="http://www.w3.org/2000/svg">
<g clip-path="url(#clip0_185_1012)">
<path fill-rule="evenodd" clip-rule="evenodd" d="M6 18H14C15.6562 18 17 16.6562 17 15V13C17 12.4375 16.5312 12 16 12C15.4375 12 15 12.4375 15 13V15C15 15.5312 14.5625 16 14 16H6C5.4375 16 5 15.5312 5 15V13C5 12.4375 4.5625 12 4 12C3.4688 12 3 12.4375 3 13V15C3 16.6562 4.3438 18 6 18ZM9.3125 2.2812C9.5312 2.0938 9.7812 2 10.0312 2C10.2812 2 10.5 2.0938 10.7188 2.2812L13.7812 5.375C13.9375 5.5625 14 5.8125 14 6C14 6.5312 13.5625 7 13 7C12.6875 7 12.5 6.9062 12.2812 6.6875L11 5.4062V12C11 12.5312 10.5625 13 10 13C9.4375 13 9 12.5312 9 12V5.4062L7.7188 6.6875C7.5312 6.9062 7.2812 7 7.0312 7C6.5312 7 6 6.5625 6 5.9688C6 5.7188 6.0938 5.4688 6.2812 5.2812L9.3125 2.2812Z" fill="#1A1C1F"/>
</g>
<defs>
<clipPath id="clip0_185_1012">
<rect width="20" height="20" fill="white"/>
</clipPath>
</defs>
</svg>
