<svg id="icon" height="24" viewBox="0 0 24 24" width="24" xmlns="http://www.w3.org/2000/svg"><path d="M11.140 2.042 C 8.919 2.271,6.831 3.367,5.434 5.036 C 4.170 6.546,3.419 8.509,3.388 10.379 C 3.380 10.850,3.383 10.865,3.504 11.080 C 3.749 11.514,4.177 11.710,4.606 11.586 C 4.918 11.495,5.131 11.326,5.256 11.072 C 5.347 10.886,5.366 10.778,5.400 10.247 C 5.480 8.981,5.829 7.939,6.516 6.911 C 6.845 6.419,7.442 5.776,7.898 5.422 C 9.660 4.053,11.897 3.654,14.040 4.326 C 14.547 4.485,15.377 4.902,15.816 5.216 C 17.252 6.248,18.206 7.746,18.520 9.460 C 18.544 9.592,18.580 9.961,18.601 10.280 C 18.634 10.793,18.651 10.885,18.750 11.078 C 18.888 11.350,19.126 11.538,19.412 11.602 C 19.823 11.694,20.285 11.462,20.489 11.063 C 20.599 10.848,20.621 10.493,20.562 9.878 C 20.367 7.839,19.563 6.071,18.182 4.646 C 17.682 4.130,17.290 3.801,16.730 3.427 C 15.725 2.755,14.511 2.289,13.280 2.101 C 12.769 2.023,11.631 1.992,11.140 2.042 M10.880 12.984 C 9.937 13.094,9.601 13.144,9.020 13.261 C 8.246 13.417,7.305 13.679,6.660 13.919 C 6.088 14.131,4.998 14.673,4.729 14.879 L 4.518 15.040 3.658 15.040 C 2.976 15.040,2.767 15.053,2.651 15.101 C 1.966 15.388,1.787 16.229,2.302 16.744 C 2.554 16.996,2.745 17.040,3.582 17.040 L 4.270 17.040 4.491 17.490 C 5.676 19.908,7.963 21.567,10.688 21.986 C 11.301 22.080,12.724 22.080,13.320 21.984 C 16.066 21.547,18.325 19.906,19.509 17.490 L 19.730 17.040 20.418 17.040 C 21.255 17.040,21.446 16.996,21.698 16.744 C 22.213 16.229,22.034 15.388,21.349 15.101 C 21.233 15.053,21.024 15.040,20.342 15.040 L 19.482 15.040 19.271 14.880 C 19.012 14.684,18.114 14.222,17.600 14.020 C 16.483 13.582,15.151 13.244,13.800 13.056 C 13.362 12.996,11.235 12.943,10.880 12.984 M13.614 15.058 C 14.963 15.246,16.214 15.602,17.379 16.127 C 17.621 16.236,17.824 16.331,17.832 16.338 C 17.860 16.367,17.516 17.001,17.287 17.342 C 16.363 18.722,14.980 19.634,13.302 19.969 C 12.660 20.097,11.340 20.097,10.700 19.969 C 9.359 19.701,8.320 19.135,7.400 18.174 C 6.981 17.736,6.703 17.355,6.429 16.840 C 6.151 16.318,6.145 16.356,6.529 16.180 C 7.820 15.590,9.238 15.189,10.560 15.042 C 10.769 15.019,10.994 14.993,11.060 14.984 C 11.361 14.943,13.167 14.995,13.614 15.058 M10.200 16.317 C 9.761 16.451,9.483 16.828,9.481 17.291 C 9.478 18.021,10.067 18.382,11.424 18.483 C 12.388 18.555,13.431 18.428,13.922 18.179 C 14.181 18.048,14.413 17.807,14.473 17.608 C 14.619 17.121,14.419 16.620,13.986 16.389 C 13.756 16.266,13.217 16.270,12.640 16.400 C 12.094 16.523,11.617 16.518,10.942 16.381 C 10.412 16.274,10.358 16.269,10.200 16.317 " fill="var(--db-icon-color, currentColor)" stroke="none" fill-rule="evenodd"></path></svg>