<svg id="icon" height="20" viewBox="0 0 20 20" width="20" xmlns="http://www.w3.org/2000/svg"><path d="M6.002 2.038 C 5.739 2.081,5.381 2.267,5.143 2.482 C 4.902 2.700,4.637 3.080,4.533 3.357 C 4.479 3.502,3.700 6.890,3.700 6.983 C 3.700 6.992,3.318 7.000,2.850 7.000 L 2.000 7.000 2.000 8.000 L 2.000 9.000 2.548 9.000 L 3.096 9.000 3.115 9.142 C 3.126 9.220,3.194 9.808,3.266 10.450 C 3.338 11.092,3.421 11.707,3.450 11.817 C 3.518 12.073,3.697 12.435,3.867 12.659 L 4.000 12.835 4.000 13.951 L 4.000 15.067 5.212 15.067 L 6.423 15.067 6.444 14.675 C 6.484 13.918,6.632 13.355,6.956 12.730 C 7.502 11.673,8.474 10.823,9.577 10.437 C 10.046 10.272,10.459 10.200,11.050 10.177 L 11.583 10.157 13.249 8.492 C 15.015 6.727,15.100 6.654,15.557 6.502 C 15.675 6.463,15.851 6.433,15.966 6.433 C 16.104 6.433,16.167 6.420,16.166 6.392 C 16.166 6.297,15.887 4.974,15.750 4.417 C 15.438 3.145,15.354 2.944,14.984 2.579 C 14.817 2.415,14.668 2.305,14.497 2.221 C 14.034 1.993,14.199 2.001,9.983 2.004 C 7.893 2.006,6.102 2.021,6.002 2.038 M13.967 3.729 C 13.967 3.758,14.550 6.777,14.584 6.925 L 14.601 7.000 10.000 7.000 L 5.399 7.000 5.416 6.925 C 5.450 6.778,6.033 3.759,6.033 3.730 C 6.033 3.712,7.679 3.700,10.000 3.700 C 12.243 3.700,13.967 3.713,13.967 3.729 M14.034 9.948 L 12.083 11.896 11.900 11.843 C 11.767 11.804,11.571 11.789,11.183 11.789 C 10.736 11.788,10.608 11.799,10.389 11.860 C 9.445 12.121,8.731 12.724,8.321 13.605 C 8.082 14.118,8.050 14.271,8.052 14.883 C 8.054 15.367,8.063 15.445,8.146 15.717 C 8.499 16.872,9.320 17.658,10.467 17.941 C 10.842 18.033,11.441 18.039,11.813 17.954 C 13.102 17.658,14.041 16.663,14.253 15.367 C 14.336 14.860,14.290 14.357,14.115 13.856 L 14.031 13.617 14.507 13.163 L 14.983 12.710 14.994 12.238 L 15.005 11.767 15.594 11.767 C 16.516 11.767,16.533 11.749,16.533 10.811 L 16.533 10.205 17.142 10.194 C 17.656 10.185,17.763 10.174,17.837 10.125 C 17.989 10.021,18.000 9.950,18.000 9.097 C 18.000 8.447,17.991 8.278,17.949 8.199 C 17.852 8.011,17.789 8.000,16.844 8.000 L 15.985 8.000 14.034 9.948 M5.667 9.531 C 6.604 9.752,6.703 9.796,6.856 10.058 C 6.932 10.187,6.949 10.254,6.947 10.417 C 6.941 10.845,6.625 11.166,6.209 11.166 C 6.094 11.167,4.581 10.823,4.424 10.761 C 4.216 10.679,4.000 10.333,4.000 10.083 C 4.000 9.807,4.248 9.457,4.500 9.377 C 4.699 9.314,4.802 9.328,5.667 9.531 M10.983 14.151 C 11.421 14.222,11.829 14.681,11.886 15.168 C 11.930 15.542,11.726 16.018,11.429 16.232 C 11.059 16.500,10.599 16.541,10.192 16.340 C 9.938 16.215,9.767 16.038,9.638 15.767 C 9.566 15.614,9.551 15.536,9.552 15.300 C 9.552 15.060,9.566 14.985,9.647 14.809 C 9.806 14.460,10.141 14.198,10.507 14.137 C 10.682 14.107,10.726 14.109,10.983 14.151 " fill="var(--db-icon-color, currentColor)" stroke="none" fill-rule="evenodd"></path></svg>