<svg id="icon" height="20" viewBox="0 0 20 20" width="20" xmlns="http://www.w3.org/2000/svg"><path d="M8.267 2.190 C 8.006 2.234,7.134 2.482,7.043 2.538 C 6.696 2.752,6.561 3.202,6.730 3.583 C 6.818 3.783,6.904 3.879,7.090 3.989 C 7.318 4.123,7.511 4.122,8.076 3.986 C 8.442 3.897,8.641 3.867,8.851 3.867 L 9.133 3.867 9.133 4.517 L 9.133 5.167 8.508 5.167 C 7.612 5.167,7.174 5.244,6.699 5.483 C 6.147 5.762,5.731 6.187,5.466 6.740 C 5.288 7.113,5.205 7.460,5.166 7.999 C 5.125 8.573,5.125 14.676,5.166 15.242 C 5.206 15.777,5.299 16.176,5.467 16.517 C 5.749 17.092,6.146 17.490,6.717 17.767 C 7.384 18.092,7.558 18.108,10.234 18.091 C 12.267 18.078,12.362 18.075,12.650 18.005 C 13.270 17.855,13.882 17.470,14.233 17.007 C 14.602 16.521,14.778 16.004,14.834 15.242 C 14.876 14.661,14.875 8.606,14.832 8.010 C 14.793 7.464,14.714 7.119,14.549 6.770 C 14.262 6.165,13.816 5.722,13.222 5.451 C 12.768 5.244,12.297 5.168,11.458 5.167 L 10.867 5.167 10.867 4.517 L 10.867 3.867 11.149 3.867 C 11.359 3.867,11.558 3.897,11.924 3.986 C 12.489 4.122,12.682 4.123,12.910 3.989 C 13.096 3.879,13.182 3.783,13.270 3.583 C 13.446 3.186,13.298 2.735,12.921 2.519 C 12.842 2.474,12.534 2.382,12.196 2.303 L 11.608 2.167 9.979 2.171 C 9.083 2.174,8.313 2.182,8.267 2.190 M12.373 6.927 C 12.680 7.031,12.969 7.320,13.073 7.627 C 13.105 7.720,13.117 8.394,13.125 10.422 L 13.135 13.093 12.976 13.114 C 12.243 13.208,10.437 13.278,9.433 13.251 C 8.676 13.231,7.349 13.154,7.025 13.112 L 6.867 13.091 6.867 10.514 C 6.867 8.734,6.878 7.882,6.904 7.760 C 6.999 7.314,7.280 7.020,7.713 6.913 C 7.954 6.854,12.193 6.866,12.373 6.927 M8.679 7.980 C 8.139 8.232,8.107 8.986,8.624 9.290 L 8.783 9.383 9.924 9.393 C 10.681 9.400,11.110 9.391,11.201 9.366 C 11.276 9.346,11.397 9.275,11.471 9.209 C 11.711 8.992,11.800 8.722,11.720 8.455 C 11.653 8.232,11.519 8.072,11.321 7.980 C 11.151 7.901,11.142 7.901,10.000 7.901 C 8.858 7.901,8.849 7.901,8.679 7.980 M8.233 15.250 L 8.233 16.100 7.500 16.100 L 6.767 16.100 6.767 15.250 L 6.767 14.400 7.500 14.400 L 8.233 14.400 8.233 15.250 M13.233 15.250 L 13.233 16.100 12.500 16.100 L 11.767 16.100 11.767 15.250 L 11.767 14.400 12.500 14.400 L 13.233 14.400 13.233 15.250 " fill="var(--db-icon-color, currentColor)" stroke="none" fill-rule="evenodd"></path></svg>