<svg id="icon" height="20" viewBox="0 0 20 20" width="20" xmlns="http://www.w3.org/2000/svg"><path d="M7.800 2.215 C 6.066 2.513,4.691 3.740,4.281 5.355 C 4.238 5.525,4.187 5.817,4.168 6.003 C 4.146 6.214,4.133 7.695,4.133 9.969 L 4.133 13.597 4.243 13.681 C 4.422 13.817,5.344 14.246,5.889 14.446 C 6.509 14.675,7.210 14.882,7.595 14.950 C 8.066 15.035,9.218 15.076,10.533 15.055 C 12.214 15.029,12.519 14.984,13.644 14.601 C 14.618 14.269,15.611 13.836,15.797 13.662 L 15.877 13.588 15.856 9.735 C 15.836 6.029,15.832 5.871,15.767 5.559 C 15.633 4.922,15.406 4.422,15.008 3.894 C 14.490 3.205,13.737 2.667,12.898 2.388 C 12.292 2.186,12.327 2.189,10.100 2.180 C 8.546 2.174,7.990 2.182,7.800 2.215 M11.892 3.583 C 12.577 3.745,13.169 4.330,13.347 5.021 C 13.425 5.322,13.415 5.575,13.251 7.626 C 13.087 9.671,13.072 9.761,12.839 10.119 C 12.596 10.493,12.267 10.740,11.850 10.863 C 11.426 10.988,10.064 11.035,8.926 10.964 C 8.070 10.911,7.743 10.786,7.350 10.361 C 7.148 10.142,7.037 9.948,6.953 9.667 C 6.894 9.468,6.600 6.005,6.600 5.505 C 6.600 5.352,6.624 5.134,6.653 5.021 C 6.829 4.338,7.421 3.748,8.093 3.585 C 8.381 3.515,11.597 3.514,11.892 3.583 M7.687 12.020 C 7.997 12.067,8.295 12.125,8.350 12.148 C 8.971 12.408,8.997 13.359,8.392 13.670 C 8.186 13.776,8.021 13.779,7.400 13.686 C 6.722 13.584,6.586 13.541,6.416 13.376 C 6.241 13.206,6.168 13.028,6.168 12.767 C 6.168 12.417,6.342 12.140,6.650 11.997 C 6.830 11.913,7.023 11.918,7.687 12.020 M13.326 11.985 C 13.490 12.053,13.693 12.251,13.770 12.417 C 13.853 12.595,13.853 12.937,13.770 13.119 C 13.689 13.298,13.493 13.485,13.321 13.548 C 13.114 13.623,12.040 13.776,11.875 13.754 C 11.319 13.678,11.002 13.071,11.246 12.548 C 11.334 12.358,11.525 12.182,11.700 12.130 C 11.893 12.072,12.768 11.942,12.993 11.937 C 13.115 11.935,13.254 11.955,13.326 11.985 M4.822 15.743 C 5.083 16.161,5.649 16.741,6.081 17.032 C 6.425 17.264,7.010 17.542,7.375 17.647 C 8.062 17.845,8.133 17.850,10.000 17.846 C 11.854 17.841,11.985 17.832,12.617 17.650 C 13.017 17.535,13.649 17.224,14.009 16.966 C 14.353 16.719,14.886 16.176,15.105 15.849 C 15.191 15.721,15.257 15.613,15.253 15.609 C 15.249 15.604,15.044 15.674,14.798 15.763 C 13.535 16.219,12.720 16.447,12.150 16.502 C 11.651 16.551,8.325 16.550,7.852 16.501 C 7.652 16.480,7.259 16.405,6.978 16.333 C 6.497 16.210,5.400 15.860,4.942 15.684 L 4.735 15.604 4.822 15.743 " fill="var(--db-icon-color, currentColor)" stroke="none" fill-rule="evenodd"></path></svg>