<svg id="icon" height="32" viewBox="0 0 32 32" width="32" xmlns="http://www.w3.org/2000/svg"><path d="M5.787 2.126 C 5.699 2.181,5.572 2.285,5.505 2.358 C 5.357 2.519,2.018 11.204,2.011 11.447 C 1.999 11.844,2.344 12.033,2.996 11.987 C 3.389 11.959,3.699 11.826,3.853 11.621 C 3.907 11.548,4.089 11.130,4.257 10.691 L 4.563 9.893 6.419 9.893 L 8.274 9.893 8.610 10.720 C 8.829 11.260,9.001 11.604,9.106 11.712 C 9.290 11.900,9.612 12.000,10.037 12.000 C 10.625 11.999,10.909 11.826,10.899 11.476 C 10.891 11.223,7.660 2.647,7.484 2.413 C 7.265 2.121,7.011 2.027,6.442 2.027 C 6.052 2.027,5.913 2.048,5.787 2.126 M13.560 2.131 C 13.464 2.190,13.338 2.317,13.280 2.413 C 13.176 2.583,13.174 2.690,13.174 6.979 C 13.173 11.835,13.157 11.600,13.513 11.854 C 13.676 11.971,13.719 11.974,15.413 11.990 C 17.745 12.012,18.322 11.940,19.180 11.520 C 20.120 11.060,20.587 10.252,20.587 9.087 C 20.587 8.014,20.125 7.276,19.192 6.858 C 19.035 6.787,18.801 6.713,18.671 6.692 L 18.435 6.654 18.804 6.470 C 19.293 6.226,19.702 5.823,19.847 5.441 C 20.083 4.821,20.029 3.884,19.721 3.267 C 19.565 2.954,19.106 2.531,18.742 2.364 C 18.098 2.069,18.046 2.064,15.813 2.042 C 13.798 2.023,13.728 2.026,13.560 2.131 M26.338 2.110 C 24.125 2.511,22.880 4.299,22.880 7.077 C 22.880 8.208,23.095 9.206,23.509 9.999 C 23.763 10.484,24.430 11.166,24.907 11.427 C 26.012 12.033,27.587 12.167,29.031 11.778 C 29.692 11.601,29.935 11.326,29.927 10.765 C 29.917 10.044,29.658 9.914,28.664 10.130 C 26.929 10.507,25.788 10.145,25.255 9.048 C 24.962 8.444,24.889 7.950,24.922 6.780 C 24.959 5.455,25.107 4.941,25.611 4.394 C 26.137 3.824,27.246 3.596,28.400 3.820 C 28.635 3.866,28.973 3.915,29.153 3.931 C 29.459 3.956,29.490 3.948,29.659 3.797 C 29.838 3.638,29.840 3.629,29.840 3.187 C 29.840 2.782,29.826 2.720,29.696 2.550 C 29.617 2.446,29.473 2.325,29.376 2.279 C 28.876 2.046,27.208 1.953,26.338 2.110 M17.595 3.787 C 17.987 4.008,18.053 4.143,18.053 4.711 C 18.053 5.100,18.032 5.235,17.950 5.371 C 17.688 5.804,17.284 5.920,16.042 5.920 L 15.147 5.920 15.147 4.768 L 15.147 3.616 16.253 3.635 C 17.318 3.653,17.369 3.659,17.595 3.787 M7.145 6.524 C 7.498 7.513,7.787 8.334,7.787 8.348 C 7.787 8.362,7.196 8.373,6.474 8.373 C 5.447 8.373,5.167 8.359,5.187 8.307 C 5.200 8.270,5.495 7.443,5.843 6.468 C 6.190 5.494,6.481 4.703,6.489 4.711 C 6.497 4.719,6.792 5.535,7.145 6.524 M17.354 7.575 C 18.121 7.686,18.485 8.041,18.543 8.735 C 18.611 9.539,18.320 10.035,17.660 10.246 C 17.366 10.339,17.125 10.363,16.227 10.386 L 15.147 10.414 15.147 8.967 L 15.147 7.520 16.067 7.521 C 16.573 7.522,17.152 7.546,17.354 7.575 M4.613 17.067 C 3.444 17.304,2.458 18.237,2.102 19.444 C 2.019 19.724,2.006 20.102,1.987 22.800 C 1.975 24.472,1.980 25.939,1.998 26.059 C 2.040 26.337,2.248 26.660,2.494 26.829 C 2.684 26.959,2.696 26.960,4.263 26.989 C 5.130 27.004,5.802 27.022,5.755 27.029 C 5.568 27.054,5.216 27.372,5.109 27.612 C 4.889 28.111,5.079 28.634,5.570 28.881 L 5.834 29.013 8.477 29.012 C 11.438 29.011,11.370 29.019,11.718 28.623 C 12.152 28.128,11.999 27.392,11.403 27.103 L 11.173 26.992 16.000 26.989 L 20.827 26.987 20.599 27.100 C 20.473 27.162,20.299 27.300,20.211 27.406 C 19.994 27.669,19.937 27.899,20.008 28.227 C 20.077 28.549,20.373 28.872,20.677 28.956 C 20.807 28.992,21.815 29.013,23.482 29.013 C 25.710 29.013,26.112 29.001,26.281 28.931 C 26.968 28.644,27.155 27.777,26.633 27.300 C 26.549 27.222,26.408 27.121,26.320 27.075 C 26.171 26.997,26.272 26.991,27.787 26.989 C 29.576 26.986,29.651 26.974,29.890 26.649 C 29.998 26.501,30.000 26.453,30.000 23.156 C 30.000 20.127,29.991 19.781,29.906 19.467 C 29.753 18.904,29.511 18.472,29.118 18.060 C 28.721 17.642,28.347 17.393,27.800 17.180 L 27.440 17.040 16.133 17.032 C 9.915 17.028,4.731 17.044,4.613 17.067 M27.255 19.099 C 27.477 19.200,27.753 19.464,27.882 19.699 C 27.961 19.845,27.975 20.072,27.990 21.427 L 28.006 22.987 16.003 22.987 L 4.000 22.987 4.000 21.556 C 4.000 20.451,4.018 20.066,4.079 19.861 C 4.196 19.467,4.552 19.143,4.987 19.036 C 5.075 19.015,10.079 19.001,16.107 19.005 C 26.049 19.013,27.084 19.021,27.255 19.099 " fill="var(--db-icon-color, currentColor)" stroke="none" fill-rule="evenodd"></path></svg>