<svg id="icon" height="32" viewBox="0 0 32 32" width="32" xmlns="http://www.w3.org/2000/svg"><path d="M8.836 2.111 C 7.255 2.399,6.145 3.487,5.733 5.153 C 5.661 5.443,5.476 6.532,5.322 7.573 L 5.042 9.467 5.026 16.838 C 5.009 25.009,4.995 24.627,5.357 25.364 C 5.460 25.571,5.640 25.851,5.758 25.985 L 5.973 26.230 5.975 27.048 C 5.976 27.498,6.000 28.044,6.028 28.261 C 6.160 29.282,6.749 29.831,7.867 29.978 C 8.523 30.064,10.329 30.014,10.696 29.900 C 11.262 29.723,11.622 29.378,11.850 28.793 C 11.939 28.566,11.968 28.349,11.988 27.747 L 12.013 26.987 16.001 26.987 L 19.988 26.987 20.012 27.747 C 20.042 28.702,20.143 29.012,20.558 29.420 C 21.034 29.887,21.579 30.022,22.996 30.025 C 24.002 30.027,24.527 29.955,24.933 29.760 C 25.294 29.587,25.404 29.499,25.620 29.215 C 25.907 28.836,25.984 28.460,26.014 27.284 L 26.041 26.221 26.283 25.924 C 26.416 25.761,26.593 25.481,26.677 25.302 C 26.995 24.621,26.985 24.903,26.986 17.055 L 26.987 9.869 26.665 7.641 C 26.486 6.399,26.284 5.203,26.210 4.937 C 25.884 3.779,25.213 2.954,24.187 2.453 C 23.320 2.029,23.898 2.059,16.160 2.046 C 10.367 2.037,9.186 2.047,8.836 2.111 M22.596 4.056 C 23.104 4.123,23.603 4.351,23.843 4.625 C 24.233 5.069,24.285 5.271,24.664 7.825 L 25.013 10.183 25.013 13.938 L 25.013 17.693 24.813 17.725 C 23.515 17.932,20.933 18.192,19.120 18.299 C 17.744 18.380,14.257 18.380,12.853 18.299 C 10.880 18.185,9.066 18.006,7.560 17.779 L 6.987 17.692 6.987 13.939 L 6.987 10.186 7.310 7.986 C 7.690 5.405,7.690 5.403,7.904 5.001 C 8.188 4.468,8.660 4.158,9.333 4.062 C 9.832 3.992,22.069 3.985,22.596 4.056 M2.792 7.038 C 2.518 7.103,2.271 7.287,2.131 7.531 L 2.000 7.760 2.000 10.000 C 2.000 12.090,2.007 12.254,2.101 12.443 C 2.303 12.849,2.833 13.092,3.246 12.968 C 3.531 12.883,3.779 12.668,3.900 12.402 C 3.990 12.205,3.998 12.006,3.999 10.012 C 4.000 7.674,3.994 7.611,3.717 7.316 C 3.492 7.074,3.115 6.961,2.792 7.038 M28.880 7.013 C 28.851 7.023,28.763 7.045,28.684 7.062 C 28.477 7.107,28.213 7.350,28.100 7.598 C 28.010 7.796,28.002 7.992,28.002 10.000 C 28.002 12.008,28.010 12.204,28.100 12.402 C 28.300 12.843,28.774 13.085,29.207 12.969 C 29.540 12.880,29.689 12.770,29.856 12.486 L 30.000 12.240 30.000 10.000 C 30.000 7.780,29.999 7.758,29.880 7.536 C 29.805 7.395,29.676 7.263,29.533 7.182 C 29.318 7.058,28.995 6.975,28.880 7.013 M10.104 8.100 C 9.343 8.446,9.305 9.487,10.040 9.879 L 10.267 10.000 16.000 10.000 C 21.546 10.000,21.740 9.997,21.940 9.898 C 22.353 9.692,22.593 9.144,22.454 8.723 C 22.366 8.456,22.151 8.216,21.896 8.100 C 21.691 8.007,21.397 8.002,16.000 8.002 C 10.603 8.002,10.309 8.007,10.104 8.100 M8.164 19.865 C 11.060 20.227,13.009 20.346,16.000 20.346 C 19.008 20.345,20.908 20.228,23.808 19.866 C 24.392 19.793,24.902 19.733,24.942 19.733 C 24.998 19.733,25.013 19.882,25.013 20.427 C 25.013 20.808,25.007 21.120,25.000 21.120 C 24.993 21.121,24.251 21.214,23.353 21.327 C 21.563 21.553,21.423 21.593,21.178 21.951 C 21.027 22.172,20.975 22.575,21.063 22.844 C 21.143 23.085,21.481 23.391,21.745 23.463 C 21.908 23.507,22.251 23.480,23.415 23.333 C 24.221 23.231,24.914 23.147,24.955 23.147 C 25.016 23.147,25.023 23.247,24.992 23.718 C 24.947 24.413,24.840 24.651,24.479 24.853 L 24.240 24.987 16.190 25.001 C 11.022 25.010,8.037 24.996,7.853 24.962 C 7.255 24.851,7.063 24.567,7.008 23.713 C 6.977 23.246,6.984 23.147,7.045 23.147 C 7.086 23.147,7.779 23.231,8.585 23.333 C 9.749 23.480,10.092 23.507,10.255 23.463 C 10.519 23.391,10.857 23.085,10.937 22.844 C 11.025 22.575,10.973 22.172,10.822 21.951 C 10.577 21.593,10.437 21.553,8.647 21.327 C 7.749 21.214,7.007 21.121,7.000 21.120 C 6.993 21.120,6.987 20.808,6.987 20.427 C 6.987 19.907,7.003 19.734,7.053 19.734 C 7.090 19.734,7.590 19.793,8.164 19.865 M9.973 27.493 L 9.973 28.000 8.987 28.000 L 8.000 28.000 8.000 27.493 L 8.000 26.987 8.987 26.987 L 9.973 26.987 9.973 27.493 M24.000 27.493 L 24.000 28.000 23.013 28.000 L 22.027 28.000 22.027 27.493 L 22.027 26.987 23.013 26.987 L 24.000 26.987 24.000 27.493 " fill="var(--db-icon-color, currentColor)" stroke="none" fill-rule="evenodd"></path></svg>