<svg id="icon" height="32" viewBox="0 0 32 32" width="32" xmlns="http://www.w3.org/2000/svg"><path d="M8.160 7.155 C 7.645 7.228,6.828 7.526,6.349 7.815 C 5.364 8.411,4.581 9.368,4.210 10.431 C 4.106 10.732,3.588 13.033,3.174 15.040 L 2.981 15.973 2.998 17.707 C 3.013 19.334,3.021 19.459,3.130 19.748 C 3.512 20.763,4.737 21.510,5.431 21.151 C 5.637 21.045,5.911 20.725,5.950 20.546 C 5.968 20.466,5.990 20.373,6.000 20.340 C 6.037 20.216,5.909 19.809,5.779 19.638 C 5.704 19.541,5.508 19.396,5.342 19.317 L 5.040 19.173 5.026 17.619 L 5.012 16.064 5.543 13.578 C 6.019 11.353,6.096 11.051,6.275 10.706 C 6.646 9.990,7.374 9.408,8.160 9.199 C 8.532 9.100,9.276 9.099,9.641 9.196 C 10.372 9.391,12.628 10.325,13.600 10.837 C 15.653 11.916,17.800 13.743,20.234 16.479 C 20.754 17.065,20.901 17.262,20.881 17.351 C 20.580 18.741,20.458 19.103,20.154 19.506 C 19.787 19.993,19.896 19.970,17.892 20.000 L 16.125 20.027 15.929 20.176 C 15.497 20.506,15.392 21.133,15.692 21.587 C 15.962 21.995,15.992 22.000,18.133 21.998 C 19.961 21.996,20.037 21.992,20.320 21.878 C 21.098 21.565,22.071 20.507,22.343 19.677 C 22.549 19.053,22.987 17.224,22.987 16.991 C 22.987 16.856,22.938 16.674,22.867 16.543 C 22.606 16.064,20.929 14.197,19.684 12.998 C 16.881 10.300,15.470 9.361,12.134 7.974 C 10.165 7.155,9.351 6.987,8.160 7.155 M8.711 11.127 C 8.416 11.232,8.036 11.573,7.899 11.855 C 7.784 12.093,7.200 14.753,7.200 15.039 C 7.200 15.601,7.875 16.095,8.435 15.944 C 8.987 15.796,9.073 15.648,9.340 14.391 C 9.461 13.824,9.578 13.340,9.600 13.316 C 9.641 13.271,11.381 14.008,12.147 14.394 C 13.108 14.878,13.920 15.497,14.880 16.476 C 15.403 17.009,15.531 17.111,15.747 17.171 C 16.367 17.342,17.018 16.819,17.012 16.154 C 17.010 15.871,16.796 15.571,16.099 14.872 C 14.662 13.432,13.558 12.750,10.677 11.524 C 9.673 11.096,9.506 11.040,9.237 11.044 C 9.070 11.047,8.833 11.084,8.711 11.127 M9.663 18.101 C 9.095 18.245,8.485 18.599,8.049 19.035 C 7.328 19.756,7.014 20.515,7.019 21.520 C 7.021 22.006,7.046 22.180,7.163 22.534 C 7.528 23.643,8.355 24.470,9.467 24.837 C 9.820 24.954,9.994 24.979,10.480 24.981 C 11.502 24.986,12.248 24.672,12.988 23.925 C 13.675 23.232,13.986 22.470,13.982 21.493 C 13.979 20.883,13.885 20.495,13.593 19.899 C 13.215 19.126,12.484 18.498,11.595 18.181 C 11.191 18.037,10.094 17.992,9.663 18.101 M28.407 18.352 C 27.765 18.419,27.479 18.521,26.269 19.106 L 25.152 19.646 24.607 19.685 C 23.994 19.729,23.739 19.823,23.549 20.074 C 23.103 20.664,23.392 21.482,24.108 21.654 C 24.456 21.737,25.242 21.696,25.648 21.572 C 25.806 21.524,26.406 21.257,26.981 20.979 C 28.063 20.456,28.446 20.320,28.840 20.320 C 29.276 20.320,29.642 20.091,29.819 19.707 C 30.082 19.137,29.752 18.497,29.119 18.351 C 28.988 18.321,28.868 18.299,28.853 18.302 C 28.839 18.305,28.638 18.327,28.407 18.352 M11.128 20.150 C 11.456 20.318,11.642 20.495,11.806 20.797 C 12.106 21.348,12.034 22.005,11.621 22.474 C 11.330 22.804,11.047 22.943,10.600 22.975 C 10.150 23.007,9.835 22.898,9.505 22.594 C 9.137 22.255,9.041 22.028,9.041 21.493 C 9.040 21.094,9.058 21.010,9.186 20.791 C 9.375 20.470,9.720 20.177,10.025 20.079 C 10.345 19.976,10.850 20.009,11.128 20.150 " fill="var(--db-icon-color, currentColor)" stroke="none" fill-rule="evenodd"></path></svg>