<svg id="icon" height="20" viewBox="0 0 20 20" width="20" xmlns="http://www.w3.org/2000/svg"><path d="M9.917 2.047 C 9.164 2.236,8.669 2.952,8.772 3.704 C 8.874 4.450,9.620 5.053,10.363 4.990 C 11.239 4.917,11.867 4.130,11.733 3.275 C 11.596 2.406,10.755 1.838,9.917 2.047 M9.700 5.889 C 9.617 5.917,8.923 6.226,8.157 6.575 C 6.648 7.263,6.532 7.333,6.408 7.624 C 6.332 7.804,6.000 9.733,6.000 9.997 C 6.000 10.355,6.238 10.732,6.571 10.902 C 6.790 11.014,7.099 11.026,7.348 10.932 C 7.590 10.840,7.831 10.612,7.914 10.394 C 7.946 10.310,8.020 9.908,8.078 9.501 L 8.183 8.761 8.563 8.596 C 8.771 8.505,8.948 8.437,8.956 8.445 C 8.964 8.453,8.922 9.049,8.863 9.771 L 8.755 11.083 8.064 12.467 C 7.684 13.227,7.099 14.383,6.764 15.033 L 6.154 16.217 6.153 16.500 C 6.151 16.732,6.164 16.809,6.226 16.924 C 6.472 17.387,6.933 17.592,7.416 17.452 C 7.572 17.406,7.647 17.358,7.797 17.206 C 7.972 17.028,8.045 16.890,8.964 15.008 C 9.504 13.904,9.947 13.000,9.949 13.000 C 9.952 13.000,10.218 13.266,10.542 13.591 L 11.130 14.181 11.619 15.516 C 11.888 16.249,12.137 16.906,12.171 16.974 C 12.258 17.147,12.449 17.329,12.630 17.412 C 12.851 17.513,13.260 17.511,13.468 17.409 C 13.664 17.312,13.878 17.098,13.974 16.904 C 14.034 16.783,14.050 16.696,14.048 16.500 C 14.046 16.264,14.016 16.167,13.506 14.740 C 13.209 13.910,12.937 13.173,12.901 13.102 C 12.857 13.016,12.499 12.672,11.818 12.062 L 10.800 11.151 10.801 11.000 C 10.802 10.765,10.959 8.630,10.976 8.613 C 10.985 8.604,11.350 8.832,11.788 9.120 C 12.225 9.408,12.651 9.674,12.733 9.711 C 12.949 9.807,13.295 9.803,13.526 9.702 C 13.766 9.596,14.004 9.332,14.082 9.083 C 14.195 8.725,14.083 8.323,13.793 8.047 C 13.714 7.971,13.297 7.687,12.867 7.415 C 12.436 7.143,11.776 6.726,11.400 6.489 C 10.514 5.929,10.315 5.833,10.051 5.836 C 9.940 5.837,9.783 5.861,9.700 5.889 " fill="var(--db-icon-color, currentColor)" stroke="none" fill-rule="evenodd"></path></svg>