<svg id="icon" height="20" viewBox="0 0 20 20" width="20" xmlns="http://www.w3.org/2000/svg"><path d="M7.905 2.536 C 7.328 2.713,7.023 3.374,7.275 3.900 C 7.439 4.242,7.468 4.262,8.763 4.935 L 9.810 5.478 8.066 5.976 L 6.322 6.475 5.953 6.099 C 5.510 5.648,5.356 5.561,5.000 5.561 C 4.603 5.561,4.270 5.770,4.093 6.129 C 3.981 6.355,3.985 6.755,4.101 6.975 C 4.147 7.063,4.452 7.417,4.784 7.768 C 5.258 8.271,5.421 8.422,5.564 8.492 C 5.943 8.677,5.519 8.779,11.653 7.034 C 14.695 6.168,17.246 5.433,17.322 5.400 C 17.503 5.321,17.700 5.121,17.799 4.915 C 17.908 4.689,17.913 4.317,17.811 4.095 C 17.721 3.898,17.524 3.701,17.314 3.597 C 17.183 3.533,17.100 3.517,16.900 3.519 C 16.679 3.521,16.418 3.588,14.659 4.094 C 13.564 4.409,12.647 4.667,12.622 4.667 C 12.597 4.667,11.653 4.186,10.525 3.598 C 8.502 2.544,8.472 2.530,8.246 2.516 C 8.120 2.508,7.966 2.517,7.905 2.536 M2.346 10.064 C 2.271 10.098,2.166 10.183,2.113 10.252 L 2.017 10.378 2.007 11.189 L 1.997 12.000 2.273 12.000 C 2.919 12.000,3.941 12.139,4.725 12.333 C 5.885 12.620,7.005 13.093,7.975 13.704 C 8.326 13.926,8.459 14.051,8.499 14.197 C 8.546 14.364,8.467 14.478,8.148 14.707 C 7.766 14.982,7.707 14.989,7.088 14.832 C 6.422 14.663,5.957 14.578,5.354 14.517 C 4.869 14.467,3.219 14.402,2.408 14.401 L 2.000 14.400 2.000 15.976 C 2.000 17.756,1.991 17.689,2.265 17.883 L 2.406 17.983 5.211 17.994 C 7.088 18.001,8.193 17.992,8.550 17.966 C 10.556 17.823,11.606 17.305,11.921 16.303 C 11.948 16.219,11.978 16.015,11.989 15.850 C 12.038 15.108,11.630 14.286,10.767 13.389 C 9.027 11.581,6.223 10.256,3.667 10.034 C 3.032 9.979,2.507 9.991,2.346 10.064 " fill="var(--db-icon-color, currentColor)" stroke="none" fill-rule="evenodd"></path></svg>