<svg id="icon" height="24" viewBox="0 0 24 24" width="24" xmlns="http://www.w3.org/2000/svg"><path d="M7.769 2.059 C 7.495 2.137,7.415 2.180,6.808 2.575 C 6.254 2.936,6.097 3.087,6.057 3.304 C 5.966 3.789,6.291 4.209,6.757 4.209 C 6.978 4.209,7.035 4.182,7.661 3.782 L 8.133 3.480 8.667 3.480 L 9.200 3.480 9.200 4.815 L 9.200 6.150 8.510 6.170 C 7.730 6.194,7.386 6.264,6.884 6.502 C 6.478 6.694,6.153 6.934,5.812 7.293 C 5.289 7.843,4.971 8.543,4.881 9.340 C 4.849 9.623,4.840 11.091,4.850 14.340 C 4.866 19.400,4.851 19.096,5.116 19.784 C 5.334 20.350,5.820 20.966,6.340 21.339 C 6.663 21.570,7.005 21.737,7.428 21.870 L 7.780 21.980 11.900 21.980 C 15.803 21.980,16.035 21.976,16.297 21.905 C 17.600 21.552,18.513 20.656,18.892 19.361 L 18.979 19.060 18.991 14.211 C 19.001 9.549,18.999 9.346,18.925 8.982 C 18.713 7.948,18.083 7.094,17.155 6.584 C 16.586 6.271,16.083 6.160,15.236 6.160 L 14.640 6.160 14.640 4.840 L 14.640 3.520 15.186 3.520 L 15.733 3.520 16.288 3.845 C 16.593 4.023,16.905 4.183,16.981 4.200 C 17.229 4.256,17.570 4.130,17.713 3.930 C 17.913 3.649,17.901 3.236,17.685 3.006 C 17.547 2.859,16.451 2.212,16.176 2.115 C 15.972 2.044,15.749 2.039,11.971 2.019 C 8.497 2.001,7.953 2.006,7.769 2.059 M13.160 4.820 L 13.160 6.160 11.920 6.160 L 10.680 6.160 10.680 4.820 L 10.680 3.480 11.920 3.480 L 13.160 3.480 13.160 4.820 M15.978 7.701 C 16.642 7.874,17.151 8.346,17.413 9.032 L 17.500 9.260 17.512 13.920 C 17.520 17.219,17.511 18.656,17.479 18.840 C 17.416 19.205,17.234 19.561,16.961 19.851 C 16.665 20.167,16.382 20.337,15.983 20.439 C 15.677 20.517,15.549 20.520,11.924 20.519 C 7.830 20.519,7.923 20.524,7.448 20.284 C 6.991 20.054,6.653 19.663,6.444 19.127 L 6.340 18.860 6.328 14.320 C 6.321 11.454,6.331 9.659,6.357 9.451 C 6.461 8.599,7.039 7.920,7.844 7.703 C 8.177 7.614,15.636 7.612,15.978 7.701 M9.421 9.163 C 8.897 9.242,8.422 9.602,8.170 10.111 L 8.020 10.416 8.008 11.948 C 7.995 13.617,8.011 13.787,8.222 14.148 C 8.444 14.527,8.897 14.859,9.325 14.958 C 9.432 14.982,10.436 14.998,11.922 14.999 C 14.596 15.000,14.616 14.998,15.034 14.748 C 15.493 14.474,15.771 14.017,15.845 13.418 C 15.872 13.199,15.881 12.581,15.870 11.802 C 15.850 10.381,15.837 10.304,15.556 9.884 C 15.372 9.608,15.067 9.369,14.725 9.232 C 14.501 9.142,14.490 9.141,12.080 9.134 C 10.749 9.130,9.552 9.143,9.421 9.163 M14.271 10.662 C 14.360 10.724,14.360 10.725,14.360 12.059 C 14.360 13.220,14.352 13.403,14.297 13.457 C 14.241 13.513,13.971 13.520,11.930 13.520 C 9.843 13.520,9.619 13.514,9.553 13.454 C 9.485 13.392,9.480 13.296,9.480 12.081 C 9.480 10.738,9.486 10.683,9.640 10.628 C 9.673 10.616,10.708 10.605,11.941 10.603 C 13.908 10.600,14.193 10.608,14.271 10.662 M8.593 17.516 C 7.978 17.644,7.800 18.441,8.302 18.824 C 8.453 18.940,8.456 18.940,9.116 18.953 C 9.903 18.968,9.999 18.954,10.182 18.793 C 10.416 18.587,10.497 18.355,10.434 18.074 C 10.384 17.850,10.267 17.696,10.067 17.591 C 9.921 17.515,9.828 17.502,9.320 17.494 C 9.001 17.489,8.674 17.499,8.593 17.516 M13.858 17.595 C 13.323 17.838,13.263 18.499,13.743 18.865 C 13.893 18.979,13.897 18.980,14.557 18.993 C 15.317 19.008,15.444 18.982,15.653 18.773 C 16.026 18.401,15.910 17.817,15.420 17.595 C 15.184 17.487,14.095 17.488,13.858 17.595 " fill="var(--db-icon-color, currentColor)" stroke="none" fill-rule="evenodd"></path></svg>