<svg id="icon" height="20" viewBox="0 0 20 20" width="20" xmlns="http://www.w3.org/2000/svg"><path d="M6.038 2.051 C 5.303 2.212,4.695 2.793,4.470 3.550 C 4.416 3.733,3.700 6.926,3.700 6.986 C 3.700 6.994,3.434 7.000,3.108 7.001 C 2.446 7.002,2.326 7.031,2.158 7.230 C 2.020 7.394,1.993 7.536,2.006 8.050 C 2.018 8.592,2.062 8.717,2.297 8.883 C 2.428 8.975,2.465 8.984,2.768 8.995 L 3.097 9.006 3.116 9.145 C 3.126 9.221,3.194 9.808,3.267 10.450 C 3.339 11.092,3.421 11.699,3.449 11.800 C 3.490 11.951,3.499 12.249,3.500 13.492 L 3.500 15.000 4.750 15.000 L 6.000 15.000 6.000 14.346 L 6.000 13.691 6.158 13.712 C 6.761 13.790,8.787 13.999,8.958 14.000 C 8.991 14.000,9.000 14.291,9.000 15.343 C 9.000 16.771,9.011 16.895,9.170 17.206 C 9.255 17.372,9.502 17.642,9.683 17.766 C 9.757 17.816,9.907 17.893,10.017 17.937 L 10.217 18.017 13.467 18.004 C 17.025 17.990,16.918 17.996,17.262 17.790 C 17.599 17.589,17.848 17.252,17.953 16.858 C 18.020 16.604,18.022 7.402,17.955 7.150 C 17.839 6.716,17.559 6.382,17.138 6.174 C 16.893 6.053,16.877 6.050,16.447 6.038 L 16.008 6.027 15.986 5.895 C 15.936 5.577,15.683 5.246,15.376 5.095 L 15.217 5.017 13.467 5.017 C 11.753 5.017,11.713 5.018,11.564 5.087 C 11.266 5.225,11.058 5.512,11.012 5.847 L 10.991 6.000 10.697 6.000 C 10.325 6.000,10.103 6.047,9.850 6.177 C 9.609 6.302,9.241 6.662,9.153 6.858 L 9.090 7.000 7.417 7.000 L 5.744 7.000 6.005 5.808 C 6.149 5.153,6.291 4.506,6.321 4.371 C 6.412 3.960,6.144 4.000,8.832 4.000 C 11.135 4.000,11.167 3.999,11.355 3.929 C 11.479 3.882,11.601 3.802,11.702 3.702 C 12.184 3.219,12.052 2.411,11.441 2.110 L 11.250 2.017 8.750 2.011 C 6.718 2.006,6.210 2.013,6.038 2.051 M16.000 12.033 L 16.000 16.033 13.500 16.033 L 11.000 16.033 11.000 12.033 L 11.000 8.033 13.500 8.033 L 16.000 8.033 16.000 12.033 M6.676 9.197 C 7.598 9.415,7.702 9.462,7.856 9.724 C 7.932 9.853,7.949 9.921,7.947 10.083 C 7.941 10.512,7.625 10.832,7.209 10.833 C 7.085 10.833,5.570 10.483,5.415 10.418 C 5.359 10.395,5.260 10.314,5.195 10.238 C 4.926 9.924,4.940 9.523,5.231 9.233 C 5.390 9.075,5.535 9.008,5.733 9.004 C 5.798 9.003,6.222 9.090,6.676 9.197 M13.567 9.098 C 13.502 9.133,13.410 9.203,13.361 9.255 C 13.267 9.355,12.107 11.591,12.035 11.812 C 11.947 12.080,12.077 12.439,12.323 12.609 C 12.456 12.701,12.674 12.764,12.861 12.766 L 12.972 12.767 12.906 12.875 C 12.647 13.299,12.268 14.028,12.249 14.137 C 12.198 14.442,12.395 14.807,12.681 14.937 C 12.990 15.077,13.409 14.963,13.595 14.688 C 13.794 14.395,14.946 12.314,14.989 12.170 C 15.099 11.805,14.850 11.373,14.468 11.266 C 14.403 11.248,14.271 11.234,14.174 11.234 L 13.999 11.233 14.315 10.605 C 14.489 10.260,14.641 9.917,14.652 9.842 C 14.695 9.574,14.530 9.263,14.269 9.121 C 14.067 9.011,13.750 9.001,13.567 9.098 " fill="var(--db-icon-color, currentColor)" stroke="none" fill-rule="evenodd"></path></svg>