<svg id="icon" height="20" viewBox="0 0 20 20" width="20" xmlns="http://www.w3.org/2000/svg"><path d="M6.159 4.034 C 5.425 4.160,4.788 4.680,4.531 5.362 C 4.478 5.504,3.700 8.892,3.700 8.983 C 3.700 8.992,3.318 9.000,2.850 9.000 L 2.000 9.000 2.000 10.000 L 2.000 11.000 2.550 11.000 C 2.853 11.000,3.100 11.006,3.100 11.014 C 3.100 11.095,3.317 12.966,3.369 13.332 C 3.457 13.952,3.600 14.328,3.889 14.689 L 4.000 14.828 4.000 15.914 L 4.000 17.000 5.250 17.000 L 6.500 17.000 6.500 16.366 L 6.500 15.732 6.575 15.749 C 6.709 15.779,7.435 15.864,8.067 15.923 C 8.934 16.004,11.066 16.004,11.933 15.923 C 12.565 15.864,13.291 15.779,13.425 15.749 L 13.500 15.732 13.500 16.366 L 13.500 17.000 14.750 17.000 L 16.000 17.000 16.000 15.914 L 16.000 14.827 16.113 14.695 C 16.264 14.518,16.411 14.236,16.511 13.930 C 16.598 13.663,16.688 13.049,16.799 11.950 C 16.836 11.583,16.875 11.220,16.885 11.142 L 16.904 11.000 17.452 11.000 L 18.000 11.000 18.000 10.000 L 18.000 9.000 17.150 9.000 C 16.683 9.000,16.300 8.993,16.300 8.985 C 16.300 8.976,16.164 8.358,15.998 7.610 C 15.434 5.073,15.427 5.051,15.008 4.635 C 14.734 4.364,14.505 4.217,14.161 4.093 L 13.950 4.017 10.133 4.012 C 8.034 4.009,6.246 4.019,6.159 4.034 M13.967 5.729 C 13.967 5.758,14.550 8.777,14.584 8.925 L 14.601 9.000 10.000 9.000 L 5.399 9.000 5.416 8.925 C 5.450 8.778,6.033 5.759,6.033 5.730 C 6.033 5.712,7.679 5.700,10.000 5.700 C 12.243 5.700,13.967 5.713,13.967 5.729 M5.667 11.531 C 6.604 11.752,6.703 11.796,6.856 12.058 C 6.932 12.187,6.949 12.254,6.947 12.417 C 6.941 12.845,6.625 13.166,6.209 13.166 C 6.094 13.167,4.581 12.823,4.424 12.761 C 4.216 12.679,4.000 12.333,4.000 12.083 C 4.000 11.807,4.248 11.457,4.500 11.377 C 4.699 11.314,4.802 11.328,5.667 11.531 M15.464 11.366 C 15.918 11.496,16.130 12.010,15.907 12.437 C 15.760 12.718,15.651 12.767,14.700 12.982 C 14.251 13.084,13.840 13.167,13.787 13.167 C 13.506 13.167,13.185 12.942,13.101 12.685 C 13.034 12.482,13.070 12.174,13.181 12.008 C 13.333 11.781,13.443 11.735,14.333 11.529 C 15.207 11.327,15.288 11.316,15.464 11.366 M11.479 12.041 C 11.562 12.065,11.678 12.142,11.769 12.233 C 11.922 12.385,11.922 12.386,12.082 13.026 C 12.271 13.784,12.274 13.931,12.107 14.173 C 11.895 14.482,11.509 14.581,11.172 14.413 C 10.906 14.280,10.839 14.172,10.701 13.642 L 10.664 13.500 10.000 13.500 L 9.336 13.500 9.299 13.642 C 9.197 14.029,9.158 14.129,9.060 14.247 C 8.663 14.729,7.825 14.472,7.774 13.852 C 7.762 13.707,7.793 13.529,7.918 13.026 C 8.078 12.386,8.078 12.385,8.231 12.233 C 8.315 12.149,8.436 12.064,8.500 12.044 C 8.672 11.989,11.297 11.987,11.479 12.041 " fill="var(--db-icon-color, currentColor)" stroke="none" fill-rule="evenodd"></path></svg>