<svg id="icon" height="24" viewBox="0 0 24 24" width="24" xmlns="http://www.w3.org/2000/svg"><path d="M15.585 2.063 C 14.601 2.302,13.915 3.314,14.076 4.290 C 14.235 5.250,15.098 6.002,16.038 5.999 C 17.147 5.996,18.040 5.105,18.040 4.002 C 18.040 2.706,16.841 1.760,15.585 2.063 M14.820 7.574 C 14.644 7.647,13.915 7.948,13.200 8.243 C 11.939 8.764,11.893 8.787,11.678 9.000 C 11.535 9.143,11.441 9.276,11.410 9.380 C 11.385 9.468,11.281 10.107,11.181 10.800 C 11.022 11.890,11.003 12.085,11.042 12.246 C 11.170 12.784,11.778 13.118,12.329 12.952 C 12.547 12.887,12.859 12.598,12.937 12.389 C 12.971 12.296,13.064 11.807,13.142 11.301 C 13.220 10.796,13.288 10.380,13.292 10.377 C 13.342 10.339,14.416 9.883,14.428 9.894 C 14.436 9.903,14.385 10.861,14.314 12.025 C 14.188 14.093,14.187 14.143,14.258 14.292 C 14.303 14.386,14.895 15.005,15.796 15.900 L 17.260 17.355 17.757 19.341 C 18.158 20.942,18.278 21.367,18.377 21.532 C 18.754 22.161,19.684 22.145,20.060 21.504 C 20.269 21.147,20.266 21.123,19.680 18.758 C 19.366 17.491,19.107 16.533,19.046 16.406 C 18.963 16.233,18.681 15.934,17.592 14.861 L 16.242 13.529 16.403 11.003 C 16.583 8.196,16.583 8.181,16.345 7.870 C 16.001 7.419,15.452 7.312,14.820 7.574 M18.100 9.675 C 17.786 9.819,17.579 10.124,17.534 10.510 C 17.493 10.858,17.675 11.261,17.962 11.455 C 18.038 11.507,18.505 11.753,19.000 12.004 C 19.892 12.454,19.902 12.458,20.180 12.458 C 20.510 12.458,20.704 12.378,20.925 12.150 C 21.283 11.782,21.283 11.169,20.926 10.816 C 20.832 10.723,20.410 10.481,19.740 10.136 C 18.775 9.640,18.684 9.601,18.480 9.602 C 18.352 9.602,18.193 9.632,18.100 9.675 M2.664 12.063 C 2.436 12.146,2.257 12.297,2.131 12.511 C 2.036 12.672,2.020 12.744,2.020 13.000 C 2.020 13.256,2.036 13.328,2.131 13.489 C 2.192 13.592,2.301 13.723,2.374 13.778 C 2.669 14.003,2.624 14.000,5.498 14.000 C 8.486 14.000,8.393 14.009,8.701 13.701 C 9.092 13.310,9.092 12.690,8.701 12.299 C 8.393 11.991,8.488 12.000,5.483 12.003 C 3.276 12.005,2.793 12.015,2.664 12.063 M5.006 15.046 C 4.507 15.189,4.202 15.707,4.316 16.216 C 4.379 16.500,4.581 16.764,4.829 16.886 L 5.020 16.980 7.212 16.991 C 8.655 16.998,9.458 16.988,9.560 16.960 C 9.962 16.852,10.280 16.428,10.280 16.000 C 10.280 15.577,9.965 15.152,9.569 15.042 C 9.376 14.988,5.194 14.992,5.006 15.046 M13.520 16.044 C 13.311 16.085,13.074 16.241,12.919 16.440 C 12.781 16.617,11.088 20.547,11.028 20.830 C 10.874 21.556,11.600 22.179,12.321 21.940 C 12.732 21.803,12.748 21.776,13.788 19.400 L 14.724 17.260 14.709 16.980 C 14.690 16.654,14.591 16.431,14.386 16.250 C 14.171 16.062,13.837 15.982,13.520 16.044 " fill="var(--db-icon-color, currentColor)" stroke="none" fill-rule="evenodd"></path></svg>