<svg id="icon" height="32" viewBox="0 0 32 32" width="32" xmlns="http://www.w3.org/2000/svg"><path d="M12.773 5.073 C 11.149 5.140,9.515 5.271,9.152 5.365 C 8.635 5.499,8.016 5.850,7.647 6.218 C 7.112 6.752,7.037 6.960,6.206 10.173 L 5.471 13.013 4.109 13.015 C 2.896 13.016,2.723 13.027,2.528 13.115 C 2.093 13.312,1.945 13.735,1.985 14.663 C 2.030 15.730,2.318 16.000,3.412 16.000 L 4.000 16.000 4.000 16.442 C 4.000 16.894,4.325 20.456,4.430 21.164 C 4.501 21.638,4.644 22.069,4.840 22.396 L 4.987 22.640 5.013 24.133 C 5.038 25.524,5.048 25.644,5.156 25.878 C 5.330 26.253,5.708 26.628,6.094 26.806 L 6.427 26.960 7.973 26.960 C 9.469 26.960,9.530 26.956,9.827 26.836 C 9.997 26.768,10.258 26.598,10.409 26.460 L 10.683 26.208 10.538 25.847 C 10.255 25.139,10.077 24.052,10.071 22.994 L 10.067 22.308 9.527 22.245 C 8.927 22.174,7.589 21.915,7.167 21.789 C 6.847 21.693,6.643 21.545,6.530 21.328 C 6.465 21.201,6.170 18.947,6.212 18.893 C 6.218 18.886,6.350 18.904,6.505 18.933 C 6.935 19.014,7.196 18.998,7.453 18.874 C 7.929 18.643,8.128 18.057,7.893 17.573 C 7.709 17.192,7.482 17.073,6.694 16.943 L 6.027 16.834 6.027 16.373 C 6.027 15.571,6.196 15.228,6.660 15.091 C 6.982 14.995,11.311 14.877,15.464 14.850 L 19.382 14.824 19.603 14.694 C 19.865 14.541,19.974 14.389,20.056 14.066 C 20.179 13.577,19.863 13.049,19.358 12.900 C 19.027 12.802,14.370 12.815,10.535 12.925 C 8.923 12.971,7.593 12.997,7.579 12.984 C 7.532 12.936,8.863 7.918,8.969 7.746 C 9.143 7.464,9.467 7.310,10.008 7.253 C 12.537 6.987,17.570 6.950,20.933 7.172 C 22.349 7.265,22.405 7.274,22.702 7.445 C 23.009 7.621,23.113 7.817,23.306 8.582 C 23.558 9.584,23.638 9.735,24.011 9.926 C 24.389 10.119,24.897 10.032,25.183 9.727 C 25.500 9.388,25.510 9.113,25.247 8.086 C 24.935 6.869,24.648 6.373,23.982 5.897 C 23.305 5.415,22.925 5.310,21.448 5.203 C 18.932 5.019,15.381 4.966,12.773 5.073 M25.778 11.043 C 25.550 11.112,25.416 11.244,23.194 13.600 C 22.129 14.729,20.929 15.988,20.528 16.397 L 19.799 17.141 19.433 17.072 C 16.687 16.556,13.951 17.916,12.744 20.396 C 11.979 21.971,11.932 23.719,12.610 25.389 C 13.097 26.587,14.218 27.771,15.454 28.394 C 16.424 28.883,17.788 29.110,18.853 28.958 C 20.975 28.657,22.696 27.386,23.621 25.440 C 24.176 24.272,24.338 22.847,24.054 21.627 L 24.004 21.413 24.662 20.747 C 25.078 20.325,25.342 20.013,25.380 19.899 C 25.413 19.799,25.440 19.553,25.440 19.352 L 25.440 18.987 26.269 18.987 C 27.166 18.987,27.267 18.963,27.531 18.685 C 27.793 18.408,27.840 18.208,27.840 17.362 L 27.840 16.587 28.525 16.587 C 29.139 16.587,29.234 16.574,29.445 16.463 C 29.599 16.381,29.735 16.250,29.840 16.080 L 30.000 15.822 30.000 13.791 C 30.000 11.835,29.996 11.752,29.889 11.547 C 29.827 11.429,29.675 11.261,29.551 11.173 L 29.324 11.013 27.636 11.003 C 26.694 10.997,25.872 11.015,25.778 11.043 M28.000 13.813 L 28.000 14.613 27.310 14.613 C 26.565 14.613,26.402 14.650,26.167 14.870 C 25.870 15.147,25.816 15.357,25.815 16.227 L 25.813 17.013 25.017 17.013 C 24.165 17.013,24.007 17.046,23.767 17.270 C 23.482 17.535,23.416 17.768,23.415 18.499 L 23.413 19.157 22.741 19.858 C 22.372 20.244,22.038 20.620,21.999 20.695 C 21.860 20.964,21.851 21.208,21.964 21.585 C 22.391 22.999,22.179 24.266,21.326 25.403 C 20.854 26.032,20.064 26.583,19.280 26.828 C 18.707 27.007,17.760 27.034,17.172 26.888 C 15.730 26.529,14.642 25.441,14.231 23.947 C 14.195 23.815,14.165 23.407,14.164 23.040 C 14.164 22.510,14.188 22.288,14.283 21.957 C 14.699 20.496,15.907 19.353,17.370 19.035 C 17.859 18.928,18.780 18.956,19.253 19.092 C 20.029 19.315,20.213 19.334,20.466 19.221 C 20.640 19.143,21.367 18.412,23.602 16.067 L 26.512 13.013 27.256 13.013 L 28.000 13.013 28.000 13.813 M16.868 22.481 C 16.135 22.851,15.847 23.730,16.216 24.469 C 16.492 25.021,16.938 25.299,17.550 25.301 C 18.144 25.303,18.598 25.019,18.895 24.460 C 18.986 24.287,19.012 24.148,19.012 23.813 C 19.013 23.434,18.995 23.354,18.848 23.093 C 18.733 22.888,18.591 22.736,18.377 22.587 C 18.085 22.383,18.049 22.373,17.608 22.357 C 17.197 22.342,17.117 22.355,16.868 22.481 M7.728 23.997 C 8.062 24.083,8.354 24.182,8.376 24.218 C 8.399 24.255,8.433 24.394,8.452 24.529 C 8.472 24.663,8.501 24.827,8.516 24.893 L 8.545 25.013 7.766 25.013 L 6.987 25.013 6.987 24.427 C 6.987 23.992,7.004 23.840,7.053 23.841 C 7.090 23.842,7.394 23.912,7.728 23.997 " fill="var(--db-icon-color, currentColor)" stroke="none" fill-rule="evenodd"></path></svg>