<svg id="icon" height="20" viewBox="0 0 20 20" width="20" xmlns="http://www.w3.org/2000/svg"><path d="M4.150 2.081 C 4.077 2.125,3.991 2.205,3.959 2.259 C 3.865 2.420,2.000 7.305,2.000 7.391 C 2.000 7.593,2.172 7.701,2.491 7.699 C 2.741 7.697,2.929 7.629,3.033 7.503 C 3.079 7.448,3.192 7.204,3.285 6.960 L 3.452 6.517 4.520 6.508 L 5.588 6.499 5.780 6.982 C 5.987 7.503,6.061 7.601,6.293 7.665 C 6.452 7.709,6.715 7.709,6.875 7.665 C 7.023 7.624,7.118 7.476,7.084 7.339 C 7.030 7.126,5.194 2.319,5.134 2.234 C 5.024 2.080,4.818 2.000,4.531 2.000 C 4.329 2.001,4.259 2.015,4.150 2.081 M8.675 2.053 C 8.616 2.083,8.533 2.163,8.492 2.229 L 8.417 2.350 8.417 4.850 C 8.417 7.303,8.418 7.352,8.484 7.467 C 8.621 7.702,8.641 7.705,9.950 7.689 C 11.240 7.674,11.367 7.658,11.823 7.449 C 12.246 7.256,12.538 6.900,12.634 6.464 C 12.658 6.356,12.669 6.137,12.661 5.944 C 12.650 5.651,12.635 5.585,12.540 5.391 C 12.361 5.028,11.961 4.730,11.581 4.678 L 11.427 4.657 11.655 4.544 C 11.934 4.406,12.138 4.212,12.240 3.987 C 12.306 3.840,12.316 3.765,12.315 3.433 C 12.313 3.117,12.300 3.017,12.238 2.860 C 12.091 2.487,11.734 2.201,11.264 2.080 C 11.091 2.035,10.830 2.022,9.917 2.011 C 8.912 2.000,8.771 2.004,8.675 2.053 M16.083 2.033 C 14.911 2.208,14.207 2.946,14.015 4.200 C 13.922 4.811,13.973 5.624,14.135 6.106 C 14.401 6.897,14.932 7.396,15.735 7.606 C 16.143 7.713,16.919 7.712,17.357 7.604 C 17.705 7.518,17.849 7.435,17.938 7.267 C 18.052 7.053,17.993 6.686,17.831 6.599 C 17.744 6.552,17.526 6.569,17.167 6.650 C 16.984 6.691,16.809 6.703,16.517 6.693 C 16.154 6.682,16.096 6.671,15.897 6.578 C 15.523 6.403,15.320 6.144,15.196 5.680 C 15.104 5.338,15.092 4.451,15.175 4.079 C 15.302 3.507,15.631 3.142,16.116 3.034 C 16.352 2.981,16.959 2.989,17.217 3.049 C 17.550 3.126,17.753 3.117,17.849 3.021 C 17.938 2.931,17.986 2.699,17.952 2.518 C 17.925 2.372,17.786 2.205,17.642 2.144 C 17.364 2.028,16.520 1.968,16.083 2.033 M10.963 3.017 C 11.137 3.119,11.203 3.231,11.224 3.461 C 11.259 3.845,11.073 4.124,10.734 4.197 C 10.640 4.217,10.332 4.233,10.048 4.233 L 9.533 4.233 9.533 3.581 L 9.533 2.928 10.192 2.939 C 10.778 2.949,10.862 2.957,10.963 3.017 M4.988 4.592 L 5.353 5.617 4.622 5.626 C 4.219 5.631,3.883 5.628,3.875 5.620 C 3.856 5.601,4.577 3.568,4.603 3.567 C 4.614 3.567,4.787 4.028,4.988 4.592 M11.001 5.220 C 11.330 5.318,11.499 5.566,11.500 5.950 C 11.500 6.301,11.375 6.523,11.100 6.659 C 10.921 6.748,10.900 6.750,10.225 6.761 L 9.533 6.772 9.533 5.970 L 9.533 5.167 10.177 5.167 C 10.671 5.167,10.863 5.179,11.001 5.220 M3.304 10.036 C 2.893 10.117,2.408 10.481,2.205 10.863 C 2.002 11.244,2.001 11.252,2.000 13.807 C 2.000 16.087,2.001 16.134,2.070 16.318 C 2.165 16.571,2.429 16.835,2.682 16.930 C 2.845 16.991,2.942 17.000,3.430 17.000 L 3.991 17.000 4.030 17.195 C 4.100 17.551,4.369 17.849,4.714 17.951 C 4.945 18.020,7.048 18.022,7.274 17.955 C 7.624 17.849,7.899 17.548,7.974 17.187 L 8.014 17.000 10.002 17.000 L 11.991 17.000 12.009 17.135 C 12.058 17.497,12.357 17.845,12.708 17.949 C 12.958 18.023,15.042 18.023,15.292 17.949 C 15.643 17.845,15.942 17.497,15.991 17.135 L 16.009 17.000 16.570 17.000 C 17.058 17.000,17.155 16.991,17.318 16.930 C 17.571 16.835,17.835 16.571,17.930 16.318 C 17.999 16.134,18.000 16.087,18.000 13.807 C 17.999 11.252,17.998 11.244,17.795 10.863 C 17.585 10.468,17.108 10.117,16.670 10.034 C 16.447 9.992,3.519 9.994,3.304 10.036 M16.000 13.000 L 16.000 14.000 10.000 14.000 L 4.000 14.000 4.000 13.000 L 4.000 12.000 10.000 12.000 L 16.000 12.000 16.000 13.000 " fill="var(--db-icon-color, currentColor)" stroke="none" fill-rule="evenodd"></path></svg>