<svg id="icon" height="24" viewBox="0 0 24 24" width="24" xmlns="http://www.w3.org/2000/svg"><path d="M4.125 8.045 C 4.007 8.065,3.804 8.124,3.674 8.176 C 2.922 8.480,2.378 9.043,2.130 9.777 L 2.020 10.100 2.009 12.631 C 1.998 15.040,2.001 15.170,2.073 15.333 C 2.181 15.578,2.372 15.779,2.610 15.897 C 2.803 15.993,2.853 16.000,3.398 16.000 L 3.981 16.000 4.031 16.210 C 4.096 16.486,4.257 16.710,4.498 16.859 L 4.694 16.980 6.412 16.992 C 8.372 17.005,8.401 17.001,8.700 16.702 C 8.858 16.544,9.000 16.246,9.000 16.073 C 9.000 16.003,9.124 16.000,12.000 16.000 C 14.876 16.000,15.000 16.003,15.000 16.073 C 15.000 16.246,15.142 16.544,15.299 16.701 C 15.593 16.995,15.629 17.000,17.500 17.000 C 19.371 17.000,19.407 16.995,19.701 16.701 C 19.857 16.545,20.000 16.246,20.000 16.076 C 20.000 16.014,20.064 16.006,20.633 15.994 C 21.258 15.980,21.269 15.978,21.462 15.859 C 21.694 15.715,21.901 15.457,21.960 15.239 C 21.989 15.133,21.999 14.260,21.991 12.590 C 21.980 10.106,21.979 10.099,21.887 9.820 C 21.579 8.895,20.772 8.194,19.840 8.043 C 19.515 7.990,4.443 7.992,4.125 8.045 M19.724 10.091 C 19.993 10.270,20.000 10.312,20.000 11.730 L 20.000 13.000 12.000 13.000 L 4.000 13.000 4.000 11.746 C 4.000 10.519,4.002 10.489,4.091 10.321 C 4.145 10.219,4.239 10.118,4.320 10.074 C 4.454 10.003,4.732 10.000,12.023 10.000 L 19.588 10.000 19.724 10.091 " fill="var(--db-icon-color, currentColor)" stroke="none" fill-rule="evenodd"></path></svg>