<svg id="icon" height="24" viewBox="0 0 24 24" width="24" xmlns="http://www.w3.org/2000/svg"><path d="M6.960 4.062 C 6.275 4.210,5.701 4.670,5.386 5.325 C 5.223 5.663,5.160 5.896,4.741 7.700 C 4.485 8.800,4.258 9.767,4.237 9.848 L 4.198 9.996 3.302 10.008 C 2.470 10.019,2.398 10.026,2.295 10.102 C 2.046 10.289,2.021 10.361,2.008 10.933 C 1.996 11.425,2.001 11.472,2.091 11.640 C 2.247 11.936,2.404 11.999,2.982 11.999 L 3.465 12.000 3.449 12.350 C 3.431 12.743,3.793 16.003,3.902 16.422 C 3.935 16.553,4.021 16.777,4.091 16.920 L 4.219 17.180 4.240 18.220 L 4.260 19.260 4.376 19.470 C 4.440 19.586,4.553 19.727,4.627 19.783 C 4.884 19.978,5.052 20.008,5.829 19.993 C 6.466 19.981,6.557 19.971,6.700 19.893 C 7.048 19.706,7.238 19.380,7.239 18.965 L 7.240 18.710 7.470 18.734 C 8.635 18.859,11.131 19.000,12.166 19.000 L 12.992 19.000 13.008 19.690 C 13.023 20.332,13.032 20.398,13.134 20.645 C 13.342 21.145,13.849 21.654,14.355 21.868 L 14.620 21.980 17.500 21.980 L 20.380 21.980 20.645 21.868 C 21.149 21.654,21.654 21.149,21.868 20.645 L 21.980 20.380 21.991 15.120 C 21.998 11.570,21.988 9.796,21.960 9.664 C 21.797 8.898,21.030 8.160,20.262 8.029 L 20.011 7.986 19.962 7.792 C 19.896 7.534,19.595 7.202,19.320 7.084 C 19.121 6.998,19.087 6.997,17.429 7.008 C 15.775 7.020,15.737 7.022,15.575 7.108 C 15.279 7.267,15.000 7.663,15.000 7.927 C 15.000 7.966,14.919 7.998,14.743 8.028 C 13.934 8.166,13.166 8.935,13.027 9.745 L 12.984 10.000 9.632 10.000 C 6.977 10.000,6.280 9.990,6.281 9.950 C 6.282 9.922,6.478 9.072,6.717 8.061 C 7.136 6.292,7.158 6.218,7.277 6.111 L 7.401 6.000 11.156 6.000 C 15.227 6.000,15.078 6.008,15.374 5.782 C 15.447 5.726,15.559 5.586,15.623 5.470 C 15.931 4.911,15.629 4.214,15.001 4.040 C 14.913 4.015,13.427 4.002,11.040 4.003 C 7.923 4.006,7.172 4.017,6.960 4.062 M19.748 10.078 C 20.017 10.242,20.000 9.917,20.000 15.000 C 20.000 20.083,20.017 19.758,19.748 19.922 C 19.625 19.996,19.532 20.000,17.500 20.000 C 15.468 20.000,15.375 19.996,15.252 19.922 C 14.983 19.758,15.000 20.081,15.000 15.020 C 15.000 11.161,15.009 10.419,15.056 10.328 C 15.118 10.209,15.267 10.062,15.360 10.028 C 15.393 10.016,16.365 10.005,17.520 10.003 C 19.535 10.000,19.625 10.003,19.748 10.078 M13.000 13.000 L 13.000 14.000 11.710 14.000 L 10.420 14.000 10.306 13.819 C 9.881 13.147,8.770 13.343,8.541 14.131 C 8.451 14.440,8.502 14.669,8.759 15.118 C 9.063 15.649,9.170 15.778,9.404 15.895 L 9.616 16.000 11.308 16.000 L 13.000 16.000 13.000 16.506 L 13.000 17.012 11.710 16.987 C 11.001 16.974,10.051 16.936,9.600 16.902 C 7.764 16.767,6.729 16.671,6.528 16.615 C 6.282 16.547,6.033 16.341,5.914 16.108 C 5.832 15.947,5.722 15.225,5.772 15.175 C 5.787 15.160,5.924 15.169,6.077 15.194 C 6.645 15.288,6.926 15.228,7.197 14.956 C 7.611 14.543,7.588 13.876,7.148 13.499 C 6.953 13.332,6.768 13.275,6.034 13.157 L 5.489 13.069 5.462 12.745 C 5.446 12.560,5.451 12.377,5.473 12.320 C 5.514 12.214,5.661 12.065,5.760 12.028 C 5.793 12.016,7.435 12.005,9.410 12.003 L 13.000 12.000 13.000 13.000 M17.660 12.073 C 17.572 12.115,17.461 12.192,17.414 12.245 C 17.308 12.361,16.105 14.584,16.038 14.785 C 15.886 15.246,16.208 15.705,16.721 15.756 L 16.959 15.780 16.632 16.380 C 16.357 16.884,16.302 17.016,16.288 17.203 C 16.238 17.877,17.053 18.263,17.519 17.786 C 17.710 17.592,18.951 15.307,18.983 15.092 C 19.004 14.952,18.989 14.878,18.902 14.700 C 18.764 14.418,18.549 14.280,18.246 14.280 C 18.118 14.280,18.040 14.263,18.040 14.234 C 18.040 14.209,18.185 13.917,18.363 13.585 C 18.740 12.880,18.778 12.720,18.633 12.442 C 18.431 12.056,18.023 11.901,17.660 12.073 " fill="var(--db-icon-color, currentColor)" stroke="none" fill-rule="evenodd"></path></svg>