<svg id="icon" height="20" viewBox="0 0 20 20" width="20" xmlns="http://www.w3.org/2000/svg"><path d="M3.693 5.650 C 3.046 5.813,2.462 6.364,2.265 6.998 C 2.196 7.221,2.155 7.670,2.047 9.400 C 1.984 10.419,1.990 10.561,2.149 11.811 C 2.233 12.472,2.287 12.785,2.337 12.901 C 2.418 13.089,2.667 13.337,2.855 13.418 C 2.962 13.464,3.757 13.561,4.058 13.566 C 4.123 13.567,4.133 13.584,4.133 13.695 C 4.133 13.765,4.163 13.938,4.199 14.079 C 4.366 14.734,4.836 15.317,5.433 15.612 C 6.144 15.963,6.908 15.957,7.610 15.594 C 8.149 15.315,8.623 14.729,8.787 14.139 L 8.845 13.930 9.931 13.957 C 10.528 13.971,11.264 13.983,11.567 13.983 C 12.100 13.983,12.122 13.981,12.287 13.893 C 12.381 13.844,12.516 13.736,12.587 13.654 C 12.666 13.563,12.963 13.021,13.350 12.261 L 13.983 11.017 13.983 10.750 C 13.982 10.365,13.898 10.224,13.354 9.683 C 12.501 8.837,11.461 8.049,10.200 7.293 C 9.360 6.790,9.586 6.865,6.967 6.214 C 4.742 5.660,4.560 5.620,4.233 5.611 C 4.010 5.605,3.815 5.619,3.693 5.650 M6.772 7.768 C 7.823 7.989,8.742 8.192,8.814 8.220 C 8.982 8.285,10.560 9.349,10.657 9.463 C 10.869 9.711,10.895 10.162,10.715 10.453 C 10.532 10.748,10.169 10.891,9.783 10.819 C 9.711 10.805,9.370 10.601,8.915 10.298 L 8.164 9.799 6.898 9.533 C 6.201 9.386,5.626 9.267,5.619 9.267 C 5.613 9.267,5.601 9.435,5.594 9.642 C 5.583 9.943,5.566 10.044,5.509 10.153 C 5.424 10.314,5.236 10.488,5.069 10.559 C 4.773 10.685,4.331 10.575,4.114 10.321 C 3.913 10.087,3.894 9.955,3.906 8.908 C 3.916 8.037,3.921 7.976,3.988 7.850 C 4.136 7.573,4.448 7.368,4.722 7.367 C 4.798 7.367,5.720 7.547,6.772 7.768 M15.742 11.779 C 14.836 12.008,14.603 12.079,14.467 12.166 C 13.927 12.513,13.846 13.249,14.298 13.702 C 14.476 13.879,14.753 14.000,14.981 14.000 C 15.155 14.000,17.204 13.496,17.437 13.395 C 17.772 13.251,17.982 12.907,17.982 12.500 C 17.982 12.092,17.797 11.785,17.448 11.614 C 17.113 11.450,16.995 11.462,15.742 11.779 " fill="var(--db-icon-color, currentColor)" stroke="none" fill-rule="evenodd"></path></svg>