<svg id="icon" height="32" viewBox="0 0 32 32" width="32" xmlns="http://www.w3.org/2000/svg"><path d="M10.208 2.123 C 9.697 2.301,8.407 3.138,8.227 3.408 C 8.086 3.621,8.066 3.981,8.185 4.210 C 8.370 4.568,8.795 4.762,9.153 4.652 C 9.252 4.622,9.653 4.390,10.044 4.138 L 10.755 3.680 11.431 3.680 L 12.107 3.680 12.107 4.853 L 12.107 6.027 11.053 6.029 C 10.412 6.030,9.843 6.059,9.600 6.102 C 8.676 6.268,7.804 6.749,7.140 7.458 C 6.701 7.927,6.465 8.291,6.238 8.850 C 5.907 9.664,5.920 9.302,5.920 17.503 L 5.920 24.983 4.004 26.905 C 1.948 28.968,1.920 29.003,2.032 29.409 C 2.096 29.639,2.393 29.904,2.641 29.950 C 2.787 29.978,2.883 29.957,3.059 29.860 C 3.202 29.780,8.196 24.815,16.545 16.450 C 28.068 4.906,29.811 3.140,29.861 2.955 C 29.942 2.654,29.856 2.390,29.613 2.189 C 29.446 2.052,29.370 2.027,29.124 2.027 L 28.832 2.027 26.423 4.432 L 24.014 6.837 23.620 6.622 C 23.404 6.504,23.035 6.340,22.800 6.259 C 22.388 6.116,22.329 6.110,21.080 6.091 L 19.787 6.070 19.787 4.902 L 19.787 3.733 20.422 3.733 L 21.058 3.733 21.849 4.200 C 22.593 4.639,22.658 4.667,22.943 4.667 C 23.310 4.667,23.493 4.552,23.667 4.212 C 23.812 3.928,23.816 3.776,23.684 3.487 C 23.597 3.293,23.497 3.214,22.863 2.832 C 22.465 2.593,21.977 2.320,21.777 2.226 L 21.413 2.053 15.947 2.041 C 10.830 2.029,10.463 2.035,10.208 2.123 M18.080 4.880 L 18.080 6.027 15.920 6.027 L 13.760 6.027 13.760 4.880 L 13.760 3.733 15.920 3.733 L 18.080 3.733 18.080 4.880 M21.213 9.167 C 21.367 9.236,21.493 9.308,21.493 9.327 C 21.493 9.345,19.310 11.543,16.642 14.211 L 11.791 19.062 11.312 19.002 C 11.049 18.968,10.724 18.893,10.590 18.834 C 10.226 18.673,9.800 18.241,9.620 17.852 L 9.467 17.520 9.467 14.000 L 9.467 10.480 9.588 10.218 C 9.837 9.676,10.344 9.230,10.874 9.086 C 11.064 9.035,12.230 9.022,16.027 9.030 L 20.933 9.040 21.213 9.167 M24.066 11.054 L 22.400 12.721 22.400 15.080 C 22.400 17.265,22.393 17.458,22.299 17.704 C 22.086 18.265,21.692 18.660,21.113 18.895 C 20.836 19.007,20.746 19.011,18.449 19.029 L 16.072 19.048 12.956 22.165 C 10.750 24.372,9.889 25.266,10.007 25.225 C 10.113 25.188,10.580 25.173,11.270 25.184 C 12.471 25.202,12.503 25.210,12.770 25.567 C 12.924 25.774,12.924 26.280,12.770 26.486 C 12.503 26.844,12.473 26.852,11.248 26.871 C 10.208 26.887,10.114 26.880,9.905 26.778 C 9.781 26.718,9.623 26.584,9.554 26.481 C 9.446 26.322,9.431 26.247,9.451 25.969 L 9.474 25.644 8.164 26.959 L 6.853 28.273 7.308 28.714 C 7.558 28.956,7.930 29.253,8.134 29.374 C 8.627 29.666,9.354 29.903,9.976 29.975 C 10.320 30.015,12.322 30.027,16.293 30.015 L 22.107 29.998 22.533 29.878 C 23.999 29.467,25.173 28.424,25.675 27.087 C 25.986 26.256,25.977 26.567,25.958 17.865 C 25.945 11.587,25.927 9.840,25.873 9.640 C 25.836 9.501,25.788 9.387,25.769 9.387 C 25.749 9.387,24.983 10.137,24.066 11.054 M17.236 21.322 C 17.657 21.584,17.760 22.154,17.457 22.551 C 17.228 22.851,17.089 22.880,15.893 22.880 C 14.691 22.880,14.559 22.852,14.322 22.541 C 13.955 22.059,14.202 21.372,14.799 21.221 C 14.887 21.198,15.428 21.184,16.000 21.190 C 16.981 21.199,17.051 21.207,17.236 21.322 M22.050 25.354 C 22.528 25.719,22.508 26.369,22.006 26.743 C 21.868 26.847,21.788 26.853,20.649 26.853 C 19.468 26.853,19.436 26.850,19.266 26.729 C 19.035 26.564,18.921 26.331,18.921 26.020 C 18.921 25.690,19.080 25.431,19.375 25.283 C 19.587 25.176,19.667 25.170,20.724 25.185 L 21.849 25.200 22.050 25.354 " stroke="none" fill-rule="evenodd" fill="black"></path></svg>