<svg id="icon" height="24" viewBox="0 0 24 24" width="24" xmlns="http://www.w3.org/2000/svg"><path d="M7.240 2.045 C 5.792 2.188,4.659 2.757,3.821 3.762 C 2.925 4.836,2.340 6.147,2.142 7.524 C 2.015 8.404,1.957 11.265,2.041 12.480 C 2.092 13.213,2.173 13.862,2.305 14.600 C 2.421 15.251,2.946 17.409,3.107 17.900 C 3.325 18.563,3.635 19.137,4.101 19.740 C 4.416 20.146,4.630 20.343,4.994 20.559 C 5.216 20.691,5.278 20.747,5.256 20.796 C 5.241 20.831,5.220 20.969,5.210 21.103 C 5.189 21.378,5.266 21.578,5.466 21.768 C 5.702 21.991,5.765 22.000,7.153 22.000 C 8.010 22.000,8.473 21.985,8.564 21.954 C 8.776 21.882,8.910 21.771,9.030 21.567 C 9.139 21.381,9.140 21.375,9.140 20.640 C 9.140 19.833,9.123 19.760,8.890 19.539 C 8.640 19.302,8.637 19.302,7.360 19.280 L 6.180 19.260 5.980 19.153 C 5.495 18.894,4.969 18.125,4.705 17.288 C 4.647 17.105,4.600 16.939,4.600 16.919 C 4.600 16.899,4.873 17.062,5.206 17.281 C 5.703 17.608,5.881 17.702,6.195 17.803 C 7.024 18.068,7.430 18.052,7.739 17.742 C 7.996 17.486,8.066 17.130,7.924 16.816 C 7.786 16.513,7.571 16.367,7.134 16.281 C 6.567 16.169,6.552 16.161,4.849 14.990 C 4.403 14.683,4.023 14.402,4.005 14.366 C 3.973 14.305,3.899 13.836,3.798 13.060 C 3.684 12.188,3.727 8.306,3.859 7.580 C 3.998 6.811,4.304 6.042,4.730 5.391 C 5.308 4.508,5.904 4.055,6.782 3.831 C 7.130 3.743,7.193 3.740,9.040 3.740 C 11.158 3.740,11.284 3.752,11.867 4.020 C 12.401 4.265,12.734 4.549,13.154 5.115 C 13.940 6.175,14.319 7.391,14.320 8.860 C 14.321 9.300,14.367 9.480,14.528 9.663 C 14.700 9.859,14.915 9.960,15.160 9.960 C 15.598 9.960,15.925 9.692,16.015 9.260 C 16.061 9.042,15.969 7.641,15.880 7.182 C 15.638 5.945,15.010 4.638,14.207 3.700 C 13.471 2.840,12.525 2.317,11.301 2.092 C 10.913 2.020,7.844 1.985,7.240 2.045 M8.360 5.025 C 7.967 5.060,7.331 5.172,7.082 5.248 C 6.184 5.523,5.545 6.181,5.319 7.064 C 5.207 7.503,5.219 7.820,5.381 8.611 C 5.634 9.853,5.705 10.046,6.043 10.416 C 6.422 10.831,6.745 10.977,7.607 11.125 C 8.371 11.257,9.704 11.258,10.460 11.128 C 11.136 11.011,11.428 10.912,11.710 10.702 C 12.073 10.432,12.263 10.189,12.416 9.800 C 12.534 9.501,12.840 7.946,12.840 7.645 C 12.840 7.019,12.561 6.359,12.101 5.900 C 11.499 5.299,10.691 5.051,9.240 5.022 C 8.855 5.014,8.459 5.016,8.360 5.025 M10.330 6.830 C 10.500 6.874,10.709 6.955,10.795 7.012 C 10.990 7.141,11.120 7.399,11.120 7.656 C 11.120 7.877,10.858 9.132,10.789 9.243 C 10.723 9.349,10.600 9.388,10.100 9.460 C 9.325 9.573,8.926 9.577,8.186 9.482 C 7.436 9.385,7.345 9.361,7.280 9.241 C 7.209 9.108,6.960 7.860,6.960 7.638 C 6.960 7.186,7.201 6.953,7.800 6.826 C 8.260 6.728,8.284 6.726,9.180 6.740 C 9.852 6.749,10.082 6.768,10.330 6.830 M12.180 11.056 C 11.897 11.146,11.671 11.284,11.460 11.494 C 11.108 11.847,11.041 12.038,10.665 13.760 C 10.481 14.607,10.291 15.431,10.243 15.590 L 10.157 15.880 10.008 15.882 C 9.664 15.886,9.326 16.106,9.140 16.447 C 9.047 16.618,9.021 16.722,9.008 16.983 C 8.986 17.397,9.065 17.681,9.266 17.917 C 9.409 18.083,9.744 18.279,9.888 18.280 C 9.989 18.280,10.006 18.329,10.084 18.856 C 10.136 19.203,10.157 19.585,10.158 20.203 C 10.160 21.158,10.187 21.310,10.404 21.572 C 10.471 21.654,10.610 21.770,10.713 21.830 C 10.888 21.933,10.930 21.940,11.360 21.940 C 11.790 21.940,11.832 21.933,12.007 21.830 C 12.319 21.646,12.560 21.272,12.560 20.970 C 12.560 20.898,12.577 20.880,12.630 20.896 C 12.750 20.932,13.634 21.035,14.198 21.078 C 14.888 21.132,16.272 21.132,16.962 21.078 C 17.514 21.036,18.409 20.932,18.525 20.897 C 18.575 20.882,18.596 20.916,18.616 21.043 C 18.670 21.379,18.915 21.710,19.224 21.862 C 19.450 21.973,20.062 21.993,20.311 21.898 C 20.560 21.803,20.811 21.562,20.925 21.309 C 21.015 21.111,21.020 21.051,21.028 20.180 C 21.033 19.674,21.054 19.152,21.076 19.020 C 21.097 18.888,21.126 18.669,21.141 18.533 C 21.167 18.291,21.170 18.285,21.325 18.223 C 21.572 18.124,21.825 17.864,21.919 17.615 C 22.018 17.348,22.029 16.851,21.939 16.598 C 21.817 16.252,21.485 15.955,21.159 15.900 C 21.011 15.875,21.001 15.864,20.939 15.647 C 20.820 15.228,20.800 15.144,20.477 13.660 C 20.261 12.670,20.117 12.100,20.043 11.938 C 19.898 11.622,19.595 11.322,19.252 11.153 L 18.982 11.020 15.661 11.012 C 13.060 11.006,12.305 11.016,12.180 11.056 M19.078 14.110 C 19.285 15.007,19.462 15.772,19.472 15.810 C 19.488 15.876,19.283 15.880,15.585 15.880 C 12.439 15.880,11.680 15.870,11.680 15.829 C 11.680 15.778,12.381 12.685,12.424 12.550 C 12.444 12.484,12.629 12.480,15.573 12.480 L 18.701 12.480 19.078 14.110 M6.329 12.679 C 5.961 12.767,5.701 13.108,5.703 13.500 C 5.704 13.720,5.732 13.795,6.030 14.385 C 6.392 15.102,6.513 15.242,6.846 15.321 C 7.378 15.449,7.877 15.050,7.879 14.494 C 7.880 14.317,7.837 14.201,7.566 13.654 C 7.202 12.920,7.060 12.757,6.723 12.684 C 6.495 12.635,6.513 12.636,6.329 12.679 M12.717 17.107 C 13.272 17.256,13.441 17.318,13.546 17.411 C 13.890 17.713,13.779 18.254,13.339 18.422 L 13.160 18.491 12.510 18.319 C 11.758 18.120,11.586 18.045,11.479 17.868 C 11.340 17.642,11.391 17.237,11.577 17.083 C 11.639 17.031,11.904 16.925,11.980 16.922 C 12.001 16.921,12.333 17.004,12.717 17.107 M19.499 17.034 C 19.862 17.244,19.857 17.837,19.490 18.051 C 19.421 18.092,19.062 18.207,18.694 18.307 C 18.084 18.472,18.011 18.484,17.866 18.441 C 17.416 18.306,17.268 17.738,17.599 17.421 C 17.696 17.328,17.853 17.269,18.410 17.114 C 19.137 16.913,19.270 16.903,19.499 17.034 M16.390 18.760 C 16.660 18.924,16.747 19.216,16.605 19.481 C 16.463 19.746,16.348 19.780,15.580 19.780 C 14.941 19.780,14.891 19.774,14.753 19.688 C 14.652 19.626,14.584 19.541,14.538 19.420 C 14.436 19.152,14.521 18.911,14.772 18.758 C 14.886 18.689,14.976 18.680,15.580 18.680 C 16.188 18.680,16.274 18.689,16.390 18.760 " fill="var(--db-icon-color, currentColor)" stroke="none" fill-rule="evenodd"></path></svg>