<svg id="icon" height="20" viewBox="0 0 20 20" width="20" xmlns="http://www.w3.org/2000/svg"><path d="M12.549 5.111 C 12.095 5.325,11.884 5.902,12.085 6.382 C 12.162 6.567,12.411 6.815,12.610 6.905 C 12.777 6.980,12.821 6.984,13.807 7.000 C 14.818 7.016,14.833 7.018,14.907 7.093 C 14.983 7.168,14.983 7.169,14.991 8.376 L 14.999 9.583 13.291 11.310 L 11.583 13.036 11.175 13.035 C 10.950 13.034,10.767 13.028,10.767 13.021 C 10.767 12.920,9.208 7.160,9.142 7.017 C 8.943 6.585,8.367 6.134,7.887 6.034 C 7.765 6.009,7.225 6.000,6.212 6.007 L 4.717 6.017 4.567 6.095 C 4.230 6.272,4.034 6.566,4.008 6.933 C 3.981 7.328,4.194 7.707,4.545 7.893 L 4.717 7.983 6.047 8.000 L 7.378 8.017 7.487 8.426 C 7.546 8.651,7.605 8.879,7.617 8.934 L 7.639 9.033 6.474 9.033 C 4.994 9.033,4.705 9.079,4.033 9.416 C 3.492 9.688,2.955 10.154,2.635 10.629 C 2.426 10.940,2.209 11.419,2.109 11.791 C 2.027 12.100,2.021 12.168,2.008 13.099 C 1.990 14.318,2.008 14.412,2.300 14.705 C 2.563 14.968,2.684 15.000,3.423 15.000 L 4.000 15.000 4.001 15.092 C 4.001 15.142,4.023 15.286,4.050 15.412 C 4.249 16.354,5.149 17.047,6.099 16.992 C 7.068 16.936,7.888 16.158,7.988 15.203 L 8.009 15.000 10.115 15.000 C 11.977 15.000,12.241 14.994,12.386 14.945 C 12.535 14.896,12.740 14.699,14.667 12.760 C 16.330 11.086,16.805 10.590,16.883 10.442 L 16.983 10.255 16.983 8.586 C 16.983 6.931,16.983 6.914,16.906 6.667 C 16.795 6.312,16.628 6.030,16.361 5.749 C 16.095 5.469,15.815 5.276,15.483 5.143 L 15.250 5.050 13.983 5.041 L 12.717 5.032 12.549 5.111 M8.420 11.943 C 8.552 12.453,8.670 12.907,8.681 12.952 L 8.701 13.033 6.346 13.033 L 3.991 13.033 4.007 12.653 C 4.022 12.320,4.037 12.246,4.124 12.061 C 4.370 11.538,4.891 11.124,5.413 11.036 C 5.507 11.020,6.168 11.009,6.881 11.012 L 8.180 11.017 8.420 11.943 M15.567 13.052 C 15.203 13.130,14.883 13.310,14.599 13.597 C 14.310 13.888,14.162 14.145,14.066 14.520 C 13.946 14.990,14.008 15.502,14.240 15.944 C 14.381 16.214,14.786 16.619,15.056 16.760 C 15.322 16.899,15.718 17.000,16.000 17.000 C 16.282 17.000,16.678 16.899,16.944 16.760 C 17.214 16.619,17.619 16.214,17.760 15.944 C 17.992 15.502,18.054 14.990,17.934 14.520 C 17.838 14.145,17.690 13.888,17.401 13.597 C 16.909 13.101,16.249 12.905,15.567 13.052 " fill="var(--db-icon-color, currentColor)" stroke="none" fill-rule="evenodd"></path></svg>