<svg id="icon" height="32" viewBox="0 0 32 32" width="32" xmlns="http://www.w3.org/2000/svg"><path d="M12.133 2.108 C 9.430 2.573,7.230 4.443,6.373 7.005 C 5.979 8.182,6.000 7.630,6.000 16.613 C 6.000 25.570,5.976 24.935,6.358 26.027 C 6.963 27.758,8.439 29.173,10.213 29.722 C 11.111 30.000,11.108 30.000,16.027 30.000 C 21.102 30.000,20.984 30.007,22.015 29.647 C 23.875 28.996,25.317 27.408,25.815 25.461 C 26.025 24.639,26.034 24.206,26.014 16.160 C 25.995 8.467,25.994 8.396,25.881 7.905 C 25.706 7.142,25.508 6.586,25.190 5.968 C 24.201 4.047,22.399 2.681,20.160 2.154 C 19.802 2.070,19.384 2.059,16.160 2.048 C 13.303 2.038,12.472 2.050,12.133 2.108 M19.787 4.122 C 21.852 4.634,23.355 6.080,23.853 8.033 L 23.973 8.507 23.973 16.560 C 23.973 24.134,23.968 24.634,23.878 24.960 C 23.455 26.496,22.289 27.605,20.768 27.919 C 20.553 27.964,20.296 28.000,20.196 28.000 C 20.033 28.000,20.010 27.982,19.979 27.828 C 19.922 27.546,19.708 27.277,19.435 27.144 L 19.184 27.023 18.272 27.125 C 17.014 27.265,14.986 27.265,13.728 27.125 L 12.816 27.023 12.565 27.144 C 12.292 27.277,12.078 27.546,12.021 27.828 C 11.990 27.982,11.967 28.000,11.804 28.000 C 11.511 28.000,10.857 27.848,10.465 27.688 C 9.519 27.303,8.714 26.503,8.325 25.559 C 8.010 24.794,8.027 25.311,8.027 16.560 L 8.027 8.507 8.147 8.033 C 8.529 6.535,9.551 5.278,10.960 4.575 C 11.522 4.294,11.934 4.173,12.800 4.033 C 12.873 4.021,14.397 4.017,16.187 4.024 C 18.970 4.034,19.490 4.049,19.787 4.122 M12.480 6.111 C 11.899 6.263,11.417 6.548,10.960 7.009 C 10.309 7.665,10.015 8.374,10.016 9.280 C 10.018 10.218,10.506 18.218,10.586 18.613 C 10.693 19.144,10.930 19.613,11.286 19.998 C 11.662 20.404,12.041 20.652,12.566 20.838 L 12.987 20.987 15.973 20.987 C 18.715 20.987,18.986 20.979,19.280 20.889 C 19.771 20.740,20.208 20.470,20.567 20.096 C 21.115 19.525,21.361 18.924,21.443 17.948 C 21.530 16.930,21.973 9.597,21.973 9.190 C 21.973 7.789,20.910 6.465,19.495 6.107 C 19.036 5.991,12.925 5.994,12.480 6.111 M19.285 8.144 C 19.564 8.293,19.802 8.565,19.917 8.864 C 20.003 9.090,19.996 9.270,19.739 13.416 C 19.591 15.791,19.448 17.887,19.419 18.074 C 19.360 18.462,19.175 18.741,18.876 18.893 C 18.709 18.978,18.458 18.987,15.985 18.987 C 13.385 18.987,13.267 18.982,13.068 18.880 C 12.865 18.777,12.638 18.526,12.568 18.330 C 12.535 18.236,12.324 14.917,12.105 11.054 C 12.022 9.584,12.010 9.069,12.054 8.904 C 12.150 8.546,12.539 8.180,12.960 8.049 C 13.033 8.026,14.437 8.012,16.080 8.017 C 19.042 8.027,19.068 8.028,19.285 8.144 M10.827 23.034 C 10.329 23.141,10.014 23.516,10.014 24.004 C 10.014 24.352,10.232 24.718,10.533 24.875 C 10.727 24.976,10.853 24.988,11.893 25.004 C 12.655 25.015,13.110 25.000,13.248 24.959 C 14.110 24.704,14.256 23.587,13.485 23.146 C 13.260 23.017,13.221 23.013,12.133 23.004 C 11.517 22.999,10.929 23.012,10.827 23.034 M18.792 23.035 C 18.112 23.207,17.805 23.935,18.167 24.518 C 18.442 24.960,18.546 24.987,20.000 24.987 C 21.458 24.987,21.558 24.961,21.837 24.511 C 22.134 24.032,21.985 23.444,21.494 23.155 C 21.256 23.015,21.243 23.013,20.107 23.003 C 19.476 22.998,18.885 23.012,18.792 23.035 " fill="var(--db-icon-color, currentColor)" stroke="none" fill-rule="evenodd"></path></svg>