<svg id="icon" height="32" viewBox="0 0 32 32" width="32" xmlns="http://www.w3.org/2000/svg"><path d="M9.413 2.062 C 7.315 2.320,5.786 3.094,4.588 4.505 C 3.211 6.128,2.336 8.250,2.135 10.461 C 2.053 11.353,1.986 15.127,2.032 16.267 C 2.117 18.411,2.378 19.996,3.129 22.933 C 3.682 25.093,3.900 25.668,4.512 26.569 C 5.221 27.616,5.786 28.153,6.583 28.540 L 7.006 28.746 7.010 29.000 C 7.016 29.358,7.182 29.646,7.494 29.840 L 7.752 30.000 8.876 30.000 C 9.976 30.000,10.005 29.997,10.232 29.867 C 10.375 29.785,10.518 29.642,10.605 29.494 C 10.740 29.265,10.747 29.218,10.747 28.507 C 10.747 27.638,10.682 27.445,10.299 27.174 L 10.073 27.015 8.997 26.985 C 7.931 26.955,7.916 26.953,7.561 26.788 C 7.358 26.693,7.070 26.497,6.899 26.337 C 6.565 26.024,6.072 25.311,5.759 24.690 C 5.556 24.288,5.363 23.722,5.396 23.628 C 5.405 23.601,5.893 23.878,6.480 24.243 C 7.746 25.032,7.921 25.120,8.598 25.304 C 9.205 25.469,9.419 25.442,9.742 25.159 C 9.978 24.951,10.080 24.722,10.080 24.400 C 10.080 23.850,9.807 23.562,9.044 23.308 C 8.718 23.199,8.324 23.010,7.959 22.787 C 7.064 22.238,5.506 21.320,5.079 21.089 C 4.636 20.850,4.664 20.908,4.447 19.797 C 4.064 17.839,3.969 16.239,4.050 13.155 C 4.129 10.159,4.183 9.684,4.566 8.571 C 4.916 7.555,5.514 6.494,6.173 5.720 C 6.975 4.777,8.147 4.208,9.602 4.055 C 10.262 3.985,13.679 3.985,14.409 4.054 C 16.128 4.217,17.182 4.811,18.195 6.187 C 19.092 7.405,19.682 8.899,19.838 10.347 C 19.958 11.464,20.058 11.697,20.504 11.900 C 21.060 12.152,21.709 11.839,21.870 11.241 C 21.914 11.079,21.913 10.858,21.869 10.404 C 21.659 8.244,20.797 6.160,19.437 4.530 C 18.272 3.133,16.880 2.377,14.972 2.106 C 14.552 2.046,13.868 2.030,12.000 2.036 C 10.665 2.039,9.501 2.051,9.413 2.062 M10.543 6.083 C 9.547 6.199,8.543 6.499,7.859 6.885 C 7.312 7.193,6.632 7.856,6.410 8.298 C 5.981 9.153,5.976 9.782,6.380 11.813 C 6.543 12.637,6.686 13.010,7.007 13.460 C 7.420 14.039,8.081 14.452,8.880 14.631 C 9.423 14.752,11.146 14.987,11.493 14.987 C 11.963 14.987,12.285 14.785,12.451 14.386 C 12.596 14.040,12.522 13.587,12.278 13.316 C 12.079 13.097,11.809 13.020,10.742 12.882 C 9.052 12.664,8.975 12.644,8.707 12.370 C 8.505 12.164,8.466 12.054,8.324 11.280 C 8.083 9.969,8.047 9.661,8.108 9.434 C 8.270 8.833,9.126 8.343,10.400 8.122 C 11.128 7.995,12.906 7.999,13.619 8.128 C 14.764 8.335,15.559 8.735,15.817 9.233 C 15.917 9.427,15.914 9.859,15.808 10.526 C 15.705 11.172,15.729 11.454,15.910 11.728 C 16.307 12.327,17.271 12.271,17.599 11.628 C 17.730 11.372,17.920 10.142,17.920 9.553 C 17.920 8.753,17.641 8.148,16.987 7.531 C 16.135 6.726,15.047 6.282,13.441 6.083 C 12.929 6.019,11.091 6.019,10.543 6.083 M15.333 14.101 C 14.712 14.299,14.133 14.801,13.866 15.371 C 13.761 15.596,13.544 16.411,13.210 17.840 L 12.710 19.973 12.072 20.000 C 11.142 20.039,10.987 20.182,10.987 20.998 C 10.987 21.649,11.203 21.957,11.701 22.013 L 11.947 22.041 11.947 22.431 C 11.947 22.774,12.100 24.296,12.272 25.653 C 12.347 26.248,12.458 26.680,12.617 26.994 C 12.740 27.237,12.747 27.300,12.748 28.225 C 12.749 29.062,12.763 29.231,12.849 29.420 C 13.049 29.861,13.430 30.023,14.270 30.025 C 14.871 30.027,15.227 29.927,15.452 29.695 C 15.659 29.480,15.733 29.291,15.733 28.983 L 15.733 28.747 20.473 28.747 L 25.213 28.747 25.250 29.026 C 25.301 29.410,25.472 29.689,25.759 29.859 C 25.989 29.993,26.035 30.000,26.747 30.000 C 27.464 30.000,27.503 29.994,27.742 29.854 C 27.926 29.746,28.025 29.637,28.128 29.430 C 28.262 29.161,28.267 29.122,28.267 28.153 C 28.267 27.603,28.288 27.140,28.314 27.123 C 28.403 27.069,28.636 26.323,28.690 25.920 C 28.862 24.654,29.074 22.547,29.054 22.307 L 29.031 22.027 29.222 22.027 C 29.462 22.026,29.747 21.884,29.886 21.695 C 29.966 21.585,29.998 21.441,30.014 21.108 C 30.041 20.554,29.960 20.289,29.712 20.122 C 29.549 20.012,29.468 20.000,28.912 20.000 L 28.293 20.000 27.796 17.853 C 27.438 16.307,27.252 15.610,27.133 15.360 C 26.914 14.902,26.481 14.472,26.001 14.236 L 25.629 14.053 20.588 14.043 C 16.619 14.035,15.501 14.047,15.333 14.101 M25.228 16.097 C 25.328 16.178,25.416 16.487,25.765 17.977 C 25.995 18.958,26.196 19.814,26.212 19.880 L 26.242 20.000 20.508 20.000 C 17.354 20.000,14.773 19.985,14.773 19.966 C 14.773 19.897,15.526 16.693,15.603 16.433 C 15.742 15.964,15.331 16.000,20.513 16.000 C 24.872 16.000,25.114 16.005,25.228 16.097 M7.278 17.057 C 6.876 17.246,6.614 17.716,6.697 18.098 C 6.785 18.500,7.694 21.212,7.781 21.333 C 8.275 22.022,9.361 21.787,9.547 20.952 C 9.610 20.667,9.609 20.664,9.105 19.107 C 8.827 18.249,8.561 17.489,8.514 17.417 C 8.254 17.020,7.700 16.859,7.278 17.057 M26.911 22.160 C 27.033 22.281,27.043 22.328,27.029 22.679 L 27.013 23.066 26.320 23.190 C 25.508 23.335,25.299 23.443,25.120 23.813 C 24.881 24.308,25.073 24.893,25.553 25.133 C 25.773 25.242,25.990 25.259,26.438 25.202 L 26.769 25.160 26.741 25.367 C 26.637 26.122,26.494 26.395,26.112 26.562 C 25.690 26.748,22.559 26.986,20.533 26.986 C 18.636 26.986,15.416 26.753,14.949 26.582 C 14.533 26.429,14.347 26.116,14.269 25.434 L 14.234 25.135 14.616 25.201 C 14.873 25.245,15.070 25.250,15.218 25.217 C 16.089 25.021,16.276 23.844,15.505 23.411 C 15.388 23.345,15.025 23.248,14.652 23.181 L 14.003 23.066 13.960 22.826 C 13.901 22.494,13.953 22.264,14.116 22.136 C 14.254 22.027,14.291 22.027,20.516 22.027 L 26.778 22.027 26.911 22.160 M18.042 23.524 C 17.801 23.644,17.621 23.882,17.228 24.603 C 17.019 24.985,17.003 25.043,17.023 25.331 C 17.062 25.868,17.468 26.241,18.011 26.239 C 18.370 26.238,18.648 26.066,18.897 25.692 L 19.101 25.387 20.506 25.387 L 21.911 25.387 22.071 25.648 C 22.411 26.199,22.926 26.382,23.440 26.133 C 23.800 25.959,23.973 25.674,23.973 25.255 C 23.973 24.948,23.952 24.894,23.627 24.350 C 23.425 24.013,23.194 23.702,23.075 23.605 L 22.870 23.440 20.568 23.426 C 18.322 23.412,18.261 23.414,18.042 23.524 " fill="var(--db-icon-color, currentColor)" stroke="none" fill-rule="evenodd"></path></svg>