<svg id="icon" height="20" viewBox="0 0 20 20" width="20" xmlns="http://www.w3.org/2000/svg"><path d="M6.769 2.037 C 4.223 2.263,2.588 3.814,2.132 6.435 C 2.015 7.104,1.993 7.588,2.009 9.183 C 2.023 10.698,2.024 10.725,2.128 11.400 C 2.230 12.073,2.358 12.805,2.375 12.817 C 2.379 12.820,2.541 12.949,2.733 13.104 C 3.533 13.747,5.041 14.820,5.389 14.995 C 5.730 15.166,6.031 15.234,6.550 15.256 L 7.017 15.276 7.017 14.013 L 7.017 12.750 7.110 12.559 C 7.216 12.344,7.410 12.160,7.614 12.083 L 7.751 12.030 7.997 11.140 C 8.133 10.651,8.286 10.155,8.338 10.038 L 8.433 9.826 8.255 9.848 C 7.478 9.945,5.491 9.761,4.903 9.538 C 4.684 9.454,4.395 9.238,4.261 9.056 C 4.062 8.787,3.976 8.534,3.783 7.648 C 3.603 6.825,3.594 6.766,3.608 6.417 C 3.633 5.800,3.822 5.378,4.283 4.916 C 4.575 4.623,4.867 4.457,5.383 4.289 C 6.495 3.928,8.318 3.912,9.514 4.253 C 10.162 4.438,10.581 4.738,10.927 5.267 C 11.287 5.815,11.416 6.219,11.390 6.717 C 11.375 6.999,11.160 8.087,11.051 8.429 L 11.029 8.500 12.019 8.500 L 13.010 8.500 12.990 7.858 C 12.942 6.337,12.603 5.139,11.937 4.134 C 11.699 3.775,11.184 3.238,10.838 2.989 C 9.779 2.226,8.364 1.895,6.769 2.037 M10.306 9.535 C 9.933 9.610,9.531 9.905,9.334 10.249 C 9.270 10.361,9.128 10.807,8.919 11.551 C 8.745 12.174,8.582 12.751,8.558 12.833 L 8.514 12.983 8.257 12.993 L 8.000 13.003 8.000 14.001 L 8.000 15.000 8.193 15.000 L 8.386 15.000 8.432 15.325 C 8.462 15.535,8.483 16.066,8.491 16.825 L 8.503 18.000 9.502 18.000 L 10.500 18.000 10.500 17.546 C 10.500 17.158,10.507 17.096,10.550 17.112 C 10.629 17.142,11.341 17.227,11.832 17.265 C 12.404 17.310,13.548 17.310,14.150 17.265 C 14.645 17.229,15.367 17.144,15.450 17.112 C 15.493 17.096,15.500 17.158,15.500 17.546 L 15.500 18.000 16.499 18.000 L 17.498 18.000 17.509 16.842 C 17.516 16.157,17.538 15.574,17.562 15.417 C 17.631 14.965,17.610 15.000,17.817 15.000 L 18.000 15.000 18.000 14.001 L 18.000 13.003 17.744 12.993 L 17.488 12.983 17.415 12.733 C 17.374 12.596,17.285 12.251,17.216 11.967 C 17.016 11.141,16.723 10.281,16.574 10.084 C 16.417 9.877,16.172 9.689,15.933 9.591 L 15.750 9.517 13.100 9.512 C 11.642 9.509,10.385 9.519,10.306 9.535 M5.329 10.831 C 5.583 10.961,5.638 11.063,5.946 11.988 C 6.253 12.909,6.286 13.098,6.180 13.310 C 5.930 13.805,5.300 13.896,4.942 13.489 C 4.808 13.335,4.267 11.735,4.267 11.491 C 4.267 11.208,4.420 10.963,4.675 10.837 C 4.861 10.745,5.155 10.742,5.329 10.831 M15.496 11.325 C 15.551 11.504,15.681 11.935,15.786 12.283 C 15.890 12.632,15.982 12.935,15.991 12.958 C 16.004 12.991,15.394 13.000,13.009 13.000 L 10.011 13.000 10.240 12.225 C 10.366 11.799,10.499 11.349,10.536 11.225 L 10.603 11.000 13.000 11.000 L 15.397 11.000 15.496 11.325 M10.610 14.014 C 10.918 14.095,11.208 14.186,11.253 14.216 C 11.535 14.400,11.535 14.866,11.253 15.051 C 11.095 15.155,10.944 15.144,10.375 14.988 C 10.077 14.907,9.795 14.816,9.748 14.785 C 9.539 14.648,9.468 14.324,9.601 14.106 C 9.665 14.002,9.887 13.869,10.000 13.868 C 10.027 13.867,10.302 13.933,10.610 14.014 M16.272 13.970 C 16.540 14.161,16.529 14.604,16.252 14.785 C 16.205 14.816,15.923 14.907,15.625 14.988 C 15.056 15.144,14.905 15.155,14.747 15.051 C 14.467 14.868,14.465 14.401,14.742 14.219 C 14.786 14.190,15.068 14.100,15.369 14.017 C 15.962 13.855,16.100 13.848,16.272 13.970 M3.033 15.251 C 3.033 15.317,3.435 16.040,3.603 16.277 C 3.781 16.527,4.272 17.043,4.452 17.169 C 4.489 17.195,4.548 17.291,4.582 17.382 C 4.667 17.609,4.903 17.838,5.145 17.929 C 5.326 17.996,5.393 18.000,6.418 18.000 L 7.500 18.000 7.500 17.367 L 7.500 16.733 6.715 16.733 C 5.853 16.733,5.648 16.707,5.139 16.528 C 4.723 16.382,4.421 16.202,3.500 15.551 C 3.055 15.236,3.033 15.222,3.033 15.251 " fill="var(--db-icon-color, currentColor)" stroke="none" fill-rule="evenodd"></path></svg>