<svg id="icon" height="24" viewBox="0 0 24 24" width="24" xmlns="http://www.w3.org/2000/svg"><path d="M8.170 2.044 C 7.640 2.091,7.160 2.216,6.735 2.417 C 6.288 2.629,6.076 2.772,5.739 3.087 C 5.055 3.727,4.673 4.532,4.397 5.919 C 4.348 6.161,4.296 6.360,4.281 6.360 C 4.265 6.360,4.218 6.322,4.176 6.276 C 4.023 6.107,3.798 6.022,3.500 6.022 C 3.169 6.022,2.971 6.110,2.752 6.352 C 2.502 6.629,2.500 6.642,2.500 8.500 C 2.500 10.360,2.501 10.370,2.755 10.652 C 3.032 10.959,3.451 11.072,3.820 10.939 C 3.908 10.907,3.984 10.881,3.988 10.881 C 3.993 10.880,4.002 12.576,4.009 14.650 C 4.022 18.396,4.023 18.422,4.111 18.740 C 4.237 19.196,4.489 19.675,4.761 19.971 L 4.992 20.223 5.006 20.762 C 5.019 21.265,5.027 21.312,5.131 21.489 C 5.377 21.908,5.623 22.000,6.498 22.000 C 7.266 22.000,7.447 21.955,7.701 21.701 C 7.858 21.544,8.000 21.246,8.000 21.073 C 8.000 21.003,8.157 21.000,11.995 21.000 L 15.990 21.000 16.017 21.170 C 16.052 21.388,16.205 21.650,16.374 21.778 C 16.619 21.965,16.797 22.000,17.498 22.000 C 18.266 22.000,18.447 21.955,18.701 21.701 C 18.936 21.466,19.000 21.249,19.000 20.689 L 19.000 20.232 19.235 19.975 C 19.511 19.675,19.763 19.199,19.889 18.740 C 19.977 18.422,19.978 18.396,19.991 14.650 C 19.998 12.577,20.007 10.880,20.012 10.881 C 20.016 10.881,20.092 10.907,20.180 10.939 C 20.549 11.072,20.968 10.959,21.245 10.652 C 21.499 10.370,21.500 10.360,21.500 8.500 C 21.500 6.642,21.498 6.629,21.248 6.352 C 21.029 6.110,20.831 6.022,20.500 6.022 C 20.199 6.022,20.030 6.085,19.830 6.272 C 19.770 6.328,19.714 6.366,19.706 6.357 C 19.698 6.348,19.633 6.072,19.563 5.745 C 19.276 4.417,18.921 3.697,18.243 3.069 C 17.916 2.766,17.705 2.626,17.265 2.417 C 16.820 2.207,16.377 2.096,15.760 2.041 C 15.212 1.993,8.717 1.995,8.170 2.044 M16.040 4.086 C 16.741 4.280,17.199 4.737,17.436 5.480 C 17.482 5.623,17.627 6.274,17.759 6.927 L 18.000 8.114 18.000 10.472 L 18.000 12.831 17.870 12.854 C 17.314 12.953,15.125 13.168,13.960 13.239 C 13.110 13.291,10.890 13.291,10.040 13.239 C 8.875 13.168,6.686 12.953,6.130 12.854 L 6.000 12.831 6.000 10.464 L 6.000 8.097 6.280 6.759 C 6.506 5.681,6.587 5.364,6.699 5.129 C 6.996 4.503,7.536 4.129,8.271 4.041 C 8.419 4.023,10.178 4.012,12.180 4.017 C 15.296 4.024,15.852 4.034,16.040 4.086 M8.643 6.069 C 8.398 6.155,8.147 6.418,8.060 6.679 C 7.928 7.077,8.060 7.539,8.374 7.778 C 8.673 8.006,8.578 8.000,11.995 8.000 C 14.038 8.000,15.192 7.985,15.289 7.958 C 15.509 7.897,15.762 7.685,15.874 7.469 C 16.080 7.068,16.012 6.610,15.702 6.300 C 15.389 5.987,15.549 6.000,11.983 6.003 C 9.226 6.006,8.797 6.014,8.643 6.069 M8.380 15.118 C 9.827 15.246,10.561 15.279,12.000 15.279 C 13.792 15.279,15.371 15.179,17.270 14.946 L 18.000 14.856 18.000 15.308 C 18.000 15.567,17.984 15.760,17.962 15.760 C 17.780 15.760,15.852 16.018,15.687 16.064 C 14.941 16.274,14.766 17.336,15.401 17.796 C 15.715 18.024,15.821 18.030,16.958 17.889 C 17.518 17.820,17.985 17.771,17.994 17.781 C 18.004 17.791,17.991 17.927,17.965 18.083 C 17.886 18.559,17.756 18.747,17.403 18.890 L 17.180 18.980 12.160 18.993 C 8.588 19.002,7.065 18.993,6.879 18.961 C 6.370 18.873,6.110 18.612,6.040 18.117 C 6.020 17.977,6.008 17.858,6.014 17.852 C 6.020 17.847,6.492 17.880,7.062 17.926 C 8.225 18.021,8.311 18.014,8.606 17.789 C 9.037 17.460,9.119 16.828,8.789 16.394 C 8.547 16.077,8.411 16.037,7.226 15.934 C 6.651 15.884,6.140 15.843,6.090 15.842 C 6.002 15.840,6.000 15.831,6.000 15.348 L 6.000 14.856 6.730 14.946 C 7.131 14.995,7.874 15.072,8.380 15.118 " fill="var(--db-icon-color, currentColor)" stroke="none" fill-rule="evenodd"></path></svg>