<svg id="icon" height="24" viewBox="0 0 24 24" width="24" xmlns="http://www.w3.org/2000/svg"><path d="M5.860 6.106 C 4.630 6.299,3.546 6.984,2.898 7.978 C 2.524 8.552,2.325 9.145,2.083 10.412 C 2.006 10.810,2.000 10.989,2.001 12.692 C 2.001 14.199,2.012 14.587,2.062 14.796 C 2.224 15.487,2.749 16.013,3.424 16.164 C 4.177 16.333,4.826 15.621,4.584 14.891 C 4.505 14.655,4.292 14.391,4.122 14.321 L 4.000 14.270 4.000 12.640 C 4.000 10.896,4.007 10.812,4.226 9.940 C 4.369 9.369,4.524 9.074,4.859 8.736 C 5.303 8.286,5.794 8.080,6.418 8.080 C 6.907 8.080,7.525 8.263,8.730 8.765 C 10.945 9.687,12.605 10.835,14.286 12.606 L 14.859 13.210 14.464 13.975 C 14.247 14.396,14.035 14.797,13.993 14.867 L 13.917 14.994 12.828 15.007 C 11.794 15.019,11.732 15.024,11.574 15.109 C 10.863 15.489,10.863 16.511,11.574 16.891 C 11.735 16.978,11.780 16.980,13.208 16.992 C 14.627 17.003,14.683 17.001,14.873 16.919 C 14.980 16.873,15.132 16.769,15.209 16.688 C 15.286 16.606,15.561 16.166,15.819 15.708 C 16.670 14.197,17.028 13.344,16.989 12.917 C 16.978 12.794,16.939 12.636,16.903 12.565 C 16.715 12.202,15.214 10.633,14.320 9.865 C 12.575 8.367,10.875 7.399,8.474 6.537 C 7.410 6.155,7.235 6.115,6.560 6.100 C 6.241 6.093,5.926 6.095,5.860 6.106 M6.362 9.244 C 5.905 9.333,5.441 9.720,5.282 10.143 C 5.156 10.480,4.973 12.046,5.034 12.264 C 5.100 12.499,5.287 12.737,5.508 12.867 C 5.673 12.964,5.743 12.980,6.000 12.980 C 6.257 12.980,6.327 12.964,6.492 12.867 C 6.839 12.663,6.953 12.433,7.042 11.756 L 7.087 11.412 8.204 11.864 C 8.819 12.113,9.410 12.375,9.518 12.448 C 9.625 12.521,10.038 12.854,10.434 13.189 C 10.830 13.525,11.217 13.836,11.295 13.882 C 11.598 14.061,12.065 14.018,12.373 13.783 C 12.734 13.507,12.850 12.938,12.626 12.540 C 12.541 12.389,12.321 12.177,11.722 11.667 C 10.811 10.892,10.667 10.784,10.247 10.567 C 9.841 10.357,7.281 9.322,7.000 9.254 C 6.754 9.195,6.622 9.193,6.362 9.244 M6.960 14.062 C 6.542 14.151,6.069 14.414,5.741 14.739 C 4.759 15.714,4.759 17.277,5.742 18.264 C 6.710 19.237,8.288 19.236,9.262 18.262 C 10.237 17.287,10.237 15.703,9.262 14.740 C 8.649 14.135,7.795 13.884,6.960 14.062 M20.506 14.042 C 20.122 14.106,19.770 14.244,19.220 14.544 C 18.480 14.948,18.442 14.962,18.031 15.001 C 17.761 15.026,17.634 15.059,17.497 15.140 C 16.764 15.569,16.874 16.655,17.678 16.939 C 18.009 17.056,18.664 16.991,19.200 16.789 C 19.343 16.735,19.622 16.601,19.820 16.491 C 20.540 16.091,20.669 16.038,21.007 15.999 C 21.506 15.942,21.794 15.733,21.939 15.322 C 22.066 14.964,21.974 14.572,21.701 14.299 C 21.431 14.028,21.061 13.949,20.506 14.042 M7.724 16.062 C 7.872 16.139,8.000 16.341,8.000 16.500 C 8.000 16.748,7.748 17.000,7.500 17.000 C 7.256 17.000,7.000 16.748,7.000 16.508 C 7.000 16.257,7.248 16.000,7.492 16.000 C 7.554 16.000,7.658 16.028,7.724 16.062 " fill="var(--db-icon-color, currentColor)" stroke="none" fill-rule="evenodd"></path></svg>