<svg id="icon" height="24" viewBox="0 0 24 24" width="24" xmlns="http://www.w3.org/2000/svg"><path d="M8.647 3.624 C 8.310 3.792,8.114 4.117,8.114 4.509 C 8.114 4.797,8.272 5.125,8.483 5.278 C 8.568 5.339,9.359 5.772,10.241 6.240 C 11.123 6.708,11.830 7.104,11.813 7.119 C 11.795 7.135,10.918 7.415,9.864 7.740 L 7.948 8.333 7.512 7.886 C 6.992 7.353,6.842 7.263,6.480 7.263 C 6.172 7.263,5.961 7.358,5.761 7.585 C 5.497 7.886,5.432 8.291,5.592 8.652 C 5.694 8.883,6.961 10.220,7.216 10.366 C 7.348 10.441,7.435 10.459,7.660 10.456 C 7.912 10.453,8.588 10.251,14.397 8.445 C 17.949 7.341,20.928 6.398,21.017 6.348 C 21.219 6.237,21.419 5.946,21.476 5.681 C 21.612 5.047,21.040 4.409,20.414 4.495 C 20.322 4.507,18.970 4.914,17.409 5.398 L 14.571 6.278 12.236 5.035 C 9.283 3.462,9.403 3.520,9.099 3.520 C 8.917 3.520,8.803 3.546,8.647 3.624 M2.486 12.040 C 2.294 12.123,2.149 12.256,2.076 12.416 C 2.013 12.556,2.002 12.684,2.001 13.284 L 2.000 13.988 2.610 14.014 C 4.960 14.118,7.209 14.847,9.192 16.149 C 9.776 16.532,9.903 16.737,9.798 17.129 C 9.736 17.359,9.184 17.900,8.945 17.964 C 8.745 18.018,8.694 18.010,7.840 17.789 C 6.624 17.474,5.684 17.377,3.411 17.334 L 2.000 17.307 2.000 19.361 C 2.000 21.372,2.002 21.418,2.085 21.590 C 2.136 21.696,2.234 21.808,2.332 21.873 L 2.494 21.980 5.837 21.993 C 9.324 22.006,10.032 21.984,10.920 21.838 C 11.619 21.722,12.095 21.580,12.589 21.339 C 13.298 20.993,13.694 20.552,13.912 19.865 C 14.016 19.539,14.003 18.779,13.886 18.406 C 13.755 17.987,13.403 17.320,13.091 16.900 C 12.748 16.437,11.779 15.464,11.240 15.040 C 9.270 13.492,6.868 12.440,4.520 12.099 C 3.998 12.023,2.617 11.983,2.486 12.040 " fill="var(--db-icon-color, currentColor)" stroke="none" fill-rule="evenodd"></path></svg>