<svg id="icon" height="24" viewBox="0 0 24 24" width="24" xmlns="http://www.w3.org/2000/svg"><path d="M6.971 3.100 C 6.571 3.187,6.181 3.414,5.833 3.763 C 5.331 4.267,5.291 4.376,4.741 6.740 C 4.485 7.840,4.258 8.807,4.237 8.888 L 4.198 9.036 3.302 9.048 C 2.470 9.059,2.398 9.066,2.295 9.142 C 2.046 9.329,2.021 9.401,2.008 9.973 C 1.996 10.463,2.002 10.512,2.090 10.678 C 2.243 10.966,2.428 11.040,2.999 11.040 L 3.465 11.040 3.449 11.390 C 3.432 11.773,3.793 15.024,3.900 15.448 C 3.931 15.573,4.016 15.798,4.088 15.948 L 4.218 16.220 4.239 17.240 C 4.259 18.194,4.266 18.271,4.348 18.425 C 4.461 18.636,4.633 18.808,4.827 18.904 C 4.962 18.971,5.074 18.980,5.760 18.980 C 6.483 18.980,6.552 18.974,6.700 18.894 C 6.909 18.781,7.056 18.622,7.157 18.400 C 7.233 18.231,7.238 18.141,7.239 16.975 L 7.240 15.730 7.090 15.706 C 7.008 15.692,6.870 15.681,6.785 15.680 C 6.428 15.679,6.077 15.467,5.919 15.157 C 5.841 15.006,5.762 14.589,5.761 14.325 L 5.760 14.189 5.930 14.215 C 6.626 14.320,6.911 14.274,7.181 14.011 C 7.611 13.594,7.595 12.922,7.148 12.539 C 6.953 12.372,6.768 12.315,6.034 12.197 L 5.487 12.109 5.460 11.802 C 5.428 11.443,5.488 11.249,5.665 11.133 C 5.771 11.064,6.012 11.059,10.519 11.040 L 15.262 11.020 15.461 10.918 C 16.162 10.557,16.162 9.523,15.461 9.162 L 15.262 9.060 10.771 9.049 C 7.557 9.042,6.280 9.027,6.280 8.995 C 6.280 8.878,7.127 5.343,7.179 5.242 C 7.313 4.982,6.962 5.000,11.971 5.000 C 16.980 5.000,16.688 4.985,16.822 5.243 C 16.856 5.310,17.001 5.868,17.143 6.483 C 17.286 7.098,17.418 7.643,17.438 7.696 C 17.496 7.846,17.717 8.077,17.896 8.171 C 18.110 8.285,18.594 8.294,18.789 8.189 C 19.077 8.033,19.308 7.710,19.349 7.403 C 19.369 7.252,18.869 5.035,18.718 4.604 C 18.529 4.068,18.061 3.549,17.543 3.301 C 16.979 3.031,17.157 3.040,11.932 3.043 C 8.131 3.046,7.172 3.057,6.971 3.100 M19.320 9.284 C 19.265 9.306,18.121 10.421,16.778 11.763 L 14.337 14.203 14.058 14.133 C 13.845 14.079,13.620 14.063,13.100 14.064 C 12.477 14.066,12.390 14.075,12.060 14.175 C 10.891 14.530,10.015 15.274,9.518 16.335 C 8.480 18.551,9.669 21.178,12.018 21.858 C 12.781 22.079,13.497 22.080,14.256 21.860 C 15.309 21.555,16.222 20.796,16.709 19.820 C 17.187 18.862,17.258 17.680,16.896 16.677 L 16.798 16.404 17.129 16.090 C 17.311 15.917,17.557 15.686,17.676 15.578 C 17.975 15.303,18.000 15.226,18.000 14.563 L 18.000 14.004 18.859 13.992 L 19.719 13.980 19.849 13.849 L 19.980 13.719 19.992 12.859 L 20.004 12.000 20.764 12.000 C 21.609 12.000,21.701 11.978,21.842 11.748 C 21.913 11.630,21.920 11.541,21.920 10.640 C 21.920 9.175,21.987 9.239,20.460 9.243 C 19.885 9.244,19.375 9.263,19.320 9.284 M13.221 17.190 C 13.483 17.323,13.787 17.619,13.912 17.864 C 14.287 18.602,13.951 19.553,13.191 19.904 C 12.970 20.006,12.895 20.020,12.560 20.020 C 12.232 20.020,12.149 20.005,11.953 19.914 C 11.650 19.771,11.400 19.534,11.236 19.230 C 11.105 18.989,11.100 18.964,11.100 18.540 C 11.100 18.136,11.109 18.083,11.211 17.889 C 11.519 17.305,11.994 17.027,12.640 17.055 C 12.922 17.066,13.021 17.090,13.221 17.190 " fill="var(--db-icon-color, currentColor)" stroke="none" fill-rule="evenodd"></path></svg>