<svg id="icon" height="20" viewBox="0 0 20 20" width="20" xmlns="http://www.w3.org/2000/svg"><path d="M13.917 2.047 C 13.164 2.236,12.669 2.952,12.772 3.704 C 12.874 4.450,13.620 5.053,14.363 4.990 C 15.239 4.917,15.867 4.130,15.733 3.275 C 15.596 2.406,14.755 1.838,13.917 2.047 M13.700 5.889 C 13.617 5.917,12.923 6.226,12.157 6.575 C 10.648 7.263,10.532 7.333,10.408 7.624 C 10.332 7.804,10.000 9.733,10.000 9.997 C 10.000 10.355,10.238 10.732,10.571 10.902 C 10.790 11.014,11.099 11.026,11.348 10.932 C 11.590 10.840,11.831 10.612,11.914 10.394 C 11.946 10.310,12.020 9.909,12.078 9.502 L 12.183 8.762 12.561 8.595 C 12.769 8.503,12.946 8.435,12.954 8.443 C 12.963 8.452,12.922 9.049,12.863 9.771 L 12.755 11.083 12.064 12.467 C 11.684 13.227,11.099 14.383,10.764 15.033 L 10.154 16.217 10.153 16.500 C 10.151 16.745,10.163 16.807,10.240 16.953 C 10.466 17.384,10.947 17.588,11.416 17.452 C 11.572 17.406,11.647 17.358,11.797 17.206 C 11.972 17.028,12.045 16.890,12.965 15.007 L 13.946 12.997 14.537 13.587 L 15.128 14.178 15.619 15.514 C 15.888 16.249,16.137 16.906,16.171 16.974 C 16.258 17.147,16.449 17.329,16.630 17.412 C 16.851 17.513,17.260 17.511,17.468 17.409 C 17.664 17.312,17.878 17.098,17.974 16.904 C 18.034 16.783,18.050 16.696,18.048 16.500 C 18.046 16.264,18.016 16.167,17.506 14.740 C 17.209 13.910,16.937 13.173,16.901 13.103 C 16.858 13.018,16.495 12.669,15.818 12.063 L 14.800 11.150 14.801 11.000 C 14.802 10.768,14.959 8.630,14.976 8.613 C 14.985 8.604,15.350 8.832,15.788 9.120 C 16.225 9.408,16.651 9.674,16.733 9.711 C 16.949 9.807,17.295 9.803,17.526 9.702 C 17.766 9.596,18.004 9.332,18.082 9.083 C 18.195 8.725,18.083 8.323,17.793 8.047 C 17.714 7.971,17.297 7.687,16.867 7.415 C 16.436 7.143,15.776 6.726,15.400 6.489 C 14.514 5.929,14.315 5.833,14.051 5.836 C 13.940 5.837,13.783 5.861,13.700 5.889 M2.678 9.061 C 2.368 9.169,2.164 9.376,2.051 9.696 C 1.883 10.174,2.159 10.747,2.645 10.929 C 2.832 10.999,2.873 11.000,4.847 11.000 C 7.150 11.000,7.076 11.008,7.386 10.725 C 7.626 10.506,7.712 10.282,7.692 9.933 C 7.670 9.549,7.493 9.283,7.133 9.095 L 6.983 9.017 4.917 9.009 C 2.998 9.001,2.838 9.005,2.678 9.061 M4.678 12.061 C 4.368 12.169,4.164 12.376,4.051 12.696 C 3.883 13.174,4.159 13.747,4.645 13.929 C 4.831 13.998,4.880 14.000,6.500 14.000 C 8.120 14.000,8.169 13.998,8.355 13.929 C 8.479 13.882,8.601 13.802,8.702 13.702 C 9.184 13.219,9.052 12.411,8.441 12.110 L 8.250 12.017 6.550 12.009 C 4.985 12.002,4.836 12.006,4.678 12.061 " fill="var(--db-icon-color, currentColor)" stroke="none" fill-rule="evenodd"></path></svg>