<svg id="icon" height="32" viewBox="0 0 32 32" width="32" xmlns="http://www.w3.org/2000/svg"><path d="M12.240 5.074 C 10.910 5.136,9.541 5.265,9.153 5.365 C 8.635 5.499,8.016 5.850,7.647 6.218 C 7.112 6.752,7.037 6.960,6.206 10.173 L 5.471 13.013 4.120 13.013 C 2.884 13.013,2.752 13.022,2.565 13.118 C 2.125 13.342,1.972 13.706,1.975 14.523 C 1.976 15.072,2.048 15.388,2.223 15.618 C 2.449 15.914,2.708 15.997,3.400 15.999 L 4.000 16.000 4.000 16.441 C 4.000 17.088,4.095 18.451,4.217 19.547 C 4.419 21.367,4.544 21.930,4.852 22.416 L 5.007 22.661 5.024 24.144 L 5.040 25.627 5.189 25.930 C 5.408 26.376,5.833 26.744,6.290 26.883 C 6.626 26.985,6.763 26.992,8.141 26.976 L 9.629 26.960 9.983 26.786 C 10.390 26.585,10.624 26.343,10.820 25.922 C 10.938 25.669,10.960 25.536,10.978 24.996 C 10.996 24.440,11.008 24.370,11.085 24.400 C 11.227 24.454,16.331 24.546,17.179 24.509 L 17.958 24.475 17.995 24.967 C 18.015 25.238,18.080 25.601,18.138 25.774 C 18.475 26.776,19.532 27.734,20.533 27.946 C 20.742 27.990,21.653 28.003,23.680 27.990 C 26.484 27.974,26.539 27.971,26.850 27.854 C 27.762 27.510,28.527 26.749,28.862 25.852 L 28.986 25.520 29.001 20.760 C 29.015 16.559,29.026 16.000,29.097 16.000 C 29.395 16.000,29.878 15.554,29.976 15.188 C 30.064 14.862,30.019 13.831,29.908 13.623 C 29.768 13.361,29.484 13.118,29.244 13.053 C 29.027 12.995,29.020 12.986,28.984 12.723 C 28.832 11.606,27.801 10.441,26.670 10.111 C 26.511 10.065,26.300 10.027,26.202 10.027 C 26.021 10.027,26.008 10.012,25.949 9.744 C 25.902 9.527,25.516 9.131,25.287 9.064 C 25.162 9.027,24.484 9.013,23.383 9.023 L 21.672 9.040 21.451 9.186 C 21.223 9.338,21.073 9.561,21.016 9.840 C 20.985 9.989,20.961 10.003,20.683 10.037 C 20.043 10.117,19.372 10.495,18.809 11.091 C 18.407 11.518,18.094 12.103,18.045 12.520 L 18.012 12.800 16.379 12.800 C 14.775 12.800,12.127 12.858,9.123 12.959 C 8.288 12.987,7.594 12.999,7.580 12.985 C 7.566 12.971,7.849 11.825,8.208 10.440 C 8.906 7.743,8.957 7.604,9.320 7.421 C 9.603 7.278,9.702 7.263,10.995 7.174 C 13.895 6.973,17.509 6.963,20.587 7.147 C 22.446 7.258,22.553 7.281,23.018 7.684 C 23.314 7.940,23.451 8.000,23.739 8.000 C 24.171 8.000,24.569 7.689,24.701 7.250 C 24.781 6.982,24.702 6.625,24.505 6.367 C 24.210 5.980,23.451 5.518,22.857 5.363 C 22.557 5.285,21.253 5.165,19.627 5.067 C 18.596 5.005,13.631 5.009,12.240 5.074 M26.405 12.123 C 26.549 12.199,26.707 12.345,26.813 12.502 L 26.987 12.759 26.987 19.021 C 26.987 25.155,26.984 25.289,26.881 25.491 C 26.753 25.743,26.550 25.894,26.236 25.973 C 26.075 26.013,25.160 26.027,23.360 26.016 C 20.380 25.998,20.450 26.007,20.169 25.582 L 20.027 25.368 20.011 19.151 C 20.000 14.966,20.013 12.871,20.050 12.742 C 20.115 12.518,20.427 12.178,20.662 12.076 C 20.792 12.019,21.381 12.004,23.498 12.002 L 26.170 12.000 26.405 12.123 M17.973 16.907 L 17.973 18.988 15.539 18.974 L 13.104 18.960 13.016 18.521 C 12.968 18.279,12.879 18.015,12.819 17.934 C 12.443 17.426,11.740 17.367,11.300 17.807 C 10.977 18.130,10.955 18.316,11.119 19.326 C 11.196 19.799,11.298 20.278,11.345 20.389 C 11.455 20.645,11.724 20.884,11.985 20.957 C 12.114 20.993,13.226 21.013,15.080 21.013 L 17.973 21.013 17.973 21.767 L 17.973 22.521 14.920 22.491 C 11.185 22.454,9.906 22.365,8.213 22.026 C 6.952 21.773,6.708 21.672,6.531 21.329 C 6.466 21.204,6.158 18.830,6.202 18.796 C 6.208 18.791,6.549 18.831,6.960 18.885 C 8.189 19.046,8.409 19.016,8.731 18.649 C 8.878 18.482,9.013 18.172,9.013 18.000 C 9.013 17.670,8.658 17.168,8.356 17.071 C 8.263 17.041,7.791 16.968,7.307 16.908 C 6.823 16.848,6.337 16.785,6.227 16.768 L 6.027 16.737 6.027 16.302 C 6.027 16.063,6.052 15.778,6.082 15.669 C 6.152 15.418,6.381 15.188,6.646 15.102 C 6.780 15.059,7.661 15.008,9.147 14.958 C 12.344 14.851,12.358 14.851,15.320 14.838 L 17.973 14.827 17.973 16.907 M23.747 15.036 C 23.332 15.140,23.245 15.267,22.343 17.075 C 21.428 18.910,21.406 18.979,21.594 19.387 C 21.777 19.783,22.137 20.000,22.612 20.000 L 22.881 20.000 22.462 20.840 C 22.231 21.302,22.028 21.757,22.010 21.850 C 21.992 21.945,22.012 22.137,22.056 22.284 C 22.248 22.932,22.996 23.188,23.576 22.804 C 23.764 22.680,23.871 22.494,24.645 20.947 C 25.501 19.235,25.504 19.227,25.482 18.922 C 25.443 18.381,25.042 18.027,24.467 18.027 C 24.298 18.027,24.160 18.004,24.160 17.976 C 24.160 17.948,24.352 17.537,24.587 17.063 C 25.060 16.108,25.090 15.961,24.893 15.572 C 24.682 15.154,24.192 14.925,23.747 15.036 M7.481 23.927 C 7.692 23.975,8.116 24.054,8.425 24.103 L 8.987 24.193 9.002 24.603 L 9.018 25.013 8.002 25.013 L 6.987 25.013 6.987 24.427 C 6.987 24.052,7.007 23.840,7.043 23.840 C 7.074 23.840,7.271 23.879,7.481 23.927 " fill="var(--db-icon-color, currentColor)" stroke="none" fill-rule="evenodd"></path></svg>