<svg id="icon" height="32" viewBox="0 0 32 32" width="32" xmlns="http://www.w3.org/2000/svg"><path d="M21.770 7.274 C 20.473 7.570,20.339 7.624,20.123 7.942 C 19.896 8.275,19.908 8.489,20.206 9.448 C 20.355 9.927,20.459 10.332,20.438 10.350 C 20.354 10.419,13.585 11.953,13.547 11.911 C 13.511 11.872,12.960 10.141,12.960 10.068 C 12.960 10.052,13.242 10.030,13.587 10.017 C 14.310 9.992,14.534 9.911,14.797 9.582 C 14.942 9.399,14.960 9.338,14.960 9.018 C 14.960 8.570,14.797 8.286,14.440 8.113 C 14.213 8.003,14.139 8.000,12.000 8.000 C 9.861 8.000,9.787 8.003,9.560 8.113 C 8.986 8.391,8.832 9.180,9.260 9.654 C 9.493 9.911,9.705 9.984,10.340 10.023 L 10.841 10.053 11.288 11.461 C 11.674 12.672,11.726 12.880,11.664 12.954 C 11.624 13.001,11.274 13.427,10.887 13.900 L 10.183 14.760 9.757 14.576 C 8.186 13.897,6.531 13.932,5.040 14.678 C 3.017 15.689,1.785 17.911,2.027 20.111 C 2.171 21.421,2.710 22.557,3.616 23.462 C 4.670 24.515,6.001 25.067,7.486 25.067 C 9.044 25.067,10.300 24.538,11.413 23.414 C 13.250 21.560,13.524 18.722,12.076 16.557 L 11.732 16.041 12.090 15.597 C 12.287 15.353,12.465 15.164,12.485 15.176 C 12.505 15.189,12.538 15.265,12.558 15.346 C 12.578 15.427,12.931 16.521,13.342 17.778 C 14.160 20.273,14.191 20.338,14.639 20.509 C 14.822 20.579,15.005 20.594,15.476 20.579 C 16.002 20.562,16.118 20.541,16.375 20.415 C 16.537 20.335,16.733 20.203,16.810 20.122 C 16.886 20.040,17.939 18.509,19.149 16.720 C 20.359 14.931,21.368 13.446,21.390 13.421 C 21.423 13.383,21.814 14.507,21.834 14.700 C 21.837 14.732,21.651 14.886,21.420 15.041 C 19.824 16.113,18.872 18.049,19.011 19.939 C 19.200 22.519,21.084 24.582,23.649 25.018 C 24.241 25.119,25.363 25.053,25.947 24.884 C 29.289 23.917,30.943 20.281,29.442 17.200 C 28.612 15.498,27.033 14.367,25.154 14.131 C 24.854 14.094,24.440 14.080,24.194 14.099 L 23.760 14.132 23.002 11.695 C 22.517 10.137,22.264 9.245,22.300 9.223 C 22.331 9.204,22.564 9.145,22.818 9.093 C 23.365 8.981,23.606 8.890,23.780 8.731 C 23.951 8.573,24.104 8.229,24.105 7.998 C 24.108 7.555,23.682 7.080,23.227 7.019 C 23.078 6.999,22.638 7.076,21.770 7.274 M19.458 12.683 C 19.381 12.868,15.651 18.285,15.622 18.254 C 15.563 18.192,14.175 13.913,14.204 13.885 C 14.225 13.864,19.287 12.664,19.431 12.646 C 19.456 12.643,19.468 12.659,19.458 12.683 M8.400 16.213 C 8.630 16.272,8.829 16.331,8.842 16.344 C 8.855 16.357,8.401 16.933,7.833 17.624 C 7.265 18.315,6.755 18.985,6.700 19.113 C 6.433 19.732,6.930 20.446,7.627 20.446 C 8.079 20.446,8.189 20.350,9.341 18.948 L 10.414 17.642 10.563 17.901 C 10.942 18.562,11.081 19.521,10.913 20.320 C 10.734 21.177,10.172 21.992,9.409 22.503 C 8.808 22.905,8.287 23.058,7.520 23.060 C 6.807 23.061,6.490 22.983,5.843 22.649 C 4.680 22.049,3.934 20.714,4.021 19.387 C 4.082 18.449,4.380 17.801,5.064 17.119 C 5.560 16.625,6.056 16.335,6.652 16.190 C 7.121 16.077,7.906 16.087,8.400 16.213 M25.324 16.188 C 25.942 16.333,26.432 16.616,26.936 17.119 C 27.424 17.604,27.689 18.035,27.871 18.640 C 28.005 19.084,28.006 20.066,27.873 20.507 C 27.594 21.436,26.949 22.241,26.157 22.649 C 25.510 22.983,25.193 23.061,24.480 23.060 C 23.958 23.059,23.801 23.037,23.429 22.914 C 22.562 22.629,21.801 21.972,21.390 21.156 C 21.099 20.578,20.995 20.071,21.029 19.387 C 21.060 18.759,21.189 18.327,21.505 17.791 C 21.696 17.466,22.343 16.747,22.444 16.747 C 22.464 16.747,22.704 17.461,22.977 18.333 C 23.285 19.316,23.522 19.983,23.601 20.086 C 23.990 20.596,24.810 20.556,25.197 20.008 C 25.450 19.650,25.425 19.439,24.947 17.920 C 24.721 17.201,24.502 16.499,24.460 16.360 L 24.384 16.107 24.685 16.107 C 24.851 16.108,25.138 16.144,25.324 16.188 " fill="var(--db-icon-color, currentColor)" stroke="none" fill-rule="evenodd"></path></svg>