<svg id="icon" height="32" viewBox="0 0 32 32" width="32" xmlns="http://www.w3.org/2000/svg"><path d="M12.286 2.110 C 10.660 2.384,8.966 3.354,7.861 4.646 C 6.936 5.728,6.358 6.932,6.093 8.335 C 6.007 8.787,6.000 9.396,6.000 15.947 C 6.000 22.640,6.006 23.100,6.099 23.627 C 6.594 26.433,8.576 28.708,11.305 29.601 C 12.492 29.990,12.614 30.000,16.000 30.000 C 19.386 30.000,19.508 29.990,20.695 29.601 C 21.798 29.240,22.784 28.656,23.606 27.878 C 24.844 26.707,25.578 25.343,25.909 23.600 C 25.992 23.162,26.000 22.489,26.000 15.947 C 26.000 7.942,26.024 8.490,25.623 7.250 C 24.777 4.630,22.361 2.544,19.667 2.107 C 18.982 1.996,12.950 1.999,12.286 2.110 M19.627 4.125 C 19.817 4.175,20.090 4.256,20.232 4.307 L 20.490 4.398 20.457 4.959 C 20.439 5.268,20.340 7.668,20.235 10.293 C 20.059 14.732,20.038 15.082,19.939 15.291 C 19.879 15.417,19.753 15.565,19.652 15.628 C 19.332 15.825,17.732 16.110,16.507 16.188 C 15.583 16.247,13.499 16.016,12.659 15.762 C 12.336 15.665,12.093 15.437,12.008 15.152 C 11.910 14.826,11.503 4.417,11.586 4.366 C 11.688 4.302,12.437 4.109,12.782 4.057 C 12.953 4.031,14.485 4.015,16.187 4.022 C 18.898 4.033,19.323 4.045,19.627 4.125 M9.762 10.613 C 9.870 13.472,9.952 15.096,10.002 15.356 C 10.175 16.269,10.810 17.116,11.603 17.495 C 12.292 17.824,14.126 18.132,15.627 18.171 C 16.867 18.203,17.832 18.114,19.151 17.847 C 20.271 17.621,20.622 17.460,21.160 16.928 C 21.612 16.481,21.879 15.980,21.999 15.356 C 22.050 15.092,22.130 13.521,22.239 10.640 C 22.329 8.264,22.415 6.194,22.432 6.040 L 22.461 5.760 22.719 6.063 C 23.221 6.650,23.625 7.445,23.855 8.293 C 23.970 8.719,23.970 8.740,23.987 15.500 L 24.003 22.280 23.402 22.446 C 22.399 22.722,20.243 23.236,19.253 23.435 C 17.969 23.692,17.392 23.748,16.000 23.748 C 15.340 23.748,14.548 23.720,14.240 23.685 C 12.939 23.539,9.712 22.782,8.385 22.312 L 7.997 22.175 8.012 15.447 L 8.028 8.720 8.168 8.211 C 8.390 7.405,8.850 6.535,9.346 5.980 L 9.520 5.785 9.559 6.026 C 9.580 6.158,9.671 8.223,9.762 10.613 M10.853 19.391 C 10.605 19.520,10.464 19.676,10.368 19.927 C 10.202 20.362,10.354 20.844,10.742 21.109 C 10.956 21.256,13.111 21.724,13.404 21.688 C 13.865 21.631,14.240 21.199,14.240 20.726 C 14.240 20.417,14.166 20.227,13.963 20.017 C 13.745 19.791,13.684 19.770,12.502 19.521 C 11.391 19.287,11.097 19.264,10.853 19.391 M19.440 19.540 C 18.343 19.787,18.283 19.809,18.073 20.035 C 17.866 20.259,17.807 20.402,17.805 20.688 C 17.801 21.177,18.162 21.613,18.634 21.689 C 18.768 21.711,19.202 21.640,20.014 21.462 C 21.135 21.217,21.210 21.194,21.407 21.015 C 21.522 20.911,21.649 20.749,21.688 20.655 C 21.852 20.263,21.709 19.756,21.358 19.488 C 21.047 19.251,20.677 19.261,19.440 19.540 M12.507 25.433 C 13.686 25.675,14.300 25.728,15.947 25.731 C 16.932 25.732,17.729 25.707,18.080 25.664 C 18.847 25.569,20.162 25.299,22.000 24.860 C 22.851 24.656,23.555 24.498,23.565 24.508 C 23.575 24.517,23.485 24.713,23.365 24.943 C 22.792 26.039,21.889 26.894,20.727 27.443 C 20.091 27.743,19.967 27.773,19.924 27.639 C 19.869 27.466,19.513 27.149,19.302 27.086 C 19.147 27.039,18.920 27.048,18.259 27.126 C 17.083 27.264,14.917 27.264,13.741 27.126 C 13.080 27.048,12.853 27.039,12.698 27.086 C 12.487 27.149,12.131 27.466,12.076 27.639 C 12.033 27.773,11.909 27.743,11.273 27.443 C 10.114 26.896,9.208 26.038,8.640 24.952 C 8.523 24.727,8.427 24.521,8.427 24.492 C 8.427 24.464,9.225 24.639,10.200 24.882 C 11.175 25.124,12.213 25.372,12.507 25.433 " fill="var(--db-icon-color, currentColor)" stroke="none" fill-rule="evenodd"></path></svg>