<svg id="icon" height="24" viewBox="0 0 24 24" width="24" xmlns="http://www.w3.org/2000/svg"><path d="M17.760 4.035 C 17.459 4.134,17.214 4.354,17.100 4.626 C 17.067 4.705,17.040 4.873,17.040 5.000 C 17.040 5.525,17.405 5.928,17.933 5.988 C 18.207 6.019,18.350 6.096,18.422 6.252 C 18.486 6.392,19.893 14.268,19.866 14.338 C 19.857 14.362,19.492 14.523,19.055 14.697 C 18.051 15.095,17.928 15.157,17.749 15.355 C 17.574 15.549,17.459 15.897,17.499 16.110 C 17.606 16.679,18.092 17.059,18.621 16.986 C 18.716 16.973,19.405 16.718,20.152 16.419 C 21.599 15.840,21.762 15.750,21.920 15.439 C 21.963 15.356,22.008 15.218,22.021 15.134 C 22.046 14.966,20.454 5.956,20.347 5.656 C 20.077 4.904,19.472 4.327,18.721 4.104 C 18.464 4.028,17.903 3.987,17.760 4.035 M2.643 9.069 C 2.290 9.193,2.000 9.614,2.000 10.001 C 2.000 10.441,2.348 10.863,2.796 10.967 L 3.000 11.014 3.001 11.957 C 3.001 12.650,3.017 12.967,3.061 13.152 C 3.126 13.428,3.288 13.782,3.473 14.049 C 3.631 14.278,4.018 14.641,4.240 14.769 C 4.660 15.011,4.379 15.000,9.919 15.000 C 15.491 15.000,15.183 15.013,15.719 14.752 C 16.100 14.567,16.503 14.149,16.715 13.718 C 16.959 13.222,16.998 12.974,16.999 11.918 L 17.000 11.016 17.233 10.968 C 17.981 10.813,18.252 9.850,17.702 9.300 C 17.377 8.975,18.028 9.000,9.983 9.003 C 3.602 9.006,2.801 9.013,2.643 9.069 M15.000 11.810 C 15.000 12.543,14.992 12.632,14.922 12.748 C 14.758 13.017,15.083 13.000,10.001 13.000 C 6.050 13.000,5.378 12.992,5.257 12.941 C 5.027 12.845,5.000 12.724,5.000 11.801 L 5.000 11.000 10.000 11.000 L 15.000 11.000 15.000 11.810 M4.580 16.047 C 4.236 16.113,3.883 16.310,3.596 16.596 C 2.800 17.393,2.800 18.607,3.596 19.404 C 4.393 20.200,5.607 20.200,6.404 19.404 C 7.200 18.607,7.200 17.393,6.404 16.596 C 5.913 16.106,5.277 15.914,4.580 16.047 M14.580 16.047 C 13.707 16.214,13.000 17.087,13.000 18.000 C 13.000 18.920,13.690 19.768,14.592 19.956 C 15.816 20.211,17.000 19.249,17.000 18.000 C 17.000 17.477,16.790 16.983,16.404 16.596 C 15.913 16.106,15.277 15.914,14.580 16.047 M9.320 16.342 C 8.924 16.426,8.524 16.596,8.347 16.756 C 8.013 17.057,7.912 17.514,8.095 17.900 C 8.341 18.419,8.909 18.634,9.420 18.402 C 9.540 18.347,9.732 18.303,9.900 18.291 C 10.136 18.274,10.230 18.288,10.500 18.382 C 11.160 18.613,11.646 18.446,11.905 17.900 C 12.163 17.355,11.875 16.767,11.223 16.506 C 10.679 16.288,9.892 16.220,9.320 16.342 " fill="var(--db-icon-color, currentColor)" stroke="none" fill-rule="evenodd"></path></svg>