<svg id="icon" height="32" viewBox="0 0 32 32" width="32" xmlns="http://www.w3.org/2000/svg"><path d="M12.673 3.065 C 12.410 3.159,12.126 3.433,12.048 3.669 C 11.961 3.932,12.015 4.336,12.165 4.559 C 12.238 4.666,12.408 4.806,12.557 4.881 L 12.821 5.013 15.944 5.013 C 18.058 5.013,19.136 4.994,19.280 4.954 C 19.565 4.875,19.856 4.563,19.947 4.239 C 20.011 4.009,20.008 3.953,19.916 3.689 C 19.797 3.350,19.543 3.112,19.220 3.037 C 19.106 3.011,17.633 2.990,15.947 2.990 C 13.475 2.991,12.840 3.006,12.673 3.065 M8.753 6.111 C 8.015 6.309,7.220 6.962,6.894 7.637 C 6.770 7.895,6.522 8.796,6.000 10.890 C 5.603 12.483,5.255 13.841,5.227 13.907 C 5.176 14.026,5.170 14.027,3.946 14.027 C 2.593 14.027,2.472 14.049,2.228 14.339 C 2.031 14.573,1.954 15.002,1.987 15.691 C 2.010 16.182,2.033 16.295,2.153 16.500 C 2.387 16.899,2.584 16.983,3.333 17.005 L 3.973 17.024 3.987 17.592 C 3.994 17.904,4.097 19.168,4.215 20.400 C 4.444 22.796,4.507 23.139,4.817 23.680 L 4.985 23.973 5.013 25.733 C 5.039 27.426,5.045 27.504,5.162 27.760 C 5.355 28.178,5.535 28.406,5.832 28.605 C 6.354 28.956,6.533 28.987,8.027 28.985 C 9.240 28.983,9.390 28.972,9.695 28.870 C 10.251 28.682,10.629 28.329,10.855 27.787 C 10.940 27.585,10.959 27.370,10.976 26.433 L 10.996 25.319 11.591 25.355 C 14.686 25.542,17.238 25.542,20.408 25.355 L 21.004 25.319 21.024 26.406 C 21.041 27.317,21.061 27.532,21.145 27.733 C 21.385 28.309,21.735 28.643,22.334 28.868 C 22.618 28.974,22.739 28.983,24.000 28.983 C 25.246 28.983,25.388 28.974,25.695 28.870 C 26.251 28.682,26.627 28.332,26.857 27.787 C 26.947 27.572,26.961 27.355,26.986 25.733 L 27.015 23.920 27.188 23.593 C 27.284 23.413,27.408 23.077,27.465 22.846 C 27.572 22.409,27.918 18.974,27.981 17.720 L 28.016 17.013 28.560 17.013 C 29.198 17.013,29.398 16.958,29.659 16.709 C 29.921 16.460,29.973 16.242,29.972 15.407 C 29.972 14.766,29.959 14.672,29.851 14.481 C 29.784 14.362,29.638 14.216,29.519 14.149 C 29.315 14.033,29.255 14.028,28.047 14.028 L 26.787 14.027 26.031 11.002 C 25.174 7.575,25.138 7.478,24.535 6.880 C 24.160 6.508,23.693 6.237,23.200 6.106 C 22.763 5.990,9.186 5.994,8.753 6.111 M22.814 8.083 C 23.071 8.190,23.220 8.333,23.326 8.576 C 23.403 8.755,24.693 13.844,24.693 13.972 C 24.693 14.009,21.850 14.027,16.000 14.027 C 10.150 14.027,7.307 14.009,7.307 13.972 C 7.307 13.844,8.597 8.755,8.674 8.576 C 8.778 8.338,8.926 8.192,9.174 8.085 C 9.337 8.014,10.189 8.004,15.988 8.002 C 21.854 8.000,22.640 8.010,22.814 8.083 M25.411 16.160 C 25.556 16.233,25.718 16.353,25.770 16.427 C 25.902 16.610,25.981 17.087,25.962 17.584 L 25.947 18.000 24.800 18.027 C 23.547 18.056,23.445 18.080,23.203 18.407 C 22.925 18.783,22.939 19.276,23.239 19.632 C 23.509 19.953,23.698 19.998,24.787 19.999 C 25.757 20.000,25.760 20.000,25.760 20.119 C 25.760 20.184,25.710 20.730,25.650 21.332 C 25.489 22.925,25.476 22.943,24.373 23.063 C 23.391 23.171,21.133 23.343,19.680 23.421 C 18.153 23.503,13.825 23.503,12.293 23.420 C 9.418 23.265,6.936 23.036,6.739 22.907 C 6.508 22.755,6.444 22.531,6.342 21.496 C 6.288 20.952,6.230 20.393,6.213 20.253 L 6.183 20.000 7.158 20.000 C 7.695 20.000,8.221 19.975,8.328 19.945 C 8.563 19.880,8.868 19.559,8.960 19.281 C 9.090 18.886,8.910 18.414,8.540 18.179 L 8.299 18.027 7.166 18.027 L 6.033 18.027 5.997 17.787 C 5.944 17.434,6.056 16.590,6.178 16.427 C 6.311 16.249,6.552 16.113,6.835 16.057 C 6.962 16.031,11.135 16.014,16.107 16.019 L 25.147 16.027 25.411 16.160 M11.722 19.039 C 11.372 19.146,11.082 19.476,11.013 19.845 C 10.929 20.301,11.268 20.835,11.719 20.956 C 11.876 20.998,13.160 21.012,16.117 21.001 C 20.216 20.987,20.297 20.985,20.479 20.877 C 20.582 20.817,20.737 20.666,20.825 20.541 C 20.957 20.353,20.985 20.261,20.985 20.010 C 20.985 19.636,20.858 19.398,20.540 19.174 L 20.311 19.013 16.089 19.004 C 13.767 18.999,11.802 19.014,11.722 19.039 M8.000 25.093 C 8.484 25.137,8.910 25.172,8.947 25.173 C 8.997 25.173,9.013 25.391,9.013 26.080 L 9.013 26.987 8.000 26.987 L 6.987 26.987 6.987 26.000 C 6.987 25.246,7.002 25.013,7.053 25.014 C 7.090 25.014,7.516 25.050,8.000 25.093 M25.013 26.000 L 25.013 26.987 24.000 26.987 L 22.987 26.987 22.987 26.080 C 22.987 25.254,22.995 25.173,23.080 25.169 C 23.131 25.167,23.497 25.134,23.893 25.096 C 24.289 25.059,24.703 25.025,24.813 25.021 L 25.013 25.013 25.013 26.000 " fill="var(--db-icon-color, currentColor)" stroke="none" fill-rule="evenodd"></path></svg>