<svg id="icon" height="20" viewBox="0 0 20 20" width="20" xmlns="http://www.w3.org/2000/svg"><path d="M14.187 2.601 C 13.583 2.784,13.013 2.968,12.920 3.011 C 12.505 3.201,12.167 3.669,12.094 4.153 C 12.060 4.380,12.069 4.430,12.647 7.330 C 12.969 8.951,13.233 10.293,13.232 10.313 C 13.232 10.334,13.115 10.428,12.974 10.523 C 12.306 10.972,11.425 11.776,11.027 12.300 C 10.593 12.872,10.298 13.492,10.152 14.147 L 10.076 14.483 8.443 14.492 L 6.809 14.501 6.685 14.288 C 6.184 13.432,5.298 12.948,4.350 13.012 C 3.963 13.039,3.752 13.097,3.383 13.280 C 2.203 13.866,1.694 15.228,2.195 16.459 C 2.587 17.424,3.591 18.054,4.632 17.989 C 5.027 17.965,5.274 17.900,5.617 17.732 C 6.038 17.525,6.425 17.156,6.682 16.717 L 6.809 16.500 8.986 16.500 C 11.131 16.500,11.167 16.499,11.355 16.429 C 11.738 16.285,12.000 15.897,12.000 15.473 C 12.000 14.759,12.206 14.071,12.567 13.583 C 12.823 13.236,13.536 12.545,13.650 12.534 C 13.668 12.532,13.730 12.766,13.788 13.054 L 13.892 13.577 13.730 13.740 C 13.147 14.323,12.886 15.185,13.051 15.984 C 13.258 16.987,14.013 17.742,15.016 17.949 C 16.594 18.275,18.081 16.985,17.991 15.368 C 17.930 14.259,17.092 13.272,16.036 13.065 C 15.874 13.033,15.829 13.010,15.815 12.954 C 15.698 12.463,14.174 4.714,14.192 4.699 C 14.206 4.688,14.584 4.569,15.033 4.435 C 15.482 4.302,15.912 4.157,15.989 4.113 C 16.310 3.929,16.519 3.541,16.491 3.179 C 16.462 2.807,16.181 2.435,15.842 2.319 C 15.536 2.215,15.370 2.243,14.187 2.601 M3.900 10.004 C 3.497 10.070,3.199 10.304,3.067 10.657 C 2.878 11.163,3.140 11.740,3.646 11.929 C 3.823 11.995,3.877 11.999,4.344 11.979 C 4.914 11.955,5.125 11.984,5.457 12.134 C 5.720 12.253,5.956 12.412,6.247 12.665 C 6.625 12.994,6.965 13.075,7.355 12.929 C 7.726 12.790,8.000 12.396,8.000 12.000 C 8.000 11.709,7.888 11.479,7.616 11.217 C 6.979 10.600,6.137 10.161,5.320 10.018 C 4.996 9.962,4.208 9.954,3.900 10.004 M4.734 15.067 C 4.883 15.143,5.000 15.335,5.000 15.504 C 5.000 15.563,4.963 15.674,4.918 15.751 C 4.724 16.082,4.276 16.082,4.082 15.751 C 3.982 15.581,3.978 15.440,4.067 15.266 C 4.190 15.024,4.481 14.938,4.734 15.067 M15.734 15.067 C 15.883 15.143,16.000 15.335,16.000 15.504 C 16.000 15.563,15.963 15.674,15.918 15.751 C 15.724 16.082,15.276 16.082,15.082 15.751 C 14.982 15.581,14.978 15.440,15.067 15.266 C 15.190 15.024,15.481 14.938,15.734 15.067 " fill="var(--db-icon-color, currentColor)" stroke="none" fill-rule="evenodd"></path></svg>