<svg id="icon" height="32" viewBox="0 0 32 32" width="32" xmlns="http://www.w3.org/2000/svg"><path d="M4.560 5.098 C 4.308 5.238,4.206 5.344,4.100 5.573 C 3.910 5.988,3.998 6.406,4.337 6.705 C 4.590 6.926,4.824 6.986,5.445 6.986 C 6.135 6.987,7.435 7.116,8.404 7.280 C 12.751 8.016,17.353 10.194,21.093 13.286 C 21.840 13.903,23.471 15.545,24.002 16.213 C 25.694 18.347,26.362 20.214,25.974 21.729 C 25.825 22.311,25.636 22.634,25.174 23.093 C 24.701 23.563,24.188 23.855,23.354 24.127 C 22.077 24.545,20.063 24.798,18.000 24.800 C 17.084 24.801,16.815 24.846,16.554 25.042 C 16.229 25.287,16.098 25.862,16.284 26.223 C 16.407 26.460,16.717 26.710,16.941 26.752 C 17.267 26.813,20.239 26.733,21.040 26.641 C 24.994 26.188,27.261 24.776,27.890 22.375 C 28.302 20.801,28.101 19.329,27.227 17.520 C 25.119 13.154,19.132 8.582,12.629 6.371 C 10.229 5.555,7.828 5.093,5.680 5.035 C 4.851 5.012,4.698 5.021,4.560 5.098 M9.787 12.404 C 9.043 12.508,8.771 12.562,8.400 12.679 C 6.411 13.303,5.287 14.877,5.499 16.742 C 5.677 18.314,6.538 19.213,8.773 20.160 C 9.970 20.667,10.632 21.042,10.997 21.422 C 11.325 21.762,11.437 22.078,11.439 22.667 C 11.440 23.113,11.423 23.209,11.293 23.473 C 11.113 23.839,10.708 24.229,10.327 24.404 C 9.758 24.664,9.261 24.759,8.318 24.786 C 7.320 24.815,6.559 24.730,5.773 24.500 C 4.983 24.270,4.508 24.379,4.272 24.844 C 4.051 25.280,4.087 25.666,4.380 26.000 C 4.572 26.218,5.154 26.424,6.136 26.622 C 6.670 26.730,6.904 26.746,8.000 26.746 C 9.376 26.747,9.706 26.702,10.652 26.390 C 11.593 26.079,12.372 25.502,12.862 24.754 C 13.318 24.057,13.551 23.042,13.446 22.210 C 13.228 20.484,12.236 19.482,9.680 18.401 C 7.937 17.664,7.467 17.230,7.467 16.357 C 7.467 15.623,7.751 15.158,8.411 14.813 C 8.949 14.531,9.311 14.450,10.187 14.416 C 11.114 14.380,11.717 14.451,12.420 14.676 C 13.189 14.922,13.565 14.857,13.858 14.427 C 14.145 14.004,14.115 13.453,13.787 13.143 C 13.571 12.940,12.864 12.696,12.027 12.535 C 11.468 12.428,10.162 12.351,9.787 12.404 " fill="var(--db-icon-color, currentColor)" stroke="none" fill-rule="evenodd"></path></svg>