<svg id="icon" height="20" viewBox="0 0 20 20" width="20" xmlns="http://www.w3.org/2000/svg"><path d="M7.200 3.068 C 6.632 3.215,6.396 3.335,6.148 3.605 C 5.970 3.799,5.887 3.941,5.799 4.200 C 5.710 4.466,5.700 4.869,5.777 5.133 C 5.806 5.234,6.087 5.840,6.400 6.479 C 6.714 7.118,6.963 7.648,6.954 7.657 C 6.945 7.666,6.650 7.763,6.299 7.873 L 5.661 8.072 5.089 7.511 C 4.735 7.164,4.452 6.915,4.348 6.859 C 4.134 6.745,3.836 6.667,3.616 6.667 C 3.259 6.667,2.760 6.883,2.450 7.172 C 2.036 7.558,1.906 8.077,2.078 8.655 C 2.148 8.887,3.253 12.006,3.428 12.461 C 3.543 12.762,3.764 13.098,4.030 13.376 C 4.585 13.958,5.237 14.254,6.042 14.291 C 6.613 14.317,6.791 14.281,8.075 13.880 C 8.129 13.863,8.133 13.912,8.134 14.589 C 8.134 14.989,8.150 15.422,8.168 15.550 C 8.261 16.200,8.760 16.737,9.393 16.869 C 9.936 16.982,10.758 16.721,11.126 16.318 C 11.228 16.207,11.445 15.851,11.739 15.315 C 11.990 14.857,12.478 13.967,12.823 13.336 L 13.451 12.189 14.817 11.760 C 15.650 11.499,16.300 11.275,16.483 11.187 C 17.584 10.657,18.177 9.563,17.950 8.483 C 17.889 8.197,17.661 7.718,17.457 7.450 C 16.378 6.032,13.985 5.467,11.869 6.131 L 11.569 6.225 10.073 4.748 C 8.842 3.535,8.541 3.255,8.380 3.174 C 8.013 2.989,7.636 2.956,7.200 3.068 M14.368 7.915 C 15.246 8.047,15.967 8.518,15.967 8.958 C 15.967 9.137,15.898 9.246,15.720 9.348 C 15.645 9.391,14.881 9.646,14.022 9.914 C 13.164 10.182,12.389 10.438,12.301 10.483 C 12.213 10.527,12.098 10.607,12.046 10.660 C 11.993 10.712,11.545 11.496,11.050 12.401 L 10.150 14.047 10.132 13.149 C 10.111 12.133,10.106 12.111,9.847 11.833 C 9.650 11.623,9.427 11.527,9.137 11.528 C 8.951 11.529,8.723 11.589,7.667 11.918 C 6.261 12.355,6.125 12.379,5.817 12.239 C 5.619 12.149,5.420 11.966,5.329 11.791 C 5.256 11.648,5.149 11.365,4.864 10.561 C 4.755 10.256,4.657 9.978,4.645 9.944 C 4.630 9.903,4.660 9.918,4.737 9.990 C 4.898 10.141,5.076 10.206,5.332 10.206 C 5.524 10.206,5.886 10.101,8.417 9.306 C 12.884 7.904,12.659 7.970,13.233 7.888 C 13.450 7.857,14.082 7.872,14.368 7.915 " fill="var(--db-icon-color, currentColor)" stroke="none" fill-rule="evenodd"></path></svg>