<svg id="icon" height="32" viewBox="0 0 32 32" width="32" xmlns="http://www.w3.org/2000/svg"><path d="M3.753 3.037 C 3.393 3.124,3.085 3.461,3.013 3.845 C 2.930 4.295,3.266 4.831,3.708 4.954 C 3.857 4.995,5.955 5.013,10.827 5.014 C 17.496 5.016,17.741 5.019,17.956 5.117 C 18.090 5.178,18.233 5.300,18.313 5.422 C 18.419 5.586,18.684 6.393,19.126 7.906 C 19.152 7.993,18.781 7.999,12.413 8.013 L 5.672 8.027 5.456 8.170 C 5.075 8.422,4.908 8.978,5.085 9.403 C 5.195 9.665,5.498 9.901,5.812 9.968 C 6.003 10.009,8.153 10.027,12.927 10.027 L 19.768 10.027 20.205 11.480 C 20.445 12.279,20.641 12.951,20.641 12.973 C 20.640 12.995,16.842 13.014,12.200 13.015 C 4.024 13.016,3.753 13.019,3.537 13.117 C 3.134 13.300,2.900 13.841,3.040 14.266 C 3.123 14.519,3.391 14.823,3.611 14.915 C 3.754 14.974,5.754 14.987,15.338 14.987 L 26.892 14.987 26.855 15.233 C 26.789 15.676,26.462 16.785,26.221 17.385 C 25.694 18.697,24.983 19.725,23.889 20.757 C 23.506 21.118,23.161 21.473,23.122 21.547 C 22.925 21.924,22.985 22.334,23.286 22.667 C 23.510 22.915,23.761 23.008,24.112 22.974 C 24.433 22.943,24.648 22.799,25.317 22.166 C 27.413 20.182,28.705 17.502,28.962 14.601 C 29.008 14.082,29.007 13.876,28.959 13.730 C 28.890 13.521,28.640 13.208,28.459 13.105 C 28.377 13.057,27.600 13.033,25.548 13.013 L 22.749 12.987 21.520 8.907 C 20.758 6.378,20.230 4.715,20.132 4.533 C 19.803 3.925,19.095 3.362,18.347 3.112 C 18.069 3.019,17.687 3.014,10.987 3.005 C 7.100 3.000,3.845 3.014,3.753 3.037 M5.000 17.086 C 4.426 17.300,4.000 17.893,4.000 18.477 C 4.000 19.319,4.680 20.000,5.520 20.000 C 6.023 20.000,6.602 19.640,6.837 19.180 C 6.997 18.867,7.029 18.313,6.906 17.990 C 6.789 17.684,6.453 17.309,6.162 17.160 C 5.888 17.020,5.282 16.981,5.000 17.086 M10.080 17.060 C 9.652 17.200,9.252 17.578,9.094 17.990 C 8.971 18.313,9.003 18.867,9.163 19.180 C 9.311 19.470,9.705 19.811,10.012 19.916 C 10.987 20.248,12.000 19.516,12.000 18.480 C 12.000 17.980,11.688 17.468,11.217 17.191 C 11.029 17.082,10.890 17.046,10.594 17.033 C 10.385 17.024,10.153 17.036,10.080 17.060 M14.935 17.124 C 14.588 17.281,14.367 17.466,14.215 17.726 C 13.603 18.770,14.412 20.078,15.611 19.985 C 16.241 19.936,16.760 19.510,16.939 18.895 C 17.149 18.173,16.718 17.337,16.011 17.096 C 15.672 16.981,15.225 16.992,14.935 17.124 M19.967 17.100 C 19.489 17.269,19.083 17.800,19.008 18.352 C 18.934 18.894,19.262 19.512,19.775 19.801 C 20.639 20.286,21.696 19.821,21.946 18.847 C 22.123 18.155,21.818 17.504,21.163 17.177 C 20.790 16.990,20.354 16.962,19.967 17.100 M5.870 24.084 C 5.770 24.127,5.446 24.412,5.150 24.716 C 4.398 25.492,3.810 25.844,3.040 25.981 C 2.879 26.009,2.703 26.045,2.650 26.061 C 2.523 26.098,2.199 26.384,2.123 26.526 C 1.860 27.017,2.078 27.670,2.580 27.898 C 3.316 28.232,4.928 27.646,6.011 26.650 L 6.236 26.443 6.625 26.759 C 7.403 27.390,7.989 27.706,8.731 27.896 C 9.889 28.192,11.127 27.797,12.424 26.718 L 12.745 26.451 13.150 26.791 C 13.696 27.248,14.295 27.602,14.863 27.803 C 15.288 27.953,15.395 27.969,15.973 27.970 C 16.556 27.971,16.657 27.956,17.099 27.803 C 17.691 27.597,18.281 27.255,18.837 26.794 L 19.257 26.448 19.562 26.721 C 21.426 28.392,23.458 28.403,25.399 26.753 L 25.758 26.448 26.081 26.717 C 27.033 27.509,28.129 28.002,28.929 27.999 C 29.788 27.995,30.267 27.160,29.822 26.441 C 29.673 26.200,29.375 26.046,28.969 26.000 C 28.351 25.930,27.696 25.509,26.720 24.555 C 25.898 23.752,25.448 23.798,24.675 24.764 C 23.965 25.651,23.352 25.993,22.483 25.985 C 21.592 25.977,21.085 25.660,20.133 24.513 C 19.547 23.806,18.899 23.833,18.320 24.587 C 17.873 25.169,17.418 25.591,17.053 25.762 C 16.372 26.079,15.585 26.069,14.897 25.732 C 14.505 25.540,14.197 25.246,13.640 24.533 C 13.086 23.823,12.402 23.826,11.856 24.542 C 11.114 25.516,10.656 25.843,9.855 25.971 C 8.876 26.127,7.941 25.636,7.156 24.552 C 6.950 24.268,6.825 24.150,6.665 24.086 C 6.401 23.980,6.111 23.979,5.870 24.084 " fill="var(--db-icon-color, currentColor)" stroke="none" fill-rule="evenodd"></path></svg>