<svg id="icon" height="24" viewBox="0 0 24 24" width="24" xmlns="http://www.w3.org/2000/svg"><path d="M4.160 4.047 C 3.758 4.161,3.482 4.541,3.481 4.982 C 3.479 5.434,3.764 5.823,4.180 5.938 C 4.290 5.968,4.668 6.003,5.020 6.015 C 8.782 6.146,13.204 8.016,16.586 10.905 C 17.231 11.457,18.223 12.481,18.662 13.050 C 19.267 13.833,19.724 14.667,19.899 15.304 C 19.986 15.621,20.020 16.281,19.965 16.580 C 19.850 17.201,19.406 17.746,18.755 18.067 C 17.738 18.568,16.384 18.780,13.760 18.851 C 13.247 18.865,13.088 18.920,12.852 19.166 C 12.418 19.620,12.561 20.381,13.140 20.694 C 13.294 20.777,13.344 20.780,14.480 20.776 C 16.040 20.771,16.942 20.676,18.080 20.396 C 20.226 19.867,21.474 18.797,21.888 17.132 C 22.006 16.659,22.016 15.666,21.908 15.167 C 21.568 13.590,20.554 11.952,18.881 10.279 C 15.997 7.394,11.763 5.135,7.760 4.344 C 6.416 4.079,4.581 3.927,4.160 4.047 M6.940 9.940 C 5.483 10.175,4.468 10.919,4.097 12.025 C 3.813 12.871,3.913 13.813,4.358 14.497 C 4.747 15.095,5.329 15.513,6.412 15.976 C 7.931 16.625,8.240 16.882,8.240 17.498 C 8.240 17.866,8.177 18.053,7.976 18.276 C 7.628 18.663,7.116 18.816,6.160 18.818 C 5.441 18.819,5.125 18.777,4.511 18.595 C 4.001 18.444,3.801 18.446,3.528 18.602 C 2.970 18.922,2.829 19.713,3.252 20.153 C 3.425 20.334,3.606 20.421,4.047 20.536 C 4.772 20.724,5.242 20.779,6.120 20.779 C 7.004 20.780,7.305 20.739,7.940 20.533 C 9.400 20.059,10.240 18.966,10.240 17.540 C 10.240 16.659,10.008 16.088,9.401 15.476 C 8.946 15.017,8.552 14.770,7.620 14.357 C 6.737 13.967,6.383 13.776,6.181 13.579 C 5.719 13.129,5.889 12.429,6.540 12.106 C 7.144 11.806,8.354 11.803,9.264 12.100 C 9.629 12.219,9.883 12.226,10.100 12.121 C 10.297 12.027,10.355 11.978,10.487 11.800 C 10.810 11.362,10.731 10.705,10.321 10.420 C 10.134 10.291,9.593 10.106,9.088 9.998 C 8.569 9.888,7.453 9.858,6.940 9.940 " fill="var(--db-icon-color, currentColor)" stroke="none" fill-rule="evenodd"></path></svg>