<svg id="icon" height="32" viewBox="0 0 32 32" width="32" xmlns="http://www.w3.org/2000/svg"><path d="M8.533 2.064 C 8.107 2.115,7.628 2.257,7.227 2.452 C 6.193 2.954,5.488 3.819,5.160 4.987 L 5.040 5.413 5.026 14.812 C 5.010 25.222,4.991 24.619,5.357 25.364 C 5.460 25.571,5.640 25.851,5.758 25.985 L 5.973 26.230 5.974 27.075 C 5.976 28.138,6.037 28.576,6.243 28.998 C 6.624 29.778,7.287 30.027,8.987 30.027 C 10.514 30.027,11.205 29.813,11.619 29.212 C 11.888 28.821,11.961 28.523,11.988 27.720 L 12.012 26.987 16.000 26.987 L 19.988 26.987 20.012 27.747 C 20.042 28.702,20.143 29.012,20.558 29.420 C 21.034 29.887,21.579 30.022,22.996 30.025 C 24.440 30.028,25.016 29.872,25.494 29.349 C 25.903 28.901,25.980 28.595,26.014 27.284 L 26.041 26.221 26.283 25.924 C 26.416 25.761,26.593 25.481,26.677 25.302 C 27.005 24.601,26.990 25.112,26.974 14.811 L 26.960 5.413 26.840 4.987 C 26.512 3.819,25.807 2.954,24.773 2.452 C 23.900 2.027,24.554 2.058,16.187 2.050 C 12.080 2.046,8.636 2.052,8.533 2.064 M23.194 4.054 C 24.080 4.169,24.674 4.659,24.881 5.445 C 24.939 5.663,24.961 6.975,24.992 11.899 C 25.015 15.723,25.011 18.080,24.980 18.080 C 24.953 18.080,24.595 18.127,24.185 18.184 C 21.385 18.574,18.996 18.736,16.027 18.737 C 12.939 18.737,10.158 18.545,7.560 18.152 L 6.987 18.065 6.988 12.299 C 6.989 9.128,7.013 6.285,7.040 5.982 C 7.097 5.351,7.232 4.996,7.546 4.647 C 7.803 4.363,8.310 4.115,8.749 4.058 C 9.240 3.995,22.707 3.991,23.194 4.054 M10.587 6.089 C 10.436 6.172,10.188 6.408,10.120 6.532 C 9.859 7.014,10.081 7.671,10.580 7.898 C 10.790 7.993,11.035 7.998,16.000 7.998 C 20.965 7.998,21.210 7.993,21.420 7.898 C 21.924 7.669,22.143 7.019,21.880 6.532 C 21.792 6.371,21.537 6.147,21.370 6.083 C 21.155 6.002,10.734 6.007,10.587 6.089 M2.613 7.100 C 2.441 7.168,2.201 7.397,2.089 7.600 C 2.011 7.740,1.998 8.023,1.984 9.867 C 1.973 11.308,1.987 12.049,2.028 12.213 C 2.250 13.097,3.330 13.293,3.845 12.542 L 3.973 12.355 3.990 10.137 C 4.007 7.831,3.995 7.663,3.782 7.392 C 3.544 7.090,2.988 6.951,2.613 7.100 M28.560 7.126 C 28.310 7.263,28.206 7.370,28.100 7.600 C 28.010 7.796,28.002 7.993,28.001 10.010 C 28.000 11.432,28.020 12.259,28.057 12.357 C 28.133 12.560,28.416 12.850,28.625 12.940 C 29.005 13.103,29.523 12.963,29.778 12.630 C 30.012 12.323,30.034 12.067,30.016 9.834 C 29.998 7.505,30.010 7.579,29.585 7.235 C 29.416 7.099,29.328 7.069,29.051 7.055 C 28.819 7.043,28.672 7.064,28.560 7.126 M8.320 20.266 C 10.783 20.575,12.571 20.695,15.253 20.731 C 18.886 20.779,21.859 20.591,24.818 20.124 L 25.022 20.092 25.004 22.166 L 24.987 24.240 24.853 24.479 C 24.764 24.637,24.637 24.764,24.479 24.853 L 24.240 24.987 16.000 24.987 L 7.760 24.987 7.523 24.853 C 7.352 24.757,7.248 24.646,7.150 24.455 L 7.013 24.190 6.997 22.141 L 6.981 20.091 7.237 20.127 C 7.378 20.147,7.865 20.209,8.320 20.266 M9.939 21.541 C 8.820 21.828,8.680 23.384,9.730 23.873 C 10.957 24.444,12.076 22.896,11.154 21.902 C 10.868 21.594,10.343 21.438,9.939 21.541 M21.440 21.540 C 20.854 21.731,20.515 22.174,20.515 22.747 C 20.516 23.663,21.443 24.258,22.270 23.873 C 23.175 23.452,23.241 22.185,22.383 21.683 C 22.138 21.539,21.663 21.467,21.440 21.540 M9.973 27.493 L 9.973 28.000 8.987 28.000 L 8.000 28.000 8.000 27.493 L 8.000 26.987 8.987 26.987 L 9.973 26.987 9.973 27.493 M24.000 27.493 L 24.000 28.000 23.013 28.000 L 22.027 28.000 22.027 27.493 L 22.027 26.987 23.013 26.987 L 24.000 26.987 24.000 27.493 " fill="var(--db-icon-color, currentColor)" stroke="none" fill-rule="evenodd"></path></svg>