<svg id="icon" height="24" viewBox="0 0 24 24" width="24" xmlns="http://www.w3.org/2000/svg"><path d="M15.789 5.302 C 14.803 5.440,14.694 5.472,14.491 5.688 C 14.365 5.822,14.280 6.051,14.282 6.249 C 14.283 6.343,14.388 6.743,14.516 7.140 C 14.644 7.536,14.746 7.863,14.744 7.867 C 14.719 7.907,10.300 9.475,10.276 9.452 C 10.239 9.414,9.600 7.928,9.600 7.880 C 9.600 7.861,9.653 7.835,9.718 7.821 C 9.895 7.782,10.148 7.580,10.236 7.409 C 10.413 7.061,10.378 6.729,10.135 6.445 C 9.892 6.161,9.854 6.155,8.177 6.168 L 6.693 6.180 6.537 6.289 C 6.450 6.349,6.335 6.465,6.280 6.546 C 6.195 6.672,6.180 6.740,6.180 7.000 C 6.180 7.260,6.195 7.328,6.280 7.454 C 6.335 7.535,6.450 7.651,6.536 7.711 C 6.682 7.813,6.728 7.821,7.209 7.840 L 7.726 7.860 8.283 9.159 C 8.589 9.874,8.840 10.480,8.840 10.506 C 8.840 10.564,7.807 11.800,7.759 11.800 C 7.741 11.800,7.592 11.746,7.428 11.680 C 6.910 11.473,6.640 11.426,5.980 11.427 C 5.499 11.428,5.319 11.445,5.074 11.511 C 3.918 11.826,2.985 12.603,2.499 13.655 C 2.244 14.205,2.180 14.537,2.182 15.280 C 2.185 15.882,2.195 15.971,2.295 16.299 C 2.537 17.091,2.982 17.756,3.597 18.249 C 4.976 19.355,6.903 19.383,8.316 18.318 C 9.241 17.621,9.780 16.601,9.830 15.450 C 9.868 14.563,9.672 13.828,9.211 13.130 L 9.072 12.920 9.345 12.597 C 9.576 12.323,9.623 12.285,9.650 12.347 C 9.668 12.387,9.896 12.915,10.157 13.520 C 10.437 14.167,10.683 14.680,10.756 14.766 C 11.055 15.123,11.618 15.238,12.045 15.029 C 12.236 14.936,12.474 14.688,14.011 12.979 C 15.004 11.875,15.769 11.058,15.779 11.088 C 15.865 11.335,16.043 11.929,16.033 11.936 C 15.274 12.453,14.818 12.963,14.499 13.655 C 14.244 14.205,14.180 14.537,14.182 15.280 C 14.185 15.882,14.195 15.971,14.295 16.299 C 14.537 17.091,14.982 17.756,15.597 18.249 C 17.001 19.375,18.975 19.380,20.388 18.263 C 21.053 17.736,21.499 17.045,21.746 16.160 C 21.860 15.750,21.850 14.732,21.728 14.283 C 21.546 13.616,21.253 13.103,20.762 12.587 C 20.068 11.859,19.186 11.464,18.139 11.412 L 17.658 11.389 16.954 9.184 C 16.567 7.972,16.262 6.975,16.277 6.969 C 16.293 6.963,16.536 6.925,16.817 6.883 C 17.245 6.821,17.356 6.790,17.495 6.694 C 18.027 6.324,17.921 5.477,17.311 5.222 C 17.107 5.137,16.888 5.148,15.789 5.302 M14.513 9.874 C 13.829 10.666,11.774 12.910,11.753 12.888 C 11.692 12.826,10.957 11.061,10.988 11.049 C 11.199 10.966,14.589 9.728,14.613 9.724 C 14.631 9.722,14.586 9.789,14.513 9.874 M6.556 13.180 C 6.582 13.207,6.373 13.484,5.938 14.000 C 5.576 14.429,5.253 14.837,5.220 14.906 C 5.128 15.099,5.143 15.435,5.253 15.644 C 5.393 15.908,5.623 16.053,5.939 16.073 C 6.368 16.100,6.446 16.042,7.222 15.119 C 7.591 14.679,7.906 14.320,7.922 14.320 C 7.937 14.320,7.991 14.447,8.040 14.601 C 8.279 15.344,8.074 16.194,7.519 16.758 C 7.089 17.194,6.638 17.379,6.000 17.379 C 5.697 17.379,5.519 17.358,5.360 17.305 C 4.667 17.071,4.173 16.562,3.939 15.841 C 3.838 15.530,3.846 14.943,3.955 14.597 C 4.167 13.931,4.747 13.376,5.440 13.175 C 5.649 13.115,6.495 13.119,6.556 13.180 M18.540 13.174 C 19.241 13.361,19.829 13.917,20.045 14.597 C 20.154 14.943,20.162 15.530,20.061 15.841 C 19.829 16.558,19.330 17.072,18.640 17.305 C 18.481 17.358,18.303 17.379,18.000 17.379 C 17.697 17.379,17.519 17.358,17.360 17.305 C 16.684 17.077,16.224 16.620,15.969 15.925 C 15.839 15.570,15.833 14.987,15.956 14.597 C 16.046 14.311,16.279 13.926,16.470 13.747 L 16.591 13.633 16.653 13.827 C 16.687 13.933,16.833 14.390,16.977 14.841 C 17.195 15.526,17.261 15.687,17.375 15.811 C 17.871 16.354,18.780 16.053,18.831 15.330 C 18.845 15.128,18.809 14.981,18.529 14.110 C 18.177 13.018,18.176 13.077,18.540 13.174 " fill="var(--db-icon-color, currentColor)" stroke="none" fill-rule="evenodd"></path></svg>