<svg id="icon" height="24" viewBox="0 0 24 24" width="24" xmlns="http://www.w3.org/2000/svg"><path d="M12.746 5.041 C 12.444 5.132,12.184 5.434,12.136 5.751 C 12.081 6.120,12.318 6.536,12.672 6.691 C 12.737 6.719,13.100 6.746,13.580 6.759 L 14.379 6.780 14.705 7.742 L 15.032 8.704 13.398 10.882 C 12.500 12.080,11.751 13.057,11.734 13.053 C 11.717 13.050,11.222 11.862,10.634 10.413 L 9.565 7.780 9.892 7.757 C 10.291 7.730,10.454 7.663,10.648 7.448 C 10.961 7.102,10.947 6.598,10.615 6.265 C 10.364 6.015,10.411 6.021,8.640 6.008 C 7.749 6.001,6.946 6.006,6.855 6.019 C 6.765 6.032,6.619 6.090,6.531 6.147 C 6.047 6.461,5.992 7.135,6.419 7.511 C 6.645 7.710,6.820 7.760,7.287 7.760 L 7.665 7.760 8.051 8.710 C 8.262 9.232,8.447 9.691,8.462 9.729 C 8.499 9.829,7.327 11.491,7.242 11.458 C 6.832 11.299,6.081 11.220,5.565 11.282 C 3.930 11.477,2.637 12.623,2.229 14.240 C 2.104 14.736,2.106 15.567,2.234 16.040 C 2.626 17.492,3.699 18.547,5.151 18.908 C 5.538 19.005,6.441 19.004,6.840 18.907 C 8.275 18.560,9.413 17.439,9.747 16.044 L 9.815 15.760 10.693 15.760 C 11.674 15.760,11.797 15.739,12.046 15.526 C 12.137 15.448,12.995 14.340,13.953 13.063 L 15.694 10.742 15.847 11.201 C 15.932 11.454,16.011 11.690,16.022 11.727 C 16.038 11.776,15.975 11.841,15.792 11.965 C 15.050 12.469,14.470 13.308,14.235 14.220 C 14.103 14.733,14.102 15.552,14.234 16.040 C 14.626 17.492,15.696 18.545,17.151 18.909 C 17.523 19.002,18.477 19.002,18.849 18.909 C 19.577 18.727,20.229 18.361,20.733 17.851 C 21.244 17.333,21.554 16.798,21.747 16.099 C 21.894 15.566,21.904 14.770,21.771 14.240 C 21.364 12.629,20.072 11.480,18.444 11.282 C 18.237 11.257,17.992 11.248,17.899 11.262 L 17.729 11.288 17.485 10.554 C 17.350 10.150,17.240 9.806,17.240 9.790 C 17.240 9.773,17.661 9.760,18.175 9.760 C 18.912 9.760,19.147 9.747,19.285 9.699 C 19.421 9.651,19.605 9.493,20.111 8.989 C 20.679 8.422,20.770 8.314,20.826 8.136 C 21.059 7.401,20.278 6.749,19.591 7.105 C 19.521 7.141,19.272 7.358,19.038 7.586 L 18.612 8.001 17.619 7.991 L 16.627 7.980 16.215 6.744 C 15.988 6.065,15.763 5.451,15.715 5.381 C 15.609 5.227,15.420 5.092,15.236 5.039 C 15.071 4.991,12.905 4.993,12.746 5.041 M9.753 12.900 L 10.192 13.980 9.578 13.991 C 9.241 13.997,8.679 13.997,8.329 13.991 L 7.693 13.980 8.472 12.868 C 8.901 12.256,9.265 11.770,9.282 11.788 C 9.300 11.805,9.511 12.306,9.753 12.900 M6.186 13.060 C 6.173 13.093,5.976 13.385,5.747 13.710 C 5.218 14.462,5.147 14.599,5.147 14.880 C 5.147 15.220,5.310 15.487,5.620 15.654 C 5.771 15.735,5.843 15.741,6.892 15.752 L 8.004 15.765 7.977 15.852 C 7.861 16.238,7.343 16.827,6.955 17.015 C 6.343 17.312,5.620 17.315,5.043 17.021 C 4.587 16.789,4.168 16.311,3.999 15.827 C 3.525 14.473,4.549 13.025,5.994 13.003 C 6.169 13.001,6.204 13.011,6.186 13.060 M18.649 13.119 C 19.555 13.399,20.172 14.306,20.106 15.260 C 20.014 16.592,18.751 17.509,17.469 17.177 C 16.798 17.003,16.227 16.479,15.999 15.827 C 15.895 15.531,15.858 15.050,15.915 14.740 C 15.974 14.420,16.197 13.976,16.427 13.720 L 16.615 13.512 16.924 14.426 C 17.225 15.317,17.237 15.344,17.417 15.507 C 17.774 15.831,18.284 15.824,18.608 15.492 C 18.765 15.331,18.880 15.069,18.880 14.870 C 18.880 14.781,18.484 13.497,18.330 13.090 C 18.305 13.023,18.348 13.027,18.649 13.119 " fill="var(--db-icon-color, currentColor)" stroke="none" fill-rule="evenodd"></path></svg>