<svg id="icon" height="32" viewBox="0 0 32 32" width="32" xmlns="http://www.w3.org/2000/svg"><path d="M10.320 2.101 C 10.203 2.138,10.028 2.210,9.932 2.260 C 9.601 2.432,8.400 3.238,8.284 3.366 C 8.051 3.620,7.985 4.052,8.125 4.389 C 8.263 4.718,8.725 5.015,9.093 5.012 C 9.264 5.010,9.582 4.845,10.254 4.408 L 10.881 4.000 11.441 4.000 L 12.000 4.000 12.000 5.013 L 12.000 6.027 10.947 6.027 C 10.083 6.027,9.814 6.046,9.455 6.133 C 7.815 6.526,6.547 7.794,6.122 9.467 L 6.000 9.947 6.000 18.000 L 6.000 26.053 6.118 26.518 C 6.551 28.213,7.787 29.449,9.482 29.882 L 9.947 30.000 16.080 30.000 L 22.213 30.000 22.640 29.879 C 24.305 29.408,25.486 28.228,25.936 26.587 L 26.053 26.160 26.053 18.000 C 26.053 10.219,26.049 9.823,25.954 9.475 C 25.554 8.001,24.575 6.874,23.211 6.320 C 22.629 6.084,22.216 6.027,21.090 6.027 L 20.053 6.027 20.053 5.040 L 20.053 4.053 20.607 4.053 L 21.161 4.053 21.924 4.504 C 22.344 4.752,22.777 4.969,22.885 4.987 C 23.559 5.101,24.176 4.443,24.005 3.792 C 23.905 3.413,23.764 3.276,23.020 2.833 C 22.097 2.283,21.845 2.159,21.504 2.087 C 21.076 1.996,10.610 2.009,10.320 2.101 M18.027 5.014 L 18.027 6.028 16.040 6.014 L 14.053 6.000 14.039 5.000 L 14.024 4.000 16.025 4.000 L 18.027 4.000 18.027 5.014 M22.080 8.055 C 22.850 8.225,23.474 8.719,23.830 9.440 L 24.027 9.840 24.027 18.000 L 24.027 26.160 23.830 26.560 C 23.495 27.244,22.908 27.729,22.180 27.923 C 21.735 28.041,10.351 28.037,9.895 27.918 C 8.951 27.672,8.211 26.867,8.057 25.920 C 7.979 25.440,7.979 10.560,8.057 10.080 C 8.210 9.139,8.939 8.339,9.867 8.097 C 10.182 8.014,10.732 8.006,16.027 8.004 C 19.673 8.003,21.929 8.022,22.080 8.055 M11.653 10.123 C 11.076 10.322,10.543 10.763,10.298 11.244 C 10.058 11.715,10.028 12.016,10.028 14.000 C 10.028 15.984,10.058 16.285,10.298 16.756 C 10.545 17.239,11.109 17.707,11.680 17.900 C 11.956 17.994,12.211 18.000,16.053 18.000 C 20.648 18.000,20.428 18.018,21.066 17.592 C 21.484 17.313,21.829 16.855,21.973 16.389 C 22.072 16.067,22.080 15.895,22.080 14.000 C 22.080 12.105,22.072 11.933,21.973 11.611 C 21.829 11.145,21.484 10.687,21.068 10.409 C 20.470 10.010,20.684 10.026,16.057 10.028 C 12.273 10.030,11.897 10.038,11.653 10.123 M19.976 12.076 C 20.076 12.148,20.080 12.232,20.080 14.000 C 20.080 15.768,20.076 15.852,19.976 15.924 C 19.889 15.988,19.269 16.000,16.061 16.000 C 12.588 16.000,12.240 15.992,12.151 15.912 C 12.060 15.830,12.053 15.699,12.053 14.009 C 12.053 12.396,12.063 12.184,12.142 12.098 C 12.226 12.005,12.417 12.000,16.051 12.000 C 19.268 12.000,19.889 12.012,19.976 12.076 M14.747 20.045 C 13.996 20.289,13.788 21.239,14.374 21.753 C 14.643 21.990,14.986 22.039,16.205 22.017 C 17.169 22.000,17.271 21.989,17.480 21.878 C 18.215 21.489,18.177 20.446,17.416 20.100 C 17.226 20.014,17.057 20.003,16.027 20.006 C 15.381 20.009,14.805 20.026,14.747 20.045 M10.638 24.099 C 10.196 24.302,9.955 24.774,10.071 25.208 C 10.154 25.519,10.305 25.716,10.578 25.873 C 10.794 25.997,10.832 26.000,12.027 26.000 C 13.148 26.000,13.271 25.991,13.463 25.893 C 14.152 25.543,14.220 24.617,13.590 24.179 L 13.369 24.027 12.111 24.013 C 10.979 24.001,10.832 24.009,10.638 24.099 M18.691 24.099 C 17.932 24.448,17.895 25.488,18.627 25.879 C 18.843 25.995,18.907 26.000,20.080 26.000 C 21.201 26.000,21.325 25.991,21.517 25.893 C 22.208 25.542,22.274 24.610,21.638 24.179 L 21.413 24.027 20.160 24.013 C 19.033 24.001,18.885 24.009,18.691 24.099 " fill="var(--db-icon-color, currentColor)" stroke="none" fill-rule="evenodd"></path></svg>