<svg id="icon" height="24" viewBox="0 0 24 24" width="24" xmlns="http://www.w3.org/2000/svg"><path d="M14.440 6.036 C 13.724 6.264,13.441 7.126,13.910 7.646 C 13.989 7.734,14.128 7.845,14.217 7.893 C 14.372 7.976,14.435 7.980,15.540 7.990 C 16.178 7.996,16.740 8.010,16.789 8.021 C 16.982 8.065,17.000 8.184,17.000 9.448 L 17.000 10.621 15.010 12.808 L 13.020 14.995 12.512 14.997 L 12.004 15.000 11.962 14.850 C 11.939 14.768,11.575 13.440,11.155 11.900 C 10.734 10.360,10.345 9.012,10.291 8.904 C 10.156 8.634,9.852 8.351,9.531 8.192 L 9.262 8.060 7.519 8.048 L 5.776 8.036 5.559 8.150 C 5.063 8.409,4.873 8.957,5.116 9.432 C 5.222 9.640,5.520 9.905,5.706 9.957 C 5.802 9.983,6.386 10.000,7.250 10.000 C 8.014 10.000,8.640 10.009,8.640 10.019 C 8.640 10.030,8.694 10.237,8.760 10.480 C 8.826 10.723,8.880 10.938,8.880 10.958 C 8.880 10.979,8.086 11.001,6.970 11.010 C 5.167 11.024,5.043 11.029,4.752 11.110 C 3.447 11.473,2.480 12.438,2.117 13.741 C 2.038 14.022,2.026 14.182,2.010 15.088 C 1.989 16.285,2.012 16.415,2.298 16.700 C 2.546 16.949,2.740 17.000,3.427 17.000 L 4.000 17.000 4.000 17.142 C 4.000 17.581,4.241 18.283,4.530 18.687 C 5.784 20.441,8.289 20.427,9.493 18.660 C 9.769 18.255,10.000 17.563,10.000 17.142 L 10.000 17.000 11.850 17.000 C 12.999 17.000,13.756 16.984,13.849 16.958 C 13.931 16.936,14.053 16.870,14.121 16.813 C 14.316 16.649,18.795 11.613,18.892 11.448 C 18.978 11.303,18.980 11.263,18.992 9.720 C 19.006 7.972,18.991 7.824,18.752 7.333 C 18.486 6.785,17.938 6.302,17.371 6.114 C 17.116 6.029,17.026 6.023,15.820 6.014 C 15.116 6.008,14.495 6.018,14.440 6.036 M9.725 14.000 C 9.875 14.539,9.998 14.985,9.999 14.990 C 9.999 14.995,8.650 15.000,7.000 15.000 L 4.000 15.000 4.000 14.748 C 4.000 13.922,4.484 13.269,5.250 13.062 C 5.420 13.016,5.840 13.006,7.457 13.012 L 9.453 13.020 9.725 14.000 M18.503 14.040 C 18.202 14.094,17.930 14.192,17.596 14.365 C 16.231 15.073,15.644 16.703,16.234 18.151 C 16.521 18.857,17.143 19.479,17.849 19.766 C 18.989 20.230,20.251 19.978,21.115 19.115 C 22.238 17.992,22.295 16.212,21.246 15.020 C 20.897 14.624,20.276 14.239,19.756 14.097 C 19.491 14.024,18.770 13.991,18.503 14.040 M19.340 16.066 C 19.709 16.192,20.000 16.604,20.000 17.000 C 20.000 17.527,19.527 18.000,19.000 18.000 C 18.758 18.000,18.479 17.881,18.299 17.701 C 17.907 17.309,17.908 16.690,18.300 16.298 C 18.577 16.020,18.957 15.936,19.340 16.066 M7.984 17.164 C 7.886 17.775,7.276 18.138,6.679 17.940 C 6.408 17.850,6.156 17.603,6.066 17.340 C 5.941 16.973,5.866 17.000,7.005 17.000 L 8.010 17.000 7.984 17.164 " fill="var(--db-icon-color, currentColor)" stroke="none" fill-rule="evenodd"></path></svg>