<svg id="icon" height="24" viewBox="0 0 24 24" width="24" xmlns="http://www.w3.org/2000/svg"><path d="M4.713 2.081 C 4.632 2.124,4.529 2.211,4.484 2.275 C 4.375 2.427,2.000 8.615,2.000 8.745 C 2.000 8.994,2.202 9.120,2.604 9.120 C 3.140 9.120,3.307 8.987,3.542 8.374 C 3.625 8.157,3.724 7.899,3.762 7.800 L 3.831 7.620 5.149 7.609 L 6.468 7.599 6.701 8.169 C 6.829 8.483,6.969 8.792,7.013 8.855 C 7.133 9.028,7.370 9.118,7.711 9.119 C 8.157 9.120,8.360 9.004,8.360 8.746 C 8.360 8.692,7.828 7.237,7.177 5.513 C 6.318 3.238,5.965 2.348,5.887 2.265 C 5.714 2.079,5.500 2.002,5.160 2.003 C 4.942 2.003,4.820 2.025,4.713 2.081 M10.329 2.067 C 10.257 2.102,10.158 2.187,10.109 2.256 L 10.020 2.380 10.020 5.547 C 10.020 8.683,10.021 8.715,10.102 8.825 C 10.148 8.885,10.235 8.972,10.295 9.018 C 10.400 9.095,10.468 9.101,11.513 9.113 C 13.155 9.131,13.683 9.064,14.306 8.760 C 14.835 8.501,15.139 8.108,15.263 7.523 C 15.456 6.613,15.120 5.832,14.387 5.484 C 14.251 5.420,14.051 5.354,13.942 5.338 L 13.743 5.308 13.956 5.215 C 14.642 4.912,14.911 4.461,14.870 3.683 C 14.845 3.205,14.740 2.916,14.493 2.641 C 14.183 2.296,13.794 2.120,13.174 2.044 C 12.979 2.020,12.289 2.001,11.640 2.001 C 10.635 2.002,10.441 2.011,10.329 2.067 M19.663 2.041 C 19.265 2.104,18.970 2.193,18.668 2.340 C 17.622 2.850,17.076 3.845,17.011 5.360 C 16.945 6.885,17.397 8.019,18.313 8.627 C 18.605 8.821,19.202 9.023,19.660 9.083 C 20.300 9.168,21.277 9.058,21.707 8.854 C 21.787 8.816,21.885 8.718,21.946 8.613 C 22.036 8.460,22.047 8.403,22.032 8.173 C 22.018 7.946,22.000 7.896,21.906 7.815 C 21.766 7.695,21.548 7.691,21.058 7.799 C 20.842 7.847,20.548 7.879,20.318 7.879 C 18.999 7.882,18.437 7.178,18.441 5.525 C 18.444 4.643,18.588 4.111,18.925 3.742 C 19.363 3.263,20.105 3.123,21.140 3.325 C 21.552 3.405,21.590 3.407,21.731 3.347 C 22.107 3.188,22.085 2.459,21.698 2.233 C 21.406 2.063,20.232 1.952,19.663 2.041 M13.200 3.280 C 13.459 3.424,13.527 3.579,13.512 3.987 C 13.499 4.348,13.442 4.465,13.205 4.627 C 13.011 4.759,12.738 4.800,12.058 4.800 L 11.440 4.800 11.440 3.976 L 11.440 3.153 12.230 3.166 C 12.986 3.179,13.028 3.184,13.200 3.280 M5.724 5.250 L 6.184 6.540 5.266 6.551 C 4.761 6.557,4.340 6.553,4.329 6.543 C 4.307 6.520,5.211 3.962,5.242 3.961 C 5.254 3.960,5.471 4.540,5.724 5.250 M13.360 6.064 C 13.757 6.247,13.935 6.643,13.849 7.154 C 13.737 7.816,13.331 7.999,11.970 8.000 L 11.440 8.000 11.440 6.977 L 11.440 5.953 12.310 5.967 C 13.089 5.979,13.199 5.989,13.360 6.064 M4.125 13.045 C 4.007 13.065,3.804 13.124,3.674 13.176 C 2.922 13.480,2.378 14.043,2.130 14.777 L 2.020 15.100 2.009 17.631 C 1.998 20.040,2.001 20.170,2.073 20.333 C 2.181 20.578,2.372 20.779,2.610 20.897 C 2.803 20.993,2.853 21.000,3.398 21.000 L 3.981 21.000 4.031 21.210 C 4.096 21.486,4.257 21.710,4.498 21.859 L 4.694 21.980 6.412 21.992 C 8.372 22.005,8.401 22.001,8.700 21.702 C 8.858 21.544,9.000 21.246,9.000 21.073 C 9.000 21.003,9.124 21.000,12.000 21.000 C 14.876 21.000,15.000 21.003,15.000 21.073 C 15.000 21.246,15.142 21.544,15.299 21.701 C 15.593 21.995,15.629 22.000,17.500 22.000 C 19.371 22.000,19.407 21.995,19.701 21.701 C 19.857 21.545,20.000 21.246,20.000 21.076 C 20.000 21.014,20.064 21.006,20.633 20.994 C 21.258 20.980,21.269 20.978,21.462 20.859 C 21.694 20.715,21.901 20.457,21.960 20.239 C 21.989 20.133,21.999 19.260,21.991 17.590 C 21.980 15.106,21.979 15.099,21.887 14.820 C 21.579 13.895,20.772 13.194,19.840 13.043 C 19.515 12.990,4.443 12.992,4.125 13.045 M19.724 15.091 C 19.993 15.270,20.000 15.312,20.000 16.730 L 20.000 18.000 12.000 18.000 L 4.000 18.000 4.000 16.746 C 4.000 15.519,4.002 15.489,4.091 15.321 C 4.145 15.219,4.239 15.118,4.320 15.074 C 4.454 15.003,4.732 15.000,12.023 15.000 L 19.588 15.000 19.724 15.091 " fill="var(--db-icon-color, currentColor)" stroke="none" fill-rule="evenodd"></path></svg>