<svg id="icon" height="32" viewBox="0 0 32 32" width="32" xmlns="http://www.w3.org/2000/svg"><path d="M13.493 2.023 C 12.933 2.053,12.703 2.089,12.457 2.185 C 11.960 2.379,11.376 2.713,11.230 2.886 C 10.705 3.510,11.161 4.479,11.979 4.480 C 12.190 4.480,12.359 4.429,12.726 4.253 L 13.200 4.027 14.093 4.010 L 14.987 3.993 14.987 5.010 L 14.987 6.027 13.394 6.027 C 11.278 6.027,10.750 6.117,9.898 6.622 C 9.057 7.122,8.409 8.020,8.147 9.048 L 8.027 9.520 8.027 17.440 C 8.027 23.883,8.040 25.435,8.099 25.760 C 8.395 27.393,9.270 28.659,10.570 29.335 C 11.719 29.933,12.439 30.024,16.000 30.024 C 19.561 30.024,20.281 29.933,21.430 29.335 C 22.730 28.659,23.605 27.393,23.901 25.760 C 23.960 25.435,23.973 23.883,23.973 17.440 L 23.973 9.520 23.848 9.040 C 23.418 7.397,22.197 6.315,20.516 6.084 C 20.287 6.052,19.405 6.027,18.556 6.027 L 17.013 6.027 17.013 5.013 L 17.013 4.000 17.884 4.000 L 18.754 4.000 19.248 4.240 C 19.639 4.430,19.798 4.480,20.017 4.480 C 20.854 4.479,21.299 3.491,20.747 2.862 C 20.573 2.664,19.710 2.221,19.281 2.109 C 18.957 2.025,14.661 1.961,13.493 2.023 M20.616 8.121 C 21.201 8.317,21.676 8.792,21.880 9.386 C 21.928 9.525,21.948 10.777,21.960 14.276 C 21.975 18.743,21.971 18.980,21.881 19.007 C 21.719 19.056,19.647 19.301,18.613 19.394 C 17.279 19.514,14.721 19.514,13.387 19.394 C 12.358 19.302,10.282 19.056,10.120 19.007 C 10.032 18.981,10.027 18.716,10.027 14.426 C 10.027 11.298,10.045 9.783,10.086 9.589 C 10.166 9.208,10.431 8.720,10.663 8.527 C 10.955 8.285,11.362 8.107,11.739 8.056 C 11.926 8.031,13.940 8.015,16.213 8.021 C 19.940 8.029,20.373 8.039,20.616 8.121 M12.613 9.087 C 12.380 9.189,12.065 9.562,12.023 9.786 C 11.939 10.237,12.154 10.683,12.547 10.874 C 12.777 10.985,12.828 10.987,15.992 10.987 C 19.557 10.987,19.404 11.002,19.744 10.625 C 20.174 10.147,20.031 9.406,19.453 9.126 C 19.223 9.015,19.174 9.013,15.996 9.015 C 13.461 9.017,12.739 9.032,12.613 9.087 M10.907 21.143 C 12.806 21.383,14.404 21.493,16.000 21.493 C 17.259 21.493,18.272 21.441,19.653 21.304 C 20.495 21.220,21.650 21.080,21.853 21.037 L 21.973 21.011 21.973 21.995 L 21.973 22.979 20.943 22.996 C 19.927 23.013,19.909 23.015,19.696 23.156 C 19.139 23.525,19.054 24.240,19.513 24.699 C 19.621 24.807,19.805 24.921,19.921 24.954 C 20.038 24.986,20.546 25.013,21.052 25.013 L 21.971 25.013 21.942 25.267 C 21.783 26.615,20.981 27.551,19.703 27.878 C 19.368 27.964,19.021 27.973,16.000 27.973 C 12.979 27.973,12.632 27.964,12.297 27.878 C 11.085 27.568,10.322 26.747,10.109 25.526 C 10.064 25.266,10.027 25.046,10.027 25.037 C 10.027 25.028,10.537 25.013,11.160 25.004 C 12.449 24.984,12.529 24.962,12.825 24.541 C 12.957 24.353,12.985 24.261,12.985 24.010 C 12.985 23.636,12.858 23.398,12.540 23.174 L 12.311 23.013 11.169 22.995 L 10.027 22.978 10.027 21.994 L 10.027 21.011 10.147 21.037 C 10.213 21.051,10.555 21.099,10.907 21.143 " fill="var(--db-icon-color, currentColor)" stroke="none" fill-rule="evenodd"></path></svg>