<svg id="icon" height="32" viewBox="0 0 32 32" width="32" xmlns="http://www.w3.org/2000/svg"><path d="M17.893 7.013 C 17.864 7.023,17.774 7.045,17.694 7.063 C 17.614 7.080,17.461 7.172,17.353 7.267 C 16.794 7.758,16.932 8.591,17.627 8.912 C 17.814 8.999,17.986 9.011,19.051 9.012 L 20.262 9.013 20.428 9.560 C 20.519 9.861,20.642 10.256,20.701 10.439 C 20.760 10.622,20.800 10.807,20.791 10.850 C 20.775 10.920,15.427 17.440,15.385 17.440 C 15.376 17.440,14.823 15.802,14.157 13.800 C 13.490 11.798,12.934 10.133,12.922 10.100 C 12.910 10.065,12.987 10.024,13.103 10.003 C 14.034 9.832,14.308 8.722,13.551 8.187 L 13.324 8.027 11.565 8.011 C 9.851 7.995,9.799 7.998,9.566 8.110 C 9.203 8.286,9.040 8.567,9.040 9.018 C 9.040 9.338,9.058 9.399,9.203 9.582 C 9.443 9.883,9.684 9.980,10.280 10.020 L 10.791 10.053 11.261 11.463 C 11.645 12.615,11.719 12.887,11.666 12.956 C 11.631 13.002,11.291 13.412,10.912 13.867 C 10.532 14.321,10.218 14.699,10.213 14.706 C 10.209 14.713,10.038 14.637,9.833 14.536 C 9.175 14.212,8.600 14.074,7.774 14.041 C 6.690 13.998,5.954 14.141,5.113 14.559 C 2.678 15.768,1.477 18.441,2.219 21.001 C 2.769 22.900,4.241 24.326,6.176 24.837 C 6.620 24.955,6.807 24.974,7.493 24.975 C 8.191 24.976,8.361 24.958,8.827 24.835 C 9.387 24.686,10.179 24.334,10.597 24.046 C 10.942 23.809,11.594 23.180,11.877 22.813 C 12.286 22.282,12.677 21.460,12.854 20.760 L 12.911 20.533 13.909 20.531 C 15.033 20.528,15.279 20.496,15.545 20.314 C 15.647 20.244,17.032 18.608,18.623 16.678 C 20.893 13.924,21.524 13.189,21.552 13.266 C 21.572 13.320,21.673 13.647,21.777 13.993 L 21.965 14.621 21.723 14.764 C 20.461 15.510,19.546 16.729,19.162 18.176 C 18.972 18.891,18.961 20.007,19.136 20.711 C 19.665 22.835,21.164 24.334,23.289 24.864 C 23.988 25.038,25.105 25.026,25.824 24.837 C 26.843 24.569,27.745 24.041,28.453 23.300 C 30.531 21.125,30.508 17.773,28.401 15.649 C 27.925 15.168,27.526 14.881,26.901 14.570 C 26.130 14.186,25.667 14.075,24.642 14.032 L 23.871 14.000 23.592 13.093 C 23.439 12.595,23.312 12.145,23.310 12.093 C 23.307 12.007,23.410 12.000,24.756 12.000 C 26.102 12.000,26.222 11.992,26.429 11.892 C 26.746 11.739,27.857 10.591,27.944 10.327 C 28.156 9.686,27.669 9.013,26.994 9.013 C 26.678 9.013,26.491 9.124,25.992 9.607 L 25.558 10.028 24.106 10.014 L 22.654 10.000 22.274 8.747 C 21.930 7.613,21.876 7.476,21.702 7.302 C 21.412 7.012,21.229 6.986,19.483 6.991 C 18.638 6.993,17.923 7.003,17.893 7.013 M13.059 16.850 C 13.355 17.743,13.590 18.481,13.581 18.491 C 13.571 18.500,12.685 18.502,11.611 18.494 L 9.660 18.480 11.054 16.814 C 11.821 15.897,12.465 15.165,12.484 15.187 C 12.504 15.209,12.762 15.957,13.059 16.850 M8.493 16.158 C 8.691 16.220,8.853 16.283,8.853 16.297 C 8.853 16.312,8.379 16.893,7.799 17.588 C 7.219 18.284,6.698 18.925,6.641 19.013 C 6.566 19.127,6.536 19.267,6.535 19.497 C 6.533 19.897,6.711 20.203,7.053 20.386 C 7.274 20.503,7.329 20.507,9.052 20.524 L 10.823 20.541 10.722 20.808 C 10.352 21.781,9.365 22.635,8.295 22.906 C 7.560 23.092,6.590 22.961,5.851 22.576 C 5.280 22.279,4.675 21.654,4.387 21.067 C 3.367 18.980,4.516 16.604,6.800 16.075 C 7.237 15.974,8.031 16.013,8.493 16.158 M25.601 16.190 C 27.237 16.707,28.263 18.461,27.924 20.162 C 27.654 21.521,26.591 22.611,25.247 22.910 C 24.643 23.044,23.900 22.995,23.323 22.784 C 22.766 22.579,22.388 22.327,21.964 21.877 C 20.939 20.790,20.724 19.192,21.424 17.851 C 21.637 17.441,22.475 16.530,22.556 16.619 C 22.579 16.645,22.823 17.410,23.098 18.319 C 23.634 20.091,23.709 20.249,24.091 20.408 C 24.455 20.560,24.989 20.453,25.238 20.177 C 25.372 20.029,25.493 19.709,25.493 19.504 C 25.493 19.365,24.662 16.503,24.496 16.071 C 24.466 15.993,24.501 15.987,24.821 16.020 C 25.018 16.040,25.369 16.117,25.601 16.190 " fill="var(--db-icon-color, currentColor)" stroke="none" fill-rule="evenodd"></path></svg>