<svg id="icon" height="32" viewBox="0 0 32 32" width="32" xmlns="http://www.w3.org/2000/svg"><path d="M19.653 2.103 C 18.764 2.353,18.099 2.900,17.704 3.705 C 17.534 4.051,17.389 4.642,17.389 4.987 C 17.389 5.345,17.536 5.923,17.735 6.341 C 17.955 6.805,18.521 7.400,18.970 7.641 C 19.331 7.835,19.989 8.000,20.395 7.999 C 21.943 7.995,23.263 6.762,23.396 5.195 C 23.455 4.489,23.155 3.595,22.670 3.033 C 22.397 2.717,21.823 2.326,21.413 2.177 C 21.006 2.029,20.058 1.989,19.653 2.103 M20.929 4.181 C 21.407 4.462,21.560 5.114,21.251 5.558 C 20.968 5.965,20.489 6.121,20.066 5.944 C 19.497 5.707,19.279 5.072,19.580 4.527 C 19.833 4.068,20.461 3.907,20.929 4.181 M19.185 9.681 C 18.803 9.777,14.546 11.952,14.315 12.170 C 14.224 12.255,14.125 12.407,14.094 12.507 C 14.063 12.607,13.923 13.454,13.782 14.390 L 13.527 16.091 13.674 16.392 C 13.785 16.620,13.879 16.727,14.057 16.832 C 14.331 16.992,14.725 17.015,14.975 16.886 C 15.151 16.795,15.442 16.483,15.487 16.337 C 15.504 16.284,15.615 15.641,15.733 14.910 C 15.852 14.178,15.959 13.570,15.970 13.559 C 15.982 13.547,16.587 13.204,17.316 12.795 C 18.402 12.187,18.643 12.071,18.656 12.149 C 18.664 12.201,18.537 13.563,18.373 15.175 C 18.208 16.788,18.071 18.215,18.068 18.347 C 18.056 18.869,18.060 18.874,20.143 20.965 L 22.088 22.917 22.902 26.165 C 23.349 27.952,23.744 29.466,23.778 29.531 C 23.878 29.717,24.167 29.909,24.440 29.970 C 24.971 30.089,25.535 29.715,25.625 29.184 C 25.653 29.018,25.491 28.287,24.824 25.568 C 24.364 23.694,23.952 22.088,23.909 22.000 C 23.865 21.912,22.990 20.998,21.964 19.969 L 20.099 18.098 20.454 14.422 C 20.840 10.442,20.840 10.434,20.572 10.043 C 20.322 9.678,19.770 9.534,19.185 9.681 M22.267 11.895 C 21.669 12.021,21.355 12.546,21.528 13.130 C 21.593 13.351,21.709 13.500,22.218 14.025 L 22.830 14.655 24.042 15.284 C 25.136 15.853,25.285 15.916,25.585 15.936 C 25.869 15.956,25.950 15.939,26.151 15.822 C 26.709 15.494,26.816 14.803,26.384 14.310 C 26.256 14.163,25.947 13.984,25.147 13.592 L 24.080 13.070 23.573 12.558 C 23.295 12.277,23.019 12.019,22.960 11.987 C 22.809 11.902,22.455 11.856,22.267 11.895 M2.580 16.102 C 2.078 16.330,1.860 16.983,2.123 17.474 C 2.211 17.639,2.541 17.913,2.708 17.959 C 2.788 17.982,4.509 18.000,6.533 18.000 C 10.108 18.000,10.219 17.997,10.423 17.893 C 10.539 17.835,10.707 17.694,10.797 17.582 C 10.942 17.399,10.960 17.338,10.960 17.018 C 10.960 16.570,10.797 16.286,10.440 16.113 C 10.209 16.001,10.169 16.000,6.503 16.001 C 3.002 16.002,2.788 16.008,2.580 16.102 M4.878 20.100 C 4.134 20.440,4.094 21.458,4.808 21.867 L 5.040 22.000 8.609 22.015 C 11.088 22.026,12.267 22.012,12.466 21.971 C 13.359 21.785,13.568 20.672,12.806 20.157 L 12.613 20.027 8.853 20.014 C 5.293 20.002,5.082 20.006,4.878 20.100 M17.147 20.847 C 17.029 20.901,16.890 20.994,16.836 21.054 C 16.732 21.172,13.547 28.276,13.402 28.715 C 13.123 29.559,14.069 30.302,14.844 29.848 C 14.973 29.773,15.114 29.656,15.157 29.589 C 15.260 29.431,18.447 22.286,18.549 21.986 C 18.614 21.795,18.616 21.718,18.558 21.513 C 18.382 20.886,17.731 20.579,17.147 20.847 " fill="var(--db-icon-color, currentColor)" stroke="none" fill-rule="evenodd"></path></svg>