<svg id="icon" height="20" viewBox="0 0 20 20" width="20" xmlns="http://www.w3.org/2000/svg"><path d="M3.304 6.036 C 2.893 6.117,2.408 6.481,2.205 6.863 C 2.002 7.244,2.001 7.252,2.000 9.807 C 2.000 12.087,2.001 12.134,2.070 12.318 C 2.165 12.571,2.429 12.835,2.682 12.930 C 2.845 12.991,2.942 13.000,3.430 13.000 L 3.991 13.000 4.030 13.195 C 4.100 13.551,4.369 13.849,4.714 13.951 C 4.945 14.020,7.048 14.022,7.274 13.955 C 7.624 13.849,7.899 13.548,7.974 13.187 L 8.014 13.000 10.002 13.000 L 11.991 13.000 12.009 13.135 C 12.058 13.497,12.357 13.845,12.708 13.949 C 12.958 14.023,15.042 14.023,15.292 13.949 C 15.643 13.845,15.942 13.497,15.991 13.135 L 16.009 13.000 16.570 13.000 C 17.058 13.000,17.155 12.991,17.318 12.930 C 17.571 12.835,17.835 12.571,17.930 12.318 C 17.999 12.134,18.000 12.087,18.000 9.807 C 17.999 7.252,17.998 7.244,17.795 6.863 C 17.585 6.468,17.108 6.117,16.670 6.034 C 16.447 5.992,3.519 5.994,3.304 6.036 M16.000 9.000 L 16.000 10.000 10.000 10.000 L 4.000 10.000 4.000 9.000 L 4.000 8.000 10.000 8.000 L 16.000 8.000 16.000 9.000 " fill="var(--db-icon-color, currentColor)" stroke="none" fill-rule="evenodd"></path></svg>