<svg id="icon" height="32" viewBox="0 0 32 32" width="32" xmlns="http://www.w3.org/2000/svg"><path d="M14.598 4.642 C 14.047 4.940,13.944 5.736,14.399 6.182 C 14.520 6.301,15.203 6.696,16.203 7.225 C 17.089 7.694,17.813 8.091,17.813 8.106 C 17.813 8.122,16.943 8.405,15.880 8.735 L 13.947 9.334 13.495 8.873 C 13.247 8.619,12.965 8.379,12.870 8.339 C 12.375 8.132,11.760 8.384,11.577 8.870 C 11.502 9.068,11.508 9.483,11.589 9.667 C 11.687 9.890,12.996 11.242,13.230 11.362 C 13.343 11.419,13.531 11.467,13.647 11.467 C 13.885 11.467,26.859 7.464,27.071 7.325 C 27.260 7.202,27.398 6.988,27.468 6.711 C 27.618 6.114,27.139 5.493,26.526 5.493 C 26.418 5.493,25.051 5.889,23.489 6.373 C 21.927 6.857,20.620 7.253,20.585 7.253 C 20.550 7.253,19.390 6.649,18.007 5.911 C 15.556 4.603,15.485 4.569,15.147 4.551 C 14.873 4.536,14.757 4.555,14.598 4.642 M3.740 15.037 C 3.007 15.224,2.760 16.159,3.300 16.699 C 3.556 16.955,3.786 17.013,4.560 17.013 C 5.908 17.015,7.255 17.257,8.712 17.759 C 10.754 18.464,13.006 19.813,14.571 21.271 C 16.185 22.773,16.979 24.025,16.979 25.067 C 16.978 26.102,16.359 26.546,14.480 26.862 C 14.016 26.940,13.283 26.956,8.853 26.983 L 3.760 27.013 3.522 27.147 C 3.104 27.381,2.917 27.812,3.039 28.263 C 3.115 28.545,3.427 28.862,3.714 28.948 C 3.990 29.031,12.049 29.039,13.253 28.958 C 15.704 28.792,17.238 28.281,18.137 27.328 C 18.703 26.728,18.926 26.172,18.972 25.248 C 18.994 24.797,18.979 24.557,18.909 24.243 C 18.043 20.351,11.765 15.833,6.240 15.125 C 5.479 15.028,3.982 14.975,3.740 15.037 M3.733 18.249 C 3.458 18.328,3.202 18.545,3.089 18.794 C 2.999 18.990,2.989 19.162,2.988 20.427 C 2.987 21.205,3.010 21.922,3.039 22.022 C 3.126 22.328,3.318 22.555,3.600 22.690 C 3.856 22.811,3.941 22.819,5.733 22.875 C 8.267 22.954,9.434 23.095,10.853 23.492 C 12.055 23.829,11.968 23.813,12.218 23.738 C 12.530 23.645,13.240 22.961,13.366 22.633 C 13.485 22.319,13.442 21.976,13.252 21.727 C 13.168 21.617,12.754 21.302,12.299 21.002 C 9.423 19.108,7.280 18.340,4.533 18.221 C 4.191 18.207,3.837 18.219,3.733 18.249 " fill="var(--db-icon-color, currentColor)" stroke="none" fill-rule="evenodd"></path></svg>