<svg id="icon" height="32" viewBox="0 0 32 32" width="32" xmlns="http://www.w3.org/2000/svg"><path d="M2.587 5.094 C 2.099 5.356,1.904 5.839,2.076 6.360 C 2.145 6.571,2.416 6.849,2.630 6.930 C 2.726 6.966,3.472 6.987,4.683 6.987 C 8.550 6.988,10.179 7.176,12.773 7.920 C 18.858 9.665,25.099 14.199,27.281 18.460 C 28.282 20.416,28.223 22.121,27.115 23.233 C 26.204 24.147,24.648 24.645,21.867 24.915 C 21.389 24.961,18.572 24.988,11.916 25.010 L 2.632 25.040 2.435 25.190 C 2.190 25.377,2.099 25.513,2.038 25.789 C 1.939 26.232,2.192 26.739,2.598 26.913 C 2.742 26.975,4.242 26.987,11.745 26.986 C 17.120 26.986,21.030 26.964,21.493 26.933 C 23.955 26.764,25.716 26.385,27.072 25.733 C 29.023 24.793,29.978 23.256,29.988 21.040 C 29.992 19.938,29.751 19.016,29.121 17.733 C 27.916 15.277,25.672 12.855,22.403 10.483 C 18.187 7.422,14.041 5.742,9.227 5.141 C 8.657 5.070,7.906 5.047,5.627 5.030 C 3.056 5.011,2.729 5.018,2.587 5.094 M2.587 9.094 C 2.096 9.358,1.904 9.839,2.078 10.366 C 2.157 10.607,2.503 10.920,2.730 10.955 C 2.827 10.970,3.915 10.994,5.147 11.008 C 7.460 11.034,8.205 11.086,9.547 11.311 C 10.809 11.523,12.355 11.959,13.707 12.483 C 14.156 12.658,16.046 13.583,16.228 13.717 C 16.314 13.781,16.281 13.828,15.854 14.252 L 15.387 14.717 14.400 14.589 C 11.302 14.187,8.642 14.027,5.047 14.027 C 2.732 14.027,2.706 14.028,2.498 14.145 C 1.968 14.443,1.848 15.243,2.269 15.682 C 2.557 15.983,2.623 15.991,5.413 16.021 C 9.376 16.065,11.598 16.228,15.421 16.754 C 15.873 16.817,15.888 16.815,16.168 16.678 C 16.386 16.571,16.733 16.257,17.639 15.346 C 18.852 14.125,18.987 13.947,18.987 13.569 C 18.987 13.224,18.797 12.982,18.239 12.615 C 15.711 10.953,12.789 9.818,9.733 9.311 C 8.381 9.086,7.848 9.053,5.280 9.030 C 3.023 9.010,2.729 9.017,2.587 9.094 " fill="var(--db-icon-color, currentColor)" stroke="none" fill-rule="evenodd"></path></svg>