<svg id="icon" height="24" viewBox="0 0 24 24" width="24" xmlns="http://www.w3.org/2000/svg"><path d="M8.802 6.400 C 7.648 6.618,6.650 6.819,6.584 6.846 C 6.322 6.955,6.096 7.234,6.022 7.540 C 6.007 7.606,6.016 7.939,6.043 8.282 C 6.138 9.489,5.929 10.645,5.554 10.985 C 5.481 11.052,5.258 11.111,4.556 11.249 C 3.904 11.377,3.580 11.461,3.396 11.548 C 2.689 11.881,2.212 12.470,2.057 13.200 C 1.989 13.520,1.976 16.053,2.042 16.289 C 2.103 16.509,2.315 16.762,2.531 16.874 C 2.932 17.080,3.390 17.012,3.700 16.702 C 3.985 16.417,4.000 16.328,4.000 14.895 C 4.000 14.196,4.017 13.601,4.038 13.545 C 4.059 13.489,4.129 13.417,4.193 13.384 C 4.257 13.350,7.835 12.665,12.145 11.861 C 16.454 11.057,20.030 10.389,20.092 10.376 C 20.201 10.353,20.192 10.377,19.744 11.271 C 19.377 12.005,19.266 12.195,19.192 12.213 C 19.142 12.225,16.716 12.670,13.802 13.201 C 10.396 13.822,8.453 14.193,8.362 14.240 C 7.668 14.598,7.654 15.580,8.336 15.980 C 8.430 16.035,8.586 16.090,8.683 16.103 C 8.816 16.121,10.012 15.917,13.491 15.283 C 16.037 14.819,18.130 14.440,18.140 14.440 C 18.150 14.440,18.140 14.487,18.118 14.545 C 18.022 14.799,17.997 15.013,18.041 15.223 C 18.198 15.979,19.153 16.256,19.696 15.703 C 19.925 15.470,22.957 9.400,22.989 9.110 C 23.048 8.579,22.654 8.074,22.134 8.015 C 21.986 7.999,21.221 8.128,18.920 8.557 C 17.259 8.867,15.864 9.128,15.820 9.138 C 15.754 9.153,15.714 9.108,15.603 8.895 C 15.254 8.221,14.451 7.309,13.840 6.893 C 13.042 6.350,12.233 6.073,11.299 6.024 C 10.918 6.004,10.807 6.020,8.802 6.400 M11.544 8.062 C 12.124 8.163,12.619 8.419,13.069 8.852 C 13.320 9.093,13.665 9.509,13.636 9.536 C 13.607 9.563,7.956 10.610,7.939 10.592 C 7.929 10.582,7.949 10.441,7.982 10.277 C 8.015 10.114,8.054 9.662,8.067 9.273 L 8.091 8.566 8.556 8.481 C 8.811 8.435,9.497 8.309,10.080 8.202 C 10.663 8.095,11.151 8.006,11.165 8.004 C 11.178 8.002,11.349 8.028,11.544 8.062 M5.699 17.053 C 5.446 17.136,5.346 17.220,5.019 17.623 C 4.652 18.075,4.273 18.431,3.920 18.659 C 3.581 18.878,3.376 18.955,3.013 19.001 C 2.667 19.045,2.478 19.125,2.301 19.301 C 2.097 19.506,2.020 19.702,2.020 20.020 C 2.020 20.254,2.038 20.331,2.131 20.489 C 2.432 21.001,3.028 21.127,3.880 20.858 C 4.493 20.664,5.000 20.365,5.649 19.813 L 5.999 19.515 6.385 19.842 C 7.010 20.371,7.497 20.657,8.120 20.863 C 8.425 20.964,8.516 20.975,9.000 20.975 C 9.483 20.975,9.576 20.963,9.880 20.864 C 10.501 20.660,11.105 20.291,11.775 19.706 L 11.997 19.512 12.389 19.839 C 13.053 20.394,13.460 20.634,14.091 20.846 C 15.214 21.222,16.326 20.906,17.602 19.847 L 18.003 19.513 18.292 19.771 C 19.131 20.523,19.957 20.926,20.783 20.987 C 21.028 21.005,21.155 20.995,21.306 20.945 C 21.533 20.869,21.797 20.632,21.904 20.407 C 22.209 19.765,21.710 19.003,20.983 18.999 C 20.551 18.997,20.041 18.652,19.179 17.781 C 18.614 17.209,18.513 17.124,18.325 17.062 C 18.057 16.972,17.788 16.994,17.532 17.126 C 17.390 17.199,17.266 17.321,17.049 17.602 C 16.338 18.520,15.777 18.928,15.141 18.987 C 14.420 19.055,13.764 18.646,12.984 17.643 C 12.587 17.132,12.410 17.020,12.001 17.020 C 11.598 17.020,11.422 17.126,11.051 17.594 C 9.590 19.440,8.452 19.465,7.020 17.680 C 6.733 17.323,6.597 17.186,6.462 17.121 C 6.240 17.013,5.910 16.984,5.699 17.053 " fill="var(--db-icon-color, currentColor)" stroke="none" fill-rule="evenodd"></path></svg>