<svg id="icon" height="32" viewBox="0 0 32 32" width="32" xmlns="http://www.w3.org/2000/svg"><path d="M12.796 11.517 C 11.078 11.805,9.602 12.077,9.516 12.122 C 9.327 12.219,9.217 12.340,9.093 12.584 C 9.014 12.740,9.007 12.830,9.046 13.171 C 9.072 13.392,9.093 13.897,9.092 14.293 C 9.092 14.895,9.071 15.079,8.968 15.413 C 8.808 15.929,8.492 16.531,8.351 16.590 C 8.290 16.616,7.292 16.802,6.133 17.005 C 4.975 17.208,3.895 17.425,3.733 17.488 C 2.958 17.787,2.350 18.493,2.100 19.387 C 1.983 19.804,1.926 22.742,2.026 23.189 C 2.194 23.942,3.078 24.249,3.634 23.747 C 3.750 23.642,3.874 23.506,3.909 23.445 C 3.954 23.367,3.981 22.796,4.000 21.564 C 4.025 19.882,4.032 19.787,4.137 19.647 C 4.197 19.566,4.305 19.458,4.377 19.406 C 4.473 19.336,7.442 18.796,15.707 17.345 C 21.867 16.264,26.914 15.384,26.924 15.391 C 26.933 15.397,26.703 15.783,26.412 16.247 L 25.884 17.092 17.319 18.565 C 12.608 19.375,8.681 20.068,8.591 20.105 C 8.323 20.216,8.066 20.543,8.024 20.828 C 7.929 21.461,8.380 21.990,9.008 21.983 C 9.195 21.981,23.631 19.532,24.334 19.382 C 24.470 19.354,24.434 19.426,23.833 20.382 C 22.953 21.782,22.928 21.841,23.043 22.255 C 23.252 23.007,24.197 23.235,24.725 22.660 C 24.986 22.375,29.930 14.406,29.978 14.192 C 30.100 13.651,29.683 13.078,29.131 13.028 C 28.961 13.012,27.691 13.214,25.201 13.653 L 21.521 14.302 21.441 14.178 C 20.922 13.382,19.956 12.360,19.291 11.903 C 18.756 11.535,17.994 11.180,17.509 11.072 C 16.720 10.896,16.220 10.944,12.796 11.517 M17.091 13.042 C 17.540 13.158,18.046 13.443,18.507 13.836 C 18.995 14.254,19.343 14.657,19.243 14.692 C 19.173 14.716,10.952 16.160,10.884 16.160 C 10.864 16.160,10.904 15.938,10.973 15.667 C 11.056 15.344,11.110 14.940,11.131 14.501 L 11.162 13.828 13.701 13.400 C 15.097 13.164,16.361 12.969,16.509 12.966 C 16.657 12.963,16.918 12.997,17.091 13.042 M5.868 24.085 C 5.766 24.129,5.502 24.340,5.281 24.554 C 4.465 25.346,3.529 25.926,2.922 26.017 C 2.755 26.043,2.535 26.120,2.434 26.189 C 1.801 26.623,1.898 27.594,2.605 27.907 C 2.807 27.996,2.915 28.009,3.250 27.981 C 4.123 27.910,5.010 27.494,5.905 26.735 L 6.239 26.451 6.647 26.775 C 7.430 27.398,8.019 27.714,8.737 27.898 C 9.888 28.192,11.130 27.795,12.423 26.719 L 12.744 26.452 13.223 26.842 C 13.770 27.287,14.457 27.667,15.040 27.848 C 15.557 28.009,16.388 28.019,16.907 27.871 C 17.572 27.681,18.262 27.292,18.917 26.736 L 19.250 26.454 19.698 26.814 C 20.941 27.811,22.147 28.179,23.255 27.899 C 24.014 27.708,24.583 27.402,25.377 26.757 L 25.768 26.440 25.937 26.596 C 26.825 27.415,28.078 28.002,28.929 27.999 C 29.733 27.995,30.241 27.206,29.877 26.526 C 29.770 26.326,29.448 26.086,29.241 26.052 C 28.229 25.886,27.886 25.690,26.850 24.684 C 25.878 23.740,25.631 23.751,24.565 24.789 C 22.901 26.408,22.135 26.391,20.359 24.695 C 19.363 23.744,19.121 23.752,18.083 24.763 C 17.424 25.405,17.040 25.687,16.581 25.870 C 15.771 26.191,14.936 25.833,13.818 24.688 C 12.911 23.760,12.589 23.759,11.684 24.684 C 10.541 25.852,9.674 26.211,8.877 25.846 C 8.464 25.656,8.135 25.408,7.403 24.732 C 6.603 23.995,6.336 23.882,5.868 24.085 " fill="var(--db-icon-color, currentColor)" stroke="none" fill-rule="evenodd"></path></svg>