<svg id="icon" height="32" viewBox="0 0 32 32" width="32" xmlns="http://www.w3.org/2000/svg"><path d="M25.457 5.547 C 24.174 5.824,23.917 5.926,23.463 6.333 C 22.966 6.780,22.665 7.442,22.656 8.107 C 22.653 8.341,22.888 9.728,23.383 12.392 C 23.784 14.559,24.105 16.339,24.095 16.349 C 24.085 16.360,23.772 16.558,23.401 16.791 C 21.702 17.855,20.324 19.083,19.730 20.061 C 19.328 20.723,18.987 21.935,18.987 22.703 L 18.987 22.987 13.980 22.987 L 8.973 22.987 8.883 22.628 C 8.528 21.214,7.256 20.145,5.784 20.022 C 3.597 19.841,1.761 21.744,2.032 23.910 C 2.133 24.716,2.463 25.387,3.045 25.969 C 3.693 26.617,4.404 26.932,5.314 26.975 C 6.603 27.035,7.754 26.452,8.427 25.396 L 8.667 25.020 14.367 25.016 C 18.672 25.014,20.120 24.997,20.283 24.949 C 20.581 24.859,20.881 24.561,20.957 24.277 C 20.997 24.128,21.007 23.872,20.984 23.557 C 20.946 23.036,21.020 22.226,21.144 21.806 C 21.378 21.014,21.905 20.374,23.095 19.434 C 23.581 19.050,24.502 18.438,24.516 18.490 C 24.522 18.514,24.604 18.952,24.697 19.465 C 24.858 20.345,24.862 20.399,24.773 20.451 C 24.721 20.482,24.537 20.611,24.364 20.739 C 23.478 21.394,22.916 22.643,23.008 23.751 C 23.161 25.586,24.677 26.989,26.502 26.986 C 28.122 26.983,29.492 25.908,29.898 24.320 C 30.092 23.562,29.968 22.572,29.586 21.842 C 29.346 21.382,28.612 20.662,28.133 20.416 C 27.725 20.205,27.263 20.053,27.033 20.053 C 26.953 20.053,26.873 20.031,26.856 20.005 C 26.822 19.949,24.640 8.222,24.640 8.092 C 24.640 8.045,24.694 7.943,24.761 7.865 C 24.869 7.740,25.014 7.696,26.087 7.467 C 27.328 7.203,27.516 7.140,27.717 6.924 C 28.131 6.481,28.063 5.801,27.569 5.443 C 27.369 5.298,27.305 5.281,26.992 5.286 C 26.794 5.289,26.122 5.404,25.457 5.547 M3.598 16.096 C 3.154 16.306,2.915 16.775,3.031 17.207 C 3.119 17.539,3.230 17.689,3.507 17.851 C 3.731 17.982,3.805 17.993,4.686 18.031 C 5.204 18.053,5.795 18.097,6.000 18.130 C 7.582 18.384,8.462 19.007,9.033 20.279 C 9.231 20.718,9.625 21.013,10.014 21.013 C 10.249 21.013,10.678 20.771,10.823 20.557 C 11.031 20.249,11.033 19.891,10.830 19.402 C 10.498 18.605,9.753 17.656,9.084 17.178 C 8.767 16.951,8.094 16.623,7.625 16.466 C 6.840 16.204,5.967 16.074,4.655 16.025 C 3.897 15.997,3.792 16.004,3.598 16.096 M6.010 22.097 C 6.770 22.378,7.169 23.232,6.904 24.011 C 6.663 24.718,5.827 25.149,5.105 24.939 C 3.773 24.552,3.627 22.739,4.880 22.152 C 5.179 22.013,5.710 21.987,6.010 22.097 M27.120 22.152 C 28.373 22.739,28.227 24.552,26.895 24.939 C 26.530 25.045,26.213 25.011,25.828 24.823 C 24.673 24.259,24.775 22.545,25.990 22.097 C 26.290 21.987,26.821 22.013,27.120 22.152 " fill="var(--db-icon-color, currentColor)" stroke="none" fill-rule="evenodd"></path></svg>