<svg id="icon" height="24" viewBox="0 0 24 24" width="24" xmlns="http://www.w3.org/2000/svg"><path d="M17.606 3.743 C 16.998 3.867,16.464 3.998,16.346 4.053 C 15.920 4.248,15.601 4.685,15.520 5.181 C 15.487 5.386,15.534 5.688,16.021 8.394 C 16.317 10.036,16.569 11.425,16.580 11.480 C 16.597 11.562,16.574 11.598,16.451 11.680 C 16.050 11.948,15.252 12.621,14.840 13.038 C 14.081 13.806,13.747 14.347,13.420 15.333 C 13.252 15.842,13.080 16.570,13.080 16.774 C 13.080 17.017,13.275 17.000,10.435 17.000 L 7.839 17.000 7.743 16.783 C 7.252 15.672,6.044 14.935,4.840 15.012 C 4.387 15.041,4.169 15.097,3.740 15.298 C 2.474 15.891,1.784 17.239,2.062 18.581 C 2.446 20.445,4.416 21.494,6.161 20.765 C 6.829 20.485,7.451 19.876,7.743 19.217 L 7.839 19.000 10.992 19.000 C 14.545 19.000,14.390 19.013,14.701 18.701 C 14.899 18.503,15.000 18.238,15.000 17.917 C 15.000 16.856,15.313 15.672,15.771 15.005 C 15.999 14.672,16.931 13.758,16.986 13.813 C 16.996 13.823,17.074 14.206,17.158 14.665 L 17.313 15.500 17.127 15.660 C 16.543 16.162,16.205 16.717,16.063 17.408 C 15.637 19.485,17.512 21.366,19.581 20.938 C 20.785 20.690,21.690 19.785,21.938 18.581 C 22.095 17.825,21.926 16.974,21.493 16.340 C 21.282 16.031,20.846 15.615,20.538 15.430 C 20.273 15.270,19.635 15.040,19.454 15.039 C 19.391 15.039,19.320 15.026,19.296 15.009 C 19.238 14.970,17.582 5.841,17.626 5.802 C 17.645 5.785,18.002 5.704,18.420 5.622 C 19.277 5.453,19.364 5.424,19.579 5.235 C 20.023 4.846,20.023 4.154,19.579 3.765 C 19.227 3.456,19.025 3.453,17.606 3.743 M3.664 11.060 C 2.973 11.326,2.783 12.185,3.299 12.701 C 3.508 12.911,3.733 12.985,4.252 13.017 C 5.425 13.091,6.489 13.594,6.993 14.313 C 7.342 14.811,7.619 15.000,8.000 15.000 C 8.664 15.000,9.167 14.297,8.945 13.677 C 8.791 13.246,8.031 12.409,7.446 12.026 C 6.783 11.591,5.880 11.233,5.120 11.104 C 4.551 11.006,3.857 10.986,3.664 11.060 M5.340 17.066 C 5.709 17.192,6.000 17.604,6.000 18.000 C 6.000 18.527,5.527 19.000,5.000 19.000 C 4.758 19.000,4.479 18.881,4.299 18.701 C 3.907 18.309,3.908 17.690,4.300 17.298 C 4.577 17.020,4.957 16.936,5.340 17.066 M19.340 17.066 C 19.709 17.192,20.000 17.604,20.000 18.000 C 20.000 18.527,19.527 19.000,19.000 19.000 C 18.758 19.000,18.479 18.881,18.299 18.701 C 17.907 18.309,17.908 17.690,18.300 17.298 C 18.577 17.020,18.957 16.936,19.340 17.066 " fill="var(--db-icon-color, currentColor)" stroke="none" fill-rule="evenodd"></path></svg>