<svg id="icon" height="24" viewBox="0 0 24 24" width="24" xmlns="http://www.w3.org/2000/svg"><path d="M7.923 2.060 C 7.681 2.129,7.623 2.161,6.930 2.614 C 6.515 2.885,6.428 2.960,6.355 3.109 C 6.208 3.413,6.298 3.704,6.604 3.914 C 6.714 3.989,6.779 4.004,6.940 3.991 C 7.110 3.977,7.220 3.922,7.676 3.627 L 8.213 3.280 8.806 3.280 L 9.400 3.280 9.400 4.636 L 9.400 5.991 8.650 6.011 C 7.788 6.033,7.569 6.077,7.020 6.340 C 6.178 6.744,5.550 7.429,5.235 8.285 C 4.998 8.929,5.003 8.813,5.001 13.720 L 5.000 18.220 3.557 19.660 C 2.764 20.452,2.089 21.149,2.057 21.208 C 1.825 21.645,2.356 22.175,2.792 21.943 C 2.923 21.873,21.893 2.897,21.956 2.773 C 22.149 2.390,21.728 1.912,21.290 2.018 C 21.216 2.036,20.483 2.741,19.052 4.170 L 16.923 6.296 16.672 6.208 C 16.218 6.048,15.892 6.001,15.230 6.001 L 14.600 6.000 14.600 4.640 L 14.600 3.280 15.194 3.280 L 15.787 3.280 16.364 3.626 C 16.838 3.911,16.975 3.975,17.140 3.988 C 17.393 4.009,17.585 3.911,17.712 3.696 C 17.826 3.501,17.817 3.193,17.691 3.016 C 17.589 2.872,16.446 2.178,16.179 2.098 C 16.018 2.049,15.340 2.036,12.063 2.019 C 8.608 2.001,8.114 2.006,7.923 2.060 M13.320 4.640 L 13.320 6.000 12.000 6.000 L 10.680 6.000 10.680 4.640 L 10.680 3.280 12.000 3.280 L 13.320 3.280 13.320 4.640 M17.712 8.515 L 16.924 9.321 16.912 11.550 C 16.900 13.777,16.900 13.780,16.807 14.010 C 16.693 14.292,16.372 14.652,16.124 14.778 C 15.784 14.948,15.619 14.960,13.448 14.963 L 11.380 14.966 10.069 16.312 L 8.759 17.658 8.953 17.744 C 9.207 17.856,9.320 18.034,9.320 18.320 C 9.320 18.592,9.213 18.767,8.979 18.880 C 8.817 18.959,8.747 18.965,8.158 18.956 L 7.515 18.946 6.658 19.802 C 6.186 20.274,5.800 20.670,5.800 20.684 C 5.800 20.697,5.922 20.829,6.070 20.978 C 6.571 21.478,7.169 21.799,7.861 21.938 C 8.144 21.995,8.625 22.001,12.140 21.991 L 16.100 21.979 16.400 21.887 C 17.618 21.516,18.481 20.652,18.868 19.418 L 18.980 19.060 18.980 14.020 L 18.980 8.980 18.888 8.660 C 18.837 8.484,18.729 8.198,18.648 8.025 L 18.500 7.710 17.712 8.515 M11.760 11.460 C 9.857 13.363,8.282 14.920,8.260 14.920 C 8.238 14.920,8.112 14.869,7.980 14.806 C 7.572 14.612,7.259 14.213,7.165 13.768 C 7.103 13.475,7.103 9.445,7.165 9.152 C 7.271 8.653,7.642 8.224,8.115 8.055 C 8.229 8.014,8.999 8.003,11.740 8.002 L 15.220 8.000 11.760 11.460 M16.546 17.763 C 16.773 17.873,16.880 18.051,16.880 18.320 C 16.880 18.591,16.765 18.783,16.544 18.884 C 16.408 18.945,16.278 18.958,15.789 18.959 C 15.129 18.960,15.002 18.929,14.830 18.724 C 14.614 18.468,14.636 18.108,14.882 17.873 C 14.967 17.792,15.078 17.718,15.129 17.708 C 15.179 17.699,15.480 17.688,15.797 17.685 C 16.306 17.681,16.395 17.690,16.546 17.763 " stroke="none" fill-rule="evenodd" fill="black"></path></svg>