<svg id="icon" height="20" viewBox="0 0 20 20" width="20" xmlns="http://www.w3.org/2000/svg"><path d="M6.664 2.035 C 6.277 2.077,5.984 2.155,5.681 2.297 C 4.809 2.706,4.363 3.279,3.943 4.525 L 3.783 5.000 3.142 5.000 L 2.500 5.000 2.500 7.000 L 2.500 9.000 2.999 9.000 L 3.498 9.000 3.507 12.175 L 3.517 15.350 3.610 15.624 C 3.661 15.775,3.769 15.998,3.851 16.120 L 4.000 16.342 4.000 17.171 L 4.000 18.000 5.250 18.000 L 6.500 18.000 6.500 17.500 L 6.500 17.000 10.000 17.000 L 13.500 17.000 13.500 17.500 L 13.500 18.000 14.750 18.000 L 16.000 18.000 16.000 17.163 L 16.000 16.326 16.096 16.205 C 16.220 16.046,16.308 15.870,16.404 15.583 L 16.483 15.350 16.493 12.175 L 16.502 9.000 17.001 9.000 L 17.500 9.000 17.500 7.000 L 17.500 5.000 16.857 5.000 L 16.215 5.000 16.069 4.558 C 15.795 3.727,15.577 3.314,15.205 2.924 C 14.827 2.526,14.278 2.217,13.721 2.090 C 13.425 2.023,13.330 2.021,10.167 2.014 C 8.379 2.010,6.803 2.020,6.664 2.035 M13.483 4.117 C 13.839 4.294,13.996 4.582,14.320 5.650 C 14.414 5.962,14.485 6.228,14.477 6.242 C 14.469 6.255,12.445 6.267,9.979 6.267 C 5.724 6.267,5.496 6.264,5.514 6.208 C 5.523 6.176,5.615 5.880,5.717 5.550 C 5.913 4.912,6.095 4.489,6.252 4.303 C 6.356 4.180,6.552 4.080,6.776 4.035 C 6.853 4.019,8.349 4.009,10.100 4.011 L 13.283 4.017 13.483 4.117 M14.500 9.931 L 14.500 12.096 14.358 12.115 C 13.309 12.255,10.615 12.385,9.450 12.351 C 8.260 12.316,5.979 12.176,5.608 12.115 L 5.500 12.097 5.500 9.932 L 5.500 7.767 10.000 7.767 L 14.500 7.767 14.500 9.931 M6.283 13.885 C 6.613 13.914,6.930 13.952,6.986 13.969 C 7.160 14.024,7.349 14.188,7.452 14.373 C 7.536 14.525,7.550 14.585,7.549 14.800 C 7.549 15.073,7.508 15.179,7.328 15.385 C 7.192 15.539,7.001 15.635,6.787 15.655 C 6.694 15.664,6.297 15.641,5.907 15.604 C 5.264 15.542,5.181 15.527,5.028 15.444 C 4.736 15.285,4.588 15.029,4.586 14.682 C 4.585 14.482,4.600 14.422,4.686 14.269 C 4.858 13.966,5.199 13.784,5.533 13.818 C 5.616 13.826,5.953 13.856,6.283 13.885 M14.898 13.889 C 15.086 13.965,15.212 14.081,15.316 14.271 C 15.398 14.421,15.414 14.488,15.414 14.684 C 15.415 14.884,15.400 14.945,15.313 15.101 C 15.201 15.301,14.979 15.478,14.772 15.530 C 14.705 15.547,14.327 15.587,13.933 15.618 C 13.157 15.679,13.047 15.670,12.831 15.525 C 12.360 15.207,12.307 14.555,12.720 14.153 C 12.903 13.976,13.047 13.939,13.833 13.871 C 14.572 13.807,14.702 13.809,14.898 13.889 " fill="var(--db-icon-color, currentColor)" stroke="none" fill-rule="evenodd"></path></svg>