<svg id="icon" height="24" viewBox="0 0 24 24" width="24" xmlns="http://www.w3.org/2000/svg"><path d="M9.856 2.040 C 8.634 2.141,7.775 2.443,6.949 3.064 C 5.939 3.821,5.315 4.918,5.091 6.329 C 5.026 6.745,5.020 7.183,5.020 12.000 C 5.020 16.817,5.026 17.255,5.091 17.671 C 5.235 18.577,5.519 19.292,6.004 19.973 C 6.582 20.785,7.529 21.446,8.530 21.736 C 9.305 21.961,9.581 21.980,12.000 21.980 C 14.419 21.980,14.695 21.961,15.470 21.736 C 17.033 21.283,18.283 20.033,18.736 18.470 C 18.984 17.613,18.980 17.731,18.980 12.000 C 18.980 6.269,18.984 6.387,18.736 5.530 C 18.283 3.967,17.033 2.717,15.471 2.264 C 14.757 2.057,14.424 2.032,12.260 2.019 C 11.160 2.013,10.078 2.022,9.856 2.040 M14.050 4.042 C 15.001 4.126,15.563 4.360,16.101 4.899 C 16.648 5.446,16.880 6.010,16.959 6.989 C 17.013 7.648,17.013 16.371,16.959 17.020 C 16.880 17.982,16.642 18.560,16.100 19.104 C 15.835 19.370,15.709 19.462,15.383 19.623 C 15.012 19.808,14.986 19.815,14.944 19.745 C 14.595 19.160,14.230 19.017,13.539 19.194 C 12.693 19.412,11.540 19.413,10.542 19.197 C 9.922 19.063,9.639 19.103,9.339 19.366 C 9.260 19.436,9.159 19.563,9.116 19.648 C 9.022 19.832,9.018 19.831,8.540 19.588 C 8.302 19.467,8.138 19.343,7.899 19.103 C 7.359 18.560,7.125 18.000,7.042 17.050 C 6.987 16.417,6.987 7.583,7.042 6.950 C 7.125 6.000,7.359 5.439,7.899 4.897 C 8.419 4.375,9.013 4.122,9.905 4.043 C 10.439 3.995,13.513 3.995,14.050 4.042 M9.640 5.044 C 9.361 5.098,8.918 5.336,8.702 5.548 C 8.360 5.884,8.153 6.276,8.083 6.720 C 8.045 6.958,8.366 12.964,8.437 13.340 C 8.556 13.972,8.954 14.515,9.491 14.777 C 9.906 14.981,10.111 14.999,12.000 14.999 C 13.890 14.999,14.094 14.981,14.511 14.776 C 14.785 14.642,15.144 14.307,15.310 14.033 C 15.569 13.602,15.584 13.474,15.777 10.040 C 15.909 7.696,15.944 6.839,15.916 6.660 C 15.798 5.906,15.110 5.205,14.328 5.044 C 14.072 4.991,9.912 4.991,9.640 5.044 M13.920 7.170 C 13.920 7.264,13.848 8.581,13.760 10.097 C 13.672 11.613,13.600 12.887,13.600 12.927 C 13.600 12.996,13.522 13.000,12.000 13.000 C 10.503 13.000,10.400 12.995,10.400 12.930 C 10.400 12.892,10.328 11.618,10.240 10.100 C 10.152 8.582,10.080 7.264,10.080 7.170 L 10.080 7.000 12.000 7.000 L 13.920 7.000 13.920 7.170 M9.000 16.037 C 8.551 16.174,8.263 16.549,8.262 17.000 C 8.261 17.436,8.515 17.797,8.924 17.942 C 9.120 18.011,10.331 18.024,10.563 17.960 C 10.920 17.861,11.240 17.407,11.240 16.999 C 11.240 16.577,10.924 16.152,10.529 16.042 C 10.359 15.995,9.152 15.991,9.000 16.037 M13.440 16.060 C 12.535 16.349,12.547 17.670,13.457 17.941 C 13.703 18.015,14.815 18.023,15.048 17.953 C 15.247 17.893,15.538 17.639,15.650 17.425 C 15.770 17.198,15.770 16.803,15.652 16.580 C 15.552 16.392,15.356 16.199,15.160 16.095 C 15.041 16.031,14.914 16.019,14.320 16.011 C 13.801 16.005,13.573 16.017,13.440 16.060 " fill="var(--db-icon-color, currentColor)" stroke="none" fill-rule="evenodd"></path></svg>