<svg id="icon" height="24" viewBox="0 0 24 24" width="24" xmlns="http://www.w3.org/2000/svg"><path d="M11.585 2.063 C 10.601 2.302,9.915 3.314,10.076 4.290 C 10.235 5.250,11.098 6.002,12.038 5.999 C 13.143 5.996,14.040 5.101,14.040 4.000 C 14.040 2.710,12.836 1.761,11.585 2.063 M10.820 7.573 C 7.722 8.852,7.917 8.763,7.678 9.000 C 7.536 9.142,7.440 9.277,7.410 9.380 C 7.384 9.468,7.280 10.112,7.179 10.811 C 7.001 12.042,6.997 12.089,7.057 12.294 C 7.133 12.557,7.337 12.775,7.632 12.911 C 8.023 13.090,8.481 12.979,8.776 12.634 C 8.957 12.422,8.970 12.374,9.143 11.281 C 9.221 10.787,9.288 10.380,9.292 10.377 C 9.343 10.338,10.417 9.883,10.428 9.895 C 10.437 9.903,10.386 10.862,10.314 12.025 C 10.190 14.060,10.188 14.146,10.255 14.285 C 10.295 14.370,10.943 15.047,11.792 15.894 L 13.260 17.358 13.757 19.343 C 14.158 20.942,14.278 21.367,14.377 21.532 C 14.858 22.335,16.106 22.030,16.187 21.090 C 16.205 20.890,16.138 20.582,15.683 18.760 C 15.372 17.513,15.115 16.564,15.050 16.425 C 14.955 16.222,14.756 16.007,13.591 14.859 L 12.242 13.528 12.403 11.002 C 12.583 8.196,12.583 8.181,12.345 7.870 C 12.002 7.419,11.452 7.313,10.820 7.573 M14.100 9.675 C 13.738 9.841,13.542 10.173,13.542 10.620 C 13.542 10.938,13.625 11.137,13.847 11.355 C 13.980 11.486,15.591 12.331,15.900 12.433 C 15.991 12.462,16.149 12.477,16.267 12.466 C 16.927 12.404,17.354 11.768,17.142 11.164 C 17.010 10.791,16.882 10.706,15.055 9.784 C 14.639 9.574,14.384 9.545,14.100 9.675 M9.520 16.043 C 9.310 16.085,9.073 16.242,8.919 16.440 C 8.781 16.617,7.088 20.547,7.028 20.830 C 6.874 21.556,7.600 22.179,8.321 21.940 C 8.732 21.803,8.748 21.776,9.788 19.400 L 10.724 17.260 10.709 16.980 C 10.691 16.670,10.598 16.447,10.414 16.272 C 10.200 16.069,9.845 15.978,9.520 16.043 " fill="var(--db-icon-color, currentColor)" stroke="none" fill-rule="evenodd"></path></svg>