<svg id="icon" height="32" viewBox="0 0 32 32" width="32" xmlns="http://www.w3.org/2000/svg"><path d="M24.613 4.099 C 23.705 4.512,23.857 5.782,24.838 5.971 C 25.008 6.004,25.199 6.042,25.263 6.055 C 25.400 6.085,25.687 6.316,25.764 6.461 C 25.816 6.558,27.839 19.897,27.840 20.147 C 27.840 20.213,27.828 20.267,27.812 20.267 C 27.652 20.267,24.570 21.103,24.443 21.181 C 24.011 21.445,23.883 22.110,24.177 22.555 C 24.348 22.813,24.663 22.984,24.974 22.985 C 25.166 22.987,29.093 22.034,29.399 21.912 C 29.605 21.830,29.903 21.484,29.967 21.251 C 30.013 21.087,29.839 19.842,28.903 13.617 C 28.220 9.075,27.744 6.064,27.681 5.884 C 27.373 5.008,26.528 4.272,25.607 4.077 C 25.135 3.977,24.870 3.983,24.613 4.099 M2.571 12.114 C 2.059 12.367,1.858 12.978,2.123 13.474 C 2.215 13.645,2.545 13.915,2.708 13.950 C 2.788 13.968,2.881 13.991,2.915 14.001 C 2.960 14.015,2.983 14.488,2.999 15.717 C 3.019 17.302,3.028 17.438,3.141 17.787 C 3.485 18.848,4.347 19.684,5.338 19.918 C 5.847 20.038,21.132 20.040,21.641 19.920 C 22.743 19.660,23.596 18.787,23.897 17.613 C 23.988 17.258,24.000 17.017,24.000 15.620 L 24.000 14.031 24.200 13.976 C 24.604 13.865,24.862 13.608,24.968 13.212 C 25.085 12.773,24.845 12.301,24.402 12.100 C 24.195 12.006,23.753 12.002,13.493 12.001 L 2.800 12.000 2.571 12.114 M21.973 15.575 C 21.973 17.260,21.958 17.361,21.664 17.671 C 21.357 17.994,21.920 17.973,13.553 17.973 C 8.930 17.973,5.822 17.954,5.743 17.924 C 5.530 17.843,5.217 17.537,5.113 17.307 C 5.026 17.116,5.016 16.928,5.015 15.560 L 5.013 14.027 13.493 14.027 L 21.973 14.027 21.973 15.575 M6.274 21.098 C 5.446 21.298,4.696 21.907,4.329 22.675 C 3.896 23.580,3.885 24.373,4.291 25.253 C 4.757 26.264,5.690 26.908,6.785 26.973 C 7.713 27.029,8.459 26.751,9.099 26.112 C 9.703 25.509,9.986 24.835,9.986 24.000 C 9.986 23.165,9.703 22.491,9.099 21.888 C 8.685 21.474,8.157 21.179,7.637 21.072 C 7.259 20.994,6.658 21.005,6.274 21.098 M19.387 21.064 C 18.001 21.364,17.013 22.586,17.013 24.000 C 17.013 24.820,17.305 25.519,17.893 26.107 C 19.078 27.292,20.922 27.292,22.107 26.107 C 23.659 24.555,23.093 21.975,21.028 21.193 C 20.631 21.042,19.792 20.976,19.387 21.064 M13.040 21.576 C 12.981 21.590,12.801 21.627,12.640 21.658 C 12.250 21.735,11.511 22.093,11.292 22.312 C 11.117 22.487,10.986 22.804,10.988 23.046 C 10.989 23.224,11.161 23.577,11.314 23.717 C 11.484 23.874,11.796 24.000,12.013 24.000 C 12.110 24.000,12.369 23.911,12.588 23.802 C 12.963 23.615,13.017 23.604,13.493 23.602 C 13.973 23.601,14.021 23.612,14.400 23.800 C 15.006 24.103,15.363 24.060,15.743 23.639 C 16.069 23.278,16.076 22.732,15.759 22.355 C 15.595 22.160,14.904 21.797,14.480 21.684 C 14.160 21.598,13.241 21.530,13.040 21.576 M7.467 23.122 C 7.762 23.272,8.001 23.672,7.999 24.012 C 7.995 24.560,7.417 25.080,6.904 24.997 C 6.373 24.910,6.027 24.521,6.027 24.010 C 6.027 23.259,6.799 22.782,7.467 23.122 M20.540 23.175 C 20.837 23.366,20.978 23.635,20.978 24.009 C 20.978 24.271,20.951 24.361,20.821 24.546 C 20.604 24.855,20.362 24.985,20.000 24.985 C 19.638 24.985,19.396 24.855,19.179 24.546 C 19.049 24.361,19.022 24.271,19.022 24.009 C 19.022 23.202,19.865 22.738,20.540 23.175 " fill="var(--db-icon-color, currentColor)" stroke="none" fill-rule="evenodd"></path></svg>