<svg id="icon" height="24" viewBox="0 0 24 24" width="24" xmlns="http://www.w3.org/2000/svg"><path d="M9.611 2.043 C 8.480 2.180,7.414 2.705,6.577 3.539 C 5.756 4.357,5.241 5.371,5.062 6.520 C 5.004 6.896,4.998 7.484,5.010 12.080 C 5.025 17.801,5.003 17.330,5.304 18.238 C 5.589 19.094,6.054 19.817,6.748 20.482 C 7.531 21.231,8.366 21.667,9.481 21.907 C 9.786 21.973,10.040 21.980,12.000 21.980 C 13.960 21.980,14.214 21.973,14.519 21.907 C 15.634 21.667,16.469 21.231,17.252 20.482 C 17.946 19.817,18.411 19.094,18.696 18.238 C 18.997 17.330,18.975 17.798,18.990 12.100 C 19.001 7.575,18.995 6.929,18.939 6.543 C 18.736 5.156,17.997 3.905,16.885 3.068 C 16.259 2.597,15.577 2.285,14.760 2.097 C 14.498 2.036,14.174 2.026,12.180 2.018 C 10.926 2.012,9.770 2.023,9.611 2.043 M14.480 4.084 C 14.667 4.133,14.701 4.156,14.709 4.241 C 14.714 4.295,14.569 5.963,14.387 7.946 C 14.060 11.510,14.055 11.553,13.952 11.709 C 13.755 12.006,13.771 12.004,11.918 11.991 L 10.274 11.980 10.120 11.815 C 10.035 11.723,9.947 11.579,9.925 11.495 C 9.862 11.258,9.268 4.196,9.307 4.157 C 9.326 4.138,9.485 4.096,9.661 4.064 C 10.113 3.980,14.146 3.997,14.480 4.084 M7.659 8.814 C 7.906 11.667,7.924 11.823,8.035 12.144 C 8.320 12.972,8.880 13.558,9.681 13.864 L 9.980 13.979 11.842 13.992 C 13.386 14.002,13.754 13.994,13.995 13.944 C 14.988 13.737,15.818 12.865,16.036 11.800 C 16.061 11.679,16.197 10.277,16.340 8.684 C 16.482 7.091,16.606 5.780,16.616 5.771 C 16.639 5.748,16.860 6.338,16.925 6.600 C 16.970 6.780,16.980 7.646,16.980 11.376 L 16.980 15.933 16.640 16.048 C 15.422 16.461,14.041 16.882,13.700 16.945 C 13.117 17.052,10.907 17.054,10.389 16.949 C 10.085 16.887,9.449 16.681,7.460 16.003 L 7.020 15.853 7.020 11.336 C 7.020 7.640,7.030 6.780,7.075 6.600 C 7.145 6.318,7.369 5.728,7.386 5.780 C 7.393 5.802,7.516 7.167,7.659 8.814 M8.633 14.601 C 8.235 14.811,8.132 15.370,8.426 15.720 C 8.572 15.894,8.675 15.938,9.312 16.098 C 9.927 16.253,10.096 16.268,10.292 16.186 C 10.538 16.083,10.761 15.736,10.759 15.460 C 10.758 15.320,10.617 15.064,10.472 14.936 C 10.357 14.835,10.226 14.786,9.747 14.666 C 9.089 14.502,8.848 14.488,8.633 14.601 M14.210 14.675 C 13.752 14.795,13.616 14.847,13.515 14.942 C 13.381 15.069,13.242 15.330,13.241 15.460 C 13.239 15.736,13.462 16.083,13.708 16.186 C 13.904 16.268,14.073 16.253,14.688 16.098 C 15.325 15.938,15.428 15.894,15.574 15.720 C 15.872 15.366,15.764 14.806,15.358 14.599 C 15.135 14.485,14.870 14.503,14.210 14.675 M7.662 17.681 C 8.758 18.052,9.683 18.332,10.042 18.402 C 11.213 18.630,13.381 18.590,14.441 18.320 C 14.607 18.277,15.198 18.097,15.755 17.919 C 16.313 17.741,16.778 17.605,16.790 17.616 C 16.823 17.649,16.543 18.211,16.357 18.485 C 16.034 18.961,15.488 19.430,14.989 19.661 L 14.781 19.758 14.661 19.641 C 14.390 19.379,14.090 19.339,13.400 19.473 C 12.387 19.669,11.622 19.670,10.603 19.474 C 9.907 19.341,9.609 19.380,9.339 19.641 L 9.219 19.758 9.011 19.661 C 8.348 19.354,7.738 18.748,7.381 18.043 C 7.278 17.838,7.151 17.520,7.174 17.520 C 7.179 17.520,7.399 17.593,7.662 17.681 " fill="var(--db-icon-color, currentColor)" stroke="none" fill-rule="evenodd"></path></svg>