<svg id="icon" height="24" viewBox="0 0 24 24" width="24" xmlns="http://www.w3.org/2000/svg"><path d="M2.665 4.056 C 1.978 4.313,1.784 5.186,2.299 5.701 C 2.572 5.974,2.672 5.991,4.140 6.015 C 5.716 6.041,6.344 6.111,7.660 6.406 C 12.518 7.495,17.825 11.135,19.535 14.550 C 20.248 15.976,20.116 17.245,19.181 17.948 C 18.498 18.461,17.611 18.726,15.960 18.910 C 15.461 18.965,14.501 18.977,9.060 18.997 L 2.740 19.020 2.550 19.114 C 1.903 19.432,1.816 20.349,2.391 20.787 C 2.485 20.858,2.629 20.935,2.711 20.958 C 2.911 21.014,14.479 21.015,15.280 20.959 C 18.317 20.748,20.365 19.910,21.348 18.477 C 21.895 17.679,22.117 16.546,21.936 15.477 C 21.412 12.378,17.899 8.687,13.220 6.319 C 10.766 5.076,8.417 4.362,5.860 4.079 C 5.640 4.055,4.866 4.026,4.140 4.016 C 3.051 4.001,2.793 4.008,2.665 4.056 M2.643 8.066 C 2.405 8.154,2.149 8.418,2.066 8.660 C 1.938 9.035,2.002 9.344,2.266 9.639 C 2.561 9.966,2.653 9.987,3.880 10.012 C 5.686 10.049,7.000 10.270,8.500 10.790 C 9.417 11.107,10.612 11.676,11.341 12.143 L 11.559 12.282 11.289 12.541 C 11.100 12.724,10.996 12.796,10.940 12.785 C 10.896 12.776,10.650 12.712,10.393 12.643 C 9.041 12.280,6.980 12.071,4.200 12.016 C 2.764 11.987,2.676 11.996,2.392 12.213 C 2.124 12.417,2.020 12.638,2.021 13.000 C 2.022 13.333,2.102 13.536,2.306 13.725 C 2.542 13.944,2.659 13.977,3.240 13.989 C 7.147 14.070,9.092 14.288,10.631 14.818 C 11.136 14.992,11.406 15.004,11.700 14.864 C 11.975 14.733,13.917 12.786,14.037 12.520 C 14.189 12.184,14.114 11.729,13.865 11.473 C 13.510 11.110,12.158 10.261,11.073 9.721 C 9.946 9.159,8.937 8.787,7.724 8.484 C 6.441 8.164,5.441 8.041,3.940 8.018 C 2.973 8.003,2.796 8.009,2.643 8.066 " fill="var(--db-icon-color, currentColor)" stroke="none" fill-rule="evenodd"></path></svg>