<svg id="icon" height="24" viewBox="0 0 24 24" width="24" xmlns="http://www.w3.org/2000/svg"><path d="M8.505 3.098 C 7.251 3.430,6.646 4.266,6.912 5.301 C 7.029 5.760,7.902 7.542,8.112 7.752 C 8.630 8.270,9.510 8.052,9.744 7.347 C 9.855 7.013,9.813 6.851,9.376 5.938 C 9.158 5.482,8.974 5.094,8.967 5.075 C 8.910 4.926,9.196 5.178,10.078 6.054 C 10.969 6.938,11.125 7.077,11.297 7.134 C 11.670 7.259,11.979 7.199,12.264 6.948 C 12.520 6.723,12.617 6.518,12.618 6.200 C 12.619 5.778,12.537 5.668,11.284 4.431 C 10.127 3.288,9.988 3.178,9.539 3.061 C 9.215 2.977,8.923 2.987,8.505 3.098 M16.020 6.804 C 15.427 6.885,14.780 7.071,11.107 8.217 C 9.020 8.867,7.300 9.400,7.283 9.400 C 7.266 9.400,6.867 9.094,6.396 8.721 C 5.925 8.347,5.440 7.988,5.317 7.922 C 4.892 7.695,4.356 7.622,3.875 7.725 C 3.596 7.785,2.875 8.085,2.670 8.227 C 2.429 8.393,2.174 8.762,2.075 9.089 C 1.915 9.614,1.918 9.625,2.929 12.460 C 3.424 13.846,3.878 15.079,3.940 15.200 C 4.406 16.120,5.220 16.785,6.243 17.082 C 6.653 17.201,7.502 17.233,7.916 17.145 C 8.155 17.094,9.755 16.621,9.982 16.534 C 10.032 16.515,10.040 16.674,10.040 17.686 C 10.040 18.332,10.059 18.977,10.082 19.120 C 10.175 19.705,10.516 20.175,11.030 20.429 C 11.288 20.556,11.373 20.578,11.674 20.592 C 12.024 20.608,12.460 20.528,12.805 20.384 C 13.029 20.290,13.424 19.972,13.571 19.768 C 13.645 19.665,14.324 18.446,15.079 17.060 C 15.834 15.674,16.462 14.528,16.476 14.512 C 16.489 14.497,17.310 14.231,18.300 13.920 C 20.204 13.323,20.466 13.223,20.856 12.944 C 22.119 12.039,22.615 10.481,22.041 9.216 C 21.511 8.047,20.192 7.202,18.352 6.854 C 17.955 6.779,16.441 6.746,16.020 6.804 M17.690 8.783 C 17.703 8.796,17.661 8.882,17.596 8.973 C 17.532 9.065,17.458 9.243,17.432 9.368 C 17.391 9.565,17.394 9.628,17.455 9.821 C 17.595 10.266,17.956 10.538,18.400 10.535 C 18.622 10.534,18.772 10.492,19.420 10.250 L 20.180 9.966 20.228 10.073 C 20.412 10.480,20.085 11.129,19.560 11.399 C 19.483 11.439,18.522 11.753,17.425 12.097 C 16.328 12.442,15.380 12.749,15.319 12.780 C 15.259 12.812,15.140 12.918,15.055 13.017 C 14.970 13.115,14.261 14.368,13.480 15.800 L 12.060 18.403 12.040 16.652 C 12.026 15.410,12.006 14.869,11.972 14.792 C 11.892 14.612,11.649 14.373,11.454 14.281 C 11.104 14.117,10.951 14.144,9.220 14.683 C 7.840 15.113,7.619 15.171,7.300 15.189 C 7.001 15.205,6.897 15.193,6.683 15.121 C 6.258 14.978,5.941 14.715,5.754 14.349 C 5.706 14.256,5.312 13.184,4.879 11.967 L 4.090 9.754 4.187 9.717 C 4.241 9.697,4.307 9.680,4.334 9.680 C 4.361 9.680,4.859 10.058,5.442 10.520 C 6.024 10.982,6.563 11.390,6.640 11.427 C 6.717 11.465,6.879 11.502,7.000 11.510 C 7.198 11.524,7.606 11.405,11.080 10.320 C 15.801 8.846,15.664 8.888,16.080 8.822 C 16.419 8.768,17.646 8.739,17.690 8.783 M14.590 9.737 C 14.094 9.914,13.829 10.429,13.976 10.932 C 14.135 11.478,14.672 11.782,15.204 11.626 C 15.751 11.466,16.039 10.912,15.871 10.345 C 15.806 10.125,15.475 9.794,15.255 9.729 C 15.043 9.666,14.780 9.669,14.590 9.737 M11.487 10.729 C 11.293 10.794,10.980 11.093,10.899 11.290 C 10.682 11.822,10.974 12.439,11.531 12.624 C 12.007 12.782,12.546 12.525,12.751 12.043 C 12.944 11.588,12.709 10.998,12.244 10.774 C 12.071 10.691,11.672 10.667,11.487 10.729 M8.440 11.715 C 7.829 11.915,7.547 12.556,7.824 13.112 C 8.135 13.738,8.949 13.860,9.426 13.354 C 10.012 12.730,9.633 11.745,8.788 11.696 C 8.652 11.688,8.495 11.697,8.440 11.715 " fill="var(--db-icon-color, currentColor)" stroke="none" fill-rule="evenodd"></path></svg>