<svg id="icon" height="20" viewBox="0 0 20 20" width="20" xmlns="http://www.w3.org/2000/svg"><path d="M10.700 4.569 C 10.400 4.706,10.253 4.929,10.253 5.250 C 10.253 5.555,10.426 5.825,10.698 5.944 C 10.745 5.964,11.045 5.989,11.366 5.999 L 11.948 6.017 12.222 6.867 C 12.373 7.334,12.497 7.741,12.498 7.772 C 12.499 7.802,11.941 8.545,11.258 9.422 L 10.017 11.017 9.770 11.027 C 9.634 11.032,9.512 11.025,9.497 11.010 C 9.479 10.991,8.471 7.721,8.281 7.063 C 8.269 7.021,8.297 7.005,8.404 6.990 C 8.709 6.950,9.000 6.597,9.000 6.269 C 9.000 6.048,8.858 5.779,8.672 5.650 L 8.528 5.550 7.250 5.550 L 5.972 5.550 5.828 5.650 C 5.642 5.779,5.500 6.048,5.500 6.269 C 5.500 6.479,5.644 6.753,5.818 6.874 C 5.965 6.976,6.210 7.033,6.503 7.033 L 6.697 7.033 6.745 7.192 C 6.770 7.279,6.900 7.710,7.032 8.150 L 7.272 8.950 6.848 9.667 C 6.614 10.061,6.418 10.390,6.412 10.397 C 6.406 10.405,6.329 10.372,6.242 10.325 C 6.155 10.277,5.963 10.198,5.817 10.148 C 5.460 10.026,4.807 9.995,4.421 10.081 C 3.050 10.386,2.102 11.691,2.266 13.044 C 2.438 14.459,3.583 15.501,4.967 15.502 C 5.656 15.503,6.204 15.313,6.724 14.891 C 7.202 14.504,7.561 13.912,7.668 13.333 C 7.690 13.214,7.713 13.099,7.719 13.077 C 7.727 13.048,8.044 13.035,8.940 13.027 C 10.092 13.017,10.157 13.013,10.300 12.946 C 10.383 12.907,10.490 12.832,10.539 12.779 C 10.588 12.727,11.170 11.986,11.832 11.133 C 12.495 10.281,13.048 9.579,13.062 9.574 C 13.076 9.570,13.155 9.783,13.239 10.048 L 13.390 10.530 13.182 10.714 C 12.523 11.296,12.165 12.209,12.266 13.045 C 12.409 14.220,13.213 15.142,14.350 15.434 C 14.718 15.529,15.282 15.529,15.650 15.434 C 17.229 15.028,18.111 13.421,17.597 11.885 C 17.237 10.809,16.188 10.033,15.091 10.033 L 14.812 10.033 14.585 9.325 C 14.460 8.935,14.351 8.599,14.343 8.578 C 14.332 8.549,14.564 8.536,15.239 8.527 C 16.446 8.511,16.380 8.540,16.876 7.801 C 17.199 7.320,17.282 7.126,17.251 6.922 C 17.169 6.385,16.587 6.106,16.119 6.380 C 16.005 6.447,15.915 6.545,15.777 6.753 L 15.589 7.034 14.720 7.026 L 13.850 7.017 13.760 6.750 C 13.710 6.603,13.555 6.123,13.414 5.683 C 13.166 4.906,13.154 4.879,13.004 4.729 C 12.909 4.633,12.799 4.560,12.717 4.537 C 12.635 4.515,12.250 4.501,11.717 4.501 C 10.916 4.501,10.839 4.507,10.700 4.569 M5.541 11.644 C 5.785 11.764,6.003 11.982,6.123 12.225 C 6.208 12.398,6.217 12.450,6.217 12.767 C 6.217 13.087,6.209 13.133,6.119 13.309 C 6.003 13.539,5.730 13.807,5.510 13.908 C 5.378 13.968,5.288 13.981,5.000 13.982 C 4.681 13.983,4.634 13.975,4.467 13.889 C 4.221 13.764,4.016 13.560,3.892 13.317 C 3.762 13.064,3.729 12.681,3.812 12.393 C 3.909 12.060,4.213 11.735,4.557 11.597 C 4.809 11.497,5.287 11.519,5.541 11.644 M15.541 11.644 C 15.785 11.764,16.003 11.982,16.123 12.225 C 16.208 12.398,16.217 12.450,16.217 12.767 C 16.217 13.087,16.209 13.133,16.119 13.309 C 16.003 13.539,15.730 13.807,15.510 13.908 C 15.378 13.968,15.288 13.981,15.000 13.982 C 14.681 13.983,14.634 13.975,14.467 13.889 C 14.221 13.764,14.016 13.560,13.892 13.317 C 13.762 13.064,13.729 12.681,13.812 12.393 C 13.909 12.060,14.213 11.735,14.557 11.597 C 14.809 11.497,15.287 11.519,15.541 11.644 " fill="var(--db-icon-color, currentColor)" stroke="none" fill-rule="evenodd"></path></svg>