<svg id="icon" height="24" viewBox="0 0 24 24" width="24" xmlns="http://www.w3.org/2000/svg"><path d="M9.970 2.043 C 9.423 2.137,8.495 2.579,8.243 2.866 C 7.984 3.160,7.929 3.548,8.095 3.900 C 8.276 4.282,8.593 4.487,9.008 4.491 C 9.210 4.493,9.298 4.464,9.708 4.264 C 10.164 4.041,10.189 4.034,10.589 4.011 L 11.000 3.988 11.000 4.994 L 11.000 6.000 10.084 6.000 C 8.951 6.000,8.445 6.048,8.010 6.197 C 7.539 6.359,7.269 6.532,6.876 6.922 C 6.480 7.315,6.262 7.702,6.110 8.280 L 6.020 8.620 6.020 13.460 C 6.020 17.913,6.026 18.330,6.090 18.673 C 6.179 19.143,6.284 19.459,6.477 19.845 C 7.031 20.949,8.014 21.661,9.327 21.910 C 9.656 21.972,9.972 21.980,12.000 21.980 C 14.028 21.980,14.344 21.972,14.673 21.910 C 15.986 21.661,16.969 20.949,17.523 19.845 C 17.716 19.459,17.821 19.143,17.910 18.673 C 17.974 18.330,17.980 17.912,17.980 13.440 L 17.980 8.580 17.890 8.260 C 17.571 7.122,16.769 6.353,15.640 6.100 C 15.413 6.050,15.054 6.028,14.170 6.012 L 13.000 5.990 13.000 4.995 L 13.000 4.000 13.130 4.000 C 13.587 4.001,13.907 4.077,14.332 4.284 C 14.703 4.464,14.794 4.493,14.992 4.491 C 15.407 4.487,15.724 4.282,15.905 3.900 C 16.087 3.516,15.986 3.052,15.658 2.764 C 15.486 2.613,14.636 2.197,14.286 2.093 C 14.090 2.035,13.805 2.025,12.120 2.016 C 11.053 2.011,10.085 2.023,9.970 2.043 M9.019 8.190 C 9.056 8.394,9.214 8.656,9.374 8.778 C 9.664 8.999,9.670 9.000,11.990 9.000 C 13.548 9.000,14.176 8.987,14.295 8.952 C 14.402 8.920,14.538 8.825,14.684 8.681 C 14.863 8.503,14.919 8.416,14.963 8.245 L 15.017 8.031 15.199 8.056 C 15.489 8.096,15.719 8.264,15.859 8.538 L 15.980 8.774 15.992 10.882 L 16.004 12.990 15.792 13.015 C 13.314 13.310,10.688 13.310,8.210 13.016 L 8.000 12.991 8.000 11.045 C 8.000 9.973,8.018 8.993,8.039 8.862 C 8.095 8.524,8.252 8.289,8.515 8.152 C 8.633 8.090,8.788 8.040,8.860 8.040 C 8.980 8.040,8.993 8.053,9.019 8.190 M9.240 15.128 C 10.077 15.204,10.479 15.217,12.000 15.217 C 13.521 15.217,13.923 15.204,14.760 15.128 C 15.299 15.079,15.798 15.028,15.870 15.015 L 16.000 14.991 16.000 15.493 L 16.000 15.994 15.370 16.007 C 14.674 16.021,14.546 16.056,14.301 16.301 C 14.097 16.506,14.020 16.702,14.020 17.020 C 14.020 17.254,14.038 17.331,14.131 17.489 C 14.370 17.895,14.632 18.000,15.410 18.000 L 15.970 18.000 15.943 18.239 C 15.868 18.904,15.486 19.476,14.941 19.740 C 14.453 19.977,14.420 19.980,12.000 19.980 C 9.580 19.980,9.547 19.977,9.059 19.740 C 8.514 19.476,8.132 18.904,8.057 18.239 L 8.030 18.000 8.588 18.000 C 9.240 18.000,9.439 17.950,9.670 17.725 C 10.088 17.319,10.102 16.700,9.702 16.300 C 9.454 16.051,9.260 16.000,8.573 16.000 L 8.000 16.000 8.000 15.496 L 8.000 14.991 8.130 15.015 C 8.201 15.028,8.701 15.079,9.240 15.128 " fill="var(--db-icon-color, currentColor)" stroke="none" fill-rule="evenodd"></path></svg>