<svg id="icon" height="20" viewBox="0 0 20 20" width="20" xmlns="http://www.w3.org/2000/svg"><path d="M2.707 3.049 C 2.299 3.176,2.038 3.507,2.008 3.933 C 1.988 4.228,2.087 4.490,2.298 4.702 C 2.558 4.961,2.674 4.988,3.650 5.011 C 4.828 5.040,5.669 5.160,6.742 5.453 C 9.499 6.207,12.438 7.974,14.341 10.023 C 15.771 11.563,16.289 12.853,15.843 13.766 C 15.576 14.315,14.830 14.661,13.517 14.847 C 12.635 14.972,12.432 14.977,7.567 14.997 L 2.750 15.017 2.584 15.098 C 1.914 15.428,1.802 16.317,2.372 16.768 C 2.684 17.014,2.381 17.000,7.231 17.000 C 11.540 17.000,12.218 16.986,13.133 16.882 C 16.430 16.506,17.994 15.262,17.999 13.013 C 18.002 11.943,17.426 10.629,16.379 9.317 C 16.012 8.857,14.874 7.712,14.367 7.292 C 11.394 4.833,7.733 3.270,4.400 3.035 C 3.721 2.987,2.884 2.994,2.707 3.049 M2.733 6.231 C 2.474 6.310,2.213 6.520,2.089 6.750 C 2.018 6.881,2.017 6.907,2.017 8.450 L 2.017 10.017 2.104 10.200 C 2.215 10.434,2.401 10.620,2.633 10.727 C 2.838 10.822,2.660 10.811,4.750 10.867 C 7.370 10.938,8.618 11.108,10.364 11.632 C 11.139 11.865,11.307 11.827,11.853 11.294 C 12.294 10.863,12.403 10.687,12.426 10.366 C 12.448 10.047,12.371 9.833,12.153 9.616 C 11.959 9.423,10.903 8.712,10.333 8.391 C 8.158 7.165,5.905 6.463,3.417 6.234 C 3.000 6.195,2.852 6.195,2.733 6.231 " fill="var(--db-icon-color, currentColor)" stroke="none" fill-rule="evenodd"></path></svg>