<svg id="icon" height="32" viewBox="0 0 32 32" width="32" xmlns="http://www.w3.org/2000/svg"><path d="M19.722 7.037 C 19.369 7.150,19.082 7.477,19.013 7.845 C 18.930 8.295,19.266 8.831,19.708 8.954 C 19.841 8.991,20.535 9.013,21.573 9.014 C 23.472 9.016,23.549 9.031,23.823 9.445 L 23.973 9.672 23.988 11.649 L 24.002 13.627 21.270 16.813 L 18.538 20.000 17.136 20.000 C 16.364 20.000,15.733 19.993,15.733 19.984 C 15.733 19.975,15.136 17.981,14.406 15.552 C 12.936 10.666,12.975 10.767,12.406 10.375 C 11.904 10.029,11.880 10.027,9.162 10.027 C 7.129 10.027,6.689 10.040,6.565 10.104 C 6.363 10.209,6.089 10.530,6.050 10.708 C 6.032 10.788,6.008 10.886,5.995 10.926 C 5.956 11.049,6.083 11.431,6.225 11.619 C 6.300 11.718,6.460 11.843,6.580 11.898 C 6.783 11.990,6.967 11.998,9.024 11.999 L 11.249 12.000 11.407 12.520 C 11.721 13.551,11.840 13.953,11.840 13.987 C 11.840 14.006,10.538 14.030,8.947 14.040 C 6.131 14.057,6.043 14.061,5.663 14.177 C 3.872 14.723,2.624 16.013,2.146 17.813 C 2.019 18.291,2.011 18.401,2.006 19.733 C 2.003 20.511,2.018 21.212,2.041 21.292 C 2.093 21.481,2.370 21.795,2.581 21.906 C 2.697 21.966,2.934 22.000,3.367 22.016 L 3.987 22.039 4.022 22.393 C 4.243 24.578,6.253 26.210,8.425 25.967 C 10.308 25.757,11.793 24.268,11.976 22.409 L 12.013 22.030 15.647 22.015 C 18.983 22.001,19.294 21.992,19.450 21.907 C 19.548 21.854,20.956 20.252,22.765 18.137 C 25.748 14.651,25.914 14.446,25.973 14.177 C 26.018 13.976,26.029 13.259,26.014 11.707 C 25.990 9.346,25.982 9.280,25.679 8.661 C 25.353 7.993,24.636 7.379,23.904 7.139 C 23.569 7.029,23.434 7.021,21.707 7.006 C 20.695 6.998,19.802 7.011,19.722 7.037 M13.049 18.000 C 13.379 19.085,13.650 19.979,13.651 19.987 C 13.652 19.994,11.481 20.000,8.827 20.000 L 4.000 20.000 4.001 19.373 C 4.001 19.029,4.037 18.579,4.081 18.373 C 4.321 17.234,5.220 16.329,6.358 16.081 C 6.622 16.024,7.305 16.010,9.571 16.017 L 12.449 16.027 13.049 18.000 M25.013 18.135 C 23.887 18.425,22.932 19.202,22.429 20.240 C 22.124 20.869,22.014 21.334,22.014 22.000 C 22.014 23.199,22.515 24.263,23.465 25.084 C 23.821 25.391,24.583 25.770,25.093 25.895 C 25.583 26.014,26.417 26.014,26.907 25.895 C 28.060 25.614,29.061 24.812,29.571 23.760 C 29.876 23.131,29.986 22.666,29.986 22.000 C 29.986 21.334,29.876 20.869,29.571 20.240 C 29.063 19.193,28.107 18.419,26.965 18.133 C 26.405 17.992,25.566 17.993,25.013 18.135 M26.813 20.185 C 27.220 20.371,27.634 20.785,27.822 21.194 C 27.950 21.474,27.971 21.588,27.971 22.000 C 27.972 22.413,27.951 22.524,27.823 22.800 C 27.629 23.219,27.218 23.632,26.806 23.823 C 26.525 23.953,26.414 23.973,26.000 23.973 C 25.573 23.973,25.482 23.955,25.173 23.808 C 24.734 23.598,24.406 23.269,24.194 22.827 C 24.045 22.517,24.027 22.428,24.028 22.000 C 24.028 21.588,24.049 21.475,24.177 21.200 C 24.431 20.651,24.969 20.197,25.533 20.055 C 25.875 19.968,26.470 20.029,26.813 20.185 M9.962 22.282 C 9.904 22.891,9.453 23.511,8.859 23.800 C 8.538 23.956,8.462 23.971,8.000 23.971 C 7.538 23.971,7.462 23.956,7.141 23.800 C 6.550 23.512,6.103 22.908,6.041 22.313 L 6.012 22.027 7.999 22.027 L 9.987 22.027 9.962 22.282 " fill="var(--db-icon-color, currentColor)" stroke="none" fill-rule="evenodd"></path></svg>