<svg id="icon" height="20" viewBox="0 0 20 20" width="20" xmlns="http://www.w3.org/2000/svg"><path d="M6.271 2.062 C 6.015 2.153,5.145 2.752,5.040 2.909 C 4.862 3.177,4.927 3.557,5.185 3.754 C 5.293 3.836,5.342 3.850,5.518 3.850 C 5.721 3.850,5.729 3.846,6.162 3.558 L 6.600 3.267 6.900 3.267 L 7.200 3.267 7.200 4.129 L 7.200 4.991 6.758 5.008 C 6.434 5.021,6.255 5.045,6.083 5.099 C 5.455 5.297,4.946 5.741,4.650 6.350 C 4.364 6.938,4.387 6.554,4.375 11.007 L 4.365 14.964 3.221 16.124 C 2.592 16.761,2.060 17.316,2.038 17.356 C 1.847 17.718,2.330 18.154,2.683 17.939 C 2.738 17.905,6.173 14.479,10.317 10.324 C 16.121 4.504,17.860 2.742,17.892 2.648 C 18.010 2.306,17.660 1.957,17.318 2.075 C 17.226 2.106,16.792 2.520,15.556 3.757 L 13.917 5.397 13.617 5.248 C 13.253 5.067,12.960 5.001,12.508 5.001 L 12.167 5.000 12.167 4.133 L 12.167 3.267 12.405 3.267 L 12.644 3.267 13.103 3.552 C 13.571 3.842,13.705 3.892,13.916 3.852 C 14.060 3.825,14.260 3.657,14.322 3.510 C 14.390 3.345,14.377 3.104,14.291 2.950 C 14.215 2.814,13.993 2.650,13.412 2.301 C 12.948 2.022,13.230 2.044,9.650 2.020 C 6.554 1.999,6.444 2.000,6.271 2.062 M10.967 4.133 L 10.967 5.000 9.683 5.000 L 8.400 5.000 8.400 4.133 L 8.400 3.267 9.683 3.267 L 10.967 3.267 10.967 4.133 M13.964 7.396 L 13.183 8.231 13.167 10.126 L 13.150 12.020 13.024 12.275 C 12.880 12.566,12.684 12.762,12.400 12.896 L 12.217 12.983 10.461 13.000 L 8.706 13.017 7.819 13.967 L 6.931 14.917 7.324 14.935 C 7.598 14.948,7.748 14.970,7.822 15.009 C 8.152 15.185,8.154 15.733,7.825 15.934 C 7.728 15.993,7.657 16.000,7.141 16.000 C 6.495 16.000,6.371 15.972,6.274 15.802 C 6.243 15.746,6.209 15.702,6.200 15.703 C 6.178 15.706,4.953 17.030,4.940 17.064 C 4.935 17.078,5.056 17.209,5.209 17.354 C 5.509 17.637,5.747 17.782,6.117 17.905 L 6.350 17.983 9.667 17.983 L 12.983 17.983 13.217 17.905 C 14.029 17.635,14.593 17.034,14.841 16.176 L 14.917 15.917 14.917 11.500 C 14.917 7.311,14.914 7.072,14.855 6.867 C 14.822 6.748,14.783 6.630,14.769 6.605 C 14.752 6.574,14.507 6.815,13.964 7.396 M12.221 7.043 C 12.235 7.058,10.981 8.336,9.433 9.884 L 6.618 12.699 6.507 12.591 C 6.446 12.532,6.340 12.372,6.273 12.235 L 6.150 11.987 6.150 10.002 L 6.150 8.017 6.255 7.794 C 6.440 7.405,6.748 7.136,7.113 7.047 C 7.243 7.015,7.866 7.006,9.739 7.011 C 11.089 7.014,12.206 7.029,12.221 7.043 M12.921 15.019 C 13.095 15.149,13.150 15.256,13.150 15.467 C 13.150 15.685,13.090 15.796,12.900 15.925 C 12.797 15.995,12.756 16.000,12.227 16.000 C 11.611 16.000,11.498 15.976,11.372 15.816 C 11.203 15.601,11.203 15.332,11.372 15.117 C 11.502 14.952,11.595 14.933,12.239 14.942 C 12.775 14.949,12.837 14.956,12.921 15.019 " stroke="none" fill-rule="evenodd" fill="black"></path></svg>