<svg id="icon" height="32" viewBox="0 0 32 32" width="32" xmlns="http://www.w3.org/2000/svg"><path d="M4.431 10.111 C 4.153 10.186,3.615 10.435,3.388 10.593 C 3.116 10.783,2.637 11.312,2.452 11.627 C 2.340 11.817,2.194 12.141,2.127 12.347 C 2.007 12.715,2.005 12.762,1.985 15.847 C 1.972 18.033,1.984 19.040,2.025 19.194 C 2.097 19.463,2.347 19.757,2.619 19.896 C 2.806 19.992,2.943 20.000,4.329 20.000 L 5.836 20.000 5.601 20.120 C 5.472 20.186,5.293 20.332,5.203 20.445 C 5.057 20.628,5.040 20.688,5.040 21.013 C 5.040 21.339,5.057 21.398,5.203 21.582 C 5.293 21.694,5.461 21.835,5.577 21.893 C 5.776 21.995,5.911 22.001,8.320 22.017 C 10.114 22.030,10.937 22.016,11.139 21.972 C 11.728 21.843,12.071 21.309,11.924 20.745 C 11.842 20.429,11.682 20.237,11.387 20.101 C 11.177 20.004,11.266 20.002,16.000 20.002 C 20.711 20.002,20.822 20.005,20.613 20.099 C 20.343 20.222,20.074 20.526,20.004 20.786 C 19.898 21.183,20.108 21.650,20.491 21.869 L 20.720 22.000 23.307 22.016 C 26.071 22.033,26.230 22.021,26.553 21.775 C 27.110 21.351,27.019 20.425,26.391 20.114 L 26.160 20.000 27.739 20.000 C 29.375 20.000,29.569 19.978,29.798 19.772 C 30.019 19.572,30.035 19.287,30.013 15.908 C 29.995 13.212,29.979 12.677,29.909 12.445 C 29.550 11.260,28.683 10.405,27.540 10.107 C 27.081 9.988,4.875 9.992,4.431 10.111 M27.389 12.188 C 27.551 12.288,27.712 12.449,27.812 12.610 L 27.973 12.871 27.990 14.436 L 28.006 16.000 16.000 16.000 L 3.994 16.000 4.010 14.440 L 4.027 12.880 4.174 12.630 C 4.334 12.358,4.548 12.181,4.847 12.073 C 5.003 12.017,7.149 12.006,16.084 12.015 L 27.128 12.027 27.389 12.188 " fill="var(--db-icon-color, currentColor)" stroke="none" fill-rule="evenodd"></path></svg>