<svg id="icon" height="20" viewBox="0 0 20 20" width="20" xmlns="http://www.w3.org/2000/svg"><path d="M7.481 2.035 C 7.036 2.078,6.655 2.186,6.301 2.368 C 5.543 2.757,5.044 3.386,4.808 4.250 L 4.717 4.583 4.717 9.967 C 4.717 15.091,4.720 15.363,4.778 15.617 C 5.070 16.873,5.941 17.708,7.200 17.938 C 7.397 17.974,7.990 17.983,10.017 17.983 C 12.368 17.983,12.608 17.978,12.883 17.923 C 14.092 17.678,14.937 16.844,15.222 15.617 C 15.280 15.363,15.283 15.092,15.283 10.000 C 15.283 4.908,15.280 4.637,15.222 4.383 C 14.987 3.372,14.401 2.656,13.485 2.263 C 13.200 2.141,12.908 2.074,12.483 2.034 C 12.059 1.995,7.892 1.995,7.481 2.035 M12.588 4.050 C 12.929 4.151,13.192 4.433,13.268 4.779 C 13.299 4.922,13.263 5.540,13.052 8.533 C 12.912 10.504,12.786 12.169,12.771 12.234 C 12.692 12.575,12.466 12.816,12.127 12.919 C 11.929 12.979,11.796 12.983,9.933 12.983 L 7.950 12.983 7.774 12.904 C 7.562 12.808,7.358 12.588,7.287 12.378 C 7.258 12.294,7.219 12.104,7.199 11.954 C 7.136 11.473,6.699 4.933,6.721 4.797 C 6.749 4.625,6.919 4.347,7.073 4.223 C 7.141 4.169,7.276 4.097,7.373 4.063 C 7.538 4.006,7.714 4.002,9.986 4.001 C 12.049 4.000,12.447 4.008,12.588 4.050 M8.479 14.541 C 8.562 14.565,8.677 14.642,8.768 14.732 C 9.077 15.042,9.077 15.452,8.767 15.772 C 8.554 15.992,8.474 16.006,7.555 15.994 C 6.785 15.983,6.783 15.983,6.630 15.893 C 6.386 15.750,6.267 15.535,6.267 15.240 C 6.267 14.913,6.447 14.659,6.758 14.548 C 6.927 14.488,8.282 14.482,8.479 14.541 M13.367 14.605 C 13.635 14.763,13.748 14.987,13.727 15.316 C 13.710 15.595,13.591 15.774,13.337 15.907 L 13.159 16.000 12.408 16.000 C 11.533 16.000,11.448 15.983,11.232 15.768 C 11.019 15.554,10.955 15.312,11.036 15.021 C 11.081 14.861,11.349 14.583,11.505 14.537 C 11.569 14.518,11.961 14.507,12.417 14.510 L 13.217 14.517 13.367 14.605 " fill="var(--db-icon-color, currentColor)" stroke="none" fill-rule="evenodd"></path></svg>