<svg id="icon" height="20" viewBox="0 0 20 20" width="20" xmlns="http://www.w3.org/2000/svg"><path d="M7.150 5.536 C 6.398 5.680,5.716 5.824,5.635 5.855 C 5.461 5.920,5.207 6.162,5.122 6.343 C 5.051 6.493,5.056 6.464,4.782 8.267 C 4.663 9.046,4.558 9.722,4.548 9.770 C 4.531 9.853,4.510 9.860,3.928 9.974 C 3.172 10.123,2.870 10.258,2.531 10.597 C 2.098 11.031,2.001 11.365,2.001 12.440 C 2.000 13.297,2.033 13.436,2.298 13.702 C 2.691 14.094,3.309 14.094,3.702 13.702 C 3.956 13.448,4.000 13.281,4.000 12.584 L 4.000 12.005 4.175 11.969 C 5.050 11.793,14.958 9.934,14.987 9.941 C 15.008 9.946,14.817 10.310,14.562 10.750 C 14.308 11.190,14.075 11.631,14.046 11.731 C 13.907 12.198,14.144 12.704,14.598 12.912 C 14.835 13.021,15.194 13.011,15.442 12.889 C 15.548 12.837,15.681 12.739,15.738 12.671 C 15.892 12.487,17.921 8.947,17.968 8.780 C 18.128 8.207,17.700 7.595,17.102 7.543 C 16.959 7.531,16.545 7.597,15.291 7.832 C 14.396 8.000,13.644 8.133,13.619 8.127 C 13.594 8.121,13.392 7.919,13.170 7.676 C 12.333 6.764,11.477 6.071,10.703 5.681 C 10.100 5.377,9.616 5.264,8.937 5.270 C 8.558 5.273,8.381 5.300,7.150 5.536 M9.291 7.283 C 9.558 7.346,9.865 7.486,10.173 7.685 C 10.430 7.851,11.019 8.324,11.177 8.491 L 11.270 8.590 10.877 8.664 C 10.660 8.704,9.628 8.899,8.583 9.096 C 7.538 9.294,6.680 9.453,6.675 9.450 C 6.664 9.442,6.925 7.630,6.939 7.619 C 6.964 7.600,8.891 7.240,8.983 7.237 C 9.038 7.236,9.177 7.256,9.291 7.283 M5.011 14.060 C 4.775 14.144,4.619 14.271,4.477 14.495 C 3.895 15.410,3.610 15.759,3.329 15.902 C 3.251 15.942,3.081 15.988,2.952 16.004 C 2.510 16.060,2.207 16.284,2.067 16.657 C 1.820 17.318,2.317 18.000,3.046 18.000 C 3.678 18.000,4.379 17.648,5.028 17.006 L 5.341 16.695 5.662 17.009 C 6.049 17.386,6.331 17.590,6.714 17.769 C 7.098 17.949,7.402 18.011,7.783 17.989 C 8.431 17.950,9.018 17.646,9.670 17.009 L 9.990 16.697 10.320 17.025 C 11.026 17.728,11.720 18.040,12.465 17.990 C 13.142 17.945,13.754 17.623,14.392 16.976 L 14.668 16.696 14.920 16.964 C 15.349 17.420,15.768 17.701,16.267 17.869 C 16.693 18.011,17.077 18.035,17.341 17.935 C 17.849 17.742,18.123 17.158,17.936 16.664 C 17.792 16.283,17.492 16.060,17.048 16.004 C 16.530 15.939,16.293 15.704,15.521 14.492 C 15.230 14.034,14.696 13.881,14.215 14.116 C 13.982 14.230,13.898 14.332,13.582 14.880 C 13.437 15.132,13.250 15.424,13.166 15.528 C 12.798 15.986,12.332 16.115,11.897 15.878 C 11.667 15.753,11.455 15.508,11.190 15.058 C 10.781 14.365,10.740 14.305,10.597 14.201 C 10.220 13.929,9.696 13.948,9.341 14.249 C 9.280 14.299,9.132 14.508,9.011 14.712 C 8.421 15.709,8.131 15.983,7.667 15.983 C 7.203 15.983,6.913 15.709,6.322 14.712 C 6.201 14.508,6.053 14.299,5.993 14.249 C 5.728 14.025,5.325 13.947,5.011 14.060 " fill="var(--db-icon-color, currentColor)" stroke="none" fill-rule="evenodd"></path></svg>