<svg id="icon" height="20" viewBox="0 0 20 20" width="20" xmlns="http://www.w3.org/2000/svg"><path d="M3.283 3.031 C 2.870 3.132,2.533 3.553,2.533 3.969 C 2.533 4.263,2.612 4.471,2.802 4.680 C 3.053 4.954,3.181 4.992,4.003 5.033 C 5.462 5.105,6.838 5.412,8.300 5.989 C 11.147 7.113,13.923 9.180,15.269 11.177 C 15.766 11.915,15.968 12.444,15.969 13.008 C 15.969 13.591,15.826 13.906,15.421 14.212 C 14.768 14.705,13.586 14.938,11.450 14.997 C 10.354 15.027,10.286 15.043,10.000 15.357 C 9.548 15.851,9.711 16.627,10.328 16.912 C 10.733 17.099,13.250 16.978,14.424 16.714 C 16.757 16.191,17.908 15.051,17.988 13.183 C 18.011 12.661,17.956 12.276,17.783 11.745 C 16.989 9.304,14.026 6.496,10.384 4.731 C 8.335 3.738,6.338 3.175,4.367 3.035 C 3.823 2.996,3.432 2.995,3.283 3.031 M5.667 8.003 C 5.072 8.037,4.645 8.144,4.183 8.374 C 3.511 8.708,3.068 9.199,2.847 9.850 C 2.774 10.066,2.754 10.197,2.741 10.537 C 2.721 11.051,2.778 11.350,2.968 11.726 C 3.291 12.369,3.769 12.742,4.903 13.237 C 5.642 13.560,5.823 13.660,5.980 13.834 C 6.101 13.968,6.120 14.040,6.101 14.300 C 6.070 14.740,5.657 14.962,4.817 14.991 C 4.294 15.010,4.051 14.981,3.434 14.829 C 3.129 14.753,2.975 14.731,2.857 14.745 C 2.123 14.832,1.752 15.744,2.200 16.362 C 2.330 16.541,2.545 16.661,2.935 16.770 C 3.522 16.935,3.915 16.983,4.667 16.981 C 5.247 16.980,5.403 16.968,5.700 16.904 C 6.723 16.684,7.491 16.154,7.851 15.420 C 8.043 15.028,8.101 14.800,8.124 14.348 C 8.163 13.552,7.911 12.901,7.359 12.381 C 6.989 12.031,6.528 11.763,5.650 11.384 C 5.190 11.186,4.977 11.066,4.850 10.933 C 4.764 10.844,4.750 10.803,4.750 10.650 C 4.750 10.248,5.097 10.044,5.838 10.009 C 6.279 9.989,6.636 10.031,7.040 10.152 C 7.549 10.304,7.907 10.236,8.179 9.934 C 8.601 9.466,8.547 8.785,8.060 8.432 C 7.909 8.323,7.445 8.168,7.014 8.083 C 6.655 8.012,6.096 7.979,5.667 8.003 " fill="var(--db-icon-color, currentColor)" stroke="none" fill-rule="evenodd"></path></svg>