<svg id="icon" height="24" viewBox="0 0 24 24" width="24" xmlns="http://www.w3.org/2000/svg"><path d="M10.200 2.045 C 8.752 2.188,7.640 2.747,6.784 3.762 C 5.772 4.962,5.164 6.481,5.040 8.123 C 4.970 9.048,4.944 11.587,4.996 12.360 C 5.057 13.259,5.166 14.104,5.320 14.880 C 5.497 15.769,5.984 17.676,6.147 18.120 C 6.557 19.230,7.391 20.312,8.080 20.627 C 8.210 20.686,8.237 20.716,8.217 20.780 C 8.163 20.963,8.154 21.280,8.200 21.419 C 8.265 21.618,8.464 21.836,8.660 21.925 C 8.810 21.994,9.010 21.998,12.000 21.998 C 14.990 21.998,15.190 21.994,15.340 21.925 C 15.536 21.836,15.735 21.618,15.800 21.419 C 15.848 21.274,15.838 20.925,15.782 20.794 C 15.761 20.742,15.810 20.698,16.007 20.594 C 16.345 20.416,16.880 19.880,17.195 19.404 C 17.683 18.667,17.944 17.986,18.317 16.470 C 18.915 14.035,19.070 12.684,19.022 10.320 C 18.982 8.344,18.942 7.698,18.825 7.119 C 18.575 5.886,18.007 4.701,17.217 3.762 C 16.443 2.844,15.524 2.324,14.263 2.092 C 13.873 2.020,10.806 1.985,10.200 2.045 M14.260 3.818 C 15.051 4.018,15.651 4.450,16.177 5.196 C 16.780 6.051,17.143 7.028,17.236 8.041 C 17.305 8.799,17.337 11.774,17.283 12.460 C 17.238 13.046,17.107 14.061,17.046 14.300 C 17.011 14.435,16.950 14.481,15.414 15.512 C 14.550 16.093,14.416 16.169,14.146 16.238 C 13.155 16.492,10.839 16.471,9.776 16.199 C 9.454 16.117,9.466 16.124,7.926 15.067 C 7.349 14.670,6.979 14.391,6.958 14.334 C 6.911 14.210,6.771 13.175,6.721 12.580 C 6.639 11.601,6.704 8.244,6.817 7.599 C 7.009 6.509,7.558 5.393,8.251 4.685 C 8.694 4.233,9.139 3.979,9.736 3.840 C 10.224 3.726,10.172 3.729,12.140 3.738 C 13.749 3.746,14.015 3.756,14.260 3.818 M11.300 5.025 C 10.882 5.068,10.279 5.175,10.042 5.248 C 8.882 5.603,8.136 6.641,8.212 7.795 C 8.238 8.189,8.512 9.511,8.636 9.840 C 8.802 10.277,9.281 10.758,9.718 10.925 C 9.840 10.972,10.192 11.056,10.500 11.112 C 10.998 11.203,11.165 11.214,12.000 11.214 C 12.835 11.214,13.002 11.203,13.500 11.112 C 13.808 11.056,14.160 10.972,14.282 10.925 C 14.719 10.758,15.198 10.277,15.364 9.840 C 15.488 9.511,15.762 8.189,15.788 7.795 C 15.834 7.097,15.568 6.403,15.063 5.901 C 14.453 5.295,13.645 5.048,12.180 5.021 C 11.784 5.014,11.388 5.015,11.300 5.025 M13.258 6.818 C 13.807 6.945,14.080 7.216,14.080 7.637 C 14.080 7.848,13.825 9.118,13.757 9.245 C 13.708 9.336,13.550 9.383,13.000 9.468 C 12.389 9.562,11.545 9.553,10.868 9.447 C 10.587 9.403,10.330 9.345,10.299 9.319 C 10.228 9.260,10.191 9.130,10.040 8.408 C 9.872 7.606,9.886 7.367,10.115 7.106 C 10.252 6.949,10.601 6.831,11.180 6.745 C 11.469 6.702,12.987 6.756,13.258 6.818 M9.290 12.678 C 8.893 12.776,8.594 13.216,8.657 13.609 C 8.670 13.695,8.824 14.049,8.999 14.397 C 9.351 15.102,9.474 15.242,9.806 15.321 C 10.338 15.449,10.837 15.050,10.839 14.494 C 10.840 14.317,10.797 14.201,10.525 13.654 C 10.217 13.034,10.085 12.846,9.880 12.740 C 9.743 12.669,9.449 12.638,9.290 12.678 M14.291 12.677 C 13.968 12.758,13.853 12.895,13.476 13.654 C 13.203 14.202,13.160 14.317,13.161 14.494 C 13.163 15.050,13.662 15.449,14.194 15.321 C 14.526 15.242,14.649 15.102,15.001 14.397 C 15.345 13.712,15.392 13.547,15.322 13.286 C 15.272 13.103,15.051 12.828,14.882 12.741 C 14.744 12.670,14.450 12.638,14.291 12.677 M8.947 17.732 C 9.240 17.850,9.776 17.980,10.220 18.039 C 10.735 18.109,12.549 18.136,13.180 18.084 C 14.529 17.973,14.999 17.831,15.844 17.275 C 16.172 17.059,16.440 16.899,16.440 16.919 C 16.440 16.939,16.393 17.105,16.335 17.288 C 16.144 17.893,15.692 18.681,15.376 18.958 C 15.292 19.032,15.124 19.139,15.002 19.196 L 14.780 19.300 12.020 19.285 C 9.399 19.271,9.249 19.267,9.050 19.193 C 8.539 19.002,7.991 18.255,7.679 17.323 C 7.613 17.128,7.560 16.949,7.560 16.925 C 7.560 16.901,7.816 17.051,8.130 17.257 C 8.444 17.464,8.811 17.678,8.947 17.732 " fill="var(--db-icon-color, currentColor)" stroke="none" fill-rule="evenodd"></path></svg>