<svg id="icon" height="32" viewBox="0 0 32 32" width="32" xmlns="http://www.w3.org/2000/svg"><path d="M10.785 4.133 C 10.512 4.207,10.152 4.337,9.985 4.422 C 9.180 4.833,8.706 5.770,8.859 6.649 C 8.925 7.032,10.125 9.550,10.396 9.875 C 10.595 10.115,11.002 10.268,11.297 10.215 C 11.774 10.129,12.111 9.718,12.115 9.219 C 12.117 8.984,12.041 8.798,11.470 7.640 C 11.114 6.918,10.834 6.297,10.848 6.260 C 10.876 6.189,11.357 6.027,11.541 6.027 C 11.611 6.027,12.164 6.538,13.118 7.486 C 14.439 8.798,14.611 8.950,14.827 9.003 C 15.260 9.109,15.727 8.916,15.928 8.549 C 16.097 8.241,16.120 8.072,16.031 7.768 C 15.957 7.513,15.839 7.382,14.388 5.936 C 12.988 4.541,12.788 4.362,12.466 4.211 C 11.957 3.973,11.458 3.950,10.785 4.133 M22.533 8.485 C 21.680 8.588,20.853 8.827,15.088 10.637 C 11.860 11.651,9.166 12.493,9.100 12.510 C 9.004 12.534,8.724 12.334,7.655 11.474 C 6.926 10.888,6.199 10.345,6.040 10.267 C 5.636 10.069,5.061 9.958,4.667 10.001 C 3.999 10.075,2.915 10.525,2.568 10.872 C 2.149 11.291,1.921 11.977,2.023 12.510 C 2.075 12.780,4.377 19.351,4.582 19.814 C 4.893 20.519,5.661 21.436,6.304 21.874 C 7.174 22.465,8.018 22.725,9.067 22.724 C 9.867 22.723,10.189 22.650,12.112 22.038 L 13.423 21.620 13.458 23.090 C 13.477 23.899,13.493 24.862,13.493 25.230 C 13.493 25.997,13.564 26.309,13.827 26.700 C 14.350 27.479,15.312 27.753,16.407 27.437 C 17.001 27.266,17.356 27.067,17.607 26.768 C 17.715 26.639,18.732 24.827,19.867 22.741 L 21.930 18.949 24.605 18.109 C 26.080 17.646,27.447 17.186,27.653 17.083 C 28.151 16.834,28.449 16.609,28.868 16.165 C 29.307 15.700,29.599 15.208,29.822 14.560 C 29.987 14.082,29.997 14.011,29.997 13.307 C 29.997 12.601,29.987 12.532,29.822 12.053 C 29.401 10.835,28.572 9.876,27.400 9.253 C 26.866 8.969,26.009 8.677,25.360 8.559 C 24.785 8.453,23.149 8.411,22.533 8.485 M25.280 10.603 C 25.757 10.715,26.453 10.972,26.453 11.035 C 26.453 11.056,26.023 11.210,25.497 11.377 C 24.862 11.578,24.485 11.728,24.375 11.820 C 24.049 12.094,23.915 12.568,24.057 12.943 C 24.179 13.268,24.638 13.596,24.972 13.599 C 25.082 13.600,27.426 12.881,27.886 12.705 C 27.945 12.682,27.955 12.789,27.939 13.288 C 27.921 13.869,27.910 13.919,27.719 14.305 C 27.504 14.740,27.156 15.106,26.789 15.283 C 26.678 15.337,25.286 15.792,23.697 16.295 C 21.656 16.940,20.754 17.249,20.626 17.346 C 20.484 17.455,20.000 18.303,18.347 21.342 C 17.193 23.464,16.205 25.263,16.152 25.340 C 16.099 25.417,15.986 25.493,15.901 25.510 C 15.816 25.528,15.683 25.557,15.606 25.577 L 15.467 25.612 15.467 22.831 C 15.467 19.879,15.463 19.838,15.211 19.554 C 15.079 19.405,14.724 19.256,14.498 19.255 C 14.391 19.254,13.311 19.564,12.098 19.944 C 9.661 20.708,9.307 20.787,8.717 20.700 C 7.683 20.546,6.902 19.995,6.481 19.124 C 6.259 18.664,4.040 12.377,4.072 12.296 C 4.103 12.215,4.737 11.999,4.942 11.999 C 5.081 12.000,5.384 12.219,6.702 13.272 C 8.232 14.495,8.490 14.667,8.795 14.667 C 8.871 14.666,11.795 13.767,15.293 12.668 C 18.790 11.569,21.838 10.634,22.066 10.591 C 22.294 10.547,22.528 10.499,22.587 10.485 C 22.645 10.471,23.173 10.468,23.760 10.478 C 24.591 10.492,24.927 10.520,25.280 10.603 M19.796 12.803 C 19.508 12.861,19.264 13.010,19.025 13.274 C 18.433 13.930,18.660 14.990,19.486 15.427 C 19.796 15.591,20.416 15.592,20.724 15.429 C 21.011 15.277,21.296 14.954,21.413 14.648 C 21.525 14.355,21.504 13.824,21.369 13.564 C 21.068 12.982,20.436 12.676,19.796 12.803 M15.233 14.265 C 14.926 14.375,14.659 14.613,14.483 14.938 C 14.102 15.636,14.417 16.534,15.154 16.851 C 15.687 17.081,16.307 16.970,16.701 16.575 C 16.957 16.319,17.083 16.032,17.110 15.644 C 17.162 14.866,16.518 14.185,15.733 14.190 C 15.572 14.191,15.347 14.224,15.233 14.265 M11.013 15.620 C 9.748 15.952,9.567 17.652,10.734 18.247 C 11.827 18.805,13.065 17.699,12.664 16.522 C 12.443 15.874,11.665 15.449,11.013 15.620 " fill="var(--db-icon-color, currentColor)" stroke="none" fill-rule="evenodd"></path></svg>