<svg width="12" height="12" viewBox="0 0 12 12" fill="none" xmlns="http://www.w3.org/2000/svg">
<g clip-path="url(#clip0_231_50)">
<path fill-rule="evenodd" clip-rule="evenodd" d="M7.96896 1.36884L6.16896 3.1877C6.11485 3.24229 6.07207 3.30706 6.04309 3.37826C6.01411 3.44946 5.9995 3.52568 6.0001 3.60255C6.0001 3.93684 6.2461 4.19998 6.6001 4.19998C6.75996 4.20004 6.91394 4.13973 7.03125 4.03112L7.8001 3.24341V6.59998C7.8001 6.9377 8.06239 7.19998 8.4001 7.19998C8.47921 7.20114 8.55775 7.18641 8.63107 7.15666C8.70439 7.12692 8.77099 7.08277 8.82694 7.02682C8.88289 6.97087 8.92704 6.90427 8.95678 6.83095C8.98653 6.75763 9.00126 6.67909 9.0001 6.59998V3.24341L9.78782 4.03198C9.89755 4.14041 10.0458 4.20083 10.2001 4.19998C10.5524 4.19998 10.8001 3.93598 10.8001 3.60255C10.8007 3.52568 10.7861 3.44946 10.7571 3.37826C10.7281 3.30706 10.6854 3.24229 10.6312 3.1877L8.83125 1.36884C8.7126 1.2624 8.55948 1.20243 8.4001 1.19998C8.24073 1.20243 8.08761 1.2624 7.96896 1.36884ZM3.0001 5.39998V8.75655L2.21239 7.96798C2.15772 7.91402 2.09292 7.8714 2.02173 7.84257C1.95053 7.81374 1.87434 7.79927 1.79753 7.79998C1.71831 7.79797 1.6395 7.81213 1.56594 7.8416C1.49237 7.87107 1.42559 7.91524 1.36968 7.97139C1.31376 8.02755 1.26988 8.09452 1.24072 8.16821C1.21157 8.2419 1.19775 8.32077 1.2001 8.39998C1.2001 8.55427 1.25667 8.70855 1.36896 8.83112L3.16896 10.6311C3.28761 10.7376 3.44073 10.7975 3.6001 10.8C3.7501 10.8 3.9001 10.7434 4.03125 10.6311L5.83124 8.83112C5.93985 8.71382 6.00016 8.55984 6.0001 8.39998C6.00248 8.32055 5.98858 8.24146 5.95926 8.16759C5.92995 8.09373 5.88584 8.02663 5.82965 7.97044C5.77345 7.91424 5.70636 7.87013 5.63249 7.84082C5.55862 7.81151 5.47954 7.79761 5.4001 7.79998C5.24024 7.79993 5.08626 7.86023 4.96896 7.96884L4.2001 8.75655V5.39998C4.2001 5.08112 3.93782 4.79998 3.6001 4.79998C3.26239 4.79998 3.0001 5.08112 3.0001 5.39998Z" fill="#1A1C1F"/>
</g>
<defs>
<clipPath id="clip0_231_50">
<rect width="12" height="12" fill="white"/>
</clipPath>
</defs>
</svg>
