<svg width="28" height="28" viewBox="0 0 28 28" fill="none" xmlns="http://www.w3.org/2000/svg">
<g clip-path="url(#clip0_77_556)">
<path fill-rule="evenodd" clip-rule="evenodd" d="M13.3712 6.37149C13.2128 6.54265 13.125 6.76731 13.1252 7.00049C13.1217 7.11633 13.142 7.23166 13.1847 7.33939C13.2275 7.44711 13.2918 7.54496 13.3738 7.62691C13.4557 7.70886 13.5536 7.77319 13.6613 7.81593C13.769 7.85868 13.8844 7.87895 14.0002 7.87549C14.2334 7.8757 14.458 7.78784 14.6292 7.62949L17.5002 4.73049V15.7505C17.5002 16.2425 17.8832 16.6255 18.3752 16.6255C18.4905 16.627 18.605 16.6053 18.7118 16.5619C18.8186 16.5184 18.9157 16.454 18.9972 16.3725C19.0788 16.291 19.1432 16.1939 19.1866 16.0871C19.2301 15.9802 19.2517 15.8658 19.2502 15.7505V4.73049L22.1212 7.62949C22.3132 7.79349 22.5312 7.87549 22.7502 7.87549C23.1462 7.87549 23.6252 7.59649 23.6252 7.00049C23.6254 6.76731 23.5375 6.54265 23.3792 6.37149L19.0042 1.99649C18.8311 1.84132 18.6077 1.75395 18.3752 1.75049C18.1427 1.75395 17.9193 1.84132 17.7462 1.99649L13.3712 6.37149ZM8.7502 23.2705L5.8792 20.3705C5.70803 20.2121 5.48337 20.1243 5.2502 20.1245C5.13435 20.121 5.01902 20.1413 4.9113 20.184C4.80357 20.2268 4.70573 20.2911 4.62378 20.3731C4.54182 20.455 4.4775 20.5529 4.43475 20.6606C4.392 20.7683 4.37174 20.8836 4.3752 20.9995C4.3752 21.2255 4.4572 21.4505 4.6212 21.6285L8.9962 26.0035C9.1872 26.1675 9.4062 26.2495 9.6252 26.2495C9.85767 26.246 10.0811 26.1587 10.2542 26.0035L14.6292 21.6285C14.7875 21.4573 14.8754 21.2327 14.8752 20.9995C14.8787 20.8836 14.8584 20.7683 14.8156 20.6606C14.7729 20.5529 14.7086 20.455 14.6266 20.3731C14.5447 20.2911 14.4468 20.2268 14.3391 20.184C14.2314 20.1413 14.116 20.121 14.0002 20.1245C13.767 20.1243 13.5424 20.2121 13.3712 20.3705L10.5002 23.2705V12.2505C10.5017 12.1352 10.4801 12.0207 10.4366 11.9139C10.3932 11.8071 10.3288 11.71 10.2472 11.6285C10.1657 11.5469 10.0686 11.4825 9.96178 11.4391C9.85496 11.3956 9.74051 11.374 9.6252 11.3755C9.50988 11.374 9.39543 11.3956 9.28861 11.4391C9.18178 11.4825 9.08473 11.5469 9.00318 11.6285C8.92164 11.71 8.85724 11.8071 8.81379 11.9139C8.77034 12.0207 8.74872 12.1352 8.7502 12.2505V23.2705Z" fill="#1A1C1F"/>
</g>
<defs>
<clipPath id="clip0_77_556">
<rect width="28" height="28" fill="white"/>
</clipPath>
</defs>
</svg>
