<svg width="12" height="12" viewBox="0 0 12 12" fill="none" xmlns="http://www.w3.org/2000/svg">
<g clip-path="url(#clip0_231_29)">
<path fill-rule="evenodd" clip-rule="evenodd" d="M10.0123 6.41228C10.072 6.36164 10.1198 6.29842 10.1523 6.22714C10.1847 6.15587 10.201 6.0783 10.2 6C10.1994 5.91919 10.1825 5.83933 10.1502 5.76524C10.1179 5.69115 10.071 5.62434 10.0123 5.56885L7.03113 2.56885C6.9143 2.45951 6.76001 2.39908 6.59999 2.4C6.52088 2.39884 6.44234 2.41357 6.36902 2.44332C6.2957 2.47306 6.2291 2.51721 6.17315 2.57316C6.11721 2.62911 6.07305 2.69571 6.04331 2.76903C6.01357 2.84234 5.99883 2.92088 5.99999 3C5.99999 3.15 6.05656 3.3 6.16885 3.41228L8.15656 5.4H2.39999C2.32088 5.39884 2.24234 5.41357 2.16902 5.44332C2.0957 5.47306 2.0291 5.51721 1.97315 5.57316C1.91721 5.62911 1.87305 5.69571 1.84331 5.76903C1.81357 5.84234 1.79883 5.92088 1.79999 6C1.79999 6.31885 2.06228 6.6 2.39999 6.6H8.15656L6.16799 8.56885C6.06186 8.68763 6.0022 8.84073 5.99999 9C5.99999 9.31885 6.26228 9.6 6.59999 9.6C6.68107 9.60117 6.76147 9.58504 6.83582 9.55267C6.91017 9.5203 6.97676 9.47244 7.03113 9.41228L10.0123 6.41228Z" fill="#1A1C1F"/>
</g>
<defs>
<clipPath id="clip0_231_29">
<rect width="12" height="12" fill="white"/>
</clipPath>
</defs>
</svg>
