<svg width="32" height="32" viewBox="0 0 32 32" fill="none" xmlns="http://www.w3.org/2000/svg">
<g clip-path="url(#clip0_77_548)">
<path fill-rule="evenodd" clip-rule="evenodd" d="M7.281 5.2785L2.281 10.2785C2.10371 10.4764 2.00391 10.7318 2 10.9975C2 11.2475 2.094 11.4975 2.281 11.7165L7.281 16.7165C7.484 16.9035 7.742 16.9975 8 16.9975C8.59 16.9975 9 16.5595 9 15.9975C9.00004 15.731 8.89971 15.4743 8.719 15.2785L5.406 11.9975H18C18.563 11.9975 19 11.5595 19 10.9975C19 10.4345 18.562 9.9975 18 9.9975H5.406L8.72 6.7165C8.906 6.5135 9 6.2555 9 5.9975C9 5.3975 8.546 4.9975 8 4.9975C7.75 4.9975 7.5 5.0915 7.281 5.2785ZM24.72 15.2825C24.5219 15.1056 24.2666 15.0061 24.001 15.0025C23.454 15.0025 23.001 15.4025 23.001 16.0025C23.001 16.2595 23.095 16.5175 23.282 16.7205L26.595 20.0015H14C13.437 20.0015 13 20.4395 13 21.0015C13 21.5645 13.438 22.0015 14 22.0015H26.594L23.281 25.2825C23.0999 25.4785 22.9995 25.7356 23 26.0025C23 26.5625 23.41 27.0025 24 27.0025C24.258 27.0025 24.516 26.9075 24.719 26.7205L29.719 21.7205C29.906 21.5015 30 21.2515 30 21.0015C30 20.7515 29.906 20.5015 29.719 20.2825L24.72 15.2825Z" fill="#1A1C1F"/>
</g>
<defs>
<clipPath id="clip0_77_548">
<rect width="32" height="32" fill="white"/>
</clipPath>
</defs>
</svg>
