<svg width="12" height="12" viewBox="0 0 12 12" fill="none" xmlns="http://www.w3.org/2000/svg">
<g clip-path="url(#clip0_231_53)">
<path fill-rule="evenodd" clip-rule="evenodd" d="M3.16884 1.36887L1.36884 3.16887C1.26233 3.28748 1.20235 3.44062 1.19998 3.60001C1.19998 3.75001 1.25655 3.90001 1.36884 4.03116L3.16884 5.83116C3.28745 5.93766 3.44059 5.99764 3.59998 6.00001C3.67909 6.00117 3.75763 5.98644 3.83095 5.95669C3.90427 5.92695 3.97087 5.8828 4.02682 5.82685C4.08277 5.7709 4.12692 5.7043 4.15666 5.63098C4.18641 5.55767 4.20114 5.47913 4.19998 5.40001C4.20029 5.32357 4.18554 5.24781 4.15657 5.17707C4.12759 5.10633 4.08497 5.04199 4.03112 4.98773L3.24341 4.19916H6.59998C6.67909 4.20031 6.75763 4.18558 6.83095 4.15584C6.90427 4.12609 6.97087 4.08194 7.02682 4.02599C7.08277 3.97005 7.12692 3.90344 7.15666 3.83013C7.18641 3.75681 7.20114 3.67827 7.19998 3.59916C7.19998 3.2623 6.9377 2.99916 6.59998 2.99916H3.24341L4.03198 2.23116C4.13818 2.11243 4.19785 1.95929 4.19998 1.80001C4.20114 1.7209 4.18641 1.64236 4.15666 1.56904C4.12692 1.49573 4.08277 1.42912 4.02682 1.37318C3.97087 1.31723 3.90427 1.27308 3.83095 1.24333C3.75763 1.21359 3.67909 1.19886 3.59998 1.20001C3.44059 1.20239 3.28745 1.26237 3.16884 1.36887ZM8.39998 6.00001C8.32087 5.99886 8.24233 6.01359 8.16901 6.04333C8.0957 6.07308 8.02909 6.11723 7.97314 6.17318C7.9172 6.22912 7.87304 6.29573 7.8433 6.36904C7.81356 6.44236 7.79883 6.5209 7.79998 6.60001C7.79998 6.75001 7.85655 6.90001 7.96884 7.03116L8.75655 7.80001H5.39998C5.32087 7.79886 5.24233 7.81359 5.16901 7.84333C5.09569 7.87308 5.02909 7.91723 4.97314 7.97318C4.9172 8.02912 4.87304 8.09573 4.8433 8.16904C4.81356 8.24236 4.79883 8.3209 4.79998 8.40001C4.79998 8.71887 5.06227 9.00001 5.39998 9.00001H8.75655L7.96798 9.76887C7.86179 9.8876 7.80212 10.0407 7.79998 10.2C7.79998 10.5377 8.04341 10.8 8.39998 10.8C8.55937 10.7976 8.71252 10.7377 8.83112 10.6312L10.6311 8.83116C10.7375 8.71247 10.7975 8.55937 10.8 8.40001C10.7975 8.24064 10.7376 8.08752 10.6311 7.96887L8.83112 6.16887C8.71252 6.06237 8.55937 6.00239 8.39998 6.00001Z" fill="#1A1C1F"/>
</g>
<defs>
<clipPath id="clip0_231_53">
<rect width="12" height="12" fill="white"/>
</clipPath>
</defs>
</svg>
