<svg width="14" height="14" viewBox="0 0 14 14" fill="none" xmlns="http://www.w3.org/2000/svg">
<g clip-path="url(#clip0_77_483)">
<path fill-rule="evenodd" clip-rule="evenodd" d="M11.681 7.481C11.7507 7.42192 11.8065 7.34816 11.8443 7.265C11.8822 7.18185 11.9012 7.09136 11.9 7C11.8993 6.90572 11.8795 6.81256 11.8419 6.72612C11.8043 6.63967 11.7495 6.56174 11.681 6.497L8.203 2.997C8.0667 2.86943 7.88669 2.79893 7.7 2.8C7.60771 2.79865 7.51608 2.81584 7.43054 2.85054C7.345 2.88524 7.2673 2.93675 7.20203 3.00202C7.13675 3.06729 7.08524 3.145 7.05054 3.23054C7.01584 3.31607 6.99866 3.4077 7 3.5C7 3.675 7.066 3.85 7.197 3.981L9.516 6.3H2.8C2.70771 6.29865 2.61608 6.31584 2.53054 6.35054C2.445 6.38524 2.3673 6.43675 2.30203 6.50202C2.23675 6.56729 2.18524 6.645 2.15054 6.73054C2.11584 6.81607 2.09866 6.9077 2.1 7C2.1 7.372 2.406 7.7 2.8 7.7H9.516L7.196 9.997C7.07219 10.1356 7.00259 10.3142 7 10.5C7 10.872 7.306 11.2 7.7 11.2C7.7946 11.2014 7.8884 11.1826 7.97514 11.1448C8.06188 11.107 8.13956 11.0512 8.203 10.981L11.681 7.481Z" fill="#1A1C1F"/>
</g>
<defs>
<clipPath id="clip0_77_483">
<rect width="14" height="14" fill="white"/>
</clipPath>
</defs>
</svg>
