<svg width="12" height="12" viewBox="0 0 12 12" fill="none" xmlns="http://www.w3.org/2000/svg">
<g clip-path="url(#clip0_231_35)">
<path fill-rule="evenodd" clip-rule="evenodd" d="M4.05514 3.14966H8.25342C8.56114 3.14966 8.84999 3.38109 8.84999 3.68966V7.94451C8.84999 8.25309 8.57999 8.54194 8.25342 8.54194C8.17462 8.54322 8.09636 8.52864 8.0233 8.49906C7.95024 8.46949 7.88387 8.42553 7.82814 8.3698C7.77241 8.31407 7.72845 8.2477 7.69888 8.17464C7.6693 8.10158 7.65472 8.02332 7.65599 7.94451V5.19052L4.15114 8.69623C4.10567 8.74778 4.04913 8.78836 3.98574 8.81494C3.92235 8.84151 3.85377 8.85338 3.78514 8.84966C3.61717 8.84809 3.45653 8.78067 3.33775 8.6619C3.21898 8.54312 3.15156 8.38248 3.14999 8.21452C3.14999 8.0988 3.18857 7.96423 3.26571 7.88709L6.80914 4.34366H4.05514C3.97784 4.34548 3.90095 4.33192 3.82893 4.30378C3.75692 4.27564 3.69121 4.23347 3.63563 4.17972C3.58004 4.12597 3.53569 4.06171 3.50515 3.99068C3.47461 3.91965 3.45848 3.84326 3.45771 3.76594C3.45771 3.43852 3.70799 3.14966 4.05514 3.14966Z" fill="#1A1C1F"/>
</g>
<defs>
<clipPath id="clip0_231_35">
<rect width="12" height="12" fill="white"/>
</clipPath>
</defs>
</svg>
