<svg width="28" height="28" viewBox="0 0 28 28" fill="none" xmlns="http://www.w3.org/2000/svg">
<g clip-path="url(#clip0_77_549)">
<path fill-rule="evenodd" clip-rule="evenodd" d="M6.371 4.61915L1.996 8.99415C1.84083 9.16729 1.75347 9.39068 1.75 9.62315C1.75 9.84215 1.832 10.0612 1.996 10.2522L6.371 14.6272C6.54217 14.7855 6.76682 14.8734 7 14.8732C7.11585 14.8766 7.23117 14.8563 7.3389 14.8136C7.44662 14.7708 7.54447 14.7065 7.62642 14.6246C7.70837 14.5426 7.7727 14.4448 7.81545 14.3371C7.85819 14.2293 7.87846 14.114 7.875 13.9982C7.87521 13.765 7.78735 13.5403 7.629 13.3692L4.73 10.4982H15.75C15.8653 10.4996 15.9798 10.478 16.0866 10.4346C16.1934 10.3911 16.2905 10.3267 16.372 10.2452C16.4536 10.1636 16.518 10.0666 16.5614 9.95974C16.6049 9.85291 16.6265 9.73847 16.625 9.62315C16.6265 9.50784 16.6049 9.39339 16.5614 9.28656C16.518 9.17974 16.4536 9.08269 16.372 9.00114C16.2905 8.91959 16.1934 8.8552 16.0866 8.81175C15.9798 8.7683 15.8653 8.74667 15.75 8.74815H4.73L7.63 5.87715C7.78835 5.70599 7.87621 5.48133 7.876 5.24815C7.87903 5.13233 7.85844 5.01711 7.81547 4.90952C7.77251 4.80192 7.70808 4.7042 7.62611 4.62233C7.54414 4.54045 7.44635 4.47613 7.3387 4.43329C7.23106 4.39045 7.11581 4.36999 7 4.37315C6.76753 4.37662 6.54414 4.46398 6.371 4.61915ZM21.629 13.3732C21.4559 13.218 21.2325 13.1306 21 13.1272C20.8843 13.1241 20.7691 13.1447 20.6616 13.1876C20.5541 13.2305 20.4564 13.2948 20.3745 13.3767C20.2927 13.4586 20.2283 13.5562 20.1854 13.6638C20.1425 13.7713 20.122 13.8864 20.125 14.0022C20.125 14.2272 20.207 14.4522 20.371 14.6312L23.27 17.5012H12.25C12.1346 17.4997 12.0201 17.5213 11.9132 17.5648C11.8063 17.6083 11.7092 17.6728 11.6276 17.7545C11.5461 17.8361 11.4817 17.9333 11.4383 18.0403C11.3949 18.1472 11.3734 18.2618 11.375 18.3772C11.375 18.8692 11.758 19.2522 12.25 19.2522H23.27L20.371 22.1222C20.2124 22.2936 20.1245 22.5186 20.125 22.7522C20.125 23.2432 20.485 23.6272 21 23.6272C21.2332 23.6273 21.4578 23.5394 21.629 23.3812L26.004 19.0062C26.1594 18.8328 26.2468 18.609 26.25 18.3762C26.2463 18.144 26.1589 17.921 26.004 17.7482L21.629 13.3732Z" fill="#1A1C1F"/>
</g>
<defs>
<clipPath id="clip0_77_549">
<rect width="28" height="28" fill="white"/>
</clipPath>
</defs>
</svg>
