<svg width="24" height="24" viewBox="0 0 24 24" fill="none" xmlns="http://www.w3.org/2000/svg">
<g clip-path="url(#clip0_77_557)">
<path fill-rule="evenodd" clip-rule="evenodd" d="M7 22C7.25 22 7.5 21.906 7.719 21.719L11.719 17.719C11.906 17.5 12 17.25 12 17C12 16.437 11.531 16 11 16C10.75 16 10.5 16.094 10.312 16.313L8 18.593V10C8 9.43701 7.562 9.00001 7 9.00001C6.437 9.00001 6 9.43801 6 10V18.594L3.687 16.312C3.60251 16.2126 3.49713 16.1332 3.37837 16.0792C3.25962 16.0253 3.13042 15.9982 3 16C2.437 16 2 16.469 2 17C2 17.25 2.094 17.5 2.281 17.719L6.281 21.719C6.5 21.906 6.75 22 7 22ZM17 15C17.563 15 18 14.562 18 14V5.40601L20.313 7.71901C20.4957 7.90006 20.7428 8.00113 21 8.00001C21.594 8.00001 22 7.56201 22 7.00001C22.0007 6.87249 21.9762 6.74609 21.928 6.62804C21.8798 6.50998 21.8088 6.40259 21.719 6.31201L17.719 2.28201C17.5212 2.10428 17.2659 2.00411 17 2.00001C16.8725 1.99933 16.7461 2.02379 16.628 2.07201C16.51 2.12023 16.4026 2.19125 16.312 2.28101L12.282 6.31201C12.1921 6.40251 12.1209 6.50986 12.0725 6.62792C12.0241 6.74598 11.9994 6.87242 12 7.00001C12 7.59401 12.438 8.00001 13 8.00001C13.25 8.00001 13.5 7.90601 13.719 7.71901L16 5.40601V14C16 14.563 16.438 15 17 15Z" fill="#1A1C1F"/>
</g>
<defs>
<clipPath id="clip0_77_557">
<rect width="24" height="24" fill="white"/>
</clipPath>
</defs>
</svg>
