<svg width="14" height="14" viewBox="0 0 14 14" fill="none" xmlns="http://www.w3.org/2000/svg">
<g clip-path="url(#clip0_77_560)">
<path fill-rule="evenodd" clip-rule="evenodd" d="M9.29714 1.59699L7.19714 3.71899C7.13401 3.78269 7.0841 3.85825 7.05029 3.94132C7.01648 4.02438 6.99944 4.11331 7.00014 4.20299C7.00014 4.59299 7.28714 4.89999 7.70014 4.89999C7.88664 4.90006 8.06629 4.8297 8.20314 4.70299L9.10014 3.78399V7.69999C9.10014 8.09399 9.40614 8.39999 9.80014 8.39999C9.89244 8.40134 9.98407 8.38416 10.0696 8.34945C10.1551 8.31475 10.2328 8.26324 10.2981 8.19797C10.3634 8.1327 10.4149 8.055 10.4496 7.96946C10.4843 7.88392 10.5015 7.79229 10.5001 7.69999V3.78399L11.4191 4.70399C11.5472 4.83049 11.7202 4.90099 11.9001 4.89999C12.3111 4.89999 12.6001 4.59199 12.6001 4.20299C12.6008 4.11331 12.5838 4.02438 12.55 3.94132C12.5162 3.85825 12.4663 3.78269 12.4031 3.71899L10.3031 1.59699C10.1647 1.47282 9.98608 1.40285 9.80014 1.39999C9.6142 1.40285 9.43556 1.47282 9.29714 1.59699ZM3.50014 6.29999V10.216L2.58114 9.29599C2.51736 9.23304 2.44177 9.18332 2.35871 9.14968C2.27564 9.11605 2.18675 9.09916 2.09714 9.09999C2.00471 9.09764 1.91278 9.11416 1.82695 9.14855C1.74113 9.18293 1.66321 9.23446 1.59798 9.29997C1.53274 9.36549 1.48155 9.44363 1.44753 9.5296C1.41352 9.61557 1.39739 9.70758 1.40014 9.79999C1.40014 9.97999 1.46614 10.16 1.59714 10.303L3.69714 12.403C3.83556 12.5272 4.0142 12.5971 4.20014 12.6C4.37514 12.6 4.55014 12.534 4.70314 12.403L6.80314 10.303C6.92985 10.1661 7.00021 9.9865 7.00014 9.79999C7.00291 9.70732 6.9867 9.61506 6.9525 9.52888C6.9183 9.4427 6.86684 9.36442 6.80128 9.29886C6.73572 9.2333 6.65744 9.18184 6.57126 9.14764C6.48508 9.11344 6.39282 9.09723 6.30014 9.09999C6.11364 9.09993 5.93399 9.17029 5.79714 9.29699L4.90014 10.216V6.29999C4.90014 5.92799 4.59414 5.59999 4.20014 5.59999C3.80614 5.59999 3.50014 5.92799 3.50014 6.29999Z" fill="#1A1C1F"/>
</g>
<defs>
<clipPath id="clip0_77_560">
<rect width="14" height="14" fill="white"/>
</clipPath>
</defs>
</svg>
