<svg width="28" height="28" viewBox="0 0 28 28" fill="none" xmlns="http://www.w3.org/2000/svg">
<g clip-path="url(#clip0_77_472)">
<path fill-rule="evenodd" clip-rule="evenodd" d="M22.7503 14.0004C22.7518 13.885 22.7302 13.7706 22.6867 13.6638C22.6433 13.5569 22.5789 13.4599 22.4973 13.3784C22.4158 13.2968 22.3187 13.2324 22.2119 13.189C22.1051 13.1455 21.9906 13.1239 21.8753 13.1254H8.23131L13.7543 7.62936C13.8366 7.54721 13.9009 7.44891 13.9432 7.34064C13.9856 7.23238 14.005 7.11652 14.0003 7.00036C14.0003 6.50836 13.6453 6.12536 13.1253 6.12536C13.0092 6.12073 12.8933 6.1402 12.7851 6.18253C12.6768 6.22487 12.5785 6.28916 12.4963 6.37136L5.49631 13.3714C5.41398 13.4537 5.34962 13.5521 5.30728 13.6606C5.26494 13.769 5.24554 13.8851 5.25031 14.0014C5.25031 14.2194 5.30531 14.4384 5.49631 14.6294L12.4963 21.6294C12.6883 21.8204 12.9063 21.8754 13.1263 21.8754C13.6453 21.8754 14.0003 21.4654 14.0003 21.0004C14.005 20.8842 13.9856 20.7683 13.9432 20.6601C13.9009 20.5518 13.8366 20.4535 13.7543 20.3714L8.23031 14.8754H21.8743C21.9897 14.877 22.1043 14.8555 22.2112 14.8121C22.3182 14.7687 22.4153 14.7043 22.497 14.6227C22.5786 14.5412 22.6431 14.4441 22.6866 14.3372C22.7301 14.2303 22.7518 14.1158 22.7503 14.0004Z" fill="#1A1C1F"/>
</g>
<defs>
<clipPath id="clip0_77_472">
<rect width="28" height="28" fill="white"/>
</clipPath>
</defs>
</svg>
