<svg width="20" height="20" viewBox="0 0 20 20" fill="none" xmlns="http://www.w3.org/2000/svg">
<g clip-path="url(#clip0_77_551)">
<path fill-rule="evenodd" clip-rule="evenodd" d="M5.281 2.28104L2.281 5.28104C2.10355 5.47889 2.00373 5.7343 2 6.00004C2 6.25004 2.094 6.50004 2.281 6.71904L5.281 9.71904C5.5 9.90604 5.75 9.99904 6 9.99904C6.562 9.99904 7 9.56204 7 8.99904C7.00112 8.74184 6.90004 8.49473 6.719 8.31204L5.406 7.00004H11C11.562 7.00004 12 6.56204 12 6.00004C12 5.43704 11.562 5.00004 11 5.00004H5.406L6.72 3.71904C6.89672 3.5209 6.99582 3.26552 6.999 3.00004C7.00102 2.86824 6.97657 2.73738 6.92709 2.61521C6.87762 2.49304 6.80412 2.38204 6.71096 2.28879C6.61781 2.19554 6.50688 2.12193 6.38476 2.07233C6.26263 2.02273 6.1318 1.99815 6 2.00004C5.75 2.00004 5.5 2.09404 5.281 2.28104ZM14 10C13.406 10 13 10.469 13 11C13 11.25 13.094 11.5 13.281 11.719L14.594 12.999H9C8.437 12.999 8 13.437 8 13.999C8 14.531 8.437 14.999 9 14.999H14.594L13.281 16.281C13.1036 16.4789 13.0037 16.7343 13 17C13 17.562 13.406 18 14 18C14.25 18 14.5 17.906 14.719 17.719L17.719 14.719C17.906 14.499 17.999 14.249 18 13.999C18 13.749 17.906 13.499 17.719 13.281L14.719 10.281C14.5209 10.1034 14.2651 10.0035 13.999 10H14Z" fill="#1A1C1F"/>
</g>
<defs>
<clipPath id="clip0_77_551">
<rect width="20" height="20" fill="white"/>
</clipPath>
</defs>
</svg>
