<svg width="12" height="12" viewBox="0 0 12 12" fill="none" xmlns="http://www.w3.org/2000/svg">
<g clip-path="url(#clip0_231_32)">
<path fill-rule="evenodd" clip-rule="evenodd" d="M6.41227 1.98775C6.36163 1.92801 6.29841 1.88021 6.22714 1.84776C6.15586 1.81531 6.0783 1.79901 5.99999 1.80003C5.91918 1.80063 5.83933 1.81757 5.76523 1.84983C5.69114 1.88208 5.62434 1.929 5.56885 1.98775L2.56885 4.96889C2.4595 5.08573 2.39907 5.24001 2.39999 5.40003C2.39999 5.73775 2.66227 6.00003 2.99999 6.00003C3.14999 6.00003 3.29999 5.94346 3.41227 5.83118L5.39999 3.84346V9.60003C5.39999 9.93775 5.66227 10.2 5.99999 10.2C6.31885 10.2 6.59999 9.93775 6.59999 9.60003V3.84346L8.56885 5.83203C8.68762 5.93816 8.84073 5.99782 8.99999 6.00003C9.31885 6.00003 9.59999 5.73775 9.59999 5.40003C9.60122 5.26142 9.55323 5.12687 9.46456 5.02032L6.41227 1.98775Z" fill="#1A1C1F"/>
</g>
<defs>
<clipPath id="clip0_231_32">
<rect width="12" height="12" fill="white"/>
</clipPath>
</defs>
</svg>
