<svg width="14" height="14" viewBox="0 0 14 14" fill="none" xmlns="http://www.w3.org/2000/svg">
<g clip-path="url(#clip0_77_525)">
<path fill-rule="evenodd" clip-rule="evenodd" d="M4.731 3.67461H9.629C9.988 3.67461 10.325 3.94461 10.325 4.30461V9.26861C10.325 9.62861 10.01 9.96561 9.629 9.96561C9.53706 9.96709 9.44576 9.95008 9.36052 9.91558C9.27529 9.88108 9.19786 9.82979 9.13284 9.76477C9.06782 9.69975 9.01653 9.62232 8.98203 9.53709C8.94753 9.45185 8.93052 9.36055 8.932 9.26861V6.05561L4.843 10.1456C4.78996 10.2057 4.72399 10.2531 4.65004 10.2841C4.57609 10.3151 4.49607 10.3289 4.416 10.3246C4.22004 10.3228 4.03263 10.2441 3.89405 10.1056C3.75548 9.96698 3.67683 9.77957 3.675 9.58361C3.675 9.44861 3.72 9.29161 3.81 9.20161L7.944 5.06761H4.731C4.64082 5.06973 4.55112 5.05392 4.4671 5.02108C4.38308 4.98825 4.30642 4.93905 4.24157 4.87634C4.17673 4.81364 4.12499 4.73867 4.08935 4.6558C4.05372 4.57293 4.03491 4.48381 4.034 4.39361C4.034 4.01161 4.326 3.67461 4.731 3.67461Z" fill="#1A1C1F"/>
</g>
<defs>
<clipPath id="clip0_77_525">
<rect width="14" height="14" fill="white"/>
</clipPath>
</defs>
</svg>
