<svg width="14" height="14" viewBox="0 0 14 14" fill="none" xmlns="http://www.w3.org/2000/svg">
<g clip-path="url(#clip0_77_476)">
<path fill-rule="evenodd" clip-rule="evenodd" d="M2.31898 6.51895C2.24929 6.57804 2.19352 6.6518 2.15566 6.73495C2.1178 6.8181 2.09879 6.9086 2.09998 6.99995C2.09998 7.17495 2.16598 7.34995 2.31898 7.50295L5.79698 11.003C5.93329 11.1305 6.11329 11.201 6.29998 11.2C6.39228 11.2013 6.48391 11.1841 6.56945 11.1494C6.65498 11.1147 6.73269 11.0632 6.79796 10.9979C6.86323 10.9327 6.91474 10.855 6.94944 10.7694C6.98415 10.6839 7.00133 10.5923 6.99998 10.5C7.00034 10.4108 6.98313 10.3224 6.94933 10.2399C6.91553 10.1573 6.8658 10.0823 6.80298 10.019L4.48398 7.69995H11.2C11.2923 7.7013 11.3839 7.68412 11.4694 7.64941C11.555 7.61471 11.6327 7.5632 11.698 7.49793C11.7632 7.43266 11.8147 7.35496 11.8494 7.26942C11.8841 7.18388 11.9013 7.09225 11.9 6.99995C11.9 6.62795 11.594 6.29995 11.2 6.29995H4.48398L6.80398 4.00295C6.9278 3.86439 6.9974 3.68576 6.99998 3.49995C6.99998 3.12795 6.69398 2.79995 6.29998 2.79995C6.13827 2.79851 5.98129 2.8545 5.85698 2.95795L2.31898 6.51895Z" fill="#1A1C1F"/>
</g>
<defs>
<clipPath id="clip0_77_476">
<rect width="14" height="14" fill="white"/>
</clipPath>
</defs>
</svg>
