<svg width="16" height="16" viewBox="0 0 16 16" fill="none" xmlns="http://www.w3.org/2000/svg">
<g clip-path="url(#clip0_77_559)">
<path fill-rule="evenodd" clip-rule="evenodd" d="M10.6252 1.82501L8.22517 4.25001C8.15311 4.32283 8.09613 4.40917 8.05752 4.50407C8.01891 4.59896 7.99942 4.70056 8.00017 4.80301C8.00017 5.24901 8.32817 5.60001 8.80017 5.60001C9.01334 5.60013 9.2187 5.51977 9.37517 5.37501L10.4002 4.32501V8.80001C10.4002 9.25001 10.7502 9.60001 11.2002 9.60001C11.6502 9.60001 12.0002 9.25001 12.0002 8.80001V4.32501L13.0502 5.37501C13.2002 5.52501 13.4002 5.60001 13.6002 5.60001C14.0702 5.60001 14.4002 5.24801 14.4002 4.80301C14.4009 4.70056 14.3814 4.59896 14.3428 4.50407C14.3042 4.40917 14.2472 4.32283 14.1752 4.25001L11.7752 1.82501C11.6169 1.6831 11.4127 1.60319 11.2002 1.60001C11.0002 1.60001 10.8002 1.67501 10.6252 1.82501ZM4.00017 7.20001V11.675L2.95017 10.625C2.87735 10.5529 2.79101 10.496 2.69611 10.4573C2.60122 10.4187 2.49962 10.3993 2.39717 10.4C2.29146 10.3971 2.18627 10.4158 2.08806 10.455C1.98985 10.4942 1.90068 10.5531 1.82605 10.628C1.75141 10.7029 1.69287 10.7923 1.65403 10.8907C1.61519 10.989 1.59686 11.0943 1.60017 11.2C1.60017 11.406 1.67517 11.612 1.82517 11.775L4.22517 14.175C4.38337 14.317 4.58762 14.3969 4.80017 14.4C5.00017 14.4 5.20017 14.325 5.37517 14.175L7.77517 11.775C7.91994 11.6185 8.00029 11.4132 8.00017 11.2C8.00017 10.728 7.65017 10.4 7.20017 10.4C6.987 10.3999 6.78165 10.4802 6.62517 10.625L5.60017 11.675V7.20001C5.60017 6.77501 5.25017 6.40001 4.80017 6.40001C4.35017 6.40001 4.00017 6.77501 4.00017 7.20001Z" fill="#1A1C1F"/>
</g>
<defs>
<clipPath id="clip0_77_559">
<rect width="16" height="16" fill="white"/>
</clipPath>
</defs>
</svg>
