<svg width="28" height="28" viewBox="0 0 28 28" fill="none" xmlns="http://www.w3.org/2000/svg">
<g clip-path="url(#clip0_77_479)">
<path fill-rule="evenodd" clip-rule="evenodd" d="M5.2497 14C5.2497 14.492 5.6327 14.875 6.1247 14.875H19.7687L14.2457 20.371C14.1635 20.4532 14.0991 20.5515 14.0568 20.6598C14.0144 20.768 13.995 20.8839 13.9997 21C13.9997 21.492 14.3547 21.875 14.8747 21.875C14.9909 21.8797 15.1067 21.8602 15.215 21.8179C15.3232 21.7755 15.4215 21.7112 15.5037 21.629L22.5037 14.629C22.5859 14.5469 22.6502 14.4485 22.6925 14.3403C22.7349 14.232 22.7543 14.1162 22.7497 14C22.7544 13.8839 22.735 13.768 22.6926 13.6598C22.6503 13.5515 22.586 13.4532 22.5037 13.371L15.5037 6.37104C15.4214 6.28871 15.3229 6.22434 15.2145 6.182C15.1061 6.13966 14.99 6.12026 14.8737 6.12504C14.7584 6.12356 14.644 6.14518 14.5373 6.18865C14.4305 6.23211 14.3335 6.29652 14.252 6.37808C14.1706 6.45964 14.1063 6.5567 14.0629 6.66352C14.0196 6.77035 13.9981 6.88477 13.9997 7.00004C13.9997 7.21904 14.0547 7.43804 14.2457 7.62904L19.7687 13.125H6.1247C6.00939 13.1236 5.89494 13.1452 5.78812 13.1886C5.68129 13.2321 5.58424 13.2965 5.50269 13.378C5.42115 13.4596 5.35675 13.5566 5.3133 13.6634C5.26985 13.7703 5.24823 13.8847 5.2497 14Z" fill="#1A1C1F"/>
</g>
<defs>
<clipPath id="clip0_77_479">
<rect width="28" height="28" fill="white"/>
</clipPath>
</defs>
</svg>
