<svg width="24" height="24" viewBox="0 0 24 24" fill="none" xmlns="http://www.w3.org/2000/svg">
<g clip-path="url(#clip0_77_550)">
<path fill-rule="evenodd" clip-rule="evenodd" d="M7.02186 1.99985C6.70086 1.99985 6.47686 2.08585 6.28186 2.28085L2.28186 6.28085C2.09932 6.4756 1.9984 6.73293 1.99986 6.99985C1.99986 7.24985 2.09486 7.49985 2.28086 7.68785L6.28086 11.7178C6.37586 11.8104 6.48841 11.883 6.61189 11.9315C6.73536 11.9799 6.86727 12.0031 6.99986 11.9998C7.56286 11.9998 7.99986 11.5308 7.99986 10.9998C8.00055 10.8723 7.97608 10.7459 7.92787 10.6279C7.87965 10.5098 7.80863 10.4024 7.71886 10.3118L5.40586 7.99985H13.9999C14.5629 7.99985 14.9999 7.53085 14.9999 6.99985C14.9999 6.43685 14.5619 5.99985 13.9999 5.99985H5.40586L7.71986 3.68685C7.8095 3.59644 7.88039 3.4892 7.92844 3.3713C7.97649 3.2534 8.00077 3.12716 7.99986 2.99985C7.99986 2.46885 7.59386 1.99985 7.02186 1.99985ZM16.9999 11.9998C16.4369 11.9998 15.9999 12.4378 15.9999 12.9998C15.9999 13.2498 16.1099 13.4818 16.3129 13.6878L18.5929 15.9998H9.99986C9.46886 15.9998 8.99986 16.4378 8.99986 16.9998C8.99986 17.5308 9.46886 17.9998 9.99986 17.9998H18.5939L16.3119 20.3128C16.1099 20.5178 15.9999 20.7498 15.9999 20.9998C15.9999 21.5628 16.4379 21.9998 16.9999 21.9998C17.1323 22.003 17.2641 21.9798 17.3876 21.9315C17.511 21.8833 17.6236 21.811 17.7189 21.7188L21.7189 17.7188C21.811 17.6236 21.8833 17.511 21.9315 17.3876C21.9798 17.2641 22.003 17.1323 21.9999 16.9998C22.003 16.8674 21.9798 16.7356 21.9315 16.6121C21.8833 16.4887 21.811 16.3761 21.7189 16.2808L17.7189 12.2808C17.6236 12.1887 17.511 12.1164 17.3876 12.0682C17.2641 12.0199 17.1323 11.9967 16.9999 11.9998Z" fill="#1A1C1F"/>
</g>
<defs>
<clipPath id="clip0_77_550">
<rect width="24" height="24" fill="white"/>
</clipPath>
</defs>
</svg>
