<svg width="28" height="28" viewBox="0 0 28 28" fill="none" xmlns="http://www.w3.org/2000/svg">
<g clip-path="url(#clip0_77_486)">
<path fill-rule="evenodd" clip-rule="evenodd" d="M14 22.7503C14.1153 22.7518 14.2298 22.7302 14.3366 22.6867C14.4434 22.6433 14.5405 22.5789 14.622 22.4973C14.7036 22.4158 14.768 22.3187 14.8114 22.2119C14.8549 22.1051 14.8765 21.9906 14.875 21.8753V8.23132L20.371 13.7543C20.562 13.9463 20.781 14.0003 21 14.0003C21.492 14.0003 21.875 13.6453 21.875 13.1253C21.8796 13.0092 21.8602 12.8933 21.8178 12.7851C21.7755 12.6768 21.7112 12.5785 21.629 12.4963L14.629 5.49632C14.5468 5.41412 14.4485 5.34983 14.3403 5.30749C14.232 5.26515 14.1162 5.24569 14 5.25032C13.8839 5.24563 13.768 5.26506 13.6597 5.3074C13.5515 5.34974 13.4532 5.41407 13.371 5.49632L6.37101 12.4963C6.28868 12.5786 6.22431 12.6771 6.18197 12.7855C6.13963 12.894 6.12023 13.01 6.12501 13.1263C6.12501 13.6453 6.53501 14.0003 7.00001 14.0003C7.11616 14.005 7.23202 13.9856 7.34029 13.9432C7.44855 13.9009 7.54686 13.8366 7.62901 13.7543L13.125 8.23132V21.8753C13.125 22.3673 13.508 22.7503 14 22.7503Z" fill="#1A1C1F"/>
</g>
<defs>
<clipPath id="clip0_77_486">
<rect width="28" height="28" fill="white"/>
</clipPath>
</defs>
</svg>
