<svg width="20" height="20" viewBox="0 0 20 20" fill="none" xmlns="http://www.w3.org/2000/svg">
<g clip-path="url(#clip0_77_558)">
<path fill-rule="evenodd" clip-rule="evenodd" d="M13.2812 2.281L10.2812 5.312C10.1911 5.40312 10.1198 5.51117 10.0716 5.62993C10.0234 5.7487 9.99913 5.87582 10.0002 6.004C9.99663 6.13612 10.0201 6.26758 10.0691 6.39032C10.1181 6.51305 10.1917 6.62447 10.2854 6.71774C10.379 6.81101 10.4907 6.88416 10.6136 6.9327C10.7366 6.98123 10.8681 7.00414 11.0002 7C11.2582 7 11.5162 6.906 11.7192 6.719L13.0002 5.406V11C13.0002 11.563 13.4382 12 14.0002 12C14.5632 12 15.0002 11.562 15.0002 11V5.406L16.3132 6.719C16.4959 6.90004 16.743 7.00112 17.0002 7C17.5882 7 18.0002 6.56 18.0002 6.004C18.0012 5.87599 17.9769 5.74905 17.9287 5.63047C17.8804 5.51189 17.8093 5.404 17.7192 5.313L14.7192 2.281C14.5213 2.10371 14.2659 2.00391 14.0002 2C13.7502 2 13.5002 2.094 13.2812 2.281ZM5.00023 9V14.594L3.68723 13.28C3.59635 13.1901 3.48863 13.119 3.37022 13.0708C3.25182 13.0225 3.12507 12.9982 2.99723 12.999C2.86495 12.9952 2.73329 13.0186 2.61037 13.0676C2.48744 13.1167 2.37585 13.1903 2.28246 13.2841C2.18907 13.3779 2.11585 13.4897 2.06732 13.6129C2.01878 13.736 1.99595 13.8677 2.00023 14C2.00023 14.258 2.09423 14.516 2.28123 14.719L5.28123 17.719C5.50023 17.906 5.75023 18 6.00023 18C6.25023 18 6.50023 17.906 6.71923 17.719L9.71923 14.719C9.89994 14.5232 10.0003 14.2665 10.0002 14C10.0002 13.41 9.56223 13 9.00023 13C8.73377 13 8.47706 13.1003 8.28123 13.281L7.00023 14.594V9C7.00023 8.469 6.56223 8 6.00023 8C5.43723 8 5.00023 8.469 5.00023 9Z" fill="#1A1C1F"/>
</g>
<defs>
<clipPath id="clip0_77_558">
<rect width="20" height="20" fill="white"/>
</clipPath>
</defs>
</svg>
