<svg width="12" height="12" viewBox="0 0 12 12" fill="none" xmlns="http://www.w3.org/2000/svg">
<g clip-path="url(#clip0_231_26)">
<path fill-rule="evenodd" clip-rule="evenodd" d="M1.98769 5.5877C1.92795 5.63835 1.88015 5.70157 1.8477 5.77284C1.81525 5.84411 1.79895 5.92168 1.79997 5.99999C1.79997 6.14999 1.85654 6.29999 1.98769 6.43113L4.96883 9.43113C5.08566 9.54048 5.23995 9.6009 5.39997 9.59999C5.47908 9.60114 5.55762 9.58641 5.63094 9.55667C5.70426 9.52692 5.77086 9.48277 5.82681 9.42682C5.88276 9.37088 5.92691 9.30427 5.95665 9.23096C5.9864 9.15764 6.00113 9.0791 5.99997 8.99999C6.00028 8.92354 5.98553 8.84779 5.95656 8.77705C5.92758 8.70631 5.88496 8.64196 5.83112 8.5877L3.8434 6.59999H9.59997C9.67908 6.60114 9.75762 6.58641 9.83094 6.55667C9.90426 6.52692 9.97086 6.48277 10.0268 6.42682C10.0828 6.37088 10.1269 6.30427 10.1567 6.23096C10.1864 6.15764 10.2011 6.0791 10.2 5.99999C10.2 5.68113 9.93769 5.39999 9.59997 5.39999H3.8434L5.83197 3.43113C5.9381 3.31236 5.99776 3.15925 5.99997 2.99999C5.99997 2.68113 5.73769 2.39999 5.39997 2.39999C5.26136 2.39875 5.1268 2.44674 5.02026 2.53542L1.98769 5.5877Z" fill="#1A1C1F"/>
</g>
<defs>
<clipPath id="clip0_231_26">
<rect width="12" height="12" fill="white"/>
</clipPath>
</defs>
</svg>
