<svg width="14" height="14" viewBox="0 0 14 14" fill="none" xmlns="http://www.w3.org/2000/svg">
<g clip-path="url(#clip0_77_553)">
<path fill-rule="evenodd" clip-rule="evenodd" d="M3.69699 1.59704L1.59699 3.69704C1.47274 3.83541 1.40276 4.01408 1.39999 4.20004C1.39999 4.37504 1.46599 4.55004 1.59699 4.70304L3.69699 6.80304C3.83537 6.92729 4.01404 6.99727 4.19999 7.00004C4.29229 7.00138 4.38392 6.9842 4.46946 6.9495C4.555 6.9148 4.6327 6.86329 4.69797 6.79801C4.76324 6.73274 4.81475 6.65504 4.84945 6.5695C4.88416 6.48396 4.90134 6.39233 4.89999 6.30004C4.90036 6.21085 4.88314 6.12247 4.84934 6.03994C4.81554 5.95741 4.76581 5.88235 4.70299 5.81904L3.78399 4.89904H7.69999C7.79229 4.90038 7.88392 4.8832 7.96946 4.8485C8.055 4.8138 8.1327 4.76229 8.19797 4.69701C8.26324 4.63174 8.31475 4.55404 8.34945 4.4685C8.38416 4.38296 8.40134 4.29133 8.39999 4.19904C8.39999 3.80604 8.09399 3.49904 7.69999 3.49904H3.78399L4.70399 2.60304C4.82789 2.46452 4.8975 2.28586 4.89999 2.10004C4.90134 2.00774 4.88416 1.91611 4.84945 1.83057C4.81475 1.74504 4.76324 1.66733 4.69797 1.60206C4.6327 1.53679 4.555 1.48528 4.46946 1.45058C4.38392 1.41587 4.29229 1.39869 4.19999 1.40004C4.01404 1.4028 3.83537 1.47278 3.69699 1.59704ZM9.79999 7.00004C9.7077 6.99869 9.61607 7.01587 9.53053 7.05058C9.44499 7.08528 9.36729 7.13679 9.30202 7.20206C9.23675 7.26733 9.18523 7.34504 9.15053 7.43057C9.11583 7.51611 9.09865 7.60774 9.09999 7.70004C9.09999 7.87504 9.16599 8.05004 9.29699 8.20304L10.216 9.10004H6.29999C6.2077 9.09869 6.11607 9.11587 6.03053 9.15058C5.94499 9.18528 5.86729 9.23679 5.80202 9.30206C5.73675 9.36733 5.68523 9.44504 5.65053 9.53057C5.61583 9.61611 5.59865 9.70774 5.59999 9.80004C5.59999 10.172 5.90599 10.5 6.29999 10.5H10.216L9.29599 11.397C9.1721 11.5356 9.10249 11.7142 9.09999 11.9C9.09999 12.294 9.38399 12.6 9.79999 12.6C9.98595 12.5973 10.1646 12.5273 10.303 12.403L12.403 10.303C12.5271 10.1646 12.597 9.98596 12.6 9.80004C12.5971 9.6141 12.5272 9.43546 12.403 9.29704L10.303 7.19704C10.1646 7.07278 9.98595 7.0028 9.79999 7.00004Z" fill="#1A1C1F"/>
</g>
<defs>
<clipPath id="clip0_77_553">
<rect width="14" height="14" fill="white"/>
</clipPath>
</defs>
</svg>
