<svg width="28" height="28" viewBox="0 0 28 28" fill="none" xmlns="http://www.w3.org/2000/svg">
<g clip-path="url(#clip0_183_3761)">
<path fill-rule="evenodd" clip-rule="evenodd" d="M14 5.24968C14.1153 5.2482 14.2298 5.26982 14.3366 5.31327C14.4434 5.35672 14.5405 5.42112 14.622 5.50267C14.7036 5.58422 14.768 5.68126 14.8114 5.78809C14.8549 5.89492 14.8765 6.00936 14.875 6.12468V19.7687L20.371 14.2457C20.562 14.0537 20.781 13.9997 21 13.9997C21.492 13.9997 21.875 14.3547 21.875 14.8747C21.8796 14.9908 21.8602 15.1067 21.8178 15.2149C21.7755 15.3232 21.7112 15.4215 21.629 15.5037L14.629 22.5037C14.5468 22.5859 14.4485 22.6502 14.3403 22.6925C14.232 22.7348 14.1162 22.7543 14 22.7497C13.8839 22.7544 13.768 22.7349 13.6597 22.6926C13.5515 22.6503 13.4532 22.5859 13.371 22.5037L6.37101 15.5037C6.28868 15.4214 6.22431 15.3229 6.18197 15.2145C6.13963 15.106 6.12023 14.99 6.12501 14.8737C6.12501 14.3547 6.53501 13.9997 7.00001 13.9997C7.11616 13.995 7.23202 14.0144 7.34029 14.0568C7.44855 14.0991 7.54686 14.1634 7.62901 14.2457L13.125 19.7687V6.12468C13.125 5.63268 13.508 5.24968 14 5.24968Z" fill="#1A1C1F"/>
</g>
<defs>
<clipPath id="clip0_183_3761">
<rect width="28" height="28" fill="white"/>
</clipPath>
</defs>
</svg>
