<svg width="16" height="16" viewBox="0 0 16 16" fill="none" xmlns="http://www.w3.org/2000/svg">
<g clip-path="url(#clip0_77_552)">
<path fill-rule="evenodd" clip-rule="evenodd" d="M4.22501 1.82501L1.82501 4.22501C1.68302 4.38321 1.6031 4.58746 1.60001 4.80001C1.60001 5.00001 1.67501 5.20001 1.82501 5.37501L4.22501 7.77501C4.38321 7.91699 4.58746 7.99692 4.80001 8.00001C5.25001 8.00001 5.60001 7.65001 5.60001 7.20001C5.60001 7.00001 5.52501 6.80001 5.37501 6.65001L4.32501 5.60001H8.80001C9.25001 5.60001 9.60001 5.25001 9.60001 4.80001C9.60001 4.35001 9.25001 4.00001 8.80001 4.00001H4.32501L5.37501 2.97501C5.51699 2.81681 5.59692 2.61256 5.60001 2.40001C5.60001 1.95001 5.25001 1.60001 4.80001 1.60001C4.60001 1.60001 4.40001 1.67501 4.22501 1.82501ZM11.2 8.00001C11.0946 7.99866 10.9899 8.01844 10.8923 8.05817C10.7946 8.09789 10.7059 8.15677 10.6313 8.23133C10.5568 8.30588 10.4979 8.39461 10.4582 8.49228C10.4184 8.58994 10.3987 8.69458 10.4 8.80001C10.4 9.00001 10.475 9.20001 10.625 9.37501L11.675 10.4H7.20001C6.75001 10.4 6.40001 10.75 6.40001 11.2C6.40001 11.625 6.75001 12 7.20001 12H11.675L10.625 13.025C10.483 13.1832 10.4031 13.3875 10.4 13.6C10.4 14.05 10.725 14.4 11.2 14.4C11.4 14.4 11.6 14.325 11.775 14.175L14.175 11.775C14.3168 11.6167 14.3967 11.4125 14.4 11.2C14.4 11 14.325 10.8 14.175 10.625L11.775 8.22501C11.6168 8.08302 11.4126 8.0031 11.2 8.00001Z" fill="#1A1C1F"/>
</g>
<defs>
<clipPath id="clip0_77_552">
<rect width="16" height="16" fill="white"/>
</clipPath>
</defs>
</svg>
