<svg width="32" height="32" viewBox="0 0 32 32" fill="none" xmlns="http://www.w3.org/2000/svg">
<g clip-path="url(#clip0_77_555)">
<path fill-rule="evenodd" clip-rule="evenodd" d="M15.281 7.281C15.1001 7.47672 14.9998 7.7335 15 8C15 8.59 15.438 9 16 9C16.258 9 16.516 8.906 16.719 8.719L20 5.406V18C20 18.563 20.438 19 21 19C21.563 19 22 18.562 22 18V5.406L25.281 8.719C25.5 8.906 25.75 9 26 9C26.453 9 27 8.682 27 8C27 7.73353 26.8997 7.47683 26.719 7.281L21.719 2.281C21.5211 2.10371 21.2657 2.00391 21 2C20.75 2 20.5 2.094 20.281 2.281L15.281 7.281ZM10 26.594L6.719 23.28C6.52313 23.0995 6.26637 22.9995 6 23C5.41 23 5 23.438 5 24C5 24.258 5.094 24.516 5.281 24.719L10.281 29.719C10.5 29.906 10.75 30 11 30C11.25 30 11.5 29.906 11.719 29.719L16.719 24.719C16.8997 24.5232 17 24.2665 17 24C17 23.41 16.562 23 16 23C15.7335 23 15.4768 23.1003 15.281 23.281L12 26.594V14C12 13.437 11.562 13 11 13C10.437 13 10 13.438 10 14V26.594Z" fill="#1A1C1F"/>
</g>
<defs>
<clipPath id="clip0_77_555">
<rect width="32" height="32" fill="white"/>
</clipPath>
</defs>
</svg>
