<svg width="14" height="14" viewBox="0 0 14 14" fill="none" xmlns="http://www.w3.org/2000/svg">
<g clip-path="url(#clip0_77_511)">
<path fill-rule="evenodd" clip-rule="evenodd" d="M4.54989 10.5041C4.54989 10.8751 4.85189 11.2001 5.24689 11.2001C5.4298 11.1945 5.6038 11.1198 5.73389 10.9911L9.24089 7.48712C9.37106 7.35802 9.446 7.18341 9.44989 7.00012C9.45238 6.90865 9.43498 6.81774 9.3989 6.73365C9.36281 6.64957 9.3089 6.57433 9.24089 6.51312L5.73389 3.00912C5.67264 2.94116 5.59738 2.88728 5.51331 2.8512C5.42924 2.81512 5.33834 2.79769 5.24689 2.80012C5.06228 2.80038 4.8853 2.87376 4.75468 3.0042C4.62405 3.13464 4.55042 3.31152 4.54989 3.49612C4.54989 3.68212 4.61989 3.86712 4.75889 4.00612L7.75489 7.00012L4.75889 9.99312C4.69226 10.0602 4.63951 10.1398 4.60365 10.2273C4.56779 10.3148 4.54952 10.4095 4.54989 10.5041Z" fill="#1A1C1F"/>
</g>
<defs>
<clipPath id="clip0_77_511">
<rect width="14" height="14" fill="white"/>
</clipPath>
</defs>
</svg>
