<svg width="16" height="16" viewBox="0 0 16 16" fill="none" xmlns="http://www.w3.org/2000/svg">
<g clip-path="url(#clip0_77_516)">
<path fill-rule="evenodd" clip-rule="evenodd" d="M3.99601 10.8C3.78506 10.7995 3.5829 10.7154 3.43374 10.5663C3.28457 10.4171 3.20054 10.2149 3.20001 10.004C3.20001 9.79098 3.30601 9.57898 3.43901 9.44598L7.44301 5.43998C7.59047 5.29069 7.79023 5.20462 8.00001 5.19998C8.18201 5.19998 8.36401 5.25798 8.49501 5.37498L12.561 9.44598C12.721 9.57898 12.8 9.79098 12.8 10.004C12.7995 10.2149 12.7155 10.4171 12.5663 10.5663C12.4171 10.7154 12.215 10.7995 12.004 10.8C11.8959 10.8004 11.7887 10.7796 11.6887 10.7386C11.5887 10.6975 11.4977 10.6372 11.421 10.561L8.00001 7.13698L4.57901 10.561C4.50233 10.6372 4.41136 10.6975 4.31132 10.7386C4.21128 10.7796 4.10413 10.8004 3.99601 10.8Z" fill="#1A1C1F"/>
</g>
<defs>
<clipPath id="clip0_77_516">
<rect width="16" height="16" fill="white"/>
</clipPath>
</defs>
</svg>
