<svg width="12" height="12" viewBox="0 0 12 12" fill="none" xmlns="http://www.w3.org/2000/svg">
<g clip-path="url(#clip0_231_41)">
<path fill-rule="evenodd" clip-rule="evenodd" d="M8.09999 9.0031C8.09954 9.16133 8.03643 9.31293 7.92446 9.42474C7.81249 9.53654 7.6608 9.59944 7.50257 9.59967C7.34578 9.59485 7.19664 9.53085 7.08514 9.42053L4.07914 6.4171C3.96756 6.30644 3.90333 6.15677 3.89999 5.99967C3.89999 5.86252 3.94371 5.7271 4.03199 5.62767L7.08514 2.57967C7.13764 2.52142 7.20214 2.47524 7.2742 2.44431C7.34626 2.41338 7.42417 2.39845 7.50257 2.40052C7.84114 2.40052 8.09999 2.6791 8.09999 2.9971C8.10031 3.07816 8.08465 3.15848 8.05391 3.23349C8.02317 3.30849 7.97796 3.37671 7.92085 3.43424L5.35285 5.99967L7.92085 8.5651C7.97796 8.62263 8.02317 8.69084 8.05391 8.76585C8.08465 8.84085 8.10031 8.92204 8.09999 9.0031Z" fill="#1A1C1F"/>
</g>
<defs>
<clipPath id="clip0_231_41">
<rect width="12" height="12" fill="white"/>
</clipPath>
</defs>
</svg>
