<svg width="14" height="14" viewBox="0 0 14 14" fill="none" xmlns="http://www.w3.org/2000/svg">
<g clip-path="url(#clip0_77_504)">
<path fill-rule="evenodd" clip-rule="evenodd" d="M9.45 10.5036C9.44947 10.6882 9.37584 10.8651 9.24521 10.9955C9.11459 11.126 8.9376 11.1993 8.753 11.1996C8.57009 11.194 8.39609 11.1193 8.266 10.9906L4.759 7.48661C4.62883 7.35752 4.55389 7.1829 4.55 6.99961C4.55 6.83961 4.601 6.68161 4.704 6.56561L8.266 3.00961C8.32725 2.94165 8.40251 2.88777 8.48658 2.85169C8.57065 2.81561 8.66155 2.79819 8.753 2.80061C9.148 2.80061 9.45 3.12561 9.45 3.49661C9.45037 3.59118 9.4321 3.68489 9.39624 3.7724C9.36037 3.85991 9.30763 3.93949 9.241 4.00661L6.245 6.99961L9.241 9.99261C9.30763 10.0597 9.36037 10.1393 9.39624 10.2268C9.4321 10.3143 9.45037 10.409 9.45 10.5036Z" fill="#1A1C1F"/>
</g>
<defs>
<clipPath id="clip0_77_504">
<rect width="14" height="14" fill="white"/>
</clipPath>
</defs>
</svg>
