<svg width="12" height="12" viewBox="0 0 12 12" fill="none" xmlns="http://www.w3.org/2000/svg">
<g clip-path="url(#clip0_231_38)">
<path fill-rule="evenodd" clip-rule="evenodd" d="M2.99647 3.9C2.83824 3.90045 2.68664 3.96357 2.57483 4.07553C2.46303 4.1875 2.40013 4.3392 2.3999 4.49743C2.3999 4.656 2.47962 4.81543 2.57905 4.91486L5.58247 7.92086C5.70162 8.04085 5.86105 8.1 5.9999 8.1C6.13705 8.1 6.27247 8.05628 6.3719 7.968L9.42076 4.91486C9.47901 4.86236 9.52519 4.79785 9.55612 4.72579C9.58704 4.65373 9.60198 4.57582 9.5999 4.49743C9.59968 4.3392 9.53678 4.1875 9.42497 4.07553C9.31317 3.96357 9.16156 3.90045 9.00333 3.9C8.92227 3.89969 8.84194 3.91535 8.76694 3.94608C8.69193 3.97682 8.62372 4.02204 8.56619 4.07914L5.9999 6.64714L3.43447 4.07914C3.37694 4.02204 3.30873 3.97682 3.23372 3.94608C3.15872 3.91535 3.07753 3.89969 2.99647 3.9Z" fill="#1A1C1F"/>
</g>
<defs>
<clipPath id="clip0_231_38">
<rect width="12" height="12" fill="white"/>
</clipPath>
</defs>
</svg>
