<svg width="16" height="16" viewBox="0 0 16 16" fill="none" xmlns="http://www.w3.org/2000/svg">
<g clip-path="url(#clip0_77_510)">
<path fill-rule="evenodd" clip-rule="evenodd" d="M5.19987 12.0036C5.19987 12.4286 5.54487 12.7996 5.99587 12.7996C6.20542 12.7935 6.40483 12.7081 6.55387 12.5606L10.5609 8.55664C10.7098 8.40902 10.7955 8.20929 10.7999 7.99964C10.8028 7.89503 10.7829 7.79103 10.7416 7.69485C10.7004 7.59867 10.6387 7.51261 10.5609 7.44264L6.55387 3.43964C6.48374 3.36174 6.39752 3.30001 6.30116 3.25874C6.20481 3.21748 6.10064 3.19765 5.99587 3.20064C5.78492 3.20117 5.58276 3.2852 5.43359 3.43437C5.28443 3.58353 5.2004 3.78569 5.19987 3.99664C5.19987 4.20864 5.27987 4.42064 5.43887 4.57964L8.86287 7.99964L5.43887 11.4206C5.36265 11.4973 5.3023 11.5883 5.26129 11.6883C5.22028 11.7884 5.1994 11.8955 5.19987 12.0036Z" fill="#1A1C1F"/>
</g>
<defs>
<clipPath id="clip0_77_510">
<rect width="16" height="16" fill="white"/>
</clipPath>
</defs>
</svg>
