<svg width="14" height="14" viewBox="0 0 14 14" fill="none" xmlns="http://www.w3.org/2000/svg">
<g clip-path="url(#clip0_77_518)">
<path fill-rule="evenodd" clip-rule="evenodd" d="M3.49587 9.44999C3.31126 9.44946 3.13439 9.37582 3.00395 9.2452C2.87351 9.11457 2.80013 8.93759 2.79987 8.75299C2.79987 8.56799 2.89287 8.38199 3.00887 8.26599L6.51287 4.75899C6.64196 4.62881 6.81657 4.55388 6.99987 4.54999C7.15987 4.54999 7.31787 4.60099 7.43387 4.70399L10.9909 8.26599C11.059 8.32711 11.113 8.40234 11.1491 8.48644C11.1852 8.57055 11.2025 8.6615 11.1999 8.75299C11.1996 8.93759 11.1262 9.11457 10.9958 9.2452C10.8653 9.37582 10.6885 9.44946 10.5039 9.44999C10.4093 9.45035 10.3156 9.43208 10.2281 9.39622C10.1406 9.36036 10.061 9.30761 9.99387 9.24099L6.99987 6.24499L4.00687 9.24099C3.93975 9.30761 3.86016 9.36036 3.77266 9.39622C3.68515 9.43208 3.59043 9.45035 3.49587 9.44999Z" fill="#1A1C1F"/>
</g>
<defs>
<clipPath id="clip0_77_518">
<rect width="14" height="14" fill="white"/>
</clipPath>
</defs>
</svg>
