<svg width="16" height="16" viewBox="0 0 16 16" fill="none" xmlns="http://www.w3.org/2000/svg">
<g clip-path="url(#clip0_77_495)">
<path fill-rule="evenodd" clip-rule="evenodd" d="M3.99586 5.19994C3.78491 5.20047 3.58275 5.28451 3.43359 5.43367C3.28442 5.58283 3.20039 5.78499 3.19986 5.99594C3.19986 6.20894 3.30586 6.42094 3.43886 6.55394L7.44286 10.5609C7.60286 10.7209 7.81386 10.7999 7.99986 10.7999C8.18057 10.8032 8.35638 10.7411 8.49486 10.6249L12.5609 6.55394C12.6388 6.48382 12.7005 6.39759 12.7418 6.30124C12.783 6.20489 12.8029 6.10072 12.7999 5.99594C12.7993 5.78499 12.7153 5.58283 12.5661 5.43367C12.417 5.28451 12.2148 5.20047 12.0039 5.19994C11.8957 5.19948 11.7886 5.22035 11.6886 5.26137C11.5885 5.30238 11.4975 5.36272 11.4209 5.43894L7.99986 8.86294L4.57886 5.43894C4.50218 5.36272 4.41121 5.30238 4.31117 5.26137C4.21113 5.22035 4.10398 5.19948 3.99586 5.19994Z" fill="#1A1C1F"/>
</g>
<defs>
<clipPath id="clip0_77_495">
<rect width="16" height="16" fill="white"/>
</clipPath>
</defs>
</svg>
