<svg width="14" height="14" viewBox="0 0 14 14" fill="none" xmlns="http://www.w3.org/2000/svg">
<g clip-path="url(#clip0_77_497)">
<path fill-rule="evenodd" clip-rule="evenodd" d="M3.4959 4.55C3.3113 4.55053 3.13442 4.62416 3.00398 4.75479C2.87354 4.88542 2.80016 5.0624 2.7999 5.247C2.7999 5.432 2.8929 5.618 3.0089 5.734L6.5129 9.241C6.6519 9.381 6.8379 9.45 6.9999 9.45C7.1599 9.45 7.3179 9.399 7.4339 9.296L10.9909 5.734C11.0589 5.67275 11.1127 5.5975 11.1488 5.51343C11.1849 5.42935 11.2023 5.33846 11.1999 5.247C11.1996 5.0624 11.1263 4.88542 10.9958 4.75479C10.8654 4.62416 10.6885 4.55053 10.5039 4.55C10.4093 4.54964 10.3156 4.56791 10.2281 4.60377C10.1406 4.63963 10.061 4.69238 9.9939 4.759L6.9999 7.755L4.0069 4.759C3.93978 4.69238 3.86019 4.63963 3.77269 4.60377C3.68518 4.56791 3.59047 4.54964 3.4959 4.55Z" fill="#1A1C1F"/>
</g>
<defs>
<clipPath id="clip0_77_497">
<rect width="14" height="14" fill="white"/>
</clipPath>
</defs>
</svg>
