<svg width="12" height="12" viewBox="0 0 12 12" fill="none" xmlns="http://www.w3.org/2000/svg">
<g clip-path="url(#clip0_231_44)">
<path fill-rule="evenodd" clip-rule="evenodd" d="M3.89989 9.00352C3.89989 9.32152 4.15875 9.60009 4.49732 9.60009C4.6541 9.59528 4.80325 9.53127 4.91475 9.42095L7.92075 6.41752C8.03233 6.30687 8.09656 6.1572 8.09989 6.00009C8.10203 5.92169 8.08712 5.84377 8.05619 5.77169C8.02526 5.69962 7.97905 5.63513 7.92075 5.58266L4.91475 2.57924C4.86225 2.52098 4.79775 2.4748 4.72568 2.44388C4.65362 2.41295 4.57571 2.39801 4.49732 2.40009C4.33909 2.40032 4.18739 2.46322 4.07543 2.57502C3.96346 2.68683 3.90034 2.83844 3.89989 2.99666C3.89989 3.15609 3.95989 3.31466 4.07903 3.43381L6.64703 6.00009L4.07903 8.56552C4.02193 8.62305 3.97672 8.69127 3.94598 8.76627C3.91524 8.84128 3.89958 8.92246 3.89989 9.00352Z" fill="#1A1C1F"/>
</g>
<defs>
<clipPath id="clip0_231_44">
<rect width="12" height="12" fill="white"/>
</clipPath>
</defs>
</svg>
