<svg width="16" height="16" viewBox="0 0 16 16" fill="none" xmlns="http://www.w3.org/2000/svg">
<g clip-path="url(#clip0_77_503)">
<path fill-rule="evenodd" clip-rule="evenodd" d="M10.8 12.0041C10.7995 12.2151 10.7154 12.4173 10.5663 12.5664C10.4171 12.7156 10.2149 12.7996 10.004 12.8001C9.79443 12.794 9.59502 12.7086 9.44598 12.5611L5.43998 8.55715C5.29069 8.40969 5.20462 8.20993 5.19998 8.00015C5.19998 7.81815 5.25798 7.63615 5.37498 7.50515L9.44598 3.43915C9.51611 3.36124 9.60233 3.29952 9.69868 3.25825C9.79503 3.21698 9.89921 3.19716 10.004 3.20015C10.455 3.20015 10.8 3.57115 10.8 3.99615C10.8 4.20815 10.72 4.42015 10.561 4.57915L7.13698 8.00015L10.561 11.4211C10.6373 11.4978 10.6977 11.5887 10.7387 11.6888C10.7797 11.7888 10.8006 11.896 10.8 12.0041Z" fill="#1A1C1F"/>
</g>
<defs>
<clipPath id="clip0_77_503">
<rect width="16" height="16" fill="white"/>
</clipPath>
</defs>
</svg>
