<svg width="12" height="12" viewBox="0 0 12 12" fill="none" xmlns="http://www.w3.org/2000/svg">
<g clip-path="url(#clip0_231_47)">
<path fill-rule="evenodd" clip-rule="evenodd" d="M2.99644 8.09999C2.83821 8.09954 2.68661 8.03643 2.5748 7.92446C2.463 7.81249 2.4001 7.6608 2.39987 7.50257C2.39987 7.34399 2.47959 7.18457 2.57901 7.08514L5.58244 4.07914C5.6931 3.96756 5.84276 3.90333 5.99987 3.89999C6.13701 3.89999 6.27244 3.94371 6.37187 4.03199L9.42073 7.08514C9.47912 7.13753 9.52539 7.20201 9.55633 7.2741C9.58727 7.34619 9.60212 7.42415 9.59987 7.50257C9.59965 7.6608 9.53675 7.81249 9.42494 7.92446C9.31314 8.03643 9.16153 8.09954 9.0033 8.09999C8.92224 8.10031 8.84191 8.08465 8.76691 8.05391C8.6919 8.02317 8.62369 7.97796 8.56616 7.92085L5.99987 5.35285L3.43444 7.92085C3.37691 7.97796 3.3087 8.02317 3.23369 8.05391C3.15869 8.08465 3.0775 8.10031 2.99644 8.09999Z" fill="#1A1C1F"/>
</g>
<defs>
<clipPath id="clip0_231_47">
<rect width="12" height="12" fill="white"/>
</clipPath>
</defs>
</svg>
