<svg width="16" height="16" viewBox="0 0 16 16" fill="none" xmlns="http://www.w3.org/2000/svg">
<g clip-path="url(#clip0_77_531)">
<path fill-rule="evenodd" clip-rule="evenodd" d="M2.39449 7.93856C2.39449 5.79256 3.78149 4.14356 5.92749 3.56856L5.14249 3.07156C5.03488 2.98814 4.94815 2.88084 4.88914 2.75814C4.83013 2.63544 4.80047 2.50069 4.80249 2.36456C4.80045 2.26091 4.81937 2.15792 4.85809 2.06175C4.89682 1.96559 4.95457 1.87824 5.02787 1.80493C5.10118 1.73163 5.18853 1.67388 5.28469 1.63516C5.38085 1.59643 5.48385 1.57752 5.58749 1.57956C5.74444 1.58251 5.89774 1.6274 6.03149 1.70956L8.43949 3.33256C8.62249 3.43756 8.80549 3.67256 8.80549 3.98656C8.80262 4.14383 8.75773 4.29747 8.67549 4.43156L7.05149 6.83956C6.9735 6.95466 6.86796 7.04844 6.74448 7.11236C6.62101 7.17628 6.48351 7.20832 6.34449 7.20556C6.24292 7.20466 6.14254 7.18355 6.04921 7.14344C5.95588 7.10334 5.87147 7.04505 5.80091 6.97198C5.73035 6.8989 5.67505 6.81251 5.63824 6.71783C5.60142 6.62316 5.58383 6.5221 5.58649 6.42056C5.58649 6.23756 5.63849 6.08056 5.71649 5.95056L6.26649 5.13856C4.93149 5.40056 3.98949 6.57856 3.98949 7.93856C3.98949 8.95856 4.48649 9.92756 5.27149 10.5556C5.48149 10.7126 5.58649 10.9476 5.58649 11.2096C5.58596 11.4178 5.50295 11.6173 5.35563 11.7644C5.20832 11.9115 5.0087 11.9943 4.80049 11.9946C4.622 11.9988 4.44717 11.9436 4.30349 11.8376C3.10049 10.8696 2.39349 9.45656 2.39349 7.93756L2.39449 7.93856ZM13.6055 8.06156C13.6055 10.2076 12.2185 11.8566 10.0725 12.4316L10.8585 12.9296C10.9692 13.0117 11.0597 13.1179 11.1231 13.2403C11.1865 13.3626 11.2212 13.4978 11.2245 13.6356C11.2245 14.0806 10.8585 14.4206 10.4135 14.4206C10.2562 14.4177 10.1026 14.3728 9.96849 14.2906L7.56049 12.6676C7.44811 12.5995 7.3553 12.5035 7.29114 12.3889C7.22699 12.2742 7.19369 12.1449 7.19449 12.0136C7.19449 11.8296 7.24649 11.6996 7.32449 11.5686L8.94849 9.15956C9.02649 9.04445 9.13203 8.95067 9.2555 8.88675C9.37898 8.82283 9.51648 8.79079 9.65549 8.79356C10.0475 8.79356 10.4405 9.10756 10.4405 9.57856C10.4405 9.73556 10.3615 9.91856 10.2835 10.0496L9.73349 10.8606C11.0685 10.5996 12.0105 9.42156 12.0105 8.06056C12.0105 7.04056 11.5135 6.07156 10.7285 5.41756C10.5185 5.28756 10.4145 5.02556 10.4145 4.78956C10.4145 4.39756 10.7285 3.97856 11.2245 3.97856C11.3972 3.98825 11.5624 4.0523 11.6965 4.16156C12.9265 5.12956 13.6065 6.54256 13.6065 8.06156H13.6055Z" fill="#1A1C1F"/>
</g>
<defs>
<clipPath id="clip0_77_531">
<rect width="16" height="16" fill="white"/>
</clipPath>
</defs>
</svg>
