<svg width="14" height="14" viewBox="0 0 14 14" fill="none" xmlns="http://www.w3.org/2000/svg">
<g clip-path="url(#clip0_77_532)">
<path fill-rule="evenodd" clip-rule="evenodd" d="M2.095 6.94602C2.095 5.06802 3.309 3.62602 5.186 3.12202L4.499 2.68702C4.405 2.61406 4.32925 2.52025 4.27771 2.413C4.22616 2.30575 4.20025 2.188 4.202 2.06902C4.202 1.67902 4.499 1.38202 4.888 1.38202C5.02579 1.3849 5.16036 1.42423 5.278 1.49602L7.384 2.91602C7.544 3.00802 7.704 3.21402 7.704 3.48902C7.70133 3.62653 7.66197 3.76082 7.59 3.87802L6.17 5.98402C6.10186 6.08444 6.00976 6.16629 5.90203 6.22216C5.7943 6.27804 5.67434 6.30617 5.553 6.30402C5.46407 6.30338 5.37616 6.28505 5.2944 6.25008C5.21263 6.21512 5.13864 6.16423 5.07674 6.10038C5.01484 6.03653 4.96628 5.96099 4.93387 5.87817C4.90147 5.79536 4.88588 5.70692 4.888 5.61802C4.88772 5.47272 4.92751 5.33016 5.003 5.20602L5.483 4.49602C4.91823 4.60959 4.41062 4.91623 4.04731 5.3633C3.684 5.81036 3.48766 6.36996 3.492 6.94602C3.492 7.83902 3.927 8.68602 4.614 9.23602C4.70178 9.30278 4.77241 9.38948 4.82005 9.48894C4.8677 9.5884 4.89099 9.69778 4.888 9.80802C4.88774 9.98997 4.81541 10.1644 4.68685 10.2932C4.55828 10.4219 4.38395 10.4945 4.202 10.495C4.04583 10.4988 3.89282 10.4506 3.767 10.358C2.713 9.51002 2.095 8.27402 2.095 6.94602ZM11.905 7.05402C11.905 8.93202 10.691 10.374 8.814 10.878L9.501 11.313C9.707 11.473 9.821 11.703 9.821 11.931C9.821 12.321 9.501 12.618 9.111 12.618C8.9735 12.6153 8.8392 12.576 8.722 12.504L6.616 11.084C6.51741 11.0245 6.43597 10.9404 6.37969 10.84C6.32342 10.7395 6.29423 10.6262 6.295 10.511C6.29439 10.373 6.33401 10.2379 6.409 10.122L7.829 8.01602C7.89723 7.91545 7.9895 7.83352 8.09741 7.77764C8.20533 7.72175 8.32549 7.6937 8.447 7.69602C8.791 7.69602 9.134 7.97002 9.134 8.38202C9.12334 8.52861 9.07625 8.67023 8.997 8.79402L8.516 9.50402C9.08095 9.39065 9.5888 9.0841 9.9523 8.63701C10.3158 8.18993 10.5123 7.63022 10.508 7.05402C10.508 6.16102 10.073 5.31402 9.386 4.74102C9.203 4.62702 9.111 4.39802 9.111 4.19102C9.111 3.84802 9.386 3.48202 9.821 3.48202C9.959 3.48202 10.119 3.55102 10.233 3.64202C10.7542 4.04491 11.1759 4.56204 11.4658 5.15357C11.7557 5.74511 11.9059 6.39528 11.905 7.05402Z" fill="#1A1C1F"/>
</g>
<defs>
<clipPath id="clip0_77_532">
<rect width="14" height="14" fill="white"/>
</clipPath>
</defs>
</svg>
