<svg width="20" height="20" viewBox="0 0 20 20" fill="none" xmlns="http://www.w3.org/2000/svg">
<g clip-path="url(#clip0_77_530)">
<path fill-rule="evenodd" clip-rule="evenodd" d="M2.99301 9.92349C2.99301 7.24049 4.72701 5.18049 7.40901 4.46049L6.42801 3.83949C6.29325 3.73532 6.1846 3.60121 6.11066 3.44778C6.03672 3.29434 5.99952 3.12579 6.00201 2.95549C6.00201 2.39949 6.42801 1.97449 6.98401 1.97449C7.18001 1.97449 7.37601 2.03949 7.54001 2.13749L10.55 4.16649C10.778 4.29649 11.007 4.59149 11.007 4.98349C11.0033 5.18006 10.9471 5.37205 10.844 5.53949L8.81501 8.54949C8.71761 8.69332 8.58583 8.81055 8.43163 8.89053C8.27743 8.97051 8.10569 9.01072 7.93201 9.00749C7.80496 9.00634 7.67942 8.9799 7.5627 8.92972C7.44597 8.87953 7.34041 8.80661 7.25217 8.7152C7.16392 8.6238 7.09477 8.51573 7.04873 8.39731C7.00269 8.2789 6.98069 8.1525 6.98401 8.02549C6.98401 7.79649 7.04901 7.60049 7.14701 7.43749L7.83401 6.42349C6.16601 6.75049 4.98801 8.22249 4.98801 9.92349C4.98801 11.1985 5.61001 12.4095 6.59101 13.1935C6.71675 13.2888 6.81797 13.4128 6.88631 13.555C6.95465 13.6973 6.98814 13.8537 6.98401 14.0115C6.98348 14.2718 6.87985 14.5212 6.69581 14.7053C6.51176 14.8893 6.26229 14.993 6.00201 14.9935C5.77301 14.9935 5.54401 14.9275 5.38101 14.7965C3.87601 13.5865 2.99301 11.8195 2.99301 9.92349ZM17.007 10.0775C17.007 12.7595 15.273 14.8205 12.591 15.5395L13.572 16.1615C13.867 16.3905 14.03 16.7175 14.03 17.0445C14.03 17.6005 13.572 18.0255 13.016 18.0255C12.82 18.0255 12.624 17.9605 12.46 17.8625L9.45001 15.8345C9.3095 15.7494 9.1935 15.6293 9.11338 15.4859C9.03327 15.3425 8.99179 15.1807 8.99301 15.0165C8.99301 14.7875 9.05801 14.6245 9.15701 14.4605L11.185 11.4505C11.381 11.1565 11.708 10.9935 12.068 10.9935C12.558 10.9935 13.049 11.3855 13.049 11.9745C13.049 12.1705 12.951 12.3995 12.853 12.5635L12.166 13.5775C13.834 13.2505 15.012 11.7775 15.012 10.0775C15.012 8.80149 14.39 7.59149 13.409 6.77349C13.147 6.61049 13.016 6.28349 13.016 5.98849C13.016 5.49849 13.409 4.97449 14.03 4.97449C14.227 4.97449 14.456 5.07249 14.62 5.20349C16.156 6.41349 17.007 8.18049 17.007 10.0775Z" fill="#1A1C1F"/>
</g>
<defs>
<clipPath id="clip0_77_530">
<rect width="20" height="20" fill="white"/>
</clipPath>
</defs>
</svg>
