<svg width="24" height="24" viewBox="0 0 24 24" fill="none" xmlns="http://www.w3.org/2000/svg">
<g clip-path="url(#clip0_77_529)">
<path fill-rule="evenodd" clip-rule="evenodd" d="M7.375 18C7.125 18 6.937 17.906 6.75 17.75C4.937 16.219 4 14 4 11.656C4 8.312 6.25 5.406 9.5 4.656L8.219 3.906C7.906 3.687 7.719 3.344 7.719 3.031C7.719 2.469 8.156 2 8.719 2C8.906 2 9.094 2.063 9.219 2.156L12.688 4.219C13 4.406 13.188 4.781 13.188 5.094C13.188 5.25 13.125 5.437 13.031 5.594L10.97 9.03C10.782 9.343 10.439 9.53 10.095 9.53C9.532 9.53 9.126 9.061 9.126 8.53C9.126 8.343 9.157 8.155 9.251 7.999L10.126 6.561C7.687 7.032 6 9.156 6 11.657C6 13.407 6.688 15.063 8.031 16.22C8.25 16.407 8.344 16.72 8.344 17.001C8.344 17.626 7.906 18 7.375 18ZM16.625 6C16.875 6 17.063 6.094 17.25 6.25C19.063 7.781 20 10 20 12.344C20 15.688 17.75 18.594 14.5 19.344L15.781 20.094C16.125 20.281 16.281 20.656 16.281 20.969C16.281 21.531 15.844 22 15.281 22C15.1022 22.0009 14.9275 21.9464 14.781 21.844L11.312 19.781C11.1636 19.687 11.0405 19.5581 10.9533 19.4056C10.8662 19.2531 10.8177 19.0816 10.812 18.906C10.812 18.75 10.875 18.563 10.969 18.406L13.031 14.969C13.219 14.656 13.562 14.469 13.906 14.469C14.469 14.469 14.875 14.938 14.875 15.469C14.875 15.656 14.844 15.844 14.75 16L13.875 17.438C16.313 16.968 18 14.844 18 12.344C18 10.594 17.312 8.938 15.969 7.781C15.75 7.594 15.656 7.281 15.656 7C15.656 6.375 16.094 6 16.625 6Z" fill="#1A1C1F"/>
</g>
<defs>
<clipPath id="clip0_77_529">
<rect width="24" height="24" fill="white"/>
</clipPath>
</defs>
</svg>
