<svg width="28" height="28" viewBox="0 0 28 28" fill="none" xmlns="http://www.w3.org/2000/svg">
<g clip-path="url(#clip0_77_528)">
<path fill-rule="evenodd" clip-rule="evenodd" d="M4.375 13.9995C4.375 9.4835 7.536 5.5885 11.94 4.6855L9.766 3.3865C9.63946 3.30811 9.5345 3.19938 9.46063 3.07015C9.38676 2.94093 9.34633 2.79531 9.343 2.6465C9.343 2.3725 9.49 1.7215 10.193 1.7215C10.359 1.7215 10.55 1.7835 10.808 1.9415L14.707 4.3185C14.939 4.4585 15.157 4.7135 15.157 5.0165C15.1554 5.18853 15.107 5.35687 15.017 5.5035L12.617 9.5405C12.5395 9.67095 12.429 9.77871 12.2966 9.85295C12.1643 9.9272 12.0147 9.96532 11.863 9.9635C11.747 9.96429 11.632 9.94206 11.5246 9.89809C11.4173 9.85413 11.3197 9.78929 11.2376 9.70735C11.1554 9.62541 11.0904 9.52799 11.0462 9.42073C11.002 9.31347 10.9795 9.19851 10.98 9.0825C10.98 8.9475 11.01 8.7745 11.093 8.6365L12.476 6.3505C8.891 7.0285 6.125 10.1605 6.125 14.0005C6.12208 15.2206 6.40417 16.4246 6.9488 17.5165C7.49342 18.6083 8.28553 19.5579 9.262 20.2895C9.37577 20.3719 9.46811 20.4803 9.53127 20.6058C9.59444 20.7313 9.62658 20.87 9.625 21.0105C9.625 21.5025 9.258 21.8745 8.75 21.8745C8.55806 21.8776 8.37055 21.8167 8.217 21.7015C7.02715 20.7999 6.06145 19.6358 5.39506 18.2999C4.72868 16.964 4.3796 15.4924 4.375 13.9995ZM12.843 22.9825C12.843 22.8345 12.882 22.6675 12.983 22.4955L15.383 18.4595C15.4605 18.329 15.571 18.2213 15.7034 18.147C15.8357 18.0728 15.9853 18.0347 16.137 18.0365C16.633 18.0365 17.02 18.4315 17.02 18.9165C17.02 19.0525 16.99 19.2255 16.907 19.3625L15.524 21.6485C19.109 20.9715 21.875 17.8385 21.875 13.9995C21.8781 12.7792 21.5961 11.575 21.0514 10.483C20.5068 9.39094 19.7146 8.44122 18.738 7.7095C18.6244 7.62721 18.5321 7.5189 18.469 7.39363C18.4058 7.26836 18.3736 7.12978 18.375 6.9895C18.375 6.4975 18.742 6.1245 19.25 6.1245C19.4421 6.12133 19.6298 6.18258 19.783 6.2985C20.9727 7.20002 21.9383 8.36393 22.6047 9.69963C23.2711 11.0353 23.6202 12.5068 23.625 13.9995C23.625 18.5155 20.464 22.4115 16.06 23.3145L18.234 24.6125C18.3605 24.6909 18.4655 24.7996 18.5394 24.9288C18.6132 25.0581 18.6537 25.2037 18.657 25.3525C18.657 25.6265 18.51 26.2785 17.807 26.2785C17.726 26.2785 17.507 26.2505 17.274 26.1085L13.294 23.6815C13.061 23.5405 12.843 23.2865 12.843 22.9825Z" fill="#1A1C1F"/>
</g>
<defs>
<clipPath id="clip0_77_528">
<rect width="28" height="28" fill="white"/>
</clipPath>
</defs>
</svg>
