<svg width="32" height="32" viewBox="0 0 32 32" fill="none" xmlns="http://www.w3.org/2000/svg">
<g clip-path="url(#clip0_77_527)">
<path fill-rule="evenodd" clip-rule="evenodd" d="M5 15.9995C5 10.8385 8.613 6.38653 13.645 5.35453L11.161 3.87053C11.0164 3.78106 10.8964 3.65693 10.8119 3.50938C10.7274 3.36183 10.681 3.19552 10.677 3.02553C10.677 2.71153 10.847 1.96753 11.649 1.96753C11.839 1.96753 12.058 2.03853 12.352 2.21853L16.808 4.93553C17.073 5.09653 17.323 5.38653 17.323 5.73353C17.323 5.90353 17.278 6.09353 17.161 6.29053L14.419 10.9025C14.3306 11.0517 14.2045 11.1749 14.0533 11.2598C13.9022 11.3448 13.7314 11.3885 13.558 11.3865C12.991 11.3865 12.548 10.9355 12.548 10.3795C12.548 10.2255 12.583 10.0275 12.678 9.87053L14.258 7.25753C10.161 8.03253 7 11.6125 7 15.9995C6.99654 17.3941 7.31885 18.7701 7.94126 20.0181C8.56367 21.266 9.46896 22.3513 10.585 23.1875C10.878 23.4075 11 23.7095 11 24.0125C11 24.5735 10.58 24.9995 10 24.9995C9.78032 25.0031 9.5657 24.9335 9.39 24.8015C8.03032 23.7711 6.92681 22.4407 6.16538 20.9141C5.40394 19.3874 5.00513 17.7056 5 15.9995ZM14.677 26.2675C14.677 26.0975 14.722 25.9075 14.839 25.7105L17.581 21.0975C17.6694 20.9484 17.7955 20.8252 17.9467 20.7402C18.0978 20.6553 18.2686 20.6116 18.442 20.6135C19.009 20.6135 19.452 21.0655 19.452 21.6205C19.452 21.7745 19.417 21.9725 19.322 22.1305L17.742 24.7425C21.839 23.9675 25 20.3875 25 15.9995C25.0035 14.605 24.6811 13.2289 24.0587 11.981C23.4363 10.733 22.531 9.64772 21.415 8.81153C21.2849 8.71742 21.1793 8.59346 21.1071 8.45008C21.0349 8.30669 20.9982 8.14806 21 7.98753C21 7.42553 21.42 6.99953 22 6.99953C22.226 6.99953 22.433 7.06453 22.61 7.19753C25.355 9.27953 27 12.5475 27 15.9995C27 21.1615 23.387 25.6125 18.355 26.6445L20.839 28.1285C21.129 28.3025 21.323 28.6445 21.323 28.9745C21.323 29.2875 21.153 30.0325 20.351 30.0325C20.258 30.0325 20.007 30.0005 19.741 29.8385L15.192 27.0645C14.927 26.9035 14.677 26.6125 14.677 26.2655V26.2675Z" fill="#1A1C1F"/>
</g>
<defs>
<clipPath id="clip0_77_527">
<rect width="32" height="32" fill="white"/>
</clipPath>
</defs>
</svg>
