<svg width="12" height="12" viewBox="0 0 12 12" fill="none" xmlns="http://www.w3.org/2000/svg">
<g clip-path="url(#clip0_231_56)">
<path fill-rule="evenodd" clip-rule="evenodd" d="M1.7957 5.95371C1.7957 4.344 2.83627 3.108 4.44513 2.676L3.85627 2.30314C3.7757 2.2406 3.71077 2.1602 3.66659 2.06827C3.62241 1.97634 3.6002 1.87541 3.6017 1.77343C3.6017 1.43914 3.85627 1.18457 4.1897 1.18457C4.3078 1.18704 4.42315 1.22075 4.52399 1.28228L6.32913 2.49943C6.46627 2.57828 6.60341 2.75486 6.60341 2.99057C6.60112 3.10843 6.56739 3.22354 6.5057 3.324L5.28856 5.12914C5.23015 5.21522 5.15121 5.28537 5.05887 5.33326C4.96653 5.38116 4.8637 5.40527 4.7597 5.40343C4.68348 5.40288 4.60813 5.38716 4.53804 5.3572C4.46795 5.32723 4.40453 5.28361 4.35148 5.22888C4.29842 5.17415 4.25679 5.1094 4.22902 5.03842C4.20124 4.96743 4.18788 4.89163 4.1897 4.81543C4.18946 4.69089 4.22356 4.56869 4.28827 4.46228L4.6997 3.85371C4.21561 3.95106 3.78052 4.2139 3.46911 4.5971C3.1577 4.98029 2.98941 5.45995 2.99313 5.95371C2.99313 6.71914 3.36599 7.44514 3.95484 7.91657C4.03008 7.9738 4.09062 8.04811 4.13146 8.13336C4.1723 8.21861 4.19226 8.31236 4.1897 8.40686C4.18947 8.56281 4.12748 8.71233 4.01728 8.82269C3.90708 8.93305 3.75766 8.99526 3.6017 8.99571C3.46784 8.99896 3.33669 8.95766 3.22884 8.87829C2.32541 8.15143 1.7957 7.092 1.7957 5.95371ZM10.2043 6.04628C10.2043 7.656 9.1637 8.892 7.55484 9.324L8.1437 9.69686C8.32027 9.834 8.41799 10.0311 8.41799 10.2266C8.41799 10.5609 8.1437 10.8154 7.80941 10.8154C7.69155 10.8131 7.57644 10.7794 7.47599 10.7177L5.67084 9.50057C5.58633 9.44959 5.51653 9.37751 5.46829 9.2914C5.42006 9.20529 5.39504 9.10812 5.3957 9.00943C5.39518 8.89115 5.42913 8.77529 5.49341 8.676L6.71056 6.87086C6.76904 6.78466 6.84812 6.71442 6.94063 6.66653C7.03313 6.61863 7.13612 6.59458 7.24027 6.59657C7.53513 6.59657 7.82913 6.83143 7.82913 7.18457C7.81999 7.31022 7.77962 7.43161 7.7117 7.53771L7.29941 8.14629C7.78366 8.04911 8.21895 7.78635 8.53053 7.40314C8.84211 7.01992 9.01052 6.54017 9.00684 6.04628C9.00684 5.28086 8.63399 4.55486 8.04513 4.06371C7.88827 3.966 7.80941 3.76971 7.80941 3.59228C7.80941 3.29828 8.04513 2.98457 8.41799 2.98457C8.53627 2.98457 8.67341 3.04371 8.77113 3.12171C9.21784 3.46705 9.57935 3.9103 9.82781 4.41733C10.0763 4.92436 10.2051 5.48165 10.2043 6.04628Z" fill="#1A1C1F"/>
</g>
<defs>
<clipPath id="clip0_231_56">
<rect width="12" height="12" fill="white"/>
</clipPath>
</defs>
</svg>
