<svg width="12" height="12" viewBox="0 0 12 12" fill="none" xmlns="http://www.w3.org/2000/svg">
<g clip-path="url(#clip0_231_59)">
<path fill-rule="evenodd" clip-rule="evenodd" d="M4.97571 7.9753L4.2 8.75101V4.19958C4.2 4.04046 4.13678 3.88784 4.02426 3.77532C3.91174 3.6628 3.75913 3.59958 3.6 3.59958C3.44087 3.59958 3.28825 3.6628 3.17573 3.77532C3.06321 3.88784 3 4.04046 3 4.19958V8.75101L2.22428 7.9753C2.11176 7.86277 1.95913 7.79955 1.8 7.79955C1.64086 7.79955 1.48824 7.86277 1.37571 7.9753C1.26318 8.08783 1.19997 8.24045 1.19997 8.39959C1.19997 8.55872 1.26318 8.71134 1.37571 8.82387L3.17571 10.6239C3.23131 10.6798 3.29742 10.7242 3.37024 10.7545C3.44305 10.7848 3.52113 10.8003 3.6 10.8003C3.67886 10.8003 3.75694 10.7848 3.82976 10.7545C3.90257 10.7242 3.96868 10.6798 4.02428 10.6239L5.82428 8.82387C5.88 8.76815 5.9242 8.70201 5.95435 8.62921C5.98451 8.55641 6.00003 8.47838 6.00003 8.39959C6.00003 8.32079 5.98451 8.24276 5.95435 8.16996C5.9242 8.09716 5.88 8.03102 5.82428 7.9753C5.76856 7.91958 5.70242 7.87538 5.62962 7.84523C5.55682 7.81507 5.47879 7.79955 5.4 7.79955C5.3212 7.79955 5.24317 7.81507 5.17038 7.84523C5.09758 7.87538 5.03143 7.91958 4.97571 7.9753ZM10.2 2.39959H5.4C5.24087 2.39959 5.08825 2.33637 4.97573 2.22385C4.86321 2.11133 4.8 1.95871 4.8 1.79958C4.8 1.64046 4.86321 1.48784 4.97573 1.37532C5.08825 1.2628 5.24087 1.19958 5.4 1.19958H10.2C10.3591 1.19958 10.5117 1.2628 10.6243 1.37532C10.7368 1.48784 10.8 1.64046 10.8 1.79958C10.8 1.95871 10.7368 2.11133 10.6243 2.22385C10.5117 2.33637 10.3591 2.39959 10.2 2.39959ZM10.2 4.79958H7.2C7.04087 4.79958 6.88826 4.73637 6.77573 4.62385C6.66321 4.51133 6.6 4.35871 6.6 4.19958C6.6 4.04046 6.66321 3.88784 6.77573 3.77532C6.88826 3.6628 7.04087 3.59958 7.2 3.59958H10.2C10.3591 3.59958 10.5117 3.6628 10.6243 3.77532C10.7368 3.88784 10.8 4.04046 10.8 4.19958C10.8 4.35871 10.7368 4.51133 10.6243 4.62385C10.5117 4.73637 10.3591 4.79958 10.2 4.79958ZM10.2 7.19958H9C8.84087 7.19958 8.68825 7.13637 8.57573 7.02385C8.46321 6.91133 8.4 6.75871 8.4 6.59958C8.4 6.44045 8.46321 6.28784 8.57573 6.17532C8.68825 6.0628 8.84087 5.99959 9 5.99959H10.2C10.3591 5.99959 10.5117 6.0628 10.6243 6.17532C10.7368 6.28784 10.8 6.44045 10.8 6.59958C10.8 6.75871 10.7368 6.91133 10.6243 7.02385C10.5117 7.13637 10.3591 7.19958 10.2 7.19958Z" fill="#1A1C1F"/>
</g>
<defs>
<clipPath id="clip0_231_59">
<rect width="12" height="12" fill="white"/>
</clipPath>
</defs>
</svg>
