<svg width="14" height="14" viewBox="0 0 14 14" fill="none" xmlns="http://www.w3.org/2000/svg">
<g clip-path="url(#clip0_77_546)">
<path fill-rule="evenodd" clip-rule="evenodd" d="M5.80501 7.49542L4.90001 6.59042V11.9004C4.90001 12.0861 4.82626 12.2641 4.69499 12.3954C4.56371 12.5267 4.38567 12.6004 4.20001 12.6004C4.01436 12.6004 3.83631 12.5267 3.70504 12.3954C3.57376 12.2641 3.50001 12.0861 3.50001 11.9004V6.59042L2.59501 7.49542C2.46373 7.6267 2.28568 7.70046 2.10001 7.70046C1.91435 7.70046 1.7363 7.6267 1.60501 7.49542C1.47373 7.36414 1.39998 7.18608 1.39998 7.00042C1.39998 6.81476 1.47373 6.6367 1.60501 6.50542L3.70501 4.40542C3.76988 4.34017 3.84701 4.28839 3.93196 4.25306C4.01691 4.21773 4.10801 4.19954 4.20001 4.19954C4.29202 4.19954 4.38312 4.21773 4.46807 4.25306C4.55302 4.28839 4.63015 4.34017 4.69501 4.40542L6.79501 6.50542C6.86002 6.57042 6.91158 6.64759 6.94676 6.73253C6.98194 6.81746 7.00005 6.90849 7.00005 7.00042C7.00005 7.09235 6.98194 7.18338 6.94676 7.26831C6.91158 7.35324 6.86002 7.43042 6.79501 7.49542C6.73001 7.56042 6.65284 7.61199 6.56791 7.64717C6.48297 7.68235 6.39194 7.70046 6.30001 7.70046C6.20808 7.70046 6.11705 7.68235 6.03212 7.64717C5.94719 7.61199 5.87002 7.56042 5.80501 7.49542ZM11.9 2.79954H6.30001C6.11436 2.79954 5.93632 2.72579 5.80504 2.59451C5.67376 2.46324 5.60001 2.28519 5.60001 2.09954C5.60001 1.91388 5.67376 1.73584 5.80504 1.60456C5.93632 1.47329 6.11436 1.39954 6.30001 1.39954H11.9C12.0857 1.39954 12.2637 1.47329 12.395 1.60456C12.5263 1.73584 12.6 1.91388 12.6 2.09954C12.6 2.28519 12.5263 2.46324 12.395 2.59451C12.2637 2.72579 12.0857 2.79954 11.9 2.79954ZM11.9 5.59954H8.40001C8.21436 5.59954 8.03632 5.52579 7.90504 5.39451C7.77376 5.26324 7.70001 5.08519 7.70001 4.89954C7.70001 4.71388 7.77376 4.53584 7.90504 4.40456C8.03632 4.27329 8.21436 4.19954 8.40001 4.19954H11.9C12.0857 4.19954 12.2637 4.27329 12.395 4.40456C12.5263 4.53584 12.6 4.71388 12.6 4.89954C12.6 5.08519 12.5263 5.26324 12.395 5.39451C12.2637 5.52579 12.0857 5.59954 11.9 5.59954ZM11.9 8.39954H10.5C10.3144 8.39954 10.1363 8.32579 10.005 8.19451C9.87376 8.06324 9.80001 7.88519 9.80001 7.69954C9.80001 7.51388 9.87376 7.33584 10.005 7.20456C10.1363 7.07329 10.3144 6.99954 10.5 6.99954H11.9C12.0857 6.99954 12.2637 7.07329 12.395 7.20456C12.5263 7.33584 12.6 7.51388 12.6 7.69954C12.6 7.88519 12.5263 8.06324 12.395 8.19451C12.2637 8.32579 12.0857 8.39954 11.9 8.39954Z" fill="#1A1C1F"/>
</g>
<defs>
<clipPath id="clip0_77_546">
<rect width="14" height="14" fill="white" transform="matrix(1 0 0 -1 0 14)"/>
</clipPath>
</defs>
</svg>
