<svg width="28" height="28" viewBox="0 0 28 28" fill="none" xmlns="http://www.w3.org/2000/svg">
<g clip-path="url(#clip0_77_535)">
<path fill-rule="evenodd" clip-rule="evenodd" d="M13.7438 19.5056C13.6626 19.4243 13.5662 19.3598 13.46 19.3158C13.3539 19.2717 13.2402 19.2491 13.1253 19.2491C13.0104 19.2491 12.8966 19.2717 12.7905 19.3158C12.6843 19.3598 12.5879 19.4243 12.5068 19.5056L8.74976 23.2626V6.99957C8.74976 6.76751 8.65757 6.54495 8.49348 6.38085C8.32938 6.21676 8.10682 6.12457 7.87476 6.12457C7.64269 6.12457 7.42013 6.21676 7.25604 6.38085C7.09195 6.54495 6.99976 6.76751 6.99976 6.99957V23.2626L3.24376 19.5056C3.16247 19.4244 3.06598 19.3599 2.9598 19.316C2.85361 19.2721 2.73982 19.2495 2.6249 19.2495C2.50999 19.2496 2.39621 19.2723 2.29007 19.3163C2.18392 19.3603 2.08748 19.4248 2.00626 19.5061C1.92504 19.5874 1.86062 19.6838 1.81669 19.79C1.77275 19.8962 1.75017 20.01 1.75021 20.1249C1.75026 20.2398 1.77294 20.3536 1.81696 20.4598C1.86098 20.5659 1.92547 20.6623 2.00676 20.7436L7.25676 25.9936C7.33787 26.075 7.43426 26.1396 7.54039 26.1837C7.64653 26.2278 7.76033 26.2505 7.87526 26.2505C7.99019 26.2505 8.10398 26.2278 8.21012 26.1837C8.31626 26.1396 8.41265 26.075 8.49376 25.9936L13.7438 20.7436C13.8252 20.6624 13.8898 20.5659 13.9339 20.4597C13.978 20.3535 14.0007 20.2396 14.0007 20.1246C14.0007 20.0096 13.978 19.8957 13.9339 19.7895C13.8898 19.6832 13.8252 19.5868 13.7438 19.5056ZM25.3748 3.49957H11.3748C11.1427 3.49957 10.9201 3.40739 10.756 3.24329C10.5919 3.0792 10.4998 2.85664 10.4998 2.62457C10.4998 2.39251 10.5919 2.16995 10.756 2.00585C10.9201 1.84176 11.1427 1.74957 11.3748 1.74957H25.3748C25.6068 1.74957 25.8294 1.84176 25.9935 2.00585C26.1576 2.16995 26.2498 2.39251 26.2498 2.62457C26.2498 2.85664 26.1576 3.0792 25.9935 3.24329C25.8294 3.40739 25.6068 3.49957 25.3748 3.49957ZM25.3748 7.87457H15.7498C15.5177 7.87457 15.2951 7.78239 15.131 7.61829C14.9669 7.4542 14.8748 7.23164 14.8748 6.99957C14.8748 6.76751 14.9669 6.54495 15.131 6.38085C15.2951 6.21676 15.5177 6.12457 15.7498 6.12457H25.3748C25.6068 6.12457 25.8294 6.21676 25.9935 6.38085C26.1576 6.54495 26.2498 6.76751 26.2498 6.99957C26.2498 7.23164 26.1576 7.4542 25.9935 7.61829C25.8294 7.78239 25.6068 7.87457 25.3748 7.87457ZM25.3748 12.2496H20.1248C19.8927 12.2496 19.6701 12.1574 19.506 11.9933C19.3419 11.8292 19.2498 11.6066 19.2498 11.3746C19.2498 11.1425 19.3419 10.9199 19.506 10.7559C19.6701 10.5918 19.8927 10.4996 20.1248 10.4996H25.3748C25.6068 10.4996 25.8294 10.5918 25.9935 10.7559C26.1576 10.9199 26.2498 11.1425 26.2498 11.3746C26.2498 11.6066 26.1576 11.8292 25.9935 11.9933C25.8294 12.1574 25.6068 12.2496 25.3748 12.2496ZM25.3748 16.6246H23.6248C23.3927 16.6246 23.1701 16.5324 23.006 16.3683C22.8419 16.2042 22.7498 15.9816 22.7498 15.7496C22.7498 15.5175 22.8419 15.2949 23.006 15.1309C23.1701 14.9668 23.3927 14.8746 23.6248 14.8746H25.3748C25.6068 14.8746 25.8294 14.9668 25.9935 15.1309C26.1576 15.2949 26.2498 15.5175 26.2498 15.7496C26.2498 15.9816 26.1576 16.2042 25.9935 16.3683C25.8294 16.5324 25.6068 16.6246 25.3748 16.6246Z" fill="#1A1C1F"/>
</g>
<defs>
<clipPath id="clip0_77_535">
<rect width="28" height="28" fill="white"/>
</clipPath>
</defs>
</svg>
