<svg width="16" height="16" viewBox="0 0 16 16" fill="none" xmlns="http://www.w3.org/2000/svg">
<g clip-path="url(#clip0_77_537)">
<path fill-rule="evenodd" clip-rule="evenodd" d="M6.63481 10.6338L5.59981 11.6698V5.59979C5.59981 5.38762 5.51553 5.18414 5.3655 5.03411C5.21547 4.88408 5.01198 4.79979 4.79981 4.79979C4.58764 4.79979 4.38415 4.88408 4.23413 5.03411C4.0841 5.18414 3.99981 5.38762 3.99981 5.59979V11.6688L2.96581 10.6338C2.89148 10.5595 2.80326 10.5006 2.70617 10.4605C2.60908 10.4203 2.50503 10.3997 2.39996 10.3997C2.29489 10.3997 2.19086 10.4205 2.0938 10.4607C1.99675 10.501 1.90857 10.56 1.83431 10.6343C1.76005 10.7086 1.70115 10.7968 1.66099 10.8939C1.62082 10.991 1.60017 11.0951 1.60022 11.2001C1.60027 11.3052 1.62101 11.4092 1.66126 11.5063C1.70151 11.6034 1.76048 11.6915 1.83481 11.7658L4.23481 14.1658C4.30894 14.2401 4.397 14.2991 4.49395 14.3393C4.59091 14.3795 4.69484 14.4003 4.79981 14.4003C4.90478 14.4003 5.00872 14.3795 5.10567 14.3393C5.20262 14.2991 5.29068 14.2401 5.36481 14.1658L7.76481 11.7658C7.84229 11.6923 7.90427 11.6041 7.94711 11.5063C7.98994 11.4084 8.01276 11.303 8.01422 11.1963C8.01568 11.0895 7.99575 10.9835 7.95561 10.8846C7.91547 10.7856 7.85592 10.6957 7.78048 10.6201C7.70504 10.5446 7.61524 10.4849 7.51637 10.4446C7.41749 10.4042 7.31154 10.3841 7.20477 10.3854C7.098 10.3867 6.99256 10.4093 6.89467 10.452C6.79678 10.4946 6.70843 10.5564 6.63481 10.6338ZM13.5998 3.19979H7.19981C6.98764 3.19979 6.78415 3.11551 6.63413 2.96548C6.4841 2.81545 6.39981 2.61197 6.39981 2.39979C6.39981 2.18762 6.4841 1.98414 6.63413 1.83411C6.78415 1.68408 6.98764 1.59979 7.19981 1.59979H13.5998C13.812 1.59979 14.0155 1.68408 14.1655 1.83411C14.3155 1.98414 14.3998 2.18762 14.3998 2.39979C14.3998 2.61197 14.3155 2.81545 14.1655 2.96548C14.0155 3.11551 13.812 3.19979 13.5998 3.19979ZM13.5998 6.39979H9.59981C9.49475 6.39979 9.39072 6.3791 9.29366 6.3389C9.1966 6.29869 9.10841 6.23977 9.03413 6.16548C8.95984 6.09119 8.90091 6.003 8.86071 5.90594C8.8205 5.80888 8.79981 5.70485 8.79981 5.59979C8.79981 5.49474 8.8205 5.39071 8.86071 5.29365C8.90091 5.19659 8.95984 5.10839 9.03413 5.03411C9.10841 4.95982 9.1966 4.90089 9.29366 4.86069C9.39072 4.82049 9.49475 4.79979 9.59981 4.79979H13.5998C13.7049 4.79979 13.8089 4.82049 13.906 4.86069C14.003 4.90089 14.0912 4.95982 14.1655 5.03411C14.2398 5.10839 14.2987 5.19659 14.3389 5.29365C14.3791 5.39071 14.3998 5.49474 14.3998 5.59979C14.3998 5.70485 14.3791 5.80888 14.3389 5.90594C14.2987 6.003 14.2398 6.09119 14.1655 6.16548C14.0912 6.23977 14.003 6.29869 13.906 6.3389C13.8089 6.3791 13.7049 6.39979 13.5998 6.39979ZM13.5998 9.59979H11.9998C11.7876 9.59979 11.5842 9.51551 11.4341 9.36548C11.2841 9.21545 11.1998 9.01197 11.1998 8.79979C11.1998 8.58762 11.2841 8.38414 11.4341 8.23411C11.5842 8.08408 11.7876 7.99979 11.9998 7.99979H13.5998C13.812 7.99979 14.0155 8.08408 14.1655 8.23411C14.3155 8.38414 14.3998 8.58762 14.3998 8.79979C14.3998 9.01197 14.3155 9.21545 14.1655 9.36548C14.0155 9.51551 13.812 9.59979 13.5998 9.59979Z" fill="#1A1C1F"/>
</g>
<defs>
<clipPath id="clip0_77_537">
<rect width="16" height="16" fill="white"/>
</clipPath>
</defs>
</svg>
