<svg width="32" height="32" viewBox="0 0 32 32" fill="none" xmlns="http://www.w3.org/2000/svg">
<g clip-path="url(#clip0_77_534)">
<path fill-rule="evenodd" clip-rule="evenodd" d="M15.707 22.2925C15.6142 22.1996 15.504 22.1258 15.3827 22.0755C15.2614 22.0252 15.1314 21.9993 15 21.9993C14.8687 21.9993 14.7387 22.0252 14.6173 22.0755C14.496 22.1258 14.3858 22.1996 14.293 22.2925L10 26.5855V7.99951C10 7.7343 9.89468 7.47994 9.70714 7.29241C9.5196 7.10487 9.26525 6.99951 9.00003 6.99951C8.73482 6.99951 8.48046 7.10487 8.29293 7.29241C8.10539 7.47994 8.00003 7.7343 8.00003 7.99951V26.5855L3.70703 22.2925C3.51952 22.105 3.26521 21.9997 3.00003 21.9997C2.73486 21.9997 2.48054 22.105 2.29303 22.2925C2.10552 22.48 2.00018 22.7343 2.00018 22.9995C2.00018 23.2647 2.10552 23.519 2.29303 23.7065L8.29303 29.7065C8.38569 29.7997 8.49585 29.8736 8.61718 29.9241C8.73851 29.9746 8.86862 30.0005 9.00003 30.0005C9.13144 30.0005 9.26155 29.9746 9.38288 29.9241C9.50422 29.8736 9.61438 29.7997 9.70703 29.7065L15.707 23.7065C15.8 23.6137 15.8737 23.5035 15.924 23.3822C15.9743 23.2609 16.0002 23.1308 16.0002 22.9995C16.0002 22.8682 15.9743 22.7381 15.924 22.6168C15.8737 22.4955 15.8 22.3853 15.707 22.2925ZM29 3.99951H13C12.7348 3.99951 12.4805 3.89415 12.2929 3.70662C12.1054 3.51908 12 3.26473 12 2.99951C12 2.7343 12.1054 2.47994 12.2929 2.2924C12.4805 2.10487 12.7348 1.99951 13 1.99951H29C29.2652 1.99951 29.5196 2.10487 29.7071 2.2924C29.8947 2.47994 30 2.7343 30 2.99951C30 3.26473 29.8947 3.51908 29.7071 3.70662C29.5196 3.89415 29.2652 3.99951 29 3.99951ZM29 8.99951H18C17.7348 8.99951 17.4805 8.89415 17.2929 8.70662C17.1054 8.51908 17 8.26473 17 7.99951C17 7.7343 17.1054 7.47994 17.2929 7.29241C17.4805 7.10487 17.7348 6.99951 18 6.99951H29C29.2652 6.99951 29.5196 7.10487 29.7071 7.29241C29.8947 7.47994 30 7.7343 30 7.99951C30 8.26473 29.8947 8.51908 29.7071 8.70662C29.5196 8.89415 29.2652 8.99951 29 8.99951ZM29 13.9995H23C22.7348 13.9995 22.4805 13.8942 22.2929 13.7066C22.1054 13.5191 22 13.2647 22 12.9995C22 12.7343 22.1054 12.4799 22.2929 12.2924C22.4805 12.1049 22.7348 11.9995 23 11.9995H29C29.2652 11.9995 29.5196 12.1049 29.7071 12.2924C29.8947 12.4799 30 12.7343 30 12.9995C30 13.2647 29.8947 13.5191 29.7071 13.7066C29.5196 13.8942 29.2652 13.9995 29 13.9995ZM29 18.9995H27C26.7348 18.9995 26.4805 18.8942 26.2929 18.7066C26.1054 18.5191 26 18.2647 26 17.9995C26 17.7343 26.1054 17.4799 26.2929 17.2924C26.4805 17.1049 26.7348 16.9995 27 16.9995H29C29.2652 16.9995 29.5196 17.1049 29.7071 17.2924C29.8947 17.4799 30 17.7343 30 17.9995C30 18.2647 29.8947 18.5191 29.7071 18.7066C29.5196 18.8942 29.2652 18.9995 29 18.9995Z" fill="#1A1C1F"/>
</g>
<defs>
<clipPath id="clip0_77_534">
<rect width="32" height="32" fill="white"/>
</clipPath>
</defs>
</svg>
