<svg width="20" height="20" viewBox="0 0 20 20" fill="none" xmlns="http://www.w3.org/2000/svg">
<g clip-path="url(#clip0_77_538)">
<path fill-rule="evenodd" clip-rule="evenodd" d="M8.29306 13.2925L7.00006 14.5855V6.99951C7.00006 6.7343 6.89471 6.47994 6.70717 6.29241C6.51963 6.10487 6.26528 5.99951 6.00006 5.99951C5.73485 5.99951 5.48049 6.10487 5.29296 6.29241C5.10542 6.47994 5.00006 6.7343 5.00006 6.99951V14.5855L3.70706 13.2925C3.51955 13.105 3.26524 12.9997 3.00006 12.9997C2.73489 12.9997 2.48057 13.105 2.29306 13.2925C2.10555 13.48 2.00021 13.7343 2.00021 13.9995C2.00021 14.2647 2.10555 14.519 2.29306 14.7065L5.29306 17.7065C5.38572 17.7997 5.49588 17.8736 5.61721 17.9241C5.73854 17.9746 5.86865 18.0005 6.00006 18.0005C6.13147 18.0005 6.26158 17.9746 6.38292 17.9241C6.50425 17.8736 6.61441 17.7997 6.70706 17.7065L9.70706 14.7065C9.89457 14.519 9.99991 14.2647 9.99991 13.9995C9.99991 13.7343 9.89457 13.48 9.70706 13.2925C9.51955 13.105 9.26524 12.9997 9.00006 12.9997C8.73489 12.9997 8.48057 13.105 8.29306 13.2925ZM17.0001 3.99951H9.00006C8.73485 3.99951 8.48049 3.89415 8.29296 3.70662C8.10542 3.51908 8.00006 3.26473 8.00006 2.99951C8.00006 2.7343 8.10542 2.47994 8.29296 2.2924C8.48049 2.10487 8.73485 1.99951 9.00006 1.99951H17.0001C17.2653 1.99951 17.5196 2.10487 17.7072 2.2924C17.8947 2.47994 18.0001 2.7343 18.0001 2.99951C18.0001 3.26473 17.8947 3.51908 17.7072 3.70662C17.5196 3.89415 17.2653 3.99951 17.0001 3.99951ZM17.0001 7.99951H12.0001C11.7348 7.99951 11.4805 7.89415 11.293 7.70662C11.1054 7.51908 11.0001 7.26473 11.0001 6.99951C11.0001 6.7343 11.1054 6.47994 11.293 6.29241C11.4805 6.10487 11.7348 5.99951 12.0001 5.99951H17.0001C17.2653 5.99951 17.5196 6.10487 17.7072 6.29241C17.8947 6.47994 18.0001 6.7343 18.0001 6.99951C18.0001 7.26473 17.8947 7.51908 17.7072 7.70662C17.5196 7.89415 17.2653 7.99951 17.0001 7.99951ZM17.0001 11.9995H15.0001C14.7348 11.9995 14.4805 11.8942 14.293 11.7066C14.1054 11.5191 14.0001 11.2647 14.0001 10.9995C14.0001 10.7343 14.1054 10.4799 14.293 10.2924C14.4805 10.1049 14.7348 9.99951 15.0001 9.99951H17.0001C17.2653 9.99951 17.5196 10.1049 17.7072 10.2924C17.8947 10.4799 18.0001 10.7343 18.0001 10.9995C18.0001 11.2647 17.8947 11.5191 17.7072 11.7066C17.5196 11.8942 17.2653 11.9995 17.0001 11.9995Z" fill="#1A1C1F"/>
</g>
<defs>
<clipPath id="clip0_77_538">
<rect width="20" height="20" fill="white"/>
</clipPath>
</defs>
</svg>
