<svg width="20" height="20" viewBox="0 0 20 20" fill="none" xmlns="http://www.w3.org/2000/svg">
<g clip-path="url(#clip0_77_543)">
<path fill-rule="evenodd" clip-rule="evenodd" d="M8.29306 10.7075L7.00006 9.41455V17.0005C7.00006 17.2658 6.89471 17.5201 6.70717 17.7077C6.51963 17.8952 6.26528 18.0005 6.00006 18.0005C5.73485 18.0005 5.48049 17.8952 5.29296 17.7077C5.10542 17.5201 5.00006 17.2658 5.00006 17.0005V9.41455L3.70706 10.7075C3.51955 10.8951 3.26524 11.0004 3.00006 11.0004C2.73489 11.0004 2.48057 10.8951 2.29306 10.7075C2.10555 10.52 2.00021 10.2657 2.00021 10.0005C2.00021 9.73537 2.10555 9.48106 2.29306 9.29355L5.29306 6.29355C5.38572 6.20036 5.49588 6.12641 5.61721 6.07595C5.73854 6.02549 5.86865 5.99951 6.00006 5.99951C6.13147 5.99951 6.26158 6.02549 6.38292 6.07595C6.50425 6.12641 6.61441 6.20036 6.70706 6.29355L9.70706 9.29355C9.89457 9.48106 9.99991 9.73537 9.99991 10.0005C9.99991 10.2657 9.89457 10.52 9.70706 10.7075C9.51955 10.8951 9.26524 11.0004 9.00006 11.0004C8.73489 11.0004 8.48057 10.8951 8.29306 10.7075ZM17.0001 3.99951H9.00006C8.73485 3.99951 8.48049 3.89415 8.29296 3.70662C8.10542 3.51908 8.00006 3.26473 8.00006 2.99951C8.00006 2.7343 8.10542 2.47994 8.29296 2.2924C8.48049 2.10487 8.73485 1.99951 9.00006 1.99951H17.0001C17.2653 1.99951 17.5196 2.10487 17.7072 2.2924C17.8947 2.47994 18.0001 2.7343 18.0001 2.99951C18.0001 3.26473 17.8947 3.51908 17.7072 3.70662C17.5196 3.89415 17.2653 3.99951 17.0001 3.99951ZM17.0001 7.99951H12.0001C11.7348 7.99951 11.4805 7.89415 11.293 7.70662C11.1054 7.51908 11.0001 7.26473 11.0001 6.99951C11.0001 6.7343 11.1054 6.47994 11.293 6.29241C11.4805 6.10487 11.7348 5.99951 12.0001 5.99951H17.0001C17.2653 5.99951 17.5196 6.10487 17.7072 6.29241C17.8947 6.47994 18.0001 6.7343 18.0001 6.99951C18.0001 7.26473 17.8947 7.51908 17.7072 7.70662C17.5196 7.89415 17.2653 7.99951 17.0001 7.99951ZM17.0001 11.9995H15.0001C14.7348 11.9995 14.4805 11.8942 14.293 11.7066C14.1054 11.5191 14.0001 11.2647 14.0001 10.9995C14.0001 10.7343 14.1054 10.4799 14.293 10.2924C14.4805 10.1049 14.7348 9.99951 15.0001 9.99951H17.0001C17.2653 9.99951 17.5196 10.1049 17.7072 10.2924C17.8947 10.4799 18.0001 10.7343 18.0001 10.9995C18.0001 11.2647 17.8947 11.5191 17.7072 11.7066C17.5196 11.8942 17.2653 11.9995 17.0001 11.9995Z" fill="#1A1C1F"/>
</g>
<defs>
<clipPath id="clip0_77_543">
<rect width="20" height="20" fill="white" transform="matrix(1 0 0 -1 0 20)"/>
</clipPath>
</defs>
</svg>
