<svg width="28" height="28" viewBox="0 0 28 28" fill="none" xmlns="http://www.w3.org/2000/svg">
<g clip-path="url(#clip0_77_544)">
<path fill-rule="evenodd" clip-rule="evenodd" d="M13.7438 12.8695C13.6626 12.9508 13.5662 13.0153 13.46 13.0593C13.3539 13.1033 13.2402 13.1259 13.1253 13.1259C13.0104 13.1259 12.8966 13.1033 12.7905 13.0593C12.6843 13.0153 12.5879 12.9508 12.5068 12.8695L8.74976 9.11247V25.3755C8.74976 25.6075 8.65757 25.8301 8.49348 25.9942C8.32938 26.1583 8.10682 26.2505 7.87476 26.2505C7.64269 26.2505 7.42013 26.1583 7.25604 25.9942C7.09195 25.8301 6.99976 25.6075 6.99976 25.3755V9.11247L3.24376 12.8695C3.16247 12.9507 3.06598 13.0151 2.9598 13.059C2.85361 13.103 2.73982 13.1256 2.6249 13.1255C2.50999 13.1255 2.39621 13.1028 2.29007 13.0588C2.18392 13.0147 2.08748 12.9503 2.00626 12.869C1.92504 12.7877 1.86062 12.6912 1.81669 12.585C1.77275 12.4788 1.75017 12.365 1.75021 12.2501C1.75026 12.1352 1.77294 12.0214 1.81696 11.9153C1.86098 11.8091 1.92547 11.7127 2.00676 11.6315L7.25676 6.38147C7.33787 6.30004 7.43426 6.23544 7.54039 6.19135C7.64653 6.14727 7.76033 6.12457 7.87526 6.12457C7.99019 6.12457 8.10398 6.14727 8.21012 6.19135C8.31626 6.23544 8.41265 6.30004 8.49376 6.38147L13.7438 11.6315C13.8252 11.7127 13.8898 11.8091 13.9339 11.9154C13.978 12.0216 14.0007 12.1355 14.0007 12.2505C14.0007 12.3655 13.978 12.4794 13.9339 12.5856C13.8898 12.6918 13.8252 12.7883 13.7438 12.8695ZM25.3748 3.49957H11.3748C11.1427 3.49957 10.9201 3.40739 10.756 3.24329C10.5919 3.0792 10.4998 2.85664 10.4998 2.62457C10.4998 2.39251 10.5919 2.16995 10.756 2.00585C10.9201 1.84176 11.1427 1.74957 11.3748 1.74957H25.3748C25.6068 1.74957 25.8294 1.84176 25.9935 2.00585C26.1576 2.16995 26.2498 2.39251 26.2498 2.62457C26.2498 2.85664 26.1576 3.0792 25.9935 3.24329C25.8294 3.40739 25.6068 3.49957 25.3748 3.49957ZM25.3748 7.87457H15.7498C15.5177 7.87457 15.2951 7.78239 15.131 7.61829C14.9669 7.4542 14.8748 7.23164 14.8748 6.99957C14.8748 6.76751 14.9669 6.54495 15.131 6.38085C15.2951 6.21676 15.5177 6.12457 15.7498 6.12457H25.3748C25.6068 6.12457 25.8294 6.21676 25.9935 6.38085C26.1576 6.54495 26.2498 6.76751 26.2498 6.99957C26.2498 7.23164 26.1576 7.4542 25.9935 7.61829C25.8294 7.78239 25.6068 7.87457 25.3748 7.87457ZM25.3748 12.2496H20.1248C19.8927 12.2496 19.6701 12.1574 19.506 11.9933C19.3419 11.8292 19.2498 11.6066 19.2498 11.3746C19.2498 11.1425 19.3419 10.9199 19.506 10.7559C19.6701 10.5918 19.8927 10.4996 20.1248 10.4996H25.3748C25.6068 10.4996 25.8294 10.5918 25.9935 10.7559C26.1576 10.9199 26.2498 11.1425 26.2498 11.3746C26.2498 11.6066 26.1576 11.8292 25.9935 11.9933C25.8294 12.1574 25.6068 12.2496 25.3748 12.2496ZM25.3748 16.6246H23.6248C23.3927 16.6246 23.1701 16.5324 23.006 16.3683C22.8419 16.2042 22.7498 15.9816 22.7498 15.7496C22.7498 15.5175 22.8419 15.2949 23.006 15.1309C23.1701 14.9668 23.3927 14.8746 23.6248 14.8746H25.3748C25.6068 14.8746 25.8294 14.9668 25.9935 15.1309C26.1576 15.2949 26.2498 15.5175 26.2498 15.7496C26.2498 15.9816 26.1576 16.2042 25.9935 16.3683C25.8294 16.5324 25.6068 16.6246 25.3748 16.6246Z" fill="#1A1C1F"/>
</g>
<defs>
<clipPath id="clip0_77_544">
<rect width="28" height="28" fill="white" transform="matrix(1 0 0 -1 0 28)"/>
</clipPath>
</defs>
</svg>
