<svg width="32" height="32" viewBox="0 0 32 32" fill="none" xmlns="http://www.w3.org/2000/svg">
<g clip-path="url(#clip0_77_541)">
<path fill-rule="evenodd" clip-rule="evenodd" d="M15.707 14.7075C15.6142 14.8005 15.504 14.8742 15.3827 14.9245C15.2614 14.9749 15.1314 15.0007 15 15.0007C14.8687 15.0007 14.7387 14.9749 14.6173 14.9245C14.496 14.8742 14.3858 14.8005 14.293 14.7075L10 10.4145V29.0005C10 29.2658 9.89468 29.5201 9.70714 29.7077C9.5196 29.8952 9.26525 30.0005 9.00003 30.0005C8.73482 30.0005 8.48046 29.8952 8.29293 29.7077C8.10539 29.5201 8.00003 29.2658 8.00003 29.0005V10.4145L3.70703 14.7075C3.51952 14.8951 3.26521 15.0004 3.00003 15.0004C2.73486 15.0004 2.48054 14.8951 2.29303 14.7075C2.10552 14.52 2.00018 14.2657 2.00018 14.0005C2.00018 13.7354 2.10552 13.4811 2.29303 13.2935L8.29303 7.29355C8.38569 7.20036 8.49585 7.12641 8.61718 7.07595C8.73851 7.02549 8.86862 6.99951 9.00003 6.99951C9.13144 6.99951 9.26155 7.02549 9.38288 7.07595C9.50422 7.12641 9.61438 7.20036 9.70703 7.29355L15.707 13.2935C15.8 13.3863 15.8737 13.4965 15.924 13.6179C15.9743 13.7392 16.0002 13.8692 16.0002 14.0005C16.0002 14.1319 15.9743 14.2619 15.924 14.3832C15.8737 14.5046 15.8 14.6148 15.707 14.7075ZM29 3.99951H13C12.7348 3.99951 12.4805 3.89415 12.2929 3.70662C12.1054 3.51908 12 3.26473 12 2.99951C12 2.7343 12.1054 2.47994 12.2929 2.2924C12.4805 2.10487 12.7348 1.99951 13 1.99951H29C29.2652 1.99951 29.5196 2.10487 29.7071 2.2924C29.8947 2.47994 30 2.7343 30 2.99951C30 3.26473 29.8947 3.51908 29.7071 3.70662C29.5196 3.89415 29.2652 3.99951 29 3.99951ZM29 8.99951H18C17.7348 8.99951 17.4805 8.89415 17.2929 8.70662C17.1054 8.51908 17 8.26473 17 7.99951C17 7.7343 17.1054 7.47994 17.2929 7.29241C17.4805 7.10487 17.7348 6.99951 18 6.99951H29C29.2652 6.99951 29.5196 7.10487 29.7071 7.29241C29.8947 7.47994 30 7.7343 30 7.99951C30 8.26473 29.8947 8.51908 29.7071 8.70662C29.5196 8.89415 29.2652 8.99951 29 8.99951ZM29 13.9995H23C22.7348 13.9995 22.4805 13.8942 22.2929 13.7066C22.1054 13.5191 22 13.2647 22 12.9995C22 12.7343 22.1054 12.4799 22.2929 12.2924C22.4805 12.1049 22.7348 11.9995 23 11.9995H29C29.2652 11.9995 29.5196 12.1049 29.7071 12.2924C29.8947 12.4799 30 12.7343 30 12.9995C30 13.2647 29.8947 13.5191 29.7071 13.7066C29.5196 13.8942 29.2652 13.9995 29 13.9995ZM29 18.9995H27C26.7348 18.9995 26.4805 18.8942 26.2929 18.7066C26.1054 18.5191 26 18.2647 26 17.9995C26 17.7343 26.1054 17.4799 26.2929 17.2924C26.4805 17.1049 26.7348 16.9995 27 16.9995H29C29.2652 16.9995 29.5196 17.1049 29.7071 17.2924C29.8947 17.4799 30 17.7343 30 17.9995C30 18.2647 29.8947 18.5191 29.7071 18.7066C29.5196 18.8942 29.2652 18.9995 29 18.9995Z" fill="#1A1C1F"/>
</g>
<defs>
<clipPath id="clip0_77_541">
<rect width="32" height="32" fill="white" transform="matrix(1 0 0 -1 0 32)"/>
</clipPath>
</defs>
</svg>
