<svg width="16" height="16" viewBox="0 0 16 16" fill="none" xmlns="http://www.w3.org/2000/svg">
<g clip-path="url(#clip0_77_545)">
<path fill-rule="evenodd" clip-rule="evenodd" d="M6.63481 8.56625L5.59981 7.53025V13.6003C5.59981 13.8124 5.51553 14.0159 5.3655 14.1659C5.21547 14.316 5.01198 14.4003 4.79981 14.4003C4.58764 14.4003 4.38415 14.316 4.23413 14.1659C4.0841 14.0159 3.99981 13.8124 3.99981 13.6003V7.53125L2.96581 8.56625C2.89148 8.64051 2.80326 8.69941 2.70617 8.73957C2.60908 8.77974 2.50503 8.80039 2.39996 8.80034C2.29489 8.8003 2.19086 8.77956 2.0938 8.7393C1.99675 8.69905 1.90857 8.64008 1.83431 8.56575C1.76005 8.49142 1.70115 8.4032 1.66099 8.30611C1.62082 8.20902 1.60017 8.10497 1.60022 7.9999C1.60027 7.89483 1.62101 7.7908 1.66126 7.69374C1.70151 7.59669 1.76048 7.50851 1.83481 7.43425L4.23481 5.03425C4.30894 4.95993 4.397 4.90097 4.49395 4.86073C4.59091 4.8205 4.69484 4.79979 4.79981 4.79979C4.90478 4.79979 5.00872 4.8205 5.10567 4.86073C5.20262 4.90097 5.29068 4.95993 5.36481 5.03425L7.76481 7.43425C7.84229 7.50773 7.90427 7.59598 7.94711 7.69379C7.98994 7.7916 8.01276 7.897 8.01422 8.00377C8.01568 8.11054 7.99575 8.21652 7.95561 8.31547C7.91547 8.41442 7.85592 8.50433 7.78048 8.5799C7.70504 8.65547 7.61524 8.71517 7.51637 8.75549C7.41749 8.79581 7.31154 8.81593 7.20477 8.81466C7.098 8.81338 6.99256 8.79075 6.89467 8.74809C6.79678 8.70543 6.70843 8.6436 6.63481 8.56625ZM13.5998 3.19979H7.19981C6.98764 3.19979 6.78415 3.11551 6.63413 2.96548C6.4841 2.81545 6.39981 2.61197 6.39981 2.39979C6.39981 2.18762 6.4841 1.98414 6.63413 1.83411C6.78415 1.68408 6.98764 1.59979 7.19981 1.59979H13.5998C13.812 1.59979 14.0155 1.68408 14.1655 1.83411C14.3155 1.98414 14.3998 2.18762 14.3998 2.39979C14.3998 2.61197 14.3155 2.81545 14.1655 2.96548C14.0155 3.11551 13.812 3.19979 13.5998 3.19979ZM13.5998 6.39979H9.59981C9.49475 6.39979 9.39072 6.3791 9.29366 6.3389C9.1966 6.29869 9.10841 6.23977 9.03413 6.16548C8.95984 6.09119 8.90091 6.003 8.86071 5.90594C8.8205 5.80888 8.79981 5.70485 8.79981 5.59979C8.79981 5.49474 8.8205 5.39071 8.86071 5.29365C8.90091 5.19659 8.95984 5.10839 9.03413 5.03411C9.10841 4.95982 9.1966 4.90089 9.29366 4.86069C9.39072 4.82049 9.49475 4.79979 9.59981 4.79979H13.5998C13.7049 4.79979 13.8089 4.82049 13.906 4.86069C14.003 4.90089 14.0912 4.95982 14.1655 5.03411C14.2398 5.10839 14.2987 5.19659 14.3389 5.29365C14.3791 5.39071 14.3998 5.49474 14.3998 5.59979C14.3998 5.70485 14.3791 5.80888 14.3389 5.90594C14.2987 6.003 14.2398 6.09119 14.1655 6.16548C14.0912 6.23977 14.003 6.29869 13.906 6.3389C13.8089 6.3791 13.7049 6.39979 13.5998 6.39979ZM13.5998 9.59979H11.9998C11.7876 9.59979 11.5842 9.51551 11.4341 9.36548C11.2841 9.21545 11.1998 9.01197 11.1998 8.79979C11.1998 8.58762 11.2841 8.38414 11.4341 8.23411C11.5842 8.08408 11.7876 7.99979 11.9998 7.99979H13.5998C13.812 7.99979 14.0155 8.08408 14.1655 8.23411C14.3155 8.38414 14.3998 8.58762 14.3998 8.79979C14.3998 9.01197 14.3155 9.21545 14.1655 9.36548C14.0155 9.51551 13.812 9.59979 13.5998 9.59979Z" fill="#1A1C1F"/>
</g>
<defs>
<clipPath id="clip0_77_545">
<rect width="16" height="16" fill="white" transform="matrix(1 0 0 -1 0 16)"/>
</clipPath>
</defs>
</svg>
