<svg width="24" height="24" viewBox="0 0 24 24" fill="none" xmlns="http://www.w3.org/2000/svg">
<g clip-path="url(#clip0_77_536)">
<path fill-rule="evenodd" clip-rule="evenodd" d="M21.0001 3.99951H11.0001C10.7348 3.99951 10.4805 3.89415 10.293 3.70662C10.1054 3.51908 10.0001 3.26473 10.0001 2.99951C10.0001 2.7343 10.1054 2.47994 10.293 2.2924C10.4805 2.10487 10.7348 1.99951 11.0001 1.99951H21.0001C21.2653 1.99951 21.5196 2.10487 21.7072 2.2924C21.8947 2.47994 22.0001 2.7343 22.0001 2.99951C22.0001 3.26473 21.8947 3.51908 21.7072 3.70662C21.5196 3.89415 21.2653 3.99951 21.0001 3.99951ZM21.0001 7.99951H15.0001C14.7348 7.99951 14.4805 7.89415 14.293 7.70662C14.1054 7.51908 14.0001 7.26473 14.0001 6.99951C14.0001 6.7343 14.1054 6.47994 14.293 6.29241C14.4805 6.10487 14.7348 5.99951 15.0001 5.99951H21.0001C21.2653 5.99951 21.5196 6.10487 21.7072 6.29241C21.8947 6.47994 22.0001 6.7343 22.0001 6.99951C22.0001 7.26473 21.8947 7.51908 21.7072 7.70662C21.5196 7.89415 21.2653 7.99951 21.0001 7.99951ZM21.0001 11.9995H19.0001C18.7348 11.9995 18.4805 11.8942 18.293 11.7066C18.1054 11.5191 18.0001 11.2647 18.0001 10.9995C18.0001 10.7343 18.1054 10.4799 18.293 10.2924C18.4805 10.1049 18.7348 9.99951 19.0001 9.99951H21.0001C21.2653 9.99951 21.5196 10.1049 21.7072 10.2924C21.8947 10.4799 22.0001 10.7343 22.0001 10.9995C22.0001 11.2647 21.8947 11.5191 21.7072 11.7066C21.5196 11.8942 21.2653 11.9995 21.0001 11.9995ZM11.7071 16.2925C11.6143 16.1996 11.5041 16.1258 11.3828 16.0755C11.2614 16.0252 11.1314 15.9993 11.0001 15.9993C10.8687 15.9993 10.7387 16.0252 10.6174 16.0755C10.4961 16.1258 10.3859 16.1996 10.2931 16.2925L8.00006 18.5855V6.99951C8.00006 6.7343 7.89471 6.47994 7.70717 6.29241C7.51963 6.10487 7.26528 5.99951 7.00006 5.99951C6.73485 5.99951 6.48049 6.10487 6.29296 6.29241C6.10542 6.47994 6.00006 6.7343 6.00006 6.99951V18.5855L3.70706 16.2925C3.51955 16.105 3.26524 15.9997 3.00006 15.9997C2.73489 15.9997 2.48057 16.105 2.29306 16.2925C2.10555 16.48 2.00021 16.7343 2.00021 16.9995C2.00021 17.2647 2.10555 17.519 2.29306 17.7065L6.29306 21.7065C6.38572 21.7997 6.49588 21.8736 6.61721 21.9241C6.73854 21.9746 6.86865 22.0005 7.00006 22.0005C7.13147 22.0005 7.26158 21.9746 7.38292 21.9241C7.50425 21.8736 7.61441 21.7997 7.70706 21.7065L11.7071 17.7065C11.8 17.6137 11.8737 17.5035 11.9241 17.3822C11.9744 17.2609 12.0003 17.1308 12.0003 16.9995C12.0003 16.8682 11.9744 16.7381 11.9241 16.6168C11.8737 16.4955 11.8 16.3853 11.7071 16.2925Z" fill="#1A1C1F"/>
</g>
<defs>
<clipPath id="clip0_77_536">
<rect width="24" height="24" fill="white"/>
</clipPath>
</defs>
</svg>
