<svg width="12" height="12" viewBox="0 0 12 12" fill="none" xmlns="http://www.w3.org/2000/svg">
<g clip-path="url(#clip0_231_62)">
<path fill-rule="evenodd" clip-rule="evenodd" d="M4.97573 6.42469L4.20001 5.64897V10.2004C4.20001 10.3595 4.1368 10.5121 4.02428 10.6247C3.91175 10.7372 3.75914 10.8004 3.60001 10.8004C3.44088 10.8004 3.28827 10.7372 3.17575 10.6247C3.06323 10.5121 3.00001 10.3595 3.00001 10.2004V5.64897L2.2243 6.42469C2.11177 6.53722 1.95915 6.60043 1.80001 6.60043C1.64087 6.60043 1.48825 6.53722 1.37573 6.42469C1.2632 6.31216 1.19998 6.15954 1.19998 6.0004C1.19998 5.84126 1.2632 5.68864 1.37573 5.57612L3.17573 3.77612C3.23133 3.72019 3.29744 3.67581 3.37025 3.64552C3.44307 3.61524 3.52115 3.59965 3.60001 3.59965C3.67887 3.59965 3.75696 3.61524 3.82977 3.64552C3.90259 3.67581 3.9687 3.72019 4.0243 3.77612L5.8243 5.57612C5.88002 5.63184 5.92421 5.69798 5.95437 5.77078C5.98452 5.84358 6.00004 5.92161 6.00004 6.0004C6.00004 6.0792 5.98452 6.15723 5.95437 6.23002C5.92421 6.30282 5.88002 6.36897 5.8243 6.42469C5.76858 6.48041 5.70243 6.5246 5.62963 6.55476C5.55683 6.58491 5.47881 6.60043 5.40001 6.60043C5.32122 6.60043 5.24319 6.58491 5.17039 6.55476C5.09759 6.5246 5.03144 6.48041 4.97573 6.42469ZM10.2 2.39965H5.40001C5.24088 2.39965 5.08827 2.33643 4.97575 2.22391C4.86323 2.11139 4.80001 1.95878 4.80001 1.79965C4.80001 1.64052 4.86323 1.4879 4.97575 1.37538C5.08827 1.26286 5.24088 1.19965 5.40001 1.19965H10.2C10.3591 1.19965 10.5118 1.26286 10.6243 1.37538C10.7368 1.4879 10.8 1.64052 10.8 1.79965C10.8 1.95878 10.7368 2.11139 10.6243 2.22391C10.5118 2.33643 10.3591 2.39965 10.2 2.39965ZM10.2 4.79965H7.20001C7.04088 4.79965 6.88827 4.73643 6.77575 4.62391C6.66323 4.51139 6.60001 4.35878 6.60001 4.19965C6.60001 4.04052 6.66323 3.8879 6.77575 3.77538C6.88827 3.66286 7.04088 3.59965 7.20001 3.59965H10.2C10.3591 3.59965 10.5118 3.66286 10.6243 3.77538C10.7368 3.8879 10.8 4.04052 10.8 4.19965C10.8 4.35878 10.7368 4.51139 10.6243 4.62391C10.5118 4.73643 10.3591 4.79965 10.2 4.79965ZM10.2 7.19965H9.00001C8.84088 7.19965 8.68827 7.13643 8.57575 7.02391C8.46323 6.91139 8.40001 6.75878 8.40001 6.59965C8.40001 6.44052 8.46323 6.2879 8.57575 6.17538C8.68827 6.06286 8.84088 5.99965 9.00001 5.99965H10.2C10.3591 5.99965 10.5118 6.06286 10.6243 6.17538C10.7368 6.2879 10.8 6.44052 10.8 6.59965C10.8 6.75878 10.7368 6.91139 10.6243 7.02391C10.5118 7.13643 10.3591 7.19965 10.2 7.19965Z" fill="#1A1C1F"/>
</g>
<defs>
<clipPath id="clip0_231_62">
<rect width="12" height="12" fill="white" transform="matrix(1 0 0 -1 0 12)"/>
</clipPath>
</defs>
</svg>
