<svg width="14" height="14" viewBox="0 0 14 14" fill="none" xmlns="http://www.w3.org/2000/svg">
<g clip-path="url(#clip0_77_539)">
<path fill-rule="evenodd" clip-rule="evenodd" d="M5.80501 9.30454L4.90001 10.2095V4.89954C4.90001 4.71388 4.82626 4.53584 4.69499 4.40456C4.56371 4.27329 4.38567 4.19954 4.20001 4.19954C4.01436 4.19954 3.83631 4.27329 3.70504 4.40456C3.57376 4.53584 3.50001 4.71388 3.50001 4.89954V10.2095L2.59501 9.30454C2.46373 9.17325 2.28568 9.0995 2.10001 9.0995C1.91435 9.0995 1.7363 9.17325 1.60501 9.30454C1.47373 9.43582 1.39998 9.61388 1.39998 9.79954C1.39998 9.9852 1.47373 10.1633 1.60501 10.2945L3.70501 12.3945C3.76988 12.4598 3.84701 12.5116 3.93196 12.5469C4.01691 12.5822 4.10801 12.6004 4.20001 12.6004C4.29202 12.6004 4.38312 12.5822 4.46807 12.5469C4.55302 12.5116 4.63015 12.4598 4.69501 12.3945L6.79501 10.2945C6.86002 10.2295 6.91158 10.1524 6.94676 10.0674C6.98194 9.9825 7.00005 9.89147 7.00005 9.79954C7.00005 9.70761 6.98194 9.61658 6.94676 9.53164C6.91158 9.44671 6.86002 9.36954 6.79501 9.30454C6.73001 9.23953 6.65284 9.18797 6.56791 9.15279C6.48297 9.11761 6.39194 9.0995 6.30001 9.0995C6.20808 9.0995 6.11705 9.11761 6.03212 9.15279C5.94719 9.18797 5.87002 9.23953 5.80501 9.30454ZM11.9 2.79954H6.30001C6.11436 2.79954 5.93632 2.72579 5.80504 2.59451C5.67376 2.46324 5.60001 2.28519 5.60001 2.09954C5.60001 1.91388 5.67376 1.73584 5.80504 1.60456C5.93632 1.47329 6.11436 1.39954 6.30001 1.39954H11.9C12.0857 1.39954 12.2637 1.47329 12.395 1.60456C12.5263 1.73584 12.6 1.91388 12.6 2.09954C12.6 2.28519 12.5263 2.46324 12.395 2.59451C12.2637 2.72579 12.0857 2.79954 11.9 2.79954ZM11.9 5.59954H8.40001C8.21436 5.59954 8.03632 5.52579 7.90504 5.39451C7.77376 5.26324 7.70001 5.08519 7.70001 4.89954C7.70001 4.71388 7.77376 4.53584 7.90504 4.40456C8.03632 4.27329 8.21436 4.19954 8.40001 4.19954H11.9C12.0857 4.19954 12.2637 4.27329 12.395 4.40456C12.5263 4.53584 12.6 4.71388 12.6 4.89954C12.6 5.08519 12.5263 5.26324 12.395 5.39451C12.2637 5.52579 12.0857 5.59954 11.9 5.59954ZM11.9 8.39954H10.5C10.3144 8.39954 10.1363 8.32579 10.005 8.19451C9.87376 8.06324 9.80001 7.88519 9.80001 7.69954C9.80001 7.51388 9.87376 7.33584 10.005 7.20456C10.1363 7.07329 10.3144 6.99954 10.5 6.99954H11.9C12.0857 6.99954 12.2637 7.07329 12.395 7.20456C12.5263 7.33584 12.6 7.51388 12.6 7.69954C12.6 7.88519 12.5263 8.06324 12.395 8.19451C12.2637 8.32579 12.0857 8.39954 11.9 8.39954Z" fill="#1A1C1F"/>
</g>
<defs>
<clipPath id="clip0_77_539">
<rect width="14" height="14" fill="white"/>
</clipPath>
</defs>
</svg>
