<svg width="24" height="24" viewBox="0 0 24 24" fill="none" xmlns="http://www.w3.org/2000/svg">
<g clip-path="url(#clip0_77_542)">
<path fill-rule="evenodd" clip-rule="evenodd" d="M21.0001 3.99951H11.0001C10.7348 3.99951 10.4805 3.89415 10.293 3.70662C10.1054 3.51908 10.0001 3.26473 10.0001 2.99951C10.0001 2.7343 10.1054 2.47994 10.293 2.2924C10.4805 2.10487 10.7348 1.99951 11.0001 1.99951H21.0001C21.2653 1.99951 21.5196 2.10487 21.7072 2.2924C21.8947 2.47994 22.0001 2.7343 22.0001 2.99951C22.0001 3.26473 21.8947 3.51908 21.7072 3.70662C21.5196 3.89415 21.2653 3.99951 21.0001 3.99951ZM21.0001 7.99951H15.0001C14.7348 7.99951 14.4805 7.89415 14.293 7.70662C14.1054 7.51908 14.0001 7.26473 14.0001 6.99951C14.0001 6.7343 14.1054 6.47994 14.293 6.29241C14.4805 6.10487 14.7348 5.99951 15.0001 5.99951H21.0001C21.2653 5.99951 21.5196 6.10487 21.7072 6.29241C21.8947 6.47994 22.0001 6.7343 22.0001 6.99951C22.0001 7.26473 21.8947 7.51908 21.7072 7.70662C21.5196 7.89415 21.2653 7.99951 21.0001 7.99951ZM21.0001 11.9995H19.0001C18.7348 11.9995 18.4805 11.8942 18.293 11.7066C18.1054 11.5191 18.0001 11.2647 18.0001 10.9995C18.0001 10.7343 18.1054 10.4799 18.293 10.2924C18.4805 10.1049 18.7348 9.99951 19.0001 9.99951H21.0001C21.2653 9.99951 21.5196 10.1049 21.7072 10.2924C21.8947 10.4799 22.0001 10.7343 22.0001 10.9995C22.0001 11.2647 21.8947 11.5191 21.7072 11.7066C21.5196 11.8942 21.2653 11.9995 21.0001 11.9995ZM11.7071 11.7075C11.6143 11.8005 11.5041 11.8742 11.3828 11.9245C11.2614 11.9749 11.1314 12.0007 11.0001 12.0007C10.8687 12.0007 10.7387 11.9749 10.6174 11.9245C10.4961 11.8742 10.3859 11.8005 10.2931 11.7075L8.00006 9.41455V21.0005C8.00006 21.2658 7.89471 21.5201 7.70717 21.7077C7.51963 21.8952 7.26528 22.0005 7.00006 22.0005C6.73485 22.0005 6.48049 21.8952 6.29296 21.7077C6.10542 21.5201 6.00006 21.2658 6.00006 21.0005V9.41455L3.70706 11.7075C3.51955 11.8951 3.26524 12.0004 3.00006 12.0004C2.73489 12.0004 2.48057 11.8951 2.29306 11.7075C2.10555 11.52 2.00021 11.2657 2.00021 11.0005C2.00021 10.7354 2.10555 10.4811 2.29306 10.2935L6.29306 6.29355C6.38572 6.20036 6.49588 6.12641 6.61721 6.07595C6.73854 6.02549 6.86865 5.99951 7.00006 5.99951C7.13147 5.99951 7.26158 6.02549 7.38292 6.07595C7.50425 6.12641 7.61441 6.20036 7.70706 6.29355L11.7071 10.2935C11.8 10.3863 11.8737 10.4965 11.9241 10.6179C11.9744 10.7392 12.0003 10.8692 12.0003 11.0005C12.0003 11.1319 11.9744 11.2619 11.9241 11.3832C11.8737 11.5046 11.8 11.6148 11.7071 11.7075Z" fill="#1A1C1F"/>
</g>
<defs>
<clipPath id="clip0_77_542">
<rect width="24" height="24" fill="white" transform="matrix(1 0 0 -1 0 24)"/>
</clipPath>
</defs>
</svg>
