<svg width="28" height="28" viewBox="0 0 28 28" fill="none" xmlns="http://www.w3.org/2000/svg">
<g clip-path="url(#clip0_77_563)">
<path fill-rule="evenodd" clip-rule="evenodd" d="M7.26023 13.4642C7.39136 13.6325 7.45647 13.843 7.44329 14.056C7.43012 14.2689 7.33957 14.4698 7.18868 14.6207C7.03779 14.7715 6.83697 14.8621 6.62399 14.8753C6.41101 14.8884 6.20056 14.8233 6.03223 14.6922L2.37623 11.0362C2.25735 10.8828 2.19284 10.6943 2.19284 10.5002C2.19284 10.3061 2.25735 10.1176 2.37623 9.9642L6.03323 6.3082C6.18661 6.18933 6.37517 6.12482 6.56923 6.12482C6.76329 6.12482 6.95184 6.18933 7.10523 6.3082L7.18823 6.3812L7.26123 6.4642C7.3801 6.61759 7.44461 6.80614 7.44461 7.0002C7.44461 7.19426 7.3801 7.38282 7.26123 7.5362L5.18123 9.6252H19.6932C21.2976 9.6281 22.8367 10.2604 23.9799 11.3861C25.123 12.5118 25.7788 14.0411 25.8063 15.6452C25.8338 17.2493 25.2308 18.8002 24.127 19.9644C23.0231 21.1286 21.5065 21.8133 19.9032 21.8712L9.09023 21.8752C8.86706 21.8751 8.65235 21.7898 8.49003 21.6366C8.32771 21.4835 8.23004 21.2741 8.21701 21.0513C8.20398 20.8285 8.27657 20.6092 8.41993 20.4381C8.56329 20.2671 8.76659 20.1573 8.98823 20.1312L19.6932 20.1252C20.8376 20.126 21.9367 19.6783 22.755 18.8783C23.5732 18.0782 24.0453 16.9893 24.0702 15.8452C24.095 14.7011 23.6706 13.5928 22.8879 12.7579C22.1052 11.9231 21.0266 11.4281 19.8832 11.3792L5.18123 11.3752L7.26023 13.4642Z" fill="#1A1C1F"/>
</g>
<defs>
<clipPath id="clip0_77_563">
<rect width="28" height="28" fill="white"/>
</clipPath>
</defs>
</svg>
