<svg width="16" height="16" viewBox="0 0 16 16" fill="none" xmlns="http://www.w3.org/2000/svg">
<g clip-path="url(#clip0_77_565)">
<path fill-rule="evenodd" clip-rule="evenodd" d="M5.03163 7.71297C5.15028 7.86693 5.20882 8.05882 5.19631 8.2528C5.18381 8.44677 5.1011 8.62955 4.96366 8.767C4.82621 8.90444 4.64343 8.98715 4.44946 8.99966C4.25548 9.01217 4.06359 8.95362 3.90963 8.83497L1.76763 6.69297C1.65897 6.55274 1.60001 6.38037 1.60001 6.20297C1.60001 6.02557 1.65897 5.8532 1.76763 5.71297L3.90963 3.57097C4.06201 3.4479 4.25497 3.3864 4.45046 3.39862C4.64595 3.41084 4.82976 3.49588 4.96563 3.63697C5.29263 3.96497 5.25563 4.40597 5.03163 4.69297L4.33163 5.40297H10.7996C11.7397 5.40288 12.6426 5.77055 13.3152 6.42738C13.9878 7.08421 14.3768 7.9781 14.399 8.91795C14.4212 9.8578 14.0748 10.7691 13.434 11.4569C12.7932 12.1448 11.9087 12.5547 10.9696 12.599L4.94663 12.603C4.74177 12.6042 4.54425 12.5268 4.39477 12.3867C4.24529 12.2466 4.15524 12.0546 4.14319 11.8501C4.13114 11.6455 4.198 11.4442 4.32999 11.2875C4.46198 11.1309 4.64905 11.0308 4.85263 11.008L10.7996 11.003C11.3196 11.0045 11.8197 10.8034 12.194 10.4423C12.5682 10.0813 12.7871 9.58871 12.8042 9.06901C12.8214 8.54931 12.6355 8.04335 12.2859 7.65841C11.9363 7.27347 11.4506 7.03981 10.9316 7.00697L4.33163 7.00297L5.03163 7.71297Z" fill="#1A1C1F"/>
</g>
<defs>
<clipPath id="clip0_77_565">
<rect width="16" height="16" fill="white"/>
</clipPath>
</defs>
</svg>
