<svg width="12" height="12" viewBox="0 0 12 12" fill="none" xmlns="http://www.w3.org/2000/svg">
<g clip-path="url(#clip0_231_71)">
<path fill-rule="evenodd" clip-rule="evenodd" d="M3.76923 5.78437C3.85857 5.89982 3.90276 6.04389 3.89351 6.18958C3.88425 6.33528 3.8222 6.4726 3.71898 6.57583C3.61575 6.67906 3.47842 6.74111 3.33273 6.75036C3.18704 6.75961 3.04297 6.71542 2.92751 6.62608L1.32123 5.02065C1.23963 4.91544 1.19534 4.78608 1.19534 4.65294C1.19534 4.51979 1.23963 4.39043 1.32123 4.28522L2.92666 2.67808C3.04095 2.58578 3.1857 2.53968 3.33233 2.54888C3.47895 2.55809 3.6168 2.62193 3.71866 2.7278C3.82453 2.82965 3.88836 2.9675 3.89757 3.11413C3.90677 3.26075 3.86067 3.4055 3.76837 3.5198L3.2438 4.05208H8.09523C8.80195 4.04961 9.48147 4.32434 9.9879 4.81729C10.4943 5.31023 10.7873 5.98209 10.8039 6.68862C10.8205 7.39516 10.5594 8.08004 10.0767 8.59623C9.59401 9.11242 8.92814 9.41877 8.22208 9.44951L3.70494 9.45208C3.5522 9.45154 3.40542 9.39277 3.29451 9.28774C3.18361 9.18272 3.11693 9.03935 3.10808 8.88686C3.09922 8.73438 3.14886 8.58426 3.24686 8.4671C3.34486 8.34995 3.48386 8.27458 3.63551 8.25637L8.09523 8.25208C8.48404 8.25137 8.85738 8.09971 9.13654 7.82908C9.41571 7.55845 9.57888 7.19 9.59166 6.8014C9.60445 6.4128 9.46584 6.03442 9.20506 5.74603C8.94429 5.45764 8.58172 5.28177 8.1938 5.25551L3.24466 5.25208L3.76923 5.78437Z" fill="#1A1C1F"/>
</g>
<defs>
<clipPath id="clip0_231_71">
<rect width="12" height="12" fill="white"/>
</clipPath>
</defs>
</svg>
