<svg width="14" height="14" viewBox="0 0 14 14" fill="none" xmlns="http://www.w3.org/2000/svg">
<g clip-path="url(#clip0_77_567)">
<path fill-rule="evenodd" clip-rule="evenodd" d="M4.39744 6.74849C4.50168 6.88319 4.55323 7.05127 4.54243 7.22124C4.53164 7.39122 4.45925 7.55143 4.33881 7.67186C4.21838 7.79229 4.05817 7.86469 3.8882 7.87548C3.71822 7.88627 3.55014 7.83472 3.41544 7.73049L1.54144 5.85749C1.44624 5.73475 1.39458 5.58382 1.39458 5.42849C1.39458 5.27315 1.44624 5.12223 1.54144 4.99949L3.41444 3.12449C3.54779 3.0168 3.71666 2.96302 3.88772 2.97376C4.05879 2.9845 4.21961 3.05897 4.33844 3.18249C4.46196 3.30132 4.53643 3.46214 4.54717 3.63321C4.55791 3.80427 4.50413 3.97314 4.39644 4.10649L3.78444 4.72749H9.44444C10.269 4.72461 11.0617 5.04513 11.6526 5.62023C12.2434 6.19533 12.5852 6.97917 12.6046 7.80345C12.6239 8.62774 12.3193 9.42677 11.7562 10.029C11.193 10.6312 10.4162 10.9886 9.59244 11.0245L4.32244 11.0275C4.14424 11.0269 3.97299 10.9583 3.84361 10.8358C3.71422 10.7132 3.63643 10.546 3.6261 10.3681C3.61577 10.1902 3.67368 10.015 3.78801 9.87835C3.90235 9.74167 4.06451 9.65374 4.24144 9.63249L9.44444 9.62749C9.89805 9.62666 10.3336 9.44972 10.6593 9.13399C10.985 8.81826 11.1754 8.38839 11.1903 7.93503C11.2052 7.48166 11.0435 7.04022 10.7393 6.70376C10.435 6.36731 10.012 6.16213 9.55944 6.13149L3.78544 6.12749L4.39744 6.74849Z" fill="#1A1C1F"/>
</g>
<defs>
<clipPath id="clip0_77_567">
<rect width="14" height="14" fill="white"/>
</clipPath>
</defs>
</svg>
