<svg width="20" height="20" viewBox="0 0 20 20" fill="none" xmlns="http://www.w3.org/2000/svg">
<g clip-path="url(#clip0_77_564)">
<path fill-rule="evenodd" clip-rule="evenodd" d="M6.29001 9.64052C6.43915 9.83294 6.51298 10.0732 6.49765 10.3161C6.48233 10.5591 6.37889 10.7881 6.20675 10.9603C6.0346 11.1324 5.80557 11.2358 5.5626 11.2512C5.31964 11.2665 5.07942 11.1927 4.88701 11.0435L2.21001 8.36652C2.07394 8.19115 2.00009 7.97549 2.00009 7.75352C2.00009 7.53155 2.07394 7.31589 2.21001 7.14052L4.88701 4.46352C5.24701 4.18352 5.79801 4.13752 6.20701 4.54652C6.61701 4.95552 6.57001 5.50652 6.29001 5.86652L5.41401 6.75352H13.5C14.6751 6.75354 15.8036 7.21322 16.6442 8.0343C17.4849 8.85538 17.971 9.97272 17.9987 11.1475C18.0264 12.3223 17.5934 13.4613 16.7924 14.321C15.9914 15.1808 14.8858 15.6931 13.712 15.7485L6.18301 15.7535C5.92821 15.753 5.68323 15.6552 5.49809 15.4802C5.31294 15.3051 5.2016 15.066 5.18679 14.8116C5.17199 14.5573 5.25484 14.3068 5.41843 14.1115C5.58201 13.9161 5.814 13.7906 6.06701 13.7605L13.5 13.7535C14.1499 13.7551 14.7749 13.5035 15.2424 13.0522C15.71 12.6008 15.9834 11.9851 16.0047 11.3356C16.0261 10.686 15.7936 10.0537 15.3567 9.57265C14.9197 9.09158 14.3126 8.79957 13.664 8.75852L5.41501 8.75352L6.29001 9.64052Z" fill="#1A1C1F"/>
</g>
<defs>
<clipPath id="clip0_77_564">
<rect width="20" height="20" fill="white"/>
</clipPath>
</defs>
</svg>
