<svg width="32" height="32" viewBox="0 0 32 32" fill="none" xmlns="http://www.w3.org/2000/svg">
<g clip-path="url(#clip0_77_562)">
<path fill-rule="evenodd" clip-rule="evenodd" d="M8.28833 15.387C8.43747 15.5795 8.51131 15.8197 8.49598 16.0626C8.48065 16.3056 8.37721 16.5346 8.20507 16.7068C8.03292 16.8789 7.80389 16.9824 7.56093 16.9977C7.31796 17.013 7.07775 16.9392 6.88533 16.79L2.70833 12.613C2.57226 12.4377 2.49841 12.222 2.49841 12C2.49841 11.7781 2.57226 11.5624 2.70833 11.387L6.88533 7.21004C7.0607 7.07397 7.27636 7.00012 7.49833 7.00012C7.7203 7.00012 7.93596 7.07397 8.11133 7.21004L8.20533 7.29304L8.28833 7.38704C8.4244 7.56241 8.49825 7.77807 8.49825 8.00004C8.49825 8.22201 8.4244 8.43767 8.28833 8.61304L5.91333 11H22.4983C24.3347 10.9991 26.0978 11.7199 27.4077 13.0068C28.7175 14.2938 29.4692 16.044 29.5007 17.88C29.5322 19.7161 28.8409 21.491 27.576 22.8221C26.311 24.1532 24.5736 24.934 22.7383 24.996L10.3813 25C10.1265 24.9995 9.88155 24.9017 9.69641 24.7267C9.51126 24.5516 9.39992 24.3125 9.38512 24.0581C9.37031 23.8038 9.45316 23.5534 9.61675 23.358C9.78033 23.1627 10.0123 23.0371 10.2653 23.007L22.4983 23C23.8045 22.9984 25.0581 22.4856 25.9911 21.5715C26.9241 20.6574 27.4623 19.4144 27.4907 18.1086C27.519 16.8027 27.0353 15.5376 26.1428 14.5838C25.2504 13.6301 24.0202 13.0634 22.7153 13.005L5.91333 13L8.28833 15.387Z" fill="#1A1C1F"/>
</g>
<defs>
<clipPath id="clip0_77_562">
<rect width="32" height="32" fill="white"/>
</clipPath>
</defs>
</svg>
