<svg width="24" height="24" viewBox="0 0 24 24" fill="none" xmlns="http://www.w3.org/2000/svg">
<g clip-path="url(#clip0_77_566)">
<path fill-rule="evenodd" clip-rule="evenodd" d="M6.78415 11.3772C6.93329 11.5696 7.00712 11.8098 6.9918 12.0527C6.97647 12.2957 6.87303 12.5247 6.70089 12.6969C6.52874 12.869 6.29971 12.9725 6.05675 12.9878C5.81378 13.0031 5.57356 12.9293 5.38115 12.7802L2.20415 9.60315C2.06808 9.42778 1.99423 9.21212 1.99423 8.99015C1.99423 8.76819 2.06808 8.55253 2.20415 8.37715L5.38115 5.20015C5.74115 4.92015 6.37615 4.95015 6.70415 5.28315C7.03215 5.61715 7.06415 6.24315 6.78415 6.60315L5.40915 7.99015H16.4941C17.9357 7.98711 19.3208 8.55016 20.3514 9.55812C21.382 10.5661 21.9757 11.9384 22.0046 13.3796C22.0336 14.8209 21.4956 16.2159 20.5063 17.2645C19.517 18.313 18.1557 18.9313 16.7151 18.9862L7.99415 18.9902C7.73927 18.9899 7.49412 18.8923 7.30878 18.7173C7.12344 18.5423 7.01191 18.3032 6.99698 18.0488C6.98204 17.7943 7.06482 17.5438 7.22841 17.3483C7.392 17.1529 7.62405 17.0273 7.87715 16.9972L16.4941 16.9902C17.4067 16.9915 18.2836 16.6364 18.9381 16.0005C19.5926 15.3647 19.9728 14.4983 19.9979 13.5862C20.0229 12.674 19.6907 11.7882 19.0721 11.1174C18.4535 10.4466 17.5973 10.0439 16.6861 9.99515L5.40915 9.99015L6.78415 11.3772Z" fill="#1A1C1F"/>
</g>
<defs>
<clipPath id="clip0_77_566">
<rect width="24" height="24" fill="white"/>
</clipPath>
</defs>
</svg>
