<svg id="icon" height="24" viewBox="0 0 24 24" width="24" xmlns="http://www.w3.org/2000/svg"><path d="M6.220 3.044 C 5.156 3.198,4.091 3.914,3.523 4.858 C 3.316 5.204,3.125 5.756,3.055 6.211 C 2.881 7.348,3.231 8.441,4.063 9.354 L 4.295 9.609 4.245 9.834 C 3.931 11.254,3.890 12.107,4.080 13.268 C 4.274 14.450,4.770 15.656,5.453 16.609 C 5.571 16.773,5.680 16.928,5.695 16.953 C 5.726 17.002,5.541 17.302,4.688 18.591 C 4.381 19.054,4.088 19.520,4.035 19.626 C 3.720 20.268,4.316 21.073,5.042 20.987 C 5.496 20.933,5.592 20.832,6.565 19.387 C 6.929 18.847,7.227 18.442,7.254 18.453 C 7.279 18.464,7.453 18.574,7.640 18.699 C 8.313 19.147,9.298 19.568,10.172 19.780 C 12.247 20.285,14.492 19.886,16.352 18.681 C 16.557 18.548,16.737 18.441,16.752 18.441 C 16.768 18.442,17.068 18.875,17.420 19.404 C 18.254 20.655,18.356 20.783,18.613 20.903 C 19.004 21.085,19.366 21.002,19.697 20.657 C 19.931 20.412,20.018 20.188,19.989 19.903 C 19.963 19.655,19.830 19.428,18.837 17.938 L 18.250 17.056 18.311 16.939 C 18.344 16.875,18.457 16.705,18.561 16.562 C 19.151 15.748,19.629 14.591,19.882 13.360 C 19.956 13.000,19.969 12.805,19.970 12.000 C 19.970 11.032,19.955 10.878,19.776 10.090 L 19.674 9.639 19.922 9.370 C 20.393 8.856,20.712 8.285,20.885 7.640 C 21.013 7.165,21.013 6.292,20.886 5.820 C 20.576 4.677,19.734 3.722,18.641 3.278 C 18.223 3.108,17.805 3.032,17.280 3.032 C 16.281 3.032,15.429 3.361,14.676 4.037 L 14.390 4.294 14.165 4.245 C 13.121 4.013,12.916 3.988,12.080 3.986 C 11.193 3.984,10.609 4.047,9.960 4.216 L 9.604 4.308 9.492 4.190 C 9.430 4.126,9.267 3.982,9.128 3.871 C 8.290 3.202,7.226 2.899,6.220 3.044 M7.300 5.102 C 7.410 5.132,7.533 5.181,7.573 5.210 C 7.641 5.260,7.629 5.276,7.413 5.418 C 6.813 5.814,6.062 6.549,5.535 7.254 L 5.241 7.649 5.161 7.462 C 4.969 7.014,4.978 6.450,5.185 6.012 C 5.407 5.544,5.944 5.123,6.423 5.042 C 6.660 5.002,7.028 5.027,7.300 5.102 M17.862 5.124 C 18.336 5.302,18.711 5.689,18.884 6.180 C 18.955 6.382,18.965 6.486,18.951 6.840 C 18.934 7.244,18.844 7.600,18.757 7.600 C 18.738 7.600,18.626 7.469,18.507 7.308 C 18.037 6.672,17.303 5.946,16.650 5.470 C 16.501 5.362,16.373 5.266,16.364 5.257 C 16.334 5.228,16.726 5.073,16.915 5.039 C 17.174 4.992,17.615 5.032,17.862 5.124 M12.458 6.000 C 13.368 6.053,13.854 6.185,14.698 6.609 C 15.517 7.020,16.459 7.849,16.956 8.597 C 17.649 9.641,17.976 10.722,17.974 11.960 C 17.972 13.204,17.652 14.275,16.983 15.277 C 16.056 16.666,14.620 17.632,13.085 17.901 C 12.635 17.980,11.366 17.980,10.915 17.902 C 9.660 17.683,8.299 16.909,7.483 15.952 C 6.497 14.796,6.000 13.461,6.000 11.971 C 6.000 10.431,6.488 9.133,7.488 8.014 C 8.421 6.971,9.504 6.333,10.764 6.085 C 10.993 6.040,11.216 5.995,11.260 5.986 C 11.403 5.956,11.767 5.960,12.458 6.000 M11.715 7.493 C 11.379 7.618,11.084 7.912,11.014 8.189 C 11.002 8.238,10.999 9.184,11.007 10.289 C 11.022 12.146,11.028 12.311,11.096 12.440 C 11.179 12.598,12.371 13.797,12.857 14.211 C 13.219 14.520,13.484 14.626,13.771 14.579 C 14.197 14.508,14.483 14.223,14.602 13.749 C 14.639 13.600,14.636 13.527,14.584 13.348 C 14.525 13.146,14.458 13.064,13.764 12.353 L 13.008 11.577 12.992 9.878 C 12.975 8.043,12.971 8.006,12.748 7.767 C 12.521 7.523,12.003 7.386,11.715 7.493 " fill="var(--db-icon-color, currentColor)" stroke="none" fill-rule="evenodd"></path></svg>