<svg id="icon" height="24" viewBox="0 0 24 24" width="24" xmlns="http://www.w3.org/2000/svg"><path d="M9.520 5.038 C 8.596 5.094,8.237 5.307,7.217 6.400 L 6.520 7.147 5.290 7.173 C 3.932 7.201,3.838 7.216,3.340 7.472 C 3.147 7.571,2.961 7.715,2.740 7.938 C 2.395 8.285,2.251 8.516,2.098 8.966 L 2.000 9.254 2.001 13.317 C 2.002 15.552,2.019 17.553,2.039 17.764 C 2.083 18.210,2.178 18.492,2.403 18.840 C 2.710 19.314,3.161 19.666,3.727 19.873 L 4.020 19.980 12.000 19.980 L 19.980 19.980 20.273 19.873 C 20.701 19.716,20.970 19.539,21.300 19.194 C 21.597 18.884,21.808 18.522,21.927 18.120 C 22.006 17.853,22.005 9.223,21.926 8.961 C 21.704 8.223,21.059 7.557,20.325 7.308 C 20.077 7.223,19.217 7.166,18.141 7.162 L 17.542 7.160 16.661 6.284 C 15.902 5.529,15.741 5.389,15.497 5.267 C 15.342 5.190,15.117 5.105,14.997 5.079 C 14.747 5.025,10.280 4.991,9.520 5.038 M12.891 9.623 C 13.195 9.701,13.647 9.906,13.907 10.083 C 14.185 10.273,14.660 10.740,14.865 11.026 C 15.094 11.345,15.297 11.789,15.387 12.163 C 15.474 12.528,15.485 13.431,15.406 13.760 C 15.224 14.519,14.850 15.121,14.218 15.676 C 13.872 15.979,13.521 16.181,13.080 16.329 C 12.710 16.453,12.681 16.456,12.000 16.456 C 11.342 16.456,11.279 16.449,10.960 16.344 C 10.399 16.160,10.047 15.941,9.586 15.489 C 9.244 15.154,8.998 14.814,8.823 14.434 C 8.590 13.929,8.544 13.694,8.544 13.000 C 8.544 12.309,8.590 12.071,8.819 11.575 C 9.309 10.513,10.341 9.712,11.419 9.559 C 11.760 9.510,12.597 9.547,12.891 9.623 M11.640 11.555 C 11.241 11.643,10.838 11.978,10.660 12.368 C 10.306 13.144,10.617 13.990,11.391 14.353 C 11.589 14.445,11.671 14.460,12.000 14.460 C 12.328 14.460,12.411 14.445,12.607 14.354 C 12.925 14.205,13.176 13.959,13.330 13.646 C 13.449 13.404,13.460 13.350,13.460 13.001 C 13.460 12.666,13.446 12.590,13.345 12.371 C 13.207 12.072,12.928 11.796,12.623 11.656 C 12.390 11.550,11.895 11.499,11.640 11.555 " fill="var(--db-icon-color, currentColor)" stroke="none" fill-rule="evenodd"></path></svg>