<svg id="icon" height="32" viewBox="0 0 32 32" width="32" xmlns="http://www.w3.org/2000/svg"><path d="M15.033 2.078 C 13.229 2.309,11.488 3.326,10.383 4.795 C 9.796 5.576,9.463 6.262,9.190 7.253 C 9.053 7.752,9.050 7.795,9.027 9.874 L 9.004 11.989 8.702 12.025 C 8.004 12.110,7.313 12.458,6.815 12.978 C 6.499 13.307,6.297 13.655,6.105 14.200 L 5.959 14.614 5.987 20.547 C 6.018 27.100,5.995 26.662,6.360 27.387 C 6.555 27.775,7.215 28.446,7.604 28.653 C 8.262 29.003,7.737 28.981,15.992 29.001 L 23.478 29.018 23.903 28.856 C 24.438 28.652,24.829 28.394,25.173 28.017 C 25.512 27.646,25.668 27.380,25.873 26.819 L 26.037 26.373 26.014 20.427 L 25.992 14.480 25.871 14.133 C 25.551 13.211,24.787 12.445,23.893 12.148 C 23.547 12.032,23.535 12.032,17.267 12.012 L 10.987 11.992 10.989 10.916 C 10.992 9.436,11.073 7.925,11.169 7.578 C 11.287 7.149,11.649 6.428,11.952 6.019 C 12.603 5.142,13.641 4.455,14.773 4.153 C 15.436 3.977,16.514 3.986,17.227 4.174 C 18.495 4.508,19.502 5.209,20.181 6.231 C 20.492 6.699,20.700 7.179,20.874 7.827 C 21.045 8.466,21.152 8.678,21.382 8.828 C 21.943 9.194,22.714 8.927,22.885 8.307 C 22.969 8.005,22.888 7.442,22.665 6.773 C 22.313 5.716,21.811 4.904,21.013 4.107 C 20.035 3.128,18.868 2.480,17.547 2.182 C 17.026 2.065,15.600 2.006,15.033 2.078 M23.556 14.195 C 23.674 14.273,23.816 14.429,23.872 14.542 C 23.970 14.740,23.973 14.945,23.970 20.547 C 23.967 26.293,23.966 26.349,23.859 26.494 C 23.799 26.574,23.648 26.718,23.524 26.813 L 23.298 26.987 16.000 26.987 L 8.702 26.987 8.476 26.813 C 8.352 26.718,8.201 26.574,8.142 26.494 C 8.034 26.349,8.033 26.292,8.030 20.494 L 8.027 14.640 8.148 14.446 C 8.347 14.125,8.451 14.086,9.155 14.065 C 9.503 14.055,12.836 14.048,16.564 14.050 L 23.341 14.053 23.556 14.195 M15.506 17.071 C 14.707 17.260,14.077 18.025,14.035 18.859 C 14.001 19.535,14.307 20.249,14.769 20.575 L 14.976 20.720 14.995 22.000 C 15.016 23.372,15.032 23.456,15.315 23.714 C 15.798 24.153,16.441 24.074,16.824 23.528 L 16.987 23.298 17.004 22.009 L 17.021 20.720 17.237 20.565 C 17.355 20.480,17.543 20.270,17.654 20.099 C 18.300 19.100,17.943 17.763,16.890 17.238 C 16.496 17.041,15.927 16.972,15.506 17.071 " fill="var(--db-icon-color, currentColor)" stroke="none" fill-rule="evenodd"></path></svg>