<svg id="icon" height="32" viewBox="0 0 32 32" width="32" xmlns="http://www.w3.org/2000/svg"><path d="M15.173 4.036 C 11.295 4.278,7.734 6.093,5.186 9.127 C 4.132 10.382,3.162 12.168,2.642 13.813 C 1.362 17.865,2.042 22.381,4.467 25.920 C 5.264 27.084,5.977 27.846,6.366 27.952 C 6.808 28.071,7.331 27.820,7.523 27.397 C 7.733 26.934,7.637 26.680,6.935 25.840 C 5.664 24.317,4.792 22.631,4.371 20.880 C 4.116 19.815,4.040 19.169,4.038 18.027 C 4.032 15.326,4.817 12.954,6.429 10.800 C 7.554 9.297,8.891 8.181,10.608 7.312 C 12.810 6.199,14.955 5.840,17.627 6.140 C 18.331 6.219,19.189 6.421,20.095 6.721 C 20.535 6.867,20.972 6.987,21.066 6.987 C 21.632 6.987,22.124 6.318,21.972 5.755 C 21.877 5.404,21.586 5.164,20.952 4.916 C 19.295 4.269,17.014 3.921,15.173 4.036 M13.376 8.373 C 12.832 8.537,12.535 9.223,12.782 9.745 C 12.959 10.116,13.491 10.361,13.919 10.267 C 14.285 10.186,14.664 9.684,14.664 9.280 C 14.664 9.026,14.498 8.679,14.313 8.547 C 14.040 8.353,13.669 8.284,13.376 8.373 M17.884 8.452 C 17.577 8.608,17.477 8.731,17.387 9.064 C 17.299 9.393,17.364 9.682,17.582 9.923 C 18.073 10.466,18.882 10.384,19.200 9.759 C 19.515 9.142,19.118 8.418,18.422 8.341 C 18.208 8.318,18.109 8.338,17.884 8.452 M23.689 9.052 C 23.526 9.083,22.915 9.669,19.413 13.153 L 16.507 16.044 15.947 16.065 C 15.464 16.083,15.347 16.106,15.102 16.233 C 14.041 16.781,13.706 18.084,14.362 19.115 C 14.588 19.471,15.053 19.803,15.489 19.921 C 16.342 20.152,17.268 19.759,17.730 18.971 C 17.915 18.654,18.038 18.065,17.981 17.756 L 17.938 17.520 21.223 14.213 C 23.029 12.395,24.615 10.765,24.747 10.591 C 24.960 10.310,24.987 10.245,24.987 9.996 C 24.987 9.359,24.383 8.920,23.689 9.052 M9.253 10.744 C 8.890 10.877,8.639 11.262,8.641 11.680 C 8.645 12.244,9.336 12.752,9.880 12.589 C 10.201 12.493,10.374 12.354,10.502 12.089 C 10.816 11.441,10.432 10.728,9.743 10.684 C 9.587 10.673,9.374 10.700,9.253 10.744 M27.590 12.128 C 27.408 12.214,27.266 12.330,27.175 12.468 C 26.943 12.819,26.948 12.962,27.224 13.762 C 28.076 16.237,28.207 18.527,27.631 20.880 C 27.194 22.666,26.411 24.176,25.056 25.850 C 24.405 26.653,24.319 26.843,24.428 27.231 C 24.567 27.727,25.062 28.055,25.547 27.973 C 25.845 27.923,26.122 27.691,26.690 27.019 C 28.468 24.911,29.613 22.245,29.916 19.509 C 30.013 18.635,29.988 16.932,29.867 16.107 C 29.681 14.841,29.166 13.024,28.841 12.490 C 28.698 12.254,28.401 12.068,28.107 12.029 C 27.917 12.003,27.809 12.024,27.590 12.128 M6.998 14.727 C 6.601 14.841,6.241 15.415,6.322 15.804 C 6.468 16.507,7.213 16.861,7.809 16.512 C 8.175 16.298,8.384 15.798,8.263 15.427 C 8.161 15.109,8.005 14.931,7.712 14.794 C 7.422 14.660,7.279 14.646,6.998 14.727 M24.385 14.727 C 24.288 14.755,24.118 14.869,24.006 14.980 C 23.627 15.360,23.606 15.898,23.957 16.297 C 24.178 16.548,24.381 16.646,24.689 16.648 C 25.163 16.652,25.513 16.384,25.656 15.907 C 25.781 15.486,25.538 14.989,25.105 14.779 C 24.858 14.659,24.667 14.645,24.385 14.727 M6.839 19.473 C 6.392 19.694,6.185 20.344,6.419 20.788 C 6.538 21.015,6.884 21.262,7.143 21.306 C 7.832 21.422,8.432 20.760,8.260 20.074 C 8.112 19.487,7.410 19.190,6.839 19.473 M24.369 19.408 C 23.963 19.540,23.715 19.896,23.712 20.349 C 23.710 20.685,23.845 20.929,24.153 21.145 C 24.343 21.279,24.431 21.305,24.693 21.305 C 24.955 21.305,25.044 21.279,25.232 21.146 C 25.800 20.745,25.824 19.900,25.277 19.539 C 25.061 19.395,24.608 19.330,24.369 19.408 M9.370 23.414 C 8.926 23.548,8.601 24.033,8.661 24.473 C 8.783 25.359,9.851 25.646,10.418 24.945 C 10.601 24.719,10.662 24.336,10.563 24.036 C 10.484 23.796,10.149 23.491,9.884 23.417 C 9.650 23.352,9.578 23.352,9.370 23.414 M22.087 23.420 C 21.816 23.500,21.612 23.674,21.487 23.933 C 21.172 24.584,21.640 25.333,22.361 25.333 C 22.879 25.333,23.281 24.969,23.339 24.448 C 23.410 23.798,22.723 23.233,22.087 23.420 " fill="var(--db-icon-color, currentColor)" stroke="none" fill-rule="evenodd"></path></svg>