<svg id="icon" height="20" viewBox="0 0 20 20" width="20" xmlns="http://www.w3.org/2000/svg"><path d="M9.300 2.039 C 8.871 2.074,8.175 2.212,7.704 2.354 C 6.430 2.741,5.388 3.358,4.422 4.299 C 3.736 4.966,3.295 5.567,2.865 6.417 C 2.470 7.199,2.215 7.993,2.076 8.882 C 1.995 9.398,1.996 10.571,2.077 11.100 C 2.305 12.577,2.887 13.913,3.783 15.017 C 4.064 15.362,4.709 16.001,5.052 16.273 C 7.526 18.234,10.942 18.544,13.733 17.061 C 14.440 16.686,14.977 16.290,15.578 15.703 C 16.269 15.026,16.738 14.385,17.150 13.550 C 17.552 12.735,17.788 11.991,17.921 11.117 C 18.005 10.558,18.005 9.438,17.920 8.883 C 17.783 7.994,17.553 7.266,17.150 6.450 C 16.730 5.600,16.268 4.969,15.561 4.282 C 14.443 3.196,13.081 2.475,11.562 2.166 C 10.976 2.046,9.924 1.987,9.300 2.039 M10.717 4.067 C 12.955 4.317,14.905 5.884,15.648 8.031 C 15.845 8.599,15.934 9.099,15.957 9.758 C 15.987 10.633,15.867 11.404,15.588 12.125 C 14.742 14.316,12.830 15.749,10.452 15.973 C 9.732 16.041,8.899 15.932,8.083 15.663 C 6.079 15.002,4.595 13.323,4.142 11.202 C 4.059 10.815,4.052 10.725,4.053 10.000 C 4.053 9.278,4.061 9.184,4.143 8.794 C 4.625 6.521,6.300 4.772,8.544 4.197 C 9.132 4.046,10.042 3.992,10.717 4.067 M9.000 8.208 L 9.000 10.417 10.383 11.800 L 11.767 13.183 12.475 12.475 L 13.183 11.767 12.092 10.675 L 11.000 9.583 11.000 7.791 L 11.000 6.000 10.000 6.000 L 9.000 6.000 9.000 8.208 " fill="var(--db-icon-color, currentColor)" stroke="none" fill-rule="evenodd"></path></svg>