<svg id="icon" height="20" viewBox="0 0 20 20" width="20" xmlns="http://www.w3.org/2000/svg"><path d="M8.850 2.088 C 8.382 2.161,7.551 2.377,7.189 2.520 C 6.691 2.717,5.850 3.161,5.470 3.426 C 3.616 4.724,2.418 6.651,2.079 8.883 C 1.995 9.442,1.995 10.562,2.080 11.117 C 2.214 11.987,2.442 12.714,2.833 13.517 C 3.203 14.278,3.692 14.968,4.293 15.580 C 6.374 17.698,9.378 18.496,12.205 17.682 C 15.707 16.674,18.125 13.344,17.989 9.717 C 17.849 5.974,15.114 2.824,11.400 2.130 C 10.882 2.033,9.366 2.008,8.850 2.088 M10.517 4.035 C 12.648 4.236,14.457 5.480,15.381 7.382 C 15.924 8.498,16.091 9.596,15.915 10.891 C 15.800 11.733,15.497 12.519,14.986 13.300 C 13.927 14.919,12.189 15.902,10.233 15.989 C 7.886 16.093,5.657 14.757,4.616 12.621 C 3.571 10.476,3.893 7.960,5.451 6.103 C 6.661 4.661,8.631 3.857,10.517 4.035 M10.815 9.048 L 8.847 10.993 8.138 10.308 L 7.428 9.622 6.728 10.322 L 6.028 11.022 7.432 12.403 C 8.204 13.162,8.847 13.787,8.860 13.792 C 8.873 13.796,10.076 12.608,11.533 11.150 L 14.183 8.500 13.483 7.801 L 12.783 7.103 10.815 9.048 " fill="var(--db-icon-color, currentColor)" stroke="none" fill-rule="evenodd"></path></svg>