<svg id="icon" height="20" viewBox="0 0 20 20" width="20" xmlns="http://www.w3.org/2000/svg"><path d="M2.797 2.029 C 2.494 2.094,2.185 2.374,2.067 2.690 C 1.929 3.059,2.009 3.378,2.317 3.689 C 2.588 3.961,2.717 4.000,3.357 4.000 C 3.821 4.000,3.836 4.002,3.867 4.075 C 3.885 4.116,4.125 5.410,4.401 6.950 C 5.515 13.173,5.602 13.621,5.736 13.894 C 5.927 14.282,6.389 14.691,6.834 14.867 C 7.132 14.984,7.630 14.999,11.226 15.000 L 14.702 15.000 14.871 14.915 C 14.963 14.868,15.107 14.762,15.189 14.680 C 15.395 14.474,15.479 14.274,15.481 13.983 C 15.485 13.594,15.280 13.276,14.904 13.084 C 14.800 13.031,14.507 13.025,11.164 13.008 L 7.537 12.990 7.504 12.837 C 7.415 12.419,7.356 12.066,7.372 12.050 C 7.382 12.041,8.266 11.950,9.336 11.850 C 11.965 11.603,14.669 11.335,14.890 11.299 C 14.989 11.283,15.186 11.214,15.327 11.147 C 15.662 10.987,16.066 10.588,16.221 10.267 C 16.330 10.038,16.564 9.121,17.079 6.900 C 17.527 4.966,17.545 4.840,17.405 4.574 C 17.310 4.391,17.108 4.189,16.930 4.098 L 16.790 4.027 11.349 4.008 L 5.908 3.990 5.821 3.659 C 5.713 3.246,5.582 2.970,5.377 2.727 C 5.102 2.400,4.803 2.196,4.433 2.086 C 4.228 2.024,3.012 1.982,2.797 2.029 M14.808 6.022 C 15.216 6.043,15.231 6.046,15.216 6.113 C 14.842 7.737,14.443 9.273,14.384 9.319 C 14.335 9.356,14.279 9.362,11.350 9.650 C 8.203 9.959,7.051 10.062,7.024 10.036 C 6.996 10.010,6.923 9.633,6.548 7.583 C 6.411 6.832,6.290 6.176,6.280 6.126 L 6.262 6.036 6.556 6.025 C 7.128 6.003,14.390 6.001,14.808 6.022 M7.002 15.536 C 6.646 15.607,6.329 15.832,6.177 16.123 C 5.896 16.656,5.964 17.188,6.366 17.613 C 6.845 18.120,7.616 18.119,8.127 17.610 C 8.389 17.350,8.481 17.125,8.480 16.750 C 8.480 16.417,8.420 16.235,8.233 15.999 C 8.105 15.838,7.848 15.647,7.679 15.588 C 7.500 15.526,7.179 15.501,7.002 15.536 M13.783 15.533 C 13.175 15.622,12.736 16.186,12.773 16.830 C 12.807 17.415,13.194 17.847,13.794 17.971 C 14.304 18.076,14.901 17.763,15.125 17.274 C 15.237 17.029,15.264 16.656,15.189 16.397 C 15.017 15.805,14.421 15.439,13.783 15.533 " fill="var(--db-icon-color, currentColor)" stroke="none" fill-rule="evenodd"></path></svg>