<svg id="icon" height="24" viewBox="0 0 24 24" width="24" xmlns="http://www.w3.org/2000/svg"><path d="M5.669 5.088 C 5.570 5.115,5.391 5.242,5.149 5.458 C 4.645 5.908,2.256 8.338,2.129 8.530 C 2.041 8.663,2.026 8.731,2.025 8.993 C 2.024 9.216,2.044 9.338,2.098 9.440 C 2.190 9.615,5.276 12.704,5.517 12.863 C 5.671 12.965,5.730 12.980,5.977 12.979 C 6.392 12.977,6.705 12.782,6.904 12.400 C 7.005 12.206,7.003 11.793,6.900 11.581 C 6.857 11.494,6.509 11.102,6.126 10.711 L 5.429 10.000 10.625 10.001 C 16.476 10.003,17.103 10.019,17.582 10.179 C 18.456 10.471,19.229 11.148,19.639 11.980 C 20.226 13.169,20.061 14.608,19.215 15.677 C 18.769 16.242,18.232 16.606,17.480 16.855 L 17.060 16.994 12.400 17.007 L 7.740 17.021 7.530 17.137 C 6.811 17.534,6.838 18.496,7.580 18.894 L 7.740 18.980 12.480 18.980 L 17.220 18.980 17.670 18.872 C 18.738 18.617,19.590 18.146,20.354 17.390 C 20.882 16.868,21.242 16.352,21.519 15.722 C 22.266 14.025,22.115 12.066,21.121 10.551 C 20.358 9.386,19.361 8.645,17.980 8.216 L 17.500 8.066 15.200 8.037 C 13.935 8.021,11.219 8.006,9.165 8.004 L 5.431 8.000 6.121 7.292 C 6.538 6.864,6.840 6.521,6.885 6.422 C 7.039 6.082,6.930 5.477,6.676 5.263 C 6.449 5.072,6.015 4.996,5.669 5.088 " fill="var(--db-icon-color, currentColor)" stroke="none" fill-rule="evenodd"></path></svg>