<svg id="icon" height="24" viewBox="0 0 24 24" width="24" xmlns="http://www.w3.org/2000/svg"><path d="M11.340 2.041 C 10.154 2.166,9.084 2.549,8.120 3.193 C 5.512 4.935,4.368 8.218,5.344 11.158 C 5.631 12.020,6.001 12.593,6.963 13.660 C 7.280 14.012,7.605 14.381,7.685 14.480 C 7.964 14.826,7.969 14.848,8.001 15.847 C 8.027 16.667,8.039 16.772,8.119 16.937 C 8.216 17.138,8.411 17.319,8.663 17.441 C 8.820 17.518,8.921 17.520,12.000 17.520 L 15.175 17.520 15.356 17.432 C 15.597 17.315,15.862 17.045,15.923 16.854 C 15.951 16.765,15.982 16.330,15.996 15.820 C 16.026 14.724,15.969 14.843,17.037 13.660 C 17.903 12.700,18.220 12.239,18.524 11.496 C 19.109 10.067,19.149 8.364,18.634 6.800 C 17.861 4.448,15.861 2.668,13.421 2.158 C 13.126 2.097,11.754 1.980,11.640 2.006 C 11.629 2.009,11.494 2.024,11.340 2.041 M12.943 4.102 C 14.710 4.467,16.137 5.708,16.704 7.372 C 17.113 8.571,17.073 9.919,16.601 10.900 C 16.406 11.304,16.071 11.745,15.400 12.480 C 14.731 13.212,14.478 13.546,14.301 13.929 C 14.122 14.318,14.043 14.619,14.016 15.020 C 13.980 15.569,14.032 15.520,13.482 15.520 L 13.006 15.520 12.993 14.130 C 12.980 12.774,12.978 12.735,12.888 12.554 C 12.824 12.424,12.729 12.321,12.573 12.214 C 12.356 12.064,12.341 12.060,11.999 12.060 C 11.672 12.060,11.635 12.069,11.475 12.181 C 11.264 12.329,11.087 12.573,11.038 12.783 C 11.018 12.869,11.001 13.521,11.001 14.230 L 11.000 15.520 10.521 15.520 C 9.969 15.520,10.019 15.565,9.986 15.040 C 9.961 14.633,9.866 14.282,9.678 13.900 C 9.471 13.481,9.292 13.248,8.532 12.411 C 8.185 12.028,7.821 11.603,7.725 11.467 C 6.789 10.145,6.774 8.055,7.689 6.500 C 8.321 5.424,9.355 4.602,10.545 4.228 C 10.818 4.141,11.029 4.100,11.580 4.023 C 11.808 3.991,12.641 4.040,12.943 4.102 M10.670 5.243 C 10.132 5.370,9.266 6.014,8.792 6.639 C 8.301 7.286,8.185 7.767,8.417 8.190 C 8.620 8.559,8.979 8.750,9.390 8.707 C 9.739 8.671,9.925 8.530,10.265 8.040 C 10.580 7.586,10.777 7.407,11.218 7.174 C 11.590 6.978,11.819 6.761,11.897 6.531 C 12.161 5.756,11.489 5.050,10.670 5.243 M8.834 18.555 C 8.617 18.575,8.538 18.603,8.414 18.704 C 8.208 18.870,8.035 19.157,8.011 19.372 C 7.966 19.771,8.218 20.225,8.583 20.401 C 8.739 20.477,8.855 20.493,9.378 20.511 L 9.991 20.531 10.008 20.896 C 10.028 21.310,10.105 21.504,10.344 21.736 C 10.586 21.971,10.648 21.980,12.020 21.980 C 13.238 21.980,13.263 21.978,13.449 21.887 C 13.630 21.798,13.809 21.613,13.921 21.400 C 13.950 21.346,13.981 21.128,13.992 20.916 L 14.010 20.531 14.615 20.510 C 15.056 20.495,15.266 20.470,15.391 20.420 C 15.706 20.292,16.000 19.848,16.000 19.500 C 16.000 19.157,15.693 18.687,15.408 18.594 C 15.299 18.559,14.457 18.544,12.180 18.538 C 10.486 18.533,8.980 18.541,8.834 18.555 " fill="var(--db-icon-color, currentColor)" stroke="none" fill-rule="evenodd"></path></svg>