<svg id="icon" height="32" viewBox="0 0 32 32" width="32" xmlns="http://www.w3.org/2000/svg"><path d="M15.669 2.079 C 15.268 2.200,15.284 2.173,13.244 6.265 L 11.298 10.169 10.196 10.339 C 9.589 10.433,7.635 10.723,5.852 10.983 C 2.782 11.430,2.602 11.463,2.425 11.597 C 2.051 11.883,1.907 12.476,2.127 12.827 C 2.262 13.041,3.165 13.963,4.747 15.500 C 5.465 16.198,6.588 17.296,7.241 17.940 L 8.428 19.111 7.787 22.797 C 7.069 26.922,6.959 27.650,7.010 27.923 C 7.089 28.342,7.670 28.747,8.082 28.670 C 8.304 28.628,9.312 28.116,13.213 26.065 L 15.999 24.600 19.186 26.275 C 23.630 28.610,23.746 28.667,24.080 28.667 C 24.402 28.667,24.739 28.476,24.909 28.198 C 25.098 27.887,25.098 27.886,24.185 22.638 L 23.570 19.102 24.812 17.881 C 25.495 17.210,26.828 15.906,27.775 14.984 C 29.403 13.398,29.752 13.036,29.905 12.777 C 30.047 12.534,29.948 11.971,29.718 11.716 C 29.490 11.465,29.575 11.481,25.120 10.831 C 23.521 10.597,21.871 10.352,21.452 10.286 L 20.691 10.167 18.804 6.377 C 17.765 4.292,16.865 2.507,16.803 2.410 C 16.607 2.102,16.092 1.952,15.669 2.079 M17.610 8.494 C 18.745 10.760,19.243 11.703,19.373 11.827 C 19.611 12.057,19.631 12.061,23.518 12.620 C 25.294 12.875,26.759 13.094,26.773 13.106 C 26.787 13.118,25.645 14.272,24.233 15.671 C 22.822 17.069,21.628 18.291,21.579 18.386 C 21.496 18.549,21.497 18.604,21.598 19.293 C 21.658 19.697,21.895 21.131,22.127 22.480 C 22.689 25.755,22.682 25.709,22.646 25.746 C 22.610 25.781,22.571 25.762,18.907 23.846 C 16.494 22.585,16.273 22.480,16.027 22.481 C 15.710 22.483,15.442 22.610,12.693 24.054 C 9.973 25.483,9.387 25.778,9.351 25.742 C 9.332 25.723,9.548 24.394,9.831 22.788 C 10.538 18.759,10.523 18.857,10.481 18.571 C 10.444 18.324,10.401 18.278,7.824 15.722 C 6.384 14.293,5.216 13.114,5.229 13.103 C 5.242 13.091,6.705 12.873,8.480 12.619 C 12.356 12.064,12.388 12.058,12.628 11.827 C 12.759 11.701,13.242 10.783,14.384 8.493 C 15.250 6.755,15.974 5.333,15.993 5.334 C 16.011 5.334,16.739 6.756,17.610 8.494 " fill="var(--db-icon-color, currentColor)" stroke="none" fill-rule="evenodd"></path></svg>