<svg id="icon" height="20" viewBox="0 0 20 20" width="20" xmlns="http://www.w3.org/2000/svg"><path d="M14.083 2.040 C 12.855 2.165,11.691 3.076,11.248 4.259 C 11.085 4.694,11.033 4.998,11.033 5.524 L 11.033 5.983 9.479 6.725 L 7.925 7.466 7.814 7.368 C 7.484 7.079,6.889 6.764,6.417 6.627 C 6.179 6.558,6.080 6.550,5.500 6.550 C 4.920 6.550,4.821 6.558,4.584 6.627 C 3.515 6.937,2.614 7.750,2.241 8.743 C 2.058 9.231,2.019 9.455,2.022 10.017 C 2.024 10.443,2.037 10.564,2.110 10.840 C 2.274 11.462,2.543 11.937,2.999 12.411 C 4.251 13.715,6.183 13.855,7.652 12.749 L 7.921 12.546 9.455 13.265 L 10.988 13.983 11.024 14.583 C 11.056 15.109,11.073 15.224,11.167 15.517 C 11.453 16.405,11.991 17.083,12.763 17.530 C 13.228 17.799,13.627 17.923,14.171 17.967 C 15.273 18.055,16.221 17.717,16.969 16.969 C 18.026 15.913,18.294 14.284,17.630 12.959 C 17.279 12.259,16.765 11.747,16.050 11.390 C 15.452 11.090,15.090 11.016,14.344 11.042 C 13.937 11.055,13.797 11.074,13.550 11.148 C 13.017 11.307,12.439 11.638,12.042 12.011 C 11.871 12.172,11.866 12.174,11.759 12.131 C 11.553 12.049,9.983 11.294,9.459 11.025 L 8.934 10.756 8.959 10.520 C 8.991 10.213,8.990 9.777,8.957 9.482 L 8.931 9.248 9.324 9.043 C 9.540 8.930,10.202 8.605,10.795 8.319 L 11.874 7.801 12.112 8.022 C 12.591 8.468,13.102 8.743,13.760 8.908 C 14.198 9.019,14.892 9.009,15.350 8.887 C 16.604 8.551,17.558 7.597,17.888 6.350 C 17.965 6.059,17.976 5.951,17.977 5.500 C 17.977 5.050,17.966 4.942,17.892 4.664 C 17.777 4.232,17.632 3.896,17.426 3.581 C 17.075 3.043,16.395 2.486,15.820 2.263 C 15.316 2.068,14.650 1.983,14.083 2.040 M14.819 4.036 C 15.247 4.115,15.671 4.457,15.876 4.890 C 15.978 5.105,15.983 5.136,15.982 5.500 C 15.980 5.862,15.974 5.896,15.872 6.108 C 15.812 6.232,15.680 6.423,15.579 6.533 C 14.871 7.297,13.616 7.077,13.157 6.110 C 13.055 5.893,13.050 5.866,13.052 5.483 C 13.053 5.084,13.054 5.083,13.183 4.837 C 13.525 4.188,14.104 3.905,14.819 4.036 M6.000 8.604 C 7.036 8.960,7.325 10.293,6.534 11.067 C 6.019 11.571,5.280 11.638,4.677 11.235 C 4.210 10.923,3.948 10.335,4.033 9.790 C 4.177 8.857,5.106 8.297,6.000 8.604 M15.145 13.178 C 15.464 13.335,15.694 13.561,15.840 13.858 C 15.946 14.075,15.950 14.098,15.950 14.483 C 15.950 14.865,15.945 14.894,15.843 15.110 C 15.623 15.574,15.212 15.886,14.706 15.973 C 14.103 16.076,13.453 15.718,13.172 15.129 C 13.071 14.917,13.067 14.889,13.067 14.495 C 13.067 14.104,13.073 14.073,13.167 13.886 C 13.302 13.620,13.459 13.437,13.680 13.284 C 13.973 13.082,14.160 13.030,14.553 13.042 C 14.866 13.051,14.908 13.060,15.145 13.178 " fill="var(--db-icon-color, currentColor)" stroke="none" fill-rule="evenodd"></path></svg>