<svg id="icon" height="24" viewBox="0 0 24 24" width="24" xmlns="http://www.w3.org/2000/svg"><path d="M7.920 2.040 C 7.621 2.057,7.397 2.092,7.280 2.140 C 7.008 2.251,6.699 2.467,6.519 2.671 C 6.317 2.900,6.092 3.352,6.040 3.635 C 6.018 3.754,6.000 4.334,6.000 4.925 L 6.000 6.000 5.650 6.001 C 4.980 6.003,4.333 6.073,4.036 6.176 C 3.158 6.481,2.462 7.199,2.132 8.140 L 2.020 8.460 2.020 11.960 C 2.020 15.886,2.004 15.654,2.319 16.300 C 2.611 16.898,3.096 17.382,3.700 17.678 C 4.188 17.917,4.403 17.961,5.247 17.988 L 5.993 18.012 6.009 19.216 C 6.025 20.336,6.032 20.437,6.114 20.660 C 6.230 20.976,6.350 21.151,6.649 21.442 C 6.992 21.777,7.289 21.916,7.764 21.961 C 8.254 22.009,15.746 22.009,16.236 21.961 C 16.718 21.915,17.010 21.777,17.358 21.432 C 17.659 21.135,17.767 20.970,17.887 20.633 C 17.970 20.397,17.977 20.299,17.992 19.196 L 18.007 18.012 18.754 17.988 C 19.597 17.961,19.812 17.917,20.300 17.678 C 20.905 17.381,21.391 16.896,21.680 16.300 C 21.996 15.646,21.980 15.881,21.980 12.000 C 21.980 8.115,21.996 8.349,21.677 7.697 C 21.381 7.094,20.873 6.594,20.253 6.295 C 19.858 6.105,19.539 6.047,18.713 6.015 L 18.007 5.988 17.992 4.804 C 17.977 3.701,17.970 3.603,17.887 3.367 C 17.837 3.228,17.750 3.039,17.692 2.947 C 17.529 2.687,17.153 2.349,16.867 2.204 C 16.616 2.076,16.585 2.071,15.934 2.038 C 15.153 1.998,8.603 2.000,7.920 2.040 M16.000 5.000 L 16.000 6.000 12.000 6.000 L 8.000 6.000 8.000 5.000 L 8.000 4.000 12.000 4.000 L 16.000 4.000 16.000 5.000 M19.366 8.071 C 19.529 8.138,19.752 8.352,19.870 8.554 L 19.978 8.737 19.979 11.919 C 19.980 15.462,19.988 15.345,19.710 15.662 C 19.452 15.955,19.388 15.975,18.660 15.992 L 18.020 16.007 17.956 15.674 C 17.921 15.490,17.841 15.232,17.779 15.100 C 17.626 14.773,17.226 14.382,16.860 14.202 C 16.588 14.068,16.562 14.063,15.940 14.035 C 15.109 13.998,8.891 13.998,8.060 14.035 C 7.438 14.063,7.412 14.068,7.140 14.202 C 6.774 14.382,6.374 14.773,6.221 15.100 C 6.159 15.232,6.079 15.490,6.044 15.674 L 5.980 16.007 5.340 15.992 C 4.613 15.975,4.548 15.955,4.292 15.664 C 4.022 15.358,4.027 15.404,4.009 13.100 C 4.000 11.956,4.005 10.492,4.021 9.848 L 4.049 8.675 4.175 8.490 C 4.244 8.389,4.369 8.250,4.454 8.183 L 4.607 8.060 5.634 8.036 C 7.482 7.993,19.249 8.023,19.366 8.071 M6.890 10.037 C 6.531 10.072,6.321 10.209,6.142 10.524 C 6.040 10.705,6.020 10.782,6.021 11.000 C 6.023 11.302,6.117 11.515,6.344 11.736 C 6.586 11.971,6.646 11.980,8.040 11.980 L 9.300 11.980 9.489 11.869 C 9.803 11.684,10.000 11.343,10.000 10.985 C 9.999 10.777,9.853 10.459,9.677 10.283 C 9.429 10.035,9.370 10.024,8.220 10.016 C 7.648 10.011,7.050 10.021,6.890 10.037 M16.000 18.000 L 16.000 20.000 12.000 20.000 L 8.000 20.000 8.000 18.000 L 8.000 16.000 12.000 16.000 L 16.000 16.000 16.000 18.000 " fill="var(--db-icon-color, currentColor)" stroke="none" fill-rule="evenodd"></path></svg>