<svg id="icon" height="20" viewBox="0 0 20 20" width="20" xmlns="http://www.w3.org/2000/svg"><path d="M5.030 4.029 L 4.477 4.050 4.154 4.210 C 3.623 4.474,3.256 4.892,3.080 5.433 C 3.027 5.597,3.019 5.798,3.008 7.305 L 2.995 8.993 2.873 9.016 C 2.544 9.075,2.236 9.304,2.092 9.597 C 1.966 9.853,1.990 10.078,2.315 11.700 C 2.794 14.097,2.919 14.646,3.041 14.895 C 3.207 15.234,3.602 15.617,3.974 15.800 L 4.265 15.944 5.208 15.970 C 5.726 15.984,8.259 15.997,10.836 15.998 C 15.403 16.000,15.528 15.998,15.712 15.935 C 16.066 15.813,16.308 15.661,16.586 15.385 C 17.045 14.929,17.037 14.955,17.631 11.950 C 18.023 9.968,18.027 9.946,17.955 9.719 C 17.850 9.384,17.492 9.076,17.142 9.018 L 17.000 8.994 16.999 8.272 C 16.999 7.243,16.967 6.984,16.799 6.643 C 16.586 6.209,16.153 5.812,15.698 5.633 C 15.428 5.526,14.893 5.502,12.823 5.501 L 10.929 5.500 10.273 4.836 C 9.855 4.413,9.562 4.144,9.467 4.095 L 9.317 4.018 7.450 4.013 C 6.423 4.011,5.334 4.018,5.030 4.029 M9.299 6.682 C 9.735 7.115,10.032 7.385,10.117 7.423 C 10.240 7.479,10.420 7.484,12.625 7.493 L 15.000 7.503 15.000 8.251 L 15.000 9.000 10.000 9.000 L 5.000 9.000 5.000 7.500 L 5.000 6.000 6.807 6.000 L 8.615 6.000 9.299 6.682 " fill="var(--db-icon-color, currentColor)" stroke="none" fill-rule="evenodd"></path></svg>