<svg id="icon" height="24" viewBox="0 0 24 24" width="24" xmlns="http://www.w3.org/2000/svg"><path d="M8.481 2.085 C 8.082 2.169,7.580 2.381,7.253 2.603 C 6.969 2.797,6.494 3.266,6.311 3.535 C 5.656 4.495,5.526 5.627,5.938 6.795 C 5.972 6.890,5.990 6.985,5.977 7.004 C 5.965 7.024,5.700 7.041,5.388 7.042 C 5.075 7.043,4.582 7.059,4.291 7.078 C 3.829 7.107,3.730 7.127,3.511 7.230 C 2.831 7.551,2.272 8.186,2.091 8.844 C 2.025 9.082,2.020 9.441,2.020 14.040 L 2.020 18.980 2.127 19.273 C 2.283 19.701,2.461 19.970,2.804 20.299 C 3.130 20.610,3.533 20.842,3.900 20.927 C 4.047 20.961,6.181 20.977,11.995 20.988 L 19.889 21.004 20.155 20.917 C 21.026 20.634,21.765 19.861,21.931 19.060 C 21.968 18.877,21.980 17.666,21.980 13.960 C 21.980 9.437,21.975 9.082,21.909 8.844 C 21.694 8.064,20.933 7.314,20.159 7.120 C 20.060 7.095,19.548 7.066,19.020 7.055 C 18.492 7.044,18.039 7.028,18.013 7.020 C 17.981 7.010,18.009 6.876,18.100 6.593 C 18.463 5.473,18.338 4.517,17.707 3.580 C 17.332 3.023,16.657 2.481,16.046 2.245 C 15.593 2.070,15.280 2.027,14.606 2.049 C 14.072 2.067,13.990 2.080,13.675 2.196 C 13.194 2.374,12.720 2.678,12.313 3.071 L 11.965 3.407 11.693 3.119 C 11.075 2.463,10.382 2.123,9.500 2.041 C 8.944 1.989,8.936 1.990,8.481 2.085 M9.620 4.087 C 10.290 4.254,10.770 5.046,10.638 5.770 C 10.520 6.424,10.046 6.885,9.371 7.004 C 8.803 7.104,8.123 6.733,7.862 6.181 C 7.517 5.450,7.764 4.620,8.449 4.209 C 8.787 4.006,9.145 3.969,9.620 4.087 M15.061 4.044 C 15.542 4.132,15.953 4.444,16.153 4.872 C 16.248 5.074,16.260 5.148,16.260 5.520 C 16.259 6.022,16.187 6.207,15.861 6.540 C 15.496 6.915,14.974 7.098,14.553 7.000 C 14.049 6.882,13.678 6.597,13.442 6.146 C 13.329 5.930,13.320 5.881,13.320 5.507 C 13.320 5.144,13.332 5.078,13.430 4.881 C 13.641 4.457,14.084 4.113,14.511 4.041 C 14.783 3.995,14.801 3.996,15.061 4.044 M11.000 10.000 L 11.000 11.000 7.496 11.000 L 3.992 11.000 4.008 10.170 C 4.026 9.297,4.050 9.169,4.214 9.085 C 4.345 9.019,4.507 9.015,7.870 9.007 L 11.000 9.000 11.000 10.000 M19.824 9.125 C 19.968 9.270,19.996 9.459,19.998 10.290 L 20.000 11.000 16.500 11.000 L 13.000 11.000 13.000 9.998 L 13.000 8.996 16.359 9.008 L 19.718 9.020 19.824 9.125 M11.000 16.002 L 11.000 19.003 7.690 18.992 C 5.216 18.983,4.353 18.968,4.272 18.932 C 4.213 18.905,4.132 18.834,4.092 18.774 C 4.025 18.671,4.019 18.481,4.008 15.832 L 3.996 13.000 7.498 13.000 L 11.000 13.000 11.000 16.002 M19.992 15.810 C 19.982 17.854,19.965 18.649,19.931 18.728 C 19.905 18.787,19.834 18.868,19.774 18.908 C 19.670 18.976,19.464 18.981,16.332 18.991 L 13.000 19.002 13.000 16.001 L 13.000 13.000 16.503 13.000 L 20.005 13.000 19.992 15.810 " fill="var(--db-icon-color, currentColor)" stroke="none" fill-rule="evenodd"></path></svg>