<svg id="icon" height="20" viewBox="0 0 20 20" width="20" xmlns="http://www.w3.org/2000/svg"><path d="M15.817 3.034 C 15.743 3.045,15.621 3.087,15.545 3.126 C 15.466 3.167,15.011 3.587,14.490 4.099 L 13.574 5.001 13.075 4.756 C 12.073 4.266,11.345 4.082,10.250 4.044 C 8.978 4.000,8.018 4.205,6.883 4.765 C 5.871 5.265,5.054 5.897,4.105 6.916 C 3.461 7.607,2.452 8.940,2.166 9.476 C 1.905 9.965,1.945 10.209,2.397 10.894 C 2.938 11.712,3.556 12.480,4.341 13.311 L 4.777 13.772 4.578 13.977 C 4.469 14.091,4.118 14.454,3.798 14.785 C 3.104 15.504,3.022 15.631,3.024 15.990 C 3.025 16.184,3.044 16.270,3.115 16.416 C 3.328 16.852,3.811 17.066,4.284 16.933 C 4.424 16.894,4.561 16.772,5.579 15.782 C 7.117 14.285,15.994 5.385,16.449 4.883 C 16.649 4.663,16.855 4.416,16.908 4.333 C 16.999 4.193,17.004 4.168,16.984 3.956 C 16.957 3.669,16.873 3.473,16.708 3.308 C 16.479 3.079,16.164 2.982,15.817 3.034 M10.756 6.103 C 11.052 6.138,11.621 6.288,11.876 6.397 C 12.018 6.458,12.032 6.473,12.001 6.531 C 11.982 6.567,11.640 6.928,11.241 7.333 L 10.517 8.069 10.383 8.031 C 10.183 7.973,9.593 8.008,9.359 8.093 C 8.548 8.384,8.000 9.137,8.000 9.959 C 8.000 10.094,8.017 10.272,8.038 10.355 L 8.076 10.507 7.147 11.436 L 6.218 12.365 6.106 12.258 C 5.952 12.110,5.271 11.349,4.967 10.985 C 4.541 10.474,4.267 10.089,4.267 10.005 C 4.267 9.814,5.339 8.491,6.055 7.797 C 6.896 6.982,7.817 6.438,8.795 6.180 C 9.317 6.041,10.015 6.014,10.756 6.103 M15.843 8.408 L 15.137 9.117 15.452 9.548 C 15.625 9.786,15.767 9.989,15.767 10.000 C 15.767 10.010,15.615 10.221,15.430 10.468 C 13.763 12.690,12.310 13.731,10.546 13.968 L 10.241 14.008 9.347 14.903 C 8.327 15.923,8.371 15.816,8.933 15.914 C 9.362 15.989,10.335 16.020,10.717 15.970 C 12.201 15.778,13.548 15.184,14.733 14.200 C 15.138 13.864,15.818 13.184,16.227 12.708 C 16.818 12.019,17.690 10.818,17.898 10.406 C 18.047 10.109,18.011 9.741,17.798 9.392 C 17.637 9.129,16.599 7.704,16.566 7.701 C 16.557 7.701,16.232 8.019,15.843 8.408 " fill="var(--db-icon-color, currentColor)" stroke="none" fill-rule="evenodd"></path></svg>