<svg id="icon" height="24" viewBox="0 0 24 24" width="24" xmlns="http://www.w3.org/2000/svg"><path d="M11.773 2.039 C 11.547 2.073,11.309 2.247,11.151 2.494 L 11.020 2.698 11.007 3.383 L 10.994 4.068 10.673 4.137 C 8.463 4.611,6.897 6.262,6.285 8.760 C 6.027 9.814,6.028 9.788,6.010 13.339 L 5.994 16.578 4.580 18.005 C 3.802 18.790,3.134 19.492,3.095 19.566 C 2.999 19.746,2.997 20.249,3.091 20.426 C 3.183 20.600,3.378 20.787,3.575 20.890 C 3.795 21.005,4.196 21.012,4.415 20.903 C 4.514 20.854,6.738 18.665,10.511 14.903 C 16.830 8.603,19.797 5.599,19.902 5.396 C 20.161 4.896,19.840 4.227,19.262 4.059 C 19.004 3.984,18.787 4.005,18.541 4.130 C 18.453 4.175,17.961 4.627,17.441 5.141 L 16.500 6.071 16.080 5.672 C 15.849 5.453,15.543 5.185,15.400 5.076 C 14.890 4.690,13.967 4.282,13.319 4.158 C 13.177 4.131,13.052 4.101,13.042 4.093 C 13.032 4.084,13.012 3.786,12.997 3.429 C 12.968 2.707,12.935 2.586,12.701 2.327 C 12.490 2.092,12.140 1.984,11.773 2.039 M12.970 6.117 C 13.683 6.300,14.049 6.515,14.698 7.132 L 15.055 7.473 14.730 7.826 C 14.551 8.021,12.964 9.620,11.203 11.380 L 8.000 14.580 8.001 12.820 C 8.002 11.852,8.018 10.790,8.038 10.460 C 8.130 8.885,8.699 7.554,9.596 6.814 C 10.070 6.423,10.779 6.116,11.387 6.039 C 11.801 5.987,12.617 6.027,12.970 6.117 M16.966 11.260 L 15.992 12.220 16.013 13.700 C 16.031 15.009,16.043 15.217,16.114 15.500 C 16.200 15.840,16.421 16.496,16.556 16.810 L 16.637 17.000 13.928 17.000 L 11.219 17.000 10.025 18.195 L 8.831 19.389 8.899 19.625 C 9.149 20.487,9.810 21.268,10.620 21.659 C 11.146 21.913,11.439 21.977,12.060 21.975 C 12.515 21.973,12.622 21.959,12.920 21.863 C 13.750 21.594,14.393 21.080,14.836 20.330 C 15.016 20.026,15.181 19.563,15.223 19.250 C 15.238 19.134,15.252 19.039,15.255 19.037 C 15.258 19.035,16.169 19.020,17.280 19.003 C 19.537 18.969,19.420 18.984,19.722 18.673 C 20.003 18.384,20.070 17.930,19.884 17.570 C 19.797 17.401,19.651 17.256,19.294 16.987 C 18.655 16.505,18.281 15.955,18.136 15.283 C 18.066 14.961,18.004 13.519,17.996 12.020 C 17.992 11.404,17.978 10.765,17.965 10.600 L 17.940 10.300 16.966 11.260 M13.218 19.090 C 13.174 19.239,12.960 19.553,12.826 19.666 C 12.373 20.048,11.675 20.063,11.249 19.699 C 11.086 19.559,10.870 19.251,10.822 19.090 L 10.795 19.000 12.020 19.000 L 13.245 19.000 13.218 19.090 " fill="var(--db-icon-color, currentColor)" stroke="none" fill-rule="evenodd"></path></svg>