<svg id="icon" height="20" viewBox="0 0 20 20" width="20" xmlns="http://www.w3.org/2000/svg"><path d="M8.967 2.030 L 7.917 2.050 7.736 2.145 C 7.515 2.261,7.266 2.511,7.167 2.716 C 7.112 2.830,7.085 2.972,7.062 3.260 C 7.045 3.481,7.035 5.684,7.041 8.334 L 7.050 13.018 7.160 13.241 C 7.292 13.509,7.547 13.769,7.800 13.893 L 7.983 13.983 12.033 13.983 L 16.083 13.983 16.274 13.894 C 16.548 13.766,16.683 13.648,16.860 13.383 L 17.017 13.150 17.025 8.051 L 17.034 2.952 16.944 2.768 C 16.829 2.531,16.534 2.236,16.300 2.125 L 16.117 2.038 13.067 2.024 C 11.389 2.016,9.544 2.019,8.967 2.030 M3.698 6.043 C 3.381 6.133,3.184 6.316,3.064 6.632 C 3.002 6.796,3.000 6.947,3.000 11.977 L 3.000 17.154 3.085 17.325 C 3.191 17.537,3.544 17.873,3.739 17.948 C 3.873 17.999,4.196 18.002,7.584 17.992 C 10.504 17.983,11.311 17.971,11.417 17.937 C 11.597 17.878,11.848 17.604,11.937 17.368 C 12.114 16.899,11.878 16.344,11.396 16.098 C 11.257 16.027,11.243 16.026,8.131 16.008 L 5.006 15.990 4.994 11.370 C 4.983 6.767,4.983 6.749,4.913 6.600 C 4.715 6.172,4.153 5.915,3.698 6.043 " fill="var(--db-icon-color, currentColor)" stroke="none" fill-rule="evenodd"></path></svg>