<svg id="icon" height="32" viewBox="0 0 32 32" width="32" xmlns="http://www.w3.org/2000/svg"><path d="M14.907 2.083 C 12.637 2.277,10.159 3.577,8.613 5.384 C 7.683 6.472,6.933 7.858,6.577 9.147 C 6.052 11.053,6.084 13.035,6.669 14.820 C 7.117 16.184,7.651 17.007,9.337 18.933 C 9.632 19.271,9.993 19.727,10.139 19.947 C 10.381 20.311,10.459 20.508,10.661 21.259 C 10.738 21.547,10.906 21.754,11.142 21.854 C 11.379 21.955,15.253 22.040,18.480 22.016 C 20.482 22.001,20.569 21.996,20.809 21.885 C 21.131 21.736,21.293 21.485,21.434 20.912 C 21.600 20.246,21.904 19.780,22.937 18.613 C 24.648 16.680,25.326 15.411,25.658 13.519 C 25.802 12.698,25.831 11.137,25.715 10.427 C 25.249 7.568,23.722 5.188,21.351 3.624 C 19.456 2.373,17.363 1.873,14.907 2.083 M17.391 4.138 C 18.076 4.253,18.903 4.535,19.562 4.879 C 21.529 5.907,22.939 7.677,23.559 9.898 C 23.703 10.414,23.706 10.459,23.707 11.840 C 23.707 13.229,23.704 13.262,23.556 13.787 C 23.291 14.727,22.764 15.703,22.070 16.542 C 21.916 16.728,21.542 17.164,21.239 17.510 C 20.495 18.360,20.131 18.864,19.813 19.481 L 19.547 19.999 18.280 19.999 L 17.013 20.000 17.013 18.653 L 17.014 17.307 17.618 16.474 C 17.950 16.015,18.276 15.524,18.343 15.382 C 18.494 15.060,18.471 14.753,18.273 14.454 C 18.080 14.162,17.862 14.058,17.436 14.056 C 16.995 14.053,16.846 14.156,16.367 14.796 C 16.180 15.046,16.015 15.250,16.000 15.250 C 15.985 15.250,15.820 15.046,15.633 14.796 C 15.037 14.000,14.665 13.842,14.080 14.136 C 13.566 14.394,13.409 14.908,13.681 15.443 C 13.755 15.588,14.079 16.067,14.401 16.507 L 14.986 17.307 14.986 18.653 L 14.987 20.000 13.720 19.999 L 12.453 19.999 12.187 19.481 C 11.861 18.848,11.518 18.378,10.696 17.440 C 9.702 16.305,9.109 15.478,8.800 14.792 C 8.384 13.872,8.266 13.228,8.268 11.873 C 8.269 10.728,8.308 10.371,8.508 9.680 C 9.321 6.873,11.593 4.766,14.453 4.167 C 15.117 4.028,16.646 4.013,17.391 4.138 M13.050 6.020 C 12.493 6.315,11.987 6.685,11.489 7.160 C 10.937 7.686,10.558 8.204,10.179 8.948 C 9.971 9.357,9.920 9.510,9.920 9.725 C 9.920 10.403,10.515 10.890,11.137 10.723 C 11.446 10.639,11.654 10.408,12.027 9.731 C 12.428 9.002,12.974 8.428,13.738 7.931 C 14.029 7.741,14.317 7.529,14.379 7.460 C 14.734 7.061,14.658 6.389,14.219 6.054 C 14.072 5.942,13.950 5.902,13.694 5.882 C 13.396 5.859,13.326 5.874,13.050 6.020 M12.716 23.034 C 11.599 23.066,11.590 23.068,11.403 23.210 C 11.200 23.366,11.050 23.632,11.003 23.922 C 10.959 24.191,11.201 24.657,11.481 24.843 L 11.699 24.987 15.996 24.987 L 20.293 24.987 20.481 24.870 C 21.134 24.464,21.168 23.608,20.547 23.185 L 20.347 23.049 17.093 23.026 C 15.304 23.012,13.334 23.016,12.716 23.034 M11.480 26.183 C 11.219 26.373,11.108 26.523,11.037 26.787 C 10.934 27.166,11.170 27.682,11.536 27.878 C 11.673 27.952,11.885 27.974,12.600 27.990 L 13.493 28.011 13.495 28.525 C 13.496 29.188,13.551 29.411,13.769 29.638 C 14.124 30.007,14.080 30.000,16.000 30.000 C 17.918 30.000,17.876 30.007,18.228 29.641 C 18.456 29.403,18.507 29.206,18.507 28.552 L 18.507 28.009 19.404 27.991 C 20.283 27.974,20.306 27.970,20.526 27.825 C 20.796 27.646,20.945 27.416,20.991 27.109 C 21.037 26.804,20.855 26.436,20.543 26.200 L 20.312 26.027 16.004 26.027 L 11.696 26.027 11.480 26.183 " fill="var(--db-icon-color, currentColor)" stroke="none" fill-rule="evenodd"></path></svg>