<svg id="icon" height="20" viewBox="0 0 20 20" width="20" xmlns="http://www.w3.org/2000/svg"><path d="M5.250 3.032 C 4.714 3.049,4.516 3.067,4.406 3.110 C 3.781 3.352,3.320 3.819,3.082 4.449 L 2.998 4.673 3.007 10.012 L 3.017 15.350 3.113 15.600 C 3.351 16.220,3.827 16.690,4.442 16.915 L 4.683 17.003 10.000 16.992 C 14.947 16.982,15.330 16.977,15.514 16.923 C 15.777 16.845,15.987 16.727,16.251 16.509 C 16.524 16.285,16.726 16.012,16.871 15.676 L 16.983 15.417 16.992 10.050 L 17.002 4.683 16.931 4.483 C 16.690 3.805,16.177 3.302,15.500 3.080 C 15.327 3.023,15.051 3.019,10.633 3.015 C 8.057 3.013,5.635 3.021,5.250 3.032 M15.000 7.788 L 15.000 10.576 14.320 9.907 C 13.498 9.099,13.401 9.034,13.007 9.034 C 12.801 9.033,12.699 9.049,12.606 9.097 C 12.407 9.199,11.988 9.589,10.821 10.759 L 9.726 11.858 8.521 11.455 C 7.319 11.052,7.316 11.051,6.998 11.051 L 6.678 11.050 5.859 11.456 C 5.408 11.679,5.030 11.853,5.020 11.842 C 5.009 11.831,5.000 10.287,5.000 8.411 L 5.000 5.000 10.000 5.000 L 15.000 5.000 15.000 7.788 M7.219 6.035 C 6.838 6.099,6.361 6.449,6.186 6.794 C 5.979 7.203,5.953 7.615,6.107 8.029 C 6.244 8.393,6.601 8.752,6.972 8.896 C 7.268 9.012,7.731 9.015,8.008 8.905 C 8.736 8.615,9.152 7.814,8.939 7.111 C 8.762 6.527,8.313 6.130,7.723 6.034 C 7.491 5.996,7.451 5.996,7.219 6.035 " fill="var(--db-icon-color, currentColor)" stroke="none" fill-rule="evenodd"></path></svg>