<svg id="icon" height="32" viewBox="0 0 32 32" width="32" xmlns="http://www.w3.org/2000/svg"><path d="M14.347 2.112 C 12.071 2.412,10.105 3.141,8.256 4.370 C 5.009 6.529,2.881 9.821,2.186 13.760 C 2.037 14.606,1.982 16.476,2.078 17.420 C 2.337 19.975,3.311 22.419,4.901 24.507 C 5.384 25.141,6.671 26.450,7.307 26.953 C 9.028 28.314,10.967 29.221,13.177 29.699 C 14.698 30.028,16.754 30.072,18.267 29.809 C 20.415 29.434,22.552 28.545,24.161 27.357 C 27.503 24.889,29.551 21.320,29.924 17.313 C 30.003 16.468,29.959 14.694,29.842 13.956 C 29.363 10.947,28.139 8.473,26.056 6.304 C 24.295 4.470,21.991 3.114,19.565 2.485 C 18.463 2.199,18.020 2.135,16.737 2.080 C 15.264 2.016,15.047 2.019,14.347 2.112 M21.094 15.040 C 22.292 15.040,22.337 15.044,22.511 15.161 C 22.820 15.370,22.933 15.593,22.933 15.995 C 22.933 16.427,22.824 16.630,22.470 16.854 L 22.219 17.013 16.000 17.013 L 9.781 17.013 9.530 16.854 C 9.173 16.628,9.067 16.429,9.067 15.982 C 9.067 15.575,9.149 15.407,9.455 15.189 C 9.621 15.071,9.674 15.066,11.147 15.034 C 11.983 15.016,14.285 15.010,16.262 15.020 C 18.240 15.031,20.414 15.040,21.094 15.040 " fill="var(--db-icon-color, currentColor)" stroke="none" fill-rule="evenodd"></path></svg>