<svg id="icon" height="24" viewBox="0 0 24 24" width="24" xmlns="http://www.w3.org/2000/svg"><path d="M11.120 2.043 C 10.245 2.126,9.232 2.360,8.471 2.655 C 5.375 3.853,3.085 6.434,2.303 9.607 C 2.114 10.376,2.042 10.891,2.013 11.680 C 1.920 14.253,2.860 16.799,4.606 18.704 C 6.222 20.468,8.244 21.544,10.620 21.905 C 11.283 22.006,12.711 22.007,13.360 21.908 C 15.460 21.585,17.229 20.747,18.745 19.353 C 20.468 17.771,21.560 15.708,21.906 13.379 C 22.005 12.716,22.005 11.287,21.907 10.627 C 21.815 10.013,21.594 9.134,21.392 8.585 C 20.139 5.172,17.066 2.647,13.553 2.141 C 12.691 2.017,11.782 1.980,11.120 2.043 M12.500 7.157 C 12.610 7.218,12.752 7.341,12.815 7.430 C 12.973 7.653,12.995 7.919,12.998 9.610 L 13.000 11.000 14.410 11.002 C 15.185 11.003,15.953 11.019,16.115 11.038 C 16.482 11.080,16.680 11.209,16.854 11.517 C 16.955 11.697,16.976 11.779,16.977 11.997 C 16.978 12.300,16.906 12.480,16.695 12.698 C 16.394 13.007,16.439 13.000,14.626 13.000 L 13.008 13.000 12.993 14.630 C 12.976 16.442,12.982 16.401,12.695 16.697 C 12.477 16.921,12.340 16.976,12.000 16.976 C 11.660 16.976,11.523 16.921,11.305 16.697 C 11.018 16.401,11.024 16.442,11.007 14.630 L 10.992 13.000 9.364 13.000 L 7.736 13.000 7.538 12.876 C 7.182 12.654,7.026 12.387,7.025 11.998 C 7.024 11.778,7.043 11.700,7.146 11.518 C 7.320 11.209,7.517 11.080,7.885 11.038 C 8.047 11.019,8.812 11.003,9.584 11.002 L 10.989 11.000 11.008 9.350 C 11.030 7.505,11.019 7.577,11.327 7.278 C 11.632 6.982,12.098 6.934,12.500 7.157 " fill="var(--db-icon-color, currentColor)" stroke="none" fill-rule="evenodd"></path></svg>