<svg id="icon" height="24" viewBox="0 0 24 24" width="24" xmlns="http://www.w3.org/2000/svg"><path d="M11.320 2.027 C 10.705 2.071,9.659 2.265,9.085 2.441 C 6.453 3.251,4.230 5.141,3.041 7.580 C 2.232 9.240,1.927 10.793,2.038 12.694 C 2.130 14.281,2.647 15.877,3.530 17.300 C 4.979 19.637,7.361 21.267,10.140 21.824 C 10.824 21.961,11.834 22.018,12.669 21.967 C 15.444 21.795,18.022 20.443,19.812 18.220 C 21.083 16.642,21.844 14.687,21.963 12.692 C 22.056 11.118,21.844 9.727,21.299 8.335 C 20.321 5.840,18.239 3.738,15.760 2.739 C 14.679 2.304,13.687 2.097,12.402 2.040 C 11.928 2.018,11.531 2.004,11.520 2.008 C 11.509 2.011,11.419 2.020,11.320 2.027 M16.963 8.510 C 17.210 8.635,17.458 8.931,17.499 9.150 C 17.543 9.383,17.481 9.706,17.361 9.873 C 17.205 10.088,13.686 13.634,12.009 15.265 C 10.672 16.566,10.586 16.642,10.377 16.703 C 10.099 16.784,9.897 16.752,9.671 16.591 C 9.439 16.426,6.671 13.652,6.565 13.478 C 6.496 13.366,6.480 13.275,6.480 12.997 C 6.480 12.679,6.489 12.640,6.605 12.465 C 6.830 12.125,7.301 11.934,7.654 12.039 C 7.878 12.106,8.045 12.246,9.001 13.179 C 9.452 13.620,9.896 14.050,9.988 14.135 L 10.155 14.291 13.021 11.442 C 16.147 8.336,16.071 8.401,16.523 8.400 C 16.687 8.400,16.803 8.429,16.963 8.510 " fill="var(--db-icon-color, currentColor)" stroke="none" fill-rule="evenodd"></path></svg>