<svg id="icon" height="32" viewBox="0 0 32 32" width="32" xmlns="http://www.w3.org/2000/svg"><path d="M7.947 4.154 C 6.504 4.470,5.236 5.150,4.266 6.127 C 3.160 7.241,2.571 8.269,2.208 9.720 C 2.019 10.477,1.970 11.838,2.104 12.646 C 2.286 13.741,2.716 14.804,3.329 15.674 C 3.635 16.108,5.990 18.448,11.227 23.523 C 14.958 27.138,15.425 27.578,15.626 27.665 C 15.753 27.720,15.904 27.736,16.098 27.716 C 16.424 27.683,16.241 27.835,18.240 25.925 C 20.830 23.449,24.549 19.829,26.460 17.922 C 28.203 16.182,28.513 15.849,28.824 15.376 C 30.030 13.540,30.323 11.162,29.606 9.023 C 28.943 7.044,27.299 5.325,25.311 4.531 C 24.465 4.193,23.963 4.098,22.879 4.067 C 21.769 4.037,21.141 4.107,20.374 4.350 C 19.073 4.761,18.208 5.332,16.781 6.721 L 15.974 7.507 15.090 6.647 C 14.103 5.687,13.457 5.195,12.667 4.802 C 11.566 4.255,10.895 4.103,9.467 4.075 C 8.570 4.058,8.328 4.071,7.947 4.154 " fill="var(--db-icon-color, currentColor)" stroke="none" fill-rule="evenodd"></path></svg>