<svg id="icon" height="32" viewBox="0 0 32 32" width="32" xmlns="http://www.w3.org/2000/svg"><path d="M20.613 3.023 C 19.250 3.194,15.897 4.173,12.445 5.408 L 11.156 5.869 10.809 5.627 C 9.962 5.035,9.631 4.989,6.480 5.027 C 4.442 5.051,4.332 5.058,4.011 5.172 C 3.266 5.437,2.521 6.163,2.205 6.932 C 2.078 7.244,2.058 7.377,2.022 8.213 C 1.999 8.727,1.979 11.011,1.977 13.290 L 1.973 17.434 2.112 17.823 C 2.189 18.038,2.320 18.335,2.404 18.483 C 2.724 19.049,3.401 19.603,4.068 19.844 C 4.388 19.960,4.482 19.965,6.613 19.987 C 7.863 19.999,9.024 19.986,9.280 19.957 C 9.832 19.894,10.243 19.744,10.697 19.439 L 11.041 19.209 11.715 19.698 C 13.704 21.141,15.526 22.952,16.535 24.488 C 16.961 25.136,17.294 25.840,17.688 26.928 C 18.157 28.221,18.405 28.555,19.117 28.846 C 19.374 28.952,19.538 28.979,19.920 28.983 C 21.300 28.994,22.281 28.170,22.803 26.560 C 22.933 26.157,22.952 26.005,22.974 25.196 C 22.995 24.423,22.981 24.198,22.886 23.703 C 22.737 22.927,22.410 21.858,22.023 20.884 C 21.849 20.447,21.720 20.076,21.736 20.060 C 21.752 20.043,22.934 20.015,24.363 19.996 C 27.267 19.957,27.289 19.955,28.100 19.565 C 29.091 19.089,29.675 18.196,29.893 16.827 C 30.276 14.422,29.718 11.680,28.277 8.883 C 27.554 7.480,26.745 6.364,25.683 5.305 C 24.942 4.565,24.310 4.092,23.523 3.687 C 22.784 3.307,22.345 3.165,21.600 3.064 C 21.044 2.989,20.921 2.984,20.613 3.023 M21.425 5.064 C 23.090 5.256,25.183 7.289,26.616 10.107 C 27.135 11.129,27.422 11.872,27.694 12.907 C 27.910 13.729,27.912 13.740,27.934 14.892 C 27.976 17.027,27.781 17.639,26.974 17.900 C 26.726 17.980,26.287 17.994,23.169 18.022 L 19.645 18.053 19.448 18.187 C 19.188 18.362,18.961 18.810,19.003 19.065 C 19.019 19.166,19.248 19.687,19.511 20.224 C 20.090 21.406,20.518 22.475,20.755 23.333 C 20.925 23.951,20.932 24.008,20.933 24.960 C 20.933 25.932,20.931 25.952,20.782 26.274 C 20.578 26.716,20.342 26.938,20.041 26.972 L 19.807 26.998 19.738 26.766 C 19.240 25.083,18.456 23.584,17.357 22.208 C 16.834 21.553,15.195 19.902,14.480 19.310 C 13.968 18.886,12.770 17.976,12.249 17.614 L 12.000 17.442 12.000 12.567 L 12.000 7.692 12.920 7.361 C 16.075 6.225,19.572 5.172,20.531 5.070 C 20.752 5.047,20.945 5.025,20.960 5.021 C 20.975 5.017,21.184 5.037,21.425 5.064 M9.518 7.187 C 9.636 7.270,9.786 7.418,9.853 7.517 L 9.973 7.696 9.969 12.101 C 9.966 14.524,9.948 16.715,9.929 16.969 C 9.888 17.505,9.804 17.658,9.435 17.867 L 9.200 18.000 7.013 18.000 L 4.827 18.000 4.570 17.874 C 4.408 17.794,4.260 17.667,4.170 17.531 L 4.027 17.314 4.027 12.511 L 4.027 7.707 4.150 7.508 C 4.302 7.264,4.509 7.111,4.781 7.041 C 4.908 7.009,5.816 6.998,7.146 7.013 L 9.305 7.037 9.518 7.187 " fill="var(--db-icon-color, currentColor)" stroke="none" fill-rule="evenodd"></path></svg>