<svg id="icon" height="32" viewBox="0 0 32 32" width="32" xmlns="http://www.w3.org/2000/svg"><path d="M14.880 4.061 C 14.158 4.130,12.927 4.388,12.218 4.619 C 10.602 5.145,8.605 6.382,7.436 7.582 C 5.750 9.314,4.587 11.609,4.154 14.058 C 3.990 14.985,3.975 16.835,4.124 17.733 C 4.628 20.774,6.044 23.284,8.347 25.217 C 10.425 26.963,13.279 28.000,16.000 28.000 C 19.631 28.000,23.335 26.193,25.447 23.392 C 26.334 22.216,26.905 21.141,27.362 19.787 C 28.049 17.751,28.177 15.765,27.756 13.653 C 27.601 12.876,27.201 11.655,26.865 10.933 C 25.943 8.954,24.383 7.159,22.560 5.978 C 20.816 4.848,18.831 4.173,16.987 4.081 C 15.733 4.018,15.369 4.015,14.880 4.061 M17.261 6.108 C 17.859 6.143,18.986 6.437,19.791 6.768 C 21.858 7.618,23.637 9.198,24.711 11.135 C 25.256 12.118,25.700 13.374,25.867 14.405 C 25.960 14.985,25.909 17.548,25.794 18.053 C 25.486 19.401,24.603 21.286,23.869 22.160 L 23.735 22.320 16.718 15.293 C 12.858 11.429,9.715 8.243,9.733 8.213 C 9.813 8.085,10.967 7.374,11.628 7.046 C 13.407 6.163,14.660 5.955,17.261 6.108 M15.627 17.039 L 22.320 23.739 22.160 23.872 C 21.279 24.604,19.687 25.375,18.373 25.706 C 17.288 25.978,15.683 26.058,14.590 25.893 C 10.303 25.247,6.973 22.029,6.161 17.748 C 6.032 17.067,6.047 14.817,6.186 14.137 C 6.492 12.634,7.026 11.404,7.936 10.104 L 8.219 9.700 8.576 10.020 C 8.773 10.196,11.945 13.355,15.627 17.039 " fill="var(--db-icon-color, currentColor)" stroke="none" fill-rule="evenodd"></path></svg>