<svg id="icon" height="20" viewBox="0 0 20 20" width="20" xmlns="http://www.w3.org/2000/svg"><path d="M9.400 2.051 C 8.574 2.180,7.778 2.586,7.182 3.182 C 6.684 3.681,6.365 4.230,6.143 4.972 C 6.055 5.268,6.050 5.317,6.050 5.950 C 6.050 6.711,6.085 6.923,6.305 7.488 C 6.734 8.595,7.822 9.560,8.980 9.864 C 10.208 10.185,11.503 9.907,12.511 9.104 C 13.791 8.086,14.314 6.307,13.799 4.729 C 13.746 4.569,13.664 4.358,13.615 4.261 C 13.215 3.462,12.470 2.744,11.649 2.364 C 11.224 2.168,10.833 2.075,10.267 2.035 C 9.705 1.995,9.762 1.994,9.400 2.051 M6.150 12.031 C 5.394 12.051,5.336 12.057,5.090 12.143 C 4.557 12.329,4.223 12.546,3.828 12.959 C 3.533 13.268,3.313 13.623,3.165 14.031 C 3.032 14.396,3.003 14.778,3.001 16.196 C 3.000 17.210,3.002 17.247,3.074 17.390 C 3.187 17.617,3.342 17.778,3.560 17.894 L 3.759 18.000 9.997 18.000 L 16.236 18.000 16.402 17.916 C 16.616 17.807,16.808 17.614,16.918 17.398 L 17.005 17.226 16.992 15.872 L 16.980 14.517 16.891 14.229 C 16.712 13.648,16.491 13.267,16.125 12.905 C 15.845 12.629,15.587 12.453,15.181 12.259 C 14.903 12.127,14.802 12.096,14.550 12.070 C 14.190 12.032,7.288 12.000,6.150 12.031 " fill="var(--db-icon-color, currentColor)" stroke="none" fill-rule="evenodd"></path></svg>