<svg id="icon" height="20" viewBox="0 0 20 20" width="20" xmlns="http://www.w3.org/2000/svg"><path d="M8.888 2.101 C 7.214 2.404,5.831 3.459,5.066 5.018 C 4.853 5.452,4.598 6.225,4.484 6.783 C 4.371 7.332,4.346 7.952,4.317 10.817 C 4.299 12.669,4.289 12.964,4.232 13.317 C 4.161 13.754,4.138 13.853,4.010 14.250 C 3.883 14.643,3.834 14.724,3.498 15.087 C 3.113 15.501,3.022 15.683,3.021 16.033 C 3.020 16.326,3.089 16.489,3.305 16.705 C 3.546 16.946,3.900 17.047,4.229 16.968 C 4.365 16.935,4.459 16.875,4.691 16.673 C 5.056 16.355,13.423 8.013,15.420 5.976 C 16.853 4.514,16.899 4.462,16.953 4.278 C 17.087 3.816,16.874 3.340,16.433 3.117 C 16.298 3.048,16.221 3.033,15.995 3.033 C 15.609 3.033,15.520 3.086,14.934 3.655 L 14.441 4.134 14.256 3.908 C 13.530 3.025,12.487 2.407,11.250 2.127 C 10.794 2.024,9.399 2.008,8.888 2.101 M10.973 4.128 C 11.757 4.337,12.429 4.796,12.848 5.410 L 12.980 5.603 9.657 8.927 L 6.333 12.250 6.334 10.450 C 6.335 8.484,6.369 7.504,6.452 7.067 C 6.529 6.662,6.674 6.229,6.848 5.888 C 7.368 4.870,8.137 4.297,9.274 4.081 C 9.642 4.011,10.637 4.039,10.973 4.128 M14.625 9.592 L 13.667 10.550 13.667 11.467 C 13.667 12.600,13.726 13.255,13.889 13.925 L 13.907 14.000 12.062 14.000 L 10.216 14.000 9.102 15.114 L 7.988 16.229 8.028 16.407 C 8.079 16.634,8.256 16.987,8.436 17.221 C 8.824 17.723,9.511 18.034,10.134 17.988 C 10.430 17.967,10.804 17.847,11.031 17.701 C 11.237 17.569,11.675 17.114,11.764 16.938 C 11.860 16.750,12.000 16.251,12.000 16.096 L 12.000 15.967 14.163 15.967 L 16.327 15.967 16.517 15.839 C 16.963 15.539,17.111 15.013,16.882 14.545 C 16.815 14.407,16.720 14.305,16.436 14.069 C 15.969 13.679,15.822 13.483,15.733 13.127 C 15.708 13.031,15.687 12.227,15.673 10.817 C 15.658 9.419,15.638 8.652,15.617 8.644 C 15.598 8.638,15.152 9.065,14.625 9.592 " fill="var(--db-icon-color, currentColor)" stroke="none" fill-rule="evenodd"></path></svg>