<svg id="icon" height="24" viewBox="0 0 24 24" width="24" xmlns="http://www.w3.org/2000/svg"><path d="M13.140 3.098 C 12.158 3.288,11.329 3.599,10.670 4.024 L 10.399 4.199 10.150 4.141 C 7.478 3.526,4.787 5.178,4.145 7.825 C 4.092 8.048,4.035 8.348,4.019 8.493 C 3.991 8.753,3.989 8.756,3.766 8.932 C 2.358 10.039,1.705 11.894,2.137 13.560 C 2.349 14.380,2.677 14.979,3.235 15.567 C 3.895 16.262,4.609 16.665,5.620 16.911 C 5.828 16.962,6.076 16.979,6.580 16.980 C 7.253 16.980,7.262 16.979,7.460 16.867 C 7.704 16.729,7.834 16.571,7.927 16.304 C 8.015 16.050,8.016 15.950,7.937 15.684 C 7.859 15.419,7.598 15.144,7.367 15.082 C 7.278 15.058,6.934 15.021,6.601 15.000 C 6.136 14.970,5.932 14.939,5.715 14.864 C 5.002 14.616,4.452 14.085,4.157 13.360 C 4.048 13.092,4.002 12.266,4.077 11.917 C 4.200 11.341,4.707 10.665,5.254 10.345 C 5.579 10.155,5.824 9.947,5.903 9.795 C 5.942 9.719,5.978 9.466,6.003 9.089 C 6.053 8.353,6.108 8.135,6.368 7.626 C 6.659 7.058,7.057 6.660,7.620 6.372 C 7.840 6.259,8.119 6.140,8.240 6.106 C 8.770 5.958,9.375 5.989,10.063 6.201 C 10.688 6.393,10.876 6.358,11.423 5.948 C 11.872 5.611,12.192 5.425,12.579 5.275 C 13.052 5.093,13.355 5.041,13.966 5.041 C 14.622 5.040,14.988 5.103,15.466 5.301 C 16.333 5.660,16.854 6.088,17.350 6.848 C 17.671 7.340,17.793 7.672,17.979 8.560 C 18.070 8.995,18.168 9.140,18.575 9.446 C 18.770 9.593,19.001 9.782,19.088 9.866 C 19.444 10.210,19.774 10.776,19.898 11.258 C 19.995 11.631,19.982 12.478,19.876 12.826 C 19.654 13.552,19.133 14.215,18.485 14.597 C 18.170 14.783,17.731 14.917,17.225 14.983 C 16.519 15.075,16.335 15.164,16.131 15.511 C 16.038 15.670,16.020 15.745,16.021 15.980 C 16.023 16.321,16.114 16.517,16.380 16.752 C 16.620 16.963,16.853 17.020,17.330 16.984 C 18.567 16.890,19.660 16.385,20.535 15.501 C 21.244 14.786,21.659 14.020,21.904 12.980 C 22.006 12.545,21.998 11.407,21.889 10.960 C 21.624 9.875,21.222 9.173,20.399 8.359 C 19.927 7.891,19.889 7.842,19.840 7.639 C 19.597 6.610,19.070 5.648,18.322 4.867 C 17.506 4.017,16.558 3.470,15.390 3.175 C 15.035 3.086,14.876 3.070,14.200 3.058 C 13.654 3.048,13.336 3.060,13.140 3.098 M11.773 11.036 C 11.586 11.084,11.312 11.256,11.216 11.386 C 10.986 11.699,11.000 11.455,11.000 15.163 L 11.000 18.570 10.555 18.141 C 10.016 17.620,9.794 17.499,9.440 17.531 C 8.850 17.584,8.490 17.996,8.527 18.574 C 8.540 18.774,8.569 18.870,8.660 19.006 C 8.838 19.272,11.396 21.813,11.567 21.892 C 11.801 22.001,12.039 22.017,12.301 21.942 C 12.528 21.876,12.568 21.840,13.920 20.487 C 15.437 18.969,15.481 18.914,15.479 18.497 C 15.477 17.967,15.109 17.580,14.558 17.530 C 14.206 17.499,13.983 17.621,13.447 18.139 L 13.004 18.567 12.990 15.173 C 12.979 12.506,12.965 11.746,12.924 11.620 C 12.793 11.225,12.206 10.927,11.773 11.036 " fill="var(--db-icon-color, currentColor)" stroke="none" fill-rule="evenodd"></path></svg>