<svg id="icon" height="20" viewBox="0 0 20 20" width="20" xmlns="http://www.w3.org/2000/svg"><path d="M4.881 3.081 C 3.414 3.494,2.634 5.032,3.186 6.421 C 3.653 7.597,5.000 8.261,6.184 7.898 C 6.620 7.765,6.921 7.582,7.250 7.251 C 7.759 6.740,7.982 6.207,7.982 5.500 C 7.981 5.039,7.926 4.805,7.719 4.382 C 7.459 3.853,6.944 3.396,6.340 3.157 C 6.099 3.062,6.051 3.055,5.567 3.045 C 5.192 3.037,5.003 3.047,4.881 3.081 M13.881 3.081 C 12.414 3.494,11.634 5.032,12.186 6.421 C 12.653 7.597,14.000 8.261,15.184 7.898 C 15.620 7.765,15.921 7.582,16.250 7.251 C 16.759 6.740,16.982 6.207,16.982 5.500 C 16.981 5.039,16.926 4.805,16.719 4.382 C 16.459 3.853,15.944 3.396,15.340 3.157 C 15.099 3.062,15.051 3.055,14.567 3.045 C 14.192 3.037,14.003 3.047,13.881 3.081 M4.881 12.081 C 3.414 12.494,2.634 14.032,3.186 15.421 C 3.653 16.597,5.000 17.261,6.184 16.898 C 6.620 16.765,6.921 16.582,7.250 16.251 C 7.759 15.740,7.982 15.207,7.982 14.500 C 7.981 14.039,7.926 13.805,7.719 13.382 C 7.459 12.853,6.944 12.396,6.340 12.157 C 6.099 12.062,6.051 12.055,5.567 12.045 C 5.192 12.037,5.003 12.047,4.881 12.081 M13.881 12.081 C 12.414 12.494,11.634 14.032,12.186 15.421 C 12.653 16.597,14.000 17.261,15.184 16.898 C 15.620 16.765,15.921 16.582,16.250 16.251 C 16.759 15.740,16.982 15.207,16.982 14.500 C 16.981 14.039,16.926 13.805,16.719 13.382 C 16.459 12.853,15.944 12.396,15.340 12.157 C 15.099 12.062,15.051 12.055,14.567 12.045 C 14.192 12.037,14.003 12.047,13.881 12.081 " fill="var(--db-icon-color, currentColor)" stroke="none" fill-rule="evenodd"></path></svg>