<svg id="icon" height="32" viewBox="0 0 32 32" width="32" xmlns="http://www.w3.org/2000/svg"><path d="M14.347 2.113 C 11.146 2.541,8.442 3.845,6.195 6.046 C 3.910 8.285,2.535 11.067,2.107 14.320 C 2.008 15.074,1.994 16.751,2.081 17.495 C 2.413 20.346,3.548 22.953,5.388 25.091 C 7.771 27.860,11.032 29.564,14.637 29.924 C 15.572 30.017,17.392 29.961,18.240 29.813 C 21.166 29.301,23.646 28.048,25.727 26.030 C 28.069 23.759,29.562 20.712,29.917 17.482 C 29.988 16.831,29.989 15.167,29.919 14.533 C 29.672 12.304,28.875 10.099,27.665 8.293 C 25.739 5.420,22.825 3.331,19.565 2.485 C 18.470 2.200,18.028 2.137,16.767 2.080 C 15.316 2.015,15.046 2.019,14.347 2.113 M17.516 8.667 C 18.698 8.996,19.728 10.022,20.007 11.147 C 20.120 11.602,20.092 12.729,19.954 13.243 C 19.704 14.178,19.207 14.821,18.107 15.635 C 16.727 16.656,16.646 16.748,16.504 17.448 C 16.398 17.967,16.345 18.089,16.143 18.279 C 15.831 18.573,15.440 18.634,15.056 18.448 C 14.596 18.226,14.411 17.600,14.576 16.827 C 14.774 15.900,15.106 15.476,16.394 14.511 C 17.655 13.566,17.936 13.219,18.080 12.427 C 18.229 11.606,17.941 11.025,17.222 10.696 C 16.640 10.430,15.885 10.458,14.747 10.786 C 14.003 11.000,13.555 11.015,13.268 10.836 C 12.881 10.596,12.693 10.159,12.802 9.754 C 12.959 9.171,13.890 8.707,15.144 8.585 C 15.840 8.518,17.143 8.563,17.516 8.667 M16.022 20.608 C 16.281 20.716,16.617 21.038,16.744 21.300 C 16.911 21.647,16.895 22.147,16.704 22.513 C 16.442 23.016,15.879 23.311,15.339 23.230 C 14.986 23.177,14.565 22.898,14.376 22.592 C 14.154 22.233,14.118 21.670,14.292 21.309 C 14.428 21.028,14.800 20.681,15.051 20.600 C 15.308 20.518,15.817 20.522,16.022 20.608 " fill="var(--db-icon-color, currentColor)" stroke="none" fill-rule="evenodd"></path></svg>