<svg id="icon" height="32" viewBox="0 0 32 32" width="32" xmlns="http://www.w3.org/2000/svg"><path d="M11.529 5.152 C 11.118 5.357,11.027 5.563,10.997 6.360 L 10.974 6.987 9.873 6.990 C 9.268 6.992,8.420 7.012,7.989 7.034 L 7.204 7.074 6.739 7.304 C 5.783 7.778,5.171 8.612,5.062 9.592 C 5.028 9.894,5.015 12.723,5.026 17.314 C 5.042 24.042,5.050 24.583,5.137 24.880 C 5.265 25.315,5.506 25.698,5.904 26.096 C 6.314 26.506,6.692 26.740,7.147 26.865 C 7.473 26.954,7.996 26.960,16.000 26.960 C 24.004 26.960,24.527 26.954,24.852 26.865 C 25.317 26.736,25.609 26.557,26.053 26.128 C 26.497 25.700,26.735 25.326,26.865 24.853 C 26.954 24.528,26.960 24.042,26.960 16.960 L 26.960 9.413 26.835 9.052 C 26.575 8.298,26.012 7.678,25.238 7.293 C 24.799 7.075,24.789 7.073,24.011 7.034 C 23.580 7.012,22.732 6.992,22.127 6.990 L 21.027 6.987 21.001 6.387 C 20.971 5.668,20.879 5.403,20.593 5.204 C 20.423 5.087,20.337 5.067,20.000 5.067 C 19.264 5.067,19.040 5.356,18.998 6.360 L 18.972 6.987 15.993 6.987 L 13.013 6.987 13.013 6.509 C 13.013 5.806,12.942 5.537,12.693 5.313 C 12.336 4.990,11.958 4.938,11.529 5.152 M10.998 9.640 C 11.028 10.372,11.127 10.633,11.449 10.832 C 11.733 11.008,12.269 11.006,12.556 10.829 C 12.866 10.638,12.974 10.344,13.003 9.613 L 13.027 9.013 15.999 9.013 L 18.972 9.013 18.998 9.640 C 19.028 10.372,19.127 10.633,19.449 10.832 C 19.733 11.008,20.269 11.006,20.556 10.829 C 20.867 10.637,20.974 10.345,21.003 9.606 L 21.027 8.998 22.705 9.026 C 24.588 9.057,24.508 9.040,24.818 9.477 L 24.969 9.690 24.999 11.352 L 25.030 13.013 16.000 13.013 L 6.970 13.013 7.000 11.398 C 7.032 9.638,7.047 9.545,7.347 9.263 C 7.571 9.053,7.799 9.027,9.499 9.020 L 10.972 9.013 10.998 9.640 M24.998 19.630 C 24.962 24.866,24.993 24.512,24.542 24.826 L 24.311 24.987 16.000 24.987 L 7.689 24.987 7.458 24.826 C 7.006 24.511,7.037 24.865,7.001 19.628 L 6.970 14.987 16.000 14.987 L 25.031 14.987 24.998 19.630 M9.573 17.111 C 9.311 17.235,9.185 17.372,9.091 17.636 C 8.990 17.918,8.998 18.175,9.115 18.433 C 9.413 19.089,10.356 19.173,10.806 18.584 C 10.944 18.403,10.960 18.341,10.958 17.997 C 10.956 17.665,10.936 17.587,10.814 17.427 C 10.540 17.067,9.971 16.922,9.573 17.111 M13.573 17.111 C 13.311 17.235,13.185 17.372,13.091 17.636 C 12.990 17.918,12.998 18.175,13.115 18.433 C 13.413 19.089,14.356 19.173,14.806 18.584 C 14.944 18.403,14.960 18.341,14.958 17.997 C 14.956 17.665,14.936 17.587,14.814 17.427 C 14.540 17.067,13.971 16.922,13.573 17.111 M17.573 17.111 C 17.311 17.235,17.185 17.372,17.091 17.636 C 16.990 17.918,16.998 18.175,17.115 18.433 C 17.413 19.088,18.356 19.173,18.804 18.586 C 18.940 18.408,18.957 18.342,18.957 18.000 C 18.957 17.665,18.939 17.590,18.815 17.428 C 18.540 17.067,17.972 16.922,17.573 17.111 M21.573 17.111 C 21.311 17.235,21.185 17.372,21.091 17.636 C 20.990 17.918,20.998 18.175,21.115 18.433 C 21.413 19.088,22.356 19.173,22.804 18.586 C 22.940 18.408,22.957 18.342,22.957 18.000 C 22.957 17.665,22.939 17.590,22.815 17.428 C 22.540 17.067,21.972 16.922,21.573 17.111 M9.573 21.111 C 9.311 21.235,9.185 21.372,9.091 21.636 C 8.990 21.918,8.998 22.175,9.115 22.433 C 9.413 23.089,10.356 23.173,10.806 22.584 C 10.944 22.403,10.960 22.341,10.958 21.997 C 10.956 21.665,10.936 21.587,10.814 21.427 C 10.540 21.067,9.971 20.922,9.573 21.111 M13.573 21.111 C 13.311 21.235,13.185 21.372,13.091 21.636 C 12.990 21.918,12.998 22.175,13.115 22.433 C 13.413 23.089,14.356 23.173,14.806 22.584 C 14.944 22.403,14.960 22.341,14.958 21.997 C 14.956 21.665,14.936 21.587,14.814 21.427 C 14.540 21.067,13.971 20.922,13.573 21.111 M17.573 21.111 C 17.311 21.235,17.185 21.372,17.091 21.636 C 16.990 21.918,16.998 22.175,17.115 22.433 C 17.413 23.088,18.356 23.173,18.804 22.586 C 18.940 22.408,18.957 22.342,18.957 22.000 C 18.957 21.665,18.939 21.590,18.815 21.428 C 18.540 21.067,17.972 20.922,17.573 21.111 M21.573 21.111 C 21.311 21.235,21.185 21.372,21.091 21.636 C 20.990 21.918,20.998 22.175,21.115 22.433 C 21.413 23.088,22.356 23.173,22.804 22.586 C 22.940 22.408,22.957 22.342,22.957 22.000 C 22.957 21.665,22.939 21.590,22.815 21.428 C 22.540 21.067,21.972 20.922,21.573 21.111 " fill="var(--db-icon-color, currentColor)" stroke="none" fill-rule="evenodd"></path></svg>