<svg id="icon" height="32" viewBox="0 0 32 32" width="32" xmlns="http://www.w3.org/2000/svg"><path d="M18.263 3.120 C 17.300 3.289,16.214 3.741,15.284 4.358 C 14.771 4.700,13.838 5.560,13.454 6.045 L 13.292 6.250 12.872 6.163 C 12.290 6.043,11.273 6.001,10.684 6.074 C 9.270 6.249,7.856 6.959,6.839 8.004 C 6.627 8.222,6.345 8.544,6.213 8.720 C 5.907 9.127,5.490 9.972,5.299 10.576 C 5.150 11.045,5.150 11.045,4.763 11.336 C 4.293 11.690,3.497 12.486,3.149 12.951 C 2.674 13.585,2.279 14.523,2.108 15.420 C 2.003 15.978,2.003 17.037,2.109 17.598 C 2.383 19.039,3.140 20.316,4.288 21.276 C 5.130 21.979,5.657 22.276,6.652 22.608 C 7.494 22.890,7.770 22.931,9.073 22.970 C 10.142 23.002,10.180 22.999,10.424 22.882 C 11.087 22.560,11.173 21.599,10.573 21.202 C 10.372 21.069,10.313 21.061,9.275 21.009 C 8.108 20.952,7.804 20.901,7.087 20.641 C 6.136 20.297,5.250 19.597,4.703 18.758 C 4.224 18.022,4.034 17.369,4.040 16.480 C 4.050 14.933,4.787 13.716,6.328 12.699 C 6.559 12.547,6.799 12.345,6.863 12.251 C 6.926 12.157,7.040 11.840,7.115 11.547 C 7.470 10.175,8.313 9.085,9.452 8.523 C 10.601 7.956,11.756 7.882,13.062 8.292 C 13.750 8.508,13.817 8.513,14.107 8.379 C 14.369 8.258,14.525 8.089,14.856 7.573 C 15.221 7.003,16.131 6.116,16.667 5.808 C 17.646 5.244,18.389 5.042,19.467 5.046 C 20.530 5.051,21.026 5.161,21.911 5.588 C 22.504 5.874,22.887 6.150,23.379 6.645 C 23.858 7.128,24.154 7.547,24.450 8.163 C 24.876 9.047,24.927 9.325,24.931 10.783 C 24.935 12.267,24.904 12.178,25.586 12.640 C 26.608 13.330,27.174 13.924,27.546 14.693 C 27.845 15.313,27.960 15.824,27.960 16.533 C 27.960 17.207,27.856 17.674,27.573 18.267 C 27.187 19.074,26.600 19.716,25.787 20.219 C 24.916 20.758,24.231 20.934,22.720 21.010 C 21.473 21.072,21.319 21.126,21.114 21.573 C 20.909 22.019,21.056 22.553,21.456 22.817 L 21.673 22.960 22.823 22.956 C 24.112 22.951,24.455 22.906,25.270 22.633 C 27.733 21.809,29.398 19.991,29.889 17.589 C 29.998 17.057,29.999 15.986,29.891 15.416 C 29.602 13.896,28.729 12.500,27.424 11.472 L 27.003 11.140 26.972 10.303 C 26.926 9.097,26.726 8.238,26.265 7.280 C 25.250 5.168,23.376 3.703,21.012 3.173 C 20.459 3.049,18.845 3.018,18.263 3.120 M15.453 15.197 C 14.979 15.498,15.017 15.031,14.996 20.869 L 14.977 26.031 14.050 25.125 C 13.541 24.626,13.045 24.176,12.948 24.126 C 12.428 23.851,11.731 24.155,11.571 24.728 C 11.447 25.172,11.511 25.332,12.047 25.913 C 12.743 26.668,15.400 29.273,15.595 29.392 C 15.810 29.524,16.190 29.524,16.405 29.392 C 16.600 29.273,19.257 26.668,19.953 25.913 C 20.355 25.478,20.441 25.352,20.465 25.175 C 20.498 24.929,20.407 24.556,20.276 24.400 C 20.046 24.124,19.892 24.053,19.521 24.053 C 19.060 24.053,18.953 24.128,17.889 25.183 L 17.084 25.982 17.049 25.089 C 17.029 24.598,17.013 22.300,17.013 19.983 L 17.013 15.769 16.879 15.539 C 16.586 15.040,15.945 14.885,15.453 15.197 " fill="var(--db-icon-color, currentColor)" stroke="none" fill-rule="evenodd"></path></svg>