<svg id="icon" height="24" viewBox="0 0 24 24" width="24" xmlns="http://www.w3.org/2000/svg"><path d="M15.605 2.040 C 15.417 2.084,15.164 2.271,15.026 2.467 C 14.867 2.693,14.845 2.958,14.842 4.626 L 14.840 5.993 13.310 6.010 C 12.299 6.022,11.730 6.044,11.634 6.075 C 11.460 6.131,11.198 6.382,11.096 6.590 C 10.998 6.791,10.997 7.208,11.094 7.407 C 11.134 7.488,11.231 7.621,11.310 7.702 C 11.579 7.979,11.570 7.978,13.254 7.993 L 14.768 8.006 14.740 8.193 C 14.554 9.449,13.665 11.298,12.572 12.700 C 12.298 13.052,11.492 13.944,11.166 14.257 L 11.002 14.414 10.945 14.277 C 10.914 14.202,10.437 12.880,9.887 11.340 C 8.414 7.223,8.535 7.536,8.323 7.316 C 8.000 6.983,7.572 6.923,7.145 7.153 C 6.787 7.346,6.874 7.147,5.647 10.582 C 4.697 13.240,3.377 16.976,2.573 19.280 C 1.943 21.085,1.941 21.092,2.116 21.430 C 2.428 22.036,3.227 22.177,3.693 21.708 C 3.879 21.521,3.943 21.361,4.861 18.770 L 5.332 17.440 7.340 17.440 C 8.444 17.440,9.483 17.451,9.648 17.465 L 9.947 17.491 10.359 18.635 C 10.969 20.330,11.358 21.361,11.450 21.526 C 11.729 22.030,12.524 22.106,12.959 21.672 C 13.081 21.550,13.142 21.440,13.207 21.227 L 13.293 20.944 13.060 20.262 C 12.932 19.887,12.579 18.887,12.277 18.040 L 11.726 16.500 12.393 15.855 C 13.772 14.523,14.765 13.260,15.533 11.860 C 15.679 11.596,15.813 11.353,15.833 11.320 C 15.860 11.275,15.914 11.349,16.051 11.620 C 16.701 12.908,17.659 14.182,18.958 15.484 C 19.774 16.302,20.266 16.730,20.564 16.882 C 21.011 17.110,21.552 16.963,21.835 16.535 C 21.979 16.318,22.019 16.067,21.958 15.769 C 21.906 15.514,21.977 15.592,20.719 14.400 C 18.751 12.534,17.537 10.593,17.038 8.510 C 16.963 8.198,16.954 8.110,16.994 8.070 C 17.031 8.033,17.416 8.015,18.512 7.999 C 20.142 7.975,20.146 7.974,20.410 7.702 C 20.627 7.478,20.700 7.301,20.698 7.000 C 20.697 6.815,20.672 6.694,20.612 6.580 C 20.499 6.368,20.248 6.130,20.078 6.073 C 19.988 6.043,19.405 6.021,18.414 6.010 L 16.888 5.993 16.872 4.386 C 16.854 2.624,16.856 2.638,16.603 2.350 C 16.382 2.098,15.941 1.961,15.605 2.040 M8.004 12.031 C 8.605 13.694,9.160 15.295,9.160 15.366 C 9.160 15.437,9.093 15.440,7.620 15.440 C 6.376 15.440,6.080 15.430,6.080 15.388 C 6.080 15.292,7.501 11.344,7.607 11.147 L 7.652 11.063 7.685 11.153 C 7.703 11.202,7.847 11.597,8.004 12.031 " fill="var(--db-icon-color, currentColor)" stroke="none" fill-rule="evenodd"></path></svg>