<svg id="icon" height="16" viewBox="0 0 16 16" width="16" xmlns="http://www.w3.org/2000/svg"><path d="M3.987 7.037 C 3.720 7.051,3.645 7.064,3.539 7.119 C 3.372 7.204,3.188 7.403,3.098 7.594 C 3.036 7.728,3.027 7.780,3.027 8.013 C 3.027 8.251,3.035 8.296,3.101 8.432 C 3.191 8.615,3.407 8.820,3.620 8.925 L 3.773 9.000 7.960 9.008 L 12.147 9.015 12.326 8.945 C 12.754 8.779,13.004 8.399,12.982 7.952 C 12.963 7.572,12.754 7.260,12.413 7.101 L 12.253 7.027 8.280 7.024 C 6.095 7.022,4.163 7.028,3.987 7.037 " stroke="none" fill-rule="evenodd"></path></svg>