<svg id="icon" height="32" viewBox="0 0 32 32" width="32" xmlns="http://www.w3.org/2000/svg"><path d="M18.945 3.045 C 17.900 3.203,16.698 3.950,16.187 4.760 C 16.099 4.899,16.014 5.013,15.998 5.013 C 15.982 5.013,15.928 4.943,15.877 4.856 C 15.592 4.374,14.830 3.724,14.213 3.437 C 13.602 3.152,13.227 3.072,12.507 3.074 C 11.506 3.076,10.784 3.327,10.012 3.940 C 9.124 4.646,8.639 5.614,8.552 6.853 C 8.511 7.454,8.591 7.948,8.823 8.523 C 8.997 8.955,8.998 8.962,8.886 8.985 C 8.824 8.999,7.777 9.019,6.560 9.031 C 4.432 9.051,4.334 9.057,4.011 9.172 C 3.266 9.437,2.522 10.162,2.205 10.932 C 2.066 11.269,2.060 11.328,2.014 12.800 C 1.987 13.636,1.976 17.056,1.989 20.400 L 2.013 26.480 2.153 26.894 C 2.328 27.411,2.489 27.675,2.873 28.070 C 3.237 28.445,3.635 28.696,4.133 28.862 L 4.507 28.987 16.000 28.987 L 27.493 28.987 27.867 28.862 C 28.854 28.532,29.590 27.766,29.901 26.744 C 29.992 26.444,29.997 26.009,29.999 18.987 C 30.000 11.913,29.995 11.531,29.902 11.227 C 29.645 10.390,29.073 9.714,28.295 9.328 C 27.716 9.041,27.515 9.022,25.031 9.017 C 23.999 9.015,23.120 9.000,23.076 8.983 C 23.008 8.957,23.016 8.907,23.126 8.658 C 23.758 7.228,23.544 5.648,22.554 4.440 C 21.736 3.442,20.214 2.854,18.945 3.045 M13.305 5.218 C 13.698 5.403,14.086 5.786,14.281 6.183 C 14.410 6.447,14.427 6.540,14.427 7.014 C 14.427 7.511,14.414 7.574,14.251 7.905 C 14.057 8.299,13.745 8.610,13.345 8.807 C 13.130 8.913,13.011 8.932,12.533 8.932 C 12.005 8.933,11.950 8.923,11.615 8.758 C 11.208 8.558,10.920 8.261,10.705 7.822 C 10.576 7.560,10.560 7.466,10.560 6.989 C 10.560 6.494,10.573 6.424,10.723 6.126 C 10.984 5.611,11.485 5.200,12.023 5.060 C 12.335 4.979,12.958 5.056,13.305 5.218 M20.347 5.212 C 20.709 5.392,21.097 5.777,21.284 6.145 C 21.426 6.422,21.440 6.499,21.440 6.987 C 21.440 7.480,21.427 7.549,21.276 7.848 C 20.760 8.869,19.641 9.263,18.618 8.784 C 18.283 8.628,17.889 8.220,17.717 7.853 C 17.590 7.581,17.573 7.483,17.573 6.987 C 17.573 6.473,17.586 6.401,17.729 6.119 C 17.907 5.767,18.358 5.315,18.653 5.191 C 19.144 4.984,19.905 4.994,20.347 5.212 M14.987 12.987 L 14.987 14.987 9.489 14.987 L 3.991 14.987 4.009 13.347 C 4.026 11.739,4.029 11.703,4.150 11.508 C 4.327 11.224,4.551 11.084,4.899 11.039 C 5.065 11.018,7.402 10.998,10.093 10.994 L 14.987 10.987 14.987 12.987 M27.456 11.134 C 27.565 11.190,27.725 11.342,27.813 11.471 L 27.973 11.707 27.991 13.347 L 28.009 14.987 22.511 14.987 L 17.013 14.987 17.013 12.978 L 17.013 10.970 22.136 11.001 C 27.036 11.031,27.268 11.037,27.456 11.134 M14.987 22.001 L 14.987 26.989 9.853 26.975 C 4.145 26.958,4.572 26.987,4.230 26.598 L 4.071 26.416 4.036 24.768 C 4.016 23.862,4.000 21.746,4.000 20.067 L 4.000 17.013 9.493 17.013 L 14.987 17.013 14.987 22.001 M28.000 19.987 C 28.000 21.622,27.984 23.738,27.964 24.688 L 27.929 26.416 27.770 26.598 C 27.428 26.987,27.855 26.958,22.147 26.975 L 17.013 26.989 17.013 22.001 L 17.013 17.013 22.507 17.013 L 28.000 17.013 28.000 19.987 M6.908 22.066 C 6.379 22.099,6.027 22.454,6.027 22.956 C 6.027 23.314,6.197 23.650,6.469 23.830 L 6.686 23.973 9.493 23.973 L 12.301 23.973 12.526 23.825 C 12.796 23.646,12.945 23.417,12.991 23.109 C 13.037 22.804,12.855 22.436,12.543 22.200 L 12.312 22.027 9.769 22.037 C 8.371 22.042,7.083 22.056,6.908 22.066 " fill="var(--db-icon-color, currentColor)" stroke="none" fill-rule="evenodd"></path></svg>