<svg id="icon" height="32" viewBox="0 0 32 32" width="32" xmlns="http://www.w3.org/2000/svg"><path d="M14.347 2.112 C 12.071 2.412,10.105 3.141,8.256 4.370 C 5.009 6.529,2.881 9.821,2.186 13.760 C 2.037 14.606,1.982 16.476,2.078 17.420 C 2.337 19.975,3.311 22.419,4.901 24.507 C 5.384 25.141,6.671 26.450,7.307 26.953 C 9.028 28.314,10.967 29.221,13.177 29.699 C 14.698 30.028,16.754 30.072,18.267 29.809 C 20.415 29.434,22.552 28.545,24.161 27.357 C 27.503 24.889,29.551 21.320,29.924 17.313 C 30.003 16.468,29.959 14.694,29.842 13.956 C 29.363 10.947,28.139 8.473,26.056 6.304 C 24.295 4.470,21.991 3.114,19.565 2.485 C 18.463 2.199,18.020 2.135,16.737 2.080 C 15.264 2.016,15.047 2.019,14.347 2.112 M16.091 4.573 C 18.083 7.025,19.596 9.777,20.347 12.312 C 20.518 12.892,20.779 14.102,20.875 14.760 L 20.908 14.987 15.860 14.987 L 10.813 14.987 10.849 14.600 C 10.978 13.244,11.296 11.792,11.734 10.560 C 12.274 9.046,12.281 9.017,12.207 8.751 C 12.067 8.251,11.494 7.916,11.006 8.049 C 10.470 8.196,10.341 8.397,9.841 9.867 C 9.315 11.415,9.063 12.537,8.877 14.173 L 8.784 14.987 6.418 14.987 L 4.051 14.987 4.078 14.867 C 4.093 14.801,4.131 14.543,4.162 14.293 C 4.515 11.528,6.074 8.705,8.260 6.872 C 10.278 5.181,12.922 4.135,15.367 4.062 L 15.668 4.053 16.091 4.573 M19.664 4.615 C 24.046 6.050,27.203 9.788,27.839 14.293 C 27.870 14.513,27.906 14.759,27.920 14.840 L 27.944 14.987 25.452 14.987 L 22.960 14.987 22.814 14.093 C 22.331 11.134,21.188 8.374,19.252 5.496 C 18.965 5.069,18.653 4.616,18.558 4.490 L 18.385 4.259 18.593 4.296 C 18.707 4.316,19.189 4.460,19.664 4.615 M8.061 17.048 L 8.894 17.083 8.931 17.461 C 9.020 18.382,9.375 19.872,9.790 21.067 C 10.481 23.056,11.521 25.069,12.803 26.893 C 13.065 27.267,13.280 27.596,13.280 27.623 C 13.280 27.651,13.118 27.628,12.920 27.573 C 9.803 26.706,7.248 24.735,5.626 21.947 C 4.880 20.663,4.394 19.254,4.163 17.707 C 4.130 17.487,4.093 17.241,4.080 17.160 L 4.056 17.013 5.641 17.014 C 6.513 17.014,7.602 17.029,8.061 17.048 M20.959 17.133 C 20.959 17.199,20.923 17.575,20.879 17.969 C 20.725 19.348,20.427 20.535,19.866 21.999 C 19.496 22.963,19.492 22.983,19.599 23.304 C 19.762 23.795,20.297 24.085,20.794 23.953 C 21.130 23.863,21.313 23.675,21.550 23.173 C 21.954 22.322,22.539 20.356,22.745 19.161 C 22.823 18.710,22.985 17.329,22.986 17.107 C 22.987 17.019,23.140 17.013,25.465 17.013 L 27.944 17.013 27.919 17.160 C 27.905 17.241,27.856 17.547,27.810 17.840 C 27.485 19.896,26.742 21.634,25.476 23.306 C 25.017 23.912,24.082 24.868,23.493 25.334 C 21.550 26.871,19.157 27.813,16.771 27.980 L 16.258 28.016 15.936 27.677 C 15.758 27.491,15.322 26.949,14.967 26.473 C 12.905 23.714,11.469 20.585,11.015 17.867 C 10.969 17.588,10.918 17.295,10.902 17.216 C 10.873 17.073,10.875 17.072,11.210 17.053 C 11.395 17.042,13.665 17.029,16.253 17.024 L 20.960 17.013 20.959 17.133 " fill="var(--db-icon-color, currentColor)" stroke="none" fill-rule="evenodd"></path></svg>