<svg id="icon" height="24" viewBox="0 0 24 24" width="24" xmlns="http://www.w3.org/2000/svg"><path d="M17.936 2.034 C 17.668 2.056,17.583 2.080,17.436 2.180 C 17.339 2.245,15.613 3.940,13.600 5.946 L 9.940 9.593 9.580 9.517 C 9.056 9.407,7.535 9.407,7.033 9.518 C 5.787 9.794,4.774 10.346,3.877 11.239 C 1.878 13.229,1.438 16.160,2.762 18.675 C 3.051 19.224,3.364 19.642,3.861 20.139 C 4.396 20.675,4.865 21.013,5.500 21.321 C 6.626 21.867,7.707 22.071,8.906 21.964 C 10.368 21.834,11.664 21.215,12.751 20.128 C 13.650 19.229,14.221 18.187,14.483 16.966 C 14.602 16.411,14.631 15.326,14.541 14.760 C 14.504 14.529,14.465 14.276,14.453 14.198 C 14.432 14.057,14.446 14.040,15.475 12.985 C 16.050 12.397,16.564 11.857,16.619 11.786 C 16.692 11.689,16.754 11.488,16.860 10.998 C 16.939 10.636,17.025 10.319,17.052 10.294 C 17.078 10.269,17.325 10.202,17.600 10.145 C 18.374 9.985,18.505 9.937,18.698 9.744 C 18.898 9.545,18.951 9.404,19.121 8.622 C 19.188 8.315,19.248 8.059,19.253 8.053 C 19.259 8.048,19.515 7.988,19.822 7.921 C 20.737 7.722,20.702 7.740,21.299 7.145 C 21.589 6.856,21.861 6.548,21.903 6.460 C 21.975 6.310,21.980 6.195,21.980 4.540 C 21.980 2.880,21.976 2.771,21.903 2.624 C 21.797 2.410,21.583 2.206,21.364 2.107 C 21.190 2.030,21.098 2.025,19.720 2.017 C 18.917 2.012,18.114 2.020,17.936 2.034 M20.000 4.816 L 20.000 5.632 19.863 5.752 C 19.690 5.904,19.732 5.892,18.542 6.139 L 17.542 6.347 17.397 7.043 C 17.317 7.427,17.230 7.841,17.204 7.965 L 17.157 8.189 16.828 8.258 C 15.526 8.533,15.355 8.575,15.322 8.636 C 15.303 8.671,15.194 9.159,15.079 9.720 L 14.869 10.740 13.520 12.100 L 12.170 13.460 12.345 14.120 C 12.717 15.524,12.662 16.564,12.162 17.580 C 11.627 18.665,10.750 19.411,9.520 19.825 C 9.187 19.937,9.162 19.939,8.300 19.940 L 7.420 19.940 7.052 19.811 C 5.819 19.381,4.943 18.615,4.419 17.508 C 3.660 15.906,3.992 13.956,5.239 12.689 C 5.724 12.196,6.244 11.870,6.980 11.595 L 7.340 11.460 8.300 11.463 L 9.260 11.465 9.900 11.649 L 10.540 11.832 14.460 7.916 L 18.380 4.000 19.190 4.000 L 20.000 4.000 20.000 4.816 M8.000 14.157 C 7.753 14.193,7.464 14.346,7.239 14.560 C 6.601 15.170,6.563 16.090,7.150 16.724 C 7.529 17.133,8.075 17.340,8.533 17.248 C 9.077 17.139,9.588 16.742,9.762 16.295 C 9.901 15.937,9.896 15.383,9.751 15.070 C 9.613 14.772,9.298 14.441,9.024 14.307 C 8.841 14.218,8.362 14.110,8.220 14.126 C 8.198 14.129,8.099 14.142,8.000 14.157 " fill="var(--db-icon-color, currentColor)" stroke="none" fill-rule="evenodd"></path></svg>