<svg id="icon" height="24" viewBox="0 0 24 24" width="24" xmlns="http://www.w3.org/2000/svg"><path d="M11.380 2.043 C 10.437 2.171,9.453 2.610,8.779 3.201 C 7.878 3.992,7.387 4.810,7.099 6.000 C 7.051 6.197,7.030 6.588,7.012 7.625 L 6.988 8.991 6.693 9.038 C 5.982 9.153,5.369 9.662,5.107 10.356 C 5.023 10.578,5.022 10.617,5.009 14.668 C 5.002 16.933,5.012 18.936,5.032 19.159 C 5.063 19.502,5.091 19.607,5.219 19.865 C 5.519 20.473,6.108 20.896,6.748 20.963 C 7.155 21.006,16.845 21.006,17.252 20.963 C 18.133 20.871,18.879 20.116,18.963 19.230 C 19.005 18.800,19.005 11.200,18.963 10.770 C 18.901 10.112,18.484 9.524,17.862 9.217 C 17.566 9.071,17.537 9.065,16.988 9.035 C 16.676 9.019,14.751 9.004,12.710 9.003 L 9.000 9.000 9.002 8.290 C 9.003 7.900,9.019 7.292,9.037 6.940 C 9.066 6.362,9.081 6.269,9.194 5.980 C 9.358 5.560,9.594 5.201,9.919 4.878 C 10.233 4.567,10.560 4.360,11.010 4.189 C 11.329 4.068,11.361 4.063,11.980 4.062 C 12.546 4.060,12.653 4.071,12.900 4.153 C 13.409 4.322,13.818 4.597,14.238 5.054 C 14.484 5.321,14.677 5.647,14.831 6.054 C 15.072 6.693,15.379 6.960,15.872 6.960 C 16.332 6.960,16.689 6.678,16.826 6.206 C 16.886 5.998,16.885 5.968,16.807 5.651 C 16.706 5.243,16.400 4.589,16.113 4.170 C 15.838 3.769,15.222 3.154,14.840 2.900 C 13.982 2.329,13.148 2.059,12.121 2.021 C 11.868 2.012,11.534 2.022,11.380 2.043 M17.000 15.000 L 17.000 19.000 12.000 19.000 L 7.000 19.000 7.000 15.000 L 7.000 11.000 12.000 11.000 L 17.000 11.000 17.000 15.000 M11.818 13.040 C 11.617 13.069,11.327 13.235,11.216 13.386 C 10.999 13.681,11.000 13.674,11.000 14.909 C 11.000 16.166,11.024 16.360,11.212 16.606 C 11.379 16.825,11.687 16.974,11.981 16.977 C 12.178 16.979,12.272 16.956,12.461 16.859 C 12.772 16.701,12.909 16.506,12.965 16.145 C 13.021 15.787,12.992 13.781,12.929 13.632 C 12.867 13.484,12.611 13.208,12.469 13.134 C 12.315 13.055,12.020 13.012,11.818 13.040 " fill="var(--db-icon-color, currentColor)" stroke="none" fill-rule="evenodd"></path></svg>