<svg id="icon" height="16" viewBox="0 0 16 16" width="16" xmlns="http://www.w3.org/2000/svg"><path d="M7.067 2.077 C 5.815 2.296,4.730 2.839,3.843 3.692 C 3.284 4.229,2.840 4.858,2.533 5.547 C 2.107 6.503,1.928 7.573,2.028 8.564 C 2.296 11.225,4.288 13.403,6.901 13.892 C 8.437 14.180,10.004 13.862,11.292 13.001 C 12.463 12.219,13.274 11.153,13.705 9.828 C 14.305 7.983,13.972 5.994,12.797 4.408 C 12.564 4.092,12.070 3.581,11.760 3.334 C 10.977 2.709,10.022 2.275,9.027 2.091 C 8.648 2.022,7.437 2.013,7.067 2.077 M8.486 3.869 C 9.180 3.958,9.798 4.369,10.100 4.942 C 10.267 5.259,10.306 5.435,10.304 5.867 C 10.300 6.685,10.096 7.083,9.277 7.876 C 9.018 8.128,8.777 8.381,8.743 8.440 C 8.684 8.540,8.679 8.577,8.671 9.073 L 8.663 9.600 7.727 9.600 L 6.792 9.600 6.810 8.957 C 6.819 8.604,6.840 8.259,6.855 8.191 C 6.939 7.819,7.207 7.491,7.788 7.052 C 8.198 6.743,8.351 6.585,8.411 6.407 C 8.468 6.240,8.464 6.119,8.397 5.980 C 8.213 5.601,7.628 5.618,6.658 6.032 C 6.484 6.105,6.333 6.156,6.322 6.143 C 6.280 6.095,5.624 4.479,5.638 4.457 C 5.661 4.420,6.127 4.201,6.407 4.096 C 7.089 3.841,7.723 3.772,8.486 3.869 M8.207 10.254 C 8.392 10.337,8.613 10.551,8.717 10.744 C 8.797 10.895,8.800 10.912,8.800 11.232 C 8.800 11.534,8.794 11.575,8.731 11.701 C 8.572 12.021,8.275 12.238,7.913 12.300 C 7.458 12.378,6.982 12.120,6.779 11.687 C 6.714 11.549,6.707 11.503,6.707 11.240 C 6.707 10.965,6.712 10.935,6.792 10.767 C 6.934 10.466,7.218 10.234,7.507 10.183 C 7.698 10.149,8.054 10.185,8.207 10.254 " fill="var(--db-icon-color, currentColor)" stroke="none" fill-rule="evenodd"></path></svg>