<svg id="icon" height="32" viewBox="0 0 32 32" width="32" xmlns="http://www.w3.org/2000/svg"><path d="M12.507 3.020 C 10.753 3.187,9.740 3.462,8.470 4.114 C 6.074 5.345,4.361 7.331,3.529 9.840 C 2.817 11.989,2.823 14.023,3.549 16.204 C 4.400 18.762,6.314 20.909,8.760 22.051 C 11.158 23.170,14.007 23.287,16.467 22.367 C 17.370 22.030,18.339 21.497,19.086 20.927 L 19.322 20.746 23.195 24.600 C 25.325 26.719,27.206 28.571,27.376 28.715 C 27.630 28.930,27.728 28.980,27.935 28.998 C 28.270 29.028,28.610 28.854,28.826 28.542 C 28.960 28.348,28.986 28.260,28.985 28.001 C 28.983 27.709,28.968 27.674,28.720 27.379 C 28.575 27.207,26.721 25.325,24.601 23.195 L 20.745 19.324 20.926 19.087 C 22.945 16.443,23.519 12.984,22.462 9.827 C 21.948 8.293,21.249 7.153,20.119 6.008 C 18.823 4.696,17.103 3.714,15.381 3.303 C 14.560 3.107,13.099 2.963,12.507 3.020 M13.573 5.069 C 14.502 5.132,15.120 5.262,15.867 5.551 C 18.352 6.514,20.233 8.711,20.805 11.321 C 20.946 11.963,20.999 13.343,20.910 14.048 C 20.594 16.560,18.956 18.900,16.689 20.078 C 16.013 20.429,15.067 20.751,14.320 20.884 C 13.600 21.012,12.372 21.012,11.653 20.884 C 8.592 20.337,6.103 18.048,5.270 15.013 C 5.119 14.465,5.107 14.349,5.082 13.253 C 5.061 12.312,5.073 11.980,5.143 11.573 C 5.408 10.049,6.256 8.457,7.416 7.307 C 8.555 6.177,10.208 5.347,11.813 5.098 C 12.414 5.005,12.584 5.002,13.573 5.069 " fill="var(--db-icon-color, currentColor)" stroke="none" fill-rule="evenodd"></path></svg>