<svg id="icon" height="20" viewBox="0 0 20 20" width="20" xmlns="http://www.w3.org/2000/svg"><path d="M12.830 2.031 C 12.554 2.085,12.256 2.338,12.120 2.632 C 12.054 2.775,12.049 2.847,12.039 3.925 L 12.028 5.067 11.256 5.069 C 10.831 5.070,10.316 5.082,10.111 5.096 C 9.757 5.119,9.731 5.126,9.556 5.242 C 9.328 5.393,9.183 5.599,9.113 5.870 C 9.065 6.059,9.065 6.097,9.111 6.287 C 9.193 6.616,9.351 6.815,9.667 6.987 C 9.772 7.044,9.884 7.052,10.839 7.067 C 11.420 7.076,11.904 7.092,11.915 7.103 C 11.950 7.139,11.711 7.907,11.538 8.309 C 11.124 9.274,10.430 10.293,9.560 11.215 L 9.247 11.546 8.886 10.531 C 8.317 8.929,7.671 7.147,7.527 6.783 C 7.379 6.410,7.260 6.262,6.988 6.113 C 6.843 6.033,6.778 6.019,6.567 6.018 C 6.343 6.018,6.294 6.030,6.102 6.136 C 5.984 6.200,5.847 6.305,5.796 6.368 C 5.693 6.498,5.197 7.851,3.233 13.367 L 1.992 16.850 2.011 17.080 C 2.058 17.640,2.450 18.012,2.988 18.007 C 3.364 18.004,3.671 17.824,3.844 17.505 C 3.929 17.350,4.274 16.419,4.753 15.058 L 4.949 14.500 5.969 14.500 C 6.530 14.500,7.260 14.510,7.591 14.522 L 8.193 14.544 8.484 15.363 C 8.828 16.334,9.214 17.367,9.281 17.496 C 9.350 17.629,9.584 17.830,9.760 17.908 C 9.881 17.961,9.959 17.972,10.153 17.959 C 10.733 17.922,11.100 17.543,11.100 16.982 C 11.100 16.742,11.036 16.540,10.397 14.768 L 9.971 13.586 10.310 13.271 C 11.376 12.282,12.166 11.330,12.808 10.258 L 13.043 9.865 13.308 10.308 C 13.920 11.327,14.675 12.236,15.699 13.188 C 16.287 13.734,16.548 13.919,16.808 13.974 C 17.587 14.137,18.235 13.303,17.893 12.577 C 17.823 12.427,17.759 12.360,17.150 11.803 C 16.695 11.386,15.979 10.618,15.695 10.242 C 15.020 9.348,14.441 8.241,14.246 7.472 C 14.202 7.299,14.167 7.139,14.167 7.116 C 14.167 7.082,14.397 7.070,15.242 7.061 C 16.469 7.047,16.450 7.051,16.738 6.743 C 16.929 6.539,16.981 6.389,16.980 6.050 C 16.978 5.638,16.813 5.377,16.426 5.178 L 16.250 5.088 15.144 5.073 L 14.038 5.058 14.028 3.887 L 14.017 2.715 13.932 2.550 C 13.739 2.176,13.253 1.947,12.830 2.031 M6.610 10.125 C 6.619 10.157,6.809 10.686,7.030 11.299 C 7.252 11.913,7.433 12.434,7.433 12.458 C 7.433 12.491,7.244 12.500,6.567 12.500 C 5.845 12.500,5.700 12.492,5.700 12.453 C 5.700 12.427,5.841 12.011,6.014 11.528 C 6.571 9.967,6.566 9.979,6.610 10.125 " fill="var(--db-icon-color, currentColor)" stroke="none" fill-rule="evenodd"></path></svg>