<svg id="icon" height="20" viewBox="0 0 20 20" width="20" xmlns="http://www.w3.org/2000/svg"><path d="M9.450 2.049 C 8.030 2.273,6.884 3.146,6.333 4.427 C 6.045 5.096,6.001 5.423,6.001 6.942 L 6.000 8.033 5.875 8.034 C 5.659 8.035,5.334 8.130,5.060 8.272 C 4.632 8.495,4.327 8.847,4.105 9.374 L 4.017 9.583 4.007 12.717 C 3.997 15.974,4.010 16.380,4.133 16.708 C 4.329 17.231,4.848 17.719,5.404 17.902 L 5.650 17.983 10.000 17.983 L 14.350 17.983 14.617 17.891 C 14.765 17.841,14.962 17.747,15.057 17.684 C 15.411 17.445,15.736 17.053,15.869 16.703 C 15.989 16.385,16.002 15.966,15.993 12.717 L 15.983 9.583 15.895 9.374 C 15.636 8.758,15.273 8.396,14.659 8.139 L 14.450 8.051 11.221 8.039 L 7.993 8.028 8.009 6.839 C 8.027 5.522,8.032 5.485,8.253 5.065 C 8.649 4.312,9.542 3.883,10.374 4.046 C 10.669 4.104,10.999 4.257,11.216 4.436 C 11.567 4.727,11.778 5.059,11.969 5.624 C 12.089 5.978,12.187 6.132,12.374 6.258 C 12.593 6.406,12.730 6.450,12.970 6.448 C 13.409 6.445,13.772 6.164,13.905 5.723 C 13.974 5.496,13.975 5.485,13.919 5.226 C 13.716 4.279,13.240 3.490,12.526 2.919 C 11.876 2.397,11.212 2.122,10.393 2.035 C 9.992 1.992,9.792 1.995,9.450 2.049 M14.000 13.017 L 14.000 16.000 10.000 16.000 L 6.000 16.000 6.000 13.017 L 6.000 10.033 10.000 10.033 L 14.000 10.033 14.000 13.017 M9.783 11.029 C 9.483 11.108,9.236 11.302,9.110 11.560 L 9.017 11.750 9.017 12.983 C 9.017 13.924,9.027 14.246,9.061 14.342 C 9.122 14.515,9.404 14.813,9.591 14.904 C 9.783 14.997,10.180 15.007,10.374 14.924 C 10.549 14.849,10.817 14.589,10.907 14.405 C 10.981 14.254,10.984 14.221,10.995 13.075 C 11.005 12.025,11.000 11.881,10.948 11.713 C 10.872 11.473,10.631 11.202,10.405 11.105 C 10.219 11.025,9.932 10.990,9.783 11.029 " fill="var(--db-icon-color, currentColor)" stroke="none" fill-rule="evenodd"></path></svg>