<svg id="icon" height="20" viewBox="0 0 20 20" width="20" xmlns="http://www.w3.org/2000/svg"><path d="M14.817 6.031 C 14.491 6.090,14.528 6.056,11.210 9.390 L 8.003 12.613 6.860 11.481 C 6.183 10.811,5.630 10.291,5.505 10.208 C 5.301 10.072,5.282 10.067,5.035 10.067 C 4.815 10.067,4.748 10.081,4.574 10.168 C 4.208 10.351,4.019 10.651,4.018 11.050 C 4.016 11.446,4.024 11.456,5.514 12.961 C 6.911 14.371,7.426 14.857,7.628 14.953 C 7.694 14.984,7.846 15.017,7.965 15.025 C 8.402 15.055,8.437 15.023,12.209 11.220 C 15.240 8.164,15.838 7.545,15.913 7.386 C 16.054 7.089,16.001 6.675,15.784 6.391 C 15.584 6.129,15.157 5.971,14.817 6.031 " fill="var(--db-icon-color, currentColor)" stroke="none" fill-rule="evenodd"></path></svg>