<svg id="icon" height="20" viewBox="0 0 20 20" width="20" xmlns="http://www.w3.org/2000/svg"><path d="M7.911 2.098 C 7.185 2.359,6.688 2.925,6.547 3.650 C 6.481 3.991,6.507 4.290,6.636 4.677 C 6.689 4.838,6.733 4.977,6.733 4.985 C 6.733 4.993,6.392 5.001,5.975 5.002 C 5.558 5.003,4.879 5.016,4.467 5.030 C 3.775 5.055,3.700 5.064,3.507 5.142 C 3.174 5.276,2.936 5.433,2.682 5.684 C 2.413 5.950,2.236 6.230,2.106 6.597 L 2.017 6.850 2.017 10.950 C 2.017 15.459,2.007 15.247,2.225 15.688 C 2.532 16.312,2.971 16.694,3.628 16.910 L 3.850 16.983 9.983 16.983 C 16.897 16.983,16.374 17.003,16.861 16.726 C 17.347 16.449,17.690 16.018,17.897 15.422 L 18.000 15.128 18.000 11.272 C 18.000 8.977,17.986 7.264,17.966 7.040 C 17.929 6.622,17.856 6.407,17.630 6.049 C 17.337 5.585,16.712 5.147,16.231 5.068 C 16.113 5.049,15.398 5.023,14.642 5.011 C 13.885 4.999,13.267 4.979,13.267 4.967 C 13.267 4.955,13.304 4.839,13.349 4.710 C 13.521 4.216,13.529 3.876,13.380 3.397 C 13.185 2.776,12.670 2.273,12.036 2.087 C 11.792 2.015,11.207 2.015,10.964 2.087 C 10.695 2.167,10.431 2.311,10.202 2.501 L 9.998 2.670 9.833 2.526 C 9.622 2.341,9.269 2.150,9.017 2.085 C 8.731 2.010,8.134 2.017,7.911 2.098 M9.000 8.000 L 9.000 9.000 6.500 9.000 L 4.000 9.000 4.000 8.000 L 4.000 7.000 6.500 7.000 L 9.000 7.000 9.000 8.000 M16.000 8.000 L 16.000 9.000 13.500 9.000 L 11.000 9.000 11.000 8.000 L 11.000 7.000 13.500 7.000 L 16.000 7.000 16.000 8.000 M9.000 13.000 L 9.000 15.000 6.500 15.000 L 4.000 15.000 4.000 13.000 L 4.000 11.000 6.500 11.000 L 9.000 11.000 9.000 13.000 M16.000 13.000 L 16.000 15.000 13.500 15.000 L 11.000 15.000 11.000 13.000 L 11.000 11.000 13.500 11.000 L 16.000 11.000 16.000 13.000 " fill="var(--db-icon-color, currentColor)" stroke="none" fill-rule="evenodd"></path></svg>