<svg id="icon" height="20" viewBox="0 0 20 20" width="20" xmlns="http://www.w3.org/2000/svg"><path d="M9.450 2.020 C 8.280 2.138,7.403 2.377,6.483 2.831 C 4.658 3.732,3.291 5.215,2.552 7.098 C 1.873 8.827,1.828 10.809,2.428 12.567 C 3.470 15.620,6.272 17.779,9.442 17.970 C 10.834 18.053,12.030 17.844,13.273 17.297 C 15.008 16.535,16.535 15.008,17.297 13.273 C 17.695 12.368,17.910 11.505,17.969 10.583 C 18.043 9.414,17.912 8.406,17.552 7.377 C 16.968 5.703,15.898 4.328,14.400 3.327 C 13.678 2.845,12.592 2.383,11.756 2.203 C 11.165 2.075,9.901 1.975,9.450 2.020 M10.533 4.035 C 13.175 4.277,15.343 6.210,15.865 8.790 C 16.209 10.491,15.838 12.165,14.805 13.567 C 14.562 13.897,14.016 14.456,13.682 14.718 C 11.542 16.394,8.588 16.427,6.433 14.798 C 4.782 13.550,3.867 11.561,4.029 9.571 C 4.095 8.751,4.275 8.084,4.618 7.383 C 4.940 6.725,5.311 6.223,5.877 5.677 C 6.764 4.824,7.801 4.298,8.986 4.101 C 9.644 3.992,9.930 3.980,10.533 4.035 M6.000 10.000 L 6.000 11.000 10.000 11.000 L 14.000 11.000 14.000 10.000 L 14.000 9.000 10.000 9.000 L 6.000 9.000 6.000 10.000 " fill="var(--db-icon-color, currentColor)" stroke="none" fill-rule="evenodd"></path></svg>