<svg id="icon" height="32" viewBox="0 0 32 32" width="32" xmlns="http://www.w3.org/2000/svg"><path d="M22.853 4.033 C 21.689 4.200,20.859 4.595,20.053 5.365 L 19.760 5.645 19.147 5.468 C 18.032 5.145,17.297 5.047,16.000 5.048 C 14.693 5.048,13.982 5.142,12.880 5.459 L 12.243 5.642 11.863 5.288 C 11.251 4.719,10.453 4.297,9.680 4.134 C 9.135 4.019,8.018 4.029,7.547 4.154 C 5.863 4.597,4.632 5.811,4.149 7.505 C 3.978 8.106,3.977 9.177,4.148 9.805 C 4.378 10.647,4.706 11.233,5.317 11.893 L 5.668 12.272 5.528 12.736 C 5.167 13.928,5.043 14.783,5.046 16.053 C 5.049 16.773,5.077 17.145,5.170 17.680 C 5.492 19.531,6.170 21.158,7.184 22.513 L 7.622 23.098 6.653 24.416 C 6.121 25.140,5.532 25.960,5.344 26.237 C 5.012 26.724,5.002 26.748,5.025 27.020 C 5.069 27.556,5.479 27.943,6.005 27.945 C 6.502 27.948,6.485 27.966,8.158 25.760 C 8.637 25.129,9.037 24.603,9.048 24.590 C 9.081 24.552,9.386 24.729,9.920 25.096 C 11.853 26.423,14.489 27.137,16.728 26.941 C 18.771 26.762,20.551 26.141,22.190 25.038 C 22.558 24.790,22.882 24.587,22.910 24.588 C 22.962 24.589,23.344 25.078,24.571 26.717 C 24.975 27.258,25.372 27.748,25.453 27.807 C 25.546 27.875,25.709 27.920,25.906 27.933 C 26.456 27.970,26.885 27.640,26.963 27.121 C 27.031 26.667,27.013 26.638,25.221 24.228 L 24.370 23.085 24.576 22.836 C 25.589 21.613,26.423 19.804,26.810 17.992 C 26.948 17.350,26.957 17.224,26.956 16.000 C 26.955 14.733,26.950 14.669,26.784 13.893 C 26.690 13.453,26.565 12.937,26.507 12.747 C 26.361 12.270,26.369 12.211,26.617 11.971 C 27.162 11.442,27.618 10.654,27.837 9.864 C 27.994 9.298,27.994 8.037,27.837 7.466 C 27.399 5.871,26.075 4.570,24.478 4.165 C 24.078 4.064,23.159 3.989,22.853 4.033 M24.172 6.133 C 24.616 6.298,25.196 6.731,25.465 7.096 C 25.817 7.574,25.947 8.010,25.942 8.693 C 25.939 9.138,25.914 9.316,25.820 9.555 C 25.695 9.877,25.501 10.194,25.413 10.222 C 25.384 10.231,25.302 10.149,25.232 10.039 C 24.548 8.977,23.344 7.729,22.253 6.953 C 21.981 6.760,21.746 6.581,21.731 6.556 C 21.694 6.496,22.542 6.089,22.834 6.027 C 23.178 5.955,23.835 6.006,24.172 6.133 M9.254 6.085 C 9.560 6.141,10.294 6.469,10.292 6.547 C 10.292 6.569,10.190 6.657,10.066 6.743 C 8.684 7.703,7.681 8.686,6.916 9.825 C 6.764 10.051,6.622 10.237,6.601 10.238 C 6.579 10.239,6.500 10.147,6.425 10.034 C 5.939 9.300,5.904 8.265,6.336 7.442 C 6.890 6.388,8.029 5.858,9.254 6.085 M17.307 7.123 C 20.234 7.547,22.790 9.404,24.054 12.027 C 24.379 12.701,24.660 13.511,24.811 14.205 C 24.973 14.953,24.987 16.951,24.835 17.653 C 23.887 22.023,20.296 24.960,15.900 24.960 C 13.838 24.960,11.690 24.121,10.053 22.678 C 8.656 21.445,7.609 19.635,7.231 17.799 C 6.909 16.236,7.054 14.354,7.612 12.853 C 8.625 10.128,10.997 7.999,13.814 7.285 C 14.252 7.175,14.574 7.124,15.520 7.019 C 15.815 6.986,16.723 7.039,17.307 7.123 M15.547 11.140 C 15.279 11.307,15.102 11.534,15.044 11.787 C 15.014 11.920,14.989 12.681,14.988 13.498 L 14.987 14.970 13.359 15.001 C 11.730 15.032,11.730 15.032,11.496 15.169 C 11.186 15.350,10.956 15.790,11.011 16.093 C 11.065 16.389,11.279 16.721,11.506 16.862 C 11.703 16.984,11.736 16.987,13.343 17.004 L 14.979 17.021 14.996 18.657 C 15.013 20.231,15.018 20.300,15.130 20.481 C 15.282 20.725,15.510 20.890,15.805 20.969 C 16.006 21.023,16.078 21.018,16.284 20.940 C 16.418 20.889,16.591 20.796,16.670 20.734 C 16.959 20.507,16.979 20.381,17.003 18.627 L 17.025 17.013 18.483 17.013 C 20.190 17.013,20.390 16.984,20.682 16.693 C 21.134 16.240,21.073 15.560,20.548 15.199 C 20.312 15.037,19.885 15.000,18.177 14.992 L 17.022 14.987 17.004 13.373 C 16.987 11.766,16.986 11.759,16.853 11.524 C 16.608 11.089,15.942 10.894,15.547 11.140 " fill="var(--db-icon-color, currentColor)" stroke="none" fill-rule="evenodd"></path></svg>