<svg id="icon" height="20" viewBox="0 0 20 20" width="20" xmlns="http://www.w3.org/2000/svg"><path d="M2.867 2.033 C 2.523 2.077,2.255 2.264,2.110 2.560 L 2.017 2.750 2.017 10.000 L 2.017 17.250 2.094 17.406 C 2.192 17.606,2.394 17.808,2.594 17.906 L 2.750 17.983 10.000 17.983 L 17.250 17.983 17.406 17.906 C 17.606 17.808,17.808 17.606,17.906 17.406 L 17.983 17.250 17.993 11.750 C 18.000 7.978,17.992 6.212,17.968 6.129 C 17.920 5.963,17.611 5.617,16.496 4.484 C 15.310 3.278,14.158 2.181,13.983 2.091 C 13.861 2.028,13.775 2.022,12.930 2.007 L 12.011 1.991 11.991 3.113 C 11.973 4.161,11.967 4.245,11.902 4.380 C 11.809 4.570,11.570 4.809,11.374 4.906 L 11.217 4.983 9.000 4.983 L 6.783 4.983 6.624 4.905 C 6.423 4.806,6.195 4.579,6.100 4.384 C 6.031 4.241,6.026 4.177,6.009 3.117 L 5.990 2.000 4.520 2.004 C 3.711 2.007,2.968 2.019,2.867 2.033 M13.384 11.105 C 13.476 11.154,13.621 11.267,13.705 11.358 C 13.994 11.667,13.973 11.480,13.992 13.873 L 14.010 16.000 10.005 16.000 L 6.000 16.000 6.001 14.125 C 6.002 11.675,6.011 11.589,6.295 11.305 C 6.471 11.129,6.643 11.057,6.950 11.031 C 7.097 11.018,8.567 11.010,10.217 11.012 L 13.217 11.017 13.384 11.105 " fill="var(--db-icon-color, currentColor)" stroke="none" fill-rule="evenodd"></path></svg>