<svg id="icon" height="24" viewBox="0 0 24 24" width="24" xmlns="http://www.w3.org/2000/svg"><path d="M6.800 3.039 C 6.471 3.060,6.224 3.098,6.078 3.150 C 5.051 3.519,4.306 4.337,4.073 5.350 C 3.998 5.675,3.995 18.300,4.069 18.653 C 4.256 19.539,4.985 20.399,5.860 20.767 C 6.367 20.980,6.363 20.980,8.920 20.980 C 11.282 20.980,11.301 20.979,11.460 20.894 C 11.667 20.782,11.819 20.619,11.902 20.422 C 11.990 20.211,11.989 19.788,11.900 19.569 C 11.819 19.370,11.567 19.139,11.363 19.076 C 11.270 19.047,10.431 19.025,8.980 19.011 C 6.894 18.992,6.730 18.985,6.592 18.916 C 6.407 18.822,6.189 18.599,6.093 18.407 C 6.023 18.266,6.020 17.987,6.020 12.020 C 6.020 5.313,6.009 5.674,6.216 5.389 C 6.261 5.328,6.385 5.221,6.494 5.151 L 6.690 5.025 8.995 5.000 C 11.235 4.976,11.305 4.973,11.460 4.891 C 11.808 4.708,11.967 4.426,11.972 3.981 C 11.976 3.660,11.919 3.520,11.697 3.305 C 11.400 3.016,11.483 3.026,9.280 3.017 C 8.191 3.012,7.075 3.022,6.800 3.039 M16.239 7.063 C 15.679 7.232,15.388 7.897,15.642 8.426 C 15.711 8.567,16.050 8.937,16.888 9.784 C 17.522 10.424,18.040 10.957,18.040 10.968 C 18.040 10.980,16.290 10.998,14.150 11.008 C 10.770 11.025,10.241 11.035,10.117 11.089 C 9.314 11.434,9.318 12.511,10.124 12.922 C 10.272 12.998,10.388 13.000,14.185 13.000 L 18.094 13.000 16.895 14.210 C 16.140 14.972,15.668 15.479,15.621 15.580 C 15.571 15.685,15.545 15.829,15.544 16.000 C 15.543 16.767,16.343 17.243,16.965 16.844 C 17.156 16.722,19.912 14.055,20.724 13.208 C 21.440 12.460,21.460 12.427,21.460 12.000 C 21.460 11.680,21.451 11.640,21.340 11.479 C 21.070 11.086,17.174 7.247,16.910 7.114 C 16.724 7.020,16.449 6.999,16.239 7.063 " fill="var(--db-icon-color, currentColor)" stroke="none" fill-rule="evenodd"></path></svg>