<svg id="icon" height="20" viewBox="0 0 20 20" width="20" xmlns="http://www.w3.org/2000/svg"><path d="M4.583 2.048 C 4.282 2.107,4.110 2.171,3.801 2.338 C 3.253 2.633,2.913 2.995,2.630 3.583 C 2.423 4.014,2.385 4.190,2.386 4.717 C 2.387 5.099,2.398 5.183,2.480 5.433 C 2.666 6.000,2.976 6.467,3.389 6.805 C 3.590 6.969,3.636 7.023,3.622 7.080 C 3.612 7.118,3.529 7.367,3.436 7.633 C 2.749 9.618,2.961 11.761,4.028 13.633 C 4.128 13.808,4.269 14.036,4.342 14.141 C 4.423 14.258,4.467 14.352,4.454 14.385 C 4.443 14.414,4.218 14.786,3.955 15.211 C 3.052 16.671,3.013 16.749,3.042 17.067 C 3.076 17.439,3.272 17.732,3.590 17.888 C 3.743 17.963,3.821 17.979,4.033 17.979 C 4.253 17.979,4.312 17.966,4.446 17.888 C 4.650 17.768,4.773 17.608,5.426 16.617 C 5.727 16.158,5.978 15.779,5.983 15.774 C 5.987 15.769,6.109 15.835,6.254 15.921 C 7.062 16.402,7.977 16.730,8.991 16.902 C 9.369 16.966,9.502 16.972,10.183 16.957 C 10.784 16.944,11.017 16.926,11.261 16.872 C 12.240 16.658,13.005 16.362,13.746 15.911 C 13.909 15.812,14.045 15.735,14.050 15.740 C 14.054 15.746,14.336 16.171,14.675 16.685 C 15.344 17.701,15.461 17.834,15.763 17.922 C 16.108 18.022,16.436 17.935,16.689 17.676 C 16.946 17.411,17.048 17.071,16.968 16.739 C 16.927 16.568,16.656 16.098,15.939 14.956 C 15.734 14.629,15.567 14.349,15.567 14.334 C 15.567 14.319,15.681 14.129,15.820 13.912 C 16.462 12.910,16.876 11.723,16.970 10.612 C 17.011 10.127,16.985 9.347,16.913 8.867 C 16.849 8.438,16.657 7.722,16.499 7.318 C 16.427 7.135,16.379 6.976,16.392 6.965 C 16.708 6.709,16.811 6.612,16.982 6.412 C 17.202 6.154,17.416 5.755,17.534 5.383 C 17.597 5.187,17.608 5.074,17.608 4.667 C 17.608 4.116,17.561 3.911,17.330 3.467 C 17.068 2.960,16.691 2.589,16.161 2.316 C 15.730 2.093,15.442 2.026,14.917 2.025 C 14.543 2.025,14.442 2.037,14.183 2.115 C 13.616 2.283,13.107 2.621,12.770 3.052 C 12.667 3.183,12.568 3.314,12.550 3.343 C 12.520 3.390,12.497 3.389,12.317 3.332 C 11.339 3.020,9.652 2.946,8.568 3.166 C 8.386 3.204,8.083 3.286,7.894 3.350 C 7.706 3.414,7.543 3.467,7.531 3.467 C 7.519 3.467,7.452 3.380,7.383 3.275 C 7.016 2.721,6.310 2.228,5.683 2.089 C 5.334 2.012,4.858 1.994,4.583 2.048 M10.531 5.034 C 11.180 5.084,11.678 5.223,12.283 5.524 C 13.673 6.216,14.656 7.503,14.990 9.067 C 15.037 9.288,15.050 9.500,15.050 10.033 C 15.050 10.627,15.040 10.762,14.973 11.063 C 14.614 12.664,13.539 13.995,12.094 14.626 C 11.304 14.972,10.626 15.094,9.750 15.050 C 9.231 15.024,8.934 14.969,8.467 14.811 C 5.982 13.973,4.546 11.399,5.152 8.868 C 5.528 7.297,6.656 5.978,8.136 5.376 C 8.934 5.052,9.571 4.961,10.531 5.034 M9.000 8.000 L 9.000 9.000 8.000 9.000 L 7.000 9.000 7.000 10.000 L 7.000 11.000 8.000 11.000 L 9.000 11.000 9.000 12.000 L 9.000 13.000 10.000 13.000 L 11.000 13.000 11.000 12.000 L 11.000 11.000 12.000 11.000 L 13.000 11.000 13.000 10.000 L 13.000 9.000 12.000 9.000 L 11.000 9.000 11.000 8.000 L 11.000 7.000 10.000 7.000 L 9.000 7.000 9.000 8.000 " fill="var(--db-icon-color, currentColor)" stroke="none" fill-rule="evenodd"></path></svg>