<svg id="icon" height="32" viewBox="0 0 32 32" width="32" xmlns="http://www.w3.org/2000/svg"><path d="M14.347 2.112 C 12.071 2.412,10.105 3.141,8.256 4.370 C 5.009 6.529,2.881 9.821,2.186 13.760 C 2.037 14.606,1.982 16.476,2.078 17.420 C 2.337 19.975,3.311 22.419,4.901 24.507 C 5.384 25.141,6.671 26.450,7.307 26.953 C 9.028 28.314,10.967 29.221,13.177 29.699 C 14.698 30.028,16.754 30.072,18.267 29.809 C 20.415 29.434,22.552 28.545,24.161 27.357 C 27.503 24.889,29.551 21.320,29.924 17.313 C 30.003 16.468,29.959 14.694,29.842 13.956 C 29.363 10.947,28.139 8.473,26.056 6.304 C 24.295 4.470,21.991 3.114,19.565 2.485 C 18.463 2.199,18.020 2.135,16.737 2.080 C 15.264 2.016,15.047 2.019,14.347 2.112 M23.451 10.702 C 23.696 10.819,23.933 11.150,23.976 11.438 C 24.049 11.929,24.170 11.794,19.105 16.853 C 16.532 19.423,14.299 21.626,14.142 21.749 C 13.895 21.944,13.822 21.973,13.593 21.973 C 13.449 21.973,13.252 21.941,13.157 21.901 C 12.971 21.823,10.051 18.976,8.877 17.727 C 8.073 16.872,7.985 16.708,8.099 16.281 C 8.185 15.958,8.338 15.754,8.589 15.625 C 8.810 15.513,9.187 15.487,9.407 15.571 C 9.480 15.599,10.443 16.515,11.546 17.608 L 13.553 19.594 17.323 15.834 C 19.397 13.766,21.434 11.746,21.851 11.344 L 22.608 10.613 22.936 10.613 C 23.132 10.613,23.340 10.649,23.451 10.702 " fill="var(--db-icon-color, currentColor)" stroke="none" fill-rule="evenodd"></path></svg>