<svg id="icon" height="24" viewBox="0 0 24 24" width="24" xmlns="http://www.w3.org/2000/svg"><path d="M17.117 2.040 C 16.869 2.079,16.481 2.217,16.179 2.372 C 16.026 2.451,14.696 3.761,10.498 7.967 C 3.868 14.610,3.643 14.840,3.511 15.125 C 3.373 15.421,3.199 16.063,2.645 18.320 C 1.936 21.205,1.978 21.008,2.034 21.195 C 2.100 21.415,2.361 21.734,2.582 21.863 C 2.751 21.963,2.790 21.969,3.073 21.948 C 3.268 21.934,4.107 21.744,5.380 21.426 C 8.290 20.698,8.863 20.539,9.078 20.401 C 9.273 20.276,20.794 8.757,21.352 8.130 C 21.790 7.637,21.998 7.153,21.999 6.625 C 22.000 6.340,21.855 5.770,21.723 5.538 C 21.659 5.427,21.375 5.085,21.091 4.778 C 20.470 4.108,18.943 2.613,18.652 2.392 C 18.273 2.103,17.642 1.958,17.117 2.040 M17.629 4.167 C 17.712 4.237,18.270 4.781,18.870 5.377 C 19.895 6.395,19.960 6.468,19.960 6.604 C 19.960 6.799,19.847 6.943,19.144 7.640 L 18.560 8.219 17.190 6.850 L 15.821 5.480 16.380 4.916 C 17.008 4.283,17.292 4.040,17.402 4.040 C 17.443 4.040,17.545 4.097,17.629 4.167 M13.350 13.390 L 9.561 17.179 9.177 16.800 C 8.967 16.591,8.360 15.973,7.830 15.427 L 6.865 14.435 10.643 10.657 L 14.420 6.880 15.780 8.240 L 17.140 9.600 13.350 13.390 M6.850 17.274 C 7.549 17.979,8.120 18.575,8.120 18.597 C 8.120 18.619,8.088 18.654,8.050 18.674 C 7.896 18.753,4.546 19.572,4.457 19.552 C 4.420 19.543,4.527 19.055,4.858 17.734 C 5.106 16.741,5.322 15.909,5.338 15.884 C 5.385 15.807,5.525 15.936,6.850 17.274 " fill="var(--db-icon-color, currentColor)" stroke="none" fill-rule="evenodd"></path></svg>