<svg id="icon" height="24" viewBox="0 0 24 24" width="24" xmlns="http://www.w3.org/2000/svg"><path d="M11.120 2.043 C 10.245 2.126,9.232 2.360,8.471 2.655 C 5.375 3.853,3.085 6.434,2.303 9.607 C 2.114 10.376,2.042 10.891,2.013 11.680 C 1.920 14.253,2.860 16.799,4.606 18.704 C 6.222 20.468,8.244 21.544,10.620 21.905 C 11.283 22.006,12.711 22.007,13.360 21.908 C 15.460 21.585,17.229 20.747,18.745 19.353 C 20.468 17.771,21.560 15.708,21.906 13.379 C 22.005 12.716,22.005 11.287,21.907 10.627 C 21.815 10.013,21.594 9.134,21.392 8.585 C 20.139 5.172,17.066 2.647,13.553 2.141 C 12.691 2.017,11.782 1.980,11.120 2.043 M12.820 4.079 C 13.740 4.162,14.580 4.406,15.500 4.858 C 16.410 5.305,17.019 5.742,17.687 6.425 C 18.336 7.088,18.711 7.623,19.142 8.500 C 19.709 9.654,19.957 10.709,19.959 11.966 C 19.961 13.232,19.717 14.314,19.177 15.435 C 18.735 16.353,18.240 17.039,17.514 17.741 C 16.011 19.194,14.107 19.961,12.000 19.964 C 11.001 19.965,10.389 19.863,9.425 19.533 C 8.701 19.286,8.141 19.011,7.560 18.620 C 5.753 17.402,4.538 15.520,4.138 13.320 C 4.054 12.855,4.020 11.720,4.075 11.186 C 4.291 9.083,5.420 7.015,7.042 5.752 C 8.194 4.855,9.753 4.211,11.081 4.083 C 11.553 4.038,12.345 4.036,12.820 4.079 M11.792 6.039 C 11.523 6.090,11.235 6.340,11.066 6.668 C 11.007 6.783,11.000 7.035,11.003 9.108 C 11.005 10.380,11.019 11.638,11.034 11.906 L 11.062 12.391 11.300 12.666 C 11.800 13.244,14.339 15.748,14.520 15.841 C 14.787 15.980,15.189 15.975,15.466 15.830 C 15.970 15.567,16.155 14.982,15.875 14.538 C 15.807 14.429,15.133 13.719,14.377 12.960 L 13.004 11.580 12.992 9.160 C 12.979 6.472,12.997 6.654,12.702 6.350 C 12.447 6.088,12.120 5.976,11.792 6.039 " fill="var(--db-icon-color, currentColor)" stroke="none" fill-rule="evenodd"></path></svg>