<svg id="icon" height="20" viewBox="0 0 20 20" width="20" xmlns="http://www.w3.org/2000/svg"><path d="M6.800 2.031 C 6.509 2.091,6.212 2.328,6.088 2.597 C 6.037 2.709,6.018 2.816,6.018 3.000 C 6.018 3.289,6.023 3.300,6.586 4.286 C 6.774 4.617,6.938 4.925,6.949 4.969 C 6.966 5.039,6.929 5.084,6.684 5.295 C 6.358 5.575,5.927 6.096,5.684 6.504 C 5.500 6.814,5.281 7.330,5.166 7.730 L 5.090 7.990 3.914 8.008 L 2.738 8.025 2.527 8.140 C 2.276 8.278,2.122 8.465,2.046 8.724 C 1.911 9.189,2.144 9.686,2.606 9.920 C 2.764 10.000,2.767 10.000,3.882 10.000 L 5.000 10.000 5.000 10.495 L 5.000 10.990 3.869 11.007 L 2.738 11.025 2.528 11.140 C 2.276 11.278,2.122 11.465,2.046 11.724 C 1.911 12.189,2.144 12.686,2.606 12.920 C 2.764 13.000,2.767 13.000,3.882 13.000 L 5.000 13.000 5.001 13.192 C 5.001 13.374,5.047 13.759,5.086 13.916 L 5.105 13.990 3.921 14.008 L 2.738 14.025 2.527 14.140 C 2.276 14.278,2.122 14.465,2.046 14.724 C 1.912 15.185,2.144 15.686,2.599 15.916 C 2.750 15.992,2.756 15.993,4.387 16.005 L 6.025 16.017 6.185 16.200 C 6.963 17.093,7.922 17.665,9.044 17.906 C 9.498 18.003,10.432 18.012,10.878 17.922 C 11.997 17.698,13.029 17.106,13.735 16.284 L 13.976 16.003 15.613 15.993 C 17.247 15.983,17.250 15.983,17.406 15.906 C 18.158 15.536,18.192 14.522,17.466 14.136 L 17.258 14.025 16.077 14.008 L 14.895 13.990 14.914 13.916 C 14.953 13.759,14.999 13.375,14.999 13.194 L 15.000 13.004 16.125 12.994 C 17.223 12.984,17.254 12.981,17.406 12.906 C 18.158 12.536,18.192 11.522,17.465 11.135 L 17.257 11.025 16.129 11.007 L 15.000 10.990 15.000 10.497 L 15.000 10.004 16.125 9.994 C 17.223 9.984,17.254 9.981,17.406 9.906 C 18.158 9.536,18.192 8.522,17.466 8.136 L 17.258 8.025 16.086 8.008 L 14.914 7.990 14.809 7.653 C 14.504 6.672,14.003 5.890,13.278 5.260 L 12.972 4.995 13.301 4.448 C 13.482 4.147,13.710 3.755,13.807 3.575 C 13.977 3.262,13.983 3.241,13.981 3.000 C 13.977 2.592,13.816 2.322,13.465 2.135 C 13.191 1.989,12.875 1.979,12.598 2.106 C 12.299 2.244,12.223 2.341,11.607 3.370 C 11.402 3.711,11.209 4.022,11.176 4.061 C 11.117 4.132,11.114 4.132,10.800 4.080 C 10.410 4.015,9.329 4.033,9.025 4.109 L 8.834 4.158 8.444 3.487 C 7.874 2.508,7.723 2.282,7.577 2.190 C 7.356 2.051,7.028 1.984,6.800 2.031 M10.638 6.081 C 11.142 6.188,11.712 6.506,12.104 6.897 C 12.378 7.171,12.699 7.658,12.781 7.925 L 12.804 8.000 10.000 8.000 L 7.196 8.000 7.219 7.925 C 7.232 7.884,7.280 7.775,7.326 7.683 C 7.709 6.920,8.451 6.315,9.267 6.102 C 9.577 6.021,10.302 6.010,10.638 6.081 M12.988 11.742 C 12.964 13.622,12.959 13.669,12.772 14.122 C 12.614 14.503,12.359 14.868,12.037 15.173 C 11.707 15.487,11.372 15.692,10.941 15.845 C 10.666 15.943,10.618 15.949,10.078 15.960 C 9.636 15.969,9.459 15.960,9.301 15.920 C 8.232 15.646,7.369 14.790,7.097 13.734 C 7.039 13.511,7.030 13.311,7.011 11.743 L 6.989 10.000 10.000 10.000 L 13.011 10.000 12.988 11.742 M8.833 12.029 C 8.522 12.081,8.219 12.312,8.088 12.597 C 7.985 12.822,7.989 13.194,8.097 13.414 C 8.196 13.614,8.371 13.789,8.596 13.911 L 8.765 14.003 10.007 13.993 C 11.229 13.984,11.253 13.982,11.406 13.906 C 12.155 13.538,12.192 12.522,11.471 12.138 L 11.268 12.030 10.126 12.017 C 9.497 12.010,8.916 12.015,8.833 12.029 " fill="var(--db-icon-color, currentColor)" stroke="none" fill-rule="evenodd"></path></svg>