<svg id="icon" height="24" viewBox="0 0 24 24" width="24" xmlns="http://www.w3.org/2000/svg"><path d="M6.800 3.560 C 6.398 3.592,6.057 3.671,5.606 3.836 C 4.040 4.407,2.814 5.674,2.286 7.266 C 2.079 7.889,2.022 8.266,2.022 9.000 C 2.022 9.939,2.173 10.586,2.581 11.400 C 2.992 12.222,3.044 12.277,7.001 16.122 C 9.932 18.970,11.156 20.145,11.433 20.375 C 11.736 20.626,12.142 20.663,12.439 20.465 C 12.652 20.322,13.074 19.927,15.319 17.764 C 19.077 14.144,20.763 12.475,21.010 12.131 C 21.432 11.544,21.753 10.786,21.907 10.011 C 22.016 9.463,22.006 8.424,21.886 7.885 C 21.550 6.372,20.743 5.191,19.500 4.390 C 18.430 3.701,17.346 3.442,16.016 3.556 C 14.683 3.671,13.699 4.168,12.495 5.332 L 12.000 5.810 11.507 5.333 C 10.238 4.107,9.283 3.643,7.852 3.560 C 7.504 3.539,7.202 3.525,7.180 3.528 C 7.158 3.530,6.987 3.545,6.800 3.560 M8.340 5.636 C 9.097 5.850,9.416 6.071,10.552 7.172 C 11.591 8.179,11.713 8.264,12.061 8.228 C 12.178 8.216,12.336 8.177,12.411 8.142 C 12.486 8.106,12.960 7.679,13.464 7.194 C 14.461 6.232,14.710 6.033,15.182 5.818 C 15.647 5.606,15.893 5.561,16.602 5.561 C 17.323 5.560,17.523 5.600,18.010 5.845 C 18.850 6.267,19.343 6.766,19.722 7.575 C 19.943 8.047,20.016 8.461,19.988 9.079 C 19.955 9.811,19.797 10.295,19.400 10.880 C 19.239 11.116,14.899 15.400,12.330 17.858 L 12.000 18.174 11.650 17.837 C 10.089 16.333,7.066 13.388,6.000 12.333 C 4.580 10.929,4.455 10.772,4.190 10.070 C 4.073 9.759,4.064 9.701,4.049 9.075 C 4.034 8.487,4.042 8.375,4.118 8.095 C 4.475 6.787,5.617 5.737,6.874 5.562 C 7.273 5.506,8.011 5.544,8.340 5.636 " fill="var(--db-icon-color, currentColor)" stroke="none" fill-rule="evenodd"></path></svg>