<svg id="icon" height="32" viewBox="0 0 32 32" width="32" xmlns="http://www.w3.org/2000/svg"><path d="M21.867 4.178 C 20.551 4.571,19.444 5.734,19.120 7.064 C 19.024 7.459,18.989 8.324,19.057 8.652 L 19.098 8.851 14.569 11.115 L 10.041 13.380 9.862 13.195 C 9.624 12.949,8.980 12.507,8.619 12.342 C 8.187 12.145,7.674 12.055,6.968 12.054 C 6.241 12.053,5.892 12.127,5.304 12.407 C 4.491 12.792,3.793 13.479,3.413 14.267 C 3.111 14.891,3.024 15.281,3.024 16.000 C 3.024 16.726,3.113 17.118,3.417 17.733 C 4.607 20.141,7.702 20.742,9.654 18.944 L 10.000 18.626 14.133 20.698 C 16.407 21.837,18.441 22.867,18.653 22.987 L 19.040 23.204 19.040 23.927 C 19.040 24.774,19.110 25.111,19.418 25.738 C 19.909 26.740,20.719 27.435,21.840 27.818 C 22.218 27.947,22.346 27.963,22.960 27.964 C 23.746 27.965,24.119 27.887,24.722 27.600 C 25.514 27.221,26.207 26.529,26.584 25.739 C 26.877 25.128,26.956 24.756,26.956 24.000 C 26.956 23.024,26.721 22.304,26.156 21.553 C 25.704 20.952,24.748 20.330,23.975 20.134 C 23.549 20.026,22.421 20.026,22.005 20.134 C 21.417 20.287,20.258 20.967,20.092 21.256 C 20.061 21.311,20.011 21.315,19.879 21.273 C 19.784 21.244,17.745 20.244,15.347 19.051 L 10.987 16.883 10.987 16.002 L 10.987 15.120 15.440 12.893 C 17.889 11.669,19.920 10.667,19.953 10.667 C 19.986 10.667,20.155 10.799,20.329 10.960 C 20.715 11.317,21.271 11.634,21.840 11.821 C 22.212 11.943,22.356 11.961,22.960 11.962 C 23.748 11.963,24.124 11.885,24.722 11.600 C 25.514 11.221,26.207 10.529,26.584 9.739 C 26.877 9.128,26.956 8.756,26.956 8.000 C 26.956 7.244,26.877 6.872,26.584 6.261 C 26.188 5.432,25.572 4.833,24.670 4.401 C 24.058 4.107,23.784 4.053,22.944 4.056 C 22.404 4.058,22.186 4.083,21.867 4.178 M23.848 6.217 C 24.230 6.411,24.570 6.745,24.765 7.118 C 24.923 7.420,24.933 7.475,24.933 8.000 C 24.933 8.512,24.920 8.585,24.782 8.847 C 24.571 9.248,24.200 9.626,23.847 9.799 C 23.580 9.930,23.488 9.947,23.013 9.947 C 22.531 9.947,22.449 9.932,22.160 9.790 C 21.772 9.600,21.411 9.241,21.213 8.849 C 21.081 8.586,21.067 8.505,21.068 7.999 C 21.069 7.388,21.123 7.209,21.433 6.787 C 21.636 6.513,22.101 6.195,22.442 6.098 C 22.827 5.989,23.512 6.047,23.848 6.217 M7.848 14.217 C 8.228 14.410,8.542 14.719,8.753 15.107 C 8.925 15.425,8.933 15.465,8.933 16.000 C 8.933 16.512,8.920 16.585,8.782 16.847 C 8.357 17.654,7.561 18.084,6.720 17.961 C 6.103 17.871,5.506 17.431,5.213 16.850 C 5.081 16.587,5.067 16.504,5.068 15.999 C 5.069 15.388,5.123 15.209,5.433 14.787 C 5.636 14.513,6.101 14.195,6.442 14.098 C 6.827 13.989,7.512 14.047,7.848 14.217 M23.848 22.217 C 24.230 22.411,24.570 22.745,24.765 23.118 C 24.923 23.420,24.933 23.475,24.933 24.000 C 24.933 24.512,24.920 24.585,24.782 24.847 C 24.571 25.248,24.200 25.626,23.847 25.799 C 23.580 25.930,23.488 25.947,23.013 25.947 C 22.531 25.947,22.449 25.932,22.160 25.790 C 21.772 25.600,21.411 25.241,21.213 24.849 C 21.081 24.586,21.067 24.505,21.068 23.999 C 21.069 23.388,21.123 23.209,21.433 22.787 C 21.636 22.513,22.101 22.195,22.442 22.098 C 22.827 21.989,23.512 22.047,23.848 22.217 " fill="var(--db-icon-color, currentColor)" stroke="none" fill-rule="evenodd"></path></svg>