<svg id="icon" height="32" viewBox="0 0 32 32" width="32" xmlns="http://www.w3.org/2000/svg"><path d="M6.448 7.207 C 6.048 7.491,2.192 11.387,2.105 11.595 C 2.005 11.836,2.005 12.165,2.106 12.407 C 2.204 12.642,6.141 16.590,6.533 16.847 C 6.764 16.998,6.835 17.019,7.057 16.999 C 7.541 16.954,7.995 16.471,7.998 15.997 C 8.001 15.687,7.739 15.355,6.543 14.147 L 5.421 13.013 13.417 13.016 C 17.815 13.017,21.785 13.038,22.240 13.061 C 22.983 13.100,23.122 13.123,23.614 13.292 C 24.928 13.742,25.909 14.631,26.513 15.920 C 26.832 16.601,26.953 17.175,26.952 18.000 C 26.951 18.808,26.862 19.278,26.593 19.901 C 25.960 21.364,24.886 22.327,23.333 22.822 L 22.853 22.975 16.267 23.000 C 11.303 23.019,9.641 23.041,9.520 23.089 C 8.887 23.343,8.700 24.168,9.163 24.658 C 9.499 25.013,8.939 24.987,16.240 24.985 C 23.615 24.984,23.129 25.007,24.276 24.608 C 24.931 24.380,25.223 24.236,25.787 23.868 C 26.805 23.201,27.746 22.155,28.280 21.093 C 29.036 19.591,29.185 17.553,28.662 15.884 C 28.195 14.398,27.222 13.094,25.942 12.237 C 25.073 11.656,23.932 11.204,23.044 11.091 C 22.820 11.062,18.919 11.025,14.044 11.005 L 5.440 10.969 6.577 9.818 C 7.202 9.185,7.781 8.551,7.864 8.411 C 8.053 8.087,8.034 7.774,7.806 7.453 C 7.601 7.164,7.354 7.040,6.982 7.040 C 6.732 7.040,6.644 7.068,6.448 7.207 " fill="var(--db-icon-color, currentColor)" stroke="none" fill-rule="evenodd"></path></svg>