<svg id="icon" height="20" viewBox="0 0 20 20" width="20" xmlns="http://www.w3.org/2000/svg"><path d="M11.750 3.023 C 11.201 3.085,10.501 3.269,10.000 3.483 C 9.358 3.758,8.908 4.069,8.299 4.660 L 7.956 4.992 7.610 5.031 C 6.965 5.104,6.428 5.284,5.935 5.593 C 5.307 5.988,4.887 6.419,4.516 7.050 C 4.344 7.341,4.319 7.369,4.108 7.484 C 2.758 8.226,1.934 9.675,2.014 11.167 C 2.082 12.456,2.732 13.620,3.772 14.318 C 4.589 14.866,5.859 15.150,6.406 14.908 C 6.861 14.707,7.102 14.153,6.938 13.688 C 6.851 13.440,6.736 13.291,6.552 13.183 C 6.370 13.076,6.261 13.044,5.920 13.000 C 5.320 12.921,4.952 12.755,4.600 12.401 C 4.365 12.165,4.179 11.849,4.080 11.517 C 4.000 11.248,4.000 10.752,4.080 10.483 C 4.298 9.748,4.804 9.276,5.649 9.018 L 5.932 8.932 6.018 8.649 C 6.233 7.944,6.568 7.509,7.103 7.239 C 7.597 6.991,7.909 6.960,8.659 7.088 C 8.829 7.116,8.989 7.132,9.015 7.122 C 9.040 7.112,9.124 6.994,9.200 6.860 C 9.448 6.427,9.697 6.078,9.918 5.854 C 10.292 5.477,10.914 5.148,11.403 5.068 C 11.738 5.014,12.444 5.025,12.695 5.087 C 13.601 5.315,14.396 5.989,14.751 6.831 C 14.986 7.388,15.036 7.959,14.917 8.710 L 14.854 9.103 15.035 9.257 C 15.657 9.786,15.932 10.255,15.984 10.874 C 16.046 11.599,15.629 12.364,14.967 12.742 C 14.752 12.864,14.429 12.955,14.048 12.999 C 13.852 13.022,13.656 13.067,13.569 13.108 C 13.274 13.248,13.060 13.552,13.015 13.892 C 12.972 14.214,13.159 14.633,13.422 14.804 C 13.657 14.957,13.763 14.983,14.133 14.981 C 15.717 14.970,17.224 13.868,17.762 12.328 C 17.929 11.850,17.976 11.567,17.978 11.033 C 17.980 10.106,17.740 9.356,17.200 8.606 L 17.000 8.329 17.000 8.073 C 16.998 6.681,16.491 5.450,15.520 4.481 C 14.806 3.769,13.978 3.316,13.023 3.115 C 12.754 3.058,11.952 3.000,11.750 3.023 M9.817 9.032 C 9.523 9.084,9.436 9.153,8.549 10.043 C 7.554 11.042,7.518 11.093,7.520 11.500 C 7.521 11.690,7.539 11.788,7.597 11.908 C 7.823 12.374,8.311 12.592,8.790 12.440 L 8.997 12.375 9.007 14.062 L 9.017 15.750 9.094 15.907 C 9.256 16.235,9.660 16.500,10.000 16.500 C 10.340 16.500,10.744 16.235,10.906 15.907 L 10.983 15.750 10.993 14.063 L 11.003 12.375 11.143 12.427 C 11.363 12.509,11.718 12.499,11.906 12.406 C 12.106 12.308,12.308 12.106,12.406 11.906 C 12.515 11.685,12.513 11.317,12.401 11.083 C 12.293 10.857,10.695 9.256,10.450 9.128 C 10.267 9.033,10.022 8.996,9.817 9.032 " fill="var(--db-icon-color, currentColor)" stroke="none" fill-rule="evenodd"></path></svg>