<svg id="icon" height="32" viewBox="0 0 32 32" width="32" xmlns="http://www.w3.org/2000/svg"><path d="M15.547 2.107 C 15.032 2.387,15.020 2.440,14.997 4.411 L 14.978 6.075 14.729 6.108 C 14.205 6.179,13.357 6.409,12.875 6.610 C 10.451 7.623,8.853 9.742,8.243 12.751 C 8.043 13.742,8.001 14.430,8.000 16.747 C 7.998 20.258,7.912 21.042,7.415 22.053 C 7.100 22.695,6.649 23.245,6.053 23.716 C 5.253 24.349,5.081 24.537,5.038 24.823 C 4.991 25.134,5.071 25.427,5.266 25.658 C 5.560 26.007,5.466 25.998,8.882 26.017 L 11.977 26.034 12.037 26.470 C 12.184 27.538,12.663 28.393,13.529 29.129 C 14.847 30.249,17.153 30.249,18.471 29.129 C 19.337 28.393,19.816 27.538,19.963 26.470 L 20.023 26.034 23.118 26.017 C 26.530 25.998,26.441 26.007,26.731 25.662 C 26.923 25.434,27.006 25.154,26.967 24.869 C 26.925 24.563,26.792 24.381,26.384 24.070 C 25.430 23.345,24.923 22.790,24.593 22.111 C 24.092 21.080,24.056 20.772,24.001 17.013 C 23.954 13.745,23.927 13.368,23.674 12.347 C 23.086 9.973,21.913 8.229,20.187 7.160 C 19.408 6.678,18.508 6.338,17.533 6.157 L 17.013 6.060 17.013 4.423 L 17.013 2.785 16.840 2.530 C 16.591 2.162,16.444 2.073,16.046 2.045 C 15.797 2.027,15.664 2.043,15.547 2.107 M16.731 8.057 C 18.220 8.223,19.154 8.684,20.164 9.749 C 20.965 10.593,21.368 11.373,21.715 12.747 C 21.856 13.303,21.875 13.488,21.920 14.747 C 21.948 15.509,21.971 16.661,21.972 17.307 C 21.976 18.980,22.059 20.439,22.186 21.064 C 22.378 22.007,22.782 23.061,23.225 23.773 L 23.366 24.000 16.000 24.000 L 8.634 24.000 8.775 23.773 C 9.207 23.077,9.694 21.764,9.836 20.907 C 9.972 20.086,10.025 18.977,10.027 16.907 C 10.029 14.043,10.116 13.106,10.480 12.022 C 11.422 9.216,13.769 7.727,16.731 8.057 M17.957 26.289 C 17.916 26.636,17.650 27.151,17.372 27.423 C 17.248 27.544,16.991 27.717,16.800 27.808 C 16.497 27.953,16.397 27.973,16.000 27.973 C 15.603 27.973,15.503 27.953,15.200 27.808 C 15.009 27.717,14.752 27.544,14.628 27.423 C 14.350 27.151,14.084 26.636,14.043 26.289 L 14.012 26.027 16.000 26.027 L 17.988 26.027 17.957 26.289 " fill="var(--db-icon-color, currentColor)" stroke="none" fill-rule="evenodd"></path></svg>