<svg id="icon" height="24" viewBox="0 0 24 24" width="24" xmlns="http://www.w3.org/2000/svg"><path d="M11.320 2.027 C 10.705 2.071,9.659 2.265,9.085 2.441 C 6.453 3.251,4.230 5.141,3.041 7.580 C 2.232 9.240,1.927 10.793,2.038 12.694 C 2.130 14.281,2.647 15.877,3.530 17.300 C 4.979 19.637,7.361 21.267,10.140 21.824 C 10.824 21.961,11.834 22.018,12.669 21.967 C 15.444 21.795,18.022 20.443,19.812 18.220 C 21.083 16.642,21.844 14.687,21.963 12.692 C 22.056 11.118,21.844 9.727,21.299 8.335 C 20.321 5.840,18.239 3.738,15.760 2.739 C 14.679 2.304,13.687 2.097,12.402 2.040 C 11.928 2.018,11.531 2.004,11.520 2.008 C 11.509 2.011,11.419 2.020,11.320 2.027 M12.660 4.040 C 14.664 4.222,16.525 5.127,17.850 6.564 C 18.414 7.176,18.734 7.642,19.120 8.420 C 19.515 9.214,19.673 9.659,19.820 10.380 C 20.037 11.450,20.037 12.510,19.819 13.586 C 19.256 16.373,17.233 18.669,14.540 19.577 C 12.876 20.138,11.195 20.137,9.482 19.576 C 6.633 18.641,4.563 16.166,4.097 13.140 C 4.006 12.549,4.007 11.415,4.098 10.821 C 4.469 8.414,5.859 6.342,7.918 5.128 C 9.348 4.285,11.052 3.894,12.660 4.040 M11.696 6.045 C 11.443 6.103,11.121 6.318,10.980 6.525 C 10.573 7.119,10.765 7.941,11.395 8.312 C 11.565 8.411,11.615 8.420,12.000 8.420 C 12.385 8.420,12.435 8.411,12.605 8.312 C 12.818 8.186,13.001 7.990,13.130 7.749 C 13.254 7.516,13.256 6.986,13.133 6.716 C 12.908 6.219,12.261 5.917,11.696 6.045 M9.993 10.034 C 9.636 10.064,9.424 10.185,9.221 10.475 C 9.109 10.635,9.100 10.672,9.100 10.996 C 9.100 11.309,9.111 11.363,9.208 11.510 C 9.337 11.704,9.543 11.869,9.750 11.943 C 9.846 11.977,10.096 11.997,10.450 11.998 L 11.000 12.000 11.000 13.495 L 11.000 14.990 10.390 15.009 C 9.667 15.031,9.523 15.076,9.264 15.364 C 8.958 15.704,8.923 16.142,9.172 16.503 C 9.335 16.739,9.585 16.920,9.807 16.963 C 9.902 16.981,10.944 16.997,12.122 16.998 L 14.264 17.000 14.458 16.877 C 14.679 16.737,14.768 16.643,14.882 16.430 C 15.072 16.073,15.005 15.618,14.717 15.322 C 14.465 15.062,14.351 15.029,13.630 15.008 L 13.000 14.990 13.000 13.181 C 13.000 10.884,12.987 10.690,12.824 10.446 C 12.756 10.345,12.619 10.213,12.520 10.153 L 12.340 10.043 11.320 10.025 C 10.759 10.015,10.162 10.019,9.993 10.034 " fill="var(--db-icon-color, currentColor)" stroke="none" fill-rule="evenodd"></path></svg>