<svg id="icon" height="20" viewBox="0 0 20 20" width="20" xmlns="http://www.w3.org/2000/svg"><path d="M9.783 2.030 C 9.489 2.106,9.227 2.324,9.084 2.611 L 9.000 2.780 9.000 6.177 L 9.000 9.574 8.282 8.873 C 7.840 8.441,7.510 8.145,7.422 8.102 C 7.213 8.001,6.842 8.007,6.611 8.114 C 6.396 8.214,6.204 8.404,6.101 8.618 C 5.997 8.834,5.987 9.217,6.080 9.417 C 6.121 9.506,6.673 10.080,7.765 11.170 C 9.605 13.006,9.576 12.983,10.033 12.981 C 10.228 12.980,10.316 12.962,10.433 12.902 C 10.532 12.851,11.036 12.374,11.913 11.504 C 13.316 10.110,13.794 9.602,13.910 9.383 C 14.011 9.191,14.010 8.807,13.907 8.597 C 13.702 8.176,13.202 7.929,12.766 8.033 C 12.542 8.087,12.382 8.218,11.626 8.961 L 11.002 9.575 10.993 6.162 C 10.982 2.320,11.006 2.646,10.717 2.338 C 10.633 2.247,10.494 2.144,10.407 2.107 C 10.226 2.029,9.928 1.992,9.783 2.030 M3.783 12.030 C 3.488 12.107,3.227 12.324,3.084 12.611 L 3.000 12.780 3.000 14.126 L 3.000 15.473 3.121 15.837 C 3.458 16.851,4.133 17.529,5.153 17.877 L 5.517 18.001 9.995 18.000 L 14.473 18.000 14.837 17.879 C 15.857 17.540,16.550 16.845,16.880 15.829 L 17.000 15.461 17.000 14.170 C 17.000 12.667,16.997 12.644,16.731 12.354 C 16.484 12.084,16.338 12.024,15.955 12.038 C 15.660 12.049,15.635 12.056,15.454 12.176 C 15.331 12.258,15.221 12.369,15.141 12.493 L 15.017 12.683 14.996 13.972 C 14.973 15.454,14.978 15.428,14.649 15.729 C 14.328 16.021,14.695 16.000,10.000 16.000 C 5.305 16.000,5.672 16.021,5.351 15.729 C 5.021 15.427,5.025 15.448,5.008 14.003 L 4.993 12.750 4.891 12.557 C 4.778 12.342,4.667 12.235,4.434 12.117 C 4.264 12.031,3.943 11.988,3.783 12.030 " fill="var(--db-icon-color, currentColor)" stroke="none" fill-rule="evenodd"></path></svg>