<svg id="icon" height="24" viewBox="0 0 24 24" width="24" xmlns="http://www.w3.org/2000/svg"><path d="M15.768 3.082 C 15.420 3.125,14.755 3.341,14.374 3.534 C 13.871 3.789,13.509 4.088,12.575 5.018 C 11.455 6.134,11.357 6.293,11.495 6.769 C 11.631 7.237,12.013 7.539,12.461 7.534 C 12.824 7.529,12.951 7.437,14.000 6.422 C 14.884 5.566,15.010 5.459,15.300 5.316 C 16.014 4.964,16.730 4.954,17.440 5.285 C 18.361 5.715,18.887 6.523,18.884 7.500 C 18.882 7.968,18.814 8.266,18.617 8.671 C 18.487 8.937,18.349 9.089,16.947 10.507 C 15.322 12.152,14.579 12.860,14.259 13.072 C 13.945 13.281,13.573 13.376,13.080 13.375 C 12.380 13.373,11.943 13.214,11.289 12.723 C 10.869 12.407,10.699 12.356,10.338 12.437 C 9.760 12.566,9.432 13.153,9.620 13.719 C 9.783 14.211,10.713 14.890,11.641 15.195 C 12.113 15.350,12.440 15.399,13.012 15.399 C 13.628 15.400,13.974 15.343,14.513 15.153 C 15.434 14.828,15.537 14.745,17.744 12.541 C 18.803 11.485,19.787 10.479,19.932 10.307 C 20.247 9.932,20.595 9.260,20.739 8.748 C 21.023 7.743,20.950 6.706,20.526 5.725 C 19.970 4.435,18.654 3.373,17.320 3.139 C 16.909 3.067,16.121 3.038,15.768 3.082 M10.258 8.601 C 9.554 8.675,8.626 9.092,8.049 9.593 C 7.857 9.760,6.871 10.725,5.858 11.738 C 4.353 13.242,3.973 13.645,3.782 13.934 C 3.502 14.356,3.271 14.876,3.132 15.397 C 3.041 15.735,3.029 15.858,3.029 16.440 C 3.029 17.029,3.041 17.143,3.136 17.500 C 3.647 19.408,5.128 20.685,7.105 20.921 C 7.767 21.000,8.549 20.870,9.304 20.556 C 9.859 20.325,10.262 20.014,11.197 19.096 C 12.200 18.112,12.378 17.900,12.445 17.612 C 12.526 17.259,12.344 16.854,11.990 16.597 C 11.839 16.488,11.804 16.480,11.458 16.480 C 11.088 16.480,11.087 16.480,10.894 16.634 C 10.787 16.718,10.349 17.128,9.920 17.544 C 8.991 18.444,8.846 18.567,8.542 18.701 C 7.406 19.203,6.127 18.840,5.446 17.822 C 5.129 17.347,5.060 17.092,5.061 16.400 C 5.062 15.853,5.069 15.804,5.177 15.547 C 5.239 15.397,5.366 15.172,5.458 15.047 C 5.656 14.779,8.074 12.318,8.945 11.499 C 9.423 11.050,9.607 10.904,9.823 10.801 C 10.221 10.614,10.582 10.547,11.031 10.579 C 11.695 10.626,12.007 10.746,12.507 11.150 C 12.902 11.468,13.152 11.576,13.438 11.550 C 14.157 11.484,14.572 10.761,14.255 10.125 C 14.014 9.642,12.903 8.921,12.060 8.701 C 11.811 8.636,11.034 8.558,10.720 8.566 C 10.621 8.569,10.413 8.584,10.258 8.601 " fill="var(--db-icon-color, currentColor)" stroke="none" fill-rule="evenodd"></path></svg>