<svg id="icon" height="20" viewBox="0 0 20 20" width="20" xmlns="http://www.w3.org/2000/svg"><path d="M8.967 2.120 C 8.123 2.212,7.816 2.273,7.290 2.455 C 6.448 2.747,5.735 3.180,5.158 3.747 C 4.940 3.962,4.894 4.028,4.847 4.189 C 4.691 4.725,4.991 5.296,5.508 5.449 C 5.873 5.558,6.167 5.473,6.571 5.144 C 7.459 4.421,8.222 4.133,9.248 4.133 C 9.904 4.134,10.434 4.251,10.986 4.520 C 11.384 4.714,11.646 4.899,11.973 5.220 C 12.597 5.832,12.922 6.373,13.119 7.129 C 13.192 7.408,13.200 7.509,13.200 8.098 C 13.200 8.791,13.168 9.008,12.997 9.467 C 12.870 9.806,12.533 10.413,12.207 10.891 C 10.978 12.690,10.867 12.867,10.646 13.369 C 10.568 13.546,10.442 13.900,10.366 14.154 C 10.200 14.708,10.083 14.966,9.877 15.224 C 9.585 15.590,9.239 15.831,8.783 15.986 C 8.499 16.083,8.571 16.080,7.250 16.054 C 6.952 16.048,6.623 16.265,6.459 16.576 C 6.398 16.692,6.385 16.769,6.386 17.017 C 6.388 17.362,6.443 17.503,6.656 17.705 C 6.928 17.963,7.258 18.063,7.933 18.088 C 8.904 18.125,9.686 17.908,10.465 17.385 C 10.871 17.112,11.142 16.866,11.417 16.523 C 11.827 16.011,11.995 15.674,12.253 14.842 C 12.497 14.053,12.711 13.653,13.416 12.667 C 14.284 11.454,14.694 10.720,14.962 9.900 C 15.793 7.362,14.740 4.491,12.450 3.050 C 11.699 2.578,10.834 2.271,9.967 2.171 C 9.606 2.129,9.117 2.104,8.967 2.120 M8.767 5.154 C 7.981 5.305,7.159 5.807,6.959 6.260 C 6.866 6.469,6.865 6.863,6.957 7.069 C 7.041 7.255,7.344 7.543,7.518 7.600 C 7.590 7.625,7.755 7.644,7.883 7.644 C 8.158 7.644,8.320 7.580,8.612 7.357 C 8.845 7.180,8.983 7.133,9.274 7.133 C 9.840 7.133,10.280 7.627,10.223 8.198 C 10.208 8.341,10.145 8.499,9.944 8.896 C 9.700 9.375,9.684 9.421,9.686 9.612 C 9.691 9.984,9.909 10.318,10.261 10.491 C 10.507 10.611,10.835 10.619,11.076 10.509 C 11.483 10.323,11.958 9.556,12.169 8.744 C 12.258 8.405,12.264 7.851,12.183 7.500 C 11.966 6.563,11.406 5.852,10.542 5.419 C 10.148 5.221,9.879 5.161,9.333 5.149 C 9.067 5.143,8.813 5.146,8.767 5.154 " fill="var(--db-icon-color, currentColor)" stroke="none" fill-rule="evenodd"></path></svg>