<svg id="icon" height="24" viewBox="0 0 24 24" width="24" xmlns="http://www.w3.org/2000/svg"><path d="M6.809 2.100 C 5.643 2.311,4.882 2.842,4.415 3.770 C 4.226 4.145,4.133 4.406,4.001 4.930 L 3.888 5.380 3.444 5.391 L 3.000 5.403 3.000 5.961 L 3.000 6.520 3.420 6.520 L 3.840 6.520 3.840 6.980 L 3.840 7.440 3.420 7.440 L 3.000 7.440 3.000 8.000 L 3.000 8.560 3.418 8.560 C 3.650 8.560,3.846 8.578,3.860 8.600 C 3.873 8.621,3.936 8.853,4.000 9.115 C 4.228 10.048,4.507 10.594,4.998 11.070 C 5.462 11.519,5.949 11.759,6.687 11.899 C 7.150 11.987,8.059 12.020,8.508 11.964 C 9.352 11.860,10.153 11.566,10.438 11.257 C 10.572 11.113,10.680 10.881,10.680 10.740 C 10.680 10.613,10.579 10.379,10.472 10.257 C 10.215 9.965,10.029 9.942,9.171 10.101 C 8.461 10.232,8.006 10.263,7.665 10.204 C 6.887 10.068,6.566 9.763,6.358 8.961 C 6.311 8.781,6.285 8.622,6.300 8.607 C 6.315 8.592,6.883 8.574,7.563 8.567 L 8.800 8.555 8.800 7.997 L 8.800 7.440 7.520 7.440 L 6.240 7.440 6.240 6.980 L 6.240 6.520 7.520 6.520 L 8.800 6.520 8.800 5.961 L 8.800 5.401 7.550 5.391 L 6.300 5.380 6.311 5.280 C 6.336 5.051,6.508 4.606,6.658 4.381 C 6.988 3.890,7.423 3.734,8.356 3.771 C 8.655 3.783,9.043 3.823,9.217 3.861 C 9.795 3.985,10.178 3.892,10.426 3.568 C 10.590 3.355,10.626 3.140,10.542 2.887 C 10.394 2.441,9.960 2.211,9.020 2.081 C 8.614 2.024,7.157 2.037,6.809 2.100 M12.640 12.719 C 12.092 12.790,11.570 13.064,11.120 13.518 C 10.791 13.850,10.566 14.202,10.438 14.586 L 10.355 14.835 9.848 14.653 C 9.568 14.553,9.034 14.361,8.660 14.226 L 7.980 13.981 7.240 13.981 C 6.537 13.980,6.485 13.985,6.208 14.087 C 5.300 14.418,4.544 15.141,4.311 15.898 C 4.078 16.653,4.307 17.547,4.879 18.119 C 5.107 18.347,5.490 18.558,6.712 19.129 C 9.266 20.323,10.042 20.632,10.960 20.818 C 11.771 20.983,12.514 21.006,16.580 20.993 C 20.730 20.979,20.391 21.003,20.686 20.693 C 21.055 20.305,21.092 19.873,20.795 19.425 C 20.652 19.210,20.548 19.130,20.331 19.071 C 20.235 19.044,18.686 19.019,16.060 19.001 C 11.629 18.971,11.737 18.976,10.933 18.756 C 10.392 18.607,9.915 18.408,8.089 17.565 C 6.469 16.817,6.200 16.671,6.200 16.538 C 6.200 16.442,6.463 16.182,6.681 16.063 C 6.877 15.957,6.907 15.952,7.294 15.969 L 7.700 15.987 9.240 16.557 C 11.290 17.315,11.854 17.505,12.205 17.556 C 12.662 17.621,13.502 17.680,14.381 17.707 C 15.288 17.735,15.395 17.717,15.648 17.488 C 16.060 17.116,16.106 16.532,15.756 16.108 C 15.514 15.814,15.408 15.790,13.813 15.680 C 13.171 15.636,12.577 15.577,12.493 15.550 C 12.357 15.506,12.339 15.484,12.328 15.356 C 12.318 15.243,12.345 15.174,12.449 15.038 C 12.703 14.703,12.711 14.702,13.971 14.687 C 15.801 14.666,16.310 14.751,17.289 15.242 C 17.782 15.489,18.011 15.649,18.810 16.304 C 19.464 16.838,19.731 17.000,19.961 17.000 C 20.720 17.000,21.219 16.224,20.883 15.565 C 20.787 15.377,20.446 15.060,19.680 14.444 C 18.991 13.890,18.664 13.669,18.180 13.429 C 17.515 13.099,16.938 12.906,16.240 12.781 C 15.938 12.726,15.555 12.709,14.380 12.699 C 13.566 12.691,12.783 12.700,12.640 12.719 " fill="var(--db-icon-color, currentColor)" stroke="none" fill-rule="evenodd"></path></svg>