<svg id="icon" height="20" viewBox="0 0 20 20" width="20" xmlns="http://www.w3.org/2000/svg"><path d="M4.667 2.036 C 4.239 2.091,3.828 2.268,3.426 2.569 C 2.794 3.043,2.369 3.915,2.367 4.737 C 2.367 5.086,2.491 5.558,2.681 5.926 C 2.908 6.366,3.159 6.650,3.608 6.975 C 3.661 7.014,3.657 7.036,3.551 7.300 C 3.154 8.288,2.991 9.349,3.062 10.493 C 3.135 11.662,3.595 13.013,4.267 14.027 C 4.388 14.210,4.464 14.358,4.453 14.388 C 4.442 14.415,4.218 14.786,3.955 15.211 C 3.692 15.636,3.380 16.148,3.263 16.350 L 3.050 16.717 3.050 17.017 C 3.051 17.358,3.108 17.505,3.322 17.720 C 3.513 17.910,3.702 17.981,4.022 17.980 C 4.506 17.979,4.622 17.864,5.467 16.552 C 5.732 16.139,5.971 15.801,5.996 15.801 C 6.021 15.800,6.174 15.876,6.336 15.968 C 7.150 16.434,7.998 16.733,8.978 16.900 C 9.470 16.983,10.478 16.992,10.973 16.918 C 11.875 16.782,12.869 16.428,13.652 15.965 C 13.837 15.856,14.010 15.767,14.037 15.767 C 14.064 15.767,14.114 15.815,14.148 15.875 C 14.320 16.170,15.302 17.629,15.387 17.713 C 15.642 17.968,16.118 18.031,16.474 17.857 C 16.704 17.743,16.838 17.582,16.931 17.308 C 17.007 17.082,17.017 16.913,16.967 16.731 C 16.924 16.579,16.595 16.007,16.022 15.088 C 15.771 14.688,15.567 14.348,15.567 14.333 C 15.567 14.319,15.681 14.129,15.820 13.912 C 16.462 12.910,16.876 11.723,16.970 10.612 C 17.011 10.127,16.985 9.347,16.913 8.867 C 16.852 8.457,16.663 7.740,16.516 7.360 C 16.452 7.195,16.400 7.035,16.400 7.005 C 16.400 6.975,16.453 6.914,16.518 6.870 C 16.583 6.826,16.756 6.663,16.902 6.508 C 17.468 5.911,17.738 5.024,17.586 4.265 C 17.414 3.406,16.837 2.684,15.978 2.253 C 15.641 2.085,15.358 2.025,14.900 2.027 C 13.935 2.032,13.099 2.500,12.550 3.344 C 12.520 3.390,12.495 3.389,12.317 3.332 C 11.339 3.020,9.652 2.946,8.569 3.166 C 8.388 3.203,8.078 3.288,7.880 3.355 L 7.520 3.477 7.469 3.398 C 7.204 2.993,6.774 2.581,6.400 2.373 C 6.138 2.227,5.663 2.076,5.334 2.035 C 5.021 1.996,4.979 1.996,4.667 2.036 M10.531 5.034 C 11.180 5.084,11.678 5.223,12.283 5.524 C 13.673 6.216,14.656 7.503,14.990 9.067 C 15.037 9.288,15.050 9.500,15.050 10.033 C 15.050 10.627,15.040 10.762,14.973 11.063 C 14.614 12.664,13.539 13.995,12.094 14.626 C 11.304 14.972,10.626 15.094,9.750 15.050 C 9.231 15.024,8.934 14.969,8.467 14.811 C 5.982 13.973,4.546 11.399,5.152 8.868 C 5.528 7.297,6.656 5.978,8.136 5.376 C 8.934 5.052,9.571 4.961,10.531 5.034 M9.033 8.511 L 9.033 10.488 10.200 11.630 C 10.841 12.258,11.380 12.767,11.396 12.761 C 11.446 12.742,12.716 11.397,12.727 11.351 C 12.732 11.328,12.346 10.928,11.868 10.463 L 11.000 9.617 11.000 8.075 L 11.000 6.533 10.017 6.533 L 9.033 6.533 9.033 8.511 " fill="var(--db-icon-color, currentColor)" stroke="none" fill-rule="evenodd"></path></svg>