<svg id="icon" height="24" viewBox="0 0 24 24" width="24" xmlns="http://www.w3.org/2000/svg"><path d="M11.791 2.027 C 11.643 2.051,9.807 2.964,9.502 3.165 C 9.215 3.353,9.100 3.506,9.036 3.782 C 8.971 4.066,9.065 4.382,9.285 4.621 C 9.651 5.018,10.045 5.062,10.649 4.772 L 10.993 4.607 11.007 5.453 C 11.022 6.382,11.029 6.415,11.284 6.673 C 11.498 6.890,11.703 6.977,12.000 6.977 C 12.315 6.977,12.510 6.886,12.747 6.629 C 12.965 6.393,13.000 6.210,13.000 5.318 L 13.000 4.599 13.270 4.734 C 13.845 5.021,14.134 5.057,14.470 4.884 C 14.817 4.706,15.017 4.381,15.017 4.000 C 15.017 3.697,14.922 3.481,14.708 3.292 C 14.574 3.175,12.978 2.348,12.500 2.148 C 12.249 2.043,11.976 1.997,11.791 2.027 M6.120 4.806 C 5.790 4.936,3.476 6.100,3.350 6.199 C 3.289 6.247,3.190 6.370,3.130 6.473 L 3.020 6.660 3.006 8.122 C 2.991 9.723,3.000 9.809,3.211 10.086 C 3.642 10.650,4.563 10.573,4.889 9.946 C 4.964 9.802,4.977 9.697,4.992 9.150 C 5.003 8.764,5.025 8.520,5.050 8.520 C 5.072 8.520,5.183 8.573,5.297 8.638 C 5.814 8.934,6.246 8.912,6.568 8.574 C 6.983 8.137,6.823 7.458,6.236 7.158 C 6.041 7.058,6.020 7.081,6.567 6.797 C 6.780 6.686,7.026 6.543,7.114 6.480 C 7.320 6.330,7.476 6.062,7.507 5.805 C 7.595 5.062,6.844 4.521,6.120 4.806 M17.092 4.779 C 16.876 4.873,16.612 5.147,16.543 5.349 C 16.459 5.595,16.465 5.902,16.556 6.104 C 16.657 6.326,16.869 6.495,17.403 6.781 C 17.651 6.913,17.860 7.039,17.867 7.061 C 17.875 7.084,17.819 7.135,17.744 7.175 C 17.668 7.216,17.535 7.320,17.448 7.406 C 17.002 7.848,17.197 8.620,17.807 8.822 C 18.065 8.908,18.236 8.875,18.655 8.659 L 18.993 8.485 19.007 9.136 C 19.020 9.780,19.021 9.789,19.141 9.983 C 19.543 10.636,20.457 10.636,20.859 9.983 L 20.980 9.786 20.980 8.223 L 20.980 6.660 20.866 6.467 C 20.798 6.351,20.679 6.226,20.566 6.154 C 20.464 6.088,19.789 5.738,19.067 5.377 C 17.757 4.722,17.753 4.720,17.487 4.722 C 17.340 4.722,17.162 4.748,17.092 4.779 M8.946 8.705 C 8.865 8.749,8.786 8.863,8.678 9.094 C 8.423 9.640,6.680 14.206,6.680 14.331 C 6.680 14.361,6.726 14.429,6.782 14.482 C 6.864 14.559,6.937 14.581,7.154 14.593 C 7.658 14.621,7.798 14.494,8.064 13.770 L 8.214 13.360 9.337 13.360 L 10.460 13.361 10.630 13.790 C 10.850 14.346,10.929 14.471,11.109 14.546 C 11.428 14.679,11.972 14.587,12.021 14.391 C 12.048 14.281,11.896 13.841,11.202 12.020 C 10.430 9.997,10.003 8.935,9.916 8.825 C 9.872 8.769,9.770 8.704,9.688 8.682 C 9.470 8.621,9.078 8.633,8.946 8.705 M13.018 8.780 C 12.916 8.888,12.880 8.968,12.859 9.131 C 12.845 9.247,12.839 10.431,12.847 11.761 C 12.857 13.653,12.871 14.200,12.912 14.271 C 13.004 14.433,13.276 14.600,13.447 14.600 C 13.761 14.600,13.998 14.427,14.076 14.140 C 14.102 14.045,14.120 13.585,14.120 13.010 L 14.120 12.040 14.370 12.042 C 14.676 12.044,14.914 12.123,15.020 12.257 C 15.064 12.313,15.334 12.822,15.620 13.389 C 16.113 14.367,16.148 14.424,16.300 14.498 C 16.664 14.677,17.178 14.605,17.279 14.362 C 17.337 14.223,17.276 14.070,16.713 12.946 C 16.413 12.346,16.266 12.098,16.118 11.942 L 15.923 11.735 16.165 11.624 C 16.620 11.415,16.852 11.092,16.930 10.558 C 17.016 9.968,16.852 9.408,16.496 9.081 C 16.091 8.707,15.739 8.641,14.165 8.640 L 13.149 8.640 13.018 8.780 M15.413 9.670 C 15.623 9.793,15.695 9.966,15.698 10.357 C 15.701 10.778,15.617 10.972,15.377 11.097 C 15.246 11.167,15.131 11.182,14.670 11.194 L 14.120 11.208 14.120 10.378 L 14.120 9.548 14.705 9.573 C 15.163 9.593,15.316 9.614,15.413 9.670 M9.776 11.345 C 9.981 11.914,10.141 12.393,10.132 12.410 C 10.114 12.443,8.600 12.453,8.600 12.420 C 8.600 12.401,9.228 10.623,9.320 10.380 C 9.343 10.319,9.372 10.278,9.383 10.290 C 9.395 10.301,9.572 10.776,9.776 11.345 M3.660 13.562 C 3.487 13.613,3.257 13.817,3.130 14.033 L 3.020 14.220 3.020 15.740 L 3.020 17.260 3.133 17.452 C 3.195 17.557,3.321 17.698,3.413 17.765 C 3.505 17.832,4.177 18.185,4.906 18.549 C 6.333 19.261,6.454 19.303,6.819 19.200 C 7.189 19.097,7.520 18.662,7.520 18.279 C 7.520 18.015,7.418 17.751,7.251 17.584 C 7.171 17.504,6.893 17.331,6.633 17.198 C 6.373 17.065,6.160 16.940,6.160 16.919 C 6.160 16.898,6.228 16.838,6.310 16.785 C 6.616 16.589,6.800 16.290,6.800 15.990 C 6.800 15.527,6.407 15.142,5.933 15.141 C 5.763 15.140,5.660 15.174,5.363 15.328 L 5.000 15.515 5.000 14.948 C 5.000 14.635,4.981 14.313,4.958 14.231 C 4.849 13.838,4.417 13.517,4.005 13.524 C 3.881 13.526,3.726 13.543,3.660 13.562 M19.557 13.630 C 19.316 13.753,19.107 13.996,19.042 14.231 C 19.019 14.313,19.000 14.637,19.000 14.950 L 19.000 15.520 18.658 15.340 C 18.361 15.183,18.285 15.160,18.071 15.160 C 17.493 15.160,17.148 15.563,17.221 16.155 C 17.242 16.331,17.276 16.401,17.408 16.544 C 17.497 16.641,17.631 16.757,17.705 16.803 C 17.779 16.849,17.840 16.902,17.840 16.921 C 17.840 16.940,17.623 17.067,17.358 17.204 C 16.781 17.502,16.589 17.674,16.502 17.965 C 16.424 18.227,16.424 18.339,16.501 18.565 C 16.622 18.920,16.953 19.193,17.342 19.257 C 17.568 19.295,17.757 19.218,19.157 18.516 C 20.544 17.821,20.695 17.727,20.859 17.463 L 20.980 17.266 20.980 15.803 C 20.980 14.998,20.965 14.271,20.948 14.188 C 20.905 13.986,20.670 13.731,20.420 13.614 C 20.136 13.482,19.839 13.487,19.557 13.630 M11.675 17.060 C 11.473 17.125,11.205 17.358,11.094 17.568 C 11.036 17.677,11.021 17.828,11.010 18.440 C 11.003 18.847,10.989 19.220,10.978 19.268 C 10.960 19.355,10.954 19.354,10.630 19.196 C 10.311 19.041,10.288 19.036,9.953 19.048 C 9.642 19.059,9.589 19.073,9.434 19.181 C 8.938 19.530,8.861 20.261,9.277 20.677 C 9.462 20.862,11.481 21.888,11.790 21.954 C 11.945 21.987,12.055 21.987,12.208 21.954 C 12.464 21.900,14.383 20.941,14.659 20.730 C 14.921 20.530,15.016 20.295,14.989 19.910 C 14.967 19.580,14.844 19.371,14.569 19.197 C 14.172 18.945,13.898 18.945,13.376 19.195 C 13.187 19.286,13.025 19.360,13.016 19.360 C 13.007 19.360,13.000 19.046,13.000 18.662 C 13.000 17.873,12.962 17.630,12.804 17.412 C 12.575 17.096,12.062 16.936,11.675 17.060 " fill="var(--db-icon-color, currentColor)" stroke="none" fill-rule="evenodd"></path></svg>