<svg id="icon" height="20" viewBox="0 0 20 20" width="20" xmlns="http://www.w3.org/2000/svg"><path d="M11.183 2.055 C 9.698 2.287,8.332 3.042,7.418 4.136 C 6.770 4.910,6.318 5.858,6.100 6.900 C 6.037 7.203,6.027 7.354,6.028 8.017 C 6.029 8.708,6.037 8.821,6.112 9.167 L 6.195 9.550 4.138 11.617 C 1.955 13.809,1.741 14.037,1.635 14.269 C 1.514 14.537,1.564 14.852,1.774 15.133 C 1.939 15.353,3.860 17.298,4.507 17.900 C 4.882 18.248,4.991 18.331,5.113 18.362 C 5.319 18.414,5.523 18.410,5.727 18.349 C 5.949 18.283,6.020 18.216,8.503 15.741 L 10.455 13.795 10.636 13.846 C 10.985 13.944,11.355 13.979,12.017 13.979 C 12.613 13.978,12.729 13.969,13.117 13.888 C 14.673 13.561,15.939 12.758,16.847 11.520 C 17.844 10.162,18.213 8.445,17.865 6.783 C 17.746 6.214,17.571 5.716,17.420 5.518 C 17.376 5.460,17.250 5.365,17.140 5.306 C 16.961 5.211,16.912 5.200,16.662 5.200 C 16.231 5.201,16.215 5.213,14.715 6.704 L 13.414 7.998 12.707 7.290 L 12.000 6.583 13.020 5.566 C 14.169 4.421,14.639 3.918,14.735 3.731 C 14.808 3.586,14.823 3.236,14.765 3.026 C 14.651 2.614,14.149 2.323,13.217 2.130 C 12.947 2.074,12.732 2.059,12.083 2.050 C 11.643 2.044,11.238 2.046,11.183 2.055 M10.779 4.975 C 10.266 5.493,9.798 5.987,9.739 6.074 C 9.558 6.340,9.529 6.696,9.668 6.967 C 9.767 7.161,10.265 7.690,11.555 8.970 C 12.324 9.735,12.846 10.227,12.950 10.287 C 13.098 10.373,13.148 10.383,13.400 10.383 C 13.842 10.383,13.864 10.368,14.989 9.256 C 16.080 8.179,16.023 8.209,15.898 8.786 C 15.731 9.555,15.316 10.325,14.786 10.851 C 14.335 11.298,13.612 11.712,13.017 11.864 C 12.252 12.059,11.597 12.039,10.750 11.792 C 10.282 11.656,9.956 11.646,9.738 11.762 C 9.645 11.811,8.850 12.578,7.503 13.918 L 5.413 15.997 4.707 15.290 L 4.000 14.583 5.403 13.183 C 6.175 12.413,7.127 11.449,7.519 11.041 C 8.154 10.378,8.237 10.280,8.282 10.126 C 8.354 9.886,8.346 9.721,8.249 9.398 C 7.922 8.309,7.937 7.447,8.298 6.511 C 8.492 6.008,8.896 5.422,9.298 5.061 C 9.505 4.875,9.997 4.536,10.231 4.418 C 10.574 4.245,11.291 4.042,11.581 4.036 L 11.712 4.033 10.779 4.975 " fill="var(--db-icon-color, currentColor)" stroke="none" fill-rule="evenodd"></path></svg>