<svg id="icon" height="20" viewBox="0 0 20 20" width="20" xmlns="http://www.w3.org/2000/svg"><path d="M11.587 3.068 C 11.279 3.145,10.860 3.347,10.600 3.542 C 10.381 3.707,6.341 7.720,5.270 8.836 C 4.256 9.893,4.130 10.063,3.871 10.714 C 3.658 11.249,3.566 11.689,3.545 12.283 C 3.517 13.051,3.645 13.683,3.963 14.351 C 4.433 15.337,5.130 16.034,6.116 16.504 C 6.784 16.822,7.431 16.951,8.200 16.921 C 9.072 16.886,9.858 16.634,10.550 16.167 C 10.948 15.898,11.352 15.510,13.385 13.447 C 15.694 11.104,16.041 10.745,16.101 10.633 C 16.175 10.495,16.162 10.014,16.078 9.830 C 15.937 9.520,15.611 9.298,15.260 9.273 C 14.975 9.252,14.858 9.286,14.627 9.459 C 14.511 9.545,13.562 10.463,12.517 11.500 C 9.734 14.259,9.483 14.500,9.250 14.622 C 8.732 14.893,8.056 14.998,7.534 14.887 C 7.144 14.804,6.592 14.517,6.327 14.261 C 5.796 13.747,5.503 13.012,5.545 12.298 C 5.581 11.678,5.753 11.278,6.203 10.767 C 6.743 10.155,11.803 5.120,11.946 5.053 C 12.148 4.959,12.488 4.989,12.672 5.118 C 12.842 5.237,12.970 5.471,12.992 5.699 C 13.023 6.013,13.090 5.938,9.966 9.100 C 7.579 11.517,7.266 11.844,7.176 12.009 C 7.134 12.086,7.118 12.193,7.117 12.383 C 7.117 12.706,7.172 12.834,7.417 13.086 C 7.553 13.225,7.630 13.274,7.784 13.318 C 8.014 13.385,8.331 13.371,8.496 13.285 C 8.672 13.194,9.662 12.232,12.117 9.763 C 13.688 8.183,14.463 7.381,14.559 7.233 C 15.298 6.105,15.064 4.495,14.036 3.644 C 13.791 3.441,13.254 3.162,12.950 3.079 C 12.628 2.992,11.911 2.986,11.587 3.068 " fill="var(--db-icon-color, currentColor)" stroke="none" fill-rule="evenodd"></path></svg>