<svg id="icon" height="24" viewBox="0 0 24 24" width="24" xmlns="http://www.w3.org/2000/svg"><path d="M13.629 2.058 C 13.389 2.121,13.170 2.295,13.040 2.524 C 12.961 2.665,12.941 2.756,12.940 2.980 C 12.940 3.358,13.011 3.488,13.496 3.991 L 13.895 4.405 12.215 6.085 L 10.536 7.764 10.206 7.578 C 9.527 7.197,8.887 7.036,8.038 7.036 C 6.647 7.034,5.183 7.678,3.640 8.970 C 2.989 9.516,2.244 10.284,2.118 10.541 C 1.996 10.788,1.987 11.183,2.098 11.400 C 2.137 11.477,3.208 12.578,4.478 13.846 L 6.787 16.152 4.477 18.466 L 2.167 20.780 2.121 21.010 C 1.976 21.728,2.569 22.335,3.283 22.200 C 3.553 22.148,3.562 22.140,6.141 19.606 L 8.220 17.563 9.020 18.353 C 12.408 21.699,12.873 22.149,13.010 22.213 C 13.377 22.385,13.718 22.330,14.118 22.033 C 14.448 21.787,15.247 20.965,15.686 20.420 C 16.927 18.879,17.415 17.728,17.418 16.340 C 17.419 15.506,17.236 14.798,16.844 14.117 L 16.692 13.854 18.386 12.183 L 20.081 10.512 20.501 10.913 C 21.143 11.527,21.457 11.636,21.912 11.404 C 22.326 11.193,22.498 10.912,22.472 10.488 C 22.463 10.341,22.424 10.153,22.384 10.071 C 22.256 9.808,14.543 2.202,14.300 2.101 C 14.109 2.021,13.836 2.004,13.629 2.058 M17.410 7.868 L 18.640 9.100 16.990 10.748 L 15.340 12.395 13.680 10.757 L 12.020 9.119 13.669 7.474 L 15.318 5.829 15.749 6.232 C 15.986 6.454,16.733 7.190,17.410 7.868 M8.717 9.106 C 9.042 9.191,9.346 9.369,9.701 9.685 C 10.223 10.148,13.511 13.395,14.326 14.250 C 15.211 15.180,15.314 15.347,15.404 15.989 C 15.543 16.993,14.926 18.308,13.653 19.715 L 13.459 19.930 8.959 15.479 C 6.485 13.031,4.454 11.012,4.446 10.992 C 4.424 10.936,4.542 10.820,5.007 10.439 C 5.776 9.809,6.438 9.412,7.075 9.199 C 7.683 8.996,8.184 8.968,8.717 9.106 " fill="var(--db-icon-color, currentColor)" stroke="none" fill-rule="evenodd"></path></svg>