<svg id="icon" height="24" viewBox="0 0 24 24" width="24" xmlns="http://www.w3.org/2000/svg"><path d="M6.790 2.056 C 6.582 2.132,6.377 2.296,6.248 2.490 C 6.150 2.640,6.140 2.688,6.142 3.017 C 6.145 3.327,6.167 3.445,6.294 3.820 C 6.564 4.616,6.912 5.226,7.487 5.910 L 7.764 6.240 7.519 6.530 C 6.826 7.350,6.409 8.171,6.137 9.253 L 6.072 9.514 4.883 9.527 L 3.694 9.540 3.517 9.657 C 3.279 9.814,2.187 10.906,2.103 11.072 C 2.011 11.253,1.982 11.546,2.037 11.748 C 2.147 12.159,2.588 12.500,3.000 12.494 C 3.331 12.490,3.482 12.402,3.955 11.942 L 4.387 11.520 5.194 11.520 L 6.000 11.520 6.000 12.517 L 6.000 13.514 4.847 13.527 L 3.694 13.540 3.517 13.657 C 3.279 13.814,2.187 14.906,2.103 15.072 C 2.011 15.253,1.982 15.546,2.037 15.748 C 2.147 16.159,2.588 16.500,3.000 16.494 C 3.331 16.490,3.482 16.402,3.955 15.942 L 4.387 15.520 5.187 15.520 L 5.988 15.520 6.012 16.110 C 6.033 16.632,6.115 17.276,6.182 17.452 C 6.203 17.506,6.061 17.515,4.950 17.527 L 3.694 17.540 3.517 17.657 C 3.279 17.814,2.187 18.906,2.103 19.072 C 2.011 19.253,1.982 19.546,2.037 19.748 C 2.147 20.159,2.588 20.500,3.000 20.494 C 3.331 20.490,3.482 20.402,3.955 19.942 L 4.387 19.520 5.769 19.520 L 7.151 19.520 7.265 19.670 C 7.480 19.953,7.980 20.451,8.300 20.700 C 9.088 21.315,9.949 21.708,10.941 21.906 C 11.441 22.005,12.559 22.005,13.059 21.906 C 14.451 21.628,15.665 20.918,16.580 19.849 L 16.860 19.521 18.241 19.521 L 19.622 19.520 19.921 19.824 C 20.085 19.992,20.306 20.197,20.410 20.281 C 20.890 20.668,21.541 20.528,21.870 19.967 C 22.009 19.730,22.023 19.349,21.902 19.100 C 21.814 18.919,20.754 17.842,20.483 17.659 L 20.307 17.540 19.073 17.526 C 17.961 17.513,17.840 17.505,17.841 17.446 C 17.841 17.410,17.868 17.236,17.900 17.060 C 17.932 16.884,17.971 16.465,17.985 16.130 L 18.013 15.520 18.813 15.520 L 19.613 15.520 20.045 15.942 C 20.518 16.403,20.666 16.488,20.999 16.490 C 21.549 16.493,21.974 16.072,21.978 15.520 C 21.979 15.341,21.956 15.210,21.902 15.100 C 21.814 14.919,20.754 13.842,20.483 13.659 L 20.307 13.540 19.153 13.526 L 18.000 13.512 18.000 12.516 L 18.000 11.520 18.806 11.520 L 19.613 11.520 20.045 11.942 C 20.518 12.403,20.666 12.488,20.999 12.490 C 21.549 12.493,21.974 12.072,21.978 11.520 C 21.979 11.341,21.956 11.210,21.902 11.100 C 21.814 10.919,20.754 9.842,20.483 9.659 L 20.307 9.540 19.116 9.526 L 17.926 9.511 17.878 9.306 C 17.787 8.914,17.550 8.218,17.399 7.900 C 17.199 7.479,16.925 7.065,16.546 6.610 L 16.238 6.240 16.503 5.930 C 17.091 5.242,17.490 4.524,17.737 3.708 C 17.997 2.848,17.904 2.447,17.370 2.132 C 17.217 2.042,17.164 2.033,16.863 2.046 C 16.565 2.058,16.507 2.074,16.354 2.181 C 16.121 2.345,16.017 2.511,15.894 2.917 C 15.647 3.731,15.361 4.235,14.842 4.771 L 14.540 5.083 14.188 4.941 C 12.857 4.401,11.150 4.400,9.814 4.939 L 9.463 5.081 9.228 4.850 C 8.719 4.349,8.411 3.829,8.141 3.008 C 7.969 2.487,7.821 2.265,7.560 2.135 C 7.327 2.020,6.987 1.985,6.790 2.056 M12.958 6.640 C 13.829 6.853,14.691 7.437,15.213 8.168 C 15.398 8.428,15.771 9.162,15.820 9.364 C 15.844 9.460,15.834 9.471,15.693 9.494 C 15.460 9.532,8.160 9.525,8.160 9.486 C 8.160 9.411,8.317 9.004,8.440 8.760 C 9.042 7.566,10.127 6.768,11.433 6.560 C 11.783 6.504,12.572 6.546,12.958 6.640 M15.996 13.050 C 15.994 13.892,15.979 15.084,15.963 15.700 C 15.934 16.772,15.928 16.835,15.823 17.160 C 15.486 18.198,14.768 19.059,13.840 19.537 C 13.109 19.914,12.474 20.036,11.623 19.963 C 10.615 19.877,9.851 19.498,9.092 18.708 C 8.740 18.341,8.522 18.000,8.304 17.472 C 8.040 16.835,8.043 16.875,8.014 14.070 L 7.987 11.520 11.993 11.520 L 16.000 11.520 15.996 13.050 M9.935 13.035 C 9.605 13.063,9.565 13.080,9.326 13.298 C 9.033 13.567,8.926 14.001,9.073 14.333 C 9.197 14.613,9.346 14.786,9.553 14.888 L 9.740 14.980 12.000 14.980 L 14.260 14.980 14.449 14.887 C 14.629 14.798,14.805 14.618,14.922 14.400 C 14.954 14.341,14.976 14.177,14.976 14.000 C 14.976 13.661,14.921 13.524,14.698 13.301 C 14.417 13.019,14.483 13.027,12.260 13.017 C 11.160 13.012,10.114 13.021,9.935 13.035 M10.935 16.035 C 10.756 16.050,10.576 16.088,10.535 16.119 C 10.156 16.407,10.023 16.635,10.023 17.000 C 10.023 17.384,10.219 17.698,10.580 17.894 C 10.734 17.977,10.784 17.980,12.000 17.980 L 13.260 17.980 13.479 17.856 C 13.860 17.640,14.049 17.250,13.978 16.827 C 13.942 16.608,13.870 16.472,13.698 16.301 C 13.442 16.045,13.372 16.031,12.260 16.019 C 11.710 16.012,11.114 16.020,10.935 16.035 " fill="var(--db-icon-color, currentColor)" stroke="none" fill-rule="evenodd"></path></svg>