<svg id="icon" height="32" viewBox="0 0 32 32" width="32" xmlns="http://www.w3.org/2000/svg"><path d="M22.807 4.054 C 21.739 4.185,20.876 4.582,20.140 5.281 L 19.759 5.643 19.121 5.459 C 18.016 5.142,17.307 5.048,16.000 5.048 C 14.692 5.048,13.982 5.142,12.879 5.460 L 12.240 5.644 11.893 5.312 C 11.333 4.776,10.860 4.492,10.095 4.233 C 9.737 4.112,9.564 4.089,8.842 4.067 C 8.156 4.045,7.935 4.058,7.616 4.136 C 5.893 4.557,4.582 5.851,4.132 7.573 C 3.994 8.103,4.002 9.290,4.148 9.813 C 4.374 10.626,4.723 11.244,5.324 11.898 L 5.647 12.250 5.515 12.665 C 5.443 12.894,5.307 13.444,5.214 13.887 C 5.051 14.665,5.045 14.739,5.044 16.000 C 5.043 17.223,5.053 17.350,5.189 17.988 C 5.570 19.772,6.342 21.477,7.326 22.711 L 7.628 23.089 6.778 24.230 C 4.987 26.637,4.969 26.667,5.037 27.121 C 5.108 27.593,5.526 27.947,6.013 27.947 C 6.527 27.947,6.544 27.929,8.077 25.849 C 8.571 25.179,9.007 24.619,9.046 24.604 C 9.085 24.589,9.405 24.768,9.757 25.002 C 11.176 25.949,12.654 26.544,14.293 26.829 C 14.987 26.949,16.558 26.976,17.307 26.881 C 19.092 26.653,20.661 26.059,22.199 25.029 C 22.573 24.779,22.912 24.588,22.952 24.603 C 22.993 24.618,23.455 25.215,23.980 25.928 C 25.490 27.981,25.495 27.986,26.113 27.935 C 26.649 27.891,27.009 27.465,26.973 26.918 C 26.949 26.555,26.927 26.520,25.376 24.436 L 24.370 23.085 24.576 22.836 C 25.066 22.244,25.691 21.200,26.062 20.354 C 26.641 19.030,26.925 17.803,26.970 16.423 C 27.014 15.091,26.881 14.066,26.472 12.606 C 26.366 12.225,26.340 12.283,26.908 11.627 C 27.304 11.170,27.673 10.472,27.838 9.868 C 27.991 9.308,27.994 8.033,27.843 7.492 C 27.466 6.134,26.496 4.986,25.245 4.419 C 24.571 4.114,23.561 3.962,22.807 4.054 M9.188 6.081 C 9.412 6.113,9.692 6.205,9.925 6.323 C 10.371 6.547,10.377 6.531,9.710 6.987 C 8.676 7.695,7.563 8.833,6.850 9.911 C 6.550 10.365,6.568 10.371,6.247 9.707 C 6.059 9.317,6.054 9.291,6.055 8.693 C 6.057 8.009,6.106 7.810,6.388 7.340 C 6.752 6.733,7.448 6.194,8.012 6.083 C 8.331 6.020,8.764 6.020,9.188 6.081 M24.400 6.242 C 25.065 6.561,25.567 7.092,25.832 7.755 C 25.993 8.158,25.987 9.132,25.821 9.555 C 25.694 9.879,25.500 10.195,25.413 10.221 C 25.384 10.229,25.236 10.051,25.084 9.825 C 24.429 8.850,23.503 7.894,22.487 7.145 C 21.784 6.626,21.695 6.550,21.742 6.504 C 21.858 6.390,22.505 6.114,22.745 6.076 C 22.893 6.053,23.253 6.046,23.547 6.062 C 23.989 6.084,24.134 6.115,24.400 6.242 M16.826 7.067 C 19.012 7.297,20.875 8.168,22.348 9.649 C 24.359 11.672,25.271 14.420,24.882 17.280 C 24.516 19.962,22.814 22.436,20.394 23.804 C 19.588 24.259,18.515 24.648,17.550 24.836 C 16.842 24.973,15.029 24.958,14.320 24.809 C 13.308 24.596,12.194 24.167,11.392 23.683 C 9.233 22.379,7.726 20.260,7.200 17.787 C 7.054 17.102,6.998 15.645,7.090 14.898 C 7.605 10.689,10.969 7.442,15.227 7.046 C 15.941 6.979,15.992 6.980,16.826 7.067 M15.453 9.170 C 14.987 9.466,15.013 9.238,15.013 12.991 L 15.013 16.301 15.168 16.511 C 15.253 16.626,15.990 17.386,16.804 18.201 C 18.308 19.704,18.538 19.889,18.900 19.892 C 19.444 19.896,19.947 19.418,19.947 18.897 C 19.947 18.612,19.682 18.288,18.370 16.962 L 17.019 15.597 17.003 12.630 L 16.987 9.662 16.825 9.431 C 16.619 9.136,16.376 9.014,15.997 9.013 C 15.761 9.013,15.651 9.045,15.453 9.170 " fill="var(--db-icon-color, currentColor)" stroke="none" fill-rule="evenodd"></path></svg>