<svg id="icon" height="32" viewBox="0 0 32 32" width="32" xmlns="http://www.w3.org/2000/svg"><path d="M14.347 2.112 C 12.071 2.412,10.105 3.141,8.256 4.370 C 5.009 6.529,2.881 9.821,2.186 13.760 C 2.037 14.606,1.982 16.476,2.078 17.420 C 2.337 19.975,3.311 22.419,4.901 24.507 C 5.384 25.141,6.671 26.450,7.307 26.953 C 9.028 28.314,10.967 29.221,13.177 29.699 C 14.698 30.028,16.754 30.072,18.267 29.809 C 20.415 29.434,22.552 28.545,24.161 27.357 C 27.503 24.889,29.551 21.320,29.924 17.313 C 30.003 16.468,29.959 14.694,29.842 13.956 C 29.363 10.947,28.139 8.473,26.056 6.304 C 24.295 4.470,21.991 3.114,19.565 2.485 C 18.463 2.199,18.020 2.135,16.737 2.080 C 15.264 2.016,15.047 2.019,14.347 2.112 M17.387 4.111 C 19.376 4.282,21.722 5.248,23.436 6.601 C 24.746 7.636,25.924 9.081,26.673 10.573 C 27.406 12.033,27.745 13.159,27.895 14.629 C 27.981 15.474,27.936 17.476,27.818 18.053 C 27.553 19.344,27.288 20.146,26.778 21.202 C 26.131 22.543,25.379 23.582,24.300 24.627 C 22.928 25.956,21.541 26.783,19.627 27.416 C 16.038 28.602,12.077 27.953,8.907 25.660 C 8.276 25.204,7.190 24.175,6.705 23.573 C 5.534 22.122,4.633 20.209,4.231 18.320 C 4.089 17.654,4.083 17.566,4.082 16.053 C 4.080 14.380,4.090 14.275,4.379 13.108 C 4.761 11.567,5.521 9.984,6.498 8.695 C 6.916 8.143,7.934 7.102,8.479 6.668 C 10.029 5.434,11.966 4.546,13.838 4.212 C 14.974 4.008,15.895 3.982,17.387 4.111 M15.719 9.058 C 15.521 9.106,15.222 9.352,15.107 9.562 C 15.022 9.718,15.012 9.975,14.996 12.352 L 14.980 14.971 12.339 14.998 L 9.699 15.025 9.481 15.179 C 9.162 15.405,9.052 15.581,9.028 15.904 C 8.999 16.289,9.163 16.606,9.513 16.840 L 9.772 17.013 12.379 17.013 L 14.987 17.013 14.987 19.616 L 14.987 22.219 15.140 22.461 C 15.381 22.841,15.587 22.960,16.000 22.960 C 16.413 22.960,16.619 22.841,16.860 22.461 L 17.013 22.219 17.013 19.616 L 17.013 17.013 19.621 17.013 L 22.228 17.013 22.487 16.840 C 22.837 16.606,23.001 16.289,22.972 15.904 C 22.948 15.581,22.838 15.405,22.519 15.179 L 22.301 15.025 19.657 14.998 L 17.013 14.971 17.013 12.372 L 17.013 9.772 16.840 9.515 C 16.745 9.373,16.595 9.216,16.507 9.166 C 16.320 9.060,15.931 9.006,15.719 9.058 " fill="var(--db-icon-color, currentColor)" stroke="none" fill-rule="evenodd"></path></svg>