<svg id="icon" height="32" viewBox="0 0 32 32" width="32" xmlns="http://www.w3.org/2000/svg"><path d="M3.040 3.016 C 2.996 3.025,2.869 3.048,2.759 3.066 C 2.519 3.105,2.200 3.368,2.099 3.611 C 2.059 3.706,2.027 3.902,2.027 4.047 C 2.027 4.263,2.059 4.354,2.201 4.543 C 2.487 4.921,2.641 4.968,3.757 5.015 C 4.867 5.061,4.987 5.098,5.194 5.454 C 5.367 5.752,5.617 6.910,7.841 17.702 L 8.703 21.883 7.135 23.462 C 6.273 24.330,5.456 25.163,5.321 25.314 C 4.903 25.778,4.878 26.200,5.244 26.644 C 5.442 26.884,5.674 26.987,6.019 26.987 C 6.269 26.987,6.302 26.968,6.754 26.576 C 7.321 26.083,25.306 8.141,27.399 5.980 C 28.802 4.530,29.013 4.270,29.013 3.986 C 29.013 3.774,28.760 3.341,28.556 3.203 C 28.299 3.029,27.825 2.990,27.571 3.121 C 27.472 3.172,26.752 3.847,25.971 4.620 L 24.551 6.027 15.995 6.027 L 7.440 6.027 7.293 5.453 C 7.213 5.138,7.076 4.736,6.989 4.560 C 6.713 3.998,6.074 3.436,5.435 3.193 C 5.222 3.112,4.937 3.071,4.347 3.037 C 3.545 2.990,3.189 2.984,3.040 3.016 M27.161 9.079 L 25.868 10.373 25.412 12.160 C 24.639 15.188,24.616 15.253,24.250 15.413 C 23.974 15.534,23.619 15.587,21.764 15.784 L 20.300 15.940 19.206 17.035 C 18.604 17.637,18.122 18.140,18.136 18.153 C 18.167 18.183,21.939 17.801,23.358 17.623 C 23.959 17.548,24.581 17.440,24.741 17.384 C 25.415 17.147,26.123 16.546,26.403 15.973 C 26.489 15.797,26.668 15.269,26.800 14.800 C 27.352 12.852,28.509 8.044,28.470 7.861 C 28.460 7.816,27.921 8.317,27.161 9.079 M18.286 12.301 L 13.985 16.601 12.337 16.776 C 9.838 17.040,9.724 17.047,9.688 16.926 C 9.644 16.778,9.310 15.177,8.560 11.520 C 8.189 9.716,7.874 8.186,7.858 8.120 L 7.828 8.000 15.208 8.000 L 22.587 8.000 18.286 12.301 M11.579 18.973 C 11.550 19.025,11.275 19.317,10.966 19.623 C 10.581 20.005,10.396 20.156,10.377 20.103 C 10.314 19.931,10.188 19.324,10.187 19.190 C 10.187 19.033,10.162 19.041,10.987 18.937 C 11.579 18.863,11.638 18.866,11.579 18.973 M13.227 23.011 L 12.241 24.000 17.990 24.000 C 24.325 24.000,23.880 24.024,24.200 23.661 C 24.613 23.190,24.542 22.531,24.042 22.200 L 23.821 22.053 19.017 22.038 L 14.213 22.023 13.227 23.011 M10.680 26.080 C 10.179 26.185,9.664 26.732,9.546 27.285 C 9.471 27.639,9.551 28.146,9.730 28.453 C 10.113 29.107,10.964 29.397,11.692 29.122 C 12.061 28.983,12.441 28.631,12.603 28.278 C 12.761 27.935,12.760 27.329,12.602 26.978 C 12.465 26.672,12.151 26.361,11.807 26.188 C 11.519 26.044,11.063 26.000,10.680 26.080 M22.131 26.074 C 21.699 26.215,21.291 26.622,21.119 27.082 C 20.893 27.684,21.027 28.284,21.491 28.751 C 22.105 29.368,23.032 29.399,23.672 28.824 C 24.180 28.367,24.350 27.813,24.167 27.210 C 24.035 26.775,23.704 26.366,23.345 26.193 C 23.095 26.072,22.357 26.000,22.131 26.074 " fill="var(--db-icon-color, currentColor)" stroke="none" fill-rule="evenodd"></path></svg>