<svg id="icon" height="20" viewBox="0 0 20 20" width="20" xmlns="http://www.w3.org/2000/svg"><path d="M9.600 2.023 C 8.862 2.081,8.080 2.384,7.461 2.850 C 6.894 3.277,6.455 3.901,6.218 4.618 C 6.116 4.929,6.000 5.565,6.000 5.815 L 6.000 5.990 5.156 6.008 C 4.202 6.028,4.160 6.038,3.888 6.311 C 3.667 6.532,3.643 6.612,3.586 7.334 C 3.417 9.453,3.033 16.115,3.033 16.915 C 3.033 17.211,3.044 17.275,3.119 17.425 C 3.214 17.616,3.393 17.792,3.607 17.907 L 3.750 17.983 10.000 17.983 L 16.250 17.983 16.400 17.905 C 16.698 17.749,16.915 17.474,16.969 17.183 C 16.983 17.110,16.980 16.758,16.963 16.400 C 16.922 15.543,16.659 11.037,16.532 9.017 C 16.375 6.517,16.385 6.584,16.112 6.311 C 15.840 6.038,15.798 6.028,14.844 6.008 L 14.000 5.990 14.000 5.853 C 14.000 5.436,13.864 4.830,13.663 4.347 C 13.428 3.781,12.872 3.114,12.325 2.739 C 11.534 2.198,10.576 1.947,9.600 2.023 M10.583 4.086 C 11.293 4.257,11.821 4.823,11.951 5.555 C 11.977 5.699,11.998 5.858,11.999 5.908 L 12.000 6.000 10.000 6.000 L 8.000 6.000 8.001 5.908 C 8.004 5.685,8.105 5.274,8.212 5.048 C 8.599 4.234,9.566 3.842,10.583 4.086 M8.000 9.358 C 8.001 10.050,8.173 10.786,8.424 11.167 C 8.602 11.437,8.883 11.696,9.118 11.805 C 9.796 12.123,10.642 12.041,11.190 11.605 C 11.691 11.207,11.947 10.535,11.989 9.508 L 12.010 9.000 13.005 9.000 L 14.000 9.000 13.999 9.292 C 13.998 9.815,13.939 10.510,13.870 10.820 C 13.476 12.582,12.123 13.816,10.417 13.970 C 9.759 14.029,9.205 13.963,8.624 13.755 C 7.346 13.298,6.402 12.171,6.120 10.767 C 6.049 10.415,6.000 9.851,6.000 9.392 L 6.000 9.000 7.000 9.000 L 8.000 9.000 8.000 9.358 " fill="var(--db-icon-color, currentColor)" stroke="none" fill-rule="evenodd"></path></svg>