<svg id="icon" height="32" viewBox="0 0 32 32" width="32" xmlns="http://www.w3.org/2000/svg"><path d="M15.093 3.042 C 13.821 3.170,12.523 3.634,11.440 4.349 C 9.395 5.699,8.042 8.034,7.863 10.520 L 7.825 11.040 6.059 11.041 C 3.998 11.042,3.483 11.083,3.106 11.274 C 2.507 11.577,2.084 12.201,2.042 12.842 C 2.017 13.226,2.235 14.492,3.254 19.867 C 4.283 25.298,4.635 26.985,4.817 27.360 C 5.061 27.862,5.665 28.458,6.191 28.716 C 6.561 28.897,6.651 28.918,7.257 28.962 C 8.071 29.021,24.136 29.024,24.695 28.965 C 25.626 28.867,26.576 28.099,26.935 27.154 C 27.106 26.706,29.365 14.793,29.552 13.360 C 29.606 12.946,29.602 12.833,29.525 12.535 C 29.306 11.685,28.709 11.187,27.795 11.090 C 27.541 11.064,26.539 11.041,25.568 11.041 L 23.803 11.040 23.771 10.493 C 23.657 8.553,22.847 6.786,21.417 5.357 C 20.194 4.134,18.837 3.423,17.201 3.149 C 16.455 3.023,15.673 2.984,15.093 3.042 M16.933 5.126 C 18.671 5.411,20.390 6.750,21.195 8.447 C 21.526 9.145,21.673 9.711,21.787 10.733 L 21.821 11.040 15.837 11.040 L 9.852 11.040 9.889 10.573 C 10.033 8.723,11.067 6.961,12.578 5.990 C 13.323 5.511,14.287 5.152,15.065 5.065 C 15.493 5.017,16.460 5.048,16.933 5.126 M27.594 13.107 C 27.582 13.158,27.166 15.396,26.669 18.080 C 25.853 22.487,25.241 25.722,25.124 26.249 C 25.066 26.508,24.897 26.738,24.652 26.890 L 24.453 27.013 15.836 27.013 L 7.219 27.013 7.003 26.870 C 6.884 26.792,6.739 26.648,6.680 26.550 C 6.608 26.430,6.434 25.662,6.140 24.160 C 5.500 20.894,4.053 13.268,4.053 13.162 C 4.053 13.084,4.123 13.068,4.547 13.053 C 4.818 13.043,10.120 13.030,16.328 13.024 C 27.055 13.014,27.616 13.018,27.594 13.107 " fill="var(--db-icon-color, currentColor)" stroke="none" fill-rule="evenodd"></path></svg>