<svg id="icon" height="20" viewBox="0 0 20 20" width="20" xmlns="http://www.w3.org/2000/svg"><path d="M9.300 3.038 C 8.233 3.147,7.386 3.388,6.450 3.850 C 5.260 4.436,4.282 5.263,3.512 6.333 C 2.417 7.856,1.906 9.651,2.028 11.541 C 2.148 13.410,2.958 15.230,4.259 16.559 C 4.597 16.904,4.752 16.982,5.100 16.982 C 5.401 16.982,5.595 16.905,5.795 16.705 C 6.013 16.487,6.078 16.328,6.079 16.017 C 6.079 15.674,6.013 15.525,5.724 15.211 C 4.289 13.648,3.736 11.760,4.136 9.786 C 4.554 7.719,6.080 6.001,8.100 5.321 C 9.005 5.016,9.933 4.941,10.997 5.086 C 11.701 5.182,11.955 5.125,12.232 4.810 C 12.517 4.487,12.574 4.057,12.380 3.700 C 12.126 3.233,11.686 3.088,10.350 3.032 C 9.965 3.016,9.635 3.004,9.617 3.006 C 9.598 3.007,9.456 3.022,9.300 3.038 M14.228 5.546 C 14.143 5.569,14.034 5.614,13.986 5.645 C 13.937 5.677,13.135 6.460,12.202 7.386 L 10.506 9.070 10.281 9.031 C 9.623 8.916,8.914 9.205,8.435 9.783 C 7.959 10.358,7.876 11.241,8.234 11.933 C 8.379 12.214,8.836 12.655,9.120 12.787 C 9.358 12.899,9.777 13.000,10.000 13.000 C 10.223 13.000,10.638 12.900,10.886 12.787 C 11.085 12.695,11.545 12.273,11.700 12.039 C 11.920 11.708,12.050 11.043,11.970 10.667 L 11.931 10.486 13.326 9.085 C 15.254 7.147,15.379 7.013,15.450 6.799 C 15.559 6.472,15.457 6.059,15.205 5.807 C 14.973 5.575,14.542 5.460,14.228 5.546 M16.417 8.478 C 16.092 8.630,15.903 8.860,15.832 9.190 C 15.802 9.333,15.807 9.427,15.867 9.756 C 16.054 10.793,15.998 11.903,15.713 12.804 C 15.451 13.634,15.021 14.366,14.354 15.116 C 13.984 15.532,13.922 15.662,13.920 16.017 C 13.919 16.327,13.984 16.484,14.205 16.705 C 14.405 16.905,14.599 16.982,14.900 16.982 C 15.245 16.982,15.393 16.907,15.733 16.562 C 16.859 15.417,17.607 13.931,17.902 12.250 C 17.996 11.719,18.006 10.338,17.920 9.817 C 17.780 8.969,17.626 8.676,17.217 8.480 C 16.986 8.370,16.650 8.369,16.417 8.478 " fill="var(--db-icon-color, currentColor)" stroke="none" fill-rule="evenodd"></path></svg>