<svg id="icon" height="32" viewBox="0 0 32 32" width="32" xmlns="http://www.w3.org/2000/svg"><path d="M12.667 6.074 C 11.589 6.135,11.303 6.309,9.703 7.879 L 8.547 9.013 7.113 9.017 C 6.325 9.019,5.332 9.039,4.907 9.061 C 4.162 9.100,4.119 9.109,3.758 9.293 C 2.959 9.699,2.442 10.283,2.137 11.127 L 1.972 11.583 1.986 17.565 L 2.000 23.547 2.179 23.991 C 2.508 24.809,3.114 25.440,3.889 25.770 L 4.293 25.942 6.160 25.979 C 8.582 26.027,23.418 26.027,25.840 25.979 L 27.707 25.942 28.107 25.769 C 28.327 25.674,28.639 25.494,28.800 25.369 C 29.173 25.081,29.611 24.502,29.795 24.054 C 29.930 23.724,29.940 23.640,29.986 22.373 C 30.054 20.466,30.004 11.852,29.921 11.440 C 29.764 10.652,29.011 9.717,28.213 9.318 C 27.678 9.049,27.326 9.014,25.176 9.014 L 23.446 9.013 22.430 8.010 C 21.197 6.792,20.833 6.487,20.344 6.261 L 19.967 6.086 16.637 6.062 C 14.805 6.048,13.019 6.054,12.667 6.074 M17.032 12.130 C 18.881 12.484,20.497 14.093,20.876 15.958 C 20.981 16.471,20.985 17.461,20.884 17.985 C 20.598 19.483,19.460 20.913,18.044 21.555 C 16.914 22.067,15.530 22.116,14.300 21.686 C 12.808 21.165,11.651 19.909,11.187 18.309 C 11.083 17.949,11.067 17.771,11.067 16.987 C 11.068 15.906,11.122 15.661,11.548 14.800 C 11.875 14.137,12.316 13.575,12.854 13.133 C 13.277 12.786,14.233 12.304,14.773 12.165 C 15.278 12.036,16.443 12.017,17.032 12.130 M8.337 13.091 C 8.592 13.182,8.730 13.305,8.859 13.558 C 9.120 14.070,8.838 14.785,8.316 14.935 C 8.090 14.999,6.978 15.001,6.702 14.937 C 6.449 14.878,6.257 14.707,6.127 14.427 C 5.856 13.839,6.189 13.162,6.797 13.062 C 7.193 12.997,8.123 13.014,8.337 13.091 M15.370 14.083 C 14.797 14.185,14.051 14.657,13.661 15.164 C 13.185 15.783,12.982 16.429,13.033 17.173 C 13.101 18.184,13.560 18.973,14.391 19.510 C 15.359 20.136,16.641 20.136,17.609 19.510 C 18.214 19.119,18.614 18.594,18.860 17.867 C 19.009 17.426,18.996 16.516,18.834 16.053 C 18.545 15.224,17.799 14.468,16.992 14.184 C 16.630 14.057,15.803 14.005,15.370 14.083 " fill="var(--db-icon-color, currentColor)" stroke="none" fill-rule="evenodd"></path></svg>