<svg id="icon" height="20" viewBox="0 0 20 20" width="20" xmlns="http://www.w3.org/2000/svg"><path d="M9.600 3.022 C 9.130 3.088,8.970 3.123,8.673 3.219 C 7.139 3.721,6.129 5.043,6.011 6.703 L 5.991 6.990 4.369 7.008 C 3.013 7.024,2.727 7.035,2.624 7.078 C 2.456 7.148,2.184 7.410,2.101 7.580 C 1.954 7.885,1.973 8.007,2.951 12.895 C 3.685 16.568,3.672 16.514,3.924 16.736 C 3.986 16.789,4.110 16.871,4.202 16.918 L 4.368 17.002 10.009 16.993 L 15.650 16.983 15.840 16.890 C 16.075 16.775,16.311 16.520,16.380 16.307 C 16.450 16.092,17.702 9.698,17.903 8.533 C 17.987 8.042,17.997 7.927,17.967 7.804 C 17.888 7.490,17.692 7.245,17.401 7.099 C 17.255 7.026,17.226 7.025,15.626 7.007 L 14.000 6.990 14.000 6.799 C 14.000 6.107,13.619 5.062,13.154 4.482 C 12.540 3.714,11.599 3.182,10.659 3.070 C 10.345 3.032,9.724 3.004,9.600 3.022 M10.583 5.085 C 11.096 5.218,11.535 5.574,11.767 6.044 C 11.891 6.295,12.000 6.706,12.000 6.920 L 12.000 7.000 10.007 7.000 L 8.013 7.000 8.039 6.732 C 8.144 5.647,8.967 4.958,10.086 5.018 C 10.252 5.027,10.475 5.057,10.583 5.085 M15.743 9.108 C 15.731 9.168,15.472 10.514,15.167 12.100 L 14.613 14.983 10.015 14.992 L 5.417 15.000 4.833 12.025 L 4.248 9.050 4.599 9.032 C 4.792 9.021,7.383 9.010,10.357 9.007 L 15.765 9.000 15.743 9.108 " fill="var(--db-icon-color, currentColor)" stroke="none" fill-rule="evenodd"></path></svg>