<svg id="icon" height="32" viewBox="0 0 32 32" width="32" xmlns="http://www.w3.org/2000/svg"><path d="M7.947 4.154 C 6.504 4.470,5.236 5.150,4.266 6.127 C 3.160 7.241,2.571 8.269,2.208 9.720 C 2.019 10.477,1.970 11.838,2.104 12.646 C 2.286 13.743,2.716 14.804,3.333 15.680 C 3.556 15.996,4.516 16.969,7.083 19.481 C 13.468 25.729,15.375 27.556,15.626 27.665 C 15.753 27.720,15.903 27.736,16.098 27.716 C 16.424 27.683,16.241 27.835,18.240 25.925 C 20.830 23.449,24.549 19.829,26.460 17.922 C 28.203 16.182,28.513 15.849,28.824 15.376 C 30.028 13.542,30.322 11.160,29.606 9.023 C 28.943 7.044,27.299 5.325,25.311 4.531 C 24.465 4.193,23.963 4.098,22.879 4.067 C 21.769 4.037,21.141 4.107,20.374 4.350 C 19.073 4.761,18.208 5.332,16.781 6.721 L 15.974 7.507 15.090 6.647 C 14.103 5.687,13.457 5.195,12.667 4.802 C 11.566 4.255,10.895 4.103,9.467 4.075 C 8.570 4.058,8.328 4.071,7.947 4.154 M10.042 6.107 C 10.902 6.171,12.050 6.629,12.695 7.165 C 12.885 7.322,13.568 7.962,14.213 8.587 C 14.859 9.211,15.459 9.767,15.547 9.821 C 15.759 9.952,16.188 9.952,16.400 9.821 C 16.488 9.767,17.112 9.189,17.787 8.536 C 19.185 7.184,19.515 6.916,20.187 6.587 C 21.660 5.866,23.369 5.866,24.880 6.587 C 26.204 7.218,27.162 8.293,27.686 9.733 C 27.857 10.204,27.861 10.233,27.881 11.280 C 27.906 12.534,27.858 12.817,27.493 13.588 C 27.025 14.576,27.093 14.501,23.372 18.145 C 20.279 21.174,17.623 23.754,16.366 24.952 L 15.958 25.340 12.153 21.645 C 6.694 16.345,5.138 14.797,4.896 14.427 C 3.700 12.600,3.741 10.192,5.000 8.340 C 5.655 7.376,6.675 6.633,7.841 6.270 C 8.322 6.121,8.991 6.029,9.387 6.059 C 9.519 6.068,9.814 6.090,10.042 6.107 " fill="var(--db-icon-color, currentColor)" stroke="none" fill-rule="evenodd"></path></svg>