<svg id="icon" height="24" viewBox="0 0 24 24" width="24" xmlns="http://www.w3.org/2000/svg"><path d="M11.220 2.038 C 10.703 2.058,10.646 2.068,10.474 2.169 C 9.998 2.449,9.863 3.103,10.186 3.568 C 10.372 3.837,10.537 3.920,10.966 3.962 C 11.449 4.008,20.544 4.009,21.025 3.962 C 21.466 3.920,21.588 3.862,21.775 3.607 C 22.060 3.219,22.060 2.781,21.775 2.393 C 21.569 2.112,21.473 2.076,20.842 2.037 C 20.253 2.001,12.132 2.002,11.220 2.038 M6.730 6.045 C 6.590 6.078,6.451 6.188,5.930 6.676 C 4.884 7.658,2.257 10.336,2.134 10.547 C 1.860 11.013,2.076 11.649,2.596 11.908 C 2.794 12.007,3.207 12.002,3.420 11.899 C 3.517 11.852,4.054 11.352,4.788 10.627 L 5.997 9.431 6.009 15.366 C 6.019 20.818,6.025 21.310,6.087 21.420 C 6.174 21.577,6.423 21.812,6.600 21.904 C 6.788 22.002,7.208 22.003,7.406 21.906 C 7.631 21.796,7.865 21.558,7.924 21.380 C 7.966 21.251,7.979 20.071,7.990 15.327 L 8.003 9.435 9.227 10.639 C 9.900 11.301,10.507 11.873,10.575 11.908 C 10.750 12.000,11.257 11.999,11.429 11.907 C 11.777 11.723,11.977 11.392,11.979 11.000 C 11.980 10.784,11.960 10.706,11.864 10.540 C 11.713 10.281,7.734 6.295,7.480 6.149 C 7.272 6.029,6.974 5.987,6.730 6.045 M15.040 6.036 C 14.725 6.056,14.628 6.079,14.474 6.169 C 13.998 6.449,13.863 7.103,14.186 7.568 C 14.360 7.820,14.546 7.922,14.912 7.966 C 15.402 8.025,21.180 7.989,21.373 7.925 C 21.550 7.867,21.799 7.625,21.904 7.410 C 21.952 7.311,21.978 7.171,21.978 7.000 C 21.978 6.829,21.952 6.689,21.904 6.590 C 21.799 6.374,21.549 6.133,21.373 6.076 C 21.259 6.039,20.486 6.025,18.320 6.019 C 16.725 6.015,15.249 6.022,15.040 6.036 M18.880 10.033 C 17.924 10.149,17.681 11.380,18.521 11.856 L 18.740 11.980 20.000 11.980 C 21.216 11.980,21.266 11.977,21.420 11.894 C 21.781 11.698,21.977 11.384,21.977 11.000 C 21.977 10.702,21.889 10.497,21.674 10.294 C 21.394 10.032,21.369 10.027,20.180 10.016 C 19.586 10.011,19.001 10.019,18.880 10.033 " fill="var(--db-icon-color, currentColor)" stroke="none" fill-rule="evenodd"></path></svg>