<svg id="icon" height="20" viewBox="0 0 20 20" width="20" xmlns="http://www.w3.org/2000/svg"><path d="M5.600 2.082 C 4.794 2.252,4.321 2.595,3.992 3.250 C 3.874 3.485,3.692 4.010,3.649 4.242 L 3.626 4.367 3.313 4.367 L 3.000 4.367 3.000 4.767 L 3.000 5.167 3.300 5.167 L 3.600 5.167 3.600 5.483 L 3.600 5.800 3.300 5.800 L 3.000 5.800 3.000 6.200 L 3.000 6.600 3.313 6.600 L 3.626 6.600 3.648 6.750 C 3.687 7.011,3.834 7.474,3.966 7.750 C 4.197 8.235,4.557 8.574,5.046 8.768 C 5.478 8.938,5.713 8.975,6.400 8.977 C 6.965 8.978,7.043 8.971,7.333 8.892 C 8.100 8.682,8.414 8.415,8.349 8.030 C 8.322 7.866,8.183 7.699,8.008 7.620 C 7.882 7.564,7.866 7.564,7.436 7.648 C 6.632 7.805,6.222 7.796,5.862 7.614 C 5.581 7.472,5.392 7.166,5.315 6.725 L 5.293 6.600 6.163 6.600 L 7.033 6.600 7.033 6.200 L 7.033 5.800 6.150 5.800 L 5.267 5.800 5.267 5.483 L 5.267 5.167 6.150 5.167 L 7.033 5.167 7.033 4.767 L 7.033 4.367 6.185 4.367 C 5.719 4.367,5.329 4.354,5.319 4.337 C 5.291 4.292,5.396 3.970,5.509 3.757 C 5.622 3.543,5.777 3.403,6.002 3.311 C 6.202 3.229,6.987 3.230,7.407 3.313 C 7.724 3.375,7.854 3.360,8.059 3.234 C 8.289 3.092,8.366 2.793,8.237 2.540 C 8.130 2.331,7.977 2.234,7.583 2.125 C 7.274 2.039,5.940 2.010,5.600 2.082 M10.650 10.035 C 10.129 10.079,9.572 10.333,9.127 10.730 C 8.824 10.999,8.523 11.471,8.385 11.891 C 8.354 11.987,8.314 12.074,8.298 12.085 C 8.281 12.095,7.821 11.969,7.275 11.805 C 5.558 11.288,5.687 11.317,5.117 11.321 C 4.560 11.324,4.299 11.369,3.882 11.529 C 3.308 11.751,2.696 12.230,2.380 12.705 C 2.297 12.830,2.183 13.056,2.125 13.208 C 2.033 13.453,2.021 13.524,2.019 13.850 C 2.017 14.285,2.061 14.487,2.241 14.865 C 2.349 15.091,2.428 15.199,2.646 15.415 C 2.808 15.577,2.997 15.726,3.117 15.788 C 3.227 15.846,3.969 16.143,4.767 16.450 C 7.925 17.664,8.152 17.739,9.217 17.916 L 9.717 18.000 13.476 18.000 L 17.236 18.000 17.402 17.916 C 17.616 17.807,17.798 17.624,17.900 17.415 C 17.965 17.283,17.982 17.197,17.982 16.983 C 17.983 16.749,17.971 16.695,17.884 16.538 C 17.782 16.354,17.605 16.187,17.400 16.082 C 17.291 16.026,17.042 16.021,13.483 15.997 C 9.362 15.971,9.541 15.979,8.750 15.780 C 8.337 15.676,7.111 15.217,4.238 14.091 C 4.122 14.046,4.047 13.993,4.023 13.940 C 3.988 13.865,4.000 13.844,4.169 13.687 C 4.270 13.593,4.437 13.475,4.541 13.425 C 4.713 13.341,4.762 13.333,5.111 13.333 L 5.492 13.333 7.021 13.814 C 10.129 14.790,9.861 14.726,11.550 14.882 C 12.889 15.004,13.099 15.015,13.295 14.968 C 13.549 14.907,13.741 14.743,13.873 14.476 C 13.970 14.278,13.983 14.219,13.983 13.984 C 13.983 13.749,13.971 13.695,13.883 13.536 C 13.769 13.330,13.522 13.117,13.340 13.069 C 13.212 13.035,12.864 12.997,11.352 12.848 C 10.858 12.800,10.419 12.747,10.377 12.731 C 10.315 12.707,10.300 12.677,10.300 12.576 C 10.300 12.334,10.519 12.103,10.817 12.029 C 11.030 11.977,12.720 11.977,13.170 12.029 C 13.809 12.103,14.428 12.314,14.995 12.651 C 15.287 12.824,15.689 13.137,16.187 13.578 C 16.586 13.931,16.683 13.978,17.017 13.978 C 17.226 13.978,17.314 13.963,17.424 13.906 C 17.772 13.726,17.964 13.432,17.992 13.036 C 18.006 12.841,17.996 12.781,17.925 12.629 C 17.712 12.170,16.691 11.302,15.800 10.823 C 15.223 10.512,14.463 10.253,13.736 10.118 C 13.171 10.013,11.451 9.967,10.650 10.035 " fill="var(--db-icon-color, currentColor)" stroke="none" fill-rule="evenodd"></path></svg>