<svg id="icon" height="20" viewBox="0 0 20 20" width="20" xmlns="http://www.w3.org/2000/svg"><path d="M9.666 1.766 C 9.107 1.838,8.790 2.057,8.046 2.883 L 7.776 3.183 7.346 3.069 C 6.979 2.972,6.847 2.953,6.440 2.941 C 6.012 2.927,5.940 2.933,5.728 3.002 C 5.262 3.152,4.770 3.561,4.542 3.988 C 4.409 4.239,4.352 4.483,4.284 5.100 C 4.255 5.366,4.223 5.625,4.213 5.676 C 4.191 5.783,4.109 5.831,3.595 6.035 C 2.932 6.298,2.649 6.501,2.374 6.912 C 2.128 7.280,2.050 7.558,2.050 8.067 C 2.050 8.467,2.055 8.494,2.167 8.767 C 2.232 8.922,2.410 9.264,2.563 9.525 L 2.842 10.001 2.665 10.275 C 2.093 11.163,2.018 11.354,2.018 11.917 C 2.019 12.231,2.032 12.321,2.112 12.549 C 2.227 12.879,2.446 13.213,2.694 13.435 C 2.875 13.598,3.070 13.704,3.905 14.093 L 4.194 14.227 4.212 14.439 C 4.308 15.540,4.345 15.712,4.573 16.089 C 4.747 16.379,5.116 16.707,5.440 16.861 C 5.985 17.121,6.327 17.138,7.170 16.948 C 7.471 16.880,7.733 16.823,7.753 16.821 C 7.772 16.819,7.940 16.998,8.126 17.220 C 8.541 17.718,8.749 17.907,9.041 18.054 C 9.380 18.225,9.649 18.278,10.067 18.255 C 10.833 18.215,11.110 18.049,11.936 17.135 L 12.221 16.819 12.369 16.855 C 12.450 16.875,12.674 16.933,12.867 16.983 C 13.344 17.109,13.935 17.116,14.281 17.001 C 14.758 16.842,15.263 16.394,15.495 15.922 C 15.628 15.651,15.688 15.376,15.748 14.751 C 15.785 14.363,15.808 14.243,15.851 14.212 C 15.882 14.189,16.134 14.080,16.412 13.968 C 16.982 13.739,17.219 13.584,17.493 13.259 C 17.843 12.845,17.988 12.397,17.955 11.833 C 17.928 11.370,17.871 11.223,17.425 10.458 L 17.158 9.999 17.334 9.725 C 17.701 9.151,17.811 8.953,17.890 8.728 C 18.128 8.043,17.950 7.277,17.422 6.711 C 17.149 6.419,16.914 6.273,16.300 6.014 C 16.052 5.910,15.840 5.815,15.828 5.804 C 15.816 5.793,15.789 5.558,15.768 5.283 C 15.720 4.651,15.666 4.390,15.520 4.090 C 15.310 3.658,15.000 3.352,14.546 3.131 C 14.056 2.892,13.595 2.880,12.717 3.085 C 12.515 3.132,12.319 3.173,12.282 3.177 C 12.232 3.182,12.116 3.068,11.845 2.749 C 11.642 2.509,11.401 2.251,11.309 2.174 C 10.892 1.825,10.315 1.682,9.666 1.766 M10.357 4.092 C 10.762 4.578,10.911 4.729,11.138 4.880 C 11.398 5.052,11.687 5.159,12.000 5.198 C 12.347 5.241,12.534 5.221,13.107 5.080 C 13.358 5.018,13.593 4.967,13.630 4.967 C 13.710 4.967,13.718 5.006,13.768 5.633 C 13.833 6.468,13.958 6.795,14.363 7.201 C 14.658 7.495,14.873 7.623,15.495 7.870 C 15.740 7.968,15.948 8.066,15.956 8.088 C 15.965 8.110,15.859 8.309,15.721 8.529 C 15.241 9.294,15.151 9.531,15.151 10.033 C 15.151 10.561,15.212 10.720,15.760 11.617 C 15.918 11.875,15.955 11.959,15.924 11.989 C 15.901 12.010,15.670 12.111,15.410 12.214 C 15.149 12.317,14.846 12.453,14.736 12.518 C 14.441 12.691,14.132 13.019,13.991 13.308 C 13.813 13.674,13.772 13.854,13.727 14.470 C 13.704 14.781,13.676 15.051,13.665 15.070 C 13.651 15.092,13.457 15.056,13.117 14.969 C 12.634 14.845,12.555 14.833,12.161 14.833 C 11.763 14.833,11.712 14.841,11.474 14.933 C 11.130 15.067,10.821 15.303,10.527 15.655 C 10.393 15.816,10.217 16.019,10.136 16.107 L 9.989 16.268 9.907 16.192 C 9.862 16.151,9.684 15.949,9.512 15.744 C 9.339 15.539,9.120 15.308,9.024 15.232 C 8.460 14.782,7.861 14.691,6.932 14.917 C 6.667 14.981,6.418 15.041,6.378 15.050 C 6.291 15.070,6.284 15.037,6.233 14.350 C 6.191 13.795,6.136 13.563,5.973 13.250 C 5.713 12.753,5.306 12.450,4.422 12.100 C 4.223 12.021,4.053 11.938,4.044 11.914 C 4.035 11.891,4.141 11.691,4.279 11.471 C 4.612 10.941,4.725 10.711,4.802 10.408 C 4.881 10.101,4.884 9.872,4.813 9.557 C 4.746 9.253,4.637 9.026,4.302 8.486 C 4.110 8.178,4.044 8.044,4.068 8.015 C 4.087 7.993,4.255 7.918,4.443 7.849 C 5.199 7.569,5.508 7.375,5.824 6.981 C 6.105 6.632,6.205 6.310,6.267 5.562 C 6.307 5.070,6.332 4.900,6.361 4.900 C 6.374 4.900,6.624 4.961,6.917 5.036 C 7.802 5.263,8.238 5.244,8.782 4.957 C 9.009 4.836,9.456 4.405,9.800 3.975 C 9.919 3.825,10.020 3.702,10.024 3.702 C 10.028 3.701,10.178 3.876,10.357 4.092 M7.759 6.997 C 7.447 7.061,7.143 7.358,7.046 7.691 C 6.754 8.698,7.964 9.436,8.700 8.700 C 8.921 8.479,8.982 8.326,8.983 8.000 C 8.983 7.756,8.970 7.690,8.890 7.526 C 8.730 7.200,8.456 7.025,8.050 6.987 C 7.958 6.978,7.828 6.983,7.759 6.997 M9.283 9.300 L 7.084 11.500 7.792 12.208 L 8.500 12.917 10.708 10.708 L 12.916 8.500 12.217 7.800 C 11.832 7.415,11.510 7.100,11.500 7.100 C 11.491 7.100,10.493 8.090,9.283 9.300 M11.767 11.029 C 11.515 11.083,11.255 11.286,11.116 11.538 C 11.028 11.695,11.017 11.748,11.018 11.983 C 11.021 12.415,11.199 12.713,11.561 12.890 C 11.720 12.969,11.792 12.983,12.017 12.983 C 12.251 12.983,12.306 12.971,12.464 12.883 C 13.090 12.537,13.174 11.648,12.621 11.230 C 12.388 11.054,12.037 10.972,11.767 11.029 " fill="var(--db-icon-color, currentColor)" stroke="none" fill-rule="evenodd"></path></svg>