<svg id="icon" height="20" viewBox="0 0 20 20" width="20" xmlns="http://www.w3.org/2000/svg"><path d="M8.900 2.081 C 7.950 2.227,7.282 2.441,6.422 2.875 C 4.088 4.052,2.557 6.133,2.098 8.750 C 2.002 9.295,1.992 10.681,2.080 11.167 C 2.416 13.028,3.182 14.501,4.454 15.734 C 5.737 16.977,7.199 17.679,9.050 17.940 C 9.490 18.003,10.630 17.993,11.102 17.923 C 12.541 17.710,13.908 17.113,15.017 16.215 C 16.593 14.937,17.614 13.140,17.923 11.100 C 18.003 10.572,18.002 9.432,17.922 8.900 C 17.652 7.116,16.876 5.563,15.650 4.350 C 14.462 3.175,13.027 2.434,11.317 2.115 C 10.913 2.039,9.314 2.017,8.900 2.081 M10.667 4.835 C 11.516 4.972,12.347 5.558,12.671 6.250 C 12.840 6.611,12.882 6.837,12.879 7.350 C 12.875 7.897,12.810 8.195,12.603 8.617 C 12.410 9.009,12.206 9.257,11.574 9.868 C 11.262 10.170,10.971 10.477,10.928 10.550 C 10.854 10.676,10.849 10.721,10.839 11.342 L 10.828 12.000 9.664 12.000 L 8.500 12.000 8.501 11.542 C 8.504 10.718,8.548 10.243,8.645 10.006 C 8.821 9.574,9.031 9.343,9.733 8.816 C 10.361 8.344,10.565 8.087,10.565 7.767 C 10.565 7.574,10.469 7.363,10.338 7.270 C 9.996 7.027,9.215 7.132,8.301 7.545 L 7.910 7.722 7.472 6.665 C 7.231 6.084,7.033 5.598,7.033 5.586 C 7.033 5.542,7.852 5.169,8.200 5.053 C 8.801 4.854,9.103 4.807,9.817 4.803 C 10.165 4.802,10.547 4.816,10.667 4.835 M10.283 12.834 C 10.527 12.950,10.761 13.184,10.898 13.445 C 10.996 13.632,11.000 13.658,11.000 14.047 C 11.000 14.417,10.992 14.469,10.914 14.626 C 10.645 15.165,10.047 15.475,9.478 15.371 C 9.355 15.348,9.175 15.290,9.077 15.242 C 8.852 15.132,8.589 14.857,8.473 14.608 C 8.393 14.437,8.383 14.379,8.383 14.050 C 8.383 13.707,8.390 13.669,8.490 13.459 C 8.668 13.082,9.021 12.794,9.383 12.728 C 9.457 12.715,9.644 12.712,9.800 12.721 C 10.020 12.734,10.128 12.759,10.283 12.834 " fill="var(--db-icon-color, currentColor)" stroke="none" fill-rule="evenodd"></path></svg>