<svg id="icon" height="32" viewBox="0 0 32 32" width="32" xmlns="http://www.w3.org/2000/svg"><path d="M8.587 3.038 L 5.307 3.067 4.970 3.211 C 4.077 3.594,3.464 4.259,3.118 5.221 L 2.976 5.616 2.998 16.048 L 3.020 26.480 3.141 26.827 C 3.474 27.777,4.214 28.518,5.173 28.861 L 5.520 28.986 15.973 28.986 L 26.427 28.987 26.802 28.869 C 27.266 28.723,27.734 28.425,28.126 28.027 C 28.462 27.685,28.684 27.327,28.879 26.807 L 29.013 26.451 29.012 16.599 C 29.011 7.077,28.988 5.466,28.847 5.067 C 28.660 4.538,28.066 3.802,27.578 3.496 C 27.449 3.415,27.185 3.282,26.992 3.201 L 26.640 3.054 19.253 3.031 C 15.191 3.019,10.391 3.022,8.587 3.038 M26.453 5.149 C 26.555 5.209,26.711 5.361,26.799 5.487 L 26.960 5.716 26.973 10.445 C 26.981 13.045,26.969 16.145,26.947 17.333 L 26.907 19.493 24.800 17.413 C 22.781 15.418,22.294 14.987,22.064 14.987 C 21.821 14.987,21.508 15.130,21.307 15.333 C 21.094 15.547,19.083 17.860,16.895 20.408 L 15.743 21.750 13.352 20.578 C 10.568 19.214,10.286 19.086,10.000 19.053 C 9.724 19.022,9.539 19.120,7.049 20.609 C 5.983 21.247,5.097 21.755,5.080 21.738 C 5.062 21.720,5.046 18.112,5.044 13.720 L 5.040 5.733 5.165 5.532 C 5.234 5.422,5.368 5.272,5.462 5.200 C 5.632 5.070,5.650 5.068,6.910 5.051 C 7.612 5.041,12.255 5.034,17.227 5.036 C 26.238 5.040,26.267 5.040,26.453 5.149 M9.994 7.145 C 8.984 7.410,8.031 8.146,7.504 9.067 C 7.428 9.199,7.291 9.532,7.199 9.808 C 7.048 10.258,7.031 10.375,7.030 10.955 C 7.029 11.393,7.057 11.710,7.118 11.944 C 7.666 14.034,9.743 15.344,11.813 14.906 C 12.408 14.780,13.302 14.313,13.717 13.910 C 14.331 13.316,14.799 12.452,14.937 11.656 C 15.013 11.219,14.973 10.409,14.854 9.967 C 14.469 8.533,13.206 7.361,11.764 7.098 C 11.273 7.008,10.431 7.031,9.994 7.145 M11.495 9.096 C 12.322 9.312,12.899 10.001,12.949 10.835 C 12.980 11.361,12.897 11.694,12.634 12.096 C 12.254 12.677,11.691 12.977,10.976 12.978 C 10.611 12.979,10.522 12.958,10.176 12.786 C 9.732 12.567,9.527 12.374,9.257 11.923 C 9.069 11.611,9.067 11.598,9.067 11.014 C 9.067 10.480,9.081 10.393,9.207 10.139 C 9.454 9.643,10.016 9.186,10.530 9.063 C 10.806 8.997,11.163 9.009,11.495 9.096 M26.976 24.351 L 26.960 26.276 26.807 26.496 C 26.723 26.617,26.575 26.778,26.477 26.852 L 26.299 26.987 15.981 26.974 L 5.663 26.960 5.458 26.794 C 5.112 26.514,5.054 26.363,5.025 25.656 C 5.011 25.312,5.016 24.824,5.037 24.573 L 5.075 24.117 7.431 22.704 C 8.727 21.927,9.840 21.264,9.905 21.231 C 10.010 21.178,10.325 21.318,12.519 22.392 C 15.340 23.772,15.726 23.949,16.007 23.986 C 16.412 24.041,16.478 23.972,19.810 20.089 L 22.044 17.484 24.518 19.955 L 26.991 22.427 26.976 24.351 " fill="var(--db-icon-color, currentColor)" stroke="none" fill-rule="evenodd"></path></svg>