<svg id="icon" height="32" viewBox="0 0 32 32" width="32" xmlns="http://www.w3.org/2000/svg"><path d="M15.200 4.036 C 13.408 4.211,12.223 4.531,10.800 5.225 C 9.395 5.911,8.472 6.573,7.409 7.661 C 3.169 12.002,2.858 18.806,6.683 23.547 C 6.872 23.781,7.312 24.250,7.660 24.587 C 9.073 25.956,10.442 26.778,12.373 27.416 C 16.485 28.774,21.093 27.708,24.261 24.667 C 28.674 20.431,29.243 13.723,25.604 8.827 C 25.127 8.183,24.141 7.163,23.520 6.668 C 21.750 5.259,19.433 4.294,17.371 4.109 C 16.741 4.052,15.473 4.010,15.200 4.036 M16.578 5.760 C 18.122 5.838,19.065 6.074,20.415 6.722 C 21.839 7.404,23.086 8.392,24.058 9.607 C 26.496 12.655,26.971 16.856,25.279 20.412 C 24.764 21.494,24.194 22.311,23.337 23.192 C 22.146 24.417,20.831 25.241,19.198 25.784 C 18.051 26.166,17.429 26.258,15.973 26.261 C 14.832 26.263,14.699 26.253,14.053 26.116 C 11.904 25.659,10.160 24.722,8.710 23.246 C 7.818 22.337,7.335 21.656,6.769 20.507 C 6.370 19.696,6.108 18.954,5.912 18.080 C 5.796 17.564,5.787 17.401,5.787 16.000 C 5.787 14.599,5.796 14.436,5.912 13.920 C 6.518 11.210,8.045 8.954,10.299 7.438 C 11.539 6.604,13.156 5.995,14.667 5.793 C 15.376 5.698,15.350 5.698,16.578 5.760 M11.885 11.111 C 11.330 11.318,10.922 11.690,10.675 12.213 C 10.487 12.612,10.476 13.383,10.654 13.775 C 10.813 14.128,11.312 14.635,11.675 14.813 C 11.940 14.943,12.032 14.959,12.507 14.959 C 13.158 14.958,13.423 14.850,13.869 14.403 C 14.188 14.084,14.368 13.756,14.460 13.327 C 14.631 12.528,14.127 11.572,13.344 11.212 C 12.976 11.042,12.211 10.990,11.885 11.111 M18.859 11.116 C 18.558 11.227,18.123 11.541,17.921 11.794 C 17.651 12.130,17.536 12.488,17.530 13.013 C 17.526 13.397,17.547 13.514,17.666 13.773 C 17.851 14.176,18.285 14.628,18.661 14.813 C 18.927 14.943,19.020 14.960,19.493 14.960 C 19.967 14.960,20.060 14.943,20.325 14.813 C 20.689 14.635,21.188 14.127,21.345 13.775 C 21.434 13.575,21.459 13.412,21.461 13.013 C 21.463 12.574,21.444 12.466,21.322 12.201 C 21.140 11.809,20.723 11.392,20.333 11.213 C 19.956 11.039,19.199 10.989,18.859 11.116 M11.973 19.035 C 11.112 19.055,10.602 19.089,10.533 19.129 C 10.367 19.226,10.146 19.478,10.083 19.643 C 9.954 19.985,10.035 20.396,10.283 20.658 C 10.617 21.010,10.206 20.987,16.000 20.987 C 21.855 20.987,21.399 21.016,21.749 20.617 C 21.934 20.407,22.001 20.154,21.957 19.828 C 21.922 19.566,21.795 19.383,21.515 19.190 L 21.307 19.047 17.307 19.025 C 15.107 19.012,12.707 19.017,11.973 19.035 " fill="var(--db-icon-color, currentColor)" stroke="none" fill-rule="evenodd"></path></svg>