<svg id="icon" height="20" viewBox="0 0 20 20" width="20" xmlns="http://www.w3.org/2000/svg"><path d="M5.257 4.536 C 5.188 4.553,5.083 4.591,5.024 4.621 C 4.889 4.690,2.392 7.184,2.204 7.438 C 1.935 7.800,1.936 8.203,2.206 8.562 C 2.380 8.793,4.228 10.667,4.679 11.069 C 5.094 11.440,5.179 11.482,5.500 11.482 C 5.796 11.481,5.992 11.400,6.197 11.195 C 6.404 10.988,6.483 10.796,6.483 10.500 C 6.483 10.140,6.413 10.020,5.871 9.460 L 5.417 8.990 9.650 9.012 C 12.165 9.025,13.948 9.047,14.043 9.066 C 14.845 9.229,15.586 9.902,15.870 10.726 C 16.322 12.041,15.455 13.608,14.100 13.922 C 13.917 13.965,13.266 13.976,9.900 13.997 L 5.917 14.022 5.773 14.096 C 5.261 14.360,5.052 14.925,5.286 15.418 C 5.358 15.570,5.585 15.824,5.702 15.885 C 5.755 15.912,5.937 15.948,6.107 15.966 C 6.506 16.008,13.539 16.009,13.967 15.967 C 15.254 15.841,16.409 15.150,17.211 14.026 C 17.531 13.577,17.778 12.993,17.919 12.350 C 18.008 11.944,18.001 11.059,17.905 10.610 C 17.824 10.228,17.672 9.774,17.532 9.498 C 17.241 8.921,16.693 8.282,16.135 7.869 C 15.782 7.608,15.158 7.301,14.700 7.164 L 14.350 7.058 12.467 7.032 C 11.431 7.018,9.423 7.005,8.005 7.003 L 5.426 7.000 5.876 6.535 C 6.148 6.254,6.355 6.009,6.401 5.915 C 6.511 5.687,6.528 5.356,6.440 5.156 C 6.288 4.813,6.055 4.614,5.723 4.545 C 5.489 4.496,5.434 4.495,5.257 4.536 " fill="var(--db-icon-color, currentColor)" stroke="none" fill-rule="evenodd"></path></svg>