<svg id="icon" height="24" viewBox="0 0 24 24" width="24" xmlns="http://www.w3.org/2000/svg"><path d="M2.806 3.040 C 2.289 3.118,1.899 3.718,2.033 4.230 C 2.101 4.489,2.266 4.716,2.489 4.853 C 2.674 4.968,2.682 4.969,3.556 5.002 C 4.607 5.043,4.679 5.067,4.994 5.486 C 5.070 5.588,5.228 6.442,6.459 13.400 C 6.714 14.841,6.966 16.151,7.019 16.311 C 7.261 17.041,7.839 17.601,8.646 17.887 L 8.966 18.000 13.253 17.999 C 15.676 17.999,17.652 17.982,17.797 17.961 C 18.096 17.918,18.315 17.781,18.500 17.522 C 18.610 17.367,18.620 17.326,18.620 17.020 C 18.620 16.713,18.611 16.675,18.496 16.514 C 18.428 16.418,18.291 16.284,18.191 16.217 L 18.010 16.093 17.159 16.067 C 16.690 16.052,14.710 16.040,12.758 16.040 L 9.209 16.040 9.072 15.889 C 8.942 15.745,8.929 15.701,8.808 15.019 C 8.737 14.623,8.680 14.288,8.680 14.274 C 8.680 14.226,8.865 14.203,12.160 13.840 C 18.239 13.171,18.613 13.124,18.963 12.982 C 19.498 12.764,20.033 12.271,20.267 11.779 C 20.360 11.583,20.522 11.014,20.798 9.918 C 21.399 7.526,21.491 7.083,21.472 6.700 C 21.436 5.998,20.982 5.424,20.280 5.192 L 20.020 5.106 13.515 5.089 L 7.010 5.073 6.904 4.749 C 6.684 4.081,6.302 3.634,5.700 3.336 C 5.500 3.237,5.215 3.134,5.060 3.103 C 4.729 3.038,3.117 2.993,2.806 3.040 M18.726 7.066 L 19.265 7.092 18.951 8.376 C 18.416 10.565,18.315 10.929,18.212 11.024 C 18.144 11.087,18.028 11.121,17.770 11.155 C 16.651 11.301,10.079 12.056,8.479 12.223 L 8.257 12.246 7.782 9.693 C 7.521 8.289,7.299 7.117,7.289 7.090 C 7.275 7.050,8.380 7.040,12.729 7.040 C 15.731 7.040,18.430 7.052,18.726 7.066 M8.358 19.572 C 7.700 19.819,7.363 20.524,7.587 21.181 C 7.683 21.465,8.029 21.804,8.340 21.919 C 9.292 22.272,10.275 21.289,9.918 20.342 C 9.813 20.063,9.547 19.760,9.306 19.643 C 9.088 19.538,8.555 19.498,8.358 19.572 M16.872 19.573 C 16.769 19.603,16.652 19.651,16.612 19.681 C 16.405 19.838,16.222 20.041,16.127 20.220 C 16.038 20.388,16.022 20.471,16.022 20.740 C 16.022 21.119,16.122 21.364,16.380 21.622 C 16.634 21.876,16.882 21.978,17.240 21.977 C 17.638 21.975,17.895 21.863,18.157 21.576 C 18.390 21.321,18.480 21.082,18.480 20.719 C 18.480 20.254,18.197 19.820,17.771 19.632 C 17.547 19.533,17.115 19.505,16.872 19.573 " fill="var(--db-icon-color, currentColor)" stroke="none" fill-rule="evenodd"></path></svg>