<svg id="icon" height="20" viewBox="0 0 20 20" width="20" xmlns="http://www.w3.org/2000/svg"><path d="M9.351 3.053 C 7.472 3.345,6.147 4.793,6.011 6.703 L 5.991 6.990 4.369 7.008 L 2.748 7.025 2.579 7.111 C 2.334 7.235,2.123 7.483,2.054 7.730 C 1.975 8.010,1.961 7.930,2.887 12.578 L 3.404 15.172 2.791 15.796 C 2.080 16.522,2.019 16.615,2.018 17.000 C 2.016 17.296,2.095 17.487,2.304 17.696 C 2.554 17.947,2.897 18.047,3.229 17.968 C 3.365 17.935,3.459 17.875,3.691 17.673 C 4.055 17.356,12.759 8.677,14.853 6.543 C 16.354 5.013,16.399 4.963,16.453 4.778 C 16.587 4.316,16.374 3.840,15.933 3.617 C 15.797 3.548,15.722 3.533,15.493 3.534 C 15.249 3.534,15.197 3.545,15.048 3.631 C 14.956 3.684,14.583 4.014,14.219 4.364 C 13.856 4.714,13.549 4.999,13.537 4.998 C 13.526 4.997,13.429 4.871,13.323 4.718 C 12.882 4.085,12.241 3.572,11.552 3.300 C 11.156 3.144,10.804 3.072,10.250 3.035 C 9.666 2.995,9.730 2.994,9.351 3.053 M10.578 5.083 C 11.242 5.256,11.767 5.786,11.930 6.447 L 11.970 6.611 11.778 6.805 L 11.585 7.000 9.792 7.000 L 7.998 7.000 8.019 6.825 C 8.086 6.256,8.251 5.877,8.569 5.558 C 8.959 5.167,9.470 4.985,10.086 5.018 C 10.252 5.027,10.473 5.056,10.578 5.083 M17.113 7.163 C 17.042 7.216,16.736 7.509,16.433 7.813 L 15.883 8.367 15.248 11.675 L 14.614 14.983 11.931 14.992 L 9.249 15.000 8.250 16.001 L 7.250 17.001 11.467 16.992 C 15.452 16.984,15.690 16.980,15.812 16.923 C 15.993 16.838,16.266 16.575,16.336 16.417 C 16.400 16.274,16.643 15.093,17.231 12.067 C 17.708 9.610,17.963 8.258,17.988 8.046 C 18.025 7.730,17.852 7.401,17.522 7.162 C 17.356 7.042,17.276 7.042,17.113 7.163 M7.380 11.200 C 6.169 12.410,5.162 13.400,5.143 13.400 C 5.123 13.400,4.922 12.459,4.685 11.258 C 4.453 10.080,4.255 9.090,4.246 9.058 C 4.230 9.003,4.372 9.000,6.906 9.000 L 9.583 9.001 7.380 11.200 " fill="var(--db-icon-color, currentColor)" stroke="none" fill-rule="evenodd"></path></svg>