<svg id="icon" height="32" viewBox="0 0 32 32" width="32" xmlns="http://www.w3.org/2000/svg"><path d="M21.813 3.307 C 21.365 3.358,20.708 3.553,20.180 3.789 C 19.468 4.109,18.986 4.483,17.838 5.608 C 16.516 6.903,16.078 7.399,16.030 7.654 C 15.928 8.200,16.432 8.800,16.994 8.800 C 17.372 8.800,17.616 8.614,18.990 7.283 C 20.423 5.894,20.682 5.699,21.413 5.455 C 21.803 5.325,21.915 5.312,22.693 5.309 C 23.546 5.307,23.547 5.307,24.027 5.495 C 25.148 5.934,25.965 6.746,26.412 7.867 C 26.568 8.259,26.583 8.352,26.603 9.035 C 26.630 9.974,26.570 10.288,26.232 10.976 C 25.985 11.477,25.894 11.597,25.173 12.362 C 24.304 13.284,21.417 16.163,20.087 17.432 C 19.407 18.081,19.165 18.277,18.860 18.428 C 17.749 18.974,16.548 19.017,15.425 18.550 C 15.000 18.374,14.628 18.116,14.053 17.600 C 13.848 17.416,13.574 17.218,13.444 17.160 C 13.233 17.065,13.178 17.061,12.919 17.118 C 12.379 17.239,12.022 17.781,12.156 18.277 C 12.235 18.570,12.516 18.924,13.004 19.339 C 13.805 20.024,14.607 20.461,15.499 20.700 C 16.031 20.843,17.336 20.896,17.979 20.802 C 18.882 20.670,19.764 20.294,20.587 19.690 C 21.043 19.354,26.900 13.517,27.366 12.933 C 27.965 12.183,28.345 11.376,28.537 10.442 C 28.633 9.972,28.646 9.767,28.625 9.013 C 28.598 8.058,28.516 7.676,28.155 6.821 C 27.797 5.973,26.945 4.937,26.130 4.359 C 25.445 3.875,24.544 3.487,23.813 3.365 C 23.340 3.285,22.270 3.254,21.813 3.307 M13.920 11.099 C 13.405 11.178,12.688 11.435,12.032 11.776 C 11.531 12.036,11.350 12.171,10.725 12.750 C 9.858 13.555,5.232 18.220,4.610 18.919 C 3.850 19.771,3.395 20.860,3.294 22.066 C 3.141 23.894,3.620 25.357,4.805 26.681 C 6.689 28.785,9.755 29.271,12.223 27.856 C 12.762 27.547,13.346 27.037,14.627 25.756 C 15.919 24.464,16.042 24.247,15.793 23.707 C 15.624 23.341,15.250 23.093,14.865 23.093 C 14.579 23.093,14.265 23.337,13.137 24.436 C 11.517 26.014,11.277 26.195,10.460 26.457 C 9.795 26.670,9.149 26.715,8.532 26.590 C 7.077 26.295,6.002 25.378,5.481 23.987 C 5.336 23.598,5.314 23.465,5.294 22.853 C 5.265 22.002,5.349 21.556,5.653 20.927 C 5.914 20.390,6.037 20.257,9.863 16.407 L 12.507 13.747 13.052 13.487 C 13.822 13.118,14.154 13.051,15.067 13.079 C 15.695 13.099,15.875 13.125,16.205 13.241 C 16.714 13.421,17.075 13.643,17.603 14.104 C 18.427 14.822,18.715 14.936,19.176 14.726 C 19.530 14.565,19.785 14.171,19.786 13.784 C 19.788 13.258,18.702 12.237,17.520 11.651 C 16.691 11.240,16.087 11.097,15.068 11.068 C 14.627 11.055,14.111 11.069,13.920 11.099 " fill="var(--db-icon-color, currentColor)" stroke="none" fill-rule="evenodd"></path></svg>