<svg id="icon" height="32" viewBox="0 0 32 32" width="32" xmlns="http://www.w3.org/2000/svg"><path d="M13.442 2.298 C 11.538 2.481,9.368 3.431,7.853 4.745 C 7.347 5.183,7.200 5.424,7.200 5.814 C 7.200 6.369,7.608 6.773,8.169 6.773 C 8.461 6.773,8.653 6.672,9.150 6.257 C 10.286 5.308,11.609 4.672,13.085 4.368 C 13.567 4.269,13.754 4.260,14.773 4.282 C 15.771 4.305,15.989 4.326,16.453 4.444 C 18.974 5.083,20.910 6.629,22.026 8.893 C 22.325 9.499,22.562 10.215,22.723 10.993 C 22.825 11.489,22.834 11.667,22.811 12.693 C 22.788 13.692,22.768 13.909,22.650 14.373 C 22.286 15.805,21.696 16.902,19.983 19.329 C 18.308 21.704,17.902 22.492,17.331 24.480 C 16.932 25.873,15.996 27.033,14.773 27.651 C 14.134 27.975,13.668 28.113,13.067 28.157 C 12.186 28.222,11.484 28.149,10.853 27.928 C 10.560 27.825,10.244 27.726,10.151 27.707 C 9.725 27.622,9.188 27.977,9.066 28.427 C 8.912 28.991,9.250 29.457,10.029 29.758 C 10.822 30.063,11.251 30.143,12.260 30.172 C 13.352 30.204,13.743 30.153,14.615 29.868 C 16.269 29.326,17.487 28.385,18.447 26.907 C 18.782 26.391,19.055 25.735,19.341 24.754 C 19.749 23.360,20.143 22.591,21.273 20.987 C 23.332 18.063,23.835 17.197,24.324 15.734 C 24.739 14.494,24.881 13.496,24.839 12.111 C 24.795 10.629,24.498 9.426,23.841 8.065 C 22.804 5.918,21.210 4.320,19.067 3.278 C 17.307 2.423,15.471 2.103,13.442 2.298 M13.680 6.299 C 13.164 6.362,12.102 6.708,11.627 6.968 C 10.944 7.342,10.195 7.940,10.044 8.231 C 9.721 8.856,10.231 9.680,10.936 9.670 C 11.222 9.665,11.380 9.591,11.807 9.258 C 12.269 8.897,12.691 8.654,13.186 8.464 C 13.620 8.297,13.641 8.295,14.560 8.294 C 15.405 8.293,15.529 8.305,15.867 8.421 C 16.557 8.656,17.096 8.989,17.598 9.491 C 18.419 10.312,18.835 11.314,18.839 12.480 C 18.843 13.485,18.657 14.028,17.855 15.356 C 17.344 16.202,17.285 16.450,17.493 16.880 C 17.664 17.233,17.952 17.412,18.351 17.412 C 18.782 17.412,19.026 17.230,19.445 16.599 C 20.121 15.580,20.589 14.524,20.779 13.588 C 20.911 12.938,20.858 11.613,20.675 10.960 C 20.005 8.573,18.219 6.863,15.885 6.372 C 15.401 6.270,14.232 6.231,13.680 6.299 " fill="var(--db-icon-color, currentColor)" stroke="none" fill-rule="evenodd"></path></svg>