<svg id="icon" height="24" viewBox="0 0 24 24" width="24" xmlns="http://www.w3.org/2000/svg"><path d="M11.120 2.045 C 10.552 2.104,9.820 2.238,9.305 2.379 C 7.952 2.750,6.575 3.486,5.491 4.418 C 2.593 6.908,1.372 10.799,2.326 14.500 C 2.773 16.237,3.649 17.759,4.945 19.055 C 6.267 20.377,7.791 21.244,9.584 21.694 C 10.499 21.923,10.895 21.968,12.000 21.970 C 13.084 21.973,13.332 21.944,14.360 21.694 C 15.452 21.428,16.521 20.962,17.447 20.348 C 18.115 19.905,18.484 19.600,19.080 19.001 C 20.454 17.618,21.355 15.962,21.775 14.040 C 21.941 13.280,21.972 12.950,21.971 11.940 C 21.969 10.699,21.881 10.116,21.523 8.980 C 20.722 6.437,18.906 4.309,16.500 3.092 C 15.162 2.416,13.993 2.113,12.444 2.040 C 11.529 1.998,11.590 1.997,11.120 2.045 M12.703 4.043 C 15.164 4.282,17.300 5.552,18.644 7.575 C 20.543 10.434,20.415 14.127,18.320 16.880 C 16.782 18.901,14.256 20.086,11.700 19.987 C 10.329 19.934,8.956 19.521,7.842 18.828 C 3.740 16.276,2.769 10.822,5.740 7.020 C 6.048 6.627,6.755 5.937,7.166 5.630 C 8.764 4.437,10.789 3.856,12.703 4.043 M7.300 11.035 C 6.600 11.062,6.522 11.085,6.294 11.327 C 6.090 11.544,6.023 11.711,6.023 12.000 C 6.023 12.188,6.046 12.304,6.108 12.420 C 6.211 12.613,6.456 12.856,6.620 12.928 C 6.716 12.970,7.770 12.982,12.000 12.990 L 17.260 13.001 17.467 12.881 C 17.917 12.622,18.100 12.149,17.938 11.671 C 17.859 11.441,17.565 11.136,17.368 11.082 C 17.201 11.036,8.330 10.994,7.300 11.035 " fill="var(--db-icon-color, currentColor)" stroke="none" fill-rule="evenodd"></path></svg>