<svg id="icon" height="32" viewBox="0 0 32 32" width="32" xmlns="http://www.w3.org/2000/svg"><path d="M3.040 3.016 C 2.996 3.025,2.869 3.048,2.759 3.066 C 2.519 3.105,2.200 3.368,2.099 3.611 C 2.059 3.706,2.027 3.902,2.027 4.047 C 2.027 4.263,2.059 4.354,2.201 4.543 C 2.487 4.921,2.641 4.968,3.757 5.015 C 4.867 5.061,4.987 5.098,5.194 5.454 C 5.358 5.738,5.656 7.098,7.286 15.013 C 8.602 21.405,8.741 22.036,8.917 22.400 C 9.117 22.813,9.704 23.423,10.111 23.639 C 10.763 23.986,10.372 23.967,17.333 23.987 C 20.808 23.997,23.707 23.991,23.774 23.975 C 23.841 23.958,23.990 23.859,24.105 23.755 C 24.613 23.296,24.583 22.558,24.042 22.200 L 23.821 22.053 17.547 22.027 L 11.272 22.000 11.051 21.853 C 10.929 21.773,10.791 21.649,10.744 21.577 C 10.656 21.442,10.189 19.440,10.188 19.187 C 10.187 19.105,10.216 19.040,10.253 19.040 C 10.290 19.039,10.620 19.004,10.987 18.961 C 11.353 18.918,14.029 18.629,16.933 18.320 C 24.248 17.540,24.471 17.511,24.942 17.304 C 25.320 17.138,25.572 16.960,25.936 16.602 C 26.467 16.078,26.518 15.928,27.628 11.627 C 28.346 8.845,28.437 8.426,28.436 7.930 C 28.436 7.583,28.411 7.462,28.288 7.210 C 28.108 6.841,27.700 6.427,27.314 6.220 L 27.028 6.067 17.232 6.039 L 7.436 6.011 7.291 5.445 C 7.038 4.455,6.692 3.935,5.975 3.472 C 5.558 3.202,5.248 3.100,4.658 3.038 C 4.217 2.992,3.219 2.978,3.040 3.016 M26.421 8.057 C 26.450 8.085,24.942 14.081,24.765 14.640 C 24.658 14.981,24.451 15.343,24.326 15.410 C 24.128 15.516,22.735 15.680,16.187 16.369 C 10.543 16.963,9.805 17.029,9.729 16.947 C 9.696 16.910,9.615 16.628,9.551 16.320 C 9.342 15.326,7.840 8.027,7.840 8.010 C 7.840 7.979,26.390 8.026,26.421 8.057 M10.680 26.080 C 10.179 26.185,9.664 26.732,9.546 27.285 C 9.471 27.639,9.551 28.146,9.730 28.453 C 10.113 29.107,10.964 29.397,11.692 29.122 C 12.061 28.983,12.441 28.631,12.603 28.278 C 12.761 27.935,12.760 27.329,12.602 26.978 C 12.465 26.672,12.151 26.361,11.807 26.188 C 11.519 26.044,11.063 26.000,10.680 26.080 M22.131 26.074 C 21.699 26.215,21.291 26.622,21.119 27.082 C 20.893 27.684,21.027 28.284,21.491 28.751 C 22.105 29.368,23.032 29.399,23.672 28.824 C 24.180 28.367,24.350 27.813,24.167 27.210 C 24.035 26.775,23.704 26.366,23.345 26.193 C 23.095 26.072,22.357 26.000,22.131 26.074 " fill="var(--db-icon-color, currentColor)" stroke="none" fill-rule="evenodd"></path></svg>