<svg id="icon" height="20" viewBox="0 0 20 20" width="20" xmlns="http://www.w3.org/2000/svg"><path d="M8.850 2.088 C 8.382 2.161,7.551 2.377,7.189 2.520 C 6.691 2.717,5.850 3.161,5.470 3.426 C 3.616 4.724,2.418 6.651,2.079 8.883 C 1.995 9.442,1.995 10.562,2.080 11.117 C 2.214 11.987,2.442 12.714,2.833 13.517 C 3.203 14.278,3.692 14.968,4.293 15.580 C 6.374 17.698,9.378 18.496,12.205 17.682 C 15.707 16.674,18.125 13.344,17.989 9.717 C 17.849 5.974,15.114 2.824,11.400 2.130 C 10.882 2.033,9.366 2.008,8.850 2.088 M14.000 10.000 L 14.000 11.000 10.000 11.000 L 6.000 11.000 6.000 10.000 L 6.000 9.000 10.000 9.000 L 14.000 9.000 14.000 10.000 " fill="var(--db-icon-color, currentColor)" stroke="none" fill-rule="evenodd"></path></svg>