<svg id="icon" height="32" viewBox="0 0 32 32" width="32" xmlns="http://www.w3.org/2000/svg"><path d="M13.120 2.074 C 12.650 2.101,12.532 2.127,12.386 2.231 C 12.054 2.467,11.924 2.932,12.077 3.332 C 12.176 3.592,12.455 3.869,12.681 3.933 C 12.761 3.955,16.536 3.973,21.071 3.973 L 29.314 3.973 29.531 3.830 C 29.926 3.568,30.090 2.975,29.880 2.564 C 29.829 2.463,29.694 2.307,29.582 2.217 L 29.377 2.053 21.528 2.048 C 17.212 2.045,13.428 2.057,13.120 2.074 M8.749 7.051 C 8.494 7.121,8.297 7.272,8.150 7.508 L 8.027 7.707 8.012 17.139 L 7.997 26.570 5.868 24.464 C 4.698 23.305,3.650 22.289,3.541 22.205 C 3.368 22.074,3.295 22.054,2.987 22.053 C 2.678 22.053,2.606 22.073,2.431 22.206 C 2.321 22.290,2.185 22.434,2.129 22.526 C 1.988 22.758,1.991 23.221,2.136 23.459 C 2.278 23.691,8.168 29.590,8.475 29.807 C 8.750 30.002,9.112 30.031,9.432 29.884 C 9.677 29.771,15.590 23.869,15.830 23.498 C 16.029 23.190,16.050 22.915,15.900 22.587 C 15.780 22.325,15.643 22.199,15.377 22.104 C 15.100 22.005,14.800 22.009,14.578 22.114 C 14.477 22.162,13.411 23.173,12.210 24.360 L 10.027 26.518 10.027 17.177 C 10.027 8.100,10.024 7.830,9.925 7.638 C 9.694 7.187,9.182 6.932,8.749 7.051 M17.875 7.037 C 16.954 7.185,16.713 8.290,17.485 8.826 L 17.716 8.987 23.485 8.987 C 29.915 8.987,29.398 9.017,29.749 8.617 C 29.934 8.407,30.001 8.154,29.957 7.828 C 29.922 7.567,29.796 7.385,29.515 7.187 L 29.307 7.041 23.733 7.016 C 20.668 7.002,18.032 7.012,17.875 7.037 M22.880 12.046 C 22.326 12.110,21.991 12.529,22.038 13.099 C 22.066 13.435,22.174 13.607,22.503 13.840 L 22.729 14.000 26.000 14.000 L 29.271 14.000 29.497 13.840 C 29.826 13.607,29.934 13.435,29.962 13.099 C 29.994 12.714,29.834 12.371,29.531 12.170 L 29.315 12.027 26.244 12.019 C 24.555 12.015,23.041 12.027,22.880 12.046 M26.769 17.061 C 26.294 17.159,26.000 17.572,26.038 18.088 C 26.055 18.332,26.094 18.440,26.218 18.594 C 26.525 18.973,26.588 18.987,28.035 18.987 L 29.325 18.987 29.550 18.813 C 29.835 18.594,29.974 18.336,29.972 18.027 C 29.970 17.679,29.811 17.368,29.542 17.190 L 29.315 17.040 28.137 17.031 C 27.490 17.025,26.874 17.039,26.769 17.061 " fill="var(--db-icon-color, currentColor)" stroke="none" fill-rule="evenodd"></path></svg>