<svg id="icon" height="24" viewBox="0 0 24 24" width="24" xmlns="http://www.w3.org/2000/svg"><path d="M11.360 3.066 C 9.638 3.325,8.279 4.295,7.540 5.794 C 7.152 6.582,7.042 7.075,7.012 8.163 L 6.990 8.985 6.653 9.049 C 6.204 9.134,5.915 9.285,5.596 9.602 C 5.228 9.968,5.091 10.259,5.041 10.780 C 4.993 11.274,4.990 18.864,5.038 19.274 C 5.137 20.130,5.889 20.873,6.748 20.963 C 7.155 21.006,16.845 21.006,17.252 20.963 C 17.892 20.896,18.481 20.473,18.781 19.865 C 18.909 19.607,18.937 19.502,18.968 19.159 C 18.988 18.937,18.999 16.924,18.992 14.668 L 18.980 10.580 18.884 10.340 C 18.751 10.009,18.622 9.815,18.375 9.574 C 18.103 9.308,17.688 9.100,17.306 9.038 L 17.011 8.991 16.988 8.165 C 16.971 7.547,16.943 7.240,16.880 6.942 C 16.453 4.939,14.852 3.428,12.815 3.104 C 12.452 3.047,11.632 3.025,11.360 3.066 M12.840 5.141 C 13.390 5.308,14.027 5.742,14.349 6.170 C 14.577 6.473,14.781 6.853,14.857 7.120 C 14.928 7.369,14.998 8.127,14.999 8.650 L 15.000 9.000 12.000 9.000 L 9.000 9.000 9.000 8.506 C 9.000 7.887,9.061 7.420,9.190 7.060 C 9.542 6.073,10.374 5.326,11.375 5.097 C 11.698 5.023,12.536 5.048,12.840 5.141 M17.000 15.000 L 17.000 19.000 12.000 19.000 L 7.000 19.000 7.000 15.000 L 7.000 11.000 12.000 11.000 L 17.000 11.000 17.000 15.000 M11.818 13.040 C 11.617 13.069,11.327 13.235,11.216 13.386 C 10.999 13.681,11.000 13.674,11.000 14.909 C 11.000 16.166,11.024 16.360,11.212 16.606 C 11.379 16.825,11.687 16.974,11.981 16.977 C 12.178 16.979,12.272 16.956,12.461 16.859 C 12.772 16.701,12.909 16.506,12.965 16.145 C 13.021 15.787,12.992 13.781,12.929 13.632 C 12.867 13.484,12.611 13.208,12.469 13.134 C 12.315 13.055,12.020 13.012,11.818 13.040 " fill="var(--db-icon-color, currentColor)" stroke="none" fill-rule="evenodd"></path></svg>