<svg id="icon" height="32" viewBox="0 0 32 32" width="32" xmlns="http://www.w3.org/2000/svg"><path d="M13.685 2.137 C 12.891 2.258,12.173 2.533,11.855 2.839 C 11.591 3.093,11.558 3.360,11.626 4.670 C 11.671 5.560,11.669 5.787,11.615 5.823 C 11.577 5.847,11.038 6.156,10.416 6.509 L 9.286 7.152 8.389 6.571 C 7.328 5.882,7.100 5.760,6.875 5.760 C 6.287 5.760,5.248 6.823,4.207 8.491 C 3.731 9.252,2.883 10.971,2.674 11.600 C 2.316 12.673,2.328 13.024,2.733 13.399 C 2.856 13.512,3.378 13.816,3.954 14.108 L 4.960 14.618 4.960 16.002 L 4.960 17.386 4.147 17.793 C 2.985 18.374,2.657 18.597,2.507 18.905 C 2.351 19.229,2.377 19.468,2.665 20.329 C 3.237 22.040,4.715 24.520,5.808 25.602 C 6.377 26.166,6.776 26.338,7.168 26.189 C 7.243 26.160,7.749 25.849,8.293 25.496 L 9.283 24.855 10.485 25.534 L 11.687 26.213 11.656 26.560 C 11.639 26.751,11.611 27.327,11.595 27.840 C 11.566 28.698,11.572 28.788,11.668 28.959 C 11.885 29.347,12.551 29.653,13.619 29.854 C 14.333 29.988,17.667 29.988,18.381 29.854 C 19.385 29.665,19.991 29.405,20.276 29.041 C 20.391 28.894,20.400 28.835,20.400 28.188 C 20.400 27.806,20.382 27.205,20.360 26.853 L 20.320 26.213 21.518 25.535 L 22.717 24.857 23.764 25.531 C 24.698 26.133,24.840 26.208,25.085 26.227 C 25.324 26.246,25.393 26.227,25.607 26.083 C 26.546 25.455,28.151 23.147,29.005 21.194 C 29.537 19.978,29.687 19.230,29.476 18.837 C 29.354 18.611,28.886 18.310,27.853 17.793 L 27.040 17.386 27.040 16.002 L 27.040 14.618 27.997 14.132 C 29.250 13.495,29.600 13.183,29.600 12.705 C 29.600 11.845,28.325 9.109,27.160 7.471 C 26.824 6.998,25.949 6.102,25.655 5.929 C 25.478 5.826,25.342 5.790,25.122 5.788 C 24.833 5.787,24.803 5.802,23.770 6.469 L 22.713 7.150 22.223 6.874 C 21.061 6.220,20.373 5.790,20.346 5.703 C 20.329 5.651,20.355 5.088,20.402 4.452 L 20.488 3.294 20.314 3.039 C 20.044 2.644,19.622 2.427,18.693 2.207 C 18.385 2.134,17.946 2.116,16.160 2.104 C 14.972 2.096,13.858 2.111,13.685 2.137 M16.667 4.053 C 17.195 4.081,17.795 4.131,18.001 4.164 L 18.374 4.224 18.337 4.712 C 18.316 4.980,18.295 5.502,18.289 5.871 C 18.276 6.753,18.320 6.850,18.903 7.226 C 19.493 7.606,21.465 8.758,22.067 9.074 C 22.339 9.217,22.627 9.333,22.707 9.332 C 22.921 9.330,23.224 9.178,23.986 8.689 C 24.914 8.094,24.893 8.107,24.984 8.107 C 25.156 8.107,26.208 9.663,26.715 10.667 C 27.208 11.642,27.384 12.094,27.307 12.187 C 27.274 12.226,26.859 12.458,26.384 12.703 C 25.492 13.162,25.223 13.349,25.091 13.605 C 24.976 13.827,24.976 18.173,25.091 18.395 C 25.225 18.654,25.505 18.849,26.392 19.303 C 27.384 19.809,27.397 19.826,27.199 20.313 C 26.797 21.306,26.019 22.650,25.351 23.506 L 25.008 23.946 24.677 23.732 C 24.495 23.615,24.047 23.333,23.680 23.106 C 22.858 22.597,22.762 22.587,22.081 22.932 C 20.985 23.486,18.711 24.824,18.491 25.043 C 18.413 25.121,18.333 25.271,18.313 25.377 C 18.294 25.482,18.294 26.065,18.314 26.673 L 18.350 27.777 18.202 27.806 C 17.018 28.038,14.976 28.038,13.793 27.805 L 13.640 27.775 13.678 27.048 C 13.762 25.419,13.725 25.197,13.324 24.905 C 13.014 24.679,11.605 23.841,10.733 23.366 C 9.863 22.890,9.375 22.667,9.209 22.667 C 9.041 22.667,8.731 22.836,7.802 23.436 L 7.027 23.936 6.886 23.768 C 6.103 22.841,5.256 21.436,4.801 20.313 C 4.603 19.826,4.616 19.809,5.608 19.303 C 6.082 19.060,6.551 18.791,6.651 18.703 C 6.994 18.402,6.987 18.461,6.985 16.096 C 6.985 14.914,6.962 13.851,6.935 13.733 C 6.864 13.421,6.591 13.208,5.620 12.706 C 5.154 12.465,4.742 12.248,4.704 12.223 C 4.618 12.166,4.816 11.644,5.283 10.693 C 5.769 9.702,6.729 8.243,6.980 8.111 C 7.044 8.078,7.237 8.178,7.707 8.487 C 8.553 9.045,8.947 9.265,9.173 9.305 C 9.326 9.333,9.447 9.296,9.840 9.103 C 10.413 8.821,12.178 7.808,12.955 7.313 C 13.693 6.844,13.724 6.785,13.711 5.877 C 13.705 5.504,13.684 4.980,13.663 4.710 L 13.625 4.221 14.079 4.156 C 15.278 3.984,15.325 3.982,16.667 4.053 M14.944 11.118 C 13.473 11.452,12.207 12.449,11.520 13.813 C 10.993 14.861,10.867 16.011,11.152 17.163 C 11.393 18.136,11.718 18.711,12.447 19.458 C 13.206 20.234,13.815 20.588,14.864 20.861 C 15.525 21.033,16.475 21.033,17.136 20.861 C 18.158 20.595,18.709 20.284,19.458 19.553 C 20.235 18.794,20.589 18.183,20.860 17.136 C 21.037 16.452,21.029 15.477,20.840 14.770 C 20.388 13.072,19.079 11.721,17.402 11.221 C 17.006 11.103,16.806 11.078,16.107 11.062 C 15.518 11.047,15.183 11.064,14.944 11.118 M16.868 13.155 C 17.321 13.288,17.758 13.550,18.106 13.898 C 19.703 15.495,19.012 18.180,16.827 18.871 C 16.398 19.007,15.473 18.989,15.040 18.836 C 14.279 18.569,13.654 17.995,13.285 17.227 L 13.093 16.827 13.093 16.000 L 13.093 15.173 13.285 14.773 C 13.542 14.239,13.895 13.820,14.332 13.531 C 14.667 13.310,15.149 13.104,15.467 13.046 C 15.704 13.003,16.582 13.071,16.868 13.155 " fill="var(--db-icon-color, currentColor)" stroke="none" fill-rule="evenodd"></path></svg>