<svg id="icon" height="24" viewBox="0 0 24 24" width="24" xmlns="http://www.w3.org/2000/svg"><path d="M14.552 2.059 C 14.050 2.141,13.057 2.367,11.820 2.681 C 10.902 2.914,10.203 3.099,7.712 3.769 L 7.405 3.852 7.197 3.665 C 6.943 3.436,6.555 3.215,6.233 3.115 C 6.025 3.050,5.857 3.040,4.975 3.040 C 4.050 3.040,3.935 3.048,3.709 3.123 C 2.968 3.371,2.387 3.952,2.130 4.699 L 2.020 5.020 2.020 9.000 C 2.020 12.751,2.024 12.994,2.094 13.220 C 2.339 14.021,2.887 14.587,3.709 14.888 C 3.910 14.962,4.050 14.975,4.805 14.990 C 5.340 15.001,5.783 14.990,5.965 14.962 C 6.278 14.914,6.644 14.764,6.936 14.562 C 7.034 14.495,7.142 14.440,7.175 14.440 C 7.338 14.440,8.740 15.719,9.454 16.520 C 10.415 17.597,10.789 18.155,11.525 19.610 C 11.834 20.224,12.177 20.858,12.286 21.021 C 12.879 21.907,13.707 22.190,14.748 21.861 C 15.675 21.569,16.391 20.710,16.666 19.560 C 16.775 19.107,16.765 18.233,16.645 17.660 C 16.530 17.108,16.229 16.199,15.947 15.548 L 15.732 15.049 15.911 15.025 C 16.010 15.011,16.813 15.000,17.696 15.000 C 18.578 15.000,19.447 14.982,19.627 14.962 C 20.075 14.910,20.528 14.752,20.852 14.533 C 21.733 13.937,22.044 12.964,21.988 10.980 C 21.958 9.909,21.837 9.232,21.494 8.204 C 20.891 6.398,19.878 4.829,18.503 3.570 C 17.245 2.419,15.782 1.859,14.552 2.059 M15.552 4.085 C 15.836 4.154,16.361 4.409,16.708 4.647 C 17.113 4.925,17.786 5.598,18.161 6.100 C 18.913 7.105,19.531 8.370,19.779 9.411 C 20.089 10.707,20.054 12.733,19.720 12.940 C 19.693 12.957,18.336 12.983,16.705 12.999 C 13.435 13.031,13.651 13.012,13.338 13.287 C 13.066 13.526,12.937 13.948,13.041 14.264 C 13.069 14.350,13.204 14.618,13.341 14.860 C 14.273 16.507,14.726 17.763,14.733 18.720 C 14.737 19.145,14.689 19.335,14.512 19.600 C 14.374 19.807,14.132 20.008,14.042 19.991 C 14.006 19.984,13.736 19.502,13.398 18.840 C 12.816 17.701,12.509 17.173,12.091 16.591 C 11.118 15.239,9.685 13.789,8.207 12.662 L 8.000 12.504 8.004 9.322 C 8.005 7.572,8.019 6.051,8.034 5.942 L 8.060 5.744 8.840 5.530 C 9.953 5.226,12.573 4.551,13.700 4.279 C 14.725 4.030,15.143 3.987,15.552 4.085 M5.810 5.090 C 5.878 5.134,5.928 5.214,5.948 5.310 C 5.966 5.392,5.978 7.103,5.977 9.111 L 5.973 12.762 5.859 12.881 L 5.745 13.000 5.000 13.000 L 4.255 13.000 4.144 12.884 L 4.034 12.769 4.011 9.634 C 3.986 6.196,4.007 5.289,4.115 5.156 C 4.216 5.031,4.402 5.003,5.082 5.012 C 5.596 5.019,5.722 5.032,5.810 5.090 " fill="var(--db-icon-color, currentColor)" stroke="none" fill-rule="evenodd"></path></svg>