<svg id="icon" height="24" viewBox="0 0 24 24" width="24" xmlns="http://www.w3.org/2000/svg"><path d="M16.020 3.042 C 15.081 3.187,14.187 3.725,13.661 4.460 C 13.233 5.059,13.042 5.627,13.004 6.413 L 12.980 6.926 10.426 8.183 L 7.873 9.440 7.570 9.219 C 7.186 8.938,6.787 8.743,6.380 8.636 C 5.925 8.516,5.074 8.516,4.620 8.636 C 3.421 8.953,2.504 9.849,2.135 11.062 C 2.039 11.379,2.027 11.485,2.027 11.980 C 2.027 12.429,2.045 12.603,2.114 12.860 C 2.297 13.531,2.625 14.071,3.152 14.563 C 3.530 14.917,3.803 15.087,4.284 15.268 C 4.871 15.488,5.742 15.532,6.380 15.374 C 6.725 15.288,7.297 15.006,7.612 14.767 L 7.884 14.560 10.432 15.812 L 12.980 17.064 13.005 17.562 C 13.042 18.310,13.193 18.814,13.542 19.362 C 14.005 20.090,14.818 20.679,15.666 20.900 C 16.031 20.995,17.020 20.982,17.401 20.878 C 18.617 20.544,19.546 19.607,19.884 18.376 C 19.958 18.106,19.966 17.989,19.951 17.385 C 19.936 16.734,19.928 16.683,19.809 16.367 C 19.469 15.465,18.866 14.781,18.060 14.380 C 17.504 14.104,17.168 14.028,16.500 14.027 C 16.004 14.027,15.899 14.039,15.580 14.136 C 15.061 14.293,14.582 14.561,14.161 14.928 L 13.800 15.242 11.370 14.045 L 8.940 12.848 8.946 12.714 C 8.949 12.640,8.965 12.409,8.981 12.200 C 9.005 11.882,8.975 11.460,8.909 11.199 C 8.904 11.179,10.003 10.613,11.350 9.943 L 13.800 8.724 14.090 8.994 C 14.459 9.336,14.684 9.490,15.093 9.681 C 15.520 9.880,15.815 9.956,16.283 9.986 C 17.944 10.095,19.427 9.022,19.882 7.381 C 19.983 7.017,19.993 6.022,19.898 5.658 C 19.735 5.030,19.423 4.498,18.937 4.020 C 18.468 3.558,17.906 3.248,17.274 3.102 C 16.941 3.025,16.322 2.995,16.020 3.042 M16.940 5.086 C 17.295 5.176,17.663 5.500,17.860 5.895 C 17.947 6.069,17.960 6.149,17.960 6.500 C 17.960 6.857,17.948 6.929,17.855 7.116 C 17.708 7.409,17.375 7.739,17.092 7.870 C 16.895 7.960,16.805 7.977,16.499 7.977 C 16.180 7.978,16.110 7.964,15.899 7.862 C 15.596 7.713,15.320 7.438,15.163 7.126 C 15.051 6.903,15.040 6.849,15.040 6.491 C 15.041 6.164,15.056 6.067,15.135 5.900 C 15.324 5.498,15.776 5.122,16.164 5.042 C 16.355 5.002,16.685 5.021,16.940 5.086 M6.149 10.663 C 6.411 10.791,6.676 11.046,6.836 11.325 C 6.954 11.531,6.959 11.559,6.959 12.000 C 6.959 12.441,6.954 12.469,6.836 12.675 C 6.673 12.960,6.410 13.210,6.129 13.348 C 5.924 13.448,5.857 13.460,5.500 13.460 C 5.138 13.460,5.077 13.449,4.860 13.342 C 4.569 13.200,4.298 12.930,4.150 12.637 C 4.051 12.440,4.040 12.378,4.040 11.995 C 4.040 11.617,4.051 11.551,4.143 11.377 C 4.366 10.959,4.685 10.683,5.075 10.573 C 5.359 10.492,5.889 10.537,6.149 10.663 M17.129 16.144 C 17.381 16.272,17.719 16.609,17.835 16.849 C 17.907 16.998,17.920 17.096,17.919 17.483 C 17.918 18.022,17.868 18.168,17.574 18.483 C 17.216 18.865,16.752 19.042,16.312 18.965 C 15.780 18.871,15.372 18.577,15.150 18.126 C 15.030 17.882,15.020 17.832,15.023 17.481 C 15.025 17.184,15.043 17.060,15.108 16.920 C 15.299 16.506,15.593 16.232,16.013 16.075 C 16.310 15.964,16.837 15.997,17.129 16.144 " fill="var(--db-icon-color, currentColor)" stroke="none" fill-rule="evenodd"></path></svg>