<svg id="icon" height="32" viewBox="0 0 32 32" width="32" xmlns="http://www.w3.org/2000/svg"><path d="M15.669 2.079 C 15.268 2.200,15.284 2.173,13.244 6.265 L 11.298 10.169 10.196 10.339 C 9.589 10.433,7.635 10.723,5.852 10.983 C 2.782 11.430,2.602 11.463,2.425 11.597 C 2.051 11.883,1.907 12.476,2.127 12.827 C 2.262 13.041,3.165 13.963,4.747 15.500 C 5.465 16.198,6.588 17.296,7.241 17.940 L 8.428 19.111 7.787 22.797 C 7.069 26.922,6.959 27.650,7.010 27.923 C 7.089 28.342,7.670 28.747,8.082 28.670 C 8.304 28.628,9.312 28.116,13.213 26.065 L 15.999 24.600 19.186 26.275 C 23.630 28.610,23.746 28.667,24.080 28.667 C 24.402 28.667,24.739 28.476,24.909 28.198 C 25.098 27.887,25.098 27.886,24.185 22.638 L 23.570 19.102 24.812 17.881 C 25.495 17.210,26.828 15.906,27.775 14.984 C 29.403 13.398,29.752 13.036,29.905 12.777 C 30.047 12.534,29.948 11.971,29.718 11.716 C 29.490 11.465,29.575 11.481,25.120 10.831 C 23.521 10.597,21.871 10.352,21.452 10.286 L 20.691 10.167 18.804 6.377 C 17.765 4.292,16.865 2.507,16.803 2.410 C 16.607 2.102,16.092 1.952,15.669 2.079 " fill="var(--db-icon-color, currentColor)" stroke="none" fill-rule="evenodd"></path></svg>