<svg id="icon" height="20" viewBox="0 0 20 20" width="20" xmlns="http://www.w3.org/2000/svg"><path d="M9.371 3.033 C 8.002 3.155,6.577 3.750,5.513 4.643 C 3.933 5.968,3.001 7.958,3.001 10.000 C 3.001 11.077,3.261 12.154,3.759 13.141 C 4.179 13.971,4.617 14.534,5.405 15.256 C 6.580 16.332,8.333 17.000,9.983 17.000 C 11.303 17.000,12.783 16.560,13.833 15.857 C 14.356 15.506,15.074 14.837,15.515 14.288 C 16.240 13.387,16.728 12.255,16.923 11.019 C 17.002 10.515,17.002 9.418,16.922 8.950 C 16.568 6.884,15.439 5.167,13.733 4.099 C 13.395 3.887,12.709 3.543,12.380 3.420 C 12.042 3.294,11.434 3.145,11.012 3.087 C 10.551 3.022,9.773 2.997,9.371 3.033 M11.202 5.158 C 12.164 5.409,12.958 5.876,13.634 6.588 C 14.894 7.916,15.314 9.871,14.715 11.621 C 14.614 11.916,14.281 12.613,14.216 12.668 C 14.183 12.695,14.067 12.605,13.728 12.289 C 13.140 11.740,7.467 6.047,7.372 5.910 L 7.297 5.803 7.440 5.712 C 7.827 5.468,8.459 5.227,9.050 5.099 C 9.309 5.043,9.451 5.036,10.083 5.046 C 10.771 5.057,10.841 5.064,11.202 5.158 M8.985 10.408 C 12.217 13.647,12.700 14.140,12.700 14.199 C 12.700 14.239,11.898 14.634,11.650 14.717 C 11.017 14.927,10.920 14.942,10.126 14.958 C 9.288 14.975,9.101 14.952,8.501 14.760 C 6.727 14.194,5.405 12.682,5.081 10.850 C 5.004 10.414,5.003 9.603,5.080 9.175 C 5.152 8.777,5.266 8.386,5.413 8.037 C 5.534 7.752,5.797 7.267,5.831 7.267 C 5.842 7.267,7.261 8.680,8.985 10.408 " fill="var(--db-icon-color, currentColor)" stroke="none" fill-rule="evenodd"></path></svg>