<svg id="icon" height="32" viewBox="0 0 32 32" width="32" xmlns="http://www.w3.org/2000/svg"><path d="M8.960 2.081 C 7.474 2.226,5.720 3.066,4.523 4.205 C 3.191 5.473,2.362 7.047,2.104 8.801 C 1.997 9.524,2.024 10.924,2.157 11.569 C 2.481 13.143,3.193 14.447,4.372 15.628 C 5.562 16.819,6.868 17.527,8.480 17.853 C 9.118 17.983,10.882 17.983,11.520 17.853 C 13.131 17.527,14.437 16.819,15.628 15.628 C 16.803 14.454,17.520 13.139,17.844 11.568 C 17.974 10.933,18.003 9.524,17.899 8.820 C 17.521 6.255,15.901 4.033,13.549 2.855 C 12.552 2.356,11.759 2.146,10.620 2.079 C 9.691 2.024,9.534 2.025,8.960 2.081 M11.173 4.142 C 12.347 4.368,13.336 4.900,14.218 5.782 C 15.389 6.953,15.967 8.348,15.967 10.000 C 15.967 11.576,15.409 12.981,14.332 14.115 C 13.242 15.262,11.842 15.905,10.267 15.980 C 7.639 16.106,5.147 14.408,4.349 11.946 C 4.113 11.216,3.976 10.299,4.020 9.727 C 4.145 8.084,4.680 6.886,5.782 5.780 C 7.222 4.335,9.140 3.752,11.173 4.142 M9.680 6.082 C 9.020 6.154,8.407 6.455,8.019 6.899 C 7.776 7.178,7.512 7.738,7.357 8.307 L 7.237 8.747 6.898 8.747 L 6.560 8.747 6.560 9.200 L 6.560 9.653 6.880 9.653 L 7.200 9.653 7.200 10.000 L 7.200 10.347 6.880 10.347 L 6.560 10.347 6.560 10.800 L 6.560 11.253 6.898 11.253 L 7.236 11.253 7.351 11.720 C 7.634 12.874,8.136 13.473,9.117 13.826 C 9.535 13.977,10.796 14.018,11.360 13.899 C 11.841 13.797,12.409 13.522,12.555 13.320 C 12.754 13.044,12.630 12.607,12.304 12.432 C 12.192 12.372,12.071 12.379,11.486 12.480 C 10.087 12.721,9.531 12.511,9.249 11.635 C 9.172 11.393,9.169 11.342,9.232 11.302 C 9.273 11.276,9.721 11.255,10.227 11.254 L 11.147 11.253 11.147 10.800 L 11.147 10.347 10.133 10.347 L 9.120 10.347 9.120 10.000 L 9.120 9.653 10.133 9.653 L 11.147 9.653 11.147 9.200 L 11.147 8.747 10.154 8.747 L 9.161 8.747 9.198 8.550 C 9.285 8.088,9.677 7.575,10.014 7.481 C 10.168 7.438,10.746 7.434,11.692 7.471 C 12.253 7.493,12.266 7.491,12.406 7.351 C 12.510 7.247,12.555 7.139,12.573 6.947 C 12.596 6.710,12.582 6.665,12.430 6.492 C 12.210 6.241,11.897 6.141,11.139 6.079 C 10.461 6.022,10.221 6.023,9.680 6.082 M17.120 18.079 C 16.586 18.121,16.484 18.150,15.977 18.408 C 15.085 18.861,14.380 19.712,14.105 20.669 C 14.055 20.844,14.004 21.003,13.993 21.023 C 13.981 21.042,13.822 20.998,13.639 20.923 C 12.501 20.459,10.905 19.872,10.546 19.787 C 9.966 19.648,8.988 19.598,8.453 19.679 C 7.123 19.882,5.691 20.681,5.310 21.434 C 5.120 21.809,5.013 22.224,5.013 22.591 C 5.013 23.459,5.587 24.351,6.368 24.697 C 6.935 24.947,12.346 26.909,13.947 27.445 C 15.560 27.984,15.226 27.949,19.227 28.001 L 22.747 28.047 24.853 28.478 C 26.942 28.906,27.595 29.006,27.856 28.941 C 28.193 28.856,28.531 28.385,28.531 28.000 C 28.531 27.736,28.363 27.398,28.152 27.239 C 27.946 27.084,27.592 26.999,24.853 26.448 L 23.013 26.078 19.733 26.026 C 16.463 25.975,15.833 25.940,15.227 25.775 C 14.701 25.633,9.930 23.916,7.607 23.033 C 7.101 22.841,6.997 22.737,7.061 22.484 C 7.140 22.169,8.031 21.758,8.859 21.656 C 9.673 21.555,9.899 21.613,12.186 22.517 C 15.200 23.708,15.710 23.892,16.160 23.953 C 16.391 23.984,17.464 23.999,18.702 23.990 L 20.844 23.973 21.071 23.813 C 21.668 23.391,21.671 22.545,21.077 22.176 C 20.882 22.054,20.860 22.053,18.693 22.027 C 16.288 21.997,16.283 21.997,16.091 21.667 C 15.883 21.309,16.172 20.665,16.708 20.297 L 17.016 20.085 17.855 20.038 C 19.186 19.963,21.624 20.027,22.240 20.153 C 23.497 20.409,24.238 20.797,26.079 22.159 C 26.564 22.518,27.037 22.850,27.131 22.899 C 27.509 23.093,28.117 22.930,28.357 22.569 C 28.492 22.366,28.560 22.004,28.508 21.766 C 28.455 21.523,28.053 21.110,27.363 20.589 C 25.414 19.120,24.179 18.488,22.670 18.191 C 22.235 18.105,21.829 18.086,19.893 18.064 C 18.647 18.050,17.399 18.057,17.120 18.079 " fill="var(--db-icon-color, currentColor)" stroke="none" fill-rule="evenodd"></path></svg>