<svg id="icon" height="24" viewBox="0 0 24 24" width="24" xmlns="http://www.w3.org/2000/svg"><path d="M9.540 5.038 C 9.041 5.068,8.835 5.121,8.438 5.321 C 8.090 5.496,7.862 5.699,7.168 6.449 L 6.522 7.147 5.291 7.173 C 3.932 7.201,3.838 7.216,3.340 7.472 C 3.147 7.571,2.961 7.715,2.740 7.938 C 2.395 8.285,2.251 8.516,2.098 8.966 L 2.000 9.254 2.001 13.317 C 2.002 15.552,2.019 17.553,2.039 17.764 C 2.083 18.210,2.178 18.492,2.403 18.840 C 2.710 19.314,3.161 19.666,3.727 19.873 L 4.020 19.980 11.980 19.980 C 18.487 19.980,19.973 19.970,20.120 19.927 C 20.522 19.808,20.884 19.597,21.194 19.300 C 21.539 18.970,21.717 18.700,21.872 18.273 L 21.978 17.980 21.992 14.040 C 21.999 11.873,21.988 9.836,21.968 9.513 C 21.934 8.963,21.923 8.907,21.792 8.633 C 21.523 8.066,21.031 7.603,20.430 7.350 C 20.162 7.238,20.092 7.227,19.441 7.197 C 19.055 7.179,18.471 7.164,18.141 7.162 L 17.542 7.160 16.661 6.284 C 15.902 5.529,15.741 5.389,15.497 5.267 C 15.342 5.190,15.117 5.105,14.997 5.079 C 14.745 5.024,10.321 4.991,9.540 5.038 M14.296 7.034 L 14.652 7.061 15.616 8.050 C 16.151 8.599,16.633 9.060,16.700 9.087 C 16.780 9.119,17.286 9.143,18.220 9.160 C 19.076 9.176,19.660 9.203,19.723 9.229 C 19.780 9.253,19.861 9.324,19.903 9.386 C 19.978 9.497,19.980 9.619,19.980 13.560 C 19.980 16.906,19.970 17.643,19.925 17.750 C 19.884 17.849,19.831 17.891,19.705 17.930 C 19.575 17.969,17.927 17.980,11.938 17.980 C 4.682 17.980,4.331 17.977,4.226 17.908 C 4.166 17.868,4.095 17.787,4.068 17.728 C 4.032 17.646,4.020 16.641,4.020 13.560 C 4.020 9.619,4.022 9.497,4.097 9.386 C 4.139 9.324,4.220 9.253,4.277 9.230 C 4.339 9.204,4.939 9.177,5.800 9.162 C 6.957 9.141,7.246 9.125,7.361 9.074 C 7.445 9.037,7.734 8.764,8.081 8.396 C 9.326 7.071,9.330 7.068,9.546 7.038 C 9.801 7.002,13.838 6.999,14.296 7.034 M11.419 9.559 C 10.295 9.719,9.197 10.603,8.757 11.701 C 8.558 12.198,8.510 12.503,8.531 13.140 C 8.546 13.627,8.565 13.749,8.670 14.071 C 8.870 14.680,9.251 15.233,9.780 15.682 C 10.475 16.272,11.217 16.515,12.190 16.469 C 12.673 16.446,12.966 16.385,13.361 16.226 C 14.084 15.934,14.934 15.083,15.227 14.359 C 15.426 13.865,15.460 13.659,15.457 12.960 C 15.455 12.351,15.446 12.274,15.344 11.960 C 15.161 11.400,14.942 11.048,14.489 10.586 C 14.017 10.104,13.464 9.771,12.891 9.623 C 12.597 9.547,11.760 9.510,11.419 9.559 M12.627 11.658 C 12.883 11.775,13.232 12.116,13.355 12.369 C 13.426 12.517,13.440 12.618,13.440 12.997 C 13.440 13.427,13.434 13.460,13.314 13.684 C 12.739 14.764,11.210 14.742,10.670 13.646 C 10.549 13.400,10.540 13.354,10.542 12.981 C 10.544 12.623,10.556 12.557,10.654 12.366 C 10.862 11.966,11.263 11.635,11.640 11.554 C 11.900 11.498,12.391 11.550,12.627 11.658 " fill="var(--db-icon-color, currentColor)" stroke="none" fill-rule="evenodd"></path></svg>