<svg id="icon" height="24" viewBox="0 0 24 24" width="24" xmlns="http://www.w3.org/2000/svg"><path d="M11.040 5.063 C 9.988 5.187,9.263 5.405,8.260 5.900 C 6.469 6.782,4.672 8.378,2.547 10.971 C 2.052 11.574,2.026 11.626,2.026 12.004 C 2.025 12.256,2.042 12.337,2.123 12.472 C 2.250 12.685,2.779 13.318,3.486 14.103 C 5.836 16.709,7.466 17.962,9.305 18.572 C 10.308 18.904,11.205 19.028,12.320 18.987 C 13.588 18.940,14.601 18.680,15.780 18.099 C 17.395 17.304,19.023 15.896,20.953 13.626 C 21.961 12.442,22.060 12.261,21.961 11.783 C 21.909 11.533,21.775 11.344,21.033 10.469 C 19.063 8.143,17.393 6.705,15.700 5.878 C 14.552 5.316,13.733 5.108,12.419 5.041 C 11.501 4.995,11.631 4.993,11.040 5.063 M12.420 7.042 C 14.423 7.215,16.132 8.173,18.140 10.247 C 18.714 10.840,19.700 11.949,19.700 12.001 C 19.700 12.062,18.567 13.310,17.940 13.938 C 16.235 15.648,14.792 16.542,13.186 16.887 C 12.592 17.015,11.561 17.014,10.924 16.887 C 9.685 16.638,8.612 16.126,7.481 15.244 C 6.873 14.770,5.446 13.352,4.626 12.408 L 4.272 12.000 4.826 11.372 C 6.791 9.144,8.428 7.870,10.004 7.343 C 10.632 7.133,11.035 7.060,11.860 7.006 C 11.904 7.003,12.156 7.019,12.420 7.042 M11.420 9.066 C 9.385 9.499,8.387 11.739,9.429 13.533 C 9.614 13.850,10.150 14.386,10.467 14.571 C 11.364 15.092,12.414 15.130,13.336 14.675 C 14.073 14.310,14.649 13.606,14.887 12.778 C 15.018 12.325,15.017 11.625,14.885 11.202 C 14.582 10.226,13.885 9.496,12.960 9.185 C 12.394 8.996,11.923 8.959,11.420 9.066 M12.433 11.117 C 12.609 11.208,12.806 11.409,12.899 11.596 C 12.952 11.699,12.965 11.808,12.954 12.062 C 12.942 12.354,12.926 12.414,12.819 12.565 C 12.752 12.660,12.621 12.792,12.526 12.858 C 12.381 12.960,12.310 12.981,12.059 12.994 C 11.699 13.012,11.475 12.921,11.259 12.668 C 10.778 12.106,11.034 11.272,11.760 11.035 C 11.908 10.987,12.265 11.030,12.433 11.117 " fill="var(--db-icon-color, currentColor)" stroke="none" fill-rule="evenodd"></path></svg>