<svg id="icon" height="32" viewBox="0 0 32 32" width="32" xmlns="http://www.w3.org/2000/svg"><path d="M27.147 3.558 C 26.922 3.641,6.717 11.500,5.267 12.068 C 4.336 12.433,3.475 12.800,3.353 12.885 C 2.877 13.215,2.506 13.923,2.507 14.498 C 2.509 15.063,2.736 15.582,3.154 15.976 C 3.487 16.290,3.753 16.401,7.840 17.938 C 10.629 18.987,11.939 19.490,12.213 19.619 C 12.399 19.707,12.406 19.722,13.558 22.800 C 15.773 28.717,15.713 28.570,16.052 28.911 C 16.769 29.634,17.929 29.676,18.776 29.010 C 19.048 28.796,19.152 28.576,20.054 26.320 C 21.646 22.338,26.988 8.642,27.803 6.453 C 28.583 4.359,28.602 4.241,28.224 3.846 C 27.966 3.575,27.463 3.441,27.147 3.558 M22.676 7.827 C 22.411 8.113,20.097 10.442,17.534 13.003 L 12.874 17.659 8.797 16.132 C 6.555 15.292,4.701 14.586,4.677 14.564 C 4.616 14.504,4.655 14.488,11.760 11.717 C 21.596 7.881,23.063 7.311,23.113 7.309 C 23.138 7.308,22.941 7.541,22.676 7.827 M23.555 11.792 C 21.271 17.713,17.528 27.334,17.494 27.374 C 17.475 27.397,16.757 25.538,15.899 23.244 L 14.339 19.073 19.488 13.926 C 22.320 11.095,24.650 8.793,24.666 8.809 C 24.682 8.825,24.182 10.167,23.555 11.792 " fill="var(--db-icon-color, currentColor)" stroke="none" fill-rule="evenodd"></path></svg>