<svg id="icon" height="24" viewBox="0 0 24 24" width="24" xmlns="http://www.w3.org/2000/svg"><path d="M11.120 2.045 C 10.552 2.104,9.820 2.238,9.305 2.379 C 7.952 2.750,6.575 3.486,5.491 4.418 C 2.593 6.908,1.372 10.799,2.326 14.500 C 2.773 16.237,3.649 17.759,4.945 19.055 C 6.267 20.377,7.791 21.244,9.584 21.694 C 10.499 21.923,10.895 21.968,12.000 21.970 C 13.084 21.973,13.332 21.944,14.360 21.694 C 15.452 21.428,16.521 20.962,17.447 20.348 C 18.115 19.905,18.484 19.600,19.080 19.001 C 20.454 17.618,21.355 15.962,21.775 14.040 C 21.941 13.280,21.972 12.950,21.971 11.940 C 21.969 10.699,21.881 10.116,21.523 8.980 C 20.722 6.437,18.906 4.309,16.500 3.092 C 15.162 2.416,13.993 2.113,12.444 2.040 C 11.529 1.998,11.590 1.997,11.120 2.045 M17.368 11.071 C 17.531 11.140,17.795 11.395,17.892 11.577 C 17.954 11.696,17.977 11.810,17.977 12.000 C 17.975 12.371,17.825 12.639,17.501 12.849 L 17.263 13.003 11.981 12.992 C 7.139 12.981,6.690 12.974,6.580 12.913 C 6.426 12.827,6.187 12.576,6.104 12.412 C 6.015 12.234,6.020 11.787,6.115 11.580 C 6.189 11.418,6.516 11.084,6.609 11.075 C 7.413 10.996,17.179 10.992,17.368 11.071 " fill="var(--db-icon-color, currentColor)" stroke="none" fill-rule="evenodd"></path></svg>