<svg id="icon" height="24" viewBox="0 0 24 24" width="24" xmlns="http://www.w3.org/2000/svg"><path d="M5.040 5.036 C 3.911 5.059,3.802 5.067,3.584 5.149 C 2.993 5.372,2.531 5.798,2.259 6.371 C 2.009 6.898,1.993 7.061,2.007 8.807 C 2.022 10.484,2.009 10.411,2.330 10.707 C 2.526 10.887,2.633 10.931,3.099 11.019 C 3.479 11.091,3.729 11.233,3.898 11.473 C 3.996 11.613,4.020 11.692,4.033 11.918 C 4.052 12.250,4.002 12.417,3.820 12.629 C 3.648 12.831,3.425 12.936,3.040 12.999 C 2.655 13.062,2.450 13.152,2.269 13.339 C 2.021 13.594,2.020 13.606,2.020 15.440 L 2.021 17.100 2.132 17.379 C 2.419 18.099,2.900 18.580,3.620 18.868 L 3.900 18.980 11.940 18.980 C 18.420 18.980,20.018 18.970,20.176 18.928 C 20.847 18.750,21.459 18.246,21.760 17.626 C 21.913 17.309,21.932 17.236,21.967 16.822 C 21.988 16.571,21.999 15.775,21.992 15.053 C 21.979 13.603,21.982 13.620,21.706 13.326 C 21.526 13.135,21.322 13.043,20.980 13.000 C 20.319 12.916,19.960 12.562,19.960 11.994 C 19.960 11.671,20.072 11.437,20.315 11.251 C 20.500 11.110,20.814 11.000,21.037 11.000 C 21.225 10.999,21.548 10.846,21.717 10.677 C 21.976 10.418,21.977 10.409,21.992 8.824 C 22.009 7.094,21.989 6.894,21.743 6.376 C 21.452 5.761,20.999 5.362,20.331 5.133 L 20.020 5.027 13.140 5.019 C 9.356 5.015,5.711 5.023,5.040 5.036 M19.825 7.069 C 19.872 7.096,19.925 7.150,19.943 7.189 C 19.961 7.228,19.982 7.683,19.990 8.200 L 20.004 9.140 19.651 9.327 C 18.941 9.701,18.555 10.077,18.246 10.693 C 18.010 11.166,17.947 11.447,17.948 12.040 C 17.948 12.481,17.962 12.579,18.061 12.873 C 18.354 13.746,19.082 14.516,19.874 14.792 L 20.008 14.839 19.994 15.791 C 19.976 16.986,19.998 16.937,19.477 16.974 C 18.995 17.008,5.005 17.008,4.523 16.974 C 3.999 16.937,4.020 16.987,4.020 15.787 L 4.020 14.831 4.215 14.754 C 4.716 14.557,5.302 14.053,5.617 13.547 C 5.863 13.152,5.992 12.787,6.041 12.347 C 6.189 11.021,5.540 9.907,4.250 9.272 L 4.000 9.149 4.002 8.325 C 4.004 7.492,4.032 7.192,4.117 7.107 C 4.193 7.031,5.881 7.014,13.060 7.017 C 18.223 7.020,19.759 7.032,19.825 7.069 M8.695 8.966 C 8.626 8.990,8.483 9.074,8.378 9.154 C 7.875 9.535,7.840 10.242,8.302 10.704 C 8.819 11.221,9.737 11.008,9.982 10.316 C 10.105 9.965,10.024 9.532,9.788 9.287 C 9.517 9.004,9.015 8.857,8.695 8.966 M13.708 9.046 C 13.607 9.075,13.420 9.213,13.148 9.459 C 12.536 10.015,9.402 13.185,9.201 13.453 C 9.056 13.645,9.023 13.723,9.008 13.904 C 8.980 14.240,9.062 14.467,9.298 14.702 C 9.533 14.938,9.760 15.020,10.096 14.992 C 10.275 14.977,10.356 14.943,10.547 14.801 C 10.858 14.571,14.814 10.607,14.901 10.439 C 14.990 10.266,15.022 9.889,14.963 9.709 C 14.793 9.195,14.233 8.899,13.708 9.046 M14.560 13.147 C 13.673 13.604,13.937 14.909,14.933 14.991 C 15.362 15.027,15.704 14.824,15.903 14.417 C 15.994 14.231,16.008 14.162,15.990 13.966 C 15.941 13.431,15.607 13.099,15.077 13.057 C 14.805 13.035,14.762 13.043,14.560 13.147 " fill="var(--db-icon-color, currentColor)" stroke="none" fill-rule="evenodd"></path></svg>