<svg id="icon" height="24" viewBox="0 0 24 24" width="24" xmlns="http://www.w3.org/2000/svg"><path d="M11.320 2.027 C 10.705 2.071,9.659 2.265,9.085 2.441 C 6.453 3.251,4.230 5.141,3.041 7.580 C 2.232 9.240,1.927 10.793,2.038 12.694 C 2.130 14.281,2.647 15.877,3.530 17.300 C 4.979 19.637,7.361 21.267,10.140 21.824 C 10.824 21.961,11.834 22.018,12.669 21.967 C 15.444 21.795,18.022 20.443,19.812 18.220 C 21.083 16.642,21.844 14.687,21.963 12.692 C 22.056 11.118,21.844 9.727,21.299 8.335 C 20.321 5.840,18.239 3.738,15.760 2.739 C 14.679 2.304,13.687 2.097,12.402 2.040 C 11.928 2.018,11.531 2.004,11.520 2.008 C 11.509 2.011,11.419 2.020,11.320 2.027 M12.195 6.042 C 12.521 6.095,12.703 6.189,12.908 6.412 C 13.168 6.693,13.200 6.784,13.200 7.228 C 13.199 7.588,13.190 7.637,13.082 7.825 C 12.846 8.237,12.488 8.440,12.000 8.440 C 11.512 8.440,11.154 8.237,10.918 7.825 C 10.810 7.636,10.801 7.589,10.800 7.219 C 10.800 6.831,10.805 6.810,10.937 6.599 C 11.121 6.305,11.374 6.122,11.709 6.044 C 11.914 5.995,11.907 5.995,12.195 6.042 M12.519 10.152 C 12.617 10.213,12.752 10.339,12.819 10.434 C 12.940 10.606,12.940 10.609,12.966 11.313 C 12.980 11.702,12.994 12.688,12.996 13.504 L 13.000 14.988 13.662 15.010 L 14.325 15.032 14.533 15.170 C 14.818 15.359,14.970 15.638,14.971 15.975 C 14.973 16.379,14.792 16.682,14.413 16.905 L 14.247 17.004 11.993 16.992 L 9.740 16.980 9.554 16.871 C 9.201 16.663,9.028 16.371,9.027 15.980 C 9.026 15.703,9.118 15.492,9.326 15.292 C 9.558 15.070,9.714 15.028,10.390 15.008 L 11.000 14.990 11.000 13.495 L 11.000 12.000 10.450 11.998 C 9.697 11.996,9.449 11.894,9.211 11.489 C 9.116 11.327,9.100 11.256,9.100 10.997 C 9.100 10.729,9.114 10.671,9.221 10.498 C 9.287 10.391,9.418 10.249,9.512 10.183 C 9.737 10.025,10.010 10.001,11.320 10.025 L 12.340 10.043 12.519 10.152 " fill="var(--db-icon-color, currentColor)" stroke="none" fill-rule="evenodd"></path></svg>