<svg id="icon" height="32" viewBox="0 0 32 32" width="32" xmlns="http://www.w3.org/2000/svg"><path d="M13.120 2.074 C 12.650 2.101,12.532 2.127,12.386 2.231 C 12.054 2.467,11.924 2.932,12.077 3.332 C 12.176 3.592,12.455 3.869,12.681 3.933 C 12.761 3.955,16.536 3.973,21.071 3.973 L 29.314 3.973 29.531 3.830 C 29.926 3.568,30.090 2.975,29.880 2.564 C 29.829 2.463,29.694 2.307,29.582 2.217 L 29.377 2.053 21.528 2.048 C 17.212 2.045,13.428 2.057,13.120 2.074 M8.764 7.048 C 8.650 7.079,8.232 7.439,7.510 8.126 C 6.161 9.410,2.396 13.213,2.184 13.506 C 2.061 13.675,2.027 13.779,2.027 13.983 C 2.027 14.844,2.945 15.282,3.613 14.741 C 3.753 14.628,4.796 13.614,5.932 12.487 L 7.997 10.438 8.012 19.876 L 8.027 29.314 8.173 29.536 C 8.506 30.039,9.158 30.133,9.627 29.746 C 10.021 29.421,9.988 30.235,10.031 19.867 C 10.052 14.733,10.071 10.524,10.074 10.512 C 10.077 10.500,11.075 11.478,12.291 12.686 C 13.508 13.893,14.565 14.905,14.641 14.934 C 14.970 15.059,15.467 14.932,15.717 14.660 C 15.874 14.490,16.000 14.178,16.000 13.962 C 16.000 13.712,15.880 13.544,15.133 12.741 C 14.013 11.536,9.666 7.262,9.453 7.155 C 9.191 7.024,8.972 6.990,8.764 7.048 M17.875 7.037 C 16.954 7.185,16.713 8.290,17.485 8.826 L 17.716 8.987 23.485 8.987 C 29.915 8.987,29.398 9.017,29.749 8.617 C 29.934 8.407,30.001 8.154,29.957 7.828 C 29.922 7.567,29.796 7.385,29.515 7.187 L 29.307 7.041 23.733 7.016 C 20.668 7.002,18.032 7.012,17.875 7.037 M22.880 12.046 C 22.326 12.110,21.991 12.529,22.038 13.099 C 22.066 13.435,22.174 13.607,22.503 13.840 L 22.729 14.000 26.000 14.000 L 29.271 14.000 29.497 13.840 C 29.826 13.607,29.934 13.435,29.962 13.099 C 29.994 12.714,29.834 12.371,29.531 12.170 L 29.315 12.027 26.244 12.019 C 24.555 12.015,23.041 12.027,22.880 12.046 M26.769 17.061 C 26.294 17.159,26.000 17.572,26.038 18.088 C 26.055 18.332,26.094 18.440,26.218 18.594 C 26.525 18.973,26.588 18.987,28.035 18.987 L 29.325 18.987 29.550 18.813 C 29.835 18.594,29.974 18.336,29.972 18.027 C 29.970 17.679,29.811 17.368,29.542 17.190 L 29.315 17.040 28.137 17.031 C 27.490 17.025,26.874 17.039,26.769 17.061 " fill="var(--db-icon-color, currentColor)" stroke="none" fill-rule="evenodd"></path></svg>