<svg id="icon" height="24" viewBox="0 0 24 24" width="24" xmlns="http://www.w3.org/2000/svg"><path d="M11.774 2.039 C 11.571 2.086,11.390 2.210,11.240 2.407 C 11.163 2.507,10.524 3.739,9.820 5.145 L 8.540 7.700 8.260 7.751 C 8.106 7.778,7.197 7.918,6.240 8.062 C 2.785 8.579,2.674 8.598,2.494 8.702 C 2.161 8.896,1.972 9.254,2.014 9.610 C 2.060 10.005,2.118 10.072,3.853 11.766 C 5.975 13.838,6.400 14.273,6.400 14.375 C 6.400 14.420,6.239 15.375,6.041 16.498 C 5.572 19.168,5.440 19.980,5.441 20.177 C 5.443 20.508,5.703 20.867,6.067 21.044 C 6.205 21.110,6.295 21.125,6.465 21.111 C 6.722 21.090,7.219 20.848,10.150 19.319 L 12.001 18.354 14.234 19.516 C 16.796 20.850,17.265 21.080,17.476 21.109 C 17.858 21.160,18.365 20.859,18.502 20.500 C 18.600 20.243,18.580 20.082,18.060 17.000 L 17.605 14.300 19.741 12.180 C 21.814 10.123,21.878 10.054,21.938 9.843 C 22.054 9.436,22.006 9.186,21.759 8.905 C 21.498 8.608,21.696 8.651,18.160 8.122 C 16.983 7.945,15.894 7.778,15.740 7.751 L 15.460 7.700 14.180 5.144 C 13.476 3.739,12.837 2.506,12.760 2.404 C 12.542 2.117,12.118 1.960,11.774 2.039 " fill="var(--db-icon-color, currentColor)" stroke="none" fill-rule="evenodd"></path></svg>