<svg id="icon" height="32" viewBox="0 0 32 32" width="32" xmlns="http://www.w3.org/2000/svg"><path d="M15.120 7.047 C 11.933 7.190,9.093 8.317,6.548 10.450 C 5.221 11.562,3.498 13.506,2.411 15.118 C 2.060 15.639,2.053 15.655,2.053 15.998 C 2.053 16.408,2.113 16.514,3.028 17.733 C 6.237 22.008,9.548 24.199,13.787 24.852 C 14.790 25.007,17.210 25.007,18.213 24.852 C 22.220 24.235,25.302 22.309,28.367 18.507 C 29.072 17.632,29.692 16.777,29.868 16.438 C 30.066 16.055,30.007 15.743,29.626 15.170 C 28.830 13.974,27.595 12.505,26.420 11.359 C 25.262 10.230,24.319 9.504,23.121 8.821 C 20.822 7.509,18.129 6.912,15.120 7.047 M18.640 9.245 C 20.093 9.556,21.083 9.928,22.205 10.583 C 23.400 11.280,24.002 11.749,25.082 12.824 C 25.486 13.226,25.999 13.763,26.222 14.017 C 26.671 14.531,27.733 15.922,27.733 15.998 C 27.733 16.070,26.986 17.065,26.409 17.760 C 25.790 18.506,24.458 19.845,23.841 20.341 C 22.512 21.409,21.033 22.156,19.391 22.588 C 18.378 22.855,17.777 22.931,16.400 22.968 C 14.638 23.015,13.470 22.851,11.947 22.345 C 10.804 21.965,9.240 21.084,8.107 20.181 C 7.137 19.408,5.119 17.264,4.456 16.300 C 4.223 15.962,4.215 15.992,4.714 15.333 C 5.632 14.123,7.128 12.554,8.107 11.774 C 9.927 10.324,11.737 9.528,14.133 9.123 C 14.295 9.095,15.231 9.081,16.213 9.091 C 17.893 9.107,18.038 9.117,18.640 9.245 M15.473 11.049 C 14.117 11.165,12.659 12.043,11.857 13.227 C 10.531 15.184,10.794 17.829,12.483 19.517 C 14.439 21.474,17.561 21.474,19.517 19.517 C 21.670 17.365,21.419 13.821,18.987 12.030 C 17.960 11.274,16.761 10.940,15.473 11.049 M16.868 13.155 C 17.321 13.288,17.758 13.550,18.106 13.898 C 19.703 15.495,19.012 18.180,16.827 18.871 C 16.398 19.007,15.473 18.989,15.040 18.836 C 14.279 18.569,13.654 17.995,13.285 17.227 L 13.093 16.827 13.093 16.000 L 13.093 15.173 13.285 14.773 C 13.542 14.239,13.895 13.820,14.332 13.531 C 14.667 13.310,15.149 13.104,15.467 13.046 C 15.704 13.003,16.582 13.071,16.868 13.155 " fill="var(--db-icon-color, currentColor)" stroke="none" fill-rule="evenodd"></path></svg>