<svg id="icon" height="32" viewBox="0 0 32 32" width="32" xmlns="http://www.w3.org/2000/svg"><path d="M14.907 2.539 C 11.809 2.789,9.061 3.718,6.640 5.336 C 5.836 5.873,5.573 6.099,5.447 6.359 C 5.298 6.667,5.304 6.853,5.472 7.190 C 5.705 7.659,6.215 7.858,6.682 7.661 C 6.776 7.621,7.189 7.372,7.600 7.108 C 9.795 5.694,11.535 5.010,13.764 4.686 C 14.435 4.589,14.832 4.566,15.920 4.563 C 17.375 4.560,17.922 4.609,19.158 4.856 C 20.971 5.217,22.599 5.910,24.360 7.071 C 25.496 7.819,25.591 7.857,25.979 7.725 C 26.328 7.605,26.567 7.346,26.669 6.973 C 26.798 6.504,26.504 6.082,25.656 5.521 C 24.556 4.794,22.807 3.889,21.737 3.493 C 20.744 3.126,19.134 2.767,17.787 2.613 C 17.268 2.554,15.342 2.504,14.907 2.539 M14.507 6.592 C 14.433 6.605,14.145 6.652,13.867 6.697 C 11.765 7.033,9.630 7.989,7.891 9.371 C 5.434 11.324,3.704 14.266,3.179 17.387 C 2.963 18.672,2.937 20.384,3.124 21.012 C 3.332 21.708,4.096 21.954,4.680 21.512 C 5.012 21.261,5.027 21.187,5.041 19.682 C 5.055 18.182,5.132 17.565,5.440 16.477 C 6.277 13.516,8.399 11.003,11.227 9.625 C 12.926 8.797,14.461 8.482,16.453 8.551 C 17.420 8.585,17.581 8.606,18.751 8.860 C 19.380 8.996,19.537 9.013,19.711 8.966 C 20.245 8.821,20.572 8.130,20.353 7.608 C 20.251 7.362,19.923 7.110,19.575 7.008 C 19.413 6.961,18.944 6.850,18.533 6.762 C 17.816 6.609,17.725 6.602,16.213 6.585 C 15.348 6.576,14.580 6.579,14.507 6.592 M22.555 8.741 C 22.083 8.895,21.767 9.483,21.915 9.932 C 21.980 10.130,22.376 10.534,22.987 11.025 C 24.102 11.923,25.153 13.235,25.810 14.551 C 26.367 15.665,26.701 16.666,26.642 17.039 C 26.499 17.949,25.278 18.166,24.842 17.360 C 24.763 17.213,24.623 16.878,24.531 16.615 C 23.536 13.773,21.272 11.640,18.410 10.846 C 14.638 9.801,10.598 11.345,8.439 14.655 C 7.881 15.511,7.371 16.772,7.174 17.782 C 7.021 18.569,7.123 18.956,7.563 19.257 C 7.838 19.446,8.279 19.437,8.581 19.237 C 8.891 19.032,8.985 18.849,9.150 18.138 C 9.316 17.419,9.458 17.021,9.763 16.412 C 10.490 14.964,11.605 13.877,13.090 13.167 C 14.595 12.449,16.611 12.337,18.249 12.883 C 19.216 13.205,20.136 13.783,20.912 14.557 C 21.763 15.405,22.214 16.139,22.722 17.504 C 23.041 18.360,23.244 18.705,23.644 19.069 C 24.616 19.952,25.907 20.127,27.069 19.532 C 27.702 19.208,28.283 18.513,28.501 17.817 C 28.759 16.997,28.734 16.623,28.347 15.440 C 27.731 13.558,26.759 11.954,25.361 10.513 C 24.765 9.900,23.946 9.191,23.468 8.874 C 23.247 8.728,22.797 8.663,22.555 8.741 M15.112 14.586 C 14.573 14.683,14.226 14.804,13.720 15.069 C 12.341 15.793,11.403 17.044,11.117 18.543 C 10.996 19.172,11.018 20.084,11.169 20.747 C 11.735 23.232,12.991 25.539,14.755 27.334 C 15.598 28.192,17.001 29.377,17.315 29.496 C 17.971 29.746,18.669 29.256,18.666 28.548 C 18.664 28.209,18.471 27.962,17.706 27.321 C 15.899 25.806,14.859 24.549,14.055 22.907 C 13.524 21.824,13.120 20.543,13.039 19.692 C 12.912 18.358,13.872 17.001,15.220 16.612 C 15.595 16.504,16.294 16.492,16.697 16.586 C 17.150 16.691,17.800 17.054,18.132 17.386 C 18.496 17.749,18.735 18.227,19.039 19.200 C 19.409 20.385,19.873 21.163,20.645 21.891 C 21.369 22.574,22.128 22.990,23.186 23.285 C 24.190 23.565,24.677 23.851,25.200 24.467 C 25.631 24.975,25.809 25.077,26.225 25.054 C 26.498 25.038,26.592 25.007,26.758 24.874 C 27.355 24.397,27.251 23.709,26.461 22.895 C 25.729 22.142,25.114 21.780,23.990 21.442 C 22.833 21.094,22.191 20.712,21.677 20.066 C 21.330 19.630,21.170 19.289,20.862 18.320 C 20.523 17.258,20.233 16.729,19.657 16.119 C 18.710 15.117,17.740 14.652,16.400 14.559 C 15.560 14.500,15.585 14.500,15.112 14.586 M15.687 18.542 C 15.493 18.584,15.127 18.984,15.051 19.238 C 14.971 19.504,15.033 19.831,15.339 20.773 C 16.119 23.175,17.814 25.176,20.049 26.336 C 21.068 26.864,22.575 27.356,22.956 27.284 C 23.455 27.191,23.890 26.630,23.818 26.175 C 23.775 25.907,23.618 25.639,23.423 25.501 C 23.344 25.445,22.980 25.310,22.613 25.202 C 21.121 24.761,20.250 24.274,19.247 23.319 C 18.226 22.347,17.535 21.189,17.118 19.750 C 16.918 19.063,16.784 18.805,16.550 18.660 C 16.375 18.552,15.928 18.491,15.687 18.542 M8.080 21.238 C 7.629 21.395,7.321 21.850,7.379 22.273 C 7.424 22.597,7.893 23.843,8.241 24.560 C 8.573 25.245,9.038 26.040,9.343 26.445 C 9.700 26.919,10.190 27.055,10.668 26.813 C 10.952 26.670,11.129 26.424,11.177 26.103 C 11.226 25.777,11.197 25.696,10.794 25.036 C 10.331 24.276,9.772 23.133,9.496 22.382 C 9.204 21.584,9.123 21.461,8.786 21.304 C 8.485 21.164,8.331 21.150,8.080 21.238 " fill="var(--db-icon-color, currentColor)" stroke="none" fill-rule="evenodd"></path></svg>