<svg id="icon" height="24" viewBox="0 0 24 24" width="24" xmlns="http://www.w3.org/2000/svg"><path d="M6.257 4.098 C 5.254 4.380,4.441 5.156,4.142 6.117 C 3.642 7.721,4.576 9.414,6.222 9.887 C 6.675 10.018,7.375 10.017,7.800 9.885 C 8.343 9.717,8.702 9.502,9.102 9.102 C 9.403 8.800,9.494 8.677,9.652 8.360 C 9.911 7.838,9.978 7.560,9.978 7.000 C 9.978 6.447,9.912 6.166,9.662 5.658 C 9.351 5.024,8.733 4.475,8.008 4.188 C 7.719 4.074,7.661 4.066,7.080 4.053 C 6.631 4.044,6.404 4.056,6.257 4.098 M16.257 4.098 C 15.254 4.380,14.441 5.156,14.142 6.117 C 13.642 7.721,14.576 9.414,16.222 9.887 C 16.675 10.018,17.375 10.017,17.800 9.885 C 18.343 9.717,18.702 9.502,19.102 9.102 C 19.403 8.800,19.494 8.677,19.652 8.360 C 19.911 7.838,19.978 7.560,19.978 7.000 C 19.978 6.447,19.912 6.166,19.662 5.658 C 19.351 5.024,18.733 4.475,18.008 4.188 C 17.719 4.074,17.661 4.066,17.080 4.053 C 16.631 4.044,16.404 4.056,16.257 4.098 M6.257 14.098 C 5.254 14.380,4.441 15.156,4.142 16.117 C 3.642 17.721,4.576 19.414,6.222 19.887 C 6.675 20.018,7.375 20.017,7.800 19.885 C 8.343 19.717,8.702 19.502,9.102 19.102 C 9.403 18.800,9.494 18.677,9.652 18.360 C 9.911 17.838,9.978 17.560,9.978 17.000 C 9.978 16.447,9.912 16.166,9.662 15.658 C 9.351 15.024,8.733 14.475,8.008 14.188 C 7.719 14.074,7.661 14.066,7.080 14.053 C 6.631 14.044,6.404 14.056,6.257 14.098 M16.257 14.098 C 15.254 14.380,14.441 15.156,14.142 16.117 C 13.642 17.721,14.576 19.414,16.222 19.887 C 16.675 20.018,17.375 20.017,17.800 19.885 C 18.343 19.717,18.702 19.502,19.102 19.102 C 19.403 18.800,19.494 18.677,19.652 18.360 C 19.911 17.838,19.978 17.560,19.978 17.000 C 19.978 16.447,19.912 16.166,19.662 15.658 C 19.351 15.024,18.733 14.475,18.008 14.188 C 17.719 14.074,17.661 14.066,17.080 14.053 C 16.631 14.044,16.404 14.056,16.257 14.098 " fill="var(--db-icon-color, currentColor)" stroke="none" fill-rule="evenodd"></path></svg>