<svg id="icon" height="32" viewBox="0 0 32 32" width="32" xmlns="http://www.w3.org/2000/svg"><path d="M10.004 2.214 C 7.893 2.682,5.889 3.825,4.578 5.306 C 3.154 6.916,2.300 8.845,2.052 11.013 C 1.990 11.554,2.018 12.810,2.105 13.393 C 2.708 17.422,5.561 20.625,9.464 21.653 C 10.243 21.858,10.590 21.916,11.373 21.970 C 13.585 22.125,15.881 21.470,17.813 20.134 C 18.033 19.982,18.245 19.839,18.283 19.817 C 18.330 19.790,19.965 21.386,23.430 24.844 C 27.228 28.634,28.548 29.921,28.667 29.947 C 28.755 29.966,28.856 29.991,28.891 30.002 C 28.927 30.013,29.078 29.990,29.228 29.951 C 29.531 29.873,29.789 29.662,29.900 29.402 C 29.987 29.197,29.995 28.812,29.916 28.604 C 29.885 28.522,27.591 26.182,24.818 23.404 C 21.355 19.935,19.789 18.331,19.817 18.283 C 19.839 18.245,19.982 18.033,20.134 17.813 C 21.919 15.238,22.446 12.087,21.578 9.188 C 20.547 5.745,17.948 3.247,14.423 2.311 L 13.680 2.114 12.133 2.099 C 10.663 2.085,10.558 2.091,10.004 2.214 M13.347 4.135 C 14.093 4.266,14.699 4.462,15.400 4.799 C 16.855 5.500,18.012 6.535,18.828 7.867 C 20.224 10.143,20.355 13.128,19.165 15.490 C 18.164 17.476,16.545 18.899,14.524 19.570 C 13.498 19.911,13.177 19.961,12.000 19.961 C 10.821 19.961,10.503 19.911,9.468 19.568 C 8.272 19.171,7.333 18.584,6.401 17.653 C 4.414 15.668,3.622 12.996,4.215 10.273 C 4.660 8.228,5.895 6.463,7.707 5.282 C 8.772 4.587,9.877 4.209,11.360 4.032 C 11.701 3.991,12.873 4.052,13.347 4.135 M11.547 7.124 C 11.331 7.236,11.206 7.355,11.101 7.547 C 11.026 7.683,11.011 7.946,10.996 9.341 L 10.979 10.975 9.343 10.997 C 7.546 11.021,7.516 11.026,7.234 11.361 C 6.766 11.917,7.068 12.803,7.776 12.953 C 7.946 12.989,8.642 13.013,9.523 13.013 L 10.987 13.013 10.987 14.602 C 10.987 16.144,10.990 16.198,11.107 16.428 C 11.240 16.693,11.481 16.878,11.806 16.965 C 12.185 17.067,12.632 16.864,12.870 16.481 C 12.982 16.300,12.987 16.231,13.004 14.657 L 13.021 13.020 14.631 13.003 C 16.422 12.985,16.427 12.984,16.737 12.609 C 17.057 12.220,17.073 11.775,16.779 11.390 C 16.510 11.037,16.421 11.021,14.627 10.996 L 13.013 10.974 13.011 9.501 C 13.009 7.936,12.981 7.646,12.814 7.421 C 12.558 7.075,11.925 6.927,11.547 7.124 " fill="var(--db-icon-color, currentColor)" stroke="none" fill-rule="evenodd"></path></svg>