<svg id="icon" height="20" viewBox="0 0 20 20" width="20" xmlns="http://www.w3.org/2000/svg"><path d="M8.333 2.036 C 6.102 2.264,4.115 3.528,2.971 5.448 C 2.358 6.477,2.000 7.779,2.000 8.978 C 2.000 10.766,2.698 12.514,3.928 13.806 C 5.798 15.772,8.598 16.486,11.150 15.651 C 11.719 15.464,12.550 15.061,13.032 14.736 L 13.180 14.636 14.732 16.177 C 15.585 17.025,16.357 17.767,16.448 17.826 C 16.666 17.969,16.837 18.012,17.096 17.988 C 17.443 17.956,17.734 17.742,17.892 17.404 C 18.057 17.050,18.022 16.719,17.790 16.423 C 17.715 16.328,16.973 15.564,16.140 14.725 L 14.627 13.200 14.692 13.092 C 14.727 13.032,14.839 12.848,14.940 12.683 C 15.421 11.898,15.732 11.072,15.904 10.117 C 16.001 9.582,16.011 8.457,15.923 7.950 C 15.659 6.426,15.049 5.200,14.035 4.154 C 13.106 3.196,12.021 2.561,10.756 2.235 C 10.035 2.049,9.024 1.966,8.333 2.036 M9.417 4.067 C 10.181 4.114,10.639 4.245,11.369 4.625 C 12.249 5.082,12.972 5.810,13.428 6.698 C 13.658 7.144,13.773 7.451,13.886 7.917 C 13.959 8.217,13.967 8.322,13.967 8.971 C 13.967 9.780,13.935 10.019,13.755 10.552 C 13.643 10.883,13.405 11.389,13.240 11.647 C 12.396 12.965,10.948 13.848,9.434 13.967 C 7.617 14.110,5.906 13.303,4.909 11.833 C 4.605 11.383,4.304 10.690,4.159 10.101 C 4.059 9.693,4.035 8.609,4.117 8.124 C 4.495 5.857,6.471 4.115,8.750 4.038 C 8.823 4.036,9.123 4.049,9.417 4.067 M6.000 9.000 L 6.000 10.000 9.000 10.000 L 12.000 10.000 12.000 9.000 L 12.000 8.000 9.000 8.000 L 6.000 8.000 6.000 9.000 " fill="var(--db-icon-color, currentColor)" stroke="none" fill-rule="evenodd"></path></svg>