<svg id="icon" height="20" viewBox="0 0 20 20" width="20" xmlns="http://www.w3.org/2000/svg"><path d="M11.383 2.037 C 9.618 2.229,7.992 3.211,7.013 4.676 C 6.595 5.302,6.251 6.147,6.101 6.918 C 5.964 7.619,5.977 8.556,6.132 9.267 L 6.193 9.550 4.104 11.650 C 2.955 12.805,1.937 13.844,1.842 13.958 C 1.656 14.182,1.600 14.326,1.600 14.577 C 1.600 14.909,1.648 15.004,2.032 15.425 C 2.229 15.640,2.938 16.358,3.608 17.020 C 4.472 17.874,4.872 18.246,4.981 18.299 C 5.192 18.401,5.474 18.422,5.710 18.353 C 5.951 18.283,5.983 18.254,8.484 15.760 L 10.451 13.799 10.750 13.864 C 11.796 14.090,12.857 14.029,13.894 13.682 C 16.418 12.839,18.099 10.405,17.990 7.750 C 17.960 7.012,17.840 6.688,17.522 6.486 C 17.276 6.329,17.128 6.289,16.864 6.308 C 16.680 6.321,16.603 6.346,16.460 6.436 C 16.363 6.497,15.795 7.031,15.199 7.623 L 14.114 8.698 12.707 7.290 L 11.300 5.883 12.120 5.066 C 13.134 4.056,13.558 3.593,13.642 3.404 C 13.731 3.204,13.713 2.847,13.603 2.621 C 13.514 2.439,13.349 2.260,13.197 2.182 C 12.932 2.045,11.998 1.970,11.383 2.037 " fill="var(--db-icon-color, currentColor)" stroke="none" fill-rule="evenodd"></path></svg>