<svg id="icon" height="24" viewBox="0 0 24 24" width="24" xmlns="http://www.w3.org/2000/svg"><path d="M10.360 2.148 C 8.914 2.303,7.620 2.812,6.491 3.671 C 6.070 3.992,5.710 4.384,5.649 4.587 C 5.533 4.973,5.615 5.297,5.899 5.581 C 6.339 6.022,6.826 5.984,7.460 5.459 C 8.266 4.791,9.115 4.383,10.055 4.212 C 10.574 4.117,11.590 4.119,12.040 4.215 C 13.143 4.451,13.985 4.886,14.748 5.615 C 15.559 6.388,16.098 7.343,16.324 8.403 C 16.397 8.741,16.414 8.953,16.415 9.520 C 16.417 10.539,16.282 11.120,15.832 12.015 C 15.569 12.539,15.344 12.896,14.640 13.900 C 13.477 15.559,13.126 16.185,12.822 17.144 C 12.429 18.380,12.337 18.576,11.929 19.038 C 11.246 19.811,10.222 20.210,9.253 20.081 C 9.062 20.056,8.734 19.980,8.525 19.913 C 8.000 19.745,7.752 19.727,7.494 19.838 C 6.737 20.163,6.662 21.139,7.360 21.577 C 7.897 21.914,9.073 22.158,9.880 22.101 C 11.190 22.008,12.311 21.494,13.240 20.562 C 13.998 19.801,14.257 19.315,14.700 17.824 C 14.920 17.085,15.180 16.630,16.280 15.058 C 16.651 14.529,17.048 13.944,17.164 13.758 C 17.696 12.900,18.184 11.688,18.345 10.820 C 18.405 10.500,18.420 10.233,18.418 9.480 C 18.417 8.658,18.405 8.487,18.326 8.120 C 17.690 5.166,15.520 2.951,12.627 2.302 C 11.978 2.157,10.937 2.086,10.360 2.148 M10.420 5.161 C 9.780 5.242,9.042 5.539,8.460 5.951 C 7.894 6.351,7.680 6.655,7.680 7.061 C 7.680 7.625,8.090 8.039,8.651 8.040 C 8.942 8.040,9.100 7.974,9.456 7.704 C 10.011 7.283,10.406 7.145,11.060 7.142 C 11.387 7.141,11.557 7.160,11.720 7.215 C 12.359 7.431,12.909 7.904,13.197 8.485 C 13.340 8.773,13.371 8.882,13.409 9.233 C 13.486 9.940,13.370 10.342,12.839 11.222 C 12.447 11.870,12.396 12.118,12.575 12.503 C 12.813 13.014,13.434 13.218,13.949 12.954 C 14.370 12.738,15.074 11.518,15.327 10.563 C 15.429 10.179,15.472 9.214,15.404 8.824 C 15.260 7.997,14.829 7.136,14.244 6.506 C 13.687 5.906,12.724 5.368,11.940 5.220 C 11.564 5.148,10.765 5.118,10.420 5.161 " fill="var(--db-icon-color, currentColor)" stroke="none" fill-rule="evenodd"></path></svg>