<svg id="icon" height="24" viewBox="0 0 24 24" width="24" xmlns="http://www.w3.org/2000/svg"><path d="M19.700 3.036 C 19.493 3.092,8.213 7.443,3.407 9.321 C 2.827 9.548,2.632 9.673,2.376 9.987 C 2.162 10.250,2.038 10.581,2.011 10.962 C 1.973 11.502,2.169 11.974,2.590 12.360 C 2.842 12.591,2.845 12.592,3.711 12.874 C 4.352 13.082,8.718 14.452,9.285 14.623 C 9.321 14.634,9.369 14.709,9.390 14.791 C 9.442 14.989,10.773 19.270,11.059 20.160 C 11.182 20.545,11.326 20.954,11.379 21.069 C 11.660 21.682,12.478 22.092,13.181 21.972 C 13.693 21.884,14.226 21.535,14.420 21.160 C 14.608 20.796,20.390 5.767,20.797 4.586 C 20.985 4.039,20.995 3.897,20.865 3.618 C 20.668 3.195,20.122 2.922,19.700 3.036 M15.567 6.990 C 15.412 7.160,14.070 8.514,12.585 9.998 L 9.885 12.695 7.592 11.986 C 4.296 10.967,4.562 11.056,4.680 11.008 C 5.410 10.710,10.982 8.548,13.680 7.515 C 14.769 7.099,15.696 6.742,15.740 6.722 C 15.784 6.702,15.826 6.684,15.834 6.683 C 15.842 6.681,15.722 6.820,15.567 6.990 M16.026 11.425 C 14.924 14.316,13.536 17.921,13.135 18.930 C 13.050 19.144,12.969 19.320,12.956 19.320 C 12.932 19.320,12.560 18.159,11.775 15.629 L 11.307 14.119 13.658 11.749 C 16.501 8.885,17.203 8.189,17.226 8.212 C 17.235 8.222,16.695 9.667,16.026 11.425 " fill="var(--db-icon-color, currentColor)" stroke="none" fill-rule="evenodd"></path></svg>