<svg id="icon" height="32" viewBox="0 0 32 32" width="32" xmlns="http://www.w3.org/2000/svg"><path d="M15.547 2.111 C 15.040 2.375,15.020 2.453,15.000 4.293 C 14.991 5.144,14.973 5.891,14.959 5.953 C 14.938 6.050,14.863 6.079,14.441 6.156 C 13.090 6.402,11.674 7.102,10.684 8.014 C 10.119 8.535,9.483 9.407,9.080 10.213 C 8.639 11.095,8.237 12.421,8.110 13.413 C 8.080 13.648,8.030 15.268,8.000 17.013 C 7.969 18.759,7.922 20.439,7.894 20.747 C 7.827 21.509,7.628 22.250,7.318 22.898 C 7.023 23.514,6.951 23.598,5.040 25.547 C 4.393 26.207,3.798 26.834,3.717 26.941 C 3.393 27.368,3.513 27.961,3.991 28.293 C 4.185 28.427,4.273 28.453,4.532 28.452 C 4.811 28.450,4.866 28.429,5.100 28.240 C 5.452 27.955,22.387 11.052,24.893 8.485 C 26.057 7.292,26.924 6.362,26.967 6.258 C 27.058 6.040,27.018 5.743,26.861 5.464 C 26.628 5.050,25.957 4.878,25.547 5.127 C 25.444 5.190,24.591 6.005,23.650 6.940 L 21.940 8.640 21.783 8.473 C 21.479 8.149,20.734 7.522,20.365 7.278 C 19.503 6.710,18.669 6.374,17.628 6.173 L 17.013 6.055 17.013 4.748 C 17.012 3.316,16.956 2.616,16.824 2.415 C 16.620 2.104,15.893 1.930,15.547 2.111 M16.720 8.055 C 17.671 8.162,18.527 8.453,19.222 8.907 C 19.620 9.167,20.336 9.805,20.433 9.985 C 20.479 10.071,20.021 10.551,17.056 13.528 C 15.170 15.421,12.789 17.790,11.765 18.792 L 9.903 20.613 9.942 20.320 C 9.963 20.159,10.001 18.647,10.027 16.960 C 10.076 13.797,10.097 13.477,10.328 12.560 C 11.114 9.434,13.572 7.701,16.720 8.055 M22.796 13.445 L 21.973 14.262 21.975 16.291 C 21.977 18.934,22.039 20.346,22.184 21.053 C 22.375 21.988,22.779 23.057,23.200 23.741 L 23.359 24.000 17.799 24.000 L 12.239 24.000 11.227 25.013 L 10.214 26.027 11.095 26.027 L 11.976 26.027 12.037 26.467 C 12.184 27.534,12.634 28.356,13.455 29.056 C 14.166 29.663,14.830 29.917,15.813 29.958 C 16.349 29.981,16.532 29.966,16.933 29.871 C 17.550 29.723,18.074 29.463,18.498 29.092 C 19.402 28.304,19.869 27.445,19.980 26.369 L 20.014 26.036 23.087 26.013 C 25.237 25.997,26.219 25.971,26.356 25.927 C 26.747 25.801,27.028 25.315,26.967 24.869 C 26.921 24.538,26.798 24.388,26.172 23.905 C 25.076 23.059,24.510 22.242,24.206 21.071 C 24.084 20.596,24.006 18.919,24.001 16.640 C 23.995 14.331,23.869 12.712,23.690 12.652 C 23.651 12.639,23.250 12.995,22.796 13.445 M17.957 26.289 C 17.916 26.636,17.650 27.151,17.372 27.423 C 17.248 27.544,16.991 27.717,16.800 27.808 C 16.497 27.953,16.397 27.973,16.000 27.973 C 15.603 27.973,15.503 27.953,15.200 27.808 C 15.009 27.717,14.752 27.544,14.628 27.423 C 14.350 27.151,14.084 26.636,14.043 26.289 L 14.012 26.027 16.000 26.027 L 17.988 26.027 17.957 26.289 " fill="var(--db-icon-color, currentColor)" stroke="none" fill-rule="evenodd"></path></svg>