<svg id="icon" height="32" viewBox="0 0 32 32" width="32" xmlns="http://www.w3.org/2000/svg"><path d="M9.893 2.076 L 8.347 2.107 7.990 2.275 C 7.523 2.497,7.085 2.832,6.790 3.194 C 6.502 3.548,6.358 3.824,6.139 4.444 L 5.973 4.915 5.973 7.467 L 5.973 10.018 5.320 10.036 C 4.693 10.053,4.657 10.060,4.440 10.213 C 3.807 10.660,3.886 11.508,4.594 11.860 C 4.842 11.984,4.938 12.000,5.424 12.000 L 5.973 12.000 5.973 16.000 L 5.973 20.000 5.507 20.001 C 5.250 20.002,4.932 20.027,4.801 20.058 C 3.879 20.270,3.725 21.462,4.567 21.870 C 4.769 21.968,4.938 21.998,5.392 22.016 L 5.964 22.040 5.987 24.473 C 6.012 27.192,6.016 27.224,6.403 28.027 C 6.795 28.843,7.395 29.420,8.213 29.770 L 8.613 29.940 10.000 29.979 C 10.763 30.000,14.268 30.020,17.791 30.022 L 24.195 30.027 24.577 29.897 C 25.699 29.515,26.463 28.755,26.834 27.653 L 26.960 27.280 26.960 16.107 C 26.960 3.475,27.006 4.764,26.521 3.823 C 26.133 3.069,25.559 2.562,24.682 2.196 L 24.347 2.056 17.893 2.050 C 14.344 2.047,10.744 2.058,9.893 2.076 M12.000 16.003 L 12.000 28.006 10.520 27.990 L 9.040 27.973 8.788 27.825 C 8.545 27.682,8.330 27.426,8.133 27.041 C 8.047 26.872,8.035 26.624,8.011 24.448 L 7.985 22.041 8.593 22.016 C 9.078 21.997,9.245 21.969,9.424 21.876 C 9.737 21.715,9.930 21.442,9.961 21.121 C 9.995 20.774,9.952 20.626,9.751 20.398 C 9.480 20.090,9.326 20.037,8.627 20.010 L 8.000 19.987 8.000 15.998 L 8.000 12.009 8.627 11.991 C 9.382 11.969,9.591 11.888,9.821 11.527 C 10.080 11.118,10.002 10.589,9.632 10.244 C 9.472 10.095,9.161 10.036,8.493 10.031 L 8.053 10.027 8.054 7.480 L 8.054 4.933 8.209 4.663 C 8.408 4.317,8.702 4.092,9.013 4.048 C 9.145 4.030,9.871 4.011,10.627 4.007 L 12.000 4.000 12.000 16.003 M24.095 4.129 C 24.396 4.282,24.637 4.527,24.808 4.853 L 24.933 5.093 24.933 16.080 L 24.933 27.067 24.818 27.280 C 24.702 27.494,24.460 27.748,24.215 27.912 C 24.095 27.992,23.640 28.000,19.055 28.000 L 14.027 28.000 14.027 16.000 L 14.027 4.000 18.935 4.000 L 23.844 4.000 24.095 4.129 M16.933 11.035 C 16.716 11.057,16.497 11.114,16.410 11.171 C 16.185 11.319,16.033 11.654,16.032 12.000 C 16.032 12.379,16.170 12.663,16.444 12.845 L 16.659 12.987 19.489 12.987 C 22.249 12.987,22.325 12.984,22.506 12.877 C 23.150 12.499,23.134 11.448,22.479 11.120 C 22.277 11.019,22.149 11.013,19.787 11.005 C 18.423 11.001,17.139 11.014,16.933 11.035 M16.933 15.035 C 16.716 15.057,16.497 15.114,16.410 15.171 C 16.185 15.319,16.033 15.654,16.032 16.000 C 16.032 16.379,16.170 16.663,16.444 16.845 L 16.659 16.987 19.489 16.987 C 22.249 16.987,22.325 16.984,22.506 16.877 C 23.150 16.499,23.134 15.448,22.479 15.120 C 22.277 15.019,22.149 15.013,19.787 15.005 C 18.423 15.001,17.139 15.014,16.933 15.035 M16.933 19.035 C 16.716 19.057,16.497 19.114,16.410 19.171 C 16.185 19.319,16.033 19.654,16.032 20.000 C 16.032 20.379,16.170 20.663,16.444 20.845 L 16.659 20.987 19.489 20.987 C 22.249 20.987,22.325 20.984,22.506 20.877 C 23.150 20.499,23.134 19.448,22.479 19.120 C 22.277 19.019,22.149 19.013,19.787 19.005 C 18.423 19.001,17.139 19.014,16.933 19.035 " fill="var(--db-icon-color, currentColor)" stroke="none" fill-rule="evenodd"></path></svg>