<svg id="icon" height="16" viewBox="0 0 16 16" width="16" xmlns="http://www.w3.org/2000/svg"><path d="M11.798 4.212 C 11.575 4.265,11.239 4.582,8.521 7.303 L 6.416 9.411 5.508 8.512 C 5.008 8.018,4.533 7.568,4.453 7.514 C 3.860 7.109,3.004 7.548,2.942 8.288 C 2.920 8.552,2.975 8.717,3.165 8.947 C 3.356 9.180,4.810 10.652,5.454 11.265 C 5.917 11.705,5.942 11.725,6.107 11.771 C 6.291 11.823,6.547 11.831,6.685 11.790 C 6.732 11.776,6.824 11.728,6.889 11.683 C 7.099 11.539,8.280 10.382,10.611 8.039 C 13.202 5.433,13.053 5.608,13.052 5.173 C 13.052 4.983,13.041 4.922,12.980 4.791 C 12.840 4.490,12.644 4.315,12.348 4.229 C 12.199 4.185,11.942 4.177,11.798 4.212 " fill="var(--db-icon-color, currentColor)" stroke="none" fill-rule="evenodd"></path></svg>