<svg id="icon" height="24" viewBox="0 0 24 24" width="24" xmlns="http://www.w3.org/2000/svg"><path d="M20.180 2.569 C 19.963 2.646,19.832 2.763,18.658 3.927 L 17.496 5.080 12.254 5.080 L 7.013 5.080 6.905 4.753 C 6.683 4.081,6.304 3.634,5.700 3.336 C 5.174 3.076,4.918 3.035,3.760 3.027 C 3.037 3.022,2.741 3.034,2.632 3.073 C 2.441 3.140,2.110 3.500,2.048 3.709 C 1.914 4.156,2.100 4.628,2.502 4.864 C 2.676 4.965,2.714 4.970,3.559 5.003 C 4.544 5.041,4.626 5.062,4.887 5.351 C 5.022 5.500,5.035 5.542,5.173 6.264 C 5.349 7.181,5.894 10.197,6.455 13.360 L 6.870 15.700 5.524 17.060 C 4.694 17.899,4.148 18.481,4.100 18.580 C 3.998 18.790,3.995 19.203,4.094 19.406 C 4.185 19.592,4.406 19.814,4.594 19.907 C 4.786 20.003,5.210 20.003,5.389 19.908 C 5.591 19.800,8.675 16.755,14.862 10.554 C 20.192 5.214,21.225 4.156,21.406 3.860 C 21.581 3.575,21.463 3.060,21.160 2.788 C 20.882 2.538,20.505 2.454,20.180 2.569 M20.069 8.153 L 18.658 9.559 18.507 10.169 C 18.424 10.505,18.328 10.837,18.295 10.907 C 18.211 11.079,18.027 11.146,17.431 11.219 L 16.940 11.279 15.840 12.388 C 14.899 13.336,14.753 13.499,14.833 13.511 C 15.005 13.539,18.240 13.174,18.673 13.078 C 18.776 13.055,18.995 12.970,19.160 12.889 C 19.539 12.703,20.043 12.217,20.232 11.854 C 20.375 11.580,20.583 10.819,21.097 8.692 C 21.473 7.137,21.542 6.809,21.506 6.772 C 21.492 6.758,20.845 7.380,20.069 8.153 M13.060 9.518 L 10.580 11.996 9.640 12.098 C 9.123 12.154,8.607 12.210,8.494 12.222 C 8.380 12.235,8.278 12.229,8.266 12.209 C 8.240 12.168,7.320 7.244,7.320 7.149 C 7.320 7.102,7.367 7.080,7.490 7.069 C 7.584 7.061,9.433 7.051,11.600 7.047 L 15.540 7.040 13.060 9.518 M11.200 17.021 L 10.220 18.003 14.040 17.989 C 16.843 17.980,17.897 17.964,18.000 17.929 C 18.215 17.856,18.440 17.647,18.545 17.423 C 18.774 16.931,18.577 16.406,18.064 16.141 L 17.868 16.040 15.024 16.040 L 12.179 16.040 11.200 17.021 M8.085 20.132 L 7.470 20.751 7.519 20.966 C 7.614 21.376,7.894 21.719,8.275 21.894 C 8.548 22.018,8.992 22.013,9.259 21.882 C 9.513 21.757,9.757 21.513,9.882 21.259 C 9.960 21.100,9.980 20.999,9.979 20.760 C 9.977 20.377,9.865 20.112,9.600 19.864 C 9.378 19.656,9.191 19.569,8.904 19.537 L 8.700 19.514 8.085 20.132 M16.872 19.573 C 16.769 19.603,16.652 19.651,16.612 19.681 C 16.405 19.838,16.222 20.041,16.127 20.220 C 16.038 20.388,16.022 20.471,16.022 20.740 C 16.022 21.119,16.122 21.364,16.380 21.622 C 16.634 21.876,16.882 21.978,17.240 21.977 C 17.638 21.975,17.895 21.863,18.157 21.576 C 18.390 21.321,18.480 21.082,18.480 20.719 C 18.480 20.254,18.197 19.820,17.771 19.632 C 17.547 19.533,17.115 19.505,16.872 19.573 " fill="var(--db-icon-color, currentColor)" stroke="none" fill-rule="evenodd"></path></svg>