<svg id="icon" height="20" viewBox="0 0 20 20" width="20" xmlns="http://www.w3.org/2000/svg"><path d="M8.017 2.535 C 5.936 2.750,4.135 3.602,2.665 5.067 C 2.105 5.623,2.020 5.771,2.020 6.181 C 2.020 6.394,2.036 6.485,2.096 6.608 C 2.191 6.805,2.483 7.074,2.658 7.127 C 2.868 7.190,3.191 7.177,3.350 7.100 C 3.426 7.063,3.698 6.834,3.954 6.591 C 4.209 6.349,4.516 6.074,4.634 5.980 C 5.826 5.043,7.224 4.554,8.717 4.553 C 9.280 4.553,9.583 4.586,10.276 4.720 C 10.688 4.800,10.709 4.801,10.896 4.748 C 11.331 4.626,11.642 4.228,11.641 3.795 C 11.639 3.348,11.396 2.979,11.007 2.832 C 10.388 2.600,8.861 2.448,8.017 2.535 M13.598 4.563 C 13.453 4.610,13.247 4.757,13.138 4.888 C 12.922 5.150,12.854 5.648,12.994 5.938 C 13.033 6.018,13.210 6.241,13.387 6.434 C 14.566 7.713,15.121 8.765,15.455 10.356 C 15.495 10.546,15.514 10.859,15.525 11.509 C 15.538 12.312,15.532 12.446,15.466 12.859 C 15.365 13.493,15.368 13.751,15.482 13.983 C 15.771 14.574,16.536 14.715,16.994 14.263 C 17.198 14.062,17.308 13.750,17.423 13.050 C 17.472 12.752,17.483 12.488,17.483 11.633 C 17.483 10.483,17.472 10.379,17.250 9.450 C 16.935 8.134,16.287 6.812,15.445 5.767 C 15.112 5.355,14.472 4.718,14.309 4.636 C 14.153 4.559,13.741 4.516,13.598 4.563 M8.217 6.803 C 8.052 6.815,7.847 6.842,7.763 6.862 C 6.054 7.267,4.669 8.548,4.135 10.217 C 3.918 10.895,3.886 11.109,3.888 11.917 C 3.890 13.115,4.060 13.988,4.525 15.183 C 4.680 15.584,5.070 16.343,5.225 16.548 C 5.639 17.094,6.507 16.986,6.818 16.350 C 6.887 16.210,6.907 16.116,6.910 15.927 C 6.915 15.657,6.917 15.662,6.517 14.800 C 6.005 13.698,5.803 12.780,5.843 11.750 C 5.858 11.383,5.880 11.220,5.949 10.986 C 6.230 10.030,6.867 9.339,7.817 8.959 C 8.075 8.855,8.101 8.851,8.668 8.840 C 9.343 8.826,9.515 8.857,9.956 9.069 C 10.710 9.431,11.203 9.995,11.551 10.894 C 11.766 11.448,12.253 11.729,12.748 11.585 C 13.091 11.486,13.402 11.110,13.453 10.733 C 13.479 10.544,13.402 10.225,13.232 9.818 C 12.665 8.457,11.536 7.421,10.133 6.974 C 9.637 6.815,8.923 6.752,8.217 6.803 M8.494 10.812 C 8.324 10.859,8.283 10.884,8.089 11.065 C 7.865 11.273,7.816 11.402,7.820 11.783 C 7.822 12.044,7.842 12.181,7.912 12.413 C 8.471 14.254,9.433 15.612,11.021 16.802 C 11.644 17.269,12.082 17.500,12.345 17.500 C 12.586 17.500,12.803 17.402,13.000 17.205 C 13.296 16.909,13.386 16.535,13.255 16.146 C 13.171 15.897,13.005 15.726,12.553 15.427 C 11.102 14.464,10.308 13.433,9.790 11.836 C 9.599 11.247,9.584 11.214,9.428 11.058 C 9.339 10.969,9.218 10.876,9.158 10.852 C 8.989 10.782,8.670 10.763,8.494 10.812 " fill="var(--db-icon-color, currentColor)" stroke="none" fill-rule="evenodd"></path></svg>