<svg id="icon" height="32" viewBox="0 0 32 32" width="32" xmlns="http://www.w3.org/2000/svg"><path d="M18.584 6.077 C 16.763 6.288,14.886 7.358,13.531 8.956 L 13.286 9.244 12.882 9.156 C 12.583 9.090,12.213 9.067,11.471 9.067 C 10.576 9.067,10.410 9.081,9.966 9.197 C 8.706 9.526,7.724 10.092,6.850 10.996 C 6.095 11.775,5.694 12.431,5.335 13.468 C 5.125 14.077,5.102 14.117,4.886 14.254 C 4.476 14.513,3.860 15.077,3.474 15.545 C 1.390 18.073,1.542 21.504,3.840 23.844 C 4.687 24.707,5.605 25.268,6.831 25.674 C 7.823 26.002,7.758 25.999,16.160 25.999 C 23.273 25.998,23.791 25.992,24.238 25.902 C 25.827 25.582,27.100 24.919,28.135 23.874 C 28.929 23.073,29.455 22.209,29.732 21.254 C 29.920 20.604,29.973 20.226,29.973 19.520 C 29.973 18.812,29.920 18.436,29.729 17.778 C 29.365 16.520,28.667 15.517,27.407 14.441 L 27.055 14.140 27.018 13.563 C 26.920 12.057,26.668 11.053,26.132 10.035 C 25.098 8.071,23.260 6.671,21.074 6.183 C 20.547 6.066,19.184 6.007,18.584 6.077 " fill="var(--db-icon-color, currentColor)" stroke="none" fill-rule="evenodd"></path></svg>