<svg id="icon" height="32" viewBox="0 0 32 32" width="32" xmlns="http://www.w3.org/2000/svg"><path d="M8.347 5.066 C 7.435 5.194,6.335 5.869,5.789 6.634 C 4.790 8.034,4.764 9.925,5.725 11.272 C 6.242 11.996,6.964 12.521,7.840 12.810 C 8.286 12.957,8.421 12.977,8.960 12.980 C 9.440 12.982,9.664 12.957,9.992 12.863 C 11.451 12.448,12.449 11.450,12.863 9.992 C 13.015 9.454,13.026 8.569,12.886 8.056 C 12.621 7.088,12.041 6.265,11.236 5.712 C 10.893 5.477,10.276 5.198,9.947 5.130 C 9.553 5.048,8.712 5.014,8.347 5.066 M22.213 5.088 C 20.865 5.349,19.672 6.405,19.221 7.739 C 18.963 8.501,18.951 9.496,19.190 10.187 C 19.750 11.803,21.063 12.839,22.743 12.991 C 23.422 13.053,24.377 12.817,25.048 12.423 C 25.444 12.190,26.214 11.422,26.444 11.031 C 26.952 10.165,27.125 8.858,26.852 7.947 C 26.628 7.199,26.116 6.405,25.575 5.964 C 25.197 5.656,24.427 5.262,23.973 5.145 C 23.520 5.028,22.666 5.000,22.213 5.088 M8.491 19.045 C 7.644 19.174,6.879 19.542,6.265 20.116 C 4.879 21.413,4.617 23.475,5.631 25.103 C 6.106 25.865,6.674 26.333,7.573 26.705 C 8.948 27.274,10.565 26.971,11.683 25.935 C 13.018 24.699,13.363 22.821,12.553 21.205 C 12.303 20.706,11.873 20.181,11.457 19.866 C 10.622 19.233,9.428 18.902,8.491 19.045 M21.994 19.145 C 20.984 19.410,20.031 20.146,19.504 21.067 C 19.428 21.199,19.291 21.532,19.199 21.808 C 19.048 22.258,19.031 22.375,19.030 22.955 C 19.029 23.393,19.057 23.710,19.118 23.944 C 19.666 26.034,21.743 27.344,23.813 26.906 C 24.408 26.780,25.302 26.313,25.717 25.910 C 26.331 25.316,26.799 24.452,26.937 23.656 C 27.013 23.219,26.973 22.409,26.854 21.967 C 26.469 20.533,25.206 19.361,23.764 19.098 C 23.273 19.008,22.431 19.031,21.994 19.145 " fill="var(--db-icon-color, currentColor)" stroke="none" fill-rule="evenodd"></path></svg>