<svg id="icon" height="24" viewBox="0 0 24 24" width="24" xmlns="http://www.w3.org/2000/svg"><path d="M11.774 2.039 C 11.571 2.086,11.390 2.210,11.240 2.407 C 11.163 2.507,10.524 3.739,9.820 5.145 L 8.540 7.700 8.260 7.751 C 8.106 7.778,7.197 7.918,6.240 8.062 C 2.785 8.579,2.674 8.598,2.494 8.702 C 2.161 8.896,1.972 9.254,2.014 9.610 C 2.060 10.005,2.118 10.072,3.853 11.766 C 5.975 13.838,6.400 14.273,6.400 14.375 C 6.400 14.420,6.239 15.375,6.041 16.498 C 5.572 19.168,5.440 19.980,5.441 20.177 C 5.443 20.508,5.703 20.867,6.067 21.044 C 6.205 21.110,6.295 21.125,6.465 21.111 C 6.722 21.090,7.219 20.848,10.150 19.319 L 12.001 18.354 14.234 19.516 C 16.796 20.850,17.265 21.080,17.476 21.109 C 17.858 21.160,18.365 20.859,18.502 20.500 C 18.600 20.243,18.580 20.082,18.060 17.000 L 17.605 14.300 19.741 12.180 C 21.814 10.123,21.878 10.054,21.938 9.843 C 22.054 9.436,22.006 9.186,21.759 8.905 C 21.498 8.608,21.696 8.651,18.160 8.122 C 16.983 7.945,15.894 7.778,15.740 7.751 L 15.460 7.700 14.180 5.144 C 13.476 3.739,12.837 2.506,12.760 2.404 C 12.542 2.117,12.118 1.960,11.774 2.039 M12.951 7.190 C 13.461 8.219,13.941 9.145,14.018 9.249 C 14.096 9.352,14.216 9.467,14.286 9.503 C 14.438 9.581,14.972 9.675,17.140 10.001 C 18.042 10.136,18.789 10.256,18.800 10.267 C 18.811 10.278,18.114 10.982,17.252 11.833 C 16.137 12.933,15.659 13.431,15.597 13.558 C 15.483 13.791,15.481 13.769,15.885 16.196 C 16.067 17.296,16.206 18.207,16.193 18.221 C 16.161 18.252,15.662 18.001,13.876 17.055 L 12.412 16.280 12.000 16.280 L 11.588 16.280 10.124 17.055 C 8.343 17.999,7.839 18.252,7.808 18.221 C 7.795 18.208,7.935 17.284,8.120 16.169 C 8.305 15.053,8.458 14.023,8.458 13.879 C 8.460 13.639,8.448 13.602,8.308 13.412 C 8.225 13.298,7.481 12.543,6.655 11.734 C 5.829 10.924,5.169 10.257,5.187 10.252 C 5.205 10.246,5.954 10.133,6.852 10.000 C 8.624 9.737,9.328 9.622,9.579 9.555 C 9.906 9.467,10.064 9.205,11.281 6.730 C 11.663 5.955,11.986 5.320,11.999 5.320 C 12.012 5.320,12.441 6.162,12.951 7.190 " fill="var(--db-icon-color, currentColor)" stroke="none" fill-rule="evenodd"></path></svg>