<svg id="icon" height="20" viewBox="0 0 20 20" width="20" xmlns="http://www.w3.org/2000/svg"><path d="M14.505 2.035 C 14.425 2.051,14.294 2.103,14.214 2.150 C 14.017 2.265,13.465 2.778,12.575 3.672 L 11.833 4.417 13.710 6.293 L 15.586 8.169 16.670 7.076 C 17.829 5.907,17.888 5.833,17.974 5.424 C 18.021 5.197,17.983 4.965,17.849 4.672 C 17.776 4.512,17.598 4.319,16.690 3.414 C 16.100 2.826,15.549 2.300,15.467 2.244 C 15.198 2.061,14.803 1.975,14.505 2.035 M7.392 8.852 C 5.751 10.475,4.092 12.134,3.705 12.537 C 3.020 13.252,3.000 13.277,2.934 13.494 C 2.830 13.834,2.081 16.851,2.032 17.125 C 1.981 17.412,2.012 17.553,2.166 17.739 C 2.317 17.921,2.531 18.013,2.745 17.988 C 2.938 17.966,5.484 17.335,6.130 17.150 C 6.357 17.085,6.594 17.008,6.656 16.978 C 6.808 16.906,7.984 15.764,11.363 12.409 L 14.210 9.582 12.335 7.741 C 11.304 6.728,10.441 5.900,10.418 5.900 C 10.394 5.900,9.032 7.228,7.392 8.852 " fill="var(--db-icon-color, currentColor)" stroke="none" fill-rule="evenodd"></path></svg>