<svg id="icon" height="32" viewBox="0 0 32 32" width="32" xmlns="http://www.w3.org/2000/svg"><path d="M18.427 5.093 C 17.428 5.269,16.383 5.668,15.538 6.196 C 14.952 6.563,14.169 7.209,13.836 7.602 C 13.691 7.772,13.511 7.983,13.435 8.071 L 13.297 8.230 12.769 8.144 C 11.208 7.891,10.020 8.037,8.760 8.639 C 8.017 8.994,7.478 9.375,6.901 9.954 C 6.143 10.713,5.679 11.474,5.311 12.558 L 5.142 13.057 4.718 13.373 C 3.880 13.998,3.331 14.601,2.836 15.442 C 2.563 15.905,2.223 16.796,2.111 17.344 C 2.004 17.865,2.000 19.050,2.102 19.587 C 2.352 20.892,2.967 22.010,3.963 22.969 C 4.807 23.782,5.644 24.288,6.731 24.643 C 7.516 24.900,8.063 24.974,9.235 24.981 L 10.283 24.987 10.515 24.826 C 10.782 24.641,10.987 24.282,10.985 24.002 C 10.983 23.631,10.710 23.221,10.383 23.097 C 10.300 23.065,9.736 23.016,9.130 22.987 C 8.333 22.949,7.923 22.905,7.653 22.830 C 6.195 22.423,5.057 21.539,4.462 20.347 C 4.140 19.702,4.092 19.503,4.065 18.703 C 4.035 17.776,4.095 17.455,4.425 16.771 C 4.870 15.851,5.276 15.406,6.293 14.719 C 6.543 14.551,6.787 14.369,6.836 14.313 C 6.885 14.258,7.012 13.917,7.118 13.554 C 7.423 12.514,7.851 11.760,8.445 11.217 C 9.237 10.493,10.130 10.114,11.200 10.048 C 11.841 10.008,12.415 10.083,13.093 10.295 C 13.701 10.484,14.022 10.487,14.280 10.303 C 14.368 10.240,14.590 9.970,14.773 9.703 C 15.239 9.022,15.576 8.631,15.990 8.289 C 16.684 7.716,17.515 7.318,18.400 7.134 C 19.131 6.983,20.307 7.022,20.975 7.221 C 21.957 7.513,22.753 7.987,23.417 8.675 C 24.116 9.398,24.564 10.187,24.808 11.120 C 24.922 11.555,24.933 11.712,24.933 12.800 C 24.933 14.316,24.892 14.225,25.867 14.839 C 26.326 15.128,26.798 15.548,27.069 15.907 C 27.375 16.314,27.812 17.211,27.889 17.589 C 27.975 18.013,27.961 19.120,27.865 19.495 C 27.527 20.811,26.412 22.044,25.068 22.590 C 24.414 22.856,24.001 22.928,22.809 22.985 C 21.702 23.038,21.676 23.042,21.467 23.187 C 20.999 23.511,20.877 24.162,21.207 24.570 C 21.515 24.950,21.657 24.987,22.773 24.981 C 23.912 24.974,24.491 24.890,25.325 24.611 C 27.585 23.855,29.231 22.162,29.797 20.009 C 29.997 19.251,30.027 18.109,29.868 17.333 C 29.536 15.713,28.629 14.335,27.236 13.334 L 26.987 13.155 26.987 12.544 C 26.987 10.493,26.238 8.689,24.776 7.221 C 23.634 6.074,22.156 5.312,20.712 5.126 C 19.948 5.028,18.887 5.013,18.427 5.093 M15.574 15.097 C 15.424 15.160,12.311 18.237,11.546 19.079 C 10.993 19.686,10.923 19.855,11.048 20.273 C 11.186 20.732,11.731 21.079,12.168 20.986 C 12.437 20.929,12.620 20.774,13.853 19.553 L 14.987 18.432 14.987 22.825 L 14.987 27.217 15.153 27.476 C 15.404 27.867,15.584 27.973,16.000 27.973 C 16.416 27.973,16.596 27.867,16.847 27.476 L 17.013 27.217 17.013 22.827 L 17.013 18.437 18.206 19.614 C 19.502 20.892,19.707 21.042,20.095 20.998 C 20.814 20.917,21.240 20.035,20.826 19.486 C 20.633 19.230,17.280 15.841,16.779 15.396 C 16.415 15.072,16.409 15.069,16.059 15.055 C 15.865 15.048,15.647 15.066,15.574 15.097 " fill="var(--db-icon-color, currentColor)" stroke="none" fill-rule="evenodd"></path></svg>