<svg id="icon" height="16" viewBox="0 0 16 16" width="16" xmlns="http://www.w3.org/2000/svg"><path d="M6.987 2.094 C 5.761 2.308,4.668 2.880,3.772 3.773 C 2.846 4.697,2.283 5.794,2.063 7.107 C 2.001 7.481,2.001 8.519,2.063 8.893 C 2.281 10.190,2.841 11.292,3.746 12.202 C 4.552 13.012,5.453 13.533,6.533 13.812 C 7.081 13.954,7.314 13.981,8.000 13.981 C 8.690 13.981,8.919 13.954,9.480 13.809 C 10.553 13.530,11.443 13.015,12.254 12.201 C 13.157 11.296,13.722 10.184,13.936 8.893 C 13.998 8.520,13.998 7.479,13.936 7.107 C 13.682 5.578,12.923 4.285,11.699 3.294 C 11.051 2.769,10.072 2.308,9.240 2.137 C 8.818 2.050,8.535 2.027,7.920 2.029 C 7.442 2.030,7.287 2.041,6.987 2.094 M8.367 3.658 C 8.521 3.716,8.738 3.875,8.820 3.991 C 8.963 4.194,8.987 4.278,8.987 4.580 C 8.987 4.840,8.979 4.884,8.916 5.012 C 8.770 5.304,8.444 5.547,8.147 5.583 C 7.967 5.605,7.706 5.564,7.552 5.490 C 7.385 5.410,7.178 5.193,7.084 5.003 C 7.013 4.856,7.009 4.832,7.018 4.550 C 7.029 4.199,7.064 4.108,7.268 3.903 C 7.416 3.754,7.621 3.636,7.796 3.600 C 7.945 3.569,8.196 3.595,8.367 3.658 M8.800 9.413 L 8.800 11.813 8.000 11.813 L 7.200 11.813 7.200 9.413 L 7.200 7.013 8.000 7.013 L 8.800 7.013 8.800 9.413 " fill="var(--db-icon-color, currentColor)" stroke="none" fill-rule="evenodd"></path></svg>