<svg id="icon" height="24" viewBox="0 0 24 24" width="24" xmlns="http://www.w3.org/2000/svg"><path d="M8.670 4.056 C 8.447 4.137,8.256 4.299,8.132 4.510 C 8.027 4.690,8.021 4.725,8.006 5.344 L 7.991 5.990 7.025 6.012 C 6.348 6.027,6.000 6.051,5.860 6.092 C 5.030 6.337,4.466 6.865,4.145 7.696 L 4.020 8.020 4.020 12.980 C 4.020 17.706,4.024 17.951,4.095 18.180 C 4.352 19.008,4.992 19.648,5.820 19.905 C 6.050 19.977,6.318 19.980,12.000 19.980 C 17.682 19.980,17.950 19.977,18.180 19.905 C 19.008 19.648,19.648 19.008,19.905 18.180 C 19.976 17.951,19.980 17.706,19.980 13.000 C 19.980 8.294,19.976 8.049,19.905 7.820 C 19.643 6.975,18.989 6.332,18.149 6.093 C 18.003 6.051,17.649 6.027,16.970 6.011 L 16.000 5.989 16.000 5.477 C 16.000 5.195,15.981 4.874,15.957 4.764 C 15.860 4.311,15.483 4.025,14.980 4.025 C 14.661 4.025,14.504 4.088,14.269 4.314 C 14.051 4.522,14.000 4.734,14.000 5.427 L 14.000 6.000 12.005 6.000 L 10.009 6.000 9.994 5.349 C 9.979 4.725,9.973 4.690,9.868 4.510 C 9.755 4.317,9.574 4.154,9.400 4.088 C 9.207 4.015,8.827 3.998,8.670 4.056 M17.856 8.158 L 17.971 8.273 17.991 9.136 L 18.011 10.000 12.006 10.000 L 6.000 10.000 6.002 9.390 C 6.005 8.558,6.041 8.261,6.153 8.149 C 6.239 8.063,6.275 8.059,7.331 8.036 C 7.930 8.022,10.517 8.018,13.080 8.027 L 17.740 8.043 17.856 8.158 M17.991 14.883 L 17.969 17.727 17.837 17.863 L 17.704 18.000 12.000 18.000 L 6.296 18.000 6.163 17.863 L 6.030 17.726 6.009 14.883 L 5.988 12.040 12.000 12.040 L 18.012 12.040 17.991 14.883 M15.695 14.062 C 14.999 14.319,14.807 15.215,15.338 15.730 C 15.910 16.286,16.905 15.910,16.988 15.107 C 17.060 14.407,16.340 13.824,15.695 14.062 M7.560 14.109 C 7.050 14.367,6.853 15.015,7.138 15.501 C 7.580 16.254,8.698 16.100,8.944 15.251 C 9.060 14.854,8.885 14.417,8.513 14.171 C 8.371 14.076,8.298 14.058,8.023 14.049 C 7.777 14.040,7.667 14.055,7.560 14.109 M11.498 14.157 C 10.724 14.601,10.908 15.768,11.783 15.964 C 12.366 16.095,12.927 15.695,12.988 15.107 C 13.017 14.820,12.920 14.531,12.726 14.331 C 12.509 14.107,12.340 14.040,11.994 14.040 C 11.743 14.041,11.670 14.058,11.498 14.157 " fill="var(--db-icon-color, currentColor)" stroke="none" fill-rule="evenodd"></path></svg>