<svg id="icon" height="32" viewBox="0 0 32 32" width="32" xmlns="http://www.w3.org/2000/svg"><path d="M15.140 2.078 C 14.313 2.184,13.516 2.490,12.725 3.005 C 11.196 4.002,10.278 5.521,10.023 7.475 L 9.956 7.991 8.321 8.009 L 6.685 8.027 6.469 8.170 C 6.062 8.439,6.030 8.574,5.917 10.468 C 5.735 13.498,5.275 22.455,5.067 27.000 C 5.013 28.163,5.016 28.222,5.117 28.420 C 5.239 28.659,5.492 28.889,5.697 28.947 C 5.776 28.969,10.440 28.987,16.062 28.987 L 26.284 28.987 26.515 28.824 C 26.643 28.735,26.801 28.563,26.868 28.443 L 26.989 28.224 26.907 26.445 C 26.700 21.953,26.198 12.287,26.053 10.006 C 25.965 8.610,25.912 8.422,25.531 8.170 L 25.315 8.027 23.679 8.009 L 22.044 7.991 21.977 7.475 C 21.777 5.947,21.283 4.876,20.308 3.861 C 19.553 3.074,18.444 2.431,17.421 2.185 C 16.922 2.065,15.694 2.007,15.140 2.078 M17.361 4.256 C 18.206 4.590,19.019 5.258,19.406 5.933 C 19.711 6.466,20.000 7.410,20.000 7.871 L 20.000 8.000 15.994 8.000 L 11.988 8.000 12.026 7.645 C 12.083 7.113,12.186 6.772,12.450 6.246 C 12.961 5.229,13.764 4.537,14.852 4.177 C 15.193 4.064,15.303 4.054,16.080 4.069 C 16.894 4.085,16.953 4.094,17.361 4.256 M24.017 10.080 C 24.031 10.095,24.237 13.827,24.474 18.373 C 24.712 22.920,24.916 26.718,24.929 26.813 L 24.953 26.987 15.998 26.987 L 7.042 26.987 7.070 26.760 C 7.095 26.555,7.947 10.464,7.947 10.197 C 7.947 10.093,7.981 10.083,8.387 10.065 C 9.062 10.035,23.988 10.050,24.017 10.080 M10.715 12.048 C 10.154 12.229,9.925 12.745,10.028 13.590 C 10.202 15.023,10.783 16.230,11.782 17.234 C 12.552 18.007,13.444 18.515,14.556 18.815 C 15.013 18.938,15.165 18.953,16.000 18.953 C 16.838 18.953,16.986 18.938,17.449 18.814 C 18.560 18.515,19.441 18.006,20.241 17.203 C 21.302 16.137,21.888 14.842,21.958 13.410 C 21.984 12.893,21.974 12.790,21.878 12.574 C 21.641 12.037,20.956 11.849,20.473 12.188 C 20.142 12.421,20.066 12.590,19.973 13.303 C 19.875 14.049,19.747 14.462,19.467 14.933 C 19.034 15.663,18.425 16.251,17.786 16.557 C 17.073 16.898,16.907 16.933,16.000 16.933 C 15.087 16.933,14.900 16.893,14.221 16.553 C 13.541 16.213,13.089 15.805,12.664 15.148 C 12.302 14.588,12.164 14.197,12.047 13.393 C 11.986 12.979,11.901 12.598,11.848 12.507 C 11.637 12.147,11.093 11.926,10.715 12.048 " fill="var(--db-icon-color, currentColor)" stroke="none" fill-rule="evenodd"></path></svg>