<svg id="icon" height="24" viewBox="0 0 24 24" width="24" xmlns="http://www.w3.org/2000/svg"><path d="M5.916 3.035 L 4.892 3.060 4.496 3.256 C 4.170 3.418,4.043 3.509,3.776 3.776 C 3.424 4.129,3.186 4.508,3.086 4.876 C 3.032 5.072,3.023 5.954,3.010 11.980 L 2.997 18.860 3.102 19.160 C 3.248 19.575,3.409 19.844,3.695 20.151 C 4.006 20.485,4.433 20.765,4.835 20.898 L 5.151 21.003 12.005 20.988 C 17.056 20.977,18.913 20.961,19.060 20.927 C 19.859 20.739,20.739 19.859,20.927 19.060 C 20.961 18.913,20.977 17.056,20.988 12.005 L 21.003 5.151 20.917 4.885 C 20.662 4.099,20.028 3.427,19.276 3.145 L 19.012 3.045 12.976 3.027 C 9.656 3.017,6.479 3.021,5.916 3.035 M18.051 5.026 L 18.681 5.053 18.825 5.177 L 18.970 5.302 18.990 9.441 L 19.010 13.580 17.812 12.394 C 17.052 11.643,16.549 11.175,16.437 11.118 C 16.169 10.981,15.747 10.985,15.531 11.128 C 15.444 11.186,14.568 12.030,13.585 13.003 L 11.798 14.772 10.349 14.060 C 8.399 13.101,8.231 13.028,7.960 13.024 C 7.697 13.019,7.592 13.079,6.010 14.128 L 4.988 14.806 5.010 10.058 L 5.032 5.310 5.157 5.185 L 5.281 5.060 6.211 5.039 C 7.607 5.006,17.326 4.996,18.051 5.026 M8.621 7.043 C 8.063 7.136,7.487 7.586,7.204 8.150 C 6.593 9.367,7.477 10.883,8.860 10.987 C 10.171 11.086,11.266 9.798,10.939 8.542 C 10.670 7.510,9.675 6.866,8.621 7.043 M17.513 14.933 L 19.005 16.425 18.992 17.523 C 18.981 18.538,18.974 18.630,18.899 18.757 C 18.854 18.834,18.766 18.913,18.699 18.936 C 18.620 18.963,16.343 18.981,11.960 18.990 L 5.339 19.003 5.183 18.843 L 5.027 18.683 5.008 17.945 L 4.990 17.207 6.529 16.181 L 8.069 15.154 9.932 16.086 L 11.794 17.017 12.097 16.973 C 12.355 16.936,12.429 16.907,12.590 16.776 C 12.695 16.692,13.500 15.907,14.380 15.032 C 15.260 14.158,15.989 13.441,16.000 13.441 C 16.011 13.440,16.692 14.112,17.513 14.933 " fill="var(--db-icon-color, currentColor)" stroke="none" fill-rule="evenodd"></path></svg>