<svg id="icon" height="24" viewBox="0 0 24 24" width="24" xmlns="http://www.w3.org/2000/svg"><path d="M11.320 2.027 C 10.705 2.071,9.659 2.265,9.085 2.441 C 6.453 3.251,4.230 5.141,3.041 7.580 C 2.232 9.240,1.927 10.793,2.038 12.694 C 2.130 14.281,2.647 15.877,3.530 17.300 C 4.979 19.637,7.361 21.267,10.140 21.824 C 10.824 21.961,11.834 22.018,12.669 21.967 C 15.444 21.795,18.022 20.443,19.812 18.220 C 21.083 16.642,21.844 14.687,21.963 12.692 C 22.056 11.118,21.844 9.727,21.299 8.335 C 20.321 5.840,18.239 3.738,15.760 2.739 C 14.679 2.304,13.687 2.097,12.402 2.040 C 11.928 2.018,11.531 2.004,11.520 2.008 C 11.509 2.011,11.419 2.020,11.320 2.027 M12.408 4.041 C 13.581 4.106,14.407 4.310,15.380 4.777 C 16.297 5.217,16.954 5.675,17.621 6.340 C 19.717 8.428,20.484 11.413,19.657 14.265 C 19.350 15.326,18.721 16.462,17.982 17.292 C 16.747 18.680,15.196 19.543,13.320 19.889 C 12.658 20.011,11.341 20.011,10.680 19.889 C 9.198 19.615,7.964 19.036,6.830 18.083 C 5.500 16.964,4.527 15.313,4.153 13.539 C 4.069 13.142,4.060 12.996,4.060 12.020 C 4.060 11.056,4.070 10.892,4.151 10.493 C 4.428 9.123,5.072 7.817,5.991 6.756 C 7.275 5.276,9.022 4.342,10.998 4.080 C 11.666 3.991,11.561 3.994,12.408 4.041 M11.390 6.283 C 10.505 6.377,9.785 6.720,9.595 7.140 C 9.511 7.323,9.498 7.658,9.566 7.883 C 9.673 8.240,10.014 8.480,10.415 8.480 C 10.543 8.480,10.900 8.417,11.224 8.337 C 11.764 8.204,11.841 8.195,12.316 8.207 C 12.803 8.219,12.836 8.226,13.020 8.340 C 13.285 8.505,13.381 8.697,13.378 9.060 C 13.374 9.608,13.133 9.936,12.259 10.580 C 11.589 11.075,11.236 11.436,11.062 11.805 C 10.874 12.202,10.800 12.513,10.800 12.898 C 10.801 13.338,10.851 13.491,11.073 13.719 C 11.417 14.075,11.921 14.125,12.311 13.842 C 12.534 13.680,12.635 13.494,12.716 13.091 C 12.755 12.898,12.816 12.684,12.852 12.615 C 12.938 12.450,13.249 12.174,13.740 11.827 C 13.960 11.672,14.296 11.389,14.486 11.198 C 14.777 10.907,14.861 10.792,15.013 10.476 C 15.248 9.988,15.337 9.583,15.336 9.020 C 15.334 8.223,15.107 7.656,14.584 7.140 C 14.406 6.964,14.157 6.759,14.030 6.685 C 13.387 6.308,12.473 6.169,11.390 6.283 M11.445 15.603 C 11.240 15.670,11.141 15.734,10.938 15.933 C 10.728 16.139,10.675 16.220,10.618 16.418 C 10.480 16.899,10.622 17.396,10.990 17.720 C 11.239 17.940,11.420 18.014,11.747 18.033 C 12.296 18.063,12.729 17.816,12.963 17.339 C 13.217 16.825,13.110 16.249,12.694 15.883 C 12.344 15.575,11.864 15.467,11.445 15.603 " fill="var(--db-icon-color, currentColor)" stroke="none" fill-rule="evenodd"></path></svg>