<svg id="icon" height="20" viewBox="0 0 20 20" width="20" xmlns="http://www.w3.org/2000/svg"><path d="M5.783 3.034 C 5.318 3.061,5.098 3.118,4.681 3.320 C 3.921 3.688,3.409 4.303,3.101 5.215 L 3.000 5.513 3.000 9.998 L 2.999 14.483 3.123 14.847 C 3.473 15.873,4.160 16.553,5.178 16.882 L 5.551 17.003 6.901 16.993 L 8.250 16.983 8.415 16.901 C 8.781 16.720,8.977 16.408,8.981 16.000 C 8.983 15.790,8.968 15.719,8.889 15.559 C 8.794 15.364,8.620 15.194,8.400 15.082 C 8.296 15.028,8.153 15.021,7.033 15.008 L 5.783 14.995 5.604 14.909 C 5.414 14.819,5.195 14.618,5.111 14.457 C 5.010 14.261,4.992 13.357,5.011 9.473 L 5.029 5.697 5.112 5.555 C 5.217 5.377,5.467 5.144,5.625 5.078 C 5.721 5.038,6.000 5.023,7.014 5.003 C 8.234 4.979,8.289 4.975,8.426 4.904 C 8.749 4.738,8.969 4.419,8.977 4.104 C 8.989 3.663,8.871 3.403,8.563 3.191 C 8.406 3.082,8.343 3.061,8.099 3.033 C 7.786 2.997,6.407 2.998,5.783 3.034 M13.800 6.031 C 13.508 6.091,13.235 6.308,13.099 6.587 C 13.037 6.714,13.019 6.806,13.018 7.000 C 13.016 7.389,13.070 7.471,13.874 8.287 L 14.567 8.990 11.640 9.007 C 8.936 9.023,8.705 9.029,8.598 9.083 C 8.381 9.194,8.206 9.364,8.111 9.559 C 7.985 9.815,7.981 10.166,8.101 10.415 C 8.202 10.625,8.396 10.820,8.595 10.912 C 8.749 10.983,8.763 10.983,11.662 10.993 L 14.574 11.002 13.945 11.643 C 13.130 12.474,13.075 12.542,13.031 12.783 C 12.911 13.432,13.349 13.983,13.983 13.983 C 14.430 13.983,14.402 14.005,15.829 12.587 C 17.516 10.911,17.884 10.512,17.950 10.290 C 18.049 9.958,17.985 9.648,17.760 9.361 C 17.582 9.134,15.820 7.352,15.104 6.676 C 14.772 6.361,14.505 6.136,14.421 6.100 C 14.258 6.030,13.963 5.997,13.800 6.031 " fill="var(--db-icon-color, currentColor)" stroke="none" fill-rule="evenodd"></path></svg>