<svg id="icon" height="32" viewBox="0 0 32 32" width="32" xmlns="http://www.w3.org/2000/svg"><path d="M14.347 2.112 C 12.071 2.412,10.105 3.141,8.256 4.370 C 5.009 6.529,2.881 9.821,2.186 13.760 C 2.037 14.606,1.982 16.476,2.078 17.420 C 2.337 19.975,3.311 22.419,4.901 24.507 C 5.384 25.141,6.671 26.450,7.307 26.953 C 9.028 28.314,10.967 29.221,13.177 29.699 C 14.698 30.028,16.754 30.072,18.267 29.809 C 20.415 29.434,22.552 28.545,24.161 27.357 C 27.503 24.889,29.551 21.320,29.924 17.313 C 30.003 16.468,29.959 14.694,29.842 13.956 C 29.363 10.947,28.139 8.473,26.056 6.304 C 24.295 4.470,21.991 3.114,19.565 2.485 C 18.463 2.199,18.020 2.135,16.737 2.080 C 15.264 2.016,15.047 2.019,14.347 2.112 M16.461 8.241 C 16.708 8.342,17.045 8.669,17.170 8.927 C 17.325 9.248,17.325 9.953,17.170 10.274 C 16.833 10.969,15.907 11.270,15.189 10.917 C 14.887 10.769,14.657 10.535,14.487 10.203 C 14.367 9.968,14.367 9.231,14.488 8.997 C 14.710 8.566,15.068 8.257,15.454 8.163 C 15.694 8.104,16.229 8.145,16.461 8.241 M16.555 13.214 C 16.986 13.516,16.963 13.301,16.999 17.377 L 17.030 21.001 18.182 21.024 C 19.136 21.043,19.363 21.062,19.507 21.138 C 20.088 21.445,20.105 22.480,19.535 22.835 L 19.333 22.960 16.000 22.960 L 12.667 22.960 12.465 22.835 C 12.186 22.661,12.053 22.379,12.053 21.961 C 12.053 21.689,12.079 21.587,12.188 21.426 C 12.428 21.073,12.526 21.049,13.827 21.023 L 14.987 21.000 14.987 18.132 L 14.987 15.263 13.987 15.245 C 13.116 15.229,12.959 15.213,12.774 15.120 C 12.220 14.842,12.106 14.049,12.550 13.566 C 12.772 13.325,12.971 13.283,13.909 13.281 C 14.618 13.280,14.832 13.254,15.680 13.062 C 15.984 12.994,16.327 13.053,16.555 13.214 " fill="var(--db-icon-color, currentColor)" stroke="none" fill-rule="evenodd"></path></svg>