<svg id="icon" height="24" viewBox="0 0 24 24" width="24" xmlns="http://www.w3.org/2000/svg"><path d="M8.812 2.040 C 6.509 2.283,4.489 3.506,3.229 5.420 C 1.913 7.418,1.642 9.936,2.501 12.168 C 3.562 14.923,6.027 16.755,9.008 17.005 C 10.458 17.127,12.177 16.703,13.480 15.902 C 13.689 15.773,13.918 15.633,13.989 15.591 L 14.118 15.513 17.314 18.691 C 20.165 21.526,20.531 21.876,20.702 21.935 C 20.939 22.015,21.050 22.016,21.304 21.941 C 21.744 21.811,21.984 21.455,21.975 20.950 C 21.971 20.722,21.953 20.653,21.855 20.513 C 21.792 20.421,20.340 18.938,18.629 17.217 L 15.518 14.087 15.762 13.714 C 17.546 10.978,17.433 7.525,15.475 4.954 C 14.569 3.764,13.104 2.757,11.649 2.325 C 10.818 2.078,9.605 1.956,8.812 2.040 M10.776 4.156 C 10.972 4.202,11.324 4.317,11.559 4.412 C 13.270 5.107,14.487 6.544,14.904 8.360 C 15.003 8.788,15.023 9.911,14.942 10.405 C 14.609 12.430,13.174 14.101,11.217 14.742 C 10.524 14.969,10.207 15.011,9.341 14.989 C 8.680 14.972,8.528 14.956,8.180 14.863 C 6.332 14.367,4.904 13.032,4.286 11.220 C 4.078 10.610,4.028 10.208,4.053 9.340 C 4.082 8.302,4.189 7.856,4.610 7.020 C 5.119 6.010,5.996 5.136,7.028 4.610 C 7.560 4.338,8.013 4.189,8.680 4.065 C 8.735 4.054,9.149 4.052,9.600 4.060 C 10.253 4.071,10.493 4.090,10.776 4.156 " fill="var(--db-icon-color, currentColor)" stroke="none" fill-rule="evenodd"></path></svg>