<svg id="icon" height="20" viewBox="0 0 20 20" width="20" xmlns="http://www.w3.org/2000/svg"><path d="M4.333 4.033 C 3.579 4.052,3.542 4.056,3.333 4.143 C 2.751 4.387,2.314 4.852,2.110 5.444 L 2.017 5.717 2.017 6.983 C 2.017 8.374,2.010 8.321,2.229 8.622 C 2.362 8.806,2.659 8.948,3.043 9.012 C 3.515 9.091,3.840 9.327,3.932 9.659 C 3.976 9.819,3.976 10.181,3.932 10.341 C 3.839 10.674,3.472 10.935,3.000 11.002 C 2.663 11.049,2.360 11.197,2.229 11.378 C 2.010 11.679,2.017 11.626,2.017 13.017 L 2.017 14.283 2.110 14.556 C 2.331 15.199,2.801 15.669,3.444 15.890 L 3.717 15.983 10.000 15.983 L 16.283 15.983 16.556 15.890 C 17.199 15.669,17.669 15.199,17.890 14.556 L 17.983 14.283 17.983 13.017 C 17.983 11.626,17.990 11.679,17.771 11.378 C 17.643 11.202,17.337 11.050,17.014 11.003 C 16.522 10.930,16.298 10.790,16.130 10.447 C 15.950 10.083,15.994 9.682,16.251 9.346 C 16.364 9.197,16.695 9.045,17.000 9.001 C 17.335 8.953,17.639 8.804,17.771 8.622 C 17.990 8.321,17.983 8.375,17.983 6.967 L 17.983 5.683 17.879 5.413 C 17.683 4.905,17.385 4.544,16.953 4.292 C 16.606 4.089,16.495 4.066,15.717 4.032 C 14.960 4.000,5.619 4.000,4.333 4.033 M15.957 6.046 C 15.968 6.056,15.983 6.313,15.993 6.616 L 16.009 7.166 15.817 7.251 C 15.271 7.493,14.687 8.013,14.404 8.512 C 13.879 9.435,13.879 10.565,14.404 11.488 C 14.682 11.977,15.213 12.461,15.775 12.737 L 16.000 12.848 16.000 13.199 C 16.000 13.392,15.990 13.651,15.978 13.775 L 15.957 14.000 10.000 14.000 L 4.043 14.000 4.022 13.775 C 4.010 13.651,4.000 13.392,4.000 13.199 L 4.000 12.848 4.222 12.738 C 4.572 12.565,4.798 12.408,5.062 12.154 C 5.363 11.863,5.565 11.586,5.719 11.251 C 5.915 10.827,5.973 10.550,5.974 10.017 C 5.976 9.496,5.932 9.252,5.764 8.848 C 5.484 8.175,4.871 7.555,4.186 7.253 L 3.998 7.170 4.008 6.610 L 4.017 6.050 4.400 6.029 C 4.866 6.004,15.931 6.020,15.957 6.046 M7.767 7.030 C 7.503 7.085,7.239 7.298,7.111 7.559 C 7.031 7.720,7.017 7.792,7.017 8.017 C 7.017 8.250,7.029 8.306,7.116 8.462 C 7.314 8.820,7.672 9.019,8.067 8.992 C 8.330 8.973,8.522 8.882,8.716 8.682 C 8.930 8.463,8.983 8.330,8.982 8.017 C 8.982 7.715,8.917 7.530,8.736 7.325 C 8.535 7.096,8.093 6.961,7.767 7.030 M9.283 9.300 L 7.084 11.500 7.792 12.208 L 8.500 12.917 10.708 10.708 L 12.916 8.500 12.217 7.800 C 11.832 7.415,11.510 7.100,11.500 7.100 C 11.491 7.100,10.493 8.090,9.283 9.300 M11.800 11.029 C 11.364 11.173,11.064 11.550,11.057 11.962 C 11.050 12.360,11.289 12.746,11.641 12.903 C 11.895 13.017,12.253 13.012,12.483 12.893 C 12.934 12.658,13.140 12.181,13.002 11.690 C 12.943 11.480,12.717 11.229,12.482 11.115 C 12.289 11.020,11.955 10.978,11.800 11.029 " fill="var(--db-icon-color, currentColor)" stroke="none" fill-rule="evenodd"></path></svg>