<svg id="icon" height="20" viewBox="0 0 20 20" width="20" xmlns="http://www.w3.org/2000/svg"><path d="M9.339 3.037 C 7.945 3.161,6.741 3.593,5.517 4.410 C 4.645 4.992,3.784 5.886,3.225 6.789 C 1.749 9.176,1.602 12.044,2.835 14.394 C 3.065 14.832,3.374 15.305,3.677 15.683 C 4.009 16.096,4.760 16.809,4.974 16.914 L 5.156 17.003 9.986 16.991 C 13.362 16.983,14.855 16.968,14.944 16.943 C 15.133 16.888,15.306 16.756,15.697 16.365 C 16.747 15.318,17.467 14.072,17.786 12.750 C 18.327 10.502,17.802 8.098,16.347 6.167 C 16.075 5.806,15.407 5.118,15.033 4.813 C 14.470 4.354,13.541 3.812,12.847 3.537 C 11.826 3.133,10.457 2.937,9.339 3.037 M13.978 6.642 C 14.314 6.821,14.460 7.081,14.464 7.510 C 14.468 7.935,14.477 7.924,13.028 9.384 L 11.936 10.485 11.973 10.784 C 12.005 11.036,12.002 11.126,11.956 11.350 C 11.792 12.149,11.188 12.773,10.410 12.946 C 9.973 13.044,9.555 12.991,9.115 12.782 C 8.844 12.654,8.500 12.340,8.318 12.054 C 8.056 11.645,7.953 11.102,8.048 10.633 C 8.259 9.591,9.283 8.857,10.282 9.031 L 10.508 9.070 11.629 7.958 C 12.732 6.865,13.036 6.592,13.223 6.532 C 13.404 6.474,13.759 6.525,13.978 6.642 " fill="var(--db-icon-color, currentColor)" stroke="none" fill-rule="evenodd"></path></svg>