<svg id="icon" height="24" viewBox="0 0 24 24" width="24" xmlns="http://www.w3.org/2000/svg"><path d="M11.078 3.060 C 9.848 3.209,8.988 3.464,7.940 3.990 C 7.026 4.450,6.304 4.981,5.557 5.746 C 3.305 8.050,2.464 11.369,3.348 14.460 C 4.062 16.957,5.924 19.127,8.246 20.166 C 9.610 20.777,10.903 21.039,12.300 20.988 C 16.060 20.851,19.315 18.422,20.516 14.858 C 21.158 12.953,21.159 11.050,20.521 9.160 C 20.065 7.807,19.417 6.743,18.443 5.746 C 17.703 4.988,17.012 4.478,16.080 4.002 C 14.842 3.370,13.865 3.114,12.395 3.040 C 11.507 2.995,11.624 2.994,11.078 3.060 M12.606 5.042 C 15.101 5.294,17.162 6.696,18.240 8.873 C 18.755 9.911,18.978 10.865,18.974 12.000 C 18.970 12.982,18.818 13.770,18.463 14.640 C 18.289 15.066,17.866 15.846,17.682 16.080 L 17.604 16.180 13.039 11.620 C 10.528 9.112,8.330 6.903,8.154 6.711 L 7.834 6.363 8.126 6.173 C 9.471 5.304,11.107 4.890,12.606 5.042 M11.620 13.040 L 16.180 17.607 16.063 17.701 C 15.998 17.753,15.753 17.905,15.518 18.039 C 13.974 18.923,12.227 19.201,10.525 18.834 C 6.783 18.027,4.380 14.325,5.161 10.567 C 5.325 9.779,5.719 8.828,6.173 8.126 L 6.363 7.834 6.711 8.154 C 6.903 8.330,9.112 10.529,11.620 13.040 " fill="var(--db-icon-color, currentColor)" stroke="none" fill-rule="evenodd"></path></svg>