<svg id="icon" height="24" viewBox="0 0 24 24" width="24" xmlns="http://www.w3.org/2000/svg"><path d="M6.739 3.562 C 5.655 3.667,4.480 4.253,3.605 5.123 C 2.985 5.741,2.547 6.455,2.284 7.280 C 2.057 7.988,2.025 8.200,2.025 8.980 C 2.025 9.617,2.037 9.752,2.130 10.149 C 2.303 10.886,2.602 11.556,3.020 12.143 C 3.273 12.497,10.102 19.180,11.368 20.312 C 11.626 20.543,11.843 20.621,12.118 20.584 C 12.440 20.540,12.416 20.560,15.319 17.764 C 19.075 14.146,20.763 12.475,21.010 12.132 C 21.449 11.520,21.747 10.816,21.905 10.019 C 22.011 9.483,22.002 8.436,21.886 7.892 C 21.651 6.786,21.169 5.887,20.399 5.120 C 19.597 4.320,18.707 3.838,17.620 3.614 C 17.153 3.518,15.975 3.518,15.520 3.614 C 14.728 3.780,13.975 4.115,13.358 4.573 C 13.170 4.713,12.788 5.048,12.509 5.318 L 12.001 5.809 11.497 5.325 C 10.528 4.394,9.829 3.963,8.861 3.699 C 8.564 3.618,8.323 3.587,7.789 3.558 C 7.410 3.538,7.091 3.524,7.080 3.526 C 7.069 3.529,6.915 3.545,6.739 3.562 " fill="var(--db-icon-color, currentColor)" stroke="none" fill-rule="evenodd"></path></svg>