<svg id="icon" height="24" viewBox="0 0 24 24" width="24" xmlns="http://www.w3.org/2000/svg"><path d="M11.773 2.039 C 11.547 2.073,11.309 2.247,11.151 2.494 L 11.020 2.698 11.007 3.384 L 10.994 4.071 10.747 4.117 C 9.838 4.288,8.894 4.754,8.215 5.366 C 7.257 6.229,6.674 7.229,6.301 8.650 C 6.061 9.562,6.044 9.765,5.999 12.240 C 5.958 14.580,5.928 15.107,5.817 15.480 C 5.641 16.068,5.257 16.581,4.660 17.024 C 4.327 17.271,4.195 17.410,4.095 17.620 C 3.985 17.853,3.976 18.026,4.061 18.310 C 4.134 18.556,4.409 18.852,4.632 18.926 C 4.738 18.961,5.348 18.979,6.790 18.990 L 8.800 19.005 8.800 19.142 C 8.800 19.297,9.008 19.977,9.130 20.220 C 9.412 20.784,9.993 21.351,10.580 21.638 C 11.128 21.907,11.429 21.977,12.020 21.978 C 12.921 21.978,13.678 21.658,14.322 21.003 C 14.785 20.533,15.152 19.820,15.223 19.252 C 15.237 19.136,15.252 19.039,15.255 19.037 C 15.258 19.035,16.169 19.020,17.280 19.003 C 19.537 18.969,19.420 18.984,19.722 18.673 C 20.003 18.384,20.070 17.930,19.884 17.570 C 19.797 17.401,19.651 17.256,19.294 16.987 C 18.655 16.505,18.282 15.956,18.136 15.283 C 18.069 14.976,18.004 13.486,18.000 12.200 C 17.996 10.834,17.939 9.904,17.822 9.269 C 17.701 8.622,17.440 7.799,17.187 7.274 C 16.405 5.644,14.973 4.492,13.320 4.160 C 13.177 4.131,13.052 4.101,13.042 4.093 C 13.032 4.084,13.012 3.786,12.997 3.429 C 12.968 2.707,12.935 2.586,12.701 2.327 C 12.490 2.092,12.140 1.984,11.773 2.039 M12.415 6.041 C 13.046 6.093,13.459 6.220,13.935 6.509 C 14.843 7.060,15.441 7.945,15.758 9.206 C 15.930 9.888,15.956 10.287,15.999 12.880 C 16.034 14.952,16.045 15.212,16.116 15.500 C 16.199 15.836,16.417 16.487,16.556 16.810 L 16.637 17.000 11.999 17.000 C 9.447 17.000,7.360 16.995,7.360 16.989 C 7.360 16.983,7.422 16.829,7.499 16.648 C 7.675 16.231,7.833 15.712,7.904 15.323 C 7.943 15.109,7.971 14.328,8.000 12.660 C 8.022 11.362,8.059 10.127,8.081 9.916 C 8.196 8.854,8.688 7.727,9.320 7.082 C 9.656 6.739,9.864 6.586,10.266 6.385 C 10.930 6.053,11.488 5.964,12.415 6.041 M13.218 19.090 C 13.174 19.239,12.960 19.553,12.826 19.666 C 12.373 20.048,11.675 20.063,11.249 19.699 C 11.086 19.559,10.870 19.251,10.822 19.090 L 10.795 19.000 12.020 19.000 L 13.245 19.000 13.218 19.090 " fill="var(--db-icon-color, currentColor)" stroke="none" fill-rule="evenodd"></path></svg>