<svg id="icon" height="32" viewBox="0 0 32 32" width="32" xmlns="http://www.w3.org/2000/svg"><path d="M19.973 2.082 C 18.295 2.220,16.447 3.050,15.008 4.311 C 13.621 5.526,12.578 7.316,12.186 9.149 C 11.950 10.260,11.982 12.027,12.259 13.124 L 12.414 13.733 7.153 19.013 C 4.260 21.917,1.778 24.429,1.638 24.595 C 1.430 24.840,1.377 24.945,1.351 25.165 C 1.324 25.391,1.341 25.469,1.454 25.663 C 1.596 25.903,2.750 27.058,4.417 28.629 C 6.422 30.516,6.545 30.606,7.022 30.535 C 7.241 30.502,7.331 30.432,8.071 29.719 C 8.516 29.290,10.993 26.831,13.576 24.254 C 18.203 19.637,18.274 19.569,18.422 19.625 C 18.785 19.763,19.950 19.954,20.606 19.983 C 22.584 20.071,24.600 19.470,26.239 18.306 C 26.889 17.845,27.873 16.860,28.332 16.213 C 29.000 15.270,29.566 13.969,29.825 12.781 C 29.927 12.312,29.943 12.077,29.944 11.013 C 29.945 9.663,29.880 9.201,29.544 8.187 C 29.308 7.476,29.197 7.306,28.857 7.133 C 28.478 6.941,28.293 6.947,27.969 7.158 C 27.825 7.253,26.872 8.158,25.851 9.170 L 23.996 11.009 22.494 9.507 L 20.992 8.005 22.840 6.142 C 23.856 5.117,24.761 4.163,24.851 4.022 C 25.038 3.728,25.053 3.530,24.912 3.227 C 24.708 2.786,24.334 2.579,23.225 2.293 C 22.760 2.173,22.407 2.123,21.722 2.082 C 20.753 2.023,20.691 2.023,19.973 2.082 M21.973 4.106 C 21.973 4.135,21.283 4.861,20.439 5.719 C 19.596 6.578,18.834 7.374,18.747 7.488 C 18.614 7.663,18.588 7.745,18.588 8.000 C 18.588 8.253,18.615 8.339,18.744 8.512 C 18.987 8.838,23.311 13.150,23.520 13.275 C 23.739 13.406,24.131 13.423,24.388 13.313 C 24.483 13.273,25.300 12.517,26.205 11.633 C 27.110 10.750,27.875 10.027,27.905 10.027 C 27.942 10.027,27.951 10.395,27.932 11.133 C 27.910 12.002,27.880 12.333,27.795 12.671 C 27.156 15.198,25.157 17.178,22.612 17.804 C 21.375 18.108,20.125 18.051,18.786 17.627 C 18.163 17.430,17.877 17.405,17.627 17.524 C 17.496 17.586,15.540 19.496,12.125 22.897 L 6.827 28.173 5.747 27.135 C 5.153 26.564,4.463 25.903,4.213 25.667 L 3.760 25.237 9.098 19.885 C 12.035 16.942,14.466 14.478,14.502 14.411 C 14.611 14.204,14.581 13.916,14.381 13.251 C 14.276 12.900,14.162 12.457,14.128 12.267 C 14.040 11.782,14.040 10.198,14.128 9.707 C 14.541 7.399,16.298 5.306,18.533 4.458 C 19.314 4.162,19.936 4.061,21.000 4.057 C 21.607 4.055,21.973 4.073,21.973 4.106 " fill="var(--db-icon-color, currentColor)" stroke="none" fill-rule="evenodd"></path></svg>