<svg id="icon" height="32" viewBox="0 0 32 32" width="32" xmlns="http://www.w3.org/2000/svg"><path d="M8.977 3.146 C 7.710 3.478,6.717 4.380,6.260 5.613 L 6.107 6.026 4.507 6.027 C 3.627 6.028,2.814 6.051,2.701 6.077 C 1.941 6.253,1.785 7.377,2.458 7.823 L 2.685 7.973 4.406 7.990 L 6.127 8.007 6.218 8.283 C 6.429 8.930,6.838 9.512,7.454 10.043 C 7.883 10.413,8.208 10.604,8.747 10.803 C 9.117 10.939,9.207 10.950,9.973 10.954 C 10.647 10.957,10.854 10.939,11.093 10.858 C 12.208 10.479,13.034 9.785,13.541 8.800 C 13.654 8.580,13.776 8.311,13.810 8.202 L 13.874 8.003 21.594 7.988 L 29.314 7.973 29.541 7.823 C 30.037 7.495,30.124 6.759,29.717 6.329 C 29.411 6.006,29.975 6.027,21.584 6.027 L 13.884 6.027 13.816 5.800 C 13.441 4.547,12.310 3.478,11.007 3.145 C 10.457 3.004,9.516 3.005,8.977 3.146 M10.849 5.219 C 12.088 5.808,12.355 7.404,11.379 8.394 C 10.600 9.184,9.409 9.187,8.624 8.402 C 7.676 7.454,7.916 5.842,9.093 5.239 C 9.474 5.044,9.627 5.014,10.102 5.041 C 10.423 5.059,10.602 5.102,10.849 5.219 M20.933 12.136 C 20.367 12.291,19.708 12.673,19.232 13.124 C 18.728 13.601,18.437 14.022,18.211 14.600 L 18.060 14.987 12.723 14.993 C 9.788 14.996,6.302 15.014,4.977 15.033 C 2.247 15.071,2.389 15.047,2.147 15.521 C 1.909 15.986,2.051 16.567,2.469 16.844 L 2.686 16.987 10.369 17.002 L 18.053 17.017 18.209 17.421 C 18.605 18.449,19.485 19.326,20.521 19.725 C 21.330 20.037,22.349 20.068,23.147 19.806 C 23.886 19.562,24.656 19.022,25.102 18.433 C 25.353 18.103,25.760 17.309,25.760 17.152 C 25.760 17.105,25.766 17.064,25.773 17.062 C 25.781 17.059,26.555 17.038,27.493 17.016 C 28.609 16.989,29.255 16.953,29.360 16.911 C 30.099 16.614,30.189 15.563,29.510 15.165 L 29.270 15.024 27.533 14.992 L 25.797 14.960 25.702 14.681 C 25.470 13.997,24.969 13.298,24.407 12.872 C 24.014 12.574,23.227 12.193,22.837 12.112 C 22.448 12.031,21.262 12.046,20.933 12.136 M22.469 14.106 C 22.636 14.150,22.865 14.243,22.977 14.314 C 23.293 14.513,23.662 14.959,23.787 15.293 C 23.904 15.606,23.940 16.143,23.866 16.484 C 23.755 16.998,23.283 17.570,22.773 17.809 C 22.519 17.928,22.409 17.947,21.947 17.947 C 21.479 17.947,21.376 17.929,21.107 17.803 C 20.730 17.626,20.340 17.241,20.147 16.853 C 20.014 16.587,20.000 16.503,20.000 15.994 C 20.000 15.489,20.015 15.402,20.138 15.170 C 20.632 14.240,21.487 13.850,22.469 14.106 M9.062 21.091 C 7.793 21.413,6.643 22.462,6.235 23.671 L 6.127 23.991 4.406 24.009 L 2.685 24.027 2.458 24.177 C 1.816 24.602,1.922 25.624,2.640 25.927 C 2.754 25.975,3.285 26.001,4.486 26.015 L 6.172 26.036 6.239 26.258 C 6.418 26.858,6.919 27.587,7.453 28.028 C 8.325 28.747,9.352 29.041,10.531 28.910 C 11.462 28.806,12.090 28.495,12.806 27.784 C 13.276 27.316,13.617 26.796,13.789 26.282 L 13.874 26.031 21.510 26.014 C 27.234 26.000,29.192 25.980,29.329 25.933 C 30.046 25.683,30.197 24.647,29.583 24.192 C 29.440 24.086,29.346 24.078,27.690 24.046 C 26.731 24.027,23.240 24.009,19.932 24.006 C 14.254 24.000,13.915 23.995,13.885 23.907 C 13.624 23.148,13.359 22.703,12.880 22.217 C 12.418 21.750,11.940 21.436,11.356 21.218 C 10.942 21.064,10.846 21.050,10.133 21.033 C 9.590 21.021,9.271 21.038,9.062 21.091 M10.877 23.185 C 11.229 23.354,11.561 23.676,11.782 24.061 C 11.938 24.334,11.946 24.374,11.946 24.953 C 11.947 25.531,11.939 25.573,11.777 25.876 C 11.478 26.438,10.930 26.830,10.283 26.943 C 9.915 27.008,9.399 26.905,9.037 26.694 C 8.752 26.527,8.413 26.154,8.243 25.820 C 8.121 25.579,8.107 25.488,8.107 24.960 C 8.107 24.464,8.125 24.333,8.220 24.145 C 8.476 23.636,8.887 23.267,9.403 23.083 C 9.795 22.942,10.472 22.989,10.877 23.185 " fill="var(--db-icon-color, currentColor)" stroke="none" fill-rule="evenodd"></path></svg>