<svg id="icon" height="20" viewBox="0 0 20 20" width="20" xmlns="http://www.w3.org/2000/svg"><path d="M16.789 2.036 C 16.669 2.065,10.567 4.505,5.583 6.516 C 4.373 7.005,3.180 7.486,2.932 7.586 C 2.444 7.783,2.279 7.894,2.152 8.111 C 2.058 8.272,1.997 8.597,2.024 8.796 C 2.048 8.974,2.214 9.249,2.378 9.381 C 2.481 9.464,3.068 9.671,5.509 10.485 L 8.513 11.487 9.515 14.489 C 10.274 16.765,10.540 17.521,10.613 17.616 C 10.809 17.871,11.203 18.032,11.510 17.983 C 11.732 17.948,11.982 17.819,12.081 17.690 C 12.280 17.428,12.504 16.886,15.382 9.700 C 17.612 4.134,17.964 3.233,17.991 3.031 C 18.014 2.858,17.921 2.571,17.784 2.391 C 17.579 2.123,17.114 1.957,16.789 2.036 M15.202 4.842 C 15.030 5.279,12.647 11.177,12.176 12.333 C 11.836 13.167,11.541 13.891,11.522 13.942 C 11.502 13.992,11.476 14.033,11.464 14.033 C 11.452 14.033,11.194 13.284,10.889 12.369 C 10.238 10.410,10.159 10.199,10.024 10.045 C 9.968 9.981,9.832 9.883,9.722 9.827 C 9.611 9.772,8.704 9.453,7.706 9.119 L 5.891 8.512 10.554 6.641 C 13.118 5.611,15.220 4.769,15.224 4.768 C 15.228 4.767,15.218 4.800,15.202 4.842 " fill="var(--db-icon-color, currentColor)" stroke="none" fill-rule="evenodd"></path></svg>