<svg id="icon" height="24" viewBox="0 0 24 24" width="24" xmlns="http://www.w3.org/2000/svg"><path d="M7.620 2.040 C 5.383 2.061,5.292 2.064,5.078 2.146 C 4.026 2.546,3.305 3.338,3.073 4.350 C 2.994 4.692,2.996 12.314,3.074 12.657 C 3.272 13.520,3.880 14.279,4.695 14.682 C 4.918 14.792,5.208 14.904,5.340 14.931 C 5.524 14.969,7.076 14.980,12.020 14.980 C 19.292 14.980,18.635 15.009,19.360 14.653 C 19.680 14.496,19.797 14.410,20.103 14.103 C 20.410 13.797,20.496 13.680,20.653 13.360 C 21.002 12.650,20.980 12.976,20.980 8.500 C 20.980 4.024,21.002 4.350,20.653 3.640 C 20.497 3.323,20.410 3.204,20.123 2.920 C 19.898 2.696,19.671 2.519,19.463 2.401 C 18.950 2.113,18.804 2.078,18.024 2.058 C 16.894 2.029,10.105 2.018,7.620 2.040 M18.429 4.110 C 18.671 4.240,18.869 4.453,18.928 4.650 C 19.002 4.891,19.004 12.102,18.931 12.340 C 18.872 12.533,18.676 12.779,18.515 12.863 C 18.450 12.896,18.213 12.940,17.988 12.960 C 17.455 13.009,6.545 13.009,6.012 12.960 C 5.787 12.940,5.550 12.896,5.485 12.863 C 5.324 12.779,5.128 12.533,5.069 12.340 C 4.996 12.102,4.998 4.891,5.072 4.649 C 5.132 4.452,5.318 4.224,5.496 4.131 C 5.701 4.025,6.587 4.010,12.600 4.015 L 18.260 4.020 18.429 4.110 M16.715 5.053 C 16.347 5.191,16.129 5.419,16.039 5.760 C 15.918 6.221,16.155 6.688,16.620 6.906 C 16.969 7.069,17.322 7.014,17.624 6.748 C 18.037 6.384,18.109 5.833,17.799 5.411 C 17.570 5.100,17.049 4.928,16.715 5.053 M8.160 9.035 C 7.714 9.057,7.640 9.072,7.477 9.167 C 6.988 9.455,6.864 10.106,7.208 10.585 C 7.382 10.828,7.539 10.914,7.886 10.959 C 8.270 11.009,13.730 11.009,14.114 10.959 C 14.461 10.914,14.618 10.828,14.792 10.585 C 15.148 10.089,15.003 9.430,14.474 9.140 L 14.260 9.023 11.460 9.017 C 9.920 9.013,8.435 9.022,8.160 9.035 M6.133 17.039 C 5.799 17.110,5.479 17.352,5.288 17.677 C 5.191 17.841,5.180 17.899,5.180 18.240 C 5.181 18.559,5.196 18.651,5.276 18.814 C 5.405 19.078,5.799 19.450,6.420 19.895 C 7.122 20.398,7.255 20.614,7.016 20.854 C 6.827 21.042,6.462 21.044,5.922 20.861 C 5.517 20.723,5.307 20.727,5.160 20.874 C 4.921 21.113,4.977 21.450,5.290 21.653 C 5.780 21.970,6.718 22.084,7.214 21.885 C 7.550 21.750,7.836 21.502,7.980 21.220 C 8.089 21.006,8.100 20.951,8.098 20.603 C 8.097 20.283,8.080 20.188,8.001 20.023 C 7.868 19.750,7.578 19.475,7.019 19.092 C 6.286 18.590,6.090 18.365,6.193 18.139 C 6.273 17.964,6.502 17.961,7.161 18.128 C 7.555 18.227,7.681 18.210,7.843 18.037 C 8.006 17.863,8.025 17.715,7.913 17.512 C 7.807 17.322,7.600 17.198,7.226 17.102 C 6.929 17.026,6.351 16.993,6.133 17.039 M8.939 17.026 C 8.774 17.061,8.634 17.216,8.598 17.401 C 8.579 17.500,8.563 18.508,8.562 19.642 L 8.560 21.704 8.712 21.852 L 8.863 22.000 10.124 22.000 L 11.385 22.000 11.488 21.890 C 11.699 21.663,11.734 21.469,11.602 21.253 C 11.468 21.033,11.418 21.023,10.450 21.007 L 9.560 20.992 9.560 20.456 L 9.560 19.920 10.130 19.918 C 10.899 19.916,11.110 19.838,11.205 19.519 C 11.242 19.397,11.237 19.346,11.178 19.221 C 11.050 18.951,10.950 18.920,10.210 18.920 L 9.560 18.920 9.560 18.460 L 9.560 18.000 10.436 18.000 L 11.312 18.000 11.434 17.861 C 11.659 17.605,11.638 17.290,11.385 17.109 C 11.263 17.022,11.229 17.020,10.140 17.014 C 9.524 17.011,8.983 17.016,8.939 17.026 M12.413 17.058 C 12.343 17.089,12.253 17.164,12.213 17.225 C 12.145 17.329,12.139 17.485,12.128 19.514 L 12.117 21.692 12.225 21.805 C 12.461 22.052,12.826 22.044,13.008 21.789 C 13.095 21.667,13.101 21.618,13.114 20.890 L 13.127 20.120 13.355 20.120 C 13.713 20.120,14.226 20.044,14.461 19.956 C 14.734 19.854,15.044 19.528,15.139 19.243 C 15.240 18.939,15.230 18.123,15.122 17.833 C 15.021 17.565,14.743 17.263,14.495 17.154 C 14.178 17.014,12.675 16.945,12.413 17.058 M16.750 17.063 C 16.690 17.096,16.605 17.191,16.562 17.276 C 16.393 17.608,15.313 20.424,15.062 21.190 C 14.968 21.475,14.960 21.538,15.000 21.659 C 15.091 21.936,15.419 22.073,15.668 21.938 C 15.818 21.858,15.966 21.583,16.201 20.950 L 16.331 20.600 16.902 20.600 L 17.473 20.600 17.622 21.050 C 17.821 21.651,17.931 21.863,18.086 21.943 C 18.329 22.069,18.673 21.923,18.761 21.658 C 18.802 21.534,18.790 21.462,18.658 21.029 C 18.425 20.262,17.525 17.605,17.413 17.352 C 17.269 17.030,17.015 16.919,16.750 17.063 M14.071 18.075 C 14.219 18.155,14.291 18.602,14.198 18.869 C 14.140 19.035,14.010 19.082,13.532 19.109 L 13.120 19.132 13.120 18.560 L 13.120 17.989 13.553 18.009 C 13.791 18.020,14.024 18.050,14.071 18.075 M17.035 19.285 C 17.081 19.420,17.109 19.546,17.097 19.565 C 17.075 19.600,16.720 19.616,16.720 19.581 C 16.720 19.571,16.753 19.477,16.794 19.371 C 16.834 19.266,16.879 19.148,16.892 19.110 C 16.906 19.072,16.925 19.040,16.935 19.040 C 16.945 19.040,16.990 19.150,17.035 19.285 " fill="var(--db-icon-color, currentColor)" stroke="none" fill-rule="evenodd"></path></svg>