<svg id="icon" height="24" viewBox="0 0 24 24" width="24" xmlns="http://www.w3.org/2000/svg"><path d="M11.120 2.043 C 10.245 2.126,9.232 2.360,8.471 2.655 C 5.375 3.853,3.085 6.434,2.303 9.607 C 2.114 10.376,2.042 10.891,2.013 11.680 C 1.920 14.253,2.860 16.799,4.606 18.704 C 6.222 20.468,8.244 21.544,10.620 21.905 C 11.283 22.006,12.711 22.007,13.360 21.908 C 15.460 21.585,17.229 20.747,18.745 19.353 C 20.468 17.771,21.560 15.708,21.906 13.379 C 22.005 12.716,22.005 11.287,21.907 10.627 C 21.815 10.013,21.594 9.134,21.392 8.585 C 20.139 5.172,17.066 2.647,13.553 2.141 C 12.691 2.017,11.782 1.980,11.120 2.043 M12.820 4.079 C 13.740 4.162,14.580 4.406,15.500 4.858 C 16.410 5.305,17.019 5.742,17.687 6.425 C 18.336 7.088,18.711 7.623,19.142 8.500 C 19.709 9.654,19.957 10.709,19.959 11.966 C 19.961 13.232,19.717 14.314,19.177 15.435 C 18.735 16.353,18.240 17.039,17.514 17.741 C 16.011 19.194,14.107 19.961,12.000 19.964 C 11.001 19.965,10.389 19.863,9.425 19.533 C 8.701 19.286,8.141 19.011,7.560 18.620 C 5.753 17.402,4.538 15.520,4.138 13.320 C 4.054 12.855,4.020 11.720,4.075 11.186 C 4.291 9.083,5.420 7.015,7.042 5.752 C 8.194 4.855,9.753 4.211,11.081 4.083 C 11.553 4.038,12.345 4.036,12.820 4.079 M11.748 7.039 C 11.530 7.081,11.280 7.277,11.130 7.523 L 11.000 7.736 11.000 9.364 L 11.000 10.992 9.370 11.007 C 7.558 11.024,7.599 11.018,7.303 11.305 C 7.082 11.520,7.024 11.661,7.027 11.980 C 7.030 12.423,7.162 12.663,7.520 12.874 L 7.700 12.980 9.346 12.992 L 10.993 13.004 11.007 14.652 C 11.021 16.244,11.025 16.305,11.107 16.460 C 11.293 16.807,11.574 16.967,12.000 16.967 C 12.426 16.967,12.708 16.807,12.892 16.460 C 12.974 16.306,12.978 16.241,12.993 14.654 L 13.008 13.007 14.654 12.993 C 16.244 12.979,16.305 12.975,16.460 12.893 C 16.810 12.706,16.967 12.426,16.972 11.981 C 16.976 11.660,16.919 11.520,16.697 11.305 C 16.401 11.018,16.442 11.024,14.634 11.007 L 13.007 10.992 12.994 9.346 L 12.980 7.700 12.872 7.516 C 12.762 7.329,12.560 7.148,12.393 7.086 C 12.245 7.031,11.913 7.007,11.748 7.039 " fill="var(--db-icon-color, currentColor)" stroke="none" fill-rule="evenodd"></path></svg>