<svg id="icon" height="20" viewBox="0 0 20 20" width="20" xmlns="http://www.w3.org/2000/svg"><path d="M9.664 2.316 C 9.445 2.387,9.228 2.593,9.075 2.875 C 9.003 3.008,8.550 3.922,8.068 4.905 L 7.192 6.694 6.912 6.746 C 6.757 6.775,6.005 6.889,5.241 7.001 C 3.247 7.291,2.691 7.386,2.539 7.464 C 2.217 7.628,2.017 7.967,2.018 8.350 C 2.018 8.643,2.072 8.756,2.362 9.078 C 2.527 9.262,4.438 11.134,5.359 12.014 L 5.436 12.087 5.117 13.918 C 4.672 16.484,4.658 16.585,4.722 16.810 C 4.834 17.205,5.188 17.509,5.586 17.551 C 5.703 17.564,5.833 17.566,5.874 17.555 C 5.916 17.544,6.468 17.264,7.100 16.931 C 7.732 16.599,8.643 16.125,9.123 15.879 L 9.995 15.430 10.273 15.569 C 10.425 15.645,11.273 16.082,12.156 16.539 C 14.057 17.524,14.185 17.582,14.404 17.556 C 14.921 17.494,15.316 17.070,15.307 16.583 C 15.303 16.342,15.283 16.212,14.880 13.902 L 14.564 12.088 15.207 11.472 C 15.561 11.133,16.309 10.397,16.869 9.836 C 17.879 8.827,17.889 8.815,17.949 8.610 C 18.094 8.114,17.822 7.555,17.371 7.421 C 17.173 7.362,16.584 7.268,14.750 7.000 C 13.998 6.890,13.255 6.777,13.098 6.748 L 12.812 6.695 11.828 4.706 C 10.784 2.596,10.704 2.462,10.432 2.353 C 10.235 2.274,9.851 2.256,9.664 2.316 M10.536 6.575 C 11.434 8.356,11.479 8.424,11.850 8.563 C 11.946 8.599,12.585 8.708,13.358 8.819 C 14.096 8.926,14.718 9.024,14.741 9.038 C 14.769 9.055,14.437 9.411,13.730 10.123 C 12.631 11.231,12.543 11.341,12.509 11.646 C 12.490 11.813,12.507 11.928,12.769 13.445 C 12.880 14.084,12.966 14.627,12.960 14.652 C 12.953 14.681,12.514 14.468,11.650 14.016 L 10.350 13.335 10.004 13.334 L 9.658 13.333 8.382 14.000 C 7.680 14.367,7.089 14.667,7.069 14.667 C 7.050 14.667,7.033 14.647,7.033 14.622 C 7.033 14.598,7.123 14.069,7.232 13.447 C 7.503 11.907,7.523 11.731,7.455 11.495 C 7.382 11.245,7.137 10.969,6.040 9.902 C 5.561 9.436,5.173 9.049,5.179 9.043 C 5.185 9.037,5.654 8.964,6.220 8.882 C 7.950 8.630,8.101 8.602,8.279 8.506 C 8.368 8.458,8.492 8.359,8.554 8.286 C 8.617 8.213,8.962 7.571,9.320 6.860 C 9.679 6.149,9.985 5.567,10.000 5.567 C 10.015 5.567,10.256 6.020,10.536 6.575 " fill="var(--db-icon-color, currentColor)" stroke="none" fill-rule="evenodd"></path></svg>