<svg id="icon" height="20" viewBox="0 0 20 20" width="20" xmlns="http://www.w3.org/2000/svg"><path d="M9.300 2.037 C 8.322 2.123,7.129 2.479,6.267 2.941 C 5.552 3.324,5.020 3.716,4.422 4.299 C 3.738 4.964,3.290 5.574,2.865 6.417 C 2.314 7.508,2.053 8.539,2.013 9.783 C 1.961 11.393,2.405 12.950,3.325 14.383 C 3.869 15.230,4.737 16.099,5.614 16.673 C 8.498 18.562,12.188 18.415,14.900 16.304 C 15.299 15.994,15.894 15.409,16.210 15.017 C 17.114 13.896,17.706 12.532,17.923 11.069 C 18.002 10.540,18.002 9.427,17.923 8.898 C 17.661 7.130,16.886 5.590,15.630 4.337 C 14.303 3.014,12.363 2.128,10.624 2.050 C 9.751 2.011,9.606 2.010,9.300 2.037 M10.817 4.070 C 12.328 4.254,13.848 5.146,14.776 6.393 C 15.618 7.524,16.007 8.782,15.957 10.216 C 15.926 11.107,15.758 11.815,15.398 12.562 C 14.546 14.334,12.972 15.543,11.041 15.907 C 10.481 16.012,9.519 16.012,8.959 15.907 C 7.722 15.673,6.620 15.092,5.746 14.211 C 4.924 13.383,4.323 12.223,4.117 11.067 C 4.041 10.637,4.014 9.727,4.065 9.312 C 4.308 7.338,5.422 5.677,7.130 4.742 C 7.689 4.437,8.514 4.157,9.108 4.072 C 9.410 4.028,10.466 4.027,10.817 4.070 M8.900 5.618 C 8.325 5.750,7.704 6.001,7.635 6.129 C 7.606 6.185,7.615 6.248,7.681 6.441 C 7.845 6.923,8.224 7.847,8.263 7.860 C 8.285 7.867,8.418 7.827,8.560 7.771 C 9.026 7.585,9.318 7.521,9.700 7.519 C 10.006 7.517,10.065 7.526,10.170 7.591 C 10.478 7.783,10.467 8.250,10.147 8.580 C 10.084 8.645,9.879 8.807,9.691 8.940 C 9.032 9.410,8.744 9.783,8.668 10.267 C 8.649 10.386,8.634 10.742,8.634 11.058 L 8.633 11.633 9.630 11.633 L 10.627 11.633 10.638 11.039 C 10.652 10.329,10.620 10.393,11.238 9.842 C 11.845 9.300,12.085 8.971,12.267 8.433 C 12.369 8.133,12.396 7.447,12.319 7.120 C 12.171 6.489,11.714 5.991,11.028 5.712 C 10.698 5.578,10.384 5.533,9.789 5.536 C 9.344 5.538,9.189 5.552,8.900 5.618 M9.367 12.563 C 8.814 12.744,8.524 13.267,8.686 13.788 C 8.773 14.069,9.076 14.372,9.350 14.451 C 9.812 14.586,10.320 14.357,10.533 13.918 C 10.619 13.739,10.628 13.385,10.551 13.170 C 10.423 12.809,10.082 12.567,9.674 12.546 C 9.551 12.540,9.412 12.547,9.367 12.563 " fill="var(--db-icon-color, currentColor)" stroke="none" fill-rule="evenodd"></path></svg>