<svg id="icon" height="32" viewBox="0 0 32 32" width="32" xmlns="http://www.w3.org/2000/svg"><path d="M17.771 1.074 C 17.517 1.147,17.205 1.482,17.125 1.769 C 16.994 2.236,17.182 2.555,18.156 3.512 L 18.718 4.065 18.456 4.366 C 18.312 4.531,17.057 5.786,15.667 7.155 L 13.140 9.643 12.850 9.457 C 12.373 9.153,11.864 8.912,11.262 8.707 C 10.700 8.515,10.681 8.512,9.670 8.491 C 8.860 8.473,8.555 8.487,8.204 8.558 C 6.721 8.856,4.947 9.777,3.346 11.080 C 2.734 11.578,1.247 13.097,1.125 13.350 C 0.995 13.618,0.982 13.902,1.088 14.156 C 1.136 14.270,2.468 15.636,4.714 17.873 L 8.265 21.410 4.830 24.825 C 2.537 27.104,1.347 28.325,1.251 28.496 C 1.073 28.812,1.090 29.122,1.304 29.445 C 1.548 29.815,2.100 29.971,2.528 29.793 C 2.685 29.727,3.941 28.507,8.703 23.795 L 9.698 22.809 12.889 25.955 C 14.644 27.685,16.288 29.297,16.543 29.537 L 17.006 29.973 17.377 29.973 C 17.734 29.973,17.762 29.964,18.061 29.738 C 18.233 29.609,18.675 29.204,19.043 28.839 C 21.549 26.356,22.887 23.851,22.896 21.627 C 22.900 20.463,22.576 19.427,21.897 18.435 C 21.763 18.239,21.653 18.038,21.653 17.987 C 21.653 17.899,27.074 12.482,27.164 12.481 C 27.189 12.480,27.513 12.766,27.884 13.115 C 28.923 14.090,28.867 14.053,29.286 14.053 C 29.605 14.053,29.666 14.035,29.845 13.890 C 30.238 13.572,30.381 13.009,30.161 12.652 C 30.061 12.491,24.798 7.243,21.020 3.536 C 19.577 2.120,18.529 1.133,18.422 1.088 C 18.221 1.004,18.028 0.999,17.771 1.074 " fill="var(--db-icon-color, currentColor)" stroke="none" fill-rule="evenodd"></path></svg>