<svg id="icon" height="32" viewBox="0 0 32 32" width="32" xmlns="http://www.w3.org/2000/svg"><path d="M15.467 2.450 C 14.828 2.567,14.602 2.749,13.616 3.940 C 12.645 5.112,12.486 5.280,12.348 5.280 C 12.287 5.280,11.706 5.139,11.058 4.966 C 10.409 4.793,9.711 4.622,9.508 4.586 C 8.788 4.457,8.019 4.712,7.488 5.257 C 7.027 5.729,6.932 6.099,6.828 7.840 C 6.797 8.353,6.757 8.909,6.739 9.075 L 6.707 9.377 6.247 9.567 C 5.994 9.671,5.389 9.910,4.903 10.099 C 4.416 10.288,3.900 10.502,3.755 10.576 C 3.414 10.748,3.017 11.176,2.838 11.562 C 2.714 11.829,2.696 11.933,2.697 12.401 C 2.698 12.884,2.714 12.969,2.861 13.281 C 2.950 13.471,3.287 14.035,3.609 14.533 C 3.931 15.032,4.263 15.563,4.347 15.713 L 4.499 15.985 4.347 16.246 C 4.264 16.389,3.931 16.915,3.607 17.413 C 2.725 18.775,2.695 18.843,2.694 19.521 C 2.693 20.046,2.704 20.105,2.865 20.431 C 2.978 20.660,3.152 20.890,3.372 21.101 C 3.672 21.388,3.776 21.448,4.373 21.678 C 4.740 21.818,5.411 22.081,5.865 22.260 C 6.841 22.646,6.733 22.444,6.826 24.053 C 6.933 25.895,7.053 26.313,7.627 26.845 C 8.031 27.220,8.403 27.368,9.013 27.398 C 9.414 27.417,9.564 27.395,10.293 27.204 C 10.748 27.085,11.418 26.912,11.783 26.818 L 12.446 26.649 12.676 26.902 C 12.802 27.041,13.203 27.520,13.567 27.965 C 14.409 28.995,14.712 29.282,15.121 29.439 C 15.556 29.606,16.199 29.642,16.618 29.523 C 17.135 29.375,17.416 29.147,18.137 28.290 C 19.204 27.022,19.522 26.667,19.592 26.667 C 19.628 26.667,20.196 26.808,20.855 26.981 C 22.487 27.410,22.591 27.429,23.044 27.402 C 23.642 27.365,24.009 27.201,24.432 26.778 C 24.986 26.224,25.064 25.918,25.194 23.809 C 25.232 23.191,25.279 22.658,25.299 22.626 C 25.319 22.593,25.713 22.420,26.174 22.241 C 28.494 21.342,28.255 21.457,28.672 21.043 C 29.169 20.548,29.298 20.239,29.303 19.520 C 29.306 19.057,29.292 18.984,29.139 18.667 C 29.046 18.476,28.636 17.804,28.226 17.173 L 27.481 16.027 27.588 15.813 C 27.647 15.696,27.984 15.156,28.336 14.613 C 28.689 14.071,29.051 13.471,29.141 13.280 C 29.290 12.966,29.305 12.884,29.305 12.400 C 29.306 11.924,29.290 11.834,29.157 11.563 C 28.930 11.100,28.587 10.752,28.142 10.535 C 27.932 10.432,27.209 10.135,26.535 9.876 L 25.309 9.403 25.273 9.222 C 25.253 9.122,25.210 8.572,25.177 8.000 C 25.069 6.112,24.977 5.733,24.512 5.257 C 23.987 4.718,23.187 4.451,22.496 4.582 C 22.311 4.618,21.618 4.789,20.957 4.963 C 20.295 5.137,19.701 5.280,19.638 5.280 C 19.523 5.280,19.393 5.138,18.083 3.580 C 17.529 2.920,17.192 2.641,16.815 2.527 C 16.503 2.433,15.782 2.392,15.467 2.450 M16.764 5.124 C 18.391 7.081,18.560 7.205,19.600 7.206 C 20.076 7.206,20.270 7.171,21.413 6.883 C 22.117 6.705,22.769 6.560,22.862 6.560 C 23.070 6.560,23.068 6.548,23.148 8.053 C 23.180 8.655,23.230 9.303,23.259 9.493 C 23.369 10.226,23.803 10.858,24.393 11.146 C 24.573 11.234,25.283 11.522,25.970 11.785 C 26.658 12.049,27.244 12.290,27.274 12.319 C 27.354 12.399,27.178 12.727,26.462 13.831 C 25.488 15.332,25.482 15.347,25.484 16.028 C 25.487 16.557,25.584 16.775,26.381 18.030 C 27.315 19.500,27.321 19.511,27.286 19.603 C 27.250 19.697,27.074 19.776,25.913 20.213 C 24.146 20.879,23.797 21.102,23.473 21.771 C 23.282 22.166,23.230 22.518,23.144 24.000 C 23.071 25.253,23.045 25.408,22.904 25.428 C 22.847 25.437,22.212 25.296,21.493 25.115 C 20.404 24.841,20.088 24.782,19.593 24.760 C 18.999 24.734,18.999 24.734,18.662 24.914 C 18.233 25.142,17.972 25.401,16.976 26.590 C 16.029 27.720,16.031 27.718,15.915 27.623 C 15.869 27.584,15.468 27.119,15.024 26.590 C 14.040 25.415,13.699 25.072,13.330 24.888 C 13.081 24.764,12.982 24.747,12.527 24.747 C 12.065 24.747,11.861 24.784,10.642 25.093 C 9.890 25.284,9.219 25.440,9.150 25.440 C 9.081 25.440,9.009 25.400,8.990 25.351 C 8.972 25.302,8.933 24.936,8.905 24.537 C 8.762 22.537,8.742 22.351,8.639 22.052 C 8.505 21.662,8.258 21.273,8.037 21.105 C 7.781 20.910,7.368 20.713,6.537 20.390 C 4.706 19.679,4.693 19.673,4.693 19.537 C 4.693 19.495,4.990 19.000,5.352 18.437 C 6.484 16.677,6.506 16.629,6.506 15.910 C 6.507 15.507,6.491 15.442,6.304 15.083 C 6.192 14.869,5.772 14.185,5.371 13.563 C 4.969 12.941,4.640 12.420,4.640 12.404 C 4.640 12.345,5.129 12.130,6.131 11.749 C 7.527 11.219,7.810 11.077,8.148 10.739 C 8.646 10.241,8.757 9.819,8.857 8.045 C 8.936 6.643,8.946 6.591,9.149 6.571 C 9.236 6.563,9.895 6.701,10.613 6.878 C 12.163 7.261,12.494 7.303,12.935 7.175 C 13.595 6.983,13.856 6.778,14.630 5.842 C 15.599 4.669,15.961 4.263,16.020 4.282 C 16.053 4.292,16.388 4.671,16.764 5.124 M12.030 11.147 C 11.519 11.238,10.798 11.891,10.662 12.386 C 10.627 12.511,10.597 12.818,10.595 13.069 C 10.591 13.469,10.609 13.564,10.745 13.842 C 10.943 14.246,11.301 14.604,11.707 14.803 C 11.997 14.945,12.076 14.959,12.560 14.958 C 12.985 14.956,13.142 14.933,13.333 14.844 C 13.920 14.573,14.312 14.123,14.483 13.524 C 14.723 12.682,14.310 11.746,13.510 11.320 C 13.255 11.184,13.119 11.149,12.746 11.127 C 12.497 11.112,12.175 11.121,12.030 11.147 M19.681 11.153 C 19.608 11.182,19.380 11.366,19.174 11.563 C 17.717 12.950,14.048 16.508,12.713 17.829 C 11.287 19.239,11.098 19.445,11.039 19.658 C 10.962 19.933,11.024 20.232,11.214 20.500 C 11.431 20.805,12.008 20.943,12.388 20.780 C 12.704 20.645,20.661 12.839,20.903 12.427 C 21.038 12.197,21.041 11.985,20.913 11.707 C 20.691 11.227,20.129 10.974,19.681 11.153 M19.465 17.009 C 18.931 17.114,18.337 17.593,18.091 18.119 C 17.967 18.383,17.947 18.494,17.948 18.907 C 17.950 19.309,17.972 19.434,18.088 19.680 C 18.617 20.809,19.972 21.195,21.035 20.518 C 21.322 20.336,21.713 19.845,21.821 19.533 C 21.931 19.213,21.907 18.472,21.776 18.187 C 21.362 17.280,20.451 16.816,19.465 17.009 " fill="var(--db-icon-color, currentColor)" stroke="none" fill-rule="evenodd"></path></svg>