<svg id="icon" height="32" viewBox="0 0 32 32" width="32" xmlns="http://www.w3.org/2000/svg"><path d="M24.287 2.076 L 23.801 2.107 23.407 2.460 C 23.191 2.654,21.009 4.790,18.560 7.206 C 16.111 9.623,13.874 11.826,13.589 12.101 L 13.071 12.602 12.469 12.501 C 11.565 12.350,9.948 12.361,9.129 12.524 C 7.351 12.879,5.913 13.653,4.609 14.956 C 3.270 16.296,2.454 17.860,2.130 19.710 C 2.000 20.455,1.975 21.704,2.077 22.373 C 2.453 24.848,3.734 26.929,5.787 28.401 C 8.347 30.236,11.942 30.496,14.801 29.052 C 15.196 28.853,15.991 28.341,16.347 28.058 C 17.007 27.532,17.864 26.562,18.330 25.812 C 19.057 24.644,19.568 23.031,19.659 21.625 C 19.699 20.992,19.610 19.920,19.468 19.331 L 19.366 18.907 20.579 17.680 C 22.319 15.922,22.523 15.694,22.608 15.413 C 22.647 15.281,22.757 14.814,22.851 14.375 L 23.023 13.577 23.840 13.403 C 24.979 13.161,25.121 13.107,25.401 12.808 C 25.677 12.513,25.746 12.325,25.978 11.253 C 26.069 10.828,26.149 10.475,26.155 10.468 C 26.161 10.462,26.554 10.372,27.030 10.269 C 27.505 10.166,27.983 10.044,28.092 9.999 C 28.324 9.901,29.697 8.547,29.847 8.267 C 29.940 8.093,29.948 7.905,29.963 5.606 L 29.978 3.131 29.839 2.846 C 29.760 2.685,29.601 2.480,29.472 2.375 C 29.041 2.021,29.074 2.026,26.815 2.036 C 25.692 2.041,24.555 2.059,24.287 2.076 M28.000 5.723 L 28.000 7.446 27.583 7.825 L 27.165 8.204 25.916 8.452 C 25.229 8.588,24.626 8.711,24.577 8.726 C 24.459 8.760,24.417 8.899,24.156 10.133 C 24.036 10.704,23.914 11.214,23.887 11.265 C 23.859 11.317,23.784 11.371,23.718 11.386 C 23.653 11.401,23.120 11.512,22.534 11.632 C 21.948 11.752,21.430 11.870,21.384 11.895 C 21.324 11.927,21.220 12.332,21.016 13.324 L 20.733 14.708 18.936 16.504 L 17.140 18.300 17.352 19.110 C 17.555 19.887,17.565 19.961,17.587 20.933 C 17.622 22.428,17.499 23.031,16.928 24.181 C 16.547 24.948,16.147 25.494,15.524 26.095 C 14.580 27.008,13.489 27.584,12.160 27.873 C 11.531 28.009,10.180 28.011,9.547 27.876 C 7.690 27.480,6.187 26.466,5.143 24.903 C 4.750 24.314,4.558 23.912,4.328 23.193 C 4.102 22.484,4.054 22.131,4.054 21.173 C 4.054 20.217,4.102 19.863,4.328 19.154 C 4.883 17.411,6.079 15.967,7.656 15.137 C 8.697 14.589,9.570 14.375,10.747 14.379 C 11.607 14.382,12.175 14.461,13.136 14.712 L 13.697 14.859 19.155 9.432 L 24.613 4.006 26.307 4.003 L 28.000 4.000 28.000 5.723 M10.320 19.034 C 9.803 19.130,9.152 19.626,8.903 20.113 C 8.004 21.872,9.609 23.832,11.477 23.255 C 12.114 23.058,12.550 22.671,12.836 22.050 C 13.037 21.612,13.071 20.915,12.912 20.462 C 12.717 19.907,12.303 19.460,11.705 19.158 C 11.464 19.037,10.682 18.966,10.320 19.034 " fill="var(--db-icon-color, currentColor)" stroke="none" fill-rule="evenodd"></path></svg>