<svg id="icon" height="16" viewBox="0 0 16 16" width="16" xmlns="http://www.w3.org/2000/svg"><path d="M7.760 3.036 C 7.510 3.090,7.215 3.334,7.091 3.592 C 7.002 3.775,6.991 4.003,6.989 5.593 L 6.987 7.013 5.567 7.014 C 3.942 7.015,3.680 7.030,3.513 7.129 C 3.354 7.223,3.189 7.401,3.103 7.573 C 2.964 7.852,2.989 8.260,3.161 8.535 C 3.255 8.684,3.482 8.871,3.648 8.937 C 3.799 8.997,3.815 8.998,5.391 9.008 L 6.982 9.018 6.992 10.609 C 7.002 12.185,7.003 12.201,7.063 12.352 C 7.129 12.519,7.316 12.745,7.465 12.838 C 7.780 13.035,8.220 13.035,8.535 12.838 C 8.684 12.745,8.871 12.519,8.937 12.352 C 8.997 12.201,8.998 12.185,9.008 10.609 L 9.018 9.018 10.609 9.008 C 12.185 8.998,12.201 8.997,12.352 8.937 C 12.518 8.871,12.745 8.684,12.839 8.535 C 13.011 8.260,13.036 7.852,12.897 7.573 C 12.811 7.401,12.646 7.223,12.487 7.129 C 12.320 7.030,12.058 7.015,10.433 7.014 L 9.013 7.013 9.012 5.553 C 9.012 4.750,9.001 4.011,8.988 3.910 C 8.942 3.552,8.724 3.245,8.414 3.104 C 8.261 3.033,7.931 2.999,7.760 3.036 " fill="var(--db-icon-color, currentColor)" stroke="none" fill-rule="evenodd"></path></svg>