<svg id="icon" height="32" viewBox="0 0 32 32" width="32" xmlns="http://www.w3.org/2000/svg"><path d="M12.613 6.076 C 11.577 6.147,11.272 6.338,9.652 7.929 L 8.548 9.013 7.141 9.017 C 6.367 9.019,5.373 9.039,4.933 9.061 C 4.157 9.100,4.122 9.107,3.758 9.293 C 2.959 9.699,2.442 10.284,2.137 11.127 L 1.972 11.583 1.986 17.565 L 2.000 23.547 2.179 23.991 C 2.508 24.809,3.114 25.440,3.889 25.770 L 4.293 25.942 6.160 25.979 C 8.582 26.027,23.418 26.027,25.840 25.979 L 27.707 25.942 28.107 25.769 C 28.327 25.674,28.639 25.494,28.800 25.369 C 29.172 25.082,29.610 24.503,29.795 24.054 C 29.929 23.731,29.942 23.631,29.978 22.613 C 29.999 22.012,30.019 19.295,30.022 16.575 L 30.027 11.630 29.866 11.189 C 29.556 10.341,28.998 9.703,28.235 9.325 C 27.668 9.044,27.444 9.021,25.176 9.017 L 23.446 9.013 22.430 8.010 C 21.195 6.790,20.833 6.487,20.339 6.258 L 19.958 6.082 16.579 6.059 C 14.721 6.046,12.936 6.054,12.613 6.076 M19.766 8.239 C 19.909 8.355,20.597 9.014,21.295 9.702 L 22.563 10.955 24.868 10.994 C 26.255 11.017,27.251 11.056,27.369 11.091 C 27.642 11.172,27.876 11.456,27.930 11.771 C 27.954 11.912,27.973 14.559,27.973 17.653 L 27.973 23.280 27.813 23.515 C 27.725 23.645,27.557 23.801,27.440 23.862 L 27.227 23.973 16.000 23.973 L 4.773 23.973 4.560 23.862 C 4.443 23.801,4.275 23.645,4.187 23.515 L 4.027 23.280 4.027 17.600 C 4.027 14.476,4.046 11.829,4.069 11.719 C 4.125 11.455,4.386 11.164,4.631 11.091 C 4.749 11.056,5.746 11.017,7.136 10.994 L 9.444 10.955 10.576 9.834 C 11.198 9.217,11.869 8.565,12.067 8.385 L 12.426 8.057 12.947 8.037 C 13.233 8.025,14.825 8.019,16.486 8.022 L 19.505 8.029 19.766 8.239 M15.302 12.052 C 13.092 12.441,11.513 13.966,11.085 16.125 C 10.891 17.099,11.048 18.205,11.515 19.173 C 12.134 20.456,13.294 21.420,14.705 21.825 C 15.059 21.927,15.250 21.945,16.000 21.946 C 16.760 21.947,16.938 21.930,17.307 21.824 C 18.928 21.359,20.165 20.179,20.740 18.547 L 20.933 18.000 20.933 16.987 L 20.933 15.973 20.751 15.447 C 20.258 14.021,19.187 12.901,17.788 12.348 C 17.176 12.106,15.877 11.951,15.302 12.052 M6.797 13.060 C 6.342 13.140,6.027 13.530,6.027 14.012 C 6.027 14.325,6.157 14.582,6.424 14.799 L 6.623 14.960 7.493 14.960 L 8.363 14.960 8.566 14.796 C 9.027 14.423,9.125 13.912,8.818 13.477 C 8.558 13.106,8.390 13.041,7.653 13.031 C 7.301 13.026,6.916 13.039,6.797 13.060 M16.992 14.184 C 17.890 14.500,18.684 15.388,18.905 16.325 C 19.130 17.280,18.848 18.304,18.161 19.030 C 17.746 19.469,17.348 19.714,16.789 19.876 C 15.742 20.179,14.728 19.903,13.918 19.095 C 12.814 17.993,12.711 16.395,13.663 15.160 C 14.066 14.639,14.780 14.189,15.377 14.082 C 15.803 14.005,16.631 14.057,16.992 14.184 " fill="var(--db-icon-color, currentColor)" stroke="none" fill-rule="evenodd"></path></svg>