<svg id="icon" height="20" viewBox="0 0 20 20" width="20" xmlns="http://www.w3.org/2000/svg"><path d="M5.000 3.032 C 4.663 3.049,4.500 3.073,4.351 3.127 C 3.808 3.326,3.265 3.895,3.091 4.449 L 3.017 4.683 3.017 10.000 C 3.017 15.952,2.997 15.461,3.255 15.926 C 3.494 16.356,3.869 16.676,4.383 16.887 L 4.617 16.983 9.617 16.993 C 12.572 16.999,14.794 16.990,15.050 16.971 C 15.341 16.950,15.543 16.917,15.664 16.871 C 16.197 16.668,16.705 16.136,16.914 15.558 L 17.002 15.317 16.993 9.967 L 16.983 4.617 16.873 4.342 C 16.630 3.741,16.109 3.261,15.496 3.075 C 15.334 3.026,14.836 3.020,10.383 3.015 C 7.670 3.012,5.248 3.020,5.000 3.032 M15.000 7.788 L 15.000 10.576 14.320 9.907 C 13.498 9.099,13.401 9.034,13.007 9.034 C 12.801 9.033,12.699 9.049,12.606 9.097 C 12.407 9.199,11.988 9.589,10.821 10.759 L 9.726 11.858 8.521 11.455 C 7.319 11.052,7.316 11.051,6.998 11.051 L 6.678 11.050 5.859 11.456 C 5.408 11.679,5.030 11.853,5.020 11.842 C 5.009 11.831,5.000 10.287,5.000 8.411 L 5.000 5.000 10.000 5.000 L 15.000 5.000 15.000 7.788 M7.219 6.035 C 6.838 6.099,6.361 6.449,6.186 6.794 C 5.979 7.203,5.953 7.615,6.107 8.029 C 6.244 8.393,6.601 8.752,6.972 8.896 C 7.268 9.012,7.731 9.015,8.008 8.905 C 8.736 8.615,9.152 7.814,8.939 7.111 C 8.762 6.527,8.313 6.130,7.723 6.034 C 7.491 5.996,7.451 5.996,7.219 6.035 M14.008 12.425 L 15.000 13.416 15.000 14.208 L 15.000 15.000 10.000 15.000 L 5.000 15.000 5.000 14.556 L 5.000 14.111 6.028 13.606 C 6.594 13.328,7.073 13.100,7.092 13.100 C 7.112 13.100,7.725 13.298,8.456 13.539 C 10.224 14.125,10.207 14.125,10.811 13.582 C 10.979 13.430,11.537 12.885,12.050 12.370 C 12.563 11.855,12.990 11.433,13.000 11.433 C 13.009 11.433,13.463 11.879,14.008 12.425 " fill="var(--db-icon-color, currentColor)" stroke="none" fill-rule="evenodd"></path></svg>