<svg id="icon" height="32" viewBox="0 0 32 32" width="32" xmlns="http://www.w3.org/2000/svg"><path d="M19.532 3.044 C 19.234 3.096,18.802 3.290,18.527 3.496 C 18.257 3.699,18.038 4.104,17.728 4.970 C 17.383 5.938,16.874 6.998,16.453 7.627 C 15.462 9.106,13.924 10.644,11.967 12.114 L 11.054 12.800 10.704 12.565 C 9.921 12.040,9.426 11.977,6.427 12.016 C 4.617 12.039,4.425 12.050,4.107 12.152 C 3.224 12.434,2.452 13.207,2.128 14.133 L 2.007 14.480 2.003 19.520 L 2.000 24.560 2.172 24.987 C 2.515 25.834,3.251 26.563,4.040 26.836 C 4.398 26.959,4.415 26.960,6.987 26.960 C 9.383 26.960,9.595 26.953,9.867 26.859 C 10.273 26.720,10.536 26.581,10.860 26.337 L 11.137 26.128 12.569 26.631 C 15.987 27.834,18.323 28.542,20.000 28.883 C 21.516 29.192,23.167 28.748,24.639 27.635 C 25.177 27.228,26.358 26.047,26.762 25.511 C 28.241 23.553,29.336 21.168,29.819 18.849 C 29.958 18.183,30.021 16.069,29.923 15.335 C 29.848 14.770,29.649 14.113,29.421 13.681 C 29.084 13.040,28.387 12.485,27.573 12.211 C 27.271 12.109,27.051 12.089,25.867 12.050 C 25.119 12.025,23.866 12.004,23.083 12.003 L 21.660 12.000 21.901 11.427 C 22.242 10.617,22.690 9.246,22.829 8.587 C 22.976 7.891,23.029 6.628,22.936 6.047 C 22.849 5.512,22.607 4.811,22.379 4.438 C 22.168 4.092,21.681 3.599,21.351 3.395 C 20.859 3.091,20.099 2.944,19.532 3.044 M20.390 5.145 C 20.472 5.199,20.620 5.413,20.734 5.644 L 20.933 6.048 20.933 7.037 C 20.932 7.992,20.926 8.049,20.755 8.667 C 20.518 9.525,20.090 10.594,19.511 11.776 C 19.248 12.313,19.020 12.832,19.004 12.929 C 18.970 13.138,19.125 13.525,19.313 13.703 C 19.631 14.003,19.469 13.990,23.349 14.030 L 26.938 14.068 27.189 14.196 C 27.501 14.356,27.753 14.714,27.850 15.134 C 27.898 15.345,27.920 15.869,27.920 16.827 L 27.920 18.213 27.715 19.013 C 27.115 21.348,25.805 23.694,24.215 25.280 C 23.321 26.173,22.497 26.697,21.653 26.912 C 20.770 27.137,19.305 26.790,14.907 25.317 C 13.997 25.012,12.971 24.660,12.627 24.534 L 12.000 24.306 12.000 19.437 L 12.000 14.568 12.756 14.022 C 14.515 12.749,16.386 11.022,17.428 9.707 C 18.392 8.490,19.026 7.315,19.553 5.769 L 19.813 5.004 20.030 5.028 C 20.149 5.041,20.312 5.094,20.390 5.145 M9.531 14.175 C 9.625 14.243,9.757 14.375,9.825 14.469 L 9.947 14.640 9.964 19.470 L 9.982 24.301 9.803 24.535 C 9.444 25.005,9.559 24.987,6.983 24.987 L 4.712 24.987 4.496 24.844 C 4.377 24.765,4.223 24.609,4.153 24.497 L 4.027 24.293 4.027 19.493 L 4.027 14.693 4.153 14.491 C 4.313 14.233,4.488 14.119,4.795 14.073 C 4.930 14.053,6.012 14.041,7.200 14.045 C 9.359 14.053,9.360 14.053,9.531 14.175 " fill="var(--db-icon-color, currentColor)" stroke="none" fill-rule="evenodd"></path></svg>