<svg id="icon" height="20" viewBox="0 0 20 20" width="20" xmlns="http://www.w3.org/2000/svg"><path d="M9.583 2.022 C 8.921 2.101,8.456 2.206,8.040 2.370 C 6.497 2.981,5.285 4.251,4.784 5.780 C 4.579 6.405,4.519 6.800,4.518 7.517 C 4.516 8.310,4.614 8.880,4.867 9.566 C 5.106 10.216,5.313 10.589,6.009 11.631 C 6.580 12.484,6.670 12.660,6.765 13.098 C 6.860 13.536,7.006 13.734,7.370 13.919 L 7.531 14.000 10.000 14.000 C 12.455 14.000,12.470 14.000,12.610 13.929 C 12.988 13.737,13.141 13.534,13.235 13.098 C 13.272 12.925,13.345 12.693,13.397 12.583 C 13.448 12.473,13.749 11.993,14.066 11.517 C 14.686 10.581,14.976 10.038,15.180 9.425 C 15.975 7.041,15.229 4.573,13.267 3.094 C 12.887 2.808,12.166 2.428,11.733 2.286 C 11.065 2.067,10.151 1.954,9.583 2.022 M10.350 4.033 C 11.569 4.163,12.601 4.885,13.135 5.983 C 13.484 6.702,13.570 7.416,13.413 8.294 C 13.303 8.913,13.072 9.380,12.294 10.558 C 11.983 11.030,11.665 11.547,11.589 11.707 L 11.450 11.998 10.000 11.999 L 8.550 12.000 8.406 11.702 C 8.327 11.538,8.011 11.021,7.702 10.553 C 6.718 9.061,6.573 8.694,6.543 7.633 C 6.528 7.090,6.534 6.983,6.594 6.733 C 6.937 5.302,8.125 4.219,9.550 4.038 C 9.873 3.997,10.004 3.996,10.350 4.033 M9.149 5.164 C 8.844 5.237,8.318 5.621,8.036 5.975 C 7.461 6.698,7.423 7.460,7.941 7.870 C 8.142 8.029,8.296 8.081,8.567 8.082 C 8.980 8.084,9.281 7.863,9.519 7.381 C 9.620 7.177,9.660 7.129,9.798 7.055 C 10.026 6.930,10.227 6.723,10.324 6.510 C 10.441 6.253,10.424 5.898,10.281 5.635 C 10.073 5.252,9.600 5.056,9.149 5.164 M7.900 15.028 C 7.054 15.116,6.708 16.098,7.310 16.703 C 7.524 16.918,7.686 16.976,8.119 16.993 L 8.488 17.008 8.528 17.201 C 8.598 17.539,8.873 17.835,9.222 17.949 C 9.363 17.996,9.506 18.003,10.071 17.994 C 10.701 17.984,10.761 17.977,10.905 17.906 C 11.201 17.759,11.437 17.448,11.486 17.139 L 11.507 17.008 11.879 16.993 C 12.314 16.976,12.476 16.918,12.688 16.705 C 13.171 16.219,13.065 15.455,12.471 15.138 L 12.269 15.031 10.193 15.018 C 9.051 15.011,8.019 15.015,7.900 15.028 " fill="var(--db-icon-color, currentColor)" stroke="none" fill-rule="evenodd"></path></svg>