<svg id="icon" height="20" viewBox="0 0 20 20" width="20" xmlns="http://www.w3.org/2000/svg"><path d="M5.480 2.029 L 4.744 2.050 4.547 2.171 C 4.439 2.238,4.294 2.365,4.225 2.454 C 3.981 2.773,4.000 2.130,4.000 10.038 C 4.000 17.160,4.000 17.164,4.069 17.348 C 4.151 17.567,4.362 17.792,4.591 17.905 C 4.726 17.971,4.801 17.983,5.083 17.983 L 5.417 17.983 7.583 16.912 C 8.775 16.323,9.809 15.817,9.880 15.787 L 10.011 15.732 10.864 16.146 C 11.333 16.374,12.302 16.844,13.017 17.191 C 14.772 18.042,14.622 17.983,15.000 17.983 C 15.366 17.983,15.524 17.927,15.759 17.713 C 15.868 17.614,15.910 17.545,15.940 17.417 C 15.968 17.295,15.981 15.333,15.990 10.080 L 16.003 2.910 15.933 2.722 C 15.844 2.487,15.637 2.270,15.372 2.136 L 15.171 2.035 10.694 2.021 C 8.232 2.014,5.885 2.018,5.480 2.029 " fill="var(--db-icon-color, currentColor)" stroke="none" fill-rule="evenodd"></path></svg>