<svg id="icon" height="24" viewBox="0 0 24 24" width="24" xmlns="http://www.w3.org/2000/svg"><path d="M11.020 2.039 C 9.712 2.137,8.910 2.458,8.661 2.984 C 8.596 3.120,8.591 3.206,8.616 3.773 C 8.631 4.123,8.653 4.486,8.666 4.580 L 8.689 4.750 8.006 5.139 L 7.323 5.528 7.171 5.436 C 7.088 5.386,6.859 5.237,6.662 5.106 C 5.914 4.607,5.671 4.542,5.260 4.734 C 4.504 5.086,3.313 6.686,2.641 8.255 C 2.266 9.128,2.152 9.655,2.259 10.021 C 2.360 10.368,2.543 10.523,3.330 10.921 L 3.999 11.260 4.000 12.020 L 4.000 12.780 3.330 13.108 C 2.446 13.542,2.281 13.701,2.220 14.183 C 2.168 14.589,2.548 15.677,3.082 16.657 C 3.841 18.050,4.720 19.098,5.320 19.325 C 5.730 19.479,5.928 19.411,6.847 18.795 L 7.314 18.482 8.002 18.868 L 8.689 19.253 8.666 19.422 C 8.653 19.514,8.631 19.878,8.616 20.230 C 8.590 20.838,8.593 20.879,8.676 21.053 C 8.907 21.529,9.471 21.792,10.582 21.943 C 11.207 22.028,12.666 22.040,13.245 21.965 C 14.423 21.814,14.955 21.601,15.261 21.158 C 15.379 20.988,15.380 20.981,15.379 20.443 C 15.378 20.144,15.364 19.753,15.348 19.574 L 15.319 19.249 16.003 18.866 L 16.688 18.484 17.154 18.796 C 17.847 19.260,18.044 19.362,18.298 19.388 C 18.492 19.408,18.552 19.395,18.773 19.286 C 19.223 19.065,19.773 18.483,20.347 17.620 C 21.169 16.386,21.862 14.712,21.779 14.160 C 21.710 13.694,21.544 13.536,20.670 13.108 L 20.000 12.780 20.000 12.020 L 20.000 11.260 20.650 10.932 C 21.008 10.752,21.365 10.550,21.445 10.483 C 21.968 10.048,21.863 9.233,21.084 7.680 C 20.587 6.688,20.008 5.845,19.422 5.258 C 18.951 4.788,18.700 4.640,18.371 4.640 C 18.115 4.640,17.941 4.721,17.260 5.159 C 16.996 5.328,16.757 5.480,16.728 5.497 C 16.696 5.516,16.416 5.380,15.993 5.138 L 15.310 4.749 15.334 4.545 C 15.347 4.432,15.370 4.069,15.385 3.738 C 15.409 3.203,15.403 3.119,15.338 2.982 C 15.123 2.529,14.538 2.245,13.520 2.101 C 13.006 2.029,11.618 1.994,11.020 2.039 M12.980 4.085 C 13.178 4.109,13.344 4.132,13.350 4.137 C 13.355 4.142,13.339 4.424,13.313 4.763 C 13.259 5.471,13.276 5.607,13.443 5.837 C 13.619 6.081,14.925 6.895,16.032 7.450 C 16.769 7.820,16.846 7.809,17.817 7.191 L 18.254 6.912 18.330 7.006 C 18.515 7.236,18.940 7.909,19.199 8.383 C 19.507 8.949,19.588 9.148,19.533 9.203 C 19.513 9.223,19.275 9.357,19.003 9.502 C 18.396 9.825,18.266 9.922,18.128 10.156 L 18.020 10.340 18.008 11.991 L 17.996 13.642 18.108 13.848 C 18.247 14.104,18.408 14.223,19.035 14.534 C 19.307 14.669,19.539 14.803,19.549 14.830 C 19.602 14.967,18.752 16.486,18.347 16.979 L 18.249 17.098 17.834 16.842 C 17.050 16.357,17.012 16.340,16.700 16.340 C 16.425 16.341,16.410 16.347,15.880 16.645 C 15.069 17.102,13.968 17.749,13.721 17.914 C 13.561 18.021,13.472 18.118,13.387 18.280 C 13.272 18.499,13.271 18.501,13.298 19.018 C 13.312 19.303,13.334 19.612,13.347 19.704 C 13.366 19.845,13.358 19.875,13.293 19.896 C 12.873 20.029,11.129 20.030,10.710 19.897 C 10.644 19.876,10.640 19.842,10.669 19.507 C 10.686 19.305,10.700 18.978,10.700 18.779 C 10.700 18.437,10.693 18.407,10.566 18.209 C 10.415 17.973,10.297 17.894,8.926 17.103 C 7.532 16.297,7.318 16.224,6.911 16.410 C 6.792 16.464,6.520 16.620,6.307 16.756 C 5.716 17.132,5.757 17.130,5.507 16.789 C 5.391 16.630,5.212 16.365,5.110 16.200 C 4.864 15.801,4.427 14.892,4.451 14.829 C 4.461 14.802,4.687 14.665,4.953 14.525 C 5.564 14.204,5.734 14.078,5.871 13.846 L 5.980 13.660 5.980 12.000 C 5.980 10.395,5.977 10.335,5.897 10.180 C 5.788 9.972,5.549 9.794,4.954 9.477 C 4.688 9.336,4.462 9.198,4.451 9.171 C 4.418 9.086,4.958 8.053,5.325 7.499 C 5.519 7.206,5.695 6.955,5.716 6.943 C 5.736 6.930,5.981 7.063,6.259 7.238 C 6.537 7.413,6.867 7.595,6.992 7.642 C 7.295 7.756,7.470 7.716,8.099 7.384 C 9.383 6.708,10.404 6.059,10.580 5.807 C 10.692 5.645,10.700 5.609,10.700 5.267 C 10.700 5.065,10.686 4.727,10.670 4.515 L 10.639 4.129 11.030 4.084 C 11.244 4.060,11.492 4.033,11.580 4.024 C 11.803 4.002,12.550 4.035,12.980 4.085 M11.379 8.055 C 10.149 8.257,8.988 9.112,8.424 10.231 C 7.740 11.588,7.916 13.288,8.863 14.471 C 9.361 15.094,9.986 15.536,10.726 15.790 C 11.208 15.955,11.905 16.022,12.500 15.960 C 12.922 15.916,13.562 15.709,13.956 15.489 C 14.889 14.968,15.591 14.048,15.885 12.960 C 15.963 12.674,15.977 12.525,15.975 12.020 C 15.973 11.508,15.958 11.364,15.871 11.040 C 15.474 9.553,14.344 8.463,12.821 8.097 C 12.472 8.013,11.760 7.992,11.379 8.055 M12.320 10.042 C 12.640 10.093,12.993 10.255,13.268 10.477 C 13.505 10.667,13.797 11.084,13.902 11.380 C 14.003 11.665,14.004 12.306,13.904 12.600 C 13.723 13.137,13.322 13.588,12.809 13.832 C 12.112 14.163,11.217 14.002,10.655 13.445 C 10.353 13.147,10.219 12.951,10.119 12.666 C 9.675 11.404,10.599 10.084,11.980 10.005 C 12.024 10.003,12.177 10.019,12.320 10.042 " fill="var(--db-icon-color, currentColor)" stroke="none" fill-rule="evenodd"></path></svg>