<svg id="icon" height="32" viewBox="0 0 32 32" width="32" xmlns="http://www.w3.org/2000/svg"><path d="M11.460 2.201 C 11.013 2.542,11.016 2.530,10.997 4.379 L 10.980 6.011 7.784 6.039 L 4.588 6.067 4.406 6.205 C 4.193 6.368,4.000 6.735,4.000 6.979 C 4.000 7.327,4.269 7.753,4.597 7.925 C 4.720 7.989,6.413 8.000,16.000 8.000 C 28.413 8.000,27.396 8.029,27.720 7.661 C 28.124 7.200,28.054 6.529,27.565 6.181 C 27.406 6.068,27.369 6.066,24.209 6.039 L 21.013 6.011 21.013 4.389 C 21.013 2.604,21.017 2.629,20.671 2.296 C 20.516 2.147,20.422 2.105,20.173 2.074 C 20.005 2.053,18.027 2.034,15.777 2.031 L 11.688 2.027 11.460 2.201 M18.987 5.013 L 18.987 6.027 16.000 6.027 L 13.013 6.027 13.013 5.013 L 13.013 4.000 16.000 4.000 L 18.987 4.000 18.987 5.013 M4.738 10.077 C 4.630 10.098,4.483 10.154,4.411 10.201 C 4.105 10.402,3.934 10.917,4.053 11.279 C 4.124 11.493,4.376 11.809,4.552 11.903 C 4.613 11.936,5.048 11.981,5.518 12.004 C 5.988 12.026,6.437 12.069,6.515 12.099 C 6.593 12.129,6.725 12.243,6.808 12.353 L 6.960 12.552 6.992 19.996 C 7.014 25.360,7.040 27.515,7.085 27.707 C 7.311 28.680,8.179 29.566,9.227 29.893 C 9.495 29.977,10.072 29.987,16.027 30.011 L 22.533 30.038 22.987 29.871 C 23.791 29.576,24.420 29.008,24.764 28.267 C 24.912 27.947,24.928 27.856,24.965 27.093 C 24.987 26.639,25.009 23.879,25.015 20.960 C 25.020 18.041,25.040 14.945,25.059 14.080 C 25.091 12.640,25.102 12.494,25.198 12.353 C 25.350 12.127,25.585 12.054,26.255 12.023 C 27.322 11.974,27.400 11.959,27.628 11.752 C 28.125 11.303,28.094 10.557,27.562 10.179 C 27.416 10.074,27.313 10.060,26.593 10.038 C 25.584 10.008,25.109 10.075,24.607 10.320 C 23.935 10.648,23.316 11.376,23.111 12.080 C 23.025 12.376,23.016 12.972,22.989 19.924 L 22.960 27.448 22.808 27.647 C 22.725 27.757,22.593 27.874,22.515 27.908 C 22.306 27.998,9.864 28.034,9.649 27.945 C 9.565 27.910,9.403 27.781,9.290 27.658 L 9.084 27.435 9.049 26.024 C 9.029 25.248,9.012 22.165,9.009 19.173 C 9.007 16.181,8.988 13.361,8.966 12.907 C 8.929 12.096,8.924 12.072,8.728 11.666 C 8.338 10.857,7.479 10.196,6.665 10.079 C 6.269 10.021,5.028 10.020,4.738 10.077 M11.574 13.130 C 11.436 13.201,11.267 13.351,11.174 13.485 L 11.013 13.716 11.013 19.431 C 11.013 22.575,11.032 25.212,11.054 25.292 C 11.111 25.494,11.404 25.815,11.611 25.901 C 12.057 26.088,12.600 25.912,12.841 25.502 L 12.987 25.253 13.002 19.516 L 13.017 13.778 12.842 13.518 C 12.527 13.050,12.025 12.896,11.574 13.130 M15.719 13.058 C 15.521 13.106,15.222 13.352,15.107 13.562 C 15.019 13.722,15.013 14.098,15.013 19.440 C 15.013 22.579,15.032 25.212,15.054 25.292 C 15.111 25.494,15.404 25.815,15.611 25.901 C 16.005 26.066,16.552 25.924,16.796 25.594 C 16.876 25.486,16.934 25.305,16.964 25.074 C 16.989 24.879,17.011 22.257,17.012 19.246 L 17.013 13.772 16.840 13.515 C 16.745 13.373,16.595 13.216,16.507 13.166 C 16.320 13.060,15.931 13.006,15.719 13.058 M19.574 13.130 C 19.436 13.201,19.267 13.351,19.174 13.485 L 19.013 13.716 19.013 19.431 C 19.013 22.575,19.032 25.212,19.054 25.292 C 19.111 25.494,19.404 25.815,19.611 25.901 C 20.057 26.088,20.600 25.912,20.841 25.502 L 20.987 25.253 21.002 19.516 L 21.017 13.778 20.842 13.518 C 20.527 13.050,20.025 12.896,19.574 13.130 " fill="var(--db-icon-color, currentColor)" stroke="none" fill-rule="evenodd"></path></svg>