<svg id="icon" height="24" viewBox="0 0 24 24" width="24" xmlns="http://www.w3.org/2000/svg"><path d="M15.329 3.441 C 14.754 3.591,14.545 3.739,13.560 4.687 C 12.531 5.677,7.019 11.199,5.556 12.705 C 4.802 13.482,4.536 13.783,4.388 14.029 C 3.881 14.872,3.695 15.699,3.767 16.792 C 3.852 18.067,4.635 19.375,5.754 20.110 C 6.160 20.377,6.507 20.535,7.062 20.706 C 7.401 20.810,7.463 20.816,8.220 20.818 C 8.981 20.820,9.039 20.815,9.400 20.709 C 9.609 20.647,10.003 20.487,10.276 20.353 L 10.772 20.108 11.756 19.160 C 13.436 17.542,18.987 11.928,19.065 11.768 C 19.111 11.674,19.137 11.533,19.136 11.379 C 19.132 10.781,18.588 10.327,17.983 10.417 C 17.824 10.441,17.742 10.491,17.467 10.733 C 17.287 10.891,15.880 12.271,14.340 13.801 C 10.780 17.336,9.706 18.383,9.525 18.495 C 9.309 18.630,8.977 18.753,8.640 18.824 C 7.722 19.018,6.698 18.547,6.118 17.664 C 5.892 17.320,5.797 16.987,5.771 16.460 C 5.746 15.942,5.794 15.712,6.032 15.200 L 6.190 14.860 10.865 10.195 C 13.436 7.630,15.603 5.492,15.680 5.446 C 15.835 5.351,16.120 5.332,16.307 5.403 C 16.596 5.512,16.777 5.822,16.752 6.164 C 16.737 6.370,16.716 6.416,16.538 6.625 C 16.429 6.752,14.554 8.650,12.370 10.843 L 8.401 14.830 8.334 15.085 C 8.273 15.321,8.272 15.357,8.332 15.561 C 8.456 15.982,8.805 16.270,9.240 16.309 C 9.507 16.334,9.604 16.292,9.968 15.994 C 10.106 15.880,12.036 13.976,14.255 11.763 L 18.290 7.740 18.462 7.380 C 18.698 6.886,18.768 6.588,18.768 6.074 C 18.768 5.596,18.711 5.346,18.499 4.901 C 18.151 4.172,17.415 3.581,16.653 3.419 C 16.269 3.338,15.685 3.347,15.329 3.441 " fill="var(--db-icon-color, currentColor)" stroke="none" fill-rule="evenodd"></path></svg>