<svg id="icon" height="20" viewBox="0 0 20 20" width="20" xmlns="http://www.w3.org/2000/svg"><path d="M9.824 2.036 C 9.737 2.050,9.594 2.103,9.508 2.153 C 9.415 2.208,8.690 2.905,7.729 3.864 C 5.946 5.644,6.019 5.552,6.018 5.983 C 6.017 6.263,6.100 6.459,6.309 6.668 C 6.534 6.893,6.739 6.982,7.033 6.982 C 7.214 6.982,7.320 6.964,7.416 6.917 C 7.491 6.880,7.864 6.541,8.273 6.139 L 8.998 5.426 9.007 8.838 L 9.017 12.250 9.094 12.407 C 9.256 12.735,9.660 13.000,10.000 13.000 C 10.340 13.000,10.744 12.735,10.906 12.407 L 10.983 12.250 10.993 8.839 L 11.002 5.429 11.707 6.116 C 12.095 6.495,12.480 6.844,12.564 6.894 C 12.771 7.015,13.131 7.020,13.390 6.904 C 13.601 6.810,13.873 6.532,13.934 6.349 C 14.005 6.134,13.992 5.774,13.908 5.612 C 13.797 5.399,13.321 4.896,11.896 3.481 C 10.934 2.527,10.543 2.160,10.433 2.109 C 10.253 2.026,10.039 2.001,9.824 2.036 M3.783 12.030 C 3.488 12.107,3.227 12.324,3.084 12.611 L 3.000 12.780 3.000 14.126 L 3.000 15.473 3.121 15.837 C 3.458 16.851,4.133 17.529,5.153 17.877 L 5.517 18.001 9.995 18.000 L 14.473 18.000 14.837 17.879 C 15.857 17.540,16.550 16.845,16.880 15.829 L 17.000 15.461 17.000 14.170 C 17.000 12.667,16.997 12.644,16.731 12.354 C 16.484 12.084,16.338 12.024,15.955 12.038 C 15.660 12.049,15.635 12.056,15.454 12.176 C 15.331 12.258,15.221 12.369,15.141 12.493 L 15.017 12.683 14.997 13.967 L 14.977 15.250 14.890 15.420 C 14.843 15.514,14.728 15.659,14.635 15.742 C 14.327 16.019,14.673 16.000,10.000 16.000 C 5.305 16.000,5.672 16.021,5.351 15.729 C 5.021 15.427,5.025 15.448,5.008 14.003 L 4.993 12.750 4.891 12.557 C 4.778 12.342,4.667 12.235,4.434 12.117 C 4.264 12.031,3.943 11.988,3.783 12.030 " fill="var(--db-icon-color, currentColor)" stroke="none" fill-rule="evenodd"></path></svg>