<svg id="icon" height="24" viewBox="0 0 24 24" width="24" xmlns="http://www.w3.org/2000/svg"><path d="M11.480 2.042 C 10.075 2.136,8.676 2.815,7.640 3.905 C 6.687 4.908,6.104 6.241,6.013 7.619 L 5.988 7.993 4.484 8.010 C 3.490 8.022,2.930 8.044,2.833 8.075 C 2.636 8.138,2.321 8.428,2.192 8.666 C 2.134 8.773,2.065 8.968,2.038 9.100 C 1.978 9.389,1.998 9.517,2.962 15.194 L 3.603 18.968 2.992 19.594 C 2.184 20.421,2.089 20.540,2.041 20.794 C 1.994 21.044,2.045 21.358,2.159 21.519 C 2.465 21.949,2.984 22.104,3.420 21.897 C 3.587 21.818,15.789 9.674,19.457 5.937 C 21.549 3.805,21.520 3.840,21.520 3.455 C 21.519 3.207,21.445 3.006,21.290 2.834 C 21.101 2.625,20.880 2.516,20.594 2.490 C 20.171 2.452,20.072 2.525,18.617 3.968 L 17.333 5.240 17.225 5.043 C 16.815 4.289,16.108 3.539,15.312 3.013 C 14.429 2.430,13.487 2.105,12.540 2.059 C 12.298 2.047,12.046 2.032,11.980 2.027 C 11.914 2.021,11.689 2.028,11.480 2.042 M12.900 4.117 C 14.139 4.416,15.200 5.313,15.681 6.470 L 15.807 6.772 15.194 7.386 L 14.581 8.000 11.285 8.000 L 7.990 8.000 8.018 7.710 C 8.117 6.690,8.501 5.859,9.193 5.167 C 9.789 4.571,10.618 4.159,11.459 4.039 C 11.809 3.989,12.531 4.028,12.900 4.117 M20.256 8.028 C 20.232 8.045,20.001 9.311,19.744 10.840 C 19.036 15.053,18.576 17.759,18.391 18.795 C 18.239 19.649,18.215 19.739,18.115 19.839 C 18.034 19.920,17.950 19.955,17.793 19.974 C 17.676 19.988,15.474 20.000,12.900 20.000 L 8.220 20.000 7.246 21.000 L 6.273 22.001 12.306 21.990 L 18.340 21.980 18.666 21.849 C 19.196 21.635,19.591 21.318,19.880 20.873 C 20.179 20.413,20.182 20.402,21.135 14.700 C 22.084 9.026,22.060 9.213,21.879 8.826 C 21.649 8.337,21.212 8.052,20.638 8.016 C 20.452 8.005,20.280 8.010,20.256 8.028 M8.980 13.600 C 6.125 16.456,5.374 17.186,5.352 17.130 C 5.320 17.048,5.238 16.582,4.621 12.940 C 4.367 11.444,4.149 10.171,4.137 10.110 L 4.114 10.000 8.347 10.000 L 12.580 10.000 8.980 13.600 " fill="var(--db-icon-color, currentColor)" stroke="none" fill-rule="evenodd"></path></svg>