<svg id="icon" height="20" viewBox="0 0 20 20" width="20" xmlns="http://www.w3.org/2000/svg"><path d="M12.567 2.951 C 12.539 2.956,12.404 2.979,12.267 3.001 C 11.602 3.109,10.787 3.526,10.286 4.015 C 10.062 4.234,9.983 4.372,9.926 4.644 C 9.894 4.797,9.899 4.850,9.964 5.064 C 10.097 5.502,10.451 5.768,10.898 5.766 C 11.138 5.765,11.375 5.666,11.721 5.424 C 12.245 5.056,12.691 4.910,13.185 4.946 C 14.048 5.010,14.700 5.552,14.951 6.416 C 15.027 6.677,15.027 7.148,14.952 7.431 C 14.876 7.717,14.794 7.874,14.581 8.135 C 14.337 8.435,12.087 10.660,11.892 10.794 C 11.615 10.985,11.327 11.074,10.933 11.092 C 10.497 11.112,10.280 11.062,9.806 10.833 C 9.478 10.675,9.448 10.667,9.187 10.667 C 8.960 10.667,8.884 10.681,8.741 10.752 C 8.396 10.924,8.218 11.229,8.217 11.650 C 8.217 11.884,8.229 11.939,8.317 12.097 C 8.584 12.580,9.543 13.009,10.554 13.097 C 11.346 13.167,12.118 12.981,12.880 12.537 C 13.208 12.346,13.786 11.811,15.068 10.513 C 16.182 9.384,16.332 9.210,16.560 8.773 C 16.886 8.150,17.017 7.616,17.016 6.917 C 17.014 6.255,16.887 5.708,16.598 5.125 C 16.036 3.988,14.867 3.143,13.619 2.969 C 13.390 2.937,12.697 2.925,12.567 2.951 M8.628 6.832 C 8.132 6.896,7.572 7.091,7.103 7.365 C 6.780 7.554,6.378 7.922,5.046 9.250 C 3.833 10.458,3.652 10.670,3.392 11.183 C 3.096 11.769,2.965 12.325,2.965 13.005 C 2.963 14.898,4.268 16.492,6.171 16.921 C 6.521 17.000,7.326 17.000,7.692 16.921 C 8.202 16.812,8.707 16.612,9.081 16.373 C 9.295 16.236,9.756 15.839,9.873 15.692 C 10.148 15.345,10.120 14.811,9.810 14.466 C 9.599 14.231,9.413 14.151,9.083 14.152 C 8.779 14.153,8.687 14.191,8.264 14.488 C 7.505 15.019,6.770 15.110,6.042 14.763 C 5.624 14.564,5.181 14.046,5.054 13.608 C 4.925 13.162,4.957 12.553,5.129 12.183 C 5.257 11.908,5.443 11.695,6.411 10.710 C 7.957 9.137,8.170 8.969,8.766 8.848 C 9.236 8.753,9.621 8.828,10.333 9.154 C 10.682 9.313,10.885 9.323,11.167 9.193 C 11.838 8.885,11.992 8.009,11.456 7.548 C 11.168 7.301,10.634 7.055,10.070 6.912 C 9.711 6.821,9.016 6.783,8.628 6.832 " fill="var(--db-icon-color, currentColor)" stroke="none" fill-rule="evenodd"></path></svg>