<svg id="icon" height="32" viewBox="0 0 32 32" width="32" xmlns="http://www.w3.org/2000/svg"><path d="M20.552 3.119 C 19.823 3.251,19.068 3.574,18.507 3.994 C 18.096 4.301,12.568 9.777,8.621 13.786 C 5.094 17.369,4.987 17.492,4.534 18.473 C 4.300 18.980,4.033 19.813,3.947 20.308 C 3.858 20.816,3.874 22.201,3.974 22.699 C 4.102 23.336,4.301 23.911,4.617 24.560 C 5.273 25.904,6.466 27.087,7.813 27.730 C 8.750 28.177,9.517 28.369,10.533 28.412 C 11.962 28.471,13.238 28.154,14.426 27.444 C 15.060 27.065,15.494 26.687,17.027 25.179 C 19.049 23.191,25.592 16.551,25.987 16.087 C 26.415 15.583,26.458 15.435,26.289 15.041 C 26.077 14.548,25.541 14.290,25.107 14.471 C 24.870 14.570,24.379 15.041,19.653 19.706 C 13.825 25.460,13.681 25.598,13.251 25.822 C 12.430 26.249,11.391 26.488,10.587 26.433 C 8.626 26.301,6.962 25.087,6.214 23.244 C 5.960 22.619,5.905 22.227,5.931 21.213 C 5.956 20.233,6.005 20.037,6.444 19.150 C 6.636 18.761,6.808 18.518,7.200 18.084 C 7.817 17.398,16.820 8.395,18.571 6.711 C 19.868 5.463,20.096 5.292,20.667 5.139 C 21.012 5.047,21.871 5.048,22.220 5.141 C 23.012 5.352,23.745 5.974,24.120 6.754 C 24.342 7.218,24.347 7.239,24.365 7.872 C 24.387 8.627,24.303 9.042,24.038 9.489 C 23.919 9.690,22.393 11.259,19.044 14.625 C 16.392 17.290,13.706 19.968,13.077 20.576 L 11.931 21.680 11.575 21.680 C 11.264 21.680,11.193 21.660,11.016 21.526 C 10.563 21.180,10.487 20.524,10.848 20.083 C 10.952 19.956,13.048 17.828,15.506 15.353 C 17.965 12.878,20.137 10.664,20.333 10.433 C 20.771 9.920,20.810 9.775,20.623 9.367 C 20.440 8.966,20.153 8.774,19.739 8.777 C 19.558 8.778,19.366 8.817,19.253 8.875 C 19.059 8.976,11.926 16.103,10.076 18.044 C 8.949 19.227,8.822 19.409,8.668 20.063 C 8.565 20.500,8.566 20.874,8.673 21.349 C 8.827 22.037,9.128 22.516,9.734 23.040 C 10.264 23.500,11.053 23.763,11.739 23.710 C 12.201 23.674,12.780 23.494,13.125 23.278 C 13.388 23.114,20.947 15.601,23.721 12.747 C 24.705 11.735,25.593 10.778,25.694 10.621 C 25.934 10.247,26.149 9.719,26.299 9.136 C 26.611 7.926,26.327 6.376,25.595 5.281 C 24.499 3.643,22.466 2.771,20.552 3.119 " fill="var(--db-icon-color, currentColor)" stroke="none" fill-rule="evenodd"></path></svg>