<svg id="icon" height="24" viewBox="0 0 24 24" width="24" xmlns="http://www.w3.org/2000/svg"><path d="M7.360 2.037 C 5.932 2.059,5.896 2.062,5.726 2.153 C 5.485 2.281,5.236 2.541,5.108 2.799 L 5.000 3.016 5.000 12.069 L 5.000 21.123 5.098 21.316 C 5.323 21.760,5.832 22.040,6.314 21.984 C 6.688 21.940,6.667 21.950,10.490 19.943 L 11.999 19.151 14.330 20.373 C 17.197 21.877,17.364 21.958,17.649 21.987 C 18.098 22.034,18.512 21.846,18.789 21.468 L 18.940 21.262 18.966 19.841 C 18.980 19.059,18.993 14.954,18.996 10.718 L 19.000 3.016 18.896 2.808 C 18.764 2.542,18.502 2.272,18.254 2.148 L 18.060 2.050 13.440 2.032 C 10.899 2.022,8.163 2.024,7.360 2.037 " fill="var(--db-icon-color, currentColor)" stroke="none" fill-rule="evenodd"></path></svg>