<svg id="icon" height="24" viewBox="0 0 24 24" width="24" xmlns="http://www.w3.org/2000/svg"><path d="M11.757 4.078 C 11.201 4.179,10.631 4.393,10.285 4.630 C 10.037 4.800,9.661 5.181,9.497 5.428 C 9.197 5.879,9.040 6.496,9.041 7.214 C 9.042 7.732,9.106 8.079,9.277 8.487 C 9.345 8.647,9.400 8.791,9.400 8.806 C 9.400 8.821,9.287 8.909,9.150 9.001 C 8.397 9.508,7.890 10.315,7.796 11.158 C 7.652 12.450,8.175 13.452,9.342 14.119 C 9.514 14.217,10.079 14.474,10.597 14.690 C 12.179 15.349,12.540 15.560,12.834 16.001 C 13.009 16.263,13.080 16.518,13.080 16.887 C 13.080 17.254,13.011 17.431,12.777 17.667 C 12.613 17.832,12.519 17.889,12.307 17.955 C 11.667 18.153,11.034 18.160,10.180 17.978 C 8.975 17.722,8.858 17.721,8.582 17.964 C 8.206 18.293,8.249 18.880,8.679 19.305 C 9.337 19.955,11.303 20.202,12.738 19.814 C 13.990 19.476,14.857 18.490,15.000 17.243 C 15.052 16.791,15.050 16.271,14.996 15.977 C 14.941 15.675,14.755 15.191,14.601 14.949 L 14.482 14.760 14.571 14.706 C 14.620 14.676,14.744 14.605,14.846 14.547 C 15.283 14.299,15.716 13.838,15.941 13.380 C 16.147 12.961,16.202 12.694,16.203 12.113 C 16.204 11.671,16.191 11.566,16.099 11.293 C 15.948 10.841,15.786 10.581,15.443 10.235 C 14.953 9.743,14.412 9.434,12.900 8.781 C 12.460 8.592,11.982 8.366,11.837 8.281 C 11.128 7.861,10.838 7.368,10.958 6.790 C 11.115 6.035,12.104 5.753,13.656 6.020 C 14.336 6.137,14.433 6.141,14.631 6.058 C 14.938 5.930,15.118 5.650,15.119 5.297 C 15.121 4.865,14.922 4.538,14.530 4.328 C 14.105 4.102,13.917 4.071,12.880 4.057 C 12.363 4.051,11.858 4.060,11.757 4.078 M11.457 10.339 C 12.428 10.781,13.480 11.315,13.800 11.530 C 13.943 11.626,14.114 11.782,14.180 11.876 C 14.287 12.028,14.300 12.078,14.298 12.335 C 14.297 12.555,14.275 12.665,14.205 12.802 C 14.035 13.131,13.715 13.393,13.280 13.559 L 13.060 13.643 12.166 13.262 C 10.333 12.480,9.864 12.198,9.669 11.762 C 9.510 11.407,9.648 10.782,9.964 10.421 C 10.151 10.208,10.552 9.952,10.651 9.984 C 10.694 9.997,11.056 10.157,11.457 10.339 " fill="var(--db-icon-color, currentColor)" stroke="none" fill-rule="evenodd"></path></svg>