<svg id="icon" height="24" viewBox="0 0 24 24" width="24" xmlns="http://www.w3.org/2000/svg"><path d="M8.360 2.034 C 7.664 2.063,7.584 2.091,7.300 2.405 C 6.994 2.744,7.021 2.040,7.009 9.992 L 6.998 17.125 7.125 17.364 C 7.259 17.614,7.425 17.771,7.708 17.915 L 7.877 18.000 14.008 18.000 L 20.140 17.999 20.342 17.883 C 20.574 17.750,20.800 17.515,20.918 17.283 C 21.000 17.124,21.000 17.095,21.000 10.000 C 21.000 2.905,21.000 2.876,20.918 2.717 C 20.807 2.498,20.581 2.256,20.378 2.136 L 20.209 2.037 14.594 2.023 C 11.506 2.015,8.701 2.020,8.360 2.034 M19.000 10.000 L 19.000 16.000 14.000 16.000 L 9.000 16.000 9.000 10.000 L 9.000 4.000 14.000 4.000 L 19.000 4.000 19.000 10.000 M3.715 6.053 C 3.396 6.172,3.223 6.325,3.066 6.628 C 3.005 6.746,3.000 7.323,3.000 13.792 L 3.000 20.827 3.128 21.084 C 3.295 21.419,3.610 21.731,3.933 21.883 L 4.188 22.002 10.204 21.991 C 16.926 21.979,16.355 22.005,16.668 21.692 C 17.094 21.266,17.097 20.741,16.676 20.320 C 16.561 20.205,16.418 20.106,16.330 20.080 C 16.227 20.050,14.430 20.029,10.591 20.012 L 5.002 19.988 4.991 13.384 C 4.979 6.029,5.004 6.647,4.703 6.346 C 4.422 6.065,4.012 5.943,3.715 6.053 M13.000 8.000 L 13.000 9.000 12.000 9.000 L 11.000 9.000 11.000 10.000 L 11.000 11.000 12.000 11.000 L 13.000 11.000 13.000 12.000 L 13.000 13.000 14.000 13.000 L 15.000 13.000 15.000 12.000 L 15.000 11.000 16.000 11.000 L 17.000 11.000 17.000 10.000 L 17.000 9.000 16.000 9.000 L 15.000 9.000 15.000 8.000 L 15.000 7.000 14.000 7.000 L 13.000 7.000 13.000 8.000 " fill="var(--db-icon-color, currentColor)" stroke="none" fill-rule="evenodd"></path></svg>