<svg id="icon" height="32" viewBox="0 0 32 32" width="32" xmlns="http://www.w3.org/2000/svg"><path d="M21.103 2.104 C 20.862 2.190,20.715 2.314,20.595 2.533 C 20.517 2.674,20.505 2.996,20.491 5.262 L 20.475 7.830 18.038 7.849 C 15.776 7.867,15.585 7.875,15.395 7.969 C 15.173 8.078,14.962 8.355,14.879 8.644 C 14.771 9.021,15.039 9.534,15.467 9.766 C 15.572 9.823,16.110 9.843,18.016 9.858 L 20.433 9.877 20.404 10.018 C 20.388 10.096,20.350 10.328,20.319 10.533 C 19.886 13.397,18.027 16.674,15.238 19.493 C 14.520 20.218,14.497 20.236,14.446 20.107 C 14.417 20.033,13.853 18.461,13.191 16.613 C 11.757 12.603,10.767 9.878,10.622 9.541 C 10.535 9.337,10.468 9.270,10.235 9.154 C 9.926 9.000,9.785 8.985,9.475 9.071 C 9.027 9.195,8.984 9.277,8.169 11.547 C 6.217 16.978,3.092 25.752,2.366 27.837 C 1.922 29.111,1.912 29.212,2.186 29.591 C 2.358 29.828,2.722 30.027,2.987 30.027 C 3.246 30.027,3.614 29.830,3.778 29.603 C 3.864 29.483,4.337 28.234,4.983 26.418 L 6.046 23.430 7.437 23.395 C 8.201 23.376,9.872 23.360,11.149 23.360 L 13.471 23.360 14.103 25.133 C 14.827 27.167,15.513 29.032,15.672 29.397 C 16.048 30.263,17.350 30.062,17.522 29.111 C 17.563 28.880,17.482 28.629,16.155 24.917 C 15.659 23.529,15.253 22.377,15.253 22.357 C 15.253 22.337,15.747 21.820,16.350 21.208 C 18.056 19.477,18.875 18.503,19.750 17.168 C 20.201 16.480,20.913 15.180,21.257 14.416 L 21.488 13.904 21.579 14.138 C 21.718 14.497,22.476 15.961,22.833 16.560 C 23.199 17.176,23.883 18.145,24.533 18.970 C 25.444 20.125,28.006 22.611,28.564 22.881 C 29.137 23.160,29.799 22.833,29.974 22.186 C 30.095 21.734,30.019 21.634,28.389 20.118 C 25.612 17.536,23.593 14.424,22.882 11.633 C 22.733 11.049,22.547 9.969,22.587 9.928 C 22.607 9.909,23.682 9.879,24.978 9.861 C 27.438 9.828,27.523 9.819,27.780 9.583 C 27.951 9.427,28.104 9.082,28.105 8.851 C 28.107 8.596,27.909 8.227,27.669 8.036 L 27.472 7.879 24.989 7.852 L 22.507 7.825 22.507 5.324 C 22.507 2.970,22.501 2.811,22.405 2.625 C 22.148 2.123,21.630 1.916,21.103 2.104 M10.175 14.120 C 11.694 18.378,12.747 21.346,12.747 21.366 C 12.747 21.403,6.893 21.364,6.856 21.327 C 6.837 21.309,7.438 19.557,8.190 17.433 C 8.942 15.310,9.595 13.459,9.642 13.320 C 9.689 13.181,9.743 13.067,9.763 13.067 C 9.783 13.067,9.969 13.541,10.175 14.120 " fill="var(--db-icon-color, currentColor)" stroke="none" fill-rule="evenodd"></path></svg>