<svg id="icon" height="20" viewBox="0 0 20 20" width="20" xmlns="http://www.w3.org/2000/svg"><path d="M7.850 2.101 C 6.319 2.377,5.016 3.065,3.973 4.148 C 2.853 5.311,2.223 6.668,2.031 8.333 C 1.983 8.748,2.008 9.646,2.080 10.067 C 2.274 11.215,2.718 12.270,3.379 13.158 C 4.471 14.626,6.026 15.581,7.852 15.904 C 8.475 16.014,9.526 16.014,10.150 15.904 C 11.151 15.726,12.025 15.382,12.900 14.819 C 13.019 14.743,13.137 14.668,13.161 14.653 C 13.193 14.634,13.647 15.065,14.711 16.124 C 16.212 17.617,16.413 17.804,16.633 17.919 C 16.797 18.005,17.238 18.005,17.400 17.919 C 17.702 17.758,17.859 17.568,17.952 17.248 C 18.023 17.002,17.996 16.740,17.878 16.538 C 17.831 16.458,17.080 15.674,16.210 14.796 L 14.628 13.200 14.704 13.075 C 14.746 13.006,14.839 12.860,14.910 12.750 C 15.195 12.311,15.560 11.469,15.750 10.813 C 16.267 9.036,15.960 6.952,14.938 5.304 C 14.098 3.950,12.716 2.862,11.208 2.368 C 10.427 2.111,10.101 2.062,9.100 2.048 C 8.327 2.036,8.171 2.043,7.850 2.101 M9.352 4.065 C 9.942 4.096,10.236 4.152,10.708 4.322 C 12.091 4.818,13.295 6.057,13.748 7.450 C 13.909 7.947,13.977 8.399,13.978 8.983 C 13.979 9.825,13.844 10.418,13.486 11.150 C 13.213 11.707,12.936 12.095,12.500 12.532 C 11.782 13.252,10.968 13.691,9.955 13.905 C 9.497 14.001,8.493 14.009,8.068 13.919 C 7.460 13.790,6.723 13.485,6.225 13.154 C 5.795 12.869,5.160 12.224,4.859 11.767 C 4.643 11.440,4.393 10.921,4.269 10.542 C 4.092 9.998,4.067 9.805,4.067 8.976 C 4.067 8.286,4.074 8.186,4.148 7.883 C 4.353 7.035,4.714 6.335,5.273 5.699 C 6.062 4.801,7.255 4.169,8.350 4.068 C 8.734 4.032,8.729 4.032,9.352 4.065 M8.000 7.000 L 8.000 8.000 7.000 8.000 L 6.000 8.000 6.000 9.000 L 6.000 10.000 7.000 10.000 L 8.000 10.000 8.000 11.000 L 8.000 12.000 8.625 12.000 C 8.969 12.000,9.419 12.010,9.625 12.022 L 10.000 12.044 10.000 11.022 L 10.000 10.000 11.000 10.000 L 12.000 10.000 12.000 9.000 L 12.000 8.000 11.000 8.000 L 10.000 8.000 10.000 7.000 L 10.000 6.000 9.000 6.000 L 8.000 6.000 8.000 7.000 " fill="var(--db-icon-color, currentColor)" stroke="none" fill-rule="evenodd"></path></svg>