<svg id="icon" height="20" viewBox="0 0 20 20" width="20" xmlns="http://www.w3.org/2000/svg"><path d="M9.467 2.035 C 8.513 2.154,7.627 2.604,7.011 3.281 C 6.760 3.557,6.459 4.020,6.331 4.328 C 6.177 4.697,6.033 5.300,6.010 5.670 L 5.991 5.990 5.151 6.008 C 4.203 6.028,4.160 6.038,3.888 6.311 C 3.667 6.532,3.643 6.612,3.586 7.334 C 3.417 9.453,3.033 16.115,3.033 16.915 C 3.033 17.211,3.044 17.275,3.119 17.425 C 3.214 17.616,3.393 17.792,3.607 17.907 L 3.750 17.983 10.000 17.983 L 16.250 17.983 16.400 17.905 C 16.698 17.749,16.915 17.474,16.969 17.183 C 16.983 17.110,16.980 16.758,16.963 16.400 C 16.922 15.543,16.659 11.037,16.532 9.017 C 16.375 6.517,16.385 6.584,16.112 6.311 C 15.840 6.038,15.798 6.028,14.844 6.008 L 14.000 5.990 14.000 5.853 C 14.000 5.653,13.912 5.119,13.835 4.842 C 13.494 3.630,12.610 2.675,11.441 2.255 C 10.900 2.060,10.036 1.964,9.467 2.035 M10.586 4.069 C 11.355 4.210,11.885 4.858,11.984 5.778 L 12.008 6.000 10.000 6.000 L 7.991 6.000 8.014 5.792 C 8.111 4.912,8.544 4.341,9.300 4.096 C 9.516 4.026,10.264 4.011,10.586 4.069 M14.467 8.042 C 14.467 8.131,14.898 15.498,14.917 15.742 L 14.938 16.000 9.999 16.000 L 5.061 16.000 5.082 15.758 C 5.099 15.552,5.533 8.161,5.533 8.068 C 5.533 8.019,5.884 8.015,10.358 8.007 C 13.627 8.001,14.467 8.009,14.467 8.042 M7.011 10.758 C 7.023 11.218,7.051 11.604,7.080 11.738 C 7.194 12.260,7.561 12.905,7.942 13.251 C 8.551 13.805,9.421 14.064,10.362 13.972 C 11.474 13.862,12.295 13.273,12.740 12.264 C 12.930 11.832,12.966 11.619,12.989 10.758 L 13.010 10.000 12.010 10.000 L 11.010 10.000 10.990 10.654 L 10.970 11.307 10.860 11.490 C 10.747 11.679,10.603 11.813,10.400 11.918 C 10.236 12.004,9.764 12.004,9.600 11.918 C 9.397 11.813,9.253 11.679,9.140 11.490 L 9.030 11.307 9.010 10.654 L 8.990 10.000 7.990 10.000 L 6.990 10.000 7.011 10.758 " fill="var(--db-icon-color, currentColor)" stroke="none" fill-rule="evenodd"></path></svg>