<svg id="icon" height="20" viewBox="0 0 20 20" width="20" xmlns="http://www.w3.org/2000/svg"><path d="M13.598 2.111 C 13.478 2.154,13.301 2.232,13.205 2.284 C 12.991 2.401,11.605 3.757,6.792 8.563 C 4.031 11.320,3.314 12.053,3.236 12.200 C 3.105 12.445,3.031 12.707,2.583 14.500 C 2.016 16.773,1.981 16.941,2.027 17.160 C 2.069 17.360,2.222 17.623,2.369 17.747 C 2.421 17.791,2.534 17.854,2.619 17.886 C 2.759 17.939,2.805 17.941,3.062 17.904 C 3.221 17.882,4.055 17.685,4.917 17.468 C 7.508 16.813,7.769 16.734,8.018 16.530 C 8.290 16.307,12.405 12.250,15.087 9.561 L 17.591 7.050 17.729 6.767 C 18.028 6.151,18.039 5.513,17.763 4.846 C 17.637 4.543,17.334 4.200,16.333 3.223 C 15.179 2.098,15.117 2.062,14.317 2.044 C 13.862 2.035,13.797 2.041,13.598 2.111 M15.150 4.867 L 16.050 5.767 15.341 6.475 L 14.633 7.183 13.725 6.275 L 12.817 5.367 13.517 4.667 C 13.901 4.282,14.224 3.967,14.233 3.967 C 14.243 3.967,14.655 4.372,15.150 4.867 M11.361 10.409 C 10.347 11.414,9.028 12.715,8.430 13.300 L 7.343 14.365 6.469 13.466 C 5.988 12.972,5.599 12.552,5.606 12.533 C 5.612 12.515,6.922 11.218,8.517 9.651 L 11.417 6.803 12.311 7.693 L 13.205 8.583 11.361 10.409 " fill="var(--db-icon-color, currentColor)" stroke="none" fill-rule="evenodd"></path></svg>