<svg id="icon" height="24" viewBox="0 0 24 24" width="24" xmlns="http://www.w3.org/2000/svg"><path d="M9.200 2.042 C 6.819 2.303,4.674 3.605,3.329 5.605 C 2.535 6.787,2.069 8.244,2.011 9.723 C 1.915 12.210,3.023 14.641,4.984 16.243 C 6.040 17.106,7.415 17.715,8.820 17.941 C 9.429 18.039,10.763 18.029,11.348 17.922 C 12.557 17.700,13.817 17.172,14.711 16.512 L 14.928 16.352 17.574 18.988 C 19.029 20.438,20.304 21.692,20.406 21.774 C 20.888 22.160,21.618 22.000,21.885 21.450 C 22.020 21.172,22.013 20.744,21.870 20.528 C 21.814 20.443,20.551 19.149,19.065 17.652 L 16.362 14.931 16.667 14.476 C 17.899 12.638,18.321 10.348,17.820 8.220 C 17.343 6.195,16.121 4.451,14.380 3.310 C 13.462 2.709,12.334 2.284,11.171 2.102 C 10.664 2.023,9.653 1.992,9.200 2.042 M11.322 4.154 C 12.482 4.434,13.447 4.968,14.259 5.781 C 14.925 6.446,15.411 7.225,15.695 8.080 C 15.918 8.750,15.965 9.032,15.988 9.820 C 16.006 10.429,15.996 10.614,15.927 11.020 C 15.516 13.420,13.806 15.247,11.396 15.862 C 10.591 16.067,9.414 16.066,8.594 15.859 C 6.552 15.344,4.988 13.891,4.318 11.884 C 4.098 11.225,4.040 10.834,4.040 10.020 C 4.040 9.221,4.097 8.819,4.301 8.180 C 4.596 7.255,5.061 6.500,5.780 5.777 C 6.653 4.899,7.623 4.376,8.860 4.118 C 9.373 4.010,10.814 4.032,11.322 4.154 M6.994 9.037 C 6.644 9.058,6.592 9.072,6.434 9.185 C 6.338 9.254,6.206 9.396,6.141 9.500 C 6.037 9.667,6.022 9.726,6.025 9.975 C 6.031 10.437,6.191 10.711,6.569 10.904 L 6.757 11.000 10.000 11.000 L 13.243 11.000 13.437 10.902 C 13.660 10.789,13.897 10.531,13.963 10.331 C 13.988 10.255,14.002 10.069,13.993 9.918 C 13.975 9.596,13.851 9.382,13.566 9.181 L 13.393 9.060 12.247 9.034 C 10.844 9.003,7.523 9.005,6.994 9.037 " fill="var(--db-icon-color, currentColor)" stroke="none" fill-rule="evenodd"></path></svg>