<svg id="icon" height="20" viewBox="0 0 20 20" width="20" xmlns="http://www.w3.org/2000/svg"><path d="M5.583 3.086 C 3.800 3.478,2.475 4.820,2.079 6.635 C 1.985 7.063,1.993 7.976,2.094 8.383 C 2.310 9.258,2.543 9.749,3.008 10.308 C 3.153 10.483,4.986 12.279,7.067 14.285 C 9.155 16.298,9.076 16.226,9.347 16.352 C 9.690 16.510,9.956 16.550,10.254 16.488 C 10.621 16.412,10.861 16.271,11.243 15.908 C 12.772 14.460,16.707 10.629,16.941 10.361 C 17.929 9.231,18.270 7.383,17.764 5.897 C 17.361 4.710,16.274 3.681,14.991 3.271 C 14.106 2.988,13.096 2.981,12.283 3.253 C 11.687 3.452,10.969 3.873,10.398 4.359 C 10.231 4.501,10.075 4.631,10.051 4.647 C 10.020 4.670,9.918 4.595,9.690 4.385 C 8.961 3.712,8.303 3.335,7.499 3.131 C 7.118 3.034,5.946 3.007,5.583 3.086 M7.058 5.083 C 7.540 5.197,7.889 5.442,8.781 6.295 C 9.468 6.951,9.570 7.011,10.000 7.011 C 10.388 7.011,10.548 6.933,11.003 6.517 C 11.896 5.702,12.032 5.585,12.249 5.440 C 12.668 5.161,13.303 5.001,13.800 5.049 C 14.647 5.132,15.395 5.617,15.728 6.300 C 15.962 6.780,16.035 7.214,15.968 7.718 C 15.908 8.175,15.763 8.578,15.569 8.833 C 15.361 9.107,14.324 10.138,11.918 12.462 L 10.019 14.296 9.835 14.124 C 9.300 13.624,5.469 9.892,4.981 9.396 C 4.466 8.871,4.399 8.790,4.275 8.533 C 4.082 8.137,4.023 7.886,4.023 7.467 C 4.022 6.808,4.228 6.287,4.673 5.816 C 5.044 5.424,5.375 5.220,5.867 5.082 C 6.078 5.022,6.802 5.023,7.058 5.083 " fill="var(--db-icon-color, currentColor)" stroke="none" fill-rule="evenodd"></path></svg>