<svg id="icon" height="20" viewBox="0 0 20 20" width="20" xmlns="http://www.w3.org/2000/svg"><path d="M4.880 4.031 C 4.509 4.053,4.455 4.065,4.220 4.177 C 3.555 4.492,3.118 5.058,3.033 5.712 C 3.016 5.843,3.002 6.635,3.001 7.471 L 3.000 8.993 2.875 9.015 C 2.550 9.074,2.235 9.305,2.101 9.582 C 1.982 9.826,1.984 9.966,2.116 10.667 C 2.405 12.199,2.870 14.436,2.947 14.665 C 3.138 15.227,3.587 15.655,4.257 15.910 L 4.450 15.983 9.990 15.993 L 15.530 16.002 15.791 15.901 C 16.241 15.728,16.550 15.491,16.818 15.116 C 17.028 14.822,17.075 14.676,17.295 13.613 C 17.802 11.177,18.013 10.026,17.987 9.841 C 17.934 9.451,17.555 9.080,17.143 9.014 L 17.007 8.993 16.992 8.055 C 16.976 7.054,16.961 6.951,16.782 6.597 C 16.606 6.250,16.182 5.860,15.779 5.675 C 15.447 5.522,15.108 5.502,12.821 5.501 L 10.926 5.500 10.263 4.821 C 9.885 4.433,9.548 4.115,9.476 4.080 C 9.358 4.022,9.221 4.018,7.317 4.013 C 6.198 4.010,5.102 4.018,4.880 4.031 M9.299 6.682 C 9.735 7.115,10.032 7.385,10.117 7.423 C 10.240 7.479,10.420 7.484,12.625 7.493 L 15.000 7.503 15.000 8.251 L 15.000 9.000 10.000 9.000 L 5.000 9.000 5.000 7.500 L 5.000 6.000 6.807 6.000 L 8.615 6.000 9.299 6.682 M15.746 11.035 C 15.756 11.045,15.633 11.713,15.473 12.518 L 15.181 13.983 10.000 13.983 L 4.820 13.983 4.528 12.533 C 4.368 11.736,4.236 11.073,4.235 11.059 C 4.234 11.046,4.395 11.030,4.592 11.024 C 5.184 11.005,15.726 11.015,15.746 11.035 " fill="var(--db-icon-color, currentColor)" stroke="none" fill-rule="evenodd"></path></svg>