<svg id="icon" height="24" viewBox="0 0 24 24" width="24" xmlns="http://www.w3.org/2000/svg"><path d="M11.440 2.044 C 10.632 2.136,9.693 2.587,9.119 3.160 C 8.489 3.788,8.081 4.707,8.013 5.646 L 7.989 5.991 6.863 6.006 C 5.748 6.020,5.735 6.022,5.539 6.122 C 5.285 6.253,5.098 6.497,5.044 6.769 C 5.005 6.968,4.774 9.682,4.461 13.620 C 3.965 19.872,3.948 20.143,4.059 20.361 C 4.185 20.610,4.321 20.759,4.533 20.880 L 4.740 20.999 11.992 21.000 C 18.594 21.000,19.255 20.994,19.372 20.935 C 19.609 20.815,19.761 20.676,19.880 20.467 C 20.062 20.150,20.068 20.273,19.560 14.080 C 19.316 11.099,19.061 8.121,18.979 7.280 C 18.908 6.564,18.836 6.393,18.514 6.176 C 18.344 6.062,18.296 6.051,17.875 6.027 C 17.625 6.012,17.094 6.000,16.696 6.000 L 15.972 6.000 15.946 5.630 C 15.831 3.969,14.767 2.639,13.189 2.183 C 12.897 2.099,11.978 1.982,11.784 2.005 C 11.760 2.008,11.605 2.026,11.440 2.044 M12.859 4.215 C 13.508 4.536,13.960 5.222,13.960 5.885 L 13.960 6.000 11.980 6.000 L 10.000 6.000 10.001 5.910 C 10.002 5.725,10.117 5.283,10.214 5.092 C 10.445 4.637,10.831 4.286,11.293 4.115 C 11.466 4.051,11.586 4.040,12.024 4.050 C 12.541 4.062,12.552 4.064,12.859 4.215 M15.640 8.035 L 17.060 8.060 17.189 9.680 C 17.260 10.571,17.444 12.893,17.598 14.840 C 17.752 16.787,17.889 18.520,17.903 18.690 L 17.928 19.000 12.004 19.000 C 7.782 19.000,6.080 18.988,6.080 18.957 C 6.080 18.788,6.871 8.437,6.903 8.190 L 6.928 8.000 10.574 8.005 C 12.579 8.008,14.859 8.022,15.640 8.035 M8.748 10.040 C 8.539 10.079,8.283 10.273,8.140 10.502 C 8.023 10.689,8.020 10.705,8.028 11.157 C 8.059 12.899,9.246 14.390,10.980 14.867 C 11.336 14.965,11.446 14.977,11.980 14.975 C 12.495 14.974,12.635 14.959,12.965 14.870 C 14.641 14.421,15.843 12.974,15.946 11.280 C 15.974 10.829,15.930 10.630,15.749 10.396 C 15.397 9.939,14.676 9.895,14.265 10.305 C 14.079 10.492,13.997 10.700,13.957 11.094 C 13.915 11.500,13.876 11.646,13.730 11.940 C 13.145 13.119,11.508 13.355,10.552 12.398 C 10.244 12.090,10.060 11.704,10.000 11.240 C 9.940 10.768,9.863 10.525,9.721 10.354 C 9.513 10.102,9.110 9.972,8.748 10.040 " fill="var(--db-icon-color, currentColor)" stroke="none" fill-rule="evenodd"></path></svg>