<svg id="icon" height="32" viewBox="0 0 32 32" width="32" xmlns="http://www.w3.org/2000/svg"><path d="M8.427 2.073 C 7.611 2.104,7.525 2.117,7.248 2.253 C 6.869 2.440,6.385 2.943,6.203 3.341 C 6.092 3.584,6.055 3.770,6.022 4.263 C 5.968 5.067,5.967 26.931,6.022 27.735 C 6.075 28.518,6.236 28.894,6.716 29.352 C 7.152 29.768,7.510 29.920,8.187 29.977 C 8.881 30.036,23.114 30.036,23.819 29.977 C 24.521 29.919,24.917 29.740,25.352 29.284 C 25.796 28.818,25.921 28.501,25.983 27.681 C 26.012 27.289,26.025 23.092,26.014 17.468 C 25.993 6.614,26.044 7.661,25.511 7.012 C 25.127 6.546,22.136 3.518,21.393 2.844 C 21.089 2.567,20.725 2.283,20.584 2.212 L 20.328 2.082 14.817 2.061 C 11.787 2.049,8.911 2.055,8.427 2.073 M17.973 6.589 C 17.973 8.866,17.984 9.199,18.059 9.349 C 18.180 9.589,18.393 9.806,18.625 9.925 C 18.811 10.021,18.969 10.027,21.414 10.027 L 24.005 10.027 23.989 18.931 C 23.976 26.149,23.960 27.848,23.904 27.904 C 23.801 28.007,8.199 28.007,8.096 27.904 C 8.040 27.848,8.024 25.770,8.013 16.811 C 8.005 10.747,8.017 5.403,8.039 4.933 L 8.080 4.080 8.347 4.048 C 8.493 4.031,10.719 4.013,13.293 4.008 L 17.973 4.000 17.973 6.589 M21.893 6.133 L 23.759 8.000 21.880 8.000 L 20.000 8.000 20.000 6.133 C 20.000 5.107,20.006 4.267,20.014 4.267 C 20.021 4.267,20.867 5.107,21.893 6.133 M10.533 14.126 C 10.055 14.424,9.897 14.937,10.128 15.445 C 10.254 15.722,10.475 15.880,10.830 15.947 C 11.205 16.018,20.795 16.018,21.170 15.947 C 21.525 15.880,21.746 15.722,21.872 15.445 C 22.051 15.050,21.991 14.619,21.717 14.329 C 21.414 14.009,21.754 14.027,15.989 14.027 C 10.916 14.027,10.687 14.031,10.533 14.126 M10.533 18.126 C 10.055 18.424,9.897 18.937,10.128 19.445 C 10.254 19.722,10.475 19.880,10.830 19.947 C 11.205 20.018,20.795 20.018,21.170 19.947 C 21.525 19.880,21.746 19.722,21.872 19.445 C 22.051 19.050,21.991 18.619,21.717 18.329 C 21.414 18.009,21.754 18.027,15.989 18.027 C 10.916 18.027,10.687 18.031,10.533 18.126 M10.533 22.126 C 10.055 22.424,9.897 22.937,10.128 23.445 C 10.254 23.722,10.475 23.880,10.830 23.947 C 11.205 24.018,20.795 24.018,21.170 23.947 C 21.525 23.880,21.746 23.722,21.872 23.445 C 22.051 23.050,21.991 22.619,21.717 22.329 C 21.414 22.009,21.754 22.027,15.989 22.027 C 10.916 22.027,10.687 22.031,10.533 22.126 " fill="var(--db-icon-color, currentColor)" stroke="none" fill-rule="evenodd"></path></svg>