<svg id="icon" height="20" viewBox="0 0 20 20" width="20" xmlns="http://www.w3.org/2000/svg"><path d="M2.797 2.029 C 2.494 2.094,2.185 2.374,2.067 2.690 C 1.929 3.059,2.009 3.378,2.317 3.689 C 2.588 3.961,2.717 4.000,3.357 4.000 C 3.821 4.000,3.836 4.002,3.867 4.075 C 3.885 4.116,4.057 5.027,4.249 6.100 C 4.441 7.173,4.801 9.181,5.048 10.563 L 5.498 13.076 4.336 14.253 C 3.031 15.575,3.019 15.591,3.018 16.000 C 3.016 16.343,3.090 16.520,3.321 16.731 C 3.521 16.915,3.737 17.000,3.998 17.000 C 4.273 16.999,4.389 16.943,4.711 16.656 C 5.103 16.307,14.439 6.994,16.384 5.012 C 17.196 4.185,17.887 3.457,17.920 3.396 C 17.961 3.316,17.979 3.205,17.980 3.017 C 17.981 2.699,17.908 2.508,17.711 2.311 C 17.514 2.114,17.362 2.054,17.027 2.039 C 16.595 2.021,16.554 2.049,15.480 3.108 L 14.576 4.000 10.243 4.000 L 5.910 4.000 5.823 3.664 C 5.713 3.246,5.582 2.971,5.377 2.727 C 5.102 2.400,4.803 2.196,4.433 2.086 C 4.228 2.024,3.012 1.982,2.797 2.029 M10.632 7.951 L 8.680 9.903 8.015 9.967 C 7.649 10.002,7.273 10.039,7.179 10.049 L 7.009 10.066 6.957 9.791 C 6.929 9.640,6.769 8.774,6.602 7.867 C 6.435 6.959,6.290 6.176,6.280 6.127 C 6.262 6.037,6.264 6.037,6.473 6.025 C 6.589 6.018,8.011 6.010,9.633 6.006 L 12.583 6.000 10.632 7.951 M14.907 9.345 C 13.766 10.489,12.833 11.446,12.833 11.472 C 12.833 11.512,12.877 11.516,13.092 11.495 C 13.234 11.481,13.664 11.439,14.048 11.401 C 14.820 11.325,15.087 11.273,15.344 11.151 C 15.561 11.047,15.822 10.833,15.993 10.617 C 16.273 10.262,16.352 10.026,16.730 8.400 C 16.821 8.006,16.918 7.590,16.945 7.475 C 16.972 7.360,16.991 7.267,16.987 7.267 C 16.983 7.267,16.047 8.202,14.907 9.345 M10.250 13.997 L 9.250 15.000 11.979 15.000 L 14.707 15.000 14.905 14.895 C 15.534 14.559,15.679 13.779,15.200 13.300 C 14.920 13.020,14.987 13.029,13.004 13.010 L 11.250 12.993 10.250 13.997 M13.783 15.533 C 13.299 15.604,12.892 16.004,12.785 16.514 C 12.638 17.219,13.156 17.911,13.889 17.987 C 14.280 18.028,14.749 17.819,14.985 17.498 C 15.322 17.039,15.317 16.409,14.973 15.975 C 14.711 15.644,14.234 15.467,13.783 15.533 M7.371 16.879 L 6.493 17.757 6.607 17.827 C 6.742 17.911,7.067 18.000,7.232 17.999 C 7.701 17.996,8.192 17.676,8.392 17.242 C 8.467 17.079,8.481 17.004,8.481 16.750 C 8.481 16.482,8.470 16.426,8.376 16.225 C 8.318 16.101,8.266 16.000,8.260 16.000 C 8.254 16.000,7.854 16.395,7.371 16.879 " fill="var(--db-icon-color, currentColor)" stroke="none" fill-rule="evenodd"></path></svg>