<svg id="icon" height="32" viewBox="0 0 32 32" width="32" xmlns="http://www.w3.org/2000/svg"><path d="M15.234 3.046 C 13.742 3.201,12.234 3.897,11.152 4.930 C 10.169 5.869,9.609 6.805,9.218 8.160 C 9.058 8.715,9.056 8.734,9.028 10.355 L 8.999 11.989 8.700 12.026 C 8.004 12.110,7.312 12.459,6.815 12.978 C 6.499 13.307,6.297 13.655,6.105 14.200 L 5.959 14.614 5.987 20.547 C 6.018 27.100,5.995 26.662,6.360 27.387 C 6.555 27.775,7.215 28.446,7.604 28.653 C 8.262 29.003,7.737 28.981,15.992 29.001 L 23.478 29.018 23.903 28.856 C 24.438 28.652,24.829 28.394,25.173 28.017 C 25.512 27.646,25.668 27.380,25.873 26.819 L 26.037 26.373 26.015 20.427 L 25.993 14.480 25.853 14.086 C 25.447 12.949,24.485 12.175,23.291 12.026 L 22.987 11.988 22.987 10.699 C 22.987 8.892,22.896 8.282,22.478 7.271 C 22.054 6.248,21.328 5.314,20.332 4.514 C 19.302 3.687,17.927 3.143,16.671 3.066 C 16.405 3.050,16.067 3.029,15.920 3.020 C 15.773 3.010,15.465 3.022,15.234 3.046 M17.173 5.143 C 18.210 5.364,19.356 6.110,20.034 7.005 C 20.317 7.378,20.757 8.272,20.850 8.662 C 20.926 8.982,21.009 10.334,21.012 11.293 L 21.013 12.000 16.000 12.000 L 10.987 12.000 10.989 11.293 C 10.992 10.008,11.076 8.915,11.203 8.507 C 11.767 6.692,13.403 5.310,15.280 5.063 C 15.705 5.007,16.741 5.051,17.173 5.143 M23.556 14.195 C 23.674 14.273,23.816 14.429,23.872 14.542 C 23.970 14.740,23.973 14.945,23.970 20.547 C 23.967 26.293,23.966 26.349,23.859 26.494 C 23.799 26.574,23.648 26.718,23.524 26.813 L 23.298 26.987 16.000 26.987 L 8.702 26.987 8.476 26.813 C 8.352 26.718,8.201 26.574,8.141 26.494 C 8.034 26.349,8.033 26.293,8.030 20.547 C 8.027 14.849,8.029 14.743,8.133 14.537 C 8.315 14.180,8.454 14.116,9.134 14.076 C 9.464 14.057,12.795 14.044,16.537 14.047 L 23.341 14.053 23.556 14.195 M15.506 17.071 C 14.707 17.260,14.077 18.025,14.035 18.859 C 14.001 19.535,14.307 20.249,14.769 20.575 L 14.976 20.720 14.995 22.000 C 15.016 23.372,15.032 23.456,15.315 23.714 C 15.798 24.153,16.441 24.074,16.824 23.528 L 16.987 23.298 17.004 22.009 L 17.021 20.720 17.237 20.565 C 17.355 20.480,17.543 20.270,17.654 20.099 C 18.300 19.100,17.943 17.763,16.890 17.238 C 16.496 17.041,15.927 16.972,15.506 17.071 " fill="var(--db-icon-color, currentColor)" stroke="none" fill-rule="evenodd"></path></svg>