<svg id="icon" height="20" viewBox="0 0 20 20" width="20" xmlns="http://www.w3.org/2000/svg"><path d="M6.133 2.034 C 5.464 2.058,5.420 2.067,5.068 2.252 C 4.529 2.535,4.118 3.111,4.032 3.703 C 3.995 3.963,3.993 8.518,4.030 9.100 C 4.054 9.476,4.068 9.541,4.172 9.767 C 4.392 10.241,4.850 10.676,5.317 10.854 C 5.539 10.940,5.589 10.945,6.400 10.969 C 7.557 11.004,12.554 11.003,13.583 10.969 C 14.289 10.945,14.446 10.931,14.608 10.873 C 15.200 10.663,15.666 10.187,15.893 9.561 L 15.982 9.317 15.982 6.567 C 15.982 4.451,15.972 3.767,15.938 3.600 C 15.814 2.977,15.366 2.453,14.683 2.132 L 14.517 2.053 12.617 2.031 C 10.308 2.003,6.974 2.005,6.133 2.034 M11.000 8.000 L 11.000 9.000 8.500 9.000 L 6.000 9.000 6.000 8.000 L 6.000 7.000 8.500 7.000 L 11.000 7.000 11.000 8.000 M4.273 13.034 C 3.890 13.114,3.531 13.378,3.377 13.693 C 3.290 13.869,3.283 13.912,3.285 14.267 C 3.287 14.599,3.298 14.672,3.366 14.817 C 3.485 15.066,3.915 15.472,4.484 15.872 C 5.178 16.360,5.302 16.515,5.189 16.752 C 5.119 16.899,4.966 16.974,4.700 16.990 C 4.478 17.005,4.291 16.963,3.850 16.800 C 3.526 16.681,3.289 16.750,3.157 17.002 C 3.076 17.156,3.099 17.365,3.213 17.514 C 3.497 17.887,4.601 18.104,5.221 17.908 C 5.501 17.821,5.780 17.640,5.945 17.441 C 6.192 17.142,6.292 16.645,6.184 16.248 C 6.075 15.845,5.817 15.576,4.983 14.996 C 4.370 14.570,4.208 14.371,4.282 14.138 C 4.335 13.971,4.699 13.969,5.276 14.135 C 5.617 14.232,5.715 14.230,5.870 14.121 C 6.058 13.989,6.120 13.724,6.018 13.481 C 5.978 13.385,5.926 13.345,5.726 13.251 C 5.341 13.070,4.615 12.962,4.273 13.034 M7.117 13.022 C 7.080 13.030,7.017 13.043,6.976 13.052 C 6.936 13.060,6.850 13.122,6.785 13.189 L 6.667 13.310 6.667 15.498 L 6.667 17.685 6.767 17.807 C 6.921 17.993,7.051 18.009,8.352 17.995 C 9.411 17.984,9.466 17.980,9.554 17.915 C 9.708 17.800,9.772 17.687,9.775 17.530 C 9.777 17.352,9.702 17.196,9.566 17.100 C 9.471 17.032,9.418 17.027,8.566 17.009 L 7.667 16.990 7.667 16.448 L 7.667 15.906 8.325 15.893 C 9.046 15.879,9.123 15.861,9.231 15.686 C 9.384 15.437,9.337 15.183,9.106 15.006 C 8.989 14.917,8.986 14.917,8.328 14.905 L 7.667 14.893 7.667 14.449 L 7.667 14.004 8.508 13.994 C 9.485 13.982,9.532 13.969,9.646 13.694 C 9.767 13.402,9.604 13.090,9.299 13.032 C 9.152 13.003,7.245 12.995,7.117 13.022 M10.650 13.022 C 10.484 13.042,10.327 13.158,10.252 13.317 C 10.199 13.429,10.195 13.606,10.206 15.550 C 10.216 17.620,10.218 17.664,10.285 17.756 C 10.452 17.985,10.784 18.054,10.994 17.904 C 11.183 17.770,11.200 17.683,11.200 16.857 L 11.200 16.108 11.708 16.092 C 12.315 16.072,12.569 16.006,12.834 15.797 C 13.189 15.516,13.315 15.194,13.316 14.567 C 13.317 13.915,13.172 13.550,12.808 13.286 C 12.510 13.069,12.310 13.028,11.500 13.017 C 11.106 13.011,10.723 13.014,10.650 13.022 M14.883 13.062 C 14.810 13.096,14.725 13.152,14.694 13.187 C 14.636 13.253,14.338 14.010,13.667 15.800 C 13.201 17.046,13.067 17.432,13.067 17.532 C 13.067 17.744,13.329 18.000,13.546 18.000 C 13.696 18.000,13.856 17.913,13.945 17.781 C 13.992 17.713,14.117 17.426,14.223 17.145 L 14.417 16.633 15.000 16.634 L 15.583 16.634 15.764 17.168 C 15.864 17.462,15.972 17.745,16.003 17.797 C 16.080 17.924,16.320 18.016,16.489 17.985 C 16.635 17.957,16.851 17.759,16.885 17.620 C 16.900 17.562,16.881 17.436,16.834 17.273 C 16.667 16.699,15.593 13.502,15.505 13.316 C 15.407 13.108,15.339 13.055,15.128 13.018 C 15.055 13.006,14.971 13.020,14.883 13.062 M12.220 14.110 C 12.311 14.216,12.349 14.434,12.324 14.708 C 12.309 14.866,12.287 14.929,12.219 14.997 C 12.135 15.080,12.116 15.084,11.666 15.095 L 11.200 15.106 11.200 14.549 L 11.200 13.991 11.672 14.007 C 12.133 14.021,12.145 14.024,12.220 14.110 M15.147 15.325 C 15.191 15.455,15.219 15.570,15.208 15.581 C 15.198 15.591,15.102 15.600,14.997 15.600 L 14.805 15.600 14.889 15.392 C 14.992 15.139,15.034 15.056,15.053 15.075 C 15.061 15.083,15.103 15.195,15.147 15.325 " fill="var(--db-icon-color, currentColor)" stroke="none" fill-rule="evenodd"></path></svg>