<svg id="icon" height="32" viewBox="0 0 32 32" width="32" xmlns="http://www.w3.org/2000/svg"><path d="M8.347 4.049 L 7.227 4.080 6.811 4.279 C 6.582 4.388,6.288 4.554,6.159 4.646 C 5.840 4.876,5.478 5.348,5.239 5.850 L 5.040 6.267 5.040 16.000 L 5.040 25.733 5.239 26.150 C 5.651 27.012,6.143 27.476,7.019 27.826 L 7.387 27.972 10.560 27.990 C 12.305 28.000,13.882 27.992,14.065 27.973 C 14.268 27.952,14.464 27.894,14.571 27.822 C 14.788 27.678,14.987 27.298,14.987 27.027 C 14.987 26.654,14.747 26.245,14.453 26.117 C 14.364 26.078,13.235 26.049,11.065 26.030 L 7.810 26.000 7.547 25.865 C 7.343 25.759,7.254 25.670,7.149 25.466 L 7.013 25.203 7.013 16.001 L 7.013 6.800 7.137 6.549 C 7.213 6.395,7.337 6.250,7.457 6.175 L 7.653 6.053 10.933 6.027 C 14.204 6.000,14.214 6.000,14.437 5.880 C 14.949 5.607,15.117 5.092,14.861 4.574 C 14.600 4.044,14.737 4.069,11.920 4.042 C 10.571 4.029,8.963 4.032,8.347 4.049 M22.025 9.160 C 21.804 9.273,21.708 9.362,21.611 9.547 C 21.443 9.865,21.473 10.264,21.686 10.550 C 21.767 10.658,22.777 11.697,23.932 12.859 L 26.032 14.971 19.510 15.005 C 15.922 15.024,12.868 15.060,12.723 15.086 C 12.523 15.121,12.418 15.178,12.287 15.322 C 11.854 15.794,11.962 16.515,12.516 16.860 L 12.720 16.987 19.408 17.002 L 26.096 17.017 23.856 19.268 C 21.459 21.677,21.444 21.697,21.516 22.144 C 21.566 22.461,21.684 22.650,21.931 22.814 C 22.117 22.937,22.209 22.960,22.508 22.960 C 22.857 22.960,22.870 22.955,23.179 22.696 C 23.352 22.551,24.791 21.135,26.377 19.549 C 29.351 16.575,29.493 16.414,29.493 16.008 C 29.493 15.914,29.458 15.752,29.415 15.649 C 29.363 15.525,28.247 14.370,26.175 12.296 C 23.479 9.599,22.982 9.124,22.800 9.073 C 22.478 8.984,22.340 8.999,22.025 9.160 " fill="var(--db-icon-color, currentColor)" stroke="none" fill-rule="evenodd"></path></svg>