<svg id="icon" height="32" viewBox="0 0 32 32" width="32" xmlns="http://www.w3.org/2000/svg"><path d="M16.320 4.031 C 15.175 4.167,14.682 4.305,13.893 4.712 C 13.463 4.933,13.271 5.075,12.902 5.440 C 12.379 5.958,12.184 6.272,11.941 6.988 C 11.789 7.438,11.767 7.576,11.746 8.240 C 11.725 8.874,11.739 9.059,11.836 9.465 C 11.968 10.017,12.226 10.584,12.529 10.988 C 12.646 11.144,12.729 11.291,12.714 11.317 C 12.698 11.342,12.561 11.424,12.410 11.500 C 11.524 11.943,10.522 12.814,10.203 13.415 C 9.893 14.002,9.791 14.485,9.792 15.360 C 9.794 16.052,9.809 16.178,9.936 16.564 C 10.259 17.540,11.024 18.363,12.320 19.129 C 12.943 19.497,13.261 19.668,14.827 20.481 C 16.613 21.409,16.964 21.614,17.243 21.897 C 17.712 22.373,17.948 23.083,17.908 23.902 C 17.879 24.511,17.742 24.848,17.376 25.219 C 16.874 25.727,16.214 25.920,14.981 25.920 C 13.991 25.920,13.853 25.896,12.685 25.516 C 11.506 25.132,11.129 25.129,10.794 25.502 C 10.732 25.570,10.654 25.708,10.621 25.808 C 10.309 26.739,11.373 27.520,13.439 27.879 C 14.173 28.006,15.971 28.007,16.592 27.880 C 18.634 27.463,19.813 26.425,20.266 24.642 C 20.368 24.241,20.379 24.079,20.362 23.176 C 20.345 22.217,20.335 22.135,20.187 21.707 C 20.101 21.459,19.928 21.101,19.801 20.913 C 19.675 20.724,19.578 20.566,19.586 20.560 C 19.594 20.554,19.850 20.420,20.156 20.261 C 21.314 19.661,22.016 18.697,22.183 17.476 C 22.399 15.898,22.004 14.606,20.994 13.585 C 20.413 12.999,19.949 12.719,17.787 11.651 C 16.701 11.115,15.633 10.557,15.413 10.413 C 14.906 10.079,14.437 9.584,14.251 9.188 C 14.119 8.907,14.107 8.824,14.107 8.240 C 14.107 7.662,14.120 7.571,14.245 7.304 C 14.322 7.142,14.459 6.923,14.550 6.819 C 14.742 6.601,15.204 6.342,15.627 6.216 C 16.302 6.016,17.598 6.060,18.814 6.325 C 19.753 6.530,20.088 6.474,20.397 6.059 C 20.567 5.831,20.550 5.311,20.364 5.030 C 19.981 4.451,18.797 4.070,17.254 4.029 C 16.843 4.018,16.423 4.019,16.320 4.031 M16.187 13.489 C 17.812 14.304,18.871 14.898,19.184 15.169 C 19.658 15.579,19.909 16.426,19.790 17.220 C 19.650 18.163,19.030 18.776,17.918 19.070 L 17.570 19.163 16.158 18.508 C 14.231 17.613,13.526 17.256,13.131 16.976 C 11.876 16.085,11.644 14.504,12.633 13.584 C 13.097 13.152,14.129 12.723,14.587 12.771 C 14.721 12.785,15.311 13.049,16.187 13.489 " fill="var(--db-icon-color, currentColor)" stroke="none" fill-rule="evenodd"></path></svg>