<svg id="icon" height="20" viewBox="0 0 20 20" width="20" xmlns="http://www.w3.org/2000/svg"><path d="M13.183 2.028 C 13.073 2.040,12.916 2.084,12.833 2.124 C 12.725 2.177,11.975 2.900,10.177 4.682 L 7.672 7.167 7.261 7.167 C 6.152 7.167,5.122 7.510,4.159 8.199 C 4.044 8.281,3.769 8.529,3.548 8.749 C 2.777 9.519,2.333 10.352,2.096 11.474 C 1.990 11.974,1.991 12.966,2.097 13.467 C 2.330 14.570,2.796 15.435,3.581 16.219 C 4.218 16.855,4.836 17.239,5.667 17.513 C 6.255 17.708,6.455 17.740,7.187 17.757 C 7.778 17.771,7.902 17.765,8.232 17.702 C 10.437 17.280,12.082 15.670,12.538 13.487 C 12.630 13.046,12.638 12.056,12.553 11.551 L 12.498 11.219 13.010 10.707 L 13.523 10.194 14.247 10.046 C 14.645 9.965,15.054 9.870,15.156 9.834 C 15.502 9.712,15.689 9.507,15.779 9.150 C 15.817 8.999,15.967 7.995,15.967 7.891 C 15.967 7.882,16.075 7.865,16.208 7.852 C 16.760 7.797,17.300 7.701,17.432 7.634 C 17.611 7.543,17.807 7.339,17.905 7.141 C 17.977 6.996,17.983 6.946,17.977 6.533 C 17.973 6.286,17.939 5.543,17.902 4.883 C 17.864 4.223,17.825 3.526,17.814 3.333 C 17.787 2.845,17.706 2.584,17.513 2.370 C 17.428 2.275,17.295 2.161,17.216 2.115 L 17.073 2.031 15.228 2.018 C 14.214 2.011,13.293 2.015,13.183 2.028 M15.846 4.292 C 15.901 5.035,15.933 5.814,15.909 5.837 C 15.895 5.851,15.546 5.901,15.133 5.948 C 14.213 6.053,14.202 6.055,14.169 6.145 C 14.155 6.184,14.094 6.605,14.035 7.081 C 13.976 7.556,13.915 7.976,13.901 8.014 C 13.878 8.075,13.790 8.101,13.225 8.212 L 12.576 8.340 11.440 9.478 L 10.304 10.617 10.440 11.217 C 10.573 11.802,10.576 11.832,10.580 12.467 C 10.584 13.217,10.557 13.360,10.318 13.857 C 10.120 14.270,9.934 14.536,9.646 14.821 C 8.925 15.534,7.842 15.900,6.882 15.754 C 5.491 15.544,4.400 14.539,4.079 13.173 C 3.999 12.831,4.031 11.869,4.133 11.550 C 4.294 11.048,4.584 10.555,4.940 10.181 C 5.441 9.653,6.115 9.298,6.808 9.197 C 7.071 9.158,7.882 9.170,8.283 9.218 L 8.450 9.238 11.067 6.619 L 13.683 4.000 14.754 4.000 L 15.825 4.000 15.846 4.292 M7.009 10.982 C 6.548 11.086,6.129 11.424,5.924 11.857 C 5.823 12.071,5.817 12.104,5.817 12.467 C 5.817 12.829,5.823 12.862,5.924 13.077 C 6.197 13.654,6.837 14.045,7.417 13.989 C 8.020 13.930,8.533 13.549,8.749 13.000 C 8.827 12.799,8.853 12.357,8.800 12.130 C 8.710 11.748,8.489 11.421,8.184 11.219 C 7.826 10.981,7.396 10.894,7.009 10.982 " fill="var(--db-icon-color, currentColor)" stroke="none" fill-rule="evenodd"></path></svg>