<svg id="icon" height="20" viewBox="0 0 20 20" width="20" xmlns="http://www.w3.org/2000/svg"><path d="M9.300 2.039 C 8.871 2.074,8.175 2.212,7.704 2.354 C 6.430 2.741,5.388 3.358,4.422 4.299 C 3.736 4.966,3.295 5.567,2.865 6.417 C 2.470 7.199,2.215 7.993,2.076 8.882 C 1.995 9.398,1.996 10.571,2.077 11.100 C 2.305 12.577,2.887 13.913,3.783 15.017 C 4.064 15.362,4.709 16.001,5.052 16.273 C 7.526 18.234,10.942 18.544,13.733 17.061 C 14.440 16.686,14.977 16.290,15.578 15.703 C 16.269 15.026,16.738 14.385,17.150 13.550 C 17.552 12.735,17.788 11.991,17.921 11.117 C 18.005 10.558,18.005 9.438,17.920 8.883 C 17.783 7.994,17.553 7.266,17.150 6.450 C 16.730 5.600,16.268 4.969,15.561 4.282 C 14.443 3.196,13.081 2.475,11.562 2.166 C 10.976 2.046,9.924 1.987,9.300 2.039 M11.000 7.292 L 11.000 9.584 12.100 10.683 L 13.200 11.783 12.492 12.492 L 11.784 13.200 10.392 11.809 L 9.000 10.417 9.000 7.708 L 9.000 5.000 10.000 5.000 L 11.000 5.000 11.000 7.292 " fill="var(--db-icon-color, currentColor)" stroke="none" fill-rule="evenodd"></path></svg>