<svg id="icon" height="32" viewBox="0 0 32 32" width="32" xmlns="http://www.w3.org/2000/svg"><path d="M10.004 2.214 C 7.893 2.682,5.889 3.825,4.578 5.306 C 3.624 6.385,2.946 7.562,2.505 8.906 C 2.178 9.902,2.070 10.548,2.040 11.694 C 2.009 12.869,2.068 13.439,2.321 14.431 C 3.244 18.049,5.935 20.744,9.563 21.684 C 11.780 22.259,14.191 22.018,16.309 21.011 C 16.931 20.715,17.912 20.118,18.175 19.877 L 18.296 19.765 18.787 20.243 C 19.057 20.505,21.345 22.777,23.871 25.292 C 26.397 27.806,28.529 29.888,28.609 29.918 C 29.070 30.094,29.672 29.865,29.898 29.429 C 29.986 29.262,29.997 28.816,29.920 28.613 C 29.890 28.535,27.796 26.391,25.266 23.847 C 22.737 21.304,20.464 19.015,20.216 18.760 L 19.765 18.296 19.875 18.175 C 20.075 17.954,20.531 17.236,20.826 16.679 C 21.592 15.232,21.980 13.659,21.980 12.000 C 21.980 9.741,21.246 7.600,19.869 5.842 C 19.463 5.325,18.513 4.394,18.000 4.014 C 16.986 3.260,15.711 2.653,14.423 2.311 L 13.680 2.114 12.133 2.099 C 10.663 2.085,10.558 2.091,10.004 2.214 M13.347 4.135 C 14.093 4.266,14.699 4.462,15.400 4.799 C 16.855 5.500,18.012 6.535,18.828 7.867 C 20.224 10.143,20.355 13.128,19.165 15.490 C 18.164 17.476,16.545 18.899,14.524 19.570 C 13.498 19.911,13.177 19.961,12.000 19.961 C 10.821 19.961,10.503 19.911,9.468 19.568 C 8.272 19.171,7.333 18.584,6.401 17.653 C 4.414 15.668,3.622 12.996,4.215 10.273 C 4.660 8.228,5.895 6.463,7.707 5.282 C 8.772 4.587,9.877 4.209,11.360 4.032 C 11.701 3.991,12.873 4.052,13.347 4.135 M8.587 11.034 C 7.731 11.064,7.637 11.077,7.452 11.192 C 6.964 11.496,6.874 12.173,7.263 12.617 C 7.611 13.013,7.276 12.987,12.000 12.987 C 16.724 12.987,16.389 13.013,16.737 12.617 C 17.137 12.161,17.034 11.478,16.520 11.179 L 16.293 11.048 12.907 11.024 C 11.044 11.011,9.100 11.016,8.587 11.034 " fill="var(--db-icon-color, currentColor)" stroke="none" fill-rule="evenodd"></path></svg>