<svg id="icon" height="24" viewBox="0 0 24 24" width="24" xmlns="http://www.w3.org/2000/svg"><path d="M13.140 5.098 C 12.158 5.288,11.329 5.599,10.670 6.024 L 10.399 6.199 10.150 6.141 C 7.478 5.526,4.787 7.178,4.145 9.825 C 4.092 10.048,4.035 10.348,4.019 10.493 C 3.991 10.753,3.989 10.757,3.766 10.933 C 2.598 11.852,1.942 13.261,2.011 14.700 C 2.067 15.861,2.559 16.931,3.413 17.747 C 4.002 18.310,4.596 18.639,5.440 18.869 L 5.820 18.973 11.100 18.989 C 16.755 19.006,17.677 18.987,18.218 18.841 C 19.142 18.591,19.842 18.184,20.535 17.496 C 21.237 16.799,21.659 16.023,21.904 14.980 C 22.006 14.545,21.998 13.407,21.889 12.960 C 21.623 11.871,21.216 11.163,20.380 10.340 C 19.926 9.893,19.889 9.845,19.841 9.640 C 19.597 8.610,19.071 7.649,18.322 6.867 C 17.506 6.017,16.558 5.470,15.390 5.175 C 15.035 5.086,14.876 5.070,14.200 5.058 C 13.654 5.048,13.336 5.060,13.140 5.098 M14.713 7.085 C 15.071 7.136,15.330 7.222,15.787 7.446 C 16.450 7.770,16.926 8.196,17.350 8.848 C 17.671 9.340,17.793 9.673,17.979 10.560 C 18.070 10.995,18.168 11.140,18.575 11.446 C 18.770 11.593,19.001 11.782,19.088 11.866 C 19.444 12.210,19.774 12.776,19.898 13.258 C 19.995 13.632,19.983 14.479,19.875 14.826 C 19.756 15.214,19.600 15.505,19.329 15.845 C 18.813 16.493,18.150 16.870,17.368 16.959 C 17.153 16.984,14.927 16.999,11.551 17.000 L 6.082 17.000 5.756 16.881 C 5.023 16.613,4.574 16.214,4.259 15.551 C 3.811 14.608,3.978 13.576,4.702 12.806 C 4.871 12.626,5.098 12.436,5.252 12.346 C 5.578 12.155,5.824 11.947,5.903 11.795 C 5.942 11.719,5.978 11.466,6.003 11.089 C 6.053 10.353,6.108 10.135,6.368 9.626 C 6.660 9.056,7.056 8.660,7.625 8.369 C 8.445 7.949,9.100 7.904,10.067 8.202 C 10.278 8.267,10.517 8.320,10.600 8.320 C 10.826 8.320,11.073 8.217,11.330 8.015 C 12.215 7.320,13.144 6.977,14.020 7.023 C 14.240 7.034,14.552 7.062,14.713 7.085 " fill="var(--db-icon-color, currentColor)" stroke="none" fill-rule="evenodd"></path></svg>