<svg id="icon" height="24" viewBox="0 0 24 24" width="24" xmlns="http://www.w3.org/2000/svg"><path d="M10.800 1.068 C 10.462 1.104,9.464 1.300,9.080 1.406 C 7.410 1.868,5.867 2.731,4.571 3.929 C 2.082 6.230,0.841 9.297,1.034 12.670 C 1.108 13.961,1.394 15.159,1.924 16.394 C 2.975 18.844,5.156 21.025,7.606 22.076 C 9.273 22.791,10.831 23.060,12.731 22.961 C 15.104 22.837,17.620 21.774,19.308 20.184 C 20.201 19.341,20.656 18.822,21.149 18.080 C 22.005 16.791,22.591 15.317,22.858 13.780 C 22.965 13.167,23.013 12.038,22.965 11.267 C 22.828 9.058,21.978 6.867,20.587 5.140 C 20.242 4.712,19.102 3.599,18.684 3.282 C 17.068 2.057,15.268 1.328,13.300 1.100 C 12.825 1.045,11.209 1.024,10.800 1.068 M11.000 3.373 C 11.000 3.769,11.089 4.013,11.317 4.240 C 11.701 4.623,12.299 4.623,12.683 4.240 C 12.907 4.017,13.000 3.768,13.000 3.392 C 13.000 3.178,13.014 3.112,13.064 3.093 C 13.099 3.080,13.380 3.117,13.688 3.176 C 17.103 3.830,19.897 6.479,20.718 9.840 C 20.883 10.519,20.937 10.871,20.884 10.936 C 20.858 10.967,20.705 11.000,20.515 11.016 C 20.337 11.030,20.135 11.066,20.066 11.095 C 19.569 11.303,19.340 11.922,19.575 12.420 C 19.754 12.799,20.016 12.955,20.529 12.990 C 20.726 13.004,20.857 13.032,20.887 13.068 C 20.923 13.112,20.909 13.252,20.823 13.692 C 20.157 17.095,17.552 19.871,14.250 20.696 C 14.036 20.750,13.707 20.823,13.520 20.858 C 13.333 20.894,13.139 20.932,13.090 20.942 C 13.003 20.961,13.000 20.951,13.000 20.668 C 13.000 20.115,12.824 19.779,12.432 19.584 C 12.149 19.442,11.851 19.442,11.568 19.584 C 11.176 19.779,11.000 20.115,11.000 20.668 C 11.000 20.951,10.997 20.961,10.910 20.942 C 10.861 20.931,10.622 20.884,10.380 20.837 C 9.546 20.675,8.575 20.352,7.911 20.016 C 6.562 19.332,5.143 18.007,4.319 16.660 C 4.020 16.171,3.649 15.365,3.466 14.804 C 3.242 14.118,3.045 13.150,3.113 13.068 C 3.143 13.032,3.274 13.004,3.471 12.990 C 3.984 12.955,4.246 12.799,4.425 12.420 C 4.661 11.920,4.431 11.303,3.930 11.094 C 3.859 11.064,3.637 11.028,3.436 11.013 L 3.072 10.987 3.099 10.764 C 3.113 10.641,3.170 10.333,3.226 10.080 C 3.727 7.782,5.144 5.743,7.137 4.447 C 7.992 3.892,9.209 3.392,10.160 3.205 C 10.391 3.160,10.616 3.115,10.660 3.106 C 10.704 3.097,10.798 3.087,10.870 3.085 L 11.000 3.080 11.000 3.373 M14.613 6.036 C 14.474 6.072,13.998 6.433,12.320 7.777 C 10.998 8.835,10.716 9.103,10.642 9.370 C 10.469 9.995,10.934 10.613,11.580 10.618 C 11.905 10.621,12.047 10.543,12.820 9.937 C 13.362 9.512,13.462 9.447,13.473 9.517 C 13.480 9.562,13.439 9.904,13.383 10.278 C 13.220 11.352,13.243 11.538,13.574 11.861 C 13.875 12.155,14.214 12.232,14.609 12.097 C 14.808 12.030,15.044 11.826,15.141 11.639 C 15.213 11.499,15.447 10.141,15.698 8.401 C 15.894 7.044,15.910 6.828,15.825 6.626 C 15.755 6.459,15.552 6.226,15.386 6.124 C 15.240 6.033,14.812 5.985,14.613 6.036 M9.420 11.882 C 9.251 11.932,9.018 12.136,8.900 12.336 C 8.798 12.511,8.684 13.140,8.239 16.010 L 8.073 17.080 8.145 17.310 C 8.272 17.716,8.697 18.040,9.102 18.040 C 9.306 18.040,9.544 17.937,9.811 17.733 C 10.277 17.377,11.858 16.107,12.523 15.554 C 13.049 15.117,13.209 14.959,13.300 14.794 C 13.627 14.192,13.222 13.456,12.518 13.372 C 12.173 13.331,11.934 13.470,10.850 14.337 C 10.608 14.531,10.520 14.583,10.520 14.531 C 10.521 14.492,10.564 14.181,10.618 13.840 C 10.801 12.667,10.796 12.564,10.541 12.230 C 10.291 11.902,9.835 11.761,9.420 11.882 " fill="var(--db-icon-color, currentColor)" stroke="none" fill-rule="evenodd"></path></svg>