<svg id="icon" height="32" viewBox="0 0 32 32" width="32" xmlns="http://www.w3.org/2000/svg"><path d="M15.600 2.106 C 15.378 2.210,15.289 2.290,15.127 2.528 L 14.987 2.735 14.979 9.541 C 14.975 13.284,14.957 16.833,14.939 17.428 L 14.907 18.510 12.777 16.368 C 11.299 14.881,10.582 14.196,10.431 14.128 C 9.688 13.790,8.916 14.367,9.037 15.169 C 9.071 15.401,9.142 15.486,10.262 16.654 C 12.155 18.627,15.400 21.813,15.603 21.898 C 15.838 21.996,16.168 21.994,16.410 21.892 C 16.541 21.838,17.552 20.861,19.517 18.892 C 21.120 17.287,22.547 15.835,22.688 15.667 C 22.887 15.430,22.952 15.306,22.973 15.126 C 23.061 14.342,22.293 13.799,21.562 14.131 C 21.402 14.203,20.730 14.845,19.211 16.375 L 17.084 18.518 17.049 17.112 C 17.029 16.339,17.014 12.795,17.013 9.237 C 17.013 2.192,17.033 2.642,16.711 2.336 C 16.406 2.046,15.935 1.949,15.600 2.106 M4.613 20.099 C 4.376 20.207,4.071 20.523,4.024 20.710 C 4.008 20.776,4.002 22.354,4.011 24.215 L 4.028 27.600 4.165 27.953 C 4.354 28.442,4.543 28.748,4.847 29.061 C 5.199 29.422,5.672 29.718,6.143 29.872 L 6.533 30.000 16.000 30.000 L 25.467 30.000 25.857 29.872 C 26.335 29.715,26.802 29.421,27.157 29.051 C 27.470 28.725,27.647 28.439,27.835 27.953 L 27.972 27.600 27.989 24.191 C 28.001 21.674,27.989 20.743,27.943 20.632 C 27.852 20.411,27.505 20.121,27.250 20.052 C 26.791 19.929,26.203 20.218,26.076 20.629 C 26.035 20.762,26.003 21.908,25.977 24.112 C 25.939 27.380,25.939 27.397,25.822 27.561 C 25.758 27.652,25.615 27.782,25.506 27.850 L 25.307 27.973 16.000 27.973 L 6.693 27.973 6.494 27.850 C 6.385 27.782,6.242 27.651,6.178 27.561 C 6.060 27.396,6.060 27.383,6.022 24.111 C 5.997 21.916,5.964 20.761,5.924 20.629 C 5.848 20.383,5.556 20.135,5.250 20.058 C 4.942 19.980,4.864 19.985,4.613 20.099 " fill="var(--db-icon-color, currentColor)" stroke="none" fill-rule="evenodd"></path></svg>