<svg id="icon" height="20" viewBox="0 0 20 20" width="20" xmlns="http://www.w3.org/2000/svg"><path d="M8.850 2.090 C 8.389 2.159,7.556 2.375,7.189 2.520 C 6.755 2.693,5.954 3.103,5.610 3.329 C 4.699 3.928,3.770 4.877,3.205 5.789 C 2.671 6.649,2.279 7.701,2.098 8.756 C 2.035 9.120,2.024 9.309,2.024 10.033 C 2.024 10.813,2.032 10.921,2.112 11.338 C 2.366 12.662,2.889 13.844,3.678 14.882 C 3.966 15.260,4.590 15.896,4.983 16.211 C 6.165 17.159,7.430 17.701,9.017 17.938 C 9.465 18.005,10.619 17.995,11.117 17.920 C 13.533 17.557,15.635 16.146,16.874 14.056 C 17.311 13.319,17.670 12.386,17.851 11.517 C 18.024 10.687,18.024 9.278,17.850 8.468 C 17.496 6.816,16.787 5.484,15.668 4.367 C 14.385 3.087,12.686 2.258,10.950 2.067 C 10.500 2.017,9.244 2.031,8.850 2.090 M14.411 7.633 L 14.939 8.150 11.779 11.288 L 8.619 14.427 7.434 13.268 C 6.783 12.631,5.982 11.849,5.655 11.530 L 5.059 10.950 5.782 10.253 L 6.505 9.555 7.544 10.594 L 8.584 11.633 11.033 9.184 L 13.482 6.734 13.683 6.925 C 13.793 7.030,14.121 7.349,14.411 7.633 " fill="var(--db-icon-color, currentColor)" stroke="none" fill-rule="evenodd"></path></svg>