<svg id="icon" height="20" viewBox="0 0 20 20" width="20" xmlns="http://www.w3.org/2000/svg"><path d="M9.450 3.036 C 8.853 3.107,8.246 3.323,7.778 3.631 C 6.811 4.269,6.231 5.201,6.052 6.411 C 6.023 6.602,6.000 6.803,6.000 6.858 L 6.000 6.958 4.390 6.973 L 2.779 6.989 2.599 7.086 C 2.373 7.208,2.180 7.398,2.098 7.578 C 1.956 7.891,1.978 8.032,2.951 12.895 C 3.685 16.568,3.672 16.514,3.924 16.736 C 3.986 16.789,4.110 16.871,4.202 16.918 L 4.368 17.002 10.009 16.993 L 15.650 16.983 15.840 16.890 C 16.075 16.775,16.311 16.520,16.380 16.307 C 16.450 16.092,17.702 9.698,17.903 8.533 C 17.987 8.042,17.997 7.927,17.967 7.804 C 17.888 7.489,17.693 7.232,17.431 7.099 C 17.230 6.996,16.787 6.969,15.315 6.968 L 14.013 6.967 13.973 6.602 C 13.832 5.339,13.244 4.320,12.289 3.686 C 11.494 3.158,10.447 2.918,9.450 3.036 M10.583 5.085 C 11.360 5.287,11.870 5.921,11.984 6.825 L 12.006 7.000 9.999 7.000 L 7.992 7.000 8.015 6.808 C 8.132 5.827,8.700 5.201,9.625 5.032 C 9.836 4.994,10.341 5.022,10.583 5.085 " fill="var(--db-icon-color, currentColor)" stroke="none" fill-rule="evenodd"></path></svg>