<svg id="icon" height="24" viewBox="0 0 24 24" width="24" xmlns="http://www.w3.org/2000/svg"><path d="M11.480 2.028 C 10.702 2.089,9.806 2.371,9.074 2.783 C 7.305 3.779,6.145 5.612,6.013 7.619 L 5.988 7.993 4.484 8.010 C 3.456 8.022,2.931 8.044,2.826 8.077 C 2.585 8.154,2.181 8.582,2.100 8.847 C 1.969 9.278,1.975 9.346,2.376 11.740 C 2.954 15.188,3.631 19.085,3.804 19.960 C 3.919 20.536,4.086 20.850,4.498 21.261 C 4.830 21.593,5.119 21.775,5.545 21.922 C 5.767 21.998,5.925 22.000,12.004 22.000 L 18.236 22.000 18.573 21.878 C 19.145 21.671,19.578 21.338,19.880 20.873 C 20.184 20.407,20.181 20.418,21.238 14.080 C 22.001 9.509,22.022 9.356,21.946 9.062 C 21.837 8.646,21.572 8.328,21.160 8.120 C 20.985 8.031,20.942 8.028,19.496 8.009 L 18.011 7.989 17.988 7.597 C 17.943 6.872,17.716 6.037,17.372 5.341 C 16.904 4.390,16.239 3.635,15.342 3.033 C 14.442 2.429,13.607 2.142,12.460 2.042 C 11.990 2.002,11.844 2.000,11.480 2.028 M12.720 4.082 C 13.538 4.211,14.532 4.781,15.030 5.408 C 15.584 6.104,15.907 6.883,15.983 7.710 L 16.010 8.000 12.000 8.000 L 7.990 8.000 8.018 7.710 C 8.191 5.930,9.342 4.568,11.051 4.120 C 11.383 4.033,12.281 4.012,12.720 4.082 M19.864 10.110 C 19.851 10.171,19.579 11.768,19.259 13.660 C 18.339 19.094,18.224 19.722,18.123 19.847 C 18.068 19.914,17.988 19.937,17.717 19.963 C 17.532 19.980,14.829 19.996,11.711 19.997 L 6.041 20.000 5.920 19.890 C 5.831 19.809,5.789 19.723,5.759 19.560 C 5.652 18.982,5.113 15.846,4.661 13.180 C 4.386 11.552,4.150 10.171,4.137 10.110 L 4.114 10.000 12.000 10.000 L 19.886 10.000 19.864 10.110 " fill="var(--db-icon-color, currentColor)" stroke="none" fill-rule="evenodd"></path></svg>