<svg id="icon" height="20" viewBox="0 0 20 20" width="20" xmlns="http://www.w3.org/2000/svg"><path d="M9.371 3.033 C 8.002 3.155,6.577 3.750,5.513 4.643 C 3.933 5.968,3.001 7.958,3.001 10.000 C 3.001 11.077,3.261 12.154,3.759 13.141 C 4.179 13.971,4.617 14.534,5.405 15.256 C 6.580 16.332,8.333 17.000,9.983 17.000 C 11.303 17.000,12.783 16.560,13.833 15.857 C 14.356 15.506,15.074 14.837,15.515 14.288 C 16.240 13.387,16.728 12.255,16.923 11.019 C 17.002 10.515,17.002 9.418,16.922 8.950 C 16.568 6.884,15.439 5.167,13.733 4.099 C 13.395 3.887,12.709 3.543,12.380 3.420 C 12.042 3.294,11.434 3.145,11.012 3.087 C 10.551 3.022,9.773 2.997,9.371 3.033 M10.717 9.300 L 14.250 12.833 13.542 13.542 L 12.833 14.250 9.292 10.708 L 5.750 7.167 6.450 6.467 C 6.835 6.082,7.157 5.767,7.166 5.767 C 7.176 5.767,8.773 7.357,10.717 9.300 " fill="var(--db-icon-color, currentColor)" stroke="none" fill-rule="evenodd"></path></svg>