<svg id="icon" height="32" viewBox="0 0 32 32" width="32" xmlns="http://www.w3.org/2000/svg"><path d="M15.573 2.137 C 15.389 2.219,14.662 2.918,12.453 5.135 C 10.869 6.726,9.456 8.165,9.313 8.333 C 9.112 8.571,9.048 8.693,9.027 8.874 C 8.931 9.730,9.816 10.274,10.538 9.802 C 10.682 9.707,11.736 8.686,12.880 7.532 L 14.960 5.434 14.987 13.344 C 15.011 20.584,15.021 21.267,15.102 21.413 C 15.385 21.925,15.945 22.113,16.453 21.867 C 16.788 21.705,16.915 21.494,16.965 21.018 C 16.988 20.795,17.009 17.193,17.011 13.013 L 17.015 5.413 19.108 7.522 C 20.258 8.682,21.318 9.708,21.462 9.802 C 22.030 10.172,22.726 9.936,22.935 9.302 C 23.049 8.956,22.978 8.677,22.688 8.333 C 22.545 8.165,21.119 6.714,19.519 5.109 C 17.532 3.116,16.547 2.165,16.413 2.109 C 16.148 1.998,15.862 2.007,15.573 2.137 M4.613 20.099 C 4.376 20.207,4.071 20.523,4.024 20.710 C 4.008 20.776,4.002 22.354,4.011 24.215 L 4.028 27.600 4.165 27.953 C 4.354 28.442,4.543 28.748,4.847 29.061 C 5.199 29.422,5.672 29.718,6.143 29.872 L 6.533 30.000 16.000 30.000 L 25.467 30.000 25.857 29.872 C 26.335 29.715,26.802 29.421,27.157 29.051 C 27.470 28.725,27.647 28.439,27.835 27.953 L 27.972 27.600 27.989 24.191 C 28.001 21.674,27.989 20.743,27.943 20.632 C 27.852 20.411,27.505 20.121,27.250 20.052 C 26.791 19.929,26.203 20.218,26.076 20.629 C 26.035 20.762,26.003 21.908,25.977 24.112 C 25.939 27.380,25.939 27.397,25.822 27.561 C 25.758 27.652,25.615 27.782,25.506 27.850 L 25.307 27.973 16.000 27.973 L 6.693 27.973 6.494 27.850 C 6.385 27.782,6.242 27.651,6.178 27.561 C 6.060 27.396,6.060 27.383,6.022 24.111 C 5.997 21.916,5.964 20.761,5.924 20.629 C 5.848 20.383,5.556 20.135,5.250 20.058 C 4.942 19.980,4.864 19.985,4.613 20.099 " fill="var(--db-icon-color, currentColor)" stroke="none" fill-rule="evenodd"></path></svg>