<svg id="icon" height="20" viewBox="0 0 20 20" width="20" xmlns="http://www.w3.org/2000/svg"><path d="M9.447 3.065 C 8.853 3.134,8.125 3.437,7.583 3.843 C 6.929 4.333,6.443 5.021,6.189 5.817 C 6.053 6.240,6.029 6.434,6.009 7.258 L 5.991 8.033 5.870 8.034 C 5.658 8.035,5.332 8.131,5.060 8.272 C 4.632 8.495,4.327 8.847,4.105 9.374 L 4.017 9.583 4.007 12.717 C 3.997 15.974,4.010 16.380,4.133 16.708 C 4.329 17.231,4.848 17.719,5.404 17.902 L 5.650 17.983 10.000 17.983 L 14.350 17.983 14.617 17.891 C 15.055 17.741,15.437 17.436,15.703 17.025 C 15.865 16.774,15.929 16.577,15.968 16.211 C 15.985 16.049,15.999 14.513,15.999 12.797 C 16.000 9.840,15.997 9.668,15.938 9.497 C 15.824 9.166,15.668 8.903,15.446 8.667 C 15.097 8.297,14.701 8.096,14.227 8.047 L 14.010 8.025 13.991 7.221 C 13.974 6.500,13.964 6.383,13.887 6.095 C 13.672 5.282,13.381 4.782,12.774 4.182 C 12.211 3.625,11.523 3.251,10.810 3.114 C 10.508 3.056,9.757 3.029,9.447 3.065 M10.633 5.134 C 10.930 5.233,11.135 5.364,11.385 5.615 C 11.638 5.868,11.791 6.111,11.898 6.427 C 11.953 6.591,11.969 6.755,11.988 7.330 L 12.011 8.033 10.005 8.033 L 8.000 8.033 8.001 7.592 C 8.002 7.349,8.016 6.994,8.032 6.804 C 8.057 6.494,8.075 6.427,8.202 6.170 C 8.471 5.624,9.067 5.149,9.587 5.068 C 9.862 5.026,10.413 5.060,10.633 5.134 M10.419 11.115 C 10.617 11.204,10.804 11.386,10.899 11.581 C 10.963 11.714,10.967 11.783,10.967 13.000 C 10.967 14.220,10.964 14.285,10.899 14.420 C 10.816 14.590,10.545 14.851,10.374 14.924 C 10.209 14.994,9.791 14.994,9.626 14.924 C 9.450 14.849,9.183 14.588,9.094 14.405 C 9.020 14.253,9.019 14.228,9.018 13.000 L 9.017 11.750 9.097 11.586 C 9.347 11.080,9.900 10.882,10.419 11.115 " fill="var(--db-icon-color, currentColor)" stroke="none" fill-rule="evenodd"></path></svg>