<svg id="icon" height="20" viewBox="0 0 20 20" width="20" xmlns="http://www.w3.org/2000/svg"><path d="M8.850 2.088 C 8.382 2.161,7.551 2.377,7.189 2.520 C 6.691 2.717,5.850 3.161,5.470 3.426 C 3.616 4.724,2.418 6.651,2.079 8.883 C 1.995 9.442,1.995 10.562,2.080 11.117 C 2.214 11.987,2.442 12.714,2.833 13.517 C 3.203 14.278,3.692 14.968,4.293 15.580 C 6.374 17.698,9.378 18.496,12.205 17.682 C 15.707 16.674,18.125 13.344,17.989 9.717 C 17.849 5.974,15.114 2.824,11.400 2.130 C 10.882 2.033,9.366 2.008,8.850 2.088 M10.461 4.575 C 10.708 4.666,10.952 4.877,11.104 5.131 L 11.233 5.345 11.233 5.716 C 11.233 6.051,11.225 6.104,11.145 6.265 C 11.027 6.500,10.752 6.770,10.512 6.886 C 10.340 6.969,10.279 6.980,10.000 6.980 C 9.722 6.980,9.660 6.969,9.490 6.887 C 9.240 6.767,8.970 6.501,8.853 6.260 C 8.766 6.081,8.761 6.050,8.772 5.694 C 8.786 5.248,8.829 5.136,9.085 4.878 C 9.467 4.494,9.954 4.387,10.461 4.575 M11.000 10.000 L 11.000 12.000 12.000 12.000 L 13.000 12.000 13.000 13.000 L 13.000 14.000 10.000 14.000 L 7.000 14.000 7.000 13.000 L 7.000 12.000 8.000 12.000 L 9.000 12.000 9.000 11.000 L 9.000 10.000 8.217 10.000 L 7.433 10.000 7.433 9.000 L 7.433 8.000 9.217 8.000 L 11.000 8.000 11.000 10.000 " fill="var(--db-icon-color, currentColor)" stroke="none" fill-rule="evenodd"></path></svg>