<svg id="icon" height="20" viewBox="0 0 20 20" width="20" xmlns="http://www.w3.org/2000/svg"><path d="M9.350 4.035 C 7.922 4.182,6.524 4.781,5.283 5.777 C 4.942 6.052,4.036 6.956,3.692 7.366 C 3.332 7.794,2.708 8.630,2.387 9.112 C 1.866 9.895,1.869 10.051,2.425 10.879 C 3.634 12.682,4.936 14.046,6.197 14.832 C 6.351 14.928,6.666 15.101,6.897 15.216 C 8.106 15.820,9.179 16.031,10.556 15.936 C 11.552 15.867,12.547 15.557,13.476 15.026 C 14.253 14.582,14.751 14.189,15.535 13.403 C 16.297 12.639,17.116 11.610,17.724 10.653 C 18.117 10.033,18.103 9.849,17.613 9.112 C 17.292 8.630,16.668 7.794,16.308 7.366 C 15.966 6.959,15.061 6.054,14.717 5.776 C 14.059 5.245,13.159 4.726,12.417 4.449 C 12.007 4.297,11.426 4.147,10.987 4.081 C 10.568 4.018,9.739 3.995,9.350 4.035 M10.497 6.051 C 11.442 6.108,12.401 6.523,13.383 7.300 C 13.730 7.574,14.474 8.322,14.842 8.767 C 15.210 9.213,15.599 9.727,15.691 9.891 L 15.763 10.019 15.406 10.490 C 13.997 12.353,12.873 13.297,11.531 13.744 C 10.946 13.939,10.692 13.978,10.000 13.978 C 9.121 13.978,8.612 13.859,7.817 13.469 C 6.686 12.914,5.759 12.049,4.519 10.392 L 4.226 10.001 4.338 9.825 C 4.491 9.586,5.028 8.915,5.450 8.436 C 6.734 6.979,8.060 6.186,9.462 6.036 C 9.710 6.009,9.842 6.011,10.497 6.051 M9.574 8.048 C 9.239 8.125,8.891 8.311,8.640 8.549 C 7.463 9.662,8.015 11.616,9.601 11.954 C 10.851 12.219,12.076 11.157,11.988 9.883 C 11.933 9.076,11.348 8.340,10.567 8.097 C 10.283 8.008,9.845 7.987,9.574 8.048 " fill="var(--db-icon-color, currentColor)" stroke="none" fill-rule="evenodd"></path></svg>