<svg id="icon" height="32" viewBox="0 0 32 32" width="32" xmlns="http://www.w3.org/2000/svg"><path d="M14.347 2.112 C 12.071 2.412,10.105 3.141,8.256 4.370 C 5.009 6.529,2.881 9.821,2.186 13.760 C 2.037 14.606,1.982 16.476,2.078 17.420 C 2.337 19.975,3.311 22.419,4.901 24.507 C 5.384 25.141,6.671 26.450,7.307 26.953 C 9.028 28.314,10.967 29.221,13.177 29.699 C 14.698 30.028,16.754 30.072,18.267 29.809 C 20.415 29.434,22.552 28.545,24.161 27.357 C 27.503 24.889,29.551 21.320,29.924 17.313 C 30.003 16.468,29.959 14.694,29.842 13.956 C 29.363 10.947,28.139 8.473,26.056 6.304 C 24.295 4.470,21.991 3.114,19.565 2.485 C 18.463 2.199,18.020 2.135,16.737 2.080 C 15.264 2.016,15.047 2.019,14.347 2.112 M17.387 4.111 C 19.376 4.282,21.722 5.248,23.436 6.601 C 24.746 7.636,25.924 9.081,26.673 10.573 C 27.406 12.033,27.745 13.159,27.895 14.629 C 27.981 15.474,27.936 17.476,27.818 18.053 C 27.553 19.344,27.288 20.146,26.778 21.202 C 26.131 22.543,25.379 23.582,24.300 24.627 C 22.928 25.956,21.541 26.783,19.627 27.416 C 16.038 28.602,12.077 27.953,8.907 25.660 C 8.276 25.204,7.190 24.175,6.705 23.573 C 5.534 22.122,4.633 20.209,4.231 18.320 C 4.089 17.654,4.083 17.566,4.082 16.053 C 4.080 14.380,4.090 14.275,4.379 13.108 C 4.761 11.567,5.521 9.984,6.498 8.695 C 6.916 8.143,7.934 7.102,8.479 6.668 C 10.029 5.434,11.966 4.546,13.838 4.212 C 14.974 4.008,15.895 3.982,17.387 4.111 M22.726 10.596 C 22.561 10.630,21.866 11.304,17.320 15.837 L 13.547 19.600 11.853 17.918 C 10.922 16.993,9.985 16.072,9.772 15.872 L 9.384 15.508 9.045 15.529 C 8.615 15.557,8.304 15.746,8.157 16.070 C 8.003 16.408,8.023 16.681,8.223 16.991 C 8.468 17.372,12.906 21.796,13.141 21.895 C 13.245 21.938,13.449 21.973,13.593 21.973 C 13.819 21.973,13.895 21.943,14.117 21.768 C 14.449 21.505,21.305 14.697,22.803 13.141 C 24.013 11.886,24.058 11.819,23.978 11.393 C 23.881 10.877,23.265 10.485,22.726 10.596 " fill="var(--db-icon-color, currentColor)" stroke="none" fill-rule="evenodd"></path></svg>