<svg id="icon" height="32" viewBox="0 0 32 32" width="32" xmlns="http://www.w3.org/2000/svg"><path d="M14.347 2.112 C 12.071 2.412,10.105 3.141,8.256 4.370 C 5.009 6.529,2.881 9.821,2.186 13.760 C 2.037 14.606,1.982 16.476,2.078 17.420 C 2.337 19.975,3.311 22.419,4.901 24.507 C 5.384 25.141,6.671 26.450,7.307 26.953 C 9.028 28.314,10.967 29.221,13.177 29.699 C 14.698 30.028,16.754 30.072,18.267 29.809 C 20.415 29.434,22.552 28.545,24.161 27.357 C 27.503 24.889,29.551 21.320,29.924 17.313 C 30.003 16.468,29.959 14.694,29.842 13.956 C 29.363 10.947,28.139 8.473,26.056 6.304 C 24.295 4.470,21.991 3.114,19.565 2.485 C 18.463 2.199,18.020 2.135,16.737 2.080 C 15.264 2.016,15.047 2.019,14.347 2.112 M16.428 9.133 C 16.564 9.202,16.732 9.349,16.820 9.476 L 16.975 9.699 17.002 12.343 L 17.029 14.987 18.799 14.987 C 19.773 14.987,20.972 15.003,21.463 15.022 C 22.249 15.053,22.376 15.071,22.524 15.170 C 22.820 15.370,22.933 15.598,22.933 15.995 C 22.933 16.427,22.824 16.630,22.470 16.854 L 22.219 17.013 19.624 17.013 L 17.029 17.013 17.001 19.658 L 16.974 22.303 16.819 22.525 C 16.641 22.782,16.278 22.987,16.000 22.987 C 15.722 22.987,15.359 22.782,15.180 22.524 L 15.025 22.301 14.998 19.657 L 14.971 17.013 12.376 17.013 L 9.781 17.013 9.530 16.854 C 9.176 16.630,9.067 16.427,9.067 15.995 C 9.067 15.598,9.180 15.370,9.476 15.170 C 9.624 15.071,9.751 15.053,10.537 15.022 C 11.028 15.003,12.227 14.987,13.200 14.987 L 14.971 14.987 15.002 12.413 C 15.022 10.878,15.057 9.763,15.090 9.650 C 15.191 9.307,15.613 9.022,16.029 9.016 C 16.118 9.014,16.297 9.067,16.428 9.133 " fill="var(--db-icon-color, currentColor)" stroke="none" fill-rule="evenodd"></path></svg>