<svg id="icon" height="20" viewBox="0 0 20 20" width="20" xmlns="http://www.w3.org/2000/svg"><path d="M9.417 2.049 C 8.548 2.185,7.800 2.565,7.182 3.182 C 6.105 4.260,5.740 5.816,6.225 7.265 C 6.659 8.566,7.689 9.513,9.071 9.883 C 9.351 9.958,9.447 9.966,10.000 9.966 C 10.553 9.966,10.649 9.958,10.929 9.883 C 11.712 9.673,12.302 9.338,12.836 8.801 C 13.898 7.733,14.268 6.166,13.799 4.729 C 13.746 4.569,13.664 4.358,13.615 4.261 C 13.215 3.462,12.470 2.744,11.649 2.364 C 11.224 2.168,10.833 2.075,10.267 2.035 C 9.708 1.995,9.761 1.994,9.417 2.049 M10.500 4.072 C 11.153 4.226,11.773 4.847,11.929 5.504 C 12.099 6.219,11.912 6.893,11.403 7.404 C 10.553 8.256,9.251 8.184,8.461 7.241 C 8.177 6.902,8.035 6.492,8.034 6.010 C 8.033 5.658,8.080 5.439,8.218 5.150 C 8.502 4.554,9.089 4.122,9.750 4.021 C 9.888 4.000,10.319 4.030,10.500 4.072 M6.117 12.032 C 5.624 12.049,5.329 12.074,5.217 12.107 C 4.253 12.398,3.477 13.132,3.159 14.055 C 3.023 14.451,2.992 14.886,3.007 16.217 C 3.020 17.425,3.019 17.421,3.283 17.685 C 3.768 18.169,4.510 18.074,4.867 17.480 L 4.983 17.286 5.003 16.001 C 5.021 14.856,5.029 14.704,5.083 14.600 C 5.188 14.395,5.337 14.233,5.512 14.132 L 5.683 14.034 9.993 14.034 C 14.266 14.033,14.304 14.034,14.436 14.101 C 14.609 14.190,14.811 14.393,14.905 14.574 C 14.977 14.712,14.980 14.755,14.998 16.001 L 15.017 17.286 15.133 17.480 C 15.260 17.690,15.422 17.836,15.622 17.923 C 15.779 17.990,16.168 17.999,16.342 17.938 C 16.549 17.866,16.775 17.663,16.893 17.442 L 17.000 17.241 16.998 16.212 C 16.996 14.793,16.970 14.426,16.841 14.056 C 16.697 13.637,16.466 13.271,16.133 12.933 C 15.730 12.522,15.371 12.299,14.826 12.121 L 14.574 12.039 10.712 12.023 C 8.588 12.015,6.520 12.019,6.117 12.032 " fill="var(--db-icon-color, currentColor)" stroke="none" fill-rule="evenodd"></path></svg>