<svg id="icon" height="24" viewBox="0 0 24 24" width="24" xmlns="http://www.w3.org/2000/svg"><path d="M13.600 2.045 C 13.114 2.124,12.589 2.503,12.265 3.010 C 12.184 3.136,11.857 3.747,11.538 4.369 C 10.969 5.475,10.521 6.207,10.062 6.780 C 9.484 7.501,8.193 8.796,7.434 9.418 L 7.207 9.604 6.854 9.401 C 6.311 9.089,6.103 9.038,5.280 9.012 C 4.496 8.988,3.968 9.034,3.620 9.157 C 2.936 9.397,2.411 9.933,2.121 10.684 L 1.999 11.000 2.009 15.050 L 2.020 19.100 2.152 19.407 C 2.462 20.124,2.876 20.538,3.593 20.848 L 3.900 20.980 4.960 20.978 C 5.876 20.977,6.050 20.967,6.240 20.904 C 6.566 20.796,6.926 20.585,7.177 20.355 L 7.400 20.152 8.810 20.534 C 11.268 21.200,12.977 21.631,14.160 21.885 C 15.026 22.071,15.898 21.982,16.729 21.623 C 17.695 21.205,18.794 20.308,19.631 19.252 C 20.908 17.639,21.780 15.550,21.964 13.660 C 22.023 13.055,21.990 11.743,21.904 11.275 C 21.694 10.122,21.182 9.485,20.220 9.177 C 19.788 9.039,19.166 9.002,17.250 9.001 C 16.409 9.000,15.720 8.993,15.720 8.984 C 15.720 8.975,15.793 8.809,15.882 8.616 C 16.083 8.179,16.361 7.417,16.493 6.940 C 16.698 6.201,16.738 5.930,16.736 5.300 C 16.733 4.787,16.718 4.644,16.629 4.313 C 16.363 3.314,15.800 2.609,14.967 2.231 C 14.695 2.108,14.213 2.000,13.960 2.006 C 13.883 2.008,13.721 2.025,13.600 2.045 M14.283 4.136 C 14.458 4.255,14.655 4.616,14.721 4.939 C 14.877 5.705,14.337 7.412,13.446 8.973 C 13.065 9.640,13.002 9.785,13.002 10.000 C 13.002 10.339,13.249 10.738,13.553 10.888 L 13.740 10.980 16.662 11.000 C 19.908 11.022,19.713 11.005,19.869 11.290 C 19.933 11.407,19.940 11.550,19.940 12.680 C 19.940 13.936,19.940 13.941,19.825 14.400 C 19.553 15.481,19.105 16.510,18.527 17.380 C 17.680 18.656,16.723 19.513,15.761 19.857 C 15.357 20.002,15.061 20.024,14.620 19.942 C 13.988 19.824,9.315 18.628,8.270 18.317 L 8.000 18.237 8.000 14.884 L 8.000 11.532 8.590 11.050 C 9.789 10.071,10.788 9.072,11.655 7.987 C 12.371 7.091,12.734 6.491,13.575 4.810 C 14.002 3.956,14.009 3.950,14.283 4.136 M5.873 11.135 L 5.972 11.234 5.976 14.967 C 5.980 18.512,5.976 18.705,5.907 18.807 C 5.798 18.967,5.645 19.000,5.000 19.000 C 4.355 19.000,4.202 18.967,4.093 18.807 C 4.026 18.709,4.019 18.562,4.006 16.980 C 3.998 16.034,4.005 14.355,4.021 13.249 C 4.053 10.979,4.035 11.094,4.364 11.036 C 4.461 11.018,4.818 11.011,5.157 11.020 C 5.750 11.036,5.779 11.041,5.873 11.135 " fill="var(--db-icon-color, currentColor)" stroke="none" fill-rule="evenodd"></path></svg>