<svg id="icon" height="20" viewBox="0 0 20 20" width="20" xmlns="http://www.w3.org/2000/svg"><path d="M9.150 2.055 C 8.060 2.225,7.095 2.657,6.392 3.289 C 5.429 4.154,4.882 5.117,4.539 6.550 C 4.481 6.788,4.419 7.111,4.401 7.267 C 4.382 7.423,4.352 8.696,4.333 10.096 C 4.315 11.497,4.285 12.769,4.268 12.924 C 4.214 13.399,4.049 13.679,3.626 14.019 C 3.081 14.455,3.021 14.547,3.019 14.950 C 3.018 15.156,3.034 15.253,3.090 15.374 C 3.184 15.578,3.455 15.849,3.621 15.904 C 3.719 15.936,4.256 15.950,5.852 15.958 L 7.953 15.970 8.006 16.243 C 8.079 16.621,8.173 16.852,8.369 17.130 C 8.727 17.639,9.403 18.000,10.000 18.000 C 10.233 18.000,10.654 17.896,10.900 17.777 C 11.119 17.672,11.656 17.153,11.762 16.944 C 11.860 16.750,12.000 16.252,12.000 16.096 L 12.000 15.967 14.163 15.967 L 16.327 15.967 16.517 15.839 C 16.963 15.539,17.111 15.013,16.882 14.545 C 16.815 14.407,16.720 14.305,16.436 14.069 C 15.961 13.673,15.813 13.472,15.732 13.113 C 15.710 13.013,15.685 11.939,15.666 10.251 C 15.649 8.766,15.619 7.409,15.600 7.236 C 15.524 6.536,15.266 5.637,14.964 5.015 C 14.228 3.502,12.930 2.494,11.250 2.132 C 10.970 2.072,10.785 2.059,10.083 2.050 C 9.625 2.044,9.205 2.046,9.150 2.055 " fill="var(--db-icon-color, currentColor)" stroke="none" fill-rule="evenodd"></path></svg>