<svg id="icon" height="24" viewBox="0 0 24 24" width="24" xmlns="http://www.w3.org/2000/svg"><path d="M11.300 2.027 C 9.710 2.158,8.205 2.633,6.887 3.417 C 4.088 5.083,2.225 8.105,2.036 11.289 C 1.923 13.194,2.240 14.797,3.058 16.440 C 3.772 17.877,4.716 19.020,5.960 19.957 C 7.547 21.151,9.388 21.842,11.309 21.964 C 14.269 22.152,16.974 21.136,19.055 19.055 C 20.828 17.283,21.823 15.079,21.964 12.615 C 22.068 10.790,21.736 9.146,20.945 7.567 C 19.505 4.692,16.753 2.665,13.580 2.140 C 13.256 2.087,11.809 1.991,11.560 2.007 C 11.505 2.011,11.388 2.019,11.300 2.027 M13.984 4.259 C 16.885 5.025,19.061 7.264,19.778 10.220 C 19.831 10.440,19.887 10.705,19.902 10.810 L 19.929 11.000 18.071 11.000 L 16.213 11.000 16.161 10.770 C 15.991 10.009,15.483 8.427,15.110 7.500 C 14.658 6.377,14.250 5.577,13.652 4.643 C 13.492 4.392,13.360 4.171,13.360 4.153 C 13.360 4.100,13.429 4.112,13.984 4.259 M10.692 4.345 C 10.999 4.501,11.455 4.951,11.813 5.451 C 12.680 6.662,13.493 8.510,14.012 10.449 L 14.148 10.959 14.024 10.981 C 13.956 10.993,12.937 10.998,11.760 10.991 L 9.621 10.980 9.592 10.780 C 9.455 9.848,9.425 9.367,9.427 8.120 C 9.429 6.691,9.464 6.274,9.643 5.560 C 9.771 5.049,10.025 4.489,10.186 4.362 C 10.312 4.263,10.517 4.256,10.692 4.345 M7.636 5.516 C 7.615 5.612,7.559 5.935,7.512 6.235 C 7.369 7.143,7.403 9.485,7.576 10.669 L 7.624 11.000 5.848 11.000 L 4.072 11.000 4.100 10.790 C 4.116 10.675,4.188 10.346,4.261 10.060 C 4.626 8.635,5.243 7.529,6.257 6.486 C 6.743 5.986,7.610 5.276,7.666 5.333 C 7.671 5.338,7.658 5.420,7.636 5.516 M8.041 13.170 C 8.735 15.862,9.689 18.131,10.728 19.566 C 10.833 19.712,10.920 19.853,10.920 19.879 C 10.920 19.938,10.739 19.912,10.180 19.774 C 7.619 19.139,5.566 17.383,4.594 14.995 C 4.397 14.511,4.158 13.666,4.102 13.253 C 4.075 13.058,4.079 13.045,4.167 13.029 C 4.218 13.019,5.101 13.008,6.128 13.005 L 7.997 13.000 8.041 13.170 M14.577 13.150 C 14.723 14.082,14.738 14.328,14.739 15.860 C 14.740 17.202,14.730 17.470,14.668 17.780 C 14.498 18.636,14.226 19.344,13.991 19.541 C 13.743 19.750,13.439 19.640,12.962 19.167 C 12.134 18.347,11.296 16.851,10.682 15.100 C 10.523 14.646,10.080 13.160,10.080 13.081 C 10.080 13.021,10.298 13.014,12.466 13.007 L 14.553 13.000 14.577 13.150 M19.798 13.026 C 19.922 13.050,19.925 13.055,19.898 13.216 C 19.850 13.500,19.649 14.287,19.539 14.620 C 19.400 15.041,18.862 16.137,18.596 16.540 C 18.460 16.745,18.146 17.099,17.722 17.525 C 16.931 18.319,16.466 18.681,16.536 18.450 C 16.629 18.139,16.740 17.157,16.781 16.280 C 16.817 15.530,16.689 13.547,16.576 13.098 L 16.551 13.000 18.111 13.000 C 18.968 13.000,19.727 13.011,19.798 13.026 " fill="var(--db-icon-color, currentColor)" stroke="none" fill-rule="evenodd"></path></svg>