<svg id="icon" height="24" viewBox="0 0 24 24" width="24" xmlns="http://www.w3.org/2000/svg"><path d="M18.690 6.073 C 18.413 6.172,18.464 6.122,13.360 11.246 C 11.017 13.598,9.076 15.522,9.048 15.521 C 9.019 15.520,8.238 14.783,7.312 13.881 C 6.385 12.980,5.558 12.194,5.473 12.135 C 5.162 11.920,4.656 11.970,4.340 12.248 C 4.107 12.454,4.042 12.581,4.013 12.897 C 3.971 13.345,3.935 13.301,6.277 15.644 C 7.434 16.801,8.459 17.799,8.556 17.863 C 8.712 17.966,8.768 17.979,9.040 17.979 C 9.309 17.979,9.368 17.965,9.514 17.869 C 9.706 17.742,17.015 10.474,18.704 8.731 C 19.327 8.088,19.866 7.505,19.902 7.436 C 20.000 7.246,20.021 6.919,19.948 6.705 C 19.860 6.448,19.713 6.271,19.482 6.145 C 19.217 6.001,18.958 5.977,18.690 6.073 " fill="var(--db-icon-color, currentColor)" stroke="none" fill-rule="evenodd"></path></svg>