<svg id="icon" height="24" viewBox="0 0 24 24" width="24" xmlns="http://www.w3.org/2000/svg"><path d="M15.470 3.043 C 14.967 3.118,14.151 3.457,13.696 3.781 C 13.047 4.242,12.481 5.014,12.224 5.788 L 12.155 5.995 7.488 6.011 C 4.264 6.022,2.771 6.041,2.660 6.071 C 2.455 6.127,2.117 6.480,2.049 6.707 C 1.910 7.169,2.101 7.633,2.533 7.880 L 2.740 7.999 7.447 8.000 L 12.154 8.000 12.216 8.210 C 12.511 9.220,13.435 10.240,14.433 10.658 C 15.028 10.908,15.335 10.966,16.054 10.964 C 16.626 10.963,16.742 10.951,17.060 10.860 C 18.389 10.480,19.353 9.587,19.802 8.320 C 19.852 8.177,19.900 8.052,19.908 8.042 C 19.917 8.032,20.224 8.012,20.592 7.998 C 21.349 7.969,21.528 7.918,21.746 7.670 C 22.175 7.181,22.016 6.421,21.420 6.109 C 21.281 6.037,21.170 6.024,20.580 6.008 L 19.900 5.990 19.805 5.695 C 19.474 4.664,18.527 3.703,17.420 3.275 C 16.902 3.074,15.989 2.966,15.470 3.043 M16.411 5.059 C 17.056 5.196,17.659 5.737,17.880 6.379 C 18.251 7.459,17.594 8.643,16.458 8.939 C 15.829 9.103,15.167 8.922,14.673 8.450 C 14.223 8.020,14.033 7.601,14.028 7.020 C 14.020 6.248,14.439 5.568,15.135 5.224 C 15.567 5.011,15.950 4.961,16.411 5.059 M7.639 13.001 C 6.135 13.177,4.778 14.242,4.278 15.638 L 4.153 15.988 3.464 16.010 C 2.718 16.034,2.557 16.072,2.346 16.272 C 2.124 16.483,2.020 16.715,2.020 17.000 C 2.020 17.301,2.094 17.480,2.310 17.702 C 2.548 17.948,2.654 17.975,3.448 17.992 L 4.157 18.008 4.222 18.234 C 4.494 19.179,5.309 20.106,6.273 20.566 C 7.445 21.125,8.948 21.074,10.063 20.436 C 10.855 19.983,11.589 19.066,11.840 18.216 L 11.889 18.053 12.791 18.026 C 13.287 18.012,15.387 18.000,17.456 18.000 L 21.220 17.999 21.427 17.880 C 22.013 17.544,22.134 16.851,21.693 16.361 C 21.359 15.989,21.837 16.023,16.580 16.000 C 14.028 15.989,11.920 15.967,11.896 15.951 C 11.872 15.935,11.811 15.809,11.761 15.671 C 11.546 15.077,11.253 14.621,10.796 14.165 C 10.435 13.805,10.199 13.636,9.740 13.409 C 9.228 13.155,9.035 13.094,8.520 13.021 C 8.064 12.956,8.027 12.956,7.639 13.001 M8.411 15.059 C 9.056 15.196,9.659 15.737,9.880 16.379 C 10.251 17.459,9.594 18.643,8.458 18.939 C 7.361 19.225,6.199 18.424,6.039 17.272 C 5.876 16.097,6.791 15.040,8.000 15.005 C 8.077 15.003,8.262 15.027,8.411 15.059 " fill="var(--db-icon-color, currentColor)" stroke="none" fill-rule="evenodd"></path></svg>