<svg id="icon" height="32" viewBox="0 0 32 32" width="32" xmlns="http://www.w3.org/2000/svg"><path d="M7.692 5.048 C 7.423 5.106,2.250 10.235,2.101 10.592 C 1.990 10.858,2.007 11.247,2.140 11.467 C 2.305 11.738,7.231 16.642,7.547 16.848 C 7.775 16.997,7.849 17.019,8.065 16.999 C 8.542 16.955,8.946 16.557,9.000 16.078 C 9.022 15.890,8.998 15.797,8.877 15.589 C 8.792 15.444,8.015 14.615,7.075 13.667 L 5.423 12.000 11.658 11.996 C 15.087 11.994,18.020 11.974,18.175 11.952 C 18.522 11.903,18.711 11.770,18.867 11.466 C 19.072 11.063,18.981 10.552,18.650 10.246 C 18.529 10.136,18.436 10.114,17.909 10.076 C 17.578 10.052,14.649 10.031,11.400 10.030 C 8.151 10.028,5.493 10.011,5.493 9.993 C 5.493 9.974,6.246 9.197,7.166 8.266 C 9.039 6.371,9.085 6.310,8.969 5.810 C 8.889 5.460,8.774 5.296,8.522 5.167 C 8.308 5.058,7.910 5.001,7.692 5.048 M23.540 15.117 C 23.167 15.279,22.925 15.839,23.041 16.271 C 23.096 16.476,23.311 16.712,24.805 18.215 C 25.741 19.156,26.507 19.940,26.507 19.958 C 26.507 19.975,23.619 19.997,20.089 20.008 L 13.671 20.027 13.451 20.179 C 13.049 20.457,12.910 20.970,13.114 21.413 C 13.242 21.690,13.433 21.862,13.688 21.930 C 13.817 21.964,16.222 22.000,20.187 22.026 C 23.648 22.049,26.490 22.071,26.502 22.074 C 26.515 22.077,25.756 22.842,24.816 23.773 C 23.170 25.404,23.105 25.477,23.043 25.740 C 22.879 26.442,23.376 27.034,24.080 26.976 C 24.465 26.944,24.486 26.925,27.398 24.027 C 29.066 22.367,29.835 21.565,29.892 21.428 C 30.030 21.093,29.999 20.746,29.807 20.475 C 29.536 20.091,24.637 15.233,24.419 15.131 C 24.187 15.023,23.772 15.016,23.540 15.117 " fill="var(--db-icon-color, currentColor)" stroke="none" fill-rule="evenodd"></path></svg>