<svg id="icon" height="32" viewBox="0 0 32 32" width="32" xmlns="http://www.w3.org/2000/svg"><path d="M5.782 5.061 C 5.224 5.092,5.166 5.106,4.727 5.323 C 3.911 5.728,3.268 6.494,3.084 7.280 C 3.039 7.476,3.017 9.810,3.003 16.027 L 2.985 24.507 3.137 24.911 C 3.436 25.704,3.998 26.341,4.707 26.692 C 5.067 26.870,5.146 26.887,5.814 26.933 C 6.682 26.993,25.566 26.999,26.301 26.940 C 26.748 26.904,26.877 26.869,27.276 26.678 C 28.033 26.314,28.554 25.734,28.862 24.911 L 29.013 24.507 29.011 18.373 C 29.010 14.982,28.987 11.990,28.959 11.680 C 28.917 11.204,28.881 11.062,28.718 10.733 C 28.387 10.062,27.771 9.508,26.988 9.177 L 26.697 9.054 21.815 9.026 L 16.933 8.999 15.093 7.178 C 14.081 6.177,13.159 5.286,13.044 5.199 L 12.835 5.040 9.604 5.034 C 7.827 5.031,6.107 5.043,5.782 5.061 M13.093 8.000 L 14.106 9.013 9.554 9.013 L 5.002 9.013 5.023 8.360 C 5.046 7.627,5.103 7.460,5.410 7.225 C 5.511 7.148,5.709 7.066,5.850 7.042 C 5.991 7.019,7.451 6.996,9.094 6.993 L 12.081 6.987 13.093 8.000 M26.320 11.089 C 26.464 11.123,26.596 11.210,26.727 11.357 L 26.921 11.573 26.960 12.920 C 26.981 13.661,26.990 16.538,26.979 19.315 L 26.960 24.363 26.797 24.565 C 26.708 24.675,26.540 24.816,26.424 24.876 L 26.213 24.987 16.000 24.987 L 5.787 24.987 5.576 24.876 C 5.460 24.816,5.292 24.675,5.203 24.565 L 5.040 24.363 5.023 17.667 L 5.006 10.970 15.556 11.004 C 21.912 11.025,26.191 11.059,26.320 11.089 " fill="var(--db-icon-color, currentColor)" stroke="none" fill-rule="evenodd"></path></svg>