<svg id="icon" height="24" viewBox="0 0 24 24" width="24" xmlns="http://www.w3.org/2000/svg"><path d="M11.670 2.055 C 11.466 2.130,10.896 2.672,8.877 4.708 C 7.677 5.919,7.148 6.479,7.087 6.606 C 6.872 7.049,7.100 7.625,7.582 7.860 C 7.797 7.965,8.204 7.965,8.420 7.860 C 8.516 7.813,9.059 7.308,9.790 6.585 L 11.000 5.389 11.000 10.324 L 11.001 15.260 11.122 15.471 C 11.434 16.016,12.094 16.151,12.607 15.775 C 12.862 15.588,12.920 15.466,12.962 15.025 C 12.982 14.824,12.998 12.573,12.999 10.023 L 13.000 5.386 14.191 6.568 C 14.918 7.289,15.448 7.783,15.551 7.835 C 15.796 7.960,16.027 7.981,16.297 7.903 C 16.893 7.729,17.187 6.999,16.856 6.511 C 16.676 6.243,12.601 2.185,12.440 2.112 C 12.233 2.018,11.850 1.990,11.670 2.055 M3.748 14.039 C 3.530 14.081,3.280 14.277,3.128 14.524 L 2.996 14.740 3.011 17.140 C 3.028 19.713,3.022 19.640,3.241 20.160 C 3.592 20.994,4.443 21.722,5.306 21.927 C 5.566 21.989,17.316 22.023,18.168 21.964 C 18.673 21.930,18.800 21.907,19.058 21.803 C 19.814 21.501,20.483 20.855,20.762 20.159 C 20.980 19.616,20.973 19.710,20.989 17.140 L 21.004 14.740 20.872 14.520 C 20.719 14.267,20.424 14.065,20.147 14.023 C 19.747 13.963,19.314 14.173,19.122 14.521 L 19.024 14.698 18.995 16.979 C 18.977 18.455,18.951 19.300,18.923 19.373 C 18.848 19.568,18.672 19.763,18.463 19.883 L 18.260 19.999 12.000 19.999 L 5.740 19.999 5.537 19.883 C 5.327 19.763,5.152 19.568,5.077 19.373 C 5.049 19.300,5.023 18.448,5.004 16.976 L 4.975 14.692 4.869 14.512 C 4.762 14.329,4.559 14.147,4.393 14.086 C 4.245 14.031,3.913 14.007,3.748 14.039 " fill="var(--db-icon-color, currentColor)" stroke="none" fill-rule="evenodd"></path></svg>