<svg id="icon" height="32" viewBox="0 0 32 32" width="32" xmlns="http://www.w3.org/2000/svg"><path d="M25.562 8.101 C 25.468 8.161,22.378 11.213,18.696 14.884 L 12.002 21.559 9.223 18.820 L 6.444 16.080 6.195 16.063 C 5.704 16.029,5.281 16.242,5.115 16.608 C 4.966 16.937,4.984 17.212,5.177 17.523 C 5.335 17.779,9.868 22.335,11.064 23.440 L 11.641 23.973 11.973 23.973 C 12.292 23.973,12.315 23.964,12.619 23.709 C 13.028 23.365,26.474 9.920,26.744 9.585 C 27.012 9.252,27.052 8.939,26.870 8.587 C 26.632 8.126,25.935 7.867,25.562 8.101 " fill="var(--db-icon-color, currentColor)" stroke="none" fill-rule="evenodd"></path></svg>