<svg id="icon" height="20" viewBox="0 0 20 20" width="20" xmlns="http://www.w3.org/2000/svg"><path d="M9.767 2.663 C 9.721 2.678,9.428 2.807,9.117 2.949 C 7.653 3.616,7.453 3.778,7.453 4.300 C 7.453 4.550,7.517 4.717,7.679 4.894 C 7.856 5.086,8.030 5.165,8.279 5.166 C 8.496 5.167,8.695 5.091,9.541 4.689 L 9.999 4.472 10.627 4.766 C 11.392 5.125,11.547 5.175,11.760 5.135 C 11.993 5.090,12.083 5.049,12.228 4.918 C 12.599 4.583,12.604 3.983,12.239 3.662 C 12.117 3.554,11.150 3.069,10.517 2.798 C 10.178 2.652,9.933 2.608,9.767 2.663 M14.092 4.748 C 13.501 4.958,13.307 5.723,13.733 6.162 C 13.825 6.257,14.037 6.380,14.494 6.604 L 15.128 6.915 15.141 7.832 C 15.149 8.470,15.166 8.780,15.195 8.850 C 15.307 9.117,15.696 9.367,16.000 9.367 C 16.306 9.367,16.626 9.168,16.778 8.885 C 16.848 8.753,16.850 8.721,16.850 7.417 C 16.850 6.179,16.846 6.075,16.788 5.967 C 16.649 5.706,16.557 5.648,15.473 5.135 C 14.569 4.706,14.366 4.650,14.092 4.748 M5.300 4.777 C 5.123 4.845,3.952 5.411,3.653 5.573 C 3.366 5.729,3.225 5.883,3.165 6.107 C 3.142 6.191,3.133 6.687,3.140 7.494 L 3.150 8.750 3.241 8.905 C 3.404 9.181,3.698 9.362,3.990 9.365 C 4.300 9.368,4.691 9.122,4.805 8.850 C 4.834 8.780,4.851 8.470,4.859 7.830 L 4.872 6.910 5.428 6.642 C 6.123 6.306,6.247 6.217,6.356 5.979 C 6.567 5.520,6.359 4.973,5.909 4.798 C 5.766 4.742,5.422 4.730,5.300 4.777 M7.567 7.424 C 7.420 7.479,7.332 7.584,7.232 7.825 C 7.085 8.176,6.161 10.604,5.885 11.363 C 5.734 11.778,5.668 12.003,5.682 12.057 C 5.718 12.199,6.004 12.271,6.300 12.212 C 6.451 12.181,6.604 12.013,6.690 11.781 C 6.730 11.672,6.795 11.497,6.834 11.392 L 6.905 11.200 7.799 11.200 L 8.693 11.200 8.802 11.475 C 9.011 12.003,9.082 12.119,9.232 12.179 C 9.384 12.240,9.683 12.251,9.815 12.201 C 9.862 12.183,9.917 12.132,9.938 12.087 C 9.983 11.988,9.968 11.941,9.409 10.417 C 8.720 8.539,8.399 7.723,8.302 7.600 C 8.252 7.536,8.159 7.465,8.097 7.444 C 7.980 7.403,7.655 7.391,7.567 7.424 M10.949 7.423 C 10.911 7.430,10.840 7.469,10.789 7.510 C 10.638 7.631,10.626 7.829,10.639 9.961 C 10.648 11.427,10.660 11.901,10.692 11.957 C 10.769 12.091,10.960 12.209,11.126 12.225 C 11.327 12.243,11.486 12.144,11.592 11.934 C 11.663 11.792,11.667 11.750,11.667 10.972 L 11.667 10.158 11.929 10.173 C 12.362 10.198,12.348 10.183,12.867 11.200 C 13.391 12.228,13.380 12.217,13.806 12.217 C 14.030 12.217,14.072 12.207,14.147 12.136 C 14.194 12.092,14.241 12.029,14.251 11.997 C 14.262 11.961,14.156 11.696,13.982 11.327 C 13.602 10.521,13.449 10.248,13.276 10.063 L 13.133 9.909 13.348 9.803 C 13.829 9.567,14.050 9.059,13.937 8.450 C 13.824 7.840,13.450 7.511,12.783 7.435 C 12.501 7.403,11.097 7.393,10.949 7.423 M12.724 8.243 C 12.889 8.332,12.933 8.451,12.933 8.799 C 12.933 9.373,12.853 9.440,12.142 9.461 L 11.667 9.474 11.667 8.817 L 11.667 8.160 12.142 8.173 C 12.514 8.182,12.640 8.197,12.724 8.243 M8.025 9.242 C 8.403 10.286,8.461 10.461,8.442 10.480 C 8.416 10.506,7.250 10.506,7.224 10.480 C 7.194 10.449,7.793 8.767,7.834 8.767 C 7.845 8.767,7.931 8.980,8.025 9.242 M3.766 10.662 C 3.531 10.740,3.331 10.909,3.212 11.133 C 3.155 11.241,3.150 11.344,3.150 12.467 C 3.150 13.136,3.162 13.756,3.178 13.845 C 3.228 14.141,3.363 14.245,4.298 14.711 C 4.750 14.936,5.229 15.156,5.363 15.199 C 5.577 15.268,5.625 15.272,5.769 15.239 C 6.305 15.115,6.593 14.598,6.419 14.073 C 6.331 13.810,6.156 13.675,5.470 13.344 L 4.872 13.056 4.859 12.153 C 4.846 11.175,4.838 11.129,4.656 10.939 C 4.441 10.713,4.015 10.581,3.766 10.662 M15.717 10.691 C 15.610 10.728,15.489 10.808,15.379 10.916 C 15.150 11.139,15.133 11.231,15.133 12.243 L 15.133 13.050 14.542 13.341 C 14.216 13.501,13.896 13.677,13.829 13.732 C 13.597 13.923,13.493 14.277,13.580 14.576 C 13.727 15.081,14.190 15.337,14.679 15.183 C 14.994 15.084,16.444 14.354,16.593 14.219 C 16.843 13.993,16.850 13.950,16.850 12.567 C 16.850 11.898,16.838 11.293,16.823 11.223 C 16.791 11.072,16.611 10.862,16.417 10.748 C 16.229 10.638,15.939 10.614,15.717 10.691 M8.011 14.855 C 7.934 14.882,7.804 14.963,7.722 15.036 C 7.451 15.275,7.362 15.590,7.465 15.949 C 7.548 16.238,7.692 16.345,8.605 16.794 C 9.731 17.348,9.808 17.379,10.033 17.356 C 10.267 17.334,10.472 17.249,11.423 16.783 C 12.274 16.366,12.417 16.261,12.512 15.982 C 12.658 15.553,12.505 15.143,12.113 14.913 C 11.980 14.835,11.939 14.828,11.691 14.839 C 11.422 14.851,11.404 14.857,10.709 15.190 L 10.002 15.528 9.342 15.217 C 8.444 14.794,8.296 14.753,8.011 14.855 " fill="var(--db-icon-color, currentColor)" stroke="none" fill-rule="evenodd"></path></svg>