<svg id="icon" height="20" viewBox="0 0 20 20" width="20" xmlns="http://www.w3.org/2000/svg"><path d="M8.231 2.097 C 7.983 2.132,7.599 2.338,7.377 2.555 C 7.168 2.759,6.982 3.121,6.933 3.419 C 6.915 3.528,6.900 3.858,6.900 4.152 L 6.900 4.688 6.774 4.759 L 6.648 4.830 6.249 4.593 C 5.594 4.205,5.411 4.129,5.085 4.108 C 4.608 4.079,4.237 4.189,3.903 4.461 C 3.703 4.623,3.067 5.614,2.357 6.867 C 2.004 7.492,1.932 7.823,2.050 8.279 C 2.209 8.887,2.520 9.199,3.491 9.720 L 3.733 9.850 3.733 10.035 L 3.733 10.219 3.508 10.350 C 2.755 10.789,2.363 11.120,2.216 11.443 C 2.067 11.768,2.033 12.323,2.139 12.663 C 2.180 12.793,2.419 13.220,2.944 14.100 C 3.421 14.902,3.675 15.279,3.857 15.456 C 4.160 15.749,4.759 15.943,5.135 15.869 C 5.570 15.783,5.744 15.703,6.419 15.277 L 6.689 15.106 6.841 15.201 L 6.993 15.296 7.008 15.973 C 7.021 16.554,7.033 16.677,7.093 16.842 C 7.245 17.257,7.584 17.626,7.989 17.818 C 8.261 17.947,8.772 17.977,10.367 17.958 L 11.650 17.943 11.875 17.856 C 12.435 17.641,12.835 17.189,12.951 16.642 C 12.981 16.499,12.999 16.214,12.999 15.858 L 13.000 15.300 13.156 15.203 L 13.311 15.106 13.581 15.276 C 14.447 15.821,14.559 15.867,15.029 15.867 C 15.685 15.867,16.053 15.662,16.439 15.083 C 16.769 14.589,17.582 13.228,17.752 12.883 C 17.938 12.507,17.970 12.252,17.885 11.832 C 17.767 11.248,17.565 11.013,16.757 10.517 L 16.268 10.217 16.268 10.033 L 16.268 9.850 16.626 9.654 C 17.218 9.330,17.502 9.127,17.657 8.918 C 17.981 8.480,18.079 7.894,17.909 7.395 C 17.847 7.211,17.259 6.185,16.680 5.250 C 16.485 4.934,16.276 4.641,16.167 4.532 C 15.852 4.215,15.440 4.076,14.915 4.108 C 14.589 4.129,14.406 4.205,13.752 4.593 L 13.354 4.828 13.227 4.764 L 13.100 4.699 13.099 4.208 C 13.098 3.547,13.059 3.278,12.927 3.005 C 12.778 2.698,12.425 2.346,12.123 2.202 L 11.895 2.094 10.156 2.082 C 9.199 2.076,8.333 2.082,8.231 2.097 M11.108 4.921 L 11.117 5.810 11.367 5.965 C 11.505 6.051,11.996 6.349,12.458 6.628 L 13.298 7.136 13.424 7.071 C 13.493 7.035,13.842 6.839,14.198 6.636 C 14.554 6.433,14.870 6.267,14.899 6.267 C 14.928 6.267,15.027 6.387,15.124 6.542 C 15.380 6.949,15.833 7.744,15.833 7.786 C 15.833 7.806,15.483 8.015,15.055 8.250 L 14.277 8.678 14.255 9.478 C 14.243 9.917,14.233 10.521,14.233 10.819 L 14.233 11.360 14.658 11.608 C 14.892 11.745,15.237 11.945,15.425 12.052 C 15.613 12.160,15.767 12.265,15.767 12.285 C 15.767 12.325,15.245 13.247,15.050 13.553 C 14.962 13.690,14.916 13.734,14.876 13.718 C 14.846 13.707,14.488 13.503,14.081 13.265 L 13.340 12.833 12.170 13.474 L 11.000 14.116 11.000 15.041 L 11.000 15.967 10.000 15.967 L 9.000 15.967 9.000 15.041 L 9.000 14.115 7.813 13.472 L 6.625 12.830 5.904 13.260 C 5.508 13.497,5.153 13.700,5.115 13.712 C 5.056 13.731,5.018 13.686,4.845 13.392 C 4.558 12.906,4.233 12.316,4.233 12.280 C 4.233 12.263,4.350 12.181,4.492 12.096 C 4.634 12.012,4.971 11.813,5.242 11.652 L 5.733 11.361 5.733 10.022 L 5.733 8.683 5.608 8.614 C 5.539 8.576,5.187 8.382,4.825 8.182 C 4.463 7.983,4.167 7.803,4.167 7.783 C 4.167 7.740,4.557 7.054,4.845 6.592 C 4.963 6.403,5.070 6.267,5.101 6.267 C 5.130 6.267,5.408 6.414,5.718 6.595 C 6.460 7.026,6.603 7.100,6.683 7.098 C 6.720 7.097,7.230 6.808,7.817 6.455 L 8.883 5.815 8.892 4.924 L 8.901 4.033 10.000 4.033 L 11.099 4.033 11.108 4.921 M9.600 8.050 C 9.200 8.131,8.818 8.347,8.529 8.657 C 8.322 8.878,8.226 9.037,8.118 9.334 C 7.864 10.037,8.047 10.843,8.583 11.386 C 8.850 11.656,9.033 11.773,9.376 11.889 C 10.064 12.123,10.829 11.954,11.361 11.450 C 11.623 11.202,11.763 10.981,11.888 10.617 C 12.006 10.272,12.021 9.727,11.920 9.433 C 11.668 8.698,11.121 8.203,10.393 8.053 C 10.091 7.991,9.897 7.990,9.600 8.050 " fill="var(--db-icon-color, currentColor)" stroke="none" fill-rule="evenodd"></path></svg>