<svg id="icon" height="20" viewBox="0 0 20 20" width="20" xmlns="http://www.w3.org/2000/svg"><path d="M13.800 2.030 C 13.502 2.096,13.428 2.158,12.155 3.426 C 11.461 4.118,10.715 4.876,10.496 5.112 C 10.154 5.483,10.092 5.567,10.046 5.727 C 9.852 6.394,10.384 7.053,11.068 6.991 C 11.418 6.959,11.517 6.889,12.265 6.150 L 12.956 5.465 12.978 6.021 C 12.990 6.327,13.000 7.629,13.000 8.914 C 13.000 11.229,13.001 11.252,13.070 11.384 C 13.190 11.609,13.351 11.781,13.538 11.883 C 13.696 11.969,13.749 11.980,14.000 11.980 C 14.227 11.979,14.312 11.964,14.426 11.905 C 14.618 11.805,14.813 11.606,14.916 11.402 L 15.000 11.236 15.000 8.330 L 15.000 5.424 15.711 6.123 C 16.541 6.939,16.610 6.984,17.017 6.982 C 17.224 6.980,17.314 6.964,17.424 6.906 C 17.879 6.669,18.090 6.199,17.952 5.727 C 17.903 5.561,17.845 5.482,17.501 5.110 C 17.284 4.875,16.546 4.125,15.862 3.443 C 14.926 2.512,14.575 2.183,14.450 2.121 C 14.266 2.031,13.981 1.991,13.800 2.030 M5.783 8.030 C 5.489 8.106,5.227 8.324,5.084 8.611 L 5.000 8.780 5.000 11.679 L 5.000 14.577 4.323 13.910 C 3.904 13.496,3.578 13.203,3.465 13.138 C 3.301 13.044,3.256 13.034,3.000 13.034 C 2.646 13.034,2.445 13.118,2.240 13.351 C 2.061 13.553,1.985 13.796,2.009 14.088 C 2.032 14.380,2.122 14.516,2.682 15.111 C 3.471 15.950,5.237 17.674,5.458 17.822 C 5.813 18.059,6.187 18.059,6.542 17.822 C 6.767 17.672,8.515 15.964,9.305 15.123 C 9.938 14.448,9.983 14.373,9.983 14.000 C 9.983 13.771,9.968 13.690,9.908 13.576 C 9.794 13.362,9.648 13.213,9.459 13.119 C 9.315 13.047,9.241 13.033,9.004 13.033 C 8.581 13.033,8.531 13.066,7.709 13.878 L 7.002 14.577 6.993 11.663 C 6.982 8.383,7.004 8.644,6.717 8.338 C 6.633 8.247,6.494 8.144,6.407 8.107 C 6.226 8.029,5.928 7.992,5.783 8.030 " fill="var(--db-icon-color, currentColor)" stroke="none" fill-rule="evenodd"></path></svg>