<svg id="icon" height="24" viewBox="0 0 24 24" width="24" xmlns="http://www.w3.org/2000/svg"><path d="M11.560 2.023 C 11.505 2.032,11.325 2.060,11.160 2.085 C 10.575 2.171,9.849 2.464,9.238 2.859 C 8.227 3.513,7.481 4.573,7.142 5.840 C 7.050 6.185,7.040 6.291,7.040 6.993 C 7.040 7.825,7.075 8.046,7.306 8.690 C 7.545 9.357,7.950 9.983,8.490 10.524 C 9.088 11.122,9.822 11.555,10.700 11.827 C 11.051 11.936,11.083 11.939,12.000 11.939 C 12.917 11.939,12.949 11.936,13.300 11.827 C 15.132 11.258,16.376 9.971,16.864 8.137 C 16.961 7.773,16.965 7.713,16.951 6.907 C 16.935 5.984,16.894 5.773,16.596 5.056 C 15.986 3.592,14.579 2.440,13.013 2.122 C 12.625 2.044,11.774 1.985,11.560 2.023 M12.742 4.102 C 13.768 4.366,14.634 5.232,14.898 6.258 C 14.981 6.579,14.981 7.421,14.898 7.742 C 14.698 8.517,14.103 9.273,13.408 9.633 C 12.880 9.907,12.579 9.979,11.980 9.978 C 11.498 9.977,11.432 9.967,11.082 9.847 C 10.629 9.690,10.318 9.508,9.994 9.208 C 9.586 8.831,9.288 8.357,9.125 7.826 C 9.015 7.470,9.004 6.577,9.104 6.238 C 9.195 5.931,9.483 5.374,9.677 5.129 C 10.025 4.689,10.695 4.249,11.240 4.104 C 11.546 4.022,12.430 4.021,12.742 4.102 M7.048 13.087 C 6.465 13.160,5.605 13.513,5.040 13.910 C 4.493 14.295,3.896 15.006,3.569 15.660 C 3.397 16.004,3.220 16.526,3.113 17.005 C 3.023 17.408,3.020 17.476,3.020 19.360 C 3.020 21.271,3.021 21.302,3.106 21.460 C 3.294 21.808,3.574 21.967,4.000 21.967 C 4.427 21.967,4.713 21.804,4.890 21.460 C 4.968 21.308,4.974 21.202,5.006 19.405 C 5.044 17.351,5.059 17.195,5.277 16.675 C 5.419 16.337,5.729 15.903,5.974 15.703 C 6.436 15.324,7.045 15.077,7.540 15.066 C 7.794 15.061,7.871 15.081,8.380 15.286 C 9.401 15.697,10.265 15.897,11.310 15.964 C 12.869 16.065,14.217 15.852,15.660 15.277 C 16.285 15.028,16.306 15.024,16.648 15.081 C 17.519 15.226,18.231 15.730,18.613 16.472 C 18.802 16.839,18.898 17.129,18.940 17.460 C 18.953 17.570,18.979 18.479,18.996 19.480 C 19.025 21.209,19.031 21.308,19.110 21.460 C 19.288 21.805,19.573 21.967,20.000 21.967 C 20.426 21.967,20.706 21.808,20.894 21.460 C 20.979 21.302,20.980 21.273,20.978 19.360 C 20.977 17.256,20.965 17.110,20.756 16.449 C 20.130 14.475,18.489 13.177,16.464 13.054 C 15.946 13.023,15.710 13.073,15.100 13.342 C 14.501 13.607,14.129 13.729,13.597 13.836 C 11.911 14.173,10.352 13.998,8.789 13.295 C 8.241 13.049,7.786 12.994,7.048 13.087 " fill="var(--db-icon-color, currentColor)" stroke="none" fill-rule="evenodd"></path></svg>