<svg id="icon" height="20" viewBox="0 0 20 20" width="20" xmlns="http://www.w3.org/2000/svg"><path d="M12.667 4.021 C 11.658 4.139,10.727 4.796,10.291 5.698 L 10.150 5.989 6.424 6.008 L 2.697 6.027 2.512 6.138 C 2.321 6.253,2.187 6.397,2.082 6.600 C 1.993 6.773,1.997 7.200,2.090 7.405 C 2.179 7.602,2.396 7.820,2.595 7.912 L 2.750 7.983 6.450 7.994 L 10.150 8.004 10.292 8.296 C 10.555 8.838,11.075 9.390,11.559 9.643 C 11.863 9.801,12.275 9.926,12.653 9.974 C 13.224 10.046,13.918 9.899,14.464 9.590 C 14.943 9.320,15.570 8.619,15.744 8.162 L 15.803 8.006 16.543 7.995 L 17.283 7.983 17.462 7.884 C 17.646 7.782,17.813 7.605,17.918 7.400 C 17.988 7.263,17.997 6.895,17.937 6.676 C 17.883 6.480,17.711 6.268,17.509 6.147 C 17.313 6.029,17.074 6.000,16.287 5.999 C 16.046 5.999,15.831 5.987,15.808 5.972 C 15.784 5.957,15.712 5.834,15.647 5.699 C 15.254 4.878,14.447 4.246,13.587 4.084 C 13.318 4.033,12.841 4.001,12.667 4.021 M13.383 6.115 C 13.588 6.209,13.747 6.363,13.853 6.572 C 13.918 6.701,13.933 6.782,13.933 7.000 C 13.933 7.307,13.888 7.443,13.716 7.653 C 13.539 7.869,13.279 7.983,12.967 7.983 C 12.774 7.983,12.681 7.966,12.563 7.908 C 11.950 7.605,11.798 6.838,12.252 6.335 C 12.543 6.013,12.975 5.929,13.383 6.115 M6.561 10.037 C 6.061 10.102,5.459 10.378,5.048 10.732 C 4.748 10.991,4.523 11.287,4.340 11.665 L 4.183 11.989 3.447 12.008 C 2.621 12.029,2.555 12.045,2.304 12.296 C 1.914 12.686,1.906 13.284,2.286 13.680 C 2.550 13.956,2.639 13.980,3.467 13.995 L 4.183 14.008 4.342 14.329 C 4.631 14.916,5.063 15.347,5.650 15.637 C 6.149 15.882,6.416 15.943,7.000 15.944 C 7.586 15.946,7.851 15.885,8.350 15.634 C 8.945 15.336,9.393 14.883,9.677 14.294 L 9.817 14.004 13.500 13.994 L 17.183 13.983 17.347 13.903 C 17.558 13.799,17.732 13.624,17.833 13.415 C 17.895 13.285,17.913 13.193,17.915 12.983 C 17.916 12.748,17.905 12.696,17.818 12.538 C 17.716 12.355,17.538 12.186,17.337 12.084 C 17.233 12.031,16.937 12.025,13.515 12.008 L 9.807 11.990 9.718 11.764 C 9.558 11.357,9.178 10.889,8.751 10.575 C 8.332 10.265,7.891 10.099,7.317 10.034 C 6.978 9.996,6.876 9.996,6.561 10.037 M7.417 12.080 C 7.773 12.249,7.970 12.569,7.970 12.981 C 7.970 13.263,7.918 13.413,7.749 13.620 C 7.480 13.948,6.958 14.052,6.561 13.857 C 6.209 13.684,6.020 13.379,6.020 12.983 C 6.020 12.584,6.230 12.247,6.583 12.080 C 6.713 12.018,6.806 12.001,7.000 12.001 C 7.194 12.001,7.287 12.018,7.417 12.080 " fill="var(--db-icon-color, currentColor)" stroke="none" fill-rule="evenodd"></path></svg>