<svg id="icon" height="20" viewBox="0 0 20 20" width="20" xmlns="http://www.w3.org/2000/svg"><path d="M9.450 3.065 C 9.009 3.116,8.415 3.321,8.000 3.566 C 7.294 3.982,6.776 4.529,6.437 5.217 C 6.095 5.910,6.001 6.402,6.000 7.508 L 6.000 8.033 5.875 8.034 C 5.659 8.035,5.334 8.130,5.060 8.272 C 4.632 8.495,4.327 8.847,4.105 9.374 L 4.017 9.583 4.007 12.717 C 3.997 15.974,4.010 16.380,4.133 16.708 C 4.329 17.231,4.848 17.719,5.404 17.902 L 5.650 17.983 10.000 17.983 L 14.350 17.983 14.617 17.891 C 15.055 17.741,15.437 17.436,15.703 17.025 C 15.865 16.774,15.929 16.577,15.968 16.211 C 15.985 16.049,15.999 14.513,15.999 12.797 C 16.000 9.840,15.997 9.668,15.938 9.497 C 15.824 9.166,15.668 8.903,15.446 8.667 C 15.097 8.297,14.701 8.096,14.227 8.047 L 14.010 8.025 13.991 7.221 C 13.974 6.500,13.964 6.383,13.887 6.095 C 13.672 5.282,13.381 4.782,12.774 4.182 C 12.211 3.625,11.523 3.251,10.810 3.114 C 10.509 3.057,9.757 3.029,9.450 3.065 M10.633 5.134 C 10.930 5.233,11.135 5.364,11.385 5.615 C 11.638 5.868,11.791 6.111,11.898 6.427 C 11.953 6.591,11.969 6.755,11.988 7.330 L 12.011 8.033 10.000 8.033 L 7.990 8.033 8.010 7.358 C 8.023 6.909,8.046 6.622,8.080 6.500 C 8.281 5.783,8.929 5.178,9.617 5.065 C 9.862 5.025,10.421 5.063,10.633 5.134 M14.000 13.017 L 14.000 16.000 10.000 16.000 L 6.000 16.000 6.000 13.017 L 6.000 10.033 10.000 10.033 L 14.000 10.033 14.000 13.017 M9.783 11.029 C 9.483 11.108,9.236 11.302,9.110 11.560 L 9.017 11.750 9.017 12.983 C 9.017 13.924,9.027 14.246,9.061 14.342 C 9.122 14.515,9.404 14.813,9.591 14.904 C 9.783 14.997,10.180 15.007,10.374 14.924 C 10.549 14.849,10.817 14.589,10.907 14.405 C 10.981 14.254,10.984 14.221,10.995 13.075 C 11.005 12.025,11.000 11.881,10.948 11.713 C 10.872 11.473,10.631 11.202,10.405 11.105 C 10.219 11.025,9.932 10.990,9.783 11.029 " fill="var(--db-icon-color, currentColor)" stroke="none" fill-rule="evenodd"></path></svg>