<svg id="icon" height="32" viewBox="0 0 32 32" width="32" xmlns="http://www.w3.org/2000/svg"><path d="M26.729 4.038 C 26.566 4.069,26.145 4.464,23.998 6.598 L 22.210 8.376 21.633 8.135 C 20.555 7.683,19.355 7.358,18.053 7.164 C 17.149 7.030,14.752 7.029,13.840 7.163 C 11.064 7.571,8.526 8.760,6.291 10.698 C 5.133 11.701,3.658 13.355,2.631 14.800 C 1.927 15.791,1.882 15.994,2.235 16.598 C 2.524 17.093,3.244 18.093,3.754 18.710 C 4.643 19.783,6.493 21.512,7.609 22.312 L 7.991 22.587 6.101 24.489 C 4.147 26.457,4.002 26.633,4.002 27.040 C 4.002 27.458,4.333 27.877,4.747 27.985 C 5.074 28.069,5.298 27.990,5.691 27.652 C 5.890 27.480,10.979 22.418,17.000 16.403 L 27.947 5.467 27.980 5.217 C 28.029 4.849,27.964 4.606,27.755 4.374 C 27.494 4.086,27.121 3.964,26.729 4.038 M17.048 9.067 C 18.190 9.154,19.342 9.388,20.259 9.720 L 20.705 9.881 19.732 10.855 L 18.759 11.829 18.166 11.542 C 17.300 11.122,17.049 11.067,16.000 11.067 C 14.974 11.067,14.700 11.124,13.923 11.497 C 12.180 12.334,11.202 13.750,11.011 15.712 C 10.937 16.472,11.182 17.545,11.621 18.382 L 11.824 18.768 10.667 19.918 C 9.915 20.665,9.472 21.067,9.401 21.067 C 9.280 21.067,8.722 20.682,7.947 20.064 C 6.873 19.207,5.432 17.681,4.547 16.461 L 4.214 16.002 4.650 15.428 C 5.425 14.408,5.813 13.964,6.715 13.064 C 7.683 12.098,8.201 11.664,9.093 11.070 C 10.860 9.895,12.584 9.293,14.880 9.050 C 15.282 9.008,16.381 9.016,17.048 9.067 M24.921 11.323 L 24.223 12.027 24.787 12.560 C 25.744 13.465,26.952 14.842,27.554 15.714 C 27.723 15.959,27.736 16.002,27.677 16.114 C 27.474 16.497,26.300 17.904,25.440 18.792 C 23.252 21.054,20.980 22.318,18.187 22.829 C 17.586 22.938,17.366 22.950,15.973 22.946 C 14.889 22.943,14.283 22.918,13.947 22.863 L 13.467 22.785 12.652 23.593 L 11.837 24.400 12.065 24.470 C 13.364 24.869,15.650 25.094,17.093 24.964 C 20.196 24.686,22.758 23.670,25.173 21.760 C 25.910 21.178,27.564 19.511,28.264 18.644 C 29.105 17.604,29.910 16.454,29.951 16.236 C 30.019 15.872,29.944 15.638,29.586 15.101 C 28.729 13.815,27.186 12.032,26.026 10.986 L 25.619 10.619 24.921 11.323 M16.953 13.179 L 17.292 13.294 15.300 15.287 C 14.204 16.383,13.302 17.280,13.295 17.280 C 13.288 17.280,13.229 17.106,13.164 16.893 C 13.011 16.400,13.001 15.643,13.141 15.173 C 13.449 14.137,14.301 13.323,15.321 13.090 C 15.768 12.988,16.511 13.028,16.953 13.179 M18.859 17.387 C 16.561 19.670,15.382 20.893,15.431 20.942 C 15.486 20.997,16.570 20.971,16.895 20.907 C 18.988 20.494,20.565 18.876,20.933 16.765 C 21.016 16.290,21.028 15.771,20.963 15.493 C 20.926 15.336,20.894 15.365,18.859 17.387 " fill="var(--db-icon-color, currentColor)" stroke="none" fill-rule="evenodd"></path></svg>