<svg id="icon" height="24" viewBox="0 0 24 24" width="24" xmlns="http://www.w3.org/2000/svg"><path d="M11.320 2.027 C 10.705 2.071,9.659 2.265,9.085 2.441 C 6.453 3.251,4.230 5.141,3.041 7.580 C 2.232 9.240,1.927 10.793,2.038 12.694 C 2.130 14.281,2.647 15.877,3.530 17.300 C 4.979 19.637,7.361 21.267,10.140 21.824 C 10.824 21.961,11.834 22.018,12.669 21.967 C 15.444 21.795,18.022 20.443,19.812 18.220 C 21.083 16.642,21.844 14.687,21.963 12.692 C 22.056 11.118,21.844 9.727,21.299 8.335 C 20.321 5.840,18.239 3.738,15.760 2.739 C 14.679 2.304,13.687 2.097,12.402 2.040 C 11.928 2.018,11.531 2.004,11.520 2.008 C 11.509 2.011,11.419 2.020,11.320 2.027 M12.680 4.042 C 14.285 4.189,15.822 4.804,17.041 5.789 C 17.723 6.340,18.471 7.218,18.920 7.997 C 20.514 10.758,20.301 14.254,18.381 16.820 C 18.079 17.223,17.432 17.894,17.040 18.211 C 14.585 20.195,11.210 20.553,8.380 19.130 C 7.037 18.454,5.841 17.321,5.080 16.003 C 3.732 13.668,3.663 10.719,4.903 8.320 C 5.578 7.011,6.652 5.873,7.910 5.133 C 9.360 4.280,11.049 3.893,12.680 4.042 M16.083 8.487 C 15.959 8.549,15.041 9.435,13.030 11.433 L 10.154 14.291 9.988 14.135 C 9.897 14.050,9.422 13.590,8.934 13.112 C 8.013 12.213,7.735 12.001,7.480 12.001 C 6.936 12.000,6.501 12.405,6.451 12.959 C 6.413 13.371,6.443 13.410,8.117 15.084 C 8.944 15.911,9.684 16.621,9.760 16.660 C 9.930 16.748,10.284 16.753,10.482 16.670 C 10.566 16.635,11.128 16.122,11.881 15.392 C 13.502 13.822,17.225 10.064,17.377 9.845 C 17.672 9.419,17.506 8.823,17.013 8.534 C 16.756 8.383,16.334 8.362,16.083 8.487 " fill="var(--db-icon-color, currentColor)" stroke="none" fill-rule="evenodd"></path></svg>