<svg id="icon" height="24" viewBox="0 0 24 24" width="24" xmlns="http://www.w3.org/2000/svg"><path d="M10.600 3.104 C 8.357 3.457,6.464 4.408,4.919 5.958 C 2.364 8.521,1.402 12.226,2.384 15.715 C 2.736 16.965,3.370 18.210,4.164 19.205 C 4.750 19.940,5.098 20.117,5.602 19.939 C 5.976 19.807,6.228 19.494,6.267 19.112 C 6.300 18.793,6.228 18.600,5.939 18.231 C 4.741 16.699,4.183 15.330,4.035 13.562 C 3.874 11.650,4.509 9.600,5.749 8.024 C 6.057 7.634,6.714 6.986,7.101 6.693 C 8.235 5.834,9.518 5.287,10.828 5.105 C 12.068 4.933,13.062 5.006,14.377 5.365 C 15.015 5.540,15.148 5.546,15.423 5.416 C 15.942 5.170,16.149 4.510,15.862 4.019 C 15.677 3.703,15.437 3.576,14.630 3.362 C 13.667 3.107,13.360 3.069,12.120 3.056 C 11.254 3.047,10.889 3.058,10.600 3.104 M17.743 6.043 C 17.657 6.064,17.488 6.165,17.363 6.269 C 17.241 6.373,16.096 7.496,14.820 8.766 L 12.500 11.074 12.300 11.035 C 12.166 11.010,11.987 11.011,11.760 11.041 C 10.794 11.165,10.086 11.909,10.014 12.876 C 9.917 14.170,11.212 15.263,12.458 14.939 C 13.021 14.792,13.517 14.394,13.772 13.886 C 13.954 13.521,14.016 13.222,13.988 12.826 L 13.967 12.512 14.113 12.346 C 14.193 12.255,15.285 11.145,16.540 9.880 C 17.975 8.433,18.851 7.520,18.901 7.420 C 19.011 7.198,19.006 6.797,18.892 6.579 C 18.667 6.150,18.197 5.931,17.743 6.043 M20.240 9.075 C 19.923 9.178,19.649 9.438,19.566 9.714 C 19.491 9.966,19.512 10.195,19.658 10.722 C 19.920 11.667,20.012 12.502,19.959 13.448 C 19.921 14.106,19.877 14.414,19.734 14.999 C 19.476 16.056,18.912 17.149,18.094 18.180 C 17.777 18.580,17.705 18.754,17.730 19.065 C 17.796 19.879,18.734 20.285,19.333 19.758 C 19.959 19.207,20.867 17.779,21.291 16.680 C 22.153 14.445,22.222 12.169,21.500 9.886 C 21.382 9.514,21.196 9.283,20.900 9.142 C 20.723 9.058,20.395 9.025,20.240 9.075 " fill="var(--db-icon-color, currentColor)" stroke="none" fill-rule="evenodd"></path></svg>