<svg id="icon" height="24" viewBox="0 0 24 24" width="24" xmlns="http://www.w3.org/2000/svg"><path d="M13.140 5.098 C 12.158 5.288,11.329 5.599,10.670 6.024 L 10.399 6.199 10.150 6.141 C 7.478 5.526,4.787 7.178,4.145 9.825 C 4.092 10.048,4.035 10.348,4.019 10.493 C 3.991 10.753,3.989 10.757,3.766 10.933 C 2.598 11.852,1.942 13.261,2.011 14.700 C 2.067 15.861,2.559 16.931,3.413 17.747 C 4.002 18.310,4.596 18.639,5.440 18.869 L 5.820 18.973 11.100 18.989 C 16.755 19.006,17.677 18.987,18.218 18.841 C 19.142 18.591,19.842 18.184,20.535 17.496 C 21.237 16.799,21.659 16.023,21.904 14.980 C 22.006 14.545,21.998 13.407,21.889 12.960 C 21.623 11.871,21.216 11.163,20.380 10.340 C 19.926 9.893,19.889 9.845,19.841 9.640 C 19.597 8.610,19.071 7.649,18.322 6.867 C 17.506 6.017,16.558 5.470,15.390 5.175 C 15.035 5.086,14.876 5.070,14.200 5.058 C 13.654 5.048,13.336 5.060,13.140 5.098 " fill="var(--db-icon-color, currentColor)" stroke="none" fill-rule="evenodd"></path></svg>