<svg id="icon" height="20" viewBox="0 0 20 20" width="20" xmlns="http://www.w3.org/2000/svg"><path d="M9.433 3.036 C 8.833 3.114,8.238 3.328,7.778 3.631 C 6.811 4.269,6.231 5.201,6.052 6.411 C 6.023 6.602,6.000 6.803,6.000 6.858 L 6.000 6.958 4.390 6.973 L 2.779 6.989 2.599 7.086 C 2.215 7.293,2.035 7.564,2.034 7.940 C 2.033 8.252,2.120 8.730,2.802 12.154 L 3.403 15.174 2.827 15.762 C 2.509 16.086,2.208 16.412,2.158 16.486 C 1.807 17.002,2.103 17.767,2.725 17.954 C 3.091 18.064,3.318 17.998,3.692 17.672 C 4.054 17.357,13.772 7.665,15.283 6.111 L 16.391 4.972 16.450 4.753 C 16.506 4.548,16.506 4.520,16.456 4.316 C 16.363 3.938,16.100 3.657,15.751 3.562 C 15.562 3.511,15.210 3.543,15.050 3.625 C 14.977 3.663,14.611 3.988,14.237 4.347 C 13.863 4.706,13.548 5.000,13.536 5.000 C 13.525 5.000,13.435 4.877,13.335 4.727 C 12.752 3.845,11.701 3.194,10.659 3.070 C 10.244 3.020,9.677 3.005,9.433 3.036 M10.583 5.085 C 11.220 5.250,11.747 5.779,11.913 6.417 L 11.965 6.617 11.775 6.808 L 11.585 7.000 9.789 7.000 L 7.992 7.000 8.015 6.808 C 8.132 5.827,8.700 5.201,9.625 5.032 C 9.836 4.994,10.341 5.022,10.583 5.085 M17.163 7.138 C 17.082 7.196,14.819 9.438,12.133 12.122 L 7.250 17.001 11.467 16.992 L 15.683 16.983 15.851 16.895 C 16.046 16.792,16.283 16.548,16.354 16.378 C 16.413 16.239,16.526 15.684,17.083 12.817 C 17.839 8.919,18.008 7.994,17.986 7.857 C 17.938 7.558,17.734 7.265,17.475 7.124 L 17.309 7.034 17.163 7.138 " fill="var(--db-icon-color, currentColor)" stroke="none" fill-rule="evenodd"></path></svg>