<svg id="icon" height="24" viewBox="0 0 24 24" width="24" xmlns="http://www.w3.org/2000/svg"><path d="M10.340 2.105 C 8.691 2.298,7.114 2.774,5.634 3.525 C 4.779 3.958,4.555 4.233,4.611 4.778 C 4.668 5.330,5.061 5.687,5.618 5.692 C 5.843 5.695,5.915 5.669,6.581 5.352 C 8.569 4.405,9.854 4.107,11.960 4.106 C 13.468 4.105,14.413 4.243,15.600 4.640 C 16.153 4.825,16.440 4.945,17.546 5.454 C 17.814 5.577,18.103 5.689,18.188 5.703 C 18.628 5.773,19.151 5.393,19.285 4.904 C 19.346 4.682,19.279 4.368,19.117 4.115 C 19.013 3.953,18.923 3.881,18.592 3.695 C 17.124 2.872,15.082 2.244,13.340 2.081 C 12.716 2.023,10.919 2.037,10.340 2.105 M10.780 5.959 C 9.874 6.037,8.664 6.370,7.690 6.810 C 5.511 7.796,3.685 9.657,2.782 11.813 C 2.392 12.743,2.076 13.971,2.016 14.788 C 1.990 15.135,1.995 15.169,2.097 15.377 C 2.375 15.946,2.995 16.149,3.534 15.848 C 3.890 15.649,3.988 15.426,4.141 14.480 C 4.359 13.123,4.909 11.897,5.786 10.813 C 6.716 9.663,8.100 8.736,9.532 8.304 C 10.425 8.034,11.475 7.921,12.383 7.996 C 13.038 8.051,13.165 8.031,13.465 7.829 C 13.725 7.655,13.899 7.324,13.899 7.004 C 13.899 6.524,13.594 6.152,13.093 6.019 C 12.812 5.944,11.389 5.908,10.780 5.959 M16.330 7.564 C 16.087 7.685,15.852 7.968,15.774 8.233 C 15.721 8.418,15.718 8.488,15.758 8.668 C 15.824 8.960,15.984 9.154,16.501 9.571 C 17.255 10.178,17.758 10.727,18.249 11.480 C 18.924 12.512,19.440 13.958,19.440 14.812 C 19.440 15.640,18.513 16.123,17.849 15.642 C 17.582 15.448,17.508 15.275,17.300 14.360 C 17.008 13.071,16.094 11.763,14.954 11.001 C 14.039 10.388,13.119 10.092,12.000 10.051 C 10.507 9.996,9.206 10.448,8.029 11.430 C 7.213 12.110,6.587 13.139,6.251 14.354 C 6.149 14.720,6.144 14.786,6.145 15.640 C 6.146 16.408,6.158 16.599,6.232 16.941 C 6.588 18.603,7.495 20.179,8.804 21.414 C 9.245 21.830,9.443 21.950,9.745 21.985 C 10.111 22.027,10.568 21.773,10.746 21.428 C 10.782 21.358,10.821 21.180,10.831 21.034 C 10.858 20.664,10.777 20.516,10.233 19.935 C 9.440 19.090,9.026 18.518,8.680 17.790 C 8.302 16.998,8.181 16.403,8.210 15.481 C 8.231 14.808,8.281 14.594,8.529 14.101 C 9.220 12.732,10.691 11.934,12.187 12.116 C 13.086 12.226,13.811 12.593,14.421 13.249 C 14.928 13.794,15.163 14.286,15.400 15.295 C 15.608 16.188,15.948 16.761,16.552 17.239 C 17.636 18.098,19.244 18.098,20.328 17.239 C 20.829 16.842,21.205 16.285,21.406 15.640 C 21.537 15.220,21.537 14.451,21.404 13.820 C 21.075 12.250,20.394 10.795,19.412 9.559 C 18.821 8.817,17.793 7.888,17.265 7.620 C 16.925 7.447,16.604 7.428,16.330 7.564 M11.380 14.416 C 11.069 14.552,10.813 14.895,10.774 15.231 C 10.744 15.478,10.833 15.893,11.047 16.520 C 11.660 18.308,12.951 19.854,14.606 20.783 C 15.057 21.037,15.448 21.208,15.786 21.302 C 16.008 21.364,16.044 21.364,16.246 21.306 C 16.535 21.222,16.769 21.047,16.906 20.814 C 17.116 20.455,17.031 19.860,16.731 19.597 C 16.651 19.528,16.369 19.366,16.103 19.238 C 14.760 18.593,13.876 17.742,13.279 16.521 C 13.079 16.111,12.993 15.883,12.804 15.260 C 12.662 14.792,12.535 14.614,12.232 14.464 C 11.996 14.346,11.592 14.323,11.380 14.416 " fill="var(--db-icon-color, currentColor)" stroke="none" fill-rule="evenodd"></path></svg>