<svg id="icon" height="32" viewBox="0 0 32 32" width="32" xmlns="http://www.w3.org/2000/svg"><path d="M23.255 2.088 C 23.094 2.114,22.782 2.225,22.561 2.333 C 22.190 2.516,21.993 2.695,19.893 4.752 C 16.882 7.703,5.109 19.516,4.532 20.165 C 3.993 20.771,4.081 20.515,3.200 24.027 C 1.976 28.906,1.924 29.198,2.208 29.570 C 2.292 29.682,2.467 29.819,2.596 29.876 C 2.821 29.976,2.846 29.976,3.268 29.892 C 4.554 29.634,9.616 28.391,10.799 28.044 C 11.346 27.883,11.365 27.872,11.878 27.416 C 12.518 26.846,24.657 14.791,27.480 11.920 C 29.130 10.243,29.554 9.781,29.673 9.539 C 30.103 8.660,30.072 7.635,29.590 6.786 C 29.344 6.351,27.452 4.381,25.920 2.963 C 25.032 2.142,24.326 1.910,23.255 2.088 M24.120 4.110 C 24.275 4.153,24.575 4.414,25.449 5.269 C 26.069 5.876,26.883 6.703,27.257 7.107 C 27.823 7.717,27.943 7.876,27.973 8.052 C 28.035 8.419,27.834 8.754,27.100 9.504 L 26.458 10.160 24.160 7.867 L 21.861 5.573 22.582 4.869 C 23.417 4.053,23.597 3.964,24.120 4.110 M22.747 9.280 L 24.986 11.520 17.960 18.546 L 10.934 25.572 10.477 25.119 C 10.225 24.870,9.206 23.837,8.212 22.822 L 6.405 20.978 13.416 14.009 C 17.273 10.176,20.446 7.040,20.468 7.040 C 20.489 7.040,21.515 8.048,22.747 9.280 M7.393 24.876 C 8.513 26.022,8.886 26.434,8.830 26.466 C 8.663 26.559,4.437 27.602,4.395 27.560 C 4.378 27.543,5.406 23.269,5.467 23.104 C 5.511 22.983,5.813 23.261,7.393 24.876 " fill="var(--db-icon-color, currentColor)" stroke="none" fill-rule="evenodd"></path></svg>