<svg id="icon" height="20" viewBox="0 0 20 20" width="20" xmlns="http://www.w3.org/2000/svg"><path d="M9.467 2.019 C 9.402 2.027,9.208 2.049,9.033 2.069 C 7.573 2.235,6.037 2.905,4.867 3.887 C 4.021 4.596,3.368 5.421,2.865 6.417 C 2.470 7.199,2.215 7.993,2.076 8.882 C 1.995 9.401,1.996 10.573,2.078 11.100 C 2.271 12.339,2.668 13.380,3.328 14.386 C 3.653 14.882,3.873 15.152,4.327 15.612 C 4.978 16.273,5.581 16.712,6.417 17.135 C 7.201 17.532,7.992 17.783,8.900 17.923 C 9.430 18.004,10.562 18.004,11.115 17.922 C 11.594 17.851,12.262 17.683,12.717 17.519 C 13.425 17.264,14.337 16.756,14.943 16.278 C 15.287 16.007,15.932 15.367,16.215 15.017 C 17.769 13.092,18.346 10.569,17.779 8.185 C 17.441 6.768,16.685 5.390,15.702 4.400 C 15.039 3.733,14.413 3.290,13.484 2.831 C 12.636 2.412,11.959 2.207,11.017 2.084 C 10.620 2.032,9.691 1.993,9.467 2.019 M8.870 4.205 C 9.126 4.293,9.584 4.706,9.917 5.150 C 10.471 5.890,11.163 7.324,11.552 8.542 C 11.620 8.758,11.666 8.945,11.652 8.959 C 11.639 8.972,10.791 8.987,9.768 8.992 L 7.909 9.002 7.889 8.901 C 7.782 8.369,7.778 6.482,7.881 5.773 C 7.957 5.257,8.077 4.801,8.207 4.539 C 8.374 4.204,8.572 4.104,8.870 4.205 M11.872 4.302 C 13.502 4.833,14.883 6.114,15.538 7.701 C 15.688 8.064,15.900 8.788,15.900 8.936 C 15.900 8.998,15.865 9.000,14.836 9.000 C 13.851 9.000,13.770 8.996,13.754 8.942 C 13.745 8.910,13.707 8.753,13.670 8.594 C 13.373 7.319,12.636 5.761,11.817 4.676 C 11.670 4.482,11.529 4.295,11.504 4.261 C 11.439 4.173,11.498 4.180,11.872 4.302 M5.813 6.057 C 5.708 6.670,5.731 8.302,5.853 8.908 L 5.872 9.000 4.986 9.000 L 4.100 9.000 4.100 8.925 C 4.100 8.808,4.252 8.269,4.387 7.909 C 4.659 7.180,5.091 6.465,5.567 5.957 C 5.718 5.796,5.849 5.672,5.859 5.681 C 5.868 5.690,5.847 5.859,5.813 6.057 M6.302 11.142 C 6.322 11.220,6.407 11.486,6.489 11.733 C 6.971 13.181,7.717 14.627,8.456 15.545 C 8.572 15.689,8.667 15.819,8.667 15.835 C 8.667 15.918,7.792 15.598,7.197 15.296 C 6.739 15.064,6.456 14.869,6.050 14.508 C 5.120 13.680,4.506 12.692,4.200 11.529 C 4.145 11.320,4.100 11.116,4.100 11.075 L 4.100 11.000 5.182 11.000 L 6.264 11.000 6.302 11.142 M12.146 11.110 C 12.234 11.577,12.263 13.088,12.198 13.800 C 12.151 14.314,12.021 14.948,11.895 15.273 C 11.763 15.616,11.569 15.833,11.394 15.833 C 10.983 15.833,10.259 15.142,9.699 14.214 C 9.431 13.771,9.062 13.006,8.823 12.400 C 8.623 11.892,8.367 11.144,8.367 11.069 C 8.367 11.016,8.522 11.011,10.355 11.005 L 12.126 11.000 12.146 11.110 M15.860 11.305 C 15.716 11.971,15.431 12.629,15.010 13.267 C 14.780 13.615,14.360 14.141,14.184 14.300 L 14.092 14.383 14.112 14.283 C 14.274 13.460,14.301 12.201,14.178 11.175 L 14.157 11.000 15.042 11.000 L 15.926 11.000 15.860 11.305 " fill="var(--db-icon-color, currentColor)" stroke="none" fill-rule="evenodd"></path></svg>