<svg id="icon" height="20" viewBox="0 0 20 20" width="20" xmlns="http://www.w3.org/2000/svg"><path d="M10.782 1.031 C 10.587 1.063,10.300 1.235,10.178 1.394 C 10.011 1.610,9.924 1.879,9.942 2.117 C 9.965 2.401,10.072 2.599,10.378 2.922 L 10.645 3.205 9.697 4.154 C 9.176 4.677,8.619 5.225,8.459 5.372 L 8.169 5.639 7.893 5.506 C 7.266 5.204,6.824 5.118,6.017 5.143 C 5.549 5.157,5.398 5.175,5.149 5.244 C 4.115 5.533,3.048 6.169,2.057 7.088 C 1.566 7.543,1.193 7.959,1.096 8.159 C 0.995 8.366,0.987 8.790,1.080 8.977 C 1.188 9.194,1.633 9.661,3.265 11.266 L 4.841 12.815 3.129 14.516 C 2.187 15.451,1.354 16.299,1.278 16.400 C 1.107 16.626,1.052 16.816,1.082 17.083 C 1.112 17.349,1.197 17.532,1.373 17.708 C 1.598 17.933,1.797 18.015,2.117 18.016 C 2.562 18.017,2.505 18.064,4.706 15.897 L 6.329 14.299 7.639 15.592 C 9.452 17.380,9.991 17.892,10.164 17.993 C 10.294 18.070,10.351 18.081,10.598 18.081 C 10.848 18.081,10.905 18.069,11.056 17.986 C 11.548 17.718,12.551 16.646,13.149 15.750 C 13.562 15.131,13.912 14.316,14.037 13.683 C 14.066 13.540,14.083 13.239,14.082 12.900 C 14.081 12.437,14.069 12.306,14.006 12.072 C 13.916 11.739,13.760 11.338,13.644 11.137 L 13.559 10.991 14.794 9.756 L 16.029 8.522 16.312 8.790 C 16.695 9.152,16.831 9.217,17.217 9.217 C 17.486 9.217,17.535 9.207,17.694 9.118 C 18.148 8.867,18.343 8.373,18.190 7.863 C 18.135 7.680,18.080 7.623,15.441 4.997 C 12.387 1.957,11.581 1.183,11.385 1.099 C 11.223 1.029,10.966 1.000,10.782 1.031 M13.424 5.948 L 14.532 7.048 12.905 8.683 C 11.221 10.373,11.164 10.439,11.115 10.753 C 11.089 10.919,11.145 11.211,11.236 11.381 C 11.273 11.450,11.406 11.633,11.531 11.787 C 11.656 11.942,11.805 12.164,11.863 12.280 C 11.960 12.478,11.967 12.515,11.966 12.854 C 11.965 13.267,11.913 13.559,11.783 13.869 C 11.596 14.316,11.173 14.957,10.774 15.400 L 10.609 15.583 7.680 12.686 C 6.068 11.093,4.474 9.516,4.137 9.182 L 3.524 8.574 3.804 8.351 C 4.394 7.881,5.014 7.518,5.513 7.350 C 5.732 7.277,5.819 7.267,6.235 7.267 C 6.695 7.267,6.714 7.269,6.915 7.368 C 7.028 7.424,7.255 7.576,7.419 7.706 C 7.743 7.964,7.847 8.018,8.110 8.069 C 8.378 8.121,8.572 8.080,8.809 7.922 C 8.933 7.839,9.647 7.159,10.578 6.239 L 12.139 4.694 12.228 4.771 C 12.277 4.813,12.815 5.343,13.424 5.948 " fill="var(--db-icon-color, currentColor)" stroke="none" fill-rule="evenodd"></path></svg>