<svg id="icon" height="24" viewBox="0 0 24 24" width="24" xmlns="http://www.w3.org/2000/svg"><path d="M9.260 2.045 C 7.227 2.237,5.284 3.240,3.957 4.783 C 2.528 6.444,1.826 8.638,2.042 10.766 C 2.266 12.972,3.411 15.029,5.155 16.356 C 6.494 17.376,8.047 17.928,9.740 17.988 C 11.425 18.047,13.043 17.589,14.464 16.649 L 14.949 16.329 17.664 19.047 C 19.158 20.542,20.452 21.808,20.540 21.860 C 20.769 21.997,20.985 22.022,21.257 21.943 C 21.813 21.781,22.106 21.231,21.942 20.657 L 21.874 20.420 19.114 17.675 L 16.353 14.930 16.591 14.575 C 17.638 13.013,18.150 11.169,18.008 9.470 C 17.839 7.439,17.060 5.734,15.672 4.354 C 13.993 2.685,11.600 1.824,9.260 2.045 M10.358 4.041 C 11.074 4.084,11.432 4.155,12.077 4.380 C 12.593 4.561,12.845 4.687,13.303 4.993 C 14.030 5.480,14.624 6.082,15.098 6.810 C 15.520 7.461,15.786 8.152,15.925 8.967 C 16.041 9.649,16.016 10.693,15.867 11.320 C 15.588 12.495,15.065 13.420,14.182 14.301 C 12.534 15.945,10.007 16.446,7.780 15.571 C 6.017 14.878,4.719 13.392,4.194 11.467 C 4.081 11.053,4.070 10.957,4.052 10.180 C 4.028 9.197,4.073 8.851,4.318 8.116 C 4.610 7.244,5.051 6.512,5.672 5.871 C 6.647 4.865,7.782 4.281,9.186 4.063 C 9.637 3.993,9.585 3.994,10.358 4.041 M9.652 6.066 C 9.451 6.137,9.194 6.376,9.082 6.597 C 9.005 6.747,9.000 6.828,9.000 7.874 L 9.000 8.991 7.870 9.009 C 7.159 9.020,6.699 9.044,6.630 9.072 C 6.483 9.133,6.169 9.426,6.089 9.578 C 6.002 9.742,6.006 10.207,6.096 10.420 C 6.182 10.621,6.334 10.783,6.540 10.892 C 6.690 10.971,6.774 10.977,7.847 10.993 L 8.994 11.009 9.007 12.154 C 9.021 13.428,9.018 13.412,9.307 13.686 C 9.543 13.910,9.703 13.977,10.000 13.977 C 10.301 13.978,10.482 13.904,10.702 13.690 C 10.969 13.431,10.977 13.388,10.992 12.133 L 11.006 11.006 12.153 10.993 C 13.248 10.980,13.308 10.976,13.466 10.891 C 14.066 10.570,14.169 9.732,13.662 9.287 C 13.370 9.031,13.366 9.030,12.133 9.009 L 11.005 8.989 10.993 7.844 C 10.980 6.743,10.977 6.694,10.889 6.529 C 10.778 6.323,10.536 6.140,10.266 6.060 C 10.021 5.987,9.871 5.988,9.652 6.066 " fill="var(--db-icon-color, currentColor)" stroke="none" fill-rule="evenodd"></path></svg>