<svg id="icon" height="24" viewBox="0 0 24 24" width="24" xmlns="http://www.w3.org/2000/svg"><path d="M19.550 3.123 C 19.468 3.166,18.710 3.885,17.866 4.720 L 16.332 6.238 15.871 6.004 C 13.966 5.038,11.965 4.782,10.068 5.261 C 7.564 5.894,5.189 7.698,2.544 10.974 C 2.111 11.511,2.055 11.603,2.021 11.825 C 1.975 12.137,2.060 12.407,2.316 12.751 C 3.079 13.779,4.356 15.136,5.661 16.306 L 5.980 16.592 4.593 17.991 C 3.738 18.854,3.171 19.457,3.114 19.565 C 2.975 19.830,2.982 20.236,3.131 20.489 C 3.394 20.936,3.969 21.123,4.398 20.901 C 4.603 20.795,7.520 17.912,14.322 11.093 C 18.535 6.870,20.851 4.520,20.902 4.418 C 21.011 4.198,21.006 3.796,20.892 3.580 C 20.783 3.375,20.580 3.181,20.391 3.102 C 20.176 3.012,19.739 3.023,19.550 3.123 M13.300 7.178 C 13.909 7.318,14.734 7.633,14.753 7.733 C 14.762 7.782,14.460 8.113,13.789 8.788 L 12.812 9.772 12.626 9.726 C 12.089 9.591,11.419 9.648,10.984 9.868 C 10.496 10.113,9.966 10.672,9.797 11.119 C 9.628 11.567,9.590 12.150,9.702 12.580 L 9.763 12.817 8.585 13.994 L 7.408 15.172 6.994 14.808 C 6.147 14.061,5.193 13.096,4.566 12.351 L 4.273 12.002 4.571 11.651 C 5.348 10.735,6.707 9.386,7.374 8.867 C 8.526 7.971,9.744 7.362,10.871 7.117 C 11.163 7.053,11.350 7.043,12.020 7.054 C 12.723 7.066,12.878 7.081,13.300 7.178 M18.781 9.449 L 18.062 10.146 18.541 10.665 C 18.804 10.951,19.179 11.368,19.374 11.592 L 19.728 12.000 19.254 12.550 C 17.054 15.103,15.257 16.384,13.200 16.865 C 12.865 16.943,12.624 16.968,12.014 16.988 L 11.247 17.012 10.438 17.822 C 9.785 18.476,9.644 18.636,9.705 18.654 C 11.236 19.120,12.809 19.108,14.353 18.619 C 16.605 17.905,18.546 16.445,20.908 13.686 C 21.656 12.812,21.909 12.461,21.959 12.227 C 22.015 11.965,21.972 11.669,21.850 11.487 C 21.620 11.146,20.421 9.731,19.814 9.086 L 19.500 8.753 18.781 9.449 " fill="var(--db-icon-color, currentColor)" stroke="none" fill-rule="evenodd"></path></svg>