<svg id="icon" height="32" viewBox="0 0 32 32" width="32" xmlns="http://www.w3.org/2000/svg"><path d="M9.773 3.177 C 9.375 3.416,9.247 3.789,9.365 4.368 C 9.608 5.553,10.195 6.732,10.997 7.640 L 11.315 8.000 10.998 8.360 C 10.411 9.027,9.960 9.791,9.636 10.667 C 9.373 11.380,9.273 11.919,9.263 12.693 C 9.252 13.440,9.279 13.518,9.644 13.796 C 9.840 13.946,9.842 13.946,10.987 13.989 C 11.617 14.013,14.341 14.025,17.040 14.015 L 21.947 13.997 22.201 13.873 C 22.721 13.620,22.830 13.277,22.724 12.228 C 22.581 10.801,21.913 9.345,20.889 8.228 L 20.683 8.003 21.002 7.642 C 21.636 6.923,22.138 6.031,22.456 5.059 C 22.732 4.214,22.745 3.748,22.502 3.407 C 22.160 2.927,21.252 2.922,20.919 3.399 C 20.862 3.480,20.726 3.834,20.616 4.186 C 20.317 5.141,20.014 5.698,19.414 6.395 C 19.231 6.607,19.055 6.769,19.021 6.754 C 17.612 6.146,17.315 6.080,16.000 6.080 C 14.685 6.080,14.388 6.146,12.979 6.754 C 12.915 6.782,12.399 6.212,12.122 5.808 C 11.843 5.402,11.592 4.848,11.387 4.186 C 11.097 3.251,10.892 3.039,10.282 3.041 C 10.075 3.041,9.939 3.077,9.773 3.177 M16.999 8.136 C 17.825 8.338,18.897 8.994,19.454 9.640 C 19.976 10.244,20.392 10.995,20.605 11.720 L 20.688 12.000 16.190 12.000 C 13.717 12.000,11.618 11.985,11.527 11.967 C 11.435 11.948,11.360 11.901,11.360 11.863 C 11.360 11.685,11.818 10.632,12.050 10.277 C 12.832 9.080,14.217 8.197,15.573 8.033 C 15.903 7.993,16.628 8.045,16.999 8.136 M5.520 13.753 C 5.177 13.891,4.435 14.233,2.987 14.922 C 2.232 15.281,2.027 15.513,2.027 16.005 C 2.027 16.438,2.337 16.836,2.779 16.968 C 3.058 17.051,3.139 17.023,4.765 16.287 C 5.438 15.983,6.021 15.733,6.060 15.733 C 6.100 15.733,6.553 15.936,7.066 16.183 L 8.000 16.632 8.000 17.515 L 8.000 18.397 7.613 18.218 C 7.401 18.120,7.042 17.950,6.816 17.842 C 6.068 17.482,6.029 17.490,4.019 18.430 C 2.198 19.281,2.077 19.373,2.040 19.933 C 2.003 20.495,2.338 20.903,2.908 20.989 C 3.144 21.025,3.485 20.891,5.194 20.090 L 6.041 19.693 6.527 19.919 C 6.794 20.043,7.235 20.256,7.507 20.393 L 8.000 20.641 8.000 21.494 C 8.000 22.030,7.980 22.347,7.946 22.347 C 7.917 22.347,7.561 22.192,7.155 22.002 C 6.259 21.583,6.109 21.553,5.666 21.702 C 5.120 21.886,2.590 23.089,2.374 23.267 C 1.907 23.651,1.903 24.327,2.365 24.732 C 2.471 24.825,2.657 24.932,2.779 24.968 C 3.054 25.050,3.173 25.011,4.533 24.388 C 5.076 24.139,5.640 23.881,5.787 23.814 L 6.055 23.693 7.512 24.393 L 8.970 25.093 9.320 25.600 C 9.745 26.216,10.807 27.287,11.345 27.643 C 12.229 28.228,13.139 28.613,14.218 28.857 C 14.684 28.962,14.894 28.976,16.000 28.976 C 17.106 28.976,17.316 28.962,17.782 28.857 C 18.861 28.613,19.771 28.228,20.655 27.643 C 21.201 27.282,22.258 26.214,22.672 25.605 L 23.013 25.104 23.947 24.652 C 24.460 24.404,25.123 24.086,25.420 23.946 L 25.959 23.692 26.806 24.087 C 28.073 24.679,28.873 25.013,29.017 25.012 C 29.336 25.009,29.797 24.673,29.917 24.357 C 30.052 23.997,29.909 23.406,29.644 23.234 C 29.417 23.086,26.679 21.818,26.339 21.704 C 25.922 21.563,25.700 21.591,25.167 21.848 C 24.951 21.953,24.599 22.118,24.387 22.216 L 24.000 22.394 24.000 21.513 L 24.000 20.632 24.973 20.162 L 25.946 19.693 26.213 19.814 C 26.360 19.881,26.924 20.139,27.467 20.388 C 28.795 20.996,28.931 21.042,29.200 20.967 C 29.542 20.872,29.758 20.710,29.869 20.466 C 30.071 20.020,29.977 19.556,29.627 19.268 C 29.411 19.090,26.981 17.932,26.376 17.719 C 25.901 17.552,25.730 17.576,25.074 17.896 C 24.791 18.034,24.434 18.203,24.280 18.273 L 24.000 18.399 24.000 17.515 L 24.000 16.632 24.934 16.183 C 25.447 15.936,25.902 15.733,25.943 15.733 C 25.985 15.733,26.567 15.982,27.236 16.287 C 28.818 17.005,28.927 17.043,29.200 16.967 C 29.744 16.816,30.006 16.451,29.961 15.910 C 29.934 15.580,29.822 15.400,29.512 15.190 C 29.246 15.010,26.789 13.858,26.325 13.697 C 26.012 13.587,25.956 13.582,25.723 13.645 C 25.582 13.682,24.867 14.000,24.133 14.350 L 22.800 14.988 15.993 14.987 L 9.187 14.987 8.046 14.435 C 6.714 13.791,6.252 13.599,6.044 13.602 C 5.961 13.603,5.725 13.671,5.520 13.753 M21.960 19.640 C 21.934 22.646,21.930 22.680,21.440 23.717 C 21.113 24.409,20.935 24.665,20.385 25.236 C 19.673 25.975,18.993 26.397,17.929 26.760 L 17.360 26.954 16.000 26.953 L 14.640 26.952 14.107 26.776 C 13.084 26.439,12.341 25.983,11.645 25.266 C 11.135 24.740,10.841 24.316,10.526 23.652 C 10.088 22.728,10.082 22.675,10.043 19.667 L 10.009 17.013 15.996 17.013 L 21.983 17.013 21.960 19.640 M12.773 19.075 C 12.370 19.124,12.000 19.554,12.000 19.973 C 12.000 20.340,12.262 20.763,12.597 20.938 C 12.717 21.000,13.296 21.013,15.979 21.013 L 19.217 21.013 19.474 20.849 C 19.780 20.652,19.935 20.420,19.980 20.091 C 20.022 19.787,19.861 19.422,19.597 19.221 L 19.418 19.084 16.202 19.067 C 14.434 19.057,12.891 19.061,12.773 19.075 M14.987 23.032 C 14.602 23.073,14.493 23.120,14.283 23.342 C 14.003 23.638,13.947 24.069,14.138 24.463 C 14.358 24.917,14.691 25.012,16.059 25.013 C 17.348 25.014,17.622 24.932,17.853 24.479 C 18.113 23.970,17.931 23.377,17.433 23.117 C 17.271 23.032,15.553 22.973,14.987 23.032 " fill="var(--db-icon-color, currentColor)" stroke="none" fill-rule="evenodd"></path></svg>