<svg id="icon" height="24" viewBox="0 0 24 24" width="24" xmlns="http://www.w3.org/2000/svg"><path d="M11.320 2.027 C 10.705 2.071,9.659 2.265,9.085 2.441 C 6.453 3.251,4.230 5.141,3.041 7.580 C 2.232 9.240,1.927 10.793,2.038 12.694 C 2.130 14.281,2.647 15.877,3.530 17.300 C 4.979 19.637,7.361 21.267,10.140 21.824 C 10.824 21.961,11.834 22.018,12.669 21.967 C 15.444 21.795,18.022 20.443,19.812 18.220 C 21.083 16.642,21.844 14.687,21.963 12.692 C 22.056 11.118,21.844 9.727,21.299 8.335 C 20.321 5.840,18.239 3.738,15.760 2.739 C 14.679 2.304,13.687 2.097,12.402 2.040 C 11.928 2.018,11.531 2.004,11.520 2.008 C 11.509 2.011,11.419 2.020,11.320 2.027 M13.220 6.357 C 14.219 6.612,15.014 7.367,15.244 8.280 C 15.312 8.546,15.313 9.508,15.246 9.860 C 15.177 10.227,14.887 10.777,14.592 11.099 C 14.454 11.251,14.097 11.554,13.800 11.773 C 13.503 11.992,13.165 12.263,13.048 12.375 C 12.830 12.586,12.763 12.738,12.698 13.160 C 12.633 13.586,12.391 13.873,12.003 13.986 C 11.609 14.101,11.178 13.927,10.931 13.553 C 10.827 13.397,10.820 13.359,10.821 12.963 C 10.823 11.920,11.150 11.393,12.340 10.520 C 13.110 9.955,13.359 9.618,13.389 9.104 C 13.411 8.730,13.308 8.515,13.023 8.340 C 12.836 8.226,12.803 8.219,12.314 8.207 C 11.832 8.194,11.767 8.202,11.211 8.343 C 10.493 8.524,10.311 8.529,10.008 8.374 C 9.838 8.287,9.753 8.210,9.661 8.062 C 9.552 7.884,9.540 7.834,9.541 7.537 C 9.543 7.244,9.554 7.192,9.656 7.046 C 9.940 6.636,10.526 6.382,11.420 6.281 C 11.931 6.223,12.847 6.262,13.220 6.357 M12.297 15.642 C 12.782 15.824,13.080 16.261,13.080 16.791 C 13.080 17.033,13.060 17.121,12.964 17.312 C 12.562 18.108,11.620 18.291,10.966 17.701 C 10.461 17.245,10.448 16.385,10.939 15.909 C 11.317 15.542,11.783 15.450,12.297 15.642 " fill="var(--db-icon-color, currentColor)" stroke="none" fill-rule="evenodd"></path></svg>