<svg id="icon" height="32" viewBox="0 0 32 32" width="32" xmlns="http://www.w3.org/2000/svg"><path d="M9.159 2.216 C 8.693 2.457,8.405 2.749,8.195 3.192 L 8.027 3.547 8.009 4.787 L 7.991 6.027 6.489 6.027 C 4.571 6.028,4.205 6.067,3.681 6.332 C 2.938 6.707,2.429 7.308,2.124 8.168 L 1.973 8.594 1.973 14.001 L 1.973 19.408 2.138 19.863 C 2.508 20.884,3.120 21.499,4.121 21.855 C 4.499 21.989,4.543 21.993,6.251 22.016 L 7.995 22.039 8.011 25.246 L 8.027 28.453 8.191 28.800 C 8.398 29.235,8.769 29.605,9.223 29.829 L 9.571 30.000 16.000 30.000 L 22.429 30.000 22.774 29.829 C 23.227 29.606,23.600 29.234,23.808 28.800 L 23.973 28.453 23.989 25.246 L 24.005 22.039 25.749 22.016 C 27.457 21.993,27.501 21.989,27.879 21.855 C 28.880 21.499,29.492 20.884,29.862 19.863 L 30.027 19.408 30.027 14.000 L 30.027 8.592 29.860 8.133 C 29.556 7.291,29.051 6.702,28.315 6.330 C 27.796 6.068,27.426 6.028,25.512 6.027 L 24.010 6.027 23.992 4.787 L 23.973 3.547 23.809 3.200 C 23.610 2.782,23.256 2.419,22.840 2.209 L 22.533 2.053 16.027 2.041 L 9.520 2.029 9.159 2.216 M21.973 5.013 L 21.973 6.027 16.000 6.027 L 10.027 6.027 10.027 5.013 L 10.027 4.000 16.000 4.000 L 21.973 4.000 21.973 5.013 M20.905 8.036 L 27.436 8.071 27.691 8.326 L 27.947 8.582 27.947 13.992 L 27.947 19.403 27.717 19.656 C 27.424 19.981,27.354 19.991,25.453 19.996 L 24.000 20.000 24.000 18.782 L 24.000 17.564 23.835 17.234 C 23.635 16.833,23.267 16.445,22.877 16.221 L 22.587 16.054 16.000 16.054 L 9.413 16.054 9.123 16.221 C 8.733 16.445,8.365 16.833,8.165 17.234 L 8.000 17.564 8.000 18.787 L 8.000 20.010 6.324 19.992 C 4.447 19.971,4.546 19.991,4.192 19.555 L 4.031 19.356 4.029 14.038 C 4.026 8.099,3.998 8.550,4.400 8.229 L 4.587 8.080 7.293 8.053 C 12.254 8.002,14.326 8.000,20.905 8.036 M8.767 10.076 C 8.489 10.121,8.309 10.239,8.168 10.466 C 8.003 10.734,7.969 11.050,8.076 11.331 C 8.173 11.584,8.506 11.924,8.707 11.975 C 8.774 11.992,9.838 11.998,11.072 11.989 L 13.315 11.973 13.542 11.823 C 14.229 11.368,14.052 10.227,13.270 10.076 C 12.999 10.023,9.087 10.024,8.767 10.076 M21.973 23.013 L 21.973 28.000 16.000 28.000 L 10.027 28.000 10.027 23.013 L 10.027 18.027 16.000 18.027 L 21.973 18.027 21.973 23.013 M13.333 20.047 C 12.568 20.082,12.468 20.112,12.247 20.375 C 11.822 20.880,12.015 21.666,12.623 21.901 C 12.863 21.993,13.085 22.000,16.000 22.000 C 19.304 22.000,19.339 21.998,19.657 21.748 C 19.836 21.607,19.997 21.259,19.999 21.011 C 20.000 20.759,19.803 20.386,19.573 20.207 L 19.387 20.062 16.720 20.038 C 15.253 20.025,13.729 20.029,13.333 20.047 M13.333 24.047 C 12.568 24.082,12.468 24.112,12.247 24.375 C 11.822 24.880,12.015 25.666,12.623 25.901 C 12.863 25.993,13.085 26.000,16.000 26.000 C 19.304 26.000,19.339 25.998,19.657 25.748 C 19.836 25.607,19.997 25.259,19.999 25.011 C 20.000 24.759,19.803 24.386,19.573 24.207 L 19.387 24.062 16.720 24.038 C 15.253 24.025,13.729 24.029,13.333 24.047 " fill="var(--db-icon-color, currentColor)" stroke="none" fill-rule="evenodd"></path></svg>