<svg id="icon" height="32" viewBox="0 0 32 32" width="32" xmlns="http://www.w3.org/2000/svg"><path d="M9.757 2.076 L 7.648 2.107 7.287 2.290 C 6.690 2.593,6.363 2.985,6.098 3.716 L 5.973 4.058 5.979 14.682 C 5.983 20.526,6.001 26.123,6.020 27.120 C 6.058 29.148,6.056 29.137,6.460 29.540 C 6.775 29.856,6.991 29.938,7.573 29.962 C 8.000 29.980,8.126 29.965,8.373 29.868 C 8.535 29.805,9.687 29.229,10.933 28.588 C 12.180 27.948,13.825 27.105,14.589 26.716 L 15.979 26.007 18.723 27.437 C 20.232 28.223,21.851 29.066,22.320 29.309 C 23.471 29.906,23.727 29.988,24.372 29.964 C 24.960 29.942,25.188 29.854,25.524 29.518 C 25.644 29.399,25.809 29.163,25.891 28.995 L 26.041 28.690 26.012 16.358 C 25.979 2.894,26.003 3.802,25.675 3.201 C 25.481 2.843,25.045 2.447,24.625 2.246 L 24.293 2.087 18.080 2.066 C 14.663 2.054,10.917 2.059,9.757 2.076 " fill="var(--db-icon-color, currentColor)" stroke="none" fill-rule="evenodd"></path></svg>