<svg id="icon" height="16" viewBox="0 0 16 16" width="16" xmlns="http://www.w3.org/2000/svg"><path d="M7.453 2.030 C 7.321 2.042,7.051 2.084,6.853 2.122 C 4.959 2.493,3.306 3.803,2.532 5.547 C 2.308 6.052,2.131 6.664,2.049 7.213 C 2.004 7.520,2.003 8.444,2.048 8.760 C 2.300 10.522,3.241 12.023,4.707 13.001 C 5.810 13.736,7.052 14.062,8.425 13.975 C 11.082 13.807,13.347 11.810,13.878 9.169 C 14.339 6.876,13.427 4.541,11.533 3.161 C 10.690 2.546,9.647 2.141,8.687 2.054 C 8.271 2.017,7.721 2.006,7.453 2.030 M11.582 6.160 L 11.950 6.520 9.422 9.030 L 6.894 11.540 5.963 10.630 C 5.452 10.130,4.811 9.504,4.540 9.240 L 4.046 8.760 4.625 8.202 L 5.204 7.644 6.035 8.475 L 6.867 9.307 8.826 7.347 L 10.786 5.387 11.000 5.593 C 11.117 5.707,11.379 5.962,11.582 6.160 " fill="var(--db-icon-color, currentColor)" stroke="none" fill-rule="evenodd"></path></svg>