<svg id="icon" height="24" viewBox="0 0 24 24" width="24" xmlns="http://www.w3.org/2000/svg"><path d="M11.731 2.039 C 11.484 2.097,11.237 2.296,11.107 2.540 C 11.032 2.681,11.021 2.781,11.007 3.386 L 10.992 4.072 10.726 4.122 C 10.382 4.185,9.761 4.396,9.391 4.573 C 7.863 5.309,6.776 6.757,6.278 8.723 C 6.051 9.616,6.039 9.768,6.001 12.200 C 5.967 14.398,5.938 14.912,5.819 15.429 C 5.687 16.004,5.331 16.494,4.668 17.014 C 4.487 17.156,4.292 17.323,4.234 17.386 C 4.113 17.516,4.000 17.820,4.000 18.015 C 4.000 18.339,4.254 18.740,4.551 18.887 L 4.740 18.980 6.770 18.993 L 8.800 19.005 8.800 19.153 C 8.801 19.335,9.066 20.122,9.209 20.362 C 9.371 20.637,9.733 21.054,10.003 21.279 C 10.650 21.818,11.664 22.097,12.480 21.961 C 13.524 21.786,14.436 21.123,14.900 20.200 C 15.055 19.892,15.240 19.324,15.240 19.158 C 15.240 19.093,15.245 19.038,15.250 19.036 C 15.255 19.034,16.151 19.018,17.240 19.001 C 18.474 18.981,19.272 18.952,19.358 18.925 C 19.655 18.830,19.999 18.354,20.000 18.035 C 20.000 17.849,19.905 17.580,19.781 17.417 C 19.727 17.347,19.543 17.184,19.372 17.055 C 18.863 16.672,18.578 16.353,18.376 15.938 C 18.278 15.737,18.172 15.449,18.139 15.297 C 18.069 14.973,18.003 13.546,18.000 12.320 C 17.998 11.167,17.935 9.900,17.860 9.460 C 17.719 8.641,17.348 7.524,17.030 6.960 C 16.197 5.483,14.836 4.458,13.311 4.159 L 13.043 4.106 13.023 3.943 C 13.012 3.853,12.996 3.553,12.986 3.276 C 12.973 2.892,12.950 2.730,12.891 2.596 C 12.806 2.403,12.575 2.178,12.383 2.100 C 12.216 2.032,11.888 2.002,11.731 2.039 M13.212 19.025 C 13.246 19.060,13.140 19.261,12.956 19.507 C 12.841 19.662,12.736 19.746,12.542 19.842 C 12.300 19.961,12.259 19.969,11.971 19.952 C 11.418 19.919,10.975 19.586,10.822 19.090 L 10.795 19.000 11.991 19.000 C 12.648 19.000,13.198 19.011,13.212 19.025 " fill="var(--db-icon-color, currentColor)" stroke="none" fill-rule="evenodd"></path></svg>