<svg id="icon" height="32" viewBox="0 0 32 32" width="32" xmlns="http://www.w3.org/2000/svg"><path d="M15.093 3.041 C 13.816 3.171,12.523 3.635,11.440 4.349 C 9.398 5.697,8.042 8.035,7.863 10.513 L 7.826 11.025 5.650 11.051 L 3.473 11.077 3.171 11.230 C 2.488 11.576,2.074 12.166,2.036 12.850 C 2.012 13.279,2.114 13.867,3.284 20.027 C 3.768 22.579,4.225 24.988,4.300 25.380 L 4.434 26.094 4.231 26.314 C 4.118 26.434,3.641 26.929,3.170 27.413 C 2.209 28.401,2.055 28.589,2.000 28.845 C 1.943 29.117,2.068 29.482,2.298 29.711 C 2.560 29.973,2.972 30.079,3.260 29.959 C 3.550 29.837,7.199 26.234,18.325 15.080 C 24.249 9.141,28.339 5.001,28.392 4.890 C 28.582 4.489,28.434 3.952,28.066 3.709 C 27.785 3.523,27.388 3.477,27.128 3.600 C 27.016 3.653,26.112 4.500,25.016 5.580 C 23.962 6.618,23.075 7.467,23.045 7.467 C 23.016 7.467,22.896 7.305,22.780 7.107 C 22.020 5.811,20.979 4.763,19.747 4.054 C 18.443 3.303,16.555 2.892,15.093 3.041 M17.040 5.154 C 18.861 5.499,20.523 6.871,21.311 8.680 L 21.491 9.093 20.519 10.067 L 19.548 11.040 14.707 11.040 L 9.867 11.040 9.867 10.831 C 9.867 10.195,10.110 9.180,10.429 8.492 C 10.858 7.561,11.671 6.594,12.468 6.063 C 13.298 5.511,14.287 5.140,15.120 5.068 C 15.695 5.019,16.520 5.056,17.040 5.154 M24.222 12.015 L 23.243 12.998 25.383 13.025 C 26.560 13.040,27.538 13.067,27.556 13.085 C 27.588 13.116,27.213 15.181,26.100 21.120 C 25.047 26.739,25.075 26.627,24.652 26.890 L 24.453 27.013 16.825 27.028 L 9.196 27.043 8.212 28.028 L 7.228 29.013 15.707 29.010 C 20.371 29.007,24.395 28.987,24.650 28.965 C 25.299 28.908,25.711 28.701,26.240 28.165 C 26.768 27.631,26.949 27.260,27.148 26.304 C 27.544 24.403,29.410 14.330,29.551 13.333 C 29.635 12.739,29.564 12.385,29.274 11.950 C 29.047 11.611,28.582 11.254,28.223 11.142 C 28.107 11.106,27.448 11.071,26.613 11.056 L 25.200 11.032 24.222 12.015 M11.898 18.680 C 7.052 23.514,6.216 24.327,6.179 24.238 C 6.109 24.066,4.053 13.354,4.053 13.159 C 4.053 13.092,4.119 13.068,4.333 13.053 C 4.487 13.042,7.529 13.029,11.093 13.025 L 17.573 13.017 11.898 18.680 " fill="var(--db-icon-color, currentColor)" stroke="none" fill-rule="evenodd"></path></svg>