<svg id="icon" height="20" viewBox="0 0 20 20" width="20" xmlns="http://www.w3.org/2000/svg"><path d="M11.750 2.023 C 11.201 2.085,10.501 2.269,10.000 2.483 C 9.358 2.758,8.908 3.069,8.299 3.660 L 7.956 3.992 7.610 4.031 C 6.965 4.104,6.428 4.284,5.935 4.593 C 5.307 4.988,4.887 5.419,4.516 6.050 C 4.344 6.341,4.319 6.369,4.108 6.484 C 2.758 7.226,1.934 8.675,2.014 10.167 C 2.082 11.456,2.732 12.620,3.772 13.318 C 4.589 13.866,5.859 14.150,6.406 13.908 C 6.861 13.707,7.102 13.153,6.938 12.688 C 6.851 12.440,6.736 12.291,6.552 12.183 C 6.370 12.076,6.261 12.044,5.920 12.000 C 5.320 11.921,4.952 11.755,4.600 11.401 C 4.365 11.165,4.179 10.849,4.080 10.517 C 4.000 10.248,4.000 9.752,4.080 9.483 C 4.298 8.748,4.804 8.276,5.649 8.018 L 5.932 7.932 6.018 7.649 C 6.233 6.944,6.568 6.509,7.103 6.239 C 7.597 5.991,7.909 5.960,8.659 6.088 C 8.829 6.116,8.989 6.132,9.015 6.122 C 9.040 6.112,9.124 5.994,9.201 5.860 C 9.467 5.397,9.665 5.115,9.874 4.904 C 10.283 4.489,10.924 4.144,11.433 4.064 C 11.810 4.006,12.596 4.042,12.854 4.130 C 13.365 4.303,13.722 4.519,14.090 4.875 C 14.840 5.603,15.107 6.517,14.917 7.710 L 14.854 8.103 15.035 8.257 C 15.657 8.786,15.932 9.255,15.984 9.874 C 16.046 10.599,15.629 11.364,14.967 11.742 C 14.752 11.864,14.429 11.955,14.048 11.999 C 13.852 12.022,13.656 12.067,13.569 12.108 C 13.274 12.248,13.060 12.552,13.015 12.892 C 12.972 13.214,13.159 13.633,13.422 13.804 C 13.657 13.957,13.763 13.983,14.133 13.981 C 15.717 13.970,17.224 12.868,17.762 11.328 C 17.929 10.850,17.976 10.567,17.978 10.033 C 17.980 9.106,17.740 8.356,17.200 7.606 L 17.000 7.329 17.000 7.073 C 16.998 5.681,16.491 4.450,15.520 3.481 C 14.806 2.769,13.978 2.316,13.023 2.115 C 12.754 2.058,11.952 2.000,11.750 2.023 M9.783 9.029 C 9.483 9.108,9.236 9.302,9.110 9.560 L 9.017 9.750 9.007 12.187 L 8.998 14.625 8.775 14.557 C 8.581 14.498,8.525 14.494,8.342 14.525 C 7.974 14.588,7.680 14.837,7.565 15.183 C 7.506 15.361,7.510 15.722,7.573 15.867 C 7.601 15.931,7.751 16.126,7.907 16.300 C 8.299 16.737,9.283 17.697,9.472 17.827 C 9.755 18.020,10.116 18.045,10.432 17.893 C 10.606 17.810,12.156 16.286,12.327 16.030 C 12.666 15.523,12.472 14.870,11.902 14.604 C 11.685 14.503,11.373 14.492,11.143 14.577 L 11.002 14.630 10.993 12.190 L 10.983 9.750 10.908 9.599 C 10.805 9.391,10.616 9.204,10.416 9.113 C 10.232 9.028,9.937 8.989,9.783 9.029 " fill="var(--db-icon-color, currentColor)" stroke="none" fill-rule="evenodd"></path></svg>