<svg id="icon" height="32" viewBox="0 0 32 32" width="32" xmlns="http://www.w3.org/2000/svg"><path d="M15.200 3.959 C 14.255 4.399,12.788 5.167,12.646 5.297 C 12.445 5.481,12.304 5.844,12.346 6.072 C 12.397 6.352,12.611 6.694,12.815 6.820 C 13.214 7.066,13.565 7.008,14.492 6.541 C 14.704 6.434,14.899 6.347,14.925 6.347 C 14.951 6.347,14.985 6.665,14.999 7.053 C 15.029 7.838,15.063 7.965,15.302 8.191 C 15.762 8.625,16.455 8.542,16.826 8.009 C 16.983 7.783,16.987 7.760,17.005 7.037 L 17.023 6.297 17.432 6.501 C 18.180 6.874,18.555 7.001,18.835 6.974 C 19.313 6.928,19.703 6.490,19.703 6.000 C 19.703 5.444,19.472 5.267,17.474 4.289 C 16.013 3.574,16.024 3.576,15.200 3.959 M22.996 7.311 C 22.483 7.419,22.144 8.175,22.382 8.678 C 22.498 8.921,22.747 9.098,23.569 9.517 C 24.548 10.017,24.519 9.936,23.884 10.372 C 23.110 10.905,22.891 11.258,23.036 11.742 C 23.118 12.016,23.423 12.351,23.663 12.430 C 24.044 12.556,24.320 12.476,24.948 12.061 C 25.265 11.852,25.554 11.680,25.589 11.680 C 25.637 11.680,25.653 11.900,25.653 12.524 C 25.653 13.543,25.720 13.835,26.007 14.072 C 26.279 14.296,26.611 14.380,26.891 14.296 C 27.173 14.212,27.390 14.050,27.537 13.814 C 27.650 13.633,27.654 13.569,27.670 11.859 C 27.691 9.752,27.667 9.549,27.366 9.277 C 27.018 8.963,23.855 7.398,23.397 7.315 C 23.274 7.292,23.093 7.291,22.996 7.311 M6.800 8.102 C 5.920 8.540,5.051 8.988,4.869 9.097 C 4.331 9.422,4.347 9.346,4.347 11.627 C 4.347 13.840,4.349 13.851,4.785 14.155 C 4.974 14.286,5.062 14.311,5.333 14.311 C 5.605 14.311,5.693 14.286,5.882 14.155 C 6.256 13.894,6.310 13.717,6.336 12.668 C 6.348 12.169,6.379 11.738,6.404 11.711 C 6.431 11.682,6.630 11.782,6.892 11.957 C 7.531 12.385,7.775 12.498,8.062 12.499 C 8.594 12.502,9.074 11.902,8.984 11.349 C 8.933 11.036,8.699 10.774,8.116 10.372 C 7.481 9.936,7.452 10.017,8.431 9.517 C 8.801 9.328,9.200 9.104,9.319 9.018 C 9.736 8.715,9.815 8.132,9.497 7.693 C 9.306 7.429,9.048 7.307,8.685 7.307 C 8.425 7.307,8.261 7.376,6.800 8.102 M12.280 11.846 C 12.185 11.874,12.068 11.957,12.019 12.030 C 11.918 12.186,11.012 14.493,10.046 17.060 C 9.305 19.026,9.306 19.021,9.678 19.176 C 10.022 19.320,10.488 19.235,10.720 18.987 C 10.796 18.905,10.964 18.571,11.091 18.246 L 11.323 17.653 12.208 17.654 C 12.695 17.654,13.325 17.669,13.607 17.688 L 14.121 17.722 14.314 18.208 C 14.666 19.096,14.790 19.217,15.361 19.223 C 15.755 19.227,16.011 19.106,16.042 18.901 C 16.058 18.792,15.548 17.370,14.483 14.560 C 13.489 11.939,13.520 12.007,13.259 11.889 C 13.022 11.781,12.573 11.762,12.280 11.846 M17.589 11.825 C 17.452 11.840,17.351 11.894,17.261 12.001 C 17.144 12.139,17.127 12.222,17.095 12.811 C 17.075 13.172,17.066 14.619,17.076 16.027 C 17.095 18.861,17.093 18.847,17.442 19.095 C 17.810 19.357,18.289 19.236,18.533 18.821 C 18.631 18.656,18.641 18.526,18.657 17.341 L 18.674 16.043 19.130 16.061 C 19.583 16.080,19.586 16.081,19.763 16.285 C 19.860 16.398,20.111 16.842,20.321 17.272 C 20.531 17.702,20.822 18.272,20.968 18.539 C 21.266 19.081,21.392 19.176,21.881 19.230 C 22.209 19.266,22.490 19.143,22.602 18.916 C 22.665 18.788,22.645 18.720,22.369 18.122 C 21.825 16.939,21.428 16.203,21.192 15.938 C 21.064 15.794,20.960 15.659,20.961 15.638 C 20.961 15.617,21.092 15.544,21.250 15.475 C 21.594 15.326,21.874 15.060,22.039 14.725 C 22.145 14.511,22.160 14.400,22.158 13.840 C 22.155 13.053,22.045 12.716,21.683 12.382 C 21.325 12.052,20.984 11.903,20.444 11.841 C 20.002 11.791,18.024 11.780,17.589 11.825 M20.299 13.079 C 20.527 13.202,20.613 13.440,20.613 13.947 C 20.613 14.461,20.531 14.680,20.279 14.836 C 20.116 14.936,19.991 14.956,19.378 14.976 L 18.667 15.001 18.667 13.975 L 18.667 12.950 19.400 12.969 C 19.957 12.984,20.173 13.011,20.299 13.079 M12.800 13.884 C 12.800 13.893,13.004 14.472,13.253 15.170 C 13.502 15.868,13.692 16.460,13.676 16.486 C 13.644 16.538,11.877 16.552,11.825 16.501 C 11.808 16.483,11.945 16.033,12.131 15.501 C 12.625 14.088,12.710 13.867,12.757 13.867 C 12.781 13.867,12.800 13.874,12.800 13.884 M4.787 17.864 C 4.339 18.148,4.347 18.104,4.347 20.320 C 4.347 22.576,4.327 22.482,4.870 22.834 C 5.239 23.073,7.193 24.067,8.050 24.452 C 8.530 24.668,8.639 24.698,8.833 24.669 C 9.134 24.623,9.454 24.382,9.593 24.095 C 9.722 23.827,9.732 23.698,9.645 23.408 C 9.539 23.054,9.352 22.903,8.437 22.435 L 7.568 21.990 8.004 21.704 C 8.603 21.311,8.871 21.040,8.954 20.741 C 9.175 19.951,8.299 19.257,7.558 19.634 C 7.434 19.697,7.123 19.890,6.866 20.063 C 6.554 20.272,6.391 20.354,6.376 20.309 C 6.363 20.271,6.345 19.818,6.336 19.302 C 6.319 18.388,6.315 18.358,6.176 18.148 C 5.881 17.701,5.247 17.572,4.787 17.864 M26.146 17.844 C 25.751 18.080,25.689 18.274,25.666 19.333 C 25.656 19.832,25.637 20.270,25.625 20.307 C 25.611 20.350,25.401 20.240,25.038 20.001 C 24.728 19.797,24.376 19.603,24.257 19.571 C 23.533 19.376,22.828 20.061,23.037 20.758 C 23.117 21.025,23.426 21.330,23.997 21.704 L 24.432 21.990 23.602 22.418 C 22.661 22.902,22.387 23.119,22.297 23.453 C 22.127 24.085,22.696 24.752,23.344 24.679 C 23.603 24.650,26.548 23.216,27.130 22.835 C 27.671 22.482,27.653 22.564,27.653 20.400 C 27.653 19.373,27.635 18.468,27.613 18.388 C 27.561 18.204,27.284 17.885,27.088 17.784 C 26.845 17.658,26.410 17.686,26.146 17.844 M15.453 23.197 C 15.057 23.448,15.024 23.556,14.997 24.680 C 14.984 25.215,14.956 25.653,14.933 25.653 C 14.911 25.653,14.612 25.518,14.268 25.353 C 13.371 24.921,13.024 24.914,12.620 25.318 C 12.390 25.547,12.297 25.844,12.347 26.183 C 12.409 26.600,12.654 26.778,14.274 27.585 C 16.121 28.505,15.881 28.496,17.505 27.697 C 19.431 26.749,19.646 26.576,19.650 25.973 C 19.653 25.411,19.275 25.042,18.693 25.041 C 18.412 25.040,18.297 25.077,17.740 25.347 C 17.392 25.515,17.088 25.653,17.066 25.653 C 17.043 25.653,17.016 25.213,17.006 24.676 C 16.987 23.720,16.983 23.694,16.843 23.482 C 16.547 23.035,15.914 22.905,15.453 23.197 " fill="var(--db-icon-color, currentColor)" stroke="none" fill-rule="evenodd"></path></svg>