<svg id="icon" height="20" viewBox="0 0 20 20" width="20" xmlns="http://www.w3.org/2000/svg"><path d="M9.300 2.039 C 8.598 2.096,7.676 2.325,6.950 2.622 C 5.518 3.206,4.211 4.281,3.329 5.600 C 2.863 6.298,2.437 7.274,2.231 8.115 C 2.059 8.817,2.018 9.178,2.018 9.983 C 2.018 10.746,2.060 11.150,2.204 11.767 C 2.994 15.163,5.845 17.648,9.317 17.966 C 10.908 18.112,12.655 17.712,14.039 16.884 C 17.443 14.847,18.870 10.745,17.443 7.100 C 16.452 4.570,14.236 2.711,11.562 2.166 C 10.976 2.046,9.924 1.987,9.300 2.039 M10.717 4.067 C 12.955 4.317,14.905 5.884,15.648 8.031 C 15.845 8.599,15.934 9.099,15.957 9.758 C 15.987 10.633,15.867 11.404,15.588 12.125 C 14.742 14.316,12.830 15.749,10.452 15.973 C 9.732 16.041,8.899 15.932,8.083 15.663 C 6.079 15.002,4.595 13.323,4.142 11.202 C 4.059 10.815,4.052 10.725,4.053 10.000 C 4.053 9.278,4.061 9.184,4.143 8.794 C 4.625 6.521,6.300 4.772,8.544 4.197 C 9.132 4.046,10.042 3.992,10.717 4.067 M9.000 7.500 L 9.000 9.000 7.500 9.000 L 6.000 9.000 6.000 10.000 L 6.000 11.000 7.500 11.000 L 9.000 11.000 9.000 12.500 L 9.000 14.000 10.000 14.000 L 11.000 14.000 11.000 12.500 L 11.000 11.000 12.500 11.000 L 14.000 11.000 14.000 10.000 L 14.000 9.000 12.500 9.000 L 11.000 9.000 11.000 7.500 L 11.000 6.000 10.000 6.000 L 9.000 6.000 9.000 7.500 " fill="var(--db-icon-color, currentColor)" stroke="none" fill-rule="evenodd"></path></svg>