<svg id="icon" height="24" viewBox="0 0 24 24" width="24" xmlns="http://www.w3.org/2000/svg"><path d="M13.840 2.038 C 12.901 2.125,11.953 2.401,11.080 2.840 C 9.540 3.614,8.197 5.073,7.564 6.660 C 7.172 7.642,7.029 8.390,7.025 9.480 C 7.021 10.296,7.053 10.583,7.224 11.317 L 7.322 11.734 4.628 14.437 C 3.147 15.924,1.815 17.282,1.668 17.455 C 1.382 17.794,1.337 17.910,1.369 18.241 C 1.384 18.392,1.427 18.490,1.560 18.668 C 1.746 18.918,4.112 21.284,4.900 22.008 C 5.475 22.536,5.587 22.600,5.934 22.600 C 6.179 22.600,6.205 22.590,6.446 22.411 C 6.586 22.307,7.953 20.975,9.484 19.450 L 12.267 16.678 12.604 16.758 C 13.866 17.056,14.955 17.073,16.120 16.814 C 19.628 16.034,22.145 12.785,21.986 9.240 C 21.929 7.954,21.551 6.597,21.162 6.275 C 20.915 6.071,20.489 5.987,20.196 6.086 C 19.975 6.160,19.778 6.341,18.108 7.997 L 16.517 9.577 15.472 8.531 L 14.426 7.486 15.759 6.133 C 17.472 4.393,17.901 3.925,17.934 3.759 C 18.045 3.207,17.855 2.826,17.347 2.583 C 16.509 2.180,14.935 1.936,13.840 2.038 M14.795 4.025 C 14.864 4.039,14.920 4.065,14.920 4.084 C 14.920 4.103,14.292 4.757,13.524 5.538 C 12.328 6.755,12.119 6.985,12.064 7.146 C 11.988 7.368,11.984 7.501,12.045 7.743 C 12.081 7.887,12.181 8.020,12.559 8.431 C 13.355 9.295,15.902 11.789,16.088 11.887 C 16.313 12.005,16.710 12.012,16.936 11.901 C 17.028 11.856,17.653 11.272,18.465 10.473 C 19.361 9.590,19.866 9.120,19.919 9.120 C 19.991 9.120,20.000 9.145,20.000 9.356 C 20.000 10.253,19.790 11.177,19.414 11.932 C 18.758 13.253,17.610 14.253,16.220 14.715 C 15.594 14.923,15.287 14.969,14.520 14.971 C 13.736 14.973,13.540 14.944,12.787 14.718 C 12.156 14.528,11.953 14.498,11.719 14.560 C 11.556 14.603,11.289 14.858,8.731 17.411 L 5.923 20.215 5.091 19.395 C 4.634 18.945,4.154 18.464,4.024 18.328 L 3.787 18.079 6.588 15.270 C 9.221 12.627,9.391 12.449,9.434 12.272 C 9.503 11.989,9.491 11.847,9.363 11.468 C 9.086 10.650,9.062 10.495,9.061 9.560 C 9.060 8.990,9.079 8.605,9.115 8.420 C 9.529 6.311,11.198 4.614,13.324 4.142 C 13.855 4.024,14.525 3.971,14.795 4.025 " fill="var(--db-icon-color, currentColor)" stroke="none" fill-rule="evenodd"></path></svg>