<svg width="28" height="28" viewBox="0 0 28 28" fill="none" xmlns="http://www.w3.org/2000/svg">
<g clip-path="url(#clip0_3479_5)">
<path fill-rule="evenodd" clip-rule="evenodd" d="M18.6701 1.50272C16.5816 1.50272 14.5785 2.33241 13.1017 3.80926C11.6248 5.28611 10.7951 7.28914 10.7951 9.37772C10.7951 10.3183 10.9719 11.1435 11.1705 11.784L1.71177 21.2331C1.62912 21.3156 1.56383 21.4138 1.51973 21.522C1.47563 21.6301 1.45363 21.746 1.45502 21.8627C1.4564 21.9795 1.48115 22.0948 1.5278 22.2019C1.57445 22.3089 1.64206 22.4056 1.72664 22.4861L5.67114 26.2398C5.75237 26.3214 5.8489 26.3862 5.95522 26.4304C6.06153 26.4745 6.17552 26.4973 6.29064 26.4973C6.40577 26.4973 6.51976 26.4745 6.62607 26.4304C6.73239 26.3862 6.82892 26.3214 6.91014 26.2398L16.2691 16.8782C17.0269 17.1276 17.8266 17.2527 18.6701 17.2527C19.7043 17.2527 20.7283 17.049 21.6838 16.6533C22.6392 16.2575 23.5073 15.6774 24.2386 14.9462C24.9699 14.2149 25.5499 13.3468 25.9457 12.3914C26.3415 11.4359 26.5451 10.4119 26.5451 9.37772C26.5451 8.3496 26.3316 7.17272 25.9213 6.31697C25.6824 5.81647 24.9561 5.70885 24.5388 6.12447L21.282 9.38035L18.6596 6.75885L21.9146 3.50647C22.017 3.40443 22.0926 3.2786 22.1345 3.14023C22.1764 3.00187 22.1833 2.85528 22.1547 2.71357C22.1261 2.57186 22.0628 2.43944 21.9706 2.32816C21.8783 2.21687 21.7599 2.13019 21.6259 2.07585C20.6868 1.696 19.6831 1.50139 18.6701 1.50272Z" fill="#1A1C1F"/>
</g>
<defs>
<clipPath id="clip0_3479_5">
<rect width="28" height="28" fill="white"/>
</clipPath>
</defs>
</svg>
