<svg width="32" height="32" viewBox="0 0 32 32" fill="none" xmlns="http://www.w3.org/2000/svg">
<g clip-path="url(#clip0_187_694)">
<path fill-rule="evenodd" clip-rule="evenodd" d="M21.3372 1.7174C18.9503 1.7174 16.6611 2.66561 14.9733 4.35344C13.2854 6.04127 12.3372 8.33045 12.3372 10.7174C12.3372 11.7924 12.5392 12.7354 12.7662 13.4674L1.95622 24.2664C1.86177 24.3607 1.78714 24.4729 1.73675 24.5965C1.68635 24.7201 1.66121 24.8525 1.66279 24.986C1.66437 25.1194 1.69266 25.2512 1.74597 25.3736C1.79929 25.4959 1.87655 25.6064 1.97322 25.6984L6.48122 29.9884C6.57404 30.0816 6.68437 30.1556 6.80587 30.2061C6.92737 30.2566 7.05765 30.2826 7.18922 30.2826C7.32079 30.2826 7.45107 30.2566 7.57257 30.2061C7.69407 30.1556 7.8044 30.0816 7.89722 29.9884L18.5932 19.2894C19.4592 19.5744 20.3732 19.7174 21.3372 19.7174C22.5191 19.7174 23.6894 19.4846 24.7814 19.0323C25.8733 18.58 26.8655 17.9171 27.7012 17.0814C28.5369 16.2456 29.1998 15.2535 29.6521 14.1616C30.1044 13.0696 30.3372 11.8993 30.3372 10.7174C30.3372 9.5424 30.0932 8.1974 29.6242 7.2194C29.3512 6.6474 28.5212 6.5244 28.0442 6.9994L24.3222 10.7204L21.3252 7.7244L25.0452 4.0074C25.1623 3.89077 25.2486 3.74697 25.2964 3.58884C25.3443 3.43071 25.3523 3.26318 25.3196 3.10122C25.2869 2.93927 25.2146 2.78794 25.1091 2.66076C25.0037 2.53357 24.8683 2.4345 24.7152 2.3724C23.642 1.93829 22.4949 1.71587 21.3372 1.7174ZM22.4212 3.8014L19.2042 7.0174C19.0168 7.20493 18.9114 7.45924 18.9114 7.7244C18.9114 7.98956 19.0168 8.24387 19.2042 8.4314L23.5822 12.8134C24.0142 13.2714 24.6692 13.2034 25.0292 12.8434L28.2502 9.6224C28.4085 10.6217 28.3482 11.6435 28.0736 12.6173C27.799 13.5911 27.3166 14.4938 26.6595 15.2632C26.0024 16.0326 25.1864 16.6505 24.2676 17.0741C23.3488 17.4978 22.349 17.7173 21.3372 17.7174C20.4192 17.7174 19.7592 17.5944 18.6242 17.1794C18.4513 17.1254 18.267 17.1201 18.0913 17.164C17.9156 17.208 17.7554 17.2994 17.6282 17.4284L7.17222 27.8844L4.09522 24.9554L14.6292 14.4334C14.7683 14.2945 14.8633 14.1177 14.9024 13.9251C14.9415 13.7324 14.923 13.5326 14.8492 13.3504C14.3829 12.202 14.2298 10.9505 14.4056 9.72357C14.5814 8.49667 15.0799 7.33845 15.85 6.36729C16.6201 5.39613 17.6342 4.64686 18.7887 4.19604C19.9433 3.74523 21.1968 3.60904 22.4212 3.8014Z" fill="#1A1C1F"/>
</g>
<defs>
<clipPath id="clip0_187_694">
<rect width="32" height="32" fill="white"/>
</clipPath>
</defs>
</svg>
