<svg width="20" height="20" viewBox="0 0 20 20" fill="none" xmlns="http://www.w3.org/2000/svg">
<g clip-path="url(#clip0_3479_11)">
<path fill-rule="evenodd" clip-rule="evenodd" d="M12.2106 1.7947C10.6193 1.7947 9.09317 2.42684 7.96795 3.55206C6.84273 4.67727 6.21059 6.2034 6.21059 7.7947C6.21059 8.6117 6.34559 9.0297 6.41259 9.34069L2.08259 13.6707C1.98962 13.7636 1.91586 13.8739 1.86553 13.9953C1.81521 14.1167 1.78931 14.2468 1.78931 14.3782C1.78931 14.5096 1.81521 14.6397 1.86553 14.7611C1.91586 14.8825 1.98962 14.9928 2.08259 15.0857L4.90359 17.9147C5.34359 18.3287 5.96559 18.2747 6.32659 17.9147L10.6506 13.5887C11.0646 13.7207 11.7756 13.7947 12.2106 13.7947C13.8019 13.7947 15.328 13.1626 16.4532 12.0373C17.5785 10.9121 18.2106 9.38599 18.2106 7.7947C18.2106 7.0347 18.0506 6.1697 17.7426 5.4837C17.4696 4.9057 16.6366 4.7767 16.1576 5.2557L13.6186 7.7927L12.2046 6.3787L14.7396 3.8437C14.857 3.72621 14.9432 3.58134 14.9906 3.42216C15.038 3.26298 15.045 3.09452 15.0109 2.93197C14.9769 2.76942 14.9029 2.6179 14.7956 2.49111C14.6884 2.36431 14.5512 2.26622 14.3966 2.2057C13.7 1.93335 12.9585 1.79395 12.2106 1.7947Z" fill="#1A1C1F"/>
</g>
<defs>
<clipPath id="clip0_3479_11">
<rect width="20" height="20" fill="white"/>
</clipPath>
</defs>
</svg>
