<svg width="12" height="12" viewBox="0 0 12 12" fill="none" xmlns="http://www.w3.org/2000/svg">
<g clip-path="url(#clip0_3479_20)">
<path fill-rule="evenodd" clip-rule="evenodd" d="M7.32638 1.07681C6.3716 1.07681 5.45593 1.4561 4.7808 2.13123C4.10567 2.80636 3.72638 3.72203 3.72638 4.67681C3.72638 5.16701 3.80738 5.41781 3.84758 5.60441L1.24958 8.20241C1.19379 8.25814 1.14954 8.32431 1.11934 8.39715C1.08915 8.46999 1.07361 8.54806 1.07361 8.62691C1.07361 8.70576 1.08915 8.78384 1.11934 8.85668C1.14954 8.92952 1.19379 8.99569 1.24958 9.05141L2.94218 10.7488C3.20618 10.9972 3.57938 10.9648 3.79598 10.7488L6.39038 8.15321C6.63878 8.23241 7.06538 8.27681 7.32638 8.27681C8.28116 8.27681 9.19683 7.89753 9.87197 7.2224C10.5471 6.54727 10.9264 5.63159 10.9264 4.67681C10.9264 4.22081 10.8304 3.70181 10.6456 3.29021C10.4818 2.94341 9.98198 2.86601 9.69458 3.15341L8.17118 4.67561L7.32278 3.82721L8.84378 2.30621C8.91421 2.23572 8.96597 2.1488 8.99439 2.05329C9.02281 1.95779 9.027 1.85671 9.00658 1.75918C8.98616 1.66165 8.94176 1.57074 8.87741 1.49466C8.81306 1.41858 8.73077 1.35973 8.63798 1.32341C8.22002 1.16001 7.77515 1.07637 7.32638 1.07681Z" fill="#1A1C1F"/>
</g>
<defs>
<clipPath id="clip0_3479_20">
<rect width="12" height="12" fill="white"/>
</clipPath>
</defs>
</svg>
