<svg width="12" height="12" viewBox="0 0 12 12" fill="none" xmlns="http://www.w3.org/2000/svg">
<g clip-path="url(#clip0_2214_8585)">
<path fill-rule="evenodd" clip-rule="evenodd" d="M7.32626 1.07681C6.37148 1.07681 5.4558 1.4561 4.78067 2.13123C4.10554 2.80636 3.72626 3.72203 3.72626 4.67681C3.72626 5.16701 3.80726 5.41781 3.84746 5.60441L1.24946 8.20241C1.19367 8.25814 1.14942 8.32431 1.11922 8.39715C1.08903 8.46999 1.07349 8.54806 1.07349 8.62691C1.07349 8.70576 1.08903 8.78384 1.11922 8.85668C1.14942 8.92952 1.19367 8.99569 1.24946 9.05141L2.94206 10.7488C3.20606 10.9972 3.57926 10.9648 3.79586 10.7488L6.39026 8.15321C6.63866 8.23241 7.06526 8.27681 7.32626 8.27681C8.28104 8.27681 9.19671 7.89753 9.87184 7.2224C10.547 6.54727 10.9263 5.63159 10.9263 4.67681C10.9263 4.22081 10.8303 3.70181 10.6455 3.29021C10.4817 2.94341 9.98186 2.86601 9.69446 3.15341L8.17106 4.67561L7.32266 3.82721L8.84366 2.30621C8.91408 2.23572 8.96585 2.1488 8.99427 2.05329C9.02269 1.95779 9.02688 1.85671 9.00646 1.75918C8.98603 1.66165 8.94164 1.57074 8.87729 1.49466C8.81294 1.41858 8.73065 1.35973 8.63786 1.32341C8.2199 1.16001 7.77502 1.07637 7.32626 1.07681ZM7.17086 2.28221L6.05006 3.40301C5.93758 3.51553 5.87439 3.66812 5.87439 3.82721C5.87439 3.98631 5.93758 4.1389 6.05006 4.25141L7.73366 5.94881C8.01686 6.19421 8.37926 6.16481 8.59526 5.94881L9.72086 4.82321C9.61106 6.13421 8.57126 7.07681 7.32626 7.07681C7.02026 7.07681 6.66626 7.00001 6.40406 6.89561C6.15866 6.82721 5.95286 6.89441 5.80226 7.04441L3.37106 9.47561L2.52266 8.62721L4.95566 6.19421C5.03819 6.11169 5.09486 6.00689 5.11873 5.89265C5.14261 5.77841 5.13264 5.65968 5.09006 5.55101C4.98129 5.27242 4.92573 4.97589 4.92626 4.67681C4.92626 3.43181 5.87546 2.37941 7.17086 2.28221Z" fill="#1A1C1F"/>
</g>
<defs>
<clipPath id="clip0_2214_8585">
<rect width="12" height="12" fill="white"/>
</clipPath>
</defs>
</svg>
