<svg width="16" height="16" viewBox="0 0 16 16" fill="none" xmlns="http://www.w3.org/2000/svg">
<g clip-path="url(#clip0_3479_14)">
<path fill-rule="evenodd" clip-rule="evenodd" d="M9.76855 1.43576C8.49551 1.43576 7.27461 1.94148 6.37443 2.84165C5.47426 3.74182 4.96855 4.96272 4.96855 6.23576C4.96855 6.88936 5.07655 7.22376 5.13015 7.47256L1.66615 10.9366C1.59177 11.0109 1.53276 11.0991 1.4925 11.1962C1.45224 11.2933 1.43152 11.3974 1.43152 11.5026C1.43152 11.6077 1.45224 11.7118 1.4925 11.8089C1.53276 11.906 1.59177 11.9943 1.66615 12.0686L3.92295 14.3318C4.27495 14.663 4.77255 14.6198 5.06135 14.3318L8.52055 10.871C8.85175 10.9766 9.42055 11.0358 9.76855 11.0358C11.0416 11.0358 12.2625 10.53 13.1627 9.62987C14.0628 8.7297 14.5685 7.5088 14.5685 6.23576C14.5685 5.62776 14.4405 4.93576 14.1941 4.38696C13.9757 3.92456 13.3093 3.82136 12.9261 4.20456L10.8949 6.23416L9.76375 5.10296L11.7917 3.07496C11.8856 2.98097 11.9547 2.86507 11.9926 2.73773C12.0305 2.61039 12.036 2.47562 12.0088 2.34558C11.9816 2.21554 11.9224 2.09433 11.8366 1.99289C11.7508 1.89145 11.6411 1.81298 11.5173 1.76456C10.9601 1.54669 10.3669 1.43516 9.76855 1.43576Z" fill="#1A1C1F"/>
</g>
<defs>
<clipPath id="clip0_3479_14">
<rect width="16" height="16" fill="white"/>
</clipPath>
</defs>
</svg>
