<svg width="24" height="24" viewBox="0 0 24 24" fill="none" xmlns="http://www.w3.org/2000/svg">
<g clip-path="url(#clip0_3479_8)">
<path fill-rule="evenodd" clip-rule="evenodd" d="M14.8249 1.69075C13.65 1.69052 12.4915 1.96631 11.4427 2.49589C10.394 3.02546 9.48433 3.79401 8.78706 4.7396C8.08979 5.68519 7.62442 6.78136 7.42846 7.93977C7.23249 9.09819 7.31141 10.2864 7.65886 11.4088L1.96886 17.0928C1.87531 17.1861 1.80117 17.297 1.75074 17.4191C1.70032 17.5413 1.67459 17.6722 1.67506 17.8043C1.67552 17.9364 1.70217 18.0672 1.75345 18.1889C1.80474 18.3107 1.87965 18.4211 1.97386 18.5138L5.51686 22.0178C5.70912 22.2047 5.96671 22.3093 6.23486 22.3093C6.50301 22.3093 6.7606 22.2047 6.95286 22.0178L12.6059 16.3558C13.7282 16.7034 14.9164 16.7825 16.0749 16.5866C17.2334 16.3908 18.3296 15.9256 19.2753 15.2284C20.221 14.5312 20.9897 13.6216 21.5194 12.5729C22.0491 11.5242 22.325 10.3657 22.3249 9.19075C22.3249 8.20575 22.1059 7.04675 21.7149 6.24076C21.642 6.10283 21.5376 5.98401 21.4103 5.89389C21.2829 5.80377 21.1362 5.74489 20.9819 5.72201C20.8275 5.69913 20.67 5.71289 20.522 5.76218C20.374 5.81148 20.2396 5.89492 20.1299 6.00575L16.8539 9.27376L14.7379 7.15975L18.0089 3.88576C18.1251 3.76936 18.2108 3.62609 18.2585 3.46864C18.3061 3.31118 18.3141 3.14441 18.2819 2.9831C18.2497 2.82179 18.1781 2.67093 18.0736 2.54388C17.9691 2.41683 17.8349 2.31752 17.6829 2.25475C16.7764 1.88127 15.8053 1.68964 14.8249 1.69075Z" fill="#1A1C1F"/>
</g>
<defs>
<clipPath id="clip0_3479_8">
<rect width="24" height="24" fill="white"/>
</clipPath>
</defs>
</svg>
