<svg width="28" height="28" viewBox="0 0 28 28" fill="none" xmlns="http://www.w3.org/2000/svg">
<g clip-path="url(#clip0_2214_8576)">
<path fill-rule="evenodd" clip-rule="evenodd" d="M18.67 1.50272C16.5814 1.50272 14.5784 2.33241 13.1016 3.80926C11.6247 5.28611 10.795 7.28914 10.795 9.37772C10.795 10.3183 10.9718 11.1435 11.1704 11.784L1.71165 21.2331C1.629 21.3156 1.5637 21.4138 1.51961 21.522C1.47551 21.6301 1.45351 21.746 1.4549 21.8627C1.45628 21.9795 1.48103 22.0948 1.52768 22.2019C1.57433 22.3089 1.64194 22.4056 1.72652 22.4861L5.67102 26.2398C5.75224 26.3214 5.84878 26.3862 5.95509 26.4304C6.06141 26.4745 6.1754 26.4973 6.29052 26.4973C6.40565 26.4973 6.51964 26.4745 6.62595 26.4304C6.73226 26.3862 6.8288 26.3214 6.91002 26.2398L16.269 16.8782C17.0268 17.1276 17.8265 17.2527 18.67 17.2527C19.7042 17.2527 20.7282 17.049 21.6837 16.6533C22.6391 16.2575 23.5072 15.6774 24.2385 14.9462C24.9697 14.2149 25.5498 13.3468 25.9456 12.3914C26.3413 11.4359 26.545 10.4119 26.545 9.37772C26.545 8.3496 26.3315 7.17272 25.9211 6.31697C25.6823 5.81647 24.956 5.70885 24.5386 6.12447L21.2819 9.38035L18.6595 6.75885L21.9145 3.50647C22.0169 3.40443 22.0924 3.2786 22.1343 3.14023C22.1762 3.00187 22.1832 2.85528 22.1546 2.71357C22.126 2.57186 22.0627 2.43944 21.9704 2.32816C21.8782 2.21687 21.7597 2.13019 21.6258 2.07585C20.6867 1.696 19.683 1.50139 18.67 1.50272ZM19.6185 3.32622L16.8036 6.14022C16.6396 6.30431 16.5475 6.52683 16.5475 6.75885C16.5475 6.99087 16.6396 7.21339 16.8036 7.37747L20.6344 11.2117C21.0124 11.6125 21.5855 11.553 21.9005 11.238L24.7189 8.4196C24.8574 9.29402 24.8047 10.1881 24.5644 11.0401C24.3241 11.8922 23.9019 12.6821 23.327 13.3553C22.7521 14.0286 22.038 14.5692 21.2341 14.9399C20.4301 15.3106 19.5553 15.5026 18.67 15.5027C17.8668 15.5027 17.2893 15.3951 16.2961 15.032C16.1449 14.9848 15.9835 14.9801 15.8298 15.0185C15.6761 15.057 15.5359 15.137 15.4246 15.2498L6.27565 24.3988L3.58327 21.836L12.8005 12.6292C12.9222 12.5077 13.0053 12.353 13.0396 12.1844C13.0738 12.0159 13.0576 11.841 12.993 11.6816C12.585 10.6768 12.451 9.58165 12.6049 8.50812C12.7587 7.43458 13.1948 6.42114 13.8687 5.57138C14.5425 4.72161 15.4299 4.066 16.4401 3.67153C17.4503 3.27707 18.5472 3.15791 19.6185 3.32622Z" fill="#1A1C1F"/>
</g>
<defs>
<clipPath id="clip0_2214_8576">
<rect width="28" height="28" fill="white"/>
</clipPath>
</defs>
</svg>
