<svg width="14" height="14" viewBox="0 0 14 14" fill="none" xmlns="http://www.w3.org/2000/svg">
<g clip-path="url(#clip0_3479_17)">
<path fill-rule="evenodd" clip-rule="evenodd" d="M8.54746 1.25629C7.43356 1.25629 6.36527 1.69879 5.57762 2.48644C4.78996 3.27409 4.34746 4.34238 4.34746 5.45629C4.34746 6.02819 4.44196 6.32079 4.48886 6.53849L1.45786 9.56949C1.39278 9.6345 1.34115 9.7117 1.30592 9.79668C1.27069 9.88166 1.25256 9.97275 1.25256 10.0647C1.25256 10.1567 1.27069 10.2478 1.30592 10.3328C1.34115 10.4178 1.39278 10.495 1.45786 10.56L3.43256 12.5403C3.74056 12.8301 4.17597 12.7923 4.42867 12.5403L7.45546 9.51209C7.74526 9.60449 8.24296 9.65629 8.54746 9.65629C9.66137 9.65629 10.7297 9.21379 11.5173 8.42614C12.305 7.63848 12.7475 6.5702 12.7475 5.45629C12.7475 4.92429 12.6355 4.31879 12.4199 3.83859C12.2288 3.43399 11.6457 3.34369 11.3104 3.67899L9.53306 5.45489L8.54326 4.46509L10.3178 2.69059C10.3999 2.60835 10.4603 2.50694 10.4935 2.39551C10.5266 2.28409 10.5315 2.16616 10.5077 2.05238C10.4839 1.93859 10.4321 1.83253 10.357 1.74378C10.2819 1.65502 10.1859 1.58636 10.0777 1.54399C9.59005 1.35335 9.07102 1.25576 8.54746 1.25629Z" fill="#1A1C1F"/>
</g>
<defs>
<clipPath id="clip0_3479_17">
<rect width="14" height="14" fill="white"/>
</clipPath>
</defs>
</svg>
