<svg width="14" height="14" viewBox="0 0 14 14" fill="none" xmlns="http://www.w3.org/2000/svg">
<g clip-path="url(#clip0_2208_3686)">
<path fill-rule="evenodd" clip-rule="evenodd" d="M10.15 5.59999C11.3094 5.59999 12.25 6.54062 12.25 7.72187C12.25 8.85937 11.3094 9.79999 10.15 9.79999H9.45V10.15C9.45 11.5062 8.35625 12.6 7 12.6H4.2C2.84375 12.6 1.75 11.5062 1.75 10.15V5.59999H10.15ZM10.15 6.99999H9.45V8.39999H10.15C10.5437 8.39999 10.85 8.09374 10.85 7.72187C10.85 7.30624 10.5437 6.99999 10.15 6.99999ZM3.85 4.19999H5.25V2.09999H3.85V4.19999ZM6.65 4.19999H8.05V1.39999H6.65V4.19999Z" fill="#1A1C1F"/>
</g>
<defs>
<clipPath id="clip0_2208_3686">
<rect width="14" height="14" fill="white"/>
</clipPath>
</defs>
</svg>
