<svg width="12" height="12" viewBox="0 0 12 12" fill="none" xmlns="http://www.w3.org/2000/svg">
<g clip-path="url(#clip0_2208_3689)">
<path fill-rule="evenodd" clip-rule="evenodd" d="M8.7 4.8C9.69375 4.8 10.5 5.60625 10.5 6.61875C10.5 7.59375 9.69375 8.4 8.7 8.4H8.1V8.7C8.1 9.8625 7.1625 10.8 6 10.8H3.6C2.4375 10.8 1.5 9.8625 1.5 8.7V4.8H8.7ZM8.7 6H8.1V7.2H8.7C9.0375 7.2 9.3 6.9375 9.3 6.61875C9.3 6.2625 9.0375 6 8.7 6ZM3.3 3.6H4.5V1.8H3.3V3.6ZM5.7 3.6H6.9V1.2H5.7V3.6Z" fill="#1A1C1F"/>
</g>
<defs>
<clipPath id="clip0_2208_3689">
<rect width="12" height="12" fill="white"/>
</clipPath>
</defs>
</svg>
