<svg id="icon" height="32" viewBox="0 0 32 32" width="32" xmlns="http://www.w3.org/2000/svg"><path d="M14.584 1.110 C 14.289 1.249,14.099 1.492,14.027 1.826 C 13.984 2.024,13.971 3.017,13.983 5.200 C 14.002 8.596,13.986 8.432,14.329 8.757 C 14.752 9.157,15.423 9.072,15.767 8.576 L 15.920 8.356 15.936 5.151 C 15.952 1.862,15.941 1.651,15.743 1.412 C 15.449 1.058,14.965 0.932,14.584 1.110 M10.479 3.170 C 10.359 3.242,10.206 3.399,10.132 3.529 L 10.000 3.760 10.000 6.000 L 10.000 8.240 10.133 8.472 C 10.513 9.136,11.460 9.136,11.841 8.472 L 11.973 8.240 11.973 6.000 L 11.973 3.760 11.832 3.519 C 11.556 3.050,10.942 2.892,10.479 3.170 M18.466 3.174 C 18.331 3.257,18.190 3.404,18.119 3.537 C 18.001 3.758,18.000 3.783,18.000 6.000 C 18.000 7.232,18.018 8.306,18.041 8.386 C 18.097 8.587,18.390 8.908,18.597 8.995 C 19.010 9.167,19.521 9.010,19.770 8.635 L 19.920 8.408 19.935 6.122 C 19.949 3.969,19.944 3.823,19.848 3.606 C 19.694 3.258,19.420 3.075,19.020 3.053 C 18.743 3.038,18.659 3.056,18.466 3.174 M6.038 16.413 L 6.053 21.787 6.179 22.160 C 6.646 23.553,7.609 24.481,8.987 24.867 L 9.413 24.986 14.987 24.986 C 21.297 24.987,20.844 25.016,21.813 24.545 C 22.243 24.336,22.393 24.226,22.802 23.816 C 23.171 23.447,23.337 23.230,23.510 22.895 C 23.897 22.146,23.953 21.833,23.986 20.233 L 24.014 18.840 24.927 18.813 C 25.734 18.790,25.889 18.770,26.267 18.643 C 26.864 18.443,27.308 18.181,27.738 17.775 C 28.598 16.964,29.065 15.824,28.992 14.720 C 28.876 12.977,27.716 11.564,26.058 11.146 C 25.644 11.042,25.448 11.040,15.830 11.040 L 6.023 11.040 6.038 16.413 M21.961 17.320 L 21.947 21.627 21.804 21.930 C 21.623 22.317,21.281 22.659,20.877 22.858 L 20.560 23.013 15.097 23.028 C 9.134 23.043,9.399 23.055,8.903 22.744 C 8.603 22.556,8.229 22.102,8.110 21.782 C 8.002 21.496,8.000 21.396,8.000 17.251 L 8.000 13.013 14.988 13.013 L 21.975 13.013 21.961 17.320 M26.014 13.221 C 26.401 13.431,26.657 13.694,26.861 14.091 C 27.062 14.484,27.099 15.153,26.943 15.563 C 26.730 16.120,26.282 16.558,25.733 16.747 C 25.484 16.832,25.284 16.853,24.712 16.853 L 24.000 16.853 24.000 14.929 L 24.000 13.004 24.840 13.022 C 25.679 13.040,25.680 13.040,26.014 13.221 M2.479 27.170 C 1.848 27.548,1.868 28.483,2.515 28.854 L 2.747 28.987 16.000 28.987 L 29.253 28.987 29.485 28.854 C 30.139 28.480,30.150 27.522,29.505 27.159 L 29.292 27.040 15.993 27.041 L 2.693 27.041 2.479 27.170 " fill="var(--db-icon-color, currentColor)" stroke="none" fill-rule="evenodd"></path></svg>