<svg id="icon" height="32" viewBox="0 0 32 32" width="32" xmlns="http://www.w3.org/2000/svg"><path d="M18.453 2.075 C 17.902 2.250,17.427 2.663,17.190 3.173 C 17.045 3.487,17.041 3.520,17.005 4.800 C 16.967 6.147,16.907 6.619,16.694 7.252 C 16.630 7.442,16.184 8.382,15.703 9.342 C 15.222 10.302,14.808 11.180,14.782 11.293 C 14.681 11.744,14.980 12.292,15.402 12.432 C 15.503 12.465,15.713 12.482,15.869 12.469 C 16.394 12.425,16.425 12.383,17.488 10.247 C 18.819 7.573,18.987 6.989,18.987 5.035 L 18.987 4.000 20.000 4.000 L 21.013 4.000 21.013 5.035 C 21.013 7.001,21.177 7.565,22.549 10.320 C 23.089 11.405,23.601 12.502,23.686 12.757 C 24.002 13.701,23.999 13.618,24.000 21.133 L 24.000 28.000 21.918 28.000 C 19.683 28.000,19.613 28.008,19.314 28.283 C 19.150 28.433,18.989 28.781,18.988 28.990 C 18.986 29.280,19.235 29.691,19.512 29.854 L 19.760 30.000 21.840 30.016 C 23.999 30.033,24.402 30.006,24.838 29.813 C 25.118 29.690,25.567 29.276,25.739 28.981 C 26.028 28.488,26.025 28.580,26.025 21.333 C 26.025 17.652,26.003 14.376,25.976 14.053 C 25.859 12.646,25.644 12.032,24.408 9.563 C 23.866 8.481,23.370 7.441,23.306 7.251 C 23.093 6.619,23.033 6.147,22.995 4.800 C 22.959 3.520,22.955 3.487,22.810 3.173 C 22.622 2.769,22.303 2.438,21.893 2.222 L 21.573 2.053 20.080 2.043 C 19.259 2.037,18.527 2.052,18.453 2.075 M8.040 16.058 C 7.481 16.190,6.951 16.615,6.695 17.138 C 6.417 17.706,6.411 17.649,7.303 22.933 C 8.300 28.838,8.248 28.553,8.406 28.888 C 8.581 29.257,9.077 29.714,9.478 29.874 C 9.781 29.995,9.828 29.998,12.104 30.016 C 13.666 30.028,14.534 30.014,14.768 29.974 C 15.237 29.892,15.634 29.686,15.925 29.376 C 16.386 28.883,16.354 29.022,17.289 23.399 C 17.767 20.522,18.141 18.124,18.140 17.941 C 18.135 17.316,17.814 16.727,17.278 16.361 C 16.739 15.994,16.820 15.999,12.295 16.005 C 10.065 16.008,8.150 16.032,8.040 16.058 M16.134 18.147 C 16.104 18.270,14.507 27.917,14.507 27.970 C 14.507 27.987,13.537 28.000,12.351 28.000 L 10.195 28.000 10.165 27.853 C 10.149 27.773,10.004 26.927,9.842 25.973 C 9.680 25.020,9.535 24.186,9.520 24.120 L 9.491 24.000 10.839 23.999 C 12.337 23.998,12.475 23.971,12.758 23.636 C 13.165 23.152,13.029 22.413,12.482 22.134 C 12.285 22.034,12.171 22.027,10.752 22.027 C 9.917 22.027,9.221 22.008,9.207 21.985 C 9.178 21.938,8.533 18.227,8.533 18.106 C 8.533 18.036,8.997 18.027,12.348 18.027 L 16.162 18.027 16.134 18.147 " fill="var(--db-icon-color, currentColor)" stroke="none" fill-rule="evenodd"></path></svg>