<svg id="icon" height="24" viewBox="0 0 24 24" width="24" xmlns="http://www.w3.org/2000/svg"><path d="M2.675 2.060 C 2.461 2.129,2.211 2.355,2.098 2.582 C 2.023 2.734,2.020 2.837,2.020 5.320 C 2.020 7.888,2.020 7.902,2.113 8.269 C 2.293 8.983,2.552 9.546,2.938 10.061 C 3.356 10.620,3.963 11.144,4.545 11.449 C 4.853 11.611,5.557 11.860,5.830 11.903 L 5.999 11.930 6.010 16.595 C 6.020 21.138,6.022 21.264,6.098 21.418 C 6.476 22.180,7.456 22.184,7.871 21.425 C 7.935 21.310,7.942 20.941,7.960 16.624 L 7.980 11.947 8.342 11.856 C 9.944 11.453,11.194 10.295,11.719 8.728 C 11.950 8.039,11.960 7.900,11.960 5.265 C 11.960 3.732,11.945 2.806,11.918 2.711 C 11.861 2.504,11.647 2.237,11.454 2.130 C 10.969 1.862,10.354 2.067,10.098 2.582 C 10.027 2.725,10.018 2.859,9.995 4.040 C 9.981 4.755,9.967 5.822,9.965 6.412 C 9.959 7.630,9.920 7.920,9.697 8.388 C 9.425 8.955,8.978 9.408,8.420 9.681 C 7.918 9.926,7.657 9.971,6.860 9.949 C 6.295 9.934,6.136 9.916,5.920 9.842 C 5.064 9.550,4.407 8.876,4.107 7.983 C 4.029 7.752,4.024 7.619,4.003 5.240 C 3.981 2.904,3.975 2.731,3.906 2.600 C 3.655 2.130,3.150 1.908,2.675 2.060 M6.675 2.060 C 6.461 2.129,6.211 2.355,6.098 2.582 C 6.024 2.732,6.019 2.847,6.009 4.932 C 6.002 6.375,6.012 7.178,6.040 7.280 C 6.101 7.506,6.312 7.761,6.531 7.874 C 6.932 8.080,7.390 8.012,7.700 7.702 C 8.003 7.399,8.000 7.429,8.000 4.998 C 8.000 2.670,8.000 2.664,7.778 2.374 C 7.544 2.066,7.073 1.933,6.675 2.060 M20.284 2.045 C 19.007 2.193,17.761 2.782,16.825 3.680 C 15.968 4.502,15.403 5.520,15.111 6.769 C 15.026 7.134,15.024 7.202,15.011 11.130 C 15.001 13.875,15.010 15.169,15.039 15.278 C 15.102 15.509,15.312 15.761,15.539 15.878 L 15.738 15.980 17.869 15.991 L 20.000 16.002 20.000 18.574 C 20.000 21.478,19.992 21.394,20.300 21.702 C 20.776 22.178,21.571 22.058,21.894 21.460 L 21.980 21.300 21.980 12.000 L 21.980 2.700 21.880 2.522 C 21.763 2.314,21.501 2.101,21.289 2.042 C 21.117 1.994,20.710 1.995,20.284 2.045 M20.000 9.060 L 20.000 14.000 18.500 14.000 L 17.000 14.000 16.990 11.570 C 16.972 7.165,16.965 7.329,17.204 6.665 C 17.612 5.537,18.481 4.655,19.618 4.217 C 19.751 4.166,19.892 4.123,19.930 4.122 C 19.996 4.120,20.000 4.381,20.000 9.060 " fill="var(--db-icon-color, currentColor)" stroke="none" fill-rule="evenodd"></path></svg>