<svg id="icon" height="20" viewBox="0 0 20 20" width="20" xmlns="http://www.w3.org/2000/svg"><path d="M5.992 2.034 C 5.795 2.084,5.541 2.225,5.378 2.375 C 5.220 2.521,4.923 2.946,4.796 3.208 L 4.720 3.367 4.535 3.367 C 4.280 3.368,4.126 3.449,3.841 3.731 C 3.036 4.529,2.662 5.557,2.711 6.839 C 2.722 7.126,2.736 7.381,2.741 7.405 C 2.747 7.438,2.687 7.455,2.517 7.469 C 2.139 7.500,1.846 7.705,1.769 7.991 C 1.627 8.524,1.592 9.384,1.684 10.029 C 1.790 10.765,2.034 11.589,2.337 12.231 C 2.684 12.967,3.260 13.687,3.566 13.767 C 3.771 13.821,3.954 13.794,4.218 13.671 C 4.340 13.614,4.453 13.567,4.469 13.567 C 4.484 13.567,4.565 13.698,4.649 13.858 C 4.965 14.467,5.618 15.253,5.939 15.413 C 6.246 15.566,6.560 15.517,6.808 15.276 C 7.031 15.058,7.089 14.704,6.946 14.424 C 6.916 14.365,6.787 14.207,6.661 14.074 C 6.535 13.940,6.346 13.715,6.241 13.574 C 6.048 13.314,5.838 12.949,5.867 12.924 C 5.876 12.917,6.092 12.800,6.346 12.665 C 6.841 12.402,6.919 12.327,7.002 12.045 C 7.090 11.743,6.935 11.382,6.644 11.211 C 6.514 11.135,6.446 11.117,6.283 11.119 C 6.097 11.122,6.013 11.155,5.053 11.613 C 4.487 11.882,4.005 12.096,3.982 12.087 C 3.911 12.060,3.573 11.333,3.435 10.911 C 3.247 10.336,3.167 9.919,3.144 9.394 L 3.124 8.938 3.237 8.920 C 3.299 8.911,4.392 8.826,5.667 8.733 C 6.941 8.640,8.061 8.548,8.156 8.530 C 8.672 8.430,8.939 7.812,8.648 7.391 C 8.520 7.208,8.251 7.067,8.027 7.067 C 7.915 7.067,7.867 7.053,7.867 7.022 C 7.867 6.997,7.903 6.700,7.948 6.362 C 8.050 5.593,8.020 5.401,7.763 5.185 L 7.656 5.096 7.844 4.706 C 8.080 4.218,8.146 3.949,8.124 3.556 C 8.110 3.304,8.091 3.228,7.987 3.018 C 7.790 2.618,7.372 2.292,6.808 2.097 C 6.586 2.020,6.173 1.988,5.992 2.034 M5.594 5.615 C 6.434 6.117,6.470 6.143,6.453 6.228 C 6.443 6.277,6.411 6.504,6.382 6.733 C 6.353 6.961,6.326 7.152,6.323 7.155 C 6.319 7.159,5.860 7.186,5.302 7.215 C 4.581 7.253,4.278 7.258,4.252 7.232 C 4.190 7.170,4.208 6.186,4.276 5.933 C 4.365 5.607,4.637 5.047,4.693 5.077 C 4.706 5.084,5.111 5.326,5.594 5.615 M12.500 7.500 L 12.500 9.000 13.250 9.000 L 14.000 9.000 14.000 7.500 L 14.000 6.000 13.250 6.000 L 12.500 6.000 12.500 7.500 M10.000 8.000 L 10.000 9.000 10.750 9.000 L 11.500 9.000 11.500 8.000 L 11.500 7.000 10.750 7.000 L 10.000 7.000 10.000 8.000 M8.243 12.742 C 8.259 15.408,8.261 15.437,8.443 15.960 C 8.568 16.317,8.780 16.650,9.065 16.935 C 9.478 17.349,9.984 17.599,10.617 17.704 C 10.986 17.765,13.014 17.765,13.383 17.704 C 14.007 17.601,14.516 17.351,14.915 16.954 C 15.214 16.656,15.385 16.396,15.523 16.029 C 15.674 15.630,15.732 15.231,15.756 14.429 L 15.777 13.742 15.997 13.723 C 16.270 13.698,16.670 13.565,16.898 13.421 C 17.117 13.283,17.416 12.991,17.520 12.814 C 17.823 12.297,17.813 11.634,17.496 11.155 C 17.251 10.784,16.767 10.457,16.280 10.332 C 16.031 10.269,15.895 10.267,12.125 10.267 L 8.228 10.267 8.243 12.742 M14.233 13.425 C 14.232 15.221,14.221 15.362,14.049 15.655 C 13.934 15.850,13.692 16.052,13.474 16.134 C 13.195 16.238,12.631 16.277,11.700 16.257 C 10.589 16.233,10.356 16.165,10.049 15.773 C 9.776 15.425,9.786 15.508,9.774 13.525 L 9.764 11.767 11.999 11.767 L 14.233 11.767 14.233 13.425 " fill="var(--db-icon-color, currentColor)" stroke="none" fill-rule="evenodd"></path></svg>