<svg id="icon" height="24" viewBox="0 0 24 24" width="24" xmlns="http://www.w3.org/2000/svg"><path d="M13.500 2.056 C 12.983 2.182,12.420 2.647,12.203 3.128 C 12.037 3.497,12.000 3.733,12.000 4.420 C 12.000 5.578,11.885 6.200,11.507 7.101 C 11.387 7.387,11.266 7.695,11.239 7.786 C 11.171 8.013,11.217 8.265,11.372 8.523 C 11.720 9.104,12.446 9.200,12.915 8.728 C 13.077 8.564,13.134 8.457,13.350 7.900 C 13.824 6.678,13.957 6.036,13.989 4.810 L 14.011 4.000 15.005 4.000 L 16.000 4.000 16.000 4.582 C 16.000 5.496,16.108 6.255,16.349 7.020 C 16.404 7.196,16.715 8.006,17.039 8.820 C 17.691 10.454,17.767 10.668,17.891 11.209 C 17.974 11.572,17.976 11.667,17.990 15.790 L 18.003 20.000 16.432 20.000 C 15.472 20.000,14.802 20.017,14.711 20.042 C 14.499 20.101,14.237 20.314,14.120 20.522 C 13.978 20.777,13.979 21.181,14.122 21.460 C 14.237 21.684,14.488 21.896,14.711 21.958 C 14.909 22.013,18.397 22.013,18.636 21.958 C 19.264 21.813,19.772 21.310,19.946 20.660 C 20.030 20.346,20.024 12.068,19.939 11.422 C 19.821 10.518,19.758 10.317,18.933 8.225 C 18.570 7.304,18.230 6.382,18.178 6.176 C 18.054 5.688,18.000 5.137,18.000 4.364 C 18.000 3.657,17.954 3.410,17.749 3.024 C 17.494 2.543,16.983 2.159,16.448 2.045 C 16.151 1.982,13.767 1.990,13.500 2.056 M4.720 11.034 C 4.285 11.181,3.999 11.547,4.001 11.955 C 4.001 12.035,4.242 14.172,4.537 16.705 C 5.113 21.651,5.086 21.484,5.346 21.725 C 5.636 21.994,5.458 21.979,8.440 21.991 C 10.886 22.002,11.157 21.996,11.316 21.936 C 11.545 21.849,11.794 21.622,11.883 21.420 C 11.936 21.302,12.092 20.049,12.485 16.610 C 12.965 12.405,13.012 11.941,12.967 11.770 C 12.893 11.485,12.730 11.278,12.478 11.150 L 12.260 11.038 8.540 11.019 C 6.494 11.009,4.775 11.015,4.720 11.034 M10.899 13.110 C 10.888 13.171,10.708 14.714,10.498 16.540 C 10.289 18.366,10.108 19.901,10.098 19.950 L 10.078 20.040 8.508 20.040 L 6.937 20.040 6.767 18.610 C 6.674 17.823,6.598 17.140,6.599 17.092 C 6.600 17.005,6.606 17.004,7.453 16.992 L 8.307 16.980 8.502 16.859 C 8.749 16.706,8.908 16.481,8.966 16.200 C 9.052 15.787,8.844 15.351,8.464 15.148 C 8.312 15.066,8.231 15.059,7.320 15.040 L 6.341 15.020 6.233 14.060 C 6.173 13.532,6.123 13.078,6.122 13.050 C 6.120 13.011,6.625 13.000,8.519 13.000 L 10.918 13.000 10.899 13.110 " fill="var(--db-icon-color, currentColor)" stroke="none" fill-rule="evenodd"></path></svg>