<svg id="icon" height="32" viewBox="0 0 32 32" width="32" xmlns="http://www.w3.org/2000/svg"><path d="M10.717 2.775 C 10.061 2.876,9.369 3.252,8.942 3.741 C 8.814 3.887,8.461 4.437,8.158 4.963 C 7.855 5.489,7.588 5.920,7.565 5.920 C 7.542 5.920,7.371 5.836,7.184 5.733 C 6.603 5.414,6.251 5.485,5.669 6.039 C 5.182 6.503,4.733 7.123,4.425 7.756 C 3.904 8.829,3.720 9.801,3.720 11.479 L 3.720 12.584 3.553 12.609 C 3.462 12.623,3.282 12.646,3.154 12.660 C 2.894 12.688,2.592 12.898,2.442 13.154 C 2.181 13.599,2.086 15.542,2.261 16.849 C 2.494 18.583,2.970 20.176,3.706 21.680 C 4.269 22.831,5.092 24.005,5.457 24.179 C 5.732 24.309,6.095 24.290,6.461 24.126 C 6.634 24.048,6.783 23.994,6.792 24.006 C 6.801 24.017,6.934 24.263,7.086 24.552 C 8.174 26.609,9.712 28.057,11.360 28.577 C 12.532 28.947,12.842 28.840,13.389 27.880 C 13.734 27.276,13.779 27.009,13.599 26.637 C 13.282 25.984,12.404 25.888,11.926 26.456 L 11.786 26.623 11.426 26.427 C 10.628 25.991,9.912 25.327,9.377 24.524 C 9.088 24.091,8.640 23.248,8.640 23.138 C 8.640 23.096,9.456 22.659,10.568 22.106 C 11.629 21.578,12.566 21.090,12.651 21.020 C 12.858 20.850,13.013 20.530,13.013 20.275 C 13.013 19.642,12.402 19.153,11.801 19.304 C 11.672 19.337,10.818 19.738,9.903 20.196 C 8.988 20.654,7.777 21.252,7.211 21.525 L 6.181 22.022 5.940 21.648 C 5.630 21.169,5.122 20.109,4.907 19.493 C 4.674 18.827,4.443 17.910,4.316 17.150 C 4.202 16.471,4.120 14.739,4.196 14.633 C 4.237 14.576,12.679 13.994,12.729 14.045 C 12.740 14.056,12.833 14.369,12.935 14.741 C 13.149 15.523,13.211 15.635,13.529 15.822 C 14.132 16.175,14.907 15.808,15.016 15.118 C 15.043 14.949,14.981 14.649,14.726 13.714 C 14.544 13.047,14.352 12.456,14.289 12.368 C 14.148 12.169,13.820 12.000,13.575 12.000 C 13.453 12.000,13.387 11.975,13.387 11.928 C 13.387 11.889,13.459 11.501,13.547 11.067 C 13.635 10.632,13.707 10.180,13.707 10.062 C 13.707 9.738,13.526 9.415,13.247 9.242 C 12.741 8.927,12.729 9.058,13.360 7.958 C 14.063 6.734,14.153 6.490,14.157 5.787 C 14.160 5.185,14.092 4.887,13.833 4.365 C 13.282 3.254,11.965 2.582,10.717 2.775 M11.589 4.833 C 11.832 4.956,11.943 5.065,12.059 5.291 C 12.193 5.554,12.188 5.922,12.046 6.202 C 11.959 6.375,11.120 7.853,11.062 7.937 C 11.052 7.951,9.617 7.140,9.395 6.994 C 9.339 6.958,9.433 6.758,9.816 6.100 C 10.087 5.634,10.356 5.185,10.415 5.100 C 10.635 4.788,11.232 4.652,11.589 4.833 M11.542 10.564 C 11.587 10.606,11.349 12.029,11.287 12.091 C 11.262 12.116,5.801 12.472,5.771 12.451 C 5.762 12.445,5.732 12.148,5.703 11.791 C 5.642 11.046,5.702 10.271,5.869 9.616 C 5.987 9.156,6.356 8.361,6.610 8.019 L 6.774 7.798 9.134 9.158 C 10.432 9.907,11.515 10.539,11.542 10.564 M21.556 12.111 C 21.424 12.179,21.264 12.321,21.182 12.444 L 21.040 12.659 21.024 13.933 C 21.009 15.151,21.013 15.219,21.124 15.448 C 21.294 15.800,21.583 15.973,22.000 15.973 C 22.414 15.973,22.706 15.800,22.874 15.453 C 22.979 15.236,22.987 15.134,22.987 14.000 C 22.987 12.866,22.979 12.764,22.874 12.547 C 22.642 12.069,22.034 11.868,21.556 12.111 M18.553 13.117 C 18.125 13.350,17.973 13.713,17.973 14.507 C 17.973 15.132,18.054 15.435,18.285 15.677 C 18.672 16.083,19.247 16.102,19.658 15.723 C 19.955 15.450,19.999 15.284,20.000 14.457 C 20.000 13.672,19.913 13.418,19.562 13.186 C 19.278 12.998,18.829 12.967,18.553 13.117 M16.342 18.124 C 15.806 18.309,15.358 18.746,15.136 19.298 C 15.019 19.591,15.015 19.664,14.997 21.680 C 14.973 24.465,15.038 24.979,15.530 25.930 C 15.925 26.694,16.680 27.361,17.512 27.683 C 18.237 27.963,18.775 28.014,20.757 27.987 C 22.366 27.965,22.574 27.952,22.960 27.848 C 24.685 27.381,25.768 26.111,25.953 24.337 L 25.987 24.011 26.794 23.988 C 27.449 23.970,27.663 23.944,27.938 23.847 C 28.631 23.605,29.251 23.097,29.607 22.481 C 30.013 21.777,30.104 20.862,29.845 20.089 C 29.592 19.336,29.082 18.722,28.423 18.375 C 27.729 18.011,28.022 18.026,22.029 18.028 C 17.005 18.030,16.594 18.037,16.342 18.124 M23.987 22.173 C 23.963 24.583,23.959 24.617,23.603 25.153 C 23.373 25.500,22.974 25.777,22.533 25.895 C 22.109 26.010,19.830 26.066,19.057 25.981 C 18.112 25.877,17.624 25.599,17.294 24.977 C 17.039 24.497,17.013 24.225,17.013 22.017 L 17.013 20.000 20.511 20.000 L 24.009 20.000 23.987 22.173 M27.387 20.101 C 28.276 20.511,28.152 21.749,27.199 21.969 C 27.068 21.999,26.750 22.025,26.493 22.025 L 26.027 22.027 26.027 21.013 L 26.027 20.000 26.600 20.001 C 27.043 20.002,27.222 20.025,27.387 20.101 " fill="var(--db-icon-color, currentColor)" stroke="none" fill-rule="evenodd"></path></svg>