<svg id="icon" height="24" viewBox="0 0 24 24" width="24" xmlns="http://www.w3.org/2000/svg"><path d="M7.551 2.462 C 7.217 2.543,6.880 2.728,6.612 2.975 C 6.434 3.140,6.284 3.350,5.988 3.850 L 5.598 4.507 5.369 4.390 C 5.177 4.292,5.103 4.276,4.913 4.289 C 4.624 4.309,4.436 4.435,4.089 4.840 C 3.259 5.811,2.877 7.028,2.929 8.544 L 2.948 9.111 2.782 9.130 C 2.386 9.174,2.159 9.395,2.072 9.822 C 1.995 10.198,2.008 11.645,2.093 12.200 C 2.352 13.878,2.953 15.516,3.722 16.640 C 4.124 17.226,4.300 17.360,4.672 17.360 C 4.846 17.360,4.872 17.372,4.917 17.470 C 5.020 17.698,5.382 18.273,5.641 18.620 C 5.927 19.003,6.514 19.594,6.707 19.693 C 7.160 19.927,7.681 19.695,7.798 19.208 C 7.880 18.865,7.817 18.732,7.363 18.295 C 6.931 17.879,6.614 17.464,6.362 16.984 L 6.196 16.668 6.810 16.344 C 7.148 16.166,7.462 15.993,7.508 15.959 C 7.658 15.850,7.769 15.613,7.769 15.402 C 7.769 14.990,7.486 14.677,7.089 14.649 C 6.863 14.633,6.845 14.640,5.880 15.125 C 5.341 15.396,4.887 15.624,4.871 15.632 C 4.830 15.652,4.313 14.571,4.140 14.103 C 3.784 13.139,3.520 11.724,3.520 10.778 L 3.520 10.537 6.030 10.346 C 7.410 10.241,8.573 10.152,8.614 10.148 C 8.673 10.142,8.704 10.192,8.761 10.380 C 8.800 10.512,8.880 10.776,8.937 10.968 C 9.055 11.360,9.180 11.536,9.418 11.645 C 9.846 11.839,10.312 11.602,10.439 11.127 C 10.481 10.968,10.467 10.889,10.259 10.107 C 10.135 9.641,9.999 9.204,9.957 9.136 C 9.915 9.067,9.802 8.970,9.707 8.919 L 9.534 8.827 9.667 8.167 C 9.821 7.403,9.830 7.215,9.722 7.003 C 9.653 6.870,9.390 6.630,9.267 6.589 C 9.244 6.581,9.352 6.360,9.508 6.098 C 10.049 5.182,10.119 4.993,10.119 4.460 C 10.119 3.879,9.931 3.413,9.540 3.020 C 9.034 2.514,8.248 2.293,7.551 2.462 M8.387 4.006 C 8.566 4.114,8.669 4.387,8.607 4.591 C 8.552 4.775,7.937 5.823,7.890 5.813 C 7.829 5.800,6.920 5.276,6.920 5.254 C 6.920 5.201,7.543 4.169,7.635 4.069 C 7.816 3.872,8.122 3.846,8.387 4.006 M6.640 6.840 C 7.465 7.307,8.156 7.704,8.176 7.723 C 8.206 7.750,8.070 8.588,8.030 8.622 C 8.015 8.634,4.769 8.841,4.594 8.841 L 4.447 8.840 4.421 8.470 C 4.376 7.829,4.495 7.075,4.721 6.573 C 4.847 6.292,5.071 5.950,5.112 5.975 C 5.128 5.983,5.815 6.373,6.640 6.840 M15.664 8.063 C 15.436 8.146,15.257 8.297,15.131 8.511 L 15.020 8.700 15.008 9.908 C 14.995 11.232,15.007 11.338,15.211 11.606 C 15.678 12.218,16.688 12.062,16.934 11.340 C 17.032 11.052,17.032 8.948,16.934 8.660 C 16.764 8.160,16.165 7.879,15.664 8.063 M12.664 9.063 C 12.436 9.146,12.257 9.297,12.131 9.511 C 12.023 9.695,12.020 9.718,12.007 10.404 C 11.992 11.196,12.019 11.354,12.211 11.606 C 12.570 12.076,13.280 12.122,13.700 11.702 C 13.955 11.447,14.000 11.266,14.000 10.500 C 14.000 9.734,13.955 9.553,13.701 9.299 C 13.429 9.027,13.018 8.933,12.664 9.063 M11.661 13.045 C 11.098 13.127,10.472 13.584,10.227 14.093 C 10.002 14.560,9.993 14.682,10.010 17.160 C 10.024 19.337,10.028 19.432,10.112 19.740 C 10.270 20.316,10.487 20.693,10.897 21.103 C 11.306 21.513,11.681 21.729,12.260 21.889 C 12.570 21.975,12.640 21.978,14.500 21.978 C 16.360 21.978,16.430 21.975,16.740 21.889 C 17.309 21.731,17.692 21.513,18.079 21.124 C 18.602 20.599,18.845 20.106,18.964 19.329 L 19.014 19.000 19.149 19.000 C 19.371 19.000,19.883 18.881,20.163 18.764 C 21.319 18.280,22.061 17.092,21.988 15.841 C 21.962 15.394,21.858 15.028,21.628 14.580 C 21.502 14.335,21.378 14.175,21.102 13.900 C 20.593 13.393,20.094 13.134,19.451 13.041 C 19.114 12.992,11.999 12.995,11.661 13.045 M17.000 16.950 C 17.000 18.025,16.982 19.007,16.961 19.138 C 16.903 19.489,16.748 19.713,16.462 19.859 L 16.226 19.980 14.623 19.993 C 12.730 20.008,12.639 19.995,12.317 19.684 C 12.206 19.576,12.107 19.434,12.077 19.340 C 12.039 19.221,12.021 18.645,12.010 17.090 L 11.995 15.000 14.497 15.000 L 17.000 15.000 17.000 16.950 M19.509 15.143 C 20.168 15.529,20.148 16.536,19.474 16.883 C 19.393 16.924,19.254 16.970,19.164 16.984 L 19.000 17.010 19.000 16.000 L 19.000 14.990 19.170 15.017 C 19.264 15.032,19.416 15.089,19.509 15.143 " fill="var(--db-icon-color, currentColor)" stroke="none" fill-rule="evenodd"></path></svg>