<svg id="icon" height="20" viewBox="0 0 20 20" width="20" xmlns="http://www.w3.org/2000/svg"><path d="M9.000 4.000 L 9.000 6.000 10.000 6.000 L 11.000 6.000 11.000 4.000 L 11.000 2.000 10.000 2.000 L 9.000 2.000 9.000 4.000 M5.000 4.500 L 5.000 6.000 6.000 6.000 L 7.000 6.000 7.000 4.500 L 7.000 3.000 6.000 3.000 L 5.000 3.000 5.000 4.500 M3.008 11.524 L 3.017 15.050 3.108 15.381 C 3.449 16.622,4.379 17.549,5.629 17.895 L 5.950 17.983 8.500 17.983 L 11.050 17.983 11.371 17.895 C 12.392 17.612,13.200 16.948,13.652 16.017 C 13.881 15.548,13.970 15.154,13.991 14.528 L 14.009 14.007 14.763 13.992 C 15.459 13.978,15.539 13.970,15.809 13.888 C 16.881 13.564,17.630 12.792,17.920 11.714 C 18.014 11.365,18.007 10.645,17.905 10.269 C 17.614 9.189,16.832 8.401,15.740 8.090 L 15.483 8.017 9.241 8.008 L 2.998 7.999 3.008 11.524 M12.000 12.312 C 12.000 13.720,11.987 14.694,11.966 14.804 C 11.858 15.383,11.382 15.872,10.807 15.996 C 10.560 16.048,6.440 16.048,6.193 15.996 C 5.618 15.872,5.142 15.383,5.034 14.804 C 5.013 14.694,5.000 13.720,5.000 12.312 L 5.000 10.000 8.500 10.000 L 12.000 10.000 12.000 12.312 M15.402 10.087 C 15.624 10.190,15.785 10.346,15.890 10.561 C 15.969 10.721,15.983 10.791,15.982 11.017 C 15.980 11.343,15.886 11.552,15.647 11.763 C 15.416 11.966,15.261 12.000,14.577 12.000 L 14.000 12.000 14.000 10.997 L 14.000 9.995 14.625 10.006 C 15.176 10.015,15.268 10.025,15.402 10.087 " fill="var(--db-icon-color, currentColor)" stroke="none" fill-rule="evenodd"></path></svg>