<svg id="icon" height="24" viewBox="0 0 24 24" width="24" xmlns="http://www.w3.org/2000/svg"><path d="M10.695 2.055 C 10.464 2.130,10.255 2.300,10.128 2.516 L 10.020 2.700 10.009 4.911 C 10.001 6.422,10.011 7.173,10.041 7.285 C 10.097 7.493,10.369 7.790,10.595 7.890 C 11.126 8.127,11.774 7.825,11.941 7.264 C 12.031 6.962,12.028 3.029,11.938 2.725 C 11.783 2.205,11.199 1.890,10.695 2.055 M7.580 4.093 C 7.470 4.147,7.322 4.251,7.252 4.325 C 7.007 4.583,7.000 4.631,7.000 5.991 L 7.000 7.224 7.104 7.433 C 7.383 7.992,8.100 8.139,8.619 7.744 C 8.687 7.692,8.796 7.553,8.861 7.435 L 8.980 7.220 8.980 6.000 C 8.980 4.847,8.975 4.770,8.896 4.600 C 8.661 4.091,8.061 3.860,7.580 4.093 M13.773 4.036 C 13.582 4.085,13.296 4.266,13.202 4.398 C 13.015 4.660,13.000 4.779,13.000 6.015 C 13.001 7.157,13.003 7.184,13.095 7.380 C 13.209 7.619,13.402 7.812,13.618 7.902 C 13.815 7.984,14.177 7.987,14.365 7.909 C 14.561 7.827,14.788 7.618,14.892 7.424 C 14.977 7.265,14.980 7.220,14.980 6.000 C 14.980 4.843,14.974 4.727,14.904 4.587 C 14.700 4.176,14.195 3.930,13.773 4.036 M4.000 13.654 C 4.000 17.594,4.002 17.643,4.213 18.260 C 4.514 19.141,5.084 19.871,5.863 20.373 C 6.218 20.601,6.521 20.737,6.980 20.872 L 7.340 20.977 10.780 20.991 C 13.219 21.001,14.313 20.991,14.539 20.959 C 15.890 20.765,17.031 19.918,17.618 18.674 C 17.912 18.051,17.965 17.786,17.989 16.835 L 18.009 16.009 18.774 15.989 C 19.569 15.967,19.716 15.943,20.185 15.750 C 21.455 15.229,22.219 13.777,21.938 12.419 C 21.709 11.306,20.881 10.425,19.771 10.109 L 19.460 10.020 11.730 10.009 L 4.000 9.998 4.000 13.654 M16.000 14.612 C 16.000 17.481,16.001 17.461,15.755 17.924 C 15.525 18.354,15.099 18.710,14.600 18.887 L 14.340 18.980 11.020 18.980 L 7.700 18.980 7.415 18.890 C 7.083 18.786,6.702 18.544,6.496 18.307 C 6.311 18.095,6.093 17.644,6.041 17.365 C 6.016 17.233,6.000 16.148,6.000 14.575 L 6.000 12.000 11.000 12.000 L 16.000 12.000 16.000 14.612 M19.295 12.057 C 19.545 12.132,19.734 12.281,19.869 12.511 C 19.964 12.672,19.980 12.744,19.980 13.000 C 19.980 13.256,19.964 13.328,19.869 13.489 C 19.744 13.702,19.551 13.864,19.330 13.943 C 19.232 13.978,18.977 13.997,18.590 13.998 L 18.000 14.000 18.000 13.000 L 18.000 12.000 18.554 12.000 C 18.916 12.000,19.172 12.020,19.295 12.057 " fill="var(--db-icon-color, currentColor)" stroke="none" fill-rule="evenodd"></path></svg>