<svg id="icon" height="32" viewBox="0 0 32 32" width="32" xmlns="http://www.w3.org/2000/svg"><path d="M6.586 2.101 C 6.330 2.213,6.097 2.519,6.026 2.837 C 5.980 3.044,5.970 3.999,5.988 6.400 C 6.015 9.984,6.012 9.951,6.346 10.815 C 6.884 12.212,8.045 13.300,9.493 13.766 L 9.947 13.911 9.973 21.556 C 10.002 29.866,9.981 29.356,10.308 29.695 C 10.753 30.156,11.571 30.043,11.880 29.477 C 11.967 29.318,11.975 28.808,12.000 21.605 L 12.027 13.904 12.347 13.814 C 13.148 13.588,13.817 13.206,14.440 12.618 C 15.090 12.005,15.528 11.278,15.823 10.320 L 15.971 9.840 15.989 6.373 C 16.001 4.027,15.989 2.844,15.950 2.714 C 15.830 2.305,15.453 2.027,15.019 2.027 C 14.720 2.027,14.523 2.100,14.327 2.283 C 13.991 2.597,14.003 2.467,13.973 6.240 L 13.947 9.680 13.803 10.039 C 13.296 11.304,12.132 12.064,10.827 11.983 C 9.487 11.900,8.356 10.925,8.079 9.615 C 8.017 9.324,8.002 8.629,8.001 6.038 C 8.000 2.619,7.999 2.611,7.745 2.330 C 7.495 2.054,6.943 1.945,6.586 2.101 M10.586 2.101 C 10.329 2.213,10.097 2.519,10.027 2.837 C 9.984 3.038,9.971 4.006,9.983 6.187 C 9.998 8.952,10.009 9.270,10.091 9.419 C 10.211 9.639,10.527 9.911,10.708 9.950 C 10.788 9.968,10.880 9.990,10.913 10.000 C 11.038 10.038,11.445 9.909,11.618 9.777 C 11.717 9.701,11.843 9.540,11.898 9.420 C 11.992 9.213,11.998 9.010,11.999 6.012 C 12.000 2.620,11.999 2.611,11.745 2.330 C 11.495 2.054,10.943 1.945,10.586 2.101 M23.911 2.106 C 22.799 2.307,21.677 2.894,20.842 3.710 C 19.971 4.562,19.484 5.425,19.132 6.744 C 19.019 7.169,19.017 7.236,18.999 13.120 C 18.986 17.293,18.998 19.126,19.038 19.264 C 19.116 19.531,19.337 19.781,19.598 19.900 C 19.795 19.989,19.991 19.998,21.907 19.999 L 24.000 20.000 24.001 24.600 C 24.002 28.977,24.007 29.211,24.102 29.420 C 24.157 29.540,24.282 29.700,24.381 29.775 C 24.569 29.917,24.951 30.044,25.074 30.005 C 25.114 29.992,25.213 29.968,25.295 29.950 C 25.376 29.932,25.538 29.831,25.654 29.726 C 26.057 29.362,26.027 30.491,26.027 16.046 C 26.027 6.833,26.010 3.020,25.968 2.825 C 25.901 2.511,25.665 2.208,25.403 2.099 C 25.186 2.008,24.428 2.012,23.911 2.106 M24.000 11.093 L 24.000 18.027 22.507 18.027 L 21.013 18.027 21.014 12.787 C 21.015 7.139,21.012 7.216,21.298 6.509 C 21.582 5.804,22.142 5.101,22.745 4.692 C 23.040 4.492,23.762 4.162,23.907 4.161 C 23.995 4.160,24.000 4.525,24.000 11.093 " fill="var(--db-icon-color, currentColor)" stroke="none" fill-rule="evenodd"></path></svg>