<svg width="12" height="12" viewBox="0 0 12 12" fill="none" xmlns="http://www.w3.org/2000/svg">
<g clip-path="url(#clip0_2208_3705)">
<path fill-rule="evenodd" clip-rule="evenodd" d="M2.40001 4.20001C2.40001 4.87501 2.94373 5.40001 3.60001 5.40001C4.21873 5.40001 4.80001 4.87501 4.80001 4.20001V1.80001C4.80001 1.46251 5.08129 1.20001 5.40001 1.20001C5.73751 1.20001 6.00001 1.48129 6.00001 1.80001V4.21873C6.00001 5.34373 5.23129 6.26251 4.20001 6.52501V10.2C4.20001 10.5375 3.91873 10.8 3.60001 10.8C3.26251 10.8 3.00001 10.5375 3.00001 10.2V6.52501C1.96873 6.26251 1.20001 5.34373 1.20001 4.21873V1.80001C1.20001 1.46251 1.46251 1.20001 1.80001 1.20001C2.13751 1.20001 2.40001 1.46251 2.40001 1.80001V4.20001ZM3.60001 1.20001C3.91873 1.20001 4.20001 1.46251 4.20001 1.80001V3.90001C4.20001 4.23138 3.93138 4.50001 3.60001 4.50001C3.26864 4.50001 3.00001 4.23138 3.00001 3.90001V1.80001C3.00001 1.46251 3.26251 1.20001 3.60001 1.20001ZM10.2 1.20001C10.5375 1.20001 10.8 1.46251 10.8 1.80001V10.2C10.8 10.5375 10.5375 10.8 10.2 10.8C9.86251 10.8 9.60001 10.5375 9.60001 10.2V8.40001H7.20001V4.23751C7.20001 2.62501 8.51251 1.20001 10.125 1.20001H10.2ZM9.60001 2.40001C8.88751 2.62501 8.40001 3.45001 8.40001 4.20001V7.20001H9.60001V2.40001Z" fill="#1A1C1F"/>
</g>
<defs>
<clipPath id="clip0_2208_3705">
<rect width="12" height="12" fill="white"/>
</clipPath>
</defs>
</svg>
