<svg width="20" height="20" viewBox="0 0 20 20" fill="none" xmlns="http://www.w3.org/2000/svg">
<g clip-path="url(#clip0_2208_3699)">
<path fill-rule="evenodd" clip-rule="evenodd" d="M4 7C4 8.125 4.9062 9 6 9C7.0312 9 8 8.125 8 7V3C8 2.4375 8.4688 2 9 2C9.5625 2 10 2.4688 10 3V7.0312C10 8.9062 8.7188 10.4375 7 10.875V17C7 17.5625 6.5312 18 6 18C5.4375 18 5 17.5625 5 17V10.875C3.2812 10.4375 2 8.9062 2 7.0312V3C2 2.4375 2.4375 2 3 2C3.5625 2 4 2.4375 4 3V7ZM6 2C6.5312 2 7 2.4375 7 3V6.5C7 7.05228 6.55228 7.5 6 7.5C5.44772 7.5 5 7.05228 5 6.5V3C5 2.4375 5.4375 2 6 2ZM17 2C17.5625 2 18 2.4375 18 3V17C18 17.5625 17.5625 18 17 18C16.4375 18 16 17.5625 16 17V14H12V7.0625C12 4.375 14.1875 2 16.875 2H17ZM16 4C14.8125 4.375 14 5.75 14 7V12H16V4Z" fill="#1A1C1F"/>
</g>
<defs>
<clipPath id="clip0_2208_3699">
<rect width="20" height="20" fill="white"/>
</clipPath>
</defs>
</svg>
