<svg width="24" height="24" viewBox="0 0 24 24" fill="none" xmlns="http://www.w3.org/2000/svg">
<g clip-path="url(#clip0_2208_3697)">
<path fill-rule="evenodd" clip-rule="evenodd" d="M6 7V3.0312C6 2.4688 6.4375 2 7 2C7.5 2 8 2.375 8 3.0312V7C8 7.55228 7.55228 8 7 8C6.44772 8 6 7.55228 6 7ZM4 3.0312V7.2188C4 8.7188 5.21875 9.9688 6.75 9.9688H7.21875C8.75 9.9688 9.96875 8.7188 9.96875 7.2188V5H10V3.0312C10 2.4688 10.4375 2 11 2C11.5312 2 11.9688 2.4688 11.9688 3.0312V7.2188C11.9688 9.5938 10.25 11.5625 7.96875 11.9375V20.9688C7.96875 21.5312 7.53125 22 7 22C6.4375 22 6 21.5312 6 20.9688V11.9375C3.71875 11.5625 2 9.5938 2 7.2188V3.0312C2 2.4688 2.4375 2 3 2C3.53125 2 4 2.4688 4 3.0312ZM21 2C21.5625 2 22 2.4375 22 3V21C22 21.5625 21.5625 22 21 22C20.4688 22 20 21.5625 20 21V16H16C15.4477 16 15 15.5523 15 15V7.9688C15 5.89529 16.034 4.07897 17.6433 3.01028C18.605 2.37165 19.7609 2 21 2ZM20 4.0938C18.2188 4.5625 16.9688 6.1875 16.9688 7.9688L17 14H20V4.0938Z" fill="#1A1C1F"/>
</g>
<defs>
<clipPath id="clip0_2208_3697">
<rect width="24" height="24" fill="white"/>
</clipPath>
</defs>
</svg>
