<svg id="icon" height="20" viewBox="0 0 20 20" width="20" xmlns="http://www.w3.org/2000/svg"><path d="M14.017 2.029 C 13.725 2.107,13.455 2.336,13.327 2.617 C 13.257 2.772,13.250 2.837,13.239 3.558 C 13.231 4.115,13.216 4.334,13.189 4.334 C 13.167 4.334,12.828 4.379,12.436 4.433 C 11.629 4.544,11.453 4.605,11.251 4.841 C 10.906 5.244,10.927 5.830,11.298 6.202 C 11.471 6.374,11.752 6.500,11.965 6.500 C 12.036 6.500,12.480 6.448,12.952 6.383 C 14.088 6.229,14.412 6.229,15.548 6.383 C 16.020 6.448,16.464 6.500,16.535 6.500 C 16.748 6.500,17.029 6.374,17.202 6.202 C 17.573 5.830,17.594 5.244,17.249 4.841 C 17.047 4.605,16.871 4.544,16.064 4.433 C 15.672 4.379,15.333 4.334,15.311 4.334 C 15.284 4.334,15.270 4.116,15.261 3.558 C 15.250 2.789,15.249 2.782,15.157 2.595 C 15.056 2.387,14.877 2.207,14.667 2.100 C 14.517 2.024,14.177 1.987,14.017 2.029 M5.969 6.801 C 4.934 7.018,4.106 7.802,3.836 8.822 C 3.662 9.479,3.778 10.266,4.140 10.883 C 4.319 11.189,4.811 11.681,5.117 11.860 C 5.609 12.148,6.274 12.297,6.790 12.233 C 7.961 12.087,8.866 11.295,9.170 10.150 C 9.268 9.780,9.268 9.190,9.170 8.817 C 9.077 8.460,8.845 7.999,8.625 7.733 C 8.306 7.349,7.824 7.029,7.317 6.866 C 7.129 6.806,6.988 6.789,6.600 6.781 C 6.334 6.775,6.050 6.784,5.969 6.801 M11.683 7.322 C 11.059 7.650,11.136 8.516,11.806 8.715 C 11.999 8.773,12.150 8.758,12.333 8.665 C 12.897 8.380,12.872 7.561,12.293 7.318 C 12.134 7.252,11.813 7.254,11.683 7.322 M16.183 7.322 C 15.559 7.650,15.636 8.516,16.306 8.715 C 16.499 8.773,16.650 8.758,16.833 8.665 C 17.397 8.380,17.372 7.561,16.793 7.318 C 16.634 7.252,16.313 7.254,16.183 7.322 M14.100 7.698 C 13.743 7.769,13.500 8.076,13.500 8.456 C 13.500 8.657,13.643 8.911,13.824 9.031 C 13.999 9.147,14.143 9.182,14.350 9.158 C 14.828 9.105,15.129 8.585,14.936 8.148 C 14.848 7.949,14.789 7.882,14.617 7.784 C 14.464 7.697,14.270 7.665,14.100 7.698 M10.983 9.550 C 10.813 9.610,10.583 9.852,10.536 10.020 C 10.453 10.320,10.515 10.560,10.729 10.767 C 11.049 11.079,11.457 11.077,11.772 10.764 C 12.083 10.454,12.081 10.033,11.766 9.727 C 11.537 9.505,11.276 9.446,10.983 9.550 M17.007 9.538 C 16.847 9.584,16.581 9.855,16.537 10.017 C 16.458 10.304,16.513 10.543,16.705 10.751 C 17.002 11.074,17.460 11.083,17.771 10.771 C 18.080 10.462,18.081 10.033,17.771 9.733 C 17.552 9.520,17.295 9.455,17.007 9.538 M13.916 10.070 C 13.728 10.170,13.679 10.220,13.584 10.411 C 13.472 10.635,13.473 10.834,13.588 11.063 C 13.870 11.629,14.662 11.616,14.925 11.042 C 15.152 10.544,14.802 10.003,14.250 10.001 C 14.109 10.000,14.010 10.021,13.916 10.070 M4.075 14.036 C 3.221 14.182,2.466 14.803,2.168 15.604 C 2.046 15.932,2.001 16.228,2.001 16.707 C 2.000 17.094,2.011 17.194,2.071 17.355 C 2.210 17.726,2.604 18.000,3.000 18.000 C 3.396 18.000,3.790 17.726,3.929 17.355 C 3.987 17.200,4.000 17.091,4.000 16.773 C 4.000 16.317,4.044 16.196,4.253 16.076 L 4.383 16.001 6.501 16.001 C 8.503 16.000,8.624 16.003,8.734 16.062 C 8.940 16.172,8.981 16.289,9.002 16.817 C 9.018 17.235,9.029 17.301,9.107 17.452 C 9.419 18.054,10.223 18.180,10.702 17.702 C 10.804 17.599,10.883 17.478,10.932 17.348 C 11.001 17.164,11.005 17.110,10.991 16.600 C 10.974 16.031,10.937 15.838,10.772 15.460 C 10.546 14.943,10.019 14.435,9.467 14.201 C 9.022 14.013,9.135 14.021,6.600 14.013 C 5.308 14.009,4.171 14.020,4.075 14.036 " fill="var(--db-icon-color, currentColor)" stroke="none" fill-rule="evenodd"></path></svg>