<svg id="icon" height="20" viewBox="0 0 20 20" width="20" xmlns="http://www.w3.org/2000/svg"><path d="M15.972 1.999 C 15.268 2.110,14.692 2.520,14.386 3.128 C 14.114 3.669,14.017 4.173,14.020 5.033 C 14.022 5.725,14.089 6.145,14.268 6.592 C 14.695 7.660,15.678 8.145,16.924 7.903 C 17.772 7.739,17.970 7.603,17.993 7.174 C 18.008 6.897,17.917 6.701,17.704 6.551 C 17.586 6.467,17.531 6.451,17.373 6.453 C 17.269 6.454,17.078 6.489,16.950 6.531 C 16.662 6.624,16.196 6.659,16.014 6.600 C 15.712 6.503,15.511 6.238,15.410 5.800 C 15.330 5.454,15.331 4.547,15.411 4.220 C 15.519 3.782,15.681 3.532,15.947 3.390 C 16.141 3.286,16.599 3.289,16.883 3.397 C 17.252 3.536,17.374 3.552,17.546 3.487 C 17.802 3.389,18.001 3.093,17.999 2.813 C 17.998 2.666,17.887 2.452,17.762 2.358 C 17.408 2.091,16.519 1.912,15.972 1.999 M7.783 2.089 C 7.561 2.206,7.402 2.438,7.401 2.648 C 7.400 2.767,8.622 7.548,8.683 7.666 C 8.914 8.108,9.633 8.119,9.859 7.683 C 9.887 7.628,10.064 7.043,10.252 6.383 C 10.439 5.723,10.601 5.206,10.612 5.233 C 10.623 5.261,10.760 5.741,10.917 6.300 C 11.305 7.682,11.315 7.711,11.456 7.834 C 11.608 7.967,11.710 8.005,11.920 8.005 C 12.207 8.005,12.443 7.856,12.534 7.617 C 12.630 7.362,13.800 2.784,13.800 2.661 C 13.800 2.466,13.690 2.259,13.527 2.145 C 13.403 2.059,13.362 2.050,13.117 2.050 C 12.869 2.050,12.834 2.058,12.720 2.145 C 12.652 2.197,12.573 2.287,12.546 2.345 C 12.519 2.403,12.364 3.065,12.202 3.817 C 12.002 4.745,11.901 5.157,11.886 5.100 C 11.874 5.054,11.725 4.429,11.555 3.712 C 11.385 2.994,11.221 2.369,11.190 2.322 C 11.160 2.276,11.080 2.196,11.013 2.145 C 10.914 2.069,10.849 2.049,10.667 2.039 C 10.410 2.024,10.234 2.093,10.089 2.266 C 9.986 2.389,10.015 2.287,9.629 3.878 C 9.458 4.585,9.314 5.159,9.310 5.154 C 9.305 5.149,9.166 4.525,9.001 3.766 C 8.673 2.260,8.664 2.237,8.400 2.095 C 8.255 2.017,7.925 2.014,7.783 2.089 M5.176 6.313 C 4.831 6.426,4.588 6.640,4.438 6.965 C 4.312 7.236,4.316 7.603,4.447 7.891 C 4.558 8.133,4.789 8.367,5.025 8.475 C 5.270 8.587,5.718 8.580,5.972 8.462 C 6.203 8.353,6.402 8.159,6.521 7.926 C 6.651 7.673,6.669 7.294,6.565 7.018 C 6.469 6.764,6.222 6.498,5.975 6.381 C 5.751 6.275,5.387 6.244,5.176 6.313 M5.678 9.562 C 5.369 9.668,5.164 9.876,5.051 10.196 C 4.953 10.476,4.974 10.571,5.454 12.011 C 5.858 13.224,5.925 13.399,6.071 13.617 C 6.316 13.983,6.639 14.233,7.067 14.390 C 7.304 14.476,7.355 14.481,8.081 14.499 L 8.846 14.517 9.483 16.000 C 9.833 16.816,10.148 17.526,10.182 17.578 C 10.280 17.726,10.527 17.896,10.728 17.955 C 10.964 18.023,11.218 17.998,11.453 17.883 C 11.875 17.677,12.104 17.137,11.952 16.707 C 11.819 16.330,10.609 13.559,10.509 13.402 C 10.242 12.985,9.757 12.655,9.260 12.553 C 9.077 12.515,8.817 12.500,8.360 12.500 L 7.717 12.500 7.317 11.294 C 7.097 10.631,6.876 10.024,6.827 9.946 C 6.662 9.685,6.310 9.498,5.986 9.501 C 5.911 9.502,5.772 9.529,5.678 9.562 M3.244 12.030 C 3.101 12.067,2.869 12.207,2.761 12.322 C 2.523 12.575,2.232 13.160,2.100 13.650 C 2.009 13.992,1.976 14.622,2.031 15.003 C 2.230 16.385,3.253 17.523,4.629 17.892 C 4.910 17.967,5.017 17.978,5.483 17.979 C 5.928 17.980,6.063 17.968,6.296 17.907 C 6.696 17.802,7.078 17.638,7.391 17.437 C 7.851 17.142,8.013 16.894,8.013 16.483 C 8.013 16.208,7.937 16.011,7.752 15.806 C 7.560 15.594,7.338 15.500,7.035 15.501 C 6.761 15.502,6.648 15.540,6.333 15.739 C 6.067 15.908,5.882 15.971,5.600 15.991 C 4.579 16.062,3.795 15.112,4.051 14.115 C 4.079 14.006,4.150 13.842,4.208 13.750 C 4.494 13.298,4.544 13.092,4.450 12.746 C 4.333 12.314,3.997 12.038,3.559 12.014 C 3.444 12.008,3.302 12.015,3.244 12.030 " fill="var(--db-icon-color, currentColor)" stroke="none" fill-rule="evenodd"></path></svg>