<svg id="icon" height="20" viewBox="0 0 20 20" width="20" xmlns="http://www.w3.org/2000/svg"><path d="M5.483 2.021 C 5.183 2.068,4.766 2.257,4.527 2.455 C 4.068 2.835,3.823 3.370,3.825 3.983 C 3.832 5.687,5.924 6.541,7.135 5.335 C 7.528 4.944,7.714 4.503,7.713 3.967 C 7.713 3.482,7.566 3.077,7.253 2.692 C 7.061 2.457,6.665 2.190,6.374 2.099 C 6.154 2.030,5.686 1.990,5.483 2.021 M13.833 2.052 C 12.825 2.268,12.149 3.292,12.336 4.319 C 12.441 4.892,12.873 5.450,13.405 5.698 C 13.759 5.863,14.022 5.914,14.393 5.891 C 15.174 5.841,15.835 5.335,16.105 4.581 C 16.203 4.307,16.224 3.825,16.152 3.519 C 16.066 3.150,15.915 2.882,15.634 2.596 C 15.141 2.096,14.513 1.906,13.833 2.052 M4.002 7.036 C 3.753 7.086,3.395 7.277,3.206 7.461 C 2.901 7.758,2.882 7.822,2.431 10.033 C 2.208 11.124,2.018 12.110,2.009 12.224 C 1.947 12.952,2.439 13.656,3.157 13.868 L 3.297 13.910 3.308 15.563 C 3.317 16.846,3.330 17.244,3.365 17.339 C 3.439 17.541,3.636 17.769,3.833 17.880 C 3.996 17.972,4.046 17.983,4.283 17.983 C 4.719 17.982,5.012 17.796,5.196 17.403 L 5.283 17.217 5.283 14.983 C 5.283 12.462,5.294 12.570,5.021 12.274 C 4.830 12.067,4.612 11.965,4.311 11.942 C 4.106 11.927,4.068 11.915,4.081 11.870 C 4.089 11.841,4.218 11.202,4.367 10.450 C 4.516 9.698,4.645 9.057,4.654 9.025 C 4.670 8.971,4.754 8.967,5.800 8.967 C 6.846 8.967,6.930 8.971,6.946 9.025 C 6.955 9.057,7.077 9.691,7.217 10.433 C 7.356 11.176,7.478 11.815,7.488 11.853 C 7.504 11.919,7.488 11.925,7.242 11.942 C 6.923 11.963,6.708 12.061,6.512 12.274 C 6.240 12.570,6.250 12.462,6.250 14.983 L 6.250 17.217 6.337 17.402 C 6.520 17.792,6.819 17.982,7.250 17.983 C 7.484 17.983,7.539 17.971,7.695 17.884 C 7.909 17.766,8.075 17.581,8.156 17.371 C 8.209 17.232,8.216 17.053,8.226 15.563 L 8.236 13.910 8.376 13.868 C 8.740 13.761,9.139 13.456,9.320 13.148 C 9.439 12.944,9.532 12.648,9.553 12.402 C 9.570 12.211,9.521 11.920,9.169 10.134 C 8.736 7.935,8.709 7.837,8.455 7.545 C 8.303 7.372,8.024 7.185,7.775 7.091 C 7.588 7.020,7.539 7.018,5.867 7.012 C 4.923 7.009,4.083 7.019,4.002 7.036 M11.733 7.036 C 11.455 7.091,11.124 7.283,10.908 7.514 C 10.609 7.834,10.469 8.169,10.467 8.573 C 10.467 8.778,11.327 13.075,11.421 13.333 C 11.455 13.425,11.545 13.551,11.655 13.659 L 11.833 13.835 11.833 15.499 C 11.833 17.115,11.835 17.170,11.904 17.357 C 12.001 17.620,12.260 17.876,12.503 17.948 C 12.894 18.064,13.219 17.983,13.505 17.699 C 13.813 17.394,13.800 17.510,13.800 14.962 C 13.800 12.839,13.798 12.763,13.732 12.588 C 13.659 12.392,13.429 12.147,13.250 12.073 L 13.150 12.032 12.839 10.513 C 12.668 9.677,12.535 8.987,12.542 8.980 C 12.550 8.972,13.328 8.970,14.271 8.975 L 15.986 8.983 15.712 10.397 C 15.562 11.175,15.429 11.861,15.418 11.922 C 15.402 12.008,15.371 12.044,15.285 12.080 C 15.111 12.153,14.915 12.351,14.829 12.542 L 14.750 12.717 14.750 14.983 L 14.750 17.250 14.844 17.441 C 15.142 18.048,15.936 18.185,16.411 17.711 C 16.704 17.417,16.700 17.446,16.700 15.517 L 16.700 13.836 16.872 13.676 C 16.966 13.589,17.070 13.457,17.103 13.383 C 17.135 13.310,17.360 12.245,17.601 11.017 C 17.932 9.338,18.041 8.721,18.040 8.533 C 18.038 7.880,17.665 7.359,17.008 7.094 L 16.817 7.017 14.350 7.011 C 12.993 7.008,11.816 7.019,11.733 7.036 " fill="var(--db-icon-color, currentColor)" stroke="none" fill-rule="evenodd"></path></svg>