<svg id="icon" height="24" viewBox="0 0 24 24" width="24" xmlns="http://www.w3.org/2000/svg"><path d="M18.440 6.026 C 18.385 6.034,18.205 6.060,18.040 6.084 C 17.157 6.214,16.361 6.624,15.720 7.280 C 15.034 7.981,14.624 8.867,14.395 10.148 C 14.288 10.739,14.247 12.211,14.317 12.891 C 14.589 15.525,15.881 17.076,18.095 17.426 C 18.645 17.513,19.739 17.481,20.280 17.362 C 20.854 17.236,21.413 17.040,21.612 16.896 C 21.829 16.738,22.000 16.420,22.000 16.174 C 22.000 15.925,21.864 15.599,21.690 15.433 C 21.351 15.108,21.054 15.069,20.440 15.269 C 19.891 15.448,19.457 15.520,18.926 15.519 C 18.089 15.518,17.580 15.341,17.137 14.899 C 16.722 14.483,16.474 13.898,16.338 13.011 C 16.256 12.470,16.257 11.148,16.340 10.585 C 16.570 9.040,17.243 8.159,18.320 7.995 C 18.918 7.904,19.828 8.019,20.393 8.257 C 20.522 8.311,20.709 8.376,20.810 8.402 C 21.196 8.499,21.661 8.234,21.848 7.811 C 22.017 7.430,21.912 6.920,21.619 6.697 C 21.456 6.572,20.936 6.358,20.465 6.222 C 19.879 6.053,18.901 5.958,18.440 6.026 M2.655 6.105 C 2.307 6.228,2.003 6.602,2.001 6.909 C 2.000 7.068,4.490 16.786,4.573 16.946 C 4.885 17.551,5.795 17.619,6.199 17.068 C 6.358 16.852,6.329 16.954,7.282 13.270 C 7.730 11.537,8.106 10.120,8.118 10.120 C 8.130 10.120,8.516 11.601,8.975 13.410 C 9.434 15.220,9.846 16.786,9.890 16.890 C 10.036 17.238,10.366 17.448,10.763 17.448 C 11.156 17.448,11.513 17.218,11.657 16.873 C 11.778 16.582,14.200 7.176,14.200 6.996 C 14.200 6.623,13.903 6.230,13.525 6.101 C 13.003 5.923,12.510 6.145,12.332 6.640 C 12.288 6.761,11.912 8.295,11.496 10.048 C 11.080 11.801,10.729 13.223,10.716 13.208 C 10.703 13.193,10.328 11.731,9.883 9.960 C 9.437 8.189,9.046 6.677,9.014 6.601 C 8.879 6.276,8.542 6.080,8.120 6.081 C 7.701 6.082,7.388 6.274,7.240 6.620 C 7.202 6.708,6.795 8.233,6.336 10.010 C 5.876 11.786,5.490 13.240,5.479 13.240 C 5.467 13.240,5.120 11.777,4.706 9.990 C 4.219 7.884,3.919 6.666,3.854 6.530 C 3.696 6.199,3.420 6.037,3.024 6.043 C 2.912 6.045,2.746 6.073,2.655 6.105 " fill="var(--db-icon-color, currentColor)" stroke="none" fill-rule="evenodd"></path></svg>