<svg id="icon" height="20" viewBox="0 0 20 20" width="20" xmlns="http://www.w3.org/2000/svg"><path d="M14.951 6.037 C 14.196 6.147,13.565 6.463,13.079 6.974 C 12.542 7.540,12.211 8.307,12.044 9.373 C 11.951 9.963,11.961 11.271,12.062 11.850 C 12.145 12.326,12.336 12.941,12.502 13.271 C 12.983 14.225,13.787 14.807,14.869 14.982 C 15.368 15.063,15.902 15.033,16.596 14.885 C 17.381 14.717,17.699 14.556,17.880 14.233 C 17.972 14.071,17.983 14.020,17.983 13.783 C 17.983 13.566,17.967 13.483,17.897 13.332 C 17.780 13.083,17.632 12.922,17.425 12.819 C 17.180 12.697,16.942 12.704,16.445 12.848 C 15.780 13.041,15.413 13.076,15.049 12.982 C 14.695 12.890,14.470 12.698,14.280 12.325 C 14.037 11.847,13.923 10.957,13.993 10.074 C 14.070 9.093,14.307 8.505,14.742 8.218 C 15.175 7.932,15.770 7.932,16.503 8.217 C 16.786 8.327,16.841 8.338,17.058 8.325 C 17.251 8.313,17.331 8.290,17.457 8.213 C 17.779 8.013,17.984 7.612,17.958 7.233 C 17.930 6.822,17.708 6.561,17.207 6.349 C 16.524 6.061,15.633 5.938,14.951 6.037 M2.711 6.113 C 2.246 6.265,1.970 6.660,2.010 7.113 C 2.038 7.439,3.820 14.316,3.926 14.511 C 4.232 15.074,5.105 15.162,5.535 14.673 C 5.693 14.494,5.688 14.509,6.302 12.338 C 6.547 11.470,6.752 10.774,6.758 10.791 C 6.764 10.808,6.999 11.632,7.280 12.622 C 7.631 13.856,7.819 14.465,7.880 14.561 C 8.046 14.824,8.389 15.000,8.738 15.000 C 9.072 15.000,9.460 14.774,9.601 14.498 C 9.689 14.325,11.533 7.216,11.533 7.049 C 11.533 6.539,11.126 6.119,10.589 6.075 C 10.188 6.043,9.822 6.228,9.661 6.545 C 9.617 6.630,9.420 7.473,9.149 8.733 C 8.906 9.861,8.699 10.761,8.689 10.733 C 8.679 10.706,8.459 9.784,8.200 8.685 C 7.940 7.586,7.701 6.634,7.667 6.569 C 7.582 6.403,7.413 6.250,7.217 6.161 C 6.982 6.053,6.585 6.053,6.350 6.160 C 6.135 6.259,5.954 6.436,5.873 6.630 C 5.837 6.714,5.593 7.672,5.330 8.758 C 5.067 9.844,4.842 10.721,4.830 10.708 C 4.818 10.694,4.618 9.798,4.385 8.717 C 3.943 6.663,3.890 6.482,3.694 6.317 C 3.431 6.095,3.023 6.011,2.711 6.113 " fill="var(--db-icon-color, currentColor)" stroke="none" fill-rule="evenodd"></path></svg>