<svg id="icon" height="32" viewBox="0 0 32 32" width="32" xmlns="http://www.w3.org/2000/svg"><path d="M24.921 4.082 C 23.582 4.443,22.789 5.622,22.675 7.424 C 22.570 9.083,22.891 10.345,23.610 11.100 C 24.418 11.947,25.460 12.158,26.982 11.783 C 27.538 11.646,27.753 11.512,27.900 11.210 C 28.086 10.830,27.961 10.378,27.592 10.097 C 27.428 9.972,27.349 9.949,27.098 9.955 C 26.934 9.959,26.692 10.003,26.560 10.052 C 26.428 10.102,26.126 10.156,25.890 10.172 C 25.533 10.196,25.419 10.182,25.217 10.093 C 24.728 9.877,24.491 9.334,24.442 8.316 C 24.393 7.302,24.573 6.467,24.923 6.086 C 25.242 5.740,25.881 5.663,26.533 5.894 C 26.961 6.045,27.245 6.061,27.467 5.947 C 27.897 5.724,28.086 5.072,27.830 4.693 C 27.553 4.283,26.697 3.998,25.765 4.004 C 25.454 4.005,25.075 4.041,24.921 4.082 M14.320 4.129 C 14.024 4.260,13.813 4.581,13.814 4.897 C 13.815 5.162,15.454 11.424,15.559 11.565 C 15.724 11.786,15.920 11.903,16.173 11.932 C 16.487 11.967,16.866 11.803,17.007 11.570 C 17.064 11.477,17.310 10.696,17.554 9.835 C 17.798 8.974,18.014 8.287,18.033 8.308 C 18.053 8.329,18.266 9.043,18.507 9.893 C 18.795 10.911,18.988 11.497,19.070 11.606 C 19.419 12.072,20.131 12.052,20.494 11.566 C 20.617 11.401,22.240 5.199,22.240 4.894 C 22.240 4.585,22.100 4.336,21.842 4.185 C 21.429 3.943,20.861 4.043,20.643 4.396 C 20.576 4.503,20.394 5.233,20.153 6.363 C 19.941 7.351,19.759 8.150,19.748 8.139 C 19.737 8.128,19.536 7.310,19.302 6.322 C 19.069 5.334,18.842 4.472,18.799 4.406 C 18.673 4.214,18.335 4.053,18.057 4.053 C 17.765 4.053,17.440 4.203,17.313 4.397 C 17.264 4.472,17.024 5.355,16.779 6.358 C 16.519 7.425,16.321 8.139,16.303 8.078 C 16.285 8.020,16.103 7.198,15.898 6.251 C 15.506 4.443,15.452 4.291,15.145 4.133 C 14.957 4.035,14.535 4.033,14.320 4.129 M8.880 9.106 C 8.336 9.302,7.909 9.695,7.666 10.222 C 7.568 10.434,7.547 10.574,7.547 11.013 C 7.547 11.490,7.563 11.579,7.697 11.853 C 7.897 12.260,8.269 12.621,8.693 12.821 C 8.996 12.964,9.097 12.985,9.493 12.984 C 10.123 12.982,10.480 12.836,10.911 12.405 C 11.335 11.981,11.485 11.617,11.485 11.013 C 11.485 10.456,11.340 10.077,10.974 9.677 C 10.580 9.245,10.181 9.058,9.600 9.031 C 9.256 9.015,9.082 9.033,8.880 9.106 M8.258 15.035 C 7.832 15.175,7.572 15.481,7.532 15.889 C 7.499 16.238,7.592 16.490,7.837 16.711 C 8.085 16.935,8.403 17.013,9.065 17.013 C 9.619 17.013,9.686 17.033,9.784 17.221 C 9.824 17.298,10.136 18.309,10.479 19.467 C 10.821 20.626,11.161 21.773,11.235 22.016 C 11.382 22.503,11.590 22.794,11.877 22.915 C 12.011 22.971,12.472 22.987,13.932 22.987 L 15.813 22.987 16.792 25.267 C 17.330 26.521,17.827 27.634,17.895 27.740 C 18.328 28.413,19.427 28.227,19.655 27.441 C 19.708 27.260,19.718 27.121,19.687 27.013 C 19.628 26.808,17.573 21.920,17.407 21.590 C 17.338 21.452,17.193 21.272,17.085 21.190 L 16.888 21.040 14.953 21.025 L 13.017 21.010 12.904 20.625 C 12.843 20.413,12.720 20.000,12.632 19.707 C 12.545 19.413,12.461 19.131,12.446 19.080 C 12.421 18.993,12.517 18.987,13.940 18.987 C 14.884 18.987,15.517 18.965,15.610 18.930 C 15.936 18.807,16.263 18.348,16.265 18.012 C 16.268 17.709,16.000 17.273,15.707 17.102 C 15.634 17.060,15.006 17.032,13.712 17.013 L 11.823 16.987 11.732 16.717 C 11.591 16.302,11.476 16.110,11.185 15.802 C 10.880 15.480,10.509 15.251,10.080 15.121 C 9.747 15.019,8.487 14.960,8.258 15.035 M5.847 19.064 C 5.585 19.158,5.346 19.390,5.019 19.865 C 3.401 22.214,3.746 25.417,5.830 27.397 C 7.560 29.040,9.954 29.445,12.225 28.479 C 13.295 28.023,14.696 26.751,14.799 26.141 C 14.917 25.442,14.233 24.829,13.543 25.014 C 13.356 25.065,13.201 25.189,12.723 25.672 C 12.396 26.002,11.997 26.346,11.827 26.446 C 10.977 26.945,9.829 27.118,8.905 26.887 C 8.246 26.723,7.738 26.447,7.249 25.986 C 6.324 25.116,5.894 23.962,6.033 22.723 C 6.106 22.063,6.448 21.241,6.846 20.763 C 7.177 20.368,7.239 19.926,7.023 19.515 C 6.814 19.118,6.272 18.910,5.847 19.064 " fill="var(--db-icon-color, currentColor)" stroke="none" fill-rule="evenodd"></path></svg>