<svg id="icon" height="24" viewBox="0 0 24 24" width="24" xmlns="http://www.w3.org/2000/svg"><path d="M19.640 3.060 C 18.788 3.230,18.177 3.815,17.883 4.740 C 17.716 5.265,17.666 5.721,17.690 6.507 C 17.714 7.285,17.812 7.748,18.056 8.232 C 18.501 9.116,19.429 9.593,20.475 9.477 C 20.892 9.430,21.447 9.298,21.647 9.196 C 22.085 8.974,22.118 8.296,21.706 7.982 C 21.494 7.820,21.310 7.811,20.852 7.941 C 20.195 8.128,19.760 8.081,19.492 7.794 C 19.359 7.651,19.209 7.290,19.162 7.000 C 19.102 6.625,19.111 5.857,19.179 5.499 C 19.261 5.068,19.451 4.735,19.700 4.580 C 19.880 4.469,19.920 4.460,20.257 4.464 C 20.550 4.466,20.672 4.488,20.891 4.574 C 21.325 4.744,21.542 4.708,21.792 4.423 C 22.004 4.182,22.042 3.878,21.896 3.593 C 21.685 3.180,20.472 2.893,19.640 3.060 M10.983 3.097 C 10.764 3.178,10.573 3.384,10.517 3.600 C 10.472 3.773,10.498 3.887,11.136 6.370 C 11.502 7.794,11.817 9.000,11.836 9.050 C 11.885 9.177,12.077 9.362,12.229 9.426 C 12.540 9.557,12.934 9.430,13.096 9.146 C 13.149 9.055,13.350 8.417,13.543 7.729 C 13.736 7.041,13.907 6.492,13.922 6.509 C 13.936 6.526,14.108 7.106,14.303 7.798 C 14.498 8.489,14.695 9.110,14.739 9.178 C 15.019 9.599,15.741 9.553,15.958 9.100 C 16.049 8.909,17.360 3.883,17.359 3.728 C 17.358 3.564,17.223 3.302,17.095 3.212 C 16.700 2.934,16.185 3.029,16.008 3.412 C 15.965 3.504,15.797 4.205,15.635 4.970 C 15.473 5.735,15.331 6.360,15.318 6.360 C 15.305 6.360,15.146 5.725,14.963 4.950 C 14.780 4.175,14.593 3.472,14.547 3.389 C 14.428 3.173,14.108 3.020,13.850 3.055 C 13.628 3.086,13.385 3.236,13.306 3.390 C 13.276 3.450,13.091 4.154,12.896 4.953 C 12.640 6.007,12.534 6.381,12.512 6.313 C 12.496 6.262,12.355 5.626,12.198 4.900 C 12.042 4.174,11.880 3.508,11.838 3.420 C 11.693 3.118,11.314 2.975,10.983 3.097 M6.470 6.043 C 6.049 6.143,5.651 6.467,5.452 6.871 C 5.352 7.076,5.340 7.143,5.340 7.501 C 5.340 7.873,5.349 7.921,5.472 8.169 C 5.630 8.490,5.919 8.761,6.240 8.889 C 6.407 8.956,6.546 8.977,6.821 8.978 C 7.149 8.980,7.205 8.968,7.448 8.849 C 8.095 8.530,8.433 7.830,8.264 7.159 C 8.065 6.370,7.246 5.861,6.470 6.043 M6.870 11.055 C 6.575 11.165,6.340 11.398,6.246 11.676 C 6.147 11.968,6.186 12.145,6.820 14.278 C 7.161 15.425,7.466 16.413,7.497 16.472 C 7.570 16.612,7.783 16.811,7.960 16.906 C 8.088 16.974,8.228 16.981,9.624 16.992 L 11.149 17.004 11.189 17.093 C 11.212 17.142,11.621 18.147,12.099 19.326 C 12.673 20.744,13.008 21.520,13.087 21.615 C 13.341 21.924,13.769 22.064,14.139 21.960 C 14.386 21.891,14.648 21.652,14.759 21.394 C 14.931 20.993,14.926 20.976,13.845 18.303 C 13.311 16.984,12.830 15.829,12.776 15.736 C 12.655 15.531,12.383 15.274,12.174 15.168 C 11.890 15.024,11.635 15.000,10.407 15.000 L 9.218 15.000 8.703 13.370 C 8.169 11.679,8.135 11.586,7.973 11.369 C 7.763 11.089,7.204 10.930,6.870 11.055 M3.674 14.045 C 3.238 14.168,2.526 15.179,2.226 16.100 C 1.788 17.447,2.012 18.917,2.831 20.080 C 3.066 20.413,3.587 20.934,3.920 21.169 C 5.279 22.126,7.084 22.261,8.569 21.516 C 9.087 21.257,9.665 20.800,9.833 20.520 C 9.927 20.362,9.940 20.298,9.940 19.997 C 9.940 19.685,9.929 19.636,9.819 19.457 C 9.738 19.326,9.627 19.218,9.488 19.134 C 9.048 18.871,8.673 18.925,8.219 19.319 C 7.369 20.054,6.340 20.197,5.361 19.714 C 4.888 19.481,4.481 19.072,4.252 18.600 C 4.042 18.166,3.985 17.913,3.990 17.440 C 3.996 16.807,4.200 16.285,4.637 15.787 C 4.895 15.492,4.961 15.363,4.989 15.100 C 5.046 14.541,4.622 14.054,4.047 14.018 C 3.922 14.010,3.754 14.022,3.674 14.045 " fill="var(--db-icon-color, currentColor)" stroke="none" fill-rule="evenodd"></path></svg>