<svg id="icon" height="24" viewBox="0 0 24 24" width="24" xmlns="http://www.w3.org/2000/svg"><path d="M7.791 2.062 C 5.901 2.356,4.391 3.853,4.065 5.757 C 3.861 6.947,4.172 8.227,4.902 9.196 L 5.125 9.492 5.098 9.745 C 5.083 9.883,5.051 10.022,5.025 10.052 C 5.000 10.082,4.827 10.146,4.640 10.194 C 4.453 10.242,4.084 10.388,3.820 10.517 C 2.372 11.227,1.420 12.469,1.073 14.100 C 1.004 14.427,1.005 15.545,1.075 15.900 C 1.383 17.453,2.405 18.806,3.776 19.476 C 4.526 19.842,5.134 19.980,6.000 19.980 C 6.676 19.980,6.973 19.936,7.540 19.752 C 8.011 19.600,8.410 19.406,8.805 19.137 C 9.081 18.948,9.135 18.926,9.196 18.969 C 9.236 18.997,9.438 19.164,9.646 19.339 L 10.024 19.658 10.007 19.891 C 9.927 20.995,10.877 22.000,12.000 22.000 C 13.080 22.000,14.000 21.080,14.000 20.000 C 14.000 19.032,13.268 18.183,12.305 18.033 C 12.070 17.996,11.934 17.997,11.710 18.033 C 11.550 18.059,11.390 18.085,11.353 18.090 C 11.317 18.096,11.091 17.938,10.851 17.741 L 10.416 17.381 10.566 17.041 C 10.756 16.610,10.903 16.063,10.964 15.559 L 11.012 15.166 11.116 15.210 C 11.173 15.234,11.418 15.254,11.660 15.254 C 12.165 15.255,12.433 15.179,12.787 14.936 L 12.995 14.794 13.263 14.956 C 13.912 15.347,14.614 15.371,15.332 15.025 C 15.661 14.866,16.105 14.486,16.186 14.293 C 16.391 13.801,16.034 13.269,15.499 13.269 C 15.280 13.269,15.181 13.308,14.954 13.486 C 14.784 13.619,14.523 13.720,14.348 13.720 C 14.280 13.720,14.149 13.683,14.056 13.638 C 13.849 13.538,13.760 13.346,13.760 12.999 L 13.760 12.760 13.910 12.760 C 14.166 12.759,14.372 12.679,14.521 12.523 C 14.866 12.161,14.810 11.646,14.395 11.372 L 14.226 11.260 13.183 11.247 C 11.998 11.232,11.777 11.249,11.593 11.374 C 10.940 11.813,11.279 12.759,12.090 12.760 L 12.240 12.760 12.240 12.970 C 12.239 13.277,12.176 13.458,12.020 13.595 C 11.754 13.828,11.447 13.798,11.065 13.502 C 10.939 13.404,10.804 13.314,10.765 13.302 C 10.726 13.289,10.653 13.176,10.602 13.050 C 10.277 12.242,9.577 11.391,8.816 10.877 C 8.425 10.613,7.786 10.308,7.404 10.203 C 7.242 10.159,7.099 10.113,7.088 10.101 C 7.057 10.070,7.156 9.546,7.264 9.171 L 7.359 8.841 6.906 8.391 C 6.266 7.755,6.058 7.351,6.014 6.660 C 5.912 5.013,7.404 3.722,9.020 4.060 C 9.492 4.159,9.931 4.404,10.302 4.777 C 10.480 4.954,10.669 5.160,10.723 5.234 L 10.821 5.368 11.200 5.265 C 11.907 5.074,12.289 5.024,13.060 5.023 C 13.820 5.023,13.940 5.039,14.717 5.250 L 15.174 5.374 15.274 5.237 C 15.329 5.162,15.520 4.956,15.697 4.780 C 16.523 3.961,17.624 3.777,18.639 4.289 C 19.508 4.726,20.047 5.666,19.987 6.640 C 19.946 7.302,19.700 7.780,19.073 8.409 L 18.646 8.838 18.779 9.369 C 19.060 10.489,19.068 11.470,18.804 12.503 C 18.350 14.284,17.016 15.831,15.337 16.524 C 14.888 16.710,14.716 16.837,14.579 17.086 C 14.234 17.711,14.649 18.482,15.367 18.552 C 15.612 18.575,15.884 18.487,16.513 18.179 C 17.070 17.906,17.579 17.584,18.040 17.211 C 18.394 16.925,19.066 16.239,19.326 15.900 C 20.244 14.698,20.806 13.277,20.964 11.763 C 21.016 11.258,20.994 10.334,20.917 9.816 L 20.869 9.492 21.086 9.207 C 21.824 8.239,22.141 6.953,21.935 5.757 C 21.536 3.428,19.396 1.789,17.073 2.032 C 16.183 2.125,15.487 2.400,14.764 2.943 L 14.514 3.131 14.087 3.076 C 13.540 3.005,12.549 3.004,11.960 3.075 L 11.500 3.131 11.200 2.903 C 10.835 2.625,10.126 2.271,9.720 2.163 C 9.104 1.999,8.426 1.963,7.791 2.062 M9.664 8.063 C 9.436 8.146,9.257 8.297,9.131 8.511 C 9.036 8.672,9.020 8.744,9.020 9.000 C 9.020 9.256,9.036 9.328,9.131 9.489 C 9.470 10.065,10.234 10.168,10.701 9.701 C 10.881 9.521,11.000 9.242,11.000 9.000 C 11.000 8.326,10.295 7.832,9.664 8.063 M15.664 8.063 C 15.436 8.146,15.257 8.297,15.131 8.511 C 15.036 8.672,15.020 8.744,15.020 9.000 C 15.020 9.256,15.036 9.328,15.131 9.489 C 15.470 10.065,16.234 10.168,16.701 9.701 C 16.881 9.521,17.000 9.242,17.000 9.000 C 17.000 8.326,16.295 7.832,15.664 8.063 M6.756 12.097 C 7.093 12.189,7.595 12.447,7.873 12.671 C 8.554 13.219,9.000 14.140,9.000 15.000 C 9.000 16.170,8.225 17.329,7.151 17.766 C 5.642 18.380,3.989 17.734,3.298 16.260 C 3.072 15.779,3.021 15.546,3.021 15.000 C 3.021 14.454,3.072 14.221,3.298 13.740 C 3.716 12.848,4.537 12.215,5.503 12.040 C 5.770 11.991,6.491 12.024,6.756 12.097 " fill="var(--db-icon-color, currentColor)" stroke="none" fill-rule="evenodd"></path></svg>