<svg id="icon" height="32" viewBox="0 0 32 32" width="32" xmlns="http://www.w3.org/2000/svg"><path d="M23.460 2.179 C 23.036 2.448,23.016 2.534,22.998 4.144 L 22.982 5.541 22.731 5.572 C 22.011 5.659,20.936 5.895,20.259 6.113 C 19.616 6.320,19.464 6.390,19.299 6.555 C 18.703 7.151,19.055 8.118,19.917 8.248 C 20.020 8.264,20.322 8.193,20.741 8.055 C 21.105 7.935,21.705 7.773,22.074 7.694 C 22.696 7.562,22.842 7.551,24.000 7.551 C 25.158 7.551,25.304 7.562,25.926 7.694 C 26.295 7.773,26.895 7.935,27.259 8.055 C 27.678 8.193,27.980 8.264,28.083 8.248 C 28.388 8.202,28.633 8.062,28.792 7.842 C 29.094 7.425,29.058 6.912,28.701 6.555 C 28.536 6.390,28.384 6.320,27.741 6.113 C 27.064 5.895,25.989 5.659,25.269 5.572 L 25.018 5.541 25.002 4.144 C 24.988 2.891,24.976 2.725,24.884 2.539 C 24.638 2.044,23.948 1.870,23.460 2.179 M20.560 10.111 C 20.320 10.236,20.208 10.351,20.100 10.587 C 19.916 10.989,19.999 11.400,20.329 11.717 C 20.427 11.810,20.574 11.912,20.657 11.943 C 21.028 12.083,21.534 11.937,21.777 11.618 C 21.909 11.445,22.038 11.038,22.000 10.913 C 21.990 10.880,21.968 10.788,21.950 10.708 C 21.911 10.530,21.637 10.209,21.435 10.104 C 21.238 10.002,20.761 10.006,20.560 10.111 M26.587 10.089 C 25.990 10.418,25.830 11.096,26.225 11.619 C 26.465 11.936,26.972 12.083,27.343 11.943 C 27.693 11.812,28.000 11.373,28.000 11.005 C 28.000 10.798,27.879 10.479,27.745 10.330 C 27.505 10.064,26.870 9.932,26.587 10.089 M9.338 11.050 C 7.880 11.232,6.470 12.162,5.700 13.448 C 5.432 13.895,5.152 14.676,5.065 15.213 C 4.984 15.720,5.024 16.756,5.141 17.187 C 5.391 18.101,5.806 18.851,6.396 19.454 C 8.407 21.513,11.618 21.511,13.602 19.450 C 14.214 18.815,14.608 18.102,14.868 17.157 C 14.996 16.692,14.996 15.308,14.868 14.843 C 14.599 13.868,14.179 13.124,13.535 12.479 C 12.729 11.673,11.723 11.184,10.587 11.046 C 10.045 10.979,9.897 10.980,9.338 11.050 M23.747 11.037 C 23.518 11.093,23.221 11.325,23.109 11.536 C 22.990 11.761,22.991 12.241,23.111 12.468 C 23.232 12.695,23.577 12.942,23.836 12.986 C 24.486 13.096,25.096 12.490,24.987 11.843 C 24.892 11.280,24.308 10.901,23.747 11.037 M10.908 13.140 C 11.964 13.470,12.820 14.496,12.960 15.599 C 13.189 17.410,11.811 18.987,10.000 18.987 C 8.703 18.987,7.571 18.162,7.145 16.907 C 6.970 16.391,6.977 15.580,7.161 15.053 C 7.500 14.081,8.299 13.338,9.267 13.093 C 9.649 12.997,10.530 13.022,10.908 13.140 M19.600 13.089 C 19.512 13.129,19.383 13.215,19.314 13.282 C 19.170 13.419,18.989 13.788,18.988 13.947 C 18.986 14.166,19.105 14.462,19.269 14.649 C 19.670 15.107,20.330 15.107,20.731 14.649 C 20.878 14.482,21.013 14.172,21.013 14.000 C 21.013 13.681,20.694 13.213,20.389 13.085 C 20.171 12.994,19.808 12.996,19.600 13.089 M27.599 13.088 C 27.303 13.217,26.987 13.687,26.987 14.000 C 26.987 14.172,27.122 14.482,27.269 14.649 C 27.670 15.107,28.330 15.107,28.731 14.649 C 28.878 14.482,29.013 14.172,29.013 14.000 C 29.013 13.681,28.694 13.213,28.389 13.085 C 28.173 12.995,27.809 12.996,27.599 13.088 M23.511 14.135 C 23.271 14.262,23.117 14.470,23.035 14.779 C 22.831 15.553,23.664 16.235,24.402 15.900 C 25.124 15.572,25.202 14.599,24.540 14.179 C 24.242 13.991,23.818 13.972,23.511 14.135 M18.580 16.102 C 18.073 16.332,17.858 16.978,18.123 17.474 C 18.215 17.645,18.545 17.915,18.708 17.950 C 18.788 17.968,18.886 17.992,18.926 18.005 C 18.966 18.017,19.098 18.001,19.219 17.969 C 19.991 17.764,20.257 16.842,19.698 16.309 C 19.377 16.004,18.965 15.927,18.580 16.102 M28.650 16.069 C 28.553 16.106,28.392 16.216,28.291 16.315 C 27.745 16.849,28.016 17.765,28.781 17.969 C 28.902 18.001,29.034 18.017,29.074 18.005 C 29.114 17.992,29.212 17.968,29.292 17.950 C 29.475 17.910,29.792 17.636,29.902 17.423 C 30.022 17.191,30.014 16.806,29.885 16.556 C 29.662 16.125,29.095 15.901,28.650 16.069 M23.600 17.089 C 23.280 17.232,22.985 17.676,22.988 18.012 C 22.990 18.348,23.318 18.807,23.643 18.930 C 23.985 19.059,24.394 18.979,24.660 18.730 C 24.848 18.555,25.011 18.215,25.011 18.000 C 25.011 17.654,24.688 17.195,24.357 17.070 C 24.153 16.993,23.795 17.002,23.600 17.089 M4.816 23.039 C 4.407 23.101,4.066 23.288,3.703 23.650 C 3.325 24.027,3.121 24.422,3.034 24.942 C 2.978 25.278,2.994 25.460,3.248 27.266 C 3.399 28.344,3.547 29.292,3.578 29.373 C 3.743 29.810,4.271 30.085,4.720 29.966 C 5.135 29.857,5.485 29.451,5.494 29.067 C 5.496 28.993,5.384 28.098,5.244 27.077 C 5.057 25.703,5.006 25.197,5.048 25.130 C 5.101 25.047,5.461 25.040,10.000 25.040 C 14.547 25.040,14.899 25.046,14.952 25.131 C 14.995 25.198,14.943 25.696,14.752 27.071 C 14.601 28.157,14.505 29.019,14.521 29.158 C 14.590 29.769,15.379 30.189,15.924 29.904 C 16.127 29.798,16.352 29.558,16.422 29.373 C 16.526 29.097,17.022 25.375,16.992 25.098 C 16.894 24.210,16.337 23.466,15.520 23.133 L 15.227 23.013 10.160 23.006 C 7.373 23.001,4.969 23.017,4.816 23.039 " fill="var(--db-icon-color, currentColor)" stroke="none" fill-rule="evenodd"></path></svg>