<svg id="icon" height="24" viewBox="0 0 24 24" width="24" xmlns="http://www.w3.org/2000/svg"><path d="M11.543 2.047 C 11.434 2.067,11.218 2.144,11.063 2.216 C 10.300 2.573,9.819 3.269,9.770 4.089 C 9.728 4.785,9.937 5.344,10.416 5.824 C 10.868 6.277,11.374 6.490,12.000 6.490 C 12.626 6.490,13.132 6.277,13.584 5.824 C 14.063 5.344,14.272 4.785,14.230 4.089 C 14.150 2.747,12.889 1.789,11.543 2.047 M9.780 7.815 C 9.303 7.969,8.919 8.290,8.718 8.700 C 8.613 8.914,8.554 9.222,8.180 11.505 C 7.949 12.916,7.760 14.158,7.761 14.265 C 7.763 14.719,7.945 15.138,8.278 15.455 C 8.402 15.573,8.579 15.708,8.671 15.755 C 8.881 15.863,9.251 15.960,9.448 15.960 L 9.600 15.960 9.600 18.565 C 9.600 20.427,9.613 21.215,9.646 21.326 C 9.750 21.671,10.186 21.999,10.543 22.000 C 10.927 22.001,11.283 21.779,11.456 21.432 L 11.560 21.224 11.560 18.027 C 11.560 15.716,11.547 14.786,11.514 14.674 C 11.453 14.473,11.235 14.220,11.026 14.110 C 10.885 14.036,10.779 14.020,10.330 14.007 C 9.917 13.995,9.800 13.980,9.800 13.938 C 9.800 13.888,10.369 10.105,10.421 9.810 L 10.444 9.680 11.998 9.680 L 13.552 9.680 13.595 9.930 C 13.644 10.212,14.240 13.954,14.240 13.977 C 14.240 13.985,14.002 13.998,13.710 14.006 C 13.219 14.019,13.166 14.028,12.996 14.128 C 12.763 14.265,12.599 14.480,12.532 14.736 C 12.464 14.998,12.456 20.923,12.523 21.236 C 12.610 21.641,12.955 21.945,13.378 21.988 C 13.763 22.028,14.142 21.820,14.332 21.464 C 14.420 21.301,14.420 21.291,14.431 18.635 L 14.442 15.971 14.671 15.950 C 15.338 15.888,15.899 15.475,16.124 14.880 C 16.290 14.440,16.280 14.317,15.843 11.540 C 15.456 9.085,15.434 8.968,15.301 8.696 C 15.130 8.347,14.857 8.082,14.489 7.907 L 14.220 7.780 12.080 7.772 C 10.422 7.766,9.904 7.775,9.780 7.815 " fill="var(--db-icon-color, currentColor)" stroke="none" fill-rule="evenodd"></path></svg>