<svg id="icon" height="20" viewBox="0 0 20 20" width="20" xmlns="http://www.w3.org/2000/svg"><path d="M3.525 2.033 C 3.213 2.127,3.001 2.417,3.001 2.750 C 3.001 3.379,3.730 3.726,4.214 3.327 C 4.552 3.048,4.576 2.503,4.262 2.210 C 4.076 2.038,3.762 1.962,3.525 2.033 M8.507 2.038 C 8.347 2.084,8.081 2.355,8.037 2.517 C 7.954 2.819,8.015 3.057,8.229 3.271 C 8.538 3.580,8.962 3.580,9.271 3.271 C 9.580 2.962,9.581 2.533,9.271 2.233 C 9.052 2.020,8.795 1.955,8.507 2.038 M5.968 2.302 C 5.702 2.414,5.501 2.715,5.501 3.000 C 5.501 3.201,5.629 3.468,5.782 3.584 C 6.170 3.881,6.703 3.756,6.917 3.319 C 7.033 3.082,7.023 2.852,6.887 2.621 C 6.750 2.386,6.576 2.286,6.286 2.276 C 6.156 2.271,6.013 2.283,5.968 2.302 M3.115 4.500 C 2.766 4.549,2.500 4.874,2.500 5.251 C 2.500 5.448,2.647 5.715,2.828 5.845 C 2.963 5.943,2.993 5.950,3.250 5.950 C 3.507 5.950,3.537 5.943,3.672 5.845 C 3.853 5.715,4.000 5.448,4.000 5.251 C 4.000 4.766,3.606 4.432,3.115 4.500 M9.007 4.538 C 8.847 4.584,8.581 4.855,8.537 5.017 C 8.454 5.319,8.515 5.557,8.729 5.771 C 9.038 6.080,9.462 6.080,9.771 5.771 C 10.080 5.462,10.081 5.033,9.771 4.733 C 9.552 4.520,9.295 4.455,9.007 4.538 M6.007 5.038 C 5.847 5.084,5.581 5.355,5.537 5.517 C 5.454 5.819,5.515 6.057,5.729 6.271 C 6.038 6.580,6.462 6.580,6.771 6.271 C 7.080 5.962,7.081 5.533,6.771 5.233 C 6.552 5.020,6.295 4.955,6.007 5.038 M2.507 7.004 C 2.347 7.050,2.081 7.321,2.037 7.483 C 1.954 7.786,2.015 8.024,2.229 8.238 C 2.540 8.550,2.998 8.541,3.295 8.218 C 3.582 7.907,3.570 7.489,3.266 7.194 C 3.047 6.981,2.800 6.920,2.507 7.004 M9.507 7.038 C 9.347 7.084,9.081 7.355,9.037 7.517 C 8.954 7.819,9.015 8.057,9.229 8.271 C 9.538 8.580,9.962 8.580,10.271 8.271 C 10.580 7.962,10.581 7.533,10.271 7.233 C 10.052 7.020,9.795 6.955,9.507 7.038 M5.968 7.802 C 5.702 7.914,5.501 8.215,5.501 8.500 C 5.501 8.701,5.629 8.968,5.782 9.084 C 6.170 9.381,6.703 9.256,6.917 8.819 C 7.033 8.582,7.023 8.352,6.887 8.121 C 6.750 7.886,6.576 7.786,6.286 7.776 C 6.156 7.771,6.013 7.783,5.968 7.802 M10.450 10.049 C 9.565 10.211,8.793 10.852,8.443 11.716 C 8.383 11.863,8.334 12.003,8.334 12.026 C 8.334 12.050,8.312 12.077,8.286 12.087 C 8.260 12.097,7.777 11.962,7.211 11.788 C 5.718 11.328,5.733 11.331,5.280 11.310 C 4.474 11.272,3.834 11.451,3.154 11.907 C 2.876 12.093,2.444 12.542,2.291 12.802 C 2.081 13.159,2.017 13.417,2.017 13.900 C 2.017 14.383,2.081 14.639,2.291 14.999 C 2.441 15.257,2.787 15.609,3.037 15.757 C 3.227 15.871,7.379 17.463,7.928 17.633 C 8.293 17.746,8.755 17.847,9.267 17.925 C 9.569 17.972,10.129 17.981,13.387 17.991 C 17.152 18.003,17.157 18.003,17.344 17.933 C 17.458 17.890,17.591 17.804,17.685 17.714 C 18.184 17.228,18.060 16.414,17.441 16.110 L 17.250 16.017 13.483 15.999 C 9.725 15.981,9.716 15.981,9.300 15.904 C 9.071 15.862,8.712 15.775,8.502 15.711 C 7.982 15.554,4.065 14.050,4.029 13.995 C 3.938 13.851,4.131 13.621,4.490 13.443 C 4.707 13.336,4.777 13.318,5.028 13.307 C 5.349 13.292,5.184 13.246,8.344 14.236 C 9.617 14.635,9.781 14.681,10.100 14.731 C 10.412 14.779,12.843 15.000,13.064 15.000 C 13.549 14.999,13.959 14.580,13.993 14.050 C 14.018 13.665,13.797 13.285,13.451 13.116 C 13.282 13.033,13.180 13.019,11.845 12.896 C 10.819 12.801,10.397 12.751,10.343 12.715 C 10.188 12.613,10.301 12.301,10.559 12.120 C 10.688 12.029,10.733 12.018,11.075 11.996 C 12.030 11.934,13.143 11.984,13.684 12.115 C 14.547 12.322,15.294 12.748,16.031 13.452 C 16.477 13.878,16.628 13.966,16.948 13.991 C 17.497 14.033,18.000 13.560,18.000 13.000 C 18.000 12.910,17.968 12.749,17.929 12.643 C 17.869 12.479,17.800 12.392,17.467 12.061 C 16.272 10.876,14.796 10.188,13.117 10.034 C 12.589 9.985,10.740 9.996,10.450 10.049 " fill="var(--db-icon-color, currentColor)" stroke="none" fill-rule="evenodd"></path></svg>