<svg id="icon" height="20" viewBox="0 0 20 20" width="20" xmlns="http://www.w3.org/2000/svg"><path d="M5.583 2.036 C 4.969 2.120,4.244 2.406,3.746 2.760 C 2.952 3.325,2.380 4.149,2.137 5.078 C 1.808 6.333,2.100 7.702,2.910 8.703 L 3.074 8.905 3.037 9.261 C 2.990 9.707,2.989 10.334,3.035 10.696 L 3.070 10.973 2.942 11.111 C 1.883 12.262,1.701 13.961,2.494 15.293 C 3.320 16.680,5.036 17.328,6.567 16.832 C 6.899 16.724,7.307 16.517,7.550 16.333 C 7.671 16.242,7.785 16.167,7.804 16.167 C 7.822 16.167,8.101 16.313,8.424 16.492 C 8.940 16.778,9.015 16.831,9.057 16.933 C 9.184 17.242,9.262 17.366,9.448 17.552 C 10.046 18.151,10.953 18.151,11.552 17.552 C 11.844 17.260,11.999 16.895,11.999 16.500 C 11.999 15.581,11.163 14.881,10.244 15.029 L 9.983 15.072 9.433 14.765 C 9.131 14.597,8.882 14.457,8.880 14.455 C 8.877 14.452,8.905 14.285,8.940 14.083 C 8.986 13.823,9.001 13.614,8.992 13.362 L 8.979 13.008 9.175 12.990 C 9.283 12.981,9.519 12.924,9.699 12.865 L 10.026 12.758 10.255 12.844 C 10.595 12.971,10.750 13.005,10.998 13.004 C 11.665 13.002,12.356 12.388,12.249 11.893 C 12.195 11.643,12.032 11.433,11.803 11.317 C 11.689 11.259,11.606 11.259,11.083 11.320 C 10.856 11.346,10.790 11.272,10.741 10.936 C 10.697 10.635,10.584 10.457,10.367 10.343 C 10.241 10.278,10.176 10.267,9.961 10.274 C 9.739 10.282,9.687 10.297,9.563 10.384 C 9.383 10.510,9.273 10.721,9.245 10.993 C 9.227 11.165,9.208 11.215,9.137 11.272 C 9.063 11.330,9.026 11.336,8.883 11.314 C 8.792 11.299,8.604 11.284,8.467 11.281 L 8.217 11.274 7.963 11.023 C 7.260 10.326,6.270 9.949,5.308 10.011 L 5.000 10.032 5.000 9.841 C 5.000 9.608,5.103 8.968,5.213 8.517 C 5.258 8.334,5.292 8.181,5.289 8.179 C 5.286 8.176,5.141 8.058,4.967 7.916 C 4.459 7.503,4.244 7.212,4.095 6.733 C 3.995 6.413,3.988 5.858,4.080 5.550 C 4.286 4.858,4.855 4.285,5.532 4.086 C 6.459 3.814,7.487 4.266,8.083 5.208 L 8.177 5.356 8.527 5.244 C 9.121 5.056,9.360 5.018,9.950 5.019 C 10.540 5.020,10.832 5.062,11.486 5.242 L 11.889 5.353 12.020 5.170 C 12.364 4.689,12.914 4.250,13.363 4.101 C 14.057 3.869,14.887 4.076,15.417 4.613 C 16.159 5.367,16.190 6.543,15.487 7.320 C 15.354 7.467,14.747 7.967,14.644 8.014 C 14.641 8.016,14.676 8.144,14.721 8.300 C 14.917 8.977,14.979 9.381,14.979 9.983 C 14.980 10.875,14.849 11.445,14.466 12.217 C 14.198 12.756,13.940 13.115,13.484 13.579 C 13.094 13.976,13.023 14.112,13.022 14.467 C 13.021 14.663,13.038 14.752,13.101 14.882 C 13.331 15.359,13.867 15.580,14.349 15.398 C 14.511 15.337,14.612 15.260,14.894 14.987 C 16.091 13.824,16.795 12.352,16.969 10.650 C 17.013 10.219,16.996 9.464,16.933 9.023 L 16.896 8.762 17.043 8.589 C 17.543 8.002,17.841 7.359,17.952 6.633 C 18.274 4.510,16.899 2.525,14.801 2.084 C 14.670 2.056,14.395 2.024,14.190 2.013 C 13.212 1.961,12.044 2.361,11.375 2.978 L 11.233 3.109 10.940 3.071 C 10.393 3.001,9.946 2.989,9.427 3.032 L 8.917 3.075 8.600 2.836 C 8.104 2.463,7.541 2.206,6.950 2.084 C 6.629 2.017,5.905 1.992,5.583 2.036 M7.178 7.560 C 6.474 7.811,6.274 8.677,6.798 9.202 C 7.546 9.949,8.803 9.145,8.433 8.157 C 8.245 7.653,7.675 7.382,7.178 7.560 M12.178 7.560 C 11.474 7.811,11.274 8.677,11.798 9.202 C 12.546 9.949,13.803 9.145,13.433 8.157 C 13.245 7.653,12.675 7.382,12.178 7.560 M5.807 12.038 C 6.580 12.202,7.105 12.967,6.973 13.738 C 6.848 14.463,6.222 14.999,5.500 14.999 C 4.778 14.999,4.152 14.463,4.027 13.738 C 3.852 12.718,4.791 11.822,5.807 12.038 " fill="var(--db-icon-color, currentColor)" stroke="none" fill-rule="evenodd"></path></svg>