<svg id="icon" height="32" viewBox="0 0 32 32" width="32" xmlns="http://www.w3.org/2000/svg"><path d="M2.584 9.114 C 2.194 9.291,1.922 9.761,2.005 10.118 C 2.229 11.092,5.572 24.002,5.628 24.109 C 5.957 24.746,6.964 24.793,7.313 24.186 C 7.364 24.099,8.069 21.711,8.880 18.880 C 10.192 14.302,10.400 13.596,10.400 13.721 C 10.400 13.828,13.292 24.028,13.360 24.159 C 13.461 24.356,13.773 24.567,14.032 24.614 C 14.466 24.693,14.962 24.404,15.114 23.984 C 15.159 23.861,15.995 20.712,16.971 16.987 C 18.277 12.005,18.746 10.135,18.746 9.916 C 18.747 9.674,18.720 9.583,18.601 9.428 C 18.163 8.853,17.226 8.892,16.925 9.497 C 16.860 9.627,16.213 11.994,15.486 14.757 C 14.759 17.521,14.159 19.777,14.153 19.771 C 14.147 19.765,13.551 17.636,12.829 15.040 C 11.186 9.135,11.298 9.504,11.082 9.296 C 10.771 8.995,10.351 8.929,9.941 9.115 C 9.527 9.303,9.735 8.675,7.409 16.758 C 6.930 18.422,6.534 19.778,6.528 19.771 C 6.522 19.765,5.938 17.482,5.229 14.698 C 4.521 11.914,3.908 9.574,3.869 9.498 C 3.637 9.054,3.082 8.888,2.584 9.114 M24.789 9.096 C 22.569 9.442,20.965 10.872,20.212 13.178 C 19.844 14.305,19.709 15.330,19.710 17.013 C 19.711 18.678,19.831 19.552,20.221 20.747 C 20.728 22.301,21.680 23.479,22.933 24.105 C 24.303 24.789,25.936 24.951,27.760 24.582 C 28.380 24.457,29.330 24.151,29.581 23.995 C 30.315 23.541,29.986 22.295,29.108 22.204 C 28.943 22.186,28.722 22.232,28.305 22.369 C 27.386 22.670,26.918 22.744,25.920 22.745 C 25.161 22.745,24.982 22.729,24.616 22.623 C 23.067 22.177,22.213 21.052,21.837 18.960 C 21.720 18.309,21.675 16.474,21.755 15.653 C 21.970 13.462,22.717 12.025,23.959 11.417 C 24.626 11.090,24.963 11.020,25.867 11.024 C 26.726 11.028,27.464 11.150,28.097 11.394 C 28.293 11.470,28.559 11.565,28.688 11.606 C 29.277 11.791,29.885 11.303,29.890 10.640 C 29.894 10.116,29.645 9.855,28.846 9.547 C 27.597 9.065,26.073 8.896,24.789 9.096 " fill="var(--db-icon-color, currentColor)" stroke="none" fill-rule="evenodd"></path></svg>