<svg id="icon" height="32" viewBox="0 0 32 32" width="32" xmlns="http://www.w3.org/2000/svg"><path d="M7.924 2.108 C 7.435 2.242,6.977 2.516,6.587 2.907 C 5.075 4.418,5.575 6.952,7.547 7.771 C 9.504 8.584,11.680 7.132,11.680 5.013 C 11.680 3.661,10.750 2.455,9.440 2.106 C 9.079 2.010,8.278 2.011,7.924 2.108 M22.519 2.104 C 21.762 2.287,20.943 2.937,20.601 3.627 C 19.839 5.161,20.424 6.955,21.920 7.668 C 22.632 8.007,23.241 8.083,23.934 7.920 C 25.761 7.489,26.739 5.503,25.974 3.775 C 25.624 2.983,24.853 2.333,23.993 2.104 C 23.645 2.011,22.901 2.011,22.519 2.104 M9.157 4.165 C 9.596 4.377,9.812 5.035,9.586 5.468 C 9.096 6.406,7.725 6.093,7.716 5.041 C 7.709 4.282,8.458 3.827,9.157 4.165 M23.696 4.140 C 24.219 4.405,24.407 4.956,24.154 5.480 C 23.804 6.202,22.724 6.197,22.394 5.471 C 22.087 4.794,22.543 4.055,23.269 4.054 C 23.410 4.053,23.602 4.092,23.696 4.140 M6.119 9.550 C 5.582 9.680,5.005 10.157,4.784 10.655 C 4.601 11.068,3.019 19.470,3.020 20.027 C 3.021 20.764,3.449 21.427,4.144 21.769 C 4.465 21.927,4.545 21.943,5.127 21.964 L 5.760 21.986 5.760 25.608 C 5.760 29.598,5.747 29.437,6.098 29.745 C 6.574 30.163,7.370 29.994,7.631 29.420 C 7.726 29.211,7.731 28.992,7.728 25.013 C 7.726 21.942,7.709 20.784,7.663 20.665 C 7.567 20.418,7.458 20.289,7.225 20.152 C 7.028 20.035,6.942 20.025,5.997 20.000 L 4.981 19.973 5.758 15.733 L 6.534 11.493 8.692 11.493 L 10.850 11.493 11.626 15.733 L 12.402 19.973 11.388 20.000 C 10.307 20.028,10.192 20.054,9.936 20.329 C 9.646 20.640,9.653 20.511,9.653 25.013 C 9.653 28.639,9.664 29.202,9.735 29.373 C 9.842 29.629,9.954 29.748,10.207 29.877 C 10.626 30.091,11.127 29.970,11.437 29.582 L 11.600 29.377 11.615 25.682 L 11.629 21.986 12.256 21.964 C 12.819 21.944,12.917 21.925,13.236 21.776 C 13.678 21.569,13.992 21.259,14.190 20.835 C 14.479 20.215,14.499 20.386,13.574 15.440 C 12.659 10.540,12.657 10.534,12.208 10.085 C 12.079 9.956,11.817 9.776,11.627 9.685 L 11.280 9.520 8.800 9.511 C 7.436 9.506,6.230 9.523,6.119 9.550 M19.265 9.549 C 18.474 9.708,17.785 10.500,17.722 11.323 C 17.703 11.566,17.875 12.922,18.371 16.453 C 19.006 20.980,19.053 21.267,19.189 21.489 C 19.388 21.815,19.699 21.973,20.140 21.973 L 20.477 21.973 20.492 25.613 C 20.506 29.059,20.512 29.264,20.608 29.456 C 20.812 29.868,21.261 30.064,21.726 29.946 C 22.031 29.869,22.327 29.602,22.404 29.335 C 22.440 29.211,22.453 27.676,22.443 24.876 L 22.427 20.605 22.273 20.403 C 22.054 20.117,21.769 20.003,21.269 20.001 L 20.858 20.000 20.828 19.827 C 20.812 19.731,20.558 17.865,20.265 15.680 C 19.972 13.495,19.720 11.653,19.705 11.587 L 19.678 11.467 23.439 11.467 C 25.508 11.467,27.201 11.485,27.202 11.507 C 27.203 11.529,26.933 13.449,26.602 15.773 L 26.001 20.000 25.612 20.000 C 25.398 20.000,25.145 20.033,25.050 20.072 C 24.831 20.164,24.579 20.428,24.498 20.653 C 24.452 20.781,24.434 21.936,24.431 25.002 C 24.426 29.559,24.415 29.389,24.732 29.719 C 24.968 29.966,25.393 30.050,25.774 29.924 C 25.985 29.855,26.263 29.584,26.343 29.370 C 26.381 29.269,26.400 28.014,26.400 25.570 C 26.400 22.554,26.412 21.920,26.471 21.920 C 26.644 21.920,27.208 21.576,27.437 21.331 C 27.908 20.828,27.877 20.973,28.558 16.101 C 28.896 13.678,29.173 11.583,29.173 11.446 C 29.173 11.309,29.124 11.049,29.063 10.868 C 28.869 10.293,28.542 9.937,27.958 9.663 L 27.653 9.520 23.573 9.512 C 21.329 9.507,19.391 9.524,19.265 9.549 " fill="var(--db-icon-color, currentColor)" stroke="none" fill-rule="evenodd"></path></svg>