<svg id="icon" height="24" viewBox="0 0 24 24" width="24" xmlns="http://www.w3.org/2000/svg"><path d="M2.753 2.055 C 2.068 2.243,1.811 3.118,2.284 3.655 C 2.592 4.005,2.251 3.977,6.520 4.000 C 10.088 4.019,10.310 4.024,10.469 4.094 C 10.563 4.135,10.692 4.229,10.758 4.304 C 10.875 4.438,11.000 4.769,11.000 4.947 L 11.000 5.040 8.915 5.040 C 7.432 5.040,6.784 5.054,6.672 5.087 C 6.586 5.113,6.437 5.203,6.342 5.286 C 5.905 5.672,5.919 6.393,6.372 6.781 C 6.681 7.045,6.605 7.040,9.970 7.040 L 13.006 7.040 12.989 5.750 C 12.971 4.326,12.959 4.243,12.696 3.692 C 12.336 2.936,11.620 2.348,10.771 2.110 C 10.462 2.023,10.431 2.022,6.700 2.013 C 3.739 2.005,2.900 2.014,2.753 2.055 M5.990 8.363 C 5.703 8.514,5.539 8.913,5.639 9.217 C 5.782 9.652,6.257 9.869,6.662 9.685 C 7.389 9.354,7.154 8.275,6.356 8.282 C 6.221 8.283,6.084 8.313,5.990 8.363 M12.058 8.355 C 11.323 8.689,11.558 9.769,12.366 9.769 C 12.833 9.769,13.202 9.293,13.081 8.845 C 12.962 8.401,12.473 8.167,12.058 8.355 M8.973 8.901 C 8.455 9.211,8.504 9.953,9.058 10.205 C 9.473 10.393,9.962 10.159,10.081 9.715 C 10.132 9.526,10.104 9.360,9.986 9.146 C 9.800 8.810,9.319 8.694,8.973 8.901 M5.512 10.842 C 5.161 11.027,5.016 11.479,5.195 11.829 C 5.470 12.370,6.254 12.370,6.515 11.830 C 6.650 11.552,6.606 11.205,6.408 10.987 C 6.207 10.764,5.788 10.696,5.512 10.842 M12.540 10.857 C 12.170 11.022,12.018 11.471,12.198 11.867 C 12.313 12.120,12.548 12.260,12.860 12.260 C 13.175 12.260,13.389 12.130,13.520 11.860 C 13.699 11.490,13.562 11.069,13.200 10.874 C 13.037 10.787,12.716 10.778,12.540 10.857 M9.165 11.559 C 8.678 11.678,8.451 12.268,8.732 12.685 C 9.096 13.225,9.903 13.093,10.079 12.465 C 10.228 11.932,9.715 11.424,9.165 11.559 M13.374 13.759 C 12.493 13.990,11.708 14.741,11.420 15.627 L 11.353 15.834 10.866 15.661 C 10.599 15.565,10.108 15.389,9.775 15.269 C 8.929 14.963,8.818 14.940,8.220 14.941 C 7.595 14.941,7.252 15.025,6.700 15.313 C 6.421 15.458,6.258 15.581,5.972 15.861 C 5.553 16.272,5.366 16.602,5.256 17.121 C 5.110 17.816,5.352 18.596,5.878 19.122 C 6.142 19.387,6.472 19.561,8.340 20.421 C 10.553 21.441,10.978 21.607,11.861 21.798 C 12.749 21.990,13.001 22.000,17.200 22.000 C 19.791 22.000,21.191 21.985,21.289 21.958 C 21.509 21.897,21.762 21.685,21.874 21.469 C 22.080 21.068,22.012 20.610,21.702 20.300 C 21.385 19.983,21.637 20.000,17.235 20.000 C 13.007 20.000,12.844 19.993,12.030 19.781 C 11.425 19.624,11.128 19.502,9.166 18.598 C 7.275 17.728,7.162 17.663,7.219 17.483 C 7.259 17.358,7.467 17.168,7.695 17.049 C 7.872 16.956,7.947 16.941,8.240 16.943 C 8.578 16.944,8.591 16.948,10.180 17.536 C 12.460 18.380,12.716 18.469,13.066 18.538 C 13.484 18.621,16.010 18.768,16.214 18.722 C 16.964 18.552,17.249 17.649,16.734 17.079 C 16.481 16.798,16.379 16.777,14.840 16.679 C 13.337 16.584,13.310 16.579,13.310 16.343 C 13.310 16.170,13.519 15.877,13.716 15.773 C 13.891 15.681,13.907 15.680,15.216 15.680 C 15.944 15.680,16.651 15.699,16.787 15.721 C 17.498 15.836,18.439 16.236,19.022 16.670 C 19.197 16.800,19.601 17.126,19.920 17.393 C 20.573 17.939,20.744 18.025,21.107 17.988 C 21.801 17.916,22.193 17.186,21.882 16.544 C 21.811 16.397,21.638 16.232,21.007 15.707 C 19.916 14.800,19.492 14.525,18.660 14.186 C 18.418 14.087,18.034 13.959,17.807 13.902 C 17.050 13.710,16.700 13.681,15.120 13.683 C 13.824 13.684,13.628 13.693,13.374 13.759 " fill="var(--db-icon-color, currentColor)" stroke="none" fill-rule="evenodd"></path></svg>