<svg id="icon" height="24" viewBox="0 0 24 24" width="24" xmlns="http://www.w3.org/2000/svg"><path d="M5.783 2.044 C 5.507 2.100,5.058 2.317,4.813 2.512 C 4.547 2.724,4.254 3.136,4.129 3.474 C 4.008 3.801,3.965 4.402,4.039 4.725 C 4.225 5.530,4.852 6.187,5.660 6.422 C 5.991 6.518,6.544 6.510,6.880 6.404 C 7.473 6.217,7.999 5.768,8.254 5.230 C 8.955 3.755,7.962 2.089,6.340 2.019 C 6.142 2.011,5.891 2.022,5.783 2.044 M16.800 2.063 C 16.312 2.168,15.866 2.449,15.533 2.859 C 14.985 3.535,14.892 4.462,15.291 5.277 C 15.452 5.607,15.887 6.051,16.220 6.227 C 16.775 6.519,17.404 6.575,17.974 6.383 C 19.567 5.848,20.057 3.862,18.887 2.685 C 18.324 2.118,17.575 1.895,16.800 2.063 M4.020 7.815 C 3.446 8.001,3.005 8.428,2.860 8.940 C 2.829 9.050,2.621 10.256,2.398 11.620 C 1.953 14.338,1.946 14.432,2.125 14.898 C 2.236 15.185,2.585 15.576,2.870 15.731 C 3.099 15.855,3.473 15.960,3.688 15.960 L 3.840 15.960 3.840 18.565 C 3.840 20.427,3.853 21.215,3.886 21.326 C 3.990 21.671,4.426 21.999,4.783 22.000 C 5.167 22.001,5.523 21.779,5.696 21.432 L 5.800 21.224 5.800 18.027 C 5.800 15.716,5.787 14.786,5.754 14.674 C 5.693 14.473,5.475 14.220,5.266 14.110 C 5.125 14.036,5.019 14.020,4.570 14.007 C 4.148 13.995,4.040 13.981,4.040 13.936 C 4.040 13.875,4.628 9.971,4.664 9.790 L 4.686 9.680 6.243 9.680 C 7.099 9.680,7.800 9.685,7.800 9.691 C 7.800 9.698,7.953 10.662,8.140 11.835 C 8.327 13.008,8.480 13.973,8.480 13.980 C 8.480 13.987,8.242 13.998,7.950 14.006 C 7.453 14.019,7.408 14.027,7.228 14.133 C 6.989 14.273,6.819 14.504,6.763 14.764 C 6.704 15.040,6.704 20.960,6.763 21.236 C 6.850 21.641,7.195 21.945,7.618 21.988 C 8.003 22.028,8.382 21.820,8.572 21.464 C 8.660 21.301,8.660 21.291,8.671 18.635 L 8.682 15.971 8.911 15.950 C 9.581 15.888,10.138 15.474,10.369 14.865 C 10.528 14.448,10.518 14.327,10.102 11.680 C 9.889 10.327,9.697 9.140,9.675 9.042 C 9.572 8.575,9.203 8.132,8.729 7.907 L 8.460 7.780 6.320 7.772 C 4.662 7.766,4.144 7.775,4.020 7.815 M14.265 7.804 C 14.001 7.867,13.645 8.084,13.444 8.303 C 13.157 8.618,13.003 8.993,13.001 9.387 C 13.000 9.615,13.788 14.969,13.860 15.221 C 13.968 15.602,14.371 16.071,14.722 16.226 L 14.880 16.295 14.880 18.622 C 14.880 20.031,14.896 21.034,14.921 21.165 C 15.075 21.981,16.033 22.281,16.574 21.681 C 16.855 21.371,16.844 21.519,16.831 18.160 L 16.820 15.140 16.723 14.971 C 16.564 14.694,16.168 14.480,15.814 14.480 C 15.740 14.480,15.680 14.463,15.680 14.442 C 15.680 14.421,15.527 13.348,15.340 12.056 C 15.153 10.765,15.000 9.703,15.000 9.695 C 15.000 9.687,16.035 9.680,17.301 9.680 L 19.602 9.680 19.581 9.770 C 19.570 9.820,19.425 10.859,19.260 12.080 C 19.094 13.301,18.951 14.338,18.940 14.384 C 18.925 14.454,18.883 14.473,18.702 14.491 C 18.442 14.518,18.109 14.687,17.992 14.851 C 17.802 15.119,17.800 15.148,17.800 18.239 C 17.800 21.459,17.792 21.356,18.060 21.670 C 18.547 22.238,19.484 22.024,19.703 21.295 C 19.749 21.142,19.760 20.661,19.760 18.702 L 19.760 16.296 19.899 16.246 C 20.082 16.180,20.456 15.836,20.585 15.614 C 20.642 15.518,20.714 15.354,20.745 15.250 C 20.828 14.975,21.566 9.708,21.565 9.400 C 21.562 8.755,21.194 8.203,20.569 7.907 L 20.300 7.780 17.360 7.773 C 15.667 7.770,14.354 7.783,14.265 7.804 " fill="var(--db-icon-color, currentColor)" stroke="none" fill-rule="evenodd"></path></svg>