<svg id="icon" height="32" viewBox="0 0 32 32" width="32" xmlns="http://www.w3.org/2000/svg"><path d="M2.693 3.065 C 2.422 3.163,2.103 3.501,2.032 3.767 C 1.925 4.171,2.165 4.698,2.542 4.885 C 2.736 4.982,2.953 4.988,6.907 5.015 C 9.703 5.033,11.119 5.061,11.227 5.100 C 12.199 5.452,12.835 6.215,12.963 7.182 C 12.993 7.412,13.011 8.140,13.002 8.800 L 12.987 10.000 11.000 10.014 L 9.013 10.028 9.013 9.688 C 9.013 8.330,8.132 7.237,6.880 7.042 C 6.400 6.967,3.020 6.971,2.747 7.046 C 2.287 7.174,2.006 7.544,2.011 8.016 C 2.015 8.352,2.240 8.722,2.533 8.875 C 2.737 8.982,2.838 8.987,4.726 9.002 L 6.705 9.017 6.832 9.153 C 6.945 9.272,6.964 9.357,6.994 9.858 C 7.017 10.244,7.066 10.525,7.145 10.733 C 7.306 11.158,7.702 11.578,8.150 11.799 L 8.504 11.973 10.986 11.973 C 13.463 11.973,13.467 11.973,13.776 11.849 C 14.176 11.687,14.621 11.256,14.815 10.843 L 14.960 10.533 14.960 8.587 L 14.960 6.640 14.788 6.133 C 14.280 4.637,13.131 3.557,11.600 3.135 C 11.179 3.019,11.114 3.017,7.040 3.003 C 3.549 2.991,2.874 3.000,2.693 3.065 M7.600 13.089 C 7.280 13.232,6.985 13.676,6.988 14.012 C 6.990 14.348,7.318 14.807,7.643 14.930 C 7.985 15.059,8.394 14.979,8.660 14.730 C 8.848 14.555,9.011 14.215,9.011 14.000 C 9.011 13.654,8.688 13.195,8.357 13.070 C 8.153 12.993,7.795 13.002,7.600 13.089 M13.602 13.098 C 13.232 13.258,13.013 13.593,13.013 14.000 C 13.013 14.413,13.234 14.746,13.614 14.905 C 13.960 15.049,14.410 14.976,14.686 14.731 C 14.840 14.594,14.984 14.241,14.984 14.000 C 14.984 13.759,14.840 13.406,14.686 13.269 C 14.410 13.024,13.942 12.950,13.602 13.098 M10.587 14.089 C 10.144 14.333,9.938 14.760,10.038 15.228 C 10.144 15.728,10.645 16.055,11.181 15.975 C 11.391 15.943,11.485 15.890,11.688 15.688 C 11.890 15.485,11.943 15.391,11.975 15.181 C 12.073 14.528,11.636 14.024,10.975 14.028 C 10.820 14.029,10.645 14.056,10.587 14.089 M6.852 16.341 C 6.518 16.486,6.252 16.887,6.245 17.253 C 6.239 17.594,6.564 18.057,6.897 18.183 C 7.103 18.261,7.436 18.254,7.643 18.168 C 7.947 18.041,8.266 17.573,8.266 17.253 C 8.266 16.934,7.947 16.466,7.643 16.339 C 7.426 16.248,7.063 16.249,6.852 16.341 M14.320 16.355 C 13.964 16.544,13.762 16.868,13.762 17.253 C 13.762 17.494,13.907 17.848,14.061 17.985 C 14.216 18.122,14.533 18.240,14.747 18.240 C 14.961 18.240,15.279 18.121,15.430 17.985 C 15.771 17.677,15.831 17.035,15.554 16.671 C 15.271 16.300,14.701 16.154,14.320 16.355 M10.587 17.102 C 10.095 17.361,9.903 17.837,10.078 18.366 C 10.158 18.611,10.502 18.918,10.747 18.964 C 11.664 19.136,12.326 18.205,11.825 17.448 C 11.573 17.068,10.971 16.900,10.587 17.102 M18.529 19.043 C 18.070 19.102,17.408 19.372,16.976 19.676 C 16.230 20.200,15.745 20.907,15.520 21.800 C 15.488 21.925,15.442 22.027,15.416 22.027 C 15.391 22.027,14.702 21.766,13.885 21.447 C 12.247 20.809,11.930 20.714,11.194 20.645 C 9.726 20.507,8.137 21.007,7.195 21.903 C 6.286 22.768,6.211 24.104,7.016 25.097 C 7.393 25.562,7.529 25.621,11.787 27.163 C 14.001 27.965,15.957 28.660,16.133 28.708 C 17.075 28.963,17.248 28.975,20.800 29.011 L 24.187 29.045 26.507 29.517 C 27.783 29.777,28.929 29.986,29.054 29.983 C 29.179 29.979,29.349 29.940,29.433 29.897 C 29.637 29.791,29.911 29.471,29.950 29.292 C 29.968 29.212,29.990 29.120,30.000 29.087 C 30.037 28.963,29.909 28.556,29.781 28.388 C 29.708 28.292,29.574 28.175,29.483 28.128 C 29.250 28.007,24.629 27.104,23.920 27.040 C 23.597 27.011,22.085 26.987,20.560 26.987 C 17.555 26.986,17.239 26.964,16.368 26.688 C 15.240 26.332,8.607 23.886,8.547 23.804 C 8.344 23.528,8.548 23.262,9.202 22.951 C 9.883 22.627,10.685 22.534,11.437 22.694 C 11.640 22.737,12.972 23.238,14.397 23.809 C 15.821 24.379,17.083 24.875,17.200 24.912 C 17.491 25.004,21.918 25.047,22.235 24.961 C 22.501 24.890,22.816 24.624,22.915 24.389 C 23.062 24.036,22.988 23.615,22.730 23.342 C 22.414 23.008,22.476 23.016,20.019 22.987 C 17.515 22.957,17.621 22.974,17.492 22.584 C 17.325 22.076,17.943 21.247,18.626 21.063 C 18.772 21.024,19.567 21.013,21.087 21.028 C 23.121 21.048,23.379 21.061,23.813 21.161 C 25.029 21.441,25.696 21.790,27.319 22.995 C 27.986 23.490,28.594 23.919,28.670 23.948 C 29.027 24.084,29.537 23.932,29.777 23.618 C 30.015 23.306,30.055 22.859,29.876 22.525 C 29.674 22.147,27.463 20.523,26.423 19.990 C 25.422 19.476,24.260 19.145,23.093 19.042 C 22.385 18.979,19.010 18.980,18.529 19.043 " fill="var(--db-icon-color, currentColor)" stroke="none" fill-rule="evenodd"></path></svg>