<svg id="icon" height="24" viewBox="0 0 24 24" width="24" xmlns="http://www.w3.org/2000/svg"><path d="M16.664 2.060 C 16.433 2.148,16.256 2.299,16.131 2.511 L 16.020 2.700 16.008 4.099 C 15.999 5.133,15.984 5.506,15.948 5.528 C 15.922 5.545,15.828 5.559,15.740 5.559 C 15.467 5.561,14.527 5.678,13.940 5.784 C 13.070 5.941,12.600 6.067,12.421 6.192 C 11.833 6.601,11.881 7.499,12.510 7.868 C 12.774 8.023,13.052 8.016,13.920 7.832 C 15.114 7.580,15.531 7.540,17.000 7.540 C 18.469 7.540,18.886 7.580,20.080 7.832 C 20.948 8.016,21.226 8.023,21.490 7.868 C 22.023 7.556,22.156 6.870,21.780 6.377 C 21.633 6.183,21.451 6.090,21.015 5.982 C 20.237 5.790,18.742 5.560,18.273 5.560 C 17.981 5.560,18.000 5.655,18.000 4.203 C 18.000 2.713,17.983 2.596,17.728 2.333 C 17.645 2.247,17.508 2.144,17.423 2.104 C 17.216 2.006,16.860 1.985,16.664 2.060 M6.740 7.026 C 5.240 7.347,4.104 8.677,4.013 10.220 C 3.896 12.215,5.498 13.919,7.500 13.926 C 10.334 13.938,11.994 10.694,10.339 8.380 C 9.854 7.703,9.069 7.192,8.241 7.017 C 7.902 6.945,7.097 6.950,6.740 7.026 M8.060 9.043 C 8.374 9.161,8.715 9.486,8.863 9.809 C 8.962 10.026,8.978 10.109,8.979 10.420 C 8.980 10.741,8.966 10.809,8.854 11.045 C 8.693 11.385,8.500 11.597,8.208 11.752 C 7.788 11.977,7.299 11.986,6.860 11.778 C 6.595 11.653,6.268 11.309,6.128 11.010 C 5.983 10.697,5.975 10.164,6.112 9.863 C 6.376 9.284,6.873 8.963,7.508 8.961 C 7.745 8.960,7.899 8.983,8.060 9.043 M13.689 9.059 C 12.989 9.277,12.775 10.177,13.298 10.700 C 13.761 11.163,14.531 11.065,14.862 10.501 C 15.175 9.966,14.898 9.235,14.316 9.063 C 14.065 8.988,13.919 8.987,13.689 9.059 M19.689 9.059 C 19.454 9.132,19.263 9.287,19.131 9.511 C 19.036 9.672,19.020 9.744,19.020 10.000 C 19.020 10.256,19.036 10.328,19.131 10.489 C 19.470 11.065,20.234 11.168,20.701 10.701 C 21.094 10.308,21.092 9.690,20.697 9.295 C 20.433 9.031,20.059 8.943,19.689 9.059 M16.617 9.577 C 16.108 9.798,15.866 10.414,16.095 10.900 C 16.276 11.281,16.595 11.488,17.000 11.488 C 17.405 11.488,17.724 11.281,17.905 10.900 C 18.136 10.410,17.888 9.790,17.374 9.575 C 17.208 9.505,16.778 9.506,16.617 9.577 M12.689 12.059 C 11.989 12.277,11.775 13.177,12.298 13.700 C 12.761 14.163,13.531 14.065,13.862 13.501 C 14.175 12.966,13.898 12.235,13.316 12.063 C 13.065 11.988,12.919 11.987,12.689 12.059 M20.664 12.063 C 19.977 12.314,19.783 13.185,20.298 13.700 C 20.691 14.093,21.309 14.093,21.702 13.700 C 22.232 13.170,22.009 12.272,21.295 12.057 C 21.062 11.986,20.867 11.988,20.664 12.063 M16.617 12.577 C 16.108 12.798,15.866 13.414,16.095 13.900 C 16.276 14.281,16.595 14.488,17.000 14.488 C 17.405 14.488,17.724 14.281,17.905 13.900 C 18.136 13.410,17.888 12.790,17.374 12.575 C 17.208 12.505,16.778 12.506,16.617 12.577 M4.620 16.028 C 3.334 16.215,2.305 17.211,2.057 18.509 C 1.984 18.889,1.976 21.089,2.046 21.323 C 2.187 21.794,2.823 22.109,3.302 21.946 C 3.558 21.858,3.736 21.715,3.869 21.489 L 3.980 21.300 4.000 20.020 L 4.020 18.740 4.138 18.526 C 4.273 18.282,4.501 18.106,4.764 18.040 C 4.885 18.010,5.780 18.000,7.620 18.008 C 10.145 18.019,10.308 18.024,10.440 18.095 C 10.636 18.199,10.793 18.353,10.894 18.540 C 10.976 18.692,10.981 18.765,11.000 20.000 L 11.020 21.300 11.131 21.489 C 11.469 22.064,12.217 22.167,12.694 21.704 C 12.985 21.421,13.000 21.332,13.000 19.931 C 13.000 18.981,12.986 18.650,12.937 18.408 C 12.706 17.282,11.922 16.454,10.740 16.086 C 10.568 16.033,10.137 16.023,7.640 16.017 C 6.045 16.013,4.686 16.018,4.620 16.028 " fill="var(--db-icon-color, currentColor)" stroke="none" fill-rule="evenodd"></path></svg>