<svg width="12" height="12" viewBox="0 0 12 12" fill="none" xmlns="http://www.w3.org/2000/svg">
<g clip-path="url(#clip0_232_283)">
<path fill-rule="evenodd" clip-rule="evenodd" d="M2.40563 6.60558L4.80005 6.6C5.13215 6.6 5.39447 6.87906 5.39447 7.21116L5.40005 9.6C5.40005 9.93204 5.13215 10.2 4.80005 10.2C4.46795 10.2 4.20005 9.93204 4.20005 9.6V7.8H2.40005C2.06795 7.8 1.80005 7.5321 1.80005 7.2C1.80005 6.8679 2.07353 6.60558 2.40563 6.60558ZM9.60005 6.6C9.93209 6.6 10.2 6.8679 10.2 7.2C10.2 7.5321 9.91259 7.8 9.60005 7.8H7.80005V9.6C7.80005 9.93204 7.53215 10.2 7.20005 10.2C6.86795 10.2 6.60005 9.93204 6.60005 9.6L6.60563 7.21116C6.60563 6.87906 6.86795 6.6 7.20005 6.6H9.60005ZM9.60287 5.4H7.20005C6.86795 5.4 6.60005 5.1321 6.60005 4.8L6.60563 2.40558C6.60563 2.07348 6.85679 1.80558 7.18889 1.80558C7.52099 1.80558 7.80005 2.09022 7.80005 2.42232V4.2H9.59729C9.90983 4.2 10.2 4.4679 10.2 4.8C10.2 5.1321 9.93491 5.4 9.60287 5.4ZM2.40563 5.39442C2.07353 5.39442 1.80005 5.1321 1.80005 4.8C1.80005 4.4679 2.06795 4.2 2.40005 4.2H4.20005V2.42232C4.20005 2.09022 4.45679 1.8 4.78889 1.8C5.12099 1.8 5.39447 2.07348 5.39447 2.40558L5.40005 4.8C5.40005 5.1321 5.13215 5.4 4.80005 5.4L2.40563 5.39442Z" fill="#1A1C1F"/>
</g>
<defs>
<clipPath id="clip0_232_283">
<rect width="12" height="12" fill="white"/>
</clipPath>
</defs>
</svg>
