<svg width="12" height="12" viewBox="0 0 12 12" fill="none" xmlns="http://www.w3.org/2000/svg">
<g clip-path="url(#clip0_232_281)">
<path fill-rule="evenodd" clip-rule="evenodd" d="M2.40005 7.2C2.73755 7.2 3.01877 7.4625 3.01877 7.8V9H4.20005C4.53755 9 4.80005 9.2625 4.80005 9.6C4.80005 9.91872 4.53755 10.2 4.20005 10.2H2.40005C2.08133 10.2 1.80005 9.91872 1.80005 9.6V7.8C1.80005 7.4625 2.08133 7.2 2.40005 7.2ZM9.58133 7.21872C9.91877 7.21872 10.1813 7.48128 10.1813 7.81872V9.6C10.1813 9.91872 9.91877 10.2 9.58133 10.2H7.78133C7.44377 10.2 7.18133 9.91872 7.18133 9.6C7.18133 9.2625 7.44377 9 7.78133 9H8.98133V7.81872C8.98133 7.48128 9.26255 7.21872 9.58133 7.21872ZM9.60005 1.8C9.91877 1.8 10.2 2.08128 10.2 2.4V4.2C10.2 4.5375 9.91877 4.8 9.60005 4.8C9.26255 4.8 8.98133 4.5375 8.98133 4.2V3H7.80005C7.46255 3 7.20005 2.7375 7.20005 2.4C7.20005 2.08128 7.46255 1.8 7.80005 1.8H9.60005ZM4.20005 1.8C4.53755 1.8 4.80005 2.08128 4.80005 2.4C4.80005 2.7375 4.53755 3 4.20005 3H3.00005V4.2C3.00005 4.5375 2.73755 4.8 2.40005 4.8C2.08133 4.8 1.80005 4.5375 1.80005 4.2V2.4C1.80005 2.08128 2.08133 1.8 2.40005 1.8H4.20005Z" fill="#1A1C1F"/>
</g>
<defs>
<clipPath id="clip0_232_281">
<rect width="12" height="12" fill="white"/>
</clipPath>
</defs>
</svg>
