<svg width="20" height="20" viewBox="0 0 20 20" fill="none" xmlns="http://www.w3.org/2000/svg">
<g clip-path="url(#clip0_185_1325)">
<path fill-rule="evenodd" clip-rule="evenodd" d="M4 12C4.5625 12 5.0312 12.4375 5.0312 13V15H7C7.5625 15 8 15.4375 8 16C8 16.5312 7.5625 17 7 17H4C3.4688 17 3 16.5312 3 16V13C3 12.4375 3.4688 12 4 12ZM15.9688 12.0312C16.5312 12.0312 16.9688 12.4688 16.9688 13.0312V16C16.9688 16.5312 16.5312 17 15.9688 17H12.9688C12.4062 17 11.9688 16.5312 11.9688 16C11.9688 15.4375 12.4062 15 12.9688 15H14.9688V13.0312C14.9688 12.4688 15.4375 12.0312 15.9688 12.0312ZM16 3C16.5312 3 17 3.4688 17 4V7C17 7.5625 16.5312 8 16 8C15.4375 8 14.9688 7.5625 14.9688 7V5H13C12.4375 5 12 4.5625 12 4C12 3.4688 12.4375 3 13 3H16ZM7 3C7.5625 3 8 3.4688 8 4C8 4.5625 7.5625 5 7 5H5V7C5 7.5625 4.5625 8 4 8C3.4688 8 3 7.5625 3 7V4C3 3.4688 3.4688 3 4 3H7Z" fill="#1A1C1F"/>
</g>
<defs>
<clipPath id="clip0_185_1325">
<rect width="20" height="20" fill="white"/>
</clipPath>
</defs>
</svg>
