<svg width="24" height="24" viewBox="0 0 24 24" fill="none" xmlns="http://www.w3.org/2000/svg">
<g clip-path="url(#clip0_185_1336)">
<path fill-rule="evenodd" clip-rule="evenodd" d="M9.03118 21C8.53118 21 8 20.5937 8 19.9687V16H4C3.46872 16 3 15.5313 3 14.9688C3 14.4375 3.46872 14 4 14H9C9.56246 14 10 14.4375 10 14.9688V19.9687C10 20.5313 9.56246 21 9.03118 21ZM16 19.9687C16 20.5937 15.4688 21 14.9688 21C14.4375 21 14 20.5313 14 19.9687V14.9688C14 14.4375 14.4375 14 15 14H20C20.5313 14 21 14.4375 21 14.9688C21 15.5313 20.5313 16 20 16H16V19.9687ZM14.9688 3C15.4688 3 16 3.40626 16 4.03128V8H20C20.5313 8 21 8.46872 21 9.03118C21 9.56246 20.5313 10 20 10H15C14.4375 10 14 9.56246 14 9.03118V4.03128C14 3.46872 14.4375 3 14.9688 3ZM8 4.03128C8 3.40626 8.53118 3 9.03118 3C9.56246 3 10 3.46872 10 4.03128V9.03118C10 9.56246 9.56246 10 9 10H4C3.46872 10 3 9.56246 3 9.03118C3 8.46872 3.46872 8 4 8H8V4.03128Z" fill="#1A1C1F"/>
</g>
<defs>
<clipPath id="clip0_185_1336">
<rect width="24" height="24" fill="white"/>
</clipPath>
</defs>
</svg>
