<svg width="24" height="24" viewBox="0 0 24 24" fill="none" xmlns="http://www.w3.org/2000/svg">
<g clip-path="url(#clip0_185_1323)">
<path fill-rule="evenodd" clip-rule="evenodd" d="M4 14C4.4688 14 5 14.4062 5 15.0312V19H9.0312C9.5625 19 10 19.4688 10 20C10 20.5625 9.5625 21 9.0312 21H4C3.4375 21 3 20.5625 3 20V15.0312C3 14.4375 3.4375 14 4 14ZM20 14C20.5625 14 21 14.4688 21 15.0312V20C21 20.5625 20.5625 21 20 21H14.9688C14.4375 21 14 20.5625 14 20C14 19.4688 14.4375 19 14.9688 19H19V15.0312C19 14.4688 19.4375 14 20 14ZM20 3C20.5625 3 21 3.4375 21 4V9C21 9.5938 20.5625 10 20 10C19.4375 10 19 9.5625 19 9V5H14.9688C14.4375 5 14 4.5625 14 4C14 3.4688 14.4375 3 14.9688 3H20ZM9.0312 3C9.5625 3 10 3.4688 10 4C10 4.5625 9.5625 5 9.0312 5H5V9C5 9.5938 4.5625 10 4 10C3.4375 10 3 9.5625 3 9V4C3 3.4375 3.4375 3 4 3H9.0312Z" fill="#1A1C1F"/>
</g>
<defs>
<clipPath id="clip0_185_1323">
<rect width="24" height="24" fill="white"/>
</clipPath>
</defs>
</svg>
