<svg width="32" height="32" viewBox="0 0 32 32" fill="none" xmlns="http://www.w3.org/2000/svg">
<g clip-path="url(#clip0_185_1358)">
<path fill-rule="evenodd" clip-rule="evenodd" d="M11 24.0001H26C26.5625 24.0003 27 23.5628 27 23.0001C27 22.4378 26.5625 22.0003 26 22.0001H11C10.4375 22.0003 10 22.4378 10 23.0001C10 23.5628 10.4375 24.0003 11 24.0001ZM6 24.0001H7C7.5625 24.0003 8 23.5628 8 23.0001C8 22.4378 7.5625 22.0003 7 22.0001H6C5.4375 22.0003 5 22.4378 5 23.0001C5 23.5628 5.4375 24.0003 6 24.0001ZM26 17C26.5625 17.0002 27 16.5627 27 16C27 15.4377 26.5625 15.0002 26 15H11C10.4375 15.0002 10 15.4377 10 16C10 16.5627 10.4375 17.0002 11 17H26ZM7 17C7.5625 17.0002 8 16.5627 8 16C8 15.4377 7.5625 15.0002 7 15H6C5.4375 15.0002 5 15.4377 5 16C5 16.5627 5.4375 17.0002 6 17H7ZM26 9.99995C26.5625 10.0002 27 9.56265 27 8.99995C27 8.43765 26.5625 8.00015 26 7.99995H11C10.4375 8.00015 10 8.43765 10 8.99995C10 9.56265 10.4375 10.0002 11 9.99995H26ZM7 9.99995C7.5625 10.0002 8 9.56265 8 8.99995C8 8.43765 7.5625 8.00015 7 7.99995H6C5.4375 8.00015 5 8.43765 5 8.99995C5 9.56265 5.4375 10.0002 6 9.99995H7Z" fill="#1A1C1F"/>
</g>
<defs>
<clipPath id="clip0_185_1358">
<rect width="32" height="32" fill="white"/>
</clipPath>
</defs>
</svg>
