<svg width="24" height="24" viewBox="0 0 24 24" fill="none" xmlns="http://www.w3.org/2000/svg">
<g clip-path="url(#clip0_185_1362)">
<path fill-rule="evenodd" clip-rule="evenodd" d="M10.0065 19H18.9935C19.5455 19 20 18.5739 20 17.9837C20 17.4591 19.5455 17 18.9935 17H10.0065C9.45451 17 9 17.4591 9 17.9837C9 18.5739 9.45451 19 10.0065 19ZM5.00003 19H6.00007C6.58063 19 7 18.5739 7 17.9837C7 17.4591 6.58063 17 6.00007 17H5.00003C4.45159 17 4 17.4591 4 17.9837C4 18.5739 4.45159 19 5.00003 19ZM10.0065 13.0021H18.9935C19.5455 13.0021 20 12.5504 20 12.0021C20 11.4538 19.5455 11.0021 18.9935 11.0021H10.0065C9.45451 11.0021 9 11.4538 9 12.0021C9 12.5504 9.45451 13.0021 10.0065 13.0021ZM5.00003 13.0021H6.00007C6.58063 13.0021 7 12.5504 7 12.0021C7 11.4538 6.58063 11.0021 6.00007 11.0021H5.00003C4.45159 11.0021 4 11.4538 4 12.0021C4 12.5504 4.45159 13.0021 5.00003 13.0021ZM10.0065 7H18.9935C19.5455 7 20 6.57376 20 6.01632C20 5.45899 19.5455 5 18.9935 5H10.0065C9.45451 5 9 5.45899 9 6.01632C9 6.57376 9.45451 7 10.0065 7ZM5.00003 7H6.00007C6.58063 7 7 6.57376 7 6.01632C7 5.45899 6.58063 5 6.00007 5H5.00003C4.45159 5 4 5.45899 4 6.01632C4 6.57376 4.45159 7 5.00003 7Z" fill="#1A1C1F"/>
</g>
<defs>
<clipPath id="clip0_185_1362">
<rect width="24" height="24" fill="white"/>
</clipPath>
</defs>
</svg>
