<svg width="14" height="14" viewBox="0 0 14 14" fill="none" xmlns="http://www.w3.org/2000/svg">
<g clip-path="url(#clip0_2209_4434)">
<path fill-rule="evenodd" clip-rule="evenodd" d="M8.05 11.5501C7.8708 11.5501 7.6916 11.4815 7.5551 11.345C7.2814 11.0713 7.2814 10.6289 7.5551 10.3552L10.3551 7.5552C10.6288 7.2815 11.0712 7.2815 11.3449 7.5552C11.6186 7.8289 11.6186 8.2713 11.3449 8.545L8.5449 11.345C8.4084 11.4815 8.2292 11.5501 8.05 11.5501ZM3.15 11.5501C2.9708 11.5501 2.7916 11.4815 2.6551 11.345C2.3814 11.0713 2.3814 10.6289 2.6551 10.3552L10.3551 2.6552C10.6288 2.3815 11.0712 2.3815 11.3449 2.6552C11.6186 2.9289 11.6186 3.3713 11.3449 3.645L3.6449 11.345C3.5084 11.4815 3.3292 11.5501 3.15 11.5501Z" fill="#1A1C1F"/>
</g>
<defs>
<clipPath id="clip0_2209_4434">
<rect width="14" height="14" fill="white"/>
</clipPath>
</defs>
</svg>
