<svg width="24" height="24" viewBox="0 0 24 24" fill="none" xmlns="http://www.w3.org/2000/svg">
<g clip-path="url(#clip0_2209_4428)">
<path fill-rule="evenodd" clip-rule="evenodd" d="M13.5 20.0001C13.244 20.0001 12.988 19.9021 12.793 19.7071C12.402 19.3161 12.402 18.6841 12.793 18.2931L18.293 12.7931C18.684 12.4021 19.316 12.4021 19.707 12.7931C20.098 13.1841 20.098 13.8161 19.707 14.2071L14.207 19.7071C14.012 19.9021 13.756 20.0001 13.5 20.0001ZM5.00001 20.0001C4.74401 20.0001 4.48801 19.9021 4.29301 19.7071C3.90201 19.3161 3.90201 18.6841 4.29301 18.2931L18.293 4.29313C18.684 3.90213 19.316 3.90213 19.707 4.29313C20.098 4.68413 20.098 5.31613 19.707 5.70713L5.70701 19.7071C5.51201 19.9021 5.25601 20.0001 5.00001 20.0001Z" fill="#1A1C1F"/>
</g>
<defs>
<clipPath id="clip0_2209_4428">
<rect width="24" height="24" fill="white"/>
</clipPath>
</defs>
</svg>
