<svg width="20" height="20" viewBox="0 0 20 20" fill="none" xmlns="http://www.w3.org/2000/svg">
<g clip-path="url(#clip0_185_1507)">
<path fill-rule="evenodd" clip-rule="evenodd" d="M7 12C7.51284 12 8 12.4217 8 13V17C8 17.5128 7.59226 18 7 18H3C2.50812 18 2 17.6065 2 17V13C2 12.4872 2.41955 12 3 12H7ZM16 2C17.0544 2 18 2.86371 18 4V14C18 15.0544 17.1307 16 16 16H10.5C9.94772 16 9.5 15.5523 9.5 15C9.5 14.4872 9.91115 14 10.5 14H16V4H6V9.5C6 10.0523 5.55228 10.5 5 10.5C4.48716 10.5 4 10.0725 4 9.5V4C4 2.94564 4.83524 2 6 2H16ZM6 14H4V16H6V14Z" fill="#1A1C1F"/>
</g>
<defs>
<clipPath id="clip0_185_1507">
<rect width="20" height="20" fill="white"/>
</clipPath>
</defs>
</svg>
