<svg width="16" height="16" viewBox="0 0 16 16" fill="none" xmlns="http://www.w3.org/2000/svg">
<g clip-path="url(#clip0_2209_4432)">
<path fill-rule="evenodd" clip-rule="evenodd" d="M9.2 13.2001C8.9952 13.2001 8.7904 13.1217 8.6344 12.9657C8.3216 12.6529 8.3216 12.1473 8.6344 11.8345L11.8344 8.6345C12.1472 8.3217 12.6528 8.3217 12.9656 8.6345C13.2784 8.9473 13.2784 9.4529 12.9656 9.7657L9.7656 12.9657C9.6096 13.1217 9.4048 13.2001 9.2 13.2001ZM3.6 13.2001C3.3952 13.2001 3.1904 13.1217 3.0344 12.9657C2.7216 12.6529 2.7216 12.1473 3.0344 11.8345L11.8344 3.0345C12.1472 2.7217 12.6528 2.7217 12.9656 3.0345C13.2784 3.3473 13.2784 3.8529 12.9656 4.1657L4.1656 12.9657C4.0096 13.1217 3.8048 13.2001 3.6 13.2001Z" fill="#1A1C1F"/>
</g>
<defs>
<clipPath id="clip0_2209_4432">
<rect width="16" height="16" fill="white"/>
</clipPath>
</defs>
</svg>
