<svg width="28" height="28" viewBox="0 0 28 28" fill="none" xmlns="http://www.w3.org/2000/svg">
<g clip-path="url(#clip0_2209_4426)">
<path fill-rule="evenodd" clip-rule="evenodd" d="M14 23.6251C13.776 23.6251 13.552 23.5393 13.3813 23.3687C13.0392 23.0266 13.0392 22.4736 13.3813 22.1315L22.1313 13.3815C22.4735 13.0393 23.0265 13.0393 23.3686 13.3815C23.7107 13.7236 23.7107 14.2766 23.3686 14.6187L14.6186 23.3687C14.448 23.5393 14.224 23.6251 14 23.6251ZM5.24997 23.6251C5.02597 23.6251 4.80197 23.5393 4.63135 23.3687C4.28922 23.0266 4.28922 22.4736 4.63135 22.1315L22.1313 4.63147C22.4735 4.28935 23.0265 4.28935 23.3686 4.63147C23.7107 4.9736 23.7107 5.5266 23.3686 5.86872L5.8686 23.3687C5.69797 23.5393 5.47397 23.6251 5.24997 23.6251Z" fill="#1A1C1F"/>
</g>
<defs>
<clipPath id="clip0_2209_4426">
<rect width="28" height="28" fill="white"/>
</clipPath>
</defs>
</svg>
