<svg width="20" height="20" viewBox="0 0 20 20" fill="none" xmlns="http://www.w3.org/2000/svg">
<g clip-path="url(#clip0_2209_4430)">
<path fill-rule="evenodd" clip-rule="evenodd" d="M11.5 16.5001C11.244 16.5001 10.988 16.4021 10.793 16.2071C10.402 15.8161 10.402 15.1841 10.793 14.7931L14.793 10.7931C15.184 10.4021 15.816 10.4021 16.207 10.7931C16.598 11.1841 16.598 11.8161 16.207 12.2071L12.207 16.2071C12.012 16.4021 11.756 16.5001 11.5 16.5001ZM4.50001 16.5001C4.24401 16.5001 3.98801 16.4021 3.79301 16.2071C3.40201 15.8161 3.40201 15.1841 3.79301 14.7931L14.793 3.79313C15.184 3.40213 15.816 3.40213 16.207 3.79313C16.598 4.18413 16.598 4.81613 16.207 5.20713L5.20701 16.2071C5.01201 16.4021 4.75601 16.5001 4.50001 16.5001Z" fill="#1A1C1F"/>
</g>
<defs>
<clipPath id="clip0_2209_4430">
<rect width="20" height="20" fill="white"/>
</clipPath>
</defs>
</svg>
