<svg width="32" height="32" viewBox="0 0 32 32" fill="none" xmlns="http://www.w3.org/2000/svg">
<g clip-path="url(#clip0_2209_4424)">
<path fill-rule="evenodd" clip-rule="evenodd" d="M16 27.0001C15.744 27.0001 15.488 26.9021 15.293 26.7071C14.902 26.3161 14.902 25.6841 15.293 25.2931L25.293 15.2931C25.684 14.9021 26.316 14.9021 26.707 15.2931C27.098 15.6841 27.098 16.3161 26.707 16.7071L16.707 26.7071C16.512 26.9021 16.256 27.0001 16 27.0001ZM6.00001 27.0001C5.74401 27.0001 5.48801 26.9021 5.29301 26.7071C4.90201 26.3161 4.90201 25.6841 5.29301 25.2931L25.293 5.29313C25.684 4.90213 26.316 4.90213 26.707 5.29313C27.098 5.68413 27.098 6.31613 26.707 6.70713L6.70701 26.7071C6.51201 26.9021 6.25601 27.0001 6.00001 27.0001Z" fill="#1A1C1F"/>
</g>
<defs>
<clipPath id="clip0_2209_4424">
<rect width="32" height="32" fill="white"/>
</clipPath>
</defs>
</svg>
