<svg width="12" height="12" viewBox="0 0 12 12" fill="none" xmlns="http://www.w3.org/2000/svg">
<g clip-path="url(#clip0_2209_4436)">
<path fill-rule="evenodd" clip-rule="evenodd" d="M6.9 9.90006C6.7464 9.90006 6.5928 9.84126 6.4758 9.72426C6.2412 9.48966 6.2412 9.11046 6.4758 8.87586L8.8758 6.47586C9.1104 6.24126 9.4896 6.24126 9.7242 6.47586C9.9588 6.71046 9.9588 7.08966 9.7242 7.32426L7.3242 9.72426C7.2072 9.84126 7.0536 9.90006 6.9 9.90006ZM2.7 9.90006C2.5464 9.90006 2.3928 9.84126 2.2758 9.72426C2.0412 9.48966 2.0412 9.11046 2.2758 8.87586L8.8758 2.27586C9.1104 2.04126 9.4896 2.04126 9.7242 2.27586C9.9588 2.51046 9.9588 2.88966 9.7242 3.12426L3.1242 9.72426C3.0072 9.84126 2.8536 9.90006 2.7 9.90006Z" fill="#1A1C1F"/>
</g>
<defs>
<clipPath id="clip0_2209_4436">
<rect width="12" height="12" fill="white"/>
</clipPath>
</defs>
</svg>
