<svg width="28" height="28" viewBox="0 0 28 28" fill="none" xmlns="http://www.w3.org/2000/svg">
<g clip-path="url(#clip0_185_1308)">
<path fill-rule="evenodd" clip-rule="evenodd" d="M8.77734 18.3614C10.3906 18.3614 11.7852 19.4824 12.168 21.0137H25.375C25.8672 21.0137 26.25 21.3966 26.25 21.8887C26.25 22.3536 25.8672 22.7637 25.375 22.7637H12.1406C11.7578 24.2676 10.3906 25.3614 8.77734 25.3614C7.13672 25.3614 5.76953 24.2676 5.38672 22.7637H2.625C2.13281 22.7637 1.75 22.3536 1.75 21.8887C1.75 21.3966 2.13281 21.0137 2.625 21.0137H5.35938C5.74219 19.4824 7.13672 18.3614 8.77734 18.3614ZM8.77734 20.1114C7.79297 20.1114 7.02734 20.9043 7.02734 21.8614C7.02734 22.8184 7.79297 23.6114 8.77734 23.6114C9.625 23.6114 10.5273 22.9278 10.5273 21.8614C10.5273 20.9043 9.73438 20.1114 8.77734 20.1114ZM19.1953 10.5137C20.8359 10.5137 22.2031 11.6348 22.5859 13.1387H25.375C25.8672 13.1387 26.25 13.5216 26.25 14.0137C26.25 14.4786 25.8672 14.8887 25.375 14.8887H22.5859C22.2031 16.3926 20.8359 17.5137 19.1953 17.5137C17.5547 17.5137 16.1875 16.3926 15.8047 14.8887H2.57031C2.13281 14.8887 1.75 14.4786 1.75 14.0137C1.75 13.5216 2.13281 13.1387 2.57031 13.1387H15.8047C16.2148 11.6348 17.582 10.5137 19.1953 10.5137ZM19.1953 12.2637C18.2383 12.2637 17.4453 13.0567 17.4453 14.0137C17.4453 14.998 18.2383 15.7637 19.1953 15.7637C20.1797 15.7637 20.9453 14.998 20.9453 14.0137C20.9453 13.0567 20.1797 12.2637 19.1953 12.2637ZM8.75 2.63867C10.3906 2.63867 11.7578 3.73242 12.1406 5.26367H25.375C25.8672 5.26367 26.25 5.64657 26.25 6.13867C26.25 6.60356 25.8672 7.01367 25.375 7.01367H12.1406C11.7031 8.57231 10.3633 9.63867 8.75 9.63867C7.10938 9.63867 5.74219 8.51762 5.35938 7.01367H2.625C2.13281 7.01367 1.75 6.60356 1.75 6.13867C1.75 5.64657 2.13281 5.26367 2.625 5.26367H5.35938C5.74219 3.73242 7.10938 2.63867 8.75 2.63867ZM8.75 4.38867C7.79297 4.38867 7 5.1543 7 6.13867C7 7.09575 7.79297 7.88867 8.75 7.88867C9.70703 7.88867 10.5 7.09575 10.5 6.13867C10.5 5.18168 9.73438 4.38867 8.75 4.38867Z" fill="#1A1C1F"/>
</g>
<defs>
<clipPath id="clip0_185_1308">
<rect width="28" height="28" fill="white"/>
</clipPath>
</defs>
</svg>
