<svg width="32" height="32" viewBox="0 0 32 32" fill="none" xmlns="http://www.w3.org/2000/svg">
<g clip-path="url(#clip0_185_1306)">
<path fill-rule="evenodd" clip-rule="evenodd" d="M10.0312 20.9844C11.875 20.9844 13.4688 22.2656 13.9062 24.0156H29C29.5625 24.0156 30 24.4532 30 25.0156C30 25.5469 29.5625 26.0156 29 26.0156H13.875C13.4375 27.7344 11.875 28.9844 10.0312 28.9844C8.15625 28.9844 6.59375 27.7344 6.15625 26.0156H3C2.4375 26.0156 2 25.5469 2 25.0156C2 24.4532 2.4375 24.0156 3 24.0156H6.125C6.5625 22.2656 8.15625 20.9844 10.0312 20.9844ZM10.0312 22.9844C8.90625 22.9844 8.03125 23.8906 8.03125 24.9844C8.03125 26.0782 8.90625 26.9844 10.0312 26.9844C11 26.9844 12.0312 26.2032 12.0312 24.9844C12.0312 23.8906 11.125 22.9844 10.0312 22.9844ZM21.9375 12.0156C23.8125 12.0156 25.375 13.2969 25.8125 15.0156H29C29.5625 15.0156 30 15.4532 30 16.0156C30 16.5469 29.5625 17.0156 29 17.0156H25.8125C25.375 18.7344 23.8125 20.0156 21.9375 20.0156C20.0625 20.0156 18.5 18.7344 18.0625 17.0156H2.9375C2.4375 17.0156 2 16.5469 2 16.0156C2 15.4532 2.4375 15.0156 2.9375 15.0156H18.0625C18.5312 13.2969 20.0938 12.0156 21.9375 12.0156ZM21.9375 14.0156C20.8438 14.0156 19.9375 14.9219 19.9375 16.0156C19.9375 17.1406 20.8438 18.0156 21.9375 18.0156C23.0625 18.0156 23.9375 17.1406 23.9375 16.0156C23.9375 14.9219 23.0625 14.0156 21.9375 14.0156ZM10 3.01562C11.875 3.01562 13.4375 4.26562 13.875 6.01562H29C29.5625 6.01562 30 6.45323 30 7.01562C30 7.54693 29.5625 8.01562 29 8.01562H13.875C13.375 9.79693 11.8438 11.0156 10 11.0156C8.125 11.0156 6.5625 9.73443 6.125 8.01562H3C2.4375 8.01562 2 7.54693 2 7.01562C2 6.45323 2.4375 6.01562 3 6.01562H6.125C6.5625 4.26562 8.125 3.01562 10 3.01562ZM10 5.01562C8.90625 5.01562 8 5.89062 8 7.01562C8 8.10943 8.90625 9.01562 10 9.01562C11.0938 9.01562 12 8.10943 12 7.01562C12 5.92193 11.125 5.01562 10 5.01562Z" fill="#1A1C1F"/>
</g>
<defs>
<clipPath id="clip0_185_1306">
<rect width="32" height="32" fill="white"/>
</clipPath>
</defs>
</svg>
