<svg width="24" height="24" viewBox="0 0 24 24" fill="none" xmlns="http://www.w3.org/2000/svg">
<g clip-path="url(#clip0_185_1310)">
<path fill-rule="evenodd" clip-rule="evenodd" d="M8.03125 12.9844C9.75 12.9844 11.4062 14.203 11.875 16.0156H20.9688C21.5312 16.0156 21.9688 16.4843 21.9688 17.0156C21.9688 17.578 21.5312 18.0156 20.9688 18.0156H11.9062C11.4688 19.7656 9.90625 20.9844 8.03125 20.9844C6.1875 20.9844 4.59375 19.7968 4.15625 18.0156H3C2.46875 18.0156 2 17.578 2 17.0156C2 16.4843 2.46875 16.0156 3 16.0156H4.15625C4.625 14.2656 6.21875 12.9844 8.03125 12.9844ZM8 15.0156C6.875 15.0156 6 15.9531 6 17.0156C6 18.1406 6.90625 19.0156 8 19.0156C9.09375 19.0156 10 18.1406 10 17.0156C10 15.9218 9.09375 15.0156 8 15.0156ZM16.0312 3.01562C17.75 3.01562 19.4062 4.17183 19.9062 6.01562H21C21.5625 6.01562 22 6.48443 22 7.01562C22 7.57812 21.5625 8.01562 21 8.01562H19.9062C19.4688 9.76562 17.9062 11.0156 16.0312 11.0156C14.2188 11.0156 12.5938 9.79682 12.1562 8.01562H3C2.4375 8.01562 2 7.57812 2 7.01562C2 6.48443 2.4375 6.01562 3 6.01562H12.1562C12.625 4.26562 14.2188 3.01562 16.0312 3.01562ZM16 5.01562C14.9062 5.01562 14 5.92193 14 7.01562C14 8.10943 14.9062 9.01562 16 9.01562C17.0938 9.01562 18 8.14062 18 7.01562C18 5.92193 17.0938 5.01562 16 5.01562Z" fill="#1A1C1F"/>
</g>
<defs>
<clipPath id="clip0_185_1310">
<rect width="24" height="24" fill="white"/>
</clipPath>
</defs>
</svg>
