<svg width="12" height="12" viewBox="0 0 12 12" fill="none" xmlns="http://www.w3.org/2000/svg">
<g clip-path="url(#clip0_232_279)">
<path fill-rule="evenodd" clip-rule="evenodd" d="M4.19995 6.00936C4.98745 6.00936 5.6437 6.49692 5.88745 7.20936H10.1625C10.5 7.20936 10.7625 7.47192 10.7625 7.80936C10.7625 8.12814 10.5 8.40936 10.1625 8.40936H5.88745C5.6437 9.10314 4.98745 9.59064 4.19995 9.59064C3.41245 9.59064 2.7562 9.10314 2.51245 8.40936H1.79995C1.46245 8.40936 1.19995 8.12814 1.19995 7.80936C1.19995 7.47192 1.46245 7.20936 1.79995 7.20936H2.51245C2.7562 6.49692 3.41245 6.00936 4.19995 6.00936ZM4.19995 7.19064C3.86245 7.19064 3.59995 7.47192 3.59995 7.79064C3.59995 8.12814 3.86245 8.39064 4.19995 8.39064C4.53745 8.39064 4.79995 8.12814 4.79995 7.79064C4.79995 7.45314 4.5187 7.19064 4.19995 7.19064ZM7.7812 2.40936C8.5687 2.40936 9.22495 2.91564 9.4687 3.60936H10.2C10.4812 3.60936 10.7812 3.79692 10.8 4.20936C10.8 4.54692 10.5375 4.80936 10.2 4.80936H9.48745C9.22495 5.50314 8.5687 6.00936 7.7812 6.00936C6.9937 6.00936 6.33745 5.50314 6.0937 4.80936H1.79995C1.5187 4.80936 1.2187 4.60314 1.19995 4.20936C1.19995 3.87192 1.46245 3.60936 1.79995 3.60936H6.0937C6.33745 2.91564 7.01245 2.40936 7.7812 2.40936ZM7.7812 3.60936C7.46245 3.60936 7.1812 3.87192 7.1812 4.20936C7.1812 4.54692 7.46245 4.80936 7.7812 4.80936C8.1187 4.80936 8.3812 4.54692 8.3812 4.20936C8.3812 3.87192 8.09995 3.60936 7.7812 3.60936Z" fill="#1A1C1F"/>
</g>
<defs>
<clipPath id="clip0_232_279">
<rect width="12" height="12" fill="white"/>
</clipPath>
</defs>
</svg>
