<svg width="20" height="20" viewBox="0 0 20 20" fill="none" xmlns="http://www.w3.org/2000/svg">
<g clip-path="url(#clip0_185_1312)">
<path fill-rule="evenodd" clip-rule="evenodd" d="M7 10.0156C8.3125 10.0156 9.40625 10.8282 9.8125 12.0156H16.9375C17.5 12.0156 17.9375 12.4532 17.9375 13.0156C17.9375 13.5469 17.5 14.0156 16.9375 14.0156H9.8125C9.40625 15.1719 8.3125 15.9844 7 15.9844C5.6875 15.9844 4.59375 15.1719 4.1875 14.0156H3C2.4375 14.0156 2 13.5469 2 13.0156C2 12.4532 2.4375 12.0156 3 12.0156H4.1875C4.59375 10.8282 5.6875 10.0156 7 10.0156ZM7 11.9844C6.4375 11.9844 6 12.4532 6 12.9844C6 13.5469 6.4375 13.9844 7 13.9844C7.5625 13.9844 8 13.5469 8 12.9844C8 12.4219 7.53125 11.9844 7 11.9844ZM12.9688 4.01562C14.2812 4.01562 15.375 4.85942 15.7812 6.01562H17C17.4688 6.01562 17.9688 6.32823 18 7.01562C18 7.57823 17.5625 8.01562 17 8.01562H15.8125C15.375 9.17193 14.2812 10.0156 12.9688 10.0156C11.6562 10.0156 10.5625 9.17193 10.1562 8.01562H3C2.53125 8.01562 2.03125 7.67193 2 7.01562C2 6.45323 2.4375 6.01562 3 6.01562H10.1562C10.5625 4.85942 11.6875 4.01562 12.9688 4.01562ZM12.9688 6.01562C12.4375 6.01562 11.9688 6.45323 11.9688 7.01562C11.9688 7.57823 12.4375 8.01562 12.9688 8.01562C13.5312 8.01562 13.9688 7.57823 13.9688 7.01562C13.9688 6.45323 13.5 6.01562 12.9688 6.01562Z" fill="#1A1C1F"/>
</g>
<defs>
<clipPath id="clip0_185_1312">
<rect width="20" height="20" fill="white"/>
</clipPath>
</defs>
</svg>
