<svg width="16" height="16" viewBox="0 0 16 16" fill="none" xmlns="http://www.w3.org/2000/svg">
<g clip-path="url(#clip0_185_1314)">
<path fill-rule="evenodd" clip-rule="evenodd" d="M5.59998 8.01246C6.64998 8.01246 7.52498 8.66254 7.84998 9.61246H13.55C14 9.61246 14.35 9.96254 14.35 10.4125C14.35 10.8375 14 11.2125 13.55 11.2125H7.84998C7.52498 12.1375 6.64998 12.7875 5.59998 12.7875C4.54998 12.7875 3.67498 12.1375 3.34998 11.2125H2.39998C1.94998 11.2125 1.59998 10.8375 1.59998 10.4125C1.59998 9.96254 1.94998 9.61246 2.39998 9.61246H3.34998C3.67498 8.66254 4.54998 8.01246 5.59998 8.01246ZM5.59998 9.5875C5.14998 9.5875 4.79998 9.96254 4.79998 10.3875C4.79998 10.8375 5.14998 11.1875 5.59998 11.1875C6.04998 11.1875 6.39998 10.8375 6.39998 10.3875C6.39998 9.9375 6.02498 9.5875 5.59998 9.5875ZM10.375 3.21246C11.425 3.21246 12.3 3.8875 12.625 4.81246H13.6C13.975 4.81246 14.375 5.06254 14.4 5.61246C14.4 6.06254 14.05 6.41246 13.6 6.41246H12.65C12.3 7.3375 11.425 8.01246 10.375 8.01246C9.32498 8.01246 8.44998 7.3375 8.12498 6.41246H2.39998C2.02498 6.41246 1.62498 6.1375 1.59998 5.61246C1.59998 5.16254 1.94998 4.81246 2.39998 4.81246H8.12498C8.44998 3.8875 9.34998 3.21246 10.375 3.21246ZM10.375 4.81246C9.94998 4.81246 9.57498 5.16254 9.57498 5.61246C9.57498 6.06254 9.94998 6.41246 10.375 6.41246C10.825 6.41246 11.175 6.06254 11.175 5.61246C11.175 5.16254 10.8 4.81246 10.375 4.81246Z" fill="#1A1C1F"/>
</g>
<defs>
<clipPath id="clip0_185_1314">
<rect width="16" height="16" fill="white"/>
</clipPath>
</defs>
</svg>
