<svg width="14" height="14" viewBox="0 0 14 14" fill="none" xmlns="http://www.w3.org/2000/svg">
<g clip-path="url(#clip0_185_1316)">
<path fill-rule="evenodd" clip-rule="evenodd" d="M4.90002 7.01091C5.81877 7.01091 6.5844 7.57973 6.86877 8.41091H11.8563C12.25 8.41091 12.5563 8.71723 12.5563 9.11091C12.5563 9.48282 12.25 9.81091 11.8563 9.81091H6.86877C6.5844 10.6203 5.81877 11.1891 4.90002 11.1891C3.98127 11.1891 3.21565 10.6203 2.93127 9.81091H2.10002C1.70627 9.81091 1.40002 9.48282 1.40002 9.11091C1.40002 8.71723 1.70627 8.41091 2.10002 8.41091H2.93127C3.21565 7.57973 3.98127 7.01091 4.90002 7.01091ZM4.90002 8.38907C4.50627 8.38907 4.20002 8.71723 4.20002 9.08907C4.20002 9.48282 4.50627 9.78907 4.90002 9.78907C5.29377 9.78907 5.60002 9.48282 5.60002 9.08907C5.60002 8.69532 5.2719 8.38907 4.90002 8.38907ZM9.07815 2.81091C9.9969 2.81091 10.7625 3.40157 11.0469 4.21091H11.9C12.2281 4.21091 12.5781 4.42973 12.6 4.91091C12.6 5.30473 12.2938 5.61091 11.9 5.61091H11.0688C10.7625 6.42032 9.9969 7.01091 9.07815 7.01091C8.1594 7.01091 7.39377 6.42032 7.1094 5.61091H2.10002C1.7719 5.61091 1.4219 5.37032 1.40002 4.91091C1.40002 4.51723 1.70627 4.21091 2.10002 4.21091H7.1094C7.39377 3.40157 8.18127 2.81091 9.07815 2.81091ZM9.07815 4.21091C8.70627 4.21091 8.37815 4.51723 8.37815 4.91091C8.37815 5.30473 8.70627 5.61091 9.07815 5.61091C9.4719 5.61091 9.77815 5.30473 9.77815 4.91091C9.77815 4.51723 9.45002 4.21091 9.07815 4.21091Z" fill="#1A1C1F"/>
</g>
<defs>
<clipPath id="clip0_185_1316">
<rect width="14" height="14" fill="white"/>
</clipPath>
</defs>
</svg>
