<svg width="12" height="12" viewBox="0 0 12 12" fill="none" xmlns="http://www.w3.org/2000/svg">
<g clip-path="url(#clip0_232_291)">
<path fill-rule="evenodd" clip-rule="evenodd" d="M5.39995 1.20001C7.7219 1.20001 9.59995 3.07806 9.59995 5.40001C9.59995 6.35611 9.278 7.20977 8.77068 7.91221L10.6243 9.76587C10.7414 9.88294 10.8 10.039 10.8 10.1951C10.8 10.5268 10.5268 10.8 10.2146 10.8C10.0585 10.8 9.9219 10.7415 9.76581 10.6244L7.91215 8.77074C7.20971 9.29757 6.33654 9.60001 5.39995 9.60001C3.078 9.60001 1.19995 7.72196 1.19995 5.40001C1.19995 3.07806 3.078 1.20001 5.39995 1.20001ZM5.39507 2.40977C3.73654 2.40977 2.40971 3.7366 2.40971 5.39513C2.40971 7.05367 3.73654 8.40001 5.39507 8.40001C7.05361 8.40001 8.39995 7.05367 8.39995 5.39513C8.39995 3.7366 7.05361 2.40977 5.39507 2.40977ZM5.99995 3.60001H4.79995V4.80001H3.59995V6.00001H4.79995V7.20001L5.99995 7.20977V6.00001H7.19995V4.80001H5.99995V3.60001Z" fill="#1A1C1F"/>
</g>
<defs>
<clipPath id="clip0_232_291">
<rect width="12" height="12" fill="white"/>
</clipPath>
</defs>
</svg>
