<svg width="12" height="12" viewBox="0 0 12 12" fill="none" xmlns="http://www.w3.org/2000/svg">
<g clip-path="url(#clip0_232_293)">
<path fill-rule="evenodd" clip-rule="evenodd" d="M5.39995 1.20001C7.72685 1.20001 9.59995 3.0702 9.59995 5.40001C9.59995 6.35148 9.27711 7.21371 8.76543 7.90904L10.6172 9.76315C10.739 9.88512 10.8 10.0437 10.8 10.1901C10.8 10.5316 10.5197 10.8 10.2152 10.8C10.0568 10.8 9.89248 10.7574 9.76442 10.6292L7.91264 8.77511C7.20604 9.27525 6.33802 9.60001 5.39995 9.60001C3.08523 9.60001 1.19995 7.71769 1.19995 5.40001C1.19995 3.0702 3.08523 1.20001 5.39995 1.20001ZM5.39614 2.40762C3.73718 2.40762 2.41977 3.73726 2.41977 5.39618C2.41977 7.05517 3.73718 8.39693 5.39614 8.39693C7.05509 8.39693 8.40909 7.05517 8.40909 5.39618C8.40909 3.73726 7.05509 2.40762 5.39614 2.40762ZM7.19995 4.80001V6.00001H3.59995V4.80001H7.19995Z" fill="#1A1C1F"/>
</g>
<defs>
<clipPath id="clip0_232_293">
<rect width="12" height="12" fill="white"/>
</clipPath>
</defs>
</svg>
