<svg width="20" height="20" viewBox="0 0 20 20" fill="none" xmlns="http://www.w3.org/2000/svg">
<g clip-path="url(#clip0_185_1533)">
<path fill-rule="evenodd" clip-rule="evenodd" d="M9 2C12.8782 2 16 5.11699 16 9C16 10.5858 15.4619 12.0228 14.6091 13.1817L17.6954 16.2719C17.8985 16.4752 18 16.7395 18 16.9835C18 17.5527 17.533 18 17.0254 18C16.7614 18 16.4875 17.929 16.2741 17.7153L13.1878 14.6252C12.0102 15.4587 10.5635 16 9 16C5.14213 16 2 12.8628 2 9C2 5.11699 5.14213 2 9 2ZM8.99364 4.01267C6.22871 4.01267 4.03304 6.22874 4.03304 8.99361C4.03304 11.7586 6.22871 13.9949 8.99364 13.9949C11.7586 13.9949 14.0152 11.7586 14.0152 8.99361C14.0152 6.22874 11.7586 4.01267 8.99364 4.01267ZM12 8V10H6V8H12Z" fill="#1A1C1F"/>
</g>
<defs>
<clipPath id="clip0_185_1533">
<rect width="20" height="20" fill="white"/>
</clipPath>
</defs>
</svg>
