<svg width="24" height="24" viewBox="0 0 24 24" fill="none" xmlns="http://www.w3.org/2000/svg">
<g clip-path="url(#clip0_185_1518)">
<path fill-rule="evenodd" clip-rule="evenodd" d="M10 2C14.4375 2 18.0312 5.58813 18.0312 9.98752C18.0312 11.8596 17.4062 13.5445 16.3438 14.9173L21.7188 20.2527C21.9062 20.4399 22 20.6895 22 20.9704C22 21.6256 21.4688 22 20.9688 22C20.75 22 20.5 21.9064 20.2812 21.688L14.9375 16.3214C13.5625 17.3822 11.875 18.0062 10 18.0062C5.59375 18.0062 2 14.4181 2 9.98752C2 5.58813 5.59375 2 10 2ZM10 3.99688C6.6875 3.99688 4 6.68019 4 9.98752C4 13.3261 6.6875 16.0094 10 16.0094C13.3438 16.0094 16.0312 13.3261 16.0312 9.98752C16.0312 6.68019 13.3438 3.99688 10 3.99688ZM10 13.9953C10.5625 13.9953 11 13.5445 11 12.9828V11H13C13.625 11 14 10.532 14 10.0016C14 9.47113 13.5625 9.00312 13 9.00312L11 9V6.9298C11 6.43058 10.5312 5.99376 10 5.99376C9.46875 5.99376 9 6.43058 9 6.9922V9.00312H7C6.375 9.00312 6 9.50078 6 10C6 10.5616 6.4375 11 7 11H9V13.014C9 13.5445 9.4375 13.9953 10 13.9953Z" fill="#1A1C1F"/>
</g>
<defs>
<clipPath id="clip0_185_1518">
<rect width="24" height="24" fill="white"/>
</clipPath>
</defs>
</svg>
