<svg id="icon" height="24" viewBox="0 0 24 24" width="24" xmlns="http://www.w3.org/2000/svg"><path d="M8.580 5.047 C 8.057 5.147,7.460 5.606,7.230 6.087 C 6.992 6.581,7.001 6.348,7.001 12.022 C 7.000 17.699,6.989 17.423,7.228 17.920 C 7.366 18.206,7.794 18.634,8.080 18.772 C 8.679 19.060,9.388 19.069,9.931 18.795 C 10.024 18.749,11.927 17.565,14.160 16.166 C 18.507 13.442,18.522 13.431,18.761 12.958 C 19.178 12.132,19.037 11.250,18.380 10.574 C 18.174 10.362,17.561 9.967,14.060 7.789 C 11.816 6.392,9.920 5.220,9.847 5.182 C 9.539 5.026,8.996 4.968,8.580 5.047 " fill="var(--db-icon-color, currentColor)" stroke="none" fill-rule="evenodd"></path></svg>