<svg id="icon" height="32" viewBox="0 0 32 32" width="32" xmlns="http://www.w3.org/2000/svg"><path d="M14.100 5.115 C 13.795 5.254,13.590 5.539,13.558 5.870 C 13.515 6.321,13.627 6.508,14.399 7.279 C 14.781 7.660,15.093 7.990,15.093 8.013 C 15.093 8.035,14.883 8.053,14.625 8.053 C 12.944 8.053,10.838 8.678,9.280 9.640 C 7.838 10.529,6.510 11.841,5.655 13.219 C 3.935 15.992,3.540 19.335,4.564 22.447 C 4.979 23.708,5.679 24.973,6.510 25.966 C 6.905 26.438,7.187 26.591,7.566 26.539 C 8.069 26.470,8.427 26.052,8.427 25.533 C 8.427 25.197,8.361 25.049,8.030 24.643 C 7.120 23.522,6.494 22.206,6.178 20.747 C 6.073 20.257,6.057 20.032,6.056 18.960 C 6.055 17.885,6.070 17.666,6.174 17.191 C 6.438 15.994,6.857 15.003,7.526 13.994 C 8.054 13.199,9.135 12.118,9.939 11.582 C 11.398 10.610,12.911 10.110,14.587 10.046 L 15.387 10.015 14.549 10.861 C 14.036 11.378,13.679 11.784,13.629 11.905 C 13.345 12.591,13.799 13.280,14.533 13.280 C 14.667 13.280,14.854 13.247,14.948 13.206 C 15.044 13.164,15.896 12.352,16.864 11.379 C 18.485 9.750,18.611 9.611,18.644 9.401 C 18.686 9.138,18.686 9.156,18.642 8.880 C 18.612 8.686,18.449 8.507,16.891 6.941 C 15.766 5.811,15.100 5.181,14.960 5.115 C 14.688 4.988,14.380 4.988,14.100 5.115 M23.332 16.053 C 21.837 16.272,20.683 17.247,20.208 18.693 C 20.089 19.053,20.084 19.144,20.065 21.227 C 20.042 23.586,20.066 23.898,20.322 24.601 C 20.767 25.823,21.742 26.638,23.091 26.917 C 23.640 27.030,24.674 26.987,25.226 26.828 C 26.673 26.410,27.663 25.295,27.923 23.787 C 27.993 23.378,28.004 22.947,27.987 21.234 C 27.963 18.929,27.949 18.824,27.537 17.986 C 26.851 16.591,25.112 15.791,23.332 16.053 M13.025 17.127 C 12.153 17.571,11.374 17.995,11.294 18.070 C 11.214 18.144,11.109 18.309,11.061 18.435 C 10.876 18.918,11.091 19.407,11.598 19.655 C 12.001 19.852,12.147 19.821,13.123 19.332 L 13.920 18.933 13.920 21.973 L 13.920 25.013 12.867 25.015 C 11.960 25.016,11.783 25.029,11.598 25.114 C 10.857 25.450,10.844 26.508,11.577 26.882 C 11.782 26.986,11.870 26.989,15.084 26.975 L 18.382 26.960 18.579 26.810 C 18.824 26.623,18.914 26.487,18.976 26.211 C 19.037 25.935,18.942 25.540,18.768 25.351 C 18.490 25.050,18.318 25.016,17.082 25.015 L 15.950 25.013 15.935 21.027 C 15.921 17.435,15.911 17.024,15.832 16.880 C 15.639 16.530,15.282 16.320,14.881 16.320 C 14.638 16.320,14.452 16.401,13.025 17.127 M25.181 18.226 C 25.423 18.346,25.577 18.464,25.678 18.610 C 25.992 19.064,25.997 19.105,26.016 21.280 C 26.035 23.415,26.011 23.717,25.785 24.163 C 25.640 24.450,25.349 24.722,25.042 24.858 C 24.730 24.996,24.046 25.069,23.600 25.013 C 22.832 24.916,22.492 24.706,22.227 24.168 L 22.053 23.816 22.053 21.520 L 22.053 19.224 22.231 18.863 C 22.427 18.464,22.631 18.293,23.110 18.123 C 23.336 18.043,23.518 18.028,24.108 18.039 C 24.800 18.053,24.844 18.060,25.181 18.226 " fill="var(--db-icon-color, currentColor)" stroke="none" fill-rule="evenodd"></path></svg>