<svg id="icon" height="24" viewBox="0 0 24 24" width="24" xmlns="http://www.w3.org/2000/svg"><path d="M18.846 3.841 C 18.737 3.890,18.467 4.121,18.124 4.459 L 17.576 4.998 17.425 4.896 C 17.343 4.840,17.129 4.705,16.951 4.597 C 16.649 4.413,16.609 4.400,16.361 4.400 C 15.716 4.400,15.276 4.905,15.400 5.502 C 15.459 5.784,15.623 6.000,15.937 6.211 L 16.196 6.385 15.648 6.929 L 15.100 7.473 14.880 7.357 C 14.036 6.914,13.165 7.777,13.602 8.624 L 13.723 8.860 12.852 9.708 L 11.980 10.556 11.960 8.148 C 11.946 6.419,11.927 5.710,11.893 5.634 C 11.702 5.210,11.174 4.957,10.728 5.078 C 10.617 5.108,9.777 5.643,8.368 6.582 L 6.180 8.040 5.228 8.040 C 4.128 8.040,3.827 8.084,3.360 8.312 C 2.940 8.517,2.467 8.987,2.265 9.400 C 2.006 9.931,1.994 10.061,2.008 12.158 C 2.020 14.001,2.021 14.023,2.115 14.280 C 2.265 14.693,2.434 14.959,2.737 15.263 C 3.042 15.568,3.311 15.737,3.720 15.883 C 3.961 15.969,4.061 15.977,5.109 15.998 C 6.111 16.018,6.245 16.028,6.307 16.090 C 6.373 16.156,6.308 16.229,4.974 17.570 C 3.417 19.136,3.414 19.139,3.447 19.596 C 3.481 20.062,3.842 20.434,4.298 20.471 C 4.751 20.509,4.212 21.017,12.510 12.735 L 20.079 5.180 20.144 4.943 C 20.199 4.747,20.202 4.671,20.163 4.499 C 20.033 3.915,19.390 3.594,18.846 3.841 M8.911 13.629 C 8.333 14.207,7.842 14.680,7.820 14.680 C 7.798 14.680,7.618 14.571,7.420 14.438 C 6.748 13.986,6.910 14.023,5.511 14.000 L 4.281 13.980 4.151 13.849 L 4.020 13.719 4.009 12.071 C 4.001 10.896,4.011 10.391,4.043 10.312 C 4.069 10.251,4.148 10.165,4.219 10.120 C 4.341 10.045,4.418 10.040,5.465 10.040 C 6.104 10.040,6.643 10.022,6.728 9.998 C 6.809 9.976,7.565 9.503,8.408 8.947 L 9.940 7.936 9.950 10.257 L 9.961 12.579 8.911 13.629 M19.363 8.617 L 18.667 9.314 18.794 9.651 C 18.964 10.102,19.101 10.654,19.161 11.133 C 19.232 11.698,19.191 12.867,19.082 13.360 C 18.675 15.216,17.654 16.683,16.028 17.751 C 15.612 18.025,15.478 18.178,15.401 18.471 C 15.287 18.909,15.582 19.418,16.044 19.582 C 16.395 19.705,16.616 19.638,17.260 19.212 C 18.741 18.233,19.952 16.705,20.579 15.022 C 20.909 14.136,21.073 13.298,21.108 12.320 C 21.146 11.235,21.010 10.297,20.666 9.269 C 20.495 8.756,20.134 7.920,20.084 7.920 C 20.070 7.920,19.746 8.234,19.363 8.617 M16.267 11.713 L 15.357 12.624 15.299 12.872 C 15.105 13.701,14.693 14.358,14.008 14.930 C 13.743 15.151,13.648 15.260,13.570 15.430 C 13.371 15.866,13.525 16.363,13.938 16.619 C 14.111 16.726,14.169 16.740,14.438 16.740 C 14.716 16.740,14.764 16.727,14.976 16.600 C 15.277 16.420,15.889 15.842,16.175 15.469 C 16.859 14.575,17.261 13.431,17.309 12.240 C 17.330 11.725,17.269 10.896,17.206 10.831 C 17.190 10.815,16.768 11.212,16.267 11.713 M10.782 17.158 C 10.145 17.795,9.632 18.323,9.642 18.331 C 9.748 18.415,10.456 18.886,10.545 18.932 C 11.019 19.177,11.661 18.941,11.876 18.441 C 11.957 18.252,11.961 18.190,11.951 17.121 L 11.940 15.999 10.782 17.158 " fill="var(--db-icon-color, currentColor)" stroke="none" fill-rule="evenodd"></path></svg>