<svg id="icon" height="24" viewBox="0 0 24 24" width="24" xmlns="http://www.w3.org/2000/svg"><path d="M9.712 6.051 C 9.460 6.134,9.220 6.334,9.116 6.545 L 9.020 6.740 9.010 11.934 C 9.003 15.431,9.013 17.179,9.041 17.282 C 9.102 17.509,9.313 17.761,9.540 17.878 C 9.830 18.027,10.226 18.023,10.489 17.869 C 10.702 17.744,10.864 17.551,10.943 17.330 C 11.016 17.125,11.026 6.917,10.954 6.674 C 10.893 6.472,10.673 6.219,10.469 6.114 C 10.271 6.014,9.914 5.984,9.712 6.051 M13.720 6.035 C 13.402 6.139,13.129 6.398,13.046 6.674 C 12.974 6.917,12.984 17.125,13.057 17.330 C 13.303 18.018,14.184 18.218,14.700 17.702 C 15.021 17.381,15.000 17.784,15.000 12.000 C 15.000 7.332,14.994 6.836,14.934 6.661 C 14.859 6.441,14.648 6.211,14.424 6.104 C 14.251 6.023,13.872 5.985,13.720 6.035 " fill="var(--db-icon-color, currentColor)" stroke="none" fill-rule="evenodd"></path></svg>