<svg id="icon" height="24" viewBox="0 0 24 24" width="24" xmlns="http://www.w3.org/2000/svg"><path d="M16.191 4.037 C 15.713 4.192,15.413 4.676,15.520 5.119 C 15.599 5.450,15.741 5.619,16.200 5.928 C 16.751 6.299,17.069 6.561,17.464 6.967 C 18.362 7.892,18.962 9.032,19.247 10.360 C 19.327 10.728,19.338 10.893,19.337 11.700 C 19.336 12.499,19.325 12.674,19.247 13.030 C 18.843 14.897,17.755 16.465,16.150 17.496 C 15.749 17.753,15.584 17.952,15.521 18.253 C 15.384 18.913,16.090 19.563,16.711 19.348 C 16.920 19.276,17.197 19.109,17.656 18.782 C 19.601 17.393,20.878 15.267,21.226 12.840 C 21.314 12.224,21.312 11.089,21.222 10.500 C 20.993 9.010,20.469 7.712,19.614 6.522 C 19.055 5.744,17.992 4.768,17.109 4.223 C 16.841 4.057,16.764 4.029,16.549 4.016 C 16.412 4.009,16.251 4.018,16.191 4.037 M10.660 4.755 C 10.572 4.795,9.543 5.469,8.373 6.254 L 6.247 7.680 5.433 7.681 C 4.443 7.682,3.967 7.728,3.625 7.857 C 3.033 8.079,2.546 8.514,2.279 9.055 C 2.013 9.593,2.001 9.708,2.001 11.724 C 2.000 13.369,2.006 13.531,2.079 13.816 C 2.312 14.725,2.995 15.408,3.904 15.641 C 4.171 15.709,4.348 15.720,5.210 15.720 L 6.208 15.720 8.406 17.202 C 9.615 18.017,10.653 18.702,10.712 18.725 C 10.771 18.747,10.932 18.767,11.068 18.767 C 11.368 18.769,11.618 18.662,11.803 18.450 C 12.081 18.134,12.059 18.681,12.071 11.822 C 12.082 5.023,12.095 5.398,11.845 5.053 C 11.602 4.718,11.047 4.578,10.660 4.755 M14.117 6.990 C 13.597 7.254,13.424 7.886,13.740 8.366 C 13.793 8.447,13.972 8.615,14.138 8.740 C 14.776 9.220,15.211 9.912,15.428 10.791 C 15.476 10.984,15.494 11.234,15.493 11.680 C 15.493 12.219,15.479 12.351,15.388 12.691 C 15.186 13.452,14.757 14.126,14.182 14.589 C 14.005 14.731,13.812 14.919,13.753 15.006 C 13.555 15.297,13.534 15.679,13.699 15.997 C 13.858 16.306,14.342 16.556,14.668 16.497 C 15.231 16.394,16.152 15.536,16.691 14.612 C 17.520 13.189,17.689 11.343,17.136 9.754 C 16.860 8.961,16.441 8.285,15.863 7.698 C 15.076 6.901,14.641 6.724,14.117 6.990 M10.040 11.722 L 10.040 15.884 8.519 14.860 C 7.683 14.297,6.925 13.810,6.834 13.778 C 6.706 13.733,6.427 13.720,5.551 13.720 C 4.311 13.720,4.243 13.708,4.098 13.469 C 4.025 13.348,4.019 13.246,4.008 11.840 C 4.001 11.015,4.007 10.260,4.021 10.162 C 4.040 10.036,4.085 9.947,4.180 9.852 L 4.312 9.720 5.449 9.720 C 6.341 9.720,6.628 9.707,6.783 9.660 C 6.912 9.621,7.502 9.251,8.500 8.583 C 9.336 8.024,10.025 7.564,10.030 7.563 C 10.035 7.561,10.040 9.433,10.040 11.722 " fill="var(--db-icon-color, currentColor)" stroke="none" fill-rule="evenodd"></path></svg>