<svg id="icon" height="32" viewBox="0 0 32 32" width="32" xmlns="http://www.w3.org/2000/svg"><path d="M17.733 5.115 C 17.472 5.238,14.167 8.540,14.083 8.763 C 14.004 8.973,14.013 9.358,14.101 9.562 C 14.196 9.781,17.576 13.148,17.777 13.224 C 17.986 13.302,18.371 13.294,18.575 13.207 C 18.783 13.118,19.013 12.881,19.090 12.677 C 19.173 12.457,19.159 12.073,19.061 11.877 C 19.014 11.783,18.600 11.326,18.141 10.861 L 17.307 10.015 18.107 10.047 C 18.553 10.064,19.131 10.124,19.413 10.181 C 23.418 10.992,26.412 14.356,26.658 18.320 C 26.763 20.011,26.465 21.532,25.752 22.954 C 25.422 23.611,25.214 23.938,24.702 24.603 C 24.323 25.095,24.298 25.144,24.277 25.440 C 24.240 25.956,24.482 26.335,24.955 26.497 C 25.396 26.650,25.711 26.515,26.170 25.979 C 27.194 24.782,28.002 23.171,28.401 21.531 C 28.806 19.864,28.784 17.940,28.340 16.221 C 27.654 13.568,25.874 11.165,23.505 9.694 C 21.882 8.686,19.785 8.053,18.068 8.053 C 17.811 8.053,17.600 8.036,17.600 8.016 C 17.600 7.995,17.922 7.653,18.317 7.255 C 18.711 6.857,19.059 6.465,19.090 6.382 C 19.163 6.191,19.163 5.809,19.090 5.617 C 18.900 5.116,18.248 4.875,17.733 5.115 M17.289 16.056 C 16.805 16.143,16.204 16.370,15.811 16.614 C 15.167 17.014,14.583 17.702,14.342 18.344 C 14.063 19.090,14.054 19.185,14.057 21.520 C 14.059 23.602,14.064 23.727,14.176 24.133 C 14.378 24.872,14.676 25.401,15.167 25.893 C 15.870 26.597,16.629 26.921,17.693 26.973 C 19.585 27.064,21.085 26.188,21.697 24.635 C 21.979 23.918,22.000 23.686,21.997 21.387 C 21.994 18.994,21.977 18.866,21.539 17.975 C 21.112 17.107,20.237 16.422,19.215 16.155 C 18.736 16.030,17.726 15.978,17.289 16.056 M7.423 16.400 C 6.575 16.554,5.409 17.031,5.161 17.326 C 4.619 17.970,5.079 18.956,5.920 18.951 C 6.080 18.950,6.329 18.877,6.667 18.732 C 7.388 18.422,7.777 18.331,8.400 18.328 C 8.852 18.325,8.968 18.343,9.159 18.443 C 9.543 18.644,9.669 18.952,9.523 19.332 C 9.319 19.868,8.472 20.326,7.008 20.692 C 6.554 20.805,6.245 21.119,6.201 21.511 C 6.144 22.013,6.313 22.352,6.725 22.562 C 6.975 22.690,7.214 22.693,7.794 22.578 C 8.043 22.528,8.513 22.487,8.857 22.484 C 9.448 22.480,9.484 22.486,9.701 22.630 C 9.985 22.818,10.080 23.038,10.079 23.505 C 10.078 24.255,9.604 24.721,8.525 25.033 C 7.922 25.207,7.235 25.318,6.197 25.408 C 5.184 25.496,5.008 25.571,4.800 26.000 C 4.556 26.504,4.753 27.081,5.255 27.330 C 5.490 27.447,6.022 27.456,6.960 27.359 C 10.350 27.009,12.104 25.682,12.105 23.467 C 12.105 22.615,11.816 21.900,11.237 21.321 L 10.873 20.957 11.030 20.759 C 11.664 19.953,11.759 18.760,11.267 17.787 C 10.950 17.161,10.114 16.572,9.297 16.399 C 8.851 16.304,7.948 16.305,7.423 16.400 M19.120 18.177 C 19.647 18.418,19.912 18.819,20.006 19.517 C 20.081 20.072,20.040 23.526,19.956 23.787 C 19.850 24.117,19.553 24.551,19.333 24.701 C 19.011 24.920,18.558 25.028,17.968 25.027 C 17.063 25.025,16.541 24.776,16.251 24.209 C 16.034 23.784,15.985 23.140,16.013 21.093 C 16.040 19.225,16.065 19.047,16.368 18.630 C 16.706 18.162,17.124 18.023,18.133 18.042 C 18.751 18.054,18.891 18.073,19.120 18.177 " fill="var(--db-icon-color, currentColor)" stroke="none" fill-rule="evenodd"></path></svg>