<svg id="icon" height="48" viewBox="0 0 48 48" width="48" xmlns="http://www.w3.org/2000/svg"><path d="M16.133 9.231 C 15.202 9.623,14.582 10.239,14.214 11.135 L 14.040 11.560 14.019 23.793 C 14.000 34.636,14.012 36.081,14.122 36.511 C 14.634 38.509,16.806 39.543,18.689 38.685 C 19.500 38.316,38.109 26.715,38.504 26.332 C 39.243 25.617,39.633 24.455,39.455 23.500 C 39.328 22.814,38.962 22.111,38.504 21.671 C 38.106 21.288,19.491 9.686,18.640 9.290 C 18.280 9.123,18.055 9.081,17.400 9.060 C 16.696 9.038,16.544 9.058,16.133 9.231 " fill="var(--db-icon-color, currentColor)" stroke="none" fill-rule="evenodd"></path></svg>