<svg id="icon" height="32" viewBox="0 0 32 32" width="32" xmlns="http://www.w3.org/2000/svg"><path d="M17.733 5.115 C 17.472 5.238,14.167 8.540,14.083 8.763 C 14.002 8.979,14.014 9.370,14.107 9.567 C 14.214 9.793,17.585 13.151,17.777 13.224 C 17.986 13.302,18.371 13.294,18.575 13.207 C 18.783 13.118,19.013 12.881,19.090 12.677 C 19.163 12.484,19.163 12.102,19.090 11.910 C 19.058 11.828,18.644 11.367,18.170 10.887 L 17.307 10.014 18.107 10.045 C 19.779 10.110,21.288 10.604,22.691 11.545 C 25.426 13.378,26.883 16.340,26.660 19.614 C 26.578 20.808,26.282 21.897,25.752 22.954 C 25.422 23.611,25.214 23.938,24.702 24.603 C 24.323 25.095,24.298 25.144,24.277 25.440 C 24.240 25.956,24.482 26.335,24.955 26.497 C 25.395 26.649,25.712 26.515,26.164 25.986 C 28.399 23.366,29.226 19.652,28.340 16.221 C 27.654 13.568,25.874 11.165,23.505 9.694 C 21.882 8.686,19.785 8.053,18.068 8.053 C 17.811 8.053,17.600 8.035,17.600 8.013 C 17.600 7.990,17.902 7.672,18.270 7.306 C 18.639 6.940,18.987 6.551,19.044 6.442 C 19.157 6.224,19.178 5.850,19.090 5.617 C 18.900 5.116,18.248 4.875,17.733 5.115 M17.289 16.056 C 16.805 16.143,16.204 16.370,15.811 16.614 C 15.167 17.014,14.583 17.702,14.342 18.344 C 14.063 19.090,14.054 19.185,14.057 21.520 C 14.059 23.602,14.064 23.727,14.176 24.133 C 14.378 24.872,14.676 25.401,15.167 25.893 C 15.870 26.597,16.629 26.921,17.693 26.973 C 19.585 27.064,21.085 26.188,21.697 24.635 C 21.979 23.918,22.000 23.686,21.997 21.387 C 21.994 18.994,21.977 18.866,21.539 17.975 C 21.112 17.107,20.237 16.422,19.215 16.155 C 18.736 16.030,17.726 15.978,17.289 16.056 M7.096 17.094 C 6.246 17.519,5.461 17.945,5.354 18.039 C 4.851 18.481,4.910 19.194,5.484 19.597 C 5.676 19.732,5.763 19.758,6.017 19.756 C 6.285 19.754,6.409 19.709,7.079 19.370 C 7.497 19.159,7.863 18.987,7.893 18.987 C 7.928 18.987,7.947 19.999,7.947 21.997 L 7.947 25.007 6.809 25.024 L 5.671 25.040 5.471 25.193 C 4.961 25.582,4.888 26.185,5.295 26.649 C 5.601 26.998,5.482 26.987,9.013 26.987 C 12.421 26.987,12.425 26.986,12.712 26.731 C 12.866 26.594,13.011 26.241,13.011 26.000 C 13.011 25.759,12.866 25.406,12.712 25.269 C 12.458 25.043,12.266 25.013,11.069 25.013 L 9.922 25.013 9.908 20.969 L 9.893 16.925 9.740 16.723 C 9.551 16.476,9.229 16.323,8.895 16.321 C 8.676 16.320,8.440 16.422,7.096 17.094 M19.120 18.177 C 19.647 18.418,19.912 18.819,20.006 19.517 C 20.081 20.072,20.040 23.526,19.956 23.787 C 19.850 24.117,19.553 24.551,19.333 24.701 C 19.011 24.920,18.558 25.028,17.968 25.027 C 17.063 25.025,16.541 24.776,16.251 24.209 C 16.034 23.784,15.985 23.140,16.013 21.093 C 16.040 19.225,16.065 19.047,16.368 18.630 C 16.706 18.162,17.124 18.023,18.133 18.042 C 18.751 18.054,18.891 18.073,19.120 18.177 " fill="var(--db-icon-color, currentColor)" stroke="none" fill-rule="evenodd"></path></svg>