<svg id="icon" height="20" viewBox="0 0 20 20" width="20" xmlns="http://www.w3.org/2000/svg"><path d="M9.550 2.035 C 8.393 2.215,7.471 3.027,7.110 4.183 L 7.017 4.483 7.017 6.717 C 7.017 8.938,7.017 8.952,7.093 9.228 C 7.359 10.202,8.075 10.983,9.007 11.315 C 9.424 11.464,9.759 11.514,10.177 11.490 C 11.443 11.417,12.499 10.570,12.889 9.315 L 12.982 9.017 12.993 6.917 C 13.002 5.415,12.994 4.745,12.966 4.567 C 12.743 3.153,11.532 2.069,10.117 2.017 C 9.915 2.010,9.660 2.017,9.550 2.035 M10.448 4.114 C 10.654 4.215,10.812 4.379,10.913 4.598 C 10.982 4.747,10.983 4.787,10.983 6.750 L 10.983 8.750 10.894 8.920 C 10.771 9.152,10.504 9.386,10.291 9.450 C 9.814 9.591,9.327 9.381,9.110 8.941 L 9.017 8.750 9.017 6.750 L 9.017 4.750 9.095 4.600 C 9.236 4.331,9.480 4.124,9.767 4.029 C 9.921 3.978,10.256 4.020,10.448 4.114 M4.683 10.058 C 4.238 10.217,3.974 10.614,4.007 11.072 C 4.026 11.342,4.339 11.960,4.696 12.434 C 5.002 12.842,5.634 13.464,6.032 13.748 C 6.879 14.355,7.852 14.782,8.808 14.968 L 9.000 15.005 9.000 15.500 L 9.000 15.995 8.375 16.006 C 7.771 16.016,7.744 16.020,7.580 16.107 C 7.232 16.290,7.000 16.656,7.000 17.021 C 7.000 17.396,7.282 17.793,7.645 17.929 C 7.833 17.999,7.870 18.000,9.979 18.000 C 12.488 18.000,12.358 18.015,12.686 17.686 C 12.911 17.462,13.000 17.261,13.000 16.979 C 13.000 16.635,12.765 16.269,12.441 16.110 C 12.256 16.019,12.232 16.016,11.625 16.006 L 11.000 15.995 11.000 15.500 L 11.000 15.005 11.192 14.968 C 11.579 14.892,12.194 14.701,12.593 14.532 C 13.345 14.214,14.025 13.761,14.643 13.168 C 15.138 12.691,15.506 12.206,15.774 11.676 C 15.947 11.333,15.982 11.235,15.993 11.059 C 16.018 10.660,15.801 10.287,15.441 10.110 C 15.172 9.978,14.831 9.977,14.566 10.107 C 14.322 10.227,14.237 10.322,14.032 10.700 C 13.426 11.821,12.344 12.582,10.895 12.906 C 10.401 13.016,9.599 13.016,9.105 12.906 C 8.134 12.689,7.296 12.255,6.685 11.654 C 6.350 11.324,6.191 11.113,5.968 10.700 C 5.874 10.526,5.756 10.342,5.708 10.291 C 5.475 10.047,5.008 9.942,4.683 10.058 " fill="var(--db-icon-color, currentColor)" stroke="none" fill-rule="evenodd"></path></svg>