<svg id="icon" height="24" viewBox="0 0 24 24" width="24" xmlns="http://www.w3.org/2000/svg"><path d="M9.319 3.059 C 8.917 3.188,8.640 3.562,8.640 3.974 C 8.640 4.296,8.716 4.444,9.065 4.802 C 9.413 5.160,9.437 5.122,8.823 5.200 C 7.875 5.320,6.804 5.707,5.880 6.263 C 5.324 6.598,4.958 6.884,4.428 7.398 C 3.068 8.715,2.248 10.396,2.042 12.288 C 1.829 14.245,2.417 16.328,3.638 17.937 C 4.003 18.419,4.397 18.826,4.613 18.943 C 5.111 19.214,5.762 18.977,5.992 18.440 C 6.025 18.363,6.053 18.192,6.053 18.060 C 6.054 17.770,5.955 17.557,5.684 17.263 C 5.227 16.769,4.929 16.338,4.630 15.740 C 3.156 12.793,4.395 9.178,7.380 7.718 C 8.008 7.411,8.416 7.295,9.410 7.139 C 9.470 7.130,9.520 7.135,9.520 7.151 C 9.520 7.167,9.370 7.342,9.186 7.540 C 8.762 7.997,8.703 8.107,8.702 8.440 C 8.701 8.653,8.722 8.738,8.817 8.910 C 9.064 9.358,9.515 9.532,10.030 9.379 C 10.220 9.323,10.326 9.227,11.448 8.099 C 12.240 7.301,12.695 6.814,12.760 6.690 C 12.888 6.449,12.899 6.018,12.783 5.800 C 12.679 5.607,10.378 3.256,10.175 3.135 C 9.963 3.011,9.576 2.976,9.319 3.059 M10.180 12.043 C 9.616 12.120,8.776 12.400,8.360 12.650 C 7.711 13.039,7.672 13.916,8.285 14.328 C 8.647 14.571,8.908 14.570,9.488 14.324 C 10.053 14.084,10.292 14.026,10.720 14.023 C 11.034 14.020,11.124 14.034,11.240 14.102 C 11.361 14.173,11.382 14.207,11.392 14.356 C 11.404 14.513,11.390 14.542,11.234 14.690 C 11.017 14.897,10.626 15.077,9.996 15.262 C 9.314 15.462,9.282 15.476,9.095 15.663 C 8.714 16.043,8.712 16.666,9.091 17.044 C 9.390 17.344,9.722 17.400,10.415 17.268 C 10.611 17.231,10.932 17.200,11.129 17.200 C 11.522 17.200,11.678 17.257,11.757 17.428 C 11.818 17.564,11.810 17.944,11.743 18.072 C 11.478 18.579,10.581 18.862,8.818 18.994 C 8.264 19.036,8.089 19.103,7.871 19.358 C 7.559 19.722,7.559 20.278,7.871 20.642 C 8.157 20.976,8.437 21.037,9.341 20.964 C 11.907 20.756,13.342 19.947,13.724 18.493 C 13.821 18.124,13.839 17.503,13.763 17.140 C 13.688 16.777,13.432 16.279,13.183 16.010 L 12.966 15.776 13.084 15.587 C 13.300 15.240,13.412 14.829,13.414 14.380 C 13.417 13.715,13.216 13.217,12.757 12.755 C 12.467 12.464,12.015 12.212,11.580 12.098 C 11.282 12.021,10.553 11.992,10.180 12.043 M17.473 12.041 C 16.432 12.217,15.644 12.844,15.264 13.800 C 15.039 14.367,15.029 14.465,15.011 16.255 C 14.992 18.108,15.013 18.404,15.204 18.980 C 15.371 19.480,15.597 19.846,15.961 20.203 C 16.457 20.690,17.044 20.940,17.800 20.987 C 18.704 21.042,19.495 20.755,20.080 20.158 C 20.472 19.757,20.695 19.343,20.891 18.650 C 20.975 18.352,20.978 18.270,20.978 16.500 C 20.978 14.730,20.975 14.648,20.891 14.350 C 20.690 13.637,20.469 13.235,20.050 12.816 C 19.423 12.190,18.405 11.884,17.473 12.041 M18.291 14.042 C 18.619 14.133,18.878 14.491,18.961 14.967 C 18.990 15.136,19.001 15.724,18.992 16.682 C 18.979 18.087,18.975 18.148,18.888 18.366 C 18.776 18.646,18.518 18.896,18.274 18.962 C 17.877 19.069,17.448 18.921,17.238 18.604 C 17.025 18.283,17.020 18.232,17.020 16.459 L 17.020 14.818 17.152 14.551 C 17.228 14.397,17.336 14.245,17.407 14.195 C 17.664 14.012,17.983 13.957,18.291 14.042 " fill="var(--db-icon-color, currentColor)" stroke="none" fill-rule="evenodd"></path></svg>