<svg id="icon" height="32" viewBox="0 0 32 32" width="32" xmlns="http://www.w3.org/2000/svg"><path d="M14.993 2.106 C 13.195 2.513,11.824 3.730,11.258 5.423 C 10.988 6.230,10.981 6.384,10.999 11.129 L 11.015 15.547 11.155 16.054 C 11.428 17.050,11.911 17.876,12.622 18.566 C 13.299 19.223,14.013 19.631,14.911 19.873 C 15.471 20.023,16.621 20.011,17.227 19.848 C 18.168 19.595,18.949 19.133,19.600 18.447 C 20.232 17.780,20.602 17.118,20.865 16.182 C 20.983 15.764,20.984 15.717,21.002 11.360 C 21.015 8.240,21.002 6.836,20.959 6.535 C 20.664 4.488,19.181 2.738,17.270 2.182 C 16.758 2.033,15.502 1.991,14.993 2.106 M16.564 4.057 C 17.388 4.206,18.233 4.829,18.626 5.579 C 18.993 6.281,18.985 6.157,18.985 10.933 C 18.985 15.629,18.988 15.576,18.671 16.205 C 18.098 17.340,17.108 17.992,15.966 17.987 C 15.161 17.983,14.480 17.693,13.888 17.099 C 13.474 16.685,13.179 16.157,13.072 15.637 C 13.032 15.446,13.013 13.966,13.013 11.049 C 13.013 6.268,13.001 6.456,13.373 5.707 C 13.650 5.149,14.236 4.563,14.777 4.303 C 15.373 4.017,15.922 3.941,16.564 4.057 M7.460 14.179 C 7.091 14.413,7.012 14.622,7.021 15.333 C 7.043 17.111,7.746 19.043,8.916 20.539 C 9.666 21.499,10.873 22.500,11.913 23.023 C 12.694 23.417,13.743 23.757,14.600 23.894 L 14.987 23.956 14.987 25.978 L 14.987 28.000 13.907 28.001 C 12.971 28.002,12.798 28.015,12.613 28.101 C 11.709 28.518,11.853 29.764,12.830 29.973 C 13.004 30.011,14.139 30.025,16.161 30.015 L 19.227 30.000 19.453 29.879 C 20.011 29.581,20.168 28.842,19.770 28.389 C 19.461 28.037,19.312 28.002,18.093 28.001 L 17.013 28.000 17.013 25.981 L 17.013 23.962 17.627 23.847 C 21.004 23.211,23.704 20.751,24.658 17.440 C 24.975 16.340,25.084 14.942,24.884 14.539 C 24.638 14.044,23.948 13.870,23.460 14.179 C 23.118 14.396,23.030 14.614,22.978 15.370 C 22.856 17.161,22.236 18.583,21.032 19.839 C 19.685 21.245,17.948 21.986,16.000 21.986 C 14.052 21.986,12.315 21.245,10.968 19.839 C 9.764 18.583,9.144 17.161,9.022 15.370 C 8.970 14.614,8.882 14.396,8.540 14.179 C 8.349 14.058,8.238 14.027,8.000 14.027 C 7.762 14.027,7.651 14.058,7.460 14.179 " fill="var(--db-icon-color, currentColor)" stroke="none" fill-rule="evenodd"></path></svg>