<svg id="icon" height="24" viewBox="0 0 24 24" width="24" xmlns="http://www.w3.org/2000/svg"><path d="M14.160 3.069 C 14.008 3.121,13.787 3.327,12.760 4.368 C 12.089 5.049,11.498 5.681,11.447 5.773 C 11.366 5.917,11.355 5.981,11.370 6.240 C 11.380 6.414,11.415 6.595,11.455 6.671 C 11.492 6.743,12.064 7.349,12.725 8.019 C 14.049 9.360,14.079 9.382,14.540 9.378 C 14.962 9.374,15.335 9.089,15.458 8.675 C 15.534 8.417,15.535 8.384,15.461 8.135 C 15.415 7.981,15.320 7.846,15.040 7.538 L 14.678 7.140 14.813 7.128 C 14.994 7.112,15.700 7.258,16.128 7.401 C 16.865 7.647,17.657 8.124,18.252 8.682 C 19.190 9.559,19.795 10.656,20.048 11.939 C 20.173 12.568,20.171 13.565,20.044 14.160 C 19.806 15.278,19.322 16.216,18.497 17.155 C 18.193 17.501,18.119 17.664,18.121 17.985 C 18.124 18.691,18.930 19.159,19.555 18.819 C 19.873 18.646,20.534 17.875,20.955 17.189 C 21.746 15.896,22.131 14.525,22.131 13.000 C 22.131 11.993,21.985 11.173,21.644 10.266 C 21.251 9.221,20.702 8.355,19.921 7.545 C 18.647 6.225,16.984 5.380,15.222 5.158 L 14.833 5.109 15.114 4.825 C 15.443 4.493,15.558 4.270,15.559 3.963 C 15.562 3.294,14.840 2.833,14.160 3.069 M12.354 12.060 C 11.215 12.276,10.427 13.045,10.113 14.247 C 10.032 14.557,10.025 14.694,10.010 16.217 C 9.992 18.052,10.014 18.333,10.216 18.928 C 10.389 19.437,10.555 19.708,10.920 20.078 C 11.459 20.625,12.114 20.885,12.960 20.885 C 13.768 20.886,14.394 20.658,14.922 20.170 C 15.279 19.840,15.553 19.431,15.710 18.991 C 15.928 18.384,15.940 18.250,15.940 16.400 C 15.940 14.750,15.937 14.689,15.847 14.340 C 15.732 13.896,15.464 13.335,15.222 13.030 C 14.882 12.603,14.335 12.251,13.780 12.102 C 13.436 12.009,12.729 11.989,12.354 12.060 M5.632 12.260 C 5.424 12.336,3.459 13.630,3.296 13.797 C 3.062 14.039,2.973 14.502,3.095 14.844 C 3.271 15.336,3.817 15.598,4.305 15.425 C 4.390 15.395,4.568 15.305,4.700 15.225 C 4.832 15.145,4.954 15.080,4.970 15.080 C 4.987 15.080,4.996 15.967,4.990 17.050 L 4.980 19.020 4.320 19.040 C 3.572 19.063,3.511 19.082,3.252 19.376 C 2.795 19.895,2.996 20.690,3.646 20.936 C 3.802 20.996,4.054 21.001,6.040 20.991 L 8.260 20.980 8.451 20.886 C 8.840 20.695,9.061 20.221,8.960 19.798 C 8.901 19.553,8.732 19.315,8.513 19.171 C 8.351 19.063,8.327 19.059,7.663 19.040 L 6.980 19.020 6.960 15.960 C 6.941 13.068,6.936 12.892,6.865 12.749 C 6.657 12.330,6.072 12.098,5.632 12.260 M13.291 14.042 C 13.619 14.133,13.878 14.491,13.961 14.967 C 13.990 15.136,14.001 15.724,13.992 16.682 C 13.979 18.087,13.975 18.148,13.888 18.366 C 13.776 18.646,13.518 18.896,13.274 18.962 C 12.877 19.069,12.448 18.921,12.238 18.604 C 12.025 18.283,12.020 18.232,12.020 16.459 L 12.020 14.818 12.152 14.551 C 12.228 14.397,12.336 14.245,12.407 14.195 C 12.664 14.012,12.983 13.957,13.291 14.042 " fill="var(--db-icon-color, currentColor)" stroke="none" fill-rule="evenodd"></path></svg>