<svg id="icon" height="24" viewBox="0 0 24 24" width="24" xmlns="http://www.w3.org/2000/svg"><path d="M14.160 3.069 C 14.008 3.121,13.787 3.327,12.760 4.369 C 12.089 5.049,11.504 5.672,11.461 5.753 C 11.344 5.970,11.330 6.380,11.431 6.609 C 11.490 6.742,11.830 7.113,12.719 8.013 C 14.049 9.360,14.078 9.382,14.540 9.378 C 14.962 9.374,15.335 9.089,15.458 8.675 C 15.535 8.416,15.535 8.384,15.460 8.131 C 15.412 7.971,15.321 7.842,15.040 7.534 C 14.695 7.156,14.685 7.139,14.788 7.127 C 15.124 7.085,16.222 7.389,16.825 7.692 C 17.683 8.123,18.540 8.854,19.058 9.595 C 19.540 10.284,19.911 11.169,20.065 12.000 C 20.171 12.574,20.161 13.608,20.044 14.160 C 19.807 15.278,19.322 16.216,18.495 17.157 C 18.172 17.525,18.096 17.713,18.131 18.057 C 18.157 18.310,18.230 18.464,18.408 18.642 C 18.719 18.953,19.179 19.023,19.555 18.819 C 19.873 18.646,20.534 17.875,20.955 17.189 C 22.694 14.346,22.511 10.832,20.486 8.180 C 20.211 7.820,19.544 7.147,19.160 6.841 C 18.013 5.928,16.625 5.335,15.222 5.158 L 14.833 5.109 15.114 4.825 C 15.443 4.493,15.558 4.270,15.559 3.963 C 15.562 3.294,14.840 2.833,14.160 3.069 M5.020 12.043 C 4.645 12.094,4.226 12.212,3.739 12.402 C 3.031 12.679,2.806 12.882,2.713 13.323 C 2.653 13.614,2.743 13.937,2.949 14.165 C 3.301 14.555,3.696 14.602,4.322 14.329 C 4.860 14.094,5.153 14.024,5.602 14.022 C 5.900 14.020,6.007 14.035,6.090 14.090 C 6.425 14.309,6.257 14.670,5.688 14.955 C 5.451 15.073,4.871 15.273,4.466 15.375 C 4.157 15.454,3.938 15.611,3.797 15.858 C 3.643 16.127,3.616 16.337,3.698 16.618 C 3.774 16.879,3.975 17.124,4.217 17.251 C 4.421 17.358,4.757 17.363,5.255 17.268 C 5.756 17.172,6.302 17.177,6.468 17.278 C 6.623 17.373,6.697 17.600,6.658 17.863 C 6.564 18.486,5.702 18.827,3.847 18.977 C 3.230 19.027,3.141 19.044,2.978 19.139 C 2.640 19.337,2.459 19.685,2.488 20.081 C 2.519 20.518,2.886 20.920,3.311 20.984 C 3.562 21.022,4.637 20.939,5.250 20.835 C 6.129 20.686,6.944 20.392,7.473 20.033 C 7.809 19.805,8.169 19.403,8.346 19.060 C 8.583 18.599,8.657 18.277,8.655 17.700 C 8.654 17.283,8.640 17.178,8.545 16.900 C 8.406 16.497,8.278 16.275,8.027 16.011 L 7.829 15.801 7.996 15.471 C 8.475 14.518,8.334 13.497,7.625 12.780 C 7.313 12.465,6.875 12.217,6.420 12.098 C 6.122 12.021,5.393 11.992,5.020 12.043 M12.354 12.060 C 11.215 12.276,10.427 13.045,10.113 14.247 C 10.032 14.557,10.025 14.694,10.010 16.217 C 9.992 18.052,10.014 18.333,10.216 18.928 C 10.389 19.437,10.555 19.708,10.920 20.078 C 11.459 20.625,12.114 20.885,12.960 20.885 C 13.768 20.886,14.394 20.658,14.922 20.170 C 15.279 19.840,15.553 19.431,15.710 18.991 C 15.928 18.384,15.940 18.250,15.940 16.400 C 15.940 14.750,15.937 14.689,15.847 14.340 C 15.732 13.896,15.464 13.335,15.222 13.030 C 14.882 12.603,14.335 12.251,13.780 12.102 C 13.436 12.009,12.729 11.989,12.354 12.060 M13.291 14.042 C 13.619 14.133,13.878 14.491,13.961 14.967 C 13.990 15.136,14.001 15.724,13.992 16.682 C 13.979 18.087,13.975 18.148,13.888 18.366 C 13.776 18.646,13.518 18.896,13.274 18.962 C 12.877 19.069,12.448 18.921,12.238 18.604 C 12.025 18.283,12.020 18.232,12.020 16.459 L 12.020 14.818 12.152 14.551 C 12.228 14.397,12.336 14.245,12.407 14.195 C 12.664 14.012,12.983 13.957,13.291 14.042 " fill="var(--db-icon-color, currentColor)" stroke="none" fill-rule="evenodd"></path></svg>