<svg id="icon" height="20" viewBox="0 0 20 20" width="20" xmlns="http://www.w3.org/2000/svg"><path d="M8.183 2.058 C 7.620 2.260,7.361 2.851,7.600 3.391 C 7.639 3.479,7.785 3.662,7.951 3.833 L 8.236 4.124 7.860 4.181 C 5.134 4.599,2.936 6.565,2.233 9.214 C 1.956 10.259,1.929 11.314,2.151 12.459 C 2.454 14.029,3.058 14.917,3.756 14.821 C 4.120 14.771,4.490 14.485,4.615 14.158 C 4.710 13.909,4.674 13.704,4.408 13.000 C 3.925 11.722,3.839 11.033,4.033 10.024 C 4.434 7.950,6.146 6.350,8.264 6.071 L 8.477 6.043 8.090 6.413 C 7.780 6.708,7.683 6.824,7.610 6.983 C 7.375 7.495,7.584 8.010,8.127 8.259 C 8.283 8.330,8.342 8.339,8.562 8.326 C 8.976 8.301,9.024 8.265,10.152 7.127 C 11.534 5.734,11.544 5.722,11.617 5.455 C 11.687 5.194,11.671 4.972,11.565 4.761 C 11.458 4.546,9.137 2.223,8.917 2.110 C 8.698 1.997,8.410 1.977,8.183 2.058 M7.667 9.864 C 7.084 9.993,6.473 10.261,6.284 10.470 C 5.828 10.975,5.976 11.715,6.595 12.023 C 6.681 12.066,6.789 12.083,6.967 12.082 C 7.186 12.080,7.266 12.060,7.613 11.920 C 8.078 11.733,8.433 11.681,8.582 11.779 C 8.629 11.810,8.667 11.856,8.667 11.882 C 8.667 12.005,8.293 12.159,7.572 12.333 C 7.079 12.453,6.859 12.638,6.745 13.027 C 6.697 13.193,6.697 13.228,6.745 13.422 C 6.842 13.813,7.113 14.087,7.488 14.171 C 7.652 14.207,7.706 14.203,8.047 14.122 C 8.537 14.007,8.741 14.005,8.852 14.115 C 8.998 14.261,8.940 14.476,8.726 14.587 C 8.415 14.748,7.952 14.840,7.081 14.914 C 6.487 14.964,6.364 15.005,6.147 15.222 C 5.904 15.465,5.814 15.836,5.915 16.183 C 5.960 16.337,6.010 16.415,6.161 16.566 C 6.434 16.839,6.583 16.883,7.147 16.854 C 8.970 16.762,10.186 16.205,10.650 15.249 C 10.818 14.904,10.875 14.617,10.860 14.200 C 10.845 13.802,10.789 13.641,10.563 13.341 C 10.447 13.188,10.105 12.896,9.999 12.861 C 9.980 12.855,10.068 12.744,10.194 12.615 C 10.481 12.322,10.577 12.102,10.579 11.733 C 10.581 11.238,10.418 10.826,10.075 10.463 C 9.825 10.197,9.568 10.034,9.203 9.909 C 8.856 9.790,8.099 9.768,7.667 9.864 M13.794 9.933 C 13.105 10.107,12.544 10.516,12.201 11.095 C 12.060 11.332,11.999 11.482,11.892 11.850 C 11.832 12.055,11.822 12.205,11.809 13.081 C 11.793 14.164,11.814 14.429,11.956 14.883 C 12.230 15.756,12.837 16.361,13.690 16.608 C 13.912 16.672,14.024 16.683,14.450 16.680 C 14.893 16.678,14.984 16.667,15.248 16.587 C 15.745 16.436,16.040 16.262,16.384 15.918 C 16.780 15.522,16.977 15.151,17.120 14.533 C 17.188 14.243,17.221 12.836,17.172 12.383 C 17.034 11.136,16.392 10.285,15.350 9.972 C 14.971 9.857,14.170 9.837,13.794 9.933 M14.855 11.864 C 14.954 11.909,15.021 11.974,15.088 12.089 L 15.183 12.250 15.194 13.171 C 15.205 14.140,15.192 14.270,15.058 14.468 C 14.951 14.628,14.797 14.705,14.549 14.725 C 14.148 14.757,13.886 14.611,13.802 14.309 C 13.756 14.142,13.756 12.391,13.802 12.224 C 13.850 12.051,14.009 11.880,14.159 11.840 C 14.372 11.783,14.702 11.795,14.855 11.864 " fill="var(--db-icon-color, currentColor)" stroke="none" fill-rule="evenodd"></path></svg>