<svg id="icon" height="24" viewBox="0 0 24 24" width="24" xmlns="http://www.w3.org/2000/svg"><path d="M14.160 3.069 C 14.008 3.121,13.787 3.327,12.760 4.368 C 12.089 5.049,11.498 5.681,11.447 5.773 C 11.366 5.917,11.355 5.981,11.370 6.240 C 11.380 6.414,11.415 6.595,11.455 6.671 C 11.492 6.743,12.064 7.349,12.725 8.019 C 14.049 9.360,14.079 9.382,14.540 9.378 C 14.962 9.374,15.335 9.089,15.458 8.675 C 15.534 8.417,15.535 8.384,15.461 8.135 C 15.415 7.981,15.320 7.846,15.040 7.538 L 14.678 7.140 14.813 7.128 C 14.994 7.112,15.700 7.258,16.128 7.401 C 16.865 7.647,17.657 8.124,18.252 8.682 C 19.190 9.559,19.795 10.656,20.048 11.939 C 20.173 12.568,20.171 13.565,20.044 14.160 C 19.806 15.278,19.322 16.216,18.497 17.155 C 18.193 17.501,18.119 17.664,18.121 17.985 C 18.124 18.691,18.930 19.159,19.555 18.819 C 19.873 18.646,20.534 17.875,20.955 17.189 C 21.746 15.896,22.131 14.525,22.131 13.000 C 22.131 11.993,21.985 11.173,21.644 10.266 C 21.251 9.221,20.702 8.355,19.921 7.545 C 18.647 6.225,16.984 5.380,15.222 5.158 L 14.833 5.109 15.114 4.825 C 15.443 4.493,15.558 4.270,15.559 3.963 C 15.562 3.294,14.840 2.833,14.160 3.069 " fill="var(--db-icon-color, currentColor)" stroke="none" fill-rule="evenodd"></path></svg>