<svg id="icon" height="64" viewBox="0 0 64 64" width="64" xmlns="http://www.w3.org/2000/svg"><path d="M22.187 12.147 C 21.131 12.496,20.123 13.293,19.594 14.196 C 18.958 15.280,18.986 14.451,18.989 31.996 C 18.991 42.435,19.030 48.217,19.100 48.521 C 19.724 51.231,22.591 52.711,25.118 51.628 C 25.950 51.271,49.762 35.553,50.265 35.029 C 51.873 33.352,51.890 30.655,50.303 28.999 C 49.818 28.492,25.923 12.722,25.072 12.347 C 24.541 12.113,22.680 11.983,22.187 12.147 M24.990 15.776 C 25.605 16.182,31.022 19.740,37.027 23.685 C 43.033 27.630,48.031 30.930,48.134 31.019 C 48.444 31.287,48.569 31.950,48.407 32.462 C 48.242 32.981,48.431 32.843,41.493 37.487 C 36.244 41.001,32.585 43.395,27.429 46.688 C 24.007 48.873,23.850 48.960,23.335 48.960 C 22.862 48.960,22.757 48.917,22.454 48.595 C 22.265 48.394,22.079 48.076,22.042 47.888 C 21.922 47.291,21.963 16.415,22.084 15.980 C 22.247 15.393,22.726 15.040,23.358 15.040 C 23.816 15.040,23.997 15.122,24.990 15.776 " fill="var(--db-icon-color, currentColor)" stroke="none" fill-rule="evenodd"></path></svg>