<svg id="icon" height="24" viewBox="0 0 24 24" width="24" xmlns="http://www.w3.org/2000/svg"><path d="M10.685 5.063 C 10.589 5.098,9.543 5.771,8.361 6.559 L 6.212 7.992 5.096 8.010 C 3.865 8.028,3.741 8.050,3.240 8.330 C 2.924 8.507,2.448 9.003,2.290 9.320 C 2.015 9.871,2.000 10.008,2.001 11.976 C 2.001 13.941,2.015 14.075,2.256 14.573 C 2.582 15.242,3.154 15.704,3.899 15.898 C 4.084 15.946,4.366 15.960,5.161 15.960 L 6.184 15.960 8.342 17.420 C 9.529 18.224,10.545 18.901,10.600 18.926 C 10.777 19.006,11.136 19.014,11.349 18.944 C 11.560 18.873,11.782 18.673,11.906 18.440 C 11.977 18.305,11.980 18.065,11.980 12.000 C 11.980 5.930,11.977 5.695,11.905 5.560 C 11.665 5.108,11.143 4.896,10.685 5.063 M9.990 14.060 L 9.980 16.121 8.540 15.158 C 7.748 14.628,7.010 14.146,6.900 14.087 L 6.700 13.980 5.500 13.960 C 4.665 13.946,4.274 13.925,4.215 13.891 C 4.009 13.773,4.000 13.692,4.000 11.980 C 4.000 10.214,4.004 10.184,4.259 10.063 C 4.370 10.010,4.574 10.000,5.501 10.000 C 6.186 10.000,6.666 9.983,6.755 9.956 C 6.835 9.932,7.593 9.457,8.440 8.899 L 9.980 7.885 9.990 9.942 C 9.996 11.074,9.996 12.927,9.990 14.060 " fill="var(--db-icon-color, currentColor)" stroke="none" fill-rule="evenodd"></path></svg>