<svg id="icon" height="32" viewBox="0 0 32 32" width="32" xmlns="http://www.w3.org/2000/svg"><path d="M17.733 5.115 C 17.472 5.238,14.167 8.540,14.083 8.763 C 14.002 8.979,14.014 9.370,14.107 9.567 C 14.214 9.793,17.585 13.151,17.777 13.224 C 17.986 13.302,18.371 13.294,18.575 13.207 C 18.783 13.118,19.013 12.881,19.090 12.677 C 19.163 12.484,19.163 12.102,19.090 11.910 C 19.058 11.828,18.644 11.367,18.170 10.887 L 17.307 10.014 18.107 10.045 C 19.779 10.110,21.288 10.604,22.691 11.545 C 25.426 13.378,26.883 16.340,26.660 19.614 C 26.578 20.808,26.282 21.897,25.752 22.954 C 25.422 23.611,25.214 23.938,24.702 24.603 C 24.323 25.095,24.298 25.144,24.277 25.440 C 24.240 25.956,24.482 26.335,24.955 26.497 C 25.395 26.649,25.712 26.515,26.164 25.986 C 28.399 23.366,29.226 19.652,28.340 16.221 C 27.654 13.568,25.874 11.165,23.505 9.694 C 21.882 8.686,19.785 8.053,18.068 8.053 C 17.811 8.053,17.600 8.035,17.600 8.013 C 17.600 7.990,17.902 7.672,18.270 7.306 C 18.639 6.940,18.987 6.551,19.044 6.442 C 19.157 6.224,19.178 5.850,19.090 5.617 C 18.900 5.116,18.248 4.875,17.733 5.115 " fill="var(--db-icon-color, currentColor)" stroke="none" fill-rule="evenodd"></path></svg>