<svg id="icon" height="24" viewBox="0 0 24 24" width="24" xmlns="http://www.w3.org/2000/svg"><path d="M11.472 2.043 C 10.640 2.165,9.778 2.665,9.263 3.323 C 8.974 3.692,8.709 4.236,8.591 4.700 C 8.500 5.060,8.500 5.061,8.500 8.240 C 8.500 11.404,8.500 11.422,8.590 11.772 C 9.138 13.924,11.372 15.058,13.392 14.209 C 13.789 14.042,14.097 13.827,14.462 13.462 C 14.959 12.964,15.209 12.530,15.410 11.809 C 15.494 11.507,15.497 11.429,15.511 8.520 C 15.521 6.520,15.511 5.416,15.482 5.164 C 15.250 3.175,13.427 1.756,11.472 2.043 M12.520 4.099 C 12.914 4.238,13.243 4.570,13.400 4.988 C 13.480 5.204,13.482 5.264,13.471 8.314 L 13.460 11.420 13.347 11.634 C 12.850 12.579,11.678 12.784,10.947 12.053 C 10.843 11.948,10.708 11.763,10.649 11.641 L 10.540 11.420 10.540 8.260 L 10.540 5.100 10.649 4.877 C 10.844 4.480,11.252 4.146,11.670 4.041 C 11.868 3.991,12.295 4.020,12.520 4.099 M5.664 10.063 C 5.436 10.146,5.257 10.297,5.131 10.511 C 5.023 10.695,5.020 10.714,5.025 11.280 C 5.039 12.945,5.784 14.683,7.035 15.973 C 8.035 17.004,9.444 17.744,10.850 17.979 L 11.000 18.004 11.000 19.000 L 11.000 19.995 9.870 20.008 C 8.582 20.022,8.559 20.027,8.250 20.378 C 7.788 20.903,8.007 21.703,8.678 21.939 C 8.826 21.992,9.283 22.000,11.990 22.000 C 14.331 22.000,15.173 21.988,15.295 21.952 C 15.518 21.886,15.886 21.518,15.952 21.295 C 16.058 20.932,15.966 20.564,15.701 20.299 C 15.423 20.021,15.308 20.000,14.073 20.000 L 13.000 20.000 13.000 19.000 C 13.000 18.450,13.007 18.000,13.016 18.000 C 13.118 18.000,13.745 17.854,14.053 17.758 C 16.833 16.894,18.839 14.305,18.987 11.389 C 19.017 10.781,18.959 10.557,18.702 10.300 C 18.237 9.835,17.469 9.935,17.136 10.503 C 17.046 10.657,17.026 10.753,16.996 11.171 C 16.935 12.011,16.788 12.587,16.475 13.211 C 15.859 14.435,14.815 15.340,13.539 15.753 C 12.973 15.936,12.676 15.980,12.000 15.980 C 11.325 15.980,11.027 15.936,10.465 15.754 C 8.624 15.158,7.277 13.524,7.042 11.601 C 7.019 11.415,7.000 11.170,7.000 11.058 C 7.000 10.326,6.322 9.822,5.664 10.063 " fill="var(--db-icon-color, currentColor)" stroke="none" fill-rule="evenodd"></path></svg>