<svg id="icon" height="24" viewBox="0 0 24 24" width="24" xmlns="http://www.w3.org/2000/svg"><path d="M9.319 3.059 C 8.917 3.188,8.640 3.562,8.640 3.974 C 8.640 4.296,8.716 4.444,9.065 4.802 C 9.413 5.160,9.437 5.122,8.823 5.200 C 7.875 5.320,6.804 5.707,5.880 6.263 C 5.324 6.598,4.958 6.884,4.428 7.398 C 3.068 8.715,2.248 10.396,2.042 12.288 C 1.829 14.245,2.417 16.328,3.638 17.937 C 4.003 18.419,4.397 18.826,4.613 18.943 C 5.111 19.214,5.762 18.977,5.992 18.440 C 6.025 18.363,6.053 18.192,6.053 18.060 C 6.054 17.770,5.955 17.557,5.684 17.263 C 5.227 16.769,4.929 16.338,4.630 15.740 C 3.156 12.793,4.395 9.178,7.380 7.718 C 8.008 7.411,8.416 7.295,9.410 7.139 C 9.470 7.130,9.520 7.135,9.520 7.151 C 9.520 7.167,9.370 7.342,9.186 7.540 C 8.762 7.997,8.703 8.107,8.702 8.440 C 8.701 8.653,8.722 8.738,8.817 8.910 C 9.064 9.358,9.515 9.532,10.030 9.379 C 10.220 9.323,10.326 9.227,11.448 8.099 C 12.240 7.301,12.695 6.814,12.760 6.690 C 12.888 6.449,12.899 6.018,12.783 5.800 C 12.679 5.607,10.378 3.256,10.175 3.135 C 9.963 3.011,9.576 2.976,9.319 3.059 " fill="var(--db-icon-color, currentColor)" stroke="none" fill-rule="evenodd"></path></svg>