<svg id="icon" height="20" viewBox="0 0 20 20" width="20" xmlns="http://www.w3.org/2000/svg"><path d="M8.750 4.045 C 8.677 4.069,7.969 4.518,7.178 5.041 L 5.739 5.992 5.111 6.009 C 4.604 6.022,4.437 6.039,4.239 6.097 C 3.268 6.381,2.477 7.125,2.173 8.042 C 2.015 8.519,2.001 8.683,2.000 10.039 C 2.000 11.388,2.016 11.565,2.180 12.035 C 2.439 12.780,3.112 13.474,3.870 13.777 C 4.292 13.946,4.453 13.974,5.117 13.996 L 5.750 14.017 7.103 14.921 C 7.847 15.419,8.521 15.859,8.600 15.900 C 8.798 16.001,9.074 16.022,9.309 15.954 C 9.583 15.874,9.762 15.722,9.900 15.452 L 10.017 15.223 10.017 10.037 C 10.017 5.124,10.013 4.841,9.957 4.678 C 9.880 4.458,9.671 4.220,9.461 4.114 C 9.260 4.012,8.941 3.981,8.750 4.045 M7.988 13.090 C 7.981 13.096,7.655 12.894,7.263 12.639 C 6.221 11.962,6.385 12.022,5.500 11.999 C 4.684 11.978,4.616 11.964,4.366 11.766 C 4.291 11.707,4.195 11.579,4.135 11.460 L 4.033 11.256 4.034 10.003 C 4.034 8.754,4.034 8.749,4.113 8.583 C 4.212 8.375,4.400 8.193,4.617 8.095 C 4.769 8.026,4.850 8.017,5.533 7.999 C 6.145 7.983,6.309 7.969,6.422 7.921 C 6.499 7.888,6.882 7.645,7.272 7.379 L 7.983 6.897 7.992 9.987 C 7.997 11.687,7.995 13.083,7.988 13.090 " fill="var(--db-icon-color, currentColor)" stroke="none" fill-rule="evenodd"></path></svg>