<svg id="icon" height="32" viewBox="0 0 32 32" width="32" xmlns="http://www.w3.org/2000/svg"><path d="M14.527 6.129 C 14.435 6.185,13.077 7.298,11.508 8.604 L 8.655 10.977 6.554 11.000 C 4.740 11.019,4.413 11.035,4.160 11.116 C 3.374 11.366,2.669 11.958,2.335 12.648 C 2.004 13.330,2.000 13.368,2.000 16.133 C 2.000 18.617,2.001 18.643,2.123 18.981 C 2.479 19.967,3.345 20.709,4.402 20.933 C 4.690 20.994,5.208 21.012,6.706 21.012 L 8.639 21.013 11.489 23.383 C 13.057 24.686,14.400 25.793,14.475 25.842 C 14.958 26.158,15.657 25.951,15.898 25.420 C 15.994 25.208,15.998 24.870,15.999 16.012 C 16.000 6.131,16.013 6.626,15.745 6.330 C 15.476 6.032,14.853 5.930,14.527 6.129 M13.960 19.417 L 13.947 22.833 11.758 21.003 C 10.554 19.997,9.498 19.137,9.411 19.094 C 9.281 19.028,8.849 19.009,6.960 18.987 C 4.379 18.957,4.450 18.968,4.173 18.549 L 4.027 18.328 4.027 16.000 L 4.027 13.672 4.177 13.445 C 4.460 13.017,4.467 13.016,6.927 13.015 C 8.410 13.014,9.146 12.994,9.289 12.951 C 9.436 12.907,10.146 12.346,11.721 11.030 L 13.947 9.170 13.960 12.585 C 13.968 14.463,13.968 17.537,13.960 19.417 M19.867 9.410 C 19.419 9.573,19.124 10.129,19.250 10.573 C 19.340 10.889,19.478 11.036,20.000 11.371 C 20.996 12.009,21.677 12.746,22.136 13.680 C 22.556 14.534,22.632 14.891,22.633 16.027 C 22.634 16.855,22.618 17.045,22.517 17.413 C 22.377 17.920,22.067 18.586,21.755 19.051 C 21.422 19.547,20.685 20.251,20.080 20.650 C 19.451 21.065,19.339 21.177,19.250 21.480 C 19.196 21.662,19.196 21.751,19.251 21.933 C 19.404 22.444,19.755 22.693,20.269 22.656 C 20.544 22.636,20.634 22.594,21.197 22.218 C 22.964 21.042,24.067 19.455,24.488 17.482 C 24.654 16.702,24.654 15.353,24.489 14.577 C 24.186 13.157,23.618 12.070,22.650 11.058 C 21.922 10.297,20.683 9.415,20.260 9.358 C 20.161 9.344,19.984 9.368,19.867 9.410 M18.480 13.221 C 17.719 13.573,17.671 14.296,18.356 15.068 C 18.737 15.498,18.827 15.685,18.827 16.054 C 18.827 16.393,18.741 16.559,18.318 17.045 C 17.863 17.565,17.772 17.898,17.968 18.320 C 18.083 18.568,18.310 18.796,18.523 18.877 C 19.651 19.303,21.016 17.285,20.752 15.582 C 20.624 14.761,20.324 14.132,19.816 13.622 C 19.344 13.149,18.915 13.020,18.480 13.221 " fill="var(--db-icon-color, currentColor)" stroke="none" fill-rule="evenodd"></path></svg>