<svg id="icon" height="48" viewBox="0 0 48 48" width="48" xmlns="http://www.w3.org/2000/svg"><path d="M16.133 9.231 C 15.202 9.623,14.582 10.239,14.214 11.135 L 14.040 11.560 14.019 23.793 C 14.000 34.636,14.012 36.081,14.122 36.511 C 14.634 38.509,16.806 39.543,18.689 38.685 C 19.500 38.316,38.109 26.715,38.504 26.332 C 39.243 25.617,39.633 24.455,39.455 23.500 C 39.328 22.814,38.962 22.111,38.504 21.671 C 38.106 21.288,19.491 9.686,18.640 9.290 C 18.280 9.123,18.055 9.081,17.400 9.060 C 16.696 9.038,16.544 9.058,16.133 9.231 M18.972 11.785 C 20.792 12.890,28.270 17.510,32.880 20.379 C 35.102 21.762,37.017 22.997,37.136 23.123 C 37.255 23.250,37.391 23.499,37.439 23.677 C 37.551 24.092,37.432 24.562,37.136 24.875 C 37.017 25.001,35.912 25.714,34.680 26.460 C 30.300 29.111,25.994 31.778,20.760 35.080 C 17.893 36.889,17.906 36.882,17.538 36.965 C 16.973 37.092,16.240 36.655,16.077 36.093 C 16.019 35.891,16.000 32.071,16.016 23.826 L 16.040 11.852 16.207 11.626 C 16.503 11.227,16.860 11.040,17.324 11.040 C 17.712 11.040,17.835 11.096,18.972 11.785 " fill="var(--db-icon-color, currentColor)" stroke="none" fill-rule="evenodd"></path></svg>