<svg id="icon" height="20" viewBox="0 0 20 20" width="20" xmlns="http://www.w3.org/2000/svg"><path d="M10.850 2.053 C 10.698 2.101,10.572 2.217,9.413 3.378 C 8.593 4.199,8.121 4.697,8.080 4.783 C 8.035 4.878,8.017 4.990,8.017 5.167 C 8.017 5.630,7.996 5.602,9.344 6.958 C 10.218 7.836,10.587 8.185,10.698 8.238 C 10.797 8.285,10.939 8.316,11.105 8.326 C 11.325 8.339,11.384 8.330,11.540 8.259 C 11.924 8.083,12.150 7.759,12.150 7.383 C 12.150 7.057,12.029 6.854,11.573 6.413 L 11.189 6.043 11.420 6.073 C 12.439 6.206,13.442 6.694,14.208 7.429 C 14.655 7.858,14.923 8.224,15.201 8.783 C 15.530 9.447,15.670 9.980,15.718 10.750 C 15.760 11.411,15.645 11.963,15.243 13.031 C 14.976 13.741,14.949 13.932,15.075 14.208 C 15.245 14.579,15.605 14.816,16.000 14.815 C 16.278 14.815,16.427 14.743,16.675 14.493 C 17.125 14.037,17.507 12.897,17.632 11.638 C 17.807 9.885,17.263 8.066,16.151 6.683 C 15.141 5.428,13.695 4.545,12.167 4.250 C 11.938 4.206,11.677 4.160,11.588 4.149 L 11.426 4.128 11.713 3.835 C 12.066 3.475,12.149 3.311,12.147 2.983 C 12.141 2.316,11.493 1.851,10.850 2.053 " fill="var(--db-icon-color, currentColor)" stroke="none" fill-rule="evenodd"></path></svg>