<svg id="icon" height="24" viewBox="0 0 24 24" width="24" xmlns="http://www.w3.org/2000/svg"><path d="M9.319 3.059 C 8.917 3.188,8.640 3.562,8.640 3.974 C 8.640 4.296,8.716 4.444,9.065 4.802 C 9.413 5.160,9.437 5.122,8.823 5.200 C 7.875 5.320,6.804 5.707,5.880 6.263 C 5.324 6.598,4.958 6.884,4.428 7.398 C 3.068 8.715,2.248 10.396,2.042 12.288 C 1.829 14.245,2.417 16.328,3.638 17.937 C 4.003 18.419,4.397 18.826,4.613 18.943 C 5.111 19.214,5.762 18.977,5.992 18.440 C 6.025 18.363,6.053 18.192,6.053 18.060 C 6.054 17.770,5.955 17.557,5.684 17.263 C 5.227 16.769,4.929 16.338,4.630 15.740 C 3.156 12.793,4.395 9.178,7.380 7.718 C 8.008 7.411,8.416 7.295,9.410 7.139 C 9.470 7.130,9.520 7.135,9.520 7.151 C 9.520 7.167,9.370 7.342,9.186 7.540 C 8.762 7.997,8.703 8.107,8.702 8.440 C 8.701 8.653,8.722 8.738,8.817 8.910 C 9.064 9.358,9.515 9.532,10.030 9.379 C 10.220 9.323,10.326 9.227,11.448 8.099 C 12.240 7.301,12.695 6.814,12.760 6.690 C 12.888 6.449,12.899 6.018,12.783 5.800 C 12.679 5.607,10.378 3.256,10.175 3.135 C 9.963 3.011,9.576 2.976,9.319 3.059 M17.473 12.041 C 16.432 12.217,15.644 12.844,15.264 13.800 C 15.039 14.367,15.029 14.465,15.011 16.255 C 14.992 18.108,15.013 18.404,15.204 18.980 C 15.371 19.480,15.597 19.846,15.961 20.203 C 16.457 20.690,17.044 20.940,17.800 20.987 C 18.704 21.042,19.495 20.755,20.080 20.158 C 20.472 19.757,20.695 19.343,20.891 18.650 C 20.975 18.352,20.978 18.270,20.978 16.500 C 20.978 14.730,20.975 14.648,20.891 14.350 C 20.690 13.637,20.469 13.235,20.050 12.816 C 19.423 12.190,18.405 11.884,17.473 12.041 M10.609 12.162 C 10.426 12.235,8.415 13.588,8.290 13.722 C 7.922 14.116,7.969 14.850,8.385 15.194 C 8.751 15.497,9.151 15.493,9.668 15.179 C 9.830 15.081,9.971 15.000,9.981 15.000 C 9.992 15.000,10.000 15.900,10.000 17.000 L 10.000 19.000 9.385 19.000 C 8.789 19.000,8.762 19.004,8.555 19.112 C 7.828 19.492,7.819 20.505,8.540 20.894 C 8.699 20.979,8.720 20.980,11.000 20.980 C 13.280 20.980,13.301 20.979,13.460 20.894 C 13.769 20.727,13.952 20.452,13.988 20.101 C 14.031 19.686,13.812 19.293,13.432 19.104 C 13.236 19.006,13.191 19.000,12.614 19.000 L 12.003 19.000 11.991 15.950 C 11.980 12.954,11.979 12.897,11.896 12.720 C 11.793 12.495,11.592 12.291,11.381 12.195 C 11.207 12.116,10.770 12.097,10.609 12.162 M18.291 14.042 C 18.619 14.133,18.878 14.491,18.961 14.967 C 18.990 15.136,19.001 15.724,18.992 16.682 C 18.979 18.087,18.975 18.148,18.888 18.366 C 18.776 18.646,18.518 18.896,18.274 18.962 C 17.877 19.069,17.448 18.921,17.238 18.604 C 17.025 18.283,17.020 18.232,17.020 16.459 L 17.020 14.818 17.152 14.551 C 17.228 14.397,17.336 14.245,17.407 14.195 C 17.664 14.012,17.983 13.957,18.291 14.042 " fill="var(--db-icon-color, currentColor)" stroke="none" fill-rule="evenodd"></path></svg>