<svg id="icon" height="24" viewBox="0 0 24 24" width="24" xmlns="http://www.w3.org/2000/svg"><path d="M8.503 6.042 C 7.485 6.216,6.556 6.976,6.202 7.925 C 6.002 8.460,6.001 8.477,6.001 11.992 C 6.000 14.801,6.009 15.327,6.062 15.581 C 6.310 16.785,7.215 17.690,8.419 17.938 C 8.864 18.030,15.136 18.030,15.581 17.938 C 16.780 17.691,17.691 16.780,17.938 15.581 C 18.030 15.136,18.030 8.864,17.938 8.419 C 17.745 7.480,17.156 6.725,16.296 6.312 C 15.658 6.005,15.932 6.024,12.120 6.016 C 10.239 6.011,8.611 6.023,8.503 6.042 M15.330 8.057 C 15.551 8.136,15.744 8.298,15.869 8.511 L 15.980 8.700 15.991 11.912 C 15.998 14.065,15.988 15.176,15.960 15.281 C 15.901 15.498,15.690 15.761,15.478 15.880 L 15.300 15.980 12.000 15.980 L 8.700 15.980 8.522 15.880 C 8.310 15.761,8.099 15.498,8.040 15.281 C 8.012 15.176,8.002 14.065,8.009 11.912 L 8.020 8.700 8.131 8.511 C 8.256 8.298,8.449 8.136,8.670 8.057 C 8.891 7.978,15.109 7.978,15.330 8.057 " fill="var(--db-icon-color, currentColor)" stroke="none" fill-rule="evenodd"></path></svg>