<svg id="icon" height="20" viewBox="0 0 20 20" width="20" xmlns="http://www.w3.org/2000/svg"><path d="M6.711 4.062 C 6.398 4.170,6.156 4.415,6.051 4.729 C 6.005 4.870,6.000 5.437,6.008 10.085 L 6.017 15.283 6.116 15.462 C 6.345 15.877,6.811 16.083,7.250 15.963 C 7.323 15.943,9.175 14.890,11.366 13.622 C 15.672 11.129,15.570 11.195,15.791 10.780 C 16.153 10.098,16.023 9.300,15.467 8.792 C 15.333 8.670,14.220 8.011,11.336 6.346 C 9.164 5.092,7.334 4.052,7.269 4.033 C 7.094 3.985,6.906 3.994,6.711 4.062 " fill="var(--db-icon-color, currentColor)" stroke="none" fill-rule="evenodd"></path></svg>