<svg id="icon" height="20" viewBox="0 0 20 20" width="20" xmlns="http://www.w3.org/2000/svg"><path d="M10.850 2.053 C 10.698 2.101,10.572 2.217,9.413 3.378 C 8.593 4.199,8.121 4.697,8.080 4.783 C 8.035 4.878,8.017 4.990,8.017 5.167 C 8.017 5.629,7.998 5.604,9.330 6.946 C 10.349 7.972,10.545 8.155,10.717 8.237 C 11.368 8.550,12.144 8.087,12.148 7.383 C 12.150 7.057,12.030 6.855,11.573 6.413 L 11.189 6.043 11.420 6.073 C 12.439 6.206,13.442 6.694,14.208 7.429 C 14.655 7.858,14.923 8.224,15.201 8.783 C 15.530 9.447,15.670 9.980,15.718 10.750 C 15.760 11.411,15.645 11.963,15.243 13.031 C 14.976 13.741,14.949 13.932,15.075 14.208 C 15.245 14.579,15.605 14.816,16.000 14.815 C 16.278 14.815,16.427 14.743,16.675 14.493 C 17.125 14.037,17.507 12.897,17.632 11.638 C 17.807 9.885,17.263 8.066,16.151 6.683 C 15.141 5.428,13.695 4.545,12.167 4.250 C 11.938 4.206,11.677 4.160,11.588 4.149 L 11.426 4.128 11.713 3.835 C 12.066 3.475,12.149 3.311,12.147 2.983 C 12.141 2.316,11.493 1.851,10.850 2.053 M3.800 9.932 C 3.260 10.048,2.692 10.284,2.469 10.486 C 2.034 10.878,2.043 11.539,2.488 11.930 C 2.814 12.218,3.119 12.231,3.747 11.983 C 4.213 11.800,4.568 11.750,4.715 11.846 C 4.823 11.917,4.822 11.977,4.712 12.064 C 4.612 12.143,4.143 12.299,3.750 12.384 C 3.407 12.459,3.204 12.562,3.053 12.739 C 2.932 12.880,2.833 13.133,2.833 13.300 C 2.833 13.615,3.082 14.004,3.373 14.146 C 3.648 14.279,3.773 14.285,4.173 14.187 C 4.748 14.045,5.001 14.077,5.049 14.298 C 5.130 14.663,4.590 14.863,3.212 14.980 C 2.732 15.020,2.656 15.035,2.501 15.119 C 2.200 15.283,2.033 15.549,2.008 15.900 C 1.979 16.324,2.233 16.719,2.631 16.870 C 2.797 16.933,2.861 16.939,3.233 16.922 C 4.314 16.872,5.257 16.638,5.892 16.261 C 6.140 16.114,6.500 15.773,6.655 15.541 C 6.959 15.082,7.083 14.352,6.938 13.874 C 6.850 13.584,6.637 13.292,6.366 13.088 C 6.257 13.006,6.149 12.933,6.126 12.924 C 6.100 12.915,6.146 12.854,6.243 12.768 C 6.575 12.472,6.707 12.192,6.704 11.783 C 6.701 11.259,6.506 10.807,6.132 10.453 C 5.864 10.200,5.465 9.990,5.117 9.917 C 4.792 9.849,4.154 9.856,3.800 9.932 M9.894 9.933 C 9.205 10.107,8.644 10.516,8.301 11.095 C 8.160 11.332,8.099 11.482,7.992 11.850 C 7.932 12.055,7.922 12.205,7.909 13.081 C 7.893 14.164,7.914 14.429,8.056 14.883 C 8.330 15.756,8.937 16.361,9.790 16.608 C 10.012 16.672,10.124 16.683,10.550 16.680 C 10.993 16.678,11.084 16.667,11.348 16.587 C 11.845 16.436,12.140 16.262,12.484 15.918 C 12.880 15.522,13.077 15.151,13.220 14.533 C 13.288 14.243,13.321 12.836,13.272 12.383 C 13.152 11.296,12.678 10.547,11.850 10.136 C 11.447 9.937,11.256 9.895,10.667 9.881 C 10.235 9.870,10.108 9.878,9.894 9.933 M10.955 11.864 C 11.054 11.909,11.121 11.974,11.188 12.089 L 11.283 12.250 11.294 13.171 C 11.305 14.140,11.292 14.270,11.158 14.468 C 11.051 14.628,10.897 14.705,10.649 14.725 C 10.248 14.757,9.986 14.611,9.902 14.309 C 9.856 14.142,9.856 12.391,9.902 12.224 C 9.950 12.051,10.109 11.880,10.259 11.840 C 10.472 11.783,10.802 11.795,10.955 11.864 " fill="var(--db-icon-color, currentColor)" stroke="none" fill-rule="evenodd"></path></svg>