<svg id="icon" height="20" viewBox="0 0 20 20" width="20" xmlns="http://www.w3.org/2000/svg"><path d="M8.183 2.058 C 7.620 2.260,7.361 2.851,7.600 3.391 C 7.639 3.479,7.785 3.662,7.951 3.833 L 8.236 4.124 7.860 4.181 C 5.134 4.599,2.936 6.565,2.233 9.214 C 1.956 10.259,1.929 11.314,2.151 12.459 C 2.454 14.029,3.058 14.917,3.756 14.821 C 4.120 14.771,4.490 14.485,4.615 14.158 C 4.710 13.909,4.674 13.704,4.408 13.000 C 3.925 11.722,3.839 11.033,4.033 10.024 C 4.434 7.950,6.146 6.350,8.264 6.071 L 8.477 6.043 8.090 6.413 C 7.780 6.708,7.683 6.824,7.610 6.983 C 7.375 7.495,7.584 8.010,8.127 8.259 C 8.283 8.330,8.342 8.339,8.562 8.326 C 8.976 8.301,9.024 8.265,10.152 7.127 C 11.534 5.734,11.544 5.722,11.617 5.455 C 11.687 5.194,11.671 4.972,11.565 4.761 C 11.458 4.546,9.137 2.223,8.917 2.110 C 8.698 1.997,8.410 1.977,8.183 2.058 " fill="var(--db-icon-color, currentColor)" stroke="none" fill-rule="evenodd"></path></svg>