<svg id="icon" height="20" viewBox="0 0 20 20" width="20" xmlns="http://www.w3.org/2000/svg"><path d="M8.798 4.030 C 8.661 4.074,8.632 4.093,7.155 5.063 L 5.744 5.991 5.130 6.010 C 4.279 6.036,3.919 6.138,3.350 6.516 C 2.734 6.925,2.317 7.514,2.092 8.289 C 2.019 8.543,2.017 8.592,2.017 10.017 C 2.017 11.347,2.022 11.505,2.079 11.714 C 2.337 12.665,2.972 13.399,3.856 13.767 C 4.259 13.935,4.635 13.999,5.219 14.000 L 5.722 14.000 7.136 14.945 C 8.066 15.566,8.611 15.910,8.730 15.949 C 9.236 16.117,9.824 15.811,9.972 15.303 C 10.008 15.178,10.017 14.199,10.017 9.983 C 10.017 4.982,10.015 4.811,9.953 4.652 C 9.873 4.443,9.666 4.217,9.458 4.112 C 9.284 4.024,8.945 3.981,8.798 4.030 M7.988 13.090 C 7.981 13.097,7.662 12.898,7.279 12.648 C 6.233 11.964,6.388 12.021,5.500 12.000 C 4.763 11.984,4.747 11.982,4.561 11.890 C 4.346 11.785,4.189 11.623,4.087 11.402 C 4.019 11.256,4.017 11.201,4.017 10.000 L 4.017 8.750 4.108 8.576 C 4.225 8.355,4.382 8.198,4.588 8.096 C 4.741 8.021,4.795 8.016,5.517 7.999 C 6.116 7.985,6.309 7.969,6.402 7.928 C 6.468 7.899,6.850 7.656,7.252 7.387 L 7.983 6.900 7.992 9.989 C 7.997 11.687,7.995 13.083,7.988 13.090 M11.719 7.055 C 11.594 7.093,11.500 7.160,11.332 7.328 C 11.058 7.602,10.983 7.789,11.008 8.137 C 11.031 8.456,11.141 8.660,11.503 9.048 C 11.897 9.470,11.980 9.643,11.980 10.033 C 11.980 10.406,11.897 10.571,11.500 10.990 C 11.134 11.377,11.022 11.587,11.006 11.917 C 10.997 12.096,11.011 12.195,11.067 12.344 C 11.207 12.717,11.634 13.033,11.998 13.033 C 12.069 13.033,12.215 13.006,12.322 12.973 C 13.070 12.739,13.751 11.754,13.948 10.620 C 14.202 9.168,13.416 7.431,12.343 7.070 C 12.102 6.989,11.947 6.985,11.719 7.055 " fill="var(--db-icon-color, currentColor)" stroke="none" fill-rule="evenodd"></path></svg>