<svg id="icon" height="20" viewBox="0 0 20 20" width="20" xmlns="http://www.w3.org/2000/svg"><path d="M10.850 2.053 C 10.698 2.101,10.572 2.217,9.413 3.378 C 8.593 4.199,8.121 4.697,8.080 4.783 C 8.035 4.878,8.017 4.990,8.017 5.167 C 8.017 5.629,7.998 5.604,9.330 6.946 C 10.349 7.972,10.545 8.155,10.717 8.237 C 11.368 8.550,12.144 8.087,12.148 7.383 C 12.150 7.057,12.030 6.855,11.573 6.413 L 11.189 6.043 11.420 6.073 C 12.439 6.206,13.442 6.694,14.208 7.429 C 14.655 7.858,14.923 8.224,15.201 8.783 C 15.530 9.447,15.670 9.980,15.718 10.750 C 15.760 11.411,15.645 11.963,15.243 13.031 C 14.976 13.741,14.949 13.932,15.075 14.208 C 15.245 14.579,15.605 14.816,16.000 14.815 C 16.278 14.815,16.427 14.743,16.675 14.493 C 17.125 14.037,17.507 12.897,17.632 11.638 C 17.807 9.885,17.263 8.066,16.151 6.683 C 15.141 5.428,13.695 4.545,12.167 4.250 C 11.938 4.206,11.677 4.160,11.588 4.149 L 11.426 4.128 11.713 3.835 C 12.066 3.475,12.149 3.311,12.147 2.983 C 12.141 2.316,11.493 1.851,10.850 2.053 M9.894 9.933 C 9.203 10.108,8.649 10.513,8.299 11.100 C 8.160 11.332,8.099 11.482,7.992 11.850 C 7.932 12.055,7.922 12.205,7.909 13.081 C 7.893 14.164,7.914 14.429,8.056 14.883 C 8.333 15.767,8.968 16.389,9.833 16.624 C 10.136 16.706,10.928 16.704,11.233 16.621 C 11.813 16.462,12.197 16.239,12.559 15.851 C 12.883 15.505,13.091 15.089,13.220 14.533 C 13.288 14.243,13.321 12.836,13.272 12.383 C 13.152 11.296,12.678 10.547,11.850 10.136 C 11.447 9.937,11.256 9.895,10.667 9.881 C 10.235 9.870,10.108 9.878,9.894 9.933 M4.611 10.031 C 4.333 10.157,3.281 10.892,3.191 11.023 C 2.909 11.431,2.942 11.907,3.277 12.249 C 3.452 12.427,3.734 12.567,3.918 12.567 L 4.000 12.567 4.000 13.667 L 4.000 14.767 3.892 14.767 C 3.611 14.768,3.225 15.079,3.119 15.391 C 3.058 15.572,3.051 15.857,3.104 16.035 C 3.163 16.229,3.363 16.465,3.567 16.580 L 3.750 16.683 4.983 16.683 L 6.217 16.683 6.396 16.584 C 6.985 16.258,7.068 15.421,6.556 14.982 C 6.417 14.863,6.181 14.767,6.027 14.767 L 5.933 14.767 5.933 12.773 C 5.933 10.524,5.937 10.560,5.693 10.283 C 5.500 10.064,5.283 9.967,4.983 9.968 C 4.826 9.968,4.705 9.989,4.611 10.031 M10.955 11.864 C 11.054 11.909,11.121 11.974,11.188 12.089 L 11.283 12.250 11.294 13.171 C 11.305 14.140,11.292 14.270,11.158 14.468 C 11.051 14.628,10.897 14.705,10.649 14.725 C 10.248 14.757,9.986 14.611,9.902 14.309 C 9.856 14.142,9.856 12.391,9.902 12.224 C 9.950 12.051,10.109 11.880,10.259 11.840 C 10.472 11.783,10.802 11.795,10.955 11.864 " fill="var(--db-icon-color, currentColor)" stroke="none" fill-rule="evenodd"></path></svg>