<svg id="icon" height="32" viewBox="0 0 32 32" width="32" xmlns="http://www.w3.org/2000/svg"><path d="M14.993 2.109 C 13.217 2.494,11.824 3.730,11.259 5.421 C 10.995 6.209,10.987 6.387,10.987 10.963 C 10.987 13.744,11.007 15.391,11.044 15.661 C 11.205 16.813,11.727 17.819,12.594 18.643 C 13.203 19.223,13.915 19.616,14.773 19.848 C 15.425 20.025,16.575 20.025,17.227 19.848 C 18.169 19.594,18.949 19.133,19.600 18.447 C 20.231 17.781,20.599 17.123,20.866 16.182 L 20.986 15.760 20.986 11.040 L 20.987 6.320 20.865 5.840 C 20.385 3.943,18.891 2.501,17.002 2.111 C 16.498 2.007,15.467 2.006,14.993 2.109 M7.460 14.179 C 7.096 14.410,7.012 14.624,7.019 15.307 C 7.038 17.035,7.701 18.946,8.788 20.405 C 10.186 22.281,12.328 23.587,14.600 23.948 L 14.987 24.010 14.987 26.005 L 14.987 28.000 13.907 28.001 C 12.971 28.002,12.798 28.015,12.613 28.101 C 11.709 28.518,11.853 29.764,12.830 29.973 C 13.004 30.011,14.139 30.025,16.161 30.015 L 19.227 30.000 19.453 29.879 C 20.011 29.581,20.168 28.842,19.770 28.389 C 19.461 28.037,19.312 28.002,18.093 28.001 L 17.013 28.000 17.013 26.005 L 17.013 24.010 17.400 23.948 C 20.902 23.391,23.785 20.766,24.693 17.307 C 24.895 16.538,24.973 15.992,24.981 15.307 C 24.986 14.852,24.967 14.708,24.884 14.539 C 24.638 14.044,23.948 13.870,23.460 14.179 C 23.118 14.396,23.030 14.614,22.978 15.370 C 22.856 17.161,22.236 18.583,21.032 19.839 C 19.685 21.245,17.948 21.986,16.000 21.986 C 14.052 21.986,12.315 21.245,10.968 19.839 C 9.764 18.583,9.144 17.161,9.022 15.370 C 8.970 14.614,8.882 14.396,8.540 14.179 C 8.349 14.058,8.238 14.027,8.000 14.027 C 7.762 14.027,7.651 14.058,7.460 14.179 " fill="var(--db-icon-color, currentColor)" stroke="none" fill-rule="evenodd"></path></svg>