<svg id="icon" height="32" viewBox="0 0 32 32" width="32" xmlns="http://www.w3.org/2000/svg"><path d="M14.070 5.122 C 13.779 5.276,13.589 5.554,13.558 5.870 C 13.515 6.321,13.627 6.508,14.399 7.279 C 14.781 7.660,15.093 7.990,15.093 8.013 C 15.093 8.035,14.883 8.053,14.625 8.053 C 12.944 8.053,10.838 8.678,9.280 9.640 C 7.838 10.529,6.510 11.841,5.655 13.219 C 3.935 15.992,3.540 19.335,4.564 22.447 C 4.979 23.708,5.679 24.973,6.510 25.966 C 6.905 26.438,7.187 26.591,7.566 26.539 C 8.069 26.470,8.427 26.052,8.427 25.533 C 8.427 25.197,8.361 25.049,8.030 24.643 C 7.120 23.522,6.494 22.206,6.178 20.747 C 6.073 20.257,6.057 20.032,6.056 18.960 C 6.055 17.885,6.070 17.666,6.174 17.191 C 6.438 15.994,6.857 15.003,7.526 13.994 C 8.054 13.199,9.135 12.118,9.939 11.582 C 11.398 10.610,12.911 10.110,14.587 10.046 L 15.387 10.015 14.549 10.861 C 14.036 11.378,13.679 11.784,13.629 11.905 C 13.345 12.591,13.799 13.280,14.533 13.280 C 14.667 13.280,14.854 13.247,14.948 13.206 C 15.044 13.164,15.896 12.352,16.864 11.379 C 18.485 9.750,18.611 9.611,18.644 9.401 C 18.664 9.277,18.681 9.169,18.682 9.161 C 18.684 9.153,18.667 9.039,18.646 8.907 C 18.610 8.678,18.525 8.583,16.891 6.943 C 15.946 5.995,15.084 5.173,14.975 5.116 C 14.720 4.983,14.327 4.986,14.070 5.122 M13.707 16.081 C 12.591 16.256,11.415 16.778,11.187 17.199 C 10.924 17.685,11.143 18.336,11.647 18.565 C 11.959 18.706,12.239 18.692,12.613 18.515 C 13.389 18.149,14.026 18.003,14.705 18.037 C 15.242 18.064,15.472 18.158,15.629 18.416 C 15.770 18.648,15.760 18.905,15.599 19.180 C 15.358 19.591,14.640 19.982,13.593 20.272 C 12.896 20.466,12.774 20.520,12.577 20.729 C 12.197 21.130,12.233 21.746,12.658 22.119 C 12.971 22.393,13.172 22.421,13.903 22.288 C 14.250 22.225,14.762 22.172,15.042 22.170 C 15.485 22.166,15.580 22.182,15.786 22.296 C 16.119 22.481,16.230 22.698,16.232 23.166 C 16.233 23.452,16.206 23.601,16.121 23.764 C 15.989 24.016,15.664 24.325,15.376 24.472 C 14.780 24.774,13.570 25.024,12.260 25.114 C 11.488 25.167,11.329 25.216,11.083 25.475 C 10.551 26.038,10.888 27.001,11.659 27.123 C 11.943 27.168,13.242 27.061,14.027 26.929 C 14.914 26.779,15.521 26.593,16.187 26.269 C 17.574 25.592,18.237 24.592,18.239 23.171 C 18.241 22.289,17.963 21.591,17.381 21.015 L 17.027 20.664 17.232 20.380 C 17.995 19.319,17.877 17.800,16.963 16.905 C 16.198 16.156,15.061 15.869,13.707 16.081 M23.332 16.053 C 21.837 16.272,20.683 17.247,20.208 18.693 C 20.089 19.053,20.084 19.144,20.065 21.227 C 20.042 23.586,20.066 23.898,20.322 24.601 C 20.767 25.823,21.742 26.638,23.091 26.917 C 23.640 27.030,24.674 26.987,25.226 26.828 C 26.673 26.410,27.663 25.295,27.923 23.787 C 27.993 23.378,28.004 22.947,27.987 21.234 C 27.963 18.929,27.949 18.824,27.537 17.986 C 26.851 16.591,25.112 15.791,23.332 16.053 M25.120 18.192 C 25.497 18.369,25.730 18.612,25.879 18.983 C 25.993 19.268,25.998 19.359,26.016 21.251 C 26.038 23.712,25.999 23.984,25.543 24.503 C 25.198 24.896,24.377 25.111,23.600 25.013 C 22.832 24.916,22.492 24.706,22.227 24.168 L 22.053 23.816 22.053 21.520 L 22.053 19.225 22.231 18.863 C 22.427 18.464,22.631 18.293,23.110 18.123 C 23.337 18.043,23.517 18.028,24.107 18.040 C 24.752 18.053,24.857 18.069,25.120 18.192 " fill="var(--db-icon-color, currentColor)" stroke="none" fill-rule="evenodd"></path></svg>