<svg id="icon" height="32" viewBox="0 0 32 32" width="32" xmlns="http://www.w3.org/2000/svg"><path d="M14.527 6.129 C 14.435 6.185,13.077 7.298,11.508 8.604 L 8.655 10.977 6.554 11.000 C 4.740 11.019,4.413 11.035,4.160 11.116 C 3.374 11.366,2.669 11.958,2.335 12.648 C 2.004 13.330,2.000 13.368,2.000 16.133 C 2.000 18.617,2.001 18.643,2.123 18.981 C 2.479 19.967,3.345 20.709,4.402 20.933 C 4.690 20.994,5.208 21.012,6.707 21.012 L 8.640 21.013 11.491 23.384 C 13.058 24.687,14.402 25.794,14.476 25.842 C 14.958 26.158,15.657 25.951,15.898 25.420 C 15.994 25.208,15.998 24.870,15.999 16.012 C 16.000 6.131,16.013 6.626,15.745 6.330 C 15.476 6.032,14.853 5.930,14.527 6.129 M13.960 19.416 L 13.947 22.832 11.758 21.003 C 10.555 19.997,9.499 19.137,9.412 19.094 C 9.281 19.028,8.849 19.009,6.960 18.987 C 4.379 18.957,4.450 18.968,4.173 18.549 L 4.027 18.328 4.027 16.000 L 4.027 13.672 4.177 13.445 C 4.460 13.017,4.467 13.016,6.927 13.015 C 8.410 13.014,9.146 12.994,9.289 12.951 C 9.436 12.907,10.146 12.346,11.721 11.030 L 13.947 9.170 13.960 12.585 C 13.968 14.463,13.968 17.537,13.960 19.416 " fill="var(--db-icon-color, currentColor)" stroke="none" fill-rule="evenodd"></path></svg>