<svg id="icon" height="20" viewBox="0 0 20 20" width="20" xmlns="http://www.w3.org/2000/svg"><path d="M8.183 2.058 C 7.620 2.260,7.361 2.851,7.600 3.391 C 7.639 3.479,7.785 3.662,7.951 3.833 L 8.236 4.124 7.860 4.181 C 5.134 4.599,2.936 6.565,2.233 9.214 C 1.956 10.259,1.929 11.314,2.151 12.459 C 2.454 14.029,3.058 14.917,3.756 14.821 C 4.120 14.771,4.490 14.485,4.615 14.158 C 4.710 13.909,4.674 13.704,4.408 13.000 C 3.925 11.722,3.839 11.033,4.033 10.024 C 4.434 7.950,6.146 6.350,8.264 6.071 L 8.477 6.043 8.090 6.413 C 7.780 6.708,7.683 6.824,7.610 6.983 C 7.375 7.495,7.584 8.010,8.127 8.259 C 8.283 8.330,8.342 8.339,8.562 8.326 C 8.976 8.301,9.024 8.265,10.152 7.127 C 11.534 5.734,11.544 5.722,11.617 5.455 C 11.687 5.194,11.671 4.972,11.565 4.761 C 11.458 4.546,9.137 2.223,8.917 2.110 C 8.698 1.997,8.410 1.977,8.183 2.058 M13.794 9.933 C 13.103 10.108,12.549 10.513,12.199 11.100 C 12.060 11.332,11.999 11.482,11.892 11.850 C 11.832 12.055,11.822 12.205,11.809 13.081 C 11.793 14.164,11.814 14.429,11.956 14.883 C 12.233 15.767,12.868 16.389,13.733 16.624 C 14.036 16.706,14.828 16.704,15.133 16.621 C 15.713 16.462,16.097 16.239,16.459 15.851 C 16.783 15.505,16.991 15.089,17.120 14.533 C 17.188 14.243,17.221 12.836,17.172 12.383 C 17.052 11.296,16.578 10.547,15.750 10.136 C 15.347 9.937,15.156 9.895,14.567 9.881 C 14.135 9.870,14.008 9.878,13.794 9.933 M8.511 10.031 C 8.233 10.157,7.181 10.892,7.091 11.023 C 6.809 11.431,6.842 11.907,7.177 12.249 C 7.352 12.427,7.634 12.567,7.818 12.567 L 7.900 12.567 7.900 13.667 L 7.900 14.767 7.792 14.767 C 7.622 14.768,7.361 14.908,7.209 15.081 C 7.028 15.286,6.956 15.506,6.973 15.794 C 6.994 16.165,7.166 16.425,7.509 16.608 C 7.648 16.682,7.667 16.683,8.883 16.683 L 10.117 16.683 10.296 16.584 C 10.885 16.258,10.968 15.421,10.456 14.982 C 10.317 14.863,10.081 14.767,9.927 14.767 L 9.833 14.767 9.833 12.773 C 9.833 10.524,9.837 10.560,9.593 10.283 C 9.400 10.064,9.183 9.967,8.883 9.968 C 8.726 9.968,8.605 9.989,8.511 10.031 M14.855 11.864 C 14.954 11.909,15.021 11.974,15.088 12.089 L 15.183 12.250 15.194 13.171 C 15.205 14.140,15.192 14.270,15.058 14.468 C 14.951 14.628,14.797 14.705,14.549 14.725 C 14.148 14.757,13.886 14.611,13.802 14.309 C 13.756 14.142,13.756 12.391,13.802 12.224 C 13.850 12.051,14.009 11.880,14.159 11.840 C 14.372 11.783,14.702 11.795,14.855 11.864 " fill="var(--db-icon-color, currentColor)" stroke="none" fill-rule="evenodd"></path></svg>