<svg id="icon" height="24" viewBox="0 0 24 24" width="24" xmlns="http://www.w3.org/2000/svg"><path d="M8.503 6.042 C 7.485 6.216,6.556 6.976,6.202 7.925 C 6.002 8.460,6.001 8.477,6.001 11.992 C 6.000 14.801,6.009 15.327,6.062 15.581 C 6.310 16.785,7.215 17.690,8.419 17.938 C 8.864 18.030,15.136 18.030,15.581 17.938 C 16.780 17.691,17.691 16.780,17.938 15.581 C 18.030 15.136,18.030 8.864,17.938 8.419 C 17.745 7.480,17.156 6.725,16.296 6.312 C 15.658 6.005,15.932 6.024,12.120 6.016 C 10.239 6.011,8.611 6.023,8.503 6.042 " fill="var(--db-icon-color, currentColor)" stroke="none" fill-rule="evenodd"></path></svg>