<svg id="icon" height="24" viewBox="0 0 24 24" width="24" xmlns="http://www.w3.org/2000/svg"><path d="M10.660 5.073 C 10.544 5.113,9.558 5.745,8.321 6.572 L 6.182 8.000 5.221 8.001 C 4.107 8.001,3.862 8.038,3.380 8.277 C 2.674 8.628,2.193 9.267,2.041 10.060 C 2.009 10.226,1.999 10.865,2.008 12.140 C 2.020 13.958,2.022 13.983,2.115 14.240 C 2.269 14.662,2.435 14.922,2.757 15.240 C 3.106 15.586,3.420 15.767,3.864 15.881 C 4.131 15.949,4.308 15.960,5.171 15.960 L 6.168 15.960 8.334 17.426 C 9.525 18.233,10.572 18.919,10.660 18.950 C 10.860 19.022,11.250 18.997,11.442 18.901 C 11.633 18.804,11.792 18.649,11.894 18.460 L 11.980 18.300 11.990 12.082 C 12.002 5.074,12.026 5.619,11.695 5.297 C 11.404 5.014,11.047 4.937,10.660 5.073 M14.673 7.063 C 14.305 7.176,14.000 7.601,14.000 8.000 C 14.000 8.365,14.150 8.581,14.735 9.054 C 15.219 9.447,15.675 10.206,15.867 10.940 C 15.957 11.287,15.972 11.425,15.974 11.980 C 15.977 12.750,15.900 13.115,15.602 13.740 C 15.364 14.239,15.138 14.547,14.761 14.880 C 14.243 15.338,14.134 15.462,14.065 15.662 C 13.982 15.906,13.983 16.095,14.066 16.340 C 14.229 16.819,14.812 17.113,15.284 16.954 C 15.643 16.833,16.372 16.190,16.812 15.605 C 17.329 14.919,17.705 14.061,17.888 13.149 C 18.017 12.509,18.015 11.410,17.885 10.800 C 17.626 9.586,17.126 8.642,16.320 7.840 C 15.554 7.078,15.187 6.905,14.673 7.063 M10.000 12.000 L 10.000 16.120 8.446 15.084 C 7.181 14.242,6.853 14.041,6.684 14.005 C 6.560 13.978,6.039 13.960,5.397 13.960 L 4.319 13.960 4.169 13.823 L 4.020 13.686 4.010 12.033 C 3.999 10.223,3.995 10.254,4.236 10.091 C 4.369 10.002,4.392 10.000,5.496 10.000 C 6.114 10.000,6.683 9.982,6.760 9.960 C 6.837 9.939,7.593 9.463,8.440 8.903 C 9.287 8.343,9.985 7.884,9.990 7.882 C 9.995 7.881,10.000 9.734,10.000 12.000 " fill="var(--db-icon-color, currentColor)" stroke="none" fill-rule="evenodd"></path></svg>