<svg id="icon" height="32" viewBox="0 0 32 32" width="32" xmlns="http://www.w3.org/2000/svg"><path d="M14.100 5.115 C 13.795 5.254,13.590 5.539,13.558 5.870 C 13.515 6.321,13.627 6.508,14.399 7.279 C 14.781 7.660,15.093 7.990,15.093 8.013 C 15.093 8.035,14.883 8.053,14.625 8.053 C 12.944 8.053,10.838 8.678,9.280 9.640 C 7.838 10.529,6.510 11.841,5.655 13.219 C 3.935 15.992,3.540 19.335,4.564 22.447 C 4.979 23.708,5.679 24.973,6.510 25.966 C 6.905 26.438,7.187 26.591,7.566 26.539 C 8.069 26.470,8.427 26.052,8.427 25.533 C 8.427 25.197,8.361 25.049,8.030 24.643 C 7.120 23.522,6.494 22.206,6.178 20.747 C 6.073 20.257,6.057 20.032,6.056 18.960 C 6.055 17.885,6.070 17.666,6.174 17.191 C 6.438 15.994,6.857 15.003,7.526 13.994 C 8.054 13.199,9.135 12.118,9.939 11.582 C 11.398 10.610,12.911 10.110,14.587 10.046 L 15.387 10.015 14.549 10.861 C 14.036 11.378,13.679 11.784,13.629 11.905 C 13.345 12.591,13.799 13.280,14.533 13.280 C 14.667 13.280,14.854 13.247,14.948 13.206 C 15.044 13.164,15.896 12.352,16.864 11.379 C 18.485 9.750,18.611 9.611,18.644 9.401 C 18.686 9.138,18.686 9.156,18.642 8.880 C 18.612 8.686,18.449 8.507,16.891 6.941 C 15.766 5.811,15.100 5.181,14.960 5.115 C 14.688 4.988,14.380 4.988,14.100 5.115 " fill="var(--db-icon-color, currentColor)" stroke="none" fill-rule="evenodd"></path></svg>