<svg id="icon" height="32" viewBox="0 0 32 32" width="32" xmlns="http://www.w3.org/2000/svg"><path d="M11.617 7.042 C 11.278 7.098,10.760 7.383,10.526 7.642 C 10.277 7.917,10.086 8.340,10.022 8.759 C 9.990 8.966,9.976 11.812,9.985 16.240 L 10.000 23.387 10.124 23.695 C 10.381 24.330,10.883 24.778,11.518 24.938 C 11.931 25.043,12.312 25.011,12.742 24.836 C 13.146 24.672,24.187 17.627,24.445 17.368 C 24.558 17.255,24.726 17.003,24.818 16.808 C 24.965 16.497,24.986 16.397,24.986 16.000 C 24.986 15.603,24.965 15.503,24.818 15.192 C 24.726 14.997,24.558 14.745,24.444 14.632 C 24.182 14.371,13.141 7.328,12.747 7.170 C 12.404 7.033,11.969 6.983,11.617 7.042 M22.711 15.820 L 22.995 16.007 17.698 19.378 C 14.784 21.232,12.310 22.804,12.200 22.872 L 12.000 22.995 12.000 16.009 L 12.000 9.022 17.213 12.328 C 20.081 14.146,22.555 15.718,22.711 15.820 " fill="var(--db-icon-color, currentColor)" stroke="none" fill-rule="evenodd"></path></svg>