<svg id="icon" height="20" viewBox="0 0 20 20" width="20" xmlns="http://www.w3.org/2000/svg"><path d="M15.714 3.029 C 15.529 3.077,15.344 3.205,15.168 3.405 L 14.994 3.602 14.759 3.381 C 14.463 3.101,14.321 3.035,14.017 3.034 C 13.615 3.034,13.281 3.252,13.104 3.631 C 13.034 3.780,13.017 3.867,13.017 4.067 C 13.018 4.376,13.074 4.501,13.344 4.789 L 13.541 5.000 12.506 6.058 C 11.937 6.640,11.140 7.447,10.736 7.850 L 10.000 8.583 10.000 6.700 C 10.000 5.505,9.987 4.771,9.965 4.693 C 9.841 4.247,9.221 3.932,8.764 4.081 C 8.654 4.117,8.060 4.488,7.154 5.085 L 5.717 6.033 5.140 6.033 C 4.465 6.033,4.220 6.077,3.805 6.269 C 2.991 6.648,2.373 7.383,2.096 8.302 C 2.025 8.538,2.020 8.618,2.008 9.905 C 1.998 11.032,2.004 11.312,2.048 11.565 C 2.203 12.462,2.757 13.226,3.567 13.662 C 3.829 13.802,4.287 13.967,4.419 13.967 C 4.461 13.967,4.505 13.981,4.516 13.999 C 4.527 14.016,4.222 14.351,3.838 14.742 C 3.455 15.134,3.114 15.506,3.080 15.569 C 2.985 15.745,2.993 16.168,3.094 16.373 C 3.192 16.573,3.394 16.775,3.594 16.873 C 3.817 16.983,4.249 16.983,4.473 16.873 C 4.592 16.814,6.060 15.359,10.726 10.673 C 17.530 3.840,16.950 4.466,16.950 3.950 C 16.950 3.716,16.937 3.661,16.850 3.503 C 16.748 3.318,16.576 3.167,16.367 3.078 C 16.228 3.020,15.859 2.992,15.714 3.029 M7.222 11.361 L 6.444 12.139 6.318 12.086 C 6.220 12.045,6.066 12.033,5.621 12.033 C 5.010 12.033,4.736 12.003,4.553 11.916 C 4.379 11.833,4.201 11.643,4.104 11.436 L 4.017 11.250 4.017 10.017 L 4.017 8.783 4.099 8.618 C 4.203 8.407,4.398 8.213,4.595 8.122 C 4.734 8.058,4.827 8.049,5.500 8.034 C 6.408 8.013,6.319 8.045,7.300 7.373 L 7.983 6.905 7.992 8.744 L 8.001 10.583 7.222 11.361 M16.502 7.725 L 15.729 8.483 15.797 8.680 C 16.167 9.732,15.948 11.389,15.250 12.817 C 14.816 13.707,14.309 14.368,13.448 15.167 C 13.108 15.484,13.022 15.650,13.020 16.000 C 13.015 16.569,13.388 16.958,13.971 16.993 C 14.356 17.016,14.478 16.947,15.064 16.380 C 15.742 15.724,16.155 15.220,16.613 14.489 C 17.456 13.142,17.979 11.408,17.980 9.950 C 17.981 9.336,17.920 8.880,17.747 8.204 C 17.638 7.778,17.343 6.967,17.297 6.967 C 17.286 6.967,16.928 7.308,16.502 7.725 M12.704 11.533 C 12.000 12.226,11.434 12.808,11.446 12.827 C 11.493 12.903,11.837 13.000,12.060 13.000 C 12.389 12.999,12.554 12.909,12.904 12.542 C 13.357 12.065,13.647 11.588,13.831 11.017 C 13.921 10.736,14.017 10.304,13.994 10.284 C 13.988 10.279,13.408 10.841,12.704 11.533 M9.185 15.031 L 8.387 15.830 8.602 15.932 C 8.846 16.047,9.028 16.061,9.288 15.984 C 9.629 15.882,9.893 15.600,9.967 15.254 C 9.988 15.160,10.000 14.892,9.994 14.658 L 9.983 14.233 9.185 15.031 " fill="var(--db-icon-color, currentColor)" stroke="none" fill-rule="evenodd"></path></svg>