<svg id="db-systemtechnik-logo" xmlns="http://www.w3.org/2000/svg" viewBox="0 0 993 141">
  <style>
    #db-systemtechnik-logo { color-scheme: light dark; }

    .logo { fill: light-dark(#ec0016, #fff) }
    .text { fill: light-dark(#000, #fff) }
  </style>
<g transform="translate(0, 0)">
    <path class="logo"  d="M194.14 5.87A19.974 19.974 0 0 0 180 0H20.1c-2.63-.01-5.25.5-7.68 1.5-2.44 1-4.65 2.47-6.52 4.34a20.027 20.027 0 0 0-4.36 6.51A19.883 19.883 0 0 0 0 20.04v100.18c.03 5.32 2.16 10.42 5.92 14.17a20.1 20.1 0 0 0 14.18 5.86H180c5.32-.03 10.41-2.16 14.16-5.95 3.75-3.78 5.85-8.9 5.84-14.23V20.04c0-5.31-2.11-10.41-5.86-14.17Zm-8.73 114.21c.03.73-.09 1.46-.35 2.15s-.65 1.31-1.15 1.85c-.5.53-1.11.96-1.77 1.26-.67.3-1.39.46-2.12.47H20.1c-.74 0-1.47-.15-2.15-.44a5.54 5.54 0 0 1-1.81-1.25c-.51-.53-.91-1.17-1.18-1.86-.26-.69-.39-1.43-.36-2.17V20.04c-.04-.75.08-1.5.34-2.2s.66-1.34 1.17-1.89c.51-.54 1.13-.98 1.82-1.27.69-.3 1.43-.45 2.17-.45H180c.74.02 1.47.18 2.14.48.68.3 1.28.74 1.79 1.28.5.54.89 1.18 1.15 1.88.25.7.36 1.44.33 2.17v100.04Z"></path>
    <path class="logo"  d="M61.17 116.03H27.53v-91.8h33.64c23.7 0 36.8 14.87 36.8 45.48.04 26.57-8.86 46.1-36.8 46.32Zm14.62-44.42c0-18.49-2-32.94-21.8-32.94h-4.46v62.47h7.82c11.66 0 18.44-9.34 18.44-29.53ZM156.01 68c4.59-1.39 8.62-4.22 11.5-8.06 2.88-3.85 4.46-8.51 4.5-13.32 0-1.9-.38-22.36-26.16-22.36h-38.24v91.77h32.4c8.58 0 35.32 0 35.32-25.81 0-6.45-2.64-18.59-19.32-22.22Zm-26.6-29.59h6.92c9.86 0 13.78 3.45 13.78 11.06 0 6.01-4.32 11.1-12 11.1h-8.7V38.41Zm9.02 62.73h-9.02V77.56h9.62c11.42 0 14.22 6.67 14.22 11.8 0 11.78-11.24 11.78-14.82 11.78Z"></path>
    </g>

<path class="text" d="M22.68 1.60Q16.26 1.60 10.81 0.48Q5.35-0.64 0-3.10L0-3.10L0-18.40Q5.88-15.41 10.86-14.18Q15.84-12.95 21.29-12.95L21.29-12.95Q34.56-12.95 34.56-21.08L34.56-21.08Q34.56-23.54 33.28-25.14Q31.99-26.75 29.10-28.25Q26.22-29.75 19.90-32.31L19.90-32.31Q9.52-36.38 4.92-41.62Q0.32-46.87 0.32-56.07L0.32-56.07Q0.32-67.30 7.76-73.46Q15.19-79.61 28.78-79.61L28.78-79.61Q34.03-79.61 39.22-78.59Q44.41-77.58 48.47-75.97L48.47-75.97L48.47-60.67Q42.91-63.02 38.57-64.04Q34.24-65.06 29.21-65.06L29.21-65.06Q18.30-65.06 18.30-57.89L18.30-57.89Q18.30-55.43 19.74-53.71Q21.19-52.00 24.34-50.45Q27.50-48.90 34.45-46.22L34.45-46.22Q44.62-42.16 49.01-36.81Q53.39-31.46 53.39-22.68L53.39-22.68Q53.39-10.70 45.64-4.55Q37.88 1.60 22.68 1.60L22.68 1.60Z"  transform="translate(250.0000667580332, 116.00028158657369)"></path>
<path class="text" d="M66.66 21.61L78.32-4.49L56.28-57.03L75.01-57.03L87.31-26.00L99.40-57.03L115.56-57.03L83.46 21.61L66.66 21.61Z"  transform="translate(250.0000667580332, 116.00028158657369)"></path>
<path class="text" d="M138.78 1.71Q127.65 1.71 119.52-1.71L119.52-1.71L119.52-14.66Q128.94-10.70 138.14-10.70L138.14-10.70Q142.84-10.70 144.99-11.88Q147.13-13.05 147.13-15.41L147.13-15.41Q147.13-17.76 144.99-18.99Q142.84-20.22 136.53-21.83L136.53-21.83Q127.44-24.07 123.48-28.36Q119.52-32.63 119.52-40.45L119.52-40.45Q119.52-49.54 125.56-54.25Q131.61-58.96 142.74-58.96L142.74-58.96Q151.62-58.96 160.18-56.17L160.18-56.17L160.18-42.91Q150.66-46.33 142.74-46.33L142.74-46.33Q135.03-46.33 135.03-42.16L135.03-42.16Q135.03-40.45 136.21-39.43Q137.39-38.41 139.37-37.77Q141.35-37.13 147.13-35.52L147.13-35.52Q155.58-33.28 159.43-29.21Q163.28-25.14 163.28-17.98L163.28-17.98Q163.28-8.03 157.24-3.16Q151.19 1.71 138.78 1.71L138.78 1.71Z"  transform="translate(250.0000667580332, 116.00028158657369)"></path>
<path class="text" d="M195.60 1.71Q184.79 1.71 179.92-2.89Q175.05-7.49 175.05-17.66L175.05-17.66L175.05-44.62L167.67-44.62L167.67-57.03L168.85-57.03Q173.02-57.03 175.27-58.64Q177.51-60.24 178.48-63.77L178.48-63.77L180.19-69.98L193.03-69.98L193.03-57.03L206.51-57.03L206.51-44.62L193.03-44.62L193.03-19.37Q193.03-15.09 194.63-13.43Q196.24-11.77 200.30-11.77L200.30-11.77Q202.12-11.77 203.46-12.04Q204.80-12.30 207.69-13.16L207.69-13.16L207.69-0.32Q202.34 1.71 195.60 1.71L195.60 1.71Z"  transform="translate(250.0000667580332, 116.00028158657369)"></path>
<path class="text" d="M243.21 1.71Q227.38 1.71 219.94-5.51Q212.50-12.73 212.50-28.03L212.50-28.03L212.50-28.46Q212.50-43.12 219.99-51.04Q227.48-58.96 241.07-58.96L241.07-58.96Q253.91-58.96 260.44-51.52Q266.97-44.08 266.97-29.64L266.97-29.64L266.97-24.61L231.12-24.61Q231.44-19.47 232.72-16.75Q234.01-14.02 236.95-12.89Q239.89-11.77 245.24-11.77L245.24-11.77Q249.84-11.77 253.75-12.57Q257.66-13.38 263.75-15.52L263.75-15.52L263.75-2.25Q258.30-0.21 253.43 0.75Q248.56 1.71 243.21 1.71L243.21 1.71ZM231.12-34.45L249.10-34.45Q248.67-41.20 246.85-43.92Q245.03-46.65 240.75-46.65L240.75-46.65Q235.94-46.65 233.80-43.87Q231.66-41.09 231.12-34.45L231.12-34.45Z"  transform="translate(250.0000667580332, 116.00028158657369)"></path>
<path class="text" d="M275.63-55.21Q286.01-55.53 289.44-58.74L289.44-58.74L293.61-58.74L293.61-48.47Q298.00-53.50 302.49-55.96Q306.98-58.42 312.12-58.42L312.12-58.42Q317.15-58.42 320.20-56.01Q323.25-53.61 325.28-48.15L325.28-48.15Q330.63-53.39 335.50-55.91Q340.37-58.42 345.40-58.42L345.40-58.42Q352.56-58.42 356.52-53.66Q360.48-48.90 360.48-40.23L360.48-40.23L360.48 0L342.61 0L342.61-36.81Q342.61-43.87 336.84-43.87L336.84-43.87Q334.27-43.87 332.07-43.17Q329.88-42.48 326.99-40.77L326.99-40.77L326.99 0L309.12 0L309.12-36.59Q309.12-40.34 307.68-42.10Q306.23-43.87 303.34-43.87L303.34-43.87Q300.88-43.87 298.74-43.23Q296.60-42.59 293.61-40.87L293.61-40.87L293.61 0L275.63 0L275.63-55.21Z"  transform="translate(250.0000667580332, 116.00028158657369)"></path>
<path class="text" d="M395.37 1.71Q384.56 1.71 379.69-2.89Q374.82-7.49 374.82-17.66L374.82-17.66L374.82-44.62L367.44-44.62L367.44-57.03L368.62-57.03Q372.79-57.03 375.04-58.64Q377.28-60.24 378.25-63.77L378.25-63.77L379.96-69.98L392.80-69.98L392.80-57.03L406.28-57.03L406.28-44.62L392.80-44.62L392.80-19.37Q392.80-15.09 394.40-13.43Q396.01-11.77 400.07-11.77L400.07-11.77Q401.89-11.77 403.23-12.04Q404.57-12.30 407.46-13.16L407.46-13.16L407.46-0.32Q402.11 1.71 395.37 1.71L395.37 1.71Z"  transform="translate(250.0000667580332, 116.00028158657369)"></path>
<path class="text" d="M442.98 1.71Q427.14 1.71 419.71-5.51Q412.27-12.73 412.27-28.03L412.27-28.03L412.27-28.46Q412.27-43.12 419.76-51.04Q427.25-58.96 440.84-58.96L440.84-58.96Q453.68-58.96 460.21-51.52Q466.73-44.08 466.73-29.64L466.73-29.64L466.73-24.61L430.89-24.61Q431.21-19.47 432.49-16.75Q433.78-14.02 436.72-12.89Q439.66-11.77 445.01-11.77L445.01-11.77Q449.61-11.77 453.52-12.57Q457.43-13.38 463.52-15.52L463.52-15.52L463.52-2.25Q458.07-0.21 453.20 0.75Q448.33 1.71 442.98 1.71L442.98 1.71ZM430.89-34.45L448.87-34.45Q448.44-41.20 446.62-43.92Q444.80-46.65 440.52-46.65L440.52-46.65Q435.70-46.65 433.56-43.87Q431.42-41.09 430.89-34.45L430.89-34.45Z"  transform="translate(250.0000667580332, 116.00028158657369)"></path>
<path class="text" d="M501.94 1.71Q487.38 1.71 480.11-5.83Q472.83-13.38 472.83-28.25L472.83-28.25L472.83-28.68Q472.83-58.96 502.58-58.96L502.58-58.96Q511.25-58.96 519.06-56.17L519.06-56.17L519.06-41.84Q510.60-45.48 504.29-45.48L504.29-45.48Q497.44-45.48 494.45-41.78Q491.45-38.09 491.45-28.68L491.45-28.68L491.45-28.25Q491.45-18.94 494.55-15.35Q497.66-11.77 504.61-11.77L504.61-11.77Q508.25-11.77 511.57-12.57Q514.88-13.38 519.49-15.30L519.49-15.30L519.49-2.25Q511.67 1.71 501.94 1.71L501.94 1.71Z"  transform="translate(250.0000667580332, 116.00028158657369)"></path>
<path class="text" d="M528.58-77.36Q539.07-77.58 542.38-80.89L542.38-80.89L546.56-80.89L546.56-48.26Q551.48-53.71 556.24-56.12Q561.00-58.53 566.57-58.53L566.57-58.53Q573.84-58.53 577.91-53.66Q581.97-48.79 581.97-40.23L581.97-40.23L581.97 0L564.00 0L564.00-36.70Q564.00-40.23 562.23-42.05Q560.47-43.87 557.04-43.87L557.04-43.87Q554.47-43.87 552.28-43.12Q550.09-42.37 546.56-40.45L546.56-40.45L546.56 0L528.58 0L528.58-77.36Z"  transform="translate(250.0000667580332, 116.00028158657369)"></path>
<path class="text" d="M592.99-55.21Q603.37-55.53 606.80-58.74L606.80-58.74L610.97-58.74L610.97-48.26Q616.00-53.61 620.71-56.01Q625.41-58.42 630.98-58.42L630.98-58.42Q638.25-58.42 642.32-53.61Q646.39-48.79 646.39-40.23L646.39-40.23L646.39 0L628.41 0L628.41-36.49Q628.41-43.87 621.46-43.87L621.46-43.87Q618.89-43.87 616.69-43.12Q614.50-42.37 610.97-40.45L610.97-40.45L610.97 0L592.99 0L592.99-55.21Z"  transform="translate(250.0000667580332, 116.00028158657369)"></path>
<path class="text" d="M657.41-55.21Q667.79-55.53 671.21-58.74L671.21-58.74L675.38-58.74L675.38 0L657.41 0L657.41-55.21ZM666.50-63.45Q662.33-63.45 659.71-66.13Q657.09-68.80 657.09-72.87L657.09-72.87Q657.09-76.83 659.82-79.50Q662.54-82.18 666.50-82.18L666.50-82.18Q670.46-82.18 673.14-79.50Q675.81-76.83 675.81-72.76L675.81-72.76Q675.81-68.80 673.19-66.13Q670.57-63.45 666.50-63.45L666.50-63.45Z"  transform="translate(250.0000667580332, 116.00028158657369)"></path>
<path class="text" d="M686.73-77.36Q697.21-77.58 700.53-80.89L700.53-80.89L704.70-80.89L704.70-34.45L721.93-57.03L740.76-57.03L722.46-35.63L742.47 0L722.89 0L710.05-22.90L704.70-16.26L704.70 0L686.73 0L686.73-77.36Z"  transform="translate(250.0000667580332, 116.00028158657369)"></path>

</svg>
