<svg width="32" height="32" viewBox="0 0 32 32" fill="none" xmlns="http://www.w3.org/2000/svg">
<g clip-path="url(#clip0_177_3524)">
<path fill-rule="evenodd" clip-rule="evenodd" d="M17.772 17.042C17.5532 16.8921 17.4029 16.6615 17.3542 16.4008C17.3054 16.1402 17.3622 15.8708 17.512 15.652C18.382 14.378 18.854 13.463 18.854 12.285C18.8527 11.1488 18.4007 10.0595 17.5972 9.25615C16.7936 8.45282 15.7042 8.00105 14.568 8C13.458 8 12.405 8.42299 11.605 9.18999C11.5104 9.28124 11.3987 9.35288 11.2763 9.40078C11.1539 9.44869 11.0232 9.47191 10.8918 9.46912C10.7604 9.46634 10.6308 9.43759 10.5105 9.38453C10.3903 9.33148 10.2817 9.25517 10.191 9.16C10.1 9.06525 10.0286 8.95349 9.98083 8.8311C9.93308 8.70872 9.90993 8.57811 9.91272 8.44677C9.91551 8.31543 9.94417 8.18593 9.99707 8.06568C10.05 7.94543 10.1261 7.8368 10.221 7.746C11.3891 6.62288 12.9476 5.99694 14.568 5.99999C16.2345 6.00158 17.8323 6.66423 19.0108 7.84252C20.1893 9.02082 20.8522 10.6185 20.854 12.285C20.854 13.975 20.234 15.213 19.162 16.78C19.0879 16.8884 18.9931 16.9812 18.8832 17.0529C18.7732 17.1247 18.6501 17.1742 18.5211 17.1984C18.392 17.2226 18.2594 17.2212 18.1309 17.1942C18.0024 17.1672 17.8804 17.1161 17.772 17.042ZM21.656 20.183C23.156 18.099 24.854 15.738 24.854 12.286C24.854 6.61599 20.24 2.001 14.568 2.001C11.9161 1.99595 9.36579 3.02017 7.45401 4.858C7.35922 4.94878 7.28325 5.05735 7.23044 5.17751C7.17762 5.29767 7.14901 5.42706 7.14622 5.55828C7.14344 5.6895 7.16653 5.81999 7.2142 5.94228C7.26187 6.06457 7.33316 6.17627 7.42402 6.27099C7.51468 6.36617 7.62326 6.44248 7.74353 6.49554C7.86379 6.54859 7.99336 6.57734 8.12477 6.58012C8.25619 6.58291 8.38686 6.55969 8.50927 6.51178C8.63167 6.46388 8.7434 6.39224 8.83801 6.30099C10.3783 4.82156 12.4323 3.99709 14.568 4.00099C19.138 4.00099 22.854 7.717 22.854 12.285C22.854 15.093 21.484 16.998 20.034 19.015C18.95 20.521 17.829 22.078 17.384 24.015C17.1479 25.1399 16.5325 26.1495 15.6408 26.8747C14.7492 27.6 13.6354 27.9969 12.486 27.999C11.766 27.999 11.069 27.849 10.416 27.553C10.2959 27.4939 10.1651 27.4596 10.0314 27.4521C9.89778 27.4445 9.76396 27.4638 9.63792 27.509C9.51188 27.5541 9.39618 27.624 9.29768 27.7147C9.19919 27.8054 9.1199 27.9149 9.06452 28.0368C9.00913 28.1587 8.97879 28.2904 8.97528 28.4242C8.97177 28.5581 8.99516 28.6912 9.04408 28.8158C9.09299 28.9405 9.16643 29.054 9.26004 29.1497C9.35364 29.2454 9.46551 29.3213 9.58902 29.373C10.4986 29.7872 11.4866 30.0007 12.486 29.999C15.793 29.999 18.676 27.651 19.337 24.44C19.687 22.921 20.643 21.591 21.657 20.183H21.656Z" fill="#1A1C1F"/>
</g>
<defs>
<clipPath id="clip0_177_3524">
<rect width="32" height="32" fill="white"/>
</clipPath>
</defs>
</svg>
