<svg width="28" height="28" viewBox="0 0 28 28" fill="none" xmlns="http://www.w3.org/2000/svg">
<g clip-path="url(#clip0_177_3570)">
<path fill-rule="evenodd" clip-rule="evenodd" d="M15.5505 14.9591C15.359 14.828 15.2275 14.6263 15.1847 14.3983C15.142 14.1702 15.1915 13.9346 15.3225 13.7431C16.0845 12.6291 16.4975 11.8281 16.4975 10.7971C16.4962 9.80301 16.1006 8.85005 15.3976 8.14724C14.6946 7.44442 13.7416 7.04913 12.7475 7.04807C11.7755 7.04807 10.8545 7.41807 10.1545 8.08807C10.0716 8.16759 9.97379 8.22999 9.86674 8.27172C9.7597 8.31344 9.64548 8.33368 9.53061 8.33126C9.41575 8.32885 9.30248 8.30383 9.19728 8.25765C9.09208 8.21146 8.99701 8.145 8.9175 8.06207C8.75691 7.89459 8.66943 7.67017 8.6743 7.43819C8.67672 7.32332 8.70174 7.21006 8.74792 7.10486C8.79411 6.99966 8.86057 6.90459 8.9435 6.82507C9.96557 5.84276 11.3289 5.29535 12.7465 5.29807C15.7795 5.29807 18.2465 7.76507 18.2465 10.7981C18.2465 12.2751 17.7035 13.3591 16.7665 14.7301C16.6356 14.9217 16.434 15.0535 16.2059 15.0964C15.9779 15.1393 15.7421 15.0899 15.5505 14.9591ZM18.9485 17.7091C20.2605 15.8851 21.7475 13.8191 21.7475 10.7991C21.7475 5.83607 17.7095 1.79907 12.7475 1.79907C10.427 1.79469 8.19538 2.69093 6.5225 4.29907C6.35514 4.45953 6.25839 4.67989 6.25351 4.91169C6.24864 5.14348 6.33604 5.36772 6.4965 5.53507C6.65695 5.70242 6.87732 5.79918 7.10911 5.80406C7.34091 5.80893 7.56514 5.72153 7.7325 5.56107C9.08019 4.26625 10.8776 3.54464 12.7465 3.54807C16.7445 3.54807 19.9965 6.80007 19.9965 10.7981C19.9965 13.2541 18.7975 14.9211 17.5285 16.6851C16.5815 18.0041 15.6005 19.3661 15.2105 21.0611C15.004 22.0452 14.4656 22.9286 13.6855 23.5632C12.9055 24.1978 11.9311 24.5451 10.9255 24.5471C10.2945 24.5471 9.6855 24.4161 9.1135 24.1571C9.00896 24.1096 8.8961 24.0832 8.78136 24.0793C8.66662 24.0755 8.55224 24.0942 8.44476 24.1346C8.33727 24.1749 8.23879 24.2361 8.15493 24.3145C8.07107 24.3929 8.00347 24.487 7.956 24.5916C7.90852 24.6961 7.8821 24.809 7.87825 24.9237C7.87439 25.0384 7.89317 25.1528 7.93352 25.2603C7.97387 25.3678 8.03499 25.4663 8.1134 25.5501C8.19181 25.634 8.28596 25.7016 8.3905 25.7491C9.1905 26.1121 10.0435 26.2971 10.9255 26.2971C13.8185 26.2971 16.3415 24.2431 16.9195 21.4331C17.2265 20.1031 18.0625 18.9401 18.9495 17.7081L18.9485 17.7091ZM22.7315 6.45907L25.9935 3.19607C26.0747 3.11485 26.1391 3.01842 26.1831 2.9123C26.2271 2.80618 26.2497 2.69244 26.2497 2.57757C26.2497 2.46271 26.2271 2.34896 26.1831 2.24284C26.1391 2.13672 26.0747 2.04029 25.9935 1.95907C25.9123 1.87785 25.8158 1.81342 25.7097 1.76946C25.6036 1.72551 25.4899 1.70288 25.375 1.70288C25.2601 1.70288 25.1464 1.72551 25.0403 1.76946C24.9341 1.81342 24.8377 1.87785 24.7565 1.95907L21.4945 5.22107C21.4133 5.30229 21.3488 5.39872 21.3049 5.50484C21.2609 5.61096 21.2383 5.72471 21.2383 5.83957C21.2383 5.95444 21.2609 6.06818 21.3049 6.1743C21.3488 6.28042 21.4133 6.37685 21.4945 6.45807C21.5757 6.53929 21.6721 6.60372 21.7783 6.64768C21.8844 6.69164 21.9981 6.71426 22.113 6.71426C22.2279 6.71426 22.3416 6.69164 22.4477 6.64768C22.5538 6.60372 22.6503 6.53929 22.7315 6.45807V6.45907ZM3.2435 25.9451L9.3685 19.8201C9.44972 19.7388 9.51415 19.6424 9.55811 19.5363C9.60206 19.4302 9.62469 19.3164 9.62469 19.2016C9.62469 19.0867 9.60206 18.973 9.55811 18.8668C9.51415 18.7607 9.44972 18.6643 9.3685 18.5831C9.28727 18.5019 9.19085 18.4374 9.08473 18.3935C8.9786 18.3495 8.86486 18.3269 8.75 18.3269C8.63513 18.3269 8.52139 18.3495 8.41527 18.3935C8.30914 18.4374 8.21272 18.5019 8.1315 18.5831L2.0065 24.7081C1.92527 24.7893 1.86084 24.8857 1.81689 24.9918C1.77293 25.098 1.75031 25.2117 1.75031 25.3266C1.75031 25.4414 1.77293 25.5552 1.81689 25.6613C1.86084 25.7674 1.92527 25.8638 2.0065 25.9451C2.08772 26.0263 2.18414 26.0907 2.29027 26.1347C2.39639 26.1786 2.51013 26.2013 2.625 26.2013C2.73986 26.2013 2.8536 26.1786 2.95973 26.1347C3.06585 26.0907 3.16227 26.0263 3.2435 25.9451Z" fill="#1A1C1F"/>
</g>
<defs>
<clipPath id="clip0_177_3570">
<rect width="28" height="28" fill="white"/>
</clipPath>
</defs>
</svg>
