<svg width="14" height="14" viewBox="0 0 14 14" fill="none" xmlns="http://www.w3.org/2000/svg">
<g clip-path="url(#clip0_177_3582)">
<path fill-rule="evenodd" clip-rule="evenodd" d="M7.07549 7.22682C6.92076 7.12429 6.81308 6.96451 6.77614 6.78261C6.73919 6.60071 6.77601 6.41158 6.87849 6.25682C7.11449 5.90082 7.16049 5.74682 7.16049 5.59982C7.16036 5.46285 7.12005 5.32893 7.04456 5.21465C6.96906 5.10037 6.8617 5.01075 6.73577 4.95688C6.60984 4.90302 6.47088 4.88728 6.33609 4.91162C6.20131 4.93596 6.07662 4.99931 5.97749 5.09382C5.91117 5.15744 5.83297 5.20738 5.74735 5.24079C5.66173 5.27419 5.57038 5.2904 5.47849 5.2885C5.29292 5.28465 5.11648 5.20725 4.98799 5.07332C4.92436 5.007 4.87442 4.9288 4.84102 4.84318C4.80761 4.75756 4.7914 4.6662 4.79331 4.57432C4.79715 4.38875 4.87455 4.21231 5.00849 4.08382C5.39858 3.70844 5.91912 3.49908 6.46049 3.49982C7.61849 3.49982 8.56049 4.44282 8.56049 5.59982C8.56049 6.14182 8.35449 6.56382 8.04549 7.02982C7.99481 7.10653 7.9295 7.1725 7.85329 7.22394C7.77708 7.27538 7.69147 7.31127 7.60136 7.32957C7.51126 7.34787 7.41843 7.34822 7.32819 7.33058C7.23795 7.31295 7.15208 7.27769 7.07549 7.22682ZM9.39449 8.76482C9.98749 7.93982 10.6605 7.00482 10.6605 5.59982C10.6605 3.28382 8.77649 1.39982 6.46049 1.39982C5.3772 1.39756 4.33534 1.81595 3.55449 2.56682C3.48583 2.62986 3.43045 2.70599 3.39161 2.79072C3.35276 2.87546 3.33123 2.9671 3.32828 3.06027C3.32533 3.15343 3.34102 3.24625 3.37442 3.33328C3.40783 3.4203 3.45828 3.49978 3.52281 3.56704C3.58734 3.6343 3.66466 3.688 3.75023 3.72498C3.83579 3.76196 3.92788 3.78148 4.02109 3.78239C4.1143 3.7833 4.20676 3.76559 4.29303 3.73028C4.3793 3.69498 4.45765 3.64281 4.52349 3.57682C4.92031 3.19893 5.41919 2.94564 5.95844 2.84827C6.49768 2.7509 7.05364 2.81373 7.55756 3.02898C8.06148 3.24423 8.49126 3.60247 8.79374 4.05938C9.09623 4.5163 9.25815 5.05185 9.25949 5.59982C9.25949 6.55382 8.77249 7.22982 8.25649 7.94782C7.82949 8.54282 7.38849 9.15582 7.20449 9.95682C7.02949 10.8008 6.13149 11.3608 5.30049 11.1558C5.12014 11.1117 4.92964 11.141 4.77089 11.2373C4.61214 11.3336 4.49815 11.489 4.45399 11.6693C4.40983 11.8497 4.43912 12.0402 4.53542 12.1989C4.63172 12.3577 4.78714 12.4717 4.96749 12.5158C5.35285 12.6098 5.75314 12.6255 6.14468 12.5621C6.53623 12.4987 6.91109 12.3574 7.24709 12.1466C7.58309 11.9358 7.87342 11.6598 8.1009 11.3349C8.32838 11.0099 8.48839 10.6427 8.57149 10.2548C8.68849 9.74482 9.01649 9.29082 9.39449 8.76482ZM11.7625 3.22682L12.3945 2.59482C12.5258 2.46353 12.5995 2.28548 12.5995 2.09982C12.5995 1.91416 12.5258 1.7361 12.3945 1.60482C12.2632 1.47353 12.0851 1.39978 11.8995 1.39978C11.7138 1.39978 11.5358 1.47353 11.4045 1.60482L10.7735 2.23682C10.7085 2.30182 10.6569 2.37899 10.6217 2.46392C10.5866 2.54886 10.5685 2.63989 10.5685 2.73182C10.5685 2.82375 10.5866 2.91478 10.6217 2.99971C10.6569 3.08464 10.7085 3.16181 10.7735 3.22682C10.9048 3.3581 11.0828 3.43185 11.2685 3.43185C11.3604 3.43185 11.4514 3.41374 11.5364 3.37856C11.6213 3.34338 11.6985 3.29182 11.7635 3.22682H11.7625ZM2.59449 12.3938L5.62949 9.35882C5.69449 9.29381 5.74606 9.21664 5.78124 9.13171C5.81642 9.04678 5.83452 8.95575 5.83452 8.86382C5.83452 8.77189 5.81642 8.68086 5.78124 8.59592C5.74606 8.51099 5.69449 8.43382 5.62949 8.36882C5.56448 8.30381 5.48731 8.25225 5.40238 8.21707C5.31745 8.18189 5.22642 8.16378 5.13449 8.16378C5.04256 8.16378 4.95153 8.18189 4.8666 8.21707C4.78166 8.25225 4.70449 8.30381 4.63949 8.36882L1.60549 11.4048C1.54048 11.4698 1.48892 11.547 1.45374 11.6319C1.41856 11.7169 1.40045 11.8079 1.40045 11.8998C1.40045 11.9917 1.41856 12.0828 1.45374 12.1677C1.48892 12.2526 1.54048 12.3298 1.60549 12.3948C1.67049 12.4598 1.74766 12.5114 1.8326 12.5466C1.91753 12.5817 2.00856 12.5999 2.10049 12.5999C2.19242 12.5999 2.28345 12.5817 2.36838 12.5466C2.45331 12.5114 2.53048 12.4598 2.59549 12.3948L2.59449 12.3938Z" fill="#1A1C1F"/>
</g>
<defs>
<clipPath id="clip0_177_3582">
<rect width="14" height="14" fill="white"/>
</clipPath>
</defs>
</svg>
