<svg width="16" height="16" viewBox="0 0 16 16" fill="none" xmlns="http://www.w3.org/2000/svg">
<g clip-path="url(#clip0_177_3536)">
<path fill-rule="evenodd" clip-rule="evenodd" d="M8.09584 8.26001C8.0081 8.20198 7.93266 8.12721 7.87385 8.03998C7.81504 7.95276 7.77401 7.85479 7.75311 7.75168C7.73221 7.64858 7.73185 7.54236 7.75205 7.43912C7.77225 7.33588 7.81262 7.23763 7.87084 7.15001C8.14084 6.74401 8.19284 6.56801 8.19284 6.40001C8.19283 6.24342 8.14687 6.09027 8.06064 5.95956C7.97442 5.82884 7.85173 5.72631 7.70778 5.66466C7.56383 5.60301 7.40496 5.58497 7.25085 5.61276C7.09675 5.64055 6.95418 5.71296 6.84084 5.82101C6.68781 5.96781 6.48273 6.0478 6.27072 6.0434C6.05871 6.03899 5.85714 5.95054 5.71034 5.79751C5.56354 5.64448 5.48355 5.43941 5.48796 5.2274C5.49236 5.01539 5.58081 4.81381 5.73384 4.66701C6.17935 4.23846 6.77368 3.99937 7.39184 4.00001C8.71484 4.00001 9.79184 5.07701 9.79184 6.40001C9.79184 7.01901 9.55684 7.50101 9.20384 8.03401C9.14598 8.12181 9.07136 8.19731 8.98425 8.25621C8.89715 8.3151 8.79928 8.35623 8.69625 8.37722C8.59323 8.39822 8.48707 8.39867 8.38387 8.37856C8.28066 8.35845 8.18244 8.31816 8.09484 8.26001H8.09584ZM10.7458 10.017C11.4238 9.07401 12.1928 8.00501 12.1928 6.40001C12.1928 3.75301 10.0398 1.60001 7.39284 1.60001C6.15517 1.5979 4.96496 2.07613 4.07284 2.93401C3.99298 3.00567 3.92835 3.09267 3.8828 3.18982C3.83725 3.28697 3.8117 3.39229 3.80769 3.49951C3.80367 3.60673 3.82127 3.71367 3.85943 3.81395C3.89759 3.91423 3.95553 4.00582 4.02981 4.08325C4.10409 4.16068 4.19318 4.22238 4.29179 4.26467C4.39041 4.30697 4.49652 4.32899 4.60382 4.32944C4.71111 4.32988 4.8174 4.30874 4.91636 4.26726C5.01532 4.22579 5.10492 4.16483 5.17984 4.08801C5.7747 3.51663 6.56802 3.19829 7.39284 3.20001C9.15784 3.20001 10.5928 4.63601 10.5928 6.40001C10.5928 7.49001 10.0358 8.26401 9.44684 9.08401C8.95884 9.76301 8.45484 10.464 8.24384 11.379C8.04484 12.344 7.01884 12.984 6.06884 12.749C5.86415 12.7025 5.64938 12.7383 5.47084 12.8487C5.2923 12.9591 5.1643 13.1352 5.11444 13.3391C5.06458 13.543 5.09686 13.7583 5.20431 13.9386C5.31176 14.119 5.48578 14.2498 5.68884 14.303C5.95184 14.368 6.22284 14.4 6.49584 14.4C8.09584 14.4 9.48884 13.265 9.80684 11.72C9.94084 11.136 10.3138 10.618 10.7458 10.017Z" fill="#1A1C1F"/>
</g>
<defs>
<clipPath id="clip0_177_3536">
<rect width="16" height="16" fill="white"/>
</clipPath>
</defs>
</svg>
