<svg width="14" height="14" viewBox="0 0 14 14" fill="none" xmlns="http://www.w3.org/2000/svg">
<g clip-path="url(#clip0_177_3539)">
<path fill-rule="evenodd" clip-rule="evenodd" d="M7.08127 7.22679C6.92653 7.12427 6.81886 6.96448 6.78191 6.78258C6.74497 6.60068 6.78179 6.41155 6.88427 6.25679C7.12027 5.90079 7.16627 5.74679 7.16627 5.59979C7.16614 5.46282 7.12583 5.32891 7.05033 5.21463C6.97484 5.10034 6.86748 5.01072 6.74155 4.95686C6.61562 4.90299 6.47666 4.88726 6.34187 4.9116C6.20709 4.93594 6.0824 4.99928 5.98327 5.09379C5.91695 5.15741 5.83875 5.20736 5.75313 5.24076C5.66751 5.27416 5.57615 5.29038 5.48427 5.28847C5.2987 5.28463 5.12226 5.20722 4.99377 5.07329C4.93014 5.00697 4.8802 4.92877 4.8468 4.84315C4.81339 4.75754 4.79718 4.66618 4.79908 4.57429C4.80293 4.38873 4.88033 4.21229 5.01427 4.08379C5.40436 3.70841 5.9249 3.49905 6.46627 3.49979C7.62427 3.49979 8.56627 4.44279 8.56627 5.59979C8.56627 6.14179 8.36027 6.56379 8.05127 7.02979C8.00059 7.10651 7.93528 7.17248 7.85907 7.22391C7.78286 7.27535 7.69725 7.31125 7.60714 7.32955C7.51703 7.34785 7.4242 7.34819 7.33397 7.33056C7.24373 7.31292 7.15785 7.27766 7.08127 7.22679ZM9.40027 8.76479C9.99327 7.93979 10.6663 7.00479 10.6663 5.59979C10.6663 3.28379 8.78227 1.39979 6.46627 1.39979C5.38297 1.39753 4.34112 1.81592 3.56027 2.56679C3.49161 2.62983 3.43623 2.70596 3.39738 2.79069C3.35854 2.87543 3.33701 2.96707 3.33406 3.06024C3.33111 3.15341 3.3468 3.24623 3.3802 3.33325C3.41361 3.42027 3.46406 3.49975 3.52859 3.56701C3.59312 3.63428 3.67044 3.68797 3.75601 3.72495C3.84157 3.76193 3.93366 3.78145 4.02687 3.78236C4.12008 3.78327 4.21253 3.76556 4.29881 3.73026C4.38508 3.69496 4.46343 3.64278 4.52927 3.57679C4.92609 3.1989 5.42497 2.94561 5.96422 2.84824C6.50346 2.75088 7.05942 2.8137 7.56334 3.02895C8.06726 3.2442 8.49704 3.60244 8.79952 4.05935C9.102 4.51627 9.26393 5.05182 9.26527 5.59979C9.26527 6.55379 8.77827 7.22979 8.26227 7.94779C7.83527 8.54279 7.39427 9.15579 7.21027 9.95679C7.03527 10.8008 6.13727 11.3608 5.30627 11.1558C5.12592 11.1116 4.93542 11.1409 4.77667 11.2372C4.61792 11.3335 4.50392 11.4889 4.45977 11.6693C4.41561 11.8496 4.4449 12.0401 4.5412 12.1989C4.6375 12.3576 4.79292 12.4716 4.97327 12.5158C5.35863 12.6097 5.75891 12.6255 6.15046 12.5621C6.54201 12.4987 6.91687 12.3574 7.25287 12.1466C7.58887 11.9358 7.87919 11.6598 8.10667 11.3348C8.33415 11.0099 8.49417 10.6426 8.57727 10.2548C8.69427 9.74479 9.02227 9.29079 9.40027 8.76479Z" fill="#1A1C1F"/>
</g>
<defs>
<clipPath id="clip0_177_3539">
<rect width="14" height="14" fill="white"/>
</clipPath>
</defs>
</svg>
