<svg width="20" height="20" viewBox="0 0 20 20" fill="none" xmlns="http://www.w3.org/2000/svg">
<g clip-path="url(#clip0_177_3533)">
<path fill-rule="evenodd" clip-rule="evenodd" d="M10.107 10.3235C9.99748 10.251 9.90329 10.1577 9.82984 10.0488C9.75638 9.93991 9.7051 9.81762 9.67891 9.68892C9.65273 9.56021 9.65215 9.4276 9.67722 9.29868C9.70229 9.16975 9.75251 9.04702 9.82501 8.9375C10.162 8.4285 10.228 8.2085 10.228 7.9995C10.2276 7.80394 10.1699 7.61278 10.0621 7.44965C9.95422 7.28651 9.80096 7.15853 9.6212 7.08152C9.44144 7.00451 9.24306 6.98184 9.05056 7.01631C8.85806 7.05079 8.67988 7.14089 8.53801 7.2755C8.34666 7.45903 8.09024 7.55903 7.82516 7.5535C7.56007 7.54796 7.30804 7.43735 7.12452 7.246C6.94099 7.05465 6.84099 6.79822 6.84652 6.53314C6.85205 6.26806 6.96266 6.01603 7.15402 5.8325C7.71139 5.29673 8.45489 4.9981 9.22802 4.9995C10.882 4.9995 12.228 6.3455 12.228 7.9995C12.228 8.7725 11.934 9.3755 11.493 10.0415C11.4207 10.1512 11.3275 10.2456 11.2186 10.3192C11.1097 10.3928 10.9874 10.4442 10.8586 10.4704C10.7298 10.4966 10.5971 10.4971 10.4682 10.4719C10.3392 10.4467 10.2164 10.3963 10.107 10.3235ZM13.419 12.5205C14.267 11.3415 15.229 10.0055 15.229 8.0005C15.229 4.6905 12.537 2.0005 9.22901 2.0005C7.68212 1.9974 6.19437 2.59465 5.07902 3.6665C4.98422 3.75728 4.90825 3.86586 4.85544 3.98602C4.80262 4.10617 4.77401 4.23556 4.77122 4.36678C4.76844 4.49801 4.79153 4.62849 4.8392 4.75078C4.88687 4.87308 4.95816 4.98478 5.04902 5.0795C5.13966 5.17453 5.24818 5.25071 5.36836 5.30368C5.48853 5.35664 5.61798 5.38534 5.74928 5.38813C5.88058 5.39091 6.01113 5.36773 6.13345 5.31992C6.25576 5.2721 6.36742 5.2006 6.46202 5.1095C7.20551 4.39531 8.19707 3.99739 9.22802 3.9995C11.434 3.9995 13.228 5.7935 13.228 7.9995C13.228 9.3615 12.532 10.3295 11.796 11.3535C11.186 12.2035 10.556 13.0795 10.292 14.2235C10.043 15.4295 8.76002 16.2285 7.57302 15.9355C7.31536 15.8724 7.04318 15.9142 6.81635 16.0518C6.58953 16.1893 6.42664 16.4113 6.36351 16.669C6.30039 16.9267 6.34221 17.1988 6.47977 17.4257C6.61733 17.6525 6.83936 17.8154 7.09701 17.8785C7.42701 17.9585 7.76702 17.9995 8.10702 17.9995C10.107 17.9995 11.848 16.5805 12.247 14.6495C12.413 13.9195 12.879 13.2715 13.419 12.5205Z" fill="#1A1C1F"/>
</g>
<defs>
<clipPath id="clip0_177_3533">
<rect width="20" height="20" fill="white"/>
</clipPath>
</defs>
</svg>
