<svg width="32" height="32" viewBox="0 0 32 32" fill="none" xmlns="http://www.w3.org/2000/svg">
<g clip-path="url(#clip0_177_3567)">
<path fill-rule="evenodd" clip-rule="evenodd" d="M17.7715 17.0969C17.5527 16.947 17.4024 16.7164 17.3536 16.4557C17.3049 16.1951 17.3617 15.9257 17.5115 15.7069C18.3815 14.4329 18.8535 13.5179 18.8535 12.3399C18.8522 11.2037 18.4002 10.1144 17.5966 9.31105C16.7931 8.50772 15.7037 8.05595 14.5675 8.05489C13.4575 8.05489 12.4045 8.47789 11.6045 9.24489C11.5099 9.33614 11.3982 9.40778 11.2758 9.45568C11.1533 9.50358 11.0227 9.52681 10.8913 9.52402C10.7598 9.52123 10.6303 9.49249 10.51 9.43943C10.3897 9.38638 10.2812 9.31007 10.1905 9.21489C10.0995 9.12015 10.0281 9.00838 9.98032 8.886C9.93256 8.76362 9.90942 8.63301 9.9122 8.50167C9.91499 8.37033 9.94365 8.24083 9.99656 8.12058C10.0495 8.00033 10.1256 7.89169 10.2205 7.80089C11.3886 6.67778 12.947 6.05184 14.5675 6.05489C16.234 6.05648 17.8318 6.71913 19.0103 7.89742C20.1887 9.07572 20.8516 10.6734 20.8535 12.3399C20.8535 14.0299 20.2335 15.2679 19.1615 16.8349C19.0874 16.9433 18.9926 17.0361 18.8826 17.1078C18.7727 17.1796 18.6496 17.2291 18.5206 17.2533C18.3915 17.2775 18.2589 17.2761 18.1304 17.2491C18.0018 17.2221 17.8799 17.171 17.7715 17.0969ZM21.6555 20.2379C23.1555 18.1539 24.8535 15.7929 24.8535 12.3409C24.8535 6.67089 20.2395 2.05589 14.5675 2.05589C11.9156 2.05084 9.36527 3.07507 7.4535 4.91289C7.35871 5.00368 7.28273 5.11225 7.22992 5.23241C7.17711 5.35257 7.14849 5.48196 7.1457 5.61318C7.14292 5.7444 7.16602 5.87489 7.21368 5.99718C7.26135 6.11947 7.33264 6.23117 7.4235 6.32589C7.51416 6.42107 7.62274 6.49738 7.74301 6.55043C7.86327 6.60349 7.99284 6.63223 8.12426 6.63502C8.25567 6.63781 8.38634 6.61458 8.50875 6.56668C8.63116 6.51878 8.74288 6.44714 8.8375 6.35589C10.3778 4.87645 12.4318 4.05199 14.5675 4.05589C19.1375 4.05589 22.8535 7.77189 22.8535 12.3399C22.8535 15.1479 21.4835 17.0529 20.0335 19.0699C18.9495 20.5759 17.8285 22.1329 17.3835 24.0699C17.1474 25.1948 16.532 26.2044 15.6403 26.9296C14.7487 27.6549 13.6349 28.0518 12.4855 28.0539C11.7655 28.0539 11.0685 27.9039 10.4155 27.6079C10.2954 27.5488 10.1646 27.5145 10.0309 27.507C9.89726 27.4994 9.76344 27.5187 9.6374 27.5639C9.51136 27.609 9.39566 27.6789 9.29717 27.7696C9.19867 27.8603 9.11938 27.9698 9.064 28.0917C9.00862 28.2136 8.97827 28.3453 8.97476 28.4791C8.97125 28.613 8.99465 28.7461 9.04356 28.8707C9.09247 28.9954 9.16591 29.1089 9.25952 29.2046C9.35313 29.3003 9.465 29.3762 9.5885 29.4279C10.498 29.8421 11.4861 30.0556 12.4855 30.0539C15.7925 30.0539 18.6755 27.7059 19.3365 24.4949C19.6865 22.9759 20.6425 21.6459 21.6565 20.2379H21.6555ZM25.9785 7.38089L29.7065 3.65289C29.7993 3.56005 29.873 3.44983 29.9232 3.32852C29.9735 3.20721 29.9993 3.0772 29.9993 2.94589C29.9993 2.81459 29.9735 2.68458 29.9232 2.56327C29.873 2.44196 29.7993 2.33174 29.7065 2.23889C29.6137 2.14605 29.5034 2.0724 29.3821 2.02215C29.2608 1.97191 29.1308 1.94604 28.9995 1.94604C28.8682 1.94604 28.7382 1.97191 28.6169 2.02215C28.4956 2.0724 28.3853 2.14605 28.2925 2.23889L24.5645 5.96689C24.4717 6.05974 24.398 6.16996 24.3478 6.29127C24.2975 6.41258 24.2716 6.54259 24.2716 6.67389C24.2716 6.8052 24.2975 6.93521 24.3478 7.05652C24.398 7.17783 24.4717 7.28805 24.5645 7.38089C24.6573 7.47374 24.7676 7.54739 24.8889 7.59763C25.0102 7.64788 25.1402 7.67374 25.2715 7.67374C25.4028 7.67374 25.5328 7.64788 25.6541 7.59763C25.7754 7.54739 25.8857 7.47374 25.9785 7.38089ZM3.7075 29.6529L10.7075 22.6529C10.8003 22.56 10.874 22.4498 10.9242 22.3285C10.9745 22.2072 11.0003 22.0772 11.0003 21.9459C11.0003 21.8146 10.9745 21.6846 10.9242 21.5633C10.874 21.442 10.8003 21.3317 10.7075 21.2389C10.6147 21.1461 10.5044 21.0724 10.3831 21.0222C10.2618 20.9719 10.1318 20.946 10.0005 20.946C9.8692 20.946 9.73918 20.9719 9.61787 21.0222C9.49656 21.0724 9.38634 21.1461 9.2935 21.2389L2.2935 28.2389C2.20065 28.3317 2.127 28.442 2.07676 28.5633C2.02651 28.6846 2.00065 28.8146 2.00065 28.9459C2.00065 29.0772 2.02651 29.2072 2.07676 29.3285C2.127 29.4498 2.20065 29.56 2.2935 29.6529C2.38634 29.7457 2.49656 29.8194 2.61787 29.8696C2.73918 29.9199 2.8692 29.9457 3.0005 29.9457C3.1318 29.9457 3.26182 29.9199 3.38312 29.8696C3.50443 29.8194 3.61465 29.7457 3.7075 29.6529Z" fill="#1A1C1F"/>
</g>
<defs>
<clipPath id="clip0_177_3567">
<rect width="32" height="32" fill="white"/>
</clipPath>
</defs>
</svg>
