<svg width="12" height="12" viewBox="0 0 12 12" fill="none" xmlns="http://www.w3.org/2000/svg">
<g clip-path="url(#clip0_231_8)">
<path fill-rule="evenodd" clip-rule="evenodd" d="M6.06964 6.19438C5.93702 6.1065 5.84472 5.96954 5.81306 5.81363C5.78139 5.65771 5.81295 5.4956 5.90079 5.36295C6.10307 5.05781 6.1425 4.92581 6.1425 4.79981C6.14239 4.68241 6.10784 4.56762 6.04313 4.46967C5.97842 4.37171 5.8864 4.29489 5.77846 4.24872C5.67052 4.20255 5.55141 4.18906 5.43588 4.20993C5.32035 4.23079 5.21347 4.28509 5.1285 4.36609C5.07166 4.42063 5.00463 4.46343 4.93124 4.49207C4.85785 4.5207 4.77955 4.53459 4.70079 4.53296C4.54173 4.52967 4.3905 4.46332 4.28036 4.34852C4.22582 4.29168 4.18302 4.22465 4.15438 4.15126C4.12575 4.07788 4.11186 3.99957 4.11349 3.92081C4.11678 3.76175 4.18313 3.61052 4.29793 3.50038C4.6323 3.17863 5.07847 2.99918 5.5425 2.99981C6.53507 2.99981 7.3425 3.80809 7.3425 4.79981C7.3425 5.26438 7.16593 5.62609 6.90107 6.02552C6.85764 6.09128 6.80165 6.14782 6.73633 6.19191C6.67101 6.236 6.59763 6.26677 6.52039 6.28246C6.44316 6.29814 6.36359 6.29844 6.28624 6.28332C6.2089 6.26821 6.13529 6.23798 6.06964 6.19438ZM8.05736 7.51266C8.56564 6.80552 9.1425 6.00409 9.1425 4.79981C9.1425 2.81466 7.52764 1.19981 5.5425 1.19981C4.61397 1.19787 3.72094 1.55649 3.05164 2.20009C2.99279 2.25413 2.94533 2.31938 2.91203 2.39201C2.87874 2.46464 2.86028 2.54319 2.85775 2.62305C2.85522 2.70291 2.86867 2.78247 2.8973 2.85706C2.92594 2.93165 2.96918 2.99977 3.02449 3.05743C3.07981 3.11508 3.14608 3.16111 3.21942 3.1928C3.29276 3.2245 3.3717 3.24123 3.45159 3.24201C3.53149 3.24279 3.61073 3.22761 3.68468 3.19735C3.75863 3.16709 3.82578 3.12237 3.88221 3.06581C4.22235 2.7419 4.64996 2.5248 5.11217 2.44134C5.57438 2.35788 6.05092 2.41173 6.48285 2.59623C6.91478 2.78073 7.28316 3.08779 7.54243 3.47943C7.8017 3.87107 7.9405 4.33012 7.94164 4.79981C7.94164 5.61752 7.52422 6.19695 7.08193 6.81238C6.71593 7.32238 6.33793 7.84781 6.18021 8.53438C6.03021 9.25781 5.2605 9.73781 4.54821 9.56209C4.39363 9.52424 4.23034 9.54935 4.09427 9.63189C3.9582 9.71444 3.86049 9.84765 3.82264 10.0022C3.78479 10.1568 3.8099 10.3201 3.89244 10.4562C3.97499 10.5922 4.1082 10.69 4.26279 10.7278C4.59309 10.8083 4.9362 10.8218 5.27181 10.7675C5.60742 10.7131 5.92873 10.592 6.21673 10.4113C6.50473 10.2307 6.75358 9.99407 6.94857 9.71555C7.14355 9.43703 7.28071 9.12225 7.35193 8.78981C7.45221 8.35266 7.73336 7.96352 8.05736 7.51266Z" fill="#1A1C1F"/>
</g>
<defs>
<clipPath id="clip0_231_8">
<rect width="12" height="12" fill="white"/>
</clipPath>
</defs>
</svg>
