<svg width="12" height="12" viewBox="0 0 12 12" fill="none" xmlns="http://www.w3.org/2000/svg">
<g clip-path="url(#clip0_231_11)">
<path fill-rule="evenodd" clip-rule="evenodd" d="M6.06469 6.19443C5.93207 6.10655 5.83977 5.9696 5.80811 5.81368C5.77644 5.65776 5.808 5.49566 5.89584 5.363C6.09812 5.05786 6.13755 4.92586 6.13755 4.79986C6.13744 4.68246 6.10289 4.56767 6.03818 4.46972C5.97347 4.37176 5.88145 4.29494 5.77351 4.24878C5.66557 4.20261 5.54646 4.18912 5.43093 4.20998C5.3154 4.23084 5.20853 4.28514 5.12355 4.36615C5.06671 4.42068 4.99968 4.46349 4.92629 4.49212C4.85291 4.52075 4.7746 4.53465 4.69584 4.53302C4.53678 4.52972 4.38555 4.46337 4.27541 4.34857C4.22087 4.29173 4.17807 4.2247 4.14944 4.15131C4.1208 4.07793 4.10691 3.99962 4.10854 3.92086C4.11183 3.76181 4.17818 3.61057 4.29298 3.50043C4.62735 3.17868 5.07352 2.99923 5.53755 2.99986C6.53012 2.99986 7.33755 3.80815 7.33755 4.79986C7.33755 5.26443 7.16098 5.62615 6.89612 6.02557C6.85269 6.09133 6.7967 6.14788 6.73138 6.19197C6.66606 6.23606 6.59268 6.26682 6.51544 6.28251C6.43821 6.29819 6.35864 6.29849 6.28129 6.28338C6.20395 6.26826 6.13034 6.23804 6.06469 6.19443ZM8.05241 7.51272C8.56069 6.80557 9.13755 6.00415 9.13755 4.79986C9.13755 2.81472 7.52269 1.19986 5.53755 1.19986C4.60902 1.19792 3.71599 1.55655 3.04669 2.20015C2.98784 2.25418 2.94038 2.31943 2.90708 2.39206C2.87379 2.46469 2.85533 2.54324 2.8528 2.6231C2.85028 2.70296 2.86372 2.78252 2.89235 2.85711C2.92099 2.9317 2.96423 2.99982 3.01954 3.05748C3.07486 3.11513 3.14113 3.16116 3.21447 3.19286C3.28781 3.22456 3.36675 3.24129 3.44664 3.24207C3.52654 3.24285 3.60578 3.22766 3.67973 3.1974C3.75368 3.16715 3.82084 3.12242 3.87727 3.06586C4.2174 2.74195 4.64501 2.52485 5.10722 2.44139C5.56943 2.35793 6.04597 2.41179 6.4779 2.59629C6.90983 2.78079 7.27821 3.08784 7.53748 3.47949C7.79676 3.87113 7.93555 4.33018 7.93669 4.79986C7.93669 5.61757 7.51927 6.197 7.07698 6.81243C6.71098 7.32243 6.33298 7.84786 6.17527 8.53443C6.02527 9.25786 5.25555 9.73786 4.54327 9.56215C4.38868 9.5243 4.22539 9.5494 4.08932 9.63195C3.95325 9.71449 3.85555 9.8477 3.81769 10.0023C3.77984 10.1569 3.80495 10.3202 3.8875 10.4562C3.97004 10.5923 4.10325 10.69 4.25784 10.7279C4.58815 10.8084 4.93125 10.8219 5.26686 10.7675C5.60247 10.7132 5.92378 10.5921 6.21178 10.4114C6.49978 10.2307 6.74863 9.99412 6.94362 9.7156C7.1386 9.43709 7.27576 9.1223 7.34698 8.78986C7.44727 8.35272 7.72841 7.96357 8.05241 7.51272ZM10.0821 2.76586L10.6238 2.22415C10.7364 2.11162 10.7996 1.959 10.7996 1.79986C10.7996 1.64072 10.7364 1.4881 10.6238 1.37557C10.5113 1.26305 10.3587 1.19983 10.1996 1.19983C10.0404 1.19983 9.88779 1.26305 9.77527 1.37557L9.23441 1.91729C9.17869 1.97301 9.13449 2.03915 9.10434 2.11195C9.07418 2.18475 9.05866 2.26278 9.05866 2.34157C9.05866 2.42037 9.07418 2.4984 9.10434 2.5712C9.13449 2.64399 9.17869 2.71014 9.23441 2.76586C9.34694 2.87839 9.49956 2.9416 9.65869 2.9416C9.73749 2.9416 9.81552 2.92608 9.88832 2.89593C9.96112 2.86578 10.0273 2.82158 10.083 2.76586H10.0821ZM2.22384 10.6233L4.82527 8.02186C4.88098 7.96614 4.92518 7.89999 4.95534 7.8272C4.98549 7.7544 5.00101 7.67637 5.00101 7.59757C5.00101 7.51878 4.98549 7.44075 4.95534 7.36795C4.92518 7.29515 4.88098 7.22901 4.82527 7.17329C4.76955 7.11757 4.7034 7.07337 4.6306 7.04322C4.5578 7.01306 4.47978 6.99754 4.40098 6.99754C4.32218 6.99754 4.24416 7.01306 4.17136 7.04322C4.09856 7.07337 4.03241 7.11757 3.97669 7.17329L1.37612 9.77557C1.32041 9.83129 1.27621 9.89744 1.24605 9.97024C1.2159 10.043 1.20038 10.1211 1.20038 10.1999C1.20038 10.2787 1.2159 10.3567 1.24605 10.4295C1.27621 10.5023 1.32041 10.5684 1.37612 10.6241C1.43184 10.6799 1.49799 10.7241 1.57079 10.7542C1.64359 10.7844 1.72161 10.7999 1.80041 10.7999C1.87921 10.7999 1.95723 10.7844 2.03003 10.7542C2.10283 10.7241 2.16898 10.6799 2.22469 10.6241L2.22384 10.6233Z" fill="#1A1C1F"/>
</g>
<defs>
<clipPath id="clip0_231_11">
<rect width="12" height="12" fill="white"/>
</clipPath>
</defs>
</svg>
