<svg width="28" height="28" viewBox="0 0 28 28" fill="none" xmlns="http://www.w3.org/2000/svg">
<g clip-path="url(#clip0_177_3527)">
<path fill-rule="evenodd" clip-rule="evenodd" d="M15.5501 14.911C15.3586 14.7799 15.2271 14.5782 15.1843 14.3502C15.1416 14.1222 15.1911 13.8865 15.3221 13.695C16.0841 12.581 16.4971 11.78 16.4971 10.749C16.4958 9.75493 16.1002 8.80197 15.3972 8.09916C14.6942 7.39634 13.7412 7.00105 12.7471 6.99999C11.7751 6.99999 10.8541 7.36999 10.1541 8.03999C10.0712 8.11951 9.97338 8.18191 9.86634 8.22364C9.75929 8.26536 9.64507 8.2856 9.53021 8.28318C9.41534 8.28077 9.30207 8.25575 9.19688 8.20957C9.09168 8.16338 8.99661 8.09692 8.91709 8.01399C8.7565 7.84651 8.66902 7.62209 8.6739 7.39011C8.67631 7.27524 8.70133 7.16198 8.74752 7.05678C8.79371 6.95158 8.86016 6.85651 8.94309 6.77699C9.96516 5.79468 11.3285 5.24727 12.7461 5.24999C15.7791 5.24999 18.2461 7.71699 18.2461 10.75C18.2461 12.227 17.7031 13.311 16.7661 14.682C16.6352 14.8736 16.4336 15.0054 16.2055 15.0483C15.9775 15.0913 15.7417 15.0419 15.5501 14.911ZM18.9481 17.661C20.2601 15.837 21.7471 13.771 21.7471 10.751C21.7471 5.78799 17.7091 1.75099 12.7471 1.75099C10.4266 1.74661 8.19497 2.64285 6.52209 4.25099C6.35474 4.41145 6.25798 4.63181 6.25311 4.86361C6.24823 5.0954 6.33564 5.31964 6.49609 5.48699C6.65655 5.65434 6.87691 5.7511 7.10871 5.75598C7.3405 5.76085 7.56474 5.67345 7.73209 5.51299C9.07979 4.21817 10.8772 3.49656 12.7461 3.49999C16.7441 3.49999 19.9961 6.75199 19.9961 10.75C19.9961 13.206 18.7971 14.873 17.5281 16.637C16.5811 17.956 15.6001 19.318 15.2101 21.013C15.0036 21.9972 14.4652 22.8805 13.6851 23.5151C12.9051 24.1497 11.9307 24.497 10.9251 24.499C10.2941 24.499 9.68509 24.368 9.11309 24.109C9.00856 24.0615 8.8957 24.0351 8.78096 24.0312C8.66622 24.0274 8.55184 24.0462 8.44435 24.0865C8.33687 24.1269 8.23839 24.188 8.15452 24.2664C8.07066 24.3448 8.00306 24.439 7.95559 24.5435C7.90812 24.648 7.8817 24.7609 7.87784 24.8756C7.87399 24.9904 7.89277 25.1047 7.93312 25.2122C7.97346 25.3197 8.03459 25.4182 8.11299 25.5021C8.1914 25.5859 8.28556 25.6535 8.39009 25.701C9.19009 26.064 10.0431 26.249 10.9251 26.249C13.8181 26.249 16.3411 24.195 16.9191 21.385C17.2261 20.055 18.0621 18.892 18.9491 17.66L18.9481 17.661Z" fill="#1A1C1F"/>
</g>
<defs>
<clipPath id="clip0_177_3527">
<rect width="28" height="28" fill="white"/>
</clipPath>
</defs>
</svg>
