<svg width="24" height="24" viewBox="0 0 24 24" fill="none" xmlns="http://www.w3.org/2000/svg">
<g clip-path="url(#clip0_177_3530)">
<path fill-rule="evenodd" clip-rule="evenodd" d="M12.8924 12.805C12.7836 12.7312 12.6905 12.6367 12.6183 12.5268C12.5462 12.417 12.4963 12.294 12.4717 12.1649C12.4471 12.0358 12.4482 11.9032 12.4749 11.7745C12.5016 11.6458 12.5534 11.5237 12.6274 11.415C13.2324 10.525 13.4374 10.022 13.4374 9.42801C13.4366 8.78405 13.1804 8.16668 12.725 7.71133C12.2697 7.25597 11.6523 6.99981 11.0084 6.99901C10.3826 6.99815 9.78083 7.23972 9.32935 7.67301C9.23536 7.76759 9.1234 7.84241 9.00007 7.89308C8.87673 7.94375 8.74451 7.96924 8.61117 7.96805C8.47784 7.96687 8.34609 7.93903 8.22368 7.88618C8.10126 7.83332 7.99065 7.75652 7.89836 7.66029C7.80606 7.56406 7.73394 7.45034 7.68624 7.32583C7.63854 7.20132 7.61622 7.06852 7.6206 6.93525C7.62498 6.80199 7.65597 6.67094 7.71174 6.54983C7.76751 6.42872 7.84694 6.31998 7.94535 6.23001C8.76781 5.43832 9.86577 4.99727 11.0074 5.00001C12.1819 5.00107 13.3081 5.46814 14.1387 6.2987C14.9692 7.12926 15.4363 8.25543 15.4374 9.43001C15.4374 10.604 14.9944 11.491 14.2804 12.541C14.1311 12.7599 13.9012 12.9106 13.641 12.9601C13.3807 13.0096 13.1115 12.9538 12.8924 12.805ZM16.1654 15.075C17.2304 13.595 18.4374 11.917 18.4374 9.42901C18.4374 5.33201 15.1044 2.00001 11.0084 2.00001C9.09298 1.99646 7.25098 2.73641 5.87035 4.06401C5.679 4.24754 5.56839 4.49957 5.56286 4.76465C5.55732 5.02974 5.65732 5.28616 5.84085 5.47751C6.02438 5.66887 6.27641 5.77948 6.54149 5.78501C6.80657 5.79054 7.063 5.69054 7.25435 5.50701C8.263 4.53689 9.60889 3.99624 11.0084 3.99901C12.448 4.0006 13.8282 4.5732 14.8462 5.59118C15.8642 6.60916 16.4368 7.98937 16.4384 9.42901C16.4384 11.272 15.5184 12.552 14.5414 13.907C13.7734 14.974 12.9794 16.079 12.6554 17.487C12.5579 17.9497 12.3579 18.3846 12.0702 18.7598C11.7825 19.135 11.4143 19.4409 10.9928 19.6551C10.5712 19.8692 10.107 19.9861 9.63431 19.9972C9.16162 20.0082 8.69246 19.9132 8.26135 19.719C8.14137 19.6611 8.01103 19.6278 7.87799 19.621C7.74495 19.6142 7.6119 19.6341 7.48664 19.6794C7.36138 19.7247 7.24643 19.7946 7.14856 19.885C7.05068 19.9753 6.97185 20.0844 6.91669 20.2056C6.86152 20.3269 6.83114 20.4579 6.82733 20.5911C6.82351 20.7242 6.84634 20.8568 6.89447 20.981C6.9426 21.1052 7.01506 21.2186 7.1076 21.3144C7.20014 21.4102 7.31089 21.4866 7.43335 21.539C8.10535 21.845 8.82335 22 9.56635 22C12.0014 22 14.1244 20.271 14.6094 17.913C14.8394 16.92 15.4834 16.024 16.1654 15.075Z" fill="#1A1C1F"/>
</g>
<defs>
<clipPath id="clip0_177_3530">
<rect width="24" height="24" fill="white"/>
</clipPath>
</defs>
</svg>
