<svg width="16" height="16" viewBox="0 0 16 16" fill="none" xmlns="http://www.w3.org/2000/svg">
<g clip-path="url(#clip0_177_3579)">
<path fill-rule="evenodd" clip-rule="evenodd" d="M8.09394 8.25199C8.00619 8.19395 7.93076 8.11918 7.87194 8.03196C7.81313 7.94473 7.7721 7.84676 7.7512 7.74366C7.73031 7.64055 7.72995 7.53434 7.75015 7.4311C7.77035 7.32785 7.81072 7.22961 7.86894 7.14199C8.13894 6.73599 8.19094 6.55999 8.19094 6.39199C8.19093 6.23539 8.14496 6.08225 8.05874 5.95153C7.97252 5.82082 7.84983 5.71828 7.70588 5.65663C7.56193 5.59499 7.40306 5.57694 7.24895 5.60474C7.09484 5.63253 6.95228 5.70494 6.83894 5.81299C6.68591 5.95978 6.48083 6.03978 6.26882 6.03537C6.05681 6.03096 5.85524 5.94252 5.70844 5.78949C5.56164 5.63646 5.48165 5.43138 5.48606 5.21937C5.49046 5.00736 5.57891 4.80578 5.73194 4.65899C6.17744 4.23044 6.77177 3.99134 7.38994 3.99199C8.71294 3.99199 9.78994 5.06899 9.78994 6.39199C9.78994 7.01099 9.55494 7.49299 9.20194 8.02599C9.14408 8.11378 9.06946 8.18929 8.98235 8.24818C8.89525 8.30708 8.79738 8.3482 8.69435 8.3692C8.59133 8.39019 8.48517 8.39065 8.38196 8.37053C8.27876 8.35042 8.18054 8.31013 8.09294 8.25199H8.09394ZM10.7439 10.009C11.4219 9.06599 12.1909 7.99699 12.1909 6.39199C12.1909 3.74499 10.0379 1.59199 7.39094 1.59199C6.15326 1.58987 4.96306 2.0681 4.07094 2.92599C3.99108 2.99765 3.92645 3.08464 3.8809 3.18179C3.83535 3.27894 3.8098 3.38426 3.80579 3.49148C3.80177 3.59871 3.81937 3.70564 3.85753 3.80592C3.89569 3.90621 3.95363 3.99779 4.02791 4.07522C4.10219 4.15265 4.19128 4.21435 4.28989 4.25665C4.3885 4.29894 4.49462 4.32097 4.60191 4.32141C4.70921 4.32185 4.8155 4.30071 4.91446 4.25923C5.01342 4.21776 5.10302 4.1568 5.17794 4.07999C5.77279 3.5086 6.56612 3.19027 7.39094 3.19199C9.15594 3.19199 10.5909 4.62799 10.5909 6.39199C10.5909 7.48199 10.0339 8.25599 9.44494 9.07599C8.95694 9.75499 8.45294 10.456 8.24194 11.371C8.04294 12.336 7.01694 12.976 6.06694 12.741C5.86225 12.6945 5.64748 12.7303 5.46894 12.8406C5.2904 12.951 5.1624 13.1272 5.11254 13.3311C5.06268 13.535 5.09495 13.7503 5.20241 13.9306C5.30986 14.1109 5.48388 14.2418 5.68694 14.295C5.94994 14.36 6.22094 14.392 6.49394 14.392C8.09394 14.392 9.48694 13.257 9.80494 11.712C9.93894 11.128 10.3119 10.61 10.7439 10.009ZM13.4509 3.67899L14.1729 2.95799C14.2472 2.88366 14.3061 2.79543 14.3463 2.69834C14.3864 2.60125 14.4071 2.4972 14.407 2.39213C14.407 2.28706 14.3862 2.18303 14.346 2.08598C14.3057 1.98892 14.2468 1.90075 14.1724 1.82649C14.0981 1.75222 14.0099 1.69333 13.9128 1.65316C13.8157 1.613 13.7117 1.59235 13.6066 1.5924C13.5015 1.59244 13.3975 1.61318 13.3004 1.65343C13.2034 1.69369 13.1152 1.75266 13.0409 1.82699L12.3199 2.54799C12.2456 2.62225 12.1866 2.71042 12.1464 2.80748C12.1061 2.90453 12.0854 3.00856 12.0853 3.11363C12.0853 3.2187 12.106 3.32275 12.1461 3.41984C12.1863 3.51693 12.2452 3.60516 12.3194 3.67949C12.3937 3.75382 12.4819 3.81279 12.5789 3.85304C12.676 3.89329 12.78 3.91403 12.8851 3.91408C12.9902 3.91412 13.0942 3.89348 13.1913 3.85331C13.2884 3.81314 13.3766 3.75425 13.4509 3.67999V3.67899ZM2.97294 14.159L6.44094 10.69C6.52006 10.6169 6.5836 10.5286 6.62777 10.4304C6.67194 10.3322 6.69582 10.226 6.69798 10.1184C6.70014 10.0107 6.68053 9.90367 6.64034 9.80375C6.60015 9.70384 6.5402 9.61306 6.46407 9.53687C6.38795 9.46068 6.29723 9.40065 6.19735 9.36037C6.09747 9.32009 5.99048 9.30039 5.8828 9.30245C5.77512 9.30452 5.66897 9.32831 5.5707 9.37239C5.47244 9.41647 5.38408 9.47994 5.31094 9.55899L1.84194 13.028C1.76453 13.1015 1.70262 13.1898 1.65987 13.2877C1.61712 13.3855 1.59439 13.491 1.59302 13.5977C1.59166 13.7045 1.61168 13.8105 1.65191 13.9094C1.69214 14.0083 1.75177 14.0981 1.82727 14.1737C1.90278 14.2492 1.99263 14.3088 2.09155 14.349C2.19046 14.3892 2.29643 14.4093 2.4032 14.4079C2.50997 14.4065 2.61539 14.3838 2.71324 14.3411C2.81109 14.2983 2.89939 14.2364 2.97294 14.159Z" fill="#1A1C1F"/>
</g>
<defs>
<clipPath id="clip0_177_3579">
<rect width="16" height="16" fill="white"/>
</clipPath>
</defs>
</svg>
