<svg width="20" height="20" viewBox="0 0 20 20" fill="none" xmlns="http://www.w3.org/2000/svg">
<g clip-path="url(#clip0_177_3576)">
<path fill-rule="evenodd" clip-rule="evenodd" d="M10.108 10.3239C9.99847 10.2514 9.90429 10.1581 9.83083 10.0492C9.75738 9.94032 9.70609 9.81803 9.67991 9.68933C9.65372 9.56062 9.65314 9.42801 9.67821 9.29908C9.70328 9.17016 9.7535 9.04743 9.82601 8.93791C10.163 8.42891 10.229 8.20891 10.229 7.99991C10.2286 7.80435 10.1709 7.61319 10.0631 7.45006C9.95522 7.28692 9.80195 7.15894 9.62219 7.08193C9.44243 7.00492 9.24405 6.98225 9.05155 7.01672C8.85906 7.0512 8.68087 7.1413 8.53901 7.27591C8.34765 7.45944 8.09123 7.55944 7.82615 7.55391C7.56107 7.54837 7.30904 7.43776 7.12551 7.24641C6.94198 7.05506 6.84198 6.79863 6.84751 6.53355C6.85305 6.26847 6.96365 6.01644 7.15501 5.83291C7.71238 5.29714 8.45589 4.99851 9.22901 4.99991C10.883 4.99991 12.229 6.34591 12.229 7.99991C12.229 8.77291 11.935 9.37591 11.494 10.0419C11.4217 10.1517 11.3284 10.246 11.2196 10.3196C11.1107 10.3932 10.9884 10.4446 10.8596 10.4708C10.7308 10.497 10.5981 10.4975 10.4691 10.4723C10.3402 10.4471 10.2174 10.3967 10.108 10.3239ZM13.42 12.5209C14.268 11.3419 15.23 10.0059 15.23 8.00091C15.23 4.69091 12.538 2.00091 9.23001 2.00091C7.68312 1.99781 6.19537 2.59506 5.08001 3.66691C4.98522 3.75769 4.90924 3.86627 4.85643 3.98643C4.80362 4.10658 4.775 4.23597 4.77221 4.36719C4.76943 4.49842 4.79253 4.6289 4.84019 4.75119C4.88786 4.87348 4.95916 4.98519 5.05001 5.07991C5.14065 5.17494 5.24918 5.25112 5.36935 5.30409C5.48952 5.35705 5.61898 5.38575 5.75027 5.38854C5.88157 5.39132 6.01213 5.36814 6.13444 5.32033C6.25675 5.27251 6.36841 5.201 6.46301 5.10991C7.2065 4.39572 8.19806 3.9978 9.22901 3.99991C11.435 3.99991 13.229 5.79391 13.229 7.99991C13.229 9.36191 12.533 10.3299 11.797 11.3539C11.187 12.2039 10.557 13.0799 10.293 14.2239C10.044 15.4299 8.76101 16.2289 7.57401 15.9359C7.31635 15.8728 7.04417 15.9146 6.81735 16.0522C6.59052 16.1897 6.42763 16.4118 6.36451 16.6694C6.30139 16.9271 6.3432 17.1992 6.48076 17.4261C6.61832 17.6529 6.84035 17.8158 7.09801 17.8789C7.42801 17.9589 7.76801 17.9999 8.10801 17.9999C10.108 17.9999 11.849 16.5809 12.248 14.6499C12.414 13.9199 12.88 13.2719 13.42 12.5209ZM16.804 4.60891L17.706 3.70691C17.7989 3.61407 17.8725 3.50384 17.9227 3.38254C17.973 3.26123 17.9989 3.13121 17.9989 2.99991C17.9989 2.86861 17.973 2.73859 17.9227 2.61728C17.8725 2.49598 17.7989 2.38575 17.706 2.29291C17.6132 2.20007 17.5029 2.12642 17.3816 2.07617C17.2603 2.02592 17.1303 2.00006 16.999 2.00006C16.8677 2.00006 16.7377 2.02592 16.6164 2.07617C16.4951 2.12642 16.3849 2.20007 16.292 2.29291L15.39 3.19491C15.2025 3.38242 15.0972 3.63673 15.0972 3.90191C15.0972 4.16709 15.2025 4.4214 15.39 4.60891C15.5775 4.79642 15.8318 4.90176 16.097 4.90176C16.3622 4.90176 16.6165 4.79642 16.804 4.60891ZM3.70801 17.7069L8.04301 13.3709C8.13585 13.2781 8.2095 13.1678 8.25975 13.0465C8.31 12.9252 8.33586 12.7952 8.33586 12.6639C8.33586 12.5326 8.31 12.4026 8.25975 12.2813C8.2095 12.16 8.13585 12.0498 8.04301 11.9569C7.95016 11.8641 7.83994 11.7904 7.71863 11.7402C7.59733 11.6899 7.46731 11.6641 7.33601 11.6641C7.20471 11.6641 7.07469 11.6899 6.95338 11.7402C6.83208 11.7904 6.72185 11.8641 6.62901 11.9569L2.29401 16.2929C2.20116 16.3858 2.12752 16.496 2.07727 16.6173C2.02702 16.7386 2.00116 16.8686 2.00116 16.9999C2.00116 17.1312 2.02702 17.2612 2.07727 17.3825C2.12752 17.5038 2.20116 17.6141 2.29401 17.7069C2.38685 17.7998 2.49708 17.8734 2.61838 17.9236C2.73969 17.9739 2.86971 17.9998 3.00101 17.9998C3.13231 17.9998 3.26233 17.9739 3.38363 17.9236C3.50494 17.8734 3.61516 17.7998 3.70801 17.7069Z" fill="#1A1C1F"/>
</g>
<defs>
<clipPath id="clip0_177_3576">
<rect width="20" height="20" fill="white"/>
</clipPath>
</defs>
</svg>
