<svg width="24" height="24" viewBox="0 0 24 24" fill="none" xmlns="http://www.w3.org/2000/svg">
<g clip-path="url(#clip0_177_3573)">
<path fill-rule="evenodd" clip-rule="evenodd" d="M12.9155 12.8599C12.8068 12.7861 12.7137 12.6916 12.6415 12.5817C12.5693 12.4719 12.5195 12.3489 12.4949 12.2198C12.4703 12.0908 12.4714 11.9581 12.4981 11.8294C12.5248 11.7007 12.5766 11.5786 12.6505 11.4699C13.2555 10.5799 13.4605 10.0769 13.4605 9.48292C13.4597 8.83895 13.2035 8.22159 12.7482 7.76623C12.2928 7.31088 11.6755 7.05471 11.0315 7.05392C10.4057 7.05306 9.80398 7.29462 9.35251 7.72792C9.25851 7.82249 9.14656 7.89732 9.02322 7.94798C8.89988 7.99865 8.76766 8.02414 8.63433 8.02296C8.501 8.02177 8.36925 7.99394 8.24683 7.94108C8.12442 7.88823 8.01381 7.81143 7.92151 7.7152C7.82921 7.61897 7.7571 7.50525 7.7094 7.38073C7.6617 7.25622 7.63938 7.12343 7.64376 6.99016C7.64814 6.85689 7.67912 6.72585 7.73489 6.60473C7.79066 6.48362 7.87009 6.37488 7.9685 6.28492C8.79096 5.49322 9.88892 5.05217 11.0305 5.05492C12.2051 5.05598 13.3313 5.52305 14.1618 6.3536C14.9924 7.18416 15.4594 8.31033 15.4605 9.48492C15.4605 10.6589 15.0175 11.5459 14.3035 12.5959C14.1543 12.8148 13.9243 12.9655 13.6641 13.015C13.4039 13.0645 13.1347 13.0087 12.9155 12.8599ZM16.1885 15.1299C17.2535 13.6499 18.4605 11.9719 18.4605 9.48392C18.4605 5.38692 15.1275 2.05492 11.0315 2.05492C9.11613 2.05137 7.27414 2.79132 5.89351 4.11892C5.70215 4.30245 5.59154 4.55448 5.58601 4.81956C5.58048 5.08464 5.68048 5.34106 5.86401 5.53242C6.04753 5.72377 6.29956 5.83438 6.56465 5.83991C6.82973 5.84544 7.08615 5.74545 7.2775 5.56192C8.28616 4.5918 9.63204 4.05115 11.0315 4.05392C12.4711 4.05551 13.8514 4.6281 14.8693 5.64608C15.8873 6.66406 16.4599 8.04428 16.4615 9.48392C16.4615 11.3269 15.5415 12.6069 14.5645 13.9619C13.7965 15.0289 13.0025 16.1339 12.6785 17.5419C12.581 18.0046 12.3811 18.4395 12.0934 18.8147C11.8056 19.1899 11.4375 19.4958 11.0159 19.71C10.5944 19.9241 10.1302 20.041 9.65747 20.0521C9.18478 20.0631 8.71562 19.9681 8.28451 19.7739C8.16452 19.716 8.03418 19.6827 7.90115 19.6759C7.76811 19.6691 7.63505 19.689 7.50979 19.7343C7.38453 19.7796 7.26959 19.8495 7.17171 19.9399C7.07384 20.0303 6.995 20.1393 6.93984 20.2605C6.88468 20.3818 6.8543 20.5128 6.85048 20.646C6.84667 20.7791 6.86949 20.9117 6.91762 21.0359C6.96575 21.1601 7.03821 21.2735 7.13075 21.3693C7.22329 21.4651 7.33404 21.5415 7.4565 21.5939C8.1285 21.8999 8.84651 22.0549 9.58951 22.0549C12.0245 22.0549 14.1475 20.3259 14.6325 17.9679C14.8625 16.9749 15.5065 16.0789 16.1885 15.1299ZM19.7855 5.57392L21.7065 3.65192C21.7993 3.55907 21.873 3.44885 21.9232 3.32754C21.9735 3.20624 21.9994 3.07622 21.9994 2.94492C21.9994 2.81362 21.9735 2.6836 21.9232 2.56229C21.873 2.44098 21.7993 2.33076 21.7065 2.23792C21.6137 2.14507 21.5034 2.07142 21.3821 2.02118C21.2608 1.97093 21.1308 1.94507 20.9995 1.94507C20.8682 1.94507 20.7382 1.97093 20.6169 2.02118C20.4956 2.07142 20.3853 2.14507 20.2925 2.23792L18.3725 4.15992C18.2797 4.2527 18.206 4.36285 18.1557 4.4841C18.1055 4.60535 18.0796 4.73531 18.0795 4.86656C18.0795 4.99782 18.1053 5.1278 18.1555 5.24908C18.2056 5.37036 18.2792 5.48057 18.372 5.57342C18.4648 5.66626 18.5749 5.73992 18.6962 5.7902C18.8174 5.84047 18.9474 5.86637 19.0787 5.86641C19.2099 5.86646 19.3399 5.84065 19.4612 5.79047C19.5825 5.74028 19.6927 5.6667 19.7855 5.57392ZM8.57751 16.7819C8.67035 16.6891 8.744 16.5788 8.79425 16.4575C8.84449 16.3362 8.87035 16.2062 8.87035 16.0749C8.87035 15.9436 8.84449 15.8136 8.79425 15.6923C8.744 15.571 8.67035 15.4608 8.57751 15.3679C8.48466 15.2751 8.37444 15.2014 8.25313 15.1512C8.13182 15.1009 8.00181 15.0751 7.87051 15.0751C7.7392 15.0751 7.60919 15.1009 7.48788 15.1512C7.36657 15.2014 7.25635 15.2751 7.16351 15.3679L2.29351 20.2389C2.20066 20.3318 2.12701 20.442 2.07677 20.5633C2.02652 20.6846 2.00066 20.8146 2.00066 20.9459C2.00066 21.0772 2.02652 21.2072 2.07677 21.3285C2.12701 21.4499 2.20066 21.5601 2.29351 21.6529C2.38635 21.7458 2.49657 21.8194 2.61788 21.8697C2.73919 21.9199 2.8692 21.9458 3.00051 21.9458C3.13181 21.9458 3.26182 21.9199 3.38313 21.8697C3.50444 21.8194 3.61466 21.7458 3.70751 21.6529L8.57751 16.7819Z" fill="#1A1C1F"/>
</g>
<defs>
<clipPath id="clip0_177_3573">
<rect width="24" height="24" fill="white"/>
</clipPath>
</defs>
</svg>
