<svg width="28" height="28" viewBox="0 0 28 28" fill="none" xmlns="http://www.w3.org/2000/svg">
<g clip-path="url(#clip0_2849_178)">
<path fill-rule="evenodd" clip-rule="evenodd" d="M4.368 19.5235C4.368 17.9655 4.915 16.4615 5.927 15.2855C6.01404 15.1912 6.11964 15.1158 6.23717 15.0642C6.3547 15.0126 6.48163 14.9858 6.61 14.9855C7.075 14.9855 7.458 15.3955 7.458 15.8595C7.458 16.0785 7.403 16.2695 7.266 16.4335C6.52236 17.2909 6.11453 18.3886 6.118 19.5235C6.118 22.1215 8.251 24.2815 10.848 24.2815C12.571 24.2815 14.184 23.2975 15.005 21.7655C15.0848 21.6336 15.1969 21.5242 15.3308 21.4478C15.4647 21.3713 15.6158 21.3303 15.77 21.3285C16.262 21.3285 16.645 21.7115 16.645 22.2035C16.6474 22.3478 16.6093 22.4898 16.535 22.6135C15.415 24.6915 13.227 26.0315 10.848 26.0315C7.266 26.0315 4.368 23.1055 4.368 19.5235ZM8.292 10.5535C8.292 9.73352 9.386 9.40552 10.261 9.40552C11.546 9.40552 12.531 10.3075 12.913 11.5385L13.623 13.7805H18.354C18.5857 13.7818 18.8075 13.8744 18.9713 14.0382C19.1351 14.2021 19.2277 14.4239 19.229 14.6555C19.2305 14.7708 19.2089 14.8853 19.1654 14.9921C19.122 15.0989 19.0576 15.196 18.976 15.2775C18.8945 15.3591 18.7974 15.4235 18.6906 15.4669C18.5838 15.5104 18.4693 15.532 18.354 15.5305H12.995C12.8118 15.5315 12.6331 15.4735 12.4854 15.3651C12.3378 15.2567 12.2289 15.1036 12.175 14.9285L11.245 11.9755C11.108 11.4555 10.753 11.1555 10.233 11.1555C9.796 11.1555 9.44 11.4285 9.167 11.4285C8.93542 11.4269 8.71377 11.3343 8.55001 11.1705C8.38626 11.0067 8.29357 10.7851 8.292 10.5535ZM12.585 18.1555C12.585 17.6635 12.995 17.2805 13.46 17.2805H20.104C20.46 17.2805 20.788 17.4995 20.924 17.8005L23.55 23.8705C23.604 23.9805 23.632 24.0905 23.632 24.1995C23.632 24.6095 23.345 25.0745 22.743 25.0745C22.415 25.0745 22.073 24.8835 21.936 24.5545L19.53 19.0305H13.46C13.2284 19.0289 13.0068 18.9363 12.843 18.7725C12.6793 18.6087 12.5866 18.3871 12.585 18.1555ZM10.288 1.96952C10.6598 1.9699 11.0279 2.04387 11.371 2.18716C11.7142 2.33045 12.0255 2.54024 12.2872 2.80442C12.5489 3.0686 12.7557 3.38196 12.8957 3.72644C13.0357 4.07091 13.1062 4.43969 13.103 4.81152C13.1037 5.18155 13.0313 5.54808 12.89 5.89008C12.7487 6.23209 12.5413 6.54285 12.2797 6.80455C12.0181 7.06625 11.7074 7.27375 11.3655 7.41514C11.0235 7.55653 10.657 7.62904 10.287 7.62852C9.91483 7.63195 9.54568 7.56163 9.20084 7.42161C8.856 7.28159 8.54232 7.07466 8.2779 6.81274C8.01347 6.55083 7.80355 6.23913 7.66025 5.89565C7.51695 5.55216 7.44311 5.1837 7.443 4.81152C7.44047 4.43738 7.51231 4.06647 7.65436 3.72033C7.7964 3.3742 8.00581 3.05974 8.27041 2.79522C8.53502 2.53071 8.84955 2.32141 9.19574 2.17949C9.54192 2.03757 9.91286 1.96586 10.287 1.96852L10.288 1.96952ZM10.288 3.71952C9.686 3.71952 9.194 4.21152 9.194 4.81252C9.194 5.41452 9.686 5.87952 10.288 5.87952C10.889 5.87952 11.382 5.41452 11.382 4.81252C11.382 4.21152 10.889 3.71952 10.288 3.71952Z" fill="#1A1C1F"/>
</g>
<defs>
<clipPath id="clip0_2849_178">
<rect width="28" height="28" fill="white"/>
</clipPath>
</defs>
</svg>
