<svg width="28" height="28" viewBox="0 0 28 28" fill="none" xmlns="http://www.w3.org/2000/svg">
<g clip-path="url(#clip0_177_3481)">
<path fill-rule="evenodd" clip-rule="evenodd" d="M8.92548 8.54523C9.07769 8.62701 9.20224 8.75206 9.2834 8.9046C9.36457 9.05714 9.3987 9.23031 9.38148 9.40223L8.73648 15.8472L11.0435 18.9922C11.0996 19.0703 11.1431 19.1567 11.1725 19.2482L13.0085 25.1112C13.0435 25.2211 13.0564 25.3367 13.0465 25.4515C13.0367 25.5664 13.0042 25.6782 12.9511 25.7804C12.8979 25.8827 12.825 25.9734 12.7367 26.0474C12.6483 26.1215 12.5462 26.1773 12.4362 26.2118C12.3262 26.2462 12.2105 26.2586 12.0957 26.2482C11.981 26.2378 11.8693 26.2048 11.7673 26.1511C11.6653 26.0975 11.5749 26.0242 11.5013 25.9355C11.4277 25.8468 11.3724 25.7444 11.3385 25.6342L9.54848 19.9082L7.12848 16.6122C7.00115 16.4377 6.94275 16.2222 6.96448 16.0072L7.43248 11.3302L6.55948 12.0442L5.57848 15.2572C5.54493 15.3672 5.49004 15.4695 5.41695 15.5583C5.34387 15.647 5.25401 15.7206 5.15252 15.7746C5.05102 15.8286 4.93988 15.8622 4.82543 15.8733C4.71098 15.8843 4.59546 15.8728 4.48548 15.8392C4.3755 15.8057 4.2732 15.7508 4.18443 15.6777C4.09566 15.6046 4.02216 15.5148 3.96811 15.4133C3.91407 15.3118 3.88054 15.2006 3.86946 15.0862C3.85837 14.9717 3.86993 14.8562 3.90348 14.7462L4.96248 11.2792C5.01302 11.1145 5.11113 10.9684 5.24448 10.8592L7.95848 8.63823C8.09225 8.52819 8.25576 8.46049 8.42816 8.44375C8.60056 8.42701 8.77404 8.46199 8.92648 8.54423L8.92548 8.54523ZM7.24848 18.1952C7.69748 18.3752 7.91648 18.8842 7.73548 19.3332L5.18848 25.6982C5.10202 25.9137 4.9335 26.086 4.71999 26.1773C4.50648 26.2685 4.26547 26.2712 4.04998 26.1847C3.83449 26.0983 3.66218 25.9297 3.57094 25.7162C3.4797 25.5027 3.47702 25.2617 3.56348 25.0462L6.11248 18.6812C6.155 18.5745 6.21815 18.4771 6.29834 18.3948C6.37852 18.3124 6.47415 18.2467 6.57976 18.2014C6.68537 18.1561 6.79889 18.132 6.91381 18.1306C7.02873 18.1292 7.14279 18.1505 7.24948 18.1932L7.24848 18.1952ZM13.8495 15.8552C13.9296 15.7729 14.0252 15.7071 14.1307 15.6617C14.2363 15.6163 14.3498 15.5922 14.4647 15.5907C14.5796 15.5892 14.6936 15.6104 14.8003 15.6531C14.907 15.6957 15.0043 15.759 15.0865 15.8392L22.3585 22.9232C22.4439 23.0027 22.5125 23.0984 22.5604 23.2047C22.6083 23.311 22.6344 23.4259 22.6373 23.5424C22.6401 23.659 22.6197 23.775 22.5771 23.8835C22.5345 23.9921 22.4706 24.091 22.3892 24.1746C22.3078 24.2581 22.2105 24.3245 22.1031 24.3699C21.9957 24.4153 21.8803 24.4387 21.7637 24.4389C21.6471 24.4391 21.5316 24.4159 21.4241 24.3708C21.3165 24.3257 21.2191 24.2595 21.1375 24.1762L13.8665 17.0922C13.7002 16.9304 13.6051 16.7092 13.6019 16.4772C13.5987 16.2453 13.6878 16.0216 13.8495 15.8552ZM11.6525 10.9982L12.0755 12.5482L13.3745 13.8752C13.5273 14.043 13.6091 14.2636 13.6025 14.4905C13.5959 14.7174 13.5015 14.9328 13.3392 15.0915C13.1769 15.2502 12.9594 15.3397 12.7324 15.3411C12.5055 15.3425 12.2868 15.2558 12.1225 15.0992L10.6665 13.6092C10.5624 13.5026 10.4874 13.3711 10.4485 13.2272L9.96448 11.4592C9.90711 11.2366 9.93966 11.0004 10.0551 10.8016C10.1705 10.6028 10.3595 10.4574 10.5813 10.3968C10.803 10.3362 11.0397 10.3654 11.2402 10.4779C11.4406 10.5905 11.5887 10.7774 11.6525 10.9982ZM23.6245 24.4962C23.1715 24.4962 22.7495 24.9192 22.7495 25.3712C22.7495 25.8242 23.1715 26.2462 23.6245 26.2462C24.0765 26.2462 24.4995 25.8242 24.4995 25.3712C24.4995 24.9192 24.0765 24.4962 23.6245 24.4962ZM9.10748 7.13823C9.82199 7.13744 10.507 6.85324 11.0123 6.34801C11.5175 5.84277 11.8017 5.15774 11.8025 4.44323C11.8017 3.72889 11.5176 3.04402 11.0126 2.53881C10.5076 2.0336 9.82282 1.74929 9.10848 1.74823C8.39396 1.74902 7.70894 2.03322 7.2037 2.53845C6.69847 3.04369 6.41427 3.72872 6.41348 4.44323C6.41427 5.15774 6.69847 5.84277 7.2037 6.34801C7.70894 6.85324 8.39297 7.13744 9.10748 7.13823ZM9.10748 3.49823C9.23423 3.49411 9.36052 3.51551 9.47883 3.56117C9.59715 3.60683 9.70507 3.67582 9.79619 3.76402C9.88731 3.85223 9.95977 3.95785 10.0093 4.07462C10.0587 4.19139 10.0842 4.31691 10.0842 4.44373C10.0842 4.57055 10.0587 4.69607 10.0093 4.81284C9.95977 4.92961 9.88731 5.03523 9.79619 5.12344C9.70507 5.21164 9.59715 5.28063 9.47883 5.32629C9.36052 5.37195 9.23423 5.39335 9.10748 5.38923C8.86204 5.38125 8.62932 5.27813 8.45852 5.10169C8.28773 4.92525 8.19223 4.6893 8.19223 4.44373C8.19223 4.19816 8.28773 3.96221 8.45852 3.78577C8.62932 3.60933 8.86204 3.50621 9.10748 3.49823Z" fill="#1A1C1F"/>
</g>
<defs>
<clipPath id="clip0_177_3481">
<rect width="28" height="28" fill="white"/>
</clipPath>
</defs>
</svg>
