<svg width="20" height="20" viewBox="0 0 20 20" fill="none" xmlns="http://www.w3.org/2000/svg">
<g clip-path="url(#clip0_2849_182)">
<path fill-rule="evenodd" clip-rule="evenodd" d="M6.57791 11C6.58039 11.1355 6.55444 11.2701 6.50173 11.3949C6.44903 11.5198 6.37074 11.6322 6.27191 11.725C5.81041 12.1884 5.54996 12.815 5.54691 13.469C5.54928 14.1395 5.8167 14.7819 6.29084 15.2561C6.76499 15.7302 7.40738 15.9976 8.07791 16C8.73391 16 9.37791 15.75 9.88391 15.244C9.97039 15.1561 10.0736 15.0865 10.1875 15.0393C10.3014 14.992 10.4236 14.9681 10.5469 14.969C11.1089 14.969 11.5469 15.438 11.5469 15.969C11.5469 16.219 11.4839 16.5 11.2969 16.688C10.4529 17.531 9.29691 18 8.10891 18C6.90754 17.9989 5.75568 17.5212 4.90618 16.6717C4.05668 15.8222 3.57897 14.6704 3.57791 13.469C3.57791 12.313 4.04691 11.219 4.82791 10.313C4.91857 10.2127 5.02962 10.1328 5.15361 10.0789C5.2776 10.0249 5.41169 9.99799 5.54691 10C6.10791 10 6.57791 10.438 6.57791 11ZM9.76591 7.75L10.7959 11H12.9839C13.7649 11 14.2369 11.374 14.5149 12.063L16.3589 16.625C16.4019 16.73 16.4219 16.906 16.4219 17C16.4246 17.1294 16.4015 17.2581 16.3542 17.3786C16.3068 17.4991 16.236 17.609 16.1459 17.702C16.0558 17.795 15.9482 17.8692 15.8292 17.9204C15.7103 17.9715 15.5824 17.9986 15.4529 18C14.9839 18 14.6379 17.689 14.4839 17.312L12.7339 13H9.98391C9.51491 13 9.12391 12.724 8.98391 12.25L7.79691 8.25C7.75997 8.10225 7.75705 7.94805 7.78839 7.79901C7.81972 7.64997 7.88448 7.50999 7.97779 7.38963C8.07109 7.26926 8.19051 7.17166 8.32703 7.10416C8.46355 7.03667 8.61362 7.00105 8.76591 7C9.23391 7 9.62891 7.316 9.76591 7.75ZM8.38991 2C9.20291 2 9.88991 2.688 9.88991 3.5C9.88991 3.89782 9.73188 4.27936 9.45057 4.56066C9.16927 4.84196 8.78774 5 8.38991 5C8.19218 5.00269 7.99592 4.96573 7.81272 4.8913C7.62951 4.81687 7.46308 4.70648 7.32326 4.56666C7.18343 4.42683 7.07304 4.2604 6.99861 4.07719C6.92418 3.89399 6.88722 3.69773 6.88991 3.5C6.88991 3.10218 7.04795 2.72064 7.32925 2.43934C7.61056 2.15804 7.99209 2 8.38991 2Z" fill="#1A1C1F"/>
</g>
<defs>
<clipPath id="clip0_2849_182">
<rect width="20" height="20" fill="white"/>
</clipPath>
</defs>
</svg>
