<svg width="32" height="32" viewBox="0 0 32 32" fill="none" xmlns="http://www.w3.org/2000/svg">
<g clip-path="url(#clip0_177_3478)">
<path fill-rule="evenodd" clip-rule="evenodd" d="M8.28537 20.786C8.40743 20.8348 8.51868 20.9071 8.61274 20.9989C8.70681 21.0907 8.78186 21.2002 8.83359 21.321C8.88532 21.4418 8.91273 21.5717 8.91423 21.7031C8.91574 21.8346 8.89132 21.965 8.84237 22.087L5.92937 29.362C5.88052 29.4839 5.80813 29.595 5.71634 29.689C5.62454 29.783 5.51514 29.8579 5.39438 29.9096C5.27362 29.9613 5.14386 29.9886 5.01251 29.9902C4.88117 29.9917 4.75081 29.9673 4.62887 29.9185C4.50694 29.8696 4.39583 29.7972 4.30187 29.7055C4.20791 29.6137 4.13296 29.5043 4.08128 29.3835C4.02961 29.2627 4.00222 29.133 4.00069 29.0016C3.99916 28.8703 4.02352 28.7399 4.07237 28.618L6.98537 21.343C7.03415 21.2211 7.10647 21.1099 7.19821 21.0159C7.28994 20.9219 7.39929 20.847 7.52001 20.7952C7.64072 20.7435 7.77045 20.7161 7.90177 20.7145C8.03309 20.7129 8.16344 20.7372 8.28537 20.786ZM10.2014 9.75799C10.3755 9.85148 10.518 9.99446 10.6109 10.1689C10.7038 10.3433 10.7429 10.5413 10.7234 10.738L9.98637 18.103L12.6224 21.697C12.6864 21.786 12.7364 21.886 12.7694 21.99L14.8684 28.69C14.911 28.8162 14.928 28.9496 14.9183 29.0824C14.9087 29.2152 14.8726 29.3448 14.8122 29.4635C14.7518 29.5822 14.6683 29.6876 14.5666 29.7736C14.4649 29.8596 14.3471 29.9244 14.22 29.9642C14.0929 30.004 13.9592 30.0181 13.8266 30.0055C13.694 29.9929 13.5653 29.954 13.448 29.891C13.3306 29.828 13.2271 29.7423 13.1433 29.6387C13.0596 29.5351 12.9974 29.4159 12.9604 29.288L10.9124 22.745L8.14837 18.977C8.00273 18.7777 7.93578 18.5316 7.96037 18.286L8.49537 12.941L7.49837 13.757L6.37637 17.429C6.33834 17.5549 6.27575 17.6721 6.19222 17.7738C6.10868 17.8755 6.00585 17.9596 5.88965 18.0213C5.77345 18.083 5.64618 18.1211 5.51518 18.1334C5.38418 18.1457 5.25204 18.132 5.12637 18.093C4.87289 18.0155 4.66056 17.8404 4.53605 17.6064C4.41154 17.3724 4.38504 17.0985 4.46237 16.845L5.67237 12.883C5.73011 12.6942 5.84251 12.5269 5.99537 12.402L9.09537 9.86499C9.2483 9.73941 9.43513 9.66218 9.63209 9.64313C9.82904 9.62407 10.0272 9.66406 10.2014 9.75799ZM15.8294 18.112C15.921 18.0179 16.0302 17.9427 16.1509 17.8908C16.2716 17.839 16.4013 17.8114 16.5326 17.8098C16.664 17.8081 16.7944 17.8323 16.9163 17.8811C17.0383 17.9299 17.1494 18.0022 17.2434 18.094L25.5534 26.19C25.6518 26.2805 25.7312 26.3899 25.7866 26.5116C25.8421 26.6333 25.8725 26.7649 25.8762 26.8986C25.8799 27.0323 25.8567 27.1654 25.8081 27.29C25.7594 27.4146 25.6862 27.5282 25.5929 27.624C25.4996 27.7198 25.388 27.7959 25.2647 27.8478C25.1414 27.8997 25.009 27.9264 24.8752 27.9262C24.7415 27.926 24.6091 27.899 24.486 27.8467C24.3628 27.7945 24.2514 27.7181 24.1584 27.622L15.8484 19.526C15.6582 19.3411 15.5493 19.0883 15.5455 18.8231C15.5418 18.558 15.6445 18.3022 15.8294 18.112ZM13.3184 12.562L13.8024 14.333L15.2864 15.851C15.4718 16.0408 15.5742 16.2964 15.5711 16.5617C15.568 16.8269 15.4596 17.0801 15.2699 17.2655C15.0801 17.4509 14.8245 17.5533 14.5592 17.5502C14.2939 17.5471 14.0408 17.4388 13.8554 17.249L12.1914 15.546C12.0723 15.4243 11.9862 15.2742 11.9414 15.11L11.3894 13.09C11.3213 12.8348 11.357 12.5631 11.4886 12.3342C11.6201 12.1052 11.8369 11.9376 12.0916 11.8678C12.3463 11.7981 12.6183 11.832 12.8481 11.962C13.0779 12.0921 13.247 12.3078 13.3184 12.562ZM26.9994 27.989C26.4824 27.989 25.9994 28.472 25.9994 28.989C25.9994 29.506 26.4824 29.989 26.9994 29.989C27.5164 29.989 27.9994 29.506 27.9994 28.989C27.9994 28.472 27.5164 27.989 26.9994 27.989ZM10.4094 8.14999C11.2259 8.14893 12.0087 7.82409 12.5861 7.24671C13.1635 6.66933 13.4883 5.88653 13.4894 5.06999C13.4883 4.25345 13.1635 3.47065 12.5861 2.89327C12.0087 2.31589 11.2259 1.99105 10.4094 1.98999C9.59283 1.99105 8.81004 2.31589 8.23265 2.89327C7.65527 3.47065 7.33043 4.25345 7.32937 5.06999C7.33043 5.88653 7.65527 6.66933 8.23265 7.24671C8.81004 7.82409 9.59283 8.14893 10.4094 8.14999ZM10.4094 3.98999C10.6959 3.99012 10.9707 4.10409 11.1733 4.30682C11.3758 4.50954 11.4895 4.78442 11.4894 5.07099C11.4892 5.35756 11.3753 5.63233 11.1725 5.83487C10.9698 6.03741 10.6949 6.15112 10.4084 6.15099C10.1218 6.15099 9.84698 6.03715 9.64434 5.83452C9.44171 5.63189 9.32787 5.35706 9.32787 5.07049C9.32787 4.78392 9.44171 4.50909 9.64434 4.30646C9.84698 4.10383 10.1228 3.98999 10.4094 3.98999Z" fill="#1A1C1F"/>
</g>
<defs>
<clipPath id="clip0_177_3478">
<rect width="32" height="32" fill="white"/>
</clipPath>
</defs>
</svg>
