<svg width="28" height="28" viewBox="0 0 28 28" fill="none" xmlns="http://www.w3.org/2000/svg">
<g clip-path="url(#clip0_177_3438)">
<path fill-rule="evenodd" clip-rule="evenodd" d="M10.8555 7.13945C11.5701 7.13866 12.2551 6.85447 12.7603 6.34923C13.2656 5.84399 13.5497 5.15897 13.5505 4.44445C13.5497 3.72994 13.2656 3.04491 12.7603 2.53967C12.2551 2.03444 11.5701 1.75024 10.8555 1.74945C10.141 1.75051 9.45604 2.03475 8.9507 2.53991C8.44536 3.04506 8.16086 3.72993 8.15954 4.44445C8.1606 5.15906 8.44501 5.84408 8.95041 6.34929C9.45581 6.8545 10.1409 7.13866 10.8555 7.13945ZM10.8555 3.49945C10.9823 3.4954 11.1086 3.51687 11.2269 3.56259C11.3451 3.60831 11.453 3.67735 11.5441 3.76561C11.6352 3.85386 11.7076 3.95952 11.757 4.07632C11.8064 4.19311 11.8319 4.31865 11.8318 4.44547C11.8317 4.57229 11.8062 4.6978 11.7566 4.81454C11.7071 4.93128 11.6346 5.03687 11.5434 5.12502C11.4522 5.21318 11.3443 5.2821 11.2259 5.3277C11.1076 5.3733 10.9813 5.39464 10.8545 5.39045C10.6091 5.38247 10.3764 5.27936 10.2056 5.10291C10.0348 4.92647 9.93929 4.69052 9.93929 4.44495C9.93929 4.19938 10.0348 3.96343 10.2056 3.78699C10.3764 3.61055 10.6101 3.50743 10.8555 3.49945ZM9.12054 8.69445L11.4765 11.0155L13.4425 11.5215C13.6611 11.585 13.8463 11.7311 13.9591 11.9288C14.0718 12.1265 14.1031 12.3603 14.0465 12.5807C13.9898 12.8012 13.8496 12.9909 13.6555 13.1097C13.4614 13.2286 13.2286 13.2672 13.0065 13.2175L10.8135 12.6525C10.6637 12.6138 10.5267 12.5362 10.4165 12.4275L8.56154 10.6005C7.74154 11.6655 6.44154 13.8085 7.62754 15.5325L10.9555 18.8965C11.0834 19.0256 11.1679 19.1912 11.1975 19.3705L12.1575 25.2334C12.1952 25.4625 12.1403 25.6971 12.005 25.8856C11.8697 26.0742 11.6651 26.2013 11.436 26.239C11.207 26.2766 10.9724 26.2218 10.7839 26.0864C10.5953 25.9511 10.4682 25.7465 10.4305 25.5175L9.51554 19.9285L6.33254 16.7115C6.30028 16.6791 6.27053 16.6443 6.24354 16.6075C3.74854 13.1455 7.42654 9.17445 7.85354 8.73445L7.88754 8.69945C8.05079 8.53604 8.27203 8.44381 8.50301 8.44288C8.73399 8.44194 8.95597 8.53237 9.12054 8.69445ZM6.26754 18.1625C6.37872 18.1916 6.48306 18.2424 6.5746 18.312C6.66614 18.3815 6.74308 18.4684 6.80103 18.5677C6.85898 18.6669 6.8968 18.7767 6.91233 18.8906C6.92786 19.0044 6.92079 19.1203 6.89154 19.2315L5.21754 25.5965C5.15064 25.8119 5.00322 25.9932 4.80599 26.1026C4.60876 26.212 4.37692 26.2412 4.15874 26.184C3.94056 26.1267 3.75286 25.9876 3.63472 25.7954C3.51659 25.6033 3.47712 25.373 3.52454 25.1525L5.19854 18.7865C5.22749 18.6751 5.27816 18.5706 5.34763 18.479C5.41709 18.3873 5.50399 18.3102 5.60333 18.2522C5.70267 18.1943 5.81249 18.1565 5.92648 18.1411C6.04046 18.1257 6.15637 18.1329 6.26754 18.1625ZM15.3085 23.6245C15.6566 23.6245 15.9905 23.7627 16.2366 24.0089C16.4828 24.255 16.621 24.5889 16.621 24.937C16.621 25.285 16.4828 25.6189 16.2366 25.865C15.9905 26.1112 15.6566 26.2495 15.3085 26.2495C14.9604 26.2495 14.6266 26.1112 14.3805 25.865C14.1343 25.6189 13.996 25.285 13.996 24.937C13.996 24.5889 14.1343 24.255 14.3805 24.0089C14.6266 23.7627 14.9604 23.6245 15.3085 23.6245ZM23.1825 23.6245C23.5306 23.6245 23.8645 23.7627 24.1106 24.0089C24.3568 24.255 24.495 24.5889 24.495 24.937C24.495 25.285 24.3568 25.6189 24.1106 25.865C23.8645 26.1112 23.5306 26.2495 23.1825 26.2495C22.8344 26.2495 22.5006 26.1112 22.2545 25.865C22.0083 25.6189 21.87 25.285 21.87 24.937C21.87 24.5889 22.0083 24.255 22.2545 24.0089C22.5006 23.7627 22.8344 23.6245 23.1825 23.6245ZM17.4965 12.2495C17.8975 12.2495 18.2475 12.5235 18.3455 12.9125L19.0555 15.7495H22.7455C22.9134 15.7498 23.0776 15.7983 23.2186 15.8893C23.3596 15.9802 23.4716 16.1098 23.5411 16.2625C23.6106 16.4153 23.6348 16.5848 23.6108 16.7509C23.5867 16.917 23.5155 17.0727 23.4055 17.1995L21.4695 19.4215L22.1795 22.2595C22.2074 22.3709 22.213 22.4868 22.196 22.6005C22.1791 22.7141 22.1399 22.8234 22.0808 22.9219C22.0216 23.0204 21.9437 23.1063 21.8513 23.1747C21.7589 23.2431 21.654 23.2926 21.5425 23.3204C21.3174 23.3767 21.0791 23.3412 20.8801 23.2217C20.6811 23.1022 20.5378 22.9086 20.4815 22.6835L20.0675 21.0295L18.0925 23.2965C18.0174 23.3836 17.9256 23.455 17.8227 23.5065C17.7197 23.558 17.6076 23.5886 17.4928 23.5965C17.3779 23.6044 17.2627 23.5895 17.1536 23.5526C17.0446 23.5157 16.944 23.4575 16.8575 23.3815C16.7708 23.306 16.6998 23.2141 16.6486 23.1112C16.5974 23.0083 16.567 22.8963 16.5591 22.7816C16.5512 22.6669 16.566 22.5517 16.6026 22.4428C16.6393 22.3338 16.697 22.2331 16.7725 22.1465L20.8225 17.4995H18.3715C18.1764 17.4995 17.9868 17.4342 17.8329 17.3141C17.6791 17.1939 17.5698 17.0258 17.5225 16.8365L16.8125 13.9995H15.7465C15.5145 13.9995 15.2919 13.9073 15.1278 13.7432C14.9637 13.5791 14.8715 13.3565 14.8715 13.1245C14.8715 12.8924 14.9637 12.6698 15.1278 12.5057C15.2919 12.3416 15.5145 12.2495 15.7465 12.2495H17.4965Z" fill="#1A1C1F"/>
</g>
<defs>
<clipPath id="clip0_177_3438">
<rect width="28" height="28" fill="white"/>
</clipPath>
</defs>
</svg>
