<svg width="14" height="14" viewBox="0 0 14 14" fill="none" xmlns="http://www.w3.org/2000/svg">
<g clip-path="url(#clip0_177_3450)">
<path fill-rule="evenodd" clip-rule="evenodd" d="M6.5927 3.49923C7.1957 3.49923 7.6427 3.00823 7.6427 2.44923C7.6427 1.86823 7.1957 1.39923 6.5927 1.39923C6.0337 1.39923 5.5427 1.86823 5.5427 2.44923C5.5427 3.00823 6.0337 3.49923 6.5927 3.49923ZM5.4097 4.21023L5.4827 4.21223C5.5227 4.21223 5.5627 4.20923 5.6037 4.21723C5.6557 4.22723 5.7037 4.25123 5.7507 4.27323C5.7807 4.28623 5.8137 4.28923 5.8417 4.30723L7.3447 5.25523C7.42244 5.30435 7.48975 5.36829 7.54278 5.44342C7.59581 5.51854 7.63352 5.60338 7.65377 5.69308C7.67401 5.78278 7.67639 5.87559 7.66076 5.96621C7.64514 6.05683 7.61181 6.14349 7.5627 6.22123C7.51359 6.29897 7.44964 6.36628 7.37451 6.41931C7.29939 6.47234 7.21455 6.51005 7.12485 6.5303C7.03515 6.55054 6.94234 6.55292 6.85172 6.53729C6.7611 6.52167 6.67444 6.48835 6.5967 6.43923L5.5107 5.75423C5.0507 6.21923 5.0027 6.80223 5.0067 7.05623L6.5207 9.38923C6.5934 9.50156 6.63227 9.63243 6.6327 9.76623L6.6487 11.8962C6.64929 11.9882 6.63177 12.0793 6.59714 12.1645C6.56251 12.2496 6.51144 12.3271 6.44686 12.3925C6.38227 12.4579 6.30544 12.51 6.22074 12.5457C6.13603 12.5814 6.04513 12.6001 5.9532 12.6007C5.86128 12.6013 5.77013 12.5838 5.68498 12.5492C5.59983 12.5145 5.52233 12.4635 5.45691 12.3989C5.39149 12.3343 5.33943 12.2575 5.30371 12.1728C5.26798 12.0881 5.24929 11.9972 5.2487 11.9052L5.2347 9.97923L4.6847 9.13223L4.5367 9.92723C4.53076 9.95873 4.52274 9.98979 4.5127 10.0202L3.8127 12.1202C3.75269 12.2947 3.62621 12.4385 3.46076 12.5202C3.29531 12.6019 3.10429 12.615 2.92924 12.5566C2.75419 12.4982 2.60928 12.3731 2.52603 12.2084C2.44278 12.0437 2.42793 11.8528 2.4847 11.6772L3.1707 9.62223L3.6147 7.24523C3.5867 6.78923 3.6117 5.24923 5.0647 4.32723L5.1007 4.30223C5.1327 4.28223 5.1707 4.27823 5.2047 4.26423C5.2487 4.24623 5.2897 4.22423 5.3367 4.21423L5.4097 4.21023ZM8.0487 11.1992C8.23435 11.1992 8.4124 11.273 8.54368 11.4043C8.67495 11.5355 8.7487 11.7136 8.7487 11.8992C8.7487 12.0849 8.67495 12.2629 8.54368 12.3942C8.4124 12.5255 8.23435 12.5992 8.0487 12.5992C7.86305 12.5992 7.685 12.5255 7.55373 12.3942C7.42245 12.2629 7.3487 12.0849 7.3487 11.8992C7.3487 11.7136 7.42245 11.5355 7.55373 11.4043C7.685 11.273 7.86305 11.1992 8.0487 11.1992ZM10.8487 11.1992C11.0344 11.1992 11.2124 11.273 11.3437 11.4043C11.475 11.5355 11.5487 11.7136 11.5487 11.8992C11.5487 12.0849 11.475 12.2629 11.3437 12.3942C11.2124 12.5255 11.0344 12.5992 10.8487 12.5992C10.663 12.5992 10.485 12.5255 10.3537 12.3942C10.2224 12.2629 10.1487 12.0849 10.1487 11.8992C10.1487 11.7136 10.2224 11.5355 10.3537 11.4043C10.485 11.273 10.663 11.1992 10.8487 11.1992ZM9.3757 6.68623L9.8827 7.69923H10.8497C10.9757 7.69949 11.0992 7.73368 11.2074 7.79821C11.3156 7.86274 11.4044 7.95523 11.4644 8.06595C11.5245 8.17667 11.5536 8.30153 11.5488 8.4274C11.5439 8.55327 11.5052 8.6755 11.4367 8.78123L10.1267 10.7912C10.0242 10.944 9.86563 11.0502 9.68536 11.087C9.5051 11.1238 9.31761 11.0881 9.16345 10.9877C9.00929 10.8873 8.90086 10.7302 8.8616 10.5505C8.82235 10.3707 8.85543 10.1828 8.9537 10.0272L9.4007 9.34023L8.9547 8.89423L8.9487 8.88423C8.89841 8.83407 8.85624 8.77638 8.8237 8.71323L8.1237 7.31323C8.04056 7.14721 8.02677 6.95495 8.08537 6.77876C8.14398 6.60257 8.27017 6.45688 8.4362 6.37373C8.60223 6.29059 8.79448 6.2768 8.97067 6.3354C9.14686 6.39401 9.29256 6.52021 9.3757 6.68623Z" fill="#1A1C1F"/>
</g>
<defs>
<clipPath id="clip0_177_3450">
<rect width="14" height="14" fill="white"/>
</clipPath>
</defs>
</svg>
