<svg width="24" height="24" viewBox="0 0 24 24" fill="none" xmlns="http://www.w3.org/2000/svg">
<g clip-path="url(#clip0_2849_180)">
<path fill-rule="evenodd" clip-rule="evenodd" d="M4.14645 16.149C4.14645 14.782 4.62645 13.415 5.56145 12.336C5.65362 12.2296 5.76778 12.1444 5.89606 12.0864C6.02433 12.0284 6.16367 11.9989 6.30445 12C6.90445 12 7.31145 12.456 7.31145 13.007C7.31145 13.223 7.23945 13.439 7.09645 13.631C6.49645 14.326 6.13645 15.237 6.13645 16.149C6.13645 18.259 7.81645 20 9.92645 20C11.1965 20 12.3715 19.41 13.1155 18.403C13.3315 18.115 13.6425 17.971 13.9305 17.971C14.4585 17.971 14.9615 18.379 14.9615 18.978C14.9636 19.1972 14.8873 19.41 14.7465 19.578C14.1893 20.3314 13.4627 20.9433 12.6254 21.364C11.7881 21.7847 10.8635 22.0026 9.92645 22C6.80745 22 4.14645 19.434 4.14645 16.149ZM7.64745 9.002C7.64745 8.451 8.10345 7.995 8.65445 7.995H9.37445C10.5245 7.995 11.5325 8.619 11.8685 9.674L11.9645 10H15.3935C15.5248 9.99908 15.655 10.024 15.7767 10.0734C15.8984 10.1228 16.0091 10.1957 16.1026 10.2879C16.1961 10.3801 16.2706 10.4899 16.3217 10.6108C16.3728 10.7318 16.3995 10.8617 16.4005 10.993C16.4005 11.544 15.9445 12 15.3935 12H12.5635L13.1635 14H16.6645C17.0965 14 17.4315 14.254 17.5995 14.662L19.7825 19.842C19.8311 19.9469 19.8553 20.0614 19.8535 20.177C19.8535 20.657 19.4705 21.161 18.8465 21.161C18.4155 21.161 18.0795 20.921 17.9115 20.513L15.9685 16.005H12.4195C12.2033 16.0048 11.9929 15.9345 11.8201 15.8047C11.6472 15.6749 11.521 15.4926 11.4605 15.285L10.0215 10.417C9.92545 10.105 9.80545 9.986 9.37445 9.986H8.65445C8.52363 9.98785 8.39373 9.96383 8.27222 9.91532C8.15072 9.86681 8.03999 9.79476 7.94641 9.70332C7.85284 9.61188 7.77825 9.50285 7.72695 9.38249C7.67564 9.26214 7.64863 9.13283 7.64745 9.002ZM7.64745 4.014C7.64745 2.911 8.55845 2 9.66245 2C10.7655 2 11.6525 2.911 11.6525 4.014C11.6525 5.117 10.7655 6.004 9.66245 6.004C8.55845 6.004 7.64745 5.118 7.64745 4.014Z" fill="#1A1C1F"/>
</g>
<defs>
<clipPath id="clip0_2849_180">
<rect width="24" height="24" fill="white"/>
</clipPath>
</defs>
</svg>
