<svg width="12" height="12" viewBox="0 0 12 12" fill="none" xmlns="http://www.w3.org/2000/svg">
<g clip-path="url(#clip0_2849_188)">
<path fill-rule="evenodd" clip-rule="evenodd" d="M3.93994 6.60202C3.94164 6.68355 3.92614 6.76451 3.89443 6.83964C3.86273 6.91477 3.81554 6.98236 3.75594 7.03802C3.47791 7.31697 3.32092 7.69418 3.31894 8.08802C3.31898 8.39056 3.40906 8.68624 3.57771 8.93741C3.74636 9.18857 3.98595 9.38386 4.26597 9.4984C4.54599 9.61294 4.85376 9.64154 5.15009 9.58057C5.44642 9.5196 5.71789 9.37181 5.92994 9.15602C5.98217 9.10313 6.04449 9.06128 6.1132 9.03293C6.18191 9.00459 6.25562 8.99034 6.32994 8.99102C6.66794 8.99102 6.93094 9.27302 6.93094 9.59302C6.93094 9.74302 6.89394 9.91302 6.78094 10.026C6.27057 10.5329 5.58022 10.8169 4.86094 10.816C4.13777 10.8152 3.44445 10.5275 2.93319 10.0161C2.42192 9.50461 2.13447 8.8112 2.13394 8.08802C2.13394 7.39202 2.41594 6.73402 2.88594 6.18802C2.94058 6.12768 3.00747 6.07969 3.08214 6.04727C3.15681 6.01485 3.23755 5.99874 3.31894 6.00002C3.3993 5.99856 3.47915 6.013 3.55391 6.04251C3.62868 6.07201 3.69687 6.116 3.75458 6.17194C3.81228 6.22788 3.85837 6.29467 3.89018 6.36848C3.92199 6.44229 3.9389 6.52166 3.93994 6.60202ZM5.85894 4.64502L6.47894 6.60202H7.79694C8.26694 6.60202 8.55094 6.82702 8.71794 7.24202L9.82794 9.98802C9.85394 10.051 9.86594 10.158 9.86594 10.214C9.86753 10.2919 9.85368 10.3694 9.82518 10.4419C9.79668 10.5144 9.7541 10.5805 9.69989 10.6365C9.64569 10.6925 9.58094 10.7372 9.50937 10.768C9.43781 10.7988 9.36085 10.8151 9.28294 10.816C9.00094 10.816 8.79294 10.628 8.69994 10.402L7.64594 7.80602H5.99094C5.85463 7.80894 5.72127 7.7661 5.61215 7.68436C5.50303 7.60261 5.42445 7.48666 5.38894 7.35502L4.67394 4.94602C4.65188 4.85714 4.65024 4.76442 4.66916 4.67482C4.68807 4.58522 4.72705 4.50107 4.78316 4.4287C4.83926 4.35633 4.91105 4.29761 4.99311 4.25697C5.07517 4.21632 5.16537 4.1948 5.25694 4.19402C5.53894 4.19402 5.77694 4.38302 5.85894 4.64502ZM5.03094 1.18402C5.52094 1.18402 5.93394 1.59802 5.93394 2.08702C5.93394 2.32651 5.8388 2.55619 5.66946 2.72554C5.50011 2.89488 5.27043 2.99002 5.03094 2.99002C4.91191 2.99164 4.79376 2.96938 4.68348 2.92457C4.57319 2.87976 4.473 2.81331 4.38883 2.72914C4.30465 2.64496 4.2382 2.54477 4.19339 2.43448C4.14858 2.3242 4.12633 2.20605 4.12794 2.08702C4.12794 1.59702 4.52294 1.18402 5.03094 1.18402Z" fill="#1A1C1F"/>
</g>
<defs>
<clipPath id="clip0_2849_188">
<rect width="12" height="12" fill="white"/>
</clipPath>
</defs>
</svg>
