<svg width="24" height="24" viewBox="0 0 24 24" fill="none" xmlns="http://www.w3.org/2000/svg">
<g clip-path="url(#clip0_177_3484)">
<path fill-rule="evenodd" clip-rule="evenodd" d="M7.93956 5.99972C8.2059 6.00581 8.47077 5.95863 8.71862 5.86094C8.96647 5.76326 9.19231 5.61704 9.38287 5.43088C9.57343 5.24471 9.72489 5.02235 9.82833 4.77685C9.93178 4.53135 9.98513 4.26765 9.98527 4.00124C9.9854 3.73484 9.93231 3.47109 9.82911 3.22548C9.72591 2.97988 9.57468 2.75737 9.3843 2.57101C9.19392 2.38466 8.96823 2.23821 8.72048 2.14028C8.47272 2.04235 8.2079 1.9949 7.94156 2.00072C7.41899 2.01214 6.92167 2.22769 6.55603 2.60121C6.1904 2.97473 5.98553 3.47655 5.98527 3.99924C5.98501 4.52193 6.18938 5.02396 6.55464 5.39785C6.91989 5.77174 7.41701 5.98778 7.93956 5.99972ZM7.81356 7.04972C7.85056 7.05272 7.88356 7.05272 7.91956 7.06072C8.02556 7.08472 8.12956 7.11972 8.22656 7.17872L8.23456 7.18572C8.25156 7.19572 8.26356 7.21172 8.27956 7.22272C8.36456 7.28272 8.43556 7.35272 8.49656 7.43272C8.50656 7.44672 8.52156 7.45272 8.53156 7.46672L11.0766 11.1627C11.2271 11.3813 11.2846 11.6506 11.2365 11.9116C11.1884 12.1726 11.0386 12.4037 10.8201 12.5542C10.6015 12.7047 10.3321 12.7623 10.0712 12.7142C9.81023 12.6661 9.57907 12.5163 9.42856 12.2977L8.34856 10.7287L7.96056 13.5687L9.73556 15.9907C9.79691 16.0741 9.84483 16.1665 9.87756 16.2647L11.3516 20.6827C11.4023 20.833 11.4164 20.9933 11.3928 21.1501C11.3692 21.307 11.3086 21.456 11.2159 21.5848C11.1232 21.7135 11.0012 21.8183 10.8599 21.8905C10.7186 21.9626 10.5622 22.0001 10.4036 21.9997C9.98356 21.9997 9.59356 21.7347 9.45356 21.3157L8.02856 17.0457L6.10656 14.4247C5.95353 14.2153 5.88758 13.9547 5.92256 13.6977L6.40456 10.1737L5.71456 10.6597L4.96056 13.2767C4.92418 13.4029 4.86331 13.5207 4.78141 13.6234C4.6995 13.7261 4.59818 13.8116 4.48322 13.8751C4.36826 13.9386 4.24192 13.9789 4.1114 13.9936C3.98089 14.0083 3.84876 13.9971 3.72256 13.9607C3.59636 13.9243 3.47856 13.8635 3.37589 13.7816C3.27321 13.6997 3.18768 13.5983 3.12416 13.4834C3.06065 13.3684 3.0204 13.2421 3.00571 13.1116C2.99102 12.9811 3.00218 12.8489 3.03856 12.7227L3.89056 9.76772C3.95359 9.5491 4.08942 9.35857 4.27556 9.22772L7.12956 7.21672L7.13856 7.21072C7.14456 7.20572 7.15256 7.20572 7.15856 7.20172C7.3528 7.07697 7.58423 7.02327 7.81356 7.04972ZM4.82356 16.8187C4.87845 16.6994 4.95632 16.592 5.05272 16.5027C5.14911 16.4134 5.26215 16.344 5.38537 16.2984C5.50859 16.2528 5.63959 16.2319 5.77088 16.237C5.90217 16.242 6.03119 16.2728 6.15056 16.3277C6.26993 16.3826 6.37732 16.4605 6.4666 16.5569C6.55588 16.6533 6.6253 16.7663 6.67089 16.8895C6.71649 17.0128 6.73736 17.1438 6.73233 17.275C6.7273 17.4063 6.69645 17.5354 6.64156 17.6547L4.90956 21.4177C4.79841 21.6585 4.59624 21.8454 4.34744 21.9373C4.09863 22.0291 3.82354 22.0185 3.58256 21.9077C3.46327 21.8529 3.35595 21.7751 3.26675 21.6787C3.17755 21.5824 3.10821 21.4694 3.06271 21.3463C3.0172 21.2231 2.99641 21.0922 3.00153 20.961C3.00666 20.8298 3.03759 20.701 3.09256 20.5817L4.82356 16.8187ZM13.0736 13.1017C12.8747 12.9334 12.6181 12.8494 12.3583 12.8674C12.0984 12.8854 11.8559 13.0041 11.6822 13.1983C11.5086 13.3924 11.4175 13.6466 11.4284 13.9068C11.4393 14.1671 11.5513 14.4128 11.7406 14.5917L17.2956 19.5657C17.3934 19.6534 17.5075 19.7209 17.6315 19.7645C17.7554 19.808 17.8867 19.8267 18.0179 19.8195C18.149 19.8123 18.2775 19.7794 18.3959 19.7225C18.5143 19.6657 18.6204 19.5861 18.7081 19.4882C18.7957 19.3904 18.8632 19.2762 18.9068 19.1523C18.9503 19.0284 18.969 18.8971 18.9618 18.7659C18.9547 18.6348 18.9217 18.5063 18.8649 18.3879C18.808 18.2694 18.7284 18.1634 18.6306 18.0757L13.0756 13.1017H13.0736ZM20.0006 19.9987C19.4836 19.9987 19.0006 20.4817 19.0006 20.9987C19.0006 21.5157 19.4836 21.9987 20.0006 21.9987C20.5176 21.9987 21.0006 21.5157 21.0006 20.9987C21.0006 20.4817 20.5176 19.9987 20.0006 19.9987Z" fill="#1A1C1F"/>
</g>
<defs>
<clipPath id="clip0_177_3484">
<rect width="24" height="24" fill="white"/>
</clipPath>
</defs>
</svg>
