<svg width="16" height="16" viewBox="0 0 16 16" fill="none" xmlns="http://www.w3.org/2000/svg">
<g clip-path="url(#clip0_2849_184)">
<path fill-rule="evenodd" clip-rule="evenodd" d="M5.26249 8.79998C5.26249 9.02498 5.18749 9.20998 5.01749 9.37998C4.63749 9.75998 4.43749 10.275 4.43749 10.775C4.43749 11.9 5.36249 12.8 6.46249 12.8C6.98749 12.8 7.50249 12.6 7.90749 12.195C7.97663 12.1247 8.05916 12.0691 8.1502 12.0313C8.24123 11.9935 8.33892 11.9743 8.43749 11.975C8.88749 11.975 9.23749 12.35 9.23749 12.775C9.23749 12.975 9.18749 13.2 9.03749 13.35C8.35962 14.0232 7.44284 14.4007 6.48749 14.4C4.48749 14.4 2.86249 12.775 2.86249 10.775C2.86249 9.84997 3.23749 8.97498 3.86249 8.24998C3.93503 8.1698 4.02385 8.10603 4.12301 8.06292C4.22216 8.0198 4.32938 7.99835 4.43749 7.99998C4.88749 7.99998 5.26249 8.34998 5.26249 8.79998ZM7.81249 6.19998L8.63749 8.79998H10.3875C11.0125 8.79998 11.3895 9.09897 11.6125 9.64997L13.0875 13.3C13.1215 13.384 13.1375 13.525 13.1375 13.6C13.1375 14.05 12.7875 14.4 12.3625 14.4C11.9875 14.4 11.7105 14.15 11.5875 13.85L10.1875 10.4H7.98749C7.80623 10.4039 7.62889 10.3469 7.48384 10.2382C7.3388 10.1294 7.23445 9.97509 7.18749 9.79998L6.23749 6.59998C6.20798 6.4818 6.20567 6.35846 6.23074 6.23926C6.25581 6.12007 6.30761 6.00811 6.38222 5.91183C6.45684 5.81556 6.55233 5.73747 6.6615 5.68345C6.77068 5.62943 6.89068 5.60089 7.01249 5.59998C7.38749 5.59998 7.70249 5.85298 7.81249 6.19998ZM6.71249 1.59998C7.36249 1.59998 7.91249 2.14998 7.91249 2.79998C7.91249 3.11824 7.78606 3.42346 7.56102 3.6485C7.33597 3.87355 7.03075 3.99998 6.71249 3.99998C6.03749 3.99998 5.51249 3.47498 5.51249 2.79998C5.51249 2.14998 6.03749 1.59998 6.71249 1.59998Z" fill="#1A1C1F"/>
</g>
<defs>
<clipPath id="clip0_2849_184">
<rect width="16" height="16" fill="white"/>
</clipPath>
</defs>
</svg>
