<svg width="32" height="32" viewBox="0 0 32 32" fill="none" xmlns="http://www.w3.org/2000/svg">
<g clip-path="url(#clip0_177_3435)">
<path fill-rule="evenodd" clip-rule="evenodd" d="M12.406 8.15939C13.2225 8.15833 14.0053 7.83349 14.5827 7.25611C15.1601 6.67873 15.4849 5.89593 15.486 5.07939C15.4849 4.26285 15.1601 3.48005 14.5827 2.90267C14.0053 2.32529 13.2225 2.00045 12.406 1.99939C11.5895 2.00071 10.8069 2.32564 10.2295 2.90296C9.6522 3.48029 9.32728 4.26293 9.32596 5.07939C9.32701 5.89593 9.65185 6.67873 10.2292 7.25611C10.8066 7.83349 11.5894 8.15833 12.406 8.15939ZM12.406 3.99939C12.6925 3.99939 12.9674 4.11323 13.17 4.31586C13.3726 4.51849 13.4865 4.79332 13.4865 5.07989C13.4865 5.36646 13.3726 5.64129 13.17 5.84392C12.9674 6.04655 12.6925 6.16039 12.406 6.16039C12.1194 6.16039 11.8446 6.04655 11.6419 5.84392C11.4393 5.64129 11.3255 5.36646 11.3255 5.07989C11.3255 4.79332 11.4393 4.51849 11.6419 4.31586C11.8446 4.11323 12.1194 3.99939 12.406 3.99939ZM10.426 9.93639L13.118 12.5894L15.365 13.1664C15.9 13.3054 16.222 13.8504 16.085 14.3854C16.0523 14.5127 15.9949 14.6323 15.916 14.7374C15.8371 14.8424 15.7383 14.931 15.6252 14.9978C15.5121 15.0647 15.3869 15.1086 15.2568 15.1271C15.1267 15.1455 14.9942 15.1382 14.867 15.1054L12.36 14.4604C12.1889 14.4162 12.0327 14.3275 11.907 14.2034L9.78696 12.1144C8.84896 13.3324 7.36396 15.7814 8.71896 17.7514L12.523 21.5964C12.669 21.7434 12.765 21.9334 12.799 22.1374L13.897 28.8384C13.9182 28.968 13.9138 29.1005 13.8838 29.2284C13.8539 29.3563 13.799 29.4771 13.7224 29.5838C13.6458 29.6904 13.5489 29.781 13.4373 29.8503C13.3257 29.9195 13.2016 29.9661 13.072 29.9874C12.9423 30.0087 12.8098 30.0042 12.6819 29.9743C12.554 29.9443 12.4333 29.8895 12.3266 29.8129C12.2199 29.7362 12.1293 29.6394 12.0601 29.5278C11.9908 29.4162 11.9442 29.292 11.923 29.1624L10.877 22.7754L7.23896 19.0984C7.20237 19.0617 7.16861 19.0222 7.13796 18.9804C4.17796 14.8744 8.81696 10.1414 9.01596 9.94239C9.20252 9.75534 9.45553 9.64972 9.71972 9.64859C9.9839 9.64747 10.2378 9.75093 10.426 9.93639ZM17.496 26.9994C17.8938 26.9994 18.2753 27.1574 18.5566 27.4387C18.8379 27.72 18.996 28.1016 18.996 28.4994C18.996 28.8972 18.8379 29.2787 18.5566 29.56C18.2753 29.8414 17.8938 29.9994 17.496 29.9994C17.0981 29.9994 16.7166 29.8414 16.4353 29.56C16.154 29.2787 15.996 28.8972 15.996 28.4994C15.996 28.1016 16.154 27.72 16.4353 27.4387C16.7166 27.1574 17.0981 26.9994 17.496 26.9994ZM26.495 26.9994C26.8928 26.9994 27.2743 27.1574 27.5556 27.4387C27.8369 27.72 27.995 28.1016 27.995 28.4994C27.995 28.8972 27.8369 29.2787 27.5556 29.56C27.2743 29.8414 26.8928 29.9994 26.495 29.9994C26.0971 29.9994 25.7156 29.8414 25.4343 29.56C25.153 29.2787 24.995 28.8972 24.995 28.4994C24.995 28.1016 25.153 27.72 25.4343 27.4387C25.7156 27.1574 26.0971 26.9994 26.495 26.9994ZM7.16396 20.7574C7.42039 20.8248 7.63956 20.9913 7.77326 21.2203C7.90697 21.4492 7.94427 21.7219 7.87696 21.9784L5.96396 29.2534C5.88879 29.5012 5.72054 29.7102 5.49452 29.8366C5.26851 29.9629 5.00232 29.9968 4.75187 29.931C4.50142 29.8653 4.2862 29.705 4.15139 29.4839C4.01659 29.2629 3.97271 28.9981 4.02896 28.7454L5.94196 21.4704C5.97509 21.3432 6.03304 21.2237 6.11246 21.119C6.19189 21.0142 6.29123 20.9262 6.40478 20.8599C6.51833 20.7937 6.64385 20.7505 6.77414 20.7329C6.90442 20.7153 7.0369 20.7236 7.16396 20.7574ZM19.996 13.9994C20.219 13.9995 20.4357 14.0741 20.6114 14.2114C20.7872 14.3488 20.912 14.541 20.966 14.7574L21.776 17.9994H25.996C26.1879 17.9994 26.3758 18.0546 26.5372 18.1585C26.6987 18.2624 26.8268 18.4105 26.9063 18.5852C26.9858 18.7599 27.0133 18.9538 26.9856 19.1438C26.9579 19.3337 26.8761 19.5117 26.75 19.6564L24.537 22.1954L25.347 25.4394C25.3814 25.5676 25.3899 25.7014 25.372 25.833C25.3542 25.9645 25.3103 26.0912 25.243 26.2056C25.1757 26.3201 25.0862 26.4199 24.9799 26.4994C24.8735 26.5789 24.7524 26.6365 24.6236 26.6687C24.4949 26.7009 24.3609 26.7071 24.2297 26.687C24.0985 26.6669 23.9725 26.6208 23.8593 26.5516C23.746 26.4823 23.6477 26.3912 23.57 26.2835C23.4924 26.1758 23.4369 26.0537 23.407 25.9244L22.935 24.0334L20.677 26.6244C20.5909 26.7238 20.4861 26.8051 20.3684 26.8638C20.2508 26.9225 20.1228 26.9574 19.9916 26.9664C19.8605 26.9754 19.7289 26.9584 19.6043 26.9164C19.4798 26.8743 19.3648 26.8081 19.266 26.7214C19.1669 26.6351 19.0859 26.5302 19.0274 26.4126C18.9689 26.295 18.9342 26.167 18.9252 26.036C18.9162 25.905 18.9331 25.7734 18.9749 25.6489C19.0167 25.5244 19.0827 25.4094 19.169 25.3104L23.799 19.9994H20.996C20.7729 19.9993 20.5563 19.9247 20.3805 19.7873C20.2047 19.65 20.0799 19.4578 20.026 19.2414L19.216 15.9994H17.996C17.7307 15.9994 17.4764 15.894 17.2888 15.7065C17.1013 15.519 16.996 15.2646 16.996 14.9994C16.996 14.7342 17.1013 14.4798 17.2888 14.2923C17.4764 14.1047 17.7307 13.9994 17.996 13.9994H19.996Z" fill="#1A1C1F"/>
</g>
<defs>
<clipPath id="clip0_177_3435">
<rect width="32" height="32" fill="white"/>
</clipPath>
</defs>
</svg>
