<svg width="32" height="32" viewBox="0 0 32 32" fill="none" xmlns="http://www.w3.org/2000/svg">
<g clip-path="url(#clip0_2849_176)">
<path fill-rule="evenodd" clip-rule="evenodd" d="M4.992 22.313C4.992 20.531 5.617 18.813 6.773 17.469C6.961 17.25 7.273 17.125 7.555 17.125C8.085 17.125 8.523 17.594 8.523 18.125C8.523 18.375 8.461 18.594 8.304 18.781C7.45403 19.761 6.98793 21.0158 6.992 22.313C6.992 25.28 9.43 27.75 12.398 27.75C14.367 27.75 16.211 26.625 17.148 24.875C17.336 24.562 17.68 24.375 18.023 24.375C18.586 24.375 19.023 24.813 19.023 25.375C19.026 25.54 18.9827 25.7024 18.898 25.844C17.617 28.219 15.117 29.75 12.398 29.75C8.304 29.75 4.992 26.407 4.992 22.313ZM9.476 12.06C9.476 11.123 10.726 10.748 11.726 10.748C13.196 10.748 14.32 11.779 14.758 13.185L15.57 15.75H20.976C21.539 15.75 21.976 16.219 21.976 16.75C21.976 17.312 21.539 17.75 20.976 17.75H14.852C14.6426 17.7511 14.4385 17.6848 14.2698 17.5609C14.101 17.437 13.9766 17.2621 13.915 17.062L12.852 13.687C12.696 13.093 12.29 12.75 11.696 12.75C11.196 12.75 10.79 13.062 10.477 13.062C9.915 13.062 9.477 12.593 9.477 12.062L9.476 12.06ZM14.383 20.75C14.383 20.187 14.851 19.75 15.383 19.75H22.976C23.383 19.75 23.758 20 23.914 20.344L26.914 27.282C26.976 27.407 27.008 27.532 27.008 27.657C27.008 28.126 26.68 28.657 25.992 28.657C25.617 28.657 25.226 28.439 25.07 28.064L22.32 21.75H15.383C14.851 21.75 14.383 21.312 14.383 20.75ZM11.758 2.25001C13.538 2.25001 14.976 3.68801 14.976 5.50001C14.9767 5.92284 14.8939 6.34164 14.7324 6.73242C14.5709 7.1232 14.3339 7.47827 14.035 7.7773C13.7361 8.07633 13.3811 8.31344 12.9903 8.47504C12.5996 8.63663 12.1808 8.71954 11.758 8.71901C9.945 8.71901 8.508 7.28101 8.508 5.50001C8.50507 5.0724 8.58714 4.64847 8.74943 4.25284C8.91172 3.85721 9.15101 3.49777 9.45338 3.1954C9.75576 2.89302 10.1152 2.65374 10.5108 2.49145C10.9065 2.32916 11.3304 2.24709 11.758 2.25001ZM11.758 4.25001C11.07 4.25001 10.508 4.81301 10.508 5.50001C10.508 6.18801 11.07 6.71901 11.758 6.71901C12.445 6.71901 13.008 6.18701 13.008 5.50001C13.008 4.81201 12.445 4.25001 11.758 4.25001Z" fill="#1A1C1F"/>
</g>
<defs>
<clipPath id="clip0_2849_176">
<rect width="32" height="32" fill="white"/>
</clipPath>
</defs>
</svg>
