<svg width="16" height="16" viewBox="0 0 16 16" fill="none" xmlns="http://www.w3.org/2000/svg">
<g clip-path="url(#clip0_177_3490)">
<path fill-rule="evenodd" clip-rule="evenodd" d="M5.32633 3.99998C5.48391 3.99991 5.63994 3.96881 5.78551 3.90844C5.93108 3.84807 6.06333 3.75963 6.17471 3.64815C6.28609 3.53667 6.37443 3.40435 6.43467 3.25873C6.49492 3.11312 6.52589 2.95706 6.52583 2.79948C6.52576 2.64189 6.49466 2.48586 6.43429 2.34029C6.37393 2.19473 6.28548 2.06248 6.174 1.95109C6.06253 1.83971 5.9302 1.75137 5.78459 1.69113C5.63897 1.63088 5.48291 1.59991 5.32533 1.59998C5.00707 1.59998 4.70184 1.7264 4.4768 1.95145C4.25176 2.17649 4.12533 2.48172 4.12533 2.79998C4.12533 3.11824 4.25176 3.42346 4.4768 3.6485C4.70184 3.87355 5.00807 3.99998 5.32633 3.99998ZM6.37933 8.07998C6.44807 8.15962 6.53184 8.22495 6.62583 8.27222C6.71982 8.3195 6.82221 8.3478 6.92714 8.35551C7.03207 8.36321 7.13749 8.35018 7.23738 8.31714C7.33727 8.28411 7.42968 8.23172 7.50933 8.16298C7.58897 8.09423 7.6543 8.01047 7.70158 7.91647C7.74885 7.82248 7.77715 7.7201 7.78486 7.61517C7.79257 7.51024 7.77953 7.40481 7.7465 7.30492C7.71346 7.20503 7.66108 7.11262 7.59233 7.03298L5.82233 4.98598C5.77065 4.91112 5.70636 4.84582 5.63233 4.79298C5.51114 4.70912 5.3692 4.66028 5.22207 4.65181C5.07495 4.64335 4.92833 4.67558 4.79833 4.74498L2.56933 5.93998C2.38353 6.03987 2.24477 6.20918 2.18333 6.41098L1.63733 8.19498C1.60425 8.2961 1.59168 8.4028 1.60035 8.50885C1.60901 8.61489 1.63874 8.71814 1.6878 8.81255C1.73686 8.90696 1.80425 8.99063 1.88605 9.05868C1.96784 9.12673 2.06238 9.17777 2.16414 9.20883C2.2659 9.23989 2.37284 9.25034 2.47868 9.23957C2.58453 9.2288 2.68717 9.19702 2.78059 9.1461C2.874 9.09517 2.95633 9.02613 3.02273 8.943C3.08914 8.85987 3.1383 8.76433 3.16733 8.66198L3.61733 7.19398L4.17133 6.89598L3.89133 8.94998L2.10733 13.296C2.03877 13.4897 2.04732 13.7025 2.13123 13.8901C2.21513 14.0778 2.36795 14.226 2.55808 14.3041C2.74821 14.3822 2.96109 14.3842 3.15267 14.3097C3.34425 14.2353 3.49987 14.09 3.58733 13.904L4.86733 10.784L5.23933 11.292L6.10333 13.855C6.17895 14.0457 6.32488 14.2002 6.51104 14.2865C6.69719 14.3728 6.90936 14.3843 7.10379 14.3188C7.29822 14.2533 7.46009 14.1156 7.55602 13.9342C7.65194 13.7528 7.6746 13.5416 7.61933 13.344L6.71733 10.664C6.69077 10.5861 6.65268 10.5126 6.60433 10.446L5.50733 8.94998L5.72933 7.32498L6.38033 8.07898L6.37933 8.07998ZM9.20733 8.65598C9.12853 8.58638 9.0368 8.53298 8.93737 8.49883C8.83794 8.46468 8.73276 8.45044 8.62783 8.45694C8.5229 8.46345 8.42028 8.49055 8.32582 8.53671C8.23137 8.58287 8.14693 8.64718 8.07733 8.72598C8.00773 8.80477 7.95433 8.8965 7.92018 8.99593C7.88603 9.09536 7.8718 9.20054 7.8783 9.30547C7.8848 9.4104 7.9119 9.51303 7.95806 9.60748C8.00422 9.70194 8.06854 9.78637 8.14733 9.85598L11.2773 12.616C11.3558 12.6863 11.4474 12.7403 11.5469 12.7748C11.6464 12.8094 11.7518 12.8238 11.857 12.8173C11.9621 12.8108 12.0649 12.7835 12.1594 12.7369C12.2539 12.6903 12.3381 12.6254 12.4073 12.546C12.477 12.4672 12.5305 12.3755 12.5646 12.2761C12.5988 12.1766 12.6131 12.0714 12.6066 11.9665C12.6001 11.8615 12.573 11.7589 12.5268 11.6644C12.4806 11.57 12.4162 11.4855 12.3373 11.416L9.20533 8.65598H9.20733ZM13.6023 12.8C13.1883 12.8 12.8023 13.186 12.8023 13.6C12.8023 14.014 13.1883 14.4 13.6023 14.4C14.0153 14.4 14.4023 14.014 14.4023 13.6C14.4023 13.186 14.0153 12.8 13.6023 12.8Z" fill="#1A1C1F"/>
</g>
<defs>
<clipPath id="clip0_177_3490">
<rect width="16" height="16" fill="white"/>
</clipPath>
</defs>
</svg>
