<svg width="24" height="24" viewBox="0 0 24 24" fill="none" xmlns="http://www.w3.org/2000/svg">
<g clip-path="url(#clip0_177_3441)">
<path fill-rule="evenodd" clip-rule="evenodd" d="M10.1979 5.74983C10.4442 5.7501 10.6881 5.70178 10.9157 5.60764C11.1433 5.51351 11.3501 5.37541 11.5243 5.20125C11.6984 5.02708 11.8365 4.82028 11.9307 4.59268C12.0248 4.36507 12.0731 4.12114 12.0729 3.87483C12.0765 3.6276 12.0305 3.38215 11.9375 3.15302C11.8446 2.92389 11.7066 2.71574 11.5318 2.5409C11.3569 2.36606 11.1488 2.22809 10.9197 2.13515C10.6905 2.04221 10.4451 1.99619 10.1979 1.99983C9.20085 1.99983 8.32285 2.83783 8.32285 3.87483C8.32285 4.87183 9.20085 5.74983 10.1979 5.74983ZM6.60985 16.0488C7.13485 16.2208 7.42185 16.7858 7.25185 17.3108L5.95085 21.3108C5.86823 21.5625 5.68929 21.7713 5.45316 21.8914C5.21704 22.0115 4.94295 22.0333 4.69085 21.9518C4.43873 21.8694 4.22956 21.6904 4.10922 21.454C3.98887 21.2176 3.96717 20.9432 4.04885 20.6908L5.34885 16.6908C5.43082 16.4386 5.60961 16.2293 5.8459 16.1089C6.08219 15.9885 6.35763 15.9669 6.60985 16.0488ZM8.27385 7.27083C8.32185 7.27483 8.36985 7.26583 8.41685 7.27683C8.54493 7.30612 8.66593 7.3605 8.77285 7.43683L11.9209 9.69783C12.0919 9.82196 12.2194 9.99701 12.2849 10.1979C12.3505 10.3989 12.3509 10.6154 12.286 10.8165C12.2211 11.0177 12.0942 11.1932 11.9236 11.3179C11.7529 11.4426 11.5472 11.5101 11.3359 11.5108C11.1266 11.511 10.9226 11.4452 10.7529 11.3228L8.25185 9.52583C7.42585 10.6168 8.02685 12.5258 8.19785 13.0038L10.7879 16.3328C10.9251 16.5081 10.9997 16.7242 10.9999 16.9468V20.9998C10.9999 21.2651 10.8945 21.5194 10.707 21.7069C10.5194 21.8945 10.2651 21.9998 9.99985 21.9998C9.73464 21.9998 9.48028 21.8945 9.29275 21.7069C9.10521 21.5194 8.99985 21.2651 8.99985 20.9998V17.2898L6.52685 14.1118C6.51585 14.0968 6.51385 14.0798 6.50385 14.0648C6.46285 14.0058 6.41985 13.9478 6.39185 13.8788C5.69585 12.1928 5.18185 8.93083 7.66585 7.39883L7.78285 7.33783C7.86285 7.30283 7.94585 7.27783 8.03185 7.26383C8.11185 7.25083 8.19185 7.26383 8.27385 7.27083ZM13.4999 19.4998C13.8314 19.4998 14.1493 19.6315 14.3837 19.8659C14.6182 20.1004 14.7499 20.4183 14.7499 20.7498C14.7499 21.0814 14.6182 21.3993 14.3837 21.6337C14.1493 21.8681 13.8314 21.9998 13.4999 21.9998C13.1683 21.9998 12.8504 21.8681 12.616 21.6337C12.3815 21.3993 12.2499 21.0814 12.2499 20.7498C12.2499 20.4183 12.3815 20.1004 12.616 19.8659C12.8504 19.6315 13.1683 19.4998 13.4999 19.4998ZM18.7499 19.4998C19.0814 19.4998 19.3993 19.6315 19.6337 19.8659C19.8682 20.1004 19.9999 20.4183 19.9999 20.7498C19.9999 21.0814 19.8682 21.3993 19.6337 21.6337C19.3993 21.8681 19.0814 21.9998 18.7499 21.9998C18.4183 21.9998 18.1004 21.8681 17.866 21.6337C17.6315 21.3993 17.4999 21.0814 17.4999 20.7498C17.4999 20.4183 17.6315 20.1004 17.866 19.8659C18.1004 19.6315 18.4183 19.4998 18.7499 19.4998ZM14.7499 10.9998C14.9195 10.9998 15.0863 11.043 15.2346 11.1252C15.383 11.2074 15.508 11.326 15.5979 11.4698L17.1779 13.9998H18.9999C19.1955 14 19.3869 14.0576 19.5501 14.1654C19.7134 14.2732 19.8415 14.4266 19.9184 14.6065C19.9954 14.7864 20.0179 14.9849 19.9831 15.1775C19.9484 15.3701 19.8579 15.5482 19.7229 15.6898L16.4779 19.0818C16.293 19.2665 16.0432 19.3715 15.782 19.3744C15.5207 19.3773 15.2687 19.2778 15.0798 19.0972C14.891 18.9166 14.7803 18.6692 14.7716 18.4081C14.7628 18.1469 14.8566 17.8927 15.0329 17.6998L16.6579 15.9998H16.6239C16.4542 15.9998 16.2874 15.9567 16.1391 15.8745C15.9907 15.7923 15.8657 15.6737 15.7759 15.5298L14.1959 12.9998H13.9999C13.7346 12.9998 13.4803 12.8945 13.2927 12.7069C13.1052 12.5194 12.9999 12.2651 12.9999 11.9998C12.9999 11.7346 13.1052 11.4803 13.2927 11.2927C13.4803 11.1052 13.7346 10.9998 13.9999 10.9998H14.7499Z" fill="#1A1C1F"/>
</g>
<defs>
<clipPath id="clip0_177_3441">
<rect width="24" height="24" fill="white"/>
</clipPath>
</defs>
</svg>
