<svg width="20" height="20" viewBox="0 0 20 20" fill="none" xmlns="http://www.w3.org/2000/svg">
<g clip-path="url(#clip0_177_3487)">
<path fill-rule="evenodd" clip-rule="evenodd" d="M6.65479 5.00051C7.05275 5.00038 7.43435 4.84216 7.71566 4.56067C7.99696 4.27918 8.15492 3.89747 8.15479 3.49951C8.15466 3.10155 7.99644 2.71995 7.71495 2.43864C7.43346 2.15734 7.05175 1.99938 6.65379 1.99951C6.25583 1.99951 5.87418 2.1576 5.59278 2.439C5.31138 2.7204 5.15329 3.10205 5.15329 3.50001C5.15329 3.89797 5.31138 4.27963 5.59278 4.56103C5.87418 4.84242 6.25583 5.00051 6.65379 5.00051H6.65479ZM7.97179 10.0995C8.05754 10.1989 8.16204 10.2805 8.27931 10.3395C8.39658 10.3985 8.52432 10.4339 8.65525 10.4435C8.78618 10.4532 8.91773 10.437 9.04239 10.3958C9.16705 10.3546 9.28238 10.2893 9.38179 10.2035C9.4812 10.1178 9.56275 10.0133 9.62178 9.896C9.6808 9.77873 9.71616 9.65098 9.72581 9.52005C9.73547 9.38912 9.71924 9.25757 9.67806 9.13291C9.63688 9.00825 9.57154 8.89292 9.48579 8.79351L7.27579 6.23251C7.21161 6.13917 7.13177 6.05763 7.03979 5.99151C6.88828 5.88655 6.71075 5.82541 6.52673 5.81482C6.34271 5.80424 6.15934 5.84461 5.99679 5.93151L3.20979 7.42551C2.97687 7.55006 2.80283 7.76187 2.72579 8.01451L2.04379 10.2445C2.00545 10.3701 1.99222 10.5021 2.00486 10.6328C2.0175 10.7635 2.05576 10.8905 2.11747 11.0064C2.17917 11.1223 2.26311 11.225 2.36448 11.3085C2.46586 11.392 2.58268 11.4547 2.70829 11.493C2.8339 11.5314 2.96583 11.5446 3.09656 11.5319C3.22728 11.5193 3.35423 11.481 3.47016 11.4193C3.5861 11.3576 3.68874 11.2737 3.77224 11.1723C3.85573 11.0709 3.91845 10.9541 3.95679 10.8285L4.51679 8.99251L5.21179 8.62051L4.86079 11.1885L2.63079 16.6205C2.56868 16.7723 2.54484 16.9371 2.56135 17.1003C2.57787 17.2635 2.63424 17.4201 2.7255 17.5564C2.81676 17.6927 2.94012 17.8045 3.08473 17.882C3.22934 17.9594 3.39076 18.0001 3.55479 18.0005C3.75324 18.0007 3.94726 17.9419 4.11216 17.8315C4.27706 17.721 4.40538 17.5641 4.48079 17.3805L6.08079 13.4815L6.54679 14.1155L7.62579 17.3195C7.71717 17.5623 7.89925 17.7602 8.13366 17.8714C8.36807 17.9826 8.63649 17.9984 8.88235 17.9155C9.1282 17.8327 9.33228 17.6576 9.45157 17.4272C9.57086 17.1968 9.59603 16.9291 9.52179 16.6805L8.39379 13.3295C8.36054 13.2327 8.31301 13.1413 8.25279 13.0585L6.87979 11.1865L7.15779 9.15551L7.97179 10.0985V10.0995ZM11.5058 10.8205C11.3069 10.6449 11.0464 10.5556 10.7816 10.5721C10.5168 10.5886 10.2694 10.7096 10.0938 10.9085C9.91822 11.1074 9.82885 11.3679 9.84536 11.6327C9.86186 11.8975 9.98288 12.1449 10.1818 12.3205L14.0948 15.7715C14.2848 15.9395 14.5208 16.0215 14.7548 16.0215C14.958 16.0216 15.1563 15.9599 15.3235 15.8444C15.4907 15.729 15.6188 15.5654 15.6907 15.3753C15.7626 15.1853 15.7749 14.9779 15.7259 14.7807C15.677 14.5835 15.5692 14.4059 15.4168 14.2715L11.5038 10.8205H11.5058ZM16.9998 16.0005C16.4828 16.0005 15.9998 16.4835 15.9998 17.0005C15.9998 17.5175 16.4828 18.0005 16.9998 18.0005C17.5168 18.0005 17.9998 17.5175 17.9998 17.0005C17.9998 16.4835 17.5168 16.0005 16.9998 16.0005Z" fill="#1A1C1F"/>
</g>
<defs>
<clipPath id="clip0_177_3487">
<rect width="20" height="20" fill="white"/>
</clipPath>
</defs>
</svg>
