<svg width="12" height="12" viewBox="0 0 12 12" fill="none" xmlns="http://www.w3.org/2000/svg">
<g clip-path="url(#clip0_231_5)">
<path fill-rule="evenodd" clip-rule="evenodd" d="M3.99201 3.00001C4.1102 3.00001 4.22723 2.97673 4.33642 2.9315C4.44561 2.88627 4.54483 2.81998 4.6284 2.73641C4.71197 2.65284 4.77827 2.55362 4.8235 2.44443C4.86873 2.33523 4.89201 2.2182 4.89201 2.10001C4.89201 1.98182 4.86873 1.86479 4.8235 1.7556C4.77827 1.6464 4.71197 1.54719 4.6284 1.46362C4.54483 1.38004 4.44561 1.31375 4.33642 1.26852C4.22723 1.22329 4.1102 1.20001 3.99201 1.20001C3.75331 1.20001 3.52439 1.29483 3.35561 1.46362C3.18683 1.6324 3.09201 1.86132 3.09201 2.10001C3.09201 2.33871 3.18683 2.56763 3.35561 2.73641C3.52439 2.90519 3.75331 3.00001 3.99201 3.00001ZM4.78229 6.06001C4.83379 6.11967 4.89653 6.1686 4.96694 6.20401C5.03735 6.23942 5.11404 6.26061 5.19264 6.26638C5.27123 6.27215 5.3502 6.26239 5.42502 6.23764C5.49985 6.21289 5.56906 6.17365 5.62872 6.12215C5.68838 6.07066 5.73731 6.00792 5.77272 5.93751C5.80813 5.8671 5.82932 5.79041 5.83509 5.71181C5.84086 5.63321 5.8311 5.55425 5.80635 5.47942C5.7816 5.4046 5.74236 5.33538 5.69086 5.27573L4.36486 3.73887C4.32636 3.68309 4.27851 3.63437 4.22343 3.59487C4.13251 3.53196 4.02602 3.49532 3.91563 3.48897C3.80525 3.48262 3.69526 3.5068 3.59772 3.55887L1.92543 4.45458C1.78552 4.52945 1.68102 4.65676 1.63486 4.80858L1.22601 6.14573C1.20293 6.22109 1.19493 6.30025 1.20245 6.37871C1.20997 6.45716 1.23287 6.53337 1.26984 6.60297C1.30681 6.67257 1.35713 6.73421 1.41792 6.78437C1.47871 6.83453 1.54879 6.87222 1.62415 6.8953C1.69951 6.91837 1.77868 6.92638 1.85713 6.91886C1.93558 6.91134 2.01179 6.88844 2.08139 6.85147C2.151 6.8145 2.21264 6.76418 2.2628 6.70338C2.31295 6.64259 2.35065 6.57251 2.37372 6.49715L2.70972 5.39487L3.12629 5.17201L2.91629 6.71315L1.57829 9.97201C1.52749 10.1172 1.5343 10.2764 1.59733 10.4167C1.66037 10.557 1.77482 10.6678 1.91711 10.7263C2.0594 10.7847 2.21868 10.7864 2.36216 10.7309C2.50563 10.6754 2.62236 10.567 2.68829 10.428L3.64829 8.08801L3.92772 8.46858L4.57486 10.3912C4.63129 10.5346 4.74072 10.6509 4.8805 10.716C5.02028 10.7811 5.17973 10.7899 5.32584 10.7407C5.47196 10.6915 5.59356 10.5879 5.66549 10.4516C5.73742 10.3152 5.75418 10.1564 5.71229 10.008L5.03515 7.99715C5.01541 7.93899 4.9871 7.8841 4.95115 7.8343L4.12829 6.71144L4.29458 5.49344L4.78315 6.05915L4.78229 6.06001ZM6.90286 6.49201C6.84377 6.43984 6.77498 6.39982 6.70041 6.37423C6.62585 6.34864 6.54698 6.338 6.4683 6.34289C6.38962 6.34779 6.31268 6.36813 6.24187 6.40276C6.17105 6.43739 6.10775 6.48563 6.05558 6.54473C6.0034 6.60382 5.96338 6.67261 5.9378 6.74718C5.91221 6.82174 5.90156 6.90061 5.90646 6.97929C5.91135 7.05796 5.93169 7.13491 5.96633 7.20572C6.00096 7.27654 6.0492 7.33984 6.10829 7.39201L8.45686 9.46287C8.51579 9.51523 8.5845 9.55539 8.65904 9.58103C8.73358 9.60668 8.81246 9.61729 8.89112 9.61227C8.96979 9.60725 9.04668 9.58669 9.11735 9.55178C9.18802 9.51687 9.25107 9.46829 9.30286 9.40887C9.40785 9.28957 9.46122 9.13348 9.45125 8.97488C9.44129 8.81627 9.36881 8.6681 9.24972 8.56287L6.90115 6.49201H6.90286ZM10.2003 9.60001C9.89001 9.60001 9.60029 9.88973 9.60029 10.2C9.60029 10.5103 9.89001 10.8 10.2003 10.8C10.5097 10.8 10.8003 10.5103 10.8003 10.2C10.8003 9.88973 10.5097 9.60001 10.2003 9.60001Z" fill="#1A1C1F"/>
</g>
<defs>
<clipPath id="clip0_231_5">
<rect width="12" height="12" fill="white"/>
</clipPath>
</defs>
</svg>
