<svg width="14" height="14" viewBox="0 0 14 14" fill="none" xmlns="http://www.w3.org/2000/svg">
<g clip-path="url(#clip0_177_3493)">
<path fill-rule="evenodd" clip-rule="evenodd" d="M4.65734 3.50002C4.79523 3.50002 4.93177 3.47287 5.05916 3.4201C5.18655 3.36733 5.3023 3.28999 5.3998 3.19249C5.4973 3.09499 5.57465 2.97923 5.62741 2.85184C5.68018 2.72445 5.70734 2.58791 5.70734 2.45002C5.70734 2.31214 5.68018 2.1756 5.62741 2.04821C5.57465 1.92082 5.4973 1.80506 5.3998 1.70756C5.3023 1.61006 5.18655 1.53272 5.05916 1.47995C4.93177 1.42718 4.79523 1.40002 4.65734 1.40002C4.37886 1.40002 4.11179 1.51065 3.91488 1.70756C3.71797 1.90448 3.60734 2.17155 3.60734 2.45002C3.60734 2.7285 3.71797 2.99557 3.91488 3.19249C4.11179 3.3894 4.37886 3.50002 4.65734 3.50002ZM5.57934 7.07002C5.63942 7.13963 5.71262 7.19671 5.79476 7.23802C5.8769 7.27933 5.96638 7.30406 6.05808 7.31079C6.14977 7.31752 6.2419 7.30613 6.32919 7.27726C6.41649 7.24839 6.49724 7.2026 6.56684 7.14252C6.63644 7.08244 6.69353 7.00924 6.73484 6.9271C6.77615 6.84496 6.80088 6.75549 6.80761 6.66379C6.81434 6.57209 6.80295 6.47997 6.77407 6.39267C6.7452 6.30538 6.69942 6.22463 6.63934 6.15502L5.09234 4.36202C5.04742 4.29695 4.9916 4.24011 4.92734 4.19402C4.82126 4.12063 4.69702 4.07788 4.56824 4.07048C4.43946 4.06307 4.31113 4.09128 4.19734 4.15202L2.24634 5.19702C2.08311 5.28437 1.96119 5.4329 1.90734 5.61002L1.43034 7.17002C1.40342 7.25794 1.39408 7.35031 1.40285 7.44184C1.41163 7.53337 1.43834 7.62227 1.48148 7.70348C1.52461 7.78468 1.58331 7.85659 1.65424 7.91511C1.72516 7.97363 1.80692 8.0176 1.89484 8.04452C1.98276 8.07145 2.07512 8.08079 2.16665 8.07201C2.25818 8.06324 2.34709 8.03652 2.42829 7.99339C2.5095 7.95026 2.58141 7.89155 2.63993 7.82063C2.69845 7.7497 2.74242 7.66794 2.76934 7.58002L3.16134 6.29402L3.64734 6.03402L3.40234 7.83202L1.84134 11.634C1.78207 11.8034 1.79002 11.9891 1.86356 12.1528C1.9371 12.3165 2.07062 12.4458 2.23662 12.514C2.40263 12.5822 2.58846 12.5841 2.75585 12.5194C2.92323 12.4546 3.05942 12.3282 3.13634 12.166L4.25634 9.43602L4.58234 9.88002L5.33734 12.123C5.40317 12.2904 5.53084 12.4261 5.69392 12.502C5.857 12.5779 6.04302 12.5882 6.21348 12.5308C6.38395 12.4734 6.52582 12.3526 6.60974 12.1935C6.69366 12.0344 6.71321 11.8491 6.66434 11.676L5.87434 9.33002C5.85131 9.26217 5.81828 9.19813 5.77634 9.14002L4.81634 7.83002L5.01034 6.40902L5.58034 7.06902L5.57934 7.07002ZM8.05334 7.57402C7.9844 7.51316 7.90414 7.46646 7.81715 7.43661C7.73016 7.40676 7.63814 7.39434 7.54635 7.40005C7.45456 7.40576 7.3648 7.42949 7.28218 7.4699C7.19956 7.5103 7.12571 7.56658 7.06484 7.63552C7.00397 7.70447 6.95728 7.78473 6.92743 7.87172C6.89758 7.9587 6.88515 8.05072 6.89087 8.14251C6.89658 8.2343 6.92031 8.32407 6.96071 8.40669C7.00112 8.48931 7.0574 8.56316 7.12634 8.62402L9.86634 11.04C9.93508 11.1011 10.0153 11.148 10.1022 11.1779C10.1892 11.2078 10.2812 11.2202 10.373 11.2143C10.4648 11.2085 10.5545 11.1845 10.6369 11.1438C10.7194 11.103 10.7929 11.0464 10.8533 10.977C10.9758 10.8378 11.0381 10.6557 11.0265 10.4707C11.0148 10.2857 10.9303 10.1128 10.7913 9.99002L8.05134 7.57402H8.05334ZM11.9003 11.2C11.5383 11.2 11.2003 11.538 11.2003 11.9C11.2003 12.262 11.5383 12.6 11.9003 12.6C12.2613 12.6 12.6003 12.262 12.6003 11.9C12.6003 11.538 12.2613 11.2 11.9003 11.2Z" fill="#1A1C1F"/>
</g>
<defs>
<clipPath id="clip0_177_3493">
<rect width="14" height="14" fill="white"/>
</clipPath>
</defs>
</svg>
