<svg width="12" height="12" viewBox="0 0 12 12" fill="none" xmlns="http://www.w3.org/2000/svg">
<g clip-path="url(#clip0_231_2)">
<path fill-rule="evenodd" clip-rule="evenodd" d="M5.65089 2.99934C6.16775 2.99934 6.5509 2.57848 6.5509 2.09934C6.5509 1.60134 6.16775 1.19934 5.65089 1.19934C5.17175 1.19934 4.7509 1.60134 4.7509 2.09934C4.7509 2.57848 5.17175 2.99934 5.65089 2.99934ZM4.63689 3.60877L4.69947 3.61048C4.73375 3.61048 4.76804 3.60791 4.80318 3.61477C4.84775 3.62334 4.8889 3.64391 4.92918 3.66277C4.9549 3.67391 4.98318 3.67648 5.00718 3.69191L6.29547 4.50448C6.3621 4.54658 6.4198 4.60139 6.46525 4.66579C6.5107 4.73018 6.54303 4.8029 6.56038 4.87978C6.57773 4.95667 6.57977 5.03622 6.56638 5.1139C6.55298 5.19157 6.52442 5.26585 6.48232 5.33248C6.44023 5.39912 6.38541 5.45681 6.32102 5.50227C6.25663 5.54772 6.18391 5.58005 6.10702 5.5974C6.03014 5.61475 5.95058 5.61679 5.87291 5.60339C5.79524 5.59 5.72096 5.56144 5.65432 5.51934L4.72347 4.9322C4.32918 5.33077 4.28804 5.83048 4.29147 6.0482L5.58918 8.04791C5.65149 8.1442 5.68481 8.25637 5.68518 8.37106L5.69889 10.1968C5.6994 10.2756 5.68438 10.3537 5.6547 10.4267C5.62501 10.4997 5.58124 10.5661 5.52589 10.6222C5.47053 10.6782 5.40467 10.7229 5.33207 10.7535C5.25947 10.7841 5.18155 10.8001 5.10275 10.8006C5.02396 10.8011 4.94584 10.7861 4.87285 10.7564C4.79986 10.7267 4.73343 10.683 4.67736 10.6276C4.62129 10.5723 4.57666 10.5064 4.54604 10.4338C4.51542 10.3612 4.4994 10.2833 4.4989 10.2045L4.4869 8.55363L4.01547 7.82763L3.88861 8.50906C3.88352 8.53605 3.87665 8.56268 3.86804 8.58877L3.26804 10.3888C3.2166 10.5383 3.10819 10.6616 2.96637 10.7316C2.82456 10.8017 2.66082 10.8129 2.51078 10.7628C2.36074 10.7128 2.23653 10.6055 2.16517 10.4643C2.09382 10.3232 2.08109 10.1596 2.12975 10.0091L2.71775 8.24763L3.09832 6.2102C3.07432 5.81934 3.09575 4.49934 4.34118 3.70906L4.37204 3.68763C4.39947 3.67048 4.43204 3.66705 4.46118 3.65506C4.4989 3.63963 4.53404 3.62077 4.57432 3.6122L4.63689 3.60877ZM6.89889 9.59934C7.05802 9.59934 7.21064 9.66256 7.32316 9.77508C7.43568 9.8876 7.49889 10.0402 7.49889 10.1993C7.49889 10.3585 7.43568 10.5111 7.32316 10.6236C7.21064 10.7361 7.05802 10.7993 6.89889 10.7993C6.73976 10.7993 6.58715 10.7361 6.47463 10.6236C6.36211 10.5111 6.29889 10.3585 6.29889 10.1993C6.29889 10.0402 6.36211 9.8876 6.47463 9.77508C6.58715 9.66256 6.73976 9.59934 6.89889 9.59934ZM9.29889 9.59934C9.45802 9.59934 9.61064 9.66256 9.72316 9.77508C9.83568 9.8876 9.89889 10.0402 9.89889 10.1993C9.89889 10.3585 9.83568 10.5111 9.72316 10.6236C9.61064 10.7361 9.45802 10.7993 9.29889 10.7993C9.13977 10.7993 8.98715 10.7361 8.87463 10.6236C8.76211 10.5111 8.69889 10.3585 8.69889 10.1993C8.69889 10.0402 8.76211 9.8876 8.87463 9.77508C8.98715 9.66256 9.13977 9.59934 9.29889 9.59934ZM8.03632 5.73105L8.4709 6.59934H9.29975C9.40772 6.59956 9.51364 6.62887 9.60636 6.68418C9.69908 6.73949 9.77519 6.81877 9.82668 6.91367C9.87816 7.00858 9.90312 7.1156 9.89894 7.22348C9.89475 7.33137 9.86158 7.43614 9.8029 7.52677L8.68004 9.24963C8.59215 9.38056 8.45626 9.47163 8.30175 9.50314C8.14724 9.53465 7.98653 9.50407 7.85439 9.41801C7.72226 9.33194 7.62931 9.19732 7.59567 9.04326C7.56202 8.8892 7.59038 8.72808 7.67461 8.59477L8.05775 8.00591L7.67547 7.62363L7.67032 7.61506C7.62722 7.57206 7.59107 7.52261 7.56318 7.46848L6.96318 6.26848C6.89191 6.12618 6.8801 5.96139 6.93033 5.81037C6.98056 5.65935 7.08873 5.53447 7.23104 5.4632C7.37334 5.39193 7.53814 5.38011 7.68916 5.43035C7.84018 5.48058 7.96506 5.58875 8.03632 5.73105Z" fill="#1A1C1F"/>
</g>
<defs>
<clipPath id="clip0_231_2">
<rect width="12" height="12" fill="white"/>
</clipPath>
</defs>
</svg>
