<svg width="14" height="14" viewBox="0 0 14 14" fill="none" xmlns="http://www.w3.org/2000/svg">
<g clip-path="url(#clip0_2849_186)">
<path fill-rule="evenodd" clip-rule="evenodd" d="M4.60449 7.70002C4.60618 7.79479 4.58801 7.88886 4.55115 7.97618C4.5143 8.0635 4.45957 8.14213 4.39049 8.20702C4.06724 8.53143 3.88474 8.97007 3.88249 9.42803C3.88249 10.412 4.69249 11.2 5.65449 11.2C6.11449 11.2 6.56449 11.025 6.91849 10.67C6.97906 10.6086 7.05134 10.56 7.13103 10.527C7.21073 10.494 7.29624 10.4774 7.38249 10.478C7.77649 10.478 8.08249 10.806 8.08249 11.178C8.08249 11.353 8.03849 11.55 7.90749 11.681C7.31749 12.271 6.50749 12.6 5.67649 12.6C4.83538 12.5995 4.02888 12.2651 3.43413 11.6704C2.83938 11.0756 2.50502 10.2691 2.50449 9.42803C2.50449 8.61803 2.83249 7.85402 3.37949 7.21802C3.44302 7.14802 3.52074 7.09237 3.60748 7.05478C3.69421 7.01719 3.78797 6.99852 3.88249 7.00002C3.97589 6.99844 4.0687 7.0153 4.15558 7.04964C4.24246 7.08399 4.3217 7.13514 4.38877 7.20017C4.45585 7.2652 4.50943 7.34283 4.54644 7.4286C4.58346 7.51438 4.60318 7.60661 4.60449 7.70002ZM6.83549 5.42502L7.55749 7.70002H9.08849C9.63549 7.70002 9.96549 7.96202 10.1605 8.44402L11.4505 11.637C11.4792 11.7218 11.4944 11.8105 11.4955 11.9C11.4955 12.294 11.1885 12.6 10.8175 12.6C10.4885 12.6 10.2465 12.382 10.1385 12.119L8.91449 9.10002H6.98849C6.8299 9.10344 6.67474 9.05356 6.54784 8.95839C6.42094 8.86321 6.32962 8.72823 6.28849 8.57502L5.45849 5.77502C5.43259 5.67162 5.43052 5.56369 5.45242 5.45937C5.47432 5.35505 5.51962 5.25707 5.58491 5.17281C5.6502 5.08855 5.73377 5.02021 5.82932 4.97296C5.92486 4.92571 6.02989 4.90077 6.13649 4.90002C6.29382 4.90175 6.44652 4.95357 6.57239 5.04798C6.69827 5.14239 6.78978 5.27446 6.83549 5.42502ZM5.87449 1.40002C6.44349 1.40002 6.92449 1.88102 6.92449 2.45002C6.92449 3.04002 6.44249 3.50002 5.87449 3.50002C5.28449 3.50002 4.82449 3.04002 4.82449 2.45002C4.82449 1.88102 5.28449 1.40002 5.87449 1.40002Z" fill="#1A1C1F"/>
</g>
<defs>
<clipPath id="clip0_2849_186">
<rect width="14" height="14" fill="white"/>
</clipPath>
</defs>
</svg>
