<svg width="16" height="16" viewBox="0 0 16 16" fill="none" xmlns="http://www.w3.org/2000/svg">
<g clip-path="url(#clip0_177_3447)">
<path fill-rule="evenodd" clip-rule="evenodd" d="M7.53611 3.99967C8.22611 3.99967 8.73611 3.43767 8.73611 2.79967C8.73611 2.13567 8.22611 1.59967 7.53611 1.59967C6.89711 1.59967 6.33611 2.13567 6.33611 2.79967C6.33611 3.43767 6.89711 3.99967 7.53611 3.99967ZM6.18411 4.81267L6.26711 4.81367C6.31411 4.81467 6.36011 4.81067 6.40711 4.81967C6.46511 4.83167 6.51911 4.85967 6.57411 4.88367C6.60911 4.89867 6.64511 4.90167 6.67811 4.92367L8.39511 6.00567C8.48402 6.06175 8.56101 6.13478 8.62168 6.22061C8.68236 6.30644 8.72554 6.40338 8.74876 6.50589C8.77197 6.60841 8.77477 6.71449 8.75698 6.81809C8.7392 6.92169 8.70119 7.02077 8.64511 7.10967C8.58904 7.19858 8.516 7.27557 8.43017 7.33624C8.34434 7.39692 8.2474 7.4401 8.14489 7.46332C8.04237 7.48653 7.93629 7.48933 7.83269 7.47154C7.7291 7.45376 7.63002 7.41575 7.54111 7.35967L6.30011 6.57667C5.77311 7.10767 5.71911 7.77467 5.72411 8.06567L7.45411 10.7297C7.53702 10.8578 7.58144 11.007 7.58211 11.1597L7.60011 13.5937C7.6017 13.8058 7.51894 14.01 7.37004 14.1611C7.22114 14.3123 7.01828 14.3981 6.80611 14.3997C6.59394 14.4013 6.38982 14.3185 6.23867 14.1696C6.08751 14.0207 6.0017 13.8178 6.00011 13.6057L5.98411 11.4057L5.35611 10.4377L5.18611 11.3477C5.17945 11.3836 5.17043 11.419 5.15911 11.4537L4.35911 13.8537C4.29188 14.055 4.14743 14.2213 3.95755 14.3161C3.76767 14.4109 3.54791 14.4264 3.34661 14.3592C3.14531 14.2919 2.97897 14.1475 2.88417 13.9576C2.78937 13.7677 2.77388 13.548 2.84111 13.3467L3.62511 10.9997L4.13311 8.28267C4.10111 7.76267 4.12911 6.00267 5.79011 4.94767C5.79326 4.94629 5.79628 4.94462 5.79911 4.94267L5.83111 4.91967C5.86811 4.89667 5.91111 4.89167 5.94911 4.87567C5.99911 4.85567 6.04711 4.83067 6.10111 4.81967L6.18411 4.81267ZM9.20011 12.7997C9.41228 12.7997 9.61577 12.884 9.7658 13.034C9.91583 13.184 10.0001 13.3875 10.0001 13.5997C10.0001 13.8118 9.91583 14.0153 9.7658 14.1654C9.61577 14.3154 9.41228 14.3997 9.20011 14.3997C8.98794 14.3997 8.78446 14.3154 8.63443 14.1654C8.4844 14.0153 8.40011 13.8118 8.40011 13.5997C8.40011 13.3875 8.4844 13.184 8.63443 13.034C8.78446 12.884 8.98794 12.7997 9.20011 12.7997ZM12.4001 12.7997C12.6123 12.7997 12.8158 12.884 12.9658 13.034C13.1158 13.184 13.2001 13.3875 13.2001 13.5997C13.2001 13.8118 13.1158 14.0153 12.9658 14.1654C12.8158 14.3154 12.6123 14.3997 12.4001 14.3997C12.1879 14.3997 11.9845 14.3154 11.8344 14.1654C11.6844 14.0153 11.6001 13.8118 11.6001 13.5997C11.6001 13.3875 11.6844 13.184 11.8344 13.034C11.9845 12.884 12.1879 12.7997 12.4001 12.7997ZM10.7161 7.64167L11.2951 8.79967H12.4001C12.5441 8.80002 12.6853 8.83917 12.8089 8.91299C12.9325 8.98681 13.0339 9.09259 13.1025 9.21918C13.1711 9.34578 13.2042 9.48851 13.1985 9.63237C13.1928 9.77623 13.1485 9.9159 13.0701 10.0367L11.5741 12.3337C11.4568 12.5081 11.2755 12.6293 11.0695 12.6711C10.8635 12.7129 10.6494 12.672 10.4733 12.5572C10.2973 12.4423 10.1735 12.2628 10.1287 12.0575C10.084 11.8521 10.1218 11.6373 10.2341 11.4597L10.7441 10.6747L10.2341 10.1647C10.2321 10.1617 10.2311 10.1577 10.2281 10.1547C10.1701 10.0969 10.1215 10.0305 10.0841 9.95767L9.28411 8.35767C9.18916 8.16778 9.17354 7.94794 9.24068 7.74653C9.30782 7.54511 9.45222 7.37862 9.64211 7.28367C9.83201 7.18872 10.0518 7.1731 10.2533 7.24024C10.4547 7.30738 10.6212 7.45178 10.7161 7.64167Z" fill="#1A1C1F"/>
</g>
<defs>
<clipPath id="clip0_177_3447">
<rect width="16" height="16" fill="white"/>
</clipPath>
</defs>
</svg>
