<svg width="20" height="20" viewBox="0 0 20 20" fill="none" xmlns="http://www.w3.org/2000/svg">
<g clip-path="url(#clip0_177_3444)">
<path fill-rule="evenodd" clip-rule="evenodd" d="M9.41187 5C10.2739 5 10.9119 4.298 10.9119 3.5C10.9119 2.67 10.2739 2 9.41187 2C8.61387 2 7.91187 2.67 7.91187 3.5C7.91187 4.298 8.61387 5 9.41187 5ZM7.72187 6.016L7.82587 6.018C7.88487 6.019 7.94187 6.014 7.99987 6.025C8.07387 6.04 8.13987 6.074 8.20987 6.105C8.25287 6.124 8.29887 6.128 8.33987 6.154L10.4859 7.508C10.7102 7.64963 10.8692 7.87458 10.9277 8.13338C10.9862 8.39218 10.9395 8.66363 10.7979 8.888C10.7277 8.9991 10.6364 9.0953 10.5291 9.1711C10.4218 9.24691 10.3006 9.30084 10.1725 9.32981C9.91369 9.38832 9.64224 9.34163 9.41787 9.2L7.86687 8.221C7.20887 8.885 7.14087 9.719 7.14687 10.082L9.30887 13.413C9.41287 13.573 9.46887 13.76 9.46887 13.951L9.49187 16.993C9.49372 17.2582 9.39015 17.5133 9.20392 17.7022C9.0177 17.891 8.76408 17.9981 8.49887 18C8.23365 18.0019 7.97856 17.8983 7.78971 17.7121C7.60086 17.5258 7.49373 17.2722 7.49187 17.007L7.47187 14.258L6.68687 13.048L6.47487 14.184C6.46687 14.229 6.45487 14.273 6.44087 14.317L5.44087 17.317C5.3481 17.5571 5.1664 17.7523 4.93352 17.8619C4.70063 17.9715 4.43446 17.9873 4.19029 17.9058C3.94612 17.8243 3.74272 17.6519 3.62234 17.4244C3.50197 17.1969 3.47386 16.9317 3.54387 16.684L4.52287 13.749L5.15787 10.353C5.11787 9.702 5.15387 7.502 7.22987 6.184L7.23987 6.177L7.27987 6.149C7.29529 6.13953 7.31173 6.13182 7.32887 6.126L7.42887 6.094C7.49187 6.068 7.55087 6.037 7.61787 6.024L7.72187 6.016ZM11.4939 16C11.7591 16 12.0134 16.1054 12.201 16.2929C12.3885 16.4804 12.4939 16.7348 12.4939 17C12.4939 17.2652 12.3885 17.5196 12.201 17.7071C12.0134 17.8946 11.7591 18 11.4939 18C11.2287 18 10.9743 17.8946 10.7868 17.7071C10.5992 17.5196 10.4939 17.2652 10.4939 17C10.4939 16.7348 10.5992 16.4804 10.7868 16.2929C10.9743 16.1054 11.2287 16 11.4939 16ZM15.4939 16C15.7591 16 16.0134 16.1054 16.201 16.2929C16.3885 16.4804 16.4939 16.7348 16.4939 17C16.4939 17.2652 16.3885 17.5196 16.201 17.7071C16.0134 17.8946 15.7591 18 15.4939 18C15.2287 18 14.9743 17.8946 14.7868 17.7071C14.5992 17.5196 14.4939 17.2652 14.4939 17C14.4939 16.7348 14.5992 16.4804 14.7868 16.2929C14.9743 16.1054 15.2287 16 15.4939 16ZM13.3879 9.553L14.1119 11H15.4939C15.6737 11.0006 15.8501 11.0496 16.0045 11.1419C16.1589 11.2342 16.2856 11.3664 16.3713 11.5245C16.457 11.6826 16.4986 11.8609 16.4917 12.0407C16.4847 12.2204 16.4295 12.3949 16.3319 12.546L14.4609 15.417C14.3161 15.6393 14.0889 15.7949 13.8293 15.8496C13.5698 15.9044 13.2991 15.8538 13.0769 15.709C12.8546 15.5642 12.699 15.337 12.6442 15.0775C12.5895 14.8179 12.6401 14.5473 12.7849 14.325L13.4239 13.344L12.7869 12.707C12.7829 12.703 12.7819 12.698 12.7769 12.694C12.7051 12.6218 12.645 12.5388 12.5989 12.448L11.5989 10.448C11.4802 10.2108 11.4606 9.9361 11.5444 9.68442C11.6283 9.43275 11.8086 9.22468 12.0459 9.106C12.2831 8.98732 12.5578 8.96773 12.8094 9.05156C13.0611 9.13539 13.2692 9.31576 13.3879 9.553Z" fill="#1A1C1F"/>
</g>
<defs>
<clipPath id="clip0_177_3444">
<rect width="20" height="20" fill="white"/>
</clipPath>
</defs>
</svg>
