<svg width="24" height="24" viewBox="0 0 24 24" fill="none" xmlns="http://www.w3.org/2000/svg">
<g clip-path="url(#clip0_183_3617)">
<path fill-rule="evenodd" clip-rule="evenodd" d="M21.315 5.90987L17.682 4.69687L15.277 2.29287C15.1473 2.16275 14.9841 2.071 14.8055 2.02777C14.6269 1.98453 14.4399 1.99149 14.265 2.04787C14.0899 2.10369 13.9336 2.20682 13.8134 2.34588C13.6932 2.48494 13.6138 2.65452 13.584 2.83587L12.438 9.71587H12.414L4.99199 2.29187C4.89915 2.19903 4.78893 2.12538 4.66762 2.07513C4.54631 2.02489 4.41629 1.99902 4.28499 1.99902C4.15369 1.99902 4.02367 2.02489 3.90237 2.07513C3.78106 2.12538 3.67084 2.19903 3.57799 2.29187C3.48515 2.38472 3.4115 2.49494 3.36125 2.61625C3.31101 2.73755 3.28514 2.86757 3.28514 2.99887C3.28514 3.13017 3.31101 3.26019 3.36125 3.3815C3.4115 3.50281 3.48515 3.61303 3.57799 3.70587L9.58499 9.71387H4.38199C4.27699 9.64487 3.99899 9.25487 3.99899 8.14487C3.99899 7.87966 3.89364 7.6253 3.7061 7.43777C3.51856 7.25023 3.26421 7.14487 2.99899 7.14487C2.73378 7.14487 2.47942 7.25023 2.29189 7.43777C2.10435 7.6253 1.99899 7.87966 1.99899 8.14487C1.99899 10.0959 2.66899 10.9789 3.28499 11.3799V19.0709C3.28552 19.8476 3.59425 20.5924 4.1434 21.1418C4.69255 21.6911 5.43724 22.0001 6.21399 22.0009C6.99074 22.0001 7.73543 21.6911 8.28458 21.1418C8.83373 20.5924 9.14246 19.8476 9.14299 19.0709V17.3509C10.085 17.6309 11.343 17.6309 12.286 17.3509V19.0709C12.2865 19.8476 12.5953 20.5924 13.1444 21.1418C13.6936 21.6911 14.4382 22.0001 15.215 22.0009C15.9917 22.0001 16.7364 21.6911 17.2856 21.1418C17.8347 20.5924 18.1435 19.8476 18.144 19.0709V11.6099C19.843 11.2699 22.001 10.0239 22.001 6.85787C22.0011 6.64801 21.9351 6.44343 21.8123 6.27324C21.6895 6.10305 21.5162 5.9759 21.317 5.90987H21.315ZM8.64099 14.9899C8.48888 14.9027 8.31657 14.8571 8.14127 14.8574C7.96597 14.8577 7.79381 14.9039 7.642 14.9916C7.49018 15.0792 7.36402 15.2052 7.2761 15.3568C7.18819 15.5085 7.1416 15.6806 7.14099 15.8559V19.0699C7.14099 19.3164 7.04315 19.5527 6.86896 19.7271C6.69476 19.9015 6.45847 19.9996 6.21199 19.9999C5.96551 19.9996 5.72922 19.9015 5.55503 19.7271C5.38084 19.5527 5.28299 19.3164 5.28299 19.0699V11.7139H10.997V15.5769C10.902 15.5869 10.806 15.5969 10.711 15.5969C9.71799 15.5969 8.64699 14.9939 8.63899 14.9909H8.64099V14.9899ZM15.213 19.9999C14.9665 19.9996 14.7302 19.9015 14.556 19.7271C14.3818 19.5527 14.284 19.3164 14.284 19.0699V15.8559C14.2843 15.7245 14.2586 15.5943 14.2084 15.4729C14.1582 15.3514 14.0846 15.2411 13.9917 15.1482C13.8988 15.0553 13.7884 14.9816 13.667 14.9315C13.5455 14.8813 13.4154 14.8556 13.284 14.8559C13.1869 14.8572 13.0906 14.8727 12.998 14.9019V12.3319L16.141 13.9029V19.0699C16.141 19.3164 16.0431 19.5527 15.869 19.7271C15.6948 19.9015 15.4595 19.9996 15.213 19.9999ZM17.142 9.71287C16.8768 9.71287 16.6224 9.81823 16.4349 10.0058C16.2474 10.1933 16.142 10.4477 16.142 10.7129V11.6669L14.293 10.7429L15.237 5.07987L16.435 6.27687C16.5449 6.38645 16.6787 6.46896 16.826 6.51787L19.938 7.55587C19.563 9.57187 17.569 9.70687 17.142 9.71187V9.71287Z" fill="#1A1C1F"/>
</g>
<defs>
<clipPath id="clip0_183_3617">
<rect width="24" height="24" fill="white"/>
</clipPath>
</defs>
</svg>
