<svg id="icon" height="32" viewBox="0 0 32 32" width="32" xmlns="http://www.w3.org/2000/svg"><path d="M4.586 3.038 C 3.458 3.186,2.526 3.970,2.146 5.089 L 2.000 5.520 2.000 8.000 L 2.000 10.480 2.146 10.910 C 2.226 11.146,2.388 11.477,2.506 11.646 C 2.749 11.992,2.761 12.053,2.617 12.183 C 2.476 12.311,2.159 12.979,2.072 13.333 C 2.017 13.558,2.000 14.192,2.001 16.053 L 2.001 18.480 2.146 18.910 C 2.226 19.146,2.388 19.477,2.506 19.646 C 2.749 19.992,2.761 20.053,2.617 20.183 C 2.476 20.311,2.159 20.979,2.072 21.333 C 1.968 21.758,1.968 26.245,2.073 26.667 C 2.179 27.091,2.420 27.576,2.694 27.912 C 2.989 28.274,3.621 28.704,4.096 28.865 L 4.453 28.987 15.827 29.001 C 28.294 29.016,27.587 29.033,28.288 28.703 C 29.012 28.362,29.585 27.706,29.853 26.911 L 29.999 26.480 30.000 24.000 L 30.000 21.520 29.870 21.122 C 29.798 20.903,29.636 20.570,29.510 20.382 C 29.383 20.193,29.280 20.019,29.280 19.995 C 29.280 19.971,29.376 19.814,29.494 19.646 C 29.612 19.477,29.773 19.146,29.852 18.910 L 29.995 18.480 30.015 16.299 C 30.041 13.495,29.990 13.099,29.508 12.380 C 29.383 12.192,29.280 12.019,29.280 11.995 C 29.280 11.971,29.376 11.814,29.494 11.646 C 29.612 11.477,29.774 11.146,29.854 10.910 L 29.999 10.480 30.000 8.053 C 30.000 5.421,29.992 5.334,29.699 4.710 C 29.371 4.011,28.669 3.394,27.904 3.135 L 27.547 3.013 16.213 3.006 C 9.980 3.003,4.748 3.017,4.586 3.038 M27.453 5.126 C 27.594 5.195,27.744 5.326,27.830 5.456 L 27.973 5.672 27.973 8.000 L 27.973 10.328 27.830 10.544 C 27.744 10.674,27.594 10.805,27.453 10.874 L 27.220 10.987 15.992 10.987 L 4.763 10.987 4.529 10.863 C 4.353 10.770,4.258 10.668,4.145 10.453 L 3.996 10.166 4.011 7.923 L 4.027 5.680 4.158 5.493 C 4.230 5.391,4.326 5.275,4.371 5.237 C 4.641 5.009,4.164 5.018,15.996 5.015 L 27.220 5.013 27.453 5.126 M6.792 7.038 C 6.129 7.195,5.812 7.918,6.152 8.497 C 6.311 8.770,6.463 8.881,6.793 8.969 C 7.226 9.085,7.700 8.843,7.900 8.402 C 8.234 7.667,7.573 6.852,6.792 7.038 M20.675 7.063 C 20.290 7.203,20.002 7.604,20.002 8.000 C 20.002 8.412,20.331 8.843,20.736 8.962 C 20.868 9.000,21.652 9.014,23.093 9.003 C 25.164 8.987,25.262 8.982,25.467 8.875 C 25.596 8.807,25.740 8.667,25.833 8.518 C 26.132 8.036,25.984 7.443,25.494 7.155 L 25.253 7.013 23.067 7.001 C 21.304 6.991,20.840 7.003,20.675 7.063 M27.450 13.117 C 27.590 13.181,27.729 13.302,27.823 13.445 L 27.973 13.672 27.973 16.001 L 27.973 18.329 27.821 18.549 C 27.734 18.675,27.571 18.816,27.444 18.878 C 27.221 18.986,27.175 18.987,16.000 18.987 C 4.825 18.987,4.779 18.986,4.556 18.878 C 4.429 18.816,4.266 18.675,4.179 18.549 L 4.027 18.329 4.027 16.001 L 4.027 13.672 4.169 13.457 C 4.252 13.331,4.407 13.195,4.542 13.128 L 4.773 13.013 16.000 13.015 C 26.914 13.016,27.233 13.019,27.450 13.117 M6.792 15.038 C 6.129 15.195,5.812 15.918,6.152 16.497 C 6.311 16.770,6.463 16.881,6.793 16.969 C 7.226 17.085,7.700 16.843,7.900 16.402 C 8.234 15.667,7.573 14.852,6.792 15.038 M20.675 15.063 C 20.290 15.203,20.002 15.604,20.002 16.000 C 20.002 16.412,20.331 16.843,20.736 16.962 C 20.868 17.000,21.652 17.014,23.093 17.003 C 25.164 16.987,25.262 16.982,25.467 16.875 C 25.596 16.807,25.740 16.667,25.833 16.518 C 26.132 16.036,25.984 15.443,25.494 15.155 L 25.253 15.013 23.067 15.001 C 21.304 14.991,20.840 15.003,20.675 15.063 M27.453 21.126 C 27.594 21.195,27.744 21.326,27.830 21.456 L 27.973 21.672 27.973 24.000 L 27.973 26.328 27.830 26.544 C 27.744 26.674,27.594 26.805,27.453 26.874 L 27.220 26.987 15.981 26.987 C 4.811 26.987,4.741 26.986,4.531 26.879 C 4.415 26.820,4.254 26.671,4.173 26.549 L 4.027 26.328 4.027 24.000 L 4.027 21.672 4.169 21.457 C 4.252 21.331,4.407 21.195,4.542 21.128 L 4.773 21.013 15.996 21.013 L 27.220 21.013 27.453 21.126 M6.792 23.038 C 6.129 23.195,5.812 23.918,6.152 24.497 C 6.311 24.770,6.463 24.881,6.793 24.969 C 7.226 25.085,7.700 24.843,7.900 24.402 C 8.234 23.667,7.573 22.852,6.792 23.038 M20.675 23.063 C 20.410 23.159,20.224 23.334,20.101 23.600 C 19.863 24.115,20.107 24.703,20.652 24.931 C 20.820 25.001,21.178 25.013,22.998 25.012 C 25.407 25.011,25.403 25.011,25.745 24.622 C 26.159 24.151,26.037 23.462,25.483 23.145 L 25.253 23.013 23.067 23.001 C 21.304 22.991,20.840 23.003,20.675 23.063 " fill="var(--db-icon-color, currentColor)" stroke="none" fill-rule="evenodd"></path></svg>