<svg id="icon" height="20" viewBox="0 0 20 20" width="20" xmlns="http://www.w3.org/2000/svg"><path d="M4.478 3.049 C 3.341 3.257,2.457 4.055,2.113 5.185 C 2.030 5.455,2.022 5.532,2.022 6.000 C 2.022 6.468,2.030 6.545,2.113 6.815 C 2.217 7.158,2.407 7.539,2.600 7.792 C 2.673 7.889,2.733 7.982,2.733 8.000 C 2.733 8.018,2.673 8.111,2.600 8.208 C 2.407 8.461,2.217 8.842,2.113 9.185 C 2.030 9.455,2.022 9.532,2.022 10.000 C 2.022 10.468,2.030 10.545,2.113 10.815 C 2.217 11.158,2.407 11.539,2.600 11.792 C 2.673 11.889,2.733 11.982,2.733 12.000 C 2.733 12.018,2.673 12.111,2.600 12.208 C 2.407 12.461,2.217 12.842,2.113 13.185 C 2.030 13.455,2.022 13.532,2.022 14.000 C 2.022 14.468,2.030 14.545,2.113 14.815 C 2.424 15.835,3.162 16.574,4.185 16.888 L 4.483 16.979 7.517 17.002 C 13.106 17.045,15.121 17.040,15.446 16.983 C 16.725 16.760,17.677 15.838,17.941 14.567 C 18.115 13.728,17.849 12.681,17.312 12.099 L 17.234 12.014 17.384 11.815 C 17.594 11.536,17.781 11.164,17.887 10.815 C 17.970 10.545,17.978 10.468,17.978 10.000 C 17.978 9.532,17.970 9.455,17.887 9.185 C 17.783 8.842,17.593 8.461,17.400 8.208 C 17.327 8.111,17.267 8.018,17.267 8.000 C 17.267 7.982,17.327 7.889,17.400 7.792 C 17.593 7.539,17.783 7.158,17.887 6.815 C 17.970 6.545,17.978 6.468,17.978 6.000 C 17.978 5.532,17.970 5.455,17.887 5.183 C 17.571 4.144,16.800 3.389,15.750 3.092 L 15.483 3.017 10.100 3.011 C 5.784 3.006,4.669 3.014,4.478 3.049 M15.444 5.112 C 16.217 5.491,16.154 6.630,15.343 6.933 C 15.167 6.999,15.089 7.000,10.000 7.000 C 4.867 7.000,4.835 7.000,4.652 6.931 C 4.546 6.891,4.408 6.804,4.324 6.722 C 3.777 6.191,3.965 5.309,4.678 5.061 C 4.841 5.005,5.126 5.002,10.050 5.009 L 15.250 5.017 15.444 5.112 M15.401 9.092 C 15.640 9.211,15.788 9.353,15.890 9.559 C 16.023 9.831,16.023 10.169,15.890 10.441 C 15.777 10.670,15.586 10.842,15.343 10.933 C 15.167 10.999,15.089 11.000,10.000 11.000 C 4.867 11.000,4.835 11.000,4.652 10.931 C 4.546 10.891,4.408 10.804,4.324 10.722 C 3.777 10.191,3.965 9.309,4.678 9.061 C 4.841 9.005,5.124 9.002,10.050 9.009 L 15.250 9.017 15.401 9.092 M15.424 13.092 C 15.645 13.210,15.789 13.355,15.890 13.561 C 16.023 13.831,16.023 14.170,15.890 14.441 C 15.777 14.670,15.586 14.842,15.343 14.933 C 15.167 14.999,15.089 15.000,10.000 15.000 L 4.836 15.000 4.646 14.929 C 4.421 14.845,4.191 14.630,4.096 14.415 C 3.854 13.869,4.118 13.256,4.678 13.061 C 4.841 13.005,5.125 13.002,10.067 13.009 L 15.283 13.017 15.424 13.092 " fill="var(--db-icon-color, currentColor)" stroke="none" fill-rule="evenodd"></path></svg>