<svg width="12" height="12" viewBox="0 0 12 12" fill="none" xmlns="http://www.w3.org/2000/svg">
<g clip-path="url(#clip0_231_162)">
<path fill-rule="evenodd" clip-rule="evenodd" d="M5.99995 1.20001C8.64583 1.20001 10.8 3.35413 10.8 6.00001C10.8 8.64589 8.64583 10.8 5.99995 10.8C3.35407 10.8 1.19995 8.64589 1.19995 6.00001C1.19995 3.35413 3.35407 1.20001 5.99995 1.20001ZM5.99995 2.40589C4.00969 2.40589 2.40583 4.00975 2.40583 6.00001C2.40583 7.99027 4.00969 9.59413 5.99995 9.59413C7.99021 9.59413 9.59407 7.99027 9.59407 6.00001C9.59407 4.00975 7.99021 2.40589 5.99995 2.40589ZM6.59701 3.60001V5.75413L7.90825 7.06537L7.06531 7.90831L5.40289 6.24589V3.60001H6.59701Z" fill="#1A1C1F"/>
</g>
<defs>
<clipPath id="clip0_231_162">
<rect width="12" height="12" fill="white"/>
</clipPath>
</defs>
</svg>
