<svg width="32" height="32" viewBox="0 0 32 32" fill="none" xmlns="http://www.w3.org/2000/svg">
<g clip-path="url(#clip0_185_668)">
<path fill-rule="evenodd" clip-rule="evenodd" d="M16 2C23.7188 2 30 8.2813 30 16C30 23.7187 23.7188 30 16 30C8.2813 30 2 23.7187 2 16C2 8.2813 8.2813 2 16 2ZM16 4C9.375 4 4 9.375 4 16C4 22.625 9.375 28 16 28C22.625 28 28 22.625 28 16C28 9.375 22.625 4 16 4ZM15 16.125V8C15 7.4375 15.4375 7 16 7C16.5 7 17 7.4375 17 8V15.5938L20.7188 19.2812C20.8985 19.446 20.9849 19.6609 20.9849 19.8917C20.9849 20.339 20.595 21.0225 19.9773 21.0225C19.7217 21.0225 19.4707 20.9082 19.2813 20.7187L15.2813 16.7187C15.125 16.5625 15.0313 16.3437 15 16.125Z" fill="#1A1C1F"/>
</g>
<defs>
<clipPath id="clip0_185_668">
<rect width="32" height="32" fill="white"/>
</clipPath>
</defs>
</svg>
