<svg width="20" height="20" viewBox="0 0 20 20" fill="none" xmlns="http://www.w3.org/2000/svg">
<g clip-path="url(#clip0_185_674)">
<path fill-rule="evenodd" clip-rule="evenodd" d="M10 2C14.4098 2 18 5.5902 18 10C18 14.4098 14.4098 18 10 18C5.5902 18 2 14.4098 2 10C2 5.5902 5.5902 2 10 2ZM10 4.0098C6.6829 4.0098 4.0098 6.6829 4.0098 10C4.0098 13.3171 6.6829 15.9902 10 15.9902C13.3171 15.9902 15.9902 13.3171 15.9902 10C15.9902 6.6829 13.3171 4.0098 10 4.0098ZM10.9951 6V9.5902L13.1805 11.7756L11.7756 13.1805L9.0049 10.4098V6H10.9951Z" fill="#1A1C1F"/>
</g>
<defs>
<clipPath id="clip0_185_674">
<rect width="20" height="20" fill="white"/>
</clipPath>
</defs>
</svg>
