<svg id="db-eco-group-logo" xmlns="http://www.w3.org/2000/svg" viewBox="0 0 885 141">
  <style>
    #db-eco-group-logo { color-scheme: light dark; }

    .logo { fill: light-dark(#ec0016, #fff) }
    .text { fill: light-dark(#000, #fff) }
  </style>
<g transform="translate(0, 0)">
    <path class="logo"  d="M194.14 5.87A19.974 19.974 0 0 0 180 0H20.1c-2.63-.01-5.25.5-7.68 1.5-2.44 1-4.65 2.47-6.52 4.34a20.027 20.027 0 0 0-4.36 6.51A19.883 19.883 0 0 0 0 20.04v100.18c.03 5.32 2.16 10.42 5.92 14.17a20.1 20.1 0 0 0 14.18 5.86H180c5.32-.03 10.41-2.16 14.16-5.95 3.75-3.78 5.85-8.9 5.84-14.23V20.04c0-5.31-2.11-10.41-5.86-14.17Zm-8.73 114.21c.03.73-.09 1.46-.35 2.15s-.65 1.31-1.15 1.85c-.5.53-1.11.96-1.77 1.26-.67.3-1.39.46-2.12.47H20.1c-.74 0-1.47-.15-2.15-.44a5.54 5.54 0 0 1-1.81-1.25c-.51-.53-.91-1.17-1.18-1.86-.26-.69-.39-1.43-.36-2.17V20.04c-.04-.75.08-1.5.34-2.2s.66-1.34 1.17-1.89c.51-.54 1.13-.98 1.82-1.27.69-.3 1.43-.45 2.17-.45H180c.74.02 1.47.18 2.14.48.68.3 1.28.74 1.79 1.28.5.54.89 1.18 1.15 1.88.25.7.36 1.44.33 2.17v100.04Z"></path>
    <path class="logo"  d="M61.17 116.03H27.53v-91.8h33.64c23.7 0 36.8 14.87 36.8 45.48.04 26.57-8.86 46.1-36.8 46.32Zm14.62-44.42c0-18.49-2-32.94-21.8-32.94h-4.46v62.47h7.82c11.66 0 18.44-9.34 18.44-29.53ZM156.01 68c4.59-1.39 8.62-4.22 11.5-8.06 2.88-3.85 4.46-8.51 4.5-13.32 0-1.9-.38-22.36-26.16-22.36h-38.24v91.77h32.4c8.58 0 35.32 0 35.32-25.81 0-6.45-2.64-18.59-19.32-22.22Zm-26.6-29.59h6.92c9.86 0 13.78 3.45 13.78 11.06 0 6.01-4.32 11.1-12 11.1h-8.7V38.41Zm9.02 62.73h-9.02V77.56h9.62c11.42 0 14.22 6.67 14.22 11.8 0 11.78-11.24 11.78-14.82 11.78Z"></path>
    </g>

<path class="text" d="M0 0L0-77.79L54.14-77.79L54.14-62.70L19.58-62.70L19.58-46.65L46.87-46.65L46.87-32.42L19.58-32.42L19.58-15.09L57.03-15.09L55.75 0L0 0Z"  transform="translate(250.0000667580332, 116.00028158657369)"></path>
<path class="text" d="M73.51 1.50Q69.12 1.50 66.29-1.39Q63.45-4.28 63.45-8.67L63.45-8.67Q63.45-12.84 66.34-15.73Q69.23-18.62 73.51-18.62L73.51-18.62Q77.79-18.62 80.68-15.73Q83.57-12.84 83.57-8.56L83.57-8.56Q83.57-4.28 80.73-1.39Q77.90 1.50 73.51 1.50L73.51 1.50Z"  transform="translate(250.0000667580332, 116.00028158657369)"></path>
<path class="text" d="M129.90 1.60Q110.96 1.60 101.22-8.56Q91.48-18.72 91.48-38.31L91.48-38.31L91.48-38.52Q91.48-58.42 101.60-69.02Q111.71-79.61 130.65-79.61L130.65-79.61Q140.49-79.61 149.69-76.50L149.69-76.50L149.69-61.20Q140.49-64.95 131.07-64.95L131.07-64.95Q124.12-64.95 120.05-62.33Q115.99-59.71 114.17-54.03Q112.35-48.36 112.35-38.63L112.35-38.63L112.35-38.31Q112.35-24.93 116.68-18.99Q121.02-13.05 131.18-13.05L131.18-13.05Q140.06-13.05 150.01-16.69L150.01-16.69L150.01-2.57Q145.84-0.54 140.65 0.54Q135.46 1.60 129.90 1.60L129.90 1.60Z"  transform="translate(250.0000667580332, 116.00028158657369)"></path>
<path class="text" d="M167.67 1.50Q163.28 1.50 160.45-1.39Q157.61-4.28 157.61-8.67L157.61-8.67Q157.61-12.84 160.50-15.73Q163.39-18.62 167.67-18.62L167.67-18.62Q171.95-18.62 174.84-15.73Q177.73-12.84 177.73-8.56L177.73-8.56Q177.73-4.28 174.89-1.39Q172.06 1.50 167.67 1.50L167.67 1.50Z"  transform="translate(250.0000667580332, 116.00028158657369)"></path>
<path class="text" d="M223.31 1.60Q211.33 1.60 202.87-3.32Q194.42-8.24 190.03-17.44Q185.65-26.64 185.65-39.27L185.65-39.27L185.65-39.38Q185.65-51.79 190.14-60.88Q194.63-69.98 203.09-74.79Q211.54-79.61 223.31-79.61L223.31-79.61Q235.08-79.61 243.59-74.74Q252.09-69.87 256.53-60.83Q260.97-51.79 260.97-39.27L260.97-39.27L260.97-39.05Q260.97-26.32 256.53-17.23Q252.09-8.13 243.64-3.26Q235.19 1.60 223.31 1.60L223.31 1.60ZM223.31-12.30Q232.51-12.30 236.42-18.67Q240.32-25.04 240.32-39.05L240.32-39.05L240.32-39.38Q240.32-53.18 236.36-59.44Q232.40-65.70 223.31-65.70L223.31-65.70Q214.11-65.70 210.15-59.33Q206.19-52.96 206.19-39.16L206.19-39.16L206.19-38.84Q206.19-24.72 210.25-18.51Q214.32-12.30 223.31-12.30L223.31-12.30Z"  transform="translate(250.0000667580332, 116.00028158657369)"></path>
<path class="text" d="M278.95 1.50Q274.56 1.50 271.73-1.39Q268.89-4.28 268.89-8.67L268.89-8.67Q268.89-12.84 271.78-15.73Q274.67-18.62 278.95-18.62L278.95-18.62Q283.23-18.62 286.12-15.73Q289.01-12.84 289.01-8.56L289.01-8.56Q289.01-4.28 286.17-1.39Q283.34 1.50 278.95 1.50L278.95 1.50Z"  transform="translate(250.0000667580332, 116.00028158657369)"></path>
<path class="text" d="M41.30 1.60Q20.33 1.60 10.16-8.13Q0-17.87 0-38.20L0-38.20L0-38.41Q0-58.74 10.75-69.18Q21.51-79.61 42.16-79.61L42.16-79.61Q48.26-79.61 53.39-78.81Q58.53-78.00 64.41-76.18L64.41-76.18L64.41-60.88Q53.50-64.95 42.91-64.95L42.91-64.95Q34.24-64.95 29.37-62.06Q24.50-59.17 22.52-53.45Q20.54-47.72 20.54-38.41L20.54-38.41L20.54-37.98Q20.54-28.89 22.52-23.38Q24.50-17.87 29.16-15.19Q33.81-12.52 41.84-12.52L41.84-12.52Q45.80-12.52 50.72-13.48L50.72-13.48L50.72-27.50L38.09-27.50L38.09-41.73L68.91-41.73L68.91-3.64Q61.85-0.96 55.21 0.32Q48.58 1.60 41.30 1.60L41.30 1.60Z"  transform="translate(577.5270667580332, 116.00028158657369)"></path>
<path class="text" d="M78.97-55.21Q89.34-55.53 92.77-58.74L92.77-58.74L96.94-58.74L96.94-47.72Q101.54-53.18 105.98-55.69Q110.42-58.21 115.35-58.42L115.35-58.42L115.35-42.27Q105.61-41.62 96.94-39.16L96.94-39.16L96.94 0L78.97 0L78.97-55.21Z"  transform="translate(577.5270667580332, 116.00028158657369)"></path>
<path class="text" d="M148.73 1.71Q134.71 1.71 127.22-6.05Q119.73-13.80 119.73-28.57L119.73-28.57L119.73-28.89Q119.73-43.34 127.28-51.15Q134.82-58.96 148.73-58.96L148.73-58.96Q162.75-58.96 170.24-51.09Q177.73-43.23 177.73-28.68L177.73-28.68L177.73-28.25Q177.73-13.80 170.18-6.05Q162.64 1.71 148.73 1.71L148.73 1.71ZM148.84-10.70Q154.83-10.70 156.92-15.03Q159.00-19.37 159.00-28.46L159.00-28.46L159.00-28.68Q159.00-37.77 156.86-42.10Q154.72-46.44 148.84-46.44L148.84-46.44Q142.63-46.44 140.54-42.21Q138.46-37.98 138.46-28.68L138.46-28.68L138.46-28.46Q138.46-18.94 140.54-14.82Q142.63-10.70 148.84-10.70L148.84-10.70Z"  transform="translate(577.5270667580332, 116.00028158657369)"></path>
<path class="text" d="M202.12 1.71Q194.42 1.71 190.25-3.26Q186.07-8.24 186.07-17.23L186.07-17.23L186.07-56.07L203.94-57.57L203.94-21.72Q203.94-16.91 205.33-14.87Q206.72-12.84 210.79-12.84L210.79-12.84Q213.25-12.84 215.44-13.59Q217.64-14.34 220.53-16.16L220.53-16.16L220.53-56.07L238.40-57.57L238.40 0L224.27 0L221.49-8.56Q216.67-3.00 212.18-0.64Q207.69 1.71 202.12 1.71L202.12 1.71Z"  transform="translate(577.5270667580332, 116.00028158657369)"></path>
<path class="text" d="M249.84-55.21Q260.22-55.53 263.65-58.74L263.65-58.74L267.82-58.74L267.82-49.22Q272.42-54.25 276.81-56.39Q281.20-58.53 286.44-58.53L286.44-58.53Q296.28-58.53 301.58-50.88Q306.88-43.23 306.88-28.68L306.88-28.68L306.88-28.46Q306.88-14.02 301.04-6.15Q295.21 1.71 284.51 1.71L284.51 1.71Q275.63 1.71 267.82-5.24L267.82-5.24L267.82 21.61L249.84 21.61L249.84-55.21ZM277.88-11.66Q283.98-11.66 286.12-16.10Q288.26-20.54 288.26-29.21L288.26-29.21L288.26-29.53Q288.26-38.09 286.01-41.62Q283.76-45.15 278.41-45.15L278.41-45.15Q275.63-45.15 273.38-44.35Q271.14-43.55 267.82-41.30L267.82-41.30L267.82-15.09Q270.50-13.27 272.80-12.47Q275.10-11.66 277.88-11.66L277.88-11.66Z"  transform="translate(577.5270667580332, 116.00028158657369)"></path>

</svg>
