<svg id="db-systel-logo" xmlns="http://www.w3.org/2000/svg" viewBox="0 0 544 141">
  <style>
    #db-systel-logo { color-scheme: light dark; }

    .logo { fill: light-dark(#ec0016, #fff) }
    .text { fill: light-dark(#000, #fff) }
  </style>
<g transform="translate(0, 0)">
    <path class="logo"  d="M194.14 5.87A19.974 19.974 0 0 0 180 0H20.1c-2.63-.01-5.25.5-7.68 1.5-2.44 1-4.65 2.47-6.52 4.34a20.027 20.027 0 0 0-4.36 6.51A19.883 19.883 0 0 0 0 20.04v100.18c.03 5.32 2.16 10.42 5.92 14.17a20.1 20.1 0 0 0 14.18 5.86H180c5.32-.03 10.41-2.16 14.16-5.95 3.75-3.78 5.85-8.9 5.84-14.23V20.04c0-5.31-2.11-10.41-5.86-14.17Zm-8.73 114.21c.03.73-.09 1.46-.35 2.15s-.65 1.31-1.15 1.85c-.5.53-1.11.96-1.77 1.26-.67.3-1.39.46-2.12.47H20.1c-.74 0-1.47-.15-2.15-.44a5.54 5.54 0 0 1-1.81-1.25c-.51-.53-.91-1.17-1.18-1.86-.26-.69-.39-1.43-.36-2.17V20.04c-.04-.75.08-1.5.34-2.2s.66-1.34 1.17-1.89c.51-.54 1.13-.98 1.82-1.27.69-.3 1.43-.45 2.17-.45H180c.74.02 1.47.18 2.14.48.68.3 1.28.74 1.79 1.28.5.54.89 1.18 1.15 1.88.25.7.36 1.44.33 2.17v100.04Z"></path>
    <path class="logo"  d="M61.17 116.03H27.53v-91.8h33.64c23.7 0 36.8 14.87 36.8 45.48.04 26.57-8.86 46.1-36.8 46.32Zm14.62-44.42c0-18.49-2-32.94-21.8-32.94h-4.46v62.47h7.82c11.66 0 18.44-9.34 18.44-29.53ZM156.01 68c4.59-1.39 8.62-4.22 11.5-8.06 2.88-3.85 4.46-8.51 4.5-13.32 0-1.9-.38-22.36-26.16-22.36h-38.24v91.77h32.4c8.58 0 35.32 0 35.32-25.81 0-6.45-2.64-18.59-19.32-22.22Zm-26.6-29.59h6.92c9.86 0 13.78 3.45 13.78 11.06 0 6.01-4.32 11.1-12 11.1h-8.7V38.41Zm9.02 62.73h-9.02V77.56h9.62c11.42 0 14.22 6.67 14.22 11.8 0 11.78-11.24 11.78-14.82 11.78Z"></path>
    </g>

<path class="text" d="M22.68 1.60Q16.26 1.60 10.81 0.48Q5.35-0.64 0-3.10L0-3.10L0-18.40Q5.88-15.41 10.86-14.18Q15.84-12.95 21.29-12.95L21.29-12.95Q34.56-12.95 34.56-21.08L34.56-21.08Q34.56-23.54 33.28-25.14Q31.99-26.75 29.10-28.25Q26.22-29.75 19.90-32.31L19.90-32.31Q9.52-36.38 4.92-41.62Q0.32-46.87 0.32-56.07L0.32-56.07Q0.32-67.30 7.76-73.46Q15.19-79.61 28.78-79.61L28.78-79.61Q34.03-79.61 39.22-78.59Q44.41-77.58 48.47-75.97L48.47-75.97L48.47-60.67Q42.91-63.02 38.57-64.04Q34.24-65.06 29.21-65.06L29.21-65.06Q18.30-65.06 18.30-57.89L18.30-57.89Q18.30-55.43 19.74-53.71Q21.19-52.00 24.34-50.45Q27.50-48.90 34.45-46.22L34.45-46.22Q44.62-42.16 49.01-36.81Q53.39-31.46 53.39-22.68L53.39-22.68Q53.39-10.70 45.64-4.55Q37.88 1.60 22.68 1.60L22.68 1.60Z"  transform="translate(250.0000667580332, 116.00028158657369)"></path>
<path class="text" d="M66.66 21.61L78.32-4.49L56.28-57.03L75.01-57.03L87.31-26.00L99.40-57.03L115.56-57.03L83.46 21.61L66.66 21.61Z"  transform="translate(250.0000667580332, 116.00028158657369)"></path>
<path class="text" d="M138.78 1.71Q127.65 1.71 119.52-1.71L119.52-1.71L119.52-14.66Q128.94-10.70 138.14-10.70L138.14-10.70Q142.84-10.70 144.99-11.88Q147.13-13.05 147.13-15.41L147.13-15.41Q147.13-17.76 144.99-18.99Q142.84-20.22 136.53-21.83L136.53-21.83Q127.44-24.07 123.48-28.36Q119.52-32.63 119.52-40.45L119.52-40.45Q119.52-49.54 125.56-54.25Q131.61-58.96 142.74-58.96L142.74-58.96Q151.62-58.96 160.18-56.17L160.18-56.17L160.18-42.91Q150.66-46.33 142.74-46.33L142.74-46.33Q135.03-46.33 135.03-42.16L135.03-42.16Q135.03-40.45 136.21-39.43Q137.39-38.41 139.37-37.77Q141.35-37.13 147.13-35.52L147.13-35.52Q155.58-33.28 159.43-29.21Q163.28-25.14 163.28-17.98L163.28-17.98Q163.28-8.03 157.24-3.16Q151.19 1.71 138.78 1.71L138.78 1.71Z"  transform="translate(250.0000667580332, 116.00028158657369)"></path>
<path class="text" d="M195.60 1.71Q184.79 1.71 179.92-2.89Q175.05-7.49 175.05-17.66L175.05-17.66L175.05-44.62L167.67-44.62L167.67-57.03L168.85-57.03Q173.02-57.03 175.27-58.64Q177.51-60.24 178.48-63.77L178.48-63.77L180.19-69.98L193.03-69.98L193.03-57.03L206.51-57.03L206.51-44.62L193.03-44.62L193.03-19.37Q193.03-15.09 194.63-13.43Q196.24-11.77 200.30-11.77L200.30-11.77Q202.12-11.77 203.46-12.04Q204.80-12.30 207.69-13.16L207.69-13.16L207.69-0.32Q202.34 1.71 195.60 1.71L195.60 1.71Z"  transform="translate(250.0000667580332, 116.00028158657369)"></path>
<path class="text" d="M243.21 1.71Q227.38 1.71 219.94-5.51Q212.50-12.73 212.50-28.03L212.50-28.03L212.50-28.46Q212.50-43.12 219.99-51.04Q227.48-58.96 241.07-58.96L241.07-58.96Q253.91-58.96 260.44-51.52Q266.97-44.08 266.97-29.64L266.97-29.64L266.97-24.61L231.12-24.61Q231.44-19.47 232.72-16.75Q234.01-14.02 236.95-12.89Q239.89-11.77 245.24-11.77L245.24-11.77Q249.84-11.77 253.75-12.57Q257.66-13.38 263.75-15.52L263.75-15.52L263.75-2.25Q258.30-0.21 253.43 0.75Q248.56 1.71 243.21 1.71L243.21 1.71ZM231.12-34.45L249.10-34.45Q248.67-41.20 246.85-43.92Q245.03-46.65 240.75-46.65L240.75-46.65Q235.94-46.65 233.80-43.87Q231.66-41.09 231.12-34.45L231.12-34.45Z"  transform="translate(250.0000667580332, 116.00028158657369)"></path>
<path class="text" d="M275.63-77.36Q280.77-77.47 284.30-78.38Q287.83-79.29 289.33-80.89L289.33-80.89L293.61-80.89L293.61 0L275.63 0L275.63-77.36Z"  transform="translate(250.0000667580332, 116.00028158657369)"></path>

</svg>
