<svg width="14" height="14" viewBox="0 0 14 14" fill="none" xmlns="http://www.w3.org/2000/svg">
<g clip-path="url(#clip0_2213_4660)">
<path fill-rule="evenodd" clip-rule="evenodd" d="M6.72833 3.06253C5.41723 3.06253 3.95703 3.89553 3.95703 5.44253C3.95703 6.82013 4.89923 7.32413 5.90513 7.64333C6.33563 7.77703 6.58413 7.83793 7.16303 8.00733C7.80423 8.21313 8.28443 8.47493 8.28443 9.04543C8.28443 9.49833 7.70763 9.92323 6.99083 9.92323C5.87783 9.92323 4.68293 9.24703 4.01793 8.23973V9.81473C4.69133 10.4391 5.92403 10.9375 6.99083 10.9375C8.90533 10.9375 10.0428 9.52563 10.0428 8.31253C10.0428 6.97623 9.17343 6.48833 8.20813 6.19853C7.82417 6.09582 7.43915 5.99711 7.05313 5.90243C6.27193 5.70153 5.64403 5.45443 5.64403 4.76423C5.64403 4.33023 6.02903 3.95923 6.70173 3.95923C7.82173 3.95923 8.90253 4.57313 9.57873 5.37043V4.05863C8.77148 3.40906 7.76446 3.05731 6.72833 3.06253Z" fill="#1A1C1F"/>
</g>
<defs>
<clipPath id="clip0_2213_4660">
<rect width="14" height="14" fill="white"/>
</clipPath>
</defs>
</svg>
