<svg width="12" height="12" viewBox="0 0 12 12" fill="none" xmlns="http://www.w3.org/2000/svg">
<g clip-path="url(#clip0_2213_4663)">
<path fill-rule="evenodd" clip-rule="evenodd" d="M5.76712 2.62503C4.64332 2.62503 3.39172 3.33903 3.39172 4.66503C3.39172 5.84583 4.19932 6.27783 5.06152 6.55143C5.43052 6.66603 5.64352 6.71823 6.13972 6.86343C6.68932 7.03983 7.10092 7.26423 7.10092 7.75323C7.10092 8.14143 6.60652 8.50563 5.99212 8.50563C5.03812 8.50563 4.01392 7.92603 3.44392 7.06263V8.41263C4.02112 8.94783 5.07772 9.37503 5.99212 9.37503C7.63312 9.37503 8.60812 8.16483 8.60812 7.12503C8.60812 5.97963 7.86292 5.56143 7.03552 5.31303C6.70641 5.22499 6.3764 5.14038 6.04552 5.05923C5.37592 4.88703 4.83772 4.67523 4.83772 4.08363C4.83772 3.71163 5.16772 3.39363 5.74432 3.39363C6.70432 3.39363 7.63072 3.91983 8.21032 4.60323V3.47883C7.51839 2.92206 6.65523 2.62055 5.76712 2.62503Z" fill="#1A1C1F"/>
</g>
<defs>
<clipPath id="clip0_2213_4663">
<rect width="12" height="12" fill="white"/>
</clipPath>
</defs>
</svg>
