<svg width="12" height="12" viewBox="0 0 12 12" fill="none" xmlns="http://www.w3.org/2000/svg">
<g clip-path="url(#clip0_232_297)">
<path fill-rule="evenodd" clip-rule="evenodd" d="M6.00013 1.2C8.65101 1.2 10.8 3.34908 10.8 6.00011C10.8 8.65096 8.65097 10.8 6.00013 10.8C3.34894 10.8 1.20001 8.65107 1.20001 6.00011C1.20001 3.34897 3.3489 1.2 6.00013 1.2ZM6.00013 2.4C4.01165 2.4 2.40001 4.0117 2.40001 6.00011C2.40001 7.98833 4.01168 9.6 6.00013 9.6C7.98823 9.6 9.60001 7.98821 9.60001 6.00011C9.60001 4.01181 7.98826 2.4 6.00013 2.4ZM5.83466 3.6C6.50093 3.6 7.09783 3.82623 7.57216 4.20702V5.00688C7.1617 4.54889 6.54357 4.14627 5.81861 4.14627C5.40831 4.14627 5.17373 4.3725 5.17373 4.63733C5.17373 5.01856 5.48749 5.17768 5.90032 5.29537L6.51415 5.44961C7.18435 5.62197 7.85456 5.88394 7.85456 6.79961C7.85456 7.53922 7.1617 8.4 5.99466 8.4C5.34444 8.4 4.61028 8.0964 4.20014 7.71577V6.75564C4.58904 7.33497 5.2804 7.78172 5.99466 7.78172C6.43171 7.78172 6.78333 7.52277 6.78333 7.24669C6.78333 6.8804 6.45769 6.72248 6.03524 6.59372L5.51786 6.4479C4.84106 6.25374 4.14547 5.97463 4.14547 5.05102C4.14547 4.1075 5.03529 3.6 5.83466 3.6Z" fill="#1A1C1F"/>
</g>
<defs>
<clipPath id="clip0_232_297">
<rect width="12" height="12" fill="white"/>
</clipPath>
</defs>
</svg>
