<svg id="db-connect-logo" xmlns="http://www.w3.org/2000/svg" viewBox="0 0 661 141">
  <style>
    #db-connect-logo { color-scheme: light dark; }

    .logo { fill: light-dark(#ec0016, #fff) }
    .text { fill: light-dark(#000, #fff) }
  </style>
<g transform="translate(0, 0)">
    <path class="logo"  d="M194.14 5.87A19.974 19.974 0 0 0 180 0H20.1c-2.63-.01-5.25.5-7.68 1.5-2.44 1-4.65 2.47-6.52 4.34a20.027 20.027 0 0 0-4.36 6.51A19.883 19.883 0 0 0 0 20.04v100.18c.03 5.32 2.16 10.42 5.92 14.17a20.1 20.1 0 0 0 14.18 5.86H180c5.32-.03 10.41-2.16 14.16-5.95 3.75-3.78 5.85-8.9 5.84-14.23V20.04c0-5.31-2.11-10.41-5.86-14.17Zm-8.73 114.21c.03.73-.09 1.46-.35 2.15s-.65 1.31-1.15 1.85c-.5.53-1.11.96-1.77 1.26-.67.3-1.39.46-2.12.47H20.1c-.74 0-1.47-.15-2.15-.44a5.54 5.54 0 0 1-1.81-1.25c-.51-.53-.91-1.17-1.18-1.86-.26-.69-.39-1.43-.36-2.17V20.04c-.04-.75.08-1.5.34-2.2s.66-1.34 1.17-1.89c.51-.54 1.13-.98 1.82-1.27.69-.3 1.43-.45 2.17-.45H180c.74.02 1.47.18 2.14.48.68.3 1.28.74 1.79 1.28.5.54.89 1.18 1.15 1.88.25.7.36 1.44.33 2.17v100.04Z"></path>
    <path class="logo"  d="M61.17 116.03H27.53v-91.8h33.64c23.7 0 36.8 14.87 36.8 45.48.04 26.57-8.86 46.1-36.8 46.32Zm14.62-44.42c0-18.49-2-32.94-21.8-32.94h-4.46v62.47h7.82c11.66 0 18.44-9.34 18.44-29.53ZM156.01 68c4.59-1.39 8.62-4.22 11.5-8.06 2.88-3.85 4.46-8.51 4.5-13.32 0-1.9-.38-22.36-26.16-22.36h-38.24v91.77h32.4c8.58 0 35.32 0 35.32-25.81 0-6.45-2.64-18.59-19.32-22.22Zm-26.6-29.59h6.92c9.86 0 13.78 3.45 13.78 11.06 0 6.01-4.32 11.1-12 11.1h-8.7V38.41Zm9.02 62.73h-9.02V77.56h9.62c11.42 0 14.22 6.67 14.22 11.8 0 11.78-11.24 11.78-14.82 11.78Z"></path>
    </g>

<path class="text" d="M38.41 1.60Q19.47 1.60 9.74-8.56Q0-18.72 0-38.31L0-38.31L0-38.52Q0-58.42 10.11-69.02Q20.22-79.61 39.16-79.61L39.16-79.61Q49.01-79.61 58.21-76.50L58.21-76.50L58.21-61.20Q49.01-64.95 39.59-64.95L39.59-64.95Q32.63-64.95 28.57-62.33Q24.50-59.71 22.68-54.03Q20.86-48.36 20.86-38.63L20.86-38.63L20.86-38.31Q20.86-24.93 25.20-18.99Q29.53-13.05 39.70-13.05L39.70-13.05Q48.58-13.05 58.53-16.69L58.53-16.69L58.53-2.57Q54.36-0.54 49.17 0.54Q43.98 1.60 38.41 1.60L38.41 1.60Z"  transform="translate(250.0000667580332, 116.00028158657369)"></path>
<path class="text" d="M93.95 1.71Q79.93 1.71 72.44-6.05Q64.95-13.80 64.95-28.57L64.95-28.57L64.95-28.89Q64.95-43.34 72.49-51.15Q80.04-58.96 93.95-58.96L93.95-58.96Q107.96-58.96 115.45-51.09Q122.94-43.23 122.94-28.68L122.94-28.68L122.94-28.25Q122.94-13.80 115.40-6.05Q107.86 1.71 93.95 1.71L93.95 1.71ZM94.05-10.70Q100.05-10.70 102.13-15.03Q104.22-19.37 104.22-28.46L104.22-28.46L104.22-28.68Q104.22-37.77 102.08-42.10Q99.94-46.44 94.05-46.44L94.05-46.44Q87.85-46.44 85.76-42.21Q83.67-37.98 83.67-28.68L83.67-28.68L83.67-28.46Q83.67-18.94 85.76-14.82Q87.85-10.70 94.05-10.70L94.05-10.70Z"  transform="translate(250.0000667580332, 116.00028158657369)"></path>
<path class="text" d="M131.61-55.21Q141.99-55.53 145.41-58.74L145.41-58.74L149.59-58.74L149.59-48.26Q154.62-53.61 159.32-56.01Q164.03-58.42 169.59-58.42L169.59-58.42Q176.87-58.42 180.94-53.61Q185.00-48.79 185.00-40.23L185.00-40.23L185.00 0L167.03 0L167.03-36.49Q167.03-43.87 160.07-43.87L160.07-43.87Q157.50-43.87 155.31-43.12Q153.12-42.37 149.59-40.45L149.59-40.45L149.59 0L131.61 0L131.61-55.21Z"  transform="translate(250.0000667580332, 116.00028158657369)"></path>
<path class="text" d="M196.02-55.21Q206.40-55.53 209.83-58.74L209.83-58.74L214.00-58.74L214.00-48.26Q219.03-53.61 223.74-56.01Q228.44-58.42 234.01-58.42L234.01-58.42Q241.28-58.42 245.35-53.61Q249.42-48.79 249.42-40.23L249.42-40.23L249.42 0L231.44 0L231.44-36.49Q231.44-43.87 224.49-43.87L224.49-43.87Q221.92-43.87 219.72-43.12Q217.53-42.37 214.00-40.45L214.00-40.45L214.00 0L196.02 0L196.02-55.21Z"  transform="translate(250.0000667580332, 116.00028158657369)"></path>
<path class="text" d="M288.47 1.71Q272.64 1.71 265.20-5.51Q257.76-12.73 257.76-28.03L257.76-28.03L257.76-28.46Q257.76-43.12 265.25-51.04Q272.74-58.96 286.33-58.96L286.33-58.96Q299.17-58.96 305.70-51.52Q312.23-44.08 312.23-29.64L312.23-29.64L312.23-24.61L276.38-24.61Q276.70-19.47 277.99-16.75Q279.27-14.02 282.21-12.89Q285.15-11.77 290.50-11.77L290.50-11.77Q295.11-11.77 299.01-12.57Q302.92-13.38 309.02-15.52L309.02-15.52L309.02-2.25Q303.56-0.21 298.69 0.75Q293.82 1.71 288.47 1.71L288.47 1.71ZM276.38-34.45L294.36-34.45Q293.93-41.20 292.11-43.92Q290.29-46.65 286.01-46.65L286.01-46.65Q281.20-46.65 279.06-43.87Q276.92-41.09 276.38-34.45L276.38-34.45Z"  transform="translate(250.0000667580332, 116.00028158657369)"></path>
<path class="text" d="M347.43 1.71Q332.88 1.71 325.60-5.83Q318.32-13.38 318.32-28.25L318.32-28.25L318.32-28.68Q318.32-58.96 348.07-58.96L348.07-58.96Q356.74-58.96 364.55-56.17L364.55-56.17L364.55-41.84Q356.10-45.48 349.78-45.48L349.78-45.48Q342.93-45.48 339.94-41.78Q336.94-38.09 336.94-28.68L336.94-28.68L336.94-28.25Q336.94-18.94 340.05-15.35Q343.15-11.77 350.10-11.77L350.10-11.77Q353.74-11.77 357.06-12.57Q360.38-13.38 364.98-15.30L364.98-15.30L364.98-2.25Q357.17 1.71 347.43 1.71L347.43 1.71Z"  transform="translate(250.0000667580332, 116.00028158657369)"></path>
<path class="text" d="M397.93 1.71Q387.13 1.71 382.26-2.89Q377.39-7.49 377.39-17.66L377.39-17.66L377.39-44.62L370.01-44.62L370.01-57.03L371.18-57.03Q375.36-57.03 377.60-58.64Q379.85-60.24 380.81-63.77L380.81-63.77L382.52-69.98L395.37-69.98L395.37-57.03L408.85-57.03L408.85-44.62L395.37-44.62L395.37-19.37Q395.37-15.09 396.97-13.43Q398.57-11.77 402.64-11.77L402.64-11.77Q404.46-11.77 405.80-12.04Q407.13-12.30 410.02-13.16L410.02-13.16L410.02-0.32Q404.67 1.71 397.93 1.71L397.93 1.71Z"  transform="translate(250.0000667580332, 116.00028158657369)"></path>

</svg>
