<svg width="12" height="12" viewBox="0 0 12 12" fill="none" xmlns="http://www.w3.org/2000/svg">
<g clip-path="url(#clip0_232_405)">
<path fill-rule="evenodd" clip-rule="evenodd" d="M5.99411 1.20001C8.03261 1.20001 9.39161 2.69854 9.39161 4.93468V7.2761C9.39161 8.02539 9.48533 8.16588 9.91883 8.48197C10.1063 8.61076 10.2 8.79807 10.2 8.98538C10.2 9.26635 9.98993 9.58245 9.66107 9.58245H7.20083V9.59414C7.20083 10.2615 6.66191 10.8 5.99411 10.8C5.37323 10.8 4.78745 10.2615 4.78745 9.58245H2.39747C2.02259 9.58245 1.79999 9.27804 1.79999 8.97369C1.79999 8.80977 1.85855 8.64584 2.01089 8.5288C2.50289 8.2127 2.59667 8.03709 2.59667 7.24096V5.09854C2.59667 2.76881 3.92051 1.20001 5.99411 1.20001ZM6.00587 2.40589C4.68197 2.40589 3.80333 3.33074 3.80333 4.94637V6.94831C3.80333 7.52199 3.76817 7.91999 3.65105 8.40001H8.34893C8.24351 8.01364 8.19665 7.65084 8.19665 6.93662V5.09854C8.19665 3.38926 7.36487 2.40589 6.00587 2.40589Z" fill="#1A1C1F"/>
</g>
<defs>
<clipPath id="clip0_232_405">
<rect width="12" height="12" fill="white"/>
</clipPath>
</defs>
</svg>
