<svg width="14" height="14" viewBox="0 0 14 14" fill="none" xmlns="http://www.w3.org/2000/svg">
<g clip-path="url(#clip0_187_156)">
<path fill-rule="evenodd" clip-rule="evenodd" d="M7.00002 1.39999C10.0844 1.39999 12.6 3.91565 12.6 6.99999C12.6 10.0843 10.0844 12.6 7.00002 12.6C3.91565 12.6 1.40002 10.0843 1.40002 6.99999C1.40002 3.91565 3.91565 1.39999 7.00002 1.39999ZM7.00002 2.79999C4.68127 2.79999 2.80002 4.6812 2.80002 6.99999C2.80002 9.31878 4.68127 11.2 7.00002 11.2C9.31877 11.2 11.2 9.31878 11.2 6.99999C11.2 4.6812 9.31877 2.79999 7.00002 2.79999ZM8.94773 4.96754L9.93115 5.95104L6.21004 9.6721L4.21997 7.72169L5.2026 6.7391L6.19417 7.69929L8.94773 4.96754Z" fill="#1A1C1F"/>
</g>
<defs>
<clipPath id="clip0_187_156">
<rect width="14" height="14" fill="white"/>
</clipPath>
</defs>
</svg>
