<svg width="12" height="12" viewBox="0 0 12 12" fill="none" xmlns="http://www.w3.org/2000/svg">
<g clip-path="url(#clip0_232_409)">
<path fill-rule="evenodd" clip-rule="evenodd" d="M6.00001 1.2C8.64376 1.2 10.8 3.35628 10.8 6C10.8 8.64372 8.64376 10.8 6.00001 10.8C3.35627 10.8 1.20001 8.64372 1.20001 6C1.20001 3.35628 3.35627 1.2 6.00001 1.2ZM6.00001 2.4C4.01251 2.4 2.40001 4.01246 2.40001 6C2.40001 7.98753 4.01251 9.6 6.00001 9.6C7.98751 9.6 9.60001 7.98753 9.60001 6C9.60001 4.01246 7.98751 2.4 6.00001 2.4ZM7.66948 4.2579L8.5124 5.1009L5.32288 8.29038L3.61711 6.6186L4.45936 5.77638L5.30928 6.5994L7.66948 4.2579Z" fill="#1A1C1F"/>
</g>
<defs>
<clipPath id="clip0_232_409">
<rect width="12" height="12" fill="white"/>
</clipPath>
</defs>
</svg>
