<svg width="12" height="12" viewBox="0 0 12 12" fill="none" xmlns="http://www.w3.org/2000/svg">
<g clip-path="url(#clip0_232_411)">
<path fill-rule="evenodd" clip-rule="evenodd" d="M6.00001 1.2C8.64373 1.2 10.8 3.35628 10.8 6C10.8 8.64372 8.64373 10.8 6.00001 10.8C3.35629 10.8 1.20001 8.64372 1.20001 6C1.20001 3.35628 3.35629 1.2 6.00001 1.2ZM6.00001 2.4C4.01251 2.4 2.40001 4.0125 2.40001 6C2.40001 7.9875 4.01251 9.6 6.00001 9.6C7.98751 9.6 9.60001 7.9875 9.60001 6C9.60001 4.0125 7.98751 2.4 6.00001 2.4ZM7.27501 3.9L8.10001 4.74372L6.84373 6L8.10001 7.25628L7.25629 8.1L6.00001 6.84372L4.74373 8.1L3.90001 7.25628L5.15629 6L3.90001 4.74372L4.74373 3.9L6.00001 5.15628L7.27501 3.9Z" fill="#1A1C1F"/>
</g>
<defs>
<clipPath id="clip0_232_411">
<rect width="12" height="12" fill="white"/>
</clipPath>
</defs>
</svg>
