<svg width="16" height="16" viewBox="0 0 16 16" fill="none" xmlns="http://www.w3.org/2000/svg">
<g clip-path="url(#clip0_187_167)">
<path fill-rule="evenodd" clip-rule="evenodd" d="M7.99998 1.6C11.5249 1.6 14.4 4.47504 14.4 8C14.4 11.525 11.5249 14.4 7.99998 14.4C4.47502 14.4 1.59998 11.525 1.59998 8C1.59998 4.47504 4.47502 1.6 7.99998 1.6ZM7.99998 3.2C5.34998 3.2 3.19998 5.35 3.19998 8C3.19998 10.65 5.34998 12.8 7.99998 12.8C10.65 12.8 12.8 10.65 12.8 8C12.8 5.35 10.65 3.2 7.99998 3.2ZM9.69998 5.2L10.8 6.32496L9.12494 8L10.8 9.67504L9.67502 10.8L7.99998 9.12496L6.32494 10.8L5.19998 9.67504L6.87502 8L5.19998 6.32496L6.32494 5.2L7.99998 6.87504L9.69998 5.2Z" fill="#1A1C1F"/>
</g>
<defs>
<clipPath id="clip0_187_167">
<rect width="16" height="16" fill="white"/>
</clipPath>
</defs>
</svg>
