<svg width="24" height="24" viewBox="0 0 24 24" fill="none" xmlns="http://www.w3.org/2000/svg">
<g clip-path="url(#clip0_187_163)">
<path fill-rule="evenodd" clip-rule="evenodd" d="M12 2C17.5312 2 22 6.4688 22 12C22 17.5312 17.5312 22 12 22C6.4688 22 2 17.5312 2 12C2 6.4688 6.4688 2 12 2ZM12 4C7.5938 4 4 7.5938 4 12C4 16.4062 7.5938 20 12 20C16.4062 20 20 16.4062 20 12C20 7.5938 16.4062 4 12 4ZM7.5 15.5C7.5 15.2812 7.5938 15 7.7812 14.8125L10.5938 12L7.7812 9.2188C7.5938 9 7.5 8.7188 7.5 8.5C7.5 7.9375 7.9688 7.5 8.5 7.5C8.7188 7.5 9 7.5938 9.2188 7.7812L12 10.5938L14.7812 7.8125C15 7.5938 15.2812 7.5 15.5625 7.5C16.0312 7.5 16.5 7.8125 16.5 8.5C16.5 8.75 16.375 9.0312 16.1875 9.2188L13.4062 12L16.2188 14.7812C16.4062 14.9688 16.5 15.2812 16.5 15.5C16.5 16.0625 16.0312 16.5 15.5 16.5C15.2812 16.5 15 16.4062 14.7812 16.2188L12 13.4062L9.1875 16.2188C9.0312 16.4062 8.75 16.5 8.5 16.5C7.9375 16.5 7.5 16.0312 7.5 15.5Z" fill="#1A1C1F"/>
</g>
<defs>
<clipPath id="clip0_187_163">
<rect width="24" height="24" fill="white"/>
</clipPath>
</defs>
</svg>
