<svg id="icon" height="20" viewBox="0 0 20 20" width="20" xmlns="http://www.w3.org/2000/svg"><path d="M9.667 2.034 C 9.257 2.104,8.833 2.331,8.521 2.648 C 8.327 2.846,8.257 2.980,5.248 9.008 C 3.557 12.395,2.141 15.260,2.101 15.375 C 2.000 15.667,1.977 16.118,2.048 16.417 C 2.210 17.106,2.737 17.684,3.402 17.902 L 3.650 17.983 10.000 17.983 C 16.116 17.983,16.357 17.981,16.533 17.921 C 17.171 17.704,17.630 17.176,17.785 16.480 C 17.868 16.109,17.839 15.668,17.709 15.317 C 17.586 14.985,11.767 3.114,11.610 2.877 C 11.190 2.240,10.418 1.904,9.667 2.034 M13.008 10.017 L 16.000 16.000 10.000 16.000 L 4.000 16.000 6.992 10.017 C 8.637 6.726,9.991 4.033,10.000 4.033 C 10.009 4.033,11.363 6.726,13.008 10.017 M9.000 10.000 L 9.000 12.000 10.000 12.000 L 11.000 12.000 11.000 10.000 L 11.000 8.000 10.000 8.000 L 9.000 8.000 9.000 10.000 M9.791 13.035 C 9.482 13.111,9.212 13.328,9.088 13.597 C 8.987 13.817,8.989 14.229,9.092 14.424 C 9.365 14.938,9.920 15.140,10.417 14.905 C 10.631 14.804,10.787 14.651,10.908 14.424 C 11.011 14.229,11.013 13.817,10.912 13.600 C 10.723 13.193,10.205 12.932,9.791 13.035 " fill="var(--db-icon-color, currentColor)" stroke="none" fill-rule="evenodd"></path></svg>