<svg id="icon" height="32" viewBox="0 0 32 32" width="32" xmlns="http://www.w3.org/2000/svg"><path d="M15.211 2.107 C 14.578 2.284,13.994 2.664,13.608 3.149 C 13.361 3.460,2.358 24.444,2.179 24.945 C 1.548 26.718,2.630 28.576,4.502 28.934 C 5.122 29.053,27.088 29.052,27.653 28.933 C 28.429 28.770,29.205 28.238,29.564 27.622 C 30.014 26.850,30.119 25.818,29.834 24.978 C 29.746 24.716,18.823 3.774,18.576 3.393 C 18.236 2.867,17.686 2.435,17.040 2.187 C 16.626 2.028,15.644 1.985,15.211 2.107 M16.428 8.547 C 16.690 8.679,16.878 8.920,16.962 9.233 C 16.998 9.367,17.011 11.153,17.002 14.491 C 16.985 20.143,17.015 19.724,16.604 20.037 C 16.429 20.171,16.365 20.187,16.000 20.187 C 15.635 20.187,15.571 20.171,15.396 20.037 C 14.985 19.724,15.015 20.143,14.998 14.491 C 14.989 11.153,15.002 9.367,15.038 9.233 C 15.162 8.773,15.575 8.427,16.000 8.427 C 16.105 8.427,16.298 8.481,16.428 8.547 M16.648 22.379 C 17.330 22.720,17.574 23.570,17.192 24.272 C 16.876 24.853,16.182 25.123,15.551 24.910 C 15.291 24.822,14.905 24.472,14.764 24.196 C 14.167 23.024,15.454 21.782,16.648 22.379 " fill="var(--db-icon-color, currentColor)" stroke="none" fill-rule="evenodd"></path></svg>