<svg id="icon" height="16" viewBox="0 0 16 16" width="16" xmlns="http://www.w3.org/2000/svg"><path d="M7.427 2.028 C 5.984 2.176,4.703 2.801,3.685 3.852 C 2.808 4.757,2.261 5.861,2.060 7.133 C 1.996 7.540,1.996 8.460,2.060 8.867 C 2.262 10.143,2.805 11.237,3.692 12.155 C 4.632 13.127,5.793 13.729,7.133 13.939 C 7.540 14.003,8.460 14.003,8.867 13.939 C 10.207 13.729,11.367 13.128,12.308 12.155 C 13.193 11.241,13.740 10.138,13.939 8.867 C 14.003 8.460,14.003 7.540,13.939 7.133 C 13.729 5.793,13.128 4.633,12.155 3.692 C 11.244 2.810,10.128 2.258,8.867 2.066 C 8.537 2.016,7.749 1.995,7.427 2.028 M8.800 6.800 L 8.800 8.800 8.000 8.800 L 7.200 8.800 7.200 6.800 L 7.200 4.800 8.000 4.800 L 8.800 4.800 8.800 6.800 M8.370 9.869 C 8.797 10.082,8.927 10.618,8.650 11.018 C 8.550 11.162,8.383 11.272,8.186 11.322 C 7.606 11.471,7.071 10.912,7.239 10.334 C 7.275 10.210,7.315 10.148,7.435 10.027 C 7.615 9.847,7.750 9.792,8.016 9.789 C 8.176 9.787,8.230 9.799,8.370 9.869 " fill="var(--db-icon-color, currentColor)" stroke="none" fill-rule="evenodd"></path></svg>