<svg id="icon" height="16" viewBox="0 0 16 16" width="16" xmlns="http://www.w3.org/2000/svg"><path d="M7.687 2.040 C 7.412 2.100,7.184 2.229,6.958 2.453 L 6.756 2.653 4.455 7.238 C 3.189 9.760,2.125 11.901,2.089 11.995 C 1.830 12.684,2.172 13.507,2.853 13.834 C 2.978 13.894,3.151 13.956,3.238 13.971 C 3.462 14.012,12.582 14.011,12.779 13.971 C 13.038 13.918,13.355 13.744,13.548 13.549 C 13.925 13.169,14.073 12.666,13.958 12.160 C 13.915 11.972,13.725 11.582,10.498 5.085 L 9.281 2.636 9.101 2.456 C 8.730 2.086,8.197 1.930,7.687 2.040 M8.800 7.200 L 8.800 9.600 8.000 9.600 L 7.200 9.600 7.200 7.200 L 7.200 4.800 8.000 4.800 L 8.800 4.800 8.800 7.200 M8.332 11.224 C 8.491 11.294,8.658 11.452,8.741 11.612 C 8.801 11.726,8.812 11.781,8.813 11.973 C 8.813 12.241,8.751 12.397,8.572 12.576 C 8.244 12.904,7.647 12.867,7.358 12.501 C 6.981 12.025,7.219 11.321,7.806 11.174 C 7.945 11.139,8.195 11.163,8.332 11.224 " fill="var(--db-icon-color, currentColor)" stroke="none" fill-rule="evenodd"></path></svg>