<svg id="icon" height="20" viewBox="0 0 20 20" width="20" xmlns="http://www.w3.org/2000/svg"><path d="M9.583 2.048 C 9.312 2.111,9.157 2.180,8.890 2.357 C 8.516 2.605,8.403 2.774,7.742 4.071 C 6.323 6.856,2.106 15.331,2.063 15.483 C 2.035 15.584,2.018 15.796,2.020 16.017 C 2.022 16.332,2.036 16.419,2.116 16.633 C 2.351 17.265,2.802 17.694,3.467 17.921 C 3.643 17.981,3.881 17.983,10.000 17.983 C 16.119 17.983,16.357 17.981,16.533 17.921 C 17.258 17.674,17.754 17.152,17.934 16.446 C 18.018 16.120,18.018 15.846,17.933 15.516 C 17.881 15.311,17.210 13.932,14.813 9.103 C 13.121 5.692,11.701 2.872,11.629 2.775 C 11.400 2.469,11.013 2.210,10.600 2.086 C 10.343 2.009,9.832 1.989,9.583 2.048 M11.000 9.000 L 11.000 12.000 10.000 12.000 L 9.000 12.000 9.000 9.000 L 9.000 6.000 10.000 6.000 L 11.000 6.000 11.000 9.000 M10.416 14.029 C 10.614 14.117,10.822 14.315,10.927 14.515 C 11.003 14.659,11.016 14.724,11.016 14.967 C 11.016 15.209,11.003 15.274,10.927 15.417 C 10.822 15.616,10.638 15.798,10.433 15.904 C 10.310 15.968,10.232 15.983,10.000 15.982 C 9.757 15.982,9.692 15.970,9.546 15.893 C 9.310 15.769,9.091 15.516,9.018 15.282 C 8.840 14.717,9.180 14.113,9.757 13.968 C 9.931 13.924,10.244 13.954,10.416 14.029 " fill="var(--db-icon-color, currentColor)" stroke="none" fill-rule="evenodd"></path></svg>