<svg id="icon" height="24" viewBox="0 0 24 24" width="24" xmlns="http://www.w3.org/2000/svg"><path d="M11.601 2.064 C 11.197 2.173,10.836 2.443,10.538 2.861 C 10.339 3.140,2.282 19.100,2.128 19.520 C 1.734 20.597,2.338 21.725,3.432 21.955 C 3.584 21.987,6.010 22.000,12.000 22.000 C 17.990 22.000,20.416 21.987,20.568 21.955 C 21.261 21.810,21.820 21.254,21.962 20.569 C 22.023 20.279,21.989 19.849,21.883 19.545 C 21.788 19.272,13.773 3.282,13.577 2.974 C 13.400 2.696,13.055 2.363,12.801 2.224 C 12.396 2.004,12.015 1.953,11.601 2.064 M12.497 8.136 C 12.702 8.256,12.865 8.451,12.943 8.670 C 13.016 8.875,13.025 14.766,12.953 15.008 C 12.880 15.253,12.635 15.501,12.369 15.602 C 11.803 15.815,11.197 15.504,11.040 14.918 C 11.012 14.816,11.002 13.736,11.009 11.732 C 11.019 8.862,11.024 8.693,11.095 8.560 C 11.303 8.169,11.622 7.991,12.068 8.016 C 12.246 8.026,12.368 8.061,12.497 8.136 M12.427 16.833 C 12.771 17.009,12.965 17.345,12.966 17.766 C 12.968 18.568,12.243 19.046,11.544 18.704 C 11.187 18.529,10.999 18.197,11.001 17.744 C 11.003 17.273,11.272 16.902,11.720 16.755 C 11.879 16.703,12.251 16.744,12.427 16.833 " fill="var(--db-icon-color, currentColor)" stroke="none" fill-rule="evenodd"></path></svg>