<svg id="icon" height="32" viewBox="0 0 32 32" width="32" xmlns="http://www.w3.org/2000/svg"><path d="M15.211 2.107 C 14.578 2.284,13.994 2.664,13.608 3.149 C 13.361 3.460,2.358 24.444,2.179 24.945 C 1.548 26.718,2.630 28.576,4.502 28.934 C 5.122 29.053,27.088 29.052,27.653 28.933 C 28.429 28.770,29.205 28.238,29.564 27.622 C 30.014 26.850,30.119 25.818,29.834 24.978 C 29.746 24.716,18.823 3.774,18.576 3.393 C 18.236 2.867,17.686 2.435,17.040 2.187 C 16.626 2.028,15.644 1.985,15.211 2.107 M16.250 3.897 C 16.438 3.968,16.619 4.133,16.771 4.373 C 17.031 4.782,27.919 25.640,27.967 25.822 C 28.082 26.253,27.698 26.855,27.224 26.987 C 27.031 27.041,24.747 27.050,15.894 27.029 L 4.805 27.003 4.549 26.872 C 4.205 26.695,3.988 26.348,3.988 25.978 C 3.988 25.727,4.322 25.076,9.590 15.056 C 12.671 9.195,15.270 4.307,15.364 4.194 C 15.628 3.878,15.932 3.776,16.250 3.897 M15.533 9.123 C 15.286 9.248,15.144 9.418,15.048 9.701 C 14.966 9.943,14.961 19.185,15.042 19.478 C 15.154 19.880,15.586 20.211,16.000 20.211 C 16.418 20.211,16.849 19.877,16.959 19.469 C 16.997 19.331,17.010 17.679,17.001 14.498 C 16.987 9.934,16.982 9.725,16.885 9.529 C 16.661 9.077,16.008 8.881,15.533 9.123 M15.741 22.248 C 14.873 22.405,14.372 23.348,14.739 24.133 C 14.889 24.454,15.265 24.813,15.551 24.910 C 16.501 25.230,17.475 24.446,17.372 23.445 C 17.288 22.637,16.556 22.100,15.741 22.248 " fill="var(--db-icon-color, currentColor)" stroke="none" fill-rule="evenodd"></path></svg>