<svg width="32" height="32" viewBox="0 0 32 32" fill="none" xmlns="http://www.w3.org/2000/svg">
<g clip-path="url(#clip0_2214_8114)">
<path fill-rule="evenodd" clip-rule="evenodd" d="M16 2.5C17.1316 2.5 18.1699 3.1124 18.71 4.1149L29.6531 25.0476C29.8973 25.5008 30 25.9827 30 26.5C30 28.2348 28.7299 29.5 27 29.5H5.1432C3.4089 29.5 2 28.2308 2 26.5C2 25.9827 2.1027 25.5008 2.3469 25.0476L13.2898 4.1149C13.83 3.1123 14.8684 2.5 16 2.5ZM16 22.7055C15.2564 22.7055 14.6097 23.3198 14.6097 24.0958C14.6097 24.8395 15.2564 25.4861 16 25.4861C16.776 25.4861 17.3903 24.8395 17.3903 24.0958C17.3903 23.3198 16.776 22.7055 16 22.7055ZM16 8.92241C15.418 8.92241 15 9.418 15 10V19.7347C15 20.3166 15.418 20.7332 16 20.7332C16.582 20.7332 17 20.3166 17 19.7347V10C17 9.418 16.582 8.92241 16 8.92241Z" fill="#1A1C1F"/>
</g>
<defs>
<clipPath id="clip0_2214_8114">
<rect width="32" height="32" fill="white"/>
</clipPath>
</defs>
</svg>
