<svg width="28" height="28" viewBox="0 0 28 28" fill="none" xmlns="http://www.w3.org/2000/svg">
<g clip-path="url(#clip0_187_213)">
<path fill-rule="evenodd" clip-rule="evenodd" d="M14 2.1875C14.9902 2.1875 15.8987 2.72335 16.3713 3.60054L25.9465 21.9167C26.1601 22.3132 26.25 22.7349 26.25 23.1875C26.25 24.7055 25.1387 25.8125 23.625 25.8125H4.5003C2.98279 25.8125 1.75 24.702 1.75 23.1875C1.75 22.7349 1.83986 22.3132 2.05354 21.9167L11.6286 3.60054C12.1013 2.72326 13.0098 2.1875 14 2.1875ZM14 3.80004C13.6888 3.80004 13.4348 4.02675 13.2075 4.44955L3.59039 22.7369C3.51873 22.8702 3.46972 23.0157 3.46972 23.1571C3.46972 23.5345 3.80923 24.0625 4.375 24.0625L23.5947 24.0929C24.078 24.0929 24.5 23.6429 24.5 23.1875C24.5 23.0461 24.451 22.9006 24.3793 22.7672L14.7925 4.44973C14.5651 4.02675 14.3112 3.80004 14 3.80004ZM12.7835 21.0838C12.7835 20.4048 13.3493 19.8673 14 19.8673C14.679 19.8673 15.2165 20.4048 15.2165 21.0838C15.2165 21.7346 14.679 22.3003 14 22.3003C13.3493 22.3003 12.7835 21.7346 12.7835 21.0838ZM13.125 17.208C13.125 17.7172 13.4908 18.1163 14 18.1163C14.5092 18.1163 14.875 17.7172 14.875 17.208V9.20369C14.875 8.69444 14.5092 8.3125 14 8.3125C13.4908 8.3125 13.125 8.69444 13.125 9.20369V17.208Z" fill="#1A1C1F"/>
</g>
<defs>
<clipPath id="clip0_187_213">
<rect width="28" height="28" fill="white"/>
</clipPath>
</defs>
</svg>
