<svg width="32" height="32" viewBox="0 0 32 32" fill="none" xmlns="http://www.w3.org/2000/svg">
<g clip-path="url(#clip0_187_211)">
<path fill-rule="evenodd" clip-rule="evenodd" d="M16 2.5C17.1316 2.5 18.1699 3.1124 18.71 4.1149L29.6531 25.0476C29.8973 25.5008 30 25.9827 30 26.5C30 28.2348 28.7299 29.5 27 29.5H5.1432C3.4089 29.5 2 28.2308 2 26.5C2 25.9827 2.1027 25.5008 2.3469 25.0476L13.2898 4.1149C13.83 3.1123 14.8684 2.5 16 2.5ZM16 4.3429C15.6443 4.3429 15.3541 4.602 15.0943 5.0852L4.1033 25.985C4.0214 26.1374 3.9654 26.3037 3.9654 26.4653C3.9654 26.8966 4.3534 27.5 5 27.5L26.9654 27.5347C27.5177 27.5347 28 27.0204 28 26.5C28 26.3384 27.944 26.1721 27.8621 26.0197L16.9057 5.0854C16.6458 4.602 16.3557 4.3429 16 4.3429ZM14.6097 24.0958C14.6097 23.3198 15.2564 22.7055 16 22.7055C16.776 22.7055 17.3903 23.3198 17.3903 24.0958C17.3903 24.8395 16.776 25.4861 16 25.4861C15.2564 25.4861 14.6097 24.8395 14.6097 24.0958ZM15 19.6663C15 20.2482 15.418 20.7043 16 20.7043C16.582 20.7043 17 20.2482 17 19.6663V10.5185C17 9.9365 16.582 9.5 16 9.5C15.418 9.5 15 9.9365 15 10.5185V19.6663Z" fill="#1A1C1F"/>
</g>
<defs>
<clipPath id="clip0_187_211">
<rect width="32" height="32" fill="white"/>
</clipPath>
</defs>
</svg>
