<svg width="24" height="24" viewBox="0 0 24 24" fill="none" xmlns="http://www.w3.org/2000/svg">
<g clip-path="url(#clip0_2214_8118)">
<path fill-rule="evenodd" clip-rule="evenodd" d="M12 2C12.6573 2 13.3 2.42618 13.7215 3.21307L21.7496 19.2132C21.9061 19.541 22 19.9016 22 20.1968C22 21.1804 21.2488 22 20.1533 22H3.84668C2.75117 22 2 21.1804 2 20.1968C2 19.8689 2.09395 19.541 2.25039 19.2132L10.3099 3.21307C10.74 2.42618 11.3428 2 12 2ZM11.9844 16.7213C11.421 16.7213 10.9828 17.1804 10.9828 17.7705C10.9828 18.3607 11.421 18.8197 11.9844 18.8197C12.5478 18.8197 12.9859 18.3607 12.9859 17.7705C12.9859 17.1804 12.5478 16.7213 11.9844 16.7213ZM12 8C11.4366 8 11 8.40983 11 9V14.6231C11 15.246 11.4366 15.6722 12 15.6722C12.5634 15.6722 13.0172 15.2788 13.0172 14.6231L13 9C13 8.40983 12.532 8 12 8Z" fill="#1A1C1F"/>
</g>
<defs>
<clipPath id="clip0_2214_8118">
<rect width="24" height="24" fill="white"/>
</clipPath>
</defs>
</svg>
