<svg width="28" height="28" viewBox="0 0 28 28" fill="none" xmlns="http://www.w3.org/2000/svg">
<g clip-path="url(#clip0_2214_8116)">
<path fill-rule="evenodd" clip-rule="evenodd" d="M14 2.1875C14.9902 2.1875 15.8987 2.72335 16.3713 3.60054L25.9465 21.9167C26.1601 22.3132 26.25 22.7349 26.25 23.1875C26.25 24.7055 25.1387 25.8125 23.625 25.8125H4.5003C2.98279 25.8125 1.75 24.702 1.75 23.1875C1.75 22.7349 1.83986 22.3132 2.05354 21.9167L11.6286 3.60054C12.1013 2.72326 13.0098 2.1875 14 2.1875ZM14 19.8673C13.3493 19.8673 12.7835 20.4048 12.7835 21.0838C12.7835 21.7346 13.3493 22.3003 14 22.3003C14.679 22.3003 15.2165 21.7346 15.2165 21.0838C15.2165 20.4048 14.679 19.8673 14 19.8673ZM14 7.80711C13.4908 7.80711 13.125 8.24075 13.125 8.75V17.2678C13.125 17.777 13.4908 18.1416 14 18.1416C14.5092 18.1416 14.875 17.777 14.875 17.2678V8.75C14.875 8.24075 14.5092 7.80711 14 7.80711Z" fill="#1A1C1F"/>
</g>
<defs>
<clipPath id="clip0_2214_8116">
<rect width="28" height="28" fill="white"/>
</clipPath>
</defs>
</svg>
