<svg width="14" height="14" viewBox="0 0 14 14" fill="none" xmlns="http://www.w3.org/2000/svg">
<g clip-path="url(#clip0_187_221)">
<path fill-rule="evenodd" clip-rule="evenodd" d="M7.05599 1.39999C7.59627 1.39999 8.03362 1.70536 8.26854 2.15169L12.403 10.5851C12.497 10.7966 12.544 11.008 12.544 11.1959C12.544 11.9711 12.0077 12.6 11.256 12.6H2.85599C2.1043 12.6 1.45599 11.9711 1.45599 11.1959C1.45599 10.9845 1.50301 10.7731 1.59696 10.5851L5.77847 2.1987C5.98988 1.72886 6.53914 1.39999 7.05599 1.39999ZM7.05599 2.79999L2.85599 11.2H11.256L7.05599 2.79999ZM6.35599 8.39999V5.59999H7.75599V8.39999H6.35599ZM7.05599 9.10519C7.43989 9.10519 7.75599 9.42132 7.75599 9.80523C7.75599 10.1891 7.43989 10.5052 7.05599 10.5052C6.6721 10.5052 6.35599 10.1891 6.35599 9.80523C6.35599 9.42132 6.6721 9.10519 7.05599 9.10519Z" fill="#1A1C1F"/>
</g>
<defs>
<clipPath id="clip0_187_221">
<rect width="14" height="14" fill="white"/>
</clipPath>
</defs>
</svg>
