<svg width="14" height="14" viewBox="0 0 14 14" fill="none" xmlns="http://www.w3.org/2000/svg">
<g clip-path="url(#clip0_2214_8082)">
<path fill-rule="evenodd" clip-rule="evenodd" d="M7.00002 1.4C10.0844 1.4 12.6 3.91566 12.6 7C12.6 10.0843 10.0844 12.6 7.00002 12.6C3.91568 12.6 1.40002 10.0843 1.40002 7C1.40002 3.91566 3.91568 1.4 7.00002 1.4ZM7.00002 8.55316C6.62818 8.55316 6.30002 8.85934 6.30002 9.23125C6.30002 9.625 6.62818 9.93125 7.00002 9.93125C7.39377 9.93125 7.70002 9.625 7.70002 9.23125C7.70002 8.85934 7.39377 8.55316 7.00002 8.55316ZM7.70002 4.2H6.30002V7.7H7.70002V4.2Z" fill="#1A1C1F"/>
</g>
<defs>
<clipPath id="clip0_2214_8082">
<rect width="14" height="14" fill="white"/>
</clipPath>
</defs>
</svg>
