<svg width="20" height="20" viewBox="0 0 20 20" fill="none" xmlns="http://www.w3.org/2000/svg">
<g clip-path="url(#clip0_2214_8120)">
<path fill-rule="evenodd" clip-rule="evenodd" d="M10 2C10.7958 2 11.494 2.42211 11.8161 3.07075L17.7947 15.1111C17.9356 15.3949 17.9987 15.6969 17.9987 15.9797C17.9987 17.0909 17.0805 18 15.9787 18H4.02133C2.91956 18 2.00134 17.0909 2.00134 15.9797C2.00134 15.6768 2.07134 15.3783 2.20538 15.1111L8.22482 3.11109C8.55767 2.44756 9.245 2 10 2ZM10.0013 13.9394C9.42998 13.9394 8.96068 14.404 8.96068 14.9697C8.96068 15.5353 9.42998 16 10.0013 16C10.5727 16 11.042 15.5353 11.042 14.9697C11.042 14.404 10.5727 13.9394 10.0013 13.9394ZM11.0013 6H9.00134V12H11.0013V6Z" fill="#1A1C1F"/>
</g>
<defs>
<clipPath id="clip0_2214_8120">
<rect width="20" height="20" fill="white"/>
</clipPath>
</defs>
</svg>
