<svg width="12" height="12" viewBox="0 0 12 12" fill="none" xmlns="http://www.w3.org/2000/svg">
<g clip-path="url(#clip0_2214_8126)">
<path fill-rule="evenodd" clip-rule="evenodd" d="M6.00002 1.2C6.47748 1.2 6.8964 1.45327 7.08965 1.84245L10.6768 9.06665C10.7614 9.23694 10.7992 9.41816 10.7992 9.58783C10.7992 10.2545 10.2483 10.8 9.58723 10.8H2.4128C1.75174 10.8 1.20081 10.2545 1.20081 9.58783C1.20081 9.40606 1.2428 9.22695 1.32323 9.06665L4.93489 1.86665C5.1346 1.46853 5.547 1.2 6.00002 1.2ZM6.00081 8.36363C5.65799 8.36363 5.37641 8.64241 5.37641 8.98181C5.37641 9.32116 5.65799 9.6 6.00081 9.6C6.34362 9.6 6.6252 9.32116 6.6252 8.98181C6.6252 8.64241 6.34362 8.36363 6.00081 8.36363ZM6.60081 3.6H5.40081V7.2H6.60081V3.6Z" fill="#1A1C1F"/>
</g>
<defs>
<clipPath id="clip0_2214_8126">
<rect width="12" height="12" fill="white"/>
</clipPath>
</defs>
</svg>
