<svg width="32" height="32" viewBox="0 0 32 32" fill="none" xmlns="http://www.w3.org/2000/svg">
<g clip-path="url(#clip0_2214_8072)">
<path fill-rule="evenodd" clip-rule="evenodd" d="M16 2C23.7188 2 30 8.2813 30 16C30 23.7187 23.7188 30 16 30C8.2813 30 2 23.7187 2 16C2 8.2813 8.2813 2 16 2ZM16 20.6562C15.2813 20.6562 14.6563 21.25 14.6563 22C14.6563 22.7187 15.2813 23.3437 16 23.3437C16.75 23.3437 17.3438 22.7187 17.3438 22C17.3438 21.25 16.75 20.6562 16 20.6562ZM16 8C15.4375 8 15 8.4366 15 9V17.75C15 18.3444 15.4688 18.75 16 18.75C16.5625 18.75 17 18.3134 17 17.75V9C17 8.4366 16.5625 8 16 8Z" fill="#1A1C1F"/>
</g>
<defs>
<clipPath id="clip0_2214_8072">
<rect width="32" height="32" fill="white"/>
</clipPath>
</defs>
</svg>
