<svg width="16" height="16" viewBox="0 0 16 16" fill="none" xmlns="http://www.w3.org/2000/svg">
<g clip-path="url(#clip0_187_219)">
<path fill-rule="evenodd" clip-rule="evenodd" d="M8.064 1.60001C8.68147 1.60001 9.18129 1.94899 9.44976 2.45908L14.1749 12.0973C14.2823 12.3389 14.336 12.5805 14.336 12.7954C14.336 13.6813 13.7231 14.4 12.864 14.4H3.264C2.40492 14.4 1.664 13.6813 1.664 12.7954C1.664 12.5538 1.71773 12.3121 1.8251 12.0973L6.60397 2.51281C6.84558 1.97586 7.47332 1.60001 8.064 1.60001ZM8.064 3.20001L3.264 12.8H12.864L8.064 3.20001ZM7.264 9.60001V6.40001H8.864V9.60001H7.264ZM8.064 10.4059C8.50273 10.4059 8.864 10.7672 8.864 11.206C8.864 11.6447 8.50273 12.0059 8.064 12.0059C7.62527 12.0059 7.264 11.6447 7.264 11.206C7.264 10.7672 7.62527 10.4059 8.064 10.4059Z" fill="#1A1C1F"/>
</g>
<defs>
<clipPath id="clip0_187_219">
<rect width="16" height="16" fill="white"/>
</clipPath>
</defs>
</svg>
