<svg width="14" height="14" viewBox="0 0 14 14" fill="none" xmlns="http://www.w3.org/2000/svg">
<g clip-path="url(#clip0_2214_8124)">
<path fill-rule="evenodd" clip-rule="evenodd" d="M6.99996 1.39999C7.557 1.39999 8.04574 1.69547 8.2712 2.14952L12.4562 10.5778C12.5549 10.7764 12.599 10.9879 12.599 11.1858C12.599 11.9636 11.9563 12.6 11.185 12.6H2.81487C2.04363 12.6 1.40088 11.9636 1.40088 11.1858C1.40088 10.9737 1.44988 10.7648 1.5437 10.5778L5.75731 2.17776C5.99031 1.71329 6.47144 1.39999 6.99996 1.39999ZM7.00088 9.75757C6.60092 9.75757 6.27242 10.0828 6.27242 10.4788C6.27242 10.8747 6.60092 11.2 7.00088 11.2C7.40083 11.2 7.72934 10.8747 7.72934 10.4788C7.72934 10.0828 7.40083 9.75757 7.00088 9.75757ZM7.70088 4.19999H6.30088V8.39999H7.70088V4.19999Z" fill="#1A1C1F"/>
</g>
<defs>
<clipPath id="clip0_2214_8124">
<rect width="14" height="14" fill="white"/>
</clipPath>
</defs>
</svg>
