<svg width="24" height="24" viewBox="0 0 24 24" fill="none" xmlns="http://www.w3.org/2000/svg">
<g clip-path="url(#clip0_187_215)">
<path fill-rule="evenodd" clip-rule="evenodd" d="M11 14.5574C11 15.1803 11.4366 15.6722 12 15.6722C12.5634 15.6722 13.0031 15.2131 13.0031 14.5574V9.92622C13.0031 9.33605 12.5634 8.87704 12 8.87704C11.4366 8.87704 11 9.33605 11 9.92622V14.5574ZM10.3099 3.21307C10.74 2.42618 11.3428 2 12 2C12.6573 2 13.3 2.42618 13.7215 3.21307L21.7496 19.2132C21.9061 19.541 22 19.9016 22 20.1968C22 21.1804 21.2488 22 20.1533 22H3.84668C2.75117 22 2 21.1804 2 20.1968C2 19.8689 2.09395 19.541 2.25039 19.2132L10.3099 3.21307ZM12.2552 4.20601C12.1489 4.06867 12.0638 4 12 4C11.9043 4 11.8086 4.10295 11.7448 4.20601L4.03185 19.5193C4.03185 19.588 4 19.6223 4 19.7253C4 19.8627 4.1276 20 4.31901 20H19.6634C19.9505 20 20.0781 19.7596 19.9505 19.5193L12.2552 4.20601ZM11.9844 18.8197C11.421 18.8197 10.9828 18.3607 10.9828 17.7705C10.9828 17.1804 11.421 16.7213 11.9844 16.7213C12.5478 16.7213 12.9859 17.1804 12.9859 17.7705C12.9859 18.3607 12.5478 18.8197 11.9844 18.8197Z" fill="#1A1C1F"/>
</g>
<defs>
<clipPath id="clip0_187_215">
<rect width="24" height="24" fill="white"/>
</clipPath>
</defs>
</svg>
