<svg width="24" height="24" viewBox="0 0 24 24" fill="none" xmlns="http://www.w3.org/2000/svg">
<g clip-path="url(#clip0_2214_8076)">
<path fill-rule="evenodd" clip-rule="evenodd" d="M12 2C17.5312 2 22 6.4688 22 12C22 17.5312 17.5312 22 12 22C6.4688 22 2 17.5312 2 12C2 6.4688 6.4688 2 12 2ZM12.025 15.5625C11.4 15.5625 10.9 16.0625 10.9 16.6875C10.9 17.3125 11.4 17.8125 12.025 17.8125C12.65 17.8125 13.15 17.3125 13.15 16.6875C13.15 16.0625 12.65 15.5625 12.025 15.5625ZM12.0312 6C11.4687 6 11 6.4375 11 7L11.0002 13.0623C11 13.5938 11.4687 14.0312 12.0312 14.0312C12.5937 14.0312 13 13.625 12.9997 13.0623L13 7C13 6.4375 12.5937 6 12.0312 6Z" fill="#1A1C1F"/>
</g>
<defs>
<clipPath id="clip0_2214_8076">
<rect width="24" height="24" fill="white"/>
</clipPath>
</defs>
</svg>
