<svg width="20" height="20" viewBox="0 0 20 20" fill="none" xmlns="http://www.w3.org/2000/svg">
<g clip-path="url(#clip0_187_217)">
<path fill-rule="evenodd" clip-rule="evenodd" d="M10.08 2C10.8518 2 11.4766 2.43623 11.8122 3.07385L17.7186 15.1216C17.8529 15.4237 17.92 15.7257 17.92 15.9942C17.92 17.1016 17.1539 18 16.08 18H4.08002C3.00617 18 2.08002 17.1016 2.08002 15.9942C2.08002 15.6922 2.14718 15.3901 2.2814 15.1216L8.25498 3.14101C8.55699 2.46981 9.34166 2 10.08 2ZM10.08 4L4.08002 16H16.08L10.08 4ZM9.08002 12V8H11.08V12H9.08002ZM10.08 13.0074C10.6284 13.0074 11.08 13.459 11.08 14.0075C11.08 14.5558 10.6284 15.0074 10.08 15.0074C9.5316 15.0074 9.08002 14.5558 9.08002 14.0075C9.08002 13.459 9.5316 13.0074 10.08 13.0074Z" fill="#1A1C1F"/>
</g>
<defs>
<clipPath id="clip0_187_217">
<rect width="20" height="20" fill="white"/>
</clipPath>
</defs>
</svg>
