<svg width="16" height="16" viewBox="0 0 16 16" fill="none" xmlns="http://www.w3.org/2000/svg">
<g clip-path="url(#clip0_2214_8122)">
<path fill-rule="evenodd" clip-rule="evenodd" d="M8.00002 1.60001C8.63664 1.60001 9.1952 1.9377 9.45287 2.45661L14.2357 12.0889C14.3485 12.3159 14.399 12.5576 14.399 12.7838C14.399 13.6727 13.6644 14.4 12.783 14.4H3.21707C2.33565 14.4 1.60107 13.6727 1.60107 12.7838C1.60107 12.5414 1.65707 12.3026 1.7643 12.0889L6.57985 2.48888C6.84614 1.95805 7.396 1.60001 8.00002 1.60001ZM8.00107 11.1515C7.54398 11.1515 7.16855 11.5232 7.16855 11.9758C7.16855 12.4282 7.54398 12.8 8.00107 12.8C8.45817 12.8 8.8336 12.4282 8.8336 11.9758C8.8336 11.5232 8.45817 11.1515 8.00107 11.1515ZM8.80107 4.80001H7.20107V9.60001H8.80107V4.80001Z" fill="#1A1C1F"/>
</g>
<defs>
<clipPath id="clip0_2214_8122">
<rect width="16" height="16" fill="white"/>
</clipPath>
</defs>
</svg>
