<svg width="12" height="12" viewBox="0 0 12 12" fill="none" xmlns="http://www.w3.org/2000/svg">
<g clip-path="url(#clip0_232_419)">
<path fill-rule="evenodd" clip-rule="evenodd" d="M6.04799 1.2C6.51108 1.2 6.88595 1.46174 7.08731 1.8443L10.6312 9.07298C10.7117 9.25419 10.752 9.4354 10.752 9.59653C10.752 10.261 10.2923 10.8 9.64799 10.8H2.44799C1.80368 10.8 1.24799 10.261 1.24799 9.59653C1.24799 9.41532 1.28828 9.23405 1.36881 9.07298L4.95296 1.8846C5.13417 1.48189 5.60497 1.2 6.04799 1.2ZM6.04799 2.4L2.44799 9.6H9.64799L6.04799 2.4ZM5.44799 7.2V4.8H6.64799V7.2H5.44799ZM6.04799 7.80445C6.37704 7.80445 6.64799 8.07542 6.64799 8.40448C6.64799 8.73349 6.37704 9.00445 6.04799 9.00445C5.71894 9.00445 5.44799 8.73349 5.44799 8.40448C5.44799 8.07542 5.71894 7.80445 6.04799 7.80445Z" fill="#1A1C1F"/>
</g>
<defs>
<clipPath id="clip0_232_419">
<rect width="12" height="12" fill="white"/>
</clipPath>
</defs>
</svg>
