<svg width="14" height="14" viewBox="0 0 14 14" fill="none" xmlns="http://www.w3.org/2000/svg">
<g clip-path="url(#clip0_2214_8096)">
<path fill-rule="evenodd" clip-rule="evenodd" d="M7.00002 1.39999C10.0844 1.39999 12.6 3.91562 12.6 6.99999C12.6 10.0844 10.0844 12.6 7.00002 12.6C3.91565 12.6 1.40002 10.0844 1.40002 6.99999C1.40002 3.91562 3.91565 1.39999 7.00002 1.39999ZM7.70002 5.59999H5.20627V6.99999H6.30002V8.39999H4.90002V9.79999H9.10002V8.39999H7.70002V5.59999ZM7.00002 3.12812C6.51877 3.12812 6.10315 3.52187 6.10315 4.00312C6.10315 4.50624 6.51877 4.89999 7.00002 4.89999C7.48127 4.89999 7.8969 4.50624 7.8969 4.00312C7.8969 3.52187 7.48127 3.12812 7.00002 3.12812Z" fill="#1A1C1F"/>
</g>
<defs>
<clipPath id="clip0_2214_8096">
<rect width="14" height="14" fill="white"/>
</clipPath>
</defs>
</svg>
