<svg width="16" height="16" viewBox="0 0 16 16" fill="none" xmlns="http://www.w3.org/2000/svg">
<g clip-path="url(#clip0_2214_8094)">
<path fill-rule="evenodd" clip-rule="evenodd" d="M7.99998 1.60001C11.525 1.60001 14.4 4.47501 14.4 8.00001C14.4 11.525 11.525 14.4 7.99998 14.4C4.47498 14.4 1.59998 11.525 1.59998 8.00001C1.59998 4.47501 4.47498 1.60001 7.99998 1.60001ZM8.79998 6.40001H5.94998V8.00001H7.19998V9.60001H5.59998V11.2H10.4V9.60001H8.79998V6.40001ZM7.99998 3.57501C7.44998 3.57501 6.97498 4.02501 6.97498 4.57501C6.97498 5.15001 7.44998 5.60001 7.99998 5.60001C8.54998 5.60001 9.02498 5.15001 9.02498 4.57501C9.02498 4.02501 8.54998 3.57501 7.99998 3.57501Z" fill="#1A1C1F"/>
</g>
<defs>
<clipPath id="clip0_2214_8094">
<rect width="16" height="16" fill="white"/>
</clipPath>
</defs>
</svg>
