<svg width="20" height="20" viewBox="0 0 20 20" fill="none" xmlns="http://www.w3.org/2000/svg">
<g clip-path="url(#clip0_187_191)">
<path fill-rule="evenodd" clip-rule="evenodd" d="M10 2C14.4062 2 18 5.5938 18 10C18 14.4062 14.4062 18 10 18C5.59375 18 2 14.4062 2 10C2 5.5938 5.59375 2 10 2ZM10 4C6.6875 4 4 6.6875 4 10C4 13.3125 6.6875 16 10 16C13.3125 16 16 13.3125 16 10C16 6.6875 13.3125 4 10 4ZM11 8V12H13V14H7V12H9V10H7.34375V8H11ZM10 5.0625C10.5938 5.0625 11.0312 5.5 11.0312 6.0938C11.0312 6.6875 10.5938 7.125 10 7.125C9.40625 7.125 8.96875 6.6875 8.96875 6.0938C8.96875 5.5 9.40625 5.0625 10 5.0625Z" fill="#1A1C1F"/>
</g>
<defs>
<clipPath id="clip0_187_191">
<rect width="20" height="20" fill="white"/>
</clipPath>
</defs>
</svg>
