<svg width="12" height="12" viewBox="0 0 12 12" fill="none" xmlns="http://www.w3.org/2000/svg">
<g clip-path="url(#clip0_232_415)">
<path fill-rule="evenodd" clip-rule="evenodd" d="M6.00001 1.20001C8.64376 1.20001 10.8 3.35629 10.8 6.00001C10.8 8.64373 8.64376 10.8 6.00001 10.8C3.35626 10.8 1.20001 8.64373 1.20001 6.00001C1.20001 3.35629 3.35626 1.20001 6.00001 1.20001ZM6.00001 2.40001C4.01251 2.40001 2.40001 4.01251 2.40001 6.00001C2.40001 7.98751 4.01251 9.60001 6.00001 9.60001C7.98751 9.60001 9.60001 7.98751 9.60001 6.00001C9.60001 4.01251 7.98751 2.40001 6.00001 2.40001ZM6.60001 4.80001V7.20001H7.80001V8.40001H4.20001V7.20001H5.40001V6.00001H4.40626V4.80001H6.60001ZM6.00001 3.03751C6.35626 3.03751 6.61876 3.30001 6.61876 3.65629C6.61876 4.01251 6.35626 4.27501 6.00001 4.27501C5.64376 4.27501 5.38126 4.01251 5.38126 3.65629C5.38126 3.30001 5.64376 3.03751 6.00001 3.03751Z" fill="#1A1C1F"/>
</g>
<defs>
<clipPath id="clip0_232_415">
<rect width="12" height="12" fill="white"/>
</clipPath>
</defs>
</svg>
