<svg width="12" height="12" viewBox="0 0 12 12" fill="none" xmlns="http://www.w3.org/2000/svg">
<g clip-path="url(#clip0_2214_8112)">
<path fill-rule="evenodd" clip-rule="evenodd" d="M6.00229 1.20001C8.64589 1.20001 10.8 3.34513 10.8 5.99659C10.8 8.64295 8.65489 10.8 6.00289 10.8C3.34087 10.8 1.19995 8.63017 1.19995 5.99665C1.19995 3.35509 3.35317 1.20001 6.00229 1.20001ZM5.81449 7.60975C5.36773 7.60975 5.00485 7.96153 5.00485 8.42641C5.00485 8.88589 5.35849 9.23707 5.82697 9.23707C6.28783 9.23707 6.63217 8.87521 6.63217 8.42611C6.63217 7.98715 6.28093 7.60975 5.81449 7.60975ZM5.92771 2.85661C5.13361 2.85661 4.47043 3.18937 4.20871 3.34831L4.74727 4.63609C5.08363 4.45843 5.55505 4.27321 5.89819 4.27321C6.26413 4.27321 6.33949 4.48393 6.33949 4.65061C6.33949 5.32747 5.09851 5.29315 5.09851 6.48589V7.20001H6.50335V6.48589C6.50335 6.01315 7.74691 5.71807 7.74691 4.39039C7.74691 3.44245 6.98335 2.85661 5.92771 2.85661Z" fill="#1A1C1F"/>
</g>
<defs>
<clipPath id="clip0_2214_8112">
<rect width="12" height="12" fill="white"/>
</clipPath>
</defs>
</svg>
