<svg width="20" height="20" viewBox="0 0 20 20" fill="none" xmlns="http://www.w3.org/2000/svg">
<g clip-path="url(#clip0_2204_2782)">
<path fill-rule="evenodd" clip-rule="evenodd" d="M2 8C2 7.4375 2.4375 7 3 7H4C5.09375 7 6 8 6 9V16H14.0312V9C14.0312 8 14.9375 7 16 7H17C17.5625 7 18 7.4375 18 8C18 8.5625 17.5625 9 17 9H16.0312V16.1875C16.0312 17.2505 15.0644 18 14.0312 18H6C4.93566 18 4 17.2505 4 16.1875V9H3C2.4375 9 2 8.5625 2 8ZM2 5C2 4.4375 2.4375 4 3 4H7V3C7 2.4375 7.4375 2 8 2H12C12.25 2 12.5312 2.09375 12.7188 2.28125C12.9062 2.46875 13 2.71875 13 3V4H17C17.5625 4 18 4.4375 18 5C18 5.5625 17.5625 6 17 6H3C2.4375 6 2 5.5625 2 5ZM7 14V9C7 8.4375 7.4375 8 8 8C8.5625 8 9 8.4375 9 9V14C9 14.5312 8.5625 15 8 15C7.75 15 7.46875 14.875 7.28125 14.6875C7.09375 14.5 7 14.25 7 14ZM11 14V9C11 8.4375 11.4375 8 12 8C12.5625 8 13 8.4375 13 9V14C13 14.5312 12.5625 15 12 15C11.75 15 11.4688 14.875 11.2812 14.6875C11.0938 14.5 11 14.25 11 14Z" fill="#1A1C1F"/>
</g>
<defs>
<clipPath id="clip0_2204_2782">
<rect width="20" height="20" fill="white"/>
</clipPath>
</defs>
</svg>
