<svg width="24" height="24" viewBox="0 0 24 24" fill="none" xmlns="http://www.w3.org/2000/svg">
<g clip-path="url(#clip0_2204_2779)">
<path fill-rule="evenodd" clip-rule="evenodd" d="M3 8C3 7.4375 3.4375 7 4 7H5C6.09375 7 7 7.90625 7 9V20H17V9C17 7.90625 17.9062 7 19 7H20C20.5625 7 21 7.4375 21 8C21 8.5625 20.5625 9 20 9H19V20C19 21.0938 18.0938 22 17 22H7C5.90625 22 5 21.0938 5 20V9H4C3.4375 9 3 8.5625 3 8ZM3 5C3 4.4375 3.4375 4 4 4H8V3C8 2.4375 8.4375 2 9 2H15C15.25 2 15.5 2.09375 15.6875 2.28125C15.875 2.46875 16 2.71875 16 3V4H20C20.5625 4 21 4.4375 21 5C21 5.5625 20.5625 6 20 6H4C3.4375 6 3 5.5625 3 5ZM9 17V10C9 9.46875 9.46875 9 10 9C10.5625 9 11 9.46875 11 10V17C11 17.5312 10.5625 18 10 18C9.4375 18 9 17.5312 9 17ZM13 17V10C13 9.46875 13.4688 9 14 9C14.5625 9 15 9.46875 15 10V17C15 17.5312 14.5625 18 14 18C13.4375 18 13 17.5312 13 17Z" fill="#1A1C1F"/>
</g>
<defs>
<clipPath id="clip0_2204_2779">
<rect width="24" height="24" fill="white"/>
</clipPath>
</defs>
</svg>
