<svg width="32" height="32" viewBox="0 0 32 32" fill="none" xmlns="http://www.w3.org/2000/svg">
<g clip-path="url(#clip0_83_105)">
<path fill-rule="evenodd" clip-rule="evenodd" d="M16 4C22.627 4 28 9.373 28 16C28 18.954 26.933 21.658 25.163 23.749L25.193 23.779L23.778 25.192L23.748 25.163C21.584 26.9984 18.8376 28.004 16 28C9.373 28 4 22.627 4 16C4 13.046 5.067 10.342 6.837 8.251L6.807 8.221L8.222 6.808L8.252 6.837C10.416 5.00158 13.1624 3.99594 16 4ZM6 16C6 21.523 10.477 26 16 26C18.3074 26.0036 20.5445 25.2058 22.329 23.743L8.257 9.67C6.79397 11.4548 5.99619 13.6922 6 16ZM16 6C13.6926 5.99642 11.4555 6.79419 9.671 8.257L23.743 22.33C25.206 20.5452 26.0038 18.3078 26 16C26 10.477 21.523 6 16 6Z" fill="#1A1C1F"/>
</g>
<defs>
<clipPath id="clip0_83_105">
<rect width="32" height="32" fill="white"/>
</clipPath>
</defs>
</svg>
