<svg width="12" height="12" viewBox="0 0 12 12" fill="none" xmlns="http://www.w3.org/2000/svg">
<g clip-path="url(#clip0_231_178)">
<path fill-rule="evenodd" clip-rule="evenodd" d="M6.00001 1.8C6.55156 1.8 7.09771 1.90863 7.60728 2.1197C8.11685 2.33077 8.57985 2.64014 8.96986 3.03015C9.35987 3.42015 9.66923 3.88316 9.8803 4.39273C10.0914 4.90229 10.2 5.44844 10.2 6C10.2 6.55155 10.0914 7.0977 9.8803 7.60727C9.66923 8.11683 9.35987 8.57984 8.96986 8.96985C8.57985 9.35985 8.11685 9.66922 7.60728 9.88029C7.09771 10.0914 6.55156 10.2 6.00001 10.2C4.8861 10.2 3.81782 9.7575 3.03016 8.96984C2.24251 8.18219 1.80001 7.1139 1.80001 6C1.80001 4.88609 2.24251 3.8178 3.03016 3.03015C3.81782 2.24249 4.8861 1.8 6.00001 1.8ZM3.00001 6C2.99998 6.54201 3.14679 7.07391 3.42484 7.53917C3.70289 8.00443 4.10179 8.38567 4.57916 8.64238C5.05653 8.89909 5.59453 9.02167 6.13599 8.9971C6.67745 8.97254 7.20214 8.80174 7.6543 8.50285L3.49715 4.34571C3.17209 4.83612 2.99914 5.41163 3.00001 6ZM6.00001 3C5.38801 3 4.81973 3.18342 4.34573 3.49714L8.50287 7.65428C8.80175 7.20212 8.97255 6.67743 8.99712 6.13597C9.02169 5.59452 8.8991 5.05652 8.6424 4.57915C8.38569 4.10178 8.00445 3.70287 7.53919 3.42482C7.07393 3.14677 6.54203 2.99996 6.00001 3Z" fill="#1A1C1F"/>
</g>
<defs>
<clipPath id="clip0_231_178">
<rect width="12" height="12" fill="white"/>
</clipPath>
</defs>
</svg>
