<svg width="14" height="14" viewBox="0 0 14 14" fill="none" xmlns="http://www.w3.org/2000/svg">
<g clip-path="url(#clip0_83_107)">
<path fill-rule="evenodd" clip-rule="evenodd" d="M7 2.1C7.64348 2.1 8.28065 2.22674 8.87515 2.47299C9.46964 2.71924 10.0098 3.08017 10.4648 3.53518C10.9198 3.99018 11.2808 4.53035 11.527 5.12485C11.7733 5.71935 11.9 6.35652 11.9 7C11.9 7.64348 11.7733 8.28065 11.527 8.87515C11.2808 9.46964 10.9198 10.0098 10.4648 10.4648C10.0098 10.9198 9.46964 11.2808 8.87515 11.527C8.28065 11.7733 7.64348 11.9 7 11.9C5.70044 11.9 4.4541 11.3837 3.53518 10.4648C2.61625 9.54589 2.1 8.29956 2.1 7C2.1 5.70044 2.61625 4.4541 3.53518 3.53518C4.4541 2.61625 5.70044 2.1 7 2.1ZM3.5 7C3.49996 7.63235 3.67124 8.2529 3.99563 8.7957C4.32002 9.33851 4.78541 9.78329 5.34234 10.0828C5.89927 10.3823 6.52694 10.5253 7.15864 10.4966C7.79034 10.468 8.40248 10.2687 8.93 9.92L4.08 5.07C3.70076 5.64215 3.49898 6.31358 3.5 7ZM7 3.5C6.286 3.5 5.623 3.714 5.07 4.08L9.92 8.93C10.2687 8.40248 10.468 7.79034 10.4966 7.15864C10.5253 6.52694 10.3823 5.89927 10.0828 5.34234C9.78329 4.78541 9.33851 4.32002 8.7957 3.99563C8.2529 3.67124 7.63235 3.49996 7 3.5Z" fill="#1A1C1F"/>
</g>
<defs>
<clipPath id="clip0_83_107">
<rect width="14" height="14" fill="white"/>
</clipPath>
</defs>
</svg>
