<svg width="20" height="20" viewBox="0 0 20 20" fill="none" xmlns="http://www.w3.org/2000/svg">
<g clip-path="url(#clip0_83_110)">
<path fill-rule="evenodd" clip-rule="evenodd" d="M10 3C10.9193 3 11.8295 3.18106 12.6788 3.53284C13.5281 3.88463 14.2997 4.40024 14.9497 5.05025C15.5998 5.70026 16.1154 6.47194 16.4672 7.32122C16.8189 8.1705 17 9.08075 17 10C17 10.9193 16.8189 11.8295 16.4672 12.6788C16.1154 13.5281 15.5998 14.2997 14.9497 14.9497C14.2997 15.5998 13.5281 16.1154 12.6788 16.4672C11.8295 16.8189 10.9193 17 10 17C8.14348 17 6.36301 16.2625 5.05025 14.9497C3.7375 13.637 3 11.8565 3 10C3 8.14348 3.7375 6.36301 5.05025 5.05025C6.36301 3.7375 8.14348 3 10 3ZM5 10C4.99986 10.9034 5.24447 11.7899 5.70784 12.5654C6.17121 13.3409 6.83602 13.9764 7.63163 14.4043C8.42725 14.8322 9.32393 15.0366 10.2264 14.9957C11.1288 14.9548 12.0034 14.6701 12.757 14.172L5.828 7.242C5.28626 8.05966 4.9982 9.01916 5 10ZM10 5C8.98 5 8.033 5.305 7.243 5.828L14.172 12.758C14.6704 12.0043 14.9553 11.1297 14.9963 10.2271C15.0373 9.32451 14.833 8.42764 14.4051 7.63187C13.9771 6.8361 13.3416 6.17116 12.5659 5.70774C11.7903 5.24432 10.9035 4.99974 10 5Z" fill="#1A1C1F"/>
</g>
<defs>
<clipPath id="clip0_83_110">
<rect width="20" height="20" fill="white"/>
</clipPath>
</defs>
</svg>
