<svg width="16" height="16" viewBox="0 0 16 16" fill="none" xmlns="http://www.w3.org/2000/svg">
<g clip-path="url(#clip0_83_109)">
<path fill-rule="evenodd" clip-rule="evenodd" d="M8 2.4C8.7354 2.4 9.4636 2.54485 10.143 2.82628C10.8225 3.1077 11.4398 3.5202 11.9598 4.0402C12.4798 4.56021 12.8923 5.17755 13.1737 5.85697C13.4552 6.5364 13.6 7.2646 13.6 8C13.6 8.7354 13.4552 9.46361 13.1737 10.143C12.8923 10.8225 12.4798 11.4398 11.9598 11.9598C11.4398 12.4798 10.8225 12.8923 10.143 13.1737C9.4636 13.4552 8.7354 13.6 8 13.6C6.51479 13.6 5.09041 13.01 4.0402 11.9598C2.99 10.9096 2.4 9.48521 2.4 8C2.4 6.51479 2.99 5.09041 4.0402 4.0402C5.09041 2.99 6.51479 2.4 8 2.4ZM4 8C3.99988 8.72265 4.19554 9.43183 4.56618 10.0522C4.93681 10.6726 5.46858 11.1809 6.10499 11.5233C6.74139 11.8656 7.45866 12.0292 8.18057 11.9966C8.90248 11.9639 9.60207 11.7364 10.205 11.338L4.662 5.795C4.22898 6.44876 3.99868 7.21584 4 8ZM8 4C7.185 4 6.427 4.244 5.795 4.662L11.338 10.205C11.7364 9.60207 11.9639 8.90248 11.9966 8.18057C12.0292 7.45866 11.8656 6.74139 11.5233 6.10499C11.1809 5.46859 10.6725 4.93681 10.0522 4.56618C9.43183 4.19554 8.72265 3.99989 8 4Z" fill="#1A1C1F"/>
</g>
<defs>
<clipPath id="clip0_83_109">
<rect width="16" height="16" fill="white"/>
</clipPath>
</defs>
</svg>
