<svg width="32" height="32" viewBox="0 0 32 32" fill="none" xmlns="http://www.w3.org/2000/svg">
<g clip-path="url(#clip0_83_120)">
<path fill-rule="evenodd" clip-rule="evenodd" d="M5 17.0325C5 16.4525 5.484 16.0325 6 16.0325C6.387 16.0325 6.484 16.0975 6.71 16.3225L12 21.5825L25.258 8.29048C25.3486 8.194 25.4589 8.11809 25.5814 8.06789C25.7039 8.01769 25.8357 7.99436 25.968 7.99948C26.548 8.00048 27 8.51648 27 9.00048C27 9.25848 26.903 9.48448 26.677 9.71048L12.71 23.7105C12.516 23.9035 12.258 24.0005 12 24.0005C11.8678 24.0057 11.736 23.9826 11.6135 23.9325C11.491 23.8825 11.3807 23.8068 11.29 23.7105L5.29 17.7425C5.19732 17.649 5.12399 17.5382 5.07423 17.4164C5.02447 17.2946 4.99924 17.1641 5 17.0325Z" fill="#1A1C1F"/>
</g>
<defs>
<clipPath id="clip0_83_120">
<rect width="32" height="32" fill="white"/>
</clipPath>
</defs>
</svg>
