<svg width="14" height="14" viewBox="0 0 14 14" fill="none" xmlns="http://www.w3.org/2000/svg">
<g clip-path="url(#clip0_83_125)">
<path fill-rule="evenodd" clip-rule="evenodd" d="M2.8 7.36499C2.8 6.97799 3.173 6.66299 3.502 6.66299C3.59543 6.6647 3.6876 6.68484 3.77323 6.72225C3.85886 6.75965 3.93626 6.8136 4.001 6.88099L5.595 8.46899L10.01 4.03899C10.1408 3.91187 10.3156 3.84021 10.498 3.83899C10.899 3.83899 11.2 4.15399 11.2 4.54099C11.1985 4.7233 11.1268 4.89803 11 5.02899L6.093 9.95599C6.02791 10.0217 5.9503 10.0737 5.86476 10.1089C5.77922 10.1441 5.6875 10.1618 5.595 10.161C5.50252 10.1617 5.41082 10.144 5.3253 10.1088C5.23978 10.0736 5.16216 10.0216 5.097 9.95599L3.011 7.87099C2.87641 7.73693 2.80053 7.55494 2.8 7.36499Z" fill="#1A1C1F"/>
</g>
<defs>
<clipPath id="clip0_83_125">
<rect width="14" height="14" fill="white"/>
</clipPath>
</defs>
</svg>
