<svg width="12" height="12" viewBox="0 0 12 12" fill="none" xmlns="http://www.w3.org/2000/svg">
<g clip-path="url(#clip0_231_181)">
<path fill-rule="evenodd" clip-rule="evenodd" d="M2.40001 6.31285C2.40001 5.98113 2.71972 5.71113 3.00172 5.71113C3.08181 5.7126 3.16081 5.72986 3.23421 5.76193C3.3076 5.79399 3.37395 5.84023 3.42944 5.89799L4.79572 7.25913L8.58001 3.46199C8.69211 3.35303 8.84197 3.29161 8.99829 3.29056C9.34201 3.29056 9.60001 3.56056 9.60001 3.89227C9.59869 4.04854 9.53731 4.19831 9.42858 4.31056L5.22258 8.5337C5.16679 8.59003 5.10026 8.63461 5.02695 8.66479C4.95363 8.69497 4.87501 8.71014 4.79572 8.70942C4.71645 8.71005 4.63786 8.69483 4.56456 8.66465C4.49125 8.63448 4.42472 8.58996 4.36887 8.5337L2.58087 6.74656C2.46551 6.63165 2.40046 6.47567 2.40001 6.31285Z" fill="#1A1C1F"/>
</g>
<defs>
<clipPath id="clip0_231_181">
<rect width="12" height="12" fill="white"/>
</clipPath>
</defs>
</svg>
