<svg width="28" height="28" viewBox="0 0 28 28" fill="none" xmlns="http://www.w3.org/2000/svg">
<g clip-path="url(#clip0_83_121)">
<path fill-rule="evenodd" clip-rule="evenodd" d="M4.3745 14.903C4.37581 14.6714 4.46842 14.4496 4.63223 14.2858C4.79604 14.122 5.01784 14.0294 5.2495 14.028C5.5885 14.028 5.6725 14.085 5.8705 14.282L10.4995 18.883L22.0995 7.25404C22.1791 7.16953 22.2759 7.10312 22.3834 7.0593C22.4909 7.01547 22.6065 6.99526 22.7225 7.00004C23.2305 7.00004 23.6255 7.45204 23.6255 7.87504C23.6255 8.10104 23.5405 8.29804 23.3435 8.49604L11.1195 20.746C10.9547 20.9095 10.7317 21.0009 10.4995 21C10.3839 21.0045 10.2686 20.9842 10.1615 20.9404C10.0543 20.8965 9.95786 20.8303 9.8785 20.746L4.6285 15.524C4.46502 15.3592 4.37367 15.1362 4.3745 14.904V14.903Z" fill="#1A1C1F"/>
</g>
<defs>
<clipPath id="clip0_83_121">
<rect width="28" height="28" fill="white"/>
</clipPath>
</defs>
</svg>
