<svg width="20" height="20" viewBox="0 0 20 20" fill="none" xmlns="http://www.w3.org/2000/svg">
<g clip-path="url(#clip0_83_122)">
<path fill-rule="evenodd" clip-rule="evenodd" d="M3.99997 10.5225C3.99997 9.96951 4.53197 9.51851 5.00297 9.51851C5.26997 9.51851 5.51997 9.63651 5.71497 9.83051L7.99297 12.0985L14.301 5.77151C14.4873 5.58972 14.7367 5.4869 14.997 5.48451C15.1291 5.48303 15.2602 5.50797 15.3825 5.55785C15.5049 5.60774 15.616 5.68156 15.7095 5.77499C15.8029 5.86843 15.8767 5.97958 15.9266 6.10194C15.9765 6.22429 16.0014 6.35538 16 6.48751C16 6.73351 15.898 6.99951 15.714 7.18451L8.70397 14.2235C8.61109 14.3171 8.50043 14.3911 8.37849 14.4413C8.25655 14.4914 8.12581 14.5167 7.99397 14.5155C7.86181 14.5168 7.73072 14.4917 7.60844 14.4415C7.48615 14.3914 7.37515 14.3172 7.28197 14.2235L4.30197 11.2435C4.10992 11.0526 4.00133 10.7933 3.99997 10.5225Z" fill="#1A1C1F"/>
</g>
<defs>
<clipPath id="clip0_83_122">
<rect width="20" height="20" fill="white"/>
</clipPath>
</defs>
</svg>
