<svg width="24" height="24" viewBox="0 0 24 24" fill="none" xmlns="http://www.w3.org/2000/svg">
<g clip-path="url(#clip0_83_115)">
<path fill-rule="evenodd" clip-rule="evenodd" d="M4 6C4.513 6 5.004 6.499 5 7V20H16C16.513 20 17 20.487 17 21C17 21.513 16.499 22.002 16 22H4.5C4.10218 22 3.72064 21.842 3.43934 21.5607C3.15804 21.2794 3 20.8978 3 20.5V7C3 6.73478 3.10536 6.48043 3.29289 6.29289C3.48043 6.10536 3.73478 6 4 6ZM19.9 2C20.467 2 21.002 2.545 21 3.1V16.9C21 17.467 20.448 18.008 19.9 18H8.1C7.533 18 7.003 17.474 7 16.9V3.1C7 2.533 7.53 2.003 8.1 2H19.9ZM19 4H9V16H19V4Z" fill="#1A1C1F"/>
</g>
<defs>
<clipPath id="clip0_83_115">
<rect width="24" height="24" fill="white"/>
</clipPath>
</defs>
</svg>
