<svg width="32" height="32" viewBox="0 0 32 32" fill="none" xmlns="http://www.w3.org/2000/svg">
<g clip-path="url(#clip0_77_980)">
<path fill-rule="evenodd" clip-rule="evenodd" d="M7.61806 6.19394L16.0001 14.5759L24.2931 6.29994C24.3835 6.20437 24.4928 6.1285 24.6139 6.07705C24.735 6.0256 24.8655 5.99969 24.9971 6.00094C25.5471 6.00094 26.0001 6.42094 26.0001 7.00394C26.0001 7.26394 25.9351 7.45694 25.7101 7.68394L17.4231 15.9999L25.7081 24.3169C25.8895 24.4973 25.9939 24.7411 25.9991 24.9969C26.0011 25.1291 25.9765 25.2604 25.9269 25.3829C25.8773 25.5055 25.8036 25.6168 25.7101 25.7103C25.6167 25.8038 25.5054 25.8777 25.383 25.9274C25.2605 25.9772 25.1292 26.0018 24.9971 25.9999C24.7371 25.9999 24.5441 25.9349 24.3171 25.7099L16.0001 17.4229L7.70705 25.6999C7.61657 25.7955 7.50736 25.8714 7.38622 25.9228C7.26509 25.9743 7.13465 26.0002 7.00305 25.9989C6.87087 26.001 6.73961 25.9764 6.61708 25.9268C6.49454 25.8772 6.38321 25.8035 6.28968 25.71C6.19615 25.6166 6.12233 25.5053 6.07258 25.3828C6.02283 25.2604 5.99817 25.1291 6.00006 24.9969C6.00006 24.7369 6.06506 24.5439 6.29006 24.3169L14.5771 15.9999L6.29105 7.68294C6.10967 7.5025 6.00535 7.25873 6.00006 7.00294C6.00006 6.45294 6.42005 5.99994 7.00305 5.99994C7.19705 5.99994 7.42306 6.06494 7.61806 6.19394Z" fill="#1A1C1F"/>
</g>
<defs>
<clipPath id="clip0_77_980">
<rect width="32" height="32" fill="white"/>
</clipPath>
</defs>
</svg>
