<svg width="20" height="20" viewBox="0 0 20 20" fill="none" xmlns="http://www.w3.org/2000/svg">
<g clip-path="url(#clip0_83_251)">
<path fill-rule="evenodd" clip-rule="evenodd" d="M5.5 8C6.16304 8 6.79893 7.73661 7.26777 7.26777C7.73661 6.79893 8 6.16304 8 5.5C8 4.83696 7.73661 4.20107 7.26777 3.73223C6.79893 3.26339 6.16304 3 5.5 3C4.83696 3 4.20107 3.26339 3.73223 3.73223C3.26339 4.20107 3 4.83696 3 5.5C3 6.16304 3.26339 6.79893 3.73223 7.26777C4.20107 7.73661 4.83696 8 5.5 8ZM14.5 8C15.163 8 15.7989 7.73661 16.2678 7.26777C16.7366 6.79893 17 6.16304 17 5.5C17 4.83696 16.7366 4.20107 16.2678 3.73223C15.7989 3.26339 15.163 3 14.5 3C13.837 3 13.2011 3.26339 12.7322 3.73223C12.2634 4.20107 12 4.83696 12 5.5C12 6.16304 12.2634 6.79893 12.7322 7.26777C13.2011 7.73661 13.837 8 14.5 8ZM5.5 17C6.16304 17 6.79893 16.7366 7.26777 16.2678C7.73661 15.7989 8 15.163 8 14.5C8 13.837 7.73661 13.2011 7.26777 12.7322C6.79893 12.2634 6.16304 12 5.5 12C4.83696 12 4.20107 12.2634 3.73223 12.7322C3.26339 13.2011 3 13.837 3 14.5C3 15.163 3.26339 15.7989 3.73223 16.2678C4.20107 16.7366 4.83696 17 5.5 17ZM14.5 17C15.163 17 15.7989 16.7366 16.2678 16.2678C16.7366 15.7989 17 15.163 17 14.5C17 13.837 16.7366 13.2011 16.2678 12.7322C15.7989 12.2634 15.163 12 14.5 12C13.837 12 13.2011 12.2634 12.7322 12.7322C12.2634 13.2011 12 13.837 12 14.5C12 15.163 12.2634 15.7989 12.7322 16.2678C13.2011 16.7366 13.837 17 14.5 17Z" fill="#1A1C1F"/>
</g>
<defs>
<clipPath id="clip0_83_251">
<rect width="20" height="20" fill="white"/>
</clipPath>
</defs>
</svg>
