<svg width="14" height="14" viewBox="0 0 14 14" fill="none" xmlns="http://www.w3.org/2000/svg">
<g clip-path="url(#clip0_83_253)">
<path fill-rule="evenodd" clip-rule="evenodd" d="M3.85 5.60001C4.31413 5.60001 4.75925 5.41563 5.08744 5.08744C5.41562 4.75925 5.6 4.31414 5.6 3.85001C5.6 3.38588 5.41562 2.94076 5.08744 2.61257C4.75925 2.28438 4.31413 2.10001 3.85 2.10001C3.38587 2.10001 2.94075 2.28438 2.61256 2.61257C2.28437 2.94076 2.1 3.38588 2.1 3.85001C2.1 4.31414 2.28437 4.75925 2.61256 5.08744C2.94075 5.41563 3.38587 5.60001 3.85 5.60001ZM10.15 5.60001C10.6141 5.60001 11.0592 5.41563 11.3874 5.08744C11.7156 4.75925 11.9 4.31414 11.9 3.85001C11.9 3.38588 11.7156 2.94076 11.3874 2.61257C11.0592 2.28438 10.6141 2.10001 10.15 2.10001C9.68587 2.10001 9.24075 2.28438 8.91256 2.61257C8.58437 2.94076 8.4 3.38588 8.4 3.85001C8.4 4.31414 8.58437 4.75925 8.91256 5.08744C9.24075 5.41563 9.68587 5.60001 10.15 5.60001ZM3.85 11.9C4.31413 11.9 4.75925 11.7156 5.08744 11.3874C5.41562 11.0593 5.6 10.6141 5.6 10.15C5.6 9.68588 5.41562 9.24076 5.08744 8.91257C4.75925 8.58438 4.31413 8.40001 3.85 8.40001C3.38587 8.40001 2.94075 8.58438 2.61256 8.91257C2.28437 9.24076 2.1 9.68588 2.1 10.15C2.1 10.6141 2.28437 11.0593 2.61256 11.3874C2.94075 11.7156 3.38587 11.9 3.85 11.9ZM10.15 11.9C10.6141 11.9 11.0592 11.7156 11.3874 11.3874C11.7156 11.0593 11.9 10.6141 11.9 10.15C11.9 9.68588 11.7156 9.24076 11.3874 8.91257C11.0592 8.58438 10.6141 8.40001 10.15 8.40001C9.68587 8.40001 9.24075 8.58438 8.91256 8.91257C8.58437 9.24076 8.4 9.68588 8.4 10.15C8.4 10.6141 8.58437 11.0593 8.91256 11.3874C9.24075 11.7156 9.68587 11.9 10.15 11.9Z" fill="#1A1C1F"/>
</g>
<defs>
<clipPath id="clip0_83_253">
<rect width="14" height="14" fill="white"/>
</clipPath>
</defs>
</svg>
