<svg width="12" height="12" viewBox="0 0 12 12" fill="none" xmlns="http://www.w3.org/2000/svg">
<g clip-path="url(#clip0_231_190)">
<path fill-rule="evenodd" clip-rule="evenodd" d="M3.30001 4.79999C3.69784 4.79999 4.07937 4.64195 4.36067 4.36065C4.64198 4.07934 4.80001 3.69781 4.80001 3.29999C4.80001 2.90216 4.64198 2.52063 4.36067 2.23933C4.07937 1.95802 3.69784 1.79999 3.30001 1.79999C2.90219 1.79999 2.52066 1.95802 2.23935 2.23933C1.95805 2.52063 1.80001 2.90216 1.80001 3.29999C1.80001 3.69781 1.95805 4.07934 2.23935 4.36065C2.52066 4.64195 2.90219 4.79999 3.30001 4.79999ZM8.70001 4.79999C9.09784 4.79999 9.47937 4.64195 9.76067 4.36065C10.042 4.07934 10.2 3.69781 10.2 3.29999C10.2 2.90216 10.042 2.52063 9.76067 2.23933C9.47937 1.95802 9.09784 1.79999 8.70001 1.79999C8.30219 1.79999 7.92066 1.95802 7.63935 2.23933C7.35805 2.52063 7.20001 2.90216 7.20001 3.29999C7.20001 3.69781 7.35805 4.07934 7.63935 4.36065C7.92066 4.64195 8.30219 4.79999 8.70001 4.79999ZM3.30001 10.2C3.69784 10.2 4.07937 10.042 4.36067 9.76065C4.64198 9.47934 4.80001 9.09781 4.80001 8.69999C4.80001 8.30216 4.64198 7.92063 4.36067 7.63933C4.07937 7.35802 3.69784 7.19999 3.30001 7.19999C2.90219 7.19999 2.52066 7.35802 2.23935 7.63933C1.95805 7.92063 1.80001 8.30216 1.80001 8.69999C1.80001 9.09781 1.95805 9.47934 2.23935 9.76065C2.52066 10.042 2.90219 10.2 3.30001 10.2ZM8.70001 10.2C9.09784 10.2 9.47937 10.042 9.76067 9.76065C10.042 9.47934 10.2 9.09781 10.2 8.69999C10.2 8.30216 10.042 7.92063 9.76067 7.63933C9.47937 7.35802 9.09784 7.19999 8.70001 7.19999C8.30219 7.19999 7.92066 7.35802 7.63935 7.63933C7.35805 7.92063 7.20001 8.30216 7.20001 8.69999C7.20001 9.09781 7.35805 9.47934 7.63935 9.76065C7.92066 10.042 8.30219 10.2 8.70001 10.2Z" fill="#1A1C1F"/>
</g>
<defs>
<clipPath id="clip0_231_190">
<rect width="12" height="12" fill="white"/>
</clipPath>
</defs>
</svg>
