<svg width="24" height="24" viewBox="0 0 24 24" fill="none" xmlns="http://www.w3.org/2000/svg">
<g clip-path="url(#clip0_83_249)">
<path fill-rule="evenodd" clip-rule="evenodd" d="M7 10C7.39397 10 7.78407 9.9224 8.14805 9.77164C8.51203 9.62087 8.84274 9.3999 9.12132 9.12132C9.3999 8.84274 9.62087 8.51203 9.77164 8.14805C9.9224 7.78407 10 7.39397 10 7C10 6.60603 9.9224 6.21593 9.77164 5.85195C9.62087 5.48797 9.3999 5.15726 9.12132 4.87868C8.84274 4.6001 8.51203 4.37913 8.14805 4.22836C7.78407 4.0776 7.39397 4 7 4C6.20435 4 5.44129 4.31607 4.87868 4.87868C4.31607 5.44129 4 6.20435 4 7C4 7.79565 4.31607 8.55871 4.87868 9.12132C5.44129 9.68393 6.20435 10 7 10ZM17 10C17.394 10 17.7841 9.9224 18.1481 9.77164C18.512 9.62087 18.8427 9.3999 19.1213 9.12132C19.3999 8.84274 19.6209 8.51203 19.7716 8.14805C19.9224 7.78407 20 7.39397 20 7C20 6.60603 19.9224 6.21593 19.7716 5.85195C19.6209 5.48797 19.3999 5.15726 19.1213 4.87868C18.8427 4.6001 18.512 4.37913 18.1481 4.22836C17.7841 4.0776 17.394 4 17 4C16.2044 4 15.4413 4.31607 14.8787 4.87868C14.3161 5.44129 14 6.20435 14 7C14 7.79565 14.3161 8.55871 14.8787 9.12132C15.4413 9.68393 16.2044 10 17 10ZM7 20C7.79565 20 8.55871 19.6839 9.12132 19.1213C9.68393 18.5587 10 17.7956 10 17C10 16.2044 9.68393 15.4413 9.12132 14.8787C8.55871 14.3161 7.79565 14 7 14C6.20435 14 5.44129 14.3161 4.87868 14.8787C4.31607 15.4413 4 16.2044 4 17C4 17.7956 4.31607 18.5587 4.87868 19.1213C5.44129 19.6839 6.20435 20 7 20ZM17 20C17.7956 20 18.5587 19.6839 19.1213 19.1213C19.6839 18.5587 20 17.7956 20 17C20 16.2044 19.6839 15.4413 19.1213 14.8787C18.5587 14.3161 17.7956 14 17 14C16.2044 14 15.4413 14.3161 14.8787 14.8787C14.3161 15.4413 14 16.2044 14 17C14 17.7956 14.3161 18.5587 14.8787 19.1213C15.4413 19.6839 16.2044 20 17 20Z" fill="#1A1C1F"/>
</g>
<defs>
<clipPath id="clip0_83_249">
<rect width="24" height="24" fill="white"/>
</clipPath>
</defs>
</svg>
