<svg width="32" height="32" viewBox="0 0 32 32" fill="none" xmlns="http://www.w3.org/2000/svg">
<g clip-path="url(#clip0_83_248)">
<path fill-rule="evenodd" clip-rule="evenodd" d="M9 13C10.0609 13 11.0783 12.5786 11.8284 11.8284C12.5786 11.0783 13 10.0609 13 9C13 7.93913 12.5786 6.92172 11.8284 6.17157C11.0783 5.42143 10.0609 5 9 5C7.93913 5 6.92172 5.42143 6.17157 6.17157C5.42143 6.92172 5 7.93913 5 9C5 10.0609 5.42143 11.0783 6.17157 11.8284C6.92172 12.5786 7.93913 13 9 13ZM23 13C24.0609 13 25.0783 12.5786 25.8284 11.8284C26.5786 11.0783 27 10.0609 27 9C27 7.93913 26.5786 6.92172 25.8284 6.17157C25.0783 5.42143 24.0609 5 23 5C21.9391 5 20.9217 5.42143 20.1716 6.17157C19.4214 6.92172 19 7.93913 19 9C19 10.0609 19.4214 11.0783 20.1716 11.8284C20.9217 12.5786 21.9391 13 23 13ZM9 27C10.0609 27 11.0783 26.5786 11.8284 25.8284C12.5786 25.0783 13 24.0609 13 23C13 21.9391 12.5786 20.9217 11.8284 20.1716C11.0783 19.4214 10.0609 19 9 19C7.93913 19 6.92172 19.4214 6.17157 20.1716C5.42143 20.9217 5 21.9391 5 23C5 24.0609 5.42143 25.0783 6.17157 25.8284C6.92172 26.5786 7.93913 27 9 27ZM23 27C24.0609 27 25.0783 26.5786 25.8284 25.8284C26.5786 25.0783 27 24.0609 27 23C27 21.9391 26.5786 20.9217 25.8284 20.1716C25.0783 19.4214 24.0609 19 23 19C21.9391 19 20.9217 19.4214 20.1716 20.1716C19.4214 20.9217 19 21.9391 19 23C19 24.0609 19.4214 25.0783 20.1716 25.8284C20.9217 26.5786 21.9391 27 23 27Z" fill="#1A1C1F"/>
</g>
<defs>
<clipPath id="clip0_83_248">
<rect width="32" height="32" fill="white"/>
</clipPath>
</defs>
</svg>
