<svg width="28" height="28" viewBox="0 0 28 28" fill="none" xmlns="http://www.w3.org/2000/svg">
<g clip-path="url(#clip0_83_250)">
<path fill-rule="evenodd" clip-rule="evenodd" d="M7.875 11.375C8.80326 11.375 9.6935 11.0063 10.3499 10.3499C11.0063 9.6935 11.375 8.80326 11.375 7.875C11.375 6.94674 11.0063 6.0565 10.3499 5.40013C9.6935 4.74375 8.80326 4.375 7.875 4.375C6.94674 4.375 6.0565 4.74375 5.40013 5.40013C4.74375 6.0565 4.375 6.94674 4.375 7.875C4.375 8.80326 4.74375 9.6935 5.40013 10.3499C6.0565 11.0063 6.94674 11.375 7.875 11.375ZM20.125 11.375C21.0533 11.375 21.9435 11.0063 22.5999 10.3499C23.2563 9.6935 23.625 8.80326 23.625 7.875C23.625 6.94674 23.2563 6.0565 22.5999 5.40013C21.9435 4.74375 21.0533 4.375 20.125 4.375C19.1967 4.375 18.3065 4.74375 17.6501 5.40013C16.9937 6.0565 16.625 6.94674 16.625 7.875C16.625 8.80326 16.9937 9.6935 17.6501 10.3499C18.3065 11.0063 19.1967 11.375 20.125 11.375ZM7.875 23.625C8.80326 23.625 9.6935 23.2563 10.3499 22.5999C11.0063 21.9435 11.375 21.0533 11.375 20.125C11.375 19.1967 11.0063 18.3065 10.3499 17.6501C9.6935 16.9937 8.80326 16.625 7.875 16.625C6.94674 16.625 6.0565 16.9937 5.40013 17.6501C4.74375 18.3065 4.375 19.1967 4.375 20.125C4.375 21.0533 4.74375 21.9435 5.40013 22.5999C6.0565 23.2563 6.94674 23.625 7.875 23.625ZM20.125 23.625C21.0533 23.625 21.9435 23.2563 22.5999 22.5999C23.2563 21.9435 23.625 21.0533 23.625 20.125C23.625 19.1967 23.2563 18.3065 22.5999 17.6501C21.9435 16.9937 21.0533 16.625 20.125 16.625C19.1967 16.625 18.3065 16.9937 17.6501 17.6501C16.9937 18.3065 16.625 19.1967 16.625 20.125C16.625 21.0533 16.9937 21.9435 17.6501 22.5999C18.3065 23.2563 19.1967 23.625 20.125 23.625Z" fill="#1A1C1F"/>
</g>
<defs>
<clipPath id="clip0_83_250">
<rect width="28" height="28" fill="white"/>
</clipPath>
</defs>
</svg>
