<svg width="16" height="16" viewBox="0 0 16 16" fill="none" xmlns="http://www.w3.org/2000/svg">
<g clip-path="url(#clip0_83_252)">
<path fill-rule="evenodd" clip-rule="evenodd" d="M4.4 6.39999C4.93043 6.39999 5.43914 6.18928 5.81421 5.81421C6.18929 5.43913 6.4 4.93043 6.4 4.39999C6.4 3.86956 6.18929 3.36085 5.81421 2.98578C5.43914 2.61071 4.93043 2.39999 4.4 2.39999C3.86957 2.39999 3.36086 2.61071 2.98579 2.98578C2.61071 3.36085 2.4 3.86956 2.4 4.39999C2.4 4.93043 2.61071 5.43913 2.98579 5.81421C3.36086 6.18928 3.86957 6.39999 4.4 6.39999ZM11.6 6.39999C12.1304 6.39999 12.6391 6.18928 13.0142 5.81421C13.3893 5.43913 13.6 4.93043 13.6 4.39999C13.6 3.86956 13.3893 3.36085 13.0142 2.98578C12.6391 2.61071 12.1304 2.39999 11.6 2.39999C11.0696 2.39999 10.5609 2.61071 10.1858 2.98578C9.81071 3.36085 9.6 3.86956 9.6 4.39999C9.6 4.93043 9.81071 5.43913 10.1858 5.81421C10.5609 6.18928 11.0696 6.39999 11.6 6.39999ZM4.4 13.6C4.93043 13.6 5.43914 13.3893 5.81421 13.0142C6.18929 12.6391 6.4 12.1304 6.4 11.6C6.4 11.0696 6.18929 10.5609 5.81421 10.1858C5.43914 9.81071 4.93043 9.59999 4.4 9.59999C3.86957 9.59999 3.36086 9.81071 2.98579 10.1858C2.61071 10.5609 2.4 11.0696 2.4 11.6C2.4 12.1304 2.61071 12.6391 2.98579 13.0142C3.36086 13.3893 3.86957 13.6 4.4 13.6ZM11.6 13.6C12.1304 13.6 12.6391 13.3893 13.0142 13.0142C13.3893 12.6391 13.6 12.1304 13.6 11.6C13.6 11.0696 13.3893 10.5609 13.0142 10.1858C12.6391 9.81071 12.1304 9.59999 11.6 9.59999C11.0696 9.59999 10.5609 9.81071 10.1858 10.1858C9.81071 10.5609 9.6 11.0696 9.6 11.6C9.6 12.1304 9.81071 12.6391 10.1858 13.0142C10.5609 13.3893 11.0696 13.6 11.6 13.6Z" fill="#1A1C1F"/>
</g>
<defs>
<clipPath id="clip0_83_252">
<rect width="16" height="16" fill="white"/>
</clipPath>
</defs>
</svg>
