<svg width="14" height="14" viewBox="0 0 14 14" fill="none" xmlns="http://www.w3.org/2000/svg">
<g clip-path="url(#clip0_2622_118)">
<path fill-rule="evenodd" clip-rule="evenodd" d="M8.19822 2.00146L11.9884 5.74546C12.1033 5.85796 12.1708 6.01013 12.1771 6.17079C12.1834 6.33145 12.1281 6.48845 12.0224 6.60963C11.9167 6.7308 11.7687 6.80698 11.6087 6.82257C11.4486 6.83815 11.2887 6.79196 11.1616 6.69346L10.8454 6.38746L9.35742 7.86106C9.50022 8.09386 9.59742 8.34106 9.64722 8.59966C9.81642 9.46966 9.46602 10.3229 8.81082 11.1377C8.56327 11.4497 8.28441 11.7356 7.97862 11.9909C7.86865 12.0799 7.73189 12.1293 7.59039 12.1312C7.44889 12.133 7.31089 12.0872 7.19862 12.0011L5.01702 9.84886L2.93622 11.9093C2.82233 12.0219 2.66979 12.087 2.50964 12.0912C2.34948 12.0954 2.19375 12.0384 2.07412 11.9318C1.95448 11.8253 1.87994 11.6771 1.86566 11.5176C1.85137 11.358 1.89842 11.199 1.99722 11.0729L4.12122 8.96206L2.00922 6.87226C1.89733 6.7615 1.83096 6.61286 1.82319 6.45561C1.81541 6.29837 1.8668 6.14391 1.96722 6.02266C2.14422 5.80846 2.44122 5.50426 2.82882 5.19886C3.64962 4.55206 4.50762 4.20706 5.37942 4.37266C5.64342 4.42306 5.89542 4.52026 6.13242 4.66426L7.61862 3.19366L7.37142 2.94886C7.25656 2.83635 7.18905 2.68418 7.18274 2.52352C7.17642 2.36286 7.23177 2.20586 7.33746 2.08468C7.44314 1.96351 7.59116 1.88733 7.75118 1.87174C7.91121 1.85616 8.07115 1.90295 8.19822 2.00146Z" fill="#282D37"/>
</g>
<defs>
<clipPath id="clip0_2622_118">
<rect width="14" height="14" fill="white"/>
</clipPath>
</defs>
</svg>
