<svg width="20" height="20" viewBox="0 0 20 20" fill="none" xmlns="http://www.w3.org/2000/svg">
<g clip-path="url(#clip0_2622_112)">
<path fill-rule="evenodd" clip-rule="evenodd" d="M11.997 1.66907L18.314 7.90907C18.5055 8.09658 18.618 8.3502 18.6285 8.61797C18.639 8.88574 18.5468 9.1474 18.3706 9.34936C18.1945 9.55132 17.9478 9.67828 17.6811 9.70426C17.4144 9.73024 17.1478 9.65325 16.936 9.48907L16.409 8.97907L13.929 11.4351C14.167 11.8231 14.329 12.2351 14.412 12.6661C14.694 14.1161 14.11 15.5381 13.018 16.8961C12.6054 17.4162 12.1407 17.8926 11.631 18.3181C11.4477 18.4665 11.2198 18.5489 10.984 18.552C10.7482 18.5551 10.5182 18.4787 10.331 18.3351L6.69504 14.7481L3.22704 18.1821C3.03722 18.3699 2.78298 18.4783 2.51606 18.4853C2.24914 18.4923 1.98958 18.3973 1.79019 18.2197C1.59081 18.0421 1.46657 17.7952 1.44276 17.5292C1.41896 17.2633 1.49737 16.9983 1.66204 16.7881L5.20204 13.2701L1.68204 9.78707C1.49555 9.60248 1.38493 9.35475 1.37198 9.09267C1.35902 8.83059 1.44466 8.57316 1.61204 8.37107C1.90704 8.01407 2.40204 7.50707 3.04804 6.99807C4.41604 5.92007 5.84604 5.34507 7.29904 5.62107C7.73904 5.70507 8.15904 5.86707 8.55404 6.10707L11.031 3.65607L10.619 3.24807C10.4276 3.06056 10.3151 2.80695 10.3046 2.53918C10.294 2.27141 10.3863 2.00975 10.5624 1.80779C10.7386 1.60583 10.9853 1.47886 11.252 1.45288C11.5187 1.42691 11.7852 1.50489 11.997 1.66907Z" fill="#282D37"/>
</g>
<defs>
<clipPath id="clip0_2622_112">
<rect width="20" height="20" fill="white"/>
</clipPath>
</defs>
</svg>
