<svg width="28" height="28" viewBox="0 0 28 28" fill="none" xmlns="http://www.w3.org/2000/svg">
<g clip-path="url(#clip0_2622_108)">
<path fill-rule="evenodd" clip-rule="evenodd" d="M26.5501 11.2632C26.7078 11.4198 26.8 11.6306 26.808 11.8527C26.8159 12.0749 26.739 12.2917 26.5929 12.4593C26.4468 12.6268 26.2424 12.7324 26.0212 12.7547C25.8 12.7769 25.5786 12.7142 25.4021 12.5792L24.0974 11.299L19.1861 16.1614C22.9941 20.7945 16.4001 26.2414 16.0824 26.4987C15.9297 26.6223 15.7397 26.6909 15.5432 26.6935C15.3467 26.696 15.1551 26.6323 14.9992 26.5127L8.79893 20.3859L2.78943 26.3359C2.63137 26.4935 2.41905 26.5848 2.19593 26.591C1.9728 26.5972 1.75574 26.5179 1.58916 26.3693C1.42258 26.2207 1.31908 26.0141 1.29985 25.7917C1.28061 25.5693 1.34709 25.348 1.48568 25.173L7.55468 19.1557L1.45156 13.1138C1.30969 12.9736 1.21994 12.7892 1.19718 12.5911C1.17443 12.393 1.22003 12.1931 1.32643 12.0244C2.41143 10.6909 7.33418 5.59753 11.8186 8.87616L16.7334 4.01116L15.5268 2.81591C15.362 2.65263 15.2687 2.43057 15.2676 2.19855C15.2664 1.96653 15.3575 1.74355 15.5207 1.57866C15.5793 1.52003 16.1332 0.996782 16.7334 1.57866C17.9383 2.74503 21.2108 5.97378 26.5492 11.2649L26.5501 11.2632Z" fill="#282D37"/>
</g>
<defs>
<clipPath id="clip0_2622_108">
<rect width="28" height="28" fill="white"/>
</clipPath>
</defs>
</svg>
