<svg width="24" height="24" viewBox="0 0 24 24" fill="none" xmlns="http://www.w3.org/2000/svg">
<g clip-path="url(#clip0_2622_110)">
<path fill-rule="evenodd" clip-rule="evenodd" d="M14.2689 2.04996L21.9529 9.64496C22.1347 9.82372 22.2413 10.0652 22.251 10.32C22.2608 10.5747 22.1728 10.8236 22.0051 11.0157C21.8374 11.2078 21.6027 11.3285 21.3489 11.3533C21.0952 11.3781 20.8415 11.305 20.6399 11.149L19.8259 10.354L16.4379 13.71C16.7259 14.134 16.9309 14.582 17.0529 15.052C17.4669 16.752 16.9379 18.482 15.4659 20.24C14.8359 20.991 14.2409 21.588 13.8149 21.933C13.6403 22.0743 13.4232 22.1527 13.1986 22.1556C12.9741 22.1585 12.755 22.0857 12.5769 21.949L7.96686 17.397L3.53486 21.785C3.35398 21.9635 3.1119 22.0665 2.85782 22.073C2.60374 22.0794 2.35673 21.9889 2.167 21.8198C1.97726 21.6507 1.85903 21.4157 1.83635 21.1625C1.81366 20.9094 1.88821 20.6571 2.04486 20.457L6.54486 15.99L2.04486 11.536C1.88288 11.3757 1.7805 11.1649 1.75467 10.9385C1.72885 10.7121 1.78113 10.4836 1.90286 10.291C2.15086 9.89996 3.07086 9.03896 3.68786 8.55296C5.30086 7.28296 6.97486 6.61096 8.64986 6.92796C9.23122 7.03996 9.78354 7.26967 10.2729 7.60296L13.6599 4.25096L12.9559 3.55396C12.7756 3.37496 12.6702 3.13405 12.6611 2.88016C12.652 2.62627 12.7399 2.37844 12.9069 2.18699C13.0739 1.99555 13.3075 1.87484 13.5603 1.84939C13.8131 1.82394 14.066 1.89565 14.2679 2.04996H14.2689Z" fill="#282D37"/>
</g>
<defs>
<clipPath id="clip0_2622_110">
<rect width="24" height="24" fill="white"/>
</clipPath>
</defs>
</svg>
