<svg width="14" height="14" viewBox="0 0 14 14" fill="none" xmlns="http://www.w3.org/2000/svg">
<g clip-path="url(#clip0_2622_116)">
<path fill-rule="evenodd" clip-rule="evenodd" d="M8.39791 1.16834L12.8198 5.53634C12.9538 5.6676 13.0326 5.84513 13.0399 6.03257C13.0473 6.22001 12.9827 6.40317 12.8594 6.54454C12.7361 6.68591 12.5635 6.77479 12.3768 6.79298C12.1901 6.81116 12.0035 6.75727 11.8552 6.64234L11.4863 6.28534L9.75031 8.00454C9.91691 8.27614 10.0303 8.56454 10.0884 8.86624C10.2858 9.88124 9.87701 10.8766 9.11261 11.8272C8.8238 12.1913 8.49847 12.5248 8.14171 12.8226C8.01341 12.9265 7.85386 12.9842 7.68878 12.9864C7.52369 12.9885 7.36269 12.9351 7.23171 12.8345L4.68651 10.3236L2.25891 12.7274C2.12604 12.8589 1.94807 12.9348 1.76123 12.9397C1.57438 12.9446 1.39269 12.8781 1.25312 12.7538C1.11355 12.6295 1.02658 12.4566 1.00992 12.2705C0.993255 12.0843 1.04814 11.8988 1.16341 11.7516L3.64141 9.28904L1.17741 6.85094C1.04687 6.72173 0.969439 6.54832 0.96037 6.36486C0.951301 6.18141 1.01125 6.00121 1.12841 5.85975C1.33491 5.60984 1.68141 5.25494 2.13361 4.89864C3.09121 4.14404 4.09221 3.74154 5.10931 3.93474C5.41731 3.99354 5.71131 4.10694 5.98781 4.27494L7.72171 2.55924L7.43331 2.27364C7.2993 2.14239 7.22054 1.96486 7.21318 1.77742C7.20581 1.58998 7.27039 1.40682 7.39369 1.26544C7.51698 1.12407 7.68967 1.0352 7.87637 1.01701C8.06307 0.99883 8.24966 1.05342 8.39791 1.16834Z" fill="#282D37"/>
</g>
<defs>
<clipPath id="clip0_2622_116">
<rect width="14" height="14" fill="white"/>
</clipPath>
</defs>
</svg>
