<svg width="16" height="16" viewBox="0 0 16 16" fill="none" xmlns="http://www.w3.org/2000/svg">
<g clip-path="url(#clip0_2622_114)">
<path fill-rule="evenodd" clip-rule="evenodd" d="M9.59763 1.33523L14.6512 6.32723C14.8044 6.47724 14.8944 6.68013 14.9028 6.89435C14.9112 7.10856 14.8374 7.31789 14.6965 7.47946C14.5556 7.64103 14.3583 7.7426 14.1449 7.76338C13.9315 7.78416 13.7183 7.72257 13.5488 7.59123L13.1272 7.18323L11.1432 9.14803C11.3336 9.45843 11.4632 9.78803 11.5296 10.1328C11.7552 11.2928 11.288 12.4304 10.4144 13.5168C10.0844 13.9329 9.71255 14.3141 9.30483 14.6544C9.1582 14.7732 8.97586 14.8391 8.78719 14.8416C8.59852 14.844 8.41452 14.7829 8.26483 14.668L5.35603 11.7984L2.58163 14.5456C2.42977 14.6959 2.22639 14.7826 2.01285 14.7882C1.79931 14.7938 1.59166 14.7178 1.43215 14.5757C1.27264 14.4336 1.17326 14.2361 1.15421 14.0234C1.13517 13.8106 1.19789 13.5986 1.32963 13.4304L4.16163 10.616L1.34563 7.82963C1.19644 7.68196 1.10795 7.48377 1.09758 7.27411C1.08722 7.06445 1.15573 6.8585 1.28963 6.69683C1.52563 6.41123 1.92163 6.00563 2.43843 5.59843C3.53283 4.73603 4.67683 4.27603 5.83923 4.49683C6.19123 4.56403 6.52723 4.69363 6.84323 4.88563L8.82483 2.92483L8.49523 2.59843C8.34207 2.44842 8.25207 2.24553 8.24365 2.03132C8.23523 1.8171 8.30903 1.60777 8.44994 1.44621C8.59085 1.28464 8.78821 1.18306 9.00158 1.16228C9.21495 1.1415 9.42819 1.20389 9.59763 1.33523Z" fill="#282D37"/>
</g>
<defs>
<clipPath id="clip0_2622_114">
<rect width="16" height="16" fill="white"/>
</clipPath>
</defs>
</svg>
