<svg width="32" height="32" viewBox="0 0 32 32" fill="none" xmlns="http://www.w3.org/2000/svg">
<g clip-path="url(#clip0_2622_106)">
<path fill-rule="evenodd" clip-rule="evenodd" d="M30.3429 12.8722C30.5232 13.0512 30.6286 13.2921 30.6377 13.546C30.6468 13.7999 30.5589 14.0477 30.3919 14.2392C30.2249 14.4306 29.9913 14.5513 29.7385 14.5767C29.4857 14.6022 29.2327 14.5305 29.0309 14.3762L27.5399 12.9132L21.9269 18.4702C26.2789 23.7652 18.7429 29.9902 18.3799 30.2842C18.2053 30.4255 17.9883 30.5039 17.7637 30.5068C17.5391 30.5097 17.3201 30.4369 17.1419 30.3002L10.0559 23.2982L3.18792 30.0982C3.00729 30.2783 2.76464 30.3826 2.50963 30.3897C2.25463 30.3968 2.00656 30.3062 1.81618 30.1363C1.62581 29.9665 1.50753 29.7304 1.48554 29.4762C1.46356 29.2221 1.53953 28.9692 1.69792 28.7692L8.63392 21.8922L1.65892 14.9872C1.49679 14.827 1.39422 14.6163 1.36821 14.3899C1.34221 14.1634 1.39432 13.9349 1.51592 13.7422C2.75592 12.2182 8.38192 6.39718 13.5069 10.1442L19.1239 4.58418L17.7449 3.21818C17.5565 3.03158 17.4499 2.77779 17.4486 2.51263C17.4473 2.24746 17.5514 1.99263 17.7379 1.80418C17.8049 1.73718 18.4379 1.13918 19.1239 1.80418C20.5009 3.13718 24.2409 6.82718 30.3419 12.8742L30.3429 12.8722Z" fill="#282D37"/>
</g>
<defs>
<clipPath id="clip0_2622_106">
<rect width="32" height="32" fill="white"/>
</clipPath>
</defs>
</svg>
