<svg width="28" height="28" viewBox="0 0 28 28" fill="none" xmlns="http://www.w3.org/2000/svg">
<g clip-path="url(#clip0_83_272)">
<path fill-rule="evenodd" clip-rule="evenodd" d="M14 5.24994C14.492 5.24994 14.875 5.63294 14.875 6.12494V13.1249H21.875C22.367 13.1249 22.75 13.5079 22.75 13.9999C22.7515 14.1153 22.7298 14.2297 22.6864 14.3365C22.643 14.4434 22.5786 14.5404 22.497 14.622C22.4155 14.7035 22.3184 14.7679 22.2116 14.8113C22.1048 14.8548 21.9903 14.8764 21.875 14.8749H14.875V21.8749C14.8765 21.9903 14.8548 22.1047 14.8114 22.2115C14.768 22.3184 14.7036 22.4154 14.622 22.497C14.5405 22.5785 14.4434 22.6429 14.3366 22.6863C14.2298 22.7298 14.1153 22.7514 14 22.7499C13.8847 22.7514 13.7702 22.7298 13.6634 22.6863C13.5566 22.6429 13.4595 22.5785 13.378 22.497C13.2964 22.4154 13.232 22.3184 13.1886 22.2115C13.1451 22.1047 13.1235 21.9903 13.125 21.8749V14.8749H6.12499C6.00968 14.8764 5.89523 14.8548 5.78841 14.8113C5.68158 14.7679 5.58453 14.7035 5.50298 14.622C5.42144 14.5404 5.35704 14.4434 5.31359 14.3365C5.27014 14.2297 5.24852 14.1153 5.24999 13.9999C5.24999 13.5079 5.63299 13.1249 6.12499 13.1249H13.125V6.12494C13.125 5.63294 13.508 5.24994 14 5.24994Z" fill="#1A1C1F"/>
</g>
<defs>
<clipPath id="clip0_83_272">
<rect width="28" height="28" fill="white"/>
</clipPath>
</defs>
</svg>
