<svg width="12" height="12" viewBox="0 0 12 12" fill="none" xmlns="http://www.w3.org/2000/svg">
<g clip-path="url(#clip0_231_199)">
<path fill-rule="evenodd" clip-rule="evenodd" d="M6.00001 2.40002C6.15855 2.40048 6.31046 2.46366 6.42256 2.57576C6.53466 2.68786 6.59784 2.83977 6.59829 2.99831V5.40174H9.00172C9.16026 5.40219 9.31217 5.46537 9.42428 5.57747C9.53638 5.68957 9.59956 5.84149 9.60001 6.00002C9.59956 6.15856 9.53638 6.31047 9.42428 6.42258C9.31217 6.53468 9.16026 6.59786 9.00172 6.59831H6.59829V9.00174C6.59784 9.16027 6.53466 9.31219 6.42256 9.42429C6.31046 9.53639 6.15855 9.59957 6.00001 9.60002C5.84147 9.59957 5.68956 9.53639 5.57746 9.42429C5.46535 9.31219 5.40218 9.16027 5.40172 9.00174V6.59831H2.99829C2.83976 6.59786 2.68785 6.53468 2.57574 6.42258C2.46364 6.31047 2.40046 6.15856 2.40001 6.00002C2.40046 5.84149 2.46364 5.68957 2.57574 5.57747C2.68785 5.46537 2.83976 5.40219 2.99829 5.40174H5.40172V2.99831C5.40218 2.83977 5.46535 2.68786 5.57746 2.57576C5.68956 2.46366 5.84147 2.40048 6.00001 2.40002Z" fill="#1A1C1F"/>
</g>
<defs>
<clipPath id="clip0_231_199">
<rect width="12" height="12" fill="white"/>
</clipPath>
</defs>
</svg>
