<svg width="16" height="16" viewBox="0 0 16 16" fill="none" xmlns="http://www.w3.org/2000/svg">
<g clip-path="url(#clip0_83_271)">
<path fill-rule="evenodd" clip-rule="evenodd" d="M8 3.20001C8.21113 3.2008 8.4134 3.28503 8.56269 3.43432C8.71199 3.58362 8.79621 3.78588 8.797 3.99701V7.20301H12.003C12.2141 7.2038 12.4164 7.28803 12.5657 7.43732C12.715 7.58662 12.7992 7.78888 12.8 8.00001C12.7992 8.21115 12.715 8.41341 12.5657 8.5627C12.4164 8.712 12.2141 8.79622 12.003 8.79701H8.797V12.003C8.79621 12.2141 8.71199 12.4164 8.56269 12.5657C8.4134 12.715 8.21113 12.7992 8 12.8C7.78887 12.7992 7.5866 12.715 7.43731 12.5657C7.28801 12.4164 7.20379 12.2141 7.203 12.003V8.79701H3.997C3.78587 8.79622 3.5836 8.712 3.43431 8.5627C3.28501 8.41341 3.20079 8.21115 3.2 8.00001C3.20079 7.78888 3.28501 7.58662 3.43431 7.43732C3.5836 7.28803 3.78587 7.2038 3.997 7.20301H7.203V3.99701C7.20379 3.78588 7.28801 3.58362 7.43731 3.43432C7.5866 3.28503 7.78887 3.2008 8 3.20001Z" fill="#1A1C1F"/>
</g>
<defs>
<clipPath id="clip0_83_271">
<rect width="16" height="16" fill="white"/>
</clipPath>
</defs>
</svg>
