<svg width="20" height="20" viewBox="0 0 20 20" fill="none" xmlns="http://www.w3.org/2000/svg">
<g clip-path="url(#clip0_83_270)">
<path fill-rule="evenodd" clip-rule="evenodd" d="M10 4C10.2642 4.00079 10.5173 4.10609 10.7041 4.29289C10.8909 4.47969 10.9962 4.73282 10.997 4.997V9.003H15.003C15.2672 9.00379 15.5203 9.10909 15.7071 9.29589C15.8939 9.48269 15.9992 9.73582 16 10C15.9992 10.2642 15.8939 10.5173 15.7071 10.7041C15.5203 10.8909 15.2672 10.9962 15.003 10.997H10.997V15.003C10.9962 15.2672 10.8909 15.5203 10.7041 15.7071C10.5173 15.8939 10.2642 15.9992 10 16C9.73582 15.9992 9.48269 15.8939 9.29589 15.7071C9.10909 15.5203 9.00379 15.2672 9.003 15.003V10.997H4.997C4.73282 10.9962 4.47969 10.8909 4.29289 10.7041C4.10609 10.5173 4.00079 10.2642 4 10C4.00079 9.73582 4.10609 9.48269 4.29289 9.29589C4.47969 9.10909 4.73282 9.00379 4.997 9.003H9.003V4.997C9.00379 4.73282 9.10909 4.47969 9.29589 4.29289C9.48269 4.10609 9.73582 4.00079 10 4Z" fill="#1A1C1F"/>
</g>
<defs>
<clipPath id="clip0_83_270">
<rect width="20" height="20" fill="white"/>
</clipPath>
</defs>
</svg>
