<svg width="14" height="14" viewBox="0 0 14 14" fill="none" xmlns="http://www.w3.org/2000/svg">
<g clip-path="url(#clip0_83_274)">
<path fill-rule="evenodd" clip-rule="evenodd" d="M7 2.79999C7.18496 2.80052 7.36219 2.87422 7.49298 3.00501C7.62376 3.1358 7.69747 3.31303 7.698 3.49799V6.30199H10.502C10.687 6.30252 10.8642 6.37622 10.995 6.50701C11.1258 6.6378 11.1995 6.81503 11.2 6.99999C11.1995 7.18495 11.1258 7.36218 10.995 7.49297C10.8642 7.62375 10.687 7.69746 10.502 7.69799H7.698V10.502C7.69747 10.6869 7.62376 10.8642 7.49298 10.995C7.36219 11.1258 7.18496 11.1995 7 11.2C6.81504 11.1995 6.63781 11.1258 6.50702 10.995C6.37624 10.8642 6.30253 10.6869 6.302 10.502V7.69799H3.498C3.31304 7.69746 3.13581 7.62375 3.00502 7.49297C2.87424 7.36218 2.80053 7.18495 2.8 6.99999C2.80053 6.81503 2.87424 6.6378 3.00502 6.50701C3.13581 6.37622 3.31304 6.30252 3.498 6.30199H6.302V3.49799C6.30253 3.31303 6.37624 3.1358 6.50702 3.00501C6.63781 2.87422 6.81504 2.80052 7 2.79999Z" fill="#1A1C1F"/>
</g>
<defs>
<clipPath id="clip0_83_274">
<rect width="14" height="14" fill="white"/>
</clipPath>
</defs>
</svg>
