<svg width="14" height="14" viewBox="0 0 14 14" fill="none" xmlns="http://www.w3.org/2000/svg">
<g clip-path="url(#clip0_83_281)">
<path fill-rule="evenodd" clip-rule="evenodd" d="M9.38 1.40002C9.53397 1.39987 9.6837 1.45048 9.806 1.54402L12.395 4.12502C12.5061 4.24175 12.5778 4.3904 12.6 4.55002V11.2C12.6 11.938 11.9 12.6 11.2 12.6H2.8C2.062 12.6 1.4 11.9 1.4 11.2V2.80002C1.4 2.06202 2.1 1.40002 2.8 1.40002H9.38ZM4.2 2.80002H2.8V11.2H4.2V8.40002C4.2 8.04102 4.55 7.70002 4.9 7.70002H9.1C9.459 7.70002 9.8 8.05002 9.8 8.40002V11.2H11.2V4.91002L9.089 2.80002H8.4V4.20002C8.4 4.55902 8.05 4.90002 7.7 4.90002H4.9C4.541 4.90002 4.2 4.55002 4.2 4.20002V2.80002ZM8.4 9.10003H5.6V11.2H8.4V9.10003Z" fill="#1A1C1F"/>
</g>
<defs>
<clipPath id="clip0_83_281">
<rect width="14" height="14" fill="white"/>
</clipPath>
</defs>
</svg>
