<svg width="32" height="32" viewBox="0 0 32 32" fill="none" xmlns="http://www.w3.org/2000/svg">
<g clip-path="url(#clip0_83_276)">
<path fill-rule="evenodd" clip-rule="evenodd" d="M24.5 2C24.721 2 24.994 2.118 25.168 2.25L29.708 6.793C29.863 6.949 30 7.268 30 7.483V27C30 28.598 28.576 30 27 30H5C3.402 30 2 28.573 2 27V5C2 3.402 3.351 2 5 2H24.5ZM8 4H5C4.487 4 4 4.443 4 5V27C4 27.513 4.505 28 5 28H8V17C8 16.487 8.482 16 9 16H23C23.513 16 24 16.497 24 17V28H27C27.513 28 28 27.492 28 27V7.915L24.085 4H20V9C20 9.513 19.502 10 19 10H9C8.487 10 8 9.529 8 9V4ZM22 18H10V28H22V18ZM18 4H10V8H18V4Z" fill="#1A1C1F"/>
</g>
<defs>
<clipPath id="clip0_83_276">
<rect width="32" height="32" fill="white"/>
</clipPath>
</defs>
</svg>
