<svg width="24" height="24" viewBox="0 0 24 24" fill="none" xmlns="http://www.w3.org/2000/svg">
<g clip-path="url(#clip0_83_278)">
<path fill-rule="evenodd" clip-rule="evenodd" d="M17.4 2C17.6198 1.99998 17.8335 2.07238 18.008 2.206C19.2473 3.42898 20.4807 4.65799 21.708 5.893C21.92 6.121 21.971 6.283 22 6.5V19.5C22 20.825 21 22 19.5 22H4.5C3.175 22 2 21 2 19.5V4.5C2 3.175 3 2 4.5 2H17.4ZM6 4H4.5C4.255 4 4 4.256 4 4.5V19.5C4 19.745 4.265 20 4.5 20H6V13C6 12.487 6.482 12 7 12H17C17.513 12 18 12.534 18 13V20H19.5C19.745 20 20 19.738 20 19.5V7.015L16.985 4H14V7C14 7.513 13.503 8 13.001 8H7C6.487 8 6 7.496 6 7V4ZM16 14H8V20H16V14ZM12 4H8V6H12V4Z" fill="#1A1C1F"/>
</g>
<defs>
<clipPath id="clip0_83_278">
<rect width="24" height="24" fill="white"/>
</clipPath>
</defs>
</svg>
