<svg width="20" height="20" viewBox="0 0 20 20" fill="none" xmlns="http://www.w3.org/2000/svg">
<g clip-path="url(#clip0_185_791)">
<path fill-rule="evenodd" clip-rule="evenodd" d="M8.18245 5.77204L8 6L7.79635 6.00513C6.311 6.08014 5.01082 6.97119 4.38728 8.28029L4.354 8.354L4.28009 8.3876C2.91173 9.03902 2 10.4306 2 12C2 14.2091 3.79086 16 6 16L14.2052 15.9945C16.3436 15.871 18 14.1218 18 12L17.993 11.7629C17.9422 10.8982 17.6146 10.0881 17.0728 9.43907L16.987 9.343C16.9957 9.18079 17 9.06645 17 9C17 6.23858 14.7614 4 12 4C10.5914 4.06633 9.06571 4.7258 8.18245 5.77204ZM12 6C13.6569 6 15 7.34315 15 9C15 9.18071 14.9841 9.35892 14.9529 9.53343L14.8513 10.1008L15.2914 10.4731C15.7384 10.8513 16 11.4032 16 12C16 13.0607 15.1715 13.9356 14.1184 13.9966L6 14C4.89543 14 4 13.1046 4 12C4 11.1129 4.58294 10.339 5.41828 10.0856L5.92966 9.93055L6.08492 9.41922C6.33881 8.58304 7.11285 8 8 8C8.11622 8 8.23074 8.00981 8.34292 8.02912L9.03947 8.14904L9.38497 7.53243C9.91128 6.59312 10.9028 6 12 6Z" fill="#1A1C1F"/>
</g>
<defs>
<clipPath id="clip0_185_791">
<rect width="20" height="20" fill="white"/>
</clipPath>
</defs>
</svg>
