<svg width="12" height="12" viewBox="0 0 12 12" fill="none" xmlns="http://www.w3.org/2000/svg">
<g clip-path="url(#clip0_2204_3016)">
<path fill-rule="evenodd" clip-rule="evenodd" d="M6.45262 2.07008L6.66576 1.61905C6.73655 1.46925 6.6725 1.29042 6.5227 1.21963C6.47836 1.19868 6.42957 1.18892 6.38058 1.1912L5.88227 1.21438C3.32758 1.33321 1.30859 3.44255 1.30859 6.00912C1.30859 8.66009 3.45763 10.8091 6.10859 10.8091C7.98255 10.8091 9.66083 9.72521 10.4487 8.06122L10.6624 7.61003C10.7333 7.46028 10.6694 7.28141 10.5196 7.21051C10.4752 7.18949 10.4264 7.17969 10.3773 7.18197L9.87865 7.20509C9.82216 7.20771 9.76547 7.20903 9.70859 7.20903C7.72037 7.20903 6.10859 5.59725 6.10859 3.60903C6.10859 3.0693 6.22706 2.54741 6.45262 2.07008Z" fill="#1A1C1F"/>
</g>
<defs>
<clipPath id="clip0_2204_3016">
<rect width="12" height="12" fill="white"/>
</clipPath>
</defs>
</svg>
