<svg width="16" height="16" viewBox="0 0 16 16" fill="none" xmlns="http://www.w3.org/2000/svg">
<g clip-path="url(#clip0_2204_3012)">
<path fill-rule="evenodd" clip-rule="evenodd" d="M8.60358 2.76011L8.88776 2.15873C8.98215 1.959 8.89675 1.72056 8.69702 1.62618C8.6379 1.59824 8.57284 1.58522 8.50753 1.58826L7.8431 1.61917C4.43686 1.77761 1.74487 4.59006 1.74487 8.01216C1.74487 11.5468 4.61025 14.4122 8.14487 14.4122C10.6435 14.4122 12.8812 12.9669 13.9317 10.7483L14.2166 10.1467C14.3111 9.94705 14.2259 9.70855 14.0262 9.61401C13.9671 9.58599 13.9019 9.57293 13.8365 9.57596L13.1716 9.60679C13.0963 9.61028 13.0207 9.61204 12.9449 9.61204C10.2939 9.61204 8.14487 7.463 8.14487 4.81204C8.14487 4.09239 8.30282 3.39654 8.60358 2.76011Z" fill="#1A1C1F"/>
</g>
<defs>
<clipPath id="clip0_2204_3012">
<rect width="16" height="16" fill="white"/>
</clipPath>
</defs>
</svg>
