<svg width="20" height="20" viewBox="0 0 20 20" fill="none" xmlns="http://www.w3.org/2000/svg">
<g clip-path="url(#clip0_2204_3010)">
<path fill-rule="evenodd" clip-rule="evenodd" d="M10.7544 3.45014L11.1096 2.69842C11.2276 2.44875 11.1209 2.15071 10.8712 2.03272C10.7973 1.9978 10.716 1.98153 10.6343 1.98533L9.80381 2.02396C5.54601 2.22201 2.18103 5.73758 2.18103 10.0152C2.18103 14.4335 5.76275 18.0152 10.181 18.0152C13.3043 18.0152 16.1014 16.2087 17.4146 13.4354L17.7706 12.6834C17.8888 12.4338 17.7823 12.1357 17.5327 12.0175C17.4588 11.9825 17.3773 11.9662 17.2956 11.9699L16.4645 12.0085C16.3703 12.0129 16.2758 12.015 16.181 12.015C12.8673 12.015 10.181 9.32876 10.181 6.01505C10.181 5.11549 10.3785 4.24568 10.7544 3.45014Z" fill="#1A1C1F"/>
</g>
<defs>
<clipPath id="clip0_2204_3010">
<rect width="20" height="20" fill="white"/>
</clipPath>
</defs>
</svg>
