<svg width="32" height="32" viewBox="0 0 32 32" fill="none" xmlns="http://www.w3.org/2000/svg">
<g clip-path="url(#clip0_185_850)">
<path fill-rule="evenodd" clip-rule="evenodd" d="M16 25C16.5523 25 17 25.4477 17 26V29C17 29.5523 16.5523 30 16 30C15.4477 30 15 29.5523 15 29V26C15 25.4477 15.4477 25 16 25ZM9.63604 22.364C10.0266 22.7545 10.0266 23.3877 9.63604 23.7782L7.51472 25.8995C7.12419 26.29 6.49103 26.29 6.1005 25.8995C5.70998 25.509 5.70998 24.8758 6.1005 24.4853L8.22183 22.364C8.61235 21.9734 9.24551 21.9734 9.63604 22.364ZM23.7782 22.364L25.8995 24.4853C26.29 24.8758 26.29 25.509 25.8995 25.8995C25.509 26.29 24.8758 26.29 24.4853 25.8995L22.364 23.7782C21.9734 23.3877 21.9734 22.7545 22.364 22.364C22.7545 21.9734 23.3877 21.9734 23.7782 22.364ZM16 9C19.866 9 23 12.134 23 16C23 19.866 19.866 23 16 23C12.134 23 9 19.866 9 16C9 12.134 12.134 9 16 9ZM16 11C13.2386 11 11 13.2386 11 16C11 18.7614 13.2386 21 16 21C18.7614 21 21 18.7614 21 16C21 13.2386 18.7614 11 16 11ZM29 15C29.5523 15 30 15.4477 30 16C30 16.5523 29.5523 17 29 17H26C25.4477 17 25 16.5523 25 16C25 15.4477 25.4477 15 26 15H29ZM6 15C6.55228 15 7 15.4477 7 16C7 16.5523 6.55228 17 6 17H3C2.44772 17 2 16.5523 2 16C2 15.4477 2.44772 15 3 15H6ZM25.8995 6.1005C26.29 6.49103 26.29 7.12419 25.8995 7.51472L23.7782 9.63604C23.3877 10.0266 22.7545 10.0266 22.364 9.63604C21.9734 9.24551 21.9734 8.61235 22.364 8.22183L24.4853 6.1005C24.8758 5.70998 25.509 5.70998 25.8995 6.1005ZM7.51472 6.1005L9.63604 8.22183C10.0266 8.61235 10.0266 9.24551 9.63604 9.63604C9.24551 10.0266 8.61235 10.0266 8.22183 9.63604L6.1005 7.51472C5.70998 7.12419 5.70998 6.49103 6.1005 6.1005C6.49103 5.70998 7.12419 5.70998 7.51472 6.1005ZM16 2C16.5523 2 17 2.44772 17 3V6C17 6.55228 16.5523 7 16 7C15.4477 7 15 6.55228 15 6V3C15 2.44772 15.4477 2 16 2Z" fill="#1A1C1F"/>
</g>
<defs>
<clipPath id="clip0_185_850">
<rect width="32" height="32" fill="white"/>
</clipPath>
</defs>
</svg>
