<svg width="28" height="28" viewBox="0 0 28 28" fill="none" xmlns="http://www.w3.org/2000/svg">
<g clip-path="url(#clip0_185_852)">
<path fill-rule="evenodd" clip-rule="evenodd" d="M14 21.875C14.4832 21.875 14.875 22.2668 14.875 22.75V25.375C14.875 25.8582 14.4832 26.25 14 26.25C13.5168 26.25 13.125 25.8582 13.125 25.375V22.75C13.125 22.2668 13.5168 21.875 14 21.875ZM8.43153 19.5685C8.77324 19.9102 8.77324 20.4642 8.43153 20.8059L6.57538 22.6621C6.23367 23.0038 5.67965 23.0038 5.33794 22.6621C4.99623 22.3203 4.99623 21.7663 5.33794 21.4246L7.1941 19.5685C7.53581 19.2268 8.08983 19.2268 8.43153 19.5685ZM20.8059 19.5685L22.6621 21.4246C23.0038 21.7663 23.0038 22.3203 22.6621 22.6621C22.3203 23.0038 21.7663 23.0038 21.4246 22.6621L19.5685 20.8059C19.2268 20.4642 19.2268 19.9102 19.5685 19.5685C19.9102 19.2268 20.4642 19.2268 20.8059 19.5685ZM14 7.875C17.3827 7.875 20.125 10.6173 20.125 14C20.125 17.3827 17.3827 20.125 14 20.125C10.6173 20.125 7.875 17.3827 7.875 14C7.875 10.6173 10.6173 7.875 14 7.875ZM14 9.625C11.5838 9.625 9.625 11.5838 9.625 14C9.625 16.4162 11.5838 18.375 14 18.375C16.4162 18.375 18.375 16.4162 18.375 14C18.375 11.5838 16.4162 9.625 14 9.625ZM25.375 13.125C25.8582 13.125 26.25 13.5168 26.25 14C26.25 14.4832 25.8582 14.875 25.375 14.875H22.75C22.2668 14.875 21.875 14.4832 21.875 14C21.875 13.5168 22.2668 13.125 22.75 13.125H25.375ZM5.25 13.125C5.73325 13.125 6.125 13.5168 6.125 14C6.125 14.4832 5.73325 14.875 5.25 14.875H2.625C2.14175 14.875 1.75 14.4832 1.75 14C1.75 13.5168 2.14175 13.125 2.625 13.125H5.25ZM22.6621 5.33794C23.0038 5.67965 23.0038 6.23367 22.6621 6.57538L20.8059 8.43153C20.4642 8.77324 19.9102 8.77324 19.5685 8.43153C19.2268 8.08983 19.2268 7.53581 19.5685 7.1941L21.4246 5.33794C21.7663 4.99623 22.3203 4.99623 22.6621 5.33794ZM6.57538 5.33794L8.43153 7.1941C8.77324 7.53581 8.77324 8.08983 8.43153 8.43153C8.08983 8.77324 7.53581 8.77324 7.1941 8.43153L5.33794 6.57538C4.99623 6.23367 4.99623 5.67965 5.33794 5.33794C5.67965 4.99623 6.23367 4.99623 6.57538 5.33794ZM14 1.75C14.4832 1.75 14.875 2.14175 14.875 2.625V5.25C14.875 5.73325 14.4832 6.125 14 6.125C13.5168 6.125 13.125 5.73325 13.125 5.25V2.625C13.125 2.14175 13.5168 1.75 14 1.75Z" fill="#1A1C1F"/>
</g>
<defs>
<clipPath id="clip0_185_852">
<rect width="28" height="28" fill="white"/>
</clipPath>
</defs>
</svg>
