<svg width="12" height="12" viewBox="0 0 12 12" fill="none" xmlns="http://www.w3.org/2000/svg">
<g clip-path="url(#clip0_232_219)">
<path fill-rule="evenodd" clip-rule="evenodd" d="M6.00002 10.7996C3.91802 10.7996 2.34827 9.21639 2.34827 7.11676C2.34827 6.29176 2.68389 5.38801 3.34464 4.43139C3.34464 4.43139 4.64627 2.49376 5.23952 1.60314C5.40752 1.35151 5.68802 1.20076 5.99027 1.20001H5.99214C6.23214 1.20001 6.45864 1.29489 6.62627 1.45989C6.67727 1.49889 6.72264 1.54651 6.76014 1.60314C7.35452 2.49526 8.65952 4.43776 8.65952 4.43776C9.31614 5.38839 9.65177 6.29176 9.65177 7.11714C9.65177 9.21714 8.08202 10.7996 6.00002 10.7996ZM6.00002 2.62539C5.35164 3.59514 4.33614 5.10676 4.33614 5.10676C3.81189 5.86539 3.54789 6.53964 3.54789 7.11639C3.54789 8.55526 4.57914 9.59964 5.99964 9.59964C7.42014 9.59964 8.45177 8.55526 8.45177 7.11639C8.45177 6.53964 8.18814 5.86576 7.66802 5.11276C7.66427 5.10714 6.64802 3.59514 6.00002 2.62539Z" fill="#1A1C1F"/>
</g>
<defs>
<clipPath id="clip0_232_219">
<rect width="12" height="12" fill="white"/>
</clipPath>
</defs>
</svg>
