<svg width="12" height="12" viewBox="0 0 12 12" fill="none" xmlns="http://www.w3.org/2000/svg">
<g clip-path="url(#clip0_232_435)">
<path fill-rule="evenodd" clip-rule="evenodd" d="M9.29946 9.60003C9.63083 9.60003 9.89946 9.86866 9.89946 10.2C9.89946 10.5077 9.6547 10.8 9.29946 10.8H2.69946C2.36809 10.8 2.09946 10.5314 2.09946 10.2C2.09946 9.89233 2.35634 9.60003 2.69946 9.60003H9.29946ZM5.4628 1.53164C5.67228 1.11268 6.24971 1.09063 6.49792 1.46549L7.73166 3.92343L9.86664 2.5008C10.2791 2.22586 10.8623 2.55293 10.7962 3.06491C10.4257 4.75557 10.022 6.57731 9.58517 8.53013C9.52925 8.78177 9.31999 8.96686 9.0689 8.99596L2.99946 8.99997C2.74168 8.99997 2.5156 8.83584 2.43272 8.59704L1.21375 3.13019C1.10134 2.62434 1.63477 2.23454 2.0754 2.46692L4.26666 3.92343L5.4628 1.53164ZM5.99946 3.14163L5.03612 5.06835C4.88548 5.36963 4.52021 5.48406 4.22803 5.33521L2.70906 4.32783L3.48066 7.79943H8.51766L9.28926 4.32783L7.83228 5.29926C7.57203 5.47276 7.1663 5.41906 6.99826 5.13003C6.67988 4.49974 6.34694 3.83695 5.99946 3.14163Z" fill="#1A1C1F"/>
</g>
<defs>
<clipPath id="clip0_232_435">
<rect width="12" height="12" fill="white"/>
</clipPath>
</defs>
</svg>
