<svg width="16" height="16" viewBox="0 0 16 16" fill="none" xmlns="http://www.w3.org/2000/svg">
<g clip-path="url(#clip0_187_375)">
<path fill-rule="evenodd" clip-rule="evenodd" d="M8.00002 2.39999C11.0928 2.39999 13.6 4.90719 13.6 7.99999C13.6 11.0928 11.0928 13.6 8.00002 13.6C4.90722 13.6 2.40002 11.0928 2.40002 7.99999C2.40002 4.90719 4.90722 2.39999 8.00002 2.39999ZM8.00002 3.99999C5.79442 3.99999 4.00002 5.79439 4.00002 7.99999C4.00002 10.2056 5.79442 12 8.00002 12C10.2056 12 12 10.2056 12 7.99999C12 5.79439 10.2056 3.99999 8.00002 3.99999ZM9.60002 8.79999C10.0416 8.79999 10.4 9.15759 10.4 9.59999C10.4 10.0424 10.0416 10.4 9.60002 10.4H6.40002C5.95842 10.4 5.60002 10.0424 5.60002 9.59999C5.60002 9.15759 5.95842 8.79999 6.40002 8.79999H9.60002ZM6.40002 5.59999C6.95202 5.59999 7.40002 6.04799 7.40002 6.59999C7.40002 7.15199 6.95202 7.59999 6.40002 7.59999C5.84802 7.59999 5.40002 7.15199 5.40002 6.59999C5.40002 6.04799 5.84802 5.59999 6.40002 5.59999ZM9.60002 5.59999C10.152 5.59999 10.6 6.04799 10.6 6.59999C10.6 7.15199 10.152 7.59999 9.60002 7.59999C9.04802 7.59999 8.60002 7.15199 8.60002 6.59999C8.60002 6.04799 9.04802 5.59999 9.60002 5.59999Z" fill="#1A1C1F"/>
</g>
<defs>
<clipPath id="clip0_187_375">
<rect width="16" height="16" fill="white"/>
</clipPath>
</defs>
</svg>
