<svg width="14" height="14" viewBox="0 0 14 14" fill="none" xmlns="http://www.w3.org/2000/svg">
<g clip-path="url(#clip0_187_364)">
<path fill-rule="evenodd" clip-rule="evenodd" d="M10.5 7C10.5 8.9299 8.92988 10.5 6.99998 10.5C5.07008 10.5 3.49998 8.9299 3.49998 7C3.49998 5.0701 5.07008 3.5 6.99998 3.5C8.92988 3.5 10.5 5.0701 10.5 7ZM2.09998 7C2.09998 9.7062 4.29378 11.9 6.99998 11.9C9.70618 11.9 11.9 9.7062 11.9 7C11.9 4.2938 9.70618 2.1 6.99998 2.1C4.29378 2.1 2.09998 4.2938 2.09998 7ZM6.62758 6.1789C6.80818 5.8478 6.68638 5.4446 6.36158 5.2528C6.03608 5.0596 5.61118 5.1737 5.40818 5.4915C5.39348 5.5146 5.31088 5.6322 5.15968 5.6364C4.77328 5.6483 4.46948 5.971 4.48068 6.3574C4.49188 6.7361 4.80268 7.0364 5.17998 7.0364H5.20098C6.14878 7.0077 6.58138 6.2636 6.62758 6.1789ZM8.84028 5.6364C8.69328 5.6322 8.61138 5.5216 8.59248 5.4936C8.40278 5.1667 7.98558 5.0463 7.65098 5.2297C7.31148 5.4152 7.18618 5.8401 7.37168 6.1789C7.41788 6.2636 7.85048 7.0077 8.79828 7.0364H8.81928C9.19658 7.0364 9.50738 6.7361 9.51858 6.3574C9.53118 5.9703 9.22738 5.6476 8.84028 5.6364ZM8.66178 8.3426C8.55258 7.9002 8.06328 7.063 6.99788 7.063C5.94018 7.063 5.43548 7.8925 5.31648 8.3307C5.25558 8.554 5.34308 8.7892 5.52998 8.9264C5.71758 9.0643 5.97308 9.0692 6.16838 8.9432C6.18028 8.9355 6.47008 8.7535 6.98808 8.7535C7.49628 8.7535 7.78538 8.9292 7.80638 8.9432C7.90088 9.0069 8.01008 9.0384 8.11858 9.0384C8.22988 9.0384 8.34048 9.0055 8.43638 8.9397C8.62748 8.8067 8.71778 8.5694 8.66178 8.3426Z" fill="#1A1C1F"/>
</g>
<defs>
<clipPath id="clip0_187_364">
<rect width="14" height="14" fill="white"/>
</clipPath>
</defs>
</svg>
