<svg width="16" height="16" viewBox="0 0 16 16" fill="none" xmlns="http://www.w3.org/2000/svg">
<g clip-path="url(#clip0_187_388)">
<path fill-rule="evenodd" clip-rule="evenodd" d="M8.00002 2.39999C11.0928 2.39999 13.6 4.90719 13.6 7.99999C13.6 11.0928 11.0928 13.6 8.00002 13.6C4.90722 13.6 2.40002 11.0928 2.40002 7.99999C2.40002 4.90719 4.90722 2.39999 8.00002 2.39999ZM8.00002 3.99999C5.79442 3.99999 4.00002 5.79439 4.00002 7.99999C4.00002 10.2056 5.79442 12 8.00002 12C10.2056 12 12 10.2056 12 7.99999C12 5.79439 10.2056 3.99999 8.00002 3.99999ZM7.99762 8.17759C9.21202 8.17759 10.0632 8.92639 10.156 9.01199C10.4816 9.31039 10.5032 9.81679 10.204 10.1424C10.0464 10.3136 9.83122 10.4008 9.61442 10.4008C9.42402 10.4 9.23202 10.332 9.08002 10.1936C9.06082 10.1768 8.59122 9.77679 7.99842 9.77679C7.39602 9.77679 6.92322 10.1864 6.91842 10.1904C6.58882 10.48 6.08482 10.4544 5.79122 10.1264C5.49842 9.79999 5.52002 9.30159 5.84402 9.00559C5.93682 8.92079 6.78322 8.17759 7.99762 8.17759ZM6.40002 5.59999C6.95231 5.59999 7.40002 6.04771 7.40002 6.59999C7.40002 7.15228 6.95231 7.59999 6.40002 7.59999C5.84774 7.59999 5.40002 7.15228 5.40002 6.59999C5.40002 6.04771 5.84774 5.59999 6.40002 5.59999ZM9.60002 5.59999C10.1523 5.59999 10.6 6.04771 10.6 6.59999C10.6 7.15228 10.1523 7.59999 9.60002 7.59999C9.04774 7.59999 8.60002 7.15228 8.60002 6.59999C8.60002 6.04771 9.04774 5.59999 9.60002 5.59999Z" fill="#1A1C1F"/>
</g>
<defs>
<clipPath id="clip0_187_388">
<rect width="16" height="16" fill="white"/>
</clipPath>
</defs>
</svg>
