<svg width="32" height="32" viewBox="0 0 32 32" fill="none" xmlns="http://www.w3.org/2000/svg">
<g clip-path="url(#clip0_187_380)">
<path fill-rule="evenodd" clip-rule="evenodd" d="M16 4C22.627 4 28 9.373 28 16C28 22.627 22.627 28 16 28C9.373 28 4 22.627 4 16C4 9.373 9.373 4 16 4ZM16 5.693C10.317 5.693 5.693 10.317 5.693 16C5.693 21.683 10.317 26.307 16 26.307C21.683 26.307 26.307 21.683 26.307 16C26.307 10.317 21.683 5.693 16 5.693ZM16 17.5C19.356 17.5 21.578 19.702 21.671 19.796C22.06 20.189 22.057 20.821 21.665 21.21C21.47 21.403 21.215 21.5 20.961 21.5C20.704 21.5 20.446 21.401 20.251 21.204C20.237 21.19 18.502 19.5 16 19.5C13.468 19.5 11.766 21.188 11.749 21.204C11.36 21.596 10.726 21.599 10.335 21.21C9.943 20.821 9.94 20.189 10.329 19.796C10.422 19.702 12.644 17.5 16 17.5ZM12.5 11C13.6046 11 14.5 11.8954 14.5 13C14.5 14.1046 13.6046 15 12.5 15C11.3954 15 10.5 14.1046 10.5 13C10.5 11.8954 11.3954 11 12.5 11ZM19.5 11C20.6046 11 21.5 11.8954 21.5 13C21.5 14.1046 20.6046 15 19.5 15C18.3954 15 17.5 14.1046 17.5 13C17.5 11.8954 18.3954 11 19.5 11Z" fill="#1A1C1F"/>
</g>
<defs>
<clipPath id="clip0_187_380">
<rect width="32" height="32" fill="white"/>
</clipPath>
</defs>
</svg>
