<svg width="12" height="12" viewBox="0 0 12 12" fill="none" xmlns="http://www.w3.org/2000/svg">
<g clip-path="url(#clip0_232_443)">
<path fill-rule="evenodd" clip-rule="evenodd" d="M5.99999 1.79999C8.31959 1.79999 10.2 3.68039 10.2 5.99999C10.2 8.31959 8.31959 10.2 5.99999 10.2C3.68039 10.2 1.79999 8.31959 1.79999 5.99999C1.79999 3.68039 3.68039 1.79999 5.99999 1.79999ZM5.99999 2.99999C4.34579 2.99999 2.99999 4.34579 2.99999 5.99999C2.99999 7.65419 4.34579 8.99999 5.99999 8.99999C7.65419 8.99999 8.99999 7.65419 8.99999 5.99999C8.99999 4.34579 7.65419 2.99999 5.99999 2.99999ZM5.99819 6.13319C6.90899 6.13319 7.54739 6.69479 7.61699 6.75899C7.86119 6.98279 7.87739 7.36259 7.65299 7.60679C7.53479 7.73519 7.37339 7.80059 7.21079 7.80059C7.06799 7.79999 6.92399 7.74899 6.80999 7.64519C6.79559 7.63259 6.44339 7.33259 5.99879 7.33259C5.54699 7.33259 5.19239 7.63979 5.18879 7.64279C4.94159 7.85999 4.56359 7.84079 4.34339 7.59479C4.12379 7.34999 4.13999 6.97619 4.38299 6.75419C4.45259 6.69059 5.08739 6.13319 5.99819 6.13319ZM4.79999 4.19999C5.2142 4.19999 5.54999 4.53577 5.54999 4.94999C5.54999 5.3642 5.2142 5.69999 4.79999 5.69999C4.38577 5.69999 4.04999 5.3642 4.04999 4.94999C4.04999 4.53577 4.38577 4.19999 4.79999 4.19999ZM7.19999 4.19999C7.6142 4.19999 7.94999 4.53577 7.94999 4.94999C7.94999 5.3642 7.6142 5.69999 7.19999 5.69999C6.78577 5.69999 6.44999 5.3642 6.44999 4.94999C6.44999 4.53577 6.78577 4.19999 7.19999 4.19999Z" fill="#1A1C1F"/>
</g>
<defs>
<clipPath id="clip0_232_443">
<rect width="12" height="12" fill="white"/>
</clipPath>
</defs>
</svg>
