<svg width="32" height="32" viewBox="0 0 32 32" fill="none" xmlns="http://www.w3.org/2000/svg">
<g clip-path="url(#clip0_187_393)">
<path fill-rule="evenodd" clip-rule="evenodd" d="M16 4C22.627 4 28 9.373 28 16C28 22.627 22.627 28 16 28C9.373 28 4 22.627 4 16C4 9.373 9.373 4 16 4ZM16 5.693C10.317 5.693 5.693 10.317 5.693 16C5.693 21.683 10.317 26.307 16 26.307C21.683 26.307 26.307 21.683 26.307 16C26.307 10.317 21.683 5.693 16 5.693ZM20.961 18C21.215 18 21.47 18.097 21.665 18.29C22.057 18.679 22.06 19.311 21.671 19.704C21.578 19.798 19.356 22 16 22C12.644 22 10.422 19.798 10.329 19.704C9.94 19.311 9.943 18.679 10.335 18.29C10.726 17.901 11.36 17.904 11.749 18.296C11.766 18.312 13.468 20 16 20C18.502 20 20.237 18.31 20.251 18.296C20.446 18.099 20.704 18 20.961 18ZM12.5 11C13.6046 11 14.5 11.8954 14.5 13C14.5 14.1046 13.6046 15 12.5 15C11.3954 15 10.5 14.1046 10.5 13C10.5 11.8954 11.3954 11 12.5 11ZM19.5 11C20.6046 11 21.5 11.8954 21.5 13C21.5 14.1046 20.6046 15 19.5 15C18.3954 15 17.5 14.1046 17.5 13C17.5 11.8954 18.3954 11 19.5 11Z" fill="#1A1C1F"/>
</g>
<defs>
<clipPath id="clip0_187_393">
<rect width="32" height="32" fill="white"/>
</clipPath>
</defs>
</svg>
