<svg width="14" height="14" viewBox="0 0 14 14" fill="none" xmlns="http://www.w3.org/2000/svg">
<g clip-path="url(#clip0_187_377)">
<path fill-rule="evenodd" clip-rule="evenodd" d="M6.99998 2.10001C9.70618 2.10001 11.9 4.29381 11.9 7.00001C11.9 9.70621 9.70618 11.9 6.99998 11.9C4.29378 11.9 2.09998 9.70621 2.09998 7.00001C2.09998 4.29381 4.29378 2.10001 6.99998 2.10001ZM6.99998 3.50001C5.07008 3.50001 3.49998 5.07011 3.49998 7.00001C3.49998 8.92991 5.07008 10.5 6.99998 10.5C8.92988 10.5 10.5 8.92991 10.5 7.00001C10.5 5.07011 8.92988 3.50001 6.99998 3.50001ZM8.39998 7.70001C8.78638 7.70001 9.09998 8.01291 9.09998 8.40001C9.09998 8.78711 8.78638 9.10001 8.39998 9.10001H5.59998C5.21358 9.10001 4.89998 8.78711 4.89998 8.40001C4.89998 8.01291 5.21358 7.70001 5.59998 7.70001H8.39998ZM5.59998 4.90001C6.08298 4.90001 6.47498 5.29201 6.47498 5.77501C6.47498 6.25801 6.08298 6.65001 5.59998 6.65001C5.11698 6.65001 4.72498 6.25801 4.72498 5.77501C4.72498 5.29201 5.11698 4.90001 5.59998 4.90001ZM8.39998 4.90001C8.88298 4.90001 9.27498 5.29201 9.27498 5.77501C9.27498 6.25801 8.88298 6.65001 8.39998 6.65001C7.91698 6.65001 7.52498 6.25801 7.52498 5.77501C7.52498 5.29201 7.91698 4.90001 8.39998 4.90001Z" fill="#1A1C1F"/>
</g>
<defs>
<clipPath id="clip0_187_377">
<rect width="14" height="14" fill="white"/>
</clipPath>
</defs>
</svg>
