<svg width="12" height="12" viewBox="0 0 12 12" fill="none" xmlns="http://www.w3.org/2000/svg">
<g clip-path="url(#clip0_232_445)">
<path fill-rule="evenodd" clip-rule="evenodd" d="M5.99999 1.79999C8.31959 1.79999 10.2 3.68039 10.2 5.99999C10.2 8.31959 8.31959 10.2 5.99999 10.2C3.68039 10.2 1.79999 8.31959 1.79999 5.99999C1.79999 3.68039 3.68039 1.79999 5.99999 1.79999ZM5.99999 2.99999C4.34579 2.99999 2.99999 4.34579 2.99999 5.99999C2.99999 7.65419 4.34579 8.99999 5.99999 8.99999C7.65419 8.99999 8.99999 7.65419 8.99999 5.99999C8.99999 4.34579 7.65419 2.99999 5.99999 2.99999ZM7.21079 6.43199C7.37339 6.43199 7.53479 6.49739 7.65299 6.62579C7.87739 6.86999 7.86119 7.24979 7.61699 7.47359C7.54739 7.53779 6.90899 8.09939 5.99819 8.09939C5.08739 8.09939 4.45259 7.54199 4.38299 7.47839C4.13999 7.25639 4.12379 6.88259 4.34339 6.63779C4.56359 6.39179 4.94159 6.37259 5.18879 6.58979C5.19239 6.59279 5.54699 6.89999 5.99879 6.89999C6.44339 6.89999 6.79559 6.59999 6.80999 6.58739C6.92399 6.48359 7.06799 6.43259 7.21079 6.43199ZM4.79999 4.19999C5.2142 4.19999 5.54999 4.53577 5.54999 4.94999C5.54999 5.3642 5.2142 5.69999 4.79999 5.69999C4.38577 5.69999 4.04999 5.3642 4.04999 4.94999C4.04999 4.53577 4.38577 4.19999 4.79999 4.19999ZM7.19999 4.19999C7.6142 4.19999 7.94999 4.53577 7.94999 4.94999C7.94999 5.3642 7.6142 5.69999 7.19999 5.69999C6.78577 5.69999 6.44999 5.3642 6.44999 4.94999C6.44999 4.53577 6.78577 4.19999 7.19999 4.19999Z" fill="#1A1C1F"/>
</g>
<defs>
<clipPath id="clip0_232_445">
<rect width="12" height="12" fill="white"/>
</clipPath>
</defs>
</svg>
