<svg width="20" height="20" viewBox="0 0 20 20" fill="none" xmlns="http://www.w3.org/2000/svg">
<g clip-path="url(#clip0_187_386)">
<path fill-rule="evenodd" clip-rule="evenodd" d="M10 3C13.866 3 17 6.134 17 10C17 13.866 13.866 17 10 17C6.134 17 3 13.866 3 10C3 6.134 6.134 3 10 3ZM10 5C7.243 5 5 7.243 5 10C5 12.757 7.243 15 10 15C12.757 15 15 12.757 15 10C15 7.243 12.757 5 10 5ZM9.997 10.222C11.515 10.222 12.579 11.158 12.695 11.265C13.102 11.638 13.129 12.271 12.755 12.678C12.558 12.892 12.289 13.001 12.018 13.001C11.78 13 11.54 12.915 11.35 12.742C11.326 12.721 10.739 12.221 9.998 12.221C9.245 12.221 8.654 12.733 8.648 12.738C8.236 13.1 7.606 13.068 7.239 12.658C6.873 12.25 6.9 11.627 7.305 11.257C7.421 11.151 8.479 10.222 9.997 10.222ZM8 7C8.69036 7 9.25 7.55964 9.25 8.25C9.25 8.94036 8.69036 9.5 8 9.5C7.30964 9.5 6.75 8.94036 6.75 8.25C6.75 7.55964 7.30964 7 8 7ZM12 7C12.6904 7 13.25 7.55964 13.25 8.25C13.25 8.94036 12.6904 9.5 12 9.5C11.3096 9.5 10.75 8.94036 10.75 8.25C10.75 7.55964 11.3096 7 12 7Z" fill="#1A1C1F"/>
</g>
<defs>
<clipPath id="clip0_187_386">
<rect width="20" height="20" fill="white"/>
</clipPath>
</defs>
</svg>
