<svg width="24" height="24" viewBox="0 0 24 24" fill="none" xmlns="http://www.w3.org/2000/svg">
<g clip-path="url(#clip0_187_397)">
<path fill-rule="evenodd" clip-rule="evenodd" d="M12 3C14.3869 3 16.6761 3.94821 18.364 5.63604C20.0518 7.32387 21 9.61305 21 12C21 14.3869 20.0518 16.6761 18.364 18.364C16.6761 20.0518 14.3869 21 12 21C9.61305 21 7.32387 20.0518 5.63604 18.364C3.94821 16.6761 3 14.3869 3 12C3 9.61305 3.94821 7.32387 5.63604 5.63604C7.32387 3.94821 9.61305 3 12 3ZM12 5C8.14 5 5 8.14 5 12C5 15.86 8.14 19 12 19C15.86 19 19 15.86 19 12C19 8.14 15.86 5 12 5ZM15.315 13.501C15.5243 13.5012 15.7283 13.567 15.8983 13.6892C16.0683 13.8114 16.1957 13.9838 16.2626 14.1821C16.3295 14.3805 16.3325 14.5948 16.2712 14.795C16.2099 14.9952 16.0875 15.1711 15.921 15.298C15.856 15.347 14.309 16.5 11.999 16.5C9.689 16.5 8.141 15.347 8.077 15.298C7.86711 15.1386 7.72887 14.9026 7.69252 14.6415C7.65617 14.3805 7.72465 14.1157 7.883 13.905C8.04165 13.6934 8.27756 13.553 8.53926 13.5146C8.80096 13.4762 9.06723 13.5429 9.28 13.7C9.291 13.708 10.386 14.5 11.999 14.5C13.602 14.5 14.695 13.717 14.718 13.7C14.8901 13.5706 15.0997 13.5008 15.315 13.501ZM9.3 8.5C9.69782 8.5 10.0794 8.65804 10.3607 8.93934C10.642 9.22064 10.8 9.60218 10.8 10C10.8 10.3978 10.642 10.7794 10.3607 11.0607C10.0794 11.342 9.69782 11.5 9.3 11.5C8.90218 11.5 8.52064 11.342 8.23934 11.0607C7.95804 10.7794 7.8 10.3978 7.8 10C7.8 9.60218 7.95804 9.22064 8.23934 8.93934C8.52064 8.65804 8.90218 8.5 9.3 8.5ZM14.7 8.5C15.0978 8.5 15.4794 8.65804 15.7607 8.93934C16.042 9.22064 16.2 9.60218 16.2 10C16.2 10.3978 16.042 10.7794 15.7607 11.0607C15.4794 11.342 15.0978 11.5 14.7 11.5C14.3022 11.5 13.9206 11.342 13.6393 11.0607C13.358 10.7794 13.2 10.3978 13.2 10C13.2 9.60218 13.358 9.22064 13.6393 8.93934C13.9206 8.65804 14.3022 8.5 14.7 8.5Z" fill="#1A1C1F"/>
</g>
<defs>
<clipPath id="clip0_187_397">
<rect width="24" height="24" fill="white"/>
</clipPath>
</defs>
</svg>
