<svg width="20" height="20" viewBox="0 0 20 20" fill="none" xmlns="http://www.w3.org/2000/svg">
<g clip-path="url(#clip0_187_373)">
<path fill-rule="evenodd" clip-rule="evenodd" d="M10 3C13.866 3 17 6.134 17 10C17 13.866 13.866 17 10 17C6.134 17 3 13.866 3 10C3 6.134 6.134 3 10 3ZM10 5C7.243 5 5 7.243 5 10C5 12.757 7.243 15 10 15C12.757 15 15 12.757 15 10C15 7.243 12.757 5 10 5ZM12 11C12.552 11 13 11.447 13 12C13 12.553 12.552 13 12 13H8C7.448 13 7 12.553 7 12C7 11.447 7.448 11 8 11H12ZM8 7C8.69 7 9.25 7.56 9.25 8.25C9.25 8.94 8.69 9.5 8 9.5C7.31 9.5 6.75 8.94 6.75 8.25C6.75 7.56 7.31 7 8 7ZM12 7C12.69 7 13.25 7.56 13.25 8.25C13.25 8.94 12.69 9.5 12 9.5C11.31 9.5 10.75 8.94 10.75 8.25C10.75 7.56 11.31 7 12 7Z" fill="#1A1C1F"/>
</g>
<defs>
<clipPath id="clip0_187_373">
<rect width="20" height="20" fill="white"/>
</clipPath>
</defs>
</svg>
