<svg width="12" height="12" viewBox="0 0 12 12" fill="none" xmlns="http://www.w3.org/2000/svg">
<g clip-path="url(#clip0_232_441)">
<path fill-rule="evenodd" clip-rule="evenodd" d="M5.99999 1.8C8.31959 1.8 10.2 3.6804 10.2 6C10.2 8.3196 8.31959 10.2 5.99999 10.2C3.68039 10.2 1.79999 8.3196 1.79999 6C1.79999 3.6804 3.68039 1.8 5.99999 1.8ZM5.99999 3C4.34579 3 2.99999 4.3458 2.99999 6C2.99999 7.6542 4.34579 9 5.99999 9C7.65419 9 8.99999 7.6542 8.99999 6C8.99999 4.3458 7.65419 3 5.99999 3ZM7.19999 6.6C7.53119 6.6 7.79999 6.8682 7.79999 7.2C7.79999 7.5318 7.53119 7.8 7.19999 7.8H4.79999C4.46879 7.8 4.19999 7.5318 4.19999 7.2C4.19999 6.8682 4.46879 6.6 4.79999 6.6H7.19999ZM4.79999 4.2C5.21399 4.2 5.54999 4.536 5.54999 4.95C5.54999 5.364 5.21399 5.7 4.79999 5.7C4.38599 5.7 4.04999 5.364 4.04999 4.95C4.04999 4.536 4.38599 4.2 4.79999 4.2ZM7.19999 4.2C7.61399 4.2 7.94999 4.536 7.94999 4.95C7.94999 5.364 7.61399 5.7 7.19999 5.7C6.78599 5.7 6.44999 5.364 6.44999 4.95C6.44999 4.536 6.78599 4.2 7.19999 4.2Z" fill="#1A1C1F"/>
</g>
<defs>
<clipPath id="clip0_232_441">
<rect width="12" height="12" fill="white"/>
</clipPath>
</defs>
</svg>
