<svg width="12" height="12" viewBox="0 0 12 12" fill="none" xmlns="http://www.w3.org/2000/svg">
<g clip-path="url(#clip0_232_447)">
<path fill-rule="evenodd" clip-rule="evenodd" d="M3.86452 1.94446C4.55021 1.94446 5.24561 2.2089 5.76491 2.72814L6.00001 2.96324L6.17631 2.8065C6.74595 2.30025 7.41063 1.96408 8.1355 1.96408C9.58537 1.96408 10.8 3.06004 10.8 4.49148C10.8 5.25553 10.5832 5.97884 10.0163 6.52904L6.68576 9.76168C6.50677 9.93535 6.25468 10.0556 6.00001 10.0556C5.74535 10.0556 5.49325 9.93535 5.31426 9.76168L1.98369 6.52904C1.44684 6.00799 1.20001 5.31428 1.20001 4.62859C1.20001 3.15922 2.39509 1.94446 3.86452 1.94446ZM3.87143 3.14446C3.06704 3.14446 2.40001 3.81052 2.40001 4.61382C2.40001 4.98604 2.55269 5.38227 2.83162 5.65223L6.00981 8.72814L9.18799 5.65223C9.48682 5.36296 9.60001 4.94692 9.60001 4.53546C9.60001 3.75077 8.95257 3.16402 8.14818 3.16402C7.73623 3.16402 7.35949 3.33618 7.04955 3.63423L6.51989 4.14362C6.36965 4.28806 6.18634 4.3591 6.00981 4.3591C5.81362 4.3591 5.62754 4.29089 5.48008 4.14362L4.91117 3.57542C4.63651 3.30119 4.2638 3.14446 3.87143 3.14446Z" fill="#1A1C1F"/>
</g>
<defs>
<clipPath id="clip0_232_447">
<rect width="12" height="12" fill="white"/>
</clipPath>
</defs>
</svg>
