<svg width="12" height="12" viewBox="0 0 12 12" fill="none" xmlns="http://www.w3.org/2000/svg">
<g clip-path="url(#clip0_2204_2746)">
<path fill-rule="evenodd" clip-rule="evenodd" d="M7.19314 2.39999C7.5522 2.39999 7.89239 2.56078 8.12033 2.83821L8.74915 3.60419L9.59625 3.60185C10.2289 3.5999 10.7487 4.08783 10.7964 4.7086L10.8 4.79815V8.39999C10.8 9.06274 10.2627 9.59999 9.59995 9.59999H2.39995C1.73721 9.59999 1.19995 9.06274 1.19995 8.39999V4.80534C1.19995 4.1426 1.73721 3.60534 2.39995 3.60534L3.26455 3.60479L3.87204 2.8488C4.07702 2.59344 4.37631 2.4342 4.69936 2.4049L4.80783 2.39999H7.19314ZM5.99995 5.09999C5.33721 5.09999 4.79995 5.63725 4.79995 6.29999C4.79995 6.96274 5.33721 7.49999 5.99995 7.49999C6.66269 7.49999 7.19995 6.96274 7.19995 6.29999C7.19995 5.63725 6.66269 5.09999 5.99995 5.09999Z" fill="#1A1C1F"/>
</g>
<defs>
<clipPath id="clip0_2204_2746">
<rect width="12" height="12" fill="white"/>
</clipPath>
</defs>
</svg>
