<svg width="20" height="20" viewBox="0 0 20 20" fill="none" xmlns="http://www.w3.org/2000/svg">
<g clip-path="url(#clip0_185_765)">
<path fill-rule="evenodd" clip-rule="evenodd" d="M12 4C12.6295 4 13.2223 4.29639 13.6 4.8L14.5 6H16C17.0544 6 18 6.96222 18 8V14C18 15.1046 17.1046 16 16 16H4C2.89543 16 2 15.1046 2 14V8.00594C2 6.90369 2.89182 6.00922 3.99406 6.00595L5.499 6.001L6.4 4.8C6.74337 4.34217 7.42887 4 8 4H12ZM12 6H8L6.50111 7.99852L4 8.00594V14H16V8H13.5L12 6ZM10 8.5C11.1046 8.5 12 9.39543 12 10.5C12 11.6046 11.1046 12.5 10 12.5C8.89543 12.5 8 11.6046 8 10.5C8 9.39543 8.89543 8.5 10 8.5Z" fill="#1A1C1F"/>
</g>
<defs>
<clipPath id="clip0_185_765">
<rect width="20" height="20" fill="white"/>
</clipPath>
</defs>
</svg>
