<svg width="14" height="14" viewBox="0 0 14 14" fill="none" xmlns="http://www.w3.org/2000/svg">
<g clip-path="url(#clip0_185_769)">
<path fill-rule="evenodd" clip-rule="evenodd" d="M8.40002 2.8C8.84068 2.8 9.25563 3.00747 9.52003 3.36L10.15 4.2H11.2C11.9381 4.2 12.6 4.87356 12.6 5.6V9.8C12.6 10.5732 11.9732 11.2 11.2 11.2H2.80002C2.02683 11.2 1.40002 10.5732 1.40002 9.8V5.60416C1.40002 4.83259 2.0243 4.20646 2.79587 4.20417L3.84932 4.2007L4.48002 3.36C4.72038 3.03952 5.20023 2.8 5.60002 2.8H8.40002ZM8.40002 4.2H5.60002L4.5508 5.59896L2.80002 5.60416V9.8H11.2V5.6H9.45002L8.40002 4.2ZM7.00002 5.95C7.77322 5.95 8.40002 6.5768 8.40002 7.35C8.40002 8.1232 7.77322 8.75 7.00002 8.75C6.22683 8.75 5.60002 8.1232 5.60002 7.35C5.60002 6.5768 6.22683 5.95 7.00002 5.95Z" fill="#1A1C1F"/>
</g>
<defs>
<clipPath id="clip0_185_769">
<rect width="14" height="14" fill="white"/>
</clipPath>
</defs>
</svg>
