<svg width="12" height="12" viewBox="0 0 12 12" fill="none" xmlns="http://www.w3.org/2000/svg">
<g clip-path="url(#clip0_231_164)">
<path fill-rule="evenodd" clip-rule="evenodd" d="M7.85575 1.2C8.00575 1.2 8.15575 1.2936 8.23075 1.35L9.44935 2.5872L9.49315 2.6466C9.56035 2.7498 9.59935 2.8752 9.59935 3V4.8H9.84355C10.4436 4.8 10.8 5.325 10.8 5.9064V9.1128C10.8 9.675 10.425 10.2 9.84355 10.2H4.33195C4.00195 10.5654 3.52975 10.8 2.99995 10.8C2.00755 10.8 1.19995 9.9924 1.19995 9V5.4C1.19995 4.4076 2.00755 3.6 2.99995 3.6V2.2686C2.99995 1.65 3.48715 1.2 4.08715 1.2H7.85575ZM2.99935 4.8C2.66815 4.8 2.39935 5.0688 2.39935 5.4V9C2.39935 9.3312 2.66815 9.6 2.99935 9.6C3.33055 9.6 3.59935 9.3312 3.59935 9V5.4C3.59935 5.0688 3.33055 4.8 2.99935 4.8ZM9.59935 6H4.79935V9H9.59935V6ZM8.09935 6.9C8.43072 6.9 8.69935 7.16863 8.69935 7.5C8.69935 7.83137 8.43072 8.1 8.09935 8.1C7.76798 8.1 7.49935 7.83137 7.49935 7.5C7.49935 7.16863 7.76798 6.9 8.09935 6.9ZM6.29935 6.9C6.63072 6.9 6.89935 7.16863 6.89935 7.5C6.89935 7.83137 6.63072 8.1 6.29935 8.1C5.96798 8.1 5.69935 7.83137 5.69935 7.5C5.69935 7.16863 5.96798 6.9 6.29935 6.9ZM7.19935 2.4H4.19935V4.068C4.41955 4.2666 4.58755 4.5156 4.68895 4.8H8.39935V3.6H7.78075C7.46215 3.6 7.19935 3.3 7.19935 3V2.4Z" fill="#1A1C1F"/>
</g>
<defs>
<clipPath id="clip0_231_164">
<rect width="12" height="12" fill="white"/>
</clipPath>
</defs>
</svg>
