<svg width="24" height="24" viewBox="0 0 24 24" fill="none" xmlns="http://www.w3.org/2000/svg">
<g clip-path="url(#clip0_185_724)">
<path fill-rule="evenodd" clip-rule="evenodd" d="M14.9941 2C16.6614 2 18 3.3386 18 5.0059V19.0489C18 20.6928 16.6614 22 14.9941 22H9.0059C7.3386 22 6 20.6928 6 19.0489V5.0059C6 3.3386 7.3386 2 9.0059 2H14.9941ZM9.99613 4H9.00789C8.44318 4 7.9961 4.44577 7.9961 5.00882V19.0381C7.9961 19.5777 8.46672 20 9.00789 20H15.0079C15.549 20 15.9961 19.5542 15.9961 19.0147V4.98534C15.9961 4.43538 15.5496 4 15.0079 4H13.9961C13.9961 4.66565 13.5202 4.98534 13.0078 4.98534H11.0079C10.4666 4.98534 9.99613 4.53957 9.99613 4ZM10 17.0174C10 16.4969 10.4326 15.9977 10.9918 16L12.9899 16.0077C13.5734 16.0099 14 16.44 14 17.0057C14 17.5056 13.6114 18.0039 12.9908 18.0039H10.9918C10.4362 18.0039 10 17.5341 10 17.0174Z" fill="#1A1C1F"/>
</g>
<defs>
<clipPath id="clip0_185_724">
<rect width="24" height="24" fill="white"/>
</clipPath>
</defs>
</svg>
