<svg width="20" height="20" viewBox="0 0 20 20" fill="none" xmlns="http://www.w3.org/2000/svg">
<g clip-path="url(#clip0_185_778)">
<path fill-rule="evenodd" clip-rule="evenodd" d="M13 2C13.5 2 14 2.44 14 3V4H16.4062C17.375 4 18 4.875 18 5.8125V12.1562C18 13.125 17.4062 14 16.4062 14H14V17C14 17.5625 13.5625 18 13 18H7C6.4688 18 6 17.625 6 17V14H3.5938C2.625 14 2 13.0938 2 12.1562V5.8125C2 4.875 2.5625 4 3.5938 4H6V3C6 2.4375 6.4688 2 7 2H13ZM12 12H8V16H12V12ZM16 6H4V12H6V11C6 10.5 6.5 10 7 10H13C13.5 10 14 10.5 14 11V12H16V6Z" fill="#1A1C1F"/>
</g>
<defs>
<clipPath id="clip0_185_778">
<rect width="20" height="20" fill="white"/>
</clipPath>
</defs>
</svg>
