<svg width="12" height="12" viewBox="0 0 12 12" fill="none" xmlns="http://www.w3.org/2000/svg">
<g clip-path="url(#clip0_231_174)">
<path fill-rule="evenodd" clip-rule="evenodd" d="M7.79995 1.20001C8.09995 1.20001 8.39995 1.46401 8.39995 1.80001V2.40001H9.84367C10.425 2.40001 10.8 2.92501 10.8 3.48751V7.29376C10.8 7.87501 10.4437 8.40001 9.84367 8.40001H8.39995V10.2C8.39995 10.5375 8.13745 10.8 7.79995 10.8H4.19995C3.88123 10.8 3.59995 10.575 3.59995 10.2V8.40001H2.15623C1.57495 8.40001 1.19995 7.85626 1.19995 7.29376V3.48751C1.19995 2.92501 1.53745 2.40001 2.15623 2.40001H3.59995V1.80001C3.59995 1.46251 3.88123 1.20001 4.19995 1.20001H7.79995ZM7.19995 7.20001H4.79995V9.60001H7.19995V7.20001ZM9.59995 3.60001H2.39995V7.20001H3.59995V6.60001C3.59995 6.30001 3.89995 6.00001 4.19995 6.00001H7.79995C8.09995 6.00001 8.39995 6.30001 8.39995 6.60001V7.20001H9.59995V3.60001Z" fill="#1A1C1F"/>
</g>
<defs>
<clipPath id="clip0_231_174">
<rect width="12" height="12" fill="white"/>
</clipPath>
</defs>
</svg>
