<svg width="12" height="12" viewBox="0 0 12 12" fill="none" xmlns="http://www.w3.org/2000/svg">
<g clip-path="url(#clip0_2204_2757)">
<path fill-rule="evenodd" clip-rule="evenodd" d="M1.42505 4.04691C1.42505 6.71023 5.30758 10.6282 7.92355 10.6282C9.13094 10.6282 10.575 9.45635 10.575 8.37924C10.575 8.05965 10.4685 7.74005 10.2199 7.49145L9.37948 6.63918C9.1901 6.4498 8.9652 6.35511 8.72847 6.35511C8.46805 6.35511 8.20762 6.46162 8.01824 6.651L7.15415 7.51515C6.14802 6.71022 5.46149 5.98817 4.49083 4.88729L5.35492 4.01138C5.5443 3.822 5.65087 3.56157 5.65087 3.30115C5.65087 3.08813 5.57982 2.86322 5.42597 2.69748L4.55 1.75052C4.28963 1.47828 3.97004 1.37177 3.62674 1.37177C2.58509 1.37177 1.42505 2.80399 1.42505 4.04691Z" fill="#1A1C1F"/>
</g>
<defs>
<clipPath id="clip0_2204_2757">
<rect width="12" height="12" fill="white"/>
</clipPath>
</defs>
</svg>
