<svg width="14" height="14" viewBox="0 0 14 14" fill="none" xmlns="http://www.w3.org/2000/svg">
<g clip-path="url(#clip0_185_756)">
<path fill-rule="evenodd" clip-rule="evenodd" d="M4.2587 1.6004C4.63163 1.6004 5.00449 1.72467 5.28067 2.01464L6.95167 3.69943C7.17261 3.92045 7.26929 4.18283 7.26929 4.45901C7.26929 4.76284 7.14496 5.06661 6.92402 5.28762L6.3578 5.85377C7.0492 6.75466 7.26675 7.01634 8.12548 7.64904L8.73308 7.04144C8.95409 6.8205 9.24406 6.73761 9.50645 6.73761C9.78263 6.73761 10.045 6.84808 10.266 7.05523L11.9232 8.74003C12.2131 9.03007 12.3375 9.40293 12.3375 9.77579C12.3375 10.7977 10.7494 12.3996 9.47887 12.3996C6.15772 12.3996 1.66248 7.90598 1.66248 4.7214C1.66248 3.26285 3.01253 1.6004 4.2587 1.6004ZM4.24335 2.94296C4.21732 2.93992 4.17588 2.95371 4.13444 2.98137C3.55442 3.25755 3.01586 4.07229 3.01586 4.7214C3.01586 7.09222 6.99969 11.0324 9.24406 11.0324C9.9622 11.0324 10.3351 10.7148 10.9289 9.98294C11.0393 9.81716 11.0117 9.74814 10.9703 9.67911L9.50645 8.20147L8.67784 9.00242C8.53979 9.11289 8.38787 9.20957 8.19451 9.20957C7.44596 9.20957 4.81113 6.58131 4.81113 5.77095C4.81113 5.59138 4.86636 5.43947 5.00449 5.3152L5.80544 4.4866L4.3278 2.98137C4.30347 2.95393 4.27617 2.94296 4.24335 2.94296Z" fill="#1A1C1F"/>
</g>
<defs>
<clipPath id="clip0_185_756">
<rect width="14" height="14" fill="white"/>
</clipPath>
</defs>
</svg>
