<svg id="db-energie-logo" xmlns="http://www.w3.org/2000/svg" viewBox="0 0 624 141">
  <style>
    #db-energie-logo { color-scheme: light dark; }

    .logo { fill: light-dark(#ec0016, #fff) }
    .text { fill: light-dark(#000, #fff) }
  </style>
<g transform="translate(0, 0)">
    <path class="logo"  d="M194.14 5.87A19.974 19.974 0 0 0 180 0H20.1c-2.63-.01-5.25.5-7.68 1.5-2.44 1-4.65 2.47-6.52 4.34a20.027 20.027 0 0 0-4.36 6.51A19.883 19.883 0 0 0 0 20.04v100.18c.03 5.32 2.16 10.42 5.92 14.17a20.1 20.1 0 0 0 14.18 5.86H180c5.32-.03 10.41-2.16 14.16-5.95 3.75-3.78 5.85-8.9 5.84-14.23V20.04c0-5.31-2.11-10.41-5.86-14.17Zm-8.73 114.21c.03.73-.09 1.46-.35 2.15s-.65 1.31-1.15 1.85c-.5.53-1.11.96-1.77 1.26-.67.3-1.39.46-2.12.47H20.1c-.74 0-1.47-.15-2.15-.44a5.54 5.54 0 0 1-1.81-1.25c-.51-.53-.91-1.17-1.18-1.86-.26-.69-.39-1.43-.36-2.17V20.04c-.04-.75.08-1.5.34-2.2s.66-1.34 1.17-1.89c.51-.54 1.13-.98 1.82-1.27.69-.3 1.43-.45 2.17-.45H180c.74.02 1.47.18 2.14.48.68.3 1.28.74 1.79 1.28.5.54.89 1.18 1.15 1.88.25.7.36 1.44.33 2.17v100.04Z"></path>
    <path class="logo"  d="M61.17 116.03H27.53v-91.8h33.64c23.7 0 36.8 14.87 36.8 45.48.04 26.57-8.86 46.1-36.8 46.32Zm14.62-44.42c0-18.49-2-32.94-21.8-32.94h-4.46v62.47h7.82c11.66 0 18.44-9.34 18.44-29.53ZM156.01 68c4.59-1.39 8.62-4.22 11.5-8.06 2.88-3.85 4.46-8.51 4.5-13.32 0-1.9-.38-22.36-26.16-22.36h-38.24v91.77h32.4c8.58 0 35.32 0 35.32-25.81 0-6.45-2.64-18.59-19.32-22.22Zm-26.6-29.59h6.92c9.86 0 13.78 3.45 13.78 11.06 0 6.01-4.32 11.1-12 11.1h-8.7V38.41Zm9.02 62.73h-9.02V77.56h9.62c11.42 0 14.22 6.67 14.22 11.8 0 11.78-11.24 11.78-14.82 11.78Z"></path>
    </g>

<path class="text" d="M0 0L0-77.79L54.14-77.79L54.14-62.70L19.58-62.70L19.58-46.65L46.87-46.65L46.87-32.42L19.58-32.42L19.58-15.09L57.03-15.09L55.75 0L0 0Z"  transform="translate(250.0000667580332, 116.00028158657369)"></path>
<path class="text" d="M64.95-55.21Q75.33-55.53 78.75-58.74L78.75-58.74L82.92-58.74L82.92-48.26Q87.95-53.61 92.66-56.01Q97.37-58.42 102.93-58.42L102.93-58.42Q110.21-58.42 114.28-53.61Q118.34-48.79 118.34-40.23L118.34-40.23L118.34 0L100.37 0L100.37-36.49Q100.37-43.87 93.41-43.87L93.41-43.87Q90.84-43.87 88.65-43.12Q86.46-42.37 82.92-40.45L82.92-40.45L82.92 0L64.95 0L64.95-55.21Z"  transform="translate(250.0000667580332, 116.00028158657369)"></path>
<path class="text" d="M157.40 1.71Q141.56 1.71 134.12-5.51Q126.69-12.73 126.69-28.03L126.69-28.03L126.69-28.46Q126.69-43.12 134.18-51.04Q141.67-58.96 155.26-58.96L155.26-58.96Q168.10-58.96 174.62-51.52Q181.15-44.08 181.15-29.64L181.15-29.64L181.15-24.61L145.31-24.61Q145.63-19.47 146.91-16.75Q148.20-14.02 151.14-12.89Q154.08-11.77 159.43-11.77L159.43-11.77Q164.03-11.77 167.94-12.57Q171.84-13.38 177.94-15.52L177.94-15.52L177.94-2.25Q172.48-0.21 167.62 0.75Q162.75 1.71 157.40 1.71L157.40 1.71ZM145.31-34.45L163.28-34.45Q162.85-41.20 161.04-43.92Q159.22-46.65 154.94-46.65L154.94-46.65Q150.12-46.65 147.98-43.87Q145.84-41.09 145.31-34.45L145.31-34.45Z"  transform="translate(250.0000667580332, 116.00028158657369)"></path>
<path class="text" d="M189.82-55.21Q200.20-55.53 203.62-58.74L203.62-58.74L207.79-58.74L207.79-47.72Q212.40-53.18 216.84-55.69Q221.28-58.21 226.20-58.42L226.20-58.42L226.20-42.27Q216.46-41.62 207.79-39.16L207.79-39.16L207.79 0L189.82 0L189.82-55.21Z"  transform="translate(250.0000667580332, 116.00028158657369)"></path>
<path class="text" d="M255.62 23.11Q227.38 23.11 227.38 9.52L227.38 9.52Q227.38 5.88 229.46 2.94Q231.55 0 236.47-2.25L236.47-2.25Q233.58-3.85 232.30-5.83Q231.01-7.81 231.01-10.81L231.01-10.81Q231.01-17.98 238.82-23.97L238.82-23.97Q235.08-26.86 233.42-30.39Q231.76-33.92 231.76-38.84L231.76-38.84Q231.76-48.47 238.18-53.71Q244.60-58.96 256.27-58.96L256.27-58.96Q262.69-58.96 268.57-57.03L268.57-57.03L286.01-57.03L286.01-47.40L284.19-47.40Q281.41-47.40 278.84-46.76L278.84-46.76Q279.59-44.83 279.91-43.28Q280.23-41.73 280.23-39.59L280.23-39.59Q280.23-29.96 273.97-24.72Q267.71-19.47 256.16-19.47L256.16-19.47Q250.70-19.47 245.89-20.76L245.89-20.76Q244.50-19.05 244.50-17.01L244.50-17.01Q244.50-12.41 250.49-12.41L250.49-12.41L264.50-12.41Q275.53-12.41 280.71-8.56Q285.90-4.71 285.90 3.42L285.90 3.42Q285.90 13.27 278.36 18.19Q270.82 23.11 255.62 23.11L255.62 23.11ZM256.16-29.43Q260.12-29.43 261.72-31.62Q263.33-33.81 263.33-39.05L263.33-39.05Q263.33-44.19 261.67-46.28Q260.01-48.36 256.05-48.36L256.05-48.36Q252.09-48.36 250.38-46.22Q248.67-44.08 248.67-39.05L248.67-39.05Q248.67-33.70 250.33-31.56Q251.99-29.43 256.16-29.43L256.16-29.43ZM243.64 6.53Q243.64 9.42 246.53 10.65Q249.42 11.88 256.05 11.88L256.05 11.88Q263.11 11.88 266.43 10.59Q269.75 9.31 269.75 5.46L269.75 5.46Q269.75 2.67 267.82 1.55Q265.90 0.43 261.08 0.43L261.08 0.43L253.48 0.43Q249.74 0.43 246.31 0L246.31 0Q243.64 3.42 243.64 6.53L243.64 6.53Z"  transform="translate(250.0000667580332, 116.00028158657369)"></path>
<path class="text" d="M292.75-55.21Q303.13-55.53 306.56-58.74L306.56-58.74L310.73-58.74L310.73 0L292.75 0L292.75-55.21ZM301.85-63.45Q297.67-63.45 295.05-66.13Q292.43-68.80 292.43-72.87L292.43-72.87Q292.43-76.83 295.16-79.50Q297.89-82.18 301.85-82.18L301.85-82.18Q305.81-82.18 308.48-79.50Q311.16-76.83 311.16-72.76L311.16-72.76Q311.16-68.80 308.53-66.13Q305.91-63.45 301.85-63.45L301.85-63.45Z"  transform="translate(250.0000667580332, 116.00028158657369)"></path>
<path class="text" d="M350.10 1.71Q334.27 1.71 326.83-5.51Q319.40-12.73 319.40-28.03L319.40-28.03L319.40-28.46Q319.40-43.12 326.89-51.04Q334.38-58.96 347.96-58.96L347.96-58.96Q360.80-58.96 367.33-51.52Q373.86-44.08 373.86-29.64L373.86-29.64L373.86-24.61L338.01-24.61Q338.33-19.47 339.62-16.75Q340.90-14.02 343.84-12.89Q346.79-11.77 352.14-11.77L352.14-11.77Q356.74-11.77 360.64-12.57Q364.55-13.38 370.65-15.52L370.65-15.52L370.65-2.25Q365.19-0.21 360.32 0.75Q355.45 1.71 350.10 1.71L350.10 1.71ZM338.01-34.45L355.99-34.45Q355.56-41.20 353.74-43.92Q351.92-46.65 347.64-46.65L347.64-46.65Q342.83-46.65 340.69-43.87Q338.55-41.09 338.01-34.45L338.01-34.45Z"  transform="translate(250.0000667580332, 116.00028158657369)"></path>

</svg>
