<svg width="12" height="12" viewBox="0 0 12 12" fill="none" xmlns="http://www.w3.org/2000/svg">
<g clip-path="url(#clip0_2202_1209)">
<path fill-rule="evenodd" clip-rule="evenodd" d="M10.201 6.3V9.6C10.3602 9.6 10.5128 9.66321 10.6253 9.77573C10.7378 9.88826 10.801 10.0409 10.801 10.2C10.801 10.3591 10.7378 10.5117 10.6253 10.6243C10.5128 10.7368 10.3602 10.8 10.201 10.8H1.80105C1.64192 10.8 1.4893 10.7368 1.37678 10.6243C1.26426 10.5117 1.20105 10.3591 1.20105 10.2C1.20105 10.0409 1.26426 9.88826 1.37678 9.77573C1.4893 9.66321 1.64192 9.6 1.80105 9.6V6.3H10.201ZM9.45705 1.2C9.58551 1.19991 9.7106 1.24106 9.81393 1.31739C9.91726 1.39371 9.99336 1.50119 10.031 1.624L10.728 3.9C10.774 4.041 10.801 4.192 10.801 4.35C10.8008 4.64388 10.7047 4.92967 10.5272 5.16395C10.3498 5.39823 10.1008 5.56821 9.81794 5.64808C9.53511 5.72795 9.23395 5.71335 8.96017 5.60649C8.6864 5.49963 8.45498 5.30635 8.30105 5.056C8.18024 5.25247 8.01111 5.41471 7.8098 5.52726C7.60848 5.6398 7.38169 5.69889 7.15105 5.69889C6.92041 5.69889 6.69361 5.6398 6.49229 5.52726C6.29098 5.41471 6.12185 5.25247 6.00105 5.056C5.88079 5.25318 5.71186 5.41612 5.51047 5.52919C5.30908 5.64225 5.082 5.70163 4.85105 5.70163C4.62009 5.70163 4.39301 5.64225 4.19162 5.52919C3.99024 5.41612 3.8213 5.25318 3.70105 5.056C3.52555 5.34333 3.24901 5.55472 2.9257 5.64868C2.60238 5.74265 2.25562 5.7124 1.95345 5.56389C1.65129 5.41537 1.41552 5.1593 1.29242 4.84592C1.16931 4.53254 1.16775 4.18447 1.28805 3.87L1.97105 1.625C2.00855 1.502 2.08458 1.39431 2.18792 1.31779C2.29127 1.24127 2.41646 1.19998 2.54505 1.2H9.45605H9.45705Z" fill="#1A1C1F"/>
</g>
<defs>
<clipPath id="clip0_2202_1209">
<rect width="12" height="12" fill="white"/>
</clipPath>
</defs>
</svg>
