<svg width="20" height="20" viewBox="0 0 20 20" fill="none" xmlns="http://www.w3.org/2000/svg">
<g clip-path="url(#clip0_2202_1200)">
<path fill-rule="evenodd" clip-rule="evenodd" d="M17 10.5V16C17.2652 16 17.5196 16.1054 17.7071 16.2929C17.8946 16.4804 18 16.7348 18 17C18 17.513 17.581 18 17 18H3C2.73478 18 2.48043 17.8946 2.29289 17.7071C2.10536 17.5196 2 17.2652 2 17C2 16.7348 2.10536 16.4804 2.29289 16.2929C2.48043 16.1054 2.73478 16 3 16V10.5H17ZM15.76 2C15.9742 1.99981 16.1828 2.06841 16.3551 2.19568C16.5274 2.32296 16.6542 2.5022 16.717 2.707L17.877 6.5C17.955 6.735 18 6.987 18 7.25C18.0001 7.74025 17.8402 8.21712 17.5444 8.6081C17.2486 8.99907 16.8333 9.28275 16.3615 9.41598C15.8897 9.54921 15.3873 9.5247 14.9307 9.34618C14.4741 9.16767 14.0883 8.84491 13.832 8.427C13.6309 8.75444 13.3492 9.02488 13.0138 9.21251C12.6784 9.40015 12.3006 9.49871 11.9163 9.49881C11.532 9.49891 11.1541 9.40054 10.8186 9.21309C10.4832 9.02563 10.2013 8.75534 10 8.428C9.79879 8.75578 9.51688 9.02649 9.18121 9.21425C8.84554 9.40201 8.46733 9.50054 8.08272 9.50044C7.69811 9.50034 7.31995 9.40161 6.98438 9.21367C6.64881 9.02574 6.36704 8.75489 6.166 8.427C5.87232 8.90323 5.41174 9.25296 4.87413 9.40794C4.33652 9.56292 3.76045 9.51205 3.25833 9.26523C2.75621 9.01842 2.36406 8.59338 2.15839 8.07304C1.95273 7.55271 1.94831 6.97442 2.146 6.451L3.286 2.709C3.34826 2.50432 3.47452 2.32499 3.64623 2.19738C3.81794 2.06976 4.02606 2.00058 4.24 2H15.76Z" fill="#1A1C1F"/>
</g>
<defs>
<clipPath id="clip0_2202_1200">
<rect width="20" height="20" fill="white"/>
</clipPath>
</defs>
</svg>
