<svg width="14" height="14" viewBox="0 0 14 14" fill="none" xmlns="http://www.w3.org/2000/svg">
<g clip-path="url(#clip0_2202_1206)">
<path fill-rule="evenodd" clip-rule="evenodd" d="M11.9 7.34999V11.2C12.0856 11.2 12.2637 11.2737 12.395 11.405C12.5262 11.5363 12.6 11.7143 12.6 11.9C12.6 12.0856 12.5262 12.2637 12.395 12.395C12.2637 12.5262 12.0856 12.6 11.9 12.6H2.09999C1.91434 12.6 1.73629 12.5262 1.60502 12.395C1.47374 12.2637 1.39999 12.0856 1.39999 11.9C1.39999 11.7143 1.47374 11.5363 1.60502 11.405C1.73629 11.2737 1.91434 11.2 2.09999 11.2V7.34999H11.9ZM11.032 1.39999C11.182 1.39985 11.328 1.44787 11.4486 1.53698C11.5693 1.6261 11.6581 1.7516 11.702 1.89499L12.514 4.54999C12.568 4.71499 12.6 4.89099 12.6 5.07499C12.5999 5.41799 12.4878 5.75159 12.2808 6.02508C12.0739 6.29858 11.7832 6.49702 11.4531 6.59027C11.1231 6.68351 10.7716 6.66645 10.4521 6.54168C10.1326 6.41691 9.86253 6.19125 9.68299 5.89899C9.5423 6.12842 9.34514 6.31795 9.11033 6.44946C8.87551 6.58097 8.6109 6.65008 8.34177 6.65018C8.07264 6.65028 7.80798 6.58137 7.57307 6.45003C7.33816 6.31869 7.14085 6.12932 6.99999 5.89999C6.85927 6.12959 6.662 6.31925 6.42704 6.45083C6.19208 6.5824 5.92729 6.65149 5.65799 6.65149C5.3887 6.65149 5.12391 6.5824 4.88895 6.45083C4.65399 6.31925 4.45671 6.12959 4.31599 5.89999C4.11038 6.23324 3.788 6.47794 3.41174 6.58638C3.03548 6.69481 2.63232 6.65919 2.2809 6.48648C1.92948 6.31377 1.65499 6.01634 1.51098 5.65221C1.36697 5.28808 1.36377 4.88336 1.50199 4.51699L2.29899 1.89699C2.34274 1.75341 2.43147 1.62769 2.55211 1.53839C2.67275 1.44908 2.8189 1.40091 2.96899 1.40099H11.032V1.39999Z" fill="#1A1C1F"/>
</g>
<defs>
<clipPath id="clip0_2202_1206">
<rect width="14" height="14" fill="white"/>
</clipPath>
</defs>
</svg>
