<svg width="16" height="16" viewBox="0 0 16 16" fill="none" xmlns="http://www.w3.org/2000/svg">
<g clip-path="url(#clip0_2202_1203)">
<path fill-rule="evenodd" clip-rule="evenodd" d="M13.6015 8.4005V12.8005C13.8136 12.8005 14.0171 12.8848 14.1672 13.0348C14.3172 13.1848 14.4015 13.3883 14.4015 13.6005C14.4015 13.8127 14.3172 14.0162 14.1672 14.1662C14.0171 14.3162 13.8136 14.4005 13.6015 14.4005H2.40147C2.18929 14.4005 1.98581 14.3162 1.83578 14.1662C1.68575 14.0162 1.60147 13.8127 1.60147 13.6005C1.60147 13.3883 1.68575 13.1848 1.83578 13.0348C1.98581 12.8848 2.18929 12.8005 2.40147 12.8005V8.4005H13.6015ZM12.6095 1.6005C12.7808 1.60051 12.9476 1.6555 13.0853 1.75739C13.223 1.85928 13.3244 2.00269 13.3745 2.1665L14.3045 5.2005C14.3655 5.3885 14.4015 5.5905 14.4015 5.8005C14.4015 6.19261 14.2735 6.57402 14.037 6.88673C13.8004 7.19944 13.4682 7.42635 13.0909 7.53297C12.7135 7.63958 12.3117 7.62006 11.9465 7.47738C11.5813 7.3347 11.2726 7.07667 11.0675 6.7425C10.9065 7.00455 10.6811 7.22097 10.4127 7.3711C10.1444 7.52123 9.84198 7.60006 9.53447 7.60006C9.22695 7.60006 8.92457 7.52123 8.65619 7.3711C8.38781 7.22097 8.1624 7.00455 8.00147 6.7425C7.84059 7.00477 7.61514 7.2214 7.34666 7.37168C7.07818 7.52197 6.77565 7.60088 6.46797 7.60088C6.16029 7.60088 5.85775 7.52197 5.58927 7.37168C5.32079 7.2214 5.09534 7.00477 4.93447 6.7425C4.70039 7.12556 4.33161 7.40733 3.9005 7.53252C3.46939 7.65771 3.00706 7.61728 2.60422 7.41918C2.20137 7.22108 1.8871 6.87959 1.72304 6.46172C1.55899 6.04385 1.557 5.57976 1.71747 5.1605L2.62747 2.1665C2.67745 2.00234 2.77889 1.85859 2.91682 1.75649C3.05475 1.6544 3.22186 1.59936 3.39347 1.5995H12.6085L12.6095 1.6005Z" fill="#1A1C1F"/>
</g>
<defs>
<clipPath id="clip0_2202_1203">
<rect width="16" height="16" fill="white"/>
</clipPath>
</defs>
</svg>
