<svg width="28" height="28" viewBox="0 0 28 28" fill="none" xmlns="http://www.w3.org/2000/svg">
<g clip-path="url(#clip0_184_215)">
<path fill-rule="evenodd" clip-rule="evenodd" d="M20.125 2.62496C20.617 2.62496 21 3.03496 21 3.49996V14.875H25.375C25.867 14.875 26.25 15.258 26.25 15.75V24.5C26.2515 24.6153 26.2299 24.7297 26.1864 24.8365C26.143 24.9434 26.0786 25.0404 25.997 25.122C25.9155 25.2035 25.8184 25.2679 25.7116 25.3114C25.6048 25.3548 25.4903 25.3764 25.375 25.375H16.625C16.5097 25.3764 16.3952 25.3548 16.2884 25.3114C16.1816 25.2679 16.0845 25.2035 16.003 25.122C15.9214 25.0404 15.857 24.9434 15.8136 24.8365C15.7701 24.7297 15.7485 24.6153 15.75 24.5V20.125C15.7515 20.0096 15.7299 19.8952 15.6864 19.7884C15.643 19.6815 15.5786 19.5845 15.497 19.503C15.4155 19.4214 15.3184 19.357 15.2116 19.3136C15.1048 19.2701 14.9903 19.2485 14.875 19.25H13.125C13.0097 19.2485 12.8952 19.2701 12.7884 19.3136C12.6816 19.357 12.5845 19.4214 12.503 19.503C12.4214 19.5845 12.357 19.6815 12.3136 19.7884C12.2701 19.8952 12.2485 20.0096 12.25 20.125V24.5C12.2515 24.6153 12.2299 24.7297 12.1864 24.8365C12.143 24.9434 12.0786 25.0404 11.997 25.122C11.9155 25.2035 11.8184 25.2679 11.7116 25.3114C11.6048 25.3548 11.4903 25.3764 11.375 25.375H2.625C2.50969 25.3764 2.39524 25.3548 2.28841 25.3114C2.18159 25.2679 2.08454 25.2035 2.00299 25.122C1.92144 25.0404 1.85705 24.9434 1.8136 24.8365C1.77015 24.7297 1.74852 24.6153 1.75 24.5V15.75C1.75 15.258 2.16 14.875 2.625 14.875H6.973V3.49996C6.973 3.06196 7.438 2.62496 7.875 2.62496H20.125ZM7 16.625H3.5V23.625H7V16.625ZM19.25 4.37496H8.75V23.625H10.5V20.125C10.5003 19.4289 10.7769 18.7613 11.2691 18.2691C11.7614 17.7769 12.4289 17.5002 13.125 17.5H14.875C15.5711 17.5002 16.2386 17.7769 16.7309 18.2691C17.2231 18.7613 17.4997 19.4289 17.5 20.125V23.625H19.25V4.37496ZM24.5 16.625H21V23.625H24.5V16.625ZM14 6.99996C14.46 6.99864 14.9157 7.08827 15.341 7.2637C15.7662 7.43912 16.1526 7.69688 16.4778 8.02215C16.8031 8.34741 17.0608 8.73377 17.2363 9.15901C17.4117 9.58425 17.5013 10.04 17.5 10.5C17.5 11.43 17.145 12.332 16.488 12.988C15.8253 13.6413 14.9306 14.0052 14 14C13.54 14.0013 13.0843 13.9117 12.659 13.7362C12.2338 13.5608 11.8475 13.303 11.5222 12.9778C11.1969 12.6525 10.9392 12.2661 10.7637 11.8409C10.5883 11.4157 10.4987 10.96 10.5 10.5C10.4987 10.04 10.5883 9.58425 10.7637 9.15901C10.9392 8.73377 11.1969 8.34741 11.5222 8.02215C11.8475 7.69688 12.2338 7.43912 12.659 7.2637C13.0843 7.08827 13.54 6.99864 14 6.99996ZM14 8.74996C13.043 8.74996 12.25 9.54296 12.25 10.5C12.25 11.457 13.043 12.25 14 12.25C14.957 12.25 15.75 11.457 15.75 10.5C15.75 9.54296 14.957 8.74996 14 8.74996Z" fill="#1A1C1F"/>
</g>
<defs>
<clipPath id="clip0_184_215">
<rect width="28" height="28" fill="white"/>
</clipPath>
</defs>
</svg>
