<svg id="icon" height="20" viewBox="0 0 20 20" width="20" xmlns="http://www.w3.org/2000/svg"><path d="M5.533 2.033 L 3.750 2.050 3.500 2.152 C 3.193 2.276,2.910 2.465,2.657 2.714 C 2.393 2.974,2.251 3.201,2.116 3.579 L 2.000 3.903 2.000 10.000 L 2.000 16.097 2.113 16.414 C 2.362 17.111,2.827 17.584,3.545 17.874 L 3.817 17.983 9.932 17.992 C 16.787 18.002,16.149 18.025,16.727 17.746 C 16.984 17.622,17.086 17.548,17.311 17.323 C 17.609 17.024,17.768 16.762,17.914 16.327 L 18.000 16.072 18.000 9.987 L 18.000 3.903 17.884 3.579 C 17.748 3.199,17.604 2.969,17.333 2.702 C 17.088 2.461,16.825 2.285,16.520 2.157 C 16.321 2.073,16.232 2.056,15.934 2.046 C 15.328 2.026,7.401 2.016,5.533 2.033 M15.907 4.090 L 16.000 4.179 16.000 9.996 L 16.000 15.813 15.910 15.907 L 15.821 16.000 10.000 16.000 L 4.179 16.000 4.090 15.907 L 4.000 15.813 4.000 10.000 L 4.000 4.187 4.090 4.093 L 4.179 4.000 9.996 4.000 L 15.813 4.000 15.907 4.090 M6.583 6.145 C 6.375 6.243,6.130 6.503,6.051 6.710 C 5.975 6.908,5.997 7.272,6.098 7.478 C 6.142 7.569,6.576 8.027,7.365 8.816 L 8.566 10.015 7.455 11.133 C 6.296 12.297,6.099 12.518,6.032 12.722 C 5.979 12.882,6.009 13.240,6.093 13.433 C 6.168 13.609,6.412 13.845,6.610 13.935 C 6.768 14.007,7.014 14.018,7.264 13.964 C 7.417 13.931,7.480 13.882,8.007 13.384 C 8.324 13.085,8.898 12.524,9.282 12.138 L 9.980 11.436 11.166 12.613 C 11.849 13.290,12.420 13.829,12.512 13.882 C 12.721 14.005,13.048 14.034,13.295 13.952 C 13.510 13.880,13.769 13.650,13.866 13.444 C 13.974 13.214,13.994 12.855,13.910 12.665 C 13.820 12.463,13.443 12.052,12.337 10.951 L 11.401 10.018 12.615 8.800 C 13.471 7.943,13.846 7.544,13.885 7.452 C 13.915 7.380,13.948 7.212,13.958 7.079 C 13.974 6.864,13.966 6.817,13.889 6.658 C 13.705 6.283,13.425 6.099,12.998 6.074 C 12.589 6.050,12.576 6.059,11.250 7.365 C 10.718 7.888,10.213 8.382,10.127 8.463 L 9.972 8.609 8.844 7.496 C 7.644 6.311,7.482 6.165,7.303 6.105 C 7.107 6.039,6.771 6.058,6.583 6.145 " fill="var(--db-icon-color, #55b9e6)" stroke="none" fill-rule="evenodd"></path></svg>