<svg id="icon" height="48" viewBox="0 0 48 48" width="48" xmlns="http://www.w3.org/2000/svg"><path d="M8.520 2.080 C 6.796 2.139,6.469 2.203,5.560 2.658 C 4.840 3.019,4.155 3.534,3.625 4.112 C 3.099 4.686,2.375 5.925,2.241 6.480 C 2.049 7.273,1.988 12.958,2.026 26.520 C 2.052 35.806,2.093 40.501,2.152 40.960 C 2.371 42.658,3.821 44.506,5.640 45.405 C 6.244 45.704,6.488 45.777,7.160 45.860 C 8.318 46.003,39.682 46.003,40.840 45.860 C 41.512 45.777,41.756 45.704,42.360 45.405 C 44.179 44.506,45.630 42.658,45.848 40.960 C 45.907 40.502,45.948 35.794,45.974 26.560 C 46.011 13.034,45.950 7.268,45.759 6.480 C 45.625 5.925,44.901 4.686,44.375 4.112 C 43.558 3.220,42.456 2.544,41.291 2.218 L 40.680 2.047 25.400 2.036 C 16.996 2.030,9.400 2.050,8.520 2.080 M38.280 4.068 L 40.840 4.120 41.467 4.420 C 42.362 4.847,43.102 5.578,43.545 6.472 L 43.880 7.148 43.932 9.274 C 44.000 12.032,44.000 35.866,43.932 38.680 L 43.880 40.840 43.581 41.466 C 43.087 42.501,42.142 43.373,41.074 43.780 L 40.600 43.960 24.000 43.960 L 7.400 43.960 6.926 43.780 C 5.858 43.373,4.913 42.501,4.419 41.466 L 4.120 40.840 4.067 38.760 C 3.999 36.055,3.999 11.945,4.067 9.240 L 4.120 7.160 4.421 6.529 C 4.822 5.690,5.709 4.787,6.520 4.392 L 7.080 4.120 9.880 4.077 C 13.959 4.015,35.281 4.008,38.280 4.068 M10.141 9.805 C 9.866 9.955,9.680 10.307,9.680 10.680 C 9.680 11.047,9.604 10.967,16.916 18.300 L 22.600 24.000 16.916 29.700 C 9.604 37.033,9.680 36.953,9.680 37.320 C 9.680 37.914,10.086 38.320,10.680 38.320 C 11.047 38.320,10.967 38.396,18.300 31.084 L 24.000 25.400 29.700 31.084 C 37.033 38.396,36.953 38.320,37.320 38.320 C 37.914 38.320,38.320 37.914,38.320 37.319 C 38.320 36.954,38.394 37.032,31.044 29.660 L 25.400 24.000 31.004 18.380 C 38.392 10.970,38.320 11.046,38.320 10.682 C 38.320 10.065,37.915 9.680,37.264 9.680 L 36.920 9.680 30.460 16.140 L 24.000 22.600 17.540 16.140 L 11.080 9.680 10.720 9.683 C 10.522 9.685,10.261 9.740,10.141 9.805 " fill="var(--db-icon-color, #55b9e6)" stroke="none" fill-rule="evenodd"></path></svg>