<svg id="icon" height="24" viewBox="0 0 24 24" width="24" xmlns="http://www.w3.org/2000/svg"><path d="M5.620 2.037 L 4.180 2.060 3.847 2.207 C 3.369 2.418,3.115 2.582,2.843 2.858 C 2.571 3.133,2.228 3.677,2.137 3.978 C 2.011 4.396,1.996 5.370,2.011 12.502 C 2.027 20.488,1.999 19.844,2.349 20.473 C 2.603 20.931,2.980 21.326,3.406 21.579 C 3.882 21.863,4.070 21.916,4.752 21.960 C 5.526 22.010,18.474 22.010,19.248 21.960 C 19.930 21.916,20.118 21.863,20.594 21.579 C 21.020 21.326,21.397 20.931,21.651 20.473 C 22.007 19.832,21.980 20.537,21.980 12.000 C 21.980 3.463,22.007 4.168,21.651 3.527 C 21.400 3.075,21.019 2.674,20.608 2.430 C 20.155 2.160,20.050 2.124,19.610 2.083 C 19.157 2.040,7.753 2.003,5.620 2.037 M19.515 4.095 C 19.693 4.190,19.834 4.343,19.925 4.540 C 19.995 4.694,19.998 4.993,19.998 12.000 C 19.998 19.007,19.995 19.306,19.925 19.460 C 19.834 19.656,19.694 19.809,19.515 19.906 C 19.385 19.977,19.100 19.980,12.000 19.980 C 4.900 19.980,4.615 19.977,4.485 19.906 C 4.306 19.809,4.166 19.656,4.075 19.460 C 4.005 19.306,4.002 19.007,4.002 12.000 C 4.002 4.895,4.004 4.696,4.078 4.540 C 4.173 4.342,4.265 4.232,4.418 4.135 C 4.523 4.069,4.652 4.057,5.558 4.036 C 6.120 4.024,9.460 4.015,12.980 4.018 C 19.069 4.023,19.387 4.027,19.515 4.095 M6.569 6.165 C 6.361 6.268,6.134 6.525,6.080 6.717 C 6.014 6.955,6.031 7.285,6.117 7.426 C 6.242 7.631,6.631 8.036,8.676 10.089 L 10.618 12.038 8.557 14.109 C 6.599 16.077,6.190 16.507,6.085 16.707 C 6.027 16.820,6.027 17.189,6.086 17.364 C 6.192 17.682,6.536 17.974,6.864 18.023 C 6.961 18.037,7.127 18.027,7.244 17.999 C 7.498 17.938,7.500 17.936,10.113 15.367 L 12.047 13.467 13.693 15.108 C 14.599 16.010,15.624 17.020,15.972 17.352 C 16.569 17.922,16.616 17.958,16.822 18.000 C 17.248 18.089,17.647 17.926,17.900 17.560 C 18.011 17.400,18.020 17.360,18.020 17.040 C 18.020 16.695,18.019 16.692,17.861 16.496 C 17.773 16.388,16.749 15.342,15.584 14.170 L 13.467 12.040 15.584 9.910 C 16.749 8.739,17.773 7.692,17.861 7.584 C 18.017 7.391,18.020 7.382,18.020 7.061 C 18.020 6.767,18.008 6.714,17.899 6.537 C 17.817 6.404,17.707 6.298,17.560 6.210 C 17.370 6.096,17.309 6.080,17.061 6.080 C 16.868 6.080,16.738 6.102,16.650 6.150 C 16.488 6.238,15.577 7.109,13.589 9.078 L 12.036 10.615 11.128 9.717 C 7.959 6.580,7.563 6.197,7.427 6.140 C 7.209 6.049,6.777 6.062,6.569 6.165 " fill="var(--db-icon-color, #55b9e6)" stroke="none" fill-rule="evenodd"></path></svg>