<svg id="icon" height="32" viewBox="0 0 32 32" width="32" xmlns="http://www.w3.org/2000/svg"><path d="M6.000 2.078 C 5.035 2.110,4.967 2.120,4.579 2.275 C 4.024 2.496,3.486 2.866,3.082 3.302 C 2.712 3.701,2.226 4.524,2.134 4.907 C 2.022 5.368,1.978 8.512,1.978 15.973 C 1.979 23.455,2.023 26.635,2.134 27.093 C 2.226 27.476,2.712 28.299,3.081 28.697 C 3.718 29.385,4.532 29.826,5.363 29.931 C 6.134 30.029,25.866 30.029,26.637 29.931 C 27.953 29.764,29.164 28.777,29.761 27.384 C 29.995 26.839,29.999 26.642,29.999 16.000 C 29.999 4.845,30.007 5.129,29.682 4.454 C 29.242 3.539,28.645 2.898,27.852 2.489 C 26.938 2.018,28.008 2.061,16.880 2.052 C 11.453 2.047,6.557 2.059,6.000 2.078 M26.849 4.206 C 27.214 4.402,27.539 4.717,27.759 5.090 L 27.947 5.407 27.946 15.997 L 27.946 26.587 27.780 26.875 C 27.547 27.282,27.151 27.657,26.761 27.842 L 26.427 28.000 16.000 28.000 L 5.573 28.000 5.253 27.848 C 4.848 27.656,4.480 27.315,4.241 26.910 L 4.053 26.593 4.053 16.000 L 4.053 5.407 4.243 5.090 C 4.488 4.683,4.672 4.494,5.050 4.265 L 5.356 4.080 8.105 4.049 C 9.616 4.032,14.393 4.028,18.720 4.041 L 26.587 4.065 26.849 4.206 M7.118 6.604 C 6.717 6.792,6.467 7.224,6.522 7.635 C 6.542 7.782,6.626 7.933,6.808 8.149 C 6.950 8.316,8.756 10.151,10.822 12.227 L 14.577 16.000 10.822 19.773 C 8.756 21.849,6.950 23.684,6.808 23.851 C 6.626 24.067,6.542 24.218,6.522 24.365 C 6.438 24.990,7.027 25.563,7.656 25.469 C 7.965 25.423,7.990 25.399,12.598 20.805 L 15.996 17.418 19.771 21.176 C 21.848 23.243,23.684 25.050,23.851 25.192 C 24.215 25.499,24.461 25.556,24.825 25.417 C 25.267 25.248,25.537 24.796,25.468 24.338 C 25.423 24.036,25.383 23.993,20.830 19.427 L 17.414 16.000 20.803 12.600 C 25.399 7.990,25.423 7.965,25.469 7.656 C 25.566 7.011,24.987 6.434,24.342 6.531 C 24.041 6.576,23.903 6.706,19.402 11.194 L 16.005 14.581 12.176 10.770 C 10.070 8.674,8.235 6.868,8.099 6.758 C 7.786 6.503,7.446 6.450,7.118 6.604 " fill="var(--db-icon-color, #55b9e6)" stroke="none" fill-rule="evenodd"></path></svg>