<svg id="icon" height="64" viewBox="0 0 64 64" width="64" xmlns="http://www.w3.org/2000/svg"><path d="M10.720 2.126 C 8.090 2.189,8.043 2.195,7.307 2.499 C 4.928 3.484,3.416 4.968,2.552 7.167 C 2.206 8.048,2.204 8.068,2.111 10.667 C 2.060 12.104,2.034 22.784,2.054 34.400 L 2.090 55.520 2.337 56.267 C 3.088 58.534,4.445 60.114,6.548 61.173 C 7.105 61.453,7.816 61.717,8.213 61.791 C 9.233 61.981,54.533 61.977,55.680 61.787 C 56.642 61.628,58.081 60.933,59.063 60.153 C 60.343 59.137,61.537 57.177,61.787 55.680 C 61.980 54.518,61.981 9.488,61.787 8.320 C 61.628 7.362,60.934 5.920,60.163 4.949 C 59.184 3.716,57.108 2.446,55.710 2.225 C 54.910 2.099,15.435 2.012,10.720 2.126 M55.893 4.328 C 57.289 4.801,58.734 6.121,59.445 7.573 L 59.784 8.267 59.854 11.627 C 59.945 15.958,59.946 47.974,59.856 52.373 L 59.787 55.733 59.363 56.587 C 58.604 58.116,56.997 59.424,55.360 59.846 C 55.006 59.938,48.883 59.984,32.087 60.023 L 9.295 60.076 8.461 59.797 C 8.002 59.644,7.386 59.380,7.092 59.211 C 5.902 58.529,4.848 57.272,4.344 55.935 L 4.107 55.307 4.107 32.053 C 4.107 9.254,4.111 8.787,4.316 8.160 C 4.781 6.733,6.092 5.282,7.573 4.554 L 8.267 4.213 11.627 4.150 C 13.475 4.115,24.059 4.096,35.147 4.107 C 54.508 4.128,55.330 4.137,55.893 4.328 M13.387 12.924 C 13.049 13.109,12.805 13.468,12.802 13.783 C 12.799 14.189,12.987 14.385,22.337 23.758 L 30.555 31.996 21.963 40.611 C 17.237 45.350,13.236 49.406,13.073 49.626 C 12.833 49.948,12.789 50.094,12.843 50.385 C 12.925 50.819,13.179 51.068,13.633 51.159 C 13.903 51.213,14.054 51.165,14.373 50.928 C 14.593 50.764,18.649 46.764,23.387 42.039 L 32.000 33.449 40.613 42.039 C 45.351 46.764,49.406 50.764,49.626 50.927 C 49.948 51.167,50.094 51.211,50.385 51.157 C 50.819 51.075,51.068 50.821,51.159 50.367 C 51.213 50.097,51.165 49.946,50.928 49.627 C 50.764 49.407,46.764 45.351,42.039 40.613 L 33.449 32.000 42.039 23.387 C 46.764 18.649,50.764 14.594,50.927 14.374 C 51.173 14.044,51.212 13.909,51.153 13.596 C 51.075 13.183,50.600 12.801,50.162 12.800 C 49.821 12.800,49.326 13.276,40.187 22.393 L 32.000 30.559 23.813 22.393 C 19.311 17.901,15.278 13.905,14.851 13.513 C 14.066 12.790,13.814 12.689,13.387 12.924 " fill="var(--db-icon-color, #55b9e6)" stroke="none" fill-rule="evenodd"></path></svg>