<svg id="icon" height="16" viewBox="0 0 16 16" width="16" xmlns="http://www.w3.org/2000/svg"><path d="M4.493 2.024 C 3.829 2.041,3.791 2.045,3.591 2.115 C 2.928 2.347,2.455 2.783,2.165 3.428 C 2.010 3.773,2.013 3.679,2.014 8.067 C 2.014 12.624,1.993 12.205,2.238 12.707 C 2.524 13.293,2.998 13.693,3.676 13.920 L 3.920 14.002 8.007 13.994 L 12.093 13.986 12.333 13.912 C 13.105 13.671,13.671 13.105,13.912 12.333 L 13.986 12.093 13.994 8.007 L 14.002 3.920 13.919 3.673 C 13.758 3.193,13.506 2.810,13.168 2.534 C 13.076 2.459,12.856 2.325,12.680 2.237 C 12.396 2.095,12.334 2.075,12.130 2.054 C 11.846 2.025,5.445 2.000,4.493 2.024 M11.912 4.085 L 11.973 4.143 11.973 7.997 L 11.973 11.850 11.902 11.925 L 11.830 12.000 8.000 12.000 L 4.170 12.000 4.098 11.925 L 4.026 11.850 4.033 7.993 C 4.040 4.332,4.042 4.133,4.088 4.088 C 4.130 4.045,4.212 4.038,4.821 4.024 C 5.198 4.015,6.934 4.012,8.679 4.017 L 11.851 4.027 11.912 4.085 M6.178 5.493 C 5.910 5.541,5.642 5.762,5.499 6.053 C 5.434 6.184,5.427 6.229,5.429 6.467 C 5.431 6.866,5.450 6.897,6.058 7.510 L 6.569 8.025 6.062 8.542 C 5.447 9.170,5.429 9.200,5.429 9.600 C 5.429 9.855,5.435 9.893,5.504 10.024 C 5.601 10.212,5.830 10.439,5.992 10.510 C 6.071 10.544,6.204 10.571,6.338 10.580 C 6.748 10.607,6.886 10.525,7.561 9.862 L 7.989 9.442 8.361 9.817 C 9.037 10.499,9.213 10.605,9.624 10.581 C 9.985 10.560,10.308 10.341,10.470 10.008 C 10.537 9.871,10.546 9.824,10.546 9.600 C 10.546 9.216,10.503 9.145,9.899 8.529 L 9.406 8.027 9.899 7.524 C 10.504 6.908,10.544 6.841,10.543 6.456 C 10.543 6.253,10.531 6.174,10.486 6.073 C 10.407 5.897,10.178 5.663,9.990 5.568 C 9.838 5.492,9.822 5.489,9.521 5.498 C 9.209 5.507,9.208 5.507,9.054 5.609 C 8.969 5.666,8.693 5.915,8.441 6.162 L 7.983 6.612 7.825 6.449 C 7.469 6.085,6.944 5.623,6.815 5.561 C 6.661 5.487,6.380 5.457,6.178 5.493 " fill="var(--db-icon-color, #55b9e6)" stroke="none" fill-rule="evenodd"></path></svg>