<svg width="24" height="24" viewBox="0 0 24 24" fill="none" xmlns="http://www.w3.org/2000/svg">
<g clip-path="url(#clip0_186_228)">
<path fill-rule="evenodd" clip-rule="evenodd" d="M14 3C15.1046 3 16 3.89543 16 5V8H19C20.1046 8 21 8.89543 21 10V14C21 15.1046 20.1046 16 19 16H16V19C16 20.1046 15.1046 21 14 21H10C8.89543 21 8 20.1046 8 19V16H5C3.89543 16 3 15.1046 3 14V10C3 8.89543 3.89543 8 5 8H8V5C8 3.89543 8.89543 3 10 3H14ZM14 5H10V10H5V14H10V19H14V14H19V10H14V5Z" fill="#1A1C1F"/>
</g>
<defs>
<clipPath id="clip0_186_228">
<rect width="24" height="24" fill="white"/>
</clipPath>
</defs>
</svg>
