<svg width="12" height="12" viewBox="0 0 12 12" fill="none" xmlns="http://www.w3.org/2000/svg">
<g clip-path="url(#clip0_232_323)">
<path fill-rule="evenodd" clip-rule="evenodd" d="M7.19999 1.8C7.53136 1.8 7.79999 2.06863 7.79999 2.4V4.2H9.59999C9.93136 4.2 10.2 4.46863 10.2 4.8V7.2C10.2 7.53137 9.93136 7.8 9.59999 7.8H7.79999V9.6C7.79999 9.93137 7.53136 10.2 7.19999 10.2H4.79999C4.46862 10.2 4.19999 9.93137 4.19999 9.6V7.8H2.39999C2.06862 7.8 1.79999 7.53137 1.79999 7.2V4.8C1.79999 4.46863 2.06862 4.2 2.39999 4.2H4.19999V2.4C4.19999 2.06863 4.46862 1.8 4.79999 1.8H7.19999ZM6.59999 3H5.39999V5.4H2.99999V6.6H5.39999V9H6.59999V6.6H8.99999V5.4H6.59999V3Z" fill="#1A1C1F"/>
</g>
<defs>
<clipPath id="clip0_232_323">
<rect width="12" height="12" fill="white"/>
</clipPath>
</defs>
</svg>
