<svg width="20" height="20" viewBox="0 0 20 20" fill="none" xmlns="http://www.w3.org/2000/svg">
<g clip-path="url(#clip0_186_230)">
<path fill-rule="evenodd" clip-rule="evenodd" d="M12 3C12.5523 3 13 3.44772 13 4V7H16C16.5523 7 17 7.44772 17 8V12C17 12.5523 16.5523 13 16 13H13V16C13 16.5523 12.5523 17 12 17H8C7.44772 17 7 16.5523 7 16V13H4C3.44772 13 3 12.5523 3 12V8C3 7.44772 3.44772 7 4 7H7V4C7 3.44772 7.44772 3 8 3H12ZM11 5H9V9H5V11H9V15H11V11H15V9H11V5Z" fill="#1A1C1F"/>
</g>
<defs>
<clipPath id="clip0_186_230">
<rect width="20" height="20" fill="white"/>
</clipPath>
</defs>
</svg>
