<svg id="icon" height="24" viewBox="0 0 24 24" width="24" xmlns="http://www.w3.org/2000/svg"><path d="M7.928 2.062 C 7.658 2.135,7.646 2.142,6.990 2.572 C 6.518 2.882,6.429 2.958,6.356 3.109 C 6.208 3.413,6.298 3.704,6.604 3.914 C 6.714 3.989,6.779 4.004,6.940 3.991 C 7.110 3.977,7.219 3.923,7.672 3.627 L 8.204 3.280 8.802 3.280 L 9.400 3.280 9.400 4.640 L 9.400 6.000 8.770 6.001 C 7.995 6.001,7.560 6.081,7.060 6.315 C 5.975 6.824,5.209 7.852,5.041 9.022 C 5.009 9.249,4.999 10.728,5.008 14.200 L 5.020 19.060 5.132 19.418 C 5.514 20.636,6.361 21.498,7.541 21.868 L 7.900 21.980 12.000 21.980 L 16.100 21.980 16.459 21.868 C 17.639 21.498,18.486 20.636,18.868 19.418 L 18.980 19.060 18.980 14.020 L 18.980 8.980 18.889 8.647 C 18.650 7.771,18.142 7.059,17.411 6.573 C 16.761 6.140,16.228 6.000,15.236 6.000 L 14.600 6.000 14.600 4.640 L 14.600 3.280 15.189 3.280 L 15.778 3.280 16.353 3.624 C 17.087 4.064,17.280 4.098,17.574 3.840 C 17.846 3.601,17.854 3.181,17.591 2.934 C 17.461 2.813,16.785 2.396,16.360 2.175 L 16.140 2.061 14.560 2.035 C 13.691 2.021,11.891 2.008,10.560 2.007 C 8.585 2.006,8.101 2.016,7.928 2.062 M13.320 4.640 L 13.320 6.000 12.000 6.000 L 10.680 6.000 10.680 4.640 L 10.680 3.280 12.000 3.280 L 13.320 3.280 13.320 4.640 M16.120 8.163 C 16.430 8.334,16.675 8.615,16.796 8.938 C 16.878 9.157,16.880 9.222,16.880 11.480 C 16.880 13.730,16.878 13.803,16.797 14.020 C 16.680 14.333,16.354 14.675,16.031 14.824 L 15.780 14.940 12.125 14.951 C 8.064 14.963,8.171 14.969,7.780 14.700 C 7.538 14.534,7.389 14.352,7.247 14.049 L 7.140 13.820 7.127 11.620 C 7.114 9.256,7.124 9.093,7.312 8.746 C 7.451 8.489,7.791 8.185,8.050 8.084 C 8.256 8.005,8.329 8.003,12.060 8.012 L 15.860 8.020 16.120 8.163 M9.067 17.784 C 9.237 17.911,9.335 18.107,9.335 18.320 C 9.335 18.571,9.222 18.758,9.001 18.870 C 8.841 18.951,8.765 18.960,8.244 18.960 C 7.578 18.960,7.390 18.903,7.237 18.655 C 7.072 18.389,7.146 17.979,7.389 17.809 C 7.565 17.686,7.585 17.683,8.287 17.692 C 8.896 17.699,8.964 17.707,9.067 17.784 M16.576 17.771 C 16.978 18.001,16.984 18.562,16.587 18.856 C 16.487 18.931,16.409 18.941,15.871 18.953 C 15.189 18.968,14.998 18.924,14.823 18.716 C 14.636 18.494,14.639 18.142,14.830 17.916 C 15.003 17.710,15.114 17.683,15.800 17.682 C 16.369 17.681,16.433 17.689,16.576 17.771 " fill="var(--db-icon-color, currentColor)" stroke="none" fill-rule="evenodd"></path></svg>