<svg id="icon" height="32" viewBox="0 0 32 32" width="32" xmlns="http://www.w3.org/2000/svg"><path d="M10.258 2.129 C 9.829 2.284,8.419 3.212,8.296 3.422 C 8.054 3.834,8.228 4.374,8.672 4.589 C 9.050 4.772,9.218 4.722,10.092 4.165 L 10.853 3.680 11.507 3.680 L 12.160 3.680 12.160 4.847 L 12.160 6.014 10.973 6.042 C 9.692 6.072,9.401 6.118,8.747 6.396 C 7.455 6.946,6.498 8.075,6.121 9.493 L 6.000 9.947 6.000 18.000 L 6.000 26.053 6.118 26.518 C 6.551 28.213,7.787 29.449,9.482 29.882 L 9.947 30.000 16.080 30.000 L 22.213 30.000 22.640 29.879 C 24.318 29.404,25.449 28.263,25.958 26.533 C 26.046 26.235,26.053 25.675,26.067 18.216 C 26.084 9.486,26.093 9.798,25.781 8.967 C 25.383 7.905,24.428 6.889,23.406 6.437 C 22.703 6.127,22.058 6.027,20.761 6.027 L 19.893 6.027 19.893 4.880 L 19.893 3.733 20.520 3.734 L 21.147 3.734 21.787 4.112 C 22.675 4.636,22.795 4.693,23.016 4.693 C 23.763 4.693,24.146 3.771,23.608 3.267 C 23.451 3.120,22.427 2.495,21.947 2.254 C 21.504 2.031,21.381 2.027,15.851 2.029 C 10.808 2.030,10.519 2.036,10.258 2.129 M18.187 4.880 L 18.187 6.027 16.027 6.027 L 13.867 6.027 13.867 4.880 L 13.867 3.733 16.027 3.733 L 18.187 3.733 18.187 4.880 M21.333 9.179 C 21.768 9.386,22.101 9.709,22.305 10.122 L 22.480 10.478 22.480 14.026 L 22.480 17.573 22.310 17.898 C 22.096 18.309,21.645 18.726,21.240 18.890 L 20.933 19.013 16.303 19.029 C 13.556 19.038,11.522 19.024,11.304 18.993 C 10.579 18.893,10.032 18.507,9.723 17.878 L 9.573 17.573 9.573 14.000 L 9.573 10.427 9.724 10.133 C 9.988 9.617,10.453 9.230,10.983 9.086 C 11.171 9.034,12.357 9.022,16.133 9.030 L 21.040 9.040 21.333 9.179 M17.333 21.316 C 17.844 21.635,17.863 22.373,17.369 22.741 C 17.227 22.848,17.156 22.853,16.000 22.853 C 14.852 22.853,14.773 22.847,14.634 22.743 C 14.257 22.462,14.145 22.049,14.341 21.664 C 14.565 21.225,14.747 21.176,16.107 21.190 C 17.073 21.199,17.160 21.208,17.333 21.316 M12.663 25.354 C 13.141 25.719,13.121 26.369,12.619 26.743 C 12.481 26.847,12.401 26.853,11.263 26.853 C 10.082 26.853,10.049 26.850,9.879 26.729 C 9.648 26.564,9.534 26.331,9.534 26.020 C 9.534 25.690,9.694 25.431,9.988 25.283 C 10.200 25.176,10.280 25.170,11.338 25.185 L 12.462 25.200 12.663 25.354 M22.005 25.275 C 22.329 25.422,22.480 25.665,22.480 26.036 C 22.480 26.363,22.390 26.536,22.113 26.743 C 21.974 26.847,21.894 26.853,20.756 26.853 C 19.575 26.853,19.543 26.850,19.373 26.729 C 18.854 26.359,18.913 25.566,19.481 25.285 C 19.687 25.183,19.798 25.174,20.747 25.175 C 21.645 25.176,21.816 25.189,22.005 25.275 " fill="var(--db-icon-color, currentColor)" stroke="none" fill-rule="evenodd"></path></svg>