<svg id="icon" height="24" viewBox="0 0 24 24" width="24" xmlns="http://www.w3.org/2000/svg"><path d="M10.920 6.140 C 10.887 6.150,9.996 6.320,8.940 6.519 C 7.884 6.717,6.939 6.899,6.840 6.922 C 6.583 6.983,6.388 7.132,6.261 7.366 L 6.150 7.568 6.188 8.254 C 6.251 9.397,6.150 10.226,5.885 10.749 C 5.679 11.156,5.734 11.134,4.256 11.403 C 2.680 11.690,2.578 11.717,2.411 11.888 C 2.157 12.152,2.160 12.119,2.160 14.260 C 2.160 16.418,2.153 16.356,2.429 16.605 C 2.654 16.808,2.825 16.856,3.237 16.828 C 4.009 16.776,4.793 16.384,5.640 15.625 C 5.827 15.457,5.989 15.321,6.000 15.321 C 6.011 15.321,6.173 15.457,6.360 15.623 C 7.944 17.031,9.378 17.209,10.912 16.187 C 11.125 16.045,11.449 15.792,11.630 15.624 C 11.812 15.457,11.974 15.321,11.990 15.321 C 12.007 15.322,12.182 15.467,12.380 15.643 C 13.059 16.247,13.673 16.602,14.319 16.765 C 14.603 16.836,14.733 16.847,15.119 16.829 C 16.019 16.788,16.755 16.420,17.648 15.567 L 17.963 15.267 18.111 15.408 C 18.594 15.867,18.862 15.980,19.223 15.879 C 19.611 15.771,19.582 15.819,21.284 12.367 L 22.849 9.194 22.833 8.941 C 22.821 8.748,22.791 8.651,22.707 8.530 C 22.567 8.329,22.265 8.160,22.044 8.160 C 21.911 8.160,15.937 9.238,15.720 9.301 C 15.679 9.313,15.613 9.228,15.508 9.029 C 14.789 7.663,13.479 6.605,12.048 6.236 C 11.762 6.162,11.057 6.102,10.920 6.140 M11.688 7.885 C 12.171 7.986,12.778 8.342,13.219 8.784 C 13.457 9.022,13.899 9.595,13.868 9.625 C 13.846 9.647,7.751 10.764,7.736 10.749 C 7.728 10.741,7.739 10.674,7.760 10.599 C 7.846 10.301,7.920 9.567,7.920 9.020 L 7.920 8.444 8.050 8.419 C 8.121 8.405,8.819 8.271,9.600 8.121 C 11.068 7.838,11.328 7.809,11.688 7.885 M18.843 10.684 C 19.513 10.828,19.713 11.686,19.185 12.150 C 19.108 12.218,19.013 12.283,18.973 12.295 C 18.933 12.306,16.563 12.778,13.706 13.342 C 8.722 14.327,8.505 14.366,8.329 14.317 C 7.665 14.131,7.499 13.270,8.044 12.832 C 8.177 12.724,8.341 12.686,10.384 12.280 C 11.592 12.040,13.930 11.574,15.580 11.246 C 17.230 10.917,18.593 10.646,18.608 10.644 C 18.623 10.642,18.729 10.660,18.843 10.684 M5.606 17.621 C 5.533 17.653,5.312 17.831,5.115 18.017 C 4.362 18.725,3.554 19.160,2.990 19.160 C 2.684 19.160,2.388 19.354,2.232 19.657 C 2.169 19.778,2.155 19.869,2.167 20.062 C 2.186 20.350,2.305 20.556,2.547 20.720 C 2.681 20.811,2.732 20.820,3.117 20.820 C 3.926 20.820,4.671 20.521,5.600 19.822 L 5.980 19.537 6.260 19.713 C 6.631 19.946,7.267 20.251,7.644 20.377 C 8.913 20.800,10.127 20.594,11.596 19.707 C 11.803 19.582,11.977 19.480,11.984 19.480 C 11.990 19.480,12.163 19.582,12.368 19.707 C 13.626 20.475,14.815 20.746,15.850 20.502 C 16.400 20.372,17.206 20.019,17.756 19.668 L 17.973 19.529 18.262 19.759 C 19.148 20.463,20.029 20.820,20.883 20.820 C 21.268 20.820,21.319 20.811,21.453 20.720 C 21.775 20.502,21.924 20.075,21.804 19.711 C 21.709 19.423,21.337 19.163,21.018 19.161 C 20.417 19.158,19.527 18.682,18.826 17.989 C 18.268 17.437,17.970 17.420,17.326 17.900 C 16.219 18.726,15.285 19.029,14.485 18.821 C 13.973 18.689,13.311 18.343,12.751 17.916 C 12.390 17.641,12.224 17.564,11.978 17.562 C 11.789 17.560,11.632 17.639,11.091 18.008 C 10.285 18.558,9.482 18.883,8.924 18.884 C 8.757 18.885,8.533 18.865,8.426 18.841 C 7.888 18.721,7.196 18.355,6.630 17.892 C 6.235 17.569,5.919 17.485,5.606 17.621 " fill="var(--db-icon-color, currentColor)" stroke="none" fill-rule="evenodd"></path></svg>