<svg id="icon" height="24" viewBox="0 0 24 24" width="24" xmlns="http://www.w3.org/2000/svg"><path d="M6.622 2.204 C 5.325 2.396,4.406 3.306,4.202 4.600 C 4.179 4.743,4.160 5.179,4.160 5.568 L 4.160 6.276 4.021 6.218 C 3.832 6.139,3.533 6.147,3.337 6.236 C 3.142 6.324,2.948 6.548,2.886 6.757 C 2.822 6.968,2.822 10.032,2.886 10.243 C 3.023 10.702,3.580 10.967,4.021 10.782 L 4.160 10.724 4.161 14.452 C 4.163 18.465,4.164 18.498,4.373 19.048 C 4.502 19.388,4.711 19.714,4.980 19.997 L 5.192 20.220 5.206 20.760 C 5.219 21.265,5.227 21.312,5.331 21.489 C 5.561 21.880,5.842 22.001,6.515 21.998 C 7.018 21.996,7.195 21.955,7.417 21.785 C 7.587 21.655,7.754 21.322,7.787 21.048 L 7.811 20.840 12.000 20.840 L 16.189 20.840 16.213 21.040 C 16.240 21.274,16.367 21.579,16.492 21.713 C 16.687 21.922,16.864 21.976,17.408 21.993 C 18.031 22.011,18.249 21.954,18.500 21.702 C 18.736 21.466,18.800 21.250,18.800 20.688 L 18.800 20.230 19.037 19.976 C 19.450 19.535,19.701 19.015,19.798 18.400 C 19.824 18.236,19.840 16.768,19.840 14.432 L 19.840 10.724 19.979 10.782 C 20.168 10.861,20.467 10.853,20.663 10.764 C 20.858 10.676,21.052 10.452,21.114 10.243 C 21.175 10.042,21.177 6.964,21.118 6.749 C 21.063 6.552,20.862 6.326,20.660 6.235 C 20.466 6.146,20.167 6.139,19.979 6.218 L 19.840 6.276 19.839 5.548 C 19.838 5.115,19.815 4.698,19.783 4.520 C 19.580 3.399,18.836 2.582,17.731 2.269 L 17.420 2.181 12.140 2.175 C 9.236 2.171,6.753 2.185,6.622 2.204 M15.180 3.285 C 15.392 3.344,15.659 3.613,15.716 3.825 C 15.821 4.214,15.589 4.615,15.200 4.720 C 15.096 4.748,14.008 4.758,11.912 4.751 C 8.838 4.740,8.777 4.738,8.641 4.658 C 8.564 4.613,8.449 4.502,8.385 4.411 C 8.104 4.011,8.336 3.392,8.811 3.279 C 9.026 3.228,14.995 3.233,15.180 3.285 M18.160 10.320 C 18.160 12.696,18.150 14.640,18.138 14.640 C 18.125 14.640,17.716 14.693,17.228 14.759 C 15.153 15.037,13.780 15.136,12.000 15.136 C 10.084 15.136,7.974 14.966,5.990 14.653 L 5.840 14.630 5.840 10.315 L 5.840 6.000 12.000 6.000 L 18.160 6.000 18.160 10.320 M7.340 17.014 C 8.280 17.454,8.170 18.814,7.171 19.104 C 6.897 19.184,6.660 19.158,6.371 19.017 C 5.505 18.594,5.581 17.309,6.493 16.973 C 6.718 16.890,7.116 16.910,7.340 17.014 M17.507 16.973 C 18.078 17.183,18.377 17.824,18.178 18.408 C 17.997 18.938,17.371 19.262,16.829 19.104 C 15.830 18.814,15.720 17.454,16.660 17.014 C 16.884 16.910,17.282 16.890,17.507 16.973 " fill="var(--db-icon-color, currentColor)" stroke="none" fill-rule="evenodd"></path></svg>