<svg id="icon" height="32" viewBox="0 0 32 32" width="32" xmlns="http://www.w3.org/2000/svg"><path d="M14.538 6.402 C 12.799 6.600,11.295 7.272,10.194 8.340 C 9.421 9.091,8.980 9.840,8.713 10.853 C 8.592 11.313,8.572 11.497,8.571 12.187 C 8.567 13.734,8.953 14.765,9.889 15.712 C 10.854 16.688,12.037 17.241,14.795 18.005 C 17.638 18.792,18.495 19.235,18.945 20.149 C 19.097 20.458,19.119 20.555,19.119 20.931 C 19.120 21.294,19.097 21.407,18.970 21.665 C 18.664 22.289,17.885 22.816,16.931 23.045 C 16.028 23.261,14.561 23.115,13.387 22.692 C 11.690 22.080,10.017 20.826,8.931 19.351 L 8.693 19.028 8.693 20.956 L 8.693 22.883 8.887 23.055 C 9.362 23.478,10.069 23.929,10.907 24.347 C 13.984 25.879,17.106 26.053,19.613 24.831 C 22.126 23.606,23.677 21.079,23.423 18.625 C 23.292 17.364,22.937 16.547,22.187 15.784 C 21.740 15.330,21.339 15.042,20.714 14.727 C 19.820 14.277,19.231 14.084,17.280 13.598 C 15.592 13.179,15.119 13.042,14.529 12.801 C 13.345 12.317,12.772 11.666,12.708 10.728 C 12.627 9.550,13.448 8.729,14.841 8.595 C 15.354 8.545,16.283 8.603,16.880 8.722 C 18.567 9.058,20.483 10.141,21.865 11.543 C 22.085 11.765,22.283 11.947,22.305 11.947 C 22.328 11.947,22.347 11.240,22.347 10.376 L 22.347 8.805 21.827 8.437 C 19.940 7.105,18.017 6.461,15.679 6.379 C 15.284 6.365,14.770 6.375,14.538 6.402 " fill="var(--db-icon-color, currentColor)" stroke="none" fill-rule="evenodd"></path></svg>