<svg id="icon" height="32" viewBox="0 0 32 32" width="32" xmlns="http://www.w3.org/2000/svg"><path d="M19.680 2.263 C 18.683 2.541,17.857 3.418,17.650 4.418 C 17.511 5.084,17.665 5.943,18.022 6.499 C 19.015 8.046,21.125 8.292,22.417 7.013 C 22.985 6.451,23.253 5.797,23.253 4.977 C 23.253 3.705,22.390 2.591,21.147 2.259 C 20.817 2.171,20.002 2.173,19.680 2.263 M20.933 3.987 C 21.369 4.202,21.566 4.556,21.538 5.069 C 21.512 5.527,21.335 5.803,20.943 5.998 C 20.352 6.293,19.713 6.074,19.403 5.471 C 19.242 5.159,19.284 4.666,19.497 4.364 C 19.827 3.893,20.426 3.736,20.933 3.987 M19.331 9.700 C 18.465 10.121,14.583 12.171,14.488 12.257 C 14.298 12.429,14.244 12.634,13.942 14.334 L 13.638 16.046 13.766 16.303 C 13.947 16.667,14.187 16.816,14.549 16.787 C 14.718 16.773,14.889 16.721,14.976 16.657 C 15.280 16.432,15.329 16.289,15.566 14.928 C 15.691 14.212,15.812 13.579,15.835 13.520 C 15.862 13.450,16.394 13.142,17.365 12.633 C 18.184 12.203,18.860 11.858,18.869 11.866 C 18.882 11.878,18.579 14.867,18.318 17.291 C 18.214 18.262,18.220 18.536,18.350 18.827 C 18.430 19.005,18.935 19.545,20.329 20.941 L 22.201 22.815 23.012 25.991 C 23.459 27.737,23.855 29.240,23.892 29.330 C 24.051 29.714,24.511 29.939,24.898 29.822 C 25.270 29.709,25.493 29.409,25.493 29.021 C 25.493 28.815,23.827 22.207,23.725 22.006 C 23.694 21.944,22.831 21.053,21.808 20.026 L 19.948 18.159 20.350 14.320 C 20.571 12.208,20.741 10.375,20.729 10.247 C 20.699 9.952,20.562 9.765,20.266 9.613 C 19.945 9.449,19.821 9.461,19.331 9.700 M22.014 12.057 C 21.785 12.178,21.661 12.344,21.600 12.612 C 21.518 12.975,21.621 13.168,22.269 13.877 L 22.875 14.538 24.091 15.160 C 24.761 15.502,25.408 15.797,25.531 15.817 C 26.183 15.921,26.739 15.129,26.402 14.576 C 26.272 14.363,26.273 14.363,24.982 13.698 C 23.911 13.147,23.911 13.147,23.471 12.667 C 22.821 11.959,22.474 11.814,22.014 12.057 M2.470 16.110 C 2.222 16.233,2.116 16.366,2.037 16.654 C 1.925 17.061,2.195 17.536,2.606 17.656 C 2.737 17.694,4.049 17.707,6.623 17.696 C 10.406 17.680,10.447 17.679,10.596 17.568 C 11.120 17.180,11.120 16.526,10.596 16.138 C 10.447 16.028,10.408 16.027,6.569 16.013 C 2.737 15.999,2.691 16.000,2.470 16.110 M4.748 20.119 C 4.133 20.430,4.145 21.296,4.768 21.597 C 4.996 21.708,5.036 21.709,8.868 21.694 C 12.683 21.680,12.741 21.678,12.886 21.570 C 13.166 21.361,13.253 21.191,13.253 20.853 C 13.253 20.516,13.166 20.346,12.886 20.137 C 12.741 20.028,12.683 20.026,8.863 20.012 L 4.987 19.998 4.748 20.119 M17.200 21.003 C 17.112 21.059,16.997 21.153,16.944 21.212 C 16.824 21.348,13.560 28.649,13.517 28.879 C 13.408 29.456,13.937 29.955,14.538 29.843 C 14.952 29.765,14.969 29.734,16.743 25.746 C 17.654 23.700,18.412 21.936,18.429 21.826 C 18.466 21.586,18.292 21.210,18.069 21.048 C 17.859 20.895,17.406 20.872,17.200 21.003 " fill="var(--db-icon-color, currentColor)" stroke="none" fill-rule="evenodd"></path></svg>