<svg id="icon" height="24" viewBox="0 0 24 24" width="24" xmlns="http://www.w3.org/2000/svg"><path d="M12.747 5.297 C 12.088 5.538,12.011 6.418,12.620 6.754 C 12.717 6.807,12.900 6.824,13.580 6.840 L 14.420 6.860 14.765 7.883 L 15.110 8.907 13.433 11.143 C 12.510 12.373,11.742 13.385,11.725 13.391 C 11.703 13.399,9.943 9.136,9.447 7.874 C 9.439 7.855,9.601 7.840,9.807 7.839 C 10.342 7.838,10.589 7.709,10.738 7.351 C 10.895 6.975,10.727 6.538,10.345 6.329 C 10.232 6.267,10.049 6.260,8.500 6.260 C 6.951 6.260,6.768 6.267,6.655 6.329 C 6.052 6.659,6.055 7.485,6.660 7.764 C 6.785 7.822,6.918 7.838,7.263 7.839 L 7.707 7.840 8.137 8.899 C 8.374 9.481,8.561 9.973,8.554 9.991 C 8.512 10.093,7.348 11.720,7.316 11.720 C 7.296 11.720,7.149 11.683,6.989 11.637 C 6.614 11.530,5.800 11.490,5.378 11.558 C 4.564 11.689,3.821 12.089,3.236 12.710 C 2.791 13.181,2.538 13.627,2.335 14.300 C 2.236 14.627,2.226 14.718,2.226 15.300 C 2.226 15.882,2.236 15.973,2.335 16.300 C 2.540 16.979,2.809 17.446,3.277 17.934 C 4.064 18.756,5.211 19.188,6.320 19.081 C 7.951 18.922,9.261 17.801,9.660 16.224 L 9.752 15.860 10.746 15.840 C 11.839 15.818,11.862 15.813,12.105 15.553 C 12.174 15.480,13.008 14.380,13.960 13.110 C 14.911 11.840,15.702 10.800,15.716 10.800 C 15.742 10.800,16.120 11.907,16.120 11.981 C 16.120 12.003,16.037 12.072,15.936 12.136 C 15.477 12.426,15.002 12.920,14.719 13.400 C 13.994 14.634,14.043 16.221,14.844 17.407 C 15.473 18.340,16.472 18.943,17.610 19.079 C 18.947 19.238,20.372 18.570,21.147 17.420 C 21.890 16.318,22.002 14.900,21.442 13.693 C 21.027 12.799,20.181 12.038,19.240 11.713 C 18.867 11.584,18.678 11.551,18.163 11.525 L 17.667 11.500 17.413 10.740 C 17.273 10.322,17.149 9.949,17.137 9.910 C 17.116 9.845,17.182 9.840,18.147 9.839 C 19.072 9.838,19.197 9.830,19.340 9.763 C 19.553 9.664,20.657 8.549,20.738 8.351 C 20.920 7.912,20.643 7.386,20.172 7.277 C 19.818 7.195,19.625 7.292,19.078 7.825 L 18.653 8.240 17.611 8.240 L 16.569 8.240 16.545 8.146 C 16.532 8.095,16.338 7.516,16.114 6.860 C 15.686 5.609,15.621 5.480,15.344 5.328 C 15.237 5.269,15.064 5.259,14.060 5.250 C 13.148 5.243,12.867 5.253,12.747 5.297 M9.801 12.992 C 10.070 13.658,10.282 14.212,10.271 14.222 C 10.261 14.233,9.646 14.236,8.905 14.231 L 7.557 14.220 8.243 13.240 C 9.192 11.885,9.286 11.753,9.299 11.767 C 9.306 11.774,9.531 12.325,9.801 12.992 M6.334 13.170 C 6.317 13.197,6.088 13.526,5.825 13.900 C 5.562 14.274,5.312 14.670,5.270 14.780 C 5.157 15.074,5.221 15.366,5.454 15.617 C 5.648 15.826,5.742 15.840,6.981 15.840 L 8.125 15.840 8.100 15.930 C 7.958 16.431,7.432 17.048,6.960 17.269 C 5.840 17.792,4.577 17.359,4.040 16.267 C 3.426 15.016,4.086 13.559,5.440 13.178 C 5.688 13.108,6.376 13.102,6.334 13.170 M18.516 13.181 C 19.359 13.380,20.034 14.113,20.167 14.973 C 20.334 16.057,19.651 17.113,18.582 17.422 C 18.237 17.521,17.692 17.512,17.360 17.401 C 16.761 17.200,16.315 16.820,16.046 16.282 C 15.710 15.611,15.733 14.844,16.108 14.203 C 16.217 14.017,16.586 13.600,16.642 13.600 C 16.659 13.600,16.812 14.015,16.980 14.521 C 17.311 15.512,17.379 15.638,17.658 15.765 C 18.190 16.006,18.802 15.624,18.799 15.051 C 18.799 14.968,18.666 14.500,18.503 14.010 C 18.341 13.521,18.219 13.120,18.234 13.121 C 18.248 13.121,18.375 13.148,18.516 13.181 " fill="var(--db-icon-color, currentColor)" stroke="none" fill-rule="evenodd"></path></svg>