<svg id="icon" height="20" viewBox="0 0 20 20" width="20" xmlns="http://www.w3.org/2000/svg"><path d="M5.009 8.192 C 5.020 12.381,5.020 12.383,5.093 12.707 C 5.254 13.410,5.499 13.951,5.860 14.403 C 6.484 15.182,7.417 15.673,8.717 15.904 C 9.095 15.971,9.259 15.981,10.000 15.981 C 10.741 15.981,10.905 15.971,11.281 15.904 C 13.277 15.549,14.426 14.586,14.851 12.914 C 14.994 12.353,15.000 12.155,15.000 7.985 L 15.000 4.000 13.500 4.000 L 12.000 4.000 11.999 7.775 C 11.999 10.105,11.986 11.638,11.965 11.780 C 11.838 12.660,11.288 13.279,10.480 13.450 C 9.544 13.648,8.617 13.249,8.252 12.490 C 8.001 11.969,8.019 12.299,8.008 7.925 L 7.998 4.000 6.498 4.000 L 4.998 4.000 5.009 8.192 " fill="var(--db-icon-color, currentColor)" stroke="none" fill-rule="evenodd"></path></svg>