<svg id="icon" height="20" viewBox="0 0 20 20" width="20" xmlns="http://www.w3.org/2000/svg"><path d="M9.876 2.213 C 9.529 2.326,9.198 2.622,9.039 2.959 C 8.960 3.128,8.950 3.190,8.950 3.500 C 8.950 3.823,8.958 3.867,9.054 4.069 C 9.311 4.611,9.910 4.936,10.473 4.838 C 11.067 4.733,11.495 4.305,11.608 3.702 C 11.711 3.148,11.383 2.545,10.841 2.291 C 10.650 2.201,10.572 2.184,10.317 2.177 C 10.128 2.171,9.964 2.184,9.876 2.213 M9.756 5.988 C 9.723 5.998,9.056 6.305,8.274 6.670 C 6.779 7.368,6.681 7.427,6.561 7.691 C 6.523 7.775,6.423 8.283,6.315 8.939 C 6.138 10.008,6.134 10.051,6.181 10.214 C 6.399 10.962,7.370 11.064,7.740 10.377 C 7.808 10.251,7.853 10.053,7.952 9.450 C 8.021 9.028,8.089 8.667,8.104 8.648 C 8.141 8.599,9.099 8.155,9.121 8.176 C 9.130 8.185,9.082 8.851,9.014 9.655 L 8.891 11.117 7.575 13.728 L 6.259 16.340 6.274 16.519 C 6.296 16.783,6.447 17.058,6.643 17.189 C 7.016 17.440,7.415 17.403,7.714 17.089 C 7.853 16.942,8.031 16.613,8.904 14.884 C 9.468 13.766,9.942 12.848,9.957 12.844 C 9.971 12.840,10.272 13.117,10.625 13.460 L 11.267 14.083 11.774 15.500 C 12.281 16.913,12.282 16.917,12.449 17.089 C 12.582 17.225,12.658 17.273,12.813 17.317 C 13.146 17.414,13.506 17.297,13.711 17.026 C 13.832 16.866,13.913 16.593,13.887 16.429 C 13.862 16.276,12.865 13.462,12.755 13.237 C 12.663 13.049,10.880 11.304,10.646 11.173 C 10.605 11.150,10.615 10.943,10.717 9.749 C 10.783 8.981,10.840 8.350,10.843 8.347 C 10.847 8.344,11.274 8.611,11.793 8.939 C 12.884 9.629,13.013 9.684,13.335 9.589 C 13.833 9.444,14.077 8.992,13.927 8.492 C 13.852 8.242,13.675 8.109,12.083 7.108 C 11.240 6.577,10.482 6.109,10.400 6.066 C 10.252 5.991,9.895 5.948,9.756 5.988 " fill="var(--db-icon-color, currentColor)" stroke="none" fill-rule="evenodd"></path></svg>