<svg id="icon" height="32" viewBox="0 0 32 32" width="32" xmlns="http://www.w3.org/2000/svg"><path d="M24.579 4.275 C 23.901 4.669,24.107 5.718,24.886 5.839 C 24.985 5.854,25.151 5.880,25.254 5.896 C 25.463 5.928,25.778 6.178,25.893 6.400 C 25.934 6.479,26.425 9.602,26.985 13.339 C 27.544 17.076,28.012 20.183,28.026 20.245 C 28.050 20.349,27.947 20.383,26.338 20.793 C 25.333 21.049,24.565 21.273,24.479 21.334 C 24.294 21.466,24.160 21.746,24.160 22.000 C 24.160 22.456,24.531 22.838,24.969 22.833 C 25.301 22.829,29.371 21.792,29.541 21.668 C 29.618 21.612,29.726 21.473,29.783 21.360 L 29.885 21.153 28.756 13.630 L 27.627 6.107 27.414 5.674 C 26.965 4.758,26.012 4.156,25.019 4.161 C 24.868 4.162,24.699 4.206,24.579 4.275 M2.635 13.089 C 2.433 13.178,2.259 13.392,2.182 13.649 C 2.061 14.053,2.340 14.522,2.787 14.664 L 2.987 14.728 2.987 15.996 C 2.987 17.083,3.002 17.321,3.092 17.675 C 3.322 18.575,3.895 19.286,4.700 19.671 C 4.946 19.788,5.274 19.910,5.429 19.942 C 5.626 19.982,8.087 20.000,13.509 19.999 C 22.089 19.998,21.610 20.016,22.333 19.668 C 22.818 19.434,23.431 18.825,23.666 18.344 C 23.956 17.749,23.998 17.455,23.999 16.015 L 24.000 14.724 24.222 14.664 C 24.798 14.509,25.037 13.783,24.658 13.333 C 24.368 12.988,25.265 13.013,13.509 13.015 C 4.667 13.017,2.771 13.030,2.635 13.089 M6.246 21.258 C 5.028 21.585,4.161 22.725,4.161 24.000 C 4.161 25.563,5.424 26.835,6.975 26.835 C 7.795 26.835,8.418 26.578,8.991 26.005 C 9.430 25.565,9.665 25.133,9.792 24.533 C 10.093 23.107,9.158 21.633,7.707 21.246 C 7.360 21.153,6.611 21.159,6.246 21.258 M19.259 21.258 C 18.023 21.590,17.166 22.713,17.166 24.000 C 17.166 25.584,18.416 26.834,20.000 26.834 C 21.253 26.834,22.292 26.081,22.695 24.880 C 23.211 23.342,22.298 21.667,20.718 21.255 C 20.329 21.154,19.641 21.155,19.259 21.258 M12.705 21.788 C 12.299 21.876,11.646 22.182,11.426 22.388 C 11.109 22.684,11.071 23.199,11.342 23.520 C 11.663 23.903,12.026 23.937,12.600 23.640 C 12.967 23.450,13.012 23.440,13.493 23.440 C 13.971 23.440,14.023 23.451,14.404 23.640 C 14.884 23.878,15.151 23.898,15.418 23.719 C 15.940 23.367,15.985 22.691,15.511 22.330 C 14.828 21.809,13.653 21.582,12.705 21.788 M7.517 22.985 C 7.985 23.224,8.228 23.759,8.104 24.277 C 8.012 24.663,7.651 25.025,7.267 25.117 C 6.885 25.208,6.476 25.089,6.191 24.804 C 5.936 24.549,5.848 24.293,5.877 23.887 C 5.906 23.497,6.108 23.184,6.448 23.004 C 6.753 22.843,7.222 22.835,7.517 22.985 M20.522 22.981 C 20.923 23.187,21.120 23.523,21.120 24.000 C 21.120 24.672,20.662 25.137,20.000 25.137 C 19.338 25.137,18.880 24.672,18.880 24.001 C 18.880 23.520,19.078 23.188,19.493 22.969 C 19.724 22.847,20.274 22.854,20.522 22.981 " fill="var(--db-icon-color, currentColor)" stroke="none" fill-rule="evenodd"></path></svg>