<svg id="icon" height="24" viewBox="0 0 24 24" width="24" xmlns="http://www.w3.org/2000/svg"><path d="M9.856 2.040 C 8.634 2.141,7.775 2.443,6.949 3.064 C 5.939 3.821,5.315 4.918,5.091 6.329 C 5.026 6.745,5.020 7.183,5.020 12.000 C 5.020 17.728,5.015 17.607,5.263 18.471 C 5.564 19.521,6.278 20.501,7.179 21.101 C 7.677 21.432,8.395 21.735,8.885 21.822 C 9.027 21.846,9.033 21.842,9.124 21.660 C 9.371 21.166,9.799 21.021,10.477 21.201 C 11.263 21.410,12.744 21.409,13.510 21.199 C 13.841 21.109,14.048 21.100,14.244 21.166 C 14.475 21.245,14.724 21.442,14.851 21.645 C 14.943 21.793,14.996 21.840,15.071 21.840 C 15.210 21.840,15.945 21.589,16.247 21.438 C 17.455 20.834,18.366 19.748,18.736 18.470 C 18.984 17.613,18.980 17.731,18.980 12.000 C 18.980 6.269,18.984 6.387,18.736 5.530 C 18.283 3.967,17.033 2.717,15.471 2.264 C 14.757 2.057,14.424 2.032,12.260 2.019 C 11.160 2.013,10.078 2.022,9.856 2.040 M15.231 4.060 C 16.152 4.277,16.760 5.046,16.760 5.993 C 16.760 6.417,16.340 13.384,16.280 13.948 C 16.256 14.172,16.209 14.451,16.175 14.568 C 15.971 15.261,15.462 15.749,14.760 15.925 C 14.438 16.006,9.562 16.006,9.240 15.925 C 8.756 15.804,8.273 15.468,8.060 15.104 C 7.946 14.909,7.780 14.312,7.721 13.884 C 7.671 13.523,7.240 6.435,7.240 5.974 C 7.240 5.798,7.269 5.557,7.304 5.437 C 7.499 4.772,8.071 4.227,8.745 4.063 C 9.101 3.977,14.867 3.975,15.231 4.060 M10.340 18.066 C 10.709 18.192,11.000 18.604,11.000 19.000 C 11.000 19.242,10.881 19.521,10.701 19.701 C 10.447 19.955,10.266 20.000,9.500 20.000 C 8.734 20.000,8.553 19.955,8.299 19.701 C 7.907 19.309,7.908 18.690,8.300 18.298 C 8.552 18.046,8.709 18.007,9.483 18.003 C 10.001 18.001,10.188 18.014,10.340 18.066 M15.340 18.066 C 15.709 18.192,16.000 18.604,16.000 19.000 C 16.000 19.242,15.881 19.521,15.701 19.701 C 15.447 19.955,15.266 20.000,14.500 20.000 C 13.734 20.000,13.553 19.955,13.299 19.701 C 12.907 19.309,12.908 18.690,13.300 18.298 C 13.552 18.046,13.709 18.007,14.483 18.003 C 15.001 18.001,15.188 18.014,15.340 18.066 " fill="var(--db-icon-color, currentColor)" stroke="none" fill-rule="evenodd"></path></svg>