<svg id="icon" height="32" viewBox="0 0 32 32" width="32" xmlns="http://www.w3.org/2000/svg"><path d="M12.604 3.257 C 12.356 3.380,12.250 3.513,12.170 3.801 C 12.058 4.207,12.328 4.683,12.739 4.802 C 12.869 4.840,13.985 4.854,16.107 4.843 L 19.280 4.827 19.460 4.698 C 19.982 4.326,19.927 3.542,19.358 3.252 C 19.159 3.151,19.034 3.147,15.989 3.147 C 12.899 3.147,12.822 3.149,12.604 3.257 M9.124 6.190 C 8.598 6.260,7.953 6.593,7.551 7.003 C 6.990 7.575,6.949 7.689,6.111 11.017 L 5.360 14.000 3.973 14.027 C 3.020 14.045,2.551 14.074,2.472 14.119 C 2.088 14.339,1.945 14.803,1.987 15.691 C 2.010 16.182,2.033 16.295,2.153 16.500 C 2.230 16.630,2.383 16.793,2.493 16.862 C 2.671 16.973,2.771 16.989,3.393 17.005 L 4.092 17.023 4.129 17.672 C 4.189 18.752,4.582 22.621,4.661 22.915 C 4.854 23.638,5.328 24.272,5.897 24.569 L 6.186 24.720 6.187 25.870 C 6.187 27.394,6.244 27.592,6.773 27.874 C 6.937 27.961,7.087 27.973,8.000 27.973 C 8.913 27.973,9.063 27.961,9.227 27.874 C 9.742 27.599,9.813 27.375,9.813 26.043 L 9.813 25.065 10.013 25.092 C 10.328 25.134,11.658 25.222,12.848 25.280 C 15.368 25.403,20.439 25.299,21.987 25.092 L 22.187 25.065 22.187 26.043 C 22.187 27.375,22.258 27.599,22.773 27.874 C 22.937 27.961,23.087 27.973,24.000 27.973 C 24.913 27.973,25.063 27.961,25.227 27.874 C 25.757 27.591,25.813 27.398,25.813 25.844 L 25.814 24.667 26.107 24.513 C 26.684 24.212,27.163 23.548,27.330 22.817 C 27.430 22.383,27.785 18.762,27.825 17.778 L 27.855 17.023 28.585 17.005 C 29.252 16.988,29.331 16.976,29.502 16.858 C 29.605 16.787,29.747 16.645,29.818 16.542 C 29.939 16.367,29.948 16.302,29.961 15.524 C 29.975 14.741,29.968 14.681,29.853 14.481 C 29.786 14.364,29.636 14.215,29.519 14.149 C 29.315 14.033,29.257 14.028,27.985 14.028 C 26.664 14.027,26.664 14.027,26.619 13.907 C 26.594 13.841,26.244 12.479,25.842 10.880 C 25.294 8.702,25.069 7.893,24.944 7.653 C 24.725 7.233,24.168 6.683,23.759 6.485 C 23.044 6.137,23.622 6.162,16.213 6.153 C 12.503 6.149,9.313 6.165,9.124 6.190 M23.001 8.016 C 23.141 8.099,23.314 8.255,23.385 8.363 C 23.479 8.506,23.699 9.298,24.184 11.239 C 24.552 12.713,24.853 13.943,24.853 13.973 C 24.853 14.009,21.955 14.027,16.000 14.027 C 9.687 14.027,7.147 14.010,7.147 13.969 C 7.147 13.937,7.448 12.707,7.817 11.236 C 8.508 8.479,8.577 8.273,8.880 8.075 C 9.243 7.837,9.050 7.843,16.080 7.855 L 22.747 7.867 23.001 8.016 M9.429 18.102 C 9.593 18.188,9.825 18.424,9.913 18.596 C 10.065 18.892,9.936 19.505,9.670 19.745 C 9.421 19.971,9.228 20.000,8.000 20.000 C 6.772 20.000,6.579 19.971,6.330 19.745 C 6.052 19.494,5.935 18.890,6.102 18.571 C 6.184 18.414,6.417 18.183,6.587 18.089 C 6.757 17.995,9.246 18.006,9.429 18.102 M25.429 18.102 C 25.593 18.188,25.825 18.424,25.913 18.596 C 26.065 18.892,25.936 19.505,25.670 19.745 C 25.421 19.971,25.228 20.000,24.000 20.000 C 22.772 20.000,22.579 19.971,22.330 19.745 C 22.052 19.494,21.935 18.890,22.102 18.571 C 22.184 18.414,22.417 18.183,22.587 18.089 C 22.757 17.995,25.246 18.006,25.429 18.102 M19.456 19.115 C 19.763 19.275,20.001 19.668,19.999 20.012 C 19.996 20.416,19.661 20.848,19.265 20.958 C 18.995 21.033,13.005 21.033,12.735 20.958 C 12.177 20.803,11.862 20.167,12.082 19.640 C 12.181 19.404,12.293 19.271,12.507 19.139 C 12.658 19.046,12.848 19.040,15.989 19.040 C 18.739 19.040,19.337 19.053,19.456 19.115 " fill="var(--db-icon-color, currentColor)" stroke="none" fill-rule="evenodd"></path></svg>