<svg id="icon" height="20" viewBox="0 0 20 20" width="20" xmlns="http://www.w3.org/2000/svg"><path d="M7.800 2.215 C 6.066 2.513,4.691 3.740,4.281 5.355 C 4.143 5.901,4.133 6.180,4.133 9.701 L 4.133 13.062 4.333 13.183 C 4.982 13.577,6.629 14.205,7.484 14.383 C 7.630 14.413,7.975 14.452,8.250 14.468 C 8.919 14.508,11.499 14.506,11.914 14.466 C 12.789 14.381,14.547 13.783,15.587 13.216 L 15.877 13.058 15.856 9.470 C 15.836 6.023,15.833 5.871,15.767 5.559 C 15.633 4.920,15.405 4.422,15.008 3.894 C 14.490 3.205,13.737 2.667,12.898 2.388 C 12.292 2.186,12.327 2.189,10.100 2.180 C 8.546 2.174,7.990 2.182,7.800 2.215 M12.079 3.083 C 12.726 3.220,13.286 3.701,13.518 4.317 C 13.683 4.755,13.682 4.807,13.500 7.110 C 13.409 8.269,13.311 9.314,13.283 9.433 C 13.114 10.160,12.526 10.712,11.766 10.857 C 11.399 10.927,8.730 10.940,8.341 10.874 C 7.540 10.737,6.859 10.111,6.703 9.367 C 6.682 9.266,6.590 8.243,6.499 7.093 C 6.329 4.948,6.325 4.802,6.430 4.443 C 6.618 3.802,7.240 3.229,7.906 3.084 C 8.223 3.016,11.755 3.014,12.079 3.083 M7.654 11.597 C 8.328 11.699,8.416 11.728,8.597 11.905 C 8.762 12.067,8.832 12.245,8.832 12.500 C 8.832 12.926,8.583 13.236,8.167 13.329 C 8.059 13.354,7.883 13.339,7.389 13.264 C 7.038 13.211,6.705 13.147,6.649 13.121 C 6.219 12.922,6.040 12.394,6.258 11.966 C 6.360 11.767,6.525 11.619,6.721 11.549 C 6.897 11.486,6.928 11.488,7.654 11.597 M13.359 11.579 C 13.662 11.736,13.833 12.014,13.833 12.350 C 13.833 12.689,13.649 12.984,13.351 13.121 C 13.295 13.147,12.962 13.211,12.611 13.264 C 12.117 13.339,11.941 13.354,11.833 13.329 C 11.417 13.236,11.168 12.926,11.168 12.500 C 11.168 12.247,11.238 12.067,11.399 11.907 C 11.572 11.733,11.675 11.698,12.314 11.598 C 12.947 11.498,13.194 11.494,13.359 11.579 M4.451 15.008 C 4.494 15.152,4.734 15.609,4.891 15.845 C 5.105 16.170,5.643 16.717,5.994 16.967 C 6.257 17.155,6.808 17.457,6.989 17.514 C 7.049 17.532,7.072 17.516,7.117 17.421 C 7.240 17.161,7.519 16.960,7.840 16.899 C 7.983 16.872,8.102 16.883,8.554 16.965 C 9.695 17.174,10.305 17.174,11.446 16.965 C 11.898 16.883,12.017 16.872,12.160 16.899 C 12.481 16.960,12.760 17.161,12.883 17.421 C 12.948 17.558,12.951 17.558,13.382 17.343 C 14.153 16.959,14.849 16.309,15.279 15.571 C 15.415 15.338,15.579 14.968,15.556 14.945 C 15.548 14.937,15.326 15.012,15.063 15.112 C 14.266 15.413,13.085 15.787,12.619 15.886 C 12.178 15.980,11.393 16.007,9.617 15.991 C 7.678 15.974,7.614 15.968,6.767 15.728 C 6.219 15.573,5.073 15.188,4.704 15.035 C 4.568 14.979,4.451 14.933,4.443 14.933 C 4.435 14.933,4.439 14.967,4.451 15.008 " fill="var(--db-icon-color, currentColor)" stroke="none" fill-rule="evenodd"></path></svg>