<svg id="icon" height="24" viewBox="0 0 24 24" width="24" xmlns="http://www.w3.org/2000/svg"><path d="M10.680 4.346 C 10.603 4.356,10.334 4.410,10.082 4.466 C 8.115 4.902,6.645 6.168,6.203 7.805 C 5.969 8.671,6.003 9.642,6.297 10.488 C 6.622 11.421,7.391 12.196,8.531 12.740 C 9.116 13.019,9.491 13.148,10.691 13.483 C 13.308 14.215,14.004 14.568,14.369 15.347 C 14.472 15.567,14.492 15.658,14.495 15.934 C 14.497 16.209,14.481 16.297,14.390 16.494 C 14.169 16.968,13.551 17.416,12.851 17.608 C 12.400 17.732,11.470 17.732,10.875 17.609 C 9.188 17.258,7.557 16.231,6.494 14.848 C 6.346 14.657,6.211 14.483,6.193 14.462 C 6.175 14.441,6.160 15.117,6.160 15.964 L 6.160 17.504 6.430 17.726 C 8.000 19.018,10.554 19.835,12.525 19.677 C 14.105 19.549,15.367 18.988,16.426 17.941 C 17.728 16.654,18.227 14.987,17.801 13.342 C 17.618 12.633,17.180 11.966,16.589 11.497 C 16.196 11.186,15.334 10.746,14.720 10.545 C 14.489 10.469,13.787 10.279,13.160 10.122 C 11.323 9.662,10.829 9.502,10.315 9.198 C 9.642 8.802,9.329 8.257,9.369 7.554 C 9.382 7.330,9.415 7.191,9.493 7.030 C 9.705 6.597,10.214 6.237,10.780 6.119 C 11.073 6.058,11.825 6.058,12.282 6.119 C 13.904 6.335,15.652 7.270,16.796 8.533 L 17.040 8.802 17.040 7.521 L 17.040 6.241 16.750 6.027 C 15.662 5.224,14.428 4.696,13.040 4.437 C 12.679 4.370,12.390 4.349,11.700 4.340 C 11.216 4.333,10.757 4.336,10.680 4.346 " fill="var(--db-icon-color, currentColor)" stroke="none" fill-rule="evenodd"></path></svg>