<svg id="icon" height="20" viewBox="0 0 20 20" width="20" xmlns="http://www.w3.org/2000/svg"><path d="M7.838 2.038 C 7.131 2.092,6.519 2.264,6.015 2.552 C 4.952 3.158,4.324 4.071,4.090 5.350 C 4.017 5.748,4.017 5.768,4.017 10.000 C 4.017 14.232,4.017 14.252,4.090 14.650 C 4.256 15.556,4.598 16.237,5.181 16.819 C 5.771 17.410,6.497 17.768,7.417 17.922 C 7.747 17.977,8.001 17.983,10.000 17.983 C 12.456 17.983,12.594 17.974,13.267 17.760 C 14.470 17.376,15.376 16.470,15.760 15.267 C 15.989 14.547,15.983 14.681,15.983 10.000 C 15.983 6.058,15.979 5.759,15.922 5.417 C 15.704 4.115,15.062 3.166,13.985 2.552 C 13.459 2.252,12.879 2.095,12.083 2.035 C 11.534 1.994,8.386 1.996,7.838 2.038 M13.354 4.107 C 13.686 4.282,13.900 4.622,13.900 4.975 C 13.900 5.212,13.341 11.913,13.302 12.146 C 13.233 12.554,12.970 12.848,12.582 12.949 C 12.289 13.025,7.711 13.025,7.418 12.949 C 7.037 12.850,6.772 12.560,6.700 12.164 C 6.665 11.969,6.100 5.183,6.100 4.951 C 6.100 4.544,6.433 4.134,6.850 4.031 C 6.905 4.017,8.352 4.008,10.067 4.011 L 13.183 4.017 13.354 4.107 M8.402 14.587 C 8.485 14.626,8.608 14.705,8.675 14.764 C 8.985 15.036,9.079 15.555,8.890 15.941 C 8.777 16.170,8.586 16.342,8.343 16.433 C 8.192 16.490,8.083 16.500,7.638 16.500 C 7.268 16.500,7.062 16.485,6.944 16.450 C 6.742 16.390,6.502 16.188,6.374 15.972 C 6.292 15.832,6.283 15.785,6.283 15.500 C 6.283 15.148,6.314 15.062,6.525 14.829 C 6.649 14.692,6.840 14.576,7.017 14.530 C 7.072 14.516,7.372 14.507,7.683 14.511 C 8.180 14.516,8.269 14.526,8.402 14.587 M13.185 14.607 C 13.364 14.700,13.557 14.891,13.656 15.073 C 13.703 15.157,13.717 15.258,13.717 15.500 C 13.717 15.785,13.708 15.832,13.626 15.972 C 13.498 16.188,13.258 16.390,13.056 16.450 C 12.938 16.485,12.732 16.500,12.362 16.500 C 11.917 16.500,11.808 16.490,11.657 16.433 C 10.935 16.163,10.777 15.177,11.383 14.715 C 11.626 14.530,11.787 14.498,12.433 14.509 C 12.990 14.518,13.025 14.523,13.185 14.607 " fill="var(--db-icon-color, currentColor)" stroke="none" fill-rule="evenodd"></path></svg>