<svg id="icon" height="20" viewBox="0 0 20 20" width="20" xmlns="http://www.w3.org/2000/svg"><path d="M5.549 2.215 C 4.247 2.417,3.314 3.422,3.181 4.763 L 3.158 5.000 2.679 5.000 L 2.200 5.000 2.200 7.000 L 2.200 9.000 2.665 9.000 L 3.130 9.000 3.141 12.125 C 3.154 15.552,3.145 15.394,3.355 15.828 C 3.461 16.046,3.713 16.355,3.878 16.467 L 4.000 16.550 4.000 17.275 L 4.000 18.000 5.250 18.000 L 6.500 18.000 6.500 17.433 L 6.500 16.867 10.000 16.867 L 13.500 16.867 13.500 17.433 L 13.500 18.000 14.750 18.000 L 16.000 18.000 16.001 17.275 L 16.003 16.550 16.133 16.460 C 16.292 16.350,16.540 16.041,16.650 15.817 C 16.854 15.399,16.846 15.542,16.859 12.125 L 16.870 9.000 17.335 9.000 L 17.800 9.000 17.800 7.000 L 17.800 5.000 17.321 5.000 L 16.842 5.000 16.819 4.763 C 16.705 3.611,15.997 2.696,14.934 2.327 C 14.480 2.170,14.384 2.167,9.967 2.170 C 6.827 2.173,5.751 2.183,5.549 2.215 M13.000 4.017 L 13.000 4.767 10.000 4.767 L 7.000 4.767 7.000 4.017 L 7.000 3.267 10.000 3.267 L 13.000 3.267 13.000 4.017 M15.133 8.696 L 15.133 11.626 15.058 11.644 C 14.927 11.676,13.638 11.830,13.067 11.882 C 11.086 12.060,8.914 12.060,6.933 11.882 C 6.362 11.830,5.073 11.676,4.942 11.644 L 4.867 11.626 4.867 8.696 L 4.867 5.767 10.000 5.767 L 15.133 5.767 15.133 8.696 M6.250 13.345 C 6.493 13.459,6.617 13.577,6.731 13.807 C 6.817 13.978,6.833 14.049,6.833 14.252 C 6.833 15.297,5.436 15.628,4.969 14.695 C 4.883 14.523,4.867 14.451,4.867 14.253 C 4.868 13.849,5.053 13.545,5.407 13.369 C 5.674 13.235,5.995 13.226,6.250 13.345 M14.493 13.369 C 14.697 13.470,14.831 13.606,14.954 13.833 C 15.002 13.923,15.016 14.020,15.016 14.250 C 15.016 14.480,15.002 14.577,14.954 14.667 C 14.829 14.899,14.696 15.031,14.484 15.135 C 13.982 15.383,13.393 15.184,13.148 14.683 C 13.076 14.535,13.059 14.454,13.059 14.250 C 13.059 13.938,13.164 13.700,13.388 13.503 C 13.579 13.335,13.756 13.273,14.053 13.269 C 14.253 13.267,14.321 13.282,14.493 13.369 " fill="var(--db-icon-color, currentColor)" stroke="none" fill-rule="evenodd"></path></svg>