<svg id="icon" height="20" viewBox="0 0 20 20" width="20" xmlns="http://www.w3.org/2000/svg"><path d="M6.002 3.038 C 5.739 3.081,5.381 3.267,5.143 3.482 C 4.902 3.700,4.637 4.080,4.533 4.357 C 4.479 4.502,3.700 7.890,3.700 7.983 C 3.700 7.992,3.318 8.000,2.850 8.000 L 2.000 8.000 2.000 9.000 L 2.000 10.000 2.548 10.000 L 3.096 10.000 3.115 10.142 C 3.126 10.220,3.187 10.763,3.251 11.350 C 3.377 12.503,3.424 12.788,3.534 13.068 C 3.611 13.267,3.869 13.700,3.950 13.766 C 3.993 13.802,4.000 13.971,4.000 14.937 L 4.000 16.067 5.250 16.067 L 6.500 16.067 6.500 15.399 L 6.500 14.732 6.575 14.749 C 6.709 14.779,7.435 14.864,8.067 14.923 C 8.934 15.004,11.066 15.004,11.933 14.923 C 12.565 14.864,13.291 14.779,13.425 14.749 L 13.500 14.732 13.500 15.399 L 13.500 16.067 14.750 16.067 L 16.000 16.067 16.000 14.950 L 16.000 13.834 16.154 13.625 C 16.409 13.278,16.537 12.981,16.598 12.593 C 16.616 12.478,16.683 11.911,16.748 11.333 C 16.812 10.756,16.874 10.220,16.885 10.142 L 16.904 10.000 17.452 10.000 L 18.000 10.000 18.000 9.000 L 18.000 8.000 17.150 8.000 C 16.683 8.000,16.300 7.991,16.300 7.981 C 16.300 7.935,15.659 5.076,15.569 4.719 C 15.424 4.146,15.285 3.875,14.987 3.582 C 14.818 3.416,14.668 3.305,14.497 3.221 C 14.034 2.993,14.199 3.001,9.983 3.004 C 7.893 3.006,6.102 3.021,6.002 3.038 M13.967 4.729 C 13.967 4.758,14.550 7.777,14.584 7.925 L 14.601 8.000 10.000 8.000 L 5.399 8.000 5.416 7.925 C 5.450 7.778,6.033 4.759,6.033 4.730 C 6.033 4.712,7.679 4.700,10.000 4.700 C 12.243 4.700,13.967 4.713,13.967 4.729 M5.667 10.531 C 6.604 10.752,6.703 10.796,6.856 11.058 C 6.932 11.187,6.949 11.254,6.947 11.417 C 6.941 11.845,6.625 12.166,6.209 12.166 C 6.094 12.167,4.581 11.823,4.424 11.761 C 4.216 11.679,4.000 11.333,4.000 11.083 C 4.000 10.807,4.248 10.457,4.500 10.377 C 4.699 10.314,4.802 10.328,5.667 10.531 M15.464 10.366 C 15.918 10.496,16.130 11.010,15.907 11.437 C 15.760 11.718,15.651 11.767,14.700 11.982 C 14.251 12.084,13.840 12.167,13.787 12.167 C 13.506 12.167,13.185 11.942,13.101 11.685 C 13.034 11.482,13.070 11.174,13.181 11.008 C 13.333 10.781,13.443 10.735,14.333 10.529 C 15.207 10.327,15.288 10.316,15.464 10.366 M11.479 11.041 C 11.562 11.065,11.678 11.142,11.769 11.233 C 11.922 11.385,11.922 11.386,12.082 12.026 C 12.271 12.784,12.274 12.931,12.107 13.173 C 11.895 13.482,11.509 13.581,11.172 13.413 C 10.906 13.280,10.839 13.172,10.701 12.642 L 10.664 12.500 10.000 12.500 L 9.336 12.500 9.303 12.625 C 9.285 12.694,9.251 12.823,9.227 12.911 C 9.101 13.388,8.538 13.632,8.124 13.390 C 7.913 13.266,7.793 13.080,7.773 12.848 C 7.762 12.708,7.794 12.524,7.918 12.026 C 8.078 11.386,8.078 11.385,8.231 11.233 C 8.315 11.149,8.436 11.064,8.500 11.044 C 8.672 10.989,11.297 10.987,11.479 11.041 " fill="var(--db-icon-color, currentColor)" stroke="none" fill-rule="evenodd"></path></svg>