<svg id="icon" height="24" viewBox="0 0 24 24" width="24" xmlns="http://www.w3.org/2000/svg"><path d="M17.721 4.202 C 17.091 4.471,16.991 5.303,17.542 5.690 C 17.658 5.771,17.789 5.817,17.997 5.848 C 18.340 5.899,18.533 6.035,18.600 6.274 C 18.649 6.446,20.040 14.297,20.040 14.398 C 20.040 14.450,19.798 14.564,19.025 14.877 C 18.249 15.190,17.981 15.316,17.887 15.413 C 17.757 15.547,17.640 15.821,17.640 15.990 C 17.640 16.295,17.861 16.639,18.137 16.764 C 18.463 16.912,18.564 16.887,20.098 16.279 C 21.378 15.771,21.527 15.702,21.654 15.561 C 21.788 15.413,21.879 15.194,21.880 15.019 C 21.880 14.948,20.540 7.365,20.317 6.180 C 20.214 5.631,20.038 5.248,19.737 4.924 C 19.298 4.450,18.787 4.204,18.180 4.176 C 17.976 4.167,17.777 4.178,17.721 4.202 M2.705 9.059 C 2.386 9.173,2.162 9.500,2.161 9.857 C 2.159 10.248,2.423 10.576,2.819 10.676 L 3.000 10.721 3.001 11.711 C 3.001 12.830,3.033 13.042,3.263 13.481 C 3.641 14.200,4.320 14.752,5.058 14.939 C 5.417 15.031,14.583 15.031,14.942 14.939 C 15.680 14.752,16.359 14.200,16.737 13.481 C 16.967 13.043,16.999 12.829,16.999 11.713 L 17.000 10.726 17.220 10.662 C 17.599 10.552,17.841 10.235,17.839 9.851 C 17.837 9.488,17.580 9.134,17.251 9.042 C 17.148 9.014,14.830 9.001,9.980 9.002 C 4.038 9.003,2.834 9.013,2.705 9.059 M4.580 16.047 C 4.236 16.113,3.883 16.310,3.596 16.596 C 2.800 17.393,2.800 18.607,3.596 19.404 C 4.393 20.200,5.607 20.200,6.404 19.404 C 7.200 18.607,7.200 17.393,6.404 16.596 C 5.913 16.106,5.277 15.914,4.580 16.047 M14.580 16.047 C 13.707 16.214,13.000 17.087,13.000 18.000 C 13.000 18.920,13.690 19.768,14.592 19.956 C 15.816 20.211,17.000 19.249,17.000 18.000 C 17.000 17.477,16.790 16.983,16.404 16.596 C 15.913 16.106,15.277 15.914,14.580 16.047 M9.679 16.444 C 9.171 16.486,8.578 16.705,8.372 16.927 C 8.159 17.155,8.100 17.563,8.236 17.863 C 8.337 18.086,8.569 18.267,8.826 18.325 C 9.022 18.369,9.063 18.363,9.420 18.246 C 9.905 18.087,10.098 18.087,10.584 18.245 C 10.940 18.362,10.983 18.367,11.176 18.324 C 11.691 18.209,11.981 17.654,11.778 17.169 C 11.687 16.951,11.572 16.845,11.264 16.696 C 10.816 16.479,10.278 16.394,9.679 16.444 " fill="var(--db-icon-color, currentColor)" stroke="none" fill-rule="evenodd"></path></svg>