<svg id="icon" height="32" viewBox="0 0 32 32" width="32" xmlns="http://www.w3.org/2000/svg"><path d="M13.088 2.185 C 12.706 2.243,12.468 2.328,11.941 2.591 C 11.436 2.843,11.223 3.050,11.169 3.340 C 11.091 3.753,11.380 4.210,11.787 4.320 C 12.051 4.391,12.192 4.356,12.720 4.087 L 13.147 3.870 14.147 3.850 L 15.147 3.830 15.147 5.168 L 15.147 6.507 13.735 6.507 C 11.631 6.507,10.770 6.638,9.973 7.079 C 9.521 7.329,8.823 8.028,8.572 8.480 C 8.328 8.921,8.130 9.604,8.057 10.258 C 7.980 10.953,7.978 25.611,8.055 26.241 C 8.252 27.842,8.941 28.916,10.156 29.517 C 11.118 29.991,11.820 30.045,16.608 30.011 C 20.422 29.984,20.590 29.973,21.404 29.702 C 22.403 29.370,23.243 28.556,23.665 27.511 C 23.974 26.746,23.963 27.052,23.986 18.640 C 24.001 13.334,23.989 10.730,23.950 10.343 C 23.827 9.144,23.518 8.424,22.828 7.728 C 21.838 6.729,21.006 6.507,18.265 6.507 L 16.853 6.507 16.853 5.168 L 16.853 3.830 17.853 3.850 L 18.853 3.870 19.280 4.087 C 19.808 4.356,19.949 4.391,20.213 4.320 C 20.620 4.210,20.909 3.753,20.831 3.340 C 20.777 3.050,20.564 2.843,20.059 2.589 C 19.178 2.147,19.362 2.168,16.187 2.155 C 14.632 2.148,13.238 2.162,13.088 2.185 M19.490 8.820 C 19.968 9.185,19.948 9.836,19.446 10.210 C 19.302 10.318,19.235 10.320,16.116 10.336 C 13.977 10.347,12.869 10.334,12.738 10.295 C 12.349 10.182,12.103 9.736,12.186 9.294 C 12.230 9.055,12.564 8.712,12.785 8.677 C 12.867 8.665,14.363 8.657,16.111 8.660 L 19.288 8.667 19.490 8.820 M22.281 16.902 L 22.267 21.590 22.104 21.795 C 21.814 22.161,21.603 22.225,20.427 22.304 C 19.013 22.398,12.916 22.399,11.600 22.304 C 10.482 22.224,10.306 22.181,10.046 21.929 C 9.689 21.582,9.707 21.856,9.707 16.802 L 9.707 12.213 16.001 12.213 L 22.296 12.213 22.281 16.902 M13.307 24.954 C 13.747 25.155,13.974 25.515,13.973 26.008 C 13.972 26.459,13.758 26.818,13.378 27.007 C 13.102 27.145,13.086 27.147,11.891 27.147 C 11.129 27.147,10.616 27.124,10.501 27.086 C 10.014 26.923,9.672 26.411,9.719 25.915 C 9.757 25.520,9.989 25.179,10.343 25.000 L 10.632 24.853 11.863 24.855 C 12.942 24.856,13.120 24.868,13.307 24.954 M21.750 25.027 C 22.508 25.529,22.445 26.644,21.637 27.035 C 21.423 27.138,21.315 27.147,20.168 27.147 C 18.821 27.147,18.683 27.123,18.382 26.837 C 18.112 26.581,18.013 26.320,18.037 25.925 C 18.067 25.417,18.345 25.051,18.808 24.906 C 18.892 24.880,19.538 24.864,20.244 24.870 L 21.528 24.880 21.750 25.027 " fill="var(--db-icon-color, currentColor)" stroke="none" fill-rule="evenodd"></path></svg>