<svg id="icon" height="24" viewBox="0 0 24 24" width="24" xmlns="http://www.w3.org/2000/svg"><path d="M2.828 2.278 C 2.611 2.321,2.362 2.511,2.253 2.716 L 2.160 2.893 2.160 5.566 L 2.160 8.240 8.701 8.240 C 14.525 8.240,15.259 8.247,15.391 8.302 C 16.070 8.586,16.094 9.503,15.432 9.844 C 15.287 9.918,15.100 9.920,8.721 9.920 L 2.159 9.920 2.169 13.393 L 2.180 16.866 2.279 17.011 C 2.334 17.091,2.451 17.197,2.539 17.248 C 2.680 17.329,2.750 17.339,3.100 17.335 C 3.692 17.327,4.356 17.110,5.015 16.709 L 5.250 16.567 5.439 16.683 C 5.778 16.892,6.373 17.153,6.720 17.246 C 7.191 17.371,7.808 17.371,8.280 17.246 C 8.602 17.161,9.358 16.822,9.622 16.644 L 9.743 16.563 9.982 16.707 C 10.333 16.921,10.742 17.103,11.144 17.225 C 11.449 17.317,11.572 17.332,12.000 17.332 C 12.428 17.332,12.551 17.317,12.856 17.225 C 13.257 17.103,13.667 16.921,14.016 16.709 L 14.252 16.565 14.456 16.686 C 14.781 16.878,15.273 17.101,15.640 17.223 C 15.939 17.321,16.038 17.334,16.460 17.333 C 17.026 17.330,17.401 17.245,17.911 17.001 C 18.848 16.553,19.368 16.060,20.169 14.860 C 20.839 13.856,21.390 12.635,21.658 11.561 C 21.805 10.972,21.849 10.619,21.834 10.133 C 21.821 9.712,21.813 9.677,21.700 9.517 C 21.634 9.424,21.508 9.310,21.420 9.264 C 21.266 9.183,21.187 9.179,19.442 9.160 L 17.625 9.140 17.234 7.540 C 17.019 6.660,16.833 5.900,16.821 5.850 L 16.798 5.760 11.754 5.760 C 8.090 5.760,6.668 5.748,6.557 5.714 C 6.348 5.652,6.124 5.458,6.036 5.263 C 5.867 4.892,6.006 4.416,6.346 4.200 L 6.536 4.080 11.448 4.080 C 15.918 4.080,16.360 4.074,16.360 4.016 C 16.360 3.898,16.083 2.802,16.025 2.690 C 15.954 2.553,15.822 2.432,15.640 2.335 C 15.505 2.263,15.269 2.260,9.240 2.254 C 5.797 2.251,2.911 2.262,2.828 2.278 M5.187 12.493 C 5.637 12.659,5.920 13.078,5.920 13.579 C 5.920 13.806,5.899 13.907,5.817 14.072 C 5.470 14.767,4.551 14.931,4.009 14.395 C 3.752 14.140,3.660 13.918,3.662 13.560 C 3.664 13.318,3.685 13.221,3.770 13.056 C 3.890 12.824,4.101 12.623,4.337 12.516 C 4.525 12.430,4.984 12.418,5.187 12.493 M9.187 12.493 C 9.637 12.659,9.920 13.078,9.920 13.579 C 9.920 13.806,9.899 13.907,9.817 14.072 C 9.470 14.767,8.551 14.931,8.009 14.395 C 7.752 14.140,7.660 13.918,7.662 13.560 C 7.664 13.318,7.685 13.221,7.770 13.056 C 7.890 12.824,8.101 12.623,8.337 12.516 C 8.525 12.430,8.984 12.418,9.187 12.493 M13.187 12.493 C 13.637 12.659,13.920 13.078,13.920 13.579 C 13.920 13.806,13.899 13.907,13.817 14.072 C 13.470 14.767,12.551 14.931,12.009 14.395 C 11.752 14.140,11.660 13.918,11.662 13.560 C 11.664 13.318,11.685 13.221,11.770 13.056 C 11.890 12.824,12.101 12.623,12.337 12.516 C 12.525 12.430,12.984 12.418,13.187 12.493 M17.187 12.493 C 17.637 12.659,17.920 13.078,17.920 13.579 C 17.920 13.806,17.899 13.907,17.817 14.072 C 17.470 14.767,16.551 14.931,16.009 14.395 C 15.752 14.140,15.660 13.918,15.662 13.560 C 15.664 13.318,15.685 13.221,15.770 13.056 C 15.890 12.824,16.101 12.623,16.337 12.516 C 16.525 12.430,16.984 12.418,17.187 12.493 M4.928 18.220 C 4.856 18.252,4.718 18.342,4.623 18.420 C 4.351 18.643,3.820 18.947,3.548 19.036 C 3.412 19.081,3.158 19.135,2.984 19.156 C 2.423 19.223,2.141 19.531,2.168 20.044 C 2.184 20.352,2.286 20.536,2.537 20.711 C 2.682 20.812,2.722 20.820,3.097 20.820 C 3.690 20.820,4.255 20.646,4.933 20.255 L 5.252 20.071 5.396 20.157 C 6.797 20.991,7.880 21.057,9.180 20.387 C 9.334 20.307,9.525 20.204,9.604 20.157 L 9.748 20.071 10.070 20.257 C 10.717 20.630,11.242 20.797,11.864 20.828 C 12.551 20.863,13.146 20.702,13.885 20.281 C 14.080 20.171,14.250 20.080,14.264 20.080 C 14.277 20.080,14.336 20.114,14.395 20.156 C 14.598 20.301,15.221 20.592,15.560 20.700 C 15.980 20.833,16.612 20.877,17.025 20.800 C 17.484 20.715,18.062 20.479,18.603 20.158 L 18.746 20.072 19.103 20.277 C 19.987 20.784,20.958 20.982,21.404 20.747 C 21.667 20.608,21.813 20.376,21.832 20.065 C 21.850 19.788,21.794 19.629,21.605 19.426 C 21.454 19.263,21.301 19.195,20.952 19.134 C 20.466 19.050,20.045 18.876,19.642 18.593 C 19.150 18.248,18.974 18.160,18.777 18.160 C 18.530 18.160,18.393 18.222,17.945 18.535 C 17.461 18.874,17.049 19.072,16.706 19.131 C 16.259 19.207,15.707 19.007,15.027 18.520 C 14.633 18.239,14.461 18.160,14.240 18.160 C 14.017 18.160,13.881 18.224,13.440 18.540 C 12.981 18.868,12.586 19.059,12.231 19.124 C 12.004 19.166,11.925 19.163,11.693 19.107 C 11.341 19.022,10.863 18.780,10.463 18.483 C 10.028 18.161,9.762 18.091,9.458 18.218 C 9.381 18.251,9.170 18.384,8.989 18.516 C 8.571 18.819,8.042 19.073,7.710 19.130 C 7.497 19.167,7.405 19.163,7.188 19.109 C 6.833 19.022,6.395 18.799,5.992 18.501 C 5.809 18.365,5.597 18.233,5.523 18.207 C 5.343 18.144,5.090 18.150,4.928 18.220 " fill="var(--db-icon-color, currentColor)" stroke="none" fill-rule="evenodd"></path></svg>