<svg id="icon" height="32" viewBox="0 0 32 32" width="32" xmlns="http://www.w3.org/2000/svg"><path d="M19.760 7.185 C 19.571 7.231,19.298 7.475,19.215 7.672 C 19.048 8.073,19.246 8.576,19.645 8.766 C 19.804 8.841,20.064 8.853,21.535 8.853 L 23.241 8.853 23.526 9.002 C 23.734 9.111,23.855 9.222,23.973 9.411 L 24.133 9.671 24.147 11.676 L 24.161 13.680 21.380 16.920 L 18.599 20.160 17.115 20.160 L 15.632 20.160 15.582 19.987 C 15.555 19.891,14.953 17.881,14.243 15.520 C 13.145 11.864,12.926 11.186,12.767 10.952 C 12.566 10.655,12.337 10.474,11.920 10.282 C 11.658 10.162,11.617 10.160,9.440 10.143 C 8.223 10.133,7.099 10.141,6.943 10.160 C 6.707 10.189,6.621 10.232,6.429 10.418 C 6.122 10.715,6.069 10.987,6.248 11.345 C 6.494 11.836,6.356 11.811,8.985 11.828 C 10.723 11.840,11.310 11.859,11.350 11.908 C 11.380 11.944,11.547 12.453,11.721 13.040 L 12.039 14.107 9.259 14.143 C 7.514 14.166,6.342 14.203,6.108 14.243 C 4.586 14.505,3.149 15.647,2.551 17.072 C 2.224 17.850,2.175 18.152,2.147 19.560 C 2.116 21.128,2.133 21.274,2.382 21.550 C 2.621 21.814,2.813 21.866,3.552 21.866 L 4.145 21.867 4.174 22.307 C 4.305 24.286,5.984 25.834,8.000 25.834 C 10.002 25.834,11.685 24.285,11.824 22.315 L 11.856 21.867 15.474 21.867 C 18.698 21.867,19.115 21.857,19.309 21.779 C 19.494 21.705,19.986 21.157,22.599 18.113 C 24.450 15.955,25.711 14.442,25.772 14.304 C 25.868 14.088,25.873 13.943,25.856 11.771 C 25.839 9.517,25.836 9.459,25.714 9.120 C 25.452 8.386,24.892 7.755,24.222 7.435 C 23.692 7.182,23.369 7.148,21.547 7.154 C 20.623 7.157,19.819 7.171,19.760 7.185 M25.541 18.194 C 24.012 18.344,22.677 19.514,22.262 21.067 C 22.201 21.296,22.169 21.612,22.169 22.000 C 22.169 22.674,22.259 23.081,22.538 23.664 C 23.014 24.660,23.974 25.447,25.067 25.738 C 25.547 25.865,26.418 25.866,26.921 25.739 C 28.264 25.401,29.401 24.264,29.739 22.921 C 29.866 22.418,29.865 21.547,29.738 21.067 C 29.451 19.986,28.691 19.050,27.707 18.562 C 27.042 18.232,26.349 18.114,25.541 18.194 M26.411 19.900 C 27.279 20.084,27.935 20.759,28.110 21.648 C 28.244 22.330,27.982 23.065,27.419 23.586 C 26.979 23.994,26.631 24.126,26.000 24.126 C 25.369 24.126,25.021 23.994,24.581 23.586 C 24.021 23.067,23.762 22.351,23.888 21.667 C 24.049 20.794,24.671 20.126,25.520 19.915 C 25.865 19.830,26.063 19.826,26.411 19.900 M10.117 22.241 C 9.997 23.672,8.400 24.568,7.077 23.946 C 6.396 23.626,5.870 22.808,5.867 22.067 L 5.867 21.867 8.008 21.867 L 10.149 21.867 10.117 22.241 " fill="var(--db-icon-color, currentColor)" stroke="none" fill-rule="evenodd"></path></svg>