<svg id="icon" height="24" viewBox="0 0 24 24" width="24" xmlns="http://www.w3.org/2000/svg"><path d="M6.019 6.243 C 4.673 6.371,3.434 7.208,2.824 8.400 C 2.609 8.819,2.526 9.078,2.332 9.920 L 2.180 10.580 2.180 12.742 L 2.180 14.904 2.331 15.210 C 2.503 15.557,2.783 15.838,3.139 16.018 C 3.361 16.130,3.439 16.127,3.441 16.008 C 3.441 15.970,3.502 15.794,3.575 15.616 C 4.049 14.466,5.066 13.624,6.277 13.378 C 6.691 13.294,7.567 13.316,7.940 13.420 C 8.476 13.569,9.106 13.924,9.526 14.312 C 10.139 14.879,10.578 15.757,10.665 16.586 L 10.690 16.829 11.035 16.853 C 11.225 16.867,12.113 16.907,13.010 16.944 C 14.880 17.021,14.868 17.022,15.152 16.699 C 15.315 16.515,16.133 14.942,16.460 14.185 C 16.849 13.285,16.910 12.978,16.763 12.655 C 16.607 12.311,14.936 10.568,14.060 9.835 C 13.281 9.183,12.327 8.518,11.493 8.045 C 10.877 7.696,9.777 7.183,9.060 6.909 C 7.488 6.309,6.833 6.165,6.019 6.243 M8.100 8.838 C 9.331 9.263,10.104 9.552,10.340 9.675 C 10.679 9.853,11.814 10.617,12.479 11.116 C 12.816 11.368,12.951 11.568,12.986 11.871 C 13.073 12.598,12.365 13.182,11.687 12.942 C 11.597 12.911,11.095 12.585,10.572 12.218 C 10.048 11.851,9.503 11.493,9.360 11.422 C 9.069 11.277,6.250 10.297,6.218 10.329 C 6.206 10.340,6.133 10.590,6.056 10.884 C 5.978 11.178,5.878 11.478,5.834 11.550 C 5.677 11.804,5.314 12.000,5.002 12.000 C 4.474 12.000,3.999 11.527,4.000 11.003 C 4.001 10.924,4.109 10.446,4.241 9.940 C 4.514 8.893,4.610 8.701,4.999 8.430 C 5.303 8.218,5.514 8.158,5.900 8.175 C 6.191 8.188,6.388 8.248,8.100 8.838 M20.244 14.402 C 20.072 14.447,19.735 14.593,19.444 14.748 C 18.511 15.246,18.523 15.240,18.083 15.298 C 17.746 15.342,17.641 15.372,17.508 15.466 C 16.974 15.842,17.077 16.682,17.689 16.938 C 17.954 17.049,18.640 16.994,19.115 16.823 C 19.211 16.788,19.574 16.606,19.923 16.417 C 20.500 16.105,20.589 16.069,20.924 16.015 C 21.348 15.947,21.462 15.897,21.630 15.705 C 21.986 15.300,21.874 14.661,21.404 14.413 C 21.176 14.293,20.679 14.288,20.244 14.402 M6.580 15.047 C 5.859 15.185,5.199 15.848,5.044 16.592 C 4.905 17.257,5.105 17.912,5.596 18.404 C 6.393 19.200,7.607 19.200,8.404 18.404 C 9.200 17.607,9.200 16.393,8.404 15.596 C 7.913 15.106,7.277 14.914,6.580 15.047 " fill="var(--db-icon-color, currentColor)" stroke="none" fill-rule="evenodd"></path></svg>