<svg id="icon" height="24" viewBox="0 0 24 24" width="24" xmlns="http://www.w3.org/2000/svg"><path d="M9.680 2.224 C 9.497 2.303,9.332 2.462,9.232 2.657 C 9.169 2.778,9.155 2.869,9.167 3.062 C 9.186 3.350,9.305 3.556,9.546 3.720 L 9.694 3.820 11.897 3.832 C 13.109 3.838,14.160 3.833,14.232 3.820 C 14.394 3.790,14.659 3.558,14.763 3.354 C 14.854 3.176,14.864 2.855,14.786 2.669 C 14.713 2.497,14.536 2.325,14.340 2.235 C 14.191 2.167,14.031 2.162,12.000 2.162 C 10.141 2.163,9.799 2.172,9.680 2.224 M6.665 5.223 C 5.992 5.386,5.357 5.966,5.104 6.649 C 5.053 6.787,4.798 7.822,4.536 8.948 L 4.061 10.996 3.233 11.008 C 2.470 11.019,2.397 11.026,2.295 11.102 C 2.046 11.289,2.021 11.361,2.008 11.933 C 1.996 12.425,2.001 12.472,2.091 12.640 C 2.247 12.936,2.404 12.999,2.982 12.999 L 3.464 13.000 3.449 13.370 C 3.438 13.640,3.490 14.211,3.639 15.480 C 3.752 16.437,3.861 17.295,3.882 17.387 C 4.020 18.007,4.461 18.665,5.008 19.066 L 5.200 19.207 5.200 20.173 C 5.200 20.716,5.219 21.205,5.242 21.289 C 5.304 21.512,5.516 21.763,5.739 21.878 C 5.914 21.968,5.995 21.982,6.429 21.993 C 7.033 22.010,7.252 21.950,7.500 21.702 C 7.759 21.443,7.800 21.271,7.800 20.450 L 7.800 19.755 7.970 19.778 C 8.232 19.812,8.875 19.872,9.580 19.928 C 10.431 19.996,13.571 19.995,14.420 19.928 C 15.163 19.869,15.836 19.807,16.050 19.779 L 16.200 19.759 16.200 20.450 C 16.200 20.829,16.219 21.207,16.242 21.289 C 16.304 21.512,16.516 21.763,16.739 21.878 C 16.914 21.968,16.995 21.982,17.429 21.993 C 18.033 22.010,18.252 21.950,18.500 21.702 C 18.775 21.428,18.800 21.298,18.800 20.176 L 18.800 19.207 18.999 19.061 C 19.497 18.695,19.947 18.025,20.100 17.422 C 20.204 17.010,20.568 13.741,20.553 13.350 L 20.540 13.000 21.011 13.000 C 21.576 13.000,21.709 12.956,21.867 12.716 C 21.978 12.549,21.980 12.536,21.980 11.956 C 21.980 11.382,21.977 11.364,21.880 11.259 C 21.659 11.023,21.555 11.000,20.712 11.000 L 19.940 11.000 19.431 8.831 C 19.043 7.175,18.892 6.601,18.796 6.406 C 18.620 6.049,18.193 5.608,17.846 5.426 C 17.310 5.144,17.657 5.160,12.002 5.163 C 7.740 5.166,6.861 5.176,6.665 5.223 M16.971 6.895 C 17.263 7.019,17.260 7.011,17.741 9.070 L 18.188 10.980 15.094 10.990 C 13.392 10.996,10.608 10.996,8.906 10.990 L 5.812 10.980 6.262 9.067 C 6.743 7.020,6.744 7.019,7.020 6.896 C 7.201 6.816,16.783 6.815,16.971 6.895 M7.340 14.066 C 7.709 14.192,8.000 14.604,8.000 15.000 C 8.000 15.242,7.881 15.521,7.701 15.701 C 7.447 15.955,7.266 16.000,6.500 16.000 C 5.734 16.000,5.553 15.955,5.299 15.701 C 4.907 15.309,4.908 14.690,5.300 14.298 C 5.552 14.046,5.709 14.007,6.483 14.003 C 7.001 14.001,7.188 14.014,7.340 14.066 M13.944 14.108 C 14.134 14.210,14.347 14.438,14.425 14.626 C 14.455 14.698,14.480 14.867,14.480 15.000 C 14.480 15.133,14.455 15.302,14.425 15.374 C 14.338 15.581,14.118 15.804,13.900 15.906 C 13.700 15.999,13.697 15.999,12.000 15.999 C 10.303 15.999,10.300 15.999,10.100 15.906 C 9.882 15.804,9.662 15.581,9.575 15.374 C 9.545 15.302,9.520 15.133,9.520 15.000 C 9.520 14.867,9.545 14.698,9.575 14.626 C 9.686 14.361,9.950 14.127,10.240 14.037 C 10.295 14.019,11.114 14.009,12.060 14.013 C 13.746 14.020,13.783 14.022,13.944 14.108 M18.340 14.066 C 18.709 14.192,19.000 14.604,19.000 15.000 C 19.000 15.242,18.881 15.521,18.701 15.701 C 18.447 15.955,18.266 16.000,17.500 16.000 C 16.734 16.000,16.553 15.955,16.299 15.701 C 15.907 15.309,15.908 14.690,16.300 14.298 C 16.552 14.046,16.709 14.007,17.483 14.003 C 18.001 14.001,18.188 14.014,18.340 14.066 " fill="var(--db-icon-color, currentColor)" stroke="none" fill-rule="evenodd"></path></svg>