<svg id="icon" height="20" viewBox="0 0 20 20" width="20" xmlns="http://www.w3.org/2000/svg"><path d="M5.967 3.036 C 5.726 3.083,5.349 3.289,5.127 3.494 C 4.892 3.711,4.636 4.083,4.532 4.360 C 4.478 4.503,3.700 7.891,3.700 7.983 C 3.700 7.992,3.318 8.000,2.850 8.000 L 2.000 8.000 2.000 9.000 L 2.000 10.000 2.548 10.000 L 3.096 10.000 3.115 10.142 C 3.126 10.220,3.194 10.808,3.266 11.450 C 3.338 12.092,3.421 12.707,3.450 12.817 C 3.518 13.073,3.697 13.435,3.867 13.659 L 4.000 13.835 4.000 14.917 L 4.000 16.000 5.250 16.000 L 6.500 16.000 6.500 15.366 L 6.500 14.732 6.575 14.749 C 6.934 14.830,8.424 14.961,9.308 14.989 L 10.000 15.011 10.000 15.617 C 10.000 16.304,10.050 16.581,10.239 16.944 C 10.486 17.416,11.050 17.838,11.583 17.950 C 11.928 18.022,16.072 18.022,16.417 17.950 C 16.795 17.870,17.112 17.694,17.401 17.403 C 17.690 17.112,17.838 16.855,17.934 16.480 C 17.998 16.230,18.000 16.096,18.000 12.013 C 18.000 9.105,17.989 7.749,17.964 7.627 C 17.903 7.330,17.687 6.924,17.463 6.684 C 17.106 6.303,16.735 6.102,16.246 6.026 C 16.029 5.993,16.000 5.980,16.000 5.917 C 16.000 5.653,15.723 5.266,15.420 5.106 L 15.250 5.017 14.000 5.017 L 12.750 5.017 12.559 5.110 C 12.454 5.162,12.316 5.266,12.251 5.341 C 12.130 5.483,12.000 5.778,12.000 5.913 C 12.000 5.983,11.979 5.993,11.735 6.027 C 10.918 6.143,10.270 6.722,10.066 7.520 C 10.030 7.661,10.000 7.827,10.000 7.889 L 10.000 8.000 7.699 8.000 L 5.399 8.000 5.416 7.925 C 5.450 7.780,6.033 4.760,6.033 4.731 C 6.033 4.714,7.094 4.697,8.458 4.692 C 11.167 4.682,10.991 4.698,11.244 4.444 C 11.425 4.264,11.483 4.119,11.483 3.850 C 11.483 3.503,11.333 3.258,11.018 3.089 C 10.884 3.017,10.877 3.017,8.500 3.012 C 7.189 3.009,6.049 3.020,5.967 3.036 M16.203 7.831 L 16.300 7.928 16.300 12.017 L 16.300 16.105 16.203 16.203 L 16.105 16.300 14.037 16.300 C 12.505 16.300,11.947 16.290,11.882 16.260 C 11.691 16.173,11.700 16.387,11.700 12.003 C 11.700 9.110,11.710 7.947,11.737 7.888 C 11.758 7.843,11.806 7.791,11.845 7.772 C 11.892 7.750,12.641 7.737,14.011 7.736 L 16.105 7.733 16.203 7.831 M14.092 9.047 C 13.919 9.109,13.818 9.180,13.723 9.308 C 13.654 9.400,12.998 10.799,12.656 11.583 C 12.486 11.974,12.531 12.299,12.789 12.538 C 12.938 12.677,13.087 12.736,13.337 12.757 C 13.465 12.768,13.565 12.786,13.559 12.797 C 13.554 12.808,13.419 13.079,13.259 13.400 C 12.919 14.083,12.880 14.219,12.952 14.463 C 13.115 15.012,13.782 15.200,14.184 14.810 C 14.312 14.685,14.781 13.766,15.287 12.650 C 15.467 12.252,15.483 12.197,15.483 11.981 C 15.483 11.779,15.470 11.725,15.391 11.606 C 15.341 11.530,15.237 11.426,15.161 11.375 C 15.043 11.297,14.980 11.282,14.744 11.272 C 14.592 11.265,14.467 11.252,14.467 11.242 C 14.467 11.232,14.596 10.945,14.753 10.605 C 15.075 9.910,15.116 9.738,15.019 9.484 C 14.946 9.293,14.715 9.087,14.518 9.037 C 14.331 8.990,14.247 8.992,14.092 9.047 M5.667 10.531 C 6.604 10.752,6.703 10.796,6.856 11.058 C 6.932 11.187,6.949 11.254,6.947 11.417 C 6.941 11.845,6.625 12.166,6.209 12.166 C 6.094 12.167,4.581 11.823,4.424 11.761 C 4.216 11.679,4.000 11.333,4.000 11.083 C 4.000 10.807,4.248 10.457,4.500 10.377 C 4.699 10.314,4.802 10.328,5.667 10.531 M8.781 11.080 C 8.998 11.171,9.153 11.347,9.214 11.575 C 9.245 11.690,9.286 11.832,9.305 11.892 L 9.339 12.000 9.669 12.000 L 10.000 12.000 10.000 12.750 L 10.000 13.500 9.282 13.500 C 8.467 13.500,8.424 13.490,8.215 13.263 C 8.089 13.126,8.071 13.078,7.920 12.500 C 7.832 12.161,7.759 11.815,7.759 11.731 C 7.759 11.480,7.929 11.222,8.183 11.089 C 8.309 11.023,8.632 11.018,8.781 11.080 " fill="var(--db-icon-color, currentColor)" stroke="none" fill-rule="evenodd"></path></svg>