<svg id="icon" height="24" viewBox="0 0 24 24" width="24" xmlns="http://www.w3.org/2000/svg"><path d="M14.500 6.195 C 14.017 6.322,13.746 6.744,13.847 7.213 C 13.900 7.464,14.183 7.771,14.420 7.836 C 14.518 7.862,15.009 7.880,15.680 7.880 C 16.713 7.880,16.788 7.885,16.912 7.961 C 17.147 8.104,17.160 8.186,17.160 9.493 L 17.160 10.668 15.153 12.914 L 13.147 15.160 12.561 15.160 L 11.975 15.160 11.124 12.210 C 10.656 10.588,10.229 9.168,10.176 9.055 C 10.054 8.798,9.747 8.507,9.449 8.367 L 9.220 8.260 7.457 8.260 L 5.694 8.260 5.546 8.360 C 5.111 8.654,5.030 9.238,5.370 9.625 C 5.614 9.903,5.582 9.898,7.218 9.920 L 8.696 9.940 8.921 10.720 L 9.146 11.500 6.783 11.522 C 4.140 11.548,4.231 11.538,3.601 11.847 C 2.984 12.149,2.521 12.712,2.276 13.460 C 2.190 13.722,2.183 13.818,2.169 14.966 C 2.155 16.126,2.158 16.200,2.233 16.346 C 2.277 16.431,2.364 16.549,2.426 16.608 C 2.639 16.810,2.778 16.840,3.499 16.840 L 4.160 16.840 4.160 17.094 C 4.160 17.443,4.287 17.916,4.489 18.320 C 4.620 18.582,4.732 18.733,4.979 18.981 C 5.344 19.345,5.677 19.554,6.140 19.709 C 6.423 19.804,6.523 19.817,7.000 19.818 C 7.462 19.820,7.580 19.807,7.820 19.727 C 8.814 19.395,9.514 18.661,9.762 17.691 C 9.805 17.524,9.840 17.264,9.840 17.114 L 9.840 16.840 11.779 16.840 C 13.470 16.840,13.739 16.832,13.880 16.775 C 14.012 16.722,14.452 16.251,16.368 14.108 C 17.647 12.676,18.729 11.434,18.770 11.348 C 18.841 11.201,18.846 11.086,18.842 9.628 C 18.839 8.658,18.821 7.995,18.794 7.882 C 18.621 7.158,18.062 6.542,17.344 6.287 C 17.067 6.188,17.030 6.185,15.840 6.175 C 15.169 6.169,14.566 6.178,14.500 6.195 M18.380 14.225 C 18.226 14.257,17.929 14.367,17.720 14.470 C 17.405 14.624,17.281 14.715,16.995 15.000 C 16.705 15.289,16.620 15.405,16.464 15.725 C 16.246 16.173,16.161 16.531,16.161 17.000 C 16.161 17.469,16.246 17.827,16.464 18.275 C 16.620 18.595,16.706 18.712,16.997 19.003 C 17.288 19.294,17.405 19.380,17.725 19.536 C 18.173 19.754,18.531 19.839,19.000 19.839 C 19.469 19.839,19.827 19.754,20.275 19.536 C 20.595 19.380,20.712 19.294,21.003 19.003 C 21.294 18.712,21.380 18.595,21.536 18.275 C 21.754 17.827,21.839 17.469,21.839 17.000 C 21.839 16.531,21.754 16.173,21.536 15.725 C 21.380 15.405,21.295 15.289,21.005 15.000 C 20.719 14.714,20.596 14.624,20.280 14.470 C 19.671 14.172,19.029 14.089,18.380 14.225 M19.507 15.983 C 20.361 16.395,20.338 17.658,19.470 18.043 C 18.711 18.380,17.865 17.830,17.865 17.000 C 17.865 16.141,18.728 15.607,19.507 15.983 M8.145 17.065 C 8.107 17.387,7.979 17.651,7.763 17.853 C 7.531 18.070,7.341 18.139,6.980 18.136 C 6.644 18.133,6.468 18.064,6.227 17.842 C 6.021 17.653,5.899 17.396,5.859 17.070 L 5.831 16.840 7.001 16.840 L 8.171 16.840 8.145 17.065 " fill="var(--db-icon-color, currentColor)" stroke="none" fill-rule="evenodd"></path></svg>