<svg id="icon" height="20" viewBox="0 0 20 20" width="20" xmlns="http://www.w3.org/2000/svg"><path d="M12.876 2.213 C 12.529 2.326,12.198 2.622,12.039 2.959 C 11.960 3.128,11.950 3.190,11.950 3.500 C 11.950 3.823,11.958 3.867,12.054 4.069 C 12.311 4.611,12.910 4.936,13.473 4.838 C 14.067 4.733,14.495 4.305,14.608 3.702 C 14.711 3.148,14.383 2.545,13.841 2.291 C 13.650 2.201,13.572 2.184,13.317 2.177 C 13.128 2.171,12.964 2.184,12.876 2.213 M12.756 5.990 C 12.723 5.999,12.056 6.305,11.274 6.670 C 9.779 7.368,9.681 7.427,9.561 7.691 C 9.523 7.775,9.423 8.283,9.315 8.939 C 9.138 10.012,9.134 10.051,9.182 10.217 C 9.255 10.469,9.397 10.644,9.615 10.751 C 9.927 10.903,10.242 10.864,10.530 10.636 C 10.757 10.456,10.814 10.296,10.952 9.450 C 11.021 9.028,11.089 8.667,11.104 8.648 C 11.141 8.599,12.099 8.155,12.121 8.176 C 12.130 8.185,12.082 8.851,12.014 9.655 L 11.891 11.117 10.579 13.721 C 9.149 16.560,9.202 16.429,9.329 16.762 C 9.421 17.006,9.551 17.154,9.761 17.257 C 10.110 17.428,10.498 17.351,10.747 17.063 C 10.828 16.969,11.244 16.184,11.902 14.884 C 12.467 13.766,12.942 12.848,12.957 12.844 C 12.971 12.840,13.272 13.117,13.625 13.460 L 14.267 14.083 14.766 15.477 C 15.040 16.243,15.295 16.912,15.332 16.964 C 15.450 17.131,15.628 17.262,15.806 17.315 C 16.022 17.380,16.078 17.379,16.298 17.314 C 16.660 17.207,16.943 16.780,16.886 16.426 C 16.862 16.275,15.863 13.460,15.755 13.237 C 15.663 13.049,13.880 11.304,13.645 11.173 C 13.604 11.150,13.614 10.947,13.717 9.749 C 13.783 8.981,13.840 8.350,13.843 8.347 C 13.847 8.344,14.285 8.617,14.817 8.954 C 15.888 9.632,15.987 9.675,16.298 9.601 C 16.692 9.506,16.967 9.181,16.967 8.808 C 16.967 8.545,16.907 8.380,16.752 8.215 C 16.603 8.057,13.513 6.093,13.287 6.013 C 13.164 5.969,12.884 5.957,12.756 5.990 M2.591 9.048 C 2.208 9.184,1.974 9.530,2.007 9.912 C 2.025 10.125,2.103 10.292,2.256 10.444 C 2.507 10.696,2.363 10.682,4.798 10.692 C 7.219 10.702,7.163 10.707,7.424 10.484 C 7.793 10.168,7.793 9.532,7.425 9.217 C 7.166 8.995,7.219 9.000,4.852 9.001 C 3.147 9.003,2.691 9.012,2.591 9.048 M4.591 12.047 C 4.207 12.186,3.975 12.531,4.007 12.912 C 4.025 13.125,4.103 13.292,4.256 13.444 C 4.506 13.695,4.396 13.683,6.500 13.683 C 8.604 13.683,8.494 13.695,8.744 13.444 C 8.925 13.264,8.983 13.119,8.983 12.850 C 8.983 12.503,8.833 12.258,8.518 12.089 C 8.385 12.018,8.360 12.017,6.550 12.009 C 5.069 12.003,4.692 12.011,4.591 12.047 " fill="var(--db-icon-color, currentColor)" stroke="none" fill-rule="evenodd"></path></svg>