<svg id="icon" height="32" viewBox="0 0 32 32" width="32" xmlns="http://www.w3.org/2000/svg"><path d="M2.587 5.273 C 2.123 5.559,2.126 5.533,2.144 8.827 L 2.160 11.653 10.989 11.680 C 19.384 11.705,19.825 11.711,19.965 11.803 C 20.457 12.125,20.439 12.919,19.934 13.227 C 19.762 13.332,19.647 13.333,10.947 13.333 L 2.133 13.333 2.134 18.200 C 2.134 21.326,2.153 23.136,2.188 23.261 C 2.258 23.513,2.599 23.822,2.859 23.871 C 3.146 23.925,3.694 23.808,4.157 23.594 C 4.675 23.355,5.213 22.940,5.782 22.342 L 6.236 21.865 6.812 22.444 C 7.441 23.077,7.950 23.442,8.514 23.665 C 8.837 23.792,8.952 23.809,9.493 23.809 C 10.032 23.809,10.150 23.792,10.467 23.667 C 11.052 23.436,11.556 23.075,12.167 22.449 L 12.735 21.868 13.207 22.353 C 14.227 23.399,15.048 23.840,15.976 23.840 C 16.853 23.840,17.664 23.415,18.635 22.447 L 19.216 21.867 19.701 22.365 C 20.702 23.391,21.546 23.840,22.480 23.840 C 23.860 23.840,25.113 22.833,26.693 20.453 C 27.904 18.630,28.675 16.434,28.831 14.360 C 28.864 13.931,28.855 13.851,28.754 13.642 C 28.679 13.486,28.569 13.367,28.433 13.290 C 28.227 13.174,28.205 13.173,25.453 13.173 L 22.680 13.173 22.267 11.520 L 21.854 9.867 15.311 9.867 L 8.769 9.867 8.532 9.747 C 8.208 9.583,8.041 9.292,8.070 8.943 C 8.094 8.656,8.215 8.460,8.479 8.280 L 8.656 8.160 15.021 8.160 C 19.294 8.160,21.387 8.142,21.387 8.106 C 21.387 8.076,21.251 7.510,21.085 6.847 C 20.856 5.930,20.753 5.605,20.652 5.486 C 20.370 5.150,21.050 5.173,11.483 5.174 C 3.071 5.174,2.741 5.177,2.587 5.273 M6.621 16.062 C 6.886 16.141,7.228 16.434,7.362 16.697 C 7.505 16.978,7.505 17.529,7.362 17.810 C 7.228 18.072,6.886 18.365,6.621 18.445 C 5.603 18.750,4.688 17.710,5.124 16.747 C 5.253 16.463,5.407 16.288,5.626 16.174 C 5.972 15.994,6.279 15.959,6.621 16.062 M11.824 16.152 C 12.242 16.365,12.480 16.765,12.480 17.253 C 12.480 17.926,12.024 18.420,11.338 18.491 C 10.842 18.542,10.302 18.208,10.100 17.726 C 10.002 17.492,10.007 17.004,10.109 16.758 C 10.304 16.292,10.813 15.978,11.311 16.018 C 11.474 16.031,11.705 16.091,11.824 16.152 M16.897 16.197 C 17.045 16.288,17.209 16.454,17.305 16.611 C 17.446 16.837,17.467 16.922,17.467 17.253 C 17.467 17.585,17.446 17.669,17.305 17.896 C 16.648 18.959,15.022 18.502,15.022 17.253 C 15.022 16.280,16.073 15.687,16.897 16.197 M21.602 16.053 C 22.217 16.224,22.607 16.905,22.455 17.540 C 22.363 17.921,22.012 18.308,21.646 18.429 C 20.779 18.717,19.912 18.009,20.019 17.101 C 20.109 16.340,20.856 15.846,21.602 16.053 M5.895 24.243 C 5.808 24.289,5.472 24.583,5.148 24.898 C 4.272 25.750,3.794 26.033,3.045 26.143 C 2.677 26.197,2.620 26.222,2.420 26.421 C 2.123 26.717,2.072 26.993,2.248 27.345 C 2.420 27.687,2.595 27.801,2.988 27.830 C 3.812 27.889,5.064 27.317,6.013 26.446 L 6.239 26.239 6.653 26.589 C 7.874 27.622,9.096 28.026,10.200 27.762 C 10.929 27.587,11.910 27.028,12.516 26.441 L 12.739 26.225 13.050 26.503 C 13.985 27.342,15.084 27.840,16.000 27.840 C 16.915 27.840,18.015 27.342,18.947 26.507 L 19.253 26.231 19.560 26.507 C 19.729 26.658,20.065 26.914,20.308 27.076 C 21.269 27.719,22.197 27.957,23.088 27.788 C 23.755 27.661,24.650 27.179,25.402 26.541 L 25.757 26.240 26.036 26.488 C 27.045 27.384,28.171 27.891,29.018 27.829 C 29.405 27.801,29.581 27.685,29.752 27.345 C 29.928 26.993,29.877 26.717,29.579 26.419 C 29.386 26.225,29.318 26.193,29.039 26.159 C 28.298 26.068,27.669 25.701,26.795 24.848 C 26.182 24.250,26.042 24.160,25.726 24.160 C 25.458 24.160,25.373 24.218,24.720 24.848 C 23.524 26.002,22.759 26.324,21.935 26.019 C 21.437 25.834,20.921 25.466,20.264 24.824 C 19.774 24.345,19.608 24.215,19.451 24.185 C 19.040 24.108,18.906 24.178,18.240 24.824 C 16.451 26.558,15.550 26.559,13.765 24.829 C 13.094 24.179,12.961 24.108,12.551 24.185 C 12.395 24.214,12.221 24.351,11.711 24.846 C 10.434 26.084,9.656 26.366,8.720 25.928 C 8.236 25.701,7.880 25.432,7.227 24.798 C 6.933 24.513,6.641 24.253,6.577 24.220 C 6.412 24.135,6.081 24.146,5.895 24.243 " fill="var(--db-icon-color, currentColor)" stroke="none" fill-rule="evenodd"></path></svg>