<svg id="icon" height="32" viewBox="0 0 32 32" width="32" xmlns="http://www.w3.org/2000/svg"><path d="M12.347 4.197 C 10.643 4.236,9.183 4.321,8.885 4.400 C 8.127 4.600,7.391 5.162,7.051 5.801 C 6.920 6.047,6.702 6.813,6.133 9.030 C 5.722 10.629,5.387 11.950,5.387 11.966 C 5.387 11.982,4.767 12.002,4.009 12.011 C 2.642 12.027,2.630 12.028,2.439 12.159 C 2.111 12.384,2.010 12.632,1.984 13.279 C 1.954 14.000,2.033 14.396,2.257 14.651 C 2.506 14.935,2.681 14.987,3.385 14.987 L 4.000 14.987 4.000 15.379 C 4.000 16.361,4.636 21.370,4.877 22.288 C 4.923 22.460,4.965 22.927,4.978 23.387 C 5.002 24.243,5.053 24.472,5.272 24.709 C 5.520 24.975,5.834 25.025,7.136 25.003 C 8.394 24.982,8.565 24.948,8.810 24.667 C 9.005 24.444,9.058 24.226,9.063 23.636 L 9.067 23.086 9.613 23.118 C 10.332 23.160,12.408 23.253,12.619 23.253 C 12.783 23.253,12.785 23.250,12.817 22.920 C 12.887 22.195,13.214 21.230,13.644 20.480 L 13.904 20.027 13.179 20.000 C 12.104 19.960,12.018 19.878,11.807 18.671 C 11.605 17.520,11.645 17.254,12.066 16.941 C 12.265 16.794,12.675 16.801,12.925 16.955 C 13.219 17.137,13.289 17.282,13.440 18.040 L 13.501 18.347 14.527 18.347 L 15.552 18.347 15.816 18.179 C 16.264 17.893,17.124 17.502,17.606 17.365 C 18.462 17.121,19.531 17.051,20.404 17.181 L 20.811 17.241 22.966 15.088 C 25.311 12.743,25.280 12.783,25.086 12.392 C 24.907 12.033,24.829 12.017,22.853 11.946 C 18.701 11.797,13.882 11.797,9.101 11.947 C 8.050 11.980,7.178 11.996,7.165 11.982 C 7.151 11.969,7.344 11.169,7.594 10.206 C 7.843 9.242,8.133 8.105,8.238 7.680 C 8.468 6.754,8.509 6.645,8.712 6.413 C 9.009 6.075,9.203 6.018,10.239 5.958 C 11.577 5.881,18.326 5.882,20.743 5.959 C 22.697 6.021,22.804 6.030,23.036 6.146 C 23.462 6.357,23.549 6.534,24.237 8.564 C 24.900 10.519,24.966 10.656,25.318 10.807 C 25.556 10.908,25.741 10.899,26.005 10.771 C 26.257 10.649,26.395 10.473,26.459 10.190 C 26.495 10.029,26.440 9.811,26.098 8.778 C 25.219 6.120,24.986 5.612,24.400 5.076 C 24.070 4.774,23.494 4.462,23.120 4.383 C 22.973 4.352,22.181 4.313,21.360 4.295 C 20.539 4.277,19.411 4.241,18.853 4.213 C 17.950 4.169,14.041 4.159,12.347 4.197 M27.653 13.119 C 27.518 13.187,26.339 14.327,24.409 16.257 L 21.379 19.288 20.950 19.164 C 20.176 18.940,19.066 18.913,18.313 19.100 C 16.206 19.622,14.633 21.534,14.523 23.707 C 14.487 24.421,14.558 24.918,14.795 25.614 C 15.242 26.923,16.285 28.050,17.547 28.584 C 18.375 28.936,19.308 29.073,20.126 28.964 C 21.309 28.807,22.289 28.318,23.106 27.477 C 24.081 26.474,24.546 25.332,24.541 23.947 C 24.539 23.309,24.450 22.826,24.216 22.184 L 24.053 21.739 24.746 21.038 L 25.440 20.338 25.440 19.689 L 25.440 19.040 26.173 19.040 C 27.458 19.039,27.485 19.015,27.511 17.829 L 27.530 17.013 28.562 17.013 C 29.221 17.013,29.643 16.991,29.728 16.953 C 30.012 16.824,30.034 16.672,30.016 15.023 C 29.998 13.354,29.995 13.336,29.637 13.118 C 29.488 13.027,29.366 13.014,28.667 13.014 C 27.975 13.013,27.838 13.028,27.653 13.119 M7.947 15.896 C 8.577 15.957,9.182 16.030,9.291 16.058 C 9.709 16.167,9.973 16.536,9.973 17.012 C 9.973 17.316,9.922 17.446,9.713 17.671 C 9.381 18.031,9.268 18.041,7.573 17.870 C 6.166 17.727,6.055 17.699,5.802 17.434 C 5.487 17.104,5.423 16.660,5.631 16.258 C 5.791 15.949,6.265 15.717,6.640 15.765 C 6.728 15.776,7.316 15.835,7.947 15.896 M19.471 23.187 C 19.847 23.372,20.139 23.653,20.303 23.988 C 20.434 24.254,20.453 24.355,20.453 24.773 C 20.452 25.194,20.434 25.288,20.304 25.535 C 20.122 25.882,19.813 26.189,19.479 26.353 C 19.272 26.456,19.141 26.478,18.747 26.479 C 18.156 26.480,17.878 26.368,17.496 25.977 C 17.129 25.599,16.996 25.229,17.026 24.667 C 17.065 23.920,17.470 23.375,18.180 23.111 C 18.480 23.000,19.172 23.041,19.471 23.187 " fill="var(--db-icon-color, currentColor)" stroke="none" fill-rule="evenodd"></path></svg>