<svg id="icon" height="32" viewBox="0 0 32 32" width="32" xmlns="http://www.w3.org/2000/svg"><path d="M13.413 5.070 C 10.822 5.208,9.012 5.339,8.766 5.406 C 8.059 5.599,7.408 6.138,7.101 6.787 C 7.007 6.984,6.622 8.319,6.155 10.067 L 5.368 13.013 4.057 13.015 C 2.895 13.016,2.722 13.027,2.528 13.115 C 2.093 13.312,1.945 13.735,1.985 14.663 C 2.003 15.093,2.035 15.277,2.119 15.440 C 2.355 15.899,2.600 16.000,3.478 16.001 L 4.133 16.001 4.147 16.627 C 4.165 17.431,4.565 21.543,4.659 21.893 C 4.699 22.040,4.781 22.280,4.843 22.427 C 4.944 22.667,4.957 22.817,4.973 23.947 C 4.993 25.328,5.019 25.461,5.325 25.718 C 5.625 25.971,5.803 26.000,7.040 26.000 C 8.245 26.000,8.440 25.971,8.723 25.748 C 8.986 25.541,9.064 25.271,9.065 24.567 L 9.067 23.934 9.453 23.967 C 11.918 24.178,19.762 24.178,22.547 23.967 L 22.987 23.934 22.987 24.477 C 22.987 25.159,23.059 25.456,23.281 25.677 C 23.555 25.951,23.824 26.000,25.067 26.000 C 25.801 26.000,26.234 25.978,26.384 25.932 C 26.679 25.842,26.960 25.572,27.034 25.306 C 27.069 25.178,27.093 24.586,27.093 23.817 C 27.093 22.580,27.098 22.529,27.233 22.137 C 27.332 21.849,27.400 21.467,27.470 20.800 C 27.675 18.849,27.840 16.922,27.840 16.474 L 27.840 16.008 28.577 15.991 C 29.274 15.974,29.327 15.965,29.531 15.830 C 29.664 15.742,29.792 15.594,29.864 15.445 C 29.971 15.224,29.980 15.138,29.964 14.411 C 29.948 13.668,29.938 13.606,29.813 13.422 C 29.556 13.043,29.420 13.013,27.930 13.013 C 27.206 13.013,26.613 12.997,26.613 12.977 C 26.613 12.957,26.298 11.631,25.914 10.030 C 25.430 8.021,25.164 7.014,25.053 6.778 C 24.713 6.053,23.854 5.422,22.977 5.253 C 22.763 5.211,21.999 5.151,21.280 5.119 C 19.520 5.041,14.538 5.010,13.413 5.070 M21.280 6.827 C 22.680 6.882,22.819 6.897,23.040 7.006 C 23.479 7.226,23.513 7.319,24.224 10.294 C 24.576 11.765,24.854 12.977,24.842 12.989 C 24.831 13.000,24.283 12.987,23.624 12.959 C 19.735 12.795,12.245 12.795,8.376 12.959 C 7.717 12.987,7.169 13.000,7.158 12.989 C 7.125 12.956,8.525 7.793,8.623 7.587 C 8.727 7.368,9.058 7.113,9.328 7.044 C 9.434 7.018,10.444 6.945,11.573 6.884 C 12.703 6.822,13.759 6.763,13.920 6.752 C 14.488 6.714,19.778 6.768,21.280 6.827 M7.808 16.882 C 9.346 17.032,9.538 17.083,9.788 17.410 C 9.946 17.618,10.010 17.950,9.950 18.265 C 9.899 18.542,9.529 18.912,9.253 18.964 C 8.937 19.023,6.294 18.751,6.047 18.633 C 5.316 18.287,5.352 17.189,6.104 16.847 C 6.223 16.793,6.342 16.748,6.368 16.748 C 6.394 16.747,7.042 16.808,7.808 16.882 M25.896 16.847 C 26.305 17.033,26.553 17.490,26.479 17.924 C 26.434 18.195,26.193 18.520,25.953 18.633 C 25.706 18.751,23.063 19.023,22.747 18.964 C 22.471 18.912,22.101 18.542,22.050 18.265 C 21.960 17.786,22.148 17.336,22.523 17.135 C 22.642 17.071,23.091 17.001,24.027 16.901 C 25.668 16.726,25.633 16.727,25.896 16.847 M19.532 17.549 C 19.764 17.614,20.027 17.821,20.129 18.020 C 20.236 18.228,20.496 19.871,20.466 20.142 C 20.420 20.548,20.142 20.855,19.716 20.969 C 19.376 21.060,19.077 20.962,18.794 20.668 C 18.606 20.473,18.565 20.387,18.509 20.073 C 18.473 19.872,18.432 19.665,18.418 19.613 C 18.395 19.526,18.234 19.520,16.000 19.520 C 13.767 19.520,13.605 19.526,13.580 19.613 C 13.565 19.665,13.528 19.844,13.498 20.012 C 13.409 20.515,13.227 20.770,12.841 20.931 C 12.583 21.038,12.395 21.033,12.133 20.912 C 11.746 20.733,11.520 20.403,11.520 20.017 C 11.520 19.768,11.773 18.253,11.845 18.073 C 11.876 17.996,11.969 17.868,12.051 17.789 C 12.356 17.497,12.335 17.498,15.973 17.496 C 18.127 17.495,19.405 17.514,19.532 17.549 " fill="var(--db-icon-color, currentColor)" stroke="none" fill-rule="evenodd"></path></svg>