<svg id="icon" height="20" viewBox="0 0 20 20" width="20" xmlns="http://www.w3.org/2000/svg"><path d="M9.583 4.389 C 8.369 4.491,7.278 5.021,6.634 5.822 C 6.409 6.100,6.131 6.641,6.053 6.950 C 5.861 7.710,5.944 8.576,6.270 9.202 C 6.556 9.752,7.010 10.169,7.683 10.500 C 8.179 10.744,8.522 10.863,9.756 11.217 C 11.059 11.591,11.437 11.755,11.785 12.098 C 12.018 12.327,12.116 12.560,12.116 12.883 C 12.117 13.117,12.104 13.172,12.018 13.329 C 11.820 13.686,11.398 13.970,10.861 14.105 C 10.621 14.166,10.523 14.173,10.117 14.156 C 9.860 14.146,9.545 14.114,9.417 14.086 C 8.160 13.806,6.989 13.050,6.225 12.025 C 6.133 11.901,6.052 11.800,6.045 11.800 C 6.039 11.800,6.033 12.302,6.033 12.915 L 6.033 14.030 6.308 14.244 C 7.442 15.127,9.203 15.699,10.544 15.620 C 12.473 15.506,14.028 14.370,14.519 12.717 C 14.639 12.313,14.667 11.658,14.585 11.217 C 14.409 10.282,13.901 9.664,12.921 9.198 C 12.463 8.980,12.224 8.904,11.033 8.600 C 9.854 8.298,9.589 8.215,9.204 8.026 C 8.865 7.859,8.617 7.627,8.481 7.350 C 8.394 7.171,8.383 7.116,8.383 6.833 C 8.383 6.545,8.392 6.501,8.481 6.340 C 8.660 6.017,9.021 5.777,9.451 5.696 C 9.709 5.648,10.436 5.677,10.783 5.749 C 11.864 5.974,13.019 6.633,13.781 7.458 C 13.870 7.555,13.955 7.633,13.971 7.633 C 13.987 7.633,14.000 7.222,14.000 6.719 L 14.000 5.805 13.725 5.608 C 12.720 4.890,11.630 4.495,10.393 4.401 C 9.960 4.368,9.856 4.366,9.583 4.389 " fill="var(--db-icon-color, currentColor)" stroke="none" fill-rule="evenodd"></path></svg>