<svg id="icon" height="24" viewBox="0 0 24 24" width="24" xmlns="http://www.w3.org/2000/svg"><path d="M10.380 2.025 C 8.580 2.201,7.296 2.955,6.332 4.400 C 5.729 5.304,5.302 6.415,5.142 7.500 C 5.070 7.983,5.001 9.582,5.001 10.760 C 5.001 12.021,5.115 13.755,5.211 13.940 C 5.346 14.201,6.054 15.057,6.519 15.520 C 7.139 16.139,7.722 16.603,8.726 17.279 C 9.793 17.997,9.878 18.015,12.206 17.990 C 13.656 17.974,13.806 17.966,14.112 17.887 C 14.531 17.778,14.569 17.758,15.340 17.236 C 16.291 16.592,16.878 16.122,17.481 15.520 C 17.915 15.087,18.600 14.267,18.777 13.967 C 18.829 13.878,18.914 13.106,18.966 12.240 C 19.035 11.084,18.957 8.068,18.842 7.420 C 18.531 5.677,17.700 4.104,16.615 3.203 C 15.904 2.612,15.211 2.298,14.160 2.091 C 13.931 2.046,13.468 2.029,12.200 2.021 C 11.287 2.014,10.468 2.017,10.380 2.025 M13.520 4.095 C 14.064 4.181,14.722 4.343,15.033 4.466 C 15.789 4.765,16.392 5.421,16.695 6.272 C 16.811 6.599,16.818 6.653,16.816 7.180 C 16.815 7.714,16.806 7.774,16.629 8.458 C 16.526 8.853,16.385 9.294,16.315 9.438 C 16.141 9.794,15.708 10.225,15.360 10.391 C 14.725 10.693,12.781 10.913,11.427 10.837 C 10.398 10.779,9.248 10.620,8.854 10.481 C 8.377 10.314,7.910 9.894,7.683 9.431 C 7.528 9.113,7.199 7.770,7.171 7.340 C 7.136 6.790,7.291 6.186,7.606 5.649 C 7.810 5.301,8.365 4.765,8.701 4.590 C 9.155 4.355,10.029 4.136,10.880 4.043 C 11.373 3.988,13.062 4.022,13.520 4.095 M9.291 13.057 C 9.500 13.132,9.691 13.269,9.793 13.418 C 9.840 13.487,10.014 13.935,10.179 14.414 C 10.532 15.436,10.553 15.610,10.369 15.965 C 10.173 16.342,9.715 16.564,9.319 16.475 C 9.067 16.419,8.815 16.261,8.701 16.088 C 8.647 16.007,8.468 15.546,8.302 15.065 C 7.968 14.097,7.941 13.915,8.083 13.600 C 8.300 13.120,8.817 12.888,9.291 13.057 M15.340 13.066 C 15.744 13.204,16.038 13.662,15.988 14.075 C 15.952 14.369,15.407 15.939,15.279 16.115 C 15.126 16.327,14.787 16.491,14.504 16.491 C 14.207 16.491,13.881 16.337,13.725 16.120 C 13.432 15.716,13.448 15.470,13.842 14.321 C 14.109 13.539,14.151 13.447,14.301 13.297 C 14.577 13.020,14.958 12.936,15.340 13.066 M6.080 17.853 C 6.080 17.909,6.303 18.448,6.436 18.713 C 6.802 19.441,7.428 20.211,7.885 20.498 C 8.067 20.612,8.069 20.616,8.030 20.757 C 7.936 21.098,8.093 21.564,8.374 21.778 C 8.672 22.006,8.578 22.000,11.998 22.000 C 15.545 22.000,15.390 22.013,15.701 21.701 C 15.952 21.450,16.068 21.024,15.961 20.743 C 15.925 20.649,15.939 20.630,16.151 20.485 C 16.638 20.153,17.177 19.485,17.535 18.771 C 17.689 18.463,17.931 17.878,17.912 17.858 C 17.905 17.852,17.702 17.999,17.460 18.184 C 16.937 18.585,15.742 19.389,15.460 19.531 C 14.739 19.892,13.636 20.023,11.620 19.987 C 9.972 19.958,9.243 19.852,8.580 19.543 C 8.268 19.398,7.245 18.719,6.626 18.248 C 6.108 17.852,6.080 17.832,6.080 17.853 " fill="var(--db-icon-color, currentColor)" stroke="none" fill-rule="evenodd"></path></svg>