<svg id="icon" height="24" viewBox="0 0 24 24" width="24" xmlns="http://www.w3.org/2000/svg"><path d="M11.620 2.122 C 10.799 2.290,10.272 2.848,10.151 3.675 C 10.006 4.671,10.620 5.608,11.581 5.859 C 12.794 6.175,13.960 5.264,13.960 4.000 C 13.960 3.638,13.897 3.388,13.719 3.038 C 13.603 2.811,13.235 2.452,12.975 2.311 C 12.604 2.111,12.050 2.033,11.620 2.122 M11.300 7.479 C 11.212 7.497,10.413 7.816,9.524 8.186 C 7.793 8.908,7.634 8.997,7.509 9.310 C 7.475 9.393,7.363 10.051,7.259 10.771 C 7.091 11.935,7.076 12.101,7.119 12.256 C 7.262 12.768,7.898 13.065,8.380 12.845 C 8.596 12.747,8.817 12.493,8.892 12.255 C 8.927 12.148,9.020 11.673,9.100 11.200 C 9.180 10.727,9.258 10.327,9.273 10.312 C 9.328 10.255,10.367 9.800,10.442 9.800 C 10.490 9.800,10.520 9.827,10.520 9.870 C 10.519 9.909,10.466 10.768,10.400 11.780 C 10.248 14.130,10.248 14.135,10.394 14.362 C 10.457 14.460,11.145 15.170,11.922 15.940 L 13.334 17.340 13.829 19.320 C 14.325 21.301,14.392 21.508,14.607 21.708 C 14.849 21.934,15.246 21.982,15.583 21.825 C 15.917 21.669,16.120 21.352,16.120 20.985 C 16.120 20.788,15.103 16.713,14.990 16.460 C 14.920 16.301,14.623 15.979,13.535 14.880 L 12.168 13.500 12.326 11.080 C 12.413 9.749,12.474 8.555,12.462 8.426 C 12.438 8.166,12.322 7.870,12.188 7.727 C 11.992 7.516,11.620 7.413,11.300 7.479 M13.995 9.792 C 13.436 10.084,13.357 10.790,13.832 11.252 C 14.006 11.421,15.680 12.290,15.973 12.363 C 16.662 12.535,17.278 11.878,17.073 11.192 C 16.981 10.884,16.813 10.762,15.713 10.202 C 14.737 9.706,14.675 9.680,14.448 9.680 C 14.264 9.680,14.160 9.706,13.995 9.792 M9.449 16.137 C 9.205 16.216,9.013 16.376,8.904 16.592 C 8.788 16.824,7.210 20.481,7.135 20.695 C 7.105 20.780,7.080 20.929,7.080 21.026 C 7.080 21.806,8.118 22.219,8.651 21.651 C 8.772 21.523,10.576 17.466,10.640 17.180 C 10.780 16.557,10.069 15.935,9.449 16.137 " fill="var(--db-icon-color, currentColor)" stroke="none" fill-rule="evenodd"></path></svg>