<svg id="icon" height="32" viewBox="0 0 32 32" width="32" xmlns="http://www.w3.org/2000/svg"><path d="M8.740 3.199 C 8.122 3.260,7.808 3.348,7.253 3.612 C 6.823 3.818,6.678 3.923,6.290 4.314 C 5.926 4.680,5.788 4.866,5.612 5.227 C 5.490 5.476,5.353 5.836,5.308 6.027 C 5.133 6.770,5.115 7.866,5.133 16.400 C 5.149 23.850,5.160 24.858,5.234 25.093 C 5.355 25.483,5.527 25.794,5.758 26.046 L 5.963 26.267 5.981 27.258 L 6.000 28.249 6.160 28.506 C 6.443 28.962,6.539 28.987,8.000 28.987 C 9.459 28.987,9.557 28.961,9.838 28.509 C 9.988 28.268,9.998 28.218,10.018 27.567 L 10.039 26.880 16.000 26.880 L 21.961 26.880 21.982 27.567 C 22.002 28.218,22.012 28.268,22.162 28.509 C 22.443 28.961,22.541 28.987,24.000 28.987 C 25.461 28.987,25.557 28.962,25.840 28.506 L 26.000 28.249 26.019 27.258 L 26.037 26.267 26.242 26.046 C 26.473 25.795,26.611 25.545,26.753 25.120 C 26.847 24.841,26.852 24.421,26.869 16.453 C 26.886 7.966,26.866 6.761,26.692 6.027 C 26.542 5.393,26.217 4.827,25.708 4.313 C 25.322 3.922,25.177 3.816,24.747 3.610 C 23.791 3.151,24.367 3.181,16.293 3.169 C 12.363 3.164,8.964 3.177,8.740 3.199 M21.476 4.299 C 21.850 4.577,21.946 5.123,21.683 5.468 C 21.375 5.871,21.849 5.838,16.119 5.854 C 12.813 5.864,10.908 5.850,10.781 5.815 C 10.672 5.786,10.504 5.681,10.407 5.581 C 10.014 5.175,10.115 4.527,10.615 4.258 C 10.792 4.163,11.016 4.159,16.063 4.173 C 21.319 4.187,21.326 4.187,21.476 4.299 M25.120 13.519 L 25.120 19.038 25.000 19.066 C 24.507 19.179,21.595 19.503,19.840 19.638 C 18.432 19.748,13.345 19.730,11.840 19.610 C 10.126 19.474,7.510 19.180,7.000 19.065 L 6.880 19.038 6.880 13.519 L 6.880 8.000 16.000 8.000 L 25.120 8.000 25.120 13.519 M2.720 9.212 C 2.523 9.286,2.326 9.473,2.235 9.675 C 2.145 9.872,2.136 10.049,2.135 11.522 C 2.133 13.106,2.137 13.157,2.253 13.389 C 2.341 13.562,2.439 13.660,2.613 13.750 C 3.018 13.958,3.417 13.857,3.703 13.473 C 3.808 13.332,3.814 13.247,3.829 11.567 C 3.844 9.834,3.842 9.805,3.726 9.598 C 3.545 9.276,3.053 9.087,2.720 9.212 M28.582 9.295 C 28.484 9.361,28.347 9.498,28.279 9.599 L 28.156 9.782 28.171 11.554 C 28.186 13.248,28.192 13.332,28.297 13.473 C 28.583 13.857,28.982 13.958,29.387 13.750 C 29.561 13.660,29.660 13.561,29.749 13.387 C 29.869 13.150,29.870 13.126,29.855 11.467 C 29.841 9.883,29.834 9.776,29.730 9.600 C 29.498 9.205,28.937 9.056,28.582 9.295 M9.003 21.923 C 9.557 22.200,9.830 22.641,9.826 23.254 C 9.822 23.839,9.561 24.283,9.057 24.563 C 8.809 24.700,8.720 24.720,8.347 24.719 C 7.865 24.718,7.605 24.615,7.291 24.301 C 6.989 23.998,6.907 23.769,6.907 23.225 C 6.907 22.769,6.916 22.730,7.089 22.460 C 7.512 21.801,8.310 21.577,9.003 21.923 M24.381 21.956 C 24.579 22.067,24.732 22.211,24.880 22.423 C 25.091 22.727,25.093 22.735,25.093 23.218 C 25.093 23.770,25.013 23.997,24.709 24.301 C 24.395 24.615,24.135 24.718,23.653 24.719 C 23.280 24.720,23.191 24.700,22.943 24.563 C 22.438 24.283,22.173 23.832,22.172 23.252 C 22.170 22.640,22.444 22.201,23.002 21.919 C 23.302 21.767,23.369 21.753,23.714 21.774 C 24.011 21.792,24.159 21.832,24.381 21.956 " fill="var(--db-icon-color, currentColor)" stroke="none" fill-rule="evenodd"></path></svg>