<svg id="icon" height="32" viewBox="0 0 32 32" width="32" xmlns="http://www.w3.org/2000/svg"><path d="M17.660 7.040 C 17.241 7.139,16.994 7.489,17.028 7.936 C 17.050 8.235,17.155 8.422,17.407 8.610 C 17.544 8.712,17.647 8.722,18.895 8.747 L 20.236 8.773 20.537 9.760 C 20.703 10.303,20.821 10.771,20.800 10.800 C 20.451 11.284,15.229 17.543,15.200 17.511 C 15.178 17.487,14.583 15.733,13.878 13.613 L 12.595 9.760 12.823 9.760 C 13.301 9.760,13.760 9.333,13.760 8.888 C 13.760 8.645,13.572 8.309,13.351 8.160 L 13.154 8.027 11.360 8.027 L 9.565 8.027 9.364 8.180 C 9.105 8.377,8.995 8.639,9.027 8.976 C 9.058 9.296,9.190 9.485,9.494 9.640 C 9.690 9.740,9.816 9.760,10.239 9.760 L 10.749 9.760 11.250 11.271 L 11.752 12.782 10.941 13.751 C 10.495 14.284,10.109 14.720,10.084 14.720 C 10.059 14.720,9.869 14.636,9.662 14.534 C 9.454 14.431,9.074 14.283,8.816 14.203 C 8.379 14.069,8.280 14.059,7.387 14.059 C 6.285 14.060,5.908 14.134,5.131 14.506 C 4.520 14.798,4.151 15.053,3.660 15.520 C 2.716 16.419,2.176 17.527,2.028 18.865 C 1.837 20.602,2.610 22.439,3.995 23.543 C 4.650 24.064,5.258 24.369,6.107 24.600 C 6.711 24.765,8.045 24.764,8.649 24.599 C 10.057 24.213,11.268 23.312,11.972 22.127 C 12.230 21.691,12.639 20.627,12.640 20.387 L 12.640 20.267 13.823 20.267 C 14.904 20.267,15.026 20.257,15.231 20.158 C 15.417 20.068,15.966 19.429,18.434 16.431 C 20.073 14.441,21.429 12.828,21.449 12.846 C 21.485 12.881,21.973 14.460,21.973 14.542 C 21.973 14.568,21.835 14.670,21.667 14.770 C 19.819 15.865,18.780 17.924,19.038 19.981 C 19.204 21.302,19.787 22.439,20.759 23.333 C 22.305 24.757,24.514 25.135,26.486 24.314 C 27.441 23.916,28.444 23.037,28.993 22.116 C 29.517 21.236,29.808 20.041,29.739 19.057 C 29.598 17.036,28.328 15.225,26.510 14.451 C 25.759 14.131,25.380 14.057,24.491 14.055 L 23.675 14.053 23.487 13.440 C 23.285 12.785,23.053 12.028,23.010 11.888 C 22.987 11.812,23.150 11.799,24.538 11.764 C 25.393 11.743,26.154 11.702,26.231 11.673 C 26.418 11.602,27.548 10.480,27.651 10.264 C 27.918 9.701,27.503 9.013,26.896 9.013 C 26.572 9.013,26.388 9.122,25.889 9.608 L 25.458 10.028 23.947 10.014 L 22.436 10.000 22.050 8.728 C 21.617 7.304,21.533 7.156,21.091 7.045 C 20.823 6.978,17.942 6.974,17.660 7.040 M13.041 16.643 C 13.377 17.649,13.644 18.481,13.634 18.490 C 13.624 18.500,12.638 18.502,11.441 18.494 L 9.266 18.480 10.693 16.773 C 12.197 14.975,12.381 14.763,12.411 14.793 C 12.422 14.804,12.705 15.636,13.041 16.643 M8.187 15.850 C 8.333 15.882,8.566 15.959,8.703 16.021 L 8.953 16.133 7.830 17.467 C 7.212 18.200,6.659 18.906,6.601 19.035 C 6.399 19.482,6.590 19.961,7.050 20.159 C 7.284 20.260,7.412 20.267,9.085 20.267 L 10.870 20.267 10.842 20.387 C 10.783 20.642,10.394 21.374,10.162 21.666 C 9.505 22.494,8.458 22.988,7.365 22.986 C 5.964 22.983,4.752 22.213,4.133 20.933 C 3.856 20.360,3.773 19.985,3.777 19.323 C 3.790 17.024,5.915 15.350,8.187 15.850 M25.173 15.848 C 25.335 15.878,25.684 16.006,25.949 16.133 C 27.703 16.976,28.475 19.081,27.677 20.843 C 27.080 22.159,25.804 22.987,24.373 22.987 C 22.121 22.987,20.419 20.943,20.820 18.720 C 20.946 18.026,21.287 17.382,21.804 16.864 C 22.175 16.492,22.477 16.266,22.525 16.324 C 22.535 16.337,22.776 17.115,23.060 18.053 C 23.345 18.992,23.620 19.820,23.672 19.893 C 23.786 20.055,24.184 20.267,24.373 20.267 C 24.588 20.267,24.974 20.045,25.106 19.845 C 25.310 19.539,25.273 19.314,24.717 17.493 C 24.334 16.235,24.224 15.813,24.274 15.782 C 24.347 15.737,24.711 15.764,25.173 15.848 " fill="var(--db-icon-color, currentColor)" stroke="none" fill-rule="evenodd"></path></svg>