<svg id="icon" height="32" viewBox="0 0 32 32" width="32" xmlns="http://www.w3.org/2000/svg"><path d="M10.827 5.163 C 10.468 5.275,10.329 5.349,10.159 5.519 C 9.807 5.871,9.732 6.285,9.935 6.753 C 10.219 7.408,11.854 10.560,11.909 10.560 C 11.973 10.560,16.066 9.179,16.098 9.146 C 16.108 9.136,15.244 8.247,14.178 7.170 C 12.868 5.846,12.171 5.180,12.027 5.114 C 11.736 4.980,11.370 4.995,10.827 5.163 M22.588 9.499 C 22.355 9.527,21.956 9.596,21.702 9.652 C 21.448 9.707,18.440 10.632,15.018 11.707 L 8.795 13.662 8.624 13.531 C 8.530 13.460,7.853 12.918,7.120 12.327 C 6.387 11.736,5.679 11.199,5.547 11.133 C 5.356 11.038,5.219 11.014,4.880 11.016 C 4.510 11.018,4.387 11.045,3.955 11.223 C 3.681 11.336,3.389 11.486,3.306 11.556 C 3.110 11.721,2.962 12.103,3.007 12.329 C 3.081 12.697,5.461 19.355,5.645 19.707 C 5.895 20.186,6.514 20.838,7.009 21.143 C 7.826 21.647,8.770 21.843,9.653 21.690 C 9.932 21.642,11.116 21.302,12.285 20.935 C 13.453 20.567,14.418 20.267,14.429 20.267 C 14.440 20.267,14.456 21.521,14.464 23.053 C 14.482 26.150,14.464 25.997,14.850 26.336 C 15.153 26.603,15.395 26.649,15.882 26.537 C 16.383 26.421,16.685 26.294,16.827 26.138 C 16.885 26.074,17.905 24.242,19.093 22.067 L 21.253 18.112 24.020 17.242 C 25.542 16.764,26.934 16.307,27.113 16.227 C 28.388 15.655,29.160 14.235,28.960 12.830 C 28.925 12.579,28.892 12.373,28.887 12.373 C 28.845 12.373,27.159 12.919,26.267 13.221 C 25.651 13.429,25.084 13.600,25.008 13.600 C 24.631 13.600,24.164 13.267,24.048 12.917 C 23.966 12.669,24.015 12.237,24.144 12.063 C 24.357 11.776,24.663 11.639,26.201 11.142 L 27.743 10.643 27.592 10.521 C 27.142 10.159,26.112 9.747,25.223 9.573 C 24.680 9.467,23.188 9.425,22.588 9.499 M20.755 12.939 C 21.563 13.344,21.738 14.460,21.101 15.138 C 20.817 15.440,20.561 15.544,20.107 15.544 C 19.655 15.544,19.397 15.440,19.104 15.141 C 18.835 14.866,18.720 14.577,18.720 14.176 C 18.720 13.777,18.809 13.525,19.044 13.257 C 19.483 12.757,20.147 12.634,20.755 12.939 M16.267 14.298 C 16.765 14.523,17.063 14.949,17.107 15.499 C 17.170 16.285,16.537 16.963,15.737 16.967 C 14.919 16.971,14.348 16.387,14.348 15.547 C 14.348 15.230,14.372 15.131,14.506 14.897 C 14.682 14.591,14.936 14.371,15.240 14.263 C 15.539 14.156,15.987 14.171,16.267 14.298 M11.980 15.742 C 12.832 16.168,13.002 17.297,12.317 17.982 C 11.627 18.671,10.509 18.460,10.073 17.559 C 9.945 17.295,9.921 16.774,10.024 16.507 C 10.188 16.081,10.576 15.731,11.004 15.621 C 11.271 15.553,11.710 15.608,11.980 15.742 " fill="var(--db-icon-color, currentColor)" stroke="none" fill-rule="evenodd"></path></svg>