<svg id="icon" height="20" viewBox="0 0 20 20" width="20" xmlns="http://www.w3.org/2000/svg"><path d="M5.128 5.950 C 4.249 6.117,3.416 6.702,2.966 7.467 C 2.785 7.774,2.671 8.105,2.467 8.911 C 2.161 10.116,2.148 10.202,2.197 10.680 C 2.278 11.486,2.430 12.496,2.485 12.606 C 2.563 12.761,2.727 12.927,2.879 13.005 C 3.039 13.088,3.807 13.195,3.826 13.138 C 3.866 13.018,4.196 12.570,4.377 12.389 C 5.568 11.197,7.436 11.216,8.633 12.430 C 9.074 12.877,9.297 13.280,9.382 13.783 L 9.421 14.017 10.686 14.017 C 11.935 14.017,11.952 14.016,12.117 13.940 C 12.208 13.898,12.326 13.823,12.377 13.773 C 12.499 13.656,13.748 11.208,13.813 10.958 C 13.913 10.575,13.812 10.356,13.295 9.836 C 12.342 8.877,11.060 7.936,9.533 7.076 C 9.106 6.836,7.586 6.280,6.717 6.046 C 6.350 5.948,6.214 5.928,5.833 5.916 C 5.523 5.906,5.304 5.916,5.128 5.950 M5.971 7.333 C 7.151 7.578,7.589 7.716,8.383 8.098 C 8.905 8.348,10.422 9.249,10.596 9.411 C 10.760 9.565,10.832 9.744,10.832 10.000 C 10.832 10.428,10.580 10.737,10.155 10.832 C 9.881 10.894,9.741 10.837,8.827 10.294 C 7.834 9.703,7.468 9.515,7.017 9.358 C 6.611 9.217,5.875 9.031,5.693 9.023 L 5.560 9.017 5.401 9.467 C 5.280 9.807,5.211 9.952,5.114 10.063 C 4.731 10.504,4.007 10.411,3.751 9.888 C 3.601 9.582,3.620 9.447,3.947 8.471 C 4.103 8.006,4.254 7.590,4.282 7.548 C 4.439 7.307,4.692 7.168,4.974 7.167 C 5.079 7.167,5.527 7.242,5.971 7.333 M15.807 12.067 C 15.178 12.230,14.615 12.393,14.556 12.430 C 14.400 12.526,14.313 12.630,14.230 12.817 C 13.998 13.341,14.341 13.931,14.913 13.990 C 15.054 14.004,15.286 13.956,16.279 13.703 C 16.936 13.535,17.514 13.377,17.562 13.352 C 17.610 13.326,17.697 13.256,17.755 13.195 C 18.155 12.769,18.036 12.087,17.519 11.846 C 17.240 11.716,17.087 11.736,15.807 12.067 M6.150 13.046 C 5.751 13.144,5.335 13.469,5.167 13.816 C 4.948 14.269,4.949 14.730,5.170 15.191 C 5.268 15.395,5.605 15.732,5.809 15.830 C 6.430 16.128,7.079 16.025,7.552 15.552 C 8.131 14.973,8.150 14.092,7.597 13.487 C 7.242 13.098,6.662 12.922,6.150 13.046 " fill="var(--db-icon-color, currentColor)" stroke="none" fill-rule="evenodd"></path></svg>