<svg id="icon" height="20" viewBox="0 0 20 20" width="20" xmlns="http://www.w3.org/2000/svg"><path d="M13.516 4.431 C 13.094 4.518,12.711 4.609,12.666 4.632 C 12.492 4.721,12.331 4.913,12.279 5.092 C 12.217 5.305,12.227 5.355,12.481 6.165 C 12.582 6.485,12.658 6.753,12.650 6.761 C 12.630 6.781,8.486 8.026,8.473 8.016 C 8.468 8.011,8.375 7.793,8.268 7.530 L 8.072 7.052 8.221 7.014 C 8.720 6.887,8.905 6.176,8.540 5.787 C 8.338 5.573,8.307 5.568,6.990 5.567 C 5.874 5.567,5.789 5.571,5.671 5.631 C 5.311 5.815,5.152 6.267,5.325 6.617 C 5.472 6.914,5.700 7.038,6.142 7.060 C 6.320 7.068,6.467 7.078,6.467 7.082 C 6.467 7.085,6.653 7.542,6.881 8.098 L 7.295 9.107 6.790 9.738 C 6.513 10.085,6.270 10.361,6.251 10.353 C 5.719 10.112,5.441 10.056,4.883 10.076 C 4.561 10.088,4.390 10.111,4.217 10.167 C 3.518 10.389,2.953 10.841,2.591 11.467 C 2.345 11.891,2.206 12.592,2.268 13.092 C 2.352 13.777,2.657 14.377,3.148 14.826 C 3.720 15.349,4.554 15.624,5.292 15.532 C 6.584 15.373,7.570 14.390,7.731 13.103 C 7.791 12.622,7.691 12.049,7.467 11.596 L 7.374 11.408 7.658 11.052 L 7.942 10.697 8.319 11.618 C 8.702 12.553,8.779 12.697,8.982 12.851 C 9.247 13.053,9.571 13.111,9.896 13.015 C 10.125 12.947,10.215 12.859,12.017 10.956 C 12.823 10.104,13.488 9.411,13.493 9.416 C 13.510 9.432,13.799 10.382,13.799 10.423 C 13.800 10.445,13.730 10.511,13.645 10.570 C 12.799 11.152,12.343 12.303,12.553 13.326 C 12.768 14.379,13.539 15.192,14.585 15.470 C 14.955 15.568,15.545 15.568,15.915 15.470 C 17.546 15.036,18.417 13.326,17.797 11.773 C 17.466 10.941,16.704 10.300,15.828 10.116 C 15.700 10.089,15.523 10.067,15.434 10.067 C 15.280 10.067,15.270 10.061,15.237 9.958 C 15.201 9.843,14.009 6.020,13.982 5.930 C 13.968 5.886,14.018 5.866,14.248 5.820 C 14.687 5.733,14.858 5.673,14.986 5.560 C 15.156 5.410,15.240 5.226,15.239 5.003 C 15.238 4.556,14.938 4.265,14.483 4.270 C 14.373 4.272,13.938 4.344,13.516 4.431 M11.826 8.974 C 11.560 9.254,10.995 9.851,10.571 10.300 C 10.146 10.749,9.786 11.121,9.771 11.126 C 9.745 11.135,9.067 9.515,9.067 9.445 C 9.067 9.415,12.268 8.434,12.296 8.455 C 12.304 8.461,12.092 8.694,11.826 8.974 M5.539 11.676 C 5.760 11.785,6.042 12.071,6.144 12.292 C 6.204 12.423,6.217 12.510,6.217 12.800 C 6.217 13.113,6.207 13.169,6.126 13.334 C 5.884 13.827,5.336 14.118,4.810 14.032 C 4.417 13.968,4.052 13.697,3.876 13.338 C 3.761 13.104,3.733 12.699,3.812 12.427 C 3.912 12.083,4.231 11.750,4.578 11.626 C 4.841 11.533,5.293 11.556,5.539 11.676 M15.807 11.693 C 16.699 12.132,16.721 13.425,15.844 13.891 C 14.826 14.432,13.703 13.460,14.083 12.367 C 14.194 12.047,14.446 11.790,14.791 11.646 C 14.955 11.577,15.028 11.566,15.284 11.574 C 15.547 11.582,15.614 11.597,15.807 11.693 " fill="var(--db-icon-color, currentColor)" stroke="none" fill-rule="evenodd"></path></svg>