<svg id="icon" height="32" viewBox="0 0 32 32" width="32" xmlns="http://www.w3.org/2000/svg"><path d="M10.507 2.186 C 10.199 2.207,9.801 2.263,9.623 2.309 C 8.476 2.606,7.554 3.391,7.107 4.453 C 6.894 4.960,6.768 5.581,6.465 7.627 L 6.160 9.680 6.160 17.013 C 6.160 23.818,6.167 24.371,6.253 24.682 C 6.373 25.117,6.586 25.549,6.809 25.810 L 6.987 26.017 6.987 27.048 C 6.987 27.636,7.013 28.171,7.046 28.292 C 7.122 28.564,7.436 28.878,7.708 28.954 C 7.832 28.988,8.384 29.012,9.040 29.012 C 10.275 29.011,10.433 28.978,10.730 28.660 C 10.949 28.425,10.987 28.262,10.987 27.543 L 10.987 26.880 16.000 26.880 L 21.013 26.880 21.013 27.543 C 21.013 28.262,21.051 28.425,21.270 28.660 C 21.567 28.978,21.725 29.011,22.960 29.012 C 23.616 29.012,24.168 28.988,24.292 28.954 C 24.564 28.878,24.878 28.564,24.954 28.292 C 24.987 28.171,25.013 27.636,25.013 27.048 L 25.013 26.017 25.191 25.810 C 25.414 25.549,25.627 25.117,25.747 24.682 C 25.833 24.371,25.840 23.818,25.840 17.013 L 25.840 9.680 25.561 7.799 C 25.231 5.576,25.131 5.059,24.932 4.560 C 24.448 3.340,23.454 2.521,22.133 2.253 C 21.793 2.183,20.935 2.169,16.400 2.159 C 13.467 2.152,10.815 2.164,10.507 2.186 M21.973 3.953 C 22.555 4.112,23.071 4.548,23.307 5.081 C 23.472 5.454,23.548 5.863,23.864 8.080 L 24.161 10.160 24.147 14.373 L 24.133 18.586 23.527 18.892 C 22.727 19.297,22.091 19.496,21.360 19.569 C 20.220 19.684,16.228 19.743,13.710 19.683 C 10.084 19.596,9.784 19.553,8.565 18.939 L 7.867 18.587 7.853 14.368 L 7.839 10.150 8.158 7.940 C 8.333 6.725,8.524 5.574,8.583 5.383 C 8.861 4.485,9.477 3.994,10.453 3.894 C 10.673 3.871,13.289 3.857,16.267 3.863 C 20.891 3.872,21.723 3.885,21.973 3.953 M3.648 8.262 C 3.528 8.316,3.372 8.442,3.301 8.540 L 3.173 8.720 3.158 10.948 C 3.142 13.437,3.138 13.413,3.510 13.696 C 3.664 13.814,3.754 13.840,4.005 13.840 C 4.337 13.840,4.509 13.751,4.717 13.473 C 4.824 13.329,4.827 13.265,4.827 11.023 L 4.827 8.720 4.699 8.540 C 4.562 8.348,4.218 8.162,4.000 8.162 C 3.927 8.162,3.768 8.207,3.648 8.262 M27.648 8.262 C 27.528 8.316,27.372 8.442,27.301 8.540 L 27.173 8.720 27.173 11.017 L 27.173 13.315 27.327 13.516 C 27.692 13.995,28.342 13.974,28.717 13.473 C 28.824 13.329,28.827 13.265,28.827 11.023 L 28.827 8.720 28.699 8.540 C 28.562 8.348,28.218 8.162,28.000 8.162 C 27.927 8.162,27.768 8.207,27.648 8.262 M10.213 8.720 C 9.649 8.920,9.476 9.601,9.874 10.054 C 9.964 10.155,10.124 10.264,10.232 10.295 C 10.365 10.334,12.224 10.347,16.116 10.336 C 21.767 10.320,21.807 10.319,21.953 10.210 C 22.233 10.001,22.320 9.831,22.320 9.493 C 22.320 9.137,22.214 8.950,21.914 8.773 C 21.737 8.669,21.627 8.666,16.080 8.655 C 11.304 8.645,10.394 8.655,10.213 8.720 M10.604 21.901 C 12.140 22.118,12.409 22.170,12.580 22.281 C 13.174 22.666,13.271 23.457,12.788 23.980 C 12.563 24.225,12.339 24.326,12.016 24.328 C 11.669 24.331,8.679 23.897,8.441 23.809 C 7.966 23.633,7.649 23.017,7.781 22.528 C 7.874 22.182,8.053 21.960,8.370 21.800 C 8.529 21.719,8.697 21.653,8.743 21.652 C 8.789 21.651,9.627 21.763,10.604 21.901 M23.719 21.846 C 24.050 22.038,24.241 22.390,24.236 22.800 C 24.233 22.983,24.194 23.191,24.145 23.285 C 24.040 23.487,23.756 23.743,23.544 23.828 C 23.457 23.863,22.614 23.998,21.669 24.130 C 20.044 24.356,19.937 24.365,19.689 24.291 C 19.391 24.202,19.012 23.840,18.957 23.590 C 18.939 23.507,18.914 23.406,18.900 23.364 C 18.856 23.223,18.945 22.825,19.060 22.657 C 19.122 22.565,19.263 22.418,19.372 22.330 C 19.563 22.177,19.634 22.161,21.292 21.916 C 22.349 21.759,23.106 21.671,23.253 21.688 C 23.385 21.703,23.595 21.774,23.719 21.846 " fill="var(--db-icon-color, currentColor)" stroke="none" fill-rule="evenodd"></path></svg>