<svg id="icon" height="20" viewBox="0 0 20 20" width="20" xmlns="http://www.w3.org/2000/svg"><path d="M10.867 4.565 C 10.517 4.635,10.300 4.902,10.300 5.260 C 10.300 5.474,10.414 5.688,10.597 5.817 L 10.739 5.917 11.360 5.933 L 11.981 5.950 12.275 6.867 C 12.532 7.669,12.563 7.792,12.526 7.855 C 12.503 7.894,11.936 8.632,11.267 9.495 L 10.050 11.064 9.733 11.057 L 9.417 11.050 8.827 9.083 C 8.119 6.723,8.185 6.967,8.258 6.966 C 8.402 6.966,8.585 6.884,8.720 6.760 C 9.056 6.451,9.018 5.951,8.639 5.685 L 8.494 5.583 7.250 5.583 L 6.006 5.583 5.861 5.685 C 5.482 5.951,5.444 6.451,5.780 6.760 C 5.957 6.923,6.098 6.966,6.457 6.966 L 6.731 6.967 6.778 7.125 C 6.804 7.212,6.934 7.645,7.066 8.088 L 7.308 8.893 6.846 9.663 C 6.591 10.087,6.368 10.427,6.350 10.419 C 5.656 10.109,5.390 10.049,4.851 10.076 C 3.687 10.136,2.724 10.912,2.392 12.057 C 2.329 12.274,2.317 12.393,2.319 12.783 C 2.322 13.210,2.330 13.276,2.423 13.556 C 2.668 14.293,3.144 14.848,3.819 15.183 C 4.195 15.369,4.519 15.442,4.983 15.444 C 5.480 15.446,5.733 15.388,6.186 15.168 C 6.714 14.911,7.180 14.436,7.432 13.896 C 7.539 13.667,7.667 13.215,7.667 13.063 L 7.667 12.970 8.925 12.960 C 10.158 12.950,10.186 12.948,10.324 12.875 C 10.439 12.813,10.702 12.494,11.773 11.117 C 12.570 10.094,13.091 9.451,13.104 9.476 C 13.117 9.498,13.199 9.746,13.287 10.025 L 13.446 10.534 13.206 10.754 C 12.811 11.114,12.539 11.550,12.392 12.057 C 12.329 12.274,12.317 12.393,12.319 12.783 C 12.322 13.210,12.330 13.276,12.423 13.556 C 12.669 14.297,13.148 14.853,13.827 15.185 C 14.850 15.685,16.091 15.476,16.900 14.667 C 17.997 13.570,17.955 11.825,16.806 10.763 C 16.353 10.344,15.770 10.103,15.142 10.074 L 14.768 10.057 14.517 9.282 C 14.379 8.855,14.267 8.498,14.267 8.487 C 14.267 8.476,14.677 8.467,15.178 8.467 C 16.138 8.467,16.230 8.455,16.424 8.311 C 16.551 8.217,17.107 7.399,17.166 7.218 C 17.311 6.778,16.972 6.322,16.499 6.322 C 16.211 6.322,16.044 6.434,15.810 6.785 L 15.623 7.067 14.712 7.067 C 14.210 7.067,13.800 7.059,13.800 7.051 C 13.800 6.969,13.113 4.925,13.060 4.847 C 12.958 4.699,12.806 4.606,12.602 4.567 C 12.404 4.530,11.050 4.528,10.867 4.565 M5.579 11.612 C 5.871 11.756,6.028 11.918,6.179 12.233 C 6.273 12.428,6.283 12.480,6.281 12.750 C 6.278 13.172,6.193 13.380,5.903 13.670 C 5.616 13.957,5.403 14.045,5.000 14.045 C 4.597 14.045,4.384 13.957,4.097 13.670 C 3.807 13.380,3.722 13.172,3.719 12.750 C 3.718 12.490,3.730 12.423,3.810 12.252 C 3.984 11.877,4.217 11.667,4.616 11.525 C 4.740 11.481,4.855 11.468,5.056 11.476 C 5.291 11.486,5.364 11.505,5.579 11.612 M15.579 11.612 C 15.871 11.756,16.028 11.918,16.179 12.233 C 16.273 12.428,16.283 12.480,16.281 12.750 C 16.278 13.172,16.193 13.380,15.903 13.670 C 15.616 13.957,15.403 14.045,15.000 14.045 C 14.597 14.045,14.384 13.957,14.097 13.670 C 13.807 13.380,13.722 13.172,13.719 12.750 C 13.718 12.490,13.730 12.423,13.810 12.252 C 13.984 11.877,14.217 11.667,14.616 11.525 C 14.740 11.481,14.855 11.468,15.056 11.476 C 15.291 11.486,15.364 11.505,15.579 11.612 " fill="var(--db-icon-color, currentColor)" stroke="none" fill-rule="evenodd"></path></svg>