<svg id="icon" height="20" viewBox="0 0 20 20" width="20" xmlns="http://www.w3.org/2000/svg"><path d="M7.967 2.251 C 7.353 2.393,7.075 2.492,6.934 2.620 C 6.460 3.048,6.625 3.843,7.229 4.049 C 7.443 4.122,7.548 4.114,8.090 3.983 C 8.445 3.898,8.649 3.867,8.854 3.867 L 9.133 3.867 9.133 4.433 L 9.133 5.000 8.658 5.000 C 7.752 5.000,7.179 5.093,6.710 5.315 C 5.814 5.739,5.248 6.494,5.060 7.517 C 5.026 7.698,5.017 8.608,5.017 11.633 C 5.017 15.264,5.021 15.536,5.078 15.817 C 5.286 16.843,5.936 17.637,6.872 18.011 C 7.408 18.225,7.887 18.265,9.967 18.265 C 11.747 18.266,12.314 18.237,12.769 18.121 C 13.862 17.844,14.649 17.023,14.910 15.890 C 14.979 15.589,14.980 15.510,14.992 11.867 C 15.001 9.326,14.993 8.037,14.968 7.792 C 14.850 6.633,14.272 5.780,13.290 5.315 C 12.827 5.096,12.233 5.000,11.325 5.000 L 10.867 5.000 10.867 4.433 L 10.867 3.867 11.137 3.867 C 11.330 3.867,11.556 3.901,11.927 3.987 C 12.512 4.123,12.681 4.123,12.912 3.988 C 13.096 3.879,13.182 3.782,13.270 3.583 C 13.455 3.165,13.268 2.670,12.854 2.481 C 12.797 2.454,12.533 2.377,12.267 2.309 L 11.783 2.185 10.050 2.178 C 8.319 2.170,8.316 2.170,7.967 2.251 M12.633 6.764 C 12.921 6.880,13.121 7.081,13.236 7.367 C 13.275 7.463,13.285 7.970,13.293 10.255 L 13.302 13.027 13.026 13.048 C 11.514 13.161,8.355 13.160,6.958 13.047 L 6.700 13.026 6.700 10.368 C 6.700 8.756,6.713 7.641,6.733 7.535 C 6.815 7.101,7.088 6.819,7.509 6.735 C 7.587 6.719,8.745 6.709,10.083 6.712 C 12.091 6.716,12.537 6.726,12.633 6.764 M8.792 8.032 C 8.136 8.236,8.065 9.138,8.683 9.421 L 8.861 9.502 10.039 9.493 C 11.158 9.484,11.223 9.480,11.350 9.414 C 11.860 9.147,11.875 8.404,11.376 8.110 L 11.217 8.017 10.050 8.010 C 9.408 8.007,8.842 8.017,8.792 8.032 M8.670 14.607 C 8.911 14.748,9.033 14.965,9.033 15.250 C 9.033 15.535,8.911 15.752,8.670 15.893 C 8.518 15.982,8.510 15.983,7.900 15.983 C 7.290 15.983,7.282 15.982,7.130 15.893 C 6.888 15.751,6.767 15.535,6.767 15.246 C 6.767 14.918,6.948 14.660,7.258 14.546 C 7.350 14.512,7.533 14.502,7.950 14.508 C 8.499 14.516,8.521 14.519,8.670 14.607 M12.779 14.541 C 12.960 14.594,13.206 14.840,13.259 15.021 C 13.346 15.312,13.284 15.551,13.068 15.768 C 12.866 15.969,12.745 16.000,12.150 16.000 C 11.859 16.000,11.602 15.983,11.521 15.959 C 11.250 15.879,11.000 15.539,11.000 15.250 C 11.000 14.973,11.248 14.624,11.500 14.544 C 11.663 14.492,12.608 14.490,12.779 14.541 " fill="var(--db-icon-color, currentColor)" stroke="none" fill-rule="evenodd"></path></svg>