<svg id="icon" height="24" viewBox="0 0 24 24" width="24" xmlns="http://www.w3.org/2000/svg"><path d="M15.620 2.122 C 14.799 2.290,14.272 2.848,14.151 3.675 C 14.006 4.671,14.620 5.608,15.581 5.859 C 16.236 6.029,16.913 5.844,17.405 5.358 C 18.154 4.619,18.153 3.372,17.403 2.640 C 17.278 2.519,17.086 2.371,16.975 2.311 C 16.604 2.111,16.050 2.033,15.620 2.122 M15.297 7.480 C 15.168 7.506,13.109 8.346,12.076 8.792 C 11.829 8.899,11.602 9.105,11.517 9.300 C 11.476 9.393,11.368 10.006,11.258 10.771 C 11.091 11.934,11.076 12.101,11.119 12.256 C 11.254 12.737,11.785 13.018,12.293 12.877 C 12.478 12.826,12.739 12.598,12.840 12.399 C 12.884 12.315,12.985 11.847,13.080 11.296 C 13.171 10.770,13.259 10.326,13.275 10.310 C 13.333 10.251,14.365 9.800,14.442 9.800 C 14.490 9.800,14.520 9.827,14.520 9.870 C 14.519 9.909,14.466 10.768,14.400 11.780 C 14.248 14.128,14.248 14.134,14.395 14.362 C 14.458 14.460,15.145 15.170,15.921 15.940 L 17.333 17.340 17.829 19.320 C 18.325 21.301,18.392 21.508,18.607 21.708 C 18.855 21.940,19.256 21.984,19.592 21.816 C 19.931 21.647,20.120 21.350,20.120 20.985 C 20.120 20.788,19.103 16.713,18.990 16.460 C 18.920 16.301,18.623 15.979,17.535 14.880 L 16.168 13.500 16.306 11.400 C 16.382 10.245,16.447 9.057,16.452 8.760 C 16.459 8.271,16.451 8.201,16.368 8.020 C 16.317 7.911,16.236 7.779,16.188 7.727 C 15.991 7.515,15.620 7.413,15.297 7.480 M17.995 9.792 C 17.436 10.084,17.357 10.791,17.832 11.251 C 18.007 11.420,19.683 12.291,19.973 12.363 C 20.662 12.534,21.278 11.878,21.073 11.192 C 20.981 10.884,20.813 10.762,19.713 10.202 C 18.737 9.706,18.675 9.680,18.448 9.680 C 18.264 9.680,18.160 9.706,17.995 9.792 M2.569 12.044 C 2.497 12.065,2.360 12.159,2.264 12.251 C 1.798 12.699,1.992 13.476,2.616 13.661 C 2.913 13.749,8.089 13.749,8.385 13.661 C 9.083 13.453,9.207 12.537,8.593 12.130 L 8.426 12.020 5.563 12.013 C 3.838 12.009,2.648 12.021,2.569 12.044 M4.775 15.096 C 4.485 15.231,4.280 15.538,4.280 15.836 C 4.281 16.216,4.586 16.597,4.952 16.675 C 5.094 16.705,5.872 16.720,7.315 16.720 C 9.144 16.720,9.497 16.711,9.675 16.658 C 10.319 16.466,10.492 15.632,9.975 15.206 C 9.890 15.136,9.757 15.061,9.680 15.039 C 9.597 15.016,8.617 15.001,7.260 15.001 L 4.980 15.001 4.775 15.096 M13.449 16.137 C 13.205 16.216,13.013 16.376,12.904 16.592 C 12.790 16.820,11.213 20.476,11.135 20.695 C 11.105 20.780,11.080 20.929,11.080 21.026 C 11.080 21.807,12.118 22.219,12.652 21.651 C 12.773 21.522,14.575 17.468,14.640 17.180 C 14.780 16.557,14.069 15.935,13.449 16.137 " fill="var(--db-icon-color, currentColor)" stroke="none" fill-rule="evenodd"></path></svg>