<svg id="icon" height="32" viewBox="0 0 32 32" width="32" xmlns="http://www.w3.org/2000/svg"><path d="M6.788 6.801 C 5.977 6.977,5.156 7.623,4.789 8.373 C 4.621 8.717,4.482 9.265,3.805 12.240 L 3.017 15.707 2.999 17.428 C 2.984 18.866,2.995 19.204,3.066 19.479 C 3.235 20.139,3.584 20.627,4.118 20.947 C 4.414 21.125,5.168 21.346,5.712 21.413 L 6.012 21.450 6.039 20.819 C 6.060 20.325,6.097 20.093,6.209 19.760 C 6.480 18.956,6.991 18.257,7.657 17.782 C 9.276 16.627,11.376 16.792,12.802 18.187 C 13.267 18.642,13.578 19.133,13.796 19.760 C 13.933 20.155,13.944 20.248,13.945 21.022 L 13.947 21.857 14.320 21.887 C 14.763 21.924,19.126 22.006,19.630 21.987 C 20.296 21.963,20.919 21.649,21.457 21.068 C 21.914 20.574,22.240 20.043,22.384 19.554 C 22.617 18.765,22.987 17.181,22.987 16.970 C 22.987 16.690,22.830 16.423,22.287 15.773 C 21.001 14.236,18.918 12.181,17.506 11.054 C 16.453 10.215,15.100 9.396,13.862 8.849 C 13.177 8.546,10.961 7.724,9.475 7.222 C 7.975 6.715,7.515 6.643,6.788 6.801 M8.988 9.140 C 10.517 9.655,12.567 10.394,13.022 10.593 C 13.888 10.971,14.947 11.606,15.625 12.153 C 16.387 12.768,17.347 13.632,17.417 13.766 C 17.789 14.487,17.192 15.348,16.402 15.230 C 16.129 15.189,15.941 15.059,15.112 14.339 C 14.025 13.395,13.211 12.857,12.218 12.426 C 11.818 12.252,8.555 11.083,8.325 11.030 C 8.243 11.012,8.241 11.018,7.896 12.521 C 7.664 13.533,7.585 13.698,7.239 13.874 C 6.585 14.208,5.804 13.747,5.799 13.025 C 5.797 12.710,6.431 9.909,6.564 9.646 C 6.799 9.183,7.329 8.855,7.842 8.854 C 8.059 8.853,8.363 8.929,8.988 9.140 M28.401 18.352 C 27.771 18.419,27.395 18.552,26.186 19.139 L 25.093 19.669 24.554 19.689 C 24.074 19.708,23.990 19.726,23.795 19.855 C 23.437 20.092,23.264 20.531,23.368 20.941 C 23.498 21.457,23.926 21.708,24.677 21.706 C 25.324 21.704,25.711 21.583,26.880 21.018 C 28.064 20.446,28.413 20.320,28.811 20.320 C 29.276 20.320,29.638 20.100,29.819 19.707 C 30.082 19.137,29.752 18.497,29.119 18.351 C 28.988 18.321,28.868 18.299,28.853 18.302 C 28.839 18.305,28.635 18.328,28.401 18.352 M9.635 19.041 C 8.776 19.190,8.075 19.974,8.012 20.856 C 7.929 22.013,8.838 22.987,10.000 22.987 C 11.731 22.987,12.638 20.930,11.467 19.660 C 10.999 19.152,10.318 18.922,9.635 19.041 " fill="var(--db-icon-color, currentColor)" stroke="none" fill-rule="evenodd"></path></svg>