<svg id="icon" height="24" viewBox="0 0 24 24" width="24" xmlns="http://www.w3.org/2000/svg"><path d="M6.580 3.058 C 5.884 3.237,5.320 3.782,5.056 4.532 C 5.025 4.620,4.782 5.630,4.517 6.776 C 4.252 7.922,4.026 8.890,4.015 8.928 C 3.998 8.988,3.907 8.997,3.201 9.008 C 2.471 9.019,2.397 9.027,2.295 9.102 C 2.046 9.289,2.021 9.361,2.008 9.933 C 1.996 10.425,2.001 10.472,2.091 10.640 C 2.247 10.936,2.404 10.999,2.982 10.999 L 3.465 11.000 3.449 11.350 C 3.430 11.765,3.801 15.033,3.910 15.420 C 3.966 15.615,3.982 15.905,3.999 16.980 L 4.020 18.300 4.131 18.489 C 4.358 18.876,4.642 19.000,5.298 19.000 C 5.849 19.000,6.067 18.935,6.301 18.701 C 6.501 18.501,6.600 18.238,6.600 17.907 L 6.600 17.668 6.875 17.691 L 7.150 17.715 7.178 17.399 C 7.319 15.775,8.225 14.210,9.636 13.147 C 10.597 12.424,11.576 12.099,12.940 12.052 L 13.659 12.027 14.541 11.144 C 15.026 10.658,15.682 9.981,15.998 9.640 L 16.572 9.020 11.166 9.010 C 8.193 9.004,5.760 8.986,5.760 8.968 C 5.760 8.843,6.691 5.008,6.740 4.935 C 6.774 4.883,6.850 4.809,6.909 4.771 C 7.011 4.704,7.295 4.701,12.038 4.714 C 15.089 4.722,17.086 4.742,17.129 4.765 C 17.254 4.832,17.347 5.084,17.517 5.820 C 17.620 6.266,17.721 6.604,17.783 6.709 C 17.920 6.943,18.182 7.091,18.459 7.091 C 18.890 7.091,19.195 6.833,19.288 6.389 C 19.332 6.180,19.325 6.115,19.184 5.492 C 19.100 5.122,18.989 4.684,18.936 4.517 C 18.695 3.752,18.082 3.171,17.383 3.043 C 17.013 2.976,6.845 2.990,6.580 3.058 M19.370 9.070 C 19.299 9.109,18.138 10.274,16.790 11.660 C 15.443 13.046,14.313 14.178,14.280 14.175 C 14.247 14.172,14.049 14.138,13.840 14.100 C 13.297 14.001,12.552 14.034,12.060 14.179 C 10.906 14.518,10.016 15.273,9.518 16.335 C 8.480 18.551,9.669 21.178,12.018 21.858 C 12.781 22.079,13.497 22.080,14.256 21.860 C 15.310 21.555,16.215 20.801,16.712 19.816 C 17.177 18.894,17.256 17.718,16.920 16.739 L 16.841 16.511 17.211 16.088 C 17.414 15.855,17.656 15.581,17.748 15.480 C 17.840 15.379,17.935 15.246,17.958 15.185 C 17.981 15.125,18.000 14.833,18.000 14.537 L 18.000 14.000 18.810 13.999 C 19.701 13.999,19.759 13.986,19.909 13.764 C 19.996 13.634,20.000 13.595,20.000 12.814 L 20.000 12.000 20.822 12.000 C 21.478 12.000,21.668 11.988,21.761 11.939 C 21.989 11.822,22.000 11.756,22.000 10.512 C 22.000 8.905,22.090 9.000,20.551 9.000 C 19.625 9.000,19.483 9.008,19.370 9.070 M6.332 12.158 C 6.764 12.245,7.169 12.343,7.232 12.376 C 7.555 12.543,7.793 13.013,7.738 13.378 C 7.672 13.818,7.286 14.196,6.868 14.231 C 6.616 14.252,5.255 13.990,5.036 13.878 C 4.865 13.791,4.652 13.557,4.575 13.374 C 4.504 13.205,4.504 12.795,4.575 12.626 C 4.716 12.288,5.097 12.015,5.443 12.003 C 5.499 12.002,5.899 12.071,6.332 12.158 M13.221 17.190 C 13.483 17.323,13.787 17.619,13.912 17.864 C 14.287 18.602,13.951 19.553,13.191 19.904 C 12.970 20.006,12.895 20.020,12.560 20.020 C 12.232 20.020,12.149 20.005,11.953 19.914 C 11.650 19.771,11.400 19.534,11.236 19.230 C 11.105 18.989,11.100 18.964,11.100 18.540 C 11.100 18.136,11.109 18.083,11.211 17.889 C 11.519 17.305,11.994 17.027,12.640 17.055 C 12.922 17.066,13.021 17.090,13.221 17.190 " fill="var(--db-icon-color, currentColor)" stroke="none" fill-rule="evenodd"></path></svg>