<svg id="icon" height="20" viewBox="0 0 20 20" width="20" xmlns="http://www.w3.org/2000/svg"><path d="M9.250 2.037 C 7.947 2.161,6.875 2.627,6.089 3.413 C 5.390 4.111,4.927 5.011,4.686 6.137 C 4.529 6.873,4.517 7.075,4.517 8.933 C 4.517 10.675,4.517 10.686,4.609 11.309 C 4.727 12.100,4.857 12.804,4.890 12.833 C 5.390 13.262,7.032 14.469,7.680 14.883 C 7.945 15.052,8.336 15.190,8.671 15.232 C 9.030 15.277,10.970 15.277,11.329 15.232 C 11.685 15.187,12.064 15.048,12.372 14.849 C 13.333 14.228,15.301 12.740,15.347 12.600 C 15.379 12.502,15.432 11.905,15.469 11.217 C 15.492 10.792,15.501 9.874,15.491 8.883 C 15.475 7.147,15.452 6.851,15.271 6.095 C 14.757 3.947,13.362 2.540,11.350 2.137 C 10.710 2.009,9.937 1.972,9.250 2.037 M11.200 4.083 C 12.567 4.281,13.180 4.685,13.667 5.708 C 13.955 6.312,13.963 6.614,13.718 7.708 C 13.534 8.529,13.477 8.707,13.315 8.950 C 13.051 9.348,12.705 9.554,12.117 9.663 C 11.242 9.827,10.985 9.849,10.033 9.849 C 9.108 9.848,8.978 9.837,8.000 9.680 C 7.244 9.559,6.862 9.312,6.583 8.764 C 6.489 8.581,6.443 8.407,6.249 7.510 C 6.026 6.479,6.043 6.106,6.339 5.502 C 6.535 5.101,6.935 4.701,7.333 4.507 C 7.845 4.259,8.455 4.103,9.183 4.035 C 9.633 3.993,10.769 4.020,11.200 4.083 M7.829 10.831 C 8.083 10.961,8.138 11.063,8.446 11.988 C 8.751 12.903,8.779 13.059,8.682 13.293 C 8.472 13.794,7.803 13.899,7.442 13.489 C 7.308 13.335,6.767 11.735,6.767 11.491 C 6.767 11.199,6.924 10.950,7.183 10.830 C 7.364 10.746,7.664 10.747,7.829 10.831 M12.793 10.818 C 13.060 10.930,13.231 11.189,13.233 11.483 C 13.234 11.734,12.696 13.331,12.558 13.489 C 12.197 13.899,11.528 13.794,11.318 13.293 C 11.221 13.059,11.249 12.903,11.554 11.988 C 11.860 11.069,11.916 10.964,12.163 10.833 C 12.313 10.754,12.621 10.747,12.793 10.818 M14.371 15.287 C 13.733 15.753,13.015 16.228,12.748 16.361 C 12.466 16.502,12.042 16.640,11.719 16.698 C 11.599 16.719,10.922 16.733,9.998 16.733 C 8.355 16.733,8.203 16.721,7.697 16.549 C 7.562 16.503,7.348 16.413,7.221 16.348 C 7.007 16.239,6.244 15.736,5.761 15.384 C 5.647 15.302,5.548 15.241,5.540 15.249 C 5.516 15.273,5.861 15.927,6.030 16.177 C 6.239 16.486,6.531 16.813,6.794 17.036 C 6.948 17.167,7.029 17.267,7.102 17.421 C 7.221 17.669,7.405 17.839,7.660 17.934 C 7.837 18.001,7.896 18.002,10.079 17.993 L 12.317 17.983 12.492 17.886 C 12.683 17.781,12.803 17.644,12.901 17.423 C 12.945 17.322,13.018 17.242,13.148 17.153 C 13.685 16.783,14.277 16.030,14.616 15.287 C 14.680 15.148,14.728 15.034,14.724 15.034 C 14.720 15.034,14.561 15.148,14.371 15.287 " fill="var(--db-icon-color, currentColor)" stroke="none" fill-rule="evenodd"></path></svg>