<svg id="icon" height="32" viewBox="0 0 32 32" width="32" xmlns="http://www.w3.org/2000/svg"><path d="M12.286 2.110 C 11.661 2.215,10.884 2.477,10.240 2.801 C 8.377 3.735,6.976 5.364,6.353 7.320 C 5.993 8.448,6.011 8.082,5.987 14.960 C 5.975 18.392,5.981 21.636,6.001 22.169 L 6.038 23.137 6.339 23.272 C 7.625 23.848,9.851 24.496,11.514 24.778 C 12.618 24.965,13.494 25.012,15.867 25.012 C 18.141 25.011,19.508 24.954,20.308 24.826 C 21.895 24.572,24.097 23.940,25.507 23.334 L 25.960 23.140 26.000 17.290 C 26.048 10.387,26.027 8.885,25.874 8.171 C 25.542 6.625,24.837 5.318,23.756 4.242 C 22.631 3.122,21.145 2.347,19.667 2.107 C 18.982 1.996,12.950 1.999,12.286 2.110 M19.669 4.137 C 19.902 4.184,20.288 4.321,20.560 4.453 C 21.866 5.089,22.661 6.252,22.801 7.733 C 22.830 8.039,22.199 16.432,22.103 17.013 C 21.993 17.684,21.460 18.282,20.748 18.533 C 20.399 18.656,17.335 18.880,16.000 18.880 C 14.665 18.880,11.601 18.656,11.252 18.533 C 10.540 18.282,10.007 17.684,9.897 17.013 C 9.880 16.911,9.709 14.859,9.516 12.453 C 9.277 9.464,9.177 7.962,9.200 7.707 C 9.330 6.252,10.173 5.045,11.493 4.423 C 12.251 4.065,12.285 4.063,15.962 4.058 C 18.749 4.054,19.321 4.066,19.669 4.137 M12.453 20.663 C 13.567 20.805,13.660 20.829,13.912 21.041 C 14.643 21.657,14.264 22.899,13.322 22.973 C 13.026 22.996,10.975 22.753,10.753 22.669 C 10.528 22.584,10.250 22.296,10.157 22.052 C 9.875 21.315,10.397 20.533,11.168 20.534 C 11.318 20.534,11.896 20.592,12.453 20.663 M21.451 20.610 C 21.703 20.716,22.008 21.068,22.081 21.336 C 22.220 21.855,21.937 22.444,21.448 22.650 C 21.256 22.732,19.380 22.987,18.987 22.985 C 18.499 22.983,18.054 22.637,17.919 22.156 C 17.794 21.711,18.013 21.173,18.416 20.937 C 18.602 20.828,18.823 20.780,19.628 20.675 C 20.800 20.521,21.204 20.507,21.451 20.610 M6.849 25.858 C 7.304 26.756,8.328 27.931,9.222 28.580 C 9.931 29.094,10.869 29.540,11.636 29.725 C 11.764 29.756,11.785 29.740,11.842 29.568 C 11.931 29.299,12.298 28.940,12.602 28.826 C 12.845 28.735,12.891 28.735,13.562 28.820 C 15.402 29.053,16.677 29.054,18.400 28.823 C 18.737 28.778,19.096 28.756,19.198 28.775 C 19.620 28.853,19.974 29.136,20.143 29.532 L 20.240 29.757 20.782 29.575 C 22.436 29.018,23.907 27.864,24.862 26.371 C 25.079 26.032,25.287 25.600,25.233 25.600 C 25.206 25.600,24.707 25.733,24.125 25.896 C 21.785 26.549,20.471 26.841,19.467 26.931 C 18.658 27.004,13.400 27.003,12.569 26.930 C 11.520 26.838,10.094 26.520,7.677 25.839 C 7.210 25.708,6.803 25.600,6.773 25.600 C 6.743 25.600,6.777 25.716,6.849 25.858 " fill="var(--db-icon-color, currentColor)" stroke="none" fill-rule="evenodd"></path></svg>