<svg id="icon" height="20" viewBox="0 0 20 20" width="20" xmlns="http://www.w3.org/2000/svg"><path d="M13.762 2.861 C 12.926 3.144,12.720 3.256,12.513 3.539 C 12.447 3.629,12.364 3.778,12.329 3.870 C 12.184 4.252,12.164 4.125,12.947 7.744 C 13.343 9.574,13.667 11.092,13.667 11.118 C 13.667 11.145,13.525 11.237,13.342 11.330 C 12.027 11.991,11.190 12.986,10.697 14.475 L 10.556 14.900 8.416 14.900 L 6.276 14.900 6.156 14.720 C 5.900 14.333,5.520 14.039,5.061 13.874 C 4.847 13.796,4.766 13.785,4.400 13.784 C 4.060 13.784,3.940 13.797,3.750 13.857 C 3.214 14.027,2.737 14.429,2.502 14.907 C 2.304 15.311,2.256 15.541,2.275 15.983 C 2.287 16.265,2.310 16.402,2.374 16.575 C 2.613 17.215,3.115 17.707,3.733 17.904 C 4.042 18.003,4.523 18.024,4.846 17.952 C 5.458 17.816,6.020 17.373,6.278 16.826 L 6.383 16.601 8.909 16.601 C 11.653 16.600,11.529 16.608,11.785 16.413 C 11.952 16.286,12.053 16.093,12.116 15.783 C 12.398 14.382,12.959 13.484,13.872 12.970 C 14.044 12.873,14.063 12.869,14.079 12.923 C 14.089 12.956,14.165 13.288,14.249 13.660 L 14.401 14.337 14.245 14.527 C 14.062 14.751,13.890 15.098,13.814 15.399 C 13.733 15.716,13.762 16.273,13.874 16.575 C 14.116 17.222,14.617 17.709,15.250 17.909 C 15.592 18.018,16.186 18.015,16.527 17.904 C 17.377 17.625,17.948 16.877,17.991 15.983 C 18.009 15.601,17.958 15.325,17.806 14.992 C 17.521 14.371,16.918 13.908,16.246 13.798 L 16.015 13.759 15.019 9.205 C 14.471 6.700,14.022 4.636,14.020 4.618 C 14.018 4.600,14.279 4.495,14.600 4.385 C 15.152 4.194,15.192 4.174,15.356 4.012 C 15.705 3.668,15.708 3.179,15.363 2.838 C 15.190 2.666,15.021 2.601,14.750 2.603 C 14.549 2.604,14.412 2.640,13.762 2.861 M3.916 10.666 C 3.240 10.766,2.936 11.504,3.348 12.045 C 3.395 12.106,3.512 12.199,3.608 12.251 C 3.783 12.347,3.783 12.347,4.433 12.350 C 5.048 12.353,5.098 12.358,5.354 12.443 C 5.655 12.544,6.028 12.772,6.312 13.029 C 6.648 13.333,6.912 13.416,7.237 13.322 C 7.688 13.191,7.947 12.726,7.817 12.280 C 7.752 12.056,7.558 11.834,7.150 11.518 C 6.542 11.047,5.980 10.795,5.285 10.683 C 4.971 10.632,4.213 10.623,3.916 10.666 " fill="var(--db-icon-color, currentColor)" stroke="none" fill-rule="evenodd"></path></svg>