<svg id="icon" height="20" viewBox="0 0 20 20" width="20" xmlns="http://www.w3.org/2000/svg"><path d="M7.383 2.022 C 6.245 2.127,5.415 2.676,4.984 3.609 C 4.825 3.954,4.719 4.339,4.564 5.133 C 4.491 5.509,4.425 5.849,4.416 5.888 C 4.402 5.954,4.376 5.960,4.042 5.973 C 3.735 5.985,3.659 6.000,3.513 6.075 C 3.419 6.124,3.281 6.233,3.207 6.317 C 2.990 6.563,2.967 6.676,2.967 7.467 C 2.967 8.304,2.989 8.394,3.264 8.669 C 3.479 8.884,3.676 8.967,3.972 8.967 L 4.164 8.967 4.175 12.208 C 4.187 15.759,4.176 15.562,4.386 15.991 C 4.489 16.202,4.841 16.591,5.012 16.683 L 5.129 16.746 5.139 17.204 C 5.151 17.702,5.170 17.758,5.379 17.915 C 5.464 17.978,5.525 17.984,6.111 17.993 C 6.685 18.001,6.762 17.996,6.866 17.939 C 7.076 17.825,7.115 17.737,7.128 17.348 L 7.139 17.000 10.133 17.000 L 13.127 17.000 13.139 17.331 C 13.151 17.688,13.184 17.769,13.379 17.915 C 13.464 17.978,13.525 17.984,14.111 17.993 C 14.685 18.001,14.762 17.996,14.866 17.939 C 15.092 17.816,15.115 17.751,15.127 17.213 L 15.138 16.731 15.398 16.474 C 15.681 16.194,15.827 15.948,15.924 15.592 C 15.974 15.405,15.981 15.058,15.991 12.179 L 16.003 8.975 16.245 8.960 C 16.664 8.933,16.989 8.695,17.133 8.310 C 17.192 8.153,17.200 8.050,17.200 7.467 C 17.200 6.883,17.192 6.781,17.133 6.624 C 17.046 6.391,16.884 6.205,16.662 6.084 C 16.505 5.998,16.440 5.984,16.119 5.968 L 15.754 5.950 15.582 5.083 C 15.488 4.607,15.369 4.097,15.320 3.950 C 14.985 2.964,14.246 2.305,13.217 2.075 C 13.017 2.030,12.593 2.022,10.250 2.016 C 8.747 2.012,7.457 2.015,7.383 2.022 M12.734 3.735 C 13.242 3.799,13.523 4.018,13.700 4.491 C 13.758 4.646,13.935 5.468,14.048 6.108 L 14.070 6.233 10.085 6.233 C 6.698 6.233,6.100 6.226,6.100 6.187 C 6.100 6.086,6.399 4.641,6.449 4.501 C 6.535 4.259,6.662 4.071,6.811 3.962 C 7.087 3.761,7.118 3.755,7.983 3.733 C 9.416 3.697,12.435 3.698,12.734 3.735 M14.300 10.418 C 14.300 12.376,14.291 12.905,14.258 12.916 C 14.133 12.956,11.848 13.012,10.300 13.014 C 8.722 13.015,6.807 12.969,6.108 12.914 L 5.867 12.894 5.867 10.414 L 5.867 7.933 10.083 7.933 L 14.300 7.933 14.300 10.418 M6.722 14.151 C 7.695 14.243,7.779 14.266,7.960 14.486 C 8.359 14.970,8.013 15.699,7.383 15.699 C 7.084 15.699,5.767 15.571,5.639 15.529 C 5.224 15.394,5.021 14.838,5.246 14.455 C 5.344 14.286,5.534 14.141,5.708 14.099 C 5.768 14.085,5.821 14.072,5.827 14.070 C 5.833 14.068,6.235 14.105,6.722 14.151 M14.738 14.170 C 15.355 14.480,15.202 15.437,14.516 15.562 C 14.425 15.579,14.003 15.620,13.578 15.652 C 12.712 15.720,12.623 15.710,12.414 15.527 C 12.237 15.371,12.155 15.188,12.155 14.944 C 12.154 14.682,12.277 14.464,12.506 14.323 C 12.654 14.231,12.696 14.224,13.522 14.151 C 14.431 14.070,14.543 14.072,14.738 14.170 " fill="var(--db-icon-color, currentColor)" stroke="none" fill-rule="evenodd"></path></svg>