<svg id="icon" height="20" viewBox="0 0 20 20" width="20" xmlns="http://www.w3.org/2000/svg"><path d="M6.633 3.120 C 6.153 3.253,5.984 3.352,5.873 3.567 C 5.812 3.686,5.798 3.758,5.807 3.917 C 5.818 4.102,5.867 4.210,6.499 5.426 C 6.872 6.147,7.194 6.730,7.214 6.723 C 7.234 6.716,7.951 6.496,8.808 6.233 C 9.665 5.971,10.365 5.747,10.364 5.737 C 10.363 5.726,9.747 5.139,8.996 4.433 C 7.573 3.096,7.450 2.999,7.183 3.003 C 7.110 3.004,6.862 3.056,6.633 3.120 M13.329 6.216 C 13.171 6.242,12.948 6.287,12.835 6.316 C 12.671 6.359,5.424 8.611,5.056 8.734 C 4.964 8.764,4.933 8.737,4.139 7.956 C 3.687 7.511,3.272 7.118,3.217 7.083 C 3.059 6.983,2.833 7.004,2.500 7.148 C 2.344 7.216,2.189 7.297,2.155 7.327 C 2.060 7.413,2.000 7.551,2.000 7.683 C 2.000 7.812,3.457 11.949,3.618 12.278 C 3.806 12.661,4.225 13.076,4.633 13.283 C 5.058 13.498,5.654 13.582,6.093 13.488 C 6.227 13.460,6.867 13.271,7.515 13.068 C 8.163 12.866,8.700 12.700,8.708 12.700 C 8.716 12.700,8.732 13.448,8.742 14.362 C 8.764 16.171,8.764 16.172,8.959 16.376 C 9.009 16.428,9.125 16.491,9.221 16.519 C 9.385 16.567,9.410 16.565,9.738 16.482 C 10.158 16.376,10.322 16.305,10.439 16.179 C 10.488 16.127,11.115 15.008,11.834 13.693 L 13.140 11.303 13.345 11.236 C 13.458 11.200,14.202 10.966,15.000 10.716 C 16.585 10.221,16.719 10.175,16.974 10.046 C 17.716 9.671,18.087 8.967,17.920 8.256 C 17.857 7.989,17.739 7.700,17.692 7.700 C 17.674 7.700,16.937 7.934,16.055 8.220 C 15.172 8.507,14.437 8.743,14.420 8.745 C 14.396 8.749,13.906 7.472,13.901 7.394 C 13.901 7.382,14.433 7.195,15.083 6.978 C 15.734 6.761,16.267 6.575,16.267 6.564 C 16.267 6.529,15.662 6.334,15.333 6.263 C 14.916 6.172,13.765 6.145,13.329 6.216 M12.451 8.163 C 12.703 8.277,12.867 8.542,12.867 8.833 C 12.867 9.622,11.807 9.860,11.459 9.150 C 11.285 8.795,11.435 8.358,11.795 8.167 C 11.956 8.082,12.270 8.080,12.451 8.163 M9.960 8.930 C 10.225 9.067,10.367 9.299,10.367 9.600 C 10.367 10.032,10.061 10.334,9.626 10.333 C 9.206 10.331,8.899 10.017,8.901 9.593 C 8.902 9.303,9.052 9.061,9.317 8.922 C 9.461 8.846,9.805 8.850,9.960 8.930 M7.369 9.638 C 7.920 9.803,8.064 10.556,7.616 10.925 C 7.328 11.162,6.935 11.154,6.659 10.906 C 6.061 10.367,6.599 9.407,7.369 9.638 " fill="var(--db-icon-color, currentColor)" stroke="none" fill-rule="evenodd"></path></svg>