<svg id="icon" height="24" viewBox="0 0 24 24" width="24" xmlns="http://www.w3.org/2000/svg"><path d="M7.188 2.047 C 5.860 2.183,4.622 2.810,3.813 3.755 C 3.040 4.658,2.436 5.926,2.203 7.134 C 2.077 7.788,2.042 8.320,2.014 10.000 C 1.988 11.541,2.025 12.633,2.134 13.542 L 2.182 13.942 2.557 14.434 C 3.263 15.360,4.084 16.134,5.208 16.932 C 6.291 17.701,6.624 17.872,7.171 17.941 L 7.400 17.969 7.370 17.835 C 7.353 17.761,7.340 17.403,7.341 17.040 C 7.342 16.428,7.350 16.359,7.448 16.087 C 7.589 15.698,7.770 15.400,8.050 15.098 C 8.227 14.907,8.569 14.633,8.753 14.535 C 8.760 14.531,8.889 13.955,9.041 13.254 C 9.366 11.755,9.398 11.640,9.615 11.220 C 9.705 11.044,9.785 10.888,9.792 10.874 C 9.798 10.860,9.448 10.848,9.012 10.847 C 8.185 10.846,7.185 10.754,6.336 10.601 C 5.790 10.503,5.478 10.352,5.121 10.015 C 4.728 9.644,4.598 9.372,4.375 8.451 C 4.071 7.196,4.092 6.697,4.481 5.900 C 4.912 5.015,5.518 4.546,6.575 4.280 C 7.432 4.063,7.833 4.021,9.020 4.023 C 10.186 4.024,10.609 4.071,11.500 4.299 C 12.473 4.548,13.097 5.042,13.520 5.900 C 13.844 6.556,13.913 7.118,13.759 7.866 C 13.650 8.398,13.481 9.036,13.416 9.165 C 13.387 9.223,13.374 9.281,13.388 9.295 C 13.433 9.339,15.467 9.323,15.587 9.277 C 15.751 9.215,15.875 9.085,15.918 8.930 C 15.974 8.726,15.897 7.716,15.783 7.149 C 15.531 5.906,14.910 4.598,14.165 3.741 C 13.321 2.770,12.138 2.184,10.743 2.044 C 10.230 1.992,7.698 1.995,7.188 2.047 M12.320 11.044 C 12.024 11.102,11.670 11.301,11.450 11.533 C 11.097 11.907,11.042 12.064,10.681 13.722 C 10.502 14.546,10.314 15.364,10.264 15.539 L 10.172 15.858 9.956 15.902 C 9.509 15.993,9.185 16.263,9.057 16.650 C 8.951 16.967,8.991 17.479,9.142 17.757 C 9.278 18.007,9.533 18.212,9.800 18.284 C 9.899 18.311,9.987 18.339,9.996 18.346 C 10.054 18.393,10.132 19.296,10.154 20.180 C 10.184 21.347,10.194 21.389,10.507 21.686 C 10.775 21.941,10.889 21.980,11.360 21.980 C 11.828 21.980,11.977 21.928,12.236 21.674 C 12.395 21.517,12.559 21.189,12.560 21.026 C 12.560 20.918,12.568 20.913,12.690 20.935 C 13.016 20.994,13.852 21.081,14.505 21.123 C 15.533 21.191,17.256 21.124,18.187 20.981 C 18.260 20.969,18.383 20.950,18.460 20.938 C 18.578 20.920,18.600 20.928,18.600 20.991 C 18.600 21.159,18.738 21.451,18.905 21.638 C 19.157 21.917,19.423 22.013,19.880 21.991 C 20.395 21.966,20.707 21.777,20.908 21.368 C 21.020 21.141,21.020 21.136,21.031 20.220 C 21.038 19.663,21.068 19.101,21.108 18.794 L 21.174 18.288 21.333 18.241 C 21.556 18.174,21.854 17.858,21.941 17.597 C 22.036 17.311,22.009 16.726,21.890 16.497 C 21.739 16.206,21.347 15.920,21.101 15.920 C 21.022 15.920,20.998 15.876,20.907 15.550 C 20.849 15.347,20.685 14.636,20.541 13.972 C 20.179 12.308,20.103 12.023,19.958 11.797 C 19.727 11.437,19.359 11.171,18.942 11.062 C 18.735 11.008,18.285 11.001,15.602 11.004 C 13.896 11.007,12.419 11.025,12.320 11.044 M6.068 12.074 C 6.193 12.138,6.520 12.440,6.520 12.492 C 6.520 12.498,6.673 12.949,6.860 13.494 C 7.242 14.607,7.265 14.759,7.106 15.100 C 6.804 15.748,5.960 15.868,5.476 15.333 C 5.361 15.206,5.278 15.004,4.989 14.160 C 4.593 13.003,4.573 12.870,4.744 12.528 C 4.990 12.034,5.588 11.829,6.068 12.074 M19.075 14.130 C 19.279 15.015,19.455 15.772,19.466 15.810 C 19.484 15.876,19.280 15.880,15.583 15.880 C 13.145 15.880,11.680 15.866,11.680 15.842 C 11.680 15.802,12.392 12.655,12.421 12.570 C 12.434 12.531,13.100 12.520,15.570 12.520 L 18.703 12.520 19.075 14.130 M12.748 17.140 C 13.109 17.240,13.447 17.349,13.500 17.384 C 13.651 17.482,13.774 17.773,13.741 17.951 C 13.681 18.272,13.450 18.480,13.154 18.480 C 12.997 18.479,11.889 18.187,11.694 18.095 C 11.286 17.901,11.302 17.240,11.721 17.030 C 11.921 16.929,12.018 16.940,12.748 17.140 M19.513 17.069 C 19.858 17.326,19.847 17.881,19.493 18.085 C 19.288 18.202,18.123 18.491,17.938 18.470 C 17.509 18.422,17.280 17.929,17.511 17.555 C 17.626 17.369,17.695 17.337,18.409 17.136 C 19.085 16.946,19.329 16.931,19.513 17.069 M3.101 17.929 C 3.380 18.857,4.132 19.965,4.803 20.437 C 5.023 20.591,5.062 20.635,5.036 20.701 C 5.019 20.745,5.005 20.879,5.004 21.000 C 5.000 21.375,5.202 21.711,5.540 21.894 C 5.692 21.976,5.757 21.981,6.920 21.991 C 8.090 22.002,8.145 21.999,8.272 21.920 C 8.479 21.793,8.522 21.642,8.479 21.197 C 8.459 20.990,8.442 20.639,8.441 20.418 L 8.440 20.015 7.728 19.967 C 6.680 19.896,6.091 19.780,5.580 19.543 C 5.250 19.390,4.306 18.765,3.585 18.223 C 3.200 17.933,3.081 17.861,3.101 17.929 M16.432 18.801 C 16.770 19.007,16.747 19.503,16.390 19.720 C 16.274 19.791,16.188 19.800,15.580 19.800 C 14.976 19.800,14.886 19.791,14.772 19.722 C 14.515 19.565,14.421 19.277,14.542 19.021 C 14.673 18.746,14.763 18.720,15.580 18.720 C 16.232 18.720,16.313 18.728,16.432 18.801 " fill="var(--db-icon-color, currentColor)" stroke="none" fill-rule="evenodd"></path></svg>