<svg id="icon" height="24" viewBox="0 0 24 24" width="24" xmlns="http://www.w3.org/2000/svg"><path d="M8.060 4.095 C 7.574 4.255,7.384 4.396,7.262 4.689 C 7.140 4.982,7.157 5.030,7.944 6.608 C 8.353 7.429,8.692 8.104,8.696 8.108 C 8.709 8.123,12.059 7.074,12.087 7.046 C 12.122 7.012,9.160 4.248,8.957 4.126 C 8.731 3.990,8.413 3.979,8.060 4.095 M16.640 7.564 C 16.409 7.583,16.085 7.632,15.920 7.673 C 15.755 7.713,13.548 8.391,11.017 9.178 L 6.413 10.609 5.245 9.682 C 4.603 9.172,3.996 8.718,3.896 8.674 C 3.602 8.544,3.284 8.563,2.815 8.739 C 2.300 8.931,2.183 9.007,2.083 9.214 C 1.975 9.436,1.978 9.575,2.098 9.908 C 2.151 10.057,2.585 11.296,3.060 12.660 C 4.033 15.449,4.058 15.503,4.597 16.010 C 5.244 16.618,6.127 16.914,6.957 16.800 C 7.142 16.775,7.995 16.536,9.007 16.225 L 10.740 15.693 10.760 17.797 L 10.780 19.900 10.875 20.093 C 11.059 20.467,11.411 20.588,11.959 20.463 C 12.315 20.382,12.434 20.323,12.584 20.152 C 12.648 20.079,13.435 18.670,14.332 17.020 L 15.965 14.020 18.066 13.362 C 19.221 13.000,20.278 12.660,20.413 12.606 C 21.608 12.128,22.269 10.922,21.885 9.918 C 21.724 9.497,21.894 9.485,20.187 10.037 C 19.359 10.305,18.620 10.535,18.546 10.547 C 18.358 10.577,18.009 10.467,17.834 10.321 C 17.488 10.035,17.376 9.483,17.581 9.078 C 17.741 8.763,17.906 8.672,18.910 8.348 L 19.802 8.060 19.631 7.987 C 18.877 7.666,17.598 7.485,16.640 7.564 M15.360 9.763 C 15.751 9.940,15.965 10.257,15.965 10.659 C 15.965 10.950,15.901 11.128,15.723 11.330 C 15.364 11.740,14.653 11.742,14.272 11.335 C 14.009 11.053,13.919 10.555,14.077 10.246 C 14.167 10.069,14.435 9.816,14.614 9.738 C 14.802 9.656,15.150 9.668,15.360 9.763 M12.351 10.802 C 13.128 11.247,12.997 12.373,12.138 12.622 C 11.769 12.729,11.420 12.623,11.147 12.320 C 10.865 12.006,10.803 11.624,10.975 11.260 C 11.155 10.880,11.462 10.684,11.880 10.682 C 12.097 10.681,12.174 10.701,12.351 10.802 M9.160 11.747 C 9.600 11.926,9.867 12.514,9.714 12.964 C 9.537 13.483,8.978 13.786,8.493 13.624 C 7.688 13.357,7.511 12.341,8.187 11.866 C 8.494 11.651,8.824 11.610,9.160 11.747 " fill="var(--db-icon-color, currentColor)" stroke="none" fill-rule="evenodd"></path></svg>