<svg id="icon" height="20" viewBox="0 0 20 20" width="20" xmlns="http://www.w3.org/2000/svg"><path d="M13.631 3.258 C 12.970 3.593,13.035 4.537,13.735 4.784 C 13.816 4.812,14.005 4.848,14.156 4.864 C 14.474 4.896,14.646 4.981,14.858 5.211 C 15.054 5.423,15.126 5.586,15.181 5.940 C 15.268 6.492,16.073 12.505,16.061 12.515 C 16.055 12.521,15.686 12.708,15.240 12.931 C 14.530 13.288,14.419 13.354,14.331 13.475 C 14.066 13.841,14.096 14.288,14.406 14.598 C 14.564 14.756,14.772 14.840,15.008 14.842 C 15.200 14.844,15.246 14.825,16.325 14.287 C 16.939 13.981,17.492 13.692,17.554 13.645 C 17.710 13.526,17.832 13.261,17.837 13.033 C 17.842 12.749,16.844 5.456,16.763 5.185 C 16.625 4.721,16.370 4.308,16.011 3.962 C 15.470 3.442,14.805 3.167,14.091 3.167 C 13.853 3.167,13.786 3.180,13.631 3.258 M2.766 8.031 C 2.249 8.190,2.007 8.755,2.246 9.245 C 2.297 9.349,2.387 9.471,2.447 9.516 C 2.569 9.609,2.802 9.700,2.921 9.700 L 3.000 9.700 3.000 10.725 C 3.001 11.830,3.022 12.014,3.181 12.329 C 3.342 12.647,3.700 12.884,4.145 12.969 C 4.241 12.987,5.877 13.000,8.063 12.999 C 12.153 12.999,12.088 13.002,12.439 12.811 C 12.652 12.694,12.813 12.486,12.907 12.203 C 12.976 11.997,12.981 11.910,12.992 10.842 L 13.005 9.700 13.081 9.700 C 13.198 9.700,13.432 9.609,13.553 9.516 C 13.720 9.389,13.846 9.101,13.844 8.854 C 13.840 8.523,13.697 8.279,13.405 8.108 L 13.250 8.017 8.050 8.011 C 5.190 8.008,2.812 8.017,2.766 8.031 M4.150 14.046 C 3.751 14.144,3.335 14.469,3.167 14.816 C 2.948 15.269,2.949 15.730,3.170 16.191 C 3.268 16.395,3.605 16.732,3.809 16.830 C 4.430 17.128,5.079 17.025,5.552 16.552 C 6.131 15.973,6.150 15.092,5.597 14.487 C 5.242 14.098,4.662 13.922,4.150 14.046 M11.150 14.046 C 10.751 14.144,10.335 14.469,10.167 14.816 C 9.948 15.269,9.949 15.730,10.170 16.191 C 10.268 16.395,10.605 16.732,10.809 16.830 C 11.430 17.128,12.079 17.025,12.552 16.552 C 13.131 15.973,13.150 15.092,12.597 14.487 C 12.242 14.098,11.662 13.922,11.150 14.046 M7.149 14.729 C 6.618 14.970,6.489 15.684,6.903 16.097 C 7.117 16.312,7.248 16.347,7.888 16.361 C 8.550 16.375,8.763 16.342,8.991 16.189 C 9.412 15.907,9.465 15.270,9.098 14.903 C 8.880 14.685,8.800 14.668,8.000 14.668 C 7.377 14.668,7.266 14.676,7.149 14.729 " fill="var(--db-icon-color, currentColor)" stroke="none" fill-rule="evenodd"></path></svg>