<svg id="icon" height="24" viewBox="0 0 24 24" width="24" xmlns="http://www.w3.org/2000/svg"><path d="M9.792 2.241 C 9.447 2.326,8.509 2.778,8.372 2.926 C 8.159 3.155,8.100 3.563,8.236 3.863 C 8.379 4.179,8.804 4.406,9.128 4.341 C 9.201 4.326,9.475 4.213,9.738 4.089 L 10.215 3.864 10.688 3.847 L 11.160 3.830 11.160 4.915 L 11.160 6.000 10.164 6.000 C 8.952 6.000,8.451 6.046,8.010 6.197 C 7.539 6.359,7.269 6.532,6.876 6.922 C 6.480 7.315,6.262 7.702,6.110 8.280 L 6.020 8.620 6.020 13.460 C 6.020 17.913,6.026 18.330,6.090 18.673 C 6.179 19.143,6.284 19.459,6.477 19.845 C 7.031 20.949,8.014 21.661,9.327 21.910 C 9.656 21.972,9.972 21.980,12.000 21.980 C 14.028 21.980,14.344 21.972,14.673 21.910 C 15.986 21.661,16.969 20.949,17.523 19.845 C 17.716 19.459,17.821 19.143,17.910 18.673 C 17.974 18.330,17.980 17.912,17.980 13.440 L 17.980 8.580 17.890 8.260 C 17.730 7.688,17.512 7.307,17.124 6.921 C 16.735 6.534,16.401 6.323,15.954 6.181 C 15.528 6.046,14.993 6.000,13.836 6.000 L 12.840 6.000 12.840 4.914 L 12.840 3.829 13.330 3.856 C 13.812 3.883,13.828 3.887,14.300 4.100 C 14.888 4.365,14.949 4.380,15.193 4.322 C 15.696 4.201,15.977 3.646,15.778 3.169 C 15.677 2.928,15.550 2.830,14.970 2.547 C 14.175 2.159,14.175 2.159,11.946 2.163 C 10.276 2.166,10.071 2.173,9.792 2.241 M15.407 7.846 C 15.725 7.995,15.976 8.241,16.130 8.554 L 16.260 8.818 16.271 11.719 C 16.284 14.950,16.295 14.809,16.011 15.101 C 15.762 15.358,15.618 15.397,14.752 15.446 C 13.755 15.501,10.245 15.501,9.248 15.446 C 8.382 15.397,8.238 15.358,7.989 15.101 C 7.705 14.809,7.716 14.950,7.729 11.720 L 7.740 8.820 7.845 8.595 C 8.037 8.187,8.385 7.886,8.797 7.774 C 8.937 7.736,9.707 7.726,12.080 7.732 L 15.180 7.740 15.407 7.846 M9.596 9.013 C 9.124 9.263,9.014 9.900,9.374 10.310 C 9.634 10.606,9.560 10.598,12.000 10.598 C 14.023 10.598,14.192 10.593,14.340 10.525 C 14.971 10.239,15.009 9.333,14.404 9.013 L 14.227 8.920 12.000 8.920 L 9.773 8.920 9.596 9.013 M9.944 17.108 C 10.134 17.210,10.347 17.438,10.425 17.626 C 10.455 17.698,10.480 17.867,10.480 18.000 C 10.480 18.133,10.455 18.302,10.425 18.374 C 10.338 18.581,10.118 18.804,9.900 18.906 C 9.715 18.992,9.649 18.999,9.000 18.999 C 8.351 18.999,8.285 18.992,8.100 18.906 C 7.882 18.804,7.662 18.581,7.575 18.374 C 7.545 18.302,7.520 18.133,7.520 18.000 C 7.520 17.716,7.581 17.550,7.761 17.345 C 7.890 17.198,8.044 17.098,8.240 17.036 C 8.295 17.018,8.664 17.007,9.060 17.012 C 9.715 17.019,9.795 17.028,9.944 17.108 M15.944 17.108 C 16.134 17.210,16.347 17.438,16.425 17.626 C 16.455 17.698,16.480 17.867,16.480 18.000 C 16.480 18.133,16.455 18.302,16.425 18.374 C 16.338 18.581,16.118 18.804,15.900 18.906 C 15.715 18.992,15.649 18.999,15.000 18.999 C 14.351 18.999,14.285 18.992,14.100 18.906 C 13.882 18.804,13.662 18.581,13.575 18.374 C 13.504 18.205,13.504 17.795,13.575 17.626 C 13.685 17.362,13.947 17.129,14.240 17.036 C 14.295 17.018,14.664 17.007,15.060 17.012 C 15.715 17.019,15.795 17.028,15.944 17.108 " fill="var(--db-icon-color, currentColor)" stroke="none" fill-rule="evenodd"></path></svg>