<svg id="icon" height="20" viewBox="0 0 20 20" width="20" xmlns="http://www.w3.org/2000/svg"><path d="M6.864 2.046 C 6.673 2.097,6.541 2.175,6.112 2.488 C 5.687 2.797,5.578 2.918,5.549 3.113 C 5.488 3.518,5.735 3.867,6.083 3.867 C 6.237 3.867,6.321 3.822,6.758 3.507 L 7.117 3.250 7.392 3.261 L 7.667 3.272 7.667 4.136 L 7.667 5.000 7.339 5.000 C 6.256 5.000,5.417 5.668,5.092 6.789 L 5.017 7.050 5.017 11.500 L 5.017 15.950 5.092 16.211 C 5.296 16.914,5.740 17.486,6.298 17.765 C 6.766 17.999,6.506 17.983,10.000 17.983 C 13.494 17.983,13.234 17.999,13.702 17.765 C 14.260 17.486,14.704 16.914,14.908 16.211 L 14.983 15.950 14.983 11.500 L 14.983 7.050 14.908 6.789 C 14.707 6.096,14.263 5.518,13.719 5.243 C 13.377 5.070,13.203 5.027,12.758 5.009 L 12.333 4.991 12.333 4.129 L 12.333 3.267 12.564 3.267 L 12.794 3.267 13.222 3.550 C 13.664 3.842,13.784 3.890,13.984 3.852 C 14.273 3.798,14.482 3.427,14.402 3.111 C 14.342 2.874,14.283 2.812,13.818 2.501 C 13.075 2.003,13.299 2.054,11.717 2.029 C 9.330 1.992,7.035 1.999,6.864 2.046 M11.233 4.133 L 11.233 5.000 10.000 5.000 L 8.767 5.000 8.767 4.133 L 8.767 3.267 10.000 3.267 L 11.233 3.267 11.233 4.133 M12.605 7.125 C 12.874 7.258,13.070 7.463,13.211 7.761 L 13.317 7.983 13.317 10.000 L 13.317 12.017 13.211 12.241 C 13.076 12.525,12.844 12.773,12.604 12.891 L 12.417 12.983 10.000 12.983 L 7.583 12.983 7.396 12.891 C 7.187 12.789,6.943 12.548,6.836 12.339 C 6.672 12.018,6.667 11.940,6.667 10.031 C 6.667 8.962,6.680 8.170,6.700 8.063 C 6.793 7.570,7.148 7.168,7.598 7.045 C 7.714 7.014,8.304 7.005,10.067 7.010 L 12.385 7.017 12.605 7.125 M8.254 15.019 C 8.411 15.136,8.477 15.253,8.491 15.440 C 8.507 15.652,8.433 15.812,8.267 15.925 C 8.163 15.995,8.123 16.000,7.593 16.000 C 6.966 16.000,6.888 15.980,6.773 15.792 C 6.576 15.473,6.713 15.046,7.039 14.965 C 7.100 14.950,7.378 14.940,7.656 14.944 C 8.109 14.949,8.172 14.957,8.254 15.019 M13.087 15.019 C 13.323 15.194,13.390 15.446,13.273 15.711 C 13.156 15.974,13.081 16.000,12.417 16.000 C 11.761 16.000,11.678 15.973,11.565 15.724 C 11.455 15.482,11.497 15.237,11.677 15.071 C 11.802 14.956,11.928 14.936,12.489 14.943 C 12.942 14.949,13.005 14.957,13.087 15.019 " fill="var(--db-icon-color, currentColor)" stroke="none" fill-rule="evenodd"></path></svg>