<svg id="icon" height="24" viewBox="0 0 24 24" width="24" xmlns="http://www.w3.org/2000/svg"><path d="M7.200 2.207 C 6.154 2.356,5.304 3.075,4.965 4.097 C 4.897 4.303,4.748 4.932,4.634 5.495 L 4.427 6.517 4.287 6.394 C 4.099 6.229,3.923 6.160,3.691 6.161 C 3.325 6.163,2.989 6.411,2.886 6.757 C 2.824 6.962,2.822 9.975,2.884 10.217 C 3.003 10.691,3.568 10.972,4.021 10.782 L 4.160 10.724 4.161 14.452 C 4.163 18.465,4.164 18.498,4.373 19.048 C 4.502 19.388,4.711 19.714,4.980 19.997 L 5.192 20.220 5.206 20.760 C 5.219 21.265,5.227 21.312,5.331 21.489 C 5.460 21.709,5.637 21.854,5.878 21.939 C 6.122 22.025,6.881 22.022,7.140 21.934 C 7.512 21.807,7.800 21.396,7.800 20.993 L 7.800 20.840 11.994 20.840 L 16.189 20.840 16.211 21.080 C 16.236 21.360,16.375 21.626,16.574 21.778 C 16.798 21.949,17.010 22.000,17.498 22.000 C 18.049 22.000,18.267 21.935,18.501 21.701 C 18.736 21.466,18.800 21.249,18.800 20.688 L 18.800 20.230 19.037 19.976 C 19.450 19.535,19.701 19.015,19.798 18.400 C 19.824 18.236,19.840 16.768,19.840 14.432 L 19.840 10.724 19.979 10.782 C 20.302 10.917,20.725 10.812,20.949 10.541 C 21.157 10.288,21.165 10.206,21.152 8.420 L 21.140 6.780 21.040 6.602 C 20.899 6.351,20.658 6.191,20.386 6.169 C 20.115 6.146,19.937 6.204,19.732 6.379 L 19.572 6.516 19.366 5.494 C 19.252 4.932,19.103 4.303,19.035 4.097 C 18.689 3.053,17.843 2.353,16.747 2.203 C 16.354 2.149,7.580 2.153,7.200 2.207 M16.757 3.931 C 17.047 4.046,17.186 4.180,17.338 4.491 C 17.462 4.741,17.526 5.004,17.820 6.452 L 18.160 8.124 18.160 11.521 L 18.160 14.918 18.070 14.939 C 17.939 14.969,16.554 15.147,15.900 15.217 C 14.068 15.416,11.922 15.489,10.460 15.404 C 9.124 15.327,6.213 15.027,5.910 14.936 C 5.844 14.916,5.840 14.719,5.840 11.527 L 5.840 8.140 6.059 7.020 C 6.496 4.785,6.603 4.399,6.847 4.172 C 6.996 4.033,7.290 3.921,7.608 3.884 C 7.768 3.864,9.853 3.851,12.240 3.855 C 16.280 3.860,16.592 3.866,16.757 3.931 M8.201 7.205 C 7.805 7.362,7.569 7.822,7.679 8.217 C 7.743 8.444,7.933 8.672,8.137 8.764 C 8.292 8.835,8.487 8.838,12.002 8.839 L 15.703 8.840 15.879 8.750 C 16.233 8.569,16.422 8.172,16.326 7.810 C 16.261 7.565,16.100 7.363,15.879 7.250 L 15.703 7.160 12.002 7.163 C 9.669 7.164,8.263 7.180,8.201 7.205 M8.131 16.917 C 9.403 17.046,9.536 17.081,9.759 17.351 C 9.898 17.520,10.000 17.794,10.000 18.000 C 10.000 18.412,9.703 18.818,9.312 18.942 C 9.100 19.008,9.061 19.007,7.887 18.889 C 6.773 18.777,6.665 18.759,6.501 18.663 C 5.935 18.331,5.836 17.562,6.300 17.098 C 6.458 16.940,6.723 16.810,6.900 16.803 C 6.944 16.802,7.498 16.853,8.131 16.917 M17.340 16.866 C 17.709 16.992,18.000 17.404,18.000 17.800 C 18.000 18.214,17.700 18.623,17.315 18.736 C 17.197 18.770,16.606 18.846,16.002 18.904 C 14.943 19.006,14.897 19.007,14.688 18.941 C 13.823 18.669,13.778 17.407,14.620 17.079 C 14.727 17.037,16.644 16.817,17.003 16.805 C 17.081 16.802,17.233 16.830,17.340 16.866 " fill="var(--db-icon-color, currentColor)" stroke="none" fill-rule="evenodd"></path></svg>