<svg id="icon" height="20" viewBox="0 0 20 20" width="20" xmlns="http://www.w3.org/2000/svg"><path d="M12.680 5.211 C 11.960 5.482,11.902 6.414,12.581 6.778 C 12.710 6.847,12.768 6.851,13.805 6.867 C 14.833 6.882,14.897 6.887,14.967 6.950 C 15.132 7.099,15.133 7.115,15.133 8.437 L 15.133 9.678 13.392 11.423 L 11.651 13.168 11.137 13.159 L 10.623 13.150 9.834 10.542 C 9.130 8.214,9.031 7.914,8.917 7.748 C 8.742 7.495,8.536 7.324,8.203 7.157 L 7.922 7.017 6.336 7.017 L 4.750 7.017 4.595 7.108 C 4.303 7.279,4.158 7.525,4.158 7.850 C 4.158 8.174,4.328 8.458,4.614 8.610 C 4.746 8.681,4.790 8.684,6.129 8.700 L 7.507 8.717 7.720 9.417 C 7.837 9.802,7.933 10.126,7.933 10.138 C 7.933 10.150,7.292 10.167,6.508 10.176 C 5.391 10.188,5.036 10.203,4.866 10.242 C 4.268 10.382,3.677 10.718,3.220 11.176 C 2.617 11.782,2.259 12.529,2.165 13.383 C 2.125 13.744,2.148 14.188,2.216 14.352 C 2.284 14.518,2.470 14.705,2.650 14.788 C 2.809 14.862,2.851 14.866,3.573 14.866 L 4.329 14.867 4.310 15.158 C 4.277 15.679,4.436 16.107,4.798 16.469 C 5.239 16.911,5.872 17.095,6.445 16.947 C 7.235 16.743,7.805 16.064,7.809 15.322 C 7.809 15.191,7.799 15.035,7.786 14.975 L 7.761 14.867 9.972 14.866 L 12.183 14.866 12.350 14.788 C 12.485 14.725,12.915 14.309,14.614 12.597 C 16.173 11.025,16.728 10.445,16.780 10.333 C 16.848 10.188,16.850 10.140,16.847 8.633 C 16.843 6.883,16.839 6.845,16.590 6.333 C 16.393 5.929,16.027 5.561,15.633 5.373 C 15.477 5.299,15.261 5.222,15.152 5.202 C 14.874 5.152,12.816 5.159,12.680 5.211 M15.967 13.521 C 15.115 13.686,14.500 14.411,14.500 15.250 C 14.500 16.200,15.300 17.000,16.250 17.000 C 17.059 17.000,17.800 16.397,17.963 15.607 C 18.141 14.747,17.648 13.889,16.807 13.596 C 16.620 13.531,16.138 13.488,15.967 13.521 " fill="var(--db-icon-color, currentColor)" stroke="none" fill-rule="evenodd"></path></svg>