<svg id="icon" height="32" viewBox="0 0 32 32" width="32" xmlns="http://www.w3.org/2000/svg"><path d="M25.653 5.658 C 24.911 5.816,24.289 5.978,24.127 6.056 C 23.588 6.316,23.124 6.832,22.935 7.383 C 22.719 8.009,22.709 7.922,23.520 12.373 C 23.948 14.723,24.255 16.535,24.230 16.572 C 24.206 16.607,23.923 16.796,23.600 16.990 C 22.327 17.757,20.924 18.904,20.269 19.714 C 19.574 20.575,19.240 21.509,19.116 22.947 L 19.085 23.307 13.960 23.294 L 8.836 23.280 8.766 22.937 C 8.622 22.232,8.164 21.494,7.591 21.045 C 6.358 20.077,4.670 20.073,3.420 21.035 C 3.103 21.279,2.688 21.778,2.507 22.133 C 2.147 22.838,2.057 23.836,2.286 24.587 C 2.606 25.638,3.447 26.500,4.480 26.835 C 4.900 26.972,5.733 27.024,6.140 26.938 C 7.092 26.739,8.001 26.083,8.411 25.299 L 8.560 25.014 14.349 25.013 L 20.137 25.013 20.372 24.893 C 20.803 24.673,20.826 24.606,20.834 23.529 C 20.850 21.591,21.183 20.951,22.911 19.534 C 23.225 19.276,24.514 18.400,24.578 18.400 C 24.614 18.400,25.013 20.395,25.013 20.575 C 25.013 20.606,24.846 20.743,24.642 20.879 C 22.892 22.042,22.646 24.518,24.134 26.005 C 24.440 26.312,24.621 26.440,25.019 26.632 C 25.630 26.926,26.026 27.008,26.678 26.974 C 27.536 26.929,28.249 26.613,28.859 26.008 C 29.966 24.912,30.164 23.158,29.327 21.863 C 29.015 21.381,28.553 20.956,28.067 20.706 C 27.676 20.504,27.090 20.320,26.840 20.320 C 26.778 20.320,26.715 20.278,26.700 20.227 C 26.685 20.175,26.179 17.429,25.574 14.124 C 24.528 8.404,24.479 8.105,24.553 7.928 C 24.596 7.825,24.693 7.701,24.768 7.652 C 24.843 7.603,25.398 7.458,26.002 7.331 C 27.358 7.045,27.423 7.024,27.623 6.796 C 27.816 6.577,27.863 6.416,27.824 6.121 C 27.774 5.751,27.492 5.480,27.093 5.420 C 26.976 5.402,26.444 5.490,25.653 5.658 M3.595 16.417 C 3.090 16.738,3.009 17.348,3.419 17.749 C 3.633 17.959,3.923 18.027,4.605 18.027 C 5.371 18.027,6.384 18.166,6.960 18.350 C 7.947 18.666,8.572 19.202,9.057 20.146 C 9.356 20.729,9.541 20.927,9.835 20.982 C 10.405 21.089,10.954 20.540,10.830 19.987 C 10.736 19.570,10.224 18.674,9.782 18.154 C 9.655 18.004,9.376 17.748,9.162 17.584 C 8.105 16.778,6.743 16.394,4.747 16.339 C 3.831 16.314,3.748 16.319,3.595 16.417 M6.228 22.189 C 6.767 22.459,7.078 22.915,7.132 23.518 C 7.189 24.139,6.850 24.775,6.299 25.084 C 5.907 25.304,5.338 25.343,4.904 25.179 C 4.382 24.982,3.961 24.444,3.867 23.856 C 3.783 23.325,4.093 22.625,4.552 22.311 C 4.879 22.087,5.052 22.037,5.525 22.031 C 5.845 22.027,5.953 22.051,6.228 22.189 M27.239 22.177 C 28.243 22.697,28.438 24.043,27.624 24.840 C 27.293 25.164,26.912 25.297,26.394 25.268 C 26.067 25.250,25.932 25.214,25.701 25.084 C 25.150 24.775,24.811 24.139,24.868 23.518 C 24.923 22.914,25.231 22.460,25.777 22.185 C 26.085 22.029,26.137 22.019,26.560 22.039 C 26.890 22.055,27.074 22.093,27.239 22.177 " fill="var(--db-icon-color, currentColor)" stroke="none" fill-rule="evenodd"></path></svg>