<svg id="icon" height="24" viewBox="0 0 24 24" width="24" xmlns="http://www.w3.org/2000/svg"><path d="M9.611 2.043 C 8.480 2.180,7.414 2.705,6.577 3.539 C 5.770 4.343,5.274 5.301,5.078 6.434 C 5.004 6.867,5.000 7.102,5.000 11.514 L 5.000 16.141 5.090 16.198 C 5.948 16.746,7.116 17.239,8.689 17.715 C 9.616 17.996,9.800 18.010,12.300 17.991 L 14.380 17.975 14.840 17.851 C 16.273 17.464,17.883 16.825,18.730 16.307 L 19.000 16.142 19.000 11.546 C 19.000 7.572,18.991 6.893,18.937 6.526 C 18.733 5.149,17.992 3.901,16.885 3.068 C 16.259 2.597,15.577 2.285,14.760 2.097 C 14.498 2.036,14.174 2.026,12.180 2.018 C 10.926 2.012,9.770 2.023,9.611 2.043 M14.580 3.097 C 14.734 3.131,15.013 3.234,15.200 3.326 C 16.016 3.726,16.560 4.598,16.560 5.502 C 16.560 5.918,16.129 11.265,16.078 11.480 C 15.945 12.042,15.475 12.552,14.935 12.719 C 14.060 12.989,9.940 12.989,9.065 12.719 C 8.545 12.558,8.095 12.093,7.945 11.560 C 7.881 11.332,7.439 6.036,7.440 5.496 C 7.440 5.125,7.564 4.653,7.747 4.324 C 7.946 3.966,8.386 3.535,8.740 3.352 C 9.367 3.028,9.655 3.002,12.380 3.021 C 13.928 3.032,14.354 3.047,14.580 3.097 M9.133 14.140 C 9.599 14.218,10.055 14.309,10.147 14.343 C 10.349 14.417,10.610 14.690,10.683 14.903 C 10.900 15.542,10.445 16.236,9.807 16.239 C 9.576 16.240,7.986 15.972,7.824 15.904 C 7.659 15.835,7.458 15.632,7.351 15.425 C 7.219 15.169,7.230 14.801,7.380 14.526 C 7.544 14.226,7.871 14.016,8.193 14.004 C 8.245 14.002,8.668 14.063,9.133 14.140 M16.019 14.045 C 16.757 14.249,16.984 15.170,16.433 15.721 C 16.361 15.793,16.245 15.875,16.176 15.904 C 16.014 15.972,14.424 16.240,14.193 16.239 C 13.680 16.237,13.263 15.788,13.265 15.240 C 13.266 14.870,13.463 14.537,13.780 14.370 C 13.895 14.310,15.491 14.012,15.740 14.004 C 15.806 14.002,15.932 14.020,16.019 14.045 M5.480 18.697 C 5.480 18.760,5.749 19.251,5.953 19.560 C 6.199 19.933,6.765 20.543,7.140 20.838 C 7.522 21.139,8.026 21.429,8.459 21.596 C 9.063 21.830,9.019 21.827,9.076 21.637 C 9.148 21.396,9.419 21.143,9.699 21.055 C 9.918 20.986,9.943 20.986,10.334 21.055 C 11.731 21.301,12.352 21.305,13.519 21.074 C 13.993 20.980,14.192 20.990,14.460 21.120 C 14.660 21.217,14.899 21.499,14.942 21.690 C 14.955 21.751,14.975 21.800,14.985 21.800 C 15.032 21.800,15.800 21.500,15.960 21.419 C 16.625 21.083,17.491 20.340,17.931 19.729 C 18.163 19.406,18.543 18.730,18.510 18.697 C 18.500 18.687,18.189 18.797,17.818 18.943 C 16.903 19.301,15.966 19.618,15.337 19.780 C 14.630 19.963,14.075 20.000,12.000 20.000 C 9.931 20.000,9.371 19.963,8.663 19.781 C 7.831 19.568,6.667 19.163,5.530 18.692 C 5.503 18.681,5.480 18.683,5.480 18.697 " fill="var(--db-icon-color, currentColor)" stroke="none" fill-rule="evenodd"></path></svg>