<svg id="icon" height="20" viewBox="0 0 20 20" width="20" xmlns="http://www.w3.org/2000/svg"><path d="M9.983 3.822 C 9.928 3.831,8.951 3.979,7.811 4.150 C 6.489 4.349,5.699 4.482,5.628 4.518 C 5.489 4.588,5.309 4.756,5.248 4.871 C 5.144 5.071,5.136 5.229,5.202 5.781 C 5.273 6.375,5.286 7.115,5.230 7.419 C 5.182 7.682,5.052 7.917,4.921 7.978 C 4.863 8.005,4.499 8.087,4.111 8.160 C 3.252 8.322,3.068 8.400,2.713 8.750 C 2.462 8.996,2.320 9.233,2.211 9.585 C 2.157 9.762,2.151 9.899,2.156 10.841 C 2.162 11.991,2.171 12.060,2.345 12.258 C 2.507 12.442,2.734 12.533,3.036 12.533 C 3.708 12.534,4.396 12.182,5.044 11.506 L 5.270 11.269 5.510 11.473 C 6.102 11.974,6.662 12.237,7.258 12.293 C 8.045 12.367,8.768 12.078,9.640 11.340 L 9.957 11.072 10.170 11.289 C 11.127 12.261,12.268 12.561,13.125 12.066 C 13.360 11.931,13.719 11.587,14.040 11.192 C 14.185 11.013,14.315 10.867,14.330 10.867 C 14.344 10.867,14.443 10.897,14.550 10.933 C 14.914 11.058,15.267 10.999,15.473 10.779 C 15.559 10.687,17.739 7.280,17.855 7.058 C 17.930 6.913,17.930 6.620,17.855 6.426 C 17.783 6.237,17.518 5.984,17.339 5.934 C 17.272 5.916,17.156 5.900,17.083 5.900 C 17.009 5.900,16.229 6.027,15.349 6.183 C 14.470 6.339,13.735 6.466,13.716 6.466 C 13.697 6.466,13.624 6.350,13.554 6.208 C 13.240 5.569,12.635 4.809,12.140 4.433 C 11.868 4.227,11.327 3.959,11.033 3.885 C 10.815 3.830,10.168 3.791,9.983 3.822 M10.613 5.550 C 10.719 5.578,10.876 5.641,10.961 5.690 C 11.169 5.810,11.547 6.196,11.742 6.489 C 11.898 6.724,11.929 6.800,11.870 6.800 C 11.853 6.800,10.733 6.995,9.380 7.233 C 8.028 7.471,6.917 7.662,6.912 7.657 C 6.907 7.652,6.919 7.537,6.938 7.401 C 6.957 7.265,6.967 6.894,6.961 6.577 C 6.955 6.259,6.957 5.999,6.967 5.998 C 6.976 5.997,7.711 5.886,8.600 5.752 C 9.489 5.617,10.262 5.505,10.318 5.503 C 10.374 5.502,10.506 5.523,10.613 5.550 M5.039 12.834 C 4.958 12.870,4.729 13.056,4.523 13.253 C 3.924 13.823,3.460 14.099,3.016 14.149 C 2.717 14.183,2.604 14.228,2.439 14.379 C 2.077 14.712,2.058 15.253,2.398 15.593 C 2.617 15.812,2.855 15.875,3.277 15.828 C 3.896 15.759,4.539 15.460,5.183 14.941 L 5.349 14.807 5.500 14.932 C 5.884 15.252,6.421 15.561,6.832 15.700 C 7.140 15.803,7.347 15.836,7.700 15.836 C 8.356 15.835,9.014 15.574,9.730 15.031 L 10.021 14.809 10.169 14.938 C 10.359 15.103,10.800 15.399,11.025 15.513 C 11.308 15.656,11.767 15.796,12.061 15.829 C 12.842 15.916,13.636 15.632,14.489 14.960 C 14.602 14.871,14.704 14.812,14.714 14.830 C 14.754 14.894,15.246 15.245,15.534 15.415 C 16.056 15.724,16.793 15.909,17.174 15.828 C 17.828 15.689,18.070 14.875,17.597 14.403 C 17.444 14.250,17.329 14.201,17.004 14.152 C 16.495 14.076,16.199 13.897,15.566 13.283 C 15.116 12.846,14.977 12.766,14.669 12.767 C 14.431 12.769,14.255 12.873,13.872 13.238 C 13.127 13.949,12.579 14.227,12.144 14.114 C 11.733 14.007,11.320 13.728,10.812 13.216 C 10.446 12.847,10.301 12.766,10.002 12.767 C 9.764 12.769,9.588 12.873,9.206 13.238 C 8.460 13.949,7.912 14.227,7.478 14.114 C 7.066 14.007,6.653 13.728,6.146 13.216 C 5.881 12.949,5.774 12.864,5.648 12.821 C 5.436 12.749,5.216 12.753,5.039 12.834 " fill="var(--db-icon-color, currentColor)" stroke="none" fill-rule="evenodd"></path></svg>