<svg id="icon" height="20" viewBox="0 0 20 20" width="20" xmlns="http://www.w3.org/2000/svg"><path d="M2.595 2.260 C 2.380 2.372,2.221 2.588,2.168 2.842 C 2.143 2.964,2.135 4.515,2.141 8.017 C 2.151 13.593,2.130 13.128,2.385 13.383 C 2.577 13.575,2.768 13.647,3.073 13.641 C 3.531 13.633,3.991 13.432,4.450 13.039 L 4.683 12.840 4.803 12.949 C 4.869 13.008,5.012 13.117,5.120 13.191 C 6.088 13.847,7.010 13.796,7.868 13.039 C 8.047 12.880,8.076 12.865,8.130 12.905 C 8.731 13.348,8.976 13.482,9.367 13.584 C 9.617 13.649,10.042 13.657,10.283 13.602 C 10.536 13.544,11.026 13.292,11.250 13.104 C 11.360 13.012,11.504 12.892,11.569 12.837 L 11.688 12.737 11.836 12.837 C 12.087 13.007,12.551 13.229,12.806 13.300 C 13.491 13.492,14.223 13.361,14.884 12.927 C 15.180 12.732,15.747 12.182,16.066 11.781 C 16.548 11.175,17.083 10.286,17.570 9.285 C 17.928 8.549,18.082 8.111,18.052 7.920 C 18.002 7.611,17.811 7.347,17.551 7.229 C 17.428 7.173,17.301 7.168,16.042 7.167 L 14.668 7.167 14.645 7.075 C 14.632 7.025,14.552 6.706,14.467 6.367 L 14.313 5.750 10.565 5.733 L 6.817 5.717 6.680 5.644 C 6.071 5.318,6.044 4.485,6.630 4.140 L 6.783 4.050 10.325 4.041 C 13.008 4.034,13.867 4.023,13.867 3.993 C 13.867 3.885,13.521 2.638,13.467 2.550 C 13.376 2.404,13.271 2.314,13.100 2.236 C 12.951 2.169,12.911 2.168,7.862 2.167 L 2.774 2.167 2.595 2.260 M5.376 7.553 C 5.578 7.622,5.815 7.834,5.926 8.046 C 6.001 8.190,6.015 8.259,6.016 8.483 C 6.016 8.800,5.942 8.991,5.744 9.190 C 5.355 9.578,4.716 9.581,4.339 9.197 C 4.140 8.994,4.054 8.784,4.053 8.500 C 4.053 8.028,4.318 7.668,4.767 7.531 C 4.911 7.487,5.215 7.498,5.376 7.553 M9.376 7.553 C 9.578 7.622,9.815 7.834,9.926 8.046 C 10.001 8.190,10.015 8.259,10.016 8.483 C 10.016 8.800,9.942 8.991,9.744 9.190 C 9.355 9.578,8.716 9.581,8.339 9.197 C 8.140 8.994,8.054 8.784,8.053 8.500 C 8.053 8.028,8.318 7.668,8.767 7.531 C 8.911 7.487,9.215 7.498,9.376 7.553 M13.376 7.553 C 13.578 7.622,13.815 7.834,13.926 8.046 C 14.001 8.190,14.015 8.259,14.016 8.483 C 14.016 8.800,13.942 8.991,13.744 9.190 C 13.355 9.578,12.716 9.581,12.339 9.197 C 12.140 8.994,12.054 8.784,12.053 8.500 C 12.053 8.028,12.318 7.668,12.767 7.531 C 12.911 7.487,13.215 7.498,13.376 7.553 M4.301 14.537 C 4.148 14.584,4.042 14.663,3.761 14.936 C 3.485 15.206,3.270 15.319,2.947 15.362 C 2.676 15.398,2.552 15.453,2.398 15.607 C 2.180 15.825,2.098 16.183,2.198 16.481 C 2.257 16.656,2.483 16.895,2.666 16.977 C 3.053 17.149,3.825 16.986,4.386 16.614 C 4.556 16.501,4.581 16.493,4.645 16.534 C 5.554 17.119,6.194 17.295,6.883 17.149 C 7.172 17.088,7.584 16.893,7.855 16.688 L 8.059 16.533 8.347 16.714 C 8.854 17.032,9.371 17.200,9.844 17.200 C 10.294 17.200,10.882 16.990,11.407 16.641 C 11.570 16.532,11.651 16.496,11.682 16.518 C 12.389 17.029,12.941 17.224,13.574 17.188 C 14.071 17.160,14.568 16.979,15.044 16.653 L 15.264 16.502 15.357 16.580 C 15.776 16.931,16.472 17.200,16.959 17.200 C 17.459 17.200,17.842 16.831,17.842 16.350 C 17.842 15.890,17.535 15.565,17.045 15.504 C 16.917 15.488,16.746 15.441,16.665 15.399 C 16.481 15.306,16.169 15.060,15.950 14.833 C 15.706 14.581,15.569 14.518,15.267 14.518 C 14.955 14.518,14.888 14.552,14.501 14.910 C 14.078 15.301,13.735 15.496,13.467 15.498 C 13.210 15.499,12.842 15.290,12.381 14.880 C 12.061 14.596,11.950 14.534,11.717 14.510 C 11.451 14.482,11.253 14.563,10.975 14.813 C 10.532 15.212,10.146 15.453,9.892 15.487 C 9.619 15.524,9.193 15.293,8.692 14.839 C 8.379 14.555,8.300 14.518,8.000 14.518 C 7.673 14.518,7.601 14.559,7.185 14.985 C 6.828 15.351,6.593 15.499,6.367 15.500 C 6.134 15.500,5.700 15.246,5.269 14.856 C 5.151 14.749,4.995 14.631,4.921 14.594 C 4.766 14.514,4.466 14.487,4.301 14.537 " fill="var(--db-icon-color, currentColor)" stroke="none" fill-rule="evenodd"></path></svg>