<svg id="icon" height="32" viewBox="0 0 32 32" width="32" xmlns="http://www.w3.org/2000/svg"><path d="M15.973 2.245 C 15.161 2.362,14.265 3.033,13.903 3.794 C 13.500 4.643,13.498 5.379,13.897 6.219 C 14.739 7.995,17.160 8.337,18.481 6.868 C 18.777 6.539,19.063 5.956,19.150 5.504 C 19.375 4.339,18.770 3.094,17.709 2.539 C 17.160 2.252,16.592 2.155,15.973 2.245 M16.953 4.043 C 17.432 4.290,17.638 5.000,17.374 5.493 C 17.183 5.849,16.876 6.044,16.466 6.068 C 16.192 6.085,16.091 6.066,15.893 5.960 C 15.236 5.609,15.113 4.737,15.647 4.219 C 15.990 3.887,16.514 3.816,16.953 4.043 M15.413 9.512 C 15.311 9.549,14.483 9.971,13.573 10.450 C 12.664 10.929,11.603 11.487,11.215 11.690 C 10.525 12.052,10.267 12.260,10.214 12.497 C 10.066 13.159,9.600 15.730,9.600 15.887 C 9.600 16.220,9.904 16.582,10.271 16.687 C 10.578 16.775,11.039 16.518,11.229 16.154 C 11.269 16.078,11.414 15.405,11.552 14.660 L 11.802 13.304 13.323 12.518 C 14.160 12.086,14.853 11.742,14.865 11.754 C 14.877 11.766,14.838 12.144,14.779 12.594 C 14.638 13.663,14.434 15.510,14.290 17.018 C 14.120 18.791,13.923 18.420,16.275 20.779 L 18.194 22.704 19.017 25.975 C 19.470 27.774,19.877 29.303,19.923 29.372 C 20.079 29.611,20.316 29.715,20.654 29.693 C 20.918 29.676,20.988 29.647,21.148 29.492 C 21.402 29.246,21.464 28.996,21.368 28.602 C 21.214 27.969,19.844 22.625,19.737 22.240 L 19.626 21.840 17.762 19.973 L 15.898 18.107 15.946 17.729 C 16.105 16.494,16.660 10.825,16.663 10.409 L 16.667 9.912 16.472 9.733 C 16.173 9.459,15.784 9.378,15.413 9.512 M17.943 12.048 C 17.691 12.162,17.581 12.368,17.587 12.718 C 17.592 13.039,17.683 13.187,18.262 13.806 C 18.543 14.106,18.797 14.399,18.829 14.457 C 18.860 14.515,18.986 14.602,19.109 14.650 C 19.233 14.698,19.799 14.973,20.369 15.262 C 21.157 15.661,21.455 15.787,21.614 15.787 C 22.454 15.787,22.790 14.720,22.092 14.272 C 21.983 14.202,21.449 13.913,20.907 13.629 C 19.938 13.123,19.909 13.103,19.328 12.530 L 18.736 11.947 18.448 11.948 C 18.284 11.949,18.067 11.991,17.943 12.048 M13.339 20.960 C 12.976 21.046,12.865 21.240,11.976 23.321 C 11.516 24.400,10.779 26.080,10.340 27.055 C 9.479 28.962,9.436 29.108,9.638 29.454 C 9.780 29.697,10.054 29.867,10.303 29.867 C 10.551 29.867,10.817 29.762,10.951 29.612 C 11.005 29.551,11.439 28.594,11.917 27.484 C 12.394 26.375,13.134 24.687,13.560 23.733 C 13.987 22.780,14.352 21.923,14.372 21.829 C 14.396 21.712,14.375 21.585,14.304 21.425 C 14.142 21.059,13.738 20.864,13.339 20.960 " fill="var(--db-icon-color, currentColor)" stroke="none" fill-rule="evenodd"></path></svg>