<svg id="icon" height="32" viewBox="0 0 32 32" width="32" xmlns="http://www.w3.org/2000/svg"><path d="M11.493 5.120 C 9.171 5.209,9.081 5.217,8.700 5.350 C 7.944 5.614,7.343 6.130,7.024 6.790 C 6.884 7.079,6.658 7.890,6.102 10.093 L 5.366 13.013 4.056 13.015 C 2.895 13.016,2.722 13.027,2.528 13.115 C 2.093 13.312,1.945 13.735,1.985 14.663 C 2.003 15.093,2.035 15.277,2.119 15.440 C 2.357 15.902,2.598 16.000,3.495 16.000 C 3.864 16.000,4.156 16.018,4.143 16.040 C 4.058 16.189,4.513 21.352,4.659 21.893 C 4.699 22.040,4.781 22.280,4.841 22.427 C 4.936 22.658,4.957 22.867,4.996 24.004 C 5.038 25.265,5.045 25.322,5.169 25.502 C 5.320 25.723,5.567 25.903,5.818 25.975 C 6.062 26.045,7.921 26.040,8.177 25.969 C 8.437 25.897,8.789 25.581,8.914 25.307 C 8.987 25.145,9.011 24.960,9.012 24.542 L 9.013 23.992 9.347 24.024 C 9.658 24.054,10.644 24.117,13.280 24.275 C 13.881 24.311,15.192 24.341,16.192 24.342 L 18.010 24.342 18.071 24.638 C 18.288 25.691,19.189 26.621,20.269 26.908 C 20.719 27.028,26.272 27.023,26.739 26.902 C 27.701 26.654,28.488 25.925,28.843 24.954 L 28.987 24.560 29.002 20.292 L 29.017 16.024 29.276 15.932 C 29.594 15.819,29.891 15.504,29.976 15.191 C 30.064 14.862,30.020 13.832,29.908 13.623 C 29.768 13.360,29.484 13.117,29.240 13.052 C 29.068 13.006,29.013 12.965,29.012 12.882 C 29.010 12.636,28.845 12.015,28.702 11.711 C 28.273 10.805,27.332 10.133,26.365 10.043 C 26.034 10.012,26.026 10.008,25.976 9.826 C 25.906 9.572,25.726 9.322,25.502 9.169 C 25.315 9.040,25.310 9.040,23.631 9.024 C 22.704 9.015,21.871 9.022,21.779 9.038 C 21.514 9.087,21.134 9.458,21.048 9.751 L 20.976 10.000 20.644 10.037 C 19.993 10.110,19.364 10.413,18.911 10.871 C 18.391 11.398,18.118 11.934,18.033 12.595 L 18.000 12.857 14.587 12.880 C 12.709 12.893,10.274 12.927,9.175 12.956 C 8.076 12.985,7.167 12.998,7.155 12.986 C 7.143 12.974,7.181 12.777,7.240 12.548 C 7.299 12.320,7.604 11.127,7.917 9.897 C 8.231 8.667,8.519 7.599,8.559 7.524 C 8.653 7.344,8.888 7.128,9.117 7.013 C 9.739 6.699,17.473 6.615,22.000 6.874 C 22.850 6.923,22.967 6.964,23.393 7.363 C 23.689 7.641,23.915 7.718,24.250 7.655 C 24.670 7.576,24.987 7.037,24.861 6.616 C 24.775 6.332,24.353 5.884,23.940 5.639 C 23.354 5.292,23.048 5.225,21.787 5.171 C 17.625 4.991,15.156 4.979,11.493 5.120 M26.472 11.807 C 26.723 11.911,27.027 12.194,27.163 12.448 L 27.280 12.667 27.280 18.480 C 27.280 24.958,27.309 24.454,26.908 24.898 C 26.535 25.311,26.569 25.307,23.493 25.307 C 20.847 25.307,20.767 25.304,20.533 25.195 C 20.243 25.061,19.984 24.812,19.825 24.514 L 19.707 24.293 19.707 18.533 C 19.707 13.104,19.712 12.759,19.803 12.523 C 19.907 12.255,20.223 11.930,20.499 11.810 C 20.747 11.703,26.215 11.699,26.472 11.807 M23.589 14.878 C 23.445 14.966,23.281 15.255,22.589 16.639 C 21.687 18.442,21.653 18.548,21.880 18.880 C 22.071 19.160,22.303 19.253,22.813 19.253 C 23.055 19.253,23.253 19.264,23.253 19.278 C 23.253 19.292,23.023 19.766,22.742 20.331 C 22.299 21.223,22.234 21.387,22.257 21.562 C 22.309 21.958,22.625 22.239,23.019 22.240 C 23.453 22.240,23.517 22.155,24.386 20.426 C 24.820 19.561,25.201 18.761,25.231 18.649 C 25.279 18.473,25.269 18.409,25.163 18.199 C 24.988 17.851,24.788 17.760,24.201 17.760 C 23.944 17.760,23.733 17.748,23.733 17.733 C 23.733 17.718,23.961 17.250,24.240 16.693 C 24.772 15.631,24.812 15.486,24.661 15.169 C 24.485 14.799,23.955 14.655,23.589 14.878 M7.874 17.170 C 8.658 17.260,9.279 17.358,9.368 17.404 C 9.971 17.716,9.980 18.589,9.383 18.893 C 9.142 19.016,8.953 19.012,7.555 18.849 C 6.257 18.698,6.013 18.627,5.808 18.340 C 5.630 18.090,5.628 17.646,5.804 17.399 C 5.937 17.213,6.252 17.019,6.427 17.016 C 6.485 17.015,7.137 17.084,7.874 17.170 M12.852 17.933 C 13.164 18.093,13.275 18.259,13.365 18.699 C 13.406 18.901,13.452 19.121,13.467 19.187 L 13.495 19.307 15.734 19.307 L 17.973 19.307 17.973 20.160 L 17.973 21.013 15.297 21.013 C 12.699 21.013,12.614 21.010,12.392 20.903 C 12.052 20.738,11.960 20.542,11.811 19.669 C 11.655 18.751,11.649 18.484,11.779 18.240 C 11.889 18.036,12.253 17.813,12.477 17.813 C 12.554 17.813,12.723 17.867,12.852 17.933 " fill="var(--db-icon-color, currentColor)" stroke="none" fill-rule="evenodd"></path></svg>