<svg id="icon" height="32" viewBox="0 0 32 32" width="32" xmlns="http://www.w3.org/2000/svg"><path d="M12.133 2.108 C 9.430 2.573,7.230 4.443,6.373 7.005 C 5.979 8.182,6.000 7.633,6.000 16.587 C 6.000 25.497,5.979 24.945,6.353 26.015 C 6.925 27.650,8.307 29.049,9.920 29.626 C 10.447 29.815,11.160 29.971,11.500 29.972 L 11.773 29.973 11.805 29.771 C 11.857 29.446,12.125 29.094,12.440 28.937 C 12.765 28.775,12.918 28.769,13.875 28.889 C 14.857 29.011,17.143 29.011,18.125 28.889 C 19.060 28.772,19.228 28.777,19.553 28.928 C 19.876 29.079,20.100 29.350,20.188 29.697 C 20.246 29.927,20.266 29.948,20.432 29.965 C 20.674 29.990,21.264 29.884,21.787 29.722 C 23.647 29.144,25.144 27.648,25.722 25.787 C 26.009 24.862,26.000 25.171,26.000 16.533 C 26.000 8.978,25.994 8.479,25.903 8.029 C 25.292 5.026,23.179 2.864,20.160 2.154 C 19.802 2.070,19.384 2.059,16.160 2.048 C 13.303 2.038,12.472 2.050,12.133 2.108 M19.993 5.091 C 20.719 5.284,21.375 5.810,21.690 6.453 C 21.905 6.892,21.970 7.176,21.972 7.685 C 21.974 8.435,21.335 19.064,21.274 19.280 C 21.048 20.088,20.405 20.721,19.598 20.932 C 19.125 21.055,12.916 21.053,12.373 20.930 C 11.579 20.749,10.929 20.118,10.699 19.307 C 10.637 19.090,10.539 17.594,10.321 13.570 C 10.011 7.837,9.996 7.424,10.085 7.040 C 10.292 6.141,11.068 5.345,11.983 5.093 C 12.376 4.986,19.589 4.983,19.993 5.091 M13.456 23.979 C 13.889 24.198,14.097 24.523,14.100 24.987 C 14.104 25.510,13.823 25.911,13.339 26.073 C 13.101 26.152,10.983 26.154,10.693 26.074 C 9.918 25.863,9.621 24.885,10.148 24.284 C 10.468 23.921,10.587 23.896,12.016 23.895 C 13.080 23.894,13.313 23.907,13.456 23.979 M21.487 23.997 C 21.761 24.137,22.009 24.431,22.082 24.702 C 22.220 25.213,21.957 25.780,21.479 26.002 C 21.209 26.128,21.160 26.132,20.000 26.132 C 18.840 26.132,18.791 26.128,18.521 26.002 C 17.868 25.698,17.684 24.855,18.148 24.293 C 18.452 23.923,18.580 23.896,20.015 23.895 C 21.168 23.893,21.303 23.903,21.487 23.997 " fill="var(--db-icon-color, currentColor)" stroke="none" fill-rule="evenodd"></path></svg>