<svg id="icon" height="32" viewBox="0 0 32 32" width="32" xmlns="http://www.w3.org/2000/svg"><path d="M9.067 2.106 C 7.129 2.384,5.721 3.142,4.563 4.530 C 3.236 6.121,2.389 8.120,2.160 10.206 C 2.045 11.251,1.964 14.920,2.029 16.139 C 2.114 17.730,2.172 18.247,2.285 18.400 C 2.339 18.473,2.714 19.001,3.117 19.573 C 3.521 20.145,4.027 20.830,4.242 21.096 C 5.080 22.131,6.317 23.202,7.811 24.184 C 8.765 24.812,8.938 24.884,9.720 24.987 L 9.973 25.020 9.971 24.843 C 9.967 24.611,9.838 23.580,9.809 23.553 C 9.797 23.542,9.643 23.460,9.467 23.371 C 9.052 23.161,8.694 22.902,8.332 22.550 C 7.784 22.018,7.783 22.015,7.116 19.947 C 6.675 18.578,6.639 18.341,6.819 17.988 C 7.110 17.417,7.898 17.297,8.367 17.752 C 8.531 17.911,8.600 18.047,8.740 18.496 L 8.912 19.046 9.099 18.883 C 9.379 18.637,9.863 18.413,10.273 18.340 C 10.475 18.304,10.644 18.273,10.649 18.271 C 10.653 18.269,10.816 17.583,11.009 16.747 C 11.203 15.911,11.395 15.128,11.435 15.008 L 11.508 14.789 10.861 14.754 C 10.209 14.719,8.665 14.515,7.973 14.371 C 7.133 14.198,6.346 13.591,5.979 12.835 C 5.676 12.211,5.173 10.023,5.173 9.329 C 5.173 7.722,6.228 6.258,7.842 5.626 C 8.305 5.444,9.120 5.246,9.855 5.137 C 10.763 5.001,13.323 5.001,14.187 5.136 C 15.766 5.384,16.794 5.790,17.499 6.443 C 18.664 7.522,19.026 8.862,18.647 10.693 C 18.520 11.304,18.333 12.049,18.255 12.251 C 18.234 12.307,18.540 12.320,19.836 12.320 C 21.544 12.320,21.737 12.295,21.862 12.061 C 21.935 11.925,21.937 11.033,21.865 10.358 C 21.632 8.171,20.771 6.115,19.409 4.498 C 18.370 3.264,17.173 2.556,15.493 2.182 C 14.986 2.069,14.827 2.062,12.267 2.048 C 10.214 2.037,9.453 2.051,9.067 2.106 M14.560 14.076 C 14.245 14.174,13.831 14.429,13.595 14.672 C 13.161 15.118,13.065 15.390,12.532 17.707 C 12.265 18.865,12.035 19.855,12.020 19.907 C 11.996 19.990,11.911 20.000,11.231 20.000 C 10.526 20.000,10.456 20.009,10.288 20.122 C 10.037 20.291,9.957 20.555,9.989 21.107 C 10.031 21.828,10.200 21.984,10.973 22.018 L 11.477 22.040 11.444 22.261 C 11.404 22.525,11.807 26.081,11.922 26.488 C 11.980 26.692,12.000 27.077,12.001 27.982 C 12.002 29.056,12.014 29.226,12.102 29.420 C 12.302 29.860,12.801 30.069,13.513 30.009 C 14.187 29.953,14.557 29.597,14.603 28.961 L 14.624 28.663 15.459 28.753 C 17.082 28.928,18.128 28.981,20.000 28.981 C 21.874 28.981,22.918 28.928,24.547 28.753 L 25.387 28.662 25.387 28.883 C 25.387 29.544,25.787 29.950,26.495 30.010 C 27.198 30.069,27.699 29.858,27.898 29.420 C 27.986 29.226,27.998 29.055,27.999 27.973 C 28.001 27.053,28.021 26.682,28.079 26.489 C 28.181 26.153,28.542 23.094,28.550 22.499 L 28.557 22.038 29.044 22.017 C 29.806 21.984,29.971 21.824,30.013 21.079 C 30.045 20.521,29.963 20.270,29.697 20.108 C 29.541 20.013,29.428 20.000,28.764 20.000 C 28.089 20.000,28.004 19.990,27.980 19.907 C 27.966 19.855,27.734 18.868,27.467 17.713 C 27.199 16.558,26.942 15.514,26.895 15.393 C 26.776 15.090,26.477 14.642,26.281 14.478 C 26.191 14.402,25.996 14.276,25.846 14.197 L 25.573 14.053 20.133 14.044 C 17.141 14.039,14.633 14.053,14.560 14.076 M25.077 15.759 C 25.126 15.779,25.206 15.855,25.253 15.927 C 25.316 16.024,26.240 19.814,26.240 19.976 C 26.240 19.989,23.432 20.000,20.000 20.000 C 16.568 20.000,13.760 19.987,13.760 19.971 C 13.760 19.823,14.697 16.001,14.752 15.922 C 14.932 15.666,14.748 15.674,20.027 15.699 C 22.755 15.712,25.027 15.739,25.077 15.759 M3.147 22.957 C 3.147 22.994,3.267 23.466,3.414 24.006 C 3.613 24.738,3.755 25.136,3.972 25.573 C 4.265 26.166,4.814 27.029,5.168 27.457 C 5.466 27.818,6.088 28.292,6.584 28.538 C 7.011 28.750,7.033 28.769,7.005 28.909 C 6.939 29.238,7.190 29.695,7.538 29.881 C 7.748 29.993,7.823 30.000,8.898 30.000 L 10.035 30.000 10.197 29.819 C 10.346 29.652,10.357 29.615,10.327 29.365 C 10.309 29.216,10.294 28.611,10.294 28.022 L 10.293 26.950 9.587 26.915 C 8.395 26.855,8.058 26.737,6.907 25.973 C 5.486 25.031,4.288 24.077,3.507 23.265 C 3.309 23.059,3.147 22.921,3.147 22.957 M14.297 23.151 C 15.222 23.336,15.453 23.445,15.626 23.785 C 15.918 24.359,15.617 25.041,14.999 25.201 C 14.764 25.262,14.663 25.254,13.943 25.110 C 13.046 24.932,12.813 24.819,12.641 24.482 C 12.427 24.062,12.547 23.456,12.894 23.209 C 13.016 23.122,13.283 23.017,13.444 22.991 C 13.461 22.989,13.845 23.061,14.297 23.151 M26.747 23.046 C 27.046 23.129,27.238 23.280,27.367 23.534 C 27.594 23.979,27.451 24.563,27.052 24.822 C 26.914 24.912,26.610 25.000,26.057 25.110 C 25.337 25.254,25.236 25.262,25.001 25.201 C 24.386 25.042,24.082 24.359,24.372 23.789 C 24.546 23.448,24.740 23.352,25.627 23.165 C 26.583 22.963,26.485 22.974,26.747 23.046 M22.481 23.883 C 22.599 23.950,22.749 24.084,22.814 24.179 C 22.961 24.393,23.272 25.850,23.234 26.150 C 23.176 26.618,22.746 26.983,22.248 26.985 C 21.757 26.988,21.387 26.658,21.269 26.111 L 21.199 25.787 19.991 25.772 L 18.783 25.758 18.746 25.986 C 18.688 26.348,18.535 26.639,18.317 26.806 C 18.138 26.943,18.072 26.960,17.733 26.960 C 17.397 26.960,17.328 26.942,17.155 26.810 C 16.913 26.625,16.746 26.310,16.749 26.042 C 16.750 25.931,16.818 25.513,16.900 25.113 C 17.162 23.835,17.177 23.825,18.827 23.782 C 19.487 23.766,20.531 23.754,21.147 23.756 C 22.214 23.760,22.277 23.766,22.481 23.883 " fill="var(--db-icon-color, currentColor)" stroke="none" fill-rule="evenodd"></path></svg>