<svg id="icon" height="32" viewBox="0 0 32 32" width="32" xmlns="http://www.w3.org/2000/svg"><path d="M16.133 11.129 C 15.276 11.228,9.753 12.181,9.603 12.255 C 9.215 12.449,9.101 12.781,9.216 13.387 C 9.323 13.953,9.276 14.947,9.120 15.440 C 8.989 15.851,8.708 16.439,8.553 16.626 C 8.464 16.733,8.218 16.787,6.321 17.120 C 5.148 17.325,4.104 17.520,4.001 17.554 C 3.625 17.675,3.279 17.886,2.971 18.180 C 2.620 18.514,2.457 18.764,2.283 19.231 C 2.173 19.529,2.165 19.649,2.147 21.413 C 2.128 23.274,2.128 23.281,2.251 23.520 C 2.553 24.111,3.312 24.148,4.323 23.622 C 4.781 23.384,5.618 22.713,5.994 22.283 L 6.236 22.006 6.785 22.539 C 7.617 23.346,8.222 23.738,8.925 23.925 C 9.929 24.193,11.039 23.721,12.261 22.507 L 12.756 22.015 13.298 22.545 C 15.283 24.485,16.717 24.485,18.703 22.544 L 19.246 22.014 19.691 22.462 C 20.480 23.259,21.303 23.784,22.018 23.948 C 22.451 24.047,23.060 23.993,23.413 23.824 C 24.072 23.509,23.980 23.640,27.470 18.053 C 29.800 14.323,29.835 14.263,29.836 13.988 C 29.836 13.790,29.805 13.667,29.727 13.561 C 29.546 13.318,29.289 13.173,29.036 13.173 C 28.911 13.173,27.157 13.464,25.138 13.818 L 21.467 14.463 21.360 14.316 C 20.564 13.215,19.875 12.485,19.184 12.009 C 18.682 11.664,18.014 11.348,17.547 11.234 C 17.168 11.142,16.471 11.090,16.133 11.129 M17.083 12.879 C 17.545 12.977,18.074 13.262,18.558 13.675 C 18.980 14.035,19.590 14.727,19.531 14.779 C 19.510 14.797,17.537 15.153,15.147 15.570 C 12.756 15.986,10.754 16.340,10.699 16.356 C 10.617 16.380,10.605 16.366,10.636 16.286 C 10.822 15.811,10.952 15.112,10.981 14.427 L 11.013 13.682 13.653 13.247 C 15.105 13.008,16.389 12.810,16.507 12.807 C 16.624 12.804,16.883 12.836,17.083 12.879 M25.439 16.352 C 25.677 16.567,25.788 16.867,25.731 17.138 C 25.682 17.367,25.465 17.644,25.261 17.736 C 25.091 17.813,9.150 20.320,8.830 20.320 C 8.468 20.320,8.104 19.945,8.070 19.537 C 8.043 19.215,8.211 18.898,8.481 18.756 C 8.697 18.643,24.339 16.174,24.893 16.165 C 25.204 16.160,25.241 16.173,25.439 16.352 M25.680 24.234 C 25.592 24.273,25.364 24.467,25.173 24.666 C 24.564 25.301,23.823 25.803,23.153 26.034 C 22.522 26.251,21.667 26.109,20.914 25.662 C 20.569 25.456,20.049 25.035,19.907 24.844 C 19.768 24.659,19.466 24.521,19.200 24.521 C 18.911 24.521,18.688 24.632,18.427 24.907 C 18.022 25.332,17.114 25.896,16.590 26.049 C 15.693 26.310,14.688 25.927,13.480 24.862 C 12.964 24.407,12.628 24.390,12.136 24.793 C 11.256 25.514,10.580 25.929,10.053 26.074 C 9.245 26.296,8.169 25.912,6.990 24.979 C 6.464 24.564,6.387 24.524,6.107 24.524 C 5.812 24.524,5.709 24.582,5.253 24.998 C 4.794 25.418,4.409 25.678,4.005 25.842 C 3.663 25.981,2.918 26.187,2.756 26.187 C 2.699 26.187,2.551 26.289,2.426 26.413 C 2.123 26.717,2.071 26.991,2.248 27.345 C 2.451 27.748,2.585 27.814,3.191 27.808 C 3.603 27.804,3.793 27.774,4.133 27.658 C 4.671 27.476,5.219 27.182,5.732 26.803 C 5.952 26.640,6.141 26.507,6.151 26.507 C 6.162 26.507,6.370 26.641,6.615 26.804 C 7.185 27.186,7.668 27.428,8.282 27.639 C 8.733 27.795,8.830 27.809,9.467 27.811 C 10.050 27.813,10.223 27.793,10.560 27.688 C 11.133 27.508,11.674 27.239,12.259 26.842 C 12.579 26.625,12.792 26.512,12.829 26.541 C 13.221 26.845,14.073 27.357,14.430 27.502 C 15.091 27.772,15.551 27.856,16.187 27.823 C 17.135 27.774,18.036 27.395,19.040 26.620 L 19.173 26.517 19.554 26.796 C 20.050 27.160,20.662 27.474,21.227 27.654 C 21.819 27.843,22.729 27.893,23.266 27.766 C 24.096 27.571,24.990 27.106,25.670 26.516 C 25.811 26.394,25.944 26.293,25.965 26.293 C 25.987 26.293,26.111 26.403,26.242 26.537 C 27.021 27.336,28.184 27.881,28.996 27.830 C 29.399 27.804,29.575 27.694,29.750 27.357 C 30.039 26.801,29.698 26.281,28.950 26.137 C 28.218 25.996,27.533 25.524,26.849 24.689 C 26.432 24.179,26.101 24.050,25.680 24.234 " fill="var(--db-icon-color, currentColor)" stroke="none" fill-rule="evenodd"></path></svg>