<svg id="icon" height="32" viewBox="0 0 32 32" width="32" xmlns="http://www.w3.org/2000/svg"><path d="M13.067 2.106 C 11.129 2.384,9.721 3.142,8.563 4.530 C 7.238 6.118,6.389 8.124,6.160 10.206 C 6.047 11.231,5.965 14.957,6.028 16.160 C 6.110 17.709,6.172 18.247,6.285 18.400 C 6.339 18.473,6.714 19.001,7.117 19.573 C 8.056 20.903,8.493 21.438,9.209 22.138 C 10.025 22.936,10.926 23.629,12.187 24.428 C 13.074 24.990,12.993 24.977,15.644 25.001 C 18.694 25.029,18.913 24.998,19.867 24.392 C 21.486 23.365,22.675 22.363,23.646 21.207 C 24.265 20.471,25.562 18.717,25.757 18.352 C 25.828 18.219,25.907 17.480,25.973 16.320 C 26.031 15.311,25.961 11.496,25.865 10.415 C 25.607 7.511,24.014 4.558,21.968 3.193 C 21.246 2.711,20.496 2.405,19.493 2.182 C 18.986 2.069,18.827 2.062,16.267 2.048 C 14.214 2.037,13.453 2.051,13.067 2.106 M18.240 5.144 C 19.305 5.311,20.302 5.627,20.935 5.998 C 21.276 6.198,21.841 6.742,22.092 7.111 C 22.813 8.173,22.960 9.196,22.622 10.806 C 22.219 12.722,21.832 13.461,20.939 14.020 C 20.540 14.270,20.124 14.381,18.933 14.555 C 17.429 14.776,16.304 14.840,15.116 14.772 C 14.052 14.711,12.212 14.456,11.678 14.295 C 10.982 14.086,10.312 13.506,9.975 12.822 C 9.683 12.229,9.171 9.999,9.175 9.337 C 9.185 7.702,10.221 6.261,11.842 5.626 C 12.488 5.373,13.602 5.145,14.667 5.047 C 15.259 4.993,17.698 5.060,18.240 5.144 M11.973 17.519 C 12.156 17.560,12.454 17.771,12.530 17.914 C 12.558 17.967,12.802 18.692,13.072 19.525 C 13.585 21.110,13.636 21.381,13.475 21.690 C 13.242 22.138,12.653 22.358,12.197 22.168 C 11.923 22.053,11.706 21.759,11.556 21.298 C 10.611 18.395,10.611 18.396,10.819 17.988 C 10.881 17.867,11.001 17.719,11.087 17.658 C 11.249 17.543,11.596 17.440,11.733 17.468 C 11.777 17.476,11.885 17.500,11.973 17.519 M20.639 17.600 C 20.959 17.763,21.136 18.032,21.163 18.394 C 21.182 18.663,21.129 18.867,20.695 20.204 C 20.172 21.816,20.073 22.010,19.696 22.168 C 19.304 22.332,18.796 22.189,18.530 21.841 C 18.415 21.690,18.374 21.569,18.357 21.331 C 18.337 21.050,18.384 20.867,18.826 19.509 C 19.097 18.679,19.364 17.937,19.419 17.859 C 19.657 17.525,20.246 17.399,20.639 17.600 M7.288 23.554 C 7.692 25.079,7.854 25.480,8.464 26.465 C 9.107 27.506,9.751 28.136,10.583 28.540 L 11.006 28.746 11.010 29.000 C 11.016 29.358,11.182 29.646,11.494 29.840 L 11.752 30.000 15.996 30.000 L 20.240 30.000 20.462 29.881 C 20.811 29.695,21.061 29.238,20.995 28.907 C 20.967 28.767,20.984 28.749,21.259 28.638 C 21.678 28.468,22.153 28.148,22.550 27.768 C 23.046 27.294,23.935 25.937,24.215 25.227 C 24.321 24.955,24.853 23.074,24.853 22.967 C 24.853 22.941,24.546 23.217,24.171 23.580 C 23.397 24.330,22.537 25.011,21.384 25.790 C 20.054 26.688,19.634 26.848,18.386 26.934 C 17.434 27.000,14.668 26.998,13.680 26.931 C 12.348 26.840,12.048 26.737,10.902 25.972 C 9.445 25.000,8.566 24.304,7.620 23.373 L 7.107 22.869 7.288 23.554 " fill="var(--db-icon-color, currentColor)" stroke="none" fill-rule="evenodd"></path></svg>