<svg id="icon" height="24" viewBox="0 0 24 24" width="24" xmlns="http://www.w3.org/2000/svg"><path d="M17.778 3.874 C 17.117 4.010,16.580 4.142,16.470 4.195 C 16.183 4.334,15.898 4.671,15.801 4.986 C 15.756 5.131,15.720 5.291,15.720 5.344 C 15.720 5.396,15.962 6.812,16.257 8.490 C 16.553 10.167,16.800 11.587,16.807 11.645 C 16.819 11.738,16.768 11.788,16.380 12.071 C 15.180 12.942,14.321 13.842,13.913 14.653 C 13.597 15.282,13.366 16.037,13.248 16.823 L 13.176 17.300 10.454 17.310 L 7.731 17.321 7.660 17.130 C 7.387 16.396,6.678 15.717,5.910 15.453 C 5.609 15.350,5.530 15.340,5.020 15.340 C 4.510 15.340,4.428 15.350,4.106 15.456 C 3.263 15.732,2.572 16.424,2.295 17.268 C 2.191 17.588,2.180 17.670,2.182 18.160 C 2.184 18.636,2.197 18.738,2.291 19.020 C 2.443 19.474,2.654 19.814,3.001 20.160 C 3.353 20.511,3.627 20.682,4.110 20.854 C 4.436 20.969,4.498 20.978,5.000 20.978 C 5.502 20.978,5.564 20.969,5.890 20.854 C 6.083 20.785,6.341 20.669,6.464 20.595 C 6.957 20.297,7.410 19.774,7.619 19.259 L 7.716 19.020 10.988 19.000 C 14.628 18.978,14.372 18.999,14.632 18.703 C 14.796 18.516,14.830 18.373,14.880 17.659 C 14.926 16.997,15.045 16.406,15.239 15.873 C 15.508 15.134,15.930 14.611,16.912 13.803 C 17.031 13.705,17.139 13.644,17.157 13.664 C 17.175 13.684,17.265 14.123,17.357 14.640 C 17.449 15.157,17.532 15.607,17.542 15.640 C 17.553 15.678,17.496 15.740,17.388 15.808 C 17.174 15.943,16.795 16.325,16.617 16.584 C 16.452 16.823,16.264 17.293,16.198 17.630 C 16.169 17.781,16.158 18.043,16.170 18.290 C 16.207 19.038,16.470 19.630,17.001 20.160 C 17.353 20.511,17.627 20.682,18.110 20.854 C 18.436 20.969,18.498 20.978,19.000 20.978 C 19.502 20.978,19.564 20.969,19.890 20.854 C 20.373 20.682,20.647 20.511,20.999 20.160 C 21.530 19.630,21.793 19.038,21.830 18.290 C 21.853 17.826,21.805 17.510,21.651 17.120 C 21.283 16.188,20.376 15.465,19.416 15.338 L 19.212 15.311 19.040 14.346 C 18.945 13.815,18.558 11.652,18.180 9.540 C 17.571 6.143,17.499 5.697,17.556 5.672 C 17.591 5.656,17.986 5.571,18.434 5.482 C 19.334 5.304,19.512 5.233,19.687 4.980 C 20.058 4.444,19.727 3.729,19.078 3.662 C 18.957 3.650,18.541 3.718,17.778 3.874 M3.600 11.409 C 3.092 11.683,3.008 12.385,3.437 12.773 C 3.630 12.947,3.764 12.987,4.258 13.018 C 5.521 13.097,6.634 13.650,7.200 14.479 C 7.461 14.861,7.679 15.001,8.009 14.999 C 8.631 14.996,9.037 14.302,8.741 13.745 C 8.388 13.082,7.578 12.350,6.752 11.948 C 5.940 11.553,5.217 11.369,4.340 11.334 C 3.802 11.313,3.773 11.316,3.600 11.409 M5.347 17.060 C 5.604 17.136,5.892 17.388,6.028 17.655 C 6.165 17.924,6.176 18.331,6.054 18.602 C 5.782 19.204,5.083 19.467,4.505 19.184 C 4.090 18.981,3.863 18.611,3.866 18.140 C 3.868 17.790,3.992 17.524,4.264 17.284 C 4.566 17.019,4.945 16.941,5.347 17.060 M19.347 17.060 C 19.604 17.136,19.892 17.388,20.028 17.655 C 20.165 17.924,20.176 18.331,20.054 18.602 C 19.782 19.204,19.083 19.467,18.505 19.184 C 18.090 18.981,17.863 18.611,17.866 18.140 C 17.868 17.790,17.992 17.524,18.264 17.284 C 18.566 17.019,18.945 16.941,19.347 17.060 " fill="var(--db-icon-color, currentColor)" stroke="none" fill-rule="evenodd"></path></svg>