<svg width="16" height="16" viewBox="0 0 16 16" fill="none" xmlns="http://www.w3.org/2000/svg">
<g clip-path="url(#clip0_3479_131)">
<path fill-rule="evenodd" clip-rule="evenodd" d="M3.23701 12.38C3.75201 12.38 4.06501 11.943 4.06501 11.615C4.06501 11.24 3.47101 10.335 3.47101 9.31899C3.47101 7.16399 5.11101 5.54 7.11001 5.353L6.56301 5.868C6.43801 6.024 6.32901 6.22799 6.32901 6.43C6.32901 6.836 6.70401 7.196 7.12501 7.196C7.33811 7.19837 7.54384 7.11808 7.69901 6.972L9.44101 5.216C9.58305 5.06223 9.65979 4.85928 9.65501 4.65C9.65537 4.55387 9.63624 4.45868 9.59877 4.37016C9.5613 4.28164 9.50627 4.20164 9.43701 4.13499L7.67101 2.355C7.60067 2.28087 7.516 2.22182 7.42214 2.18142C7.32828 2.14102 7.22719 2.12012 7.12501 2.12C6.91422 2.12105 6.71237 2.20525 6.56331 2.3543C6.41426 2.50335 6.33006 2.70521 6.32901 2.916C6.32901 3.119 6.40701 3.306 6.56301 3.463L6.92301 3.823C5.55412 3.94914 4.28201 4.58307 3.35704 5.60003C2.43206 6.61698 1.92121 7.94331 1.92501 9.318C1.92501 10.428 2.34701 12.38 3.23701 12.38Z" fill="#1A1C1F"/>
</g>
<defs>
<clipPath id="clip0_3479_131">
<rect width="16" height="16" fill="white"/>
</clipPath>
</defs>
</svg>
