<svg width="12" height="12" viewBox="0 0 12 12" fill="none" xmlns="http://www.w3.org/2000/svg">
<g clip-path="url(#clip0_2202_152)">
<path fill-rule="evenodd" clip-rule="evenodd" d="M2.10941 6.98789L4.71941 8.78789C4.89971 8.91203 5.11047 8.98462 5.32898 8.99783C5.54748 9.01105 5.76546 8.96439 5.95941 8.86289C6.15319 8.76111 6.31544 8.60826 6.4286 8.42089C6.54177 8.23353 6.60152 8.01878 6.60141 7.79989V7.45689L8.53141 8.78789C8.71168 8.91077 8.922 8.98227 9.13981 8.99473C9.35763 9.00718 9.57472 8.96011 9.76783 8.85858C9.96093 8.75704 10.1228 8.60486 10.236 8.41836C10.3492 8.23186 10.4095 8.01806 10.4104 7.79989V4.19989C10.4103 3.98128 10.3504 3.76686 10.2373 3.57979C10.1242 3.39271 9.96217 3.24008 9.76865 3.13838C9.57514 3.03669 9.35752 2.98978 9.1393 3.00274C8.92107 3.01569 8.71053 3.08801 8.53041 3.21189L6.60041 4.54189V4.19989C6.6004 3.98112 6.54058 3.76651 6.42743 3.57928C6.31428 3.39204 6.1521 3.2393 5.95842 3.13757C5.76474 3.03584 5.54694 2.98899 5.32856 3.00209C5.11018 3.01519 4.89954 3.08774 4.71941 3.21189L2.10841 5.01189C1.94835 5.12222 1.8175 5.26979 1.7271 5.4419C1.63671 5.614 1.58948 5.80549 1.58948 5.99989C1.58948 6.19429 1.63671 6.38578 1.7271 6.55789C1.8175 6.72999 1.94835 6.87756 2.10841 6.98789H2.10941Z" fill="#1A1C1F"/>
</g>
<defs>
<clipPath id="clip0_2202_152">
<rect width="12" height="12" fill="white"/>
</clipPath>
</defs>
</svg>
