<svg width="24" height="24" viewBox="0 0 24 24" fill="none" xmlns="http://www.w3.org/2000/svg">
<g clip-path="url(#clip0_2202_328)">
<path fill-rule="evenodd" clip-rule="evenodd" d="M14.1349 6.35255C13.8345 6.14634 13.4835 6.02603 13.1198 6.00457C12.756 5.98312 12.3933 6.06133 12.0708 6.23079C11.7482 6.40025 11.478 6.65453 11.2893 6.96622C11.1006 7.27791 11.0005 7.63519 10.9999 7.99955V9.57055L6.33288 6.35255C6.03248 6.14634 5.68149 6.02603 5.31776 6.00457C4.95403 5.98312 4.59134 6.06133 4.26878 6.23079C3.94622 6.40025 3.67602 6.65453 3.48731 6.96622C3.29859 7.27791 3.19852 7.63519 3.19788 7.99955V15.9996C3.19818 16.3641 3.29804 16.7216 3.48667 17.0335C3.67531 17.3454 3.94556 17.5998 4.26824 17.7693C4.59093 17.9388 4.95379 18.017 5.31765 17.9954C5.68151 17.9737 6.03256 17.8531 6.33288 17.6466L10.9999 14.4286V15.9996C11.0002 16.3641 11.1 16.7216 11.2887 17.0335C11.4773 17.3454 11.7476 17.5998 12.0702 17.7693C12.3929 17.9388 12.7558 18.017 13.1197 17.9954C13.4835 17.9737 13.8346 17.8531 14.1349 17.6466L19.9369 13.6466C20.2038 13.4627 20.422 13.2167 20.5727 12.9298C20.7235 12.6429 20.8022 12.3237 20.8022 11.9996C20.8022 11.6755 20.7235 11.3562 20.5727 11.0693C20.422 10.7824 20.2038 10.5364 19.9369 10.3526L14.1349 6.35255Z" fill="#1A1C1F"/>
</g>
<defs>
<clipPath id="clip0_2202_328">
<rect width="24" height="24" fill="white"/>
</clipPath>
</defs>
</svg>
