<svg width="28" height="28" viewBox="0 0 28 28" fill="none" xmlns="http://www.w3.org/2000/svg">
<g clip-path="url(#clip0_2202_325)">
<path fill-rule="evenodd" clip-rule="evenodd" d="M15.8115 7.51167C15.5566 7.33644 15.2588 7.23415 14.95 7.21585C14.6412 7.19754 14.3334 7.26392 14.0596 7.40781C13.7858 7.55171 13.5565 7.76765 13.3965 8.03233C13.2364 8.29701 13.1517 8.60037 13.1515 8.90967V11.9397L6.72952 7.51167C6.47466 7.33646 6.17684 7.23409 5.86812 7.21558C5.5594 7.19708 5.25148 7.26315 4.97752 7.40667C4.70357 7.55066 4.47418 7.76679 4.31415 8.03169C4.15411 8.29658 4.06952 8.60018 4.06952 8.90967V19.0917C4.06992 19.4009 4.15475 19.7041 4.31485 19.9687C4.47495 20.2332 4.70425 20.449 4.97801 20.5928C5.25176 20.7365 5.55958 20.8028 5.86825 20.7845C6.17692 20.7661 6.47472 20.6639 6.72952 20.4887L13.1515 16.0617V19.0917C13.1519 19.4009 13.2367 19.7041 13.3969 19.9687C13.557 20.2332 13.7863 20.449 14.06 20.5928C14.3338 20.7365 14.6416 20.8028 14.9503 20.7845C15.2589 20.7661 15.5567 20.6639 15.8115 20.4887L23.1955 15.3987C23.4222 15.2427 23.6075 15.0339 23.7356 14.7904C23.8636 14.5469 23.9305 14.2758 23.9305 14.0007C23.9305 13.7255 23.8636 13.4545 23.7356 13.2109C23.6075 12.9674 23.4222 12.7586 23.1955 12.6027L15.8115 7.51167Z" fill="#1A1C1F"/>
</g>
<defs>
<clipPath id="clip0_2202_325">
<rect width="28" height="28" fill="white"/>
</clipPath>
</defs>
</svg>
