<svg width="12" height="12" viewBox="0 0 12 12" fill="none" xmlns="http://www.w3.org/2000/svg">
<g clip-path="url(#clip0_3479_137)">
<path fill-rule="evenodd" clip-rule="evenodd" d="M2.4155 9.2965C2.8035 9.2965 3.0385 8.9665 3.0385 8.7205C3.0385 8.4385 2.5915 7.7565 2.5915 6.9935C2.5915 5.3715 3.8255 4.1495 5.3305 4.0085L4.9185 4.3955C4.8245 4.5135 4.7425 4.6655 4.7425 4.8185C4.7425 5.1245 5.0245 5.3945 5.3425 5.3945C5.50211 5.39594 5.65613 5.33577 5.7725 5.2265L7.0845 3.9055C7.19142 3.78978 7.24915 3.63701 7.2455 3.4795C7.24584 3.4071 7.23148 3.33537 7.20329 3.26868C7.1751 3.20199 7.13367 3.14171 7.0815 3.0915L5.7525 1.7515C5.69961 1.69596 5.63601 1.65173 5.56554 1.62148C5.49506 1.59123 5.41919 1.57558 5.3425 1.5755C5.0125 1.5755 4.7425 1.8455 4.7425 2.1755C4.74275 2.25216 4.75847 2.32799 4.78871 2.39844C4.81895 2.46888 4.86309 2.53251 4.9185 2.5855L5.1885 2.8555C4.15798 2.95048 3.2004 3.42798 2.50444 4.1939C1.80849 4.95982 1.42463 5.95862 1.4285 6.9935C1.4285 7.8275 1.7455 9.2965 2.4155 9.2965Z" fill="#1A1C1F"/>
</g>
<defs>
<clipPath id="clip0_3479_137">
<rect width="12" height="12" fill="white"/>
</clipPath>
</defs>
</svg>
