<svg width="20" height="20" viewBox="0 0 20 20" fill="none" xmlns="http://www.w3.org/2000/svg">
<g clip-path="url(#clip0_3479_106)">
<path fill-rule="evenodd" clip-rule="evenodd" d="M15.6915 15.4745C15.0475 15.4745 14.6575 14.9285 14.6575 14.5185C14.6575 14.0495 15.3985 12.9185 15.3985 11.6485C15.3985 8.9545 13.3485 6.92451 10.8505 6.69051L11.5335 7.33451C11.6895 7.52951 11.8265 7.78351 11.8265 8.03751C11.8265 8.54451 11.3585 8.99351 10.8305 8.99351C10.5649 8.99662 10.3084 8.89702 10.1145 8.71551L7.93648 6.51951C7.75856 6.32729 7.66244 6.07336 7.66848 5.81151C7.66813 5.69129 7.69214 5.57225 7.73906 5.46156C7.78598 5.35088 7.85484 5.25085 7.94148 5.16751L10.1485 2.94251C10.2364 2.85002 10.3422 2.77637 10.4594 2.726C10.5766 2.67563 10.7029 2.64961 10.8305 2.64951C11.0941 2.65056 11.3467 2.75569 11.5332 2.94204C11.7198 3.12838 11.8252 3.38085 11.8265 3.64451C11.8264 3.77239 11.8003 3.89893 11.75 4.01649C11.6996 4.13405 11.626 4.24019 11.5335 4.32851L11.0845 4.77751C12.796 4.93518 14.3864 5.72791 15.5426 6.9996C16.6988 8.2713 17.337 9.92979 17.3315 11.6485L17.3235 11.9605C17.2535 13.3705 16.7245 15.4745 15.6915 15.4745Z" fill="#1A1C1F"/>
</g>
<defs>
<clipPath id="clip0_3479_106">
<rect width="20" height="20" fill="white"/>
</clipPath>
</defs>
</svg>
