<svg width="14" height="14" viewBox="0 0 14 14" fill="none" xmlns="http://www.w3.org/2000/svg">
<g clip-path="url(#clip0_2202_149)">
<path fill-rule="evenodd" clip-rule="evenodd" d="M2.45993 8.15326L5.50493 10.2533C5.71524 10.3979 5.96103 10.4825 6.21583 10.4978C6.47064 10.5131 6.72479 10.4587 6.95093 10.3403C7.17717 10.2217 7.36665 10.0434 7.49886 9.82485C7.63106 9.60628 7.70094 9.3557 7.70093 9.10026V8.70026L9.95093 10.2533C10.1613 10.3978 10.4071 10.4822 10.6619 10.4973C10.9166 10.5124 11.1707 10.4577 11.3967 10.3391C11.6226 10.2204 11.8119 10.0423 11.9441 9.82404C12.0764 9.60573 12.1465 9.35548 12.1469 9.10026V4.90026C12.1469 4.64508 12.0772 4.39475 11.9452 4.17634C11.8132 3.95793 11.6241 3.77974 11.3982 3.66103C11.1723 3.54232 10.9183 3.48761 10.6636 3.50281C10.4088 3.518 10.1631 3.60253 9.95293 3.74726L7.69993 5.30026V4.90026C7.70004 4.64491 7.63032 4.39441 7.49831 4.17584C7.3663 3.95727 7.17703 3.77896 6.95097 3.66022C6.72492 3.54148 6.4707 3.48682 6.21582 3.50216C5.96094 3.5175 5.71511 3.60226 5.50493 3.74726L2.45893 5.84726C2.27206 5.97596 2.11928 6.14815 2.01373 6.349C1.90818 6.54986 1.85303 6.77336 1.85303 7.00026C1.85303 7.22716 1.90818 7.45065 2.01373 7.65151C2.11928 7.85236 2.27206 8.02456 2.45893 8.15326H2.45993Z" fill="#1A1C1F"/>
</g>
<defs>
<clipPath id="clip0_2202_149">
<rect width="14" height="14" fill="white"/>
</clipPath>
</defs>
</svg>
