<svg width="32" height="32" viewBox="0 0 32 32" fill="none" xmlns="http://www.w3.org/2000/svg">
<g clip-path="url(#clip0_2202_322)">
<path fill-rule="evenodd" clip-rule="evenodd" d="M18.1348 8.35324C17.8344 8.14703 17.4834 8.02672 17.1197 8.00526C16.756 7.98381 16.3933 8.06202 16.0707 8.23148C15.7482 8.40094 15.478 8.65522 15.2892 8.96691C15.1005 9.2786 15.0005 9.63587 14.9998 10.0002V13.5712L7.43181 8.35324C7.13148 8.14661 6.78045 8.02587 6.41656 8.00401C6.05267 7.98216 5.68971 8.06004 5.36681 8.22924C5.04401 8.39891 4.77372 8.65357 4.58514 8.9657C4.39655 9.27783 4.29686 9.63556 4.29681 10.0002V22.0002C4.29711 22.3647 4.39697 22.7222 4.58561 23.0341C4.77425 23.346 5.0445 23.6005 5.36718 23.77C5.68987 23.9395 6.05273 24.0177 6.41659 23.9961C6.78045 23.9744 7.13149 23.8538 7.43181 23.6472L14.9998 18.4292V22.0002C15.0001 22.3647 15.1 22.7222 15.2886 23.0341C15.4772 23.346 15.7475 23.6005 16.0702 23.77C16.3929 23.9395 16.7557 24.0177 17.1196 23.9961C17.4835 23.9744 17.8345 23.8538 18.1348 23.6472L26.8378 17.6472C27.1047 17.4634 27.3229 17.2174 27.4737 16.9305C27.6244 16.6436 27.7032 16.3243 27.7032 16.0002C27.7032 15.6761 27.6244 15.3569 27.4737 15.07C27.3229 14.7831 27.1047 14.5371 26.8378 14.3532L18.1348 8.35324Z" fill="#1A1C1F"/>
</g>
<defs>
<clipPath id="clip0_2202_322">
<rect width="32" height="32" fill="white"/>
</clipPath>
</defs>
</svg>
