<svg width="32" height="32" viewBox="0 0 32 32" fill="none" xmlns="http://www.w3.org/2000/svg">
<g clip-path="url(#clip0_3479_119)">
<path fill-rule="evenodd" clip-rule="evenodd" d="M4 18.9893C4 12.8793 9.026 7.95926 15.146 8.02326L13.826 6.70526C13.7334 6.61215 13.6601 6.50168 13.6104 6.38018C13.5606 6.25868 13.5353 6.12855 13.536 5.99726C13.536 5.41826 13.986 5.00026 14.534 5.00026C14.6654 4.99963 14.7957 5.02492 14.9174 5.07468C15.039 5.12444 15.1497 5.19769 15.243 5.29026L18.4 8.43926C18.593 8.63226 18.69 8.88926 18.69 9.14726C18.6907 9.27855 18.6654 9.40868 18.6156 9.53018C18.5659 9.65168 18.4926 9.76215 18.4 9.85526L15.243 13.0073C15.1497 13.0998 15.039 13.1731 14.9174 13.2228C14.7957 13.2726 14.6654 13.2979 14.534 13.2973C14.4024 13.2993 14.2717 13.2748 14.1497 13.2254C14.0277 13.176 13.9169 13.1025 13.8238 13.0095C13.7307 12.9164 13.6573 12.8056 13.6078 12.6836C13.5584 12.5616 13.534 12.4309 13.536 12.2993C13.536 12.0423 13.632 11.7843 13.826 11.5913L15.404 10.0153C10.411 9.79026 5.997 13.7783 5.997 18.9573C5.99345 21.1347 6.78379 23.2387 8.22 24.8753C8.36968 25.0557 8.44985 25.2838 8.446 25.5183C8.446 26.0973 8.026 26.5483 7.446 26.5483C7.157 26.5483 6.867 26.4183 6.706 26.1933C4.934 24.2003 4 21.6263 4 18.9893Z" fill="#1A1C1F"/>
</g>
<defs>
<clipPath id="clip0_3479_119">
<rect width="32" height="32" fill="white"/>
</clipPath>
</defs>
</svg>
