<svg width="64" height="64" viewBox="0 0 64 64" fill="none" xmlns="http://www.w3.org/2000/svg">
<g clip-path="url(#clip0_2202_70)">
<path fill-rule="evenodd" clip-rule="evenodd" d="M52.3582 16C52.7522 15.9997 53.1423 16.0771 53.5064 16.2278C53.8704 16.3785 54.2012 16.5995 54.4797 16.8781C54.7583 17.1568 54.9791 17.4876 55.1297 17.8517C55.2803 18.2158 55.3576 18.606 55.3572 19V45C55.3571 45.5468 55.2075 46.0832 54.9247 46.5513C54.6418 47.0193 54.2364 47.4011 53.7523 47.6554C53.2682 47.9097 52.7238 48.0268 52.1779 47.9942C51.632 47.9615 51.1055 47.7802 50.6552 47.47L33.5002 35.644V45C33.5002 45.547 33.3507 46.0836 33.0678 46.5518C32.7849 47.0199 32.3794 47.4018 31.8951 47.6562C31.4108 47.9105 30.8662 48.0276 30.3202 47.9948C29.7741 47.962 29.2475 47.7805 28.7972 47.47L9.94016 34.47C9.54002 34.1941 9.21289 33.8252 8.9869 33.395C8.76091 32.9647 8.64284 32.486 8.64284 32C8.64284 31.514 8.76091 31.0353 8.9869 30.605C9.21289 30.1747 9.54002 29.8058 9.94016 29.53L28.7972 16.53C29.2475 16.2195 29.7741 16.038 30.3202 16.0052C30.8662 15.9723 31.4108 16.0894 31.8951 16.3438C32.3794 16.5981 32.7849 16.98 33.0678 17.4482C33.3507 17.9164 33.5002 18.453 33.5002 19V28.356L50.6552 16.53C51.1558 16.1845 51.7498 15.9996 52.3582 16ZM30.5002 19L11.6432 32L30.5002 45V19ZM52.3572 19L33.5002 32L52.3572 45V19Z" fill="#1A1C1F"/>
</g>
<defs>
<clipPath id="clip0_2202_70">
<rect width="64" height="64" fill="white"/>
</clipPath>
</defs>
</svg>
