<svg width="24" height="24" viewBox="0 0 24 24" fill="none" xmlns="http://www.w3.org/2000/svg">
<g clip-path="url(#clip0_184_269)">
<path fill-rule="evenodd" clip-rule="evenodd" d="M12.9998 6.00078C13.3978 6.00078 13.7948 6.11978 14.1348 6.35378L19.9368 10.3538C20.2037 10.5376 20.4219 10.7836 20.5727 11.0705C20.7234 11.3574 20.8022 11.6767 20.8022 12.0008C20.8022 12.3249 20.7234 12.6441 20.5727 12.931C20.4219 13.2179 20.2037 13.4639 19.9368 13.6478L14.1348 17.6478C13.8344 17.854 13.4834 17.9743 13.1197 17.9958C12.756 18.0172 12.3933 17.939 12.0707 17.7695C11.7482 17.6001 11.478 17.3458 11.2892 17.0341C11.1005 16.7224 11.0005 16.3651 10.9998 16.0008V14.4298L6.33282 17.6478C6.03241 17.854 5.68143 17.9743 5.3177 17.9958C4.95397 18.0172 4.59128 17.939 4.26872 17.7695C3.94616 17.6001 3.67596 17.3458 3.48725 17.0341C3.29853 16.7224 3.19846 16.3651 3.19781 16.0008V8.00078C3.19812 7.63627 3.29797 7.27877 3.48661 6.96688C3.67525 6.65498 3.9455 6.40053 4.26818 6.23101C4.59087 6.06148 4.95373 5.98332 5.31759 6.00496C5.68145 6.02659 6.03249 6.14721 6.33282 6.35378L10.9998 9.57178V8.00078C11.0001 7.47043 11.2109 6.96187 11.5859 6.58686C11.9609 6.21184 12.4695 6.00104 12.9998 6.00078ZM12.9998 8.00078V16.0008L18.8018 12.0008L12.9998 8.00078ZM5.19781 8.00078V16.0008L10.9998 12.0008L5.19781 8.00078Z" fill="#1A1C1F"/>
</g>
<defs>
<clipPath id="clip0_184_269">
<rect width="24" height="24" fill="white"/>
</clipPath>
</defs>
</svg>
