<svg width="28" height="28" viewBox="0 0 28 28" fill="none" xmlns="http://www.w3.org/2000/svg">
<g clip-path="url(#clip0_184_267)">
<path fill-rule="evenodd" clip-rule="evenodd" d="M14.875 6.99992C15.223 6.99992 15.571 7.10392 15.868 7.30892L23.483 12.5589C23.7165 12.7198 23.9074 12.935 24.0392 13.1861C24.1711 13.4371 24.24 13.7164 24.24 13.9999C24.24 14.2835 24.1711 14.5628 24.0392 14.8138C23.9074 15.0648 23.7165 15.28 23.483 15.4409L15.868 20.6909C15.6051 20.8712 15.298 20.9764 14.9798 20.9951C14.6616 21.0138 14.3444 20.9454 14.0622 20.7971C13.78 20.6489 13.5436 20.4265 13.3785 20.1538C13.2133 19.8812 13.1257 19.5687 13.125 19.2499V16.1249L6.50298 20.6909C6.24025 20.8719 5.93309 20.9777 5.61465 20.9969C5.2962 21.0161 4.97856 20.948 4.69598 20.7999C4.41353 20.6514 4.17704 20.4285 4.01207 20.1553C3.84711 19.8821 3.75994 19.5691 3.75998 19.2499V8.74992C3.76032 8.43103 3.84775 8.11829 4.01282 7.84544C4.17789 7.57259 4.41434 7.35001 4.69664 7.2017C4.97895 7.05339 5.2964 6.985 5.61474 7.00389C5.93307 7.02279 6.2402 7.12826 6.50298 7.30892L13.125 11.8749V8.74992C13.1252 8.28588 13.3097 7.84091 13.6378 7.51278C13.966 7.18465 14.4109 7.00019 14.875 6.99992ZM14.875 8.74992V19.2499L22.49 13.9999L14.875 8.74992ZM5.50998 8.74992V19.2499L13.125 13.9999L5.50998 8.74992Z" fill="#1A1C1F"/>
</g>
<defs>
<clipPath id="clip0_184_267">
<rect width="28" height="28" fill="white"/>
</clipPath>
</defs>
</svg>
