<svg width="64" height="64" viewBox="0 0 64 64" fill="none" xmlns="http://www.w3.org/2000/svg">
<g clip-path="url(#clip0_2202_286)">
<path fill-rule="evenodd" clip-rule="evenodd" d="M33.4998 15.9997C34.0968 15.9997 34.6928 16.1777 35.2028 16.5297L54.0598 29.5297C54.46 29.8055 54.7871 30.1744 55.0131 30.6047C55.2391 31.0349 55.3572 31.5137 55.3572 31.9997C55.3572 32.4857 55.2391 32.9644 55.0131 33.3946C54.7871 33.8249 54.46 34.1938 54.0598 34.4697L35.2028 47.4697C34.7526 47.7805 34.2259 47.9621 33.6798 47.9949C33.1337 48.0277 32.589 47.9104 32.1048 47.6557C31.6206 47.4013 31.2151 47.0194 30.9322 46.5513C30.6493 46.0832 30.4998 45.5466 30.4998 44.9997V35.6437L13.3448 47.4697C12.8948 47.7805 12.3683 47.9622 11.8223 47.9949C11.2763 48.0277 10.7318 47.9104 10.2478 47.6557C9.7636 47.4013 9.35812 47.0194 9.07523 46.5513C8.79235 46.0832 8.64283 45.5466 8.64284 44.9997V18.9997C8.64292 18.4528 8.79247 17.9164 9.07533 17.4484C9.35818 16.9804 9.76358 16.5986 10.2477 16.3443C10.7318 16.09 11.2762 15.9728 11.8221 16.0055C12.368 16.0382 12.8945 16.2194 13.3448 16.5297L30.4998 28.3557V18.9997C30.4998 18.204 30.8159 17.441 31.3785 16.8783C31.9411 16.3157 32.7042 15.9997 33.4998 15.9997ZM33.4998 18.9997V44.9997L52.3568 31.9997L33.4998 18.9997ZM11.6428 18.9997V44.9997L30.4998 31.9997L11.6428 18.9997Z" fill="#1A1C1F"/>
</g>
<defs>
<clipPath id="clip0_2202_286">
<rect width="64" height="64" fill="white"/>
</clipPath>
</defs>
</svg>
