<svg width="32" height="32" viewBox="0 0 32 32" fill="none" xmlns="http://www.w3.org/2000/svg">
<g clip-path="url(#clip0_184_265)">
<path fill-rule="evenodd" clip-rule="evenodd" d="M16.9998 8.00009C17.3978 8.00009 17.7948 8.11909 18.1348 8.35309L26.8378 14.3531C27.1047 14.537 27.3229 14.7829 27.4737 15.0698C27.6244 15.3567 27.7032 15.676 27.7032 16.0001C27.7032 16.3242 27.6244 16.6434 27.4737 16.9303C27.3229 17.2173 27.1047 17.4632 26.8378 17.6471L18.1348 23.6471C17.8344 23.8533 17.4834 23.9736 17.1197 23.9951C16.756 24.0165 16.3933 23.9383 16.0707 23.7688C15.7482 23.5994 15.478 23.3451 15.2892 23.0334C15.1005 22.7217 15.0005 22.3645 14.9998 22.0001V18.4291L7.43181 23.6471C7.13148 23.8537 6.78045 23.9745 6.41656 23.9963C6.05267 24.0182 5.68971 23.9403 5.36681 23.7711C5.04401 23.6014 4.77372 23.3468 4.58514 23.0346C4.39655 22.7225 4.29686 22.3648 4.29681 22.0001V10.0001C4.29711 9.63559 4.39697 9.27809 4.58561 8.96619C4.77425 8.65429 5.0445 8.39985 5.36718 8.23032C5.68987 8.0608 6.05273 7.98263 6.41659 8.00427C6.78045 8.02591 7.13149 8.14652 7.43181 8.35309L14.9998 13.5711V10.0001C15.0001 9.46974 15.2109 8.96119 15.5859 8.58617C15.9609 8.21115 16.4695 8.00036 16.9998 8.00009ZM16.9998 10.0001V22.0001L25.7028 16.0001L16.9998 10.0001ZM6.29681 10.0001V22.0001L14.9998 16.0001L6.29681 10.0001Z" fill="#1A1C1F"/>
</g>
<defs>
<clipPath id="clip0_184_265">
<rect width="32" height="32" fill="white"/>
</clipPath>
</defs>
</svg>
