<svg width="12" height="12" viewBox="0 0 12 12" fill="none" xmlns="http://www.w3.org/2000/svg">
<g clip-path="url(#clip0_231_82)">
<path fill-rule="evenodd" clip-rule="evenodd" d="M6.60313 2.99026C6.84313 2.99026 7.08113 3.06226 7.28613 3.20326L9.90613 5.00926C10.0662 5.12028 10.197 5.26841 10.2873 5.44099C10.3777 5.61357 10.4249 5.80547 10.4249 6.00026C10.4249 6.19506 10.3777 6.38696 10.2873 6.55954C10.197 6.73212 10.0662 6.88025 9.90613 6.99127L7.28613 8.79727C7.10535 8.92138 6.89412 8.9938 6.67521 9.00674C6.4563 9.01967 6.23801 8.97263 6.04386 8.87067C5.84972 8.76871 5.68707 8.6157 5.57346 8.42813C5.45985 8.24057 5.39958 8.02556 5.39913 7.80626V7.46227L3.46213 8.79727C3.28143 8.92174 3.07014 8.99447 2.8511 9.00758C2.63206 9.0207 2.4136 8.97371 2.21933 8.87168C2.02506 8.76965 1.86237 8.61648 1.74883 8.4287C1.63529 8.24093 1.57523 8.0257 1.57513 7.80626V4.19427C1.57558 3.97497 1.63585 3.75996 1.74946 3.5724C1.86307 3.38483 2.02572 3.23182 2.21986 3.12986C2.41401 3.0279 2.6323 2.98086 2.85121 2.99379C3.07012 3.00672 3.28135 3.07915 3.46213 3.20326L5.39913 4.53826V4.19427C5.3994 3.87503 5.52633 3.56894 5.75207 3.3432C5.97781 3.11746 6.28389 2.99053 6.60313 2.99026ZM6.60313 4.19427V7.80626L9.22313 6.00026L6.60313 4.19427ZM2.77913 4.19427V7.80626L5.39913 6.00026L2.77913 4.19427Z" fill="#1A1C1F"/>
</g>
<defs>
<clipPath id="clip0_231_82">
<rect width="12" height="12" fill="white"/>
</clipPath>
</defs>
</svg>
