<svg width="14" height="14" viewBox="0 0 14 14" fill="none" xmlns="http://www.w3.org/2000/svg">
<g clip-path="url(#clip0_184_275)">
<path fill-rule="evenodd" clip-rule="evenodd" d="M7.70031 3.50003C7.98422 3.49985 8.26149 3.58599 8.49531 3.74703L11.5413 5.84703C11.7278 5.97602 11.8802 6.14831 11.9854 6.34913C12.0907 6.54995 12.1457 6.7733 12.1457 7.00003C12.1457 7.22676 12.0907 7.45011 11.9854 7.65093C11.8802 7.85175 11.7278 8.02404 11.5413 8.15303L8.49531 10.253C8.28505 10.3977 8.03928 10.4821 7.78453 10.4973C7.52978 10.5124 7.27573 10.4577 7.0498 10.339C6.82387 10.2204 6.63465 10.0422 6.50256 9.82388C6.37048 9.60552 6.30054 9.35523 6.30031 9.10003V8.70003L4.04831 10.253C3.83814 10.3978 3.59241 10.4823 3.33768 10.4975C3.08296 10.5127 2.82892 10.458 2.60303 10.3393C2.37715 10.2205 2.188 10.0424 2.05604 9.82394C1.92408 9.60553 1.85432 9.35521 1.85431 9.10003V4.90003C1.85432 4.64485 1.92408 4.39453 2.05604 4.17612C2.188 3.95771 2.37715 3.77952 2.60303 3.66081C2.82892 3.5421 3.08296 3.48739 3.33768 3.50258C3.59241 3.51778 3.83814 3.60231 4.04831 3.74703L6.30031 5.30003V4.90003C6.30031 4.52873 6.44781 4.17263 6.71036 3.91008C6.97291 3.64753 7.32901 3.50003 7.70031 3.50003ZM7.70031 4.90003V9.10003L10.7473 7.00003L7.70031 4.90003ZM3.25431 4.90003V9.10003L6.30031 7.00003L3.25431 4.90003Z" fill="#1A1C1F"/>
</g>
<defs>
<clipPath id="clip0_184_275">
<rect width="14" height="14" fill="white"/>
</clipPath>
</defs>
</svg>
