<svg width="28" height="28" viewBox="0 0 28 28" fill="none" xmlns="http://www.w3.org/2000/svg">
<g clip-path="url(#clip0_3479_122)">
<path fill-rule="evenodd" clip-rule="evenodd" d="M3.5 16.6163C3.5 11.2693 7.897 6.96334 13.253 7.01934L12.097 5.86634C12.0161 5.78476 11.952 5.68799 11.9086 5.58159C11.8652 5.47519 11.8432 5.36125 11.844 5.24634C11.8424 5.13129 11.8639 5.01709 11.9072 4.9105C11.9505 4.80391 12.0147 4.70709 12.0962 4.62578C12.1776 4.54447 12.2744 4.48032 12.3811 4.43713C12.4877 4.39394 12.602 4.37259 12.717 4.37434C12.943 4.37434 13.168 4.45834 13.337 4.62734L16.1 7.38534C16.27 7.55534 16.354 7.77934 16.354 8.00534C16.354 8.23034 16.269 8.45534 16.1 8.62434L13.338 11.3813C13.2564 11.4623 13.1597 11.5264 13.0533 11.57C12.9469 11.6136 12.833 11.6358 12.718 11.6353C12.6028 11.6372 12.4884 11.6159 12.3815 11.5728C12.2747 11.5296 12.1777 11.4653 12.0961 11.3839C12.0146 11.3025 11.9503 11.2055 11.907 11.0987C11.8637 10.9919 11.8422 10.8776 11.844 10.7623C11.844 10.5373 11.928 10.3123 12.097 10.1433L13.479 8.76434C9.109 8.56734 5.248 12.0573 5.248 16.5883C5.248 18.4733 5.924 20.3313 7.193 21.7663C7.32373 21.9245 7.3936 22.1242 7.39 22.3293C7.39 22.8363 7.023 23.2293 6.516 23.2293C6.262 23.2293 6.009 23.1173 5.868 22.9203C4.318 21.1753 3.5 18.9243 3.5 16.6163Z" fill="#1A1C1F"/>
</g>
<defs>
<clipPath id="clip0_3479_122">
<rect width="28" height="28" fill="white"/>
</clipPath>
</defs>
</svg>
