<svg width="20" height="20" viewBox="0 0 20 20" fill="none" xmlns="http://www.w3.org/2000/svg">
<g clip-path="url(#clip0_2202_143)">
<path fill-rule="evenodd" clip-rule="evenodd" d="M3.51368 11.6471L7.86468 14.6471C8.16521 14.8537 8.5164 14.9744 8.88045 14.9963C9.24449 15.0181 9.6076 14.9403 9.93068 14.7711C10.2535 14.6014 10.5238 14.3468 10.7124 14.0346C10.9009 13.7225 11.0006 13.3648 11.0007 13.0001V12.4291L14.2167 14.6471C14.517 14.8537 14.868 14.9745 15.2319 14.9963C15.5958 15.0182 15.9588 14.9403 16.2817 14.7711C16.6045 14.6014 16.8748 14.3468 17.0634 14.0346C17.2519 13.7225 17.3516 13.3648 17.3517 13.0001V7.0001C17.3514 6.6356 17.2515 6.2781 17.0629 5.9662C16.8742 5.6543 16.604 5.39986 16.2813 5.23033C15.9586 5.0608 15.5958 4.98264 15.2319 5.00428C14.868 5.02591 14.517 5.14653 14.2167 5.3531L11.0007 7.5711V7.0001C11.0005 6.63543 10.9007 6.27775 10.712 5.96569C10.5233 5.65364 10.2529 5.39908 9.93008 5.22952C9.60723 5.05996 9.24418 4.98185 8.88017 5.00363C8.51615 5.02541 8.16501 5.14626 7.86468 5.3531L3.51368 8.3531C3.24679 8.53697 3.02857 8.78294 2.87783 9.06985C2.72708 9.35676 2.64832 9.676 2.64832 10.0001C2.64832 10.3242 2.72708 10.6434 2.87783 10.9304C3.02857 11.2173 3.24679 11.4632 3.51368 11.6471Z" fill="#1A1C1F"/>
</g>
<defs>
<clipPath id="clip0_2202_143">
<rect width="20" height="20" fill="white"/>
</clipPath>
</defs>
</svg>
