<svg width="14" height="14" viewBox="0 0 14 14" fill="none" xmlns="http://www.w3.org/2000/svg">
<g clip-path="url(#clip0_184_249)">
<path fill-rule="evenodd" clip-rule="evenodd" d="M10.7469 3.49973C10.9308 3.49973 11.1128 3.53594 11.2827 3.60629C11.4525 3.67665 11.6069 3.77977 11.7369 3.90978C11.8669 4.03978 11.97 4.19411 12.0404 4.36397C12.1107 4.53382 12.1469 4.71588 12.1469 4.89973V9.09973C12.147 9.35507 12.0773 9.60558 11.9453 9.82415C11.8133 10.0427 11.624 10.221 11.398 10.3398C11.1719 10.4585 10.9177 10.5132 10.6628 10.4978C10.4079 10.4825 10.1621 10.3977 9.95193 10.2527L7.69993 8.69973V9.09973C7.70004 9.35507 7.63032 9.60558 7.49831 9.82415C7.3663 10.0427 7.17703 10.221 6.95097 10.3398C6.72492 10.4585 6.4707 10.5132 6.21582 10.4978C5.96094 10.4825 5.71511 10.3977 5.50493 10.2527L2.45893 8.15273C2.27206 8.02403 2.11928 7.85183 2.01373 7.65098C1.90818 7.45012 1.85303 7.22663 1.85303 6.99973C1.85303 6.77283 1.90818 6.54933 2.01373 6.34847C2.11928 6.14762 2.27206 5.97543 2.45893 5.84673L5.50493 3.74673C5.71524 3.60205 5.96103 3.5175 6.21583 3.50217C6.47064 3.48684 6.72479 3.54131 6.95093 3.65973C7.41193 3.90173 7.70093 4.37973 7.70093 4.89973V5.29973L9.95093 3.74673C10.1899 3.58273 10.4669 3.49973 10.7469 3.49973ZM6.29993 4.89973L3.25393 6.99973L6.29993 9.09973V4.89973ZM10.7459 4.89973L7.69993 6.99973L10.7459 9.09973V4.89973Z" fill="#1A1C1F"/>
</g>
<defs>
<clipPath id="clip0_184_249">
<rect width="14" height="14" fill="white"/>
</clipPath>
</defs>
</svg>
