<svg width="64" height="64" viewBox="0 0 64 64" fill="none" xmlns="http://www.w3.org/2000/svg">
<g clip-path="url(#clip0_2202_128)">
<path fill-rule="evenodd" clip-rule="evenodd" d="M9.94015 34.4698L28.7971 47.4698C29.2475 47.7803 29.7741 47.9618 30.3202 47.9946C30.8662 48.0274 31.4108 47.9103 31.8951 47.656C32.3793 47.4017 32.7849 47.0198 33.0678 46.5516C33.3507 46.0834 33.5002 45.5468 33.5001 44.9998V35.6438L50.6551 47.4698C51.1052 47.7806 51.6317 47.9623 52.1777 47.9951C52.7236 48.0279 53.2681 47.9105 53.7521 47.6558C54.2364 47.4015 54.6419 47.0196 54.9248 46.5514C55.2076 46.0833 55.3572 45.5468 55.3571 44.9998V18.9998C55.3571 18.453 55.2075 17.9165 54.9247 17.4485C54.6418 16.9805 54.2364 16.5987 53.7523 16.3444C53.2682 16.0901 52.7238 15.9729 52.1779 16.0056C51.632 16.0383 51.1055 16.2196 50.6551 16.5298L33.5001 28.3558V18.9998C33.5002 18.4528 33.3507 17.9162 33.0678 17.448C32.7849 16.9798 32.3793 16.5979 31.8951 16.3436C31.4108 16.0893 30.8662 15.9722 30.3202 16.005C29.7741 16.0378 29.2475 16.2193 28.7971 16.5298L9.94015 29.5298C9.54001 29.8056 9.21287 30.1745 8.98688 30.6048C8.7609 31.0351 8.64282 31.5138 8.64282 31.9998C8.64282 32.4858 8.7609 32.9645 8.98688 33.3948C9.21287 33.825 9.54001 34.194 9.94015 34.4698Z" fill="#1A1C1F"/>
</g>
<defs>
<clipPath id="clip0_2202_128">
<rect width="64" height="64" fill="white"/>
</clipPath>
</defs>
</svg>
