<svg width="12" height="12" viewBox="0 0 12 12" fill="none" xmlns="http://www.w3.org/2000/svg">
<g clip-path="url(#clip0_231_86)">
<path fill-rule="evenodd" clip-rule="evenodd" d="M2.4155 9.24541C2.8035 9.24541 3.0385 8.91541 3.0385 8.66941C3.0385 8.38741 2.5915 7.70541 2.5915 6.94241C2.5915 5.32041 3.8255 4.09841 5.3305 3.95741L4.9185 4.34441C4.8245 4.46241 4.7425 4.61441 4.7425 4.76741C4.7425 5.07341 5.0245 5.34341 5.3425 5.34341C5.50211 5.34485 5.65613 5.28468 5.7725 5.17541L7.0845 3.85441C7.19142 3.73869 7.24915 3.58593 7.2455 3.42841C7.24584 3.35601 7.23148 3.28429 7.20329 3.21759C7.1751 3.1509 7.13367 3.09062 7.0815 3.04041L5.7525 1.70041C5.69961 1.64487 5.63601 1.60064 5.56554 1.57039C5.49506 1.54014 5.41919 1.5245 5.3425 1.52441C5.0125 1.52441 4.7425 1.79441 4.7425 2.12441C4.74275 2.20108 4.75847 2.2769 4.78871 2.34735C4.81895 2.4178 4.86309 2.48142 4.9185 2.53441L5.1885 2.80441C4.15798 2.8994 3.2004 3.37689 2.50444 4.14281C1.80849 4.90873 1.42463 5.90754 1.4285 6.94241C1.4285 7.77641 1.7455 9.24541 2.4155 9.24541ZM5.2895 6.21041C6.0475 6.21041 6.5995 6.70841 6.5995 7.39341C6.5995 7.64241 6.4715 7.86041 6.2195 8.04641C6.5645 8.23941 6.7735 8.53241 6.7735 8.87741C6.7735 10.3594 4.9665 10.4464 4.3735 10.4754H4.3445C4.18934 10.4791 4.03907 10.4211 3.92674 10.314C3.8144 10.2069 3.74921 10.0596 3.7455 9.90441C3.74178 9.74926 3.79986 9.59899 3.90694 9.48666C4.01402 9.37432 4.16134 9.30913 4.3165 9.30541C5.1615 9.26541 5.6035 9.14041 5.6035 8.93541C5.6035 8.85341 5.5515 8.76241 5.4405 8.76241C5.1365 8.76241 5.0195 8.86441 4.8355 8.86441C4.68406 8.85903 4.5405 8.79559 4.43457 8.68724C4.32864 8.57889 4.26845 8.43393 4.2665 8.28241C4.2665 8.03241 4.4495 7.81241 4.7195 7.75641C5.1685 7.66441 5.4455 7.56041 5.4455 7.47641C5.4455 7.43141 5.3905 7.38041 5.2625 7.38041C4.9095 7.38041 4.6905 7.60641 4.4155 7.60641C4.26319 7.60101 4.11883 7.53708 4.01247 7.42793C3.90611 7.31878 3.84594 7.17281 3.8445 7.02041C3.8445 6.80741 3.9645 6.59841 4.1705 6.49641C4.5675 6.30141 4.9225 6.21041 5.2895 6.21041ZM8.9495 6.24841C9.9135 6.24841 10.5715 6.93041 10.5715 7.97641V8.63441C10.5715 9.69141 9.8895 10.3734 8.8915 10.3734C7.9865 10.3734 7.3275 9.68041 7.3275 8.65741V7.93041C7.3275 6.93041 8.0095 6.25041 8.9495 6.25041V6.24841ZM8.9375 7.42141C8.6795 7.42741 8.5035 7.49441 8.5035 7.91741V8.65741C8.5035 9.06941 8.6325 9.19541 8.9495 9.18841C9.2315 9.18341 9.3845 9.04541 9.3845 8.62241V7.96441C9.3845 7.47041 9.1495 7.41541 8.9375 7.42141Z" fill="#1A1C1F"/>
</g>
<defs>
<clipPath id="clip0_231_86">
<rect width="12" height="12" fill="white"/>
</clipPath>
</defs>
</svg>
