<svg width="20" height="20" viewBox="0 0 20 20" fill="none" xmlns="http://www.w3.org/2000/svg">
<g clip-path="url(#clip0_184_271)">
<path fill-rule="evenodd" clip-rule="evenodd" d="M11.0009 4.99988C11.3989 4.99988 11.7959 5.11888 12.1359 5.35288L16.4879 8.35288C16.7542 8.53718 16.9718 8.78331 17.1222 9.07016C17.2725 9.35701 17.351 9.67603 17.351 9.99988C17.351 10.3237 17.2725 10.6427 17.1222 10.9296C16.9718 11.2164 16.7542 11.4626 16.4879 11.6469L12.1359 14.6469C11.8355 14.8531 11.4845 14.9734 11.1208 14.9949C10.7571 15.0163 10.3944 14.9381 10.0718 14.7686C9.74927 14.5992 9.47907 14.3449 9.29036 14.0332C9.10164 13.7215 9.00157 13.3642 9.00093 12.9999V12.4289L5.78393 14.6469C5.48369 14.8538 5.13258 14.9747 4.76859 14.9965C4.4046 15.0184 4.04157 14.9403 3.71876 14.7707C3.39595 14.6011 3.12565 14.3465 2.93709 14.0344C2.74853 13.7222 2.64888 13.3645 2.64893 12.9999V6.99988C2.64923 6.63537 2.74909 6.27787 2.93772 5.96598C3.12636 5.65408 3.39661 5.39963 3.71929 5.23011C4.04198 5.06058 4.40484 4.98242 4.7687 5.00406C5.13256 5.02569 5.48361 5.14631 5.78393 5.35288L9.00093 7.57088V6.99988C9.00119 6.46953 9.21199 5.96097 9.587 5.58596C9.96202 5.21094 10.4706 5.00014 11.0009 4.99988ZM11.0009 6.99988V12.9999L15.3529 9.99988L11.0009 6.99988ZM4.64893 6.99988V12.9999L9.00093 9.99988L4.64893 6.99988Z" fill="#1A1C1F"/>
</g>
<defs>
<clipPath id="clip0_184_271">
<rect width="20" height="20" fill="white"/>
</clipPath>
</defs>
</svg>
