<svg width="64" height="64" viewBox="0 0 64 64" fill="none" xmlns="http://www.w3.org/2000/svg">
<g clip-path="url(#clip0_2202_316)">
<path fill-rule="evenodd" clip-rule="evenodd" d="M35.2028 16.5302C34.7526 16.2194 34.2259 16.0378 33.6798 16.005C33.1337 15.9722 32.589 16.0895 32.1048 16.3442C31.6206 16.5986 31.2151 16.9804 30.9322 17.4486C30.6493 17.9167 30.4998 18.4533 30.4998 19.0002V28.3562L13.3448 16.5302C12.8948 16.2194 12.3682 16.0377 11.8223 16.0049C11.2763 15.9722 10.7318 16.0895 10.2478 16.3442C9.76359 16.5986 9.3581 16.9804 9.07522 17.4486C8.79233 17.9167 8.64281 18.4533 8.64282 19.0002V45.0002C8.64291 45.5471 8.79246 46.0835 9.07531 46.5515C9.35817 47.0195 9.76356 47.4013 10.2477 47.6556C10.7318 47.9099 11.2762 48.0271 11.8221 47.9944C12.3679 47.9617 12.8945 47.7805 13.3448 47.4702L30.4998 35.6442V45.0002C30.4998 45.5472 30.6493 46.0838 30.9322 46.552C31.2151 47.0202 31.6206 47.4021 32.1049 47.6564C32.5892 47.9108 33.1338 48.0279 33.6798 47.995C34.2258 47.9622 34.7525 47.7807 35.2028 47.4702L54.0598 34.4702C54.46 34.1944 54.7871 33.8255 55.0131 33.3952C55.2391 32.965 55.3571 32.4862 55.3571 32.0002C55.3571 31.5142 55.2391 31.0355 55.0131 30.6052C54.7871 30.175 54.46 29.8061 54.0598 29.5302L35.2028 16.5302Z" fill="#1A1C1F"/>
</g>
<defs>
<clipPath id="clip0_2202_316">
<rect width="64" height="64" fill="white"/>
</clipPath>
</defs>
</svg>
