<svg width="14" height="14" viewBox="0 0 14 14" fill="none" xmlns="http://www.w3.org/2000/svg">
<g clip-path="url(#clip0_3479_112)">
<path fill-rule="evenodd" clip-rule="evenodd" d="M10.984 10.833C10.534 10.833 10.26 10.45 10.26 10.163C10.26 9.83501 10.78 9.04301 10.78 8.15401C10.78 6.26901 9.34399 4.84801 7.59499 4.68401L8.07399 5.13401C8.18299 5.27101 8.27899 5.44901 8.27899 5.62601C8.27899 5.98201 7.95099 6.29601 7.58199 6.29601C7.39575 6.29829 7.21586 6.22841 7.07999 6.10101L5.55599 4.56401C5.43148 4.42965 5.36407 4.25215 5.36799 4.06901C5.36799 3.89101 5.43699 3.74101 5.55799 3.61801L7.10399 2.06001C7.16563 1.99525 7.23978 1.94368 7.32195 1.90844C7.40411 1.8732 7.49258 1.85502 7.58199 1.85501C7.7666 1.8558 7.94343 1.92949 8.07397 2.06003C8.20451 2.19057 8.2782 2.3674 8.27899 2.55201C8.2788 2.64139 8.26055 2.72981 8.22532 2.81195C8.19009 2.8941 8.13862 2.96827 8.07399 3.03001L7.75899 3.34401C8.95706 3.45445 10.0704 4.00942 10.8797 4.89965C11.6891 5.78989 12.1358 6.95087 12.132 8.15401L12.126 8.37301C12.077 9.36001 11.707 10.833 10.984 10.833Z" fill="#1A1C1F"/>
</g>
<defs>
<clipPath id="clip0_3479_112">
<rect width="14" height="14" fill="white"/>
</clipPath>
</defs>
</svg>
