<svg width="16" height="16" viewBox="0 0 16 16" fill="none" xmlns="http://www.w3.org/2000/svg">
<g clip-path="url(#clip0_2202_146)">
<path fill-rule="evenodd" clip-rule="evenodd" d="M2.81141 9.31876L6.29141 11.7188C6.53198 11.8843 6.81316 11.9809 7.10463 11.9984C7.3961 12.0158 7.68681 11.9534 7.94541 11.8178C8.20373 11.6821 8.42004 11.4783 8.57091 11.2286C8.72179 10.9788 8.8015 10.6926 8.80141 10.4008V9.94376L11.3734 11.7188C11.6138 11.8836 11.8946 11.9797 12.1856 11.9968C12.4765 12.0139 12.7666 11.9513 13.0246 11.8157C13.2827 11.6801 13.4988 11.4767 13.6498 11.2273C13.8007 10.978 13.8808 10.6922 13.8814 10.4008V5.60076C13.8815 5.30901 13.8019 5.02279 13.651 4.77304C13.5002 4.5233 13.284 4.31955 13.0257 4.18383C12.7675 4.04811 12.477 3.98558 12.1858 4.00302C11.8945 4.02046 11.6136 4.1172 11.3734 4.28276L8.80141 6.05776V5.60076C8.80177 5.30869 8.72217 5.02209 8.57125 4.77203C8.42033 4.52197 8.20384 4.31799 7.94525 4.1822C7.68666 4.04642 7.39583 3.984 7.1043 4.00173C6.81276 4.01946 6.53164 4.11665 6.29141 4.28276L2.81141 6.68276C2.59773 6.82983 2.42301 7.02665 2.3023 7.25625C2.1816 7.48586 2.11853 7.74136 2.11853 8.00076C2.11853 8.26016 2.1816 8.51567 2.3023 8.74528C2.42301 8.97488 2.59773 9.1717 2.81141 9.31876Z" fill="#1A1C1F"/>
</g>
<defs>
<clipPath id="clip0_2202_146">
<rect width="16" height="16" fill="white"/>
</clipPath>
</defs>
</svg>
