<svg width="20" height="20" viewBox="0 0 20 20" fill="none" xmlns="http://www.w3.org/2000/svg">
<g clip-path="url(#clip0_2202_331)">
<path fill-rule="evenodd" clip-rule="evenodd" d="M12.1359 5.35255C11.8355 5.14634 11.4845 5.02603 11.1208 5.00457C10.7571 4.98312 10.3944 5.06133 10.0718 5.23079C9.74927 5.40025 9.47907 5.65453 9.29036 5.96622C9.10164 6.27791 9.00157 6.63519 9.00093 6.99955V7.57055L5.78393 5.35255C5.48353 5.14634 5.13254 5.02603 4.76881 5.00457C4.40508 4.98312 4.04239 5.06133 3.71983 5.23079C3.39727 5.40025 3.12707 5.65453 2.93836 5.96622C2.74964 6.27791 2.64957 6.63519 2.64893 6.99955V12.9996C2.64923 13.3641 2.74909 13.7216 2.93772 14.0335C3.12636 14.3454 3.39661 14.5998 3.71929 14.7693C4.04198 14.9388 4.40484 15.017 4.7687 14.9954C5.13256 14.9737 5.48361 14.8531 5.78393 14.6466L9.00093 12.4286V12.9996C9.00123 13.3641 9.10109 13.7216 9.28972 14.0335C9.47836 14.3454 9.74861 14.5998 10.0713 14.7693C10.394 14.9388 10.7568 15.017 11.1207 14.9954C11.4846 14.9737 11.8356 14.8531 12.1359 14.6466L16.4879 11.6466C16.7542 11.4622 16.9718 11.2161 17.1222 10.9293C17.2725 10.6424 17.351 10.3234 17.351 9.99955C17.351 9.6757 17.2725 9.35668 17.1222 9.06983C16.9718 8.78298 16.7542 8.53686 16.4879 8.35255L12.1359 5.35255Z" fill="#1A1C1F"/>
</g>
<defs>
<clipPath id="clip0_2202_331">
<rect width="20" height="20" fill="white"/>
</clipPath>
</defs>
</svg>
