<svg width="12" height="12" viewBox="0 0 12 12" fill="none" xmlns="http://www.w3.org/2000/svg">
<g clip-path="url(#clip0_231_80)">
<path fill-rule="evenodd" clip-rule="evenodd" d="M9.73534 9.22543C9.34734 9.22543 9.11234 8.89542 9.11234 8.64943C9.11234 8.36742 9.55934 7.68543 9.55934 6.92243C9.55934 5.30043 8.32534 4.07843 6.82134 3.93743L7.23134 4.32443C7.32634 4.44243 7.40834 4.59443 7.40834 4.74743C7.40834 5.05343 7.12634 5.32342 6.80834 5.32342C6.64873 5.32487 6.49471 5.26469 6.37834 5.15543L5.06534 3.83442C4.95842 3.7187 4.90069 3.56594 4.90434 3.40843C4.90434 3.25543 4.96334 3.12643 5.06834 3.02043L6.39734 1.68043C6.45023 1.62489 6.51383 1.58065 6.5843 1.5504C6.65478 1.52015 6.73065 1.50451 6.80734 1.50443C7.13734 1.50443 7.40734 1.77443 7.40734 2.10443C7.40709 2.18109 7.39137 2.25691 7.36113 2.32736C7.33089 2.39781 7.28674 2.46143 7.23134 2.51443L6.96134 2.78443C7.99186 2.87941 8.94944 3.3569 9.64539 4.12282C10.3413 4.88874 10.7252 5.88755 10.7213 6.92243L10.7163 7.10943C10.6743 7.95942 10.3573 9.22543 9.73534 9.22543ZM2.82234 6.23042C3.58234 6.23042 4.13234 6.72743 4.13234 7.41342C4.13234 7.66243 4.00534 7.88042 3.75234 8.06642C4.09834 8.25842 4.30734 8.55142 4.30734 8.89743C4.30734 10.3794 2.50034 10.4664 1.90734 10.4954H1.87734C1.80052 10.4972 1.7241 10.4838 1.65245 10.4561C1.58079 10.4283 1.51531 10.3867 1.45973 10.3336C1.34749 10.2265 1.28242 10.0791 1.27884 9.92393C1.27526 9.76877 1.33346 9.61855 1.44064 9.50631C1.54782 9.39407 1.69519 9.32901 1.85034 9.32542C2.69534 9.28542 3.13734 9.16042 3.13734 8.95542C3.13734 8.87343 3.08534 8.78243 2.97334 8.78243C2.66934 8.78243 2.55334 8.88442 2.36934 8.88442C2.21791 8.87904 2.07435 8.8156 1.96842 8.70725C1.86248 8.5989 1.8023 8.45394 1.80034 8.30242C1.80034 8.05242 1.98334 7.83142 2.25334 7.77642C2.70234 7.68442 2.97934 7.58043 2.97934 7.49643C2.97934 7.45143 2.92434 7.40042 2.79634 7.40042C2.44234 7.40042 2.22334 7.62643 1.94834 7.62643C1.79604 7.62077 1.65179 7.55659 1.54561 7.44725C1.43944 7.3379 1.37952 7.19183 1.37834 7.03942C1.37834 6.82743 1.49834 6.61742 1.70434 6.51643C2.10034 6.32043 2.45634 6.23042 2.82234 6.23042ZM6.46634 6.22843C7.43034 6.22843 8.08934 6.91043 8.08934 7.95643V8.61443C8.08934 9.67142 7.40834 10.3534 6.40934 10.3534C5.50434 10.3534 4.84634 9.66043 4.84634 8.63742V7.91043C4.84634 6.91043 5.52734 6.23042 6.46734 6.23042L6.46634 6.22843ZM6.45534 7.40142L6.40434 7.40343C6.17434 7.41843 6.02034 7.50343 6.02034 7.89743V8.63742C6.02034 9.04943 6.15034 9.17543 6.46634 9.16843C6.74834 9.16342 6.90134 9.02542 6.90134 8.60243V7.94443C6.90134 7.45043 6.66634 7.39542 6.45534 7.40142Z" fill="#1A1C1F"/>
</g>
<defs>
<clipPath id="clip0_231_80">
<rect width="12" height="12" fill="white"/>
</clipPath>
</defs>
</svg>
