<svg width="32" height="32" viewBox="0 0 32 32" fill="none" xmlns="http://www.w3.org/2000/svg">
<g clip-path="url(#clip0_184_239)">
<path fill-rule="evenodd" clip-rule="evenodd" d="M25.7037 8.00031C26.234 8.00057 26.7426 8.21137 27.1176 8.58638C27.4926 8.9614 27.7034 9.46995 27.7037 10.0003V22.0003C27.7034 22.3648 27.6035 22.7223 27.4149 23.0342C27.2263 23.3461 26.956 23.6005 26.6333 23.7701C26.3106 23.9396 25.9478 24.0178 25.5839 23.9961C25.2201 23.9745 24.869 23.8539 24.5687 23.6473L16.9997 18.4293V22.0003C16.9994 22.3648 16.8995 22.7223 16.7109 23.0342C16.5223 23.3461 16.252 23.6005 15.9293 23.7701C15.6066 23.9396 15.2438 24.0178 14.8799 23.9961C14.5161 23.9745 14.165 23.8539 13.8647 23.6473L5.16169 17.6473C4.8948 17.4634 4.67658 17.2175 4.52584 16.9306C4.37509 16.6437 4.29633 16.3244 4.29633 16.0003C4.29633 15.6762 4.37509 15.357 4.52584 15.0701C4.67658 14.7831 4.8948 14.5372 5.16169 14.3533L13.8647 8.3533C14.1651 8.1471 14.5161 8.02678 14.8798 8.00533C15.2435 7.98387 15.6062 8.06209 15.9288 8.23155C16.2514 8.40101 16.5215 8.65529 16.7103 8.96697C16.899 9.27866 16.999 9.63594 16.9997 10.0003V13.5713L24.5687 8.3533C24.9087 8.1193 25.3057 8.00031 25.7037 8.00031ZM14.9997 10.0003L6.29669 16.0003L14.9997 22.0003V10.0003ZM25.7037 10.0003L16.9997 16.0003L25.7037 22.0003V10.0003Z" fill="#1A1C1F"/>
</g>
<defs>
<clipPath id="clip0_184_239">
<rect width="32" height="32" fill="white"/>
</clipPath>
</defs>
</svg>
