<svg width="16" height="16" viewBox="0 0 16 16" fill="none" xmlns="http://www.w3.org/2000/svg">
<g clip-path="url(#clip0_3479_109)">
<path fill-rule="evenodd" clip-rule="evenodd" d="M12.554 12.38C12.038 12.38 11.726 11.943 11.726 11.615C11.726 11.24 12.319 10.335 12.319 9.31899C12.319 7.16399 10.679 5.54 8.68098 5.353L9.22698 5.868C9.35198 6.024 9.46098 6.22799 9.46098 6.43C9.46098 6.836 9.08698 7.196 8.66498 7.196C8.45187 7.19837 8.24614 7.11808 8.09098 6.972L6.34898 5.216C6.20693 5.06223 6.1302 4.85928 6.13498 4.65C6.13498 4.447 6.21298 4.275 6.35298 4.13499L8.11898 2.355C8.18931 2.28087 8.27398 2.22182 8.36784 2.18142C8.4617 2.14102 8.56279 2.12012 8.66498 2.12C8.87576 2.12105 9.07762 2.20525 9.22667 2.3543C9.37572 2.50335 9.45992 2.70521 9.46098 2.916C9.46076 3.01822 9.43993 3.11936 9.39973 3.21334C9.35952 3.30733 9.30076 3.39224 9.22698 3.463L8.86798 3.823C10.2369 3.94939 11.5089 4.58357 12.4337 5.60071C13.3584 6.61785 13.8691 7.94429 13.865 9.31899L13.859 9.56899C13.803 10.697 13.38 12.38 12.554 12.38Z" fill="#1A1C1F"/>
</g>
<defs>
<clipPath id="clip0_3479_109">
<rect width="16" height="16" fill="white"/>
</clipPath>
</defs>
</svg>
