<svg width="32" height="32" viewBox="0 0 32 32" fill="none" xmlns="http://www.w3.org/2000/svg">
<g clip-path="url(#clip0_3479_97)">
<path fill-rule="evenodd" clip-rule="evenodd" d="M27.85 18.9896C27.85 12.8796 22.824 7.95857 16.703 8.02257L18.023 6.70457C18.1156 6.61146 18.1889 6.50099 18.2386 6.37949C18.2884 6.25799 18.3137 6.12786 18.313 5.99657C18.3149 5.86503 18.2904 5.73446 18.2409 5.61258C18.1914 5.49069 18.1179 5.37999 18.0248 5.28702C17.9318 5.19404 17.821 5.1207 17.6991 5.07132C17.5771 5.02195 17.4465 4.99755 17.315 4.99957C17.1836 4.99894 17.0533 5.02423 16.9316 5.07399C16.81 5.12375 16.6993 5.197 16.606 5.28957L13.45 8.43957C13.3574 8.53267 13.2842 8.64314 13.2344 8.76464C13.1846 8.88614 13.1593 9.01627 13.16 9.14757C13.159 9.41268 13.2633 9.66734 13.45 9.85557L16.607 13.0076C16.7004 13.1002 16.8113 13.1736 16.9331 13.2233C17.0549 13.2731 17.1854 13.2983 17.317 13.2976C17.897 13.2976 18.315 12.8466 18.315 12.2996C18.3157 12.1683 18.2904 12.0381 18.2406 11.9166C18.1909 11.7951 18.1176 11.6847 18.025 11.5916L16.446 10.0156C21.44 9.79057 25.853 13.7786 25.853 18.9576C25.8566 21.135 25.0662 23.239 23.63 24.8756C23.4807 25.0562 23.4009 25.2843 23.405 25.5186C23.405 26.0976 23.824 26.5486 24.403 26.5486C24.6507 26.551 24.8894 26.4562 25.068 26.2846L25.144 26.1946C26.915 24.1996 27.85 21.6266 27.85 18.9896Z" fill="#1A1C1F"/>
</g>
<defs>
<clipPath id="clip0_3479_97">
<rect width="32" height="32" fill="white"/>
</clipPath>
</defs>
</svg>
