<svg width="20" height="20" viewBox="0 0 20 20" fill="none" xmlns="http://www.w3.org/2000/svg">
<g clip-path="url(#clip0_184_245)">
<path fill-rule="evenodd" clip-rule="evenodd" d="M15.3527 5C15.8829 5.00027 16.3914 5.2111 16.7662 5.58614C17.1411 5.96118 17.3517 6.46974 17.3517 7V13C17.3514 13.3645 17.2515 13.722 17.0629 14.0339C16.8742 14.3458 16.604 14.6002 16.2813 14.7698C15.9586 14.9393 15.5958 15.0175 15.2319 14.9958C14.868 14.9742 14.517 14.8536 14.2167 14.647L11.0007 12.429V13C11.0005 13.3647 10.9007 13.7224 10.712 14.0344C10.5233 14.3465 10.2529 14.601 9.93008 14.7706C9.60723 14.9401 9.24418 15.0182 8.88017 14.9965C8.51615 14.9747 8.16501 14.8538 7.86468 14.647L3.51368 11.647C3.24679 11.4631 3.02857 11.2172 2.87783 10.9303C2.72708 10.6433 2.64832 10.3241 2.64832 10C2.64832 9.6759 2.72708 9.35666 2.87783 9.06975C3.02857 8.78284 3.24679 8.53687 3.51368 8.353L7.86468 5.353C8.16521 5.14639 8.5164 5.02566 8.88045 5.00381C9.24449 4.98196 9.6076 5.05982 9.93068 5.229C10.2535 5.39867 10.5238 5.65333 10.7124 5.96546C10.9009 6.27759 11.0006 6.63532 11.0007 7V7.571L14.2167 5.353C14.5567 5.119 14.9537 5 15.3527 5ZM9.00068 7L4.64868 10L9.00068 13V7ZM15.3517 7L11.0007 10L15.3517 13V7Z" fill="#1A1C1F"/>
</g>
<defs>
<clipPath id="clip0_184_245">
<rect width="20" height="20" fill="white"/>
</clipPath>
</defs>
</svg>
