<svg width="24" height="24" viewBox="0 0 24 24" fill="none" xmlns="http://www.w3.org/2000/svg">
<g clip-path="url(#clip0_3479_125)">
<path fill-rule="evenodd" clip-rule="evenodd" d="M2.5 13.094C2.5 8.93798 5.719 5.46898 9.875 5.12498L9.469 4.71898C9.3615 4.62573 9.27519 4.51056 9.21586 4.3812C9.15653 4.25185 9.12555 4.1113 9.125 3.96898C9.125 3.43798 9.594 2.99998 10.156 2.99998C10.375 2.99998 10.625 3.06298 10.812 3.21898L13.094 5.53098C13.1862 5.61978 13.2588 5.72684 13.3071 5.84531C13.3555 5.96379 13.3786 6.09106 13.375 6.21898C13.3786 6.35137 13.3555 6.48314 13.3073 6.60646C13.259 6.72979 13.1865 6.84219 13.094 6.93698L10.906 9.15698C10.719 9.34398 10.469 9.43699 10.156 9.43699C9.625 9.43699 9.187 8.96899 9.187 8.43699C9.187 8.18699 9.281 7.93698 9.5 7.74998L10.063 7.12498C6.937 7.34398 4.5 9.96898 4.5 13.125C4.5 14.656 5.125 16.188 6.281 17.375C6.37094 17.4655 6.44215 17.5728 6.49054 17.6909C6.53893 17.8089 6.56355 17.9354 6.563 18.063C6.563 18.625 6.093 19.063 5.563 19.063C5.43541 19.0635 5.30896 19.0389 5.19091 18.9905C5.07285 18.9421 4.9655 18.8709 4.875 18.781C4.12269 18.0372 3.5254 17.1516 3.11773 16.1754C2.71005 15.1992 2.50009 14.1519 2.5 13.094Z" fill="#1A1C1F"/>
</g>
<defs>
<clipPath id="clip0_3479_125">
<rect width="24" height="24" fill="white"/>
</clipPath>
</defs>
</svg>
