<svg width="28" height="28" viewBox="0 0 28 28" fill="none" xmlns="http://www.w3.org/2000/svg">
<g clip-path="url(#clip0_3479_100)">
<path fill-rule="evenodd" clip-rule="evenodd" d="M24.3685 16.6163C24.3685 11.2693 19.9715 6.96334 14.6155 7.01934L15.7715 5.86634C15.8525 5.78476 15.9165 5.68799 15.9599 5.58159C16.0033 5.47519 16.0253 5.36125 16.0245 5.24634C16.0261 5.13129 16.0046 5.01709 15.9613 4.9105C15.918 4.80391 15.8538 4.70709 15.7724 4.62578C15.691 4.54447 15.5941 4.48032 15.4874 4.43713C15.3808 4.39394 15.2666 4.37259 15.1515 4.37434C14.9195 4.37313 14.6965 4.46413 14.5315 4.62734L11.7685 7.38534C11.6874 7.46683 11.6232 7.56356 11.5796 7.66997C11.536 7.77637 11.5139 7.89035 11.5145 8.00534C11.5145 8.23034 11.5995 8.45534 11.7685 8.62434L14.5305 11.3813C14.7005 11.5513 14.9255 11.6353 15.1505 11.6353C15.2657 11.6372 15.3801 11.6159 15.487 11.5728C15.5938 11.5296 15.6908 11.4653 15.7724 11.3839C15.8539 11.3025 15.9182 11.2055 15.9615 11.0987C16.0049 10.9919 16.0263 10.8776 16.0245 10.7623C16.0251 10.6476 16.0031 10.5338 15.9597 10.4276C15.9163 10.3214 15.8523 10.2248 15.7715 10.1433L14.3895 8.76434C18.7595 8.56734 22.6205 12.0573 22.6205 16.5883C22.6236 18.4935 21.9321 20.3344 20.6755 21.7663C20.5448 21.9245 20.4749 22.1242 20.4785 22.3293C20.4785 22.8363 20.8455 23.2293 21.3525 23.2293C21.5688 23.2315 21.7773 23.1489 21.9335 22.9993L22.0005 22.9203C23.5505 21.1753 24.3685 18.9243 24.3685 16.6163Z" fill="#1A1C1F"/>
</g>
<defs>
<clipPath id="clip0_3479_100">
<rect width="28" height="28" fill="white"/>
</clipPath>
</defs>
</svg>
