<svg width="20" height="20" viewBox="0 0 20 20" fill="none" xmlns="http://www.w3.org/2000/svg">
<g clip-path="url(#clip0_3479_128)">
<path fill-rule="evenodd" clip-rule="evenodd" d="M4.04601 15.4745C4.69001 15.4745 5.08001 14.9285 5.08001 14.5185C5.08001 14.0495 4.33901 12.9185 4.33901 11.6485C4.33901 8.9545 6.38901 6.92451 8.88701 6.69051L8.20401 7.33451C8.04801 7.52951 7.91101 7.78351 7.91101 8.03751C7.91101 8.54451 8.37901 8.99351 8.90701 8.99351C9.16001 8.99351 9.43901 8.90151 9.62301 8.71551L11.801 6.51951C11.986 6.33351 12.069 6.06551 12.069 5.81151C12.0694 5.69129 12.0453 5.57225 11.9984 5.46156C11.9515 5.35088 11.8827 5.25085 11.796 5.16751L9.58901 2.94251C9.5011 2.85002 9.39532 2.77637 9.27809 2.726C9.16085 2.67563 9.03461 2.64961 8.90701 2.64951C8.64335 2.65056 8.39078 2.75569 8.20425 2.94204C8.01772 3.12838 7.91233 3.38085 7.91101 3.64451C7.91131 3.77237 7.93741 3.89885 7.98775 4.01639C8.0381 4.13392 8.11166 4.24008 8.20401 4.32851L8.65301 4.77751C6.94153 4.93518 5.35111 5.72791 4.1949 6.9996C3.0387 8.2713 2.40051 9.92979 2.40601 11.6485C2.40601 13.0345 2.93301 15.4745 4.04601 15.4745Z" fill="#1A1C1F"/>
</g>
<defs>
<clipPath id="clip0_3479_128">
<rect width="20" height="20" fill="white"/>
</clipPath>
</defs>
</svg>
