<svg width="16" height="16" viewBox="0 0 16 16" fill="none" xmlns="http://www.w3.org/2000/svg">
<g clip-path="url(#clip0_2202_334)">
<path fill-rule="evenodd" clip-rule="evenodd" d="M9.70938 4.28224C9.46907 4.11649 9.18801 4.0196 8.8966 4.00206C8.6052 3.98451 8.31454 4.04698 8.05607 4.1827C7.79761 4.31842 7.58117 4.52223 7.43017 4.77208C7.27918 5.02193 7.19937 5.30831 7.19938 5.60024V6.05724L4.62738 4.28224C4.38708 4.11704 4.10623 4.0206 3.81513 4.00334C3.52403 3.98609 3.23375 4.04866 2.97561 4.18432C2.71747 4.31997 2.50129 4.52356 2.35039 4.77309C2.1995 5.02262 2.11962 5.30863 2.11938 5.60024V10.4002C2.11927 10.692 2.19894 10.9782 2.34976 11.228C2.50058 11.4777 2.71681 11.6815 2.97507 11.8172C3.23334 11.9529 3.52379 12.0154 3.81502 11.998C4.10625 11.9805 4.38717 11.8838 4.62738 11.7182L7.19938 9.94324V10.4002C7.19928 10.692 7.27894 10.9782 7.42976 11.228C7.58058 11.4777 7.79681 11.6815 8.05508 11.8172C8.31334 11.9529 8.60379 12.0154 8.89502 11.998C9.18625 11.9805 9.46716 11.8838 9.70738 11.7182L13.1894 9.31824C13.4027 9.17088 13.577 8.97396 13.6974 8.7444C13.8178 8.51483 13.8807 8.25947 13.8807 8.00024C13.8807 7.74101 13.8178 7.48565 13.6974 7.25608C13.577 7.02651 13.4027 6.8296 13.1894 6.68224L9.70738 4.28224H9.70938Z" fill="#1A1C1F"/>
</g>
<defs>
<clipPath id="clip0_2202_334">
<rect width="16" height="16" fill="white"/>
</clipPath>
</defs>
</svg>
