<svg width="48" height="48" viewBox="0 0 48 48" fill="none" xmlns="http://www.w3.org/2000/svg">
<g clip-path="url(#clip0_2202_283)">
<path fill-rule="evenodd" clip-rule="evenodd" d="M25.2748 10.9999C25.6728 10.9999 26.0698 11.1189 26.4098 11.3529L42.3658 22.3529C42.6327 22.5367 42.8509 22.7827 43.0017 23.0696C43.1524 23.3565 43.2312 23.6758 43.2312 23.9999C43.2312 24.324 43.1524 24.6432 43.0017 24.9301C42.8509 25.217 42.6327 25.463 42.3658 25.6469L26.4098 36.6469C26.1094 36.8531 25.7584 36.9734 25.3947 36.9949C25.031 37.0163 24.6683 36.9381 24.3457 36.7686C24.0232 36.5992 23.753 36.3449 23.5643 36.0332C23.3755 35.7215 23.2755 35.3642 23.2748 34.9999V26.0499L7.90383 36.6469C7.60359 36.8538 7.25249 36.9747 6.8885 36.9965C6.5245 37.0184 6.16147 36.9403 5.83866 36.7707C5.51585 36.6011 5.24555 36.3465 5.05699 36.0344C4.86843 35.7222 4.76878 35.3645 4.76883 34.9999V12.9999C4.76913 12.6354 4.86899 12.2779 5.05763 11.966C5.24626 11.6541 5.51651 11.3996 5.8392 11.2301C6.16188 11.0606 6.52474 10.9824 6.88861 11.0041C7.25247 11.0257 7.60351 11.1463 7.90383 11.3529L23.2738 21.9499V12.9999C23.2741 12.4695 23.4849 11.961 23.8599 11.586C24.2349 11.2109 24.7435 11.0001 25.2738 10.9999H25.2748ZM25.2748 12.9999V34.9999L41.2308 23.9999L25.2748 12.9999ZM6.76883 12.9999V34.9999L22.7248 23.9999L6.76883 12.9999Z" fill="#1A1C1F"/>
</g>
<defs>
<clipPath id="clip0_2202_283">
<rect width="48" height="48" fill="white"/>
</clipPath>
</defs>
</svg>
