<svg width="14" height="14" viewBox="0 0 14 14" fill="none" xmlns="http://www.w3.org/2000/svg">
<g clip-path="url(#clip0_3479_134)">
<path fill-rule="evenodd" clip-rule="evenodd" d="M2.83251 10.833C3.28251 10.833 3.55651 10.45 3.55651 10.163C3.55651 9.835 3.03651 9.043 3.03651 8.154C3.03651 6.269 4.47251 4.848 6.22151 4.684L5.74251 5.134C5.63351 5.271 5.53751 5.449 5.53751 5.626C5.53751 5.982 5.86551 6.296 6.23451 6.296C6.42074 6.29828 6.60064 6.2284 6.73651 6.101L8.26051 4.564C8.38502 4.42963 8.45243 4.25214 8.44851 4.069C8.44898 3.98488 8.43238 3.90154 8.39973 3.82402C8.36707 3.74651 8.31903 3.67642 8.25851 3.618L6.71151 2.06C6.64999 1.99535 6.576 1.94386 6.49401 1.90862C6.41202 1.87339 6.32374 1.85514 6.23451 1.855C6.04989 1.85579 5.87307 1.92947 5.74253 2.06001C5.61198 2.19056 5.5383 2.36738 5.53751 2.552C5.53751 2.73 5.60651 2.894 5.74251 3.03L6.05751 3.344C4.85927 3.45445 3.74581 4.00956 2.93643 4.90001C2.12706 5.79045 1.68043 6.95168 1.68451 8.155C1.68451 9.125 2.05351 10.833 2.83251 10.833Z" fill="#1A1C1F"/>
</g>
<defs>
<clipPath id="clip0_3479_134">
<rect width="14" height="14" fill="white"/>
</clipPath>
</defs>
</svg>
