<svg width="16" height="16" viewBox="0 0 16 16" fill="none" xmlns="http://www.w3.org/2000/svg">
<g clip-path="url(#clip0_184_247)">
<path fill-rule="evenodd" clip-rule="evenodd" d="M12.2819 3.99926C12.7063 3.99926 13.1132 4.16783 13.4133 4.46789C13.7133 4.76794 13.8819 5.17491 13.8819 5.59926V10.3993C13.8822 10.6912 13.8025 10.9776 13.6517 11.2275C13.5008 11.4774 13.2844 11.6813 13.026 11.817C12.7676 11.9528 12.4769 12.0152 12.1855 11.9976C11.8942 11.9801 11.6131 11.8831 11.3729 11.7173L8.80092 9.94226V10.3993C8.80128 10.6913 8.72169 10.9779 8.57077 11.228C8.41984 11.4781 8.20335 11.682 7.94476 11.8178C7.68617 11.9536 7.39534 12.016 7.10381 11.9983C6.81227 11.9806 6.53115 11.8834 6.29092 11.7173L2.81092 9.31726C2.59724 9.17019 2.42252 8.97338 2.30181 8.74377C2.18111 8.51417 2.11804 8.25866 2.11804 7.99926C2.11804 7.73986 2.18111 7.48435 2.30181 7.25474C2.42252 7.02514 2.59724 6.82832 2.81092 6.68126L6.29092 4.28126C6.53149 4.11577 6.81267 4.01909 7.10414 4.00165C7.39562 3.9842 7.68632 4.04665 7.94492 4.18226C8.20324 4.31794 8.41955 4.52168 8.57043 4.77144C8.7213 5.0212 8.80101 5.30746 8.80092 5.59926V6.05626L11.3729 4.28126C11.6449 4.09426 11.9619 3.99926 12.2819 3.99926ZM7.20092 5.59926L3.71892 7.99926L7.20092 10.3993V5.59926ZM12.2809 5.59926L8.80092 7.99926L12.2809 10.3993V5.59926Z" fill="#1A1C1F"/>
</g>
<defs>
<clipPath id="clip0_184_247">
<rect width="16" height="16" fill="white"/>
</clipPath>
</defs>
</svg>
