<svg width="28" height="28" viewBox="0 0 28 28" fill="none" xmlns="http://www.w3.org/2000/svg">
<g clip-path="url(#clip0_2202_137)">
<path fill-rule="evenodd" clip-rule="evenodd" d="M4.80363 15.397L12.1876 20.488C12.4424 20.6632 12.7402 20.7655 13.0489 20.7838C13.3576 20.8022 13.6654 20.7359 13.9391 20.5921C14.2129 20.4483 14.4422 20.2325 14.6023 19.968C14.7624 19.7035 14.8472 19.4002 14.8476 19.091V16.061L21.2706 20.488C21.5253 20.6636 21.8232 20.7662 22.132 20.7847C22.4408 20.8032 22.7488 20.737 23.0227 20.5931C23.2966 20.4493 23.5259 20.2333 23.6859 19.9686C23.846 19.7038 23.9306 19.4004 23.9306 19.091V8.90902C23.9304 8.59972 23.8457 8.29636 23.6857 8.03168C23.5257 7.767 23.2964 7.55106 23.0226 7.40716C22.7488 7.26327 22.4409 7.19689 22.1321 7.2152C21.8234 7.2335 21.5255 7.33579 21.2706 7.51102L14.8476 11.939V8.90902C14.8474 8.59972 14.7627 8.29636 14.6027 8.03168C14.4427 7.767 14.2134 7.55106 13.9396 7.40716C13.6658 7.26327 13.3579 7.19689 13.0491 7.2152C12.7404 7.2335 12.4425 7.33579 12.1876 7.51102L4.80363 12.602C4.57716 12.758 4.392 12.9667 4.26408 13.2102C4.13617 13.4536 4.06934 13.7245 4.06934 13.9995C4.06934 14.2745 4.13617 14.5454 4.26408 14.7889C4.392 15.0323 4.57716 15.241 4.80363 15.397Z" fill="#1A1C1F"/>
</g>
<defs>
<clipPath id="clip0_2202_137">
<rect width="28" height="28" fill="white"/>
</clipPath>
</defs>
</svg>
