<svg width="12" height="12" viewBox="0 0 12 12" fill="none" xmlns="http://www.w3.org/2000/svg">
<g clip-path="url(#clip0_3479_115)">
<path fill-rule="evenodd" clip-rule="evenodd" d="M9.42699 9.2965C9.03899 9.2965 8.80399 8.9665 8.80399 8.7205C8.80399 8.4385 9.25099 7.7565 9.25099 6.9935C9.25099 5.3715 8.01699 4.1495 6.51299 4.0085L6.92299 4.3955C7.01799 4.5135 7.09999 4.6655 7.09999 4.8185C7.09999 5.1245 6.81799 5.3945 6.49999 5.3945C6.34037 5.39594 6.18635 5.33577 6.06999 5.2265L4.75699 3.9055C4.65007 3.78978 4.59233 3.63701 4.59599 3.4795C4.59599 3.3265 4.65499 3.1975 4.75999 3.0915L6.08899 1.7515C6.14187 1.69596 6.20548 1.65173 6.27595 1.62148C6.34642 1.59123 6.4223 1.57558 6.49899 1.5755C6.82899 1.5755 7.09899 1.8455 7.09899 2.1755C7.09873 2.25216 7.08301 2.32799 7.05277 2.39844C7.02253 2.46888 6.97839 2.53251 6.92299 2.5855L6.65299 2.8555C7.68351 2.95048 8.64108 3.42798 9.33704 4.1939C10.033 4.95982 10.4169 5.95862 10.413 6.9935L10.408 7.1805C10.366 8.0305 10.049 9.2965 9.42699 9.2965Z" fill="#1A1C1F"/>
</g>
<defs>
<clipPath id="clip0_3479_115">
<rect width="12" height="12" fill="white"/>
</clipPath>
</defs>
</svg>
