<svg width="16" height="16" viewBox="0 0 16 16" fill="none" xmlns="http://www.w3.org/2000/svg">
<g clip-path="url(#clip0_184_273)">
<path fill-rule="evenodd" clip-rule="evenodd" d="M8.79984 3.99999C9.11884 3.99999 9.43584 4.09499 9.70784 4.28199L13.1898 6.68199C13.4031 6.82935 13.5774 7.02627 13.6979 7.25583C13.8183 7.4854 13.8812 7.74076 13.8812 7.99999C13.8812 8.25923 13.8183 8.51459 13.6979 8.74415C13.5774 8.97372 13.4031 9.17063 13.1898 9.31799L9.70784 11.718C9.46754 11.8832 9.18668 11.9796 8.89558 11.9969C8.60448 12.0141 8.3142 11.9516 8.05606 11.8159C7.79792 11.6803 7.58174 11.4767 7.43085 11.2271C7.27995 10.9776 7.20007 10.6916 7.19984 10.4V9.94299L4.62684 11.718C4.38662 11.8836 4.1057 11.9803 3.81447 11.9977C3.52324 12.0152 3.23279 11.9527 2.97453 11.8169C2.71627 11.6812 2.50003 11.4775 2.34921 11.2277C2.19839 10.978 2.11873 10.6917 2.11884 10.4V5.59999C2.11873 5.30824 2.19839 5.02201 2.34921 4.77227C2.50003 4.52253 2.71627 4.31878 2.97453 4.18306C3.23279 4.04734 3.52324 3.98481 3.81447 4.00225C4.1057 4.01969 4.38662 4.11642 4.62684 4.28199L7.19884 6.05699V5.59999C7.19884 5.17565 7.36741 4.76868 7.66746 4.46862C7.96752 4.16856 8.37449 3.99999 8.79884 3.99999H8.79984ZM8.79984 5.59999V10.4L12.2818 7.99999L8.79984 5.59999ZM3.71884 5.59999V10.4L7.19884 7.99999L3.71884 5.59999Z" fill="#1A1C1F"/>
</g>
<defs>
<clipPath id="clip0_184_273">
<rect width="16" height="16" fill="white"/>
</clipPath>
</defs>
</svg>
