<svg width="48" height="48" viewBox="0 0 48 48" fill="none" xmlns="http://www.w3.org/2000/svg">
<g clip-path="url(#clip0_2202_131)">
<path fill-rule="evenodd" clip-rule="evenodd" d="M5.63417 25.6474L21.5902 36.6474C21.8906 36.8537 22.2415 36.974 22.6053 36.9954C22.969 37.0169 23.3317 36.9387 23.6543 36.7692C23.9768 36.5997 24.247 36.3455 24.4357 36.0338C24.6244 35.7221 24.7245 35.3648 24.7252 35.0005V26.0504L40.0962 36.6474C40.3966 36.8537 40.7476 36.974 41.1113 36.9954C41.475 37.0169 41.8377 36.9387 42.1603 36.7692C42.4828 36.5997 42.753 36.3455 42.9417 36.0338C43.1305 35.7221 43.2305 35.3648 43.2312 35.0005V13.0005C43.2309 12.6359 43.131 12.2784 42.9424 11.9665C42.7537 11.6547 42.4835 11.4002 42.1608 11.2307C41.8381 11.0612 41.4753 10.983 41.1114 11.0046C40.7475 11.0263 40.3965 11.1469 40.0962 11.3535L24.7252 21.9505V13.0005C24.7249 12.6359 24.625 12.2784 24.4364 11.9665C24.2477 11.6547 23.9775 11.4002 23.6548 11.2307C23.3321 11.0612 22.9693 10.983 22.6054 11.0046C22.2415 11.0263 21.8905 11.1469 21.5902 11.3535L5.63417 22.3535C5.36727 22.5373 5.14906 22.7833 4.99831 23.0702C4.84756 23.3571 4.7688 23.6764 4.7688 24.0005C4.7688 24.3245 4.84756 24.6438 4.99831 24.9307C5.14906 25.2176 5.36727 25.4636 5.63417 25.6474Z" fill="#1A1C1F"/>
</g>
<defs>
<clipPath id="clip0_2202_131">
<rect width="48" height="48" fill="white"/>
</clipPath>
</defs>
</svg>
