<svg width="48" height="48" viewBox="0 0 48 48" fill="none" xmlns="http://www.w3.org/2000/svg">
<g clip-path="url(#clip0_2202_319)">
<path fill-rule="evenodd" clip-rule="evenodd" d="M26.4088 11.3522C26.1084 11.1465 25.7576 11.0267 25.3942 11.0055C25.0308 10.9843 24.6685 11.0627 24.3462 11.2321C24.024 11.4015 23.7541 11.6555 23.5654 11.9669C23.3768 12.2782 23.2767 12.6352 23.2758 12.9992V21.9492L7.9038 11.3522C7.6034 11.146 7.25242 11.0257 6.88868 11.0042C6.52495 10.9828 6.16226 11.061 5.8397 11.2304C5.51714 11.3999 5.24694 11.6542 5.05823 11.9659C4.86952 12.2776 4.76944 12.6348 4.7688 12.9992V34.9992C4.7691 35.3637 4.86896 35.7212 5.0576 36.0331C5.24623 36.345 5.51648 36.5994 5.83917 36.769C6.16185 36.9385 6.52471 37.0167 6.88858 36.995C7.25244 36.9734 7.60348 36.8528 7.9038 36.6462L23.2738 26.0492V34.9992C23.274 35.3639 23.3738 35.7216 23.5625 36.0336C23.7512 36.3457 24.0216 36.6002 24.3444 36.7698C24.6672 36.9393 25.0303 37.0174 25.3943 36.9957C25.7583 36.9739 26.1095 36.853 26.4098 36.6462L42.3658 25.6462C42.6327 25.4623 42.8509 25.2164 43.0017 24.9295C43.1524 24.6425 43.2312 24.3233 43.2312 23.9992C43.2312 23.6751 43.1524 23.3559 43.0017 23.0689C42.8509 22.782 42.6327 22.5361 42.3658 22.3522L26.4098 11.3522H26.4088Z" fill="#1A1C1F"/>
</g>
<defs>
<clipPath id="clip0_2202_319">
<rect width="48" height="48" fill="white"/>
</clipPath>
</defs>
</svg>
