<svg width="32" height="32" viewBox="0 0 32 32" fill="none" xmlns="http://www.w3.org/2000/svg">
<g clip-path="url(#clip0_2202_134)">
<path fill-rule="evenodd" clip-rule="evenodd" d="M5.16169 17.6465L13.8647 23.6465C14.1651 23.8527 14.5161 23.9731 14.8798 23.9945C15.2435 24.016 15.6062 23.9378 15.9288 23.7683C16.2514 23.5988 16.5215 23.3446 16.7103 23.0329C16.899 22.7212 16.999 22.3639 16.9997 21.9995V18.4285L24.5687 23.6465C24.8689 23.8535 25.22 23.9744 25.584 23.9962C25.948 24.018 26.3111 23.9399 26.6339 23.7703C26.9567 23.6007 27.227 23.3461 27.4155 23.034C27.6041 22.7219 27.7037 22.3642 27.7037 21.9995V9.99953C27.7034 9.63503 27.6035 9.27753 27.4149 8.96563C27.2263 8.65374 26.956 8.39929 26.6333 8.22976C26.3106 8.06024 25.9478 7.98208 25.5839 8.00371C25.2201 8.02535 24.869 8.14596 24.5687 8.35253L16.9997 13.5705V9.99953C16.9994 9.63503 16.8995 9.27753 16.7109 8.96563C16.5223 8.65374 16.252 8.39929 15.9293 8.22976C15.6066 8.06024 15.2438 7.98208 14.8799 8.00371C14.5161 8.02535 14.165 8.14596 13.8647 8.35253L5.16169 14.3525C4.8948 14.5364 4.67658 14.7824 4.52584 15.0693C4.37509 15.3562 4.29633 15.6754 4.29633 15.9995C4.29633 16.3236 4.37509 16.6429 4.52584 16.9298C4.67658 17.2167 4.8948 17.4627 5.16169 17.6465Z" fill="#1A1C1F"/>
</g>
<defs>
<clipPath id="clip0_2202_134">
<rect width="32" height="32" fill="white"/>
</clipPath>
</defs>
</svg>
