<svg width="24" height="24" viewBox="0 0 24 24" fill="none" xmlns="http://www.w3.org/2000/svg">
<g clip-path="url(#clip0_184_243)">
<path fill-rule="evenodd" clip-rule="evenodd" d="M18.8027 6C19.333 6.00026 19.8416 6.21106 20.2166 6.58608C20.5916 6.96109 20.8024 7.46965 20.8027 8V16C20.8025 16.3647 20.7027 16.7224 20.514 17.0344C20.3253 17.3465 20.0549 17.601 19.7321 17.7706C19.4092 17.9401 19.0462 18.0182 18.6822 17.9965C18.3182 17.9747 17.967 17.8538 17.6667 17.647L12.9997 14.429V16C12.9994 16.3645 12.8995 16.722 12.7109 17.0339C12.5223 17.3458 12.252 17.6002 11.9293 17.7698C11.6066 17.9393 11.2438 18.0175 10.8799 17.9958C10.5161 17.9742 10.165 17.8536 9.86469 17.647L4.06269 13.647C3.7958 13.4631 3.57758 13.2172 3.42684 12.9303C3.27609 12.6433 3.19733 12.3241 3.19733 12C3.19733 11.6759 3.27609 11.3567 3.42684 11.0697C3.57758 10.7828 3.7958 10.5369 4.06269 10.353L9.86469 6.353C10.1651 6.14679 10.5161 6.02648 10.8798 6.00502C11.2435 5.98357 11.6062 6.06178 11.9288 6.23124C12.2514 6.4007 12.5216 6.65498 12.7103 6.96667C12.899 7.27836 12.999 7.63564 12.9997 8V9.571L17.6667 6.353C18.0009 6.12312 18.397 6.00004 18.8027 6ZM10.9997 8L5.19769 12L10.9997 16V8ZM18.8027 8L12.9997 12L18.8027 16V8Z" fill="#1A1C1F"/>
</g>
<defs>
<clipPath id="clip0_184_243">
<rect width="24" height="24" fill="white"/>
</clipPath>
</defs>
</svg>
