<svg width="12" height="12" viewBox="0 0 12 12" fill="none" xmlns="http://www.w3.org/2000/svg">
<g clip-path="url(#clip0_231_78)">
<path fill-rule="evenodd" clip-rule="evenodd" d="M9.22164 2.99036C9.37975 2.99036 9.53631 3.0215 9.68239 3.08201C9.82846 3.14251 9.96119 3.2312 10.073 3.343C10.1848 3.4548 10.2735 3.58753 10.334 3.73361C10.3945 3.87968 10.4256 4.03625 10.4256 4.19436V7.80636C10.4252 8.02565 10.3649 8.24066 10.2513 8.42823C10.1377 8.61579 9.97505 8.7688 9.78091 8.87076C9.58676 8.97272 9.36847 9.01977 9.14956 9.00683C8.93065 8.9939 8.71942 8.92147 8.53864 8.79736L6.60264 7.46236V7.80636C6.60232 8.02581 6.54208 8.24101 6.42842 8.42873C6.31475 8.61645 6.15199 8.76957 5.95767 8.87157C5.76336 8.97356 5.54489 9.02055 5.32583 9.00747C5.10676 8.9944 4.89543 8.92174 4.71464 8.79736L2.09464 6.99136C1.93417 6.88064 1.80298 6.7326 1.71237 6.55998C1.62175 6.38736 1.5744 6.19532 1.5744 6.00036C1.5744 5.8054 1.62175 5.61335 1.71237 5.44073C1.80298 5.26811 1.93417 5.12008 2.09464 5.00936L4.71464 3.20336C4.89544 3.07906 5.10671 3.0064 5.32572 2.99318C5.54473 2.97997 5.7632 3.0267 5.95764 3.12836C6.35364 3.33636 6.60264 3.74736 6.60264 4.19436V4.53836L8.53864 3.20336C8.74264 3.06236 8.98164 2.99036 9.22164 2.99036ZM5.39964 4.19436L2.77864 6.00036L5.39864 7.80636L5.39964 4.19436ZM9.22264 4.19436L6.60164 6.00036L9.22164 7.80636V4.19436H9.22264Z" fill="#1A1C1F"/>
</g>
<defs>
<clipPath id="clip0_231_78">
<rect width="12" height="12" fill="white"/>
</clipPath>
</defs>
</svg>
