<svg width="12" height="12" viewBox="0 0 12 12" fill="none" xmlns="http://www.w3.org/2000/svg">
<g clip-path="url(#clip0_2202_340)">
<path fill-rule="evenodd" clip-rule="evenodd" d="M7.28184 3.21155C7.10163 3.08777 6.89105 3.01552 6.6728 3.0026C6.45455 2.98968 6.23692 3.03659 6.04337 3.13825C5.84981 3.23992 5.68768 3.39249 5.57445 3.57951C5.46123 3.76654 5.4012 3.98092 5.40084 4.19955V4.54256L3.47084 3.21155C3.29063 3.08777 3.08005 3.01552 2.8618 3.0026C2.64356 2.98968 2.42592 3.03659 2.23237 3.13825C2.03881 3.23992 1.87668 3.39249 1.76345 3.57951C1.65023 3.76654 1.5902 3.98092 1.58984 4.19955V7.79955C1.58998 8.01816 1.64983 8.23258 1.76293 8.41966C1.87603 8.60674 2.03809 8.75937 2.2316 8.86106C2.42511 8.96276 2.64273 9.00966 2.86096 8.99671C3.07918 8.98375 3.28972 8.91143 3.46984 8.78755L5.40084 7.45755V7.79955C5.40085 8.01833 5.46067 8.23293 5.57382 8.42017C5.68697 8.6074 5.84915 8.76014 6.04283 8.86187C6.23651 8.9636 6.45432 9.01045 6.67269 8.99735C6.89107 8.98425 7.10171 8.91171 7.28184 8.78755L9.89284 6.98755C10.0525 6.87693 10.183 6.72926 10.2731 6.5572C10.3632 6.38513 10.4103 6.19379 10.4103 5.99955C10.4103 5.80532 10.3632 5.61398 10.2731 5.44191C10.183 5.26985 10.0525 5.12218 9.89284 5.01155L7.28184 3.21155Z" fill="#1A1C1F"/>
</g>
<defs>
<clipPath id="clip0_2202_340">
<rect width="12" height="12" fill="white"/>
</clipPath>
</defs>
</svg>
