<svg width="28" height="28" viewBox="0 0 28 28" fill="none" xmlns="http://www.w3.org/2000/svg">
<g clip-path="url(#clip0_184_241)">
<path fill-rule="evenodd" clip-rule="evenodd" d="M22.4905 7.00043C22.9546 7.00069 23.3995 7.18515 23.7276 7.51328C24.0558 7.84141 24.2402 8.28638 24.2405 8.75043V19.2504C24.2402 19.5693 24.1527 19.8821 23.9877 20.1549C23.8226 20.4278 23.5861 20.6503 23.3038 20.7987C23.0215 20.947 22.7041 21.0154 22.3857 20.9965C22.0674 20.9776 21.7603 20.8721 21.4975 20.6914L14.8745 16.1254V19.2504C14.8742 19.5693 14.7867 19.8821 14.6217 20.1549C14.4566 20.4278 14.2201 20.6503 13.9378 20.7987C13.6555 20.947 13.3381 21.0154 13.0197 20.9965C12.7014 20.9776 12.3943 20.8721 12.1315 20.6914L4.51651 15.4414C4.28302 15.2805 4.09213 15.0653 3.96026 14.8143C3.82839 14.5633 3.75949 14.284 3.75949 14.0004C3.75949 13.7169 3.82839 13.4376 3.96026 13.1866C4.09213 12.9355 4.28302 12.7203 4.51651 12.5594L12.1315 7.30943C12.3944 7.12913 12.7014 7.02395 13.0196 7.00524C13.3378 6.98652 13.6551 7.05497 13.9373 7.20321C14.2195 7.35146 14.4559 7.57387 14.621 7.84651C14.7862 8.11915 14.8738 8.43167 14.8745 8.75043V11.8754L21.4975 7.30943C21.7955 7.10443 22.1425 7.00043 22.4905 7.00043ZM13.1245 8.75043L5.50951 14.0004L13.1245 19.2504V8.75043ZM22.4905 8.75043L14.8745 14.0004L22.4905 19.2504V8.75043Z" fill="#1A1C1F"/>
</g>
<defs>
<clipPath id="clip0_184_241">
<rect width="28" height="28" fill="white"/>
</clipPath>
</defs>
</svg>
