<svg width="24" height="24" viewBox="0 0 24 24" fill="none" xmlns="http://www.w3.org/2000/svg">
<g clip-path="url(#clip0_3479_103)">
<path fill-rule="evenodd" clip-rule="evenodd" d="M21.572 13.0171C21.572 8.89206 18.377 5.45006 14.252 5.10906L14.656 4.70606C14.7628 4.61341 14.8484 4.49899 14.9072 4.37049C14.966 4.24199 14.9967 4.10238 14.997 3.96106C14.997 3.43406 14.532 3.00006 13.974 3.00006C13.7383 2.99563 13.5081 3.07223 13.322 3.21706L11.059 5.51206C10.9675 5.59999 10.8953 5.70607 10.8471 5.82351C10.7988 5.94094 10.7757 6.06715 10.779 6.19406C10.779 6.47406 10.873 6.72106 11.059 6.90706L13.228 9.11006C13.414 9.29606 13.663 9.39006 13.973 9.39006C14.5 9.39006 14.934 8.92406 14.934 8.39706C14.9357 8.26758 14.9088 8.13931 14.8552 8.02143C14.8016 7.90354 14.7227 7.79893 14.624 7.71506L14.066 7.09506C17.166 7.31206 19.586 9.91706 19.586 13.0491C19.586 14.5691 18.966 16.0881 17.818 17.2661C17.7289 17.3559 17.6583 17.4625 17.6105 17.5798C17.5626 17.697 17.5383 17.8225 17.539 17.9491C17.5411 18.2115 17.6463 18.4626 17.8319 18.6482C18.0175 18.8338 18.2686 18.939 18.531 18.9411C18.6576 18.9418 18.7831 18.9175 18.9003 18.8696C19.0176 18.8218 19.1242 18.7512 19.214 18.6621C19.9607 17.9239 20.5535 17.045 20.958 16.0762C21.3626 15.1074 21.571 14.068 21.571 13.0181L21.572 13.0171Z" fill="#1A1C1F"/>
</g>
<defs>
<clipPath id="clip0_3479_103">
<rect width="24" height="24" fill="white"/>
</clipPath>
</defs>
</svg>
