<svg width="14" height="14" viewBox="0 0 14 14" fill="none" xmlns="http://www.w3.org/2000/svg">
<g clip-path="url(#clip0_2202_337)">
<path fill-rule="evenodd" clip-rule="evenodd" d="M8.49425 3.7462C8.284 3.60211 8.03844 3.51811 7.78399 3.50324C7.52955 3.48837 7.27587 3.54319 7.05027 3.6618C6.82467 3.78041 6.63571 3.95832 6.50372 4.17636C6.37173 4.39441 6.30173 4.64432 6.30125 4.8992V5.2992L4.04825 3.7462C3.838 3.60184 3.59233 3.51761 3.33773 3.5026C3.08313 3.48758 2.82927 3.54235 2.6035 3.66099C2.37774 3.77964 2.18865 3.95766 2.05661 4.17586C1.92458 4.39406 1.85461 4.64416 1.85425 4.8992V9.0992C1.85426 9.35438 1.92402 9.6047 2.05598 9.82311C2.18794 10.0415 2.37708 10.2197 2.60297 10.3384C2.82886 10.4571 3.08289 10.5118 3.33762 10.4966C3.59235 10.4815 3.83808 10.3969 4.04825 10.2522L6.30025 8.6992V9.0992C6.30013 9.35454 6.36986 9.60505 6.50187 9.82362C6.63388 10.0422 6.82315 10.2205 7.0492 10.3392C7.27526 10.458 7.52948 10.5126 7.78436 10.4973C8.03924 10.482 8.28507 10.3972 8.49525 10.2522L11.5412 8.1522C11.7277 8.02321 11.8801 7.85092 11.9854 7.6501C12.0906 7.44928 12.1456 7.22593 12.1456 6.9992C12.1456 6.77247 12.0906 6.54912 11.9854 6.3483C11.8801 6.14748 11.7277 5.97519 11.5412 5.8462L8.49525 3.7462H8.49425Z" fill="#1A1C1F"/>
</g>
<defs>
<clipPath id="clip0_2202_337">
<rect width="14" height="14" fill="white"/>
</clipPath>
</defs>
</svg>
