<svg width="48" height="48" viewBox="0 0 48 48" fill="none" xmlns="http://www.w3.org/2000/svg">
<g clip-path="url(#clip0_2202_66)">
<path fill-rule="evenodd" clip-rule="evenodd" d="M41.2312 11.0003C41.7616 11.0006 42.2701 11.2114 42.6451 11.5864C43.0201 11.9614 43.2309 12.47 43.2312 13.0003V35.0003C43.2309 35.3648 43.131 35.7223 42.9424 36.0342C42.7538 36.3461 42.4835 36.6006 42.1608 36.7701C41.8381 36.9396 41.4753 37.0178 41.1114 36.9961C40.7476 36.9745 40.3965 36.8539 40.0962 36.6473L24.7252 26.0503V35.0003C24.7249 35.3648 24.625 35.7223 24.4364 36.0342C24.2478 36.3461 23.9775 36.6006 23.6548 36.7701C23.3321 36.9396 22.9693 37.0178 22.6054 36.9961C22.2416 36.9745 21.8905 36.8539 21.5902 36.6473L5.6342 25.6473C5.3673 25.4634 5.14909 25.2175 4.99834 24.9306C4.84759 24.6437 4.76883 24.3244 4.76883 24.0003C4.76883 23.6762 4.84759 23.357 4.99834 23.0701C5.14909 22.7831 5.3673 22.5372 5.6342 22.3533L21.5902 11.3533C21.8906 11.1471 22.2416 11.0268 22.6053 11.0053C22.969 10.9839 23.3317 11.0621 23.6543 11.2315C23.9769 11.401 24.2471 11.6553 24.4358 11.967C24.6245 12.2787 24.7246 12.6359 24.7252 13.0003V21.9503L40.0962 11.3533C40.4362 11.1193 40.8332 11.0003 41.2312 11.0003ZM22.7252 13.0003L6.7692 24.0003L22.7252 35.0003V13.0003ZM41.2312 13.0003L25.2752 24.0003L41.2312 35.0003V13.0003Z" fill="#1A1C1F"/>
</g>
<defs>
<clipPath id="clip0_2202_66">
<rect width="48" height="48" fill="white"/>
</clipPath>
</defs>
</svg>
