<svg width="24" height="24" viewBox="0 0 24 24" fill="none" xmlns="http://www.w3.org/2000/svg">
<g clip-path="url(#clip0_2202_140)">
<path fill-rule="evenodd" clip-rule="evenodd" d="M4.06263 13.6471L9.86463 17.6471C10.165 17.8533 10.516 17.9736 10.8797 17.9951C11.2435 18.0165 11.6062 17.9383 11.9287 17.7689C12.2513 17.5994 12.5215 17.3451 12.7102 17.0334C12.8989 16.7217 12.999 16.3645 12.9996 16.0001V14.4291L17.6666 17.6471C17.9672 17.8537 18.3184 17.9744 18.6824 17.9963C19.0464 18.0181 19.4095 17.9403 19.7326 17.7711C20.0554 17.6014 20.3257 17.3468 20.5143 17.0346C20.7029 16.7225 20.8026 16.3648 20.8026 16.0001V8.0001C20.8025 7.63543 20.7026 7.27775 20.5139 6.96569C20.3253 6.65364 20.0549 6.39908 19.732 6.22952C19.4092 6.05996 19.0461 5.98185 18.6821 6.00363C18.3181 6.02541 17.967 6.14626 17.6666 6.3531L12.9996 9.5711V8.0001C12.9993 7.6356 12.8995 7.2781 12.7108 6.9662C12.5222 6.6543 12.2519 6.39986 11.9293 6.23033C11.6066 6.0608 11.2437 5.98264 10.8799 6.00428C10.516 6.02591 10.165 6.14653 9.86463 6.3531L4.06263 10.3531C3.79574 10.537 3.57752 10.7829 3.42678 11.0698C3.27603 11.3568 3.19727 11.676 3.19727 12.0001C3.19727 12.3242 3.27603 12.6434 3.42678 12.9304C3.57752 13.2173 3.79574 13.4632 4.06263 13.6471Z" fill="#1A1C1F"/>
</g>
<defs>
<clipPath id="clip0_2202_140">
<rect width="24" height="24" fill="white"/>
</clipPath>
</defs>
</svg>
