<svg width="16" height="16" viewBox="0 0 16 16" fill="none" xmlns="http://www.w3.org/2000/svg">
<g clip-path="url(#clip0_3479_152)">
<path fill-rule="evenodd" clip-rule="evenodd" d="M6.39998 14.4C6.1878 14.4 5.98432 14.3157 5.83429 14.1657C5.68426 14.0157 5.59998 13.8122 5.59998 13.6C5.59998 13.19 5.95998 12.8 6.39998 12.8H7.19998V12C5.49997 11.734 3.90698 10.584 3.26698 9.12001C3.18755 8.92656 3.18703 8.7097 3.26553 8.51587C3.34403 8.32204 3.4953 8.16666 3.68695 8.08299C3.87861 7.99932 4.0954 7.99402 4.29091 8.06823C4.48642 8.14244 4.6451 8.29024 4.73298 8.48001C5.20498 9.55801 6.63098 10.4 7.99998 10.4C9.36998 10.4 10.795 9.56001 11.267 8.48001C11.3548 8.29024 11.5135 8.14244 11.709 8.06823C11.9046 7.99402 12.1213 7.99932 12.313 8.08299C12.5046 8.16666 12.6559 8.32204 12.7344 8.51587C12.8129 8.7097 12.8124 8.92656 12.733 9.12001C12.093 10.584 10.501 11.734 8.79998 12V12.8H9.59998C9.81215 12.8 10.0156 12.8843 10.1657 13.0343C10.3157 13.1843 10.4 13.3878 10.4 13.6C10.4 14.01 10.04 14.4 9.59998 14.4H6.39998ZM7.99998 1.60001C9.27798 1.60001 10.4 2.67201 10.4 4.00001V6.80001C10.4 7.11518 10.3379 7.42726 10.2173 7.71845C10.0967 8.00963 9.91989 8.2742 9.69703 8.49706C9.47417 8.71992 9.2096 8.89671 8.91842 9.01732C8.62723 9.13793 8.31515 9.20001 7.99998 9.20001C6.72198 9.20001 5.59998 8.12801 5.59998 6.80001V4.00001C5.59998 3.36349 5.85283 2.75304 6.30292 2.30295C6.75301 1.85286 7.36346 1.60001 7.99998 1.60001Z" fill="#1A1C1F"/>
</g>
<defs>
<clipPath id="clip0_3479_152">
<rect width="16" height="16" fill="white"/>
</clipPath>
</defs>
</svg>
