<svg width="24" height="24" viewBox="0 0 24 24" fill="none" xmlns="http://www.w3.org/2000/svg">
<g clip-path="url(#clip0_3479_146)">
<path fill-rule="evenodd" clip-rule="evenodd" d="M18 10C18.2652 10 18.5196 10.1054 18.7071 10.2929C18.8946 10.4804 19 10.7348 19 11C19 14.528 16.394 17.516 13 18V20H15C15.2652 20 15.5196 20.1054 15.7071 20.2929C15.8946 20.4804 16 20.7348 16 21C16 21.513 15.55 22 15 22H9C8.73478 22 8.48043 21.8946 8.29289 21.7071C8.10536 21.5196 8 21.2652 8 21C8 20.487 8.45 20 9 20H11V18C7.606 17.516 5 14.528 5 11C5 10.7348 5.10536 10.4804 5.29289 10.2929C5.48043 10.1054 5.73478 10 6 10C6.26522 10 6.51957 10.1054 6.70711 10.2929C6.89464 10.4804 7 10.7348 7 11C7 12.3261 7.52678 13.5979 8.46447 14.5355C9.40215 15.4732 10.6739 16 12 16C13.3261 16 14.5979 15.4732 15.5355 14.5355C16.4732 13.5979 17 12.3261 17 11C17 10.7348 17.1054 10.4804 17.2929 10.2929C17.4804 10.1054 17.7348 10 18 10ZM12 2C13.869 2 15.5 3.57 15.5 5.5V11C15.5 11.9283 15.1313 12.8185 14.4749 13.4749C13.8185 14.1313 12.9283 14.5 12 14.5C10.131 14.5 8.5 12.93 8.5 11V5.5C8.5 4.57174 8.86875 3.6815 9.52513 3.02513C10.1815 2.36875 11.0717 2 12 2Z" fill="#1A1C1F"/>
</g>
<defs>
<clipPath id="clip0_3479_146">
<rect width="24" height="24" fill="white"/>
</clipPath>
</defs>
</svg>
