<svg width="20" height="20" viewBox="0 0 20 20" fill="none" xmlns="http://www.w3.org/2000/svg">
<g clip-path="url(#clip0_184_310)">
<path fill-rule="evenodd" clip-rule="evenodd" d="M7.9877 18C7.72249 18 7.46813 17.8946 7.2806 17.7071C7.09306 17.5196 6.9877 17.2652 6.9877 17C6.9877 16.487 7.4377 16 7.9877 16H8.9877V15C6.8617 14.668 4.8717 13.23 4.0717 11.4C3.97506 11.1587 3.97615 10.8893 4.07473 10.6489C4.1733 10.4084 4.36163 10.2157 4.59981 10.1117C4.83799 10.0077 5.1073 10.0005 5.35069 10.0917C5.59408 10.1828 5.79243 10.3651 5.9037 10.6C6.4937 11.948 8.2757 13 9.9877 13C11.7007 13 13.4817 11.95 14.0717 10.6C14.1215 10.4757 14.1957 10.3627 14.2901 10.2676C14.3844 10.1725 14.4968 10.0974 14.6207 10.0466C14.7446 9.99578 14.8774 9.97039 15.0113 9.97191C15.1452 9.97343 15.2775 10.0018 15.4002 10.0554C15.5229 10.109 15.6336 10.1867 15.7257 10.2839C15.8179 10.3811 15.8895 10.4957 15.9365 10.6212C15.9835 10.7466 16.0047 10.8801 15.9991 11.0139C15.9935 11.1477 15.961 11.279 15.9037 11.4C15.1047 13.23 13.1137 14.668 10.9877 15V16H11.9877C12.2529 16 12.5073 16.1054 12.6948 16.2929C12.8823 16.4804 12.9877 16.7348 12.9877 17C12.9877 17.513 12.5377 18 11.9877 18H7.9877ZM9.9877 2C11.5857 2 12.9877 3.34 12.9877 5V8.5C12.9877 9.29565 12.6716 10.0587 12.109 10.6213C11.5464 11.1839 10.7834 11.5 9.9877 11.5C8.3897 11.5 6.9877 10.16 6.9877 8.5V5C6.9877 4.20435 7.30377 3.44129 7.86638 2.87868C8.42899 2.31607 9.19205 2 9.9877 2ZM9.9877 4C9.4747 4 8.9877 4.45 8.9877 5V8.5C8.9877 8.76522 9.09306 9.01957 9.2806 9.20711C9.46813 9.39464 9.72249 9.5 9.9877 9.5C10.5007 9.5 10.9877 9.05 10.9877 8.5V5C10.9877 4.73478 10.8823 4.48043 10.6948 4.29289C10.5073 4.10536 10.2529 4 9.9877 4Z" fill="#1A1C1F"/>
</g>
<defs>
<clipPath id="clip0_184_310">
<rect width="20" height="20" fill="white"/>
</clipPath>
</defs>
</svg>
