<svg width="14" height="14" viewBox="0 0 14 14" fill="none" xmlns="http://www.w3.org/2000/svg">
<g clip-path="url(#clip0_3479_155)">
<path fill-rule="evenodd" clip-rule="evenodd" d="M5.6 12.6C5.41434 12.6 5.2363 12.5262 5.10502 12.395C4.97375 12.2637 4.9 12.0856 4.9 11.9C4.9 11.541 5.215 11.2 5.6 11.2H6.3V10.5C4.812 10.267 3.419 9.25999 2.859 7.97999C2.79295 7.81147 2.79475 7.6239 2.86402 7.45668C2.93329 7.28945 3.06465 7.15555 3.23052 7.0831C3.3964 7.01064 3.58389 7.00525 3.75365 7.06807C3.92341 7.13088 4.06224 7.25702 4.141 7.41999C4.554 8.36299 5.801 9.09999 7 9.09999C8.2 9.09999 9.446 8.36499 9.859 7.41999C9.93775 7.25702 10.0766 7.13088 10.2463 7.06807C10.4161 7.00525 10.6036 7.01064 10.7695 7.0831C10.9353 7.15555 11.0667 7.28945 11.136 7.45668C11.2052 7.6239 11.207 7.81147 11.141 7.97999C10.581 9.26099 9.189 10.268 7.7 10.5V11.2H8.4C8.58565 11.2 8.7637 11.2737 8.89497 11.405C9.02625 11.5363 9.1 11.7143 9.1 11.9C9.09495 12.0841 9.01958 12.2592 8.88938 12.3894C8.75919 12.5196 8.58405 12.5949 8.4 12.6H5.6ZM7 1.39999C8.118 1.39999 9.1 2.33799 9.1 3.49999V5.94999C9.1 6.50695 8.87875 7.04109 8.48492 7.43492C8.09109 7.82874 7.55695 8.04999 7 8.04999C5.882 8.04999 4.9 7.11199 4.9 5.94999V3.49999C4.9 2.33999 5.84 1.39999 7 1.39999Z" fill="#1A1C1F"/>
</g>
<defs>
<clipPath id="clip0_3479_155">
<rect width="14" height="14" fill="white"/>
</clipPath>
</defs>
</svg>
