<svg width="28" height="28" viewBox="0 0 28 28" fill="none" xmlns="http://www.w3.org/2000/svg">
<g clip-path="url(#clip0_3479_143)">
<path fill-rule="evenodd" clip-rule="evenodd" d="M11.375 26.25C11.1429 26.25 10.9204 26.1578 10.7563 25.9937C10.5922 25.8296 10.5 25.6071 10.5 25.375C10.5 24.926 10.894 24.5 11.375 24.5H13.125V21L13.128 20.952C11.2023 20.7372 9.42341 19.8202 8.13144 18.3762C6.83947 16.9322 6.12512 15.0626 6.125 13.125C6.125 12.8929 6.21719 12.6704 6.38128 12.5063C6.54538 12.3422 6.76794 12.25 7 12.25C7.23206 12.25 7.45462 12.3422 7.61872 12.5063C7.78281 12.6704 7.875 12.8929 7.875 13.125C7.875 14.7495 8.52031 16.3074 9.66897 17.456C10.8176 18.6047 12.3755 19.25 14 19.25C15.6245 19.25 17.1824 18.6047 18.331 17.456C19.4797 16.3074 20.125 14.7495 20.125 13.125C20.125 12.8929 20.2172 12.6704 20.3813 12.5063C20.5454 12.3422 20.7679 12.25 21 12.25C21.2321 12.25 21.4546 12.3422 21.6187 12.5063C21.7828 12.6704 21.875 12.8929 21.875 13.125C21.8749 15.0624 21.1607 16.9319 19.8689 18.3759C18.5772 19.8198 16.7985 20.737 14.873 20.952L14.875 21V24.5H16.625C17.108 24.5 17.5 24.892 17.5 25.375C17.5 25.824 17.106 26.25 16.625 26.25H11.375ZM14 1.75C16.353 1.75 18.276 3.797 18.375 6.125V13.125C18.375 13.6995 18.2618 14.2684 18.042 14.7992C17.8221 15.33 17.4998 15.8123 17.0936 16.2186C16.6873 16.6248 16.205 16.9471 15.6742 17.167C15.1434 17.3868 14.5745 17.5 14 17.5C11.647 17.5 9.724 15.453 9.625 13.125V6.125C9.625 4.96468 10.0859 3.85188 10.9064 3.03141C11.7269 2.21094 12.8397 1.75 14 1.75Z" fill="#1A1C1F"/>
</g>
<defs>
<clipPath id="clip0_3479_143">
<rect width="28" height="28" fill="white"/>
</clipPath>
</defs>
</svg>
