<svg width="32" height="32" viewBox="0 0 32 32" fill="none" xmlns="http://www.w3.org/2000/svg">
<g clip-path="url(#clip0_3479_140)">
<path fill-rule="evenodd" clip-rule="evenodd" d="M13 30C12.7348 30 12.4804 29.8946 12.2929 29.7071C12.1054 29.5196 12 29.2652 12 29C12 28.487 12.45 28 13 28H15V24L15.003 23.945C12.8023 23.6995 10.7694 22.6514 9.29293 21.0011C7.81647 19.3509 7.00012 17.2143 7 15C7 14.7348 7.10536 14.4804 7.29289 14.2929C7.48043 14.1054 7.73478 14 8 14C8.26522 14 8.51957 14.1054 8.70711 14.2929C8.89464 14.4804 9 14.7348 9 15C9 16.8565 9.7375 18.637 11.0503 19.9497C12.363 21.2625 14.1435 22 16 22C17.8565 22 19.637 21.2625 20.9497 19.9497C22.2625 18.637 23 16.8565 23 15C23 14.7348 23.1054 14.4804 23.2929 14.2929C23.4804 14.1054 23.7348 14 24 14C24.2652 14 24.5196 14.1054 24.7071 14.2929C24.8946 14.4804 25 14.7348 25 15C24.9999 17.2142 24.1837 19.3506 22.7074 21.0008C21.2312 22.6511 19.1985 23.6993 16.998 23.945L17 24V28H19C19.2652 28 19.5196 28.1054 19.7071 28.2929C19.8946 28.4804 20 28.7348 20 29C20 29.513 19.55 30 19 30H13ZM16 2C18.689 2 20.886 4.34 21 7V15C21 16.3261 20.4732 17.5979 19.5355 18.5355C18.5979 19.4732 17.3261 20 16 20C13.311 20 11.114 17.66 11 15V7C11 5.67392 11.5268 4.40215 12.4645 3.46447C13.4021 2.52678 14.6739 2 16 2Z" fill="#1A1C1F"/>
</g>
<defs>
<clipPath id="clip0_3479_140">
<rect width="32" height="32" fill="white"/>
</clipPath>
</defs>
</svg>
