<svg width="16" height="16" viewBox="0 0 16 16" fill="none" xmlns="http://www.w3.org/2000/svg">
<g clip-path="url(#clip0_184_312)">
<path fill-rule="evenodd" clip-rule="evenodd" d="M6.40001 14.4C6.18783 14.4 5.98435 14.3157 5.83432 14.1657C5.68429 14.0157 5.60001 13.8122 5.60001 13.6C5.60001 13.19 5.96001 12.8 6.40001 12.8H7.20001V12C5.50001 11.734 3.90701 10.584 3.26701 9.12001C3.18758 8.92656 3.18706 8.7097 3.26556 8.51587C3.34406 8.32204 3.49533 8.16666 3.68698 8.08299C3.87864 7.99932 4.09543 7.99402 4.29094 8.06823C4.48645 8.14244 4.64513 8.29024 4.73301 8.48001C5.20501 9.55801 6.63101 10.4 8.00001 10.4C9.37001 10.4 10.795 9.56001 11.267 8.48001C11.3549 8.29024 11.5136 8.14244 11.7091 8.06823C11.9046 7.99402 12.1214 7.99932 12.313 8.08299C12.5047 8.16666 12.656 8.32204 12.7344 8.51587C12.8129 8.7097 12.8124 8.92656 12.733 9.12001C12.093 10.584 10.501 11.734 8.80001 12V12.8H9.60001C9.81218 12.8 10.0157 12.8843 10.1657 13.0343C10.3157 13.1843 10.4 13.3878 10.4 13.6C10.4 14.01 10.04 14.4 9.60001 14.4H6.40001ZM8.00001 1.60001C9.27801 1.60001 10.4 2.67201 10.4 4.00001V6.80001C10.4 7.11518 10.3379 7.42726 10.2173 7.71845C10.0967 8.00963 9.91992 8.2742 9.69706 8.49706C9.4742 8.71992 9.20963 8.89671 8.91845 9.01732C8.62726 9.13793 8.31518 9.20001 8.00001 9.20001C6.72201 9.20001 5.60001 8.12801 5.60001 6.80001V4.00001C5.60001 3.36349 5.85286 2.75304 6.30295 2.30295C6.75304 1.85286 7.36349 1.60001 8.00001 1.60001ZM8.00001 3.20001C7.59001 3.20001 7.20001 3.56001 7.20001 4.00001V6.80001C7.20001 7.01218 7.28429 7.21566 7.43432 7.36569C7.58435 7.51572 7.78783 7.60001 8.00001 7.60001C8.41001 7.60001 8.80001 7.24001 8.80001 6.80001V4.00001C8.80001 3.78783 8.71572 3.58435 8.56569 3.43432C8.41566 3.28429 8.21218 3.20001 8.00001 3.20001Z" fill="#1A1C1F"/>
</g>
<defs>
<clipPath id="clip0_184_312">
<rect width="16" height="16" fill="white"/>
</clipPath>
</defs>
</svg>
