<svg width="28" height="28" viewBox="0 0 28 28" fill="none" xmlns="http://www.w3.org/2000/svg">
<g clip-path="url(#clip0_184_332)">
<path fill-rule="evenodd" clip-rule="evenodd" d="M10.5 20.125V7.87497C10.5 7.38297 10.883 6.99997 11.375 6.99997C11.867 6.99997 12.25 7.38297 12.25 7.87497V20.125C12.2515 20.2403 12.2299 20.3547 12.1864 20.4616C12.143 20.5684 12.0786 20.6654 11.997 20.747C11.9155 20.8285 11.8184 20.8929 11.7116 20.9364C11.6048 20.9798 11.4903 21.0014 11.375 21C11.2597 21.0014 11.1452 20.9798 11.0384 20.9364C10.9316 20.8929 10.8345 20.8285 10.753 20.747C10.6715 20.6654 10.6071 20.5684 10.5636 20.4616C10.5202 20.3547 10.4985 20.2403 10.5 20.125ZM15.75 20.125V7.87497C15.75 7.38297 16.133 6.99997 16.625 6.99997C17.117 6.99997 17.5 7.38297 17.5 7.87497V20.125C17.5015 20.2403 17.4799 20.3547 17.4364 20.4616C17.393 20.5684 17.3286 20.6654 17.247 20.747C17.1655 20.8285 17.0684 20.8929 16.9616 20.9364C16.8548 20.9798 16.7403 21.0014 16.625 21C16.5097 21.0014 16.3952 20.9798 16.2884 20.9364C16.1816 20.8929 16.0845 20.8285 16.003 20.747C15.9215 20.6654 15.8571 20.5684 15.8136 20.4616C15.7702 20.3547 15.7485 20.2403 15.75 20.125Z" fill="#1A1C1F"/>
</g>
<defs>
<clipPath id="clip0_184_332">
<rect width="28" height="28" fill="white"/>
</clipPath>
</defs>
</svg>
