<svg width="16" height="16" viewBox="0 0 16 16" fill="none" xmlns="http://www.w3.org/2000/svg">
<g clip-path="url(#clip0_184_338)">
<path fill-rule="evenodd" clip-rule="evenodd" d="M5.59998 11.203V4.79697C5.61024 4.59171 5.69901 4.39826 5.84791 4.25662C5.99681 4.11497 6.19446 4.03598 6.39998 4.03598C6.60549 4.03598 6.80314 4.11497 6.95204 4.25662C7.10094 4.39826 7.18971 4.59171 7.19998 4.79697V11.203C7.18971 11.4082 7.10094 11.6017 6.95204 11.7433C6.80314 11.885 6.60549 11.964 6.39998 11.964C6.19446 11.964 5.99681 11.885 5.84791 11.7433C5.69901 11.6017 5.61024 11.4082 5.59998 11.203ZM8.79998 11.203V4.79697C8.79998 4.35897 9.15698 3.99997 9.59198 3.99997C10.042 3.99997 10.4 4.35997 10.4 4.79697V11.203C10.393 11.4126 10.3102 11.6127 10.167 11.766C10.0917 11.8415 10.002 11.9012 9.90326 11.9414C9.80448 11.9816 9.69861 12.0015 9.59198 12C9.38155 11.9984 9.18026 11.9138 9.03193 11.7645C8.8836 11.6152 8.80023 11.4134 8.79998 11.203Z" fill="#1A1C1F"/>
</g>
<defs>
<clipPath id="clip0_184_338">
<rect width="16" height="16" fill="white"/>
</clipPath>
</defs>
</svg>
