<svg width="12" height="12" viewBox="0 0 12 12" fill="none" xmlns="http://www.w3.org/2000/svg">
<g clip-path="url(#clip0_231_90)">
<path fill-rule="evenodd" clip-rule="evenodd" d="M4.19397 8.39189V3.57189C4.20283 3.41823 4.27011 3.27377 4.38204 3.16811C4.49396 3.06246 4.64205 3.0036 4.79597 3.0036C4.94989 3.0036 5.09798 3.06246 5.2099 3.16811C5.32182 3.27377 5.38911 3.41823 5.39797 3.57189V8.39189C5.38911 8.54555 5.32182 8.69001 5.2099 8.79566C5.09798 8.90132 4.94989 8.96018 4.79597 8.96018C4.64205 8.96018 4.49396 8.90132 4.38204 8.79566C4.27011 8.69001 4.20283 8.54555 4.19397 8.39189ZM6.60197 8.39189V3.57189C6.61083 3.41823 6.67811 3.27377 6.79004 3.16811C6.90196 3.06246 7.05005 3.0036 7.20397 3.0036C7.35789 3.0036 7.50598 3.06246 7.6179 3.16811C7.72982 3.27377 7.79711 3.41823 7.80597 3.57189V8.39189C7.80597 8.54489 7.73597 8.69789 7.63097 8.81589C7.54739 8.90137 7.44019 8.95993 7.32311 8.98407C7.20603 9.0082 7.0844 8.99682 6.97383 8.95137C6.86327 8.90591 6.7688 8.82847 6.70254 8.72896C6.63629 8.62946 6.60127 8.51143 6.60197 8.39189Z" fill="#1A1C1F"/>
</g>
<defs>
<clipPath id="clip0_231_90">
<rect width="12" height="12" fill="white"/>
</clipPath>
</defs>
</svg>
