<svg width="64" height="64" viewBox="0 0 64 64" fill="none" xmlns="http://www.w3.org/2000/svg">
<g clip-path="url(#clip0_2202_445)">
<path fill-rule="evenodd" clip-rule="evenodd" d="M25.5 16C25.8978 16 26.2794 16.158 26.5607 16.4393C26.842 16.7206 27 17.1022 27 17.5V46.5C27 46.8978 26.842 47.2794 26.5607 47.5607C26.2794 47.842 25.8978 48 25.5 48C25.1022 48 24.7206 47.842 24.4393 47.5607C24.158 47.2794 24 46.8978 24 46.5V17.5C24 17.1022 24.158 16.7206 24.4393 16.4393C24.7206 16.158 25.1022 16 25.5 16ZM38.5 16C38.8978 16 39.2794 16.158 39.5607 16.4393C39.842 16.7206 40 17.1022 40 17.5V46.5C40 46.8978 39.842 47.2794 39.5607 47.5607C39.2794 47.842 38.8978 48 38.5 48C38.1022 48 37.7206 47.842 37.4393 47.5607C37.158 47.2794 37 46.8978 37 46.5V17.5C37 17.1022 37.158 16.7206 37.4393 16.4393C37.7206 16.158 38.1022 16 38.5 16Z" fill="#1A1C1F"/>
</g>
<defs>
<clipPath id="clip0_2202_445">
<rect width="64" height="64" fill="white"/>
</clipPath>
</defs>
</svg>
