<svg width="14" height="14" viewBox="0 0 14 14" fill="none" xmlns="http://www.w3.org/2000/svg">
<g clip-path="url(#clip0_184_340)">
<path fill-rule="evenodd" clip-rule="evenodd" d="M4.90002 9.78626V4.18026C4.90961 4.00108 4.98753 3.8324 5.11776 3.70895C5.24798 3.5855 5.42059 3.51669 5.60002 3.51669C5.77946 3.51669 5.95207 3.5855 6.08229 3.70895C6.21252 3.8324 6.29044 4.00108 6.30002 4.18026V9.78626C6.29044 9.96544 6.21252 10.1341 6.08229 10.2576C5.95207 10.381 5.77946 10.4498 5.60002 10.4498C5.42059 10.4498 5.24798 10.381 5.11776 10.2576C4.98753 10.1341 4.90961 9.96544 4.90002 9.78626ZM7.70002 9.78626V4.18026C7.70961 4.00108 7.78753 3.8324 7.91776 3.70895C8.04798 3.5855 8.22059 3.51669 8.40002 3.51669C8.57946 3.51669 8.75207 3.5855 8.88229 3.70895C9.01252 3.8324 9.09044 4.00108 9.10002 4.18026V9.78626C9.09369 9.96952 9.02122 10.1443 8.89602 10.2783C8.83021 10.3444 8.75176 10.3966 8.66535 10.4319C8.57894 10.4671 8.48633 10.4846 8.39302 10.4833C8.20894 10.4819 8.03284 10.408 7.90304 10.2774C7.77325 10.1469 7.70028 9.97035 7.70002 9.78626Z" fill="#1A1C1F"/>
</g>
<defs>
<clipPath id="clip0_184_340">
<rect width="14" height="14" fill="white"/>
</clipPath>
</defs>
</svg>
