<svg width="24" height="24" viewBox="0 0 24 24" fill="none" xmlns="http://www.w3.org/2000/svg">
<g clip-path="url(#clip0_184_334)">
<path fill-rule="evenodd" clip-rule="evenodd" d="M9 17.012V6.96497C9.01161 6.70464 9.1234 6.45886 9.31199 6.27902C9.50059 6.09918 9.7514 5.9992 10.012 5.99997C10.552 5.99997 11 6.42397 11 6.96497V17.012C10.9984 17.2735 10.8938 17.5239 10.7089 17.7089C10.5239 17.8938 10.2735 17.9984 10.012 18C9.88068 18.0016 9.75033 17.9773 9.62839 17.9285C9.50646 17.8797 9.39533 17.8073 9.30136 17.7156C9.20738 17.6238 9.1324 17.5145 9.08069 17.3938C9.02899 17.273 9.00157 17.1433 9 17.012ZM13 17.012V6.96497C13 6.42397 13.447 5.99997 13.988 5.99997C14.529 5.99997 14.977 6.42397 15 6.96497V17.012C14.9984 17.1433 14.971 17.273 14.9193 17.3938C14.8676 17.5145 14.7926 17.6238 14.6986 17.7156C14.6047 17.8073 14.4935 17.8797 14.3716 17.9285C14.2497 17.9773 14.1193 18.0016 13.988 18C13.7265 17.9984 13.4761 17.8938 13.2911 17.7089C13.1062 17.5239 13.0016 17.2735 13 17.012Z" fill="#1A1C1F"/>
</g>
<defs>
<clipPath id="clip0_184_334">
<rect width="24" height="24" fill="white"/>
</clipPath>
</defs>
</svg>
