<svg width="32" height="32" viewBox="0 0 32 32" fill="none" xmlns="http://www.w3.org/2000/svg">
<g clip-path="url(#clip0_184_330)">
<path fill-rule="evenodd" clip-rule="evenodd" d="M12 23V9C12 8.437 12.438 8 13 8C13.563 8 14 8.438 14 9V23C14 23.563 13.562 24 13 24C12.437 24 12 23.562 12 23ZM18 23V9C18 8.437 18.438 8 19 8C19.563 8 20 8.438 20 9V23C20 23.563 19.562 24 19 24C18.437 24 18 23.562 18 23Z" fill="#1A1C1F"/>
</g>
<defs>
<clipPath id="clip0_184_330">
<rect width="32" height="32" fill="white"/>
</clipPath>
</defs>
</svg>
