<svg width="20" height="20" viewBox="0 0 20 20" fill="none" xmlns="http://www.w3.org/2000/svg">
<g clip-path="url(#clip0_184_336)">
<path fill-rule="evenodd" clip-rule="evenodd" d="M7 14.0039V5.99594C7 5.44994 7.447 4.99994 8.01 4.99994C8.553 4.99994 9 5.44994 9 5.99594V14.0039C8.99974 14.267 8.89555 14.5193 8.71011 14.7058C8.52468 14.8924 8.27303 14.9981 8.01 14.9999C7.447 14.9999 7 14.5499 7 14.0039ZM11 14.0039V5.99594C11 5.44894 11.447 4.99994 11.99 4.99994C12.553 4.99994 13 5.44994 13 5.99594V14.0039C13 14.2579 12.883 14.5119 12.709 14.7069C12.6149 14.8015 12.5028 14.8762 12.3793 14.9265C12.2558 14.9769 12.1234 15.0018 11.99 14.9999C11.727 14.9981 11.4753 14.8924 11.2899 14.7058C11.1045 14.5193 11.0003 14.267 11 14.0039Z" fill="#1A1C1F"/>
</g>
<defs>
<clipPath id="clip0_184_336">
<rect width="20" height="20" fill="white"/>
</clipPath>
</defs>
</svg>
