<svg width="12" height="12" viewBox="0 0 12 12" fill="none" xmlns="http://www.w3.org/2000/svg">
<g clip-path="url(#clip0_2202_467)">
<path fill-rule="evenodd" clip-rule="evenodd" d="M3 9.00518V3.02218C3 2.68218 3.293 2.40118 3.62 2.40118C3.738 2.40118 3.843 2.43618 3.949 2.50618L8.567 5.17618C8.70002 5.26775 8.80889 5.39016 8.88429 5.53296C8.9597 5.67576 8.9994 5.8347 9 5.99618C8.99924 6.1575 8.95946 6.31624 8.88406 6.45885C8.80866 6.60146 8.69988 6.72372 8.567 6.81518L3.937 9.49518C3.84711 9.55621 3.74232 9.59169 3.63384 9.59782C3.52536 9.60395 3.41725 9.58051 3.32105 9.53C3.22485 9.47949 3.14417 9.4038 3.08763 9.31102C3.03109 9.21823 3.0008 9.11184 3 9.00318V9.00518Z" fill="#1A1C1F"/>
</g>
<defs>
<clipPath id="clip0_2202_467">
<rect width="12" height="12" fill="white"/>
</clipPath>
</defs>
</svg>
