<svg width="12" height="12" viewBox="0 0 12 12" fill="none" xmlns="http://www.w3.org/2000/svg">
<g clip-path="url(#clip0_231_92)">
<path fill-rule="evenodd" clip-rule="evenodd" d="M3.61299 2.38912C3.72999 2.38912 3.83599 2.42412 3.94199 2.49512L8.57499 5.17312C8.84499 5.36112 9.00999 5.66612 9.00999 5.99512C9.00999 6.32412 8.84499 6.62912 8.57499 6.81712L3.92999 9.50712C3.83992 9.56865 3.7348 9.60451 3.6259 9.61085C3.51701 9.61719 3.40844 9.59377 3.31184 9.5431C3.21524 9.49244 3.13425 9.41644 3.07755 9.32325C3.02085 9.23006 2.99058 9.1232 2.98999 9.01412V3.01112C2.98999 2.67012 3.28399 2.38912 3.61299 2.38912ZM4.20099 4.10412V7.88612L7.63499 5.99612L4.20099 4.10412Z" fill="#1A1C1F"/>
</g>
<defs>
<clipPath id="clip0_231_92">
<rect width="12" height="12" fill="white"/>
</clipPath>
</defs>
</svg>
