<svg width="16" height="16" viewBox="0 0 16 16" fill="none" xmlns="http://www.w3.org/2000/svg">
<g clip-path="url(#clip0_2202_593)">
<path fill-rule="evenodd" clip-rule="evenodd" d="M4.01253 3.19946C4.16853 3.19946 4.32553 3.24646 4.46553 3.33946L9.42953 6.90646C9.78953 7.15646 10.0085 7.56246 10.0085 8.00046C10.0085 8.42246 9.78953 8.84446 9.42953 9.07946L4.43553 12.6755C4.30383 12.7567 4.15226 12.7999 3.99753 12.8005C3.89261 12.8014 3.78855 12.7814 3.69143 12.7417C3.59431 12.702 3.50608 12.6433 3.43189 12.5691C3.35769 12.4949 3.29902 12.4067 3.2593 12.3096C3.21958 12.2124 3.1996 12.1084 3.20053 12.0035V4.01346C3.20053 3.60646 3.51353 3.21646 4.01353 3.20046L4.01253 3.19946ZM4.79453 5.48246V10.5165L8.17153 7.99946L4.79453 5.48246ZM11.2045 11.2045V4.79446C11.2051 4.58298 11.2893 4.38031 11.4388 4.23078C11.5884 4.08124 11.7911 3.99699 12.0025 3.99646C12.2138 3.99725 12.4163 4.08162 12.5656 4.23113C12.7149 4.38064 12.799 4.58316 12.7995 4.79446V11.2045C12.799 11.4158 12.7149 11.6183 12.5656 11.7678C12.4163 11.9173 12.2138 12.0017 12.0025 12.0025C11.7911 12.0019 11.5884 11.9177 11.4388 11.7682C11.2893 11.6186 11.2051 11.4159 11.2045 11.2045Z" fill="#1A1C1F"/>
</g>
<defs>
<clipPath id="clip0_2202_593">
<rect width="16" height="16" fill="white"/>
</clipPath>
</defs>
</svg>
