<svg width="14" height="14" viewBox="0 0 14 14" fill="none" xmlns="http://www.w3.org/2000/svg">
<g clip-path="url(#clip0_2202_558)">
<path fill-rule="evenodd" clip-rule="evenodd" d="M10.489 2.79999C10.6773 2.80078 10.8577 2.87594 10.9909 3.00911C11.124 3.14227 11.1992 3.32266 11.2 3.51099V10.502C11.2008 10.5939 11.1833 10.685 11.1485 10.77C11.1137 10.8551 11.0623 10.9324 10.9973 10.9973C10.9324 11.0623 10.8551 11.1137 10.77 11.1485C10.685 11.1833 10.5939 11.2008 10.502 11.2C10.3666 11.1993 10.2341 11.1612 10.119 11.09L5.74999 7.94499C5.59365 7.84045 5.46549 7.69898 5.37686 7.53311C5.28823 7.36723 5.24186 7.18206 5.24186 6.99399C5.24186 6.80592 5.28823 6.62075 5.37686 6.45487C5.46549 6.28899 5.59365 6.14752 5.74999 6.04299L10.093 2.92399C10.2102 2.84447 10.3484 2.80165 10.49 2.80099L10.489 2.79999ZM9.80499 4.79699L6.84899 6.99999L9.80499 9.20299V4.79699ZM4.19499 9.80499V4.19499C4.1942 4.01038 4.12051 3.83355 3.98997 3.70301C3.85943 3.57246 3.6826 3.49878 3.49799 3.49799C3.3132 3.49851 3.13612 3.57209 3.00536 3.70266C2.8746 3.83323 2.80078 4.0102 2.79999 4.19499V9.80499C2.80078 9.98977 2.8746 10.1667 3.00536 10.2973C3.13612 10.4279 3.3132 10.5015 3.49799 10.502C3.6826 10.5012 3.85943 10.4275 3.98997 10.297C4.12051 10.1664 4.1942 9.9896 4.19499 9.80499Z" fill="#1A1C1F"/>
</g>
<defs>
<clipPath id="clip0_2202_558">
<rect width="14" height="14" fill="white"/>
</clipPath>
</defs>
</svg>
