<svg width="16" height="16" viewBox="0 0 16 16" fill="none" xmlns="http://www.w3.org/2000/svg">
<g clip-path="url(#clip0_2202_574)">
<path fill-rule="evenodd" clip-rule="evenodd" d="M12.8 12.0025V4.01246C12.7992 3.79709 12.7133 3.59075 12.561 3.43846C12.4087 3.28616 12.2023 3.20025 11.987 3.19946C11.8254 3.2002 11.6677 3.24893 11.534 3.33946L6.56995 6.90646C6.20995 7.15646 5.99095 7.56246 5.99095 8.00046C5.99095 8.42246 6.20995 8.84446 6.56995 9.07946L11.564 12.6755C11.6957 12.7567 11.8472 12.7999 12.002 12.8005C12.1069 12.8014 12.2109 12.7814 12.3081 12.7417C12.4052 12.702 12.4934 12.6433 12.5676 12.5691C12.6418 12.4949 12.7005 12.4067 12.7402 12.3096C12.7799 12.2124 12.7999 12.1084 12.799 12.0035L12.8 12.0025ZM4.79495 11.2045V4.79446C4.79442 4.58298 4.71018 4.38031 4.56064 4.23078C4.4111 4.08124 4.20843 3.99699 3.99695 3.99646C3.78564 3.99725 3.58323 4.08162 3.43391 4.23113C3.28458 4.38064 3.20048 4.58316 3.19995 4.79446V11.2045C3.20048 11.4158 3.28458 11.6183 3.43391 11.7678C3.58323 11.9173 3.78564 12.0017 3.99695 12.0025C4.20843 12.0019 4.4111 11.9177 4.56064 11.7682C4.71018 11.6186 4.79442 11.4159 4.79495 11.2045Z" fill="#1A1C1F"/>
</g>
<defs>
<clipPath id="clip0_2202_574">
<rect width="16" height="16" fill="white"/>
</clipPath>
</defs>
</svg>
