<svg width="12" height="12" viewBox="0 0 12 12" fill="none" xmlns="http://www.w3.org/2000/svg">
<g clip-path="url(#clip0_2202_560)">
<path fill-rule="evenodd" clip-rule="evenodd" d="M9 2.388C9.16215 2.38853 9.31751 2.45318 9.43217 2.56783C9.54683 2.68249 9.61147 2.83785 9.612 3V9.012C9.612 9.342 9.353 9.612 9.012 9.612C8.89544 9.6117 8.78123 9.57917 8.682 9.518L4.925 6.812C4.79052 6.72209 4.68028 6.6004 4.60405 6.45772C4.52781 6.31504 4.48793 6.15577 4.48793 5.994C4.48793 5.83223 4.52781 5.67296 4.60405 5.53028C4.68028 5.3876 4.79052 5.26592 4.925 5.176L8.66 2.494C8.76063 2.42561 8.87833 2.38871 9 2.388ZM8.412 4.106L5.87 6L8.412 7.894V4.106ZM3.588 8.412V3.588C3.588 3.258 3.318 2.988 2.988 2.988C2.658 2.988 2.388 3.258 2.388 3.588V8.412C2.388 8.742 2.658 9.012 2.988 9.012C3.318 9.012 3.588 8.742 3.588 8.412Z" fill="#1A1C1F"/>
</g>
<defs>
<clipPath id="clip0_2202_560">
<rect width="12" height="12" fill="white"/>
</clipPath>
</defs>
</svg>
