<svg width="48" height="48" viewBox="0 0 48 48" fill="none" xmlns="http://www.w3.org/2000/svg">
<g clip-path="url(#clip0_2202_601)">
<path fill-rule="evenodd" clip-rule="evenodd" d="M9 35.667V12.333C9 10.51 10.458 9 12.281 9C12.958 9 13.635 9.208 14.208 9.573L33.094 21.292C33.5299 21.596 33.8855 22.0013 34.1304 22.4729C34.3753 22.9446 34.5021 23.4686 34.5 24C34.5 25.094 33.98 26.083 33.094 26.708L14.208 38.427C13.6326 38.7959 12.9645 38.9946 12.281 39C10.458 39 9 37.49 9 35.667ZM39 10V38C39 38.2652 38.8946 38.5196 38.7071 38.7071C38.5196 38.8946 38.2652 39 38 39C37.7348 39 37.4804 38.8946 37.2929 38.7071C37.1054 38.5196 37 38.2652 37 38V10C37 9.73478 37.1054 9.48043 37.2929 9.29289C37.4804 9.10536 37.7348 9 38 9C38.2652 9 38.5196 9.10536 38.7071 9.29289C38.8946 9.48043 39 9.73478 39 10Z" fill="#1A1C1F"/>
</g>
<defs>
<clipPath id="clip0_2202_601">
<rect width="48" height="48" fill="white"/>
</clipPath>
</defs>
</svg>
