<svg width="16" height="16" viewBox="0 0 16 16" fill="none" xmlns="http://www.w3.org/2000/svg">
<g clip-path="url(#clip0_2202_556)">
<path fill-rule="evenodd" clip-rule="evenodd" d="M11.987 3.19995C12.487 3.21595 12.8 3.60595 12.8 4.01295V12.003C12.8009 12.1079 12.781 12.2119 12.7412 12.3091C12.7015 12.4062 12.6429 12.4944 12.5687 12.5686C12.4945 12.6428 12.4062 12.7015 12.3091 12.7412C12.212 12.7809 12.1079 12.8009 12.003 12.8C11.8483 12.7994 11.6967 12.7562 11.565 12.675L6.57001 9.07895C6.39291 8.95994 6.24764 8.79938 6.14689 8.6113C6.04614 8.42321 5.99296 8.21332 5.99201 7.99995C5.99201 7.56195 6.21101 7.15595 6.57101 6.90595L11.534 3.34095C11.6677 3.25007 11.8254 3.20099 11.987 3.19995ZM11.205 5.48295L7.82801 7.99995L11.205 10.517V5.48295ZM4.79501 11.205V4.79495C4.79448 4.58347 4.71024 4.3808 4.5607 4.23126C4.41116 4.08172 4.20849 3.99748 3.99701 3.99695C3.78571 3.99774 3.58329 4.0821 3.43397 4.23161C3.28465 4.38113 3.20054 4.58364 3.20001 4.79495V11.205C3.20054 11.4163 3.28465 11.6188 3.43397 11.7683C3.58329 11.9178 3.78571 12.0022 3.99701 12.003C4.20849 12.0024 4.41116 11.9182 4.5607 11.7686C4.71024 11.6191 4.79448 11.4164 4.79501 11.205Z" fill="#1A1C1F"/>
</g>
<defs>
<clipPath id="clip0_2202_556">
<rect width="16" height="16" fill="white"/>
</clipPath>
</defs>
</svg>
