<svg width="48" height="48" viewBox="0 0 48 48" fill="none" xmlns="http://www.w3.org/2000/svg">
<g clip-path="url(#clip0_2202_564)">
<path fill-rule="evenodd" clip-rule="evenodd" d="M33.7925 38.427L14.9075 26.708C14.4714 26.4041 14.1155 25.999 13.8704 25.5273C13.6254 25.0556 13.4984 24.5315 13.5005 24C13.5005 22.906 14.0205 21.917 14.9075 21.292L33.7925 9.573C34.3679 9.20394 35.0359 9.00528 35.7195 9C37.5425 9 38.9995 10.51 38.9995 12.333V35.667C39.0005 37.49 37.5435 39 35.7205 39C35.0369 38.9947 34.3679 38.7961 33.7925 38.427ZM11.0005 10V38C11.0005 38.2652 10.8951 38.5196 10.7076 38.7071C10.5201 38.8946 10.2657 39 10.0005 39C9.73527 39 9.48092 38.8946 9.29338 38.7071C9.10585 38.5196 9.00049 38.2652 9.00049 38V10C9.00049 9.73478 9.10585 9.48043 9.29338 9.29289C9.48092 9.10536 9.73527 9 10.0005 9C10.2657 9 10.5201 9.10536 10.7076 9.29289C10.8951 9.48043 11.0005 9.73478 11.0005 10Z" fill="#1A1C1F"/>
</g>
<defs>
<clipPath id="clip0_2202_564">
<rect width="48" height="48" fill="white"/>
</clipPath>
</defs>
</svg>
