<svg width="64" height="64" viewBox="0 0 64 64" fill="none" xmlns="http://www.w3.org/2000/svg">
<g clip-path="url(#clip0_2202_562)">
<path fill-rule="evenodd" clip-rule="evenodd" d="M44.1255 51.236L20.3575 35.611C19.7804 35.2028 19.3102 34.6614 18.987 34.0328C18.6637 33.4042 18.4968 32.7069 18.5005 32C18.5005 30.542 19.1885 29.222 20.3575 28.389L44.1255 12.764C44.8836 12.2727 45.7661 12.0077 46.6695 12C49.0755 12 50.9995 14.014 50.9995 16.444V47.556C51.0005 49.986 49.0765 52 46.6705 52C45.7671 51.9923 44.8836 51.7273 44.1255 51.236ZM16.0005 13.5V50.5C16.0005 50.8978 15.8425 51.2794 15.5611 51.5607C15.2798 51.842 14.8983 52 14.5005 52C14.1027 52 13.7211 51.842 13.4398 51.5607C13.1585 51.2794 13.0005 50.8978 13.0005 50.5V13.5C13.0005 13.1022 13.1585 12.7206 13.4398 12.4393C13.7211 12.158 14.1027 12 14.5005 12C14.8983 12 15.2798 12.158 15.5611 12.4393C15.8425 12.7206 16.0005 13.1022 16.0005 13.5Z" fill="#1A1C1F"/>
</g>
<defs>
<clipPath id="clip0_2202_562">
<rect width="64" height="64" fill="white"/>
</clipPath>
</defs>
</svg>
