<svg width="14" height="14" viewBox="0 0 14 14" fill="none" xmlns="http://www.w3.org/2000/svg">
<g clip-path="url(#clip0_2202_595)">
<path fill-rule="evenodd" clip-rule="evenodd" d="M3.51153 2.80099C3.64853 2.80099 3.78553 2.84199 3.90853 2.92399L8.25153 6.04399C8.40787 6.14852 8.53603 6.28999 8.62466 6.45587C8.71329 6.62175 8.75965 6.80692 8.75965 6.99499C8.75965 7.18306 8.71329 7.36823 8.62466 7.53411C8.53603 7.69998 8.40787 7.84145 8.25153 7.94599L3.88053 11.091C3.76532 11.1619 3.63279 11.1996 3.49753 11.2C3.40564 11.2008 3.31452 11.1833 3.22947 11.1485C3.14442 11.1137 3.06716 11.0623 3.00218 10.9973C2.93721 10.9324 2.88582 10.8551 2.85103 10.77C2.81623 10.685 2.79873 10.5939 2.79953 10.502V3.51199C2.79953 3.15599 3.07353 2.81399 3.51053 2.79999L3.51153 2.80099ZM4.19553 4.79799V9.20399L7.15153 7.00099L4.19553 4.79799ZM9.80553 9.80599V4.19599C9.80632 4.01138 9.88 3.83455 10.0105 3.70401C10.1411 3.57346 10.3179 3.49978 10.5025 3.49899C10.6873 3.49951 10.8644 3.57309 10.9952 3.70366C11.1259 3.83423 11.1997 4.0112 11.2005 4.19599V9.80599C11.1997 9.99077 11.1259 10.1677 10.9952 10.2983C10.8644 10.4289 10.6873 10.5025 10.5025 10.503C10.3179 10.5022 10.1411 10.4285 10.0105 10.298C9.88 10.1674 9.80632 9.9906 9.80553 9.80599Z" fill="#1A1C1F"/>
</g>
<defs>
<clipPath id="clip0_2202_595">
<rect width="14" height="14" fill="white"/>
</clipPath>
</defs>
</svg>
