<svg width="12" height="12" viewBox="0 0 12 12" fill="none" xmlns="http://www.w3.org/2000/svg">
<g clip-path="url(#clip0_2202_578)">
<path fill-rule="evenodd" clip-rule="evenodd" d="M9.60002 9.00202V3.01002C9.5995 2.8484 9.53506 2.69355 9.42078 2.57927C9.30649 2.46499 9.15164 2.40055 8.99002 2.40002C8.86867 2.40075 8.75029 2.43766 8.65002 2.50602L4.92802 5.17902C4.79396 5.26855 4.68404 5.38976 4.60803 5.53193C4.53201 5.67409 4.49224 5.83281 4.49224 5.99402C4.49224 6.15523 4.53201 6.31396 4.60803 6.45612C4.68404 6.59828 4.79396 6.7195 4.92802 6.80902L8.67402 9.50602C8.77263 9.56693 8.88613 9.59946 9.00202 9.60002C9.34202 9.60002 9.60002 9.33002 9.60002 9.00202ZM3.59602 8.40402V3.59602C3.5955 3.43759 3.53232 3.28579 3.42029 3.17376C3.30826 3.06172 3.15646 2.99855 2.99802 2.99802C2.83959 2.99855 2.68779 3.06172 2.57576 3.17376C2.46372 3.28579 2.40055 3.43759 2.40002 3.59602V8.40402C2.40055 8.56246 2.46372 8.71426 2.57576 8.82629C2.68779 8.93832 2.83959 9.0015 2.99802 9.00202C3.15646 9.0015 3.30826 8.93832 3.42029 8.82629C3.53232 8.71426 3.5955 8.56246 3.59602 8.40402Z" fill="#1A1C1F"/>
</g>
<defs>
<clipPath id="clip0_2202_578">
<rect width="12" height="12" fill="white"/>
</clipPath>
</defs>
</svg>
