<svg width="12" height="12" viewBox="0 0 12 12" fill="none" xmlns="http://www.w3.org/2000/svg">
<g clip-path="url(#clip0_2202_615)">
<path fill-rule="evenodd" clip-rule="evenodd" d="M2.40005 9.00196V3.00996C2.40005 2.70496 2.63505 2.41196 3.01005 2.39996C3.1314 2.40069 3.24978 2.4376 3.35005 2.50596L7.07205 5.17896C7.20611 5.26849 7.31603 5.3897 7.39204 5.53187C7.46806 5.67403 7.50783 5.83275 7.50783 5.99396C7.50783 6.15517 7.46806 6.31389 7.39204 6.45606C7.31603 6.59822 7.20611 6.71944 7.07205 6.80896L3.32605 9.50596C3.22744 9.56687 3.11394 9.5994 2.99805 9.59996C2.91933 9.60063 2.84127 9.58562 2.76841 9.5558C2.69556 9.52598 2.62937 9.48196 2.57371 9.4263C2.51805 9.37064 2.47402 9.30445 2.44421 9.23159C2.41439 9.15874 2.39938 9.08068 2.40005 9.00196ZM8.40405 8.40396V3.59596C8.40457 3.43753 8.46775 3.28573 8.57978 3.1737C8.69181 3.06166 8.84361 2.99849 9.00205 2.99796C9.16048 2.99849 9.31228 3.06166 9.42431 3.1737C9.53635 3.28573 9.59952 3.43753 9.60005 3.59596V8.40396C9.59952 8.5624 9.53635 8.7142 9.42431 8.82623C9.31228 8.93826 9.16048 9.00144 9.00205 9.00196C8.84361 9.00144 8.69181 8.93826 8.57978 8.82623C8.46775 8.7142 8.40457 8.5624 8.40405 8.40396Z" fill="#1A1C1F"/>
</g>
<defs>
<clipPath id="clip0_2202_615">
<rect width="12" height="12" fill="white"/>
</clipPath>
</defs>
</svg>
