<svg width="12" height="12" viewBox="0 0 12 12" fill="none" xmlns="http://www.w3.org/2000/svg">
<g clip-path="url(#clip0_2202_597)">
<path fill-rule="evenodd" clip-rule="evenodd" d="M3 2.38751C3.117 2.38751 3.235 2.42251 3.341 2.49351L7.076 5.17551C7.21027 5.26547 7.32032 5.38711 7.39642 5.52969C7.47252 5.67227 7.51232 5.8314 7.51232 5.99301C7.51232 6.15463 7.47252 6.31376 7.39642 6.45634C7.32032 6.59892 7.21027 6.72056 7.076 6.81051L3.317 9.51851C3.21806 9.5795 3.10422 9.61203 2.988 9.61251C2.647 9.61251 2.388 9.34251 2.388 9.01251V2.99951C2.388 2.69351 2.623 2.39951 3 2.38751ZM3.588 4.10551V7.89351L6.13 5.99951L3.588 4.10551ZM8.412 8.41151V3.58751C8.412 3.25751 8.682 2.98751 9.012 2.98751C9.342 2.98751 9.612 3.25751 9.612 3.58751V8.41151C9.612 8.74151 9.342 9.01151 9.012 9.01151C8.682 9.01151 8.412 8.74151 8.412 8.41151Z" fill="#1A1C1F"/>
</g>
<defs>
<clipPath id="clip0_2202_597">
<rect width="12" height="12" fill="white"/>
</clipPath>
</defs>
</svg>
