<svg width="32" height="32" viewBox="0 0 32 32" fill="none" xmlns="http://www.w3.org/2000/svg">
<g clip-path="url(#clip0_2202_603)">
<path fill-rule="evenodd" clip-rule="evenodd" d="M7 23V9C7 7.906 7.906 7 8.969 7C9.375 7 9.781 7.125 10.125 7.344L20.156 14.375C20.688 14.75 21 15.344 21 16C21 16.656 20.687 17.25 20.156 17.625L10.125 24.656C9.781 24.875 9.375 25 8.969 25C7.875 25 7 24.094 7 23ZM23 23V9C23 8.437 23.438 8 24 8C24.563 8 25 8.438 25 9V23C25 23.563 24.562 24 24 24C23.437 24 23 23.562 23 23Z" fill="#1A1C1F"/>
</g>
<defs>
<clipPath id="clip0_2202_603">
<rect width="32" height="32" fill="white"/>
</clipPath>
</defs>
</svg>
