<svg width="14" height="14" viewBox="0 0 14 14" fill="none" xmlns="http://www.w3.org/2000/svg">
<g clip-path="url(#clip0_2202_576)">
<path fill-rule="evenodd" clip-rule="evenodd" d="M11.1999 10.502V3.51199C11.1994 3.32349 11.1244 3.14285 10.9912 3.00946C10.858 2.87608 10.6774 2.80078 10.4889 2.79999C10.3473 2.80065 10.2091 2.84347 10.0919 2.92299L5.74893 6.04299C5.59258 6.14752 5.46443 6.28899 5.3758 6.45487C5.28717 6.62075 5.2408 6.80592 5.2408 6.99399C5.2408 7.18206 5.28717 7.36723 5.3758 7.53311C5.46443 7.69898 5.59258 7.84045 5.74893 7.94499L10.1189 11.091C10.2342 11.1616 10.3667 11.1993 10.5019 11.2C10.5938 11.2008 10.6849 11.1833 10.77 11.1485C10.855 11.1137 10.9323 11.0623 10.9973 10.9973C11.0622 10.9324 11.1136 10.8551 11.1484 10.77C11.1832 10.685 11.2007 10.5939 11.1999 10.502ZM4.19493 9.80499V4.19499C4.19414 4.01038 4.12045 3.83355 3.98991 3.70301C3.85937 3.57246 3.68254 3.49878 3.49793 3.49799C3.31314 3.49851 3.13606 3.57209 3.0053 3.70266C2.87454 3.83323 2.80072 4.0102 2.79993 4.19499V9.80499C2.80072 9.98977 2.87454 10.1667 3.0053 10.2973C3.13606 10.4279 3.31314 10.5015 3.49793 10.502C3.68254 10.5012 3.85937 10.4275 3.98991 10.297C4.12045 10.1664 4.19414 9.9896 4.19493 9.80499Z" fill="#1A1C1F"/>
</g>
<defs>
<clipPath id="clip0_2202_576">
<rect width="14" height="14" fill="white"/>
</clipPath>
</defs>
</svg>
