<svg width="14" height="14" viewBox="0 0 14 14" fill="none" xmlns="http://www.w3.org/2000/svg">
<g clip-path="url(#clip0_2202_613)">
<path fill-rule="evenodd" clip-rule="evenodd" d="M2.80046 10.5025V3.51248C2.80046 3.15648 3.07446 2.81448 3.51146 2.80048C3.64846 2.80048 3.78546 2.84148 3.90846 2.92348L8.25147 6.04348C8.40781 6.14801 8.53597 6.28948 8.6246 6.45536C8.71322 6.62124 8.75959 6.80641 8.75959 6.99448C8.75959 7.18255 8.71322 7.36772 8.6246 7.53359C8.53597 7.69947 8.40781 7.84094 8.25147 7.94548L3.88046 11.0905C3.76526 11.1614 3.63273 11.1991 3.49746 11.1995C3.40558 11.2003 3.31445 11.1828 3.22941 11.148C3.14436 11.1132 3.0671 11.0618 3.00212 10.9968C2.93715 10.9318 2.88576 10.8546 2.85097 10.7695C2.81617 10.6845 2.79866 10.5934 2.79946 10.5015L2.80046 10.5025ZM9.80547 9.80548V4.19548C9.80625 4.01086 9.87994 3.83404 10.0105 3.7035C10.141 3.57295 10.3179 3.49927 10.5025 3.49848C10.6873 3.499 10.8643 3.57257 10.9951 3.70314C11.1258 3.83371 11.1997 4.01069 11.2005 4.19548V9.80548C11.1997 9.99026 11.1258 10.1672 10.9951 10.2978C10.8643 10.4284 10.6873 10.5019 10.5025 10.5025C10.3179 10.5017 10.141 10.428 10.0105 10.2975C9.87994 10.1669 9.80625 9.99009 9.80547 9.80548Z" fill="#1A1C1F"/>
</g>
<defs>
<clipPath id="clip0_2202_613">
<rect width="14" height="14" fill="white"/>
</clipPath>
</defs>
</svg>
