<svg width="16" height="16" viewBox="0 0 16 16" fill="none" xmlns="http://www.w3.org/2000/svg">
<g clip-path="url(#clip0_2202_611)">
<path fill-rule="evenodd" clip-rule="evenodd" d="M3.19995 12.0025V4.01246C3.19995 3.60546 3.51295 3.21546 4.01295 3.19946C4.16895 3.19946 4.32595 3.24646 4.46595 3.33946L9.42995 6.90646C9.78995 7.15646 10.009 7.56246 10.009 8.00046C10.009 8.42246 9.78995 8.84446 9.42995 9.07946L4.43595 12.6755C4.30425 12.7567 4.15268 12.7999 3.99795 12.8005C3.89303 12.8014 3.78897 12.7814 3.69185 12.7417C3.59473 12.702 3.5065 12.6433 3.43231 12.5691C3.35811 12.4949 3.29944 12.4067 3.25972 12.3096C3.21999 12.2124 3.20002 12.1084 3.20095 12.0035L3.19995 12.0025ZM11.205 11.2045V4.79446C11.2055 4.58298 11.2897 4.38031 11.4393 4.23078C11.5888 4.08124 11.7915 3.99699 12.003 3.99646C12.2143 3.99725 12.4167 4.08162 12.566 4.23113C12.7153 4.38064 12.7994 4.58316 12.8 4.79446V11.2045C12.7994 11.4158 12.7153 11.6183 12.566 11.7678C12.4167 11.9173 12.2143 12.0017 12.003 12.0025C11.7915 12.0019 11.5888 11.9177 11.4393 11.7682C11.2897 11.6186 11.2055 11.4159 11.205 11.2045Z" fill="#1A1C1F"/>
</g>
<defs>
<clipPath id="clip0_2202_611">
<rect width="16" height="16" fill="white"/>
</clipPath>
</defs>
</svg>
