<svg width="28" height="28" viewBox="0 0 28 28" fill="none" xmlns="http://www.w3.org/2000/svg">
<g clip-path="url(#clip0_2202_476)">
<path fill-rule="evenodd" clip-rule="evenodd" d="M18.375 7C19.0711 7.00027 19.7386 7.27691 20.2309 7.76914C20.7231 8.26136 20.9997 8.92889 21 9.625V18.375C20.9997 19.0711 20.7231 19.7386 20.2309 20.2309C19.7386 20.7231 19.0711 20.9997 18.375 21H9.625C8.92889 20.9997 8.26136 20.7231 7.76914 20.2309C7.27691 19.7386 7.00027 19.0711 7 18.375V9.625C7.00027 8.92889 7.27691 8.26136 7.76914 7.76914C8.26136 7.27691 8.92889 7.00027 9.625 7H18.375ZM18.375 8.75H9.625C9.50968 8.74852 9.39524 8.77015 9.28841 8.81359C9.18158 8.85704 9.08454 8.92144 9.00299 9.00299C8.92144 9.08454 8.85704 9.18158 8.81359 9.28841C8.77015 9.39524 8.74852 9.50968 8.75 9.625V18.375C8.75 18.867 9.133 19.25 9.625 19.25H18.375C18.4903 19.2515 18.6048 19.2299 18.7116 19.1864C18.8184 19.143 18.9155 19.0786 18.997 18.997C19.0786 18.9155 19.143 18.8184 19.1864 18.7116C19.2299 18.6048 19.2515 18.4903 19.25 18.375V9.625C19.2515 9.50968 19.2299 9.39524 19.1864 9.28841C19.143 9.18158 19.0786 9.08454 18.997 9.00299C18.9155 8.92144 18.8184 8.85704 18.7116 8.81359C18.6048 8.77015 18.4903 8.74852 18.375 8.75Z" fill="#1A1C1F"/>
</g>
<defs>
<clipPath id="clip0_2202_476">
<rect width="28" height="28" fill="white"/>
</clipPath>
</defs>
</svg>
