<svg width="64" height="64" viewBox="0 0 64 64" fill="none" xmlns="http://www.w3.org/2000/svg">
<g clip-path="url(#clip0_2202_470)">
<path fill-rule="evenodd" clip-rule="evenodd" d="M44 16C45.0609 16 46.0783 16.4214 46.8284 17.1716C47.5786 17.9217 48 18.9391 48 20V44C48 45.0609 47.5786 46.0783 46.8284 46.8284C46.0783 47.5786 45.0609 48 44 48H20C18.9391 48 17.9217 47.5786 17.1716 46.8284C16.4214 46.0783 16 45.0609 16 44V20C16 18.9391 16.4214 17.9217 17.1716 17.1716C17.9217 16.4214 18.9391 16 20 16H44ZM44 19H20C19.7348 19 19.4804 19.1054 19.2929 19.2929C19.1054 19.4804 19 19.7348 19 20V44C19 44.2652 19.1054 44.5196 19.2929 44.7071C19.4804 44.8946 19.7348 45 20 45H44C44.2652 45 44.5196 44.8946 44.7071 44.7071C44.8946 44.5196 45 44.2652 45 44V20C45 19.7348 44.8946 19.4804 44.7071 19.2929C44.5196 19.1054 44.2652 19 44 19Z" fill="#1A1C1F"/>
</g>
<defs>
<clipPath id="clip0_2202_470">
<rect width="64" height="64" fill="white"/>
</clipPath>
</defs>
</svg>
