<svg width="48" height="48" viewBox="0 0 48 48" fill="none" xmlns="http://www.w3.org/2000/svg">
<g clip-path="url(#clip0_2202_472)">
<path fill-rule="evenodd" clip-rule="evenodd" d="M34 11C34.7956 11 35.5587 11.3161 36.1213 11.8787C36.6839 12.4413 37 13.2044 37 14V34C37 34.7956 36.6839 35.5587 36.1213 36.1213C35.5587 36.6839 34.7956 37 34 37H14C13.2044 37 12.4413 36.6839 11.8787 36.1213C11.3161 35.5587 11 34.7956 11 34V14C11 13.2044 11.3161 12.4413 11.8787 11.8787C12.4413 11.3161 13.2044 11 14 11H34ZM34 13H14C13.7348 13 13.4804 13.1054 13.2929 13.2929C13.1054 13.4804 13 13.7348 13 14V34C13 34.2652 13.1054 34.5196 13.2929 34.7071C13.4804 34.8946 13.7348 35 14 35H34C34.2652 35 34.5196 34.8946 34.7071 34.7071C34.8946 34.5196 35 34.2652 35 34V14C35 13.7348 34.8946 13.4804 34.7071 13.2929C34.5196 13.1054 34.2652 13 34 13Z" fill="#1A1C1F"/>
</g>
<defs>
<clipPath id="clip0_2202_472">
<rect width="48" height="48" fill="white"/>
</clipPath>
</defs>
</svg>
