<svg width="12" height="12" viewBox="0 0 12 12" fill="none" xmlns="http://www.w3.org/2000/svg">
<g clip-path="url(#clip0_231_102)">
<path fill-rule="evenodd" clip-rule="evenodd" d="M6.613 2.38794C6.953 2.38794 7.217 2.66994 7.217 2.98994V9.00994C7.21795 9.08943 7.20295 9.1683 7.17291 9.24189C7.14286 9.31549 7.09838 9.38232 7.04207 9.43843C6.98577 9.49455 6.91879 9.53882 6.8451 9.56862C6.7714 9.59842 6.69248 9.61315 6.613 9.61194C6.49988 9.60958 6.38943 9.57714 6.293 9.51794L4.633 8.40794H4.199C3.199 8.40794 2.388 7.59894 2.388 6.62094V5.41694C2.388 4.41994 3.199 3.59194 4.198 3.59194H4.633L6.293 2.50094C6.38376 2.42806 6.4966 2.38821 6.613 2.38794ZM6.009 4.11794L5.142 4.70194C5.03944 4.76387 4.92181 4.79639 4.802 4.79594H4.199C4.0394 4.79672 3.88652 4.86034 3.77348 4.97301C3.66043 5.08568 3.59631 5.23834 3.595 5.39794V6.60194C3.595 6.94094 3.859 7.20394 4.199 7.20394H4.802C4.92359 7.20954 5.04125 7.24864 5.142 7.31694L6.009 7.88094V4.11994V4.11794ZM7.801 7.20394C7.801 6.60194 8.405 6.60194 8.405 6.01894C8.405 5.41694 7.801 5.41694 7.801 4.81494C7.801 4.51394 8.103 4.19394 8.405 4.19394C9.008 4.19394 9.612 5.09694 9.612 6.01894C9.612 6.92194 9.008 7.82494 8.405 7.82494C8.103 7.82494 7.801 7.52394 7.801 7.20394Z" fill="#1A1C1F"/>
</g>
<defs>
<clipPath id="clip0_231_102">
<rect width="12" height="12" fill="white"/>
</clipPath>
</defs>
</svg>
