<svg width="16" height="16" viewBox="0 0 16 16" fill="none" xmlns="http://www.w3.org/2000/svg">
<g clip-path="url(#clip0_184_429)">
<path fill-rule="evenodd" clip-rule="evenodd" d="M10.4079 3.20048C10.6191 3.20127 10.8213 3.2855 10.9706 3.43479C11.1199 3.58409 11.2041 3.78635 11.2049 3.99748V12.0035C11.2071 12.1087 11.188 12.2134 11.1487 12.311C11.1094 12.4087 11.0508 12.4975 10.9763 12.5719C10.9019 12.6463 10.8132 12.705 10.7155 12.7443C10.6178 12.7835 10.5132 12.8027 10.4079 12.8005C10.2582 12.7999 10.1118 12.7565 9.98592 12.6755L7.78092 11.2055H7.20292C5.87292 11.2055 4.79492 10.1265 4.79492 8.82948V7.21948C4.79492 5.90548 5.87392 4.79548 7.20292 4.79548H7.78092L9.98592 3.34048C10.107 3.2479 10.2555 3.19829 10.4079 3.19948V3.20048ZM9.61092 5.49848L8.45392 6.28048C8.31434 6.35682 8.15891 6.39962 7.99992 6.40548H7.20292C6.99144 6.40601 6.78877 6.49026 6.63923 6.6398C6.48969 6.78934 6.40545 6.992 6.40492 7.20348V8.79748C6.40492 9.25148 6.74892 9.59548 7.20292 9.59548H7.99992C8.17192 9.59548 8.32792 9.67348 8.45392 9.75148L9.61092 10.5015V5.49848Z" fill="#1A1C1F"/>
</g>
<defs>
<clipPath id="clip0_184_429">
<rect width="16" height="16" fill="white"/>
</clipPath>
</defs>
</svg>
