<svg width="32" height="32" viewBox="0 0 32 32" fill="none" xmlns="http://www.w3.org/2000/svg">
<g clip-path="url(#clip0_184_421)">
<path fill-rule="evenodd" clip-rule="evenodd" d="M22 6.00002C22.5 6.00002 23 6.40602 23 7.00002V25C23 25.593 22.5 26 22 26C21.7721 26.0036 21.5504 25.9256 21.375 25.78L15.625 21H12C10.406 21 9 19.75 9 18.187V14C9 13.2044 9.31607 12.4413 9.87868 11.8787C10.4413 11.3161 11.2044 11 12 11H15.625L21.375 6.21902C21.5505 6.07381 21.7722 5.99613 22 6.00002ZM21 9.12502L16.625 12.78C16.4449 12.917 16.2262 12.994 16 13H12C11.437 13 11 13.437 11 14V18C11 18.562 11.438 19 12 19H16C16.219 19 16.469 19.093 16.625 19.218L21 22.875V9.12502Z" fill="#1A1C1F"/>
</g>
<defs>
<clipPath id="clip0_184_421">
<rect width="32" height="32" fill="white"/>
</clipPath>
</defs>
</svg>
