<svg width="12" height="12" viewBox="0 0 12 12" fill="none" xmlns="http://www.w3.org/2000/svg">
<g clip-path="url(#clip0_231_106)">
<path fill-rule="evenodd" clip-rule="evenodd" d="M7.81201 2.38794C8.15301 2.38794 8.41201 2.66994 8.41201 2.98794V9.01194C8.41201 9.35294 8.15301 9.61194 7.81201 9.61194C7.69921 9.6116 7.58887 9.57898 7.49401 9.51794L5.83501 8.41194H5.40001C4.40001 8.41194 3.58801 7.59994 3.58801 6.62394V5.41194C3.58801 4.42294 4.40001 3.58794 5.40001 3.58794H5.83501L7.49501 2.49394C7.58801 2.42394 7.69501 2.38794 7.81201 2.38794ZM7.21201 4.11794L6.34201 4.70594C6.23687 4.76342 6.11977 4.79561 6.00001 4.79994H5.40001C5.05901 4.79994 4.80001 5.08194 4.80001 5.39994V6.59994C4.80001 6.94094 5.05901 7.19994 5.40001 7.19994H6.00001C6.13001 7.19994 6.24701 7.25894 6.34101 7.31794L7.21101 7.88194L7.21201 4.11794Z" fill="#1A1C1F"/>
</g>
<defs>
<clipPath id="clip0_231_106">
<rect width="12" height="12" fill="white"/>
</clipPath>
</defs>
</svg>
