<svg width="14" height="14" viewBox="0 0 14 14" fill="none" xmlns="http://www.w3.org/2000/svg">
<g clip-path="url(#clip0_184_431)">
<path fill-rule="evenodd" clip-rule="evenodd" d="M9.1065 2.79996C9.29145 2.80048 9.46869 2.87419 9.59947 3.00498C9.73026 3.13577 9.80397 3.313 9.8045 3.49796V10.502C9.8045 10.899 9.5045 11.2 9.1065 11.2C8.97553 11.1992 8.84752 11.161 8.7375 11.09L6.8085 9.80596H6.3025C5.1395 9.80596 4.1955 8.86196 4.1955 7.72596V6.31596C4.1955 5.16596 5.1395 4.19596 6.3025 4.19596H6.8085L8.7375 2.92296C8.8437 2.84191 8.97291 2.79862 9.1065 2.79996ZM8.4095 4.81096L7.3955 5.49496C7.27379 5.56178 7.13823 5.59943 6.9995 5.60496H6.3015C6.11671 5.60548 5.93963 5.67905 5.80887 5.80962C5.67811 5.94019 5.60429 6.11717 5.6035 6.30196V7.69796C5.6035 8.09396 5.9045 8.39496 6.3015 8.39496H6.9995C7.1495 8.39496 7.2865 8.46396 7.3955 8.53196L8.4085 9.18896V4.80996L8.4095 4.81096Z" fill="#1A1C1F"/>
</g>
<defs>
<clipPath id="clip0_184_431">
<rect width="14" height="14" fill="white"/>
</clipPath>
</defs>
</svg>
