<svg width="28" height="28" viewBox="0 0 28 28" fill="none" xmlns="http://www.w3.org/2000/svg">
<g clip-path="url(#clip0_184_436)">
<path fill-rule="evenodd" clip-rule="evenodd" d="M13.125 5.25002C13.3567 5.25133 13.5785 5.34394 13.7423 5.50775C13.9061 5.67156 13.9987 5.89336 14 6.12502V21.875C13.9987 22.1067 13.9061 22.3285 13.7423 22.4923C13.5785 22.6561 13.3567 22.7487 13.125 22.75C12.9257 22.7536 12.7317 22.6859 12.578 22.559L7.547 18.375H4.375C2.98 18.375 1.75 17.282 1.75 15.915V12.25C1.75027 11.5539 2.02691 10.8864 2.51914 10.3942C3.01136 9.90193 3.67889 9.62528 4.375 9.62502H7.547L12.578 5.44102C12.7317 5.31418 12.9257 5.24644 13.125 5.25002ZM12.25 7.98402L8.422 11.184C8.265 11.3049 8.07315 11.3719 7.875 11.375H4.375C4.25968 11.3735 4.14524 11.3952 4.03841 11.4386C3.93158 11.4821 3.83454 11.5465 3.75299 11.628C3.67144 11.7096 3.60704 11.8066 3.5636 11.9134C3.52015 12.0203 3.49852 12.1347 3.5 12.25V15.75C3.5 16.242 3.883 16.625 4.375 16.625H7.875C8.07315 16.6281 8.265 16.6951 8.422 16.816L12.25 20.016V7.98402ZM17.855 20.016C18.0103 20.0085 18.1611 19.9614 18.293 19.879C20.535 18.594 21.875 16.543 21.875 14C21.875 11.457 20.535 9.40602 18.293 8.12102C18.1611 8.0386 18.0103 7.99142 17.855 7.98402C17.6249 7.99032 17.406 8.08453 17.2433 8.24728C17.0805 8.41003 16.9863 8.62894 16.98 8.85902C16.98 9.18802 17.145 9.46102 17.418 9.62502C19.168 10.609 20.125 12.141 20.125 14C20.125 15.86 19.168 17.39 17.418 18.375C17.2522 18.4727 17.1229 18.6221 17.0499 18.8002C16.977 18.9783 16.9644 19.1754 17.0141 19.3614C17.0637 19.5474 17.1729 19.7119 17.325 19.83C17.477 19.948 17.6635 20.013 17.856 20.015L17.855 20.016ZM20.316 23.625C20.4603 23.6274 20.6023 23.5893 20.726 23.515C22.406 22.5592 23.8024 21.175 24.7728 19.5034C25.7432 17.8319 26.253 15.9328 26.25 14C26.253 12.0672 25.7434 10.1681 24.7732 8.49639C23.803 6.82469 22.4068 5.44018 20.727 4.48402C20.6032 4.41006 20.4612 4.37229 20.317 4.37502C20.2016 4.3734 20.087 4.39493 19.9801 4.43832C19.8732 4.48171 19.776 4.54608 19.6943 4.62764C19.6127 4.7092 19.5482 4.8063 19.5047 4.91319C19.4612 5.02009 19.4395 5.13461 19.441 5.25002C19.441 5.55002 19.578 5.85202 19.879 6.01602C21.2869 6.81883 22.4565 7.98092 23.2683 9.38361C24.0802 10.7863 24.5052 12.3793 24.5 14C24.5052 15.6207 24.0802 17.2137 23.2683 18.6164C22.4565 20.0191 21.2869 21.1812 19.879 21.984C19.7428 22.0593 19.6299 22.1706 19.5527 22.3056C19.4754 22.4407 19.4368 22.5945 19.441 22.75C19.441 23.215 19.824 23.625 20.316 23.625Z" fill="#1A1C1F"/>
</g>
<defs>
<clipPath id="clip0_184_436">
<rect width="28" height="28" fill="white"/>
</clipPath>
</defs>
</svg>
