<svg width="14" height="14" viewBox="0 0 14 14" fill="none" xmlns="http://www.w3.org/2000/svg">
<g clip-path="url(#clip0_184_392)">
<path fill-rule="evenodd" clip-rule="evenodd" d="M7.71299 2.80005C8.10799 2.80005 8.41499 3.12805 8.41499 3.50005V10.5C8.41499 10.894 8.10799 11.2 7.71299 11.2C7.58107 11.1973 7.45229 11.1593 7.33999 11.09L5.40999 9.80005H4.90499C3.74299 9.80005 2.79999 8.86005 2.79999 7.72205V6.32205C2.79999 5.16205 3.74299 4.20005 4.90499 4.20005H5.40999L7.33999 2.93105C7.4458 2.84622 7.57737 2.80001 7.71299 2.80005ZM7.00999 4.81305L6.00099 5.49105C5.8818 5.56291 5.74516 5.60062 5.60599 5.60005H4.90399C4.71865 5.60135 4.54125 5.67549 4.4101 5.80646C4.27895 5.93742 4.20456 6.11471 4.20299 6.30005V7.70005C4.20299 8.09405 4.50999 8.40005 4.90399 8.40005H5.60599C5.75999 8.40005 5.89099 8.46605 6.00099 8.53105L7.00999 9.18705V4.81305ZM9.09499 8.40005C9.09499 7.70005 9.79599 7.70005 9.79599 7.02205C9.79599 6.32205 9.09499 6.32205 9.09499 5.62205C9.09499 5.27205 9.44499 4.90005 9.79599 4.90005C10.498 4.90005 11.2 5.95005 11.2 7.02205C11.2 8.07205 10.498 9.12205 9.79599 9.12205C9.44599 9.12205 9.09499 8.77205 9.09499 8.40005Z" fill="#1A1C1F"/>
</g>
<defs>
<clipPath id="clip0_184_392">
<rect width="14" height="14" fill="white"/>
</clipPath>
</defs>
</svg>
