<svg width="24" height="24" viewBox="0 0 24 24" fill="none" xmlns="http://www.w3.org/2000/svg">
<g clip-path="url(#clip0_184_425)">
<path fill-rule="evenodd" clip-rule="evenodd" d="M16.028 5C16.592 5 17 5.469 17 6V18C17 18.563 16.592 19 16.028 19C15.84 19 15.589 18.969 15.464 18.844L11.2 15.969H9.477C8.097 15.969 7 14.875 7 13.469V10.5C7 9.094 8.097 8 9.477 8H11.2L15.463 5.156C15.62 5.063 15.84 5 16.028 5ZM14.994 7.875L12.047 9.813C11.8841 9.93461 11.6863 10.0002 11.483 10H9.477C9.41503 9.99878 9.35345 10.0101 9.29594 10.0332C9.23843 10.0563 9.18618 10.0908 9.1423 10.1346C9.09842 10.1784 9.06383 10.2306 9.04058 10.288C9.01733 10.3455 9.00591 10.407 9.007 10.469V13.469C9.007 13.75 9.194 13.969 9.477 13.969H11.483C11.671 13.969 11.89 14.063 12.047 14.156L14.994 16.125V7.875Z" fill="#1A1C1F"/>
</g>
<defs>
<clipPath id="clip0_184_425">
<rect width="24" height="24" fill="white"/>
</clipPath>
</defs>
</svg>
