<svg width="28" height="28" viewBox="0 0 28 28" fill="none" xmlns="http://www.w3.org/2000/svg">
<g clip-path="url(#clip0_184_423)">
<path fill-rule="evenodd" clip-rule="evenodd" d="M19.25 5.25003C19.4817 5.25134 19.7035 5.34395 19.8673 5.50776C20.0311 5.67157 20.1237 5.89337 20.125 6.12503V21.875C20.1237 22.1067 20.0311 22.3285 19.8673 22.4923C19.7035 22.6561 19.4817 22.7487 19.25 22.75C19.0506 22.7533 18.8566 22.6852 18.703 22.558L13.672 18.375H10.5C9.106 18.375 7.875 17.281 7.875 15.914V12.25C7.87527 11.5539 8.15191 10.8864 8.64414 10.3942C9.13636 9.90194 9.80389 9.6253 10.5 9.62503H13.672L18.702 5.44103C18.856 5.31397 19.0504 5.24622 19.25 5.25003ZM18.375 7.98403L14.547 11.184C14.389 11.303 14.1977 11.3695 14 11.374H10.5C10.3846 11.3725 10.2701 11.3942 10.1632 11.4377C10.0563 11.4812 9.95919 11.5457 9.87763 11.6274C9.79607 11.709 9.73169 11.8062 9.6883 11.9131C9.64491 12.0201 9.62339 12.1346 9.625 12.25V15.75C9.625 16.242 10.008 16.625 10.5 16.625H14C14.1978 16.6302 14.389 16.697 14.547 16.816L18.375 20.016V7.98303V7.98403Z" fill="#1A1C1F"/>
</g>
<defs>
<clipPath id="clip0_184_423">
<rect width="28" height="28" fill="white"/>
</clipPath>
</defs>
</svg>
