<svg width="20" height="20" viewBox="0 0 20 20" fill="none" xmlns="http://www.w3.org/2000/svg">
<g clip-path="url(#clip0_184_427)">
<path fill-rule="evenodd" clip-rule="evenodd" d="M13.0095 4.00003C13.2737 4.00082 13.5268 4.10611 13.7136 4.29291C13.9004 4.47972 14.0057 4.73285 14.0065 4.99703V15.003C14.0065 15.57 13.5765 16 13.0095 16C12.8226 15.9992 12.6397 15.9451 12.4825 15.844L9.7265 14.006H9.0035C7.3425 14.006 5.9935 12.658 5.9935 11.036V9.02303C5.9935 7.38103 7.3425 5.99303 9.0035 5.99303H9.7265L12.4825 4.17603C12.6337 4.06046 12.8192 3.99854 13.0095 4.00003ZM12.0135 6.87303L10.5675 7.85003C10.3932 7.94529 10.199 7.9987 10.0005 8.00603H9.0035C8.73932 8.00682 8.48619 8.11211 8.29939 8.29892C8.11259 8.48572 8.00729 8.73885 8.0065 9.00303V10.997C8.0065 11.563 8.4365 11.994 9.0035 11.994H9.9995C10.2145 11.994 10.4095 12.091 10.5665 12.189L12.0125 13.127V6.87303H12.0135Z" fill="#1A1C1F"/>
</g>
<defs>
<clipPath id="clip0_184_427">
<rect width="20" height="20" fill="white"/>
</clipPath>
</defs>
</svg>
