<svg id="db-fahrzeuginstandhaltung-logo" xmlns="http://www.w3.org/2000/svg" viewBox="0 0 1471 141">
  <style>
    #db-fahrzeuginstandhaltung-logo { color-scheme: light dark; }

    .logo { fill: light-dark(#ec0016, #fff) }
    .text { fill: light-dark(#000, #fff) }
  </style>
<g transform="translate(0, 0)">
    <path class="logo"  d="M194.14 5.87A19.974 19.974 0 0 0 180 0H20.1c-2.63-.01-5.25.5-7.68 1.5-2.44 1-4.65 2.47-6.52 4.34a20.027 20.027 0 0 0-4.36 6.51A19.883 19.883 0 0 0 0 20.04v100.18c.03 5.32 2.16 10.42 5.92 14.17a20.1 20.1 0 0 0 14.18 5.86H180c5.32-.03 10.41-2.16 14.16-5.95 3.75-3.78 5.85-8.9 5.84-14.23V20.04c0-5.31-2.11-10.41-5.86-14.17Zm-8.73 114.21c.03.73-.09 1.46-.35 2.15s-.65 1.31-1.15 1.85c-.5.53-1.11.96-1.77 1.26-.67.3-1.39.46-2.12.47H20.1c-.74 0-1.47-.15-2.15-.44a5.54 5.54 0 0 1-1.81-1.25c-.51-.53-.91-1.17-1.18-1.86-.26-.69-.39-1.43-.36-2.17V20.04c-.04-.75.08-1.5.34-2.2s.66-1.34 1.17-1.89c.51-.54 1.13-.98 1.82-1.27.69-.3 1.43-.45 2.17-.45H180c.74.02 1.47.18 2.14.48.68.3 1.28.74 1.79 1.28.5.54.89 1.18 1.15 1.88.25.7.36 1.44.33 2.17v100.04Z"></path>
    <path class="logo"  d="M61.17 116.03H27.53v-91.8h33.64c23.7 0 36.8 14.87 36.8 45.48.04 26.57-8.86 46.1-36.8 46.32Zm14.62-44.42c0-18.49-2-32.94-21.8-32.94h-4.46v62.47h7.82c11.66 0 18.44-9.34 18.44-29.53ZM156.01 68c4.59-1.39 8.62-4.22 11.5-8.06 2.88-3.85 4.46-8.51 4.5-13.32 0-1.9-.38-22.36-26.16-22.36h-38.24v91.77h32.4c8.58 0 35.32 0 35.32-25.81 0-6.45-2.64-18.59-19.32-22.22Zm-26.6-29.59h6.92c9.86 0 13.78 3.45 13.78 11.06 0 6.01-4.32 11.1-12 11.1h-8.7V38.41Zm9.02 62.73h-9.02V77.56h9.62c11.42 0 14.22 6.67 14.22 11.8 0 11.78-11.24 11.78-14.82 11.78Z"></path>
    </g>

<path class="text" d="M0 0L0-77.79L53.71-77.79L53.71-62.70L19.58-62.70L19.58-43.98L48.15-43.98L48.15-29.85L19.58-29.85L19.58 0L0 0Z"  transform="translate(250.0000667580332, 116.00028158657369)"></path>
<path class="text" d="M95.34 0L92.88-8.03Q89.45-3.00 85.17-0.64Q80.89 1.71 75.22 1.71L75.22 1.71Q67.30 1.71 62.92-2.78Q58.53-7.28 58.53-15.52L58.53-15.52Q58.53-23.22 62.86-26.96Q67.20-30.71 73.67-31.78Q80.14-32.85 92.13-33.38L92.13-33.38L92.13-36.38Q92.13-41.20 90.04-43.12Q87.95-45.05 82.92-45.05L82.92-45.05Q78.97-45.05 75.11-44.35Q71.26-43.66 63.13-41.52L63.13-41.52L63.13-55.21Q69.44-57.14 74.42-58.05Q79.39-58.96 84.64-58.96L84.64-58.96Q98.23-58.96 104.16-53.66Q110.10-48.36 110.10-36.49L110.10-36.49L110.10 0L95.34 0ZM76.08-17.23Q76.08-13.48 77.58-11.88Q79.07-10.27 82.39-10.27L82.39-10.27Q87.74-10.27 92.13-14.55L92.13-14.55L92.13-25.04Q85.81-24.93 82.50-24.34Q79.18-23.75 77.63-22.15Q76.08-20.54 76.08-17.23L76.08-17.23Z"  transform="translate(250.0000667580332, 116.00028158657369)"></path>
<path class="text" d="M121.02-77.36Q131.50-77.58 134.82-80.89L134.82-80.89L138.99-80.89L138.99-48.26Q143.92-53.71 148.68-56.12Q153.44-58.53 159.00-58.53L159.00-58.53Q166.28-58.53 170.34-53.66Q174.41-48.79 174.41-40.23L174.41-40.23L174.41 0L156.43 0L156.43-36.70Q156.43-40.23 154.67-42.05Q152.90-43.87 149.48-43.87L149.48-43.87Q146.91-43.87 144.72-43.12Q142.52-42.37 138.99-40.45L138.99-40.45L138.99 0L121.02 0L121.02-77.36Z"  transform="translate(250.0000667580332, 116.00028158657369)"></path>
<path class="text" d="M185.43-55.21Q195.81-55.53 199.23-58.74L199.23-58.74L203.41-58.74L203.41-47.72Q208.01-53.18 212.45-55.69Q216.89-58.21 221.81-58.42L221.81-58.42L221.81-42.27Q212.07-41.62 203.41-39.16L203.41-39.16L203.41 0L185.43 0L185.43-55.21Z"  transform="translate(250.0000667580332, 116.00028158657369)"></path>
<path class="text" d="M225.34 0L225.34-10.49L252.09-44.83L227.91-44.83L227.91-57.03L274.03-57.03L274.03-46.55L247.28-12.30L274.24-12.30L274.24 0L225.34 0Z"  transform="translate(250.0000667580332, 116.00028158657369)"></path>
<path class="text" d="M311.16 1.71Q295.32 1.71 287.88-5.51Q280.45-12.73 280.45-28.03L280.45-28.03L280.45-28.46Q280.45-43.12 287.94-51.04Q295.43-58.96 309.02-58.96L309.02-58.96Q321.86-58.96 328.38-51.52Q334.91-44.08 334.91-29.64L334.91-29.64L334.91-24.61L299.07-24.61Q299.39-19.47 300.67-16.75Q301.95-14.02 304.90-12.89Q307.84-11.77 313.19-11.77L313.19-11.77Q317.79-11.77 321.70-12.57Q325.60-13.38 331.70-15.52L331.70-15.52L331.70-2.25Q326.24-0.21 321.37 0.75Q316.51 1.71 311.16 1.71L311.16 1.71ZM299.07-34.45L317.04-34.45Q316.61-41.20 314.79-43.92Q312.98-46.65 308.70-46.65L308.70-46.65Q303.88-46.65 301.74-43.87Q299.60-41.09 299.07-34.45L299.07-34.45Z"  transform="translate(250.0000667580332, 116.00028158657369)"></path>
<path class="text" d="M359.31 1.71Q351.60 1.71 347.43-3.26Q343.26-8.24 343.26-17.23L343.26-17.23L343.26-56.07L361.13-57.57L361.13-21.72Q361.13-16.91 362.52-14.87Q363.91-12.84 367.97-12.84L367.97-12.84Q370.43-12.84 372.63-13.59Q374.82-14.34 377.71-16.16L377.71-16.16L377.71-56.07L395.58-57.57L395.58 0L381.46 0L378.67-8.56Q373.86-3.00 369.36-0.64Q364.87 1.71 359.31 1.71L359.31 1.71Z"  transform="translate(250.0000667580332, 116.00028158657369)"></path>
<path class="text" d="M429.39 23.11Q401.14 23.11 401.14 9.52L401.14 9.52Q401.14 5.88 403.23 2.94Q405.32 0 410.24-2.25L410.24-2.25Q407.35-3.85 406.07-5.83Q404.78-7.81 404.78-10.81L404.78-10.81Q404.78-17.98 412.59-23.97L412.59-23.97Q408.85-26.86 407.19-30.39Q405.53-33.92 405.53-38.84L405.53-38.84Q405.53-48.47 411.95-53.71Q418.37-58.96 430.03-58.96L430.03-58.96Q436.45-58.96 442.34-57.03L442.34-57.03L459.78-57.03L459.78-47.40L457.96-47.40Q455.18-47.40 452.61-46.76L452.61-46.76Q453.36-44.83 453.68-43.28Q454.00-41.73 454.00-39.59L454.00-39.59Q454.00-29.96 447.74-24.72Q441.48-19.47 429.93-19.47L429.93-19.47Q424.47-19.47 419.65-20.76L419.65-20.76Q418.26-19.05 418.26-17.01L418.26-17.01Q418.26-12.41 424.26-12.41L424.26-12.41L438.27-12.41Q449.29-12.41 454.48-8.56Q459.67-4.71 459.67 3.42L459.67 3.42Q459.67 13.27 452.13 18.19Q444.59 23.11 429.39 23.11L429.39 23.11ZM429.93-29.43Q433.89-29.43 435.49-31.62Q437.10-33.81 437.10-39.05L437.10-39.05Q437.10-44.19 435.44-46.28Q433.78-48.36 429.82-48.36L429.82-48.36Q425.86-48.36 424.15-46.22Q422.44-44.08 422.44-39.05L422.44-39.05Q422.44-33.70 424.09-31.56Q425.75-29.43 429.93-29.43L429.93-29.43ZM417.41 6.53Q417.41 9.42 420.30 10.65Q423.19 11.88 429.82 11.88L429.82 11.88Q436.88 11.88 440.20 10.59Q443.52 9.31 443.52 5.46L443.52 5.46Q443.52 2.67 441.59 1.55Q439.66 0.43 434.85 0.43L434.85 0.43L427.25 0.43Q423.51 0.43 420.08 0L420.08 0Q417.41 3.42 417.41 6.53L417.41 6.53Z"  transform="translate(250.0000667580332, 116.00028158657369)"></path>
<path class="text" d="M466.52-55.21Q476.90-55.53 480.32-58.74L480.32-58.74L484.50-58.74L484.50 0L466.52 0L466.52-55.21ZM475.62-63.45Q471.44-63.45 468.82-66.13Q466.20-68.80 466.20-72.87L466.20-72.87Q466.20-76.83 468.93-79.50Q471.66-82.18 475.62-82.18L475.62-82.18Q479.57-82.18 482.25-79.50Q484.92-76.83 484.92-72.76L484.92-72.76Q484.92-68.80 482.30-66.13Q479.68-63.45 475.62-63.45L475.62-63.45Z"  transform="translate(250.0000667580332, 116.00028158657369)"></path>
<path class="text" d="M495.84-55.21Q506.22-55.53 509.64-58.74L509.64-58.74L513.81-58.74L513.81-48.26Q518.84-53.61 523.55-56.01Q528.26-58.42 533.82-58.42L533.82-58.42Q541.10-58.42 545.17-53.61Q549.23-48.79 549.23-40.23L549.23-40.23L549.23 0L531.26 0L531.26-36.49Q531.26-43.87 524.30-43.87L524.30-43.87Q521.73-43.87 519.54-43.12Q517.35-42.37 513.81-40.45L513.81-40.45L513.81 0L495.84 0L495.84-55.21Z"  transform="translate(250.0000667580332, 116.00028158657369)"></path>
<path class="text" d="M577.59 1.71Q566.46 1.71 558.33-1.71L558.33-1.71L558.33-14.66Q567.74-10.70 576.94-10.70L576.94-10.70Q581.65-10.70 583.79-11.88Q585.93-13.05 585.93-15.41L585.93-15.41Q585.93-17.76 583.79-18.99Q581.65-20.22 575.34-21.83L575.34-21.83Q566.24-24.07 562.29-28.36Q558.33-32.63 558.33-40.45L558.33-40.45Q558.33-49.54 564.37-54.25Q570.42-58.96 581.55-58.96L581.55-58.96Q590.43-58.96 598.99-56.17L598.99-56.17L598.99-42.91Q589.46-46.33 581.55-46.33L581.55-46.33Q573.84-46.33 573.84-42.16L573.84-42.16Q573.84-40.45 575.02-39.43Q576.20-38.41 578.17-37.77Q580.15-37.13 585.93-35.52L585.93-35.52Q594.38-33.28 598.24-29.21Q602.09-25.14 602.09-17.98L602.09-17.98Q602.09-8.03 596.04-3.16Q590.00 1.71 577.59 1.71L577.59 1.71Z"  transform="translate(250.0000667580332, 116.00028158657369)"></path>
<path class="text" d="M634.40 1.71Q623.60 1.71 618.73-2.89Q613.86-7.49 613.86-17.66L613.86-17.66L613.86-44.62L606.48-44.62L606.48-57.03L607.65-57.03Q611.83-57.03 614.07-58.64Q616.32-60.24 617.28-63.77L617.28-63.77L619.00-69.98L631.84-69.98L631.84-57.03L645.32-57.03L645.32-44.62L631.84-44.62L631.84-19.37Q631.84-15.09 633.44-13.43Q635.04-11.77 639.11-11.77L639.11-11.77Q640.93-11.77 642.27-12.04Q643.61-12.30 646.49-13.16L646.49-13.16L646.49-0.32Q641.14 1.71 634.40 1.71L634.40 1.71Z"  transform="translate(250.0000667580332, 116.00028158657369)"></path>
<path class="text" d="M687.26 0L684.80-8.03Q681.38-3.00 677.10-0.64Q672.82 1.71 667.14 1.71L667.14 1.71Q659.23 1.71 654.84-2.78Q650.45-7.28 650.45-15.52L650.45-15.52Q650.45-23.22 654.79-26.96Q659.12-30.71 665.59-31.78Q672.07-32.85 684.05-33.38L684.05-33.38L684.05-36.38Q684.05-41.20 681.96-43.12Q679.88-45.05 674.85-45.05L674.85-45.05Q670.89-45.05 667.04-44.35Q663.19-43.66 655.05-41.52L655.05-41.52L655.05-55.21Q661.37-57.14 666.34-58.05Q671.32-58.96 676.56-58.96L676.56-58.96Q690.15-58.96 696.09-53.66Q702.03-48.36 702.03-36.49L702.03-36.49L702.03 0L687.26 0ZM668.00-17.23Q668.00-13.48 669.50-11.88Q671.00-10.27 674.31-10.27L674.31-10.27Q679.66-10.27 684.05-14.55L684.05-14.55L684.05-25.04Q677.74-24.93 674.42-24.34Q671.10-23.75 669.55-22.15Q668.00-20.54 668.00-17.23L668.00-17.23Z"  transform="translate(250.0000667580332, 116.00028158657369)"></path>
<path class="text" d="M712.94-55.21Q723.32-55.53 726.74-58.74L726.74-58.74L730.92-58.74L730.92-48.26Q735.95-53.61 740.65-56.01Q745.36-58.42 750.93-58.42L750.93-58.42Q758.20-58.42 762.27-53.61Q766.33-48.79 766.33-40.23L766.33-40.23L766.33 0L748.36 0L748.36-36.49Q748.36-43.87 741.40-43.87L741.40-43.87Q738.84-43.87 736.64-43.12Q734.45-42.37 730.92-40.45L730.92-40.45L730.92 0L712.94 0L712.94-55.21Z"  transform="translate(250.0000667580332, 116.00028158657369)"></path>
<path class="text" d="M795.33 1.71Q785.49 1.71 780.19-5.94Q774.89-13.59 774.89-28.03L774.89-28.03L774.89-28.36Q774.89-42.80 780.73-50.66Q786.56-58.53 797.26-58.53L797.26-58.53Q806.14-58.53 813.95-51.57L813.95-51.57L813.95-77.36Q824.43-77.68 827.64-80.89L827.64-80.89L831.92-80.89L831.92 0L818.34 0L815.13-8.99Q810.10-3.21 805.55-0.75Q801.00 1.71 795.33 1.71L795.33 1.71ZM803.46-11.66Q806.25-11.66 808.38-12.47Q810.52-13.27 813.95-15.41L813.95-15.41L813.95-41.73Q811.27-43.55 808.97-44.35Q806.67-45.15 803.89-45.15L803.89-45.15Q797.79-45.15 795.65-40.71Q793.51-36.27 793.51-27.61L793.51-27.61L793.51-27.29Q793.51-18.62 795.76-15.14Q798.01-11.66 803.46-11.66L803.46-11.66Z"  transform="translate(250.0000667580332, 116.00028158657369)"></path>
<path class="text" d="M843.27-77.36Q853.75-77.58 857.07-80.89L857.07-80.89L861.24-80.89L861.24-48.26Q866.17-53.71 870.93-56.12Q875.69-58.53 881.25-58.53L881.25-58.53Q888.53-58.53 892.59-53.66Q896.66-48.79 896.66-40.23L896.66-40.23L896.66 0L878.68 0L878.68-36.70Q878.68-40.23 876.92-42.05Q875.15-43.87 871.73-43.87L871.73-43.87Q869.16-43.87 866.97-43.12Q864.77-42.37 861.24-40.45L861.24-40.45L861.24 0L843.27 0L843.27-77.36Z"  transform="translate(250.0000667580332, 116.00028158657369)"></path>
<path class="text" d="M940.96 0L938.50-8.03Q935.07-3.00 930.79-0.64Q926.51 1.71 920.84 1.71L920.84 1.71Q912.92 1.71 908.54-2.78Q904.15-7.28 904.15-15.52L904.15-15.52Q904.15-23.22 908.48-26.96Q912.82-30.71 919.29-31.78Q925.76-32.85 937.75-33.38L937.75-33.38L937.75-36.38Q937.75-41.20 935.66-43.12Q933.58-45.05 928.55-45.05L928.55-45.05Q924.59-45.05 920.74-44.35Q916.88-43.66 908.75-41.52L908.75-41.52L908.75-55.21Q915.06-57.14 920.04-58.05Q925.01-58.96 930.26-58.96L930.26-58.96Q943.85-58.96 949.79-53.66Q955.72-48.36 955.72-36.49L955.72-36.49L955.72 0L940.96 0ZM921.70-17.23Q921.70-13.48 923.20-11.88Q924.69-10.27 928.01-10.27L928.01-10.27Q933.36-10.27 937.75-14.55L937.75-14.55L937.75-25.04Q931.44-24.93 928.12-24.34Q924.80-23.75 923.25-22.15Q921.70-20.54 921.70-17.23L921.70-17.23Z"  transform="translate(250.0000667580332, 116.00028158657369)"></path>
<path class="text" d="M966.64-77.36Q971.77-77.47 975.31-78.38Q978.84-79.29 980.33-80.89L980.33-80.89L984.61-80.89L984.61 0L966.64 0L966.64-77.36Z"  transform="translate(250.0000667580332, 116.00028158657369)"></path>
<path class="text" d="M1019.82 1.71Q1009.01 1.71 1004.14-2.89Q999.27-7.49 999.27-17.66L999.27-17.66L999.27-44.62L991.89-44.62L991.89-57.03L993.07-57.03Q997.24-57.03 999.49-58.64Q1001.73-60.24 1002.70-63.77L1002.70-63.77L1004.41-69.98L1017.25-69.98L1017.25-57.03L1030.73-57.03L1030.73-44.62L1017.25-44.62L1017.25-19.37Q1017.25-15.09 1018.85-13.43Q1020.46-11.77 1024.53-11.77L1024.53-11.77Q1026.34-11.77 1027.68-12.04Q1029.02-12.30 1031.91-13.16L1031.91-13.16L1031.91-0.32Q1026.56 1.71 1019.82 1.71L1019.82 1.71Z"  transform="translate(250.0000667580332, 116.00028158657369)"></path>
<path class="text" d="M1055.13 1.71Q1047.42 1.71 1043.25-3.26Q1039.08-8.24 1039.08-17.23L1039.08-17.23L1039.08-56.07L1056.95-57.57L1056.95-21.72Q1056.95-16.91 1058.34-14.87Q1059.73-12.84 1063.79-12.84L1063.79-12.84Q1066.26-12.84 1068.45-13.59Q1070.64-14.34 1073.53-16.16L1073.53-16.16L1073.53-56.07L1091.40-57.57L1091.40 0L1077.28 0L1074.49-8.56Q1069.68-3.00 1065.18-0.64Q1060.69 1.71 1055.13 1.71L1055.13 1.71Z"  transform="translate(250.0000667580332, 116.00028158657369)"></path>
<path class="text" d="M1102.85-55.21Q1113.23-55.53 1116.65-58.74L1116.65-58.74L1120.83-58.74L1120.83-48.26Q1125.85-53.61 1130.56-56.01Q1135.27-58.42 1140.83-58.42L1140.83-58.42Q1148.11-58.42 1152.18-53.61Q1156.24-48.79 1156.24-40.23L1156.24-40.23L1156.24 0L1138.27 0L1138.27-36.49Q1138.27-43.87 1131.31-43.87L1131.31-43.87Q1128.74-43.87 1126.55-43.12Q1124.36-42.37 1120.83-40.45L1120.83-40.45L1120.83 0L1102.85 0L1102.85-55.21Z"  transform="translate(250.0000667580332, 116.00028158657369)"></path>
<path class="text" d="M1189.63 23.11Q1161.38 23.11 1161.38 9.52L1161.38 9.52Q1161.38 5.88 1163.46 2.94Q1165.55 0 1170.47-2.25L1170.47-2.25Q1167.58-3.85 1166.30-5.83Q1165.02-7.81 1165.02-10.81L1165.02-10.81Q1165.02-17.98 1172.83-23.97L1172.83-23.97Q1169.08-26.86 1167.42-30.39Q1165.77-33.92 1165.77-38.84L1165.77-38.84Q1165.77-48.47 1172.18-53.71Q1178.61-58.96 1190.27-58.96L1190.27-58.96Q1196.69-58.96 1202.57-57.03L1202.57-57.03L1220.01-57.03L1220.01-47.40L1218.19-47.40Q1215.41-47.40 1212.85-46.76L1212.85-46.76Q1213.59-44.83 1213.91-43.28Q1214.24-41.73 1214.24-39.59L1214.24-39.59Q1214.24-29.96 1207.98-24.72Q1201.72-19.47 1190.16-19.47L1190.16-19.47Q1184.70-19.47 1179.89-20.76L1179.89-20.76Q1178.50-19.05 1178.50-17.01L1178.50-17.01Q1178.50-12.41 1184.49-12.41L1184.49-12.41L1198.51-12.41Q1209.53-12.41 1214.72-8.56Q1219.91-4.71 1219.91 3.42L1219.91 3.42Q1219.91 13.27 1212.36 18.19Q1204.82 23.11 1189.63 23.11L1189.63 23.11ZM1190.16-29.43Q1194.12-29.43 1195.72-31.62Q1197.33-33.81 1197.33-39.05L1197.33-39.05Q1197.33-44.19 1195.67-46.28Q1194.01-48.36 1190.05-48.36L1190.05-48.36Q1186.10-48.36 1184.38-46.22Q1182.67-44.08 1182.67-39.05L1182.67-39.05Q1182.67-33.70 1184.33-31.56Q1185.99-29.43 1190.16-29.43L1190.16-29.43ZM1177.64 6.53Q1177.64 9.42 1180.53 10.65Q1183.42 11.88 1190.05 11.88L1190.05 11.88Q1197.12 11.88 1200.43 10.59Q1203.75 9.31 1203.75 5.46L1203.75 5.46Q1203.75 2.67 1201.82 1.55Q1199.90 0.43 1195.08 0.43L1195.08 0.43L1187.49 0.43Q1183.74 0.43 1180.32 0L1180.32 0Q1177.64 3.42 1177.64 6.53L1177.64 6.53Z"  transform="translate(250.0000667580332, 116.00028158657369)"></path>

</svg>
