<svg id="db-projekt-stuttgart-ulm-logo" xmlns="http://www.w3.org/2000/svg" viewBox="0 0 1342 141">
  <style>
    #db-projekt-stuttgart-ulm-logo { color-scheme: light dark; }

    .logo { fill: light-dark(#ec0016, #fff) }
    .text { fill: light-dark(#000, #fff) }
  </style>
<g transform="translate(0, 0)">
    <path class="logo"  d="M194.14 5.87A19.974 19.974 0 0 0 180 0H20.1c-2.63-.01-5.25.5-7.68 1.5-2.44 1-4.65 2.47-6.52 4.34a20.027 20.027 0 0 0-4.36 6.51A19.883 19.883 0 0 0 0 20.04v100.18c.03 5.32 2.16 10.42 5.92 14.17a20.1 20.1 0 0 0 14.18 5.86H180c5.32-.03 10.41-2.16 14.16-5.95 3.75-3.78 5.85-8.9 5.84-14.23V20.04c0-5.31-2.11-10.41-5.86-14.17Zm-8.73 114.21c.03.73-.09 1.46-.35 2.15s-.65 1.31-1.15 1.85c-.5.53-1.11.96-1.77 1.26-.67.3-1.39.46-2.12.47H20.1c-.74 0-1.47-.15-2.15-.44a5.54 5.54 0 0 1-1.81-1.25c-.51-.53-.91-1.17-1.18-1.86-.26-.69-.39-1.43-.36-2.17V20.04c-.04-.75.08-1.5.34-2.2s.66-1.34 1.17-1.89c.51-.54 1.13-.98 1.82-1.27.69-.3 1.43-.45 2.17-.45H180c.74.02 1.47.18 2.14.48.68.3 1.28.74 1.79 1.28.5.54.89 1.18 1.15 1.88.25.7.36 1.44.33 2.17v100.04Z"></path>
    <path class="logo"  d="M61.17 116.03H27.53v-91.8h33.64c23.7 0 36.8 14.87 36.8 45.48.04 26.57-8.86 46.1-36.8 46.32Zm14.62-44.42c0-18.49-2-32.94-21.8-32.94h-4.46v62.47h7.82c11.66 0 18.44-9.34 18.44-29.53ZM156.01 68c4.59-1.39 8.62-4.22 11.5-8.06 2.88-3.85 4.46-8.51 4.5-13.32 0-1.9-.38-22.36-26.16-22.36h-38.24v91.77h32.4c8.58 0 35.32 0 35.32-25.81 0-6.45-2.64-18.59-19.32-22.22Zm-26.6-29.59h6.92c9.86 0 13.78 3.45 13.78 11.06 0 6.01-4.32 11.1-12 11.1h-8.7V38.41Zm9.02 62.73h-9.02V77.56h9.62c11.42 0 14.22 6.67 14.22 11.8 0 11.78-11.24 11.78-14.82 11.78Z"></path>
    </g>

<path class="text" d="M0 0L0-77.79L31.67-77.79Q45.15-77.79 52.43-71.53Q59.71-65.27 59.71-53.39L59.71-53.39Q59.71-41.30 52.27-34.83Q44.83-28.36 30.92-28.36L30.92-28.36Q26.32-28.36 19.58-29.10L19.58-29.10L19.58 0L0 0ZM19.58-42.37Q23.86-41.62 28.89-41.62L28.89-41.62Q35.20-41.62 37.98-44.24Q40.77-46.87 40.77-52.96L40.77-52.96Q40.77-58.64 38.20-61.10Q35.63-63.56 29.75-63.56L29.75-63.56L19.58-63.56L19.58-42.37Z"  transform="translate(250.0000667580332, 116.00028158657369)"></path>
<path class="text" d="M67.41-55.21Q77.79-55.53 81.21-58.74L81.21-58.74L85.39-58.74L85.39-47.72Q89.99-53.18 94.43-55.69Q98.87-58.21 103.79-58.42L103.79-58.42L103.79-42.27Q94.05-41.62 85.39-39.16L85.39-39.16L85.39 0L67.41 0L67.41-55.21Z"  transform="translate(250.0000667580332, 116.00028158657369)"></path>
<path class="text" d="M137.17 1.71Q123.16 1.71 115.67-6.05Q108.18-13.80 108.18-28.57L108.18-28.57L108.18-28.89Q108.18-43.34 115.72-51.15Q123.26-58.96 137.17-58.96L137.17-58.96Q151.19-58.96 158.68-51.09Q166.17-43.23 166.17-28.68L166.17-28.68L166.17-28.25Q166.17-13.80 158.63-6.05Q151.08 1.71 137.17 1.71L137.17 1.71ZM137.28-10.70Q143.27-10.70 145.36-15.03Q147.45-19.37 147.45-28.46L147.45-28.46L147.45-28.68Q147.45-37.77 145.31-42.10Q143.17-46.44 137.28-46.44L137.28-46.44Q131.07-46.44 128.99-42.21Q126.90-37.98 126.90-28.68L126.90-28.68L126.90-28.46Q126.90-18.94 128.99-14.82Q131.07-10.70 137.28-10.70L137.28-10.70Z"  transform="translate(250.0000667580332, 116.00028158657369)"></path>
<path class="text" d="M166.81 9.74Q171.09 8.99 172.97 6.74Q174.84 4.49 174.84 0.11L174.84 0.11L174.84-55.21Q185.22-55.53 188.64-58.74L188.64-58.74L192.81-58.74L192.81-0.86Q192.81 10.38 185.81 16.16Q178.80 21.93 166.81 22.36L166.81 22.36L166.81 9.74ZM183.93-63.45Q179.76-63.45 177.14-66.13Q174.52-68.80 174.52-72.87L174.52-72.87Q174.52-76.83 177.25-79.50Q179.97-82.18 183.93-82.18L183.93-82.18Q187.89-82.18 190.57-79.50Q193.24-76.83 193.24-72.76L193.24-72.76Q193.24-68.80 190.62-66.13Q188.00-63.45 183.93-63.45L183.93-63.45Z"  transform="translate(250.0000667580332, 116.00028158657369)"></path>
<path class="text" d="M232.19 1.71Q216.35 1.71 208.92-5.51Q201.48-12.73 201.48-28.03L201.48-28.03L201.48-28.46Q201.48-43.12 208.97-51.04Q216.46-58.96 230.05-58.96L230.05-58.96Q242.89-58.96 249.42-51.52Q255.94-44.08 255.94-29.64L255.94-29.64L255.94-24.61L220.10-24.61Q220.42-19.47 221.70-16.75Q222.99-14.02 225.93-12.89Q228.87-11.77 234.22-11.77L234.22-11.77Q238.82-11.77 242.73-12.57Q246.63-13.38 252.73-15.52L252.73-15.52L252.73-2.25Q247.28-0.21 242.41 0.75Q237.54 1.71 232.19 1.71L232.19 1.71ZM220.10-34.45L238.07-34.45Q237.65-41.20 235.83-43.92Q234.01-46.65 229.73-46.65L229.73-46.65Q224.91-46.65 222.77-43.87Q220.63-41.09 220.10-34.45L220.10-34.45Z"  transform="translate(250.0000667580332, 116.00028158657369)"></path>
<path class="text" d="M264.61-77.36Q275.10-77.58 278.41-80.89L278.41-80.89L282.59-80.89L282.59-34.45L299.81-57.03L318.65-57.03L300.35-35.63L320.36 0L300.78 0L287.94-22.90L282.59-16.26L282.59 0L264.61 0L264.61-77.36Z"  transform="translate(250.0000667580332, 116.00028158657369)"></path>
<path class="text" d="M348.93 1.71Q338.12 1.71 333.25-2.89Q328.38-7.49 328.38-17.66L328.38-17.66L328.38-44.62L321.00-44.62L321.00-57.03L322.18-57.03Q326.35-57.03 328.60-58.64Q330.84-60.24 331.81-63.77L331.81-63.77L333.52-69.98L346.36-69.98L346.36-57.03L359.84-57.03L359.84-44.62L346.36-44.62L346.36-19.37Q346.36-15.09 347.96-13.43Q349.57-11.77 353.63-11.77L353.63-11.77Q355.45-11.77 356.79-12.04Q358.13-12.30 361.02-13.16L361.02-13.16L361.02-0.32Q355.67 1.71 348.93 1.71L348.93 1.71Z"  transform="translate(250.0000667580332, 116.00028158657369)"></path>
<path class="text" d="M22.68 1.60Q16.26 1.60 10.81 0.48Q5.35-0.64 0-3.10L0-3.10L0-18.40Q5.88-15.41 10.86-14.18Q15.84-12.95 21.29-12.95L21.29-12.95Q34.56-12.95 34.56-21.08L34.56-21.08Q34.56-23.54 33.28-25.14Q31.99-26.75 29.10-28.25Q26.22-29.75 19.90-32.31L19.90-32.31Q9.52-36.38 4.92-41.62Q0.32-46.87 0.32-56.07L0.32-56.07Q0.32-67.30 7.76-73.46Q15.19-79.61 28.78-79.61L28.78-79.61Q34.03-79.61 39.22-78.59Q44.41-77.58 48.47-75.97L48.47-75.97L48.47-60.67Q42.91-63.02 38.57-64.04Q34.24-65.06 29.21-65.06L29.21-65.06Q18.30-65.06 18.30-57.89L18.30-57.89Q18.30-55.43 19.74-53.71Q21.19-52.00 24.34-50.45Q27.50-48.90 34.45-46.22L34.45-46.22Q44.62-42.16 49.01-36.81Q53.39-31.46 53.39-22.68L53.39-22.68Q53.39-10.70 45.64-4.55Q37.88 1.60 22.68 1.60L22.68 1.60Z"  transform="translate(649.5380667580332, 116.00028158657369)"></path>
<path class="text" d="M85.81 1.71Q75.01 1.71 70.14-2.89Q65.27-7.49 65.27-17.66L65.27-17.66L65.27-44.62L57.89-44.62L57.89-57.03L59.06-57.03Q63.24-57.03 65.48-58.64Q67.73-60.24 68.69-63.77L68.69-63.77L70.41-69.98L83.25-69.98L83.25-57.03L96.73-57.03L96.73-44.62L83.25-44.62L83.25-19.37Q83.25-15.09 84.85-13.43Q86.46-11.77 90.52-11.77L90.52-11.77Q92.34-11.77 93.68-12.04Q95.02-12.30 97.91-13.16L97.91-13.16L97.91-0.32Q92.56 1.71 85.81 1.71L85.81 1.71Z"  transform="translate(649.5380667580332, 116.00028158657369)"></path>
<path class="text" d="M121.12 1.71Q113.42 1.71 109.25-3.26Q105.07-8.24 105.07-17.23L105.07-17.23L105.07-56.07L122.94-57.57L122.94-21.72Q122.94-16.91 124.33-14.87Q125.72-12.84 129.79-12.84L129.79-12.84Q132.25-12.84 134.45-13.59Q136.64-14.34 139.53-16.16L139.53-16.16L139.53-56.07L157.40-57.57L157.40 0L143.27 0L140.49-8.56Q135.68-3.00 131.18-0.64Q126.69 1.71 121.12 1.71L121.12 1.71Z"  transform="translate(649.5380667580332, 116.00028158657369)"></path>
<path class="text" d="M192.71 1.71Q181.90 1.71 177.03-2.89Q172.16-7.49 172.16-17.66L172.16-17.66L172.16-44.62L164.78-44.62L164.78-57.03L165.96-57.03Q170.13-57.03 172.38-58.64Q174.62-60.24 175.59-63.77L175.59-63.77L177.30-69.98L190.14-69.98L190.14-57.03L203.62-57.03L203.62-44.62L190.14-44.62L190.14-19.37Q190.14-15.09 191.74-13.43Q193.35-11.77 197.41-11.77L197.41-11.77Q199.23-11.77 200.57-12.04Q201.91-12.30 204.80-13.16L204.80-13.16L204.80-0.32Q199.45 1.71 192.71 1.71L192.71 1.71Z"  transform="translate(649.5380667580332, 116.00028158657369)"></path>
<path class="text" d="M236.15 1.71Q225.34 1.71 220.47-2.89Q215.60-7.49 215.60-17.66L215.60-17.66L215.60-44.62L208.22-44.62L208.22-57.03L209.40-57.03Q213.57-57.03 215.82-58.64Q218.07-60.24 219.03-63.77L219.03-63.77L220.74-69.98L233.58-69.98L233.58-57.03L247.06-57.03L247.06-44.62L233.58-44.62L233.58-19.37Q233.58-15.09 235.19-13.43Q236.79-11.77 240.86-11.77L240.86-11.77Q242.68-11.77 244.01-12.04Q245.35-12.30 248.24-13.16L248.24-13.16L248.24-0.32Q242.89 1.71 236.15 1.71L236.15 1.71Z"  transform="translate(649.5380667580332, 116.00028158657369)"></path>
<path class="text" d="M278.09 23.11Q249.84 23.11 249.84 9.52L249.84 9.52Q249.84 5.88 251.93 2.94Q254.02 0 258.94-2.25L258.94-2.25Q256.05-3.85 254.77-5.83Q253.48-7.81 253.48-10.81L253.48-10.81Q253.48-17.98 261.29-23.97L261.29-23.97Q257.55-26.86 255.89-30.39Q254.23-33.92 254.23-38.84L254.23-38.84Q254.23-48.47 260.65-53.71Q267.07-58.96 278.74-58.96L278.74-58.96Q285.15-58.96 291.04-57.03L291.04-57.03L308.48-57.03L308.48-47.40L306.66-47.40Q303.88-47.40 301.31-46.76L301.31-46.76Q302.06-44.83 302.38-43.28Q302.70-41.73 302.70-39.59L302.70-39.59Q302.70-29.96 296.44-24.72Q290.18-19.47 278.63-19.47L278.63-19.47Q273.17-19.47 268.36-20.76L268.36-20.76Q266.96-19.05 266.96-17.01L266.96-17.01Q266.96-12.41 272.96-12.41L272.96-12.41L286.97-12.41Q298.00-12.41 303.18-8.56Q308.37-4.71 308.37 3.42L308.37 3.42Q308.37 13.27 300.83 18.19Q293.29 23.11 278.09 23.11L278.09 23.11ZM278.63-29.43Q282.59-29.43 284.19-31.62Q285.80-33.81 285.80-39.05L285.80-39.05Q285.80-44.19 284.14-46.28Q282.48-48.36 278.52-48.36L278.52-48.36Q274.56-48.36 272.85-46.22Q271.14-44.08 271.14-39.05L271.14-39.05Q271.14-33.70 272.80-31.56Q274.45-29.43 278.63-29.43L278.63-29.43ZM266.11 6.53Q266.11 9.42 269.00 10.65Q271.89 11.88 278.52 11.88L278.52 11.88Q285.58 11.88 288.90 10.59Q292.22 9.31 292.22 5.46L292.22 5.46Q292.22 2.67 290.29 1.55Q288.37 0.43 283.55 0.43L283.55 0.43L275.95 0.43Q272.21 0.43 268.78 0L268.78 0Q266.11 3.42 266.11 6.53L266.11 6.53Z"  transform="translate(649.5380667580332, 116.00028158657369)"></path>
<path class="text" d="M348.50 0L346.04-8.03Q342.61-3.00 338.33-0.64Q334.05 1.71 328.38 1.71L328.38 1.71Q320.47 1.71 316.08-2.78Q311.69-7.28 311.69-15.52L311.69-15.52Q311.69-23.22 316.02-26.96Q320.36-30.71 326.83-31.78Q333.31-32.85 345.29-33.38L345.29-33.38L345.29-36.38Q345.29-41.20 343.20-43.12Q341.12-45.05 336.09-45.05L336.09-45.05Q332.13-45.05 328.28-44.35Q324.42-43.66 316.29-41.52L316.29-41.52L316.29-55.21Q322.61-57.14 327.58-58.05Q332.56-58.96 337.80-58.96L337.80-58.96Q351.39-58.96 357.33-53.66Q363.27-48.36 363.27-36.49L363.27-36.49L363.27 0L348.50 0ZM329.24-17.23Q329.24-13.48 330.74-11.88Q332.24-10.27 335.55-10.27L335.55-10.27Q340.90-10.27 345.29-14.55L345.29-14.55L345.29-25.04Q338.98-24.93 335.66-24.34Q332.34-23.75 330.79-22.15Q329.24-20.54 329.24-17.23L329.24-17.23Z"  transform="translate(649.5380667580332, 116.00028158657369)"></path>
<path class="text" d="M374.18-55.21Q384.56-55.53 387.98-58.74L387.98-58.74L392.16-58.74L392.16-47.72Q396.76-53.18 401.20-55.69Q405.64-58.21 410.56-58.42L410.56-58.42L410.56-42.27Q400.82-41.62 392.16-39.16L392.16-39.16L392.16 0L374.18 0L374.18-55.21Z"  transform="translate(649.5380667580332, 116.00028158657369)"></path>
<path class="text" d="M441.48 1.71Q430.68 1.71 425.81-2.89Q420.94-7.49 420.94-17.66L420.94-17.66L420.94-44.62L413.56-44.62L413.56-57.03L414.73-57.03Q418.91-57.03 421.15-58.64Q423.40-60.24 424.36-63.77L424.36-63.77L426.07-69.98L438.91-69.98L438.91-57.03L452.40-57.03L452.40-44.62L438.91-44.62L438.91-19.37Q438.91-15.09 440.52-13.43Q442.12-11.77 446.19-11.77L446.19-11.77Q448.01-11.77 449.35-12.04Q450.68-12.30 453.57-13.16L453.57-13.16L453.57-0.32Q448.22 1.71 441.48 1.71L441.48 1.71Z"  transform="translate(649.5380667580332, 116.00028158657369)"></path>
<path class="text" d="M460.64-29.00L460.64-42.48L487.49-42.48L487.49-29.00L460.64-29.00Z"  transform="translate(649.5380667580332, 116.00028158657369)"></path>
<path class="text" d="M532.33 1.60Q515.42 1.60 507.29-5.94Q499.16-13.48 499.16-29.43L499.16-29.43L499.16-77.79L519.16-77.79L519.16-29.53Q519.16-20.76 522.53-16.96Q525.91-13.16 533.82-13.16L533.82-13.16Q541.21-13.16 544.63-16.96Q548.05-20.76 548.05-28.78L548.05-28.78L548.05-77.79L565.28-77.79L565.28-29.53Q565.28-13.70 557.04-6.05Q548.80 1.60 532.33 1.60L532.33 1.60Z"  transform="translate(649.5380667580332, 116.00028158657369)"></path>
<path class="text" d="M577.37-77.36Q582.51-77.47 586.04-78.38Q589.57-79.29 591.07-80.89L591.07-80.89L595.35-80.89L595.35 0L577.37 0L577.37-77.36Z"  transform="translate(649.5380667580332, 116.00028158657369)"></path>
<path class="text" d="M606.69-55.21Q617.07-55.53 620.49-58.74L620.49-58.74L624.67-58.74L624.67-48.47Q629.05-53.50 633.55-55.96Q638.04-58.42 643.18-58.42L643.18-58.42Q648.21-58.42 651.26-56.01Q654.31-53.61 656.34-48.15L656.34-48.15Q661.69-53.39 666.56-55.91Q671.43-58.42 676.45-58.42L676.45-58.42Q683.62-58.42 687.58-53.66Q691.54-48.90 691.54-40.23L691.54-40.23L691.54 0L673.67 0L673.67-36.81Q673.67-43.87 667.89-43.87L667.89-43.87Q665.33-43.87 663.13-43.17Q660.94-42.48 658.05-40.77L658.05-40.77L658.05 0L640.18 0L640.18-36.59Q640.18-40.34 638.74-42.10Q637.29-43.87 634.40-43.87L634.40-43.87Q631.94-43.87 629.80-43.23Q627.66-42.59 624.67-40.87L624.67-40.87L624.67 0L606.69 0L606.69-55.21Z"  transform="translate(649.5380667580332, 116.00028158657369)"></path>

</svg>
