<svg width="16" height="16" viewBox="0 0 16 16" fill="none" xmlns="http://www.w3.org/2000/svg">
<g clip-path="url(#clip0_2204_2160)">
<path fill-rule="evenodd" clip-rule="evenodd" d="M12.4173 1.62659C13.5256 1.62659 14.4154 2.50139 14.3998 3.62611L14.3373 9.99955C14.3218 11.093 13.4632 11.9991 12.3706 11.9991H5.28378C5.17451 11.9991 5.0809 12.0147 5.00287 12.0927L2.958 14.1547C2.80188 14.3266 2.59899 14.3735 2.41169 14.3735C1.97458 14.3735 1.59998 14.0767 1.59998 13.5768L1.66241 3.59483C1.66241 2.50139 2.55214 1.62659 3.66044 1.62659H12.4173ZM12 7.22659H3.99998V8.82659H12V7.22659ZM12 4.02659H3.99998V5.62659H12V4.02659Z" fill="#1A1C1F"/>
</g>
<defs>
<clipPath id="clip0_2204_2160">
<rect width="16" height="16" fill="white"/>
</clipPath>
</defs>
</svg>
