<svg width="32" height="32" viewBox="0 0 32 32" fill="none" xmlns="http://www.w3.org/2000/svg">
<g clip-path="url(#clip0_2204_2144)">
<path fill-rule="evenodd" clip-rule="evenodd" d="M27 2.5C28.5938 2.5 30 3.93584 30 5.49654V20.5232C30 22.1464 28.6682 23.4946 27 23.5069H9.8438C9.5938 23.5069 9.375 23.5694 9.2188 23.7255L3.9375 28.9694C3.625 29.2816 3.2188 29.5 2.8438 29.5C2.4688 29.5 2 29.1879 2 28.626V5.49654C2 3.90458 3.33202 2.5 5.00318 2.5H27ZM27.125 4.49769H5C4.5 4.49769 4 4.87226 4 5.37168V26.0977L7.6875 22.3521C8.1562 21.8838 8.75 21.5 9.625 21.5H27C27.5 21.5 28 21.1254 28 20.626V5.49654C28 4.99711 27.625 4.49769 27.125 4.49769ZM7 15.4988C7 14.9994 7.4062 14.5 8 14.5H24C24.5625 14.5 25 14.937 25 15.4988C25 15.9983 24.625 16.4977 24.125 16.4977H8C7.4375 16.4977 7 16.0607 7 15.4988ZM7 10.4988C7 9.99942 7.4375 9.5 8 9.5H24C24.5625 9.5 25 9.937 25 10.4988C25 10.9983 24.625 11.4977 24.125 11.4977H8C7.4375 11.4977 7 11.0607 7 10.4988Z" fill="#1A1C1F"/>
</g>
<defs>
<clipPath id="clip0_2204_2144">
<rect width="32" height="32" fill="white"/>
</clipPath>
</defs>
</svg>
