<svg width="20" height="20" viewBox="0 0 20 20" fill="none" xmlns="http://www.w3.org/2000/svg">
<g clip-path="url(#clip0_2204_2150)">
<path fill-rule="evenodd" clip-rule="evenodd" d="M2 17.1023C2 17.6097 2.5073 17.9609 2.9951 17.9609C3.2488 17.9609 3.4829 17.8828 3.678 17.6877L6.0195 15.3267C6.2146 15.1121 6.5854 15.0389 6.8 15.0389H15.6195C16.9073 15.0389 18 13.8048 18 12.4975V4.34144C18 3.09264 16.8488 2.03894 15.522 2.03894H4.5756C3.0927 2.03894 2 3.19014 2 4.49754V17.1023ZM4.0098 14.5658L4 4.03894H16V13.0389H6.6634C5.8634 13.0389 5.239 13.3365 4.6927 13.8828L4.0098 14.5658ZM6 9.03894V11.0389H14V9.03894H6ZM6 6.03894V8.03894L14 8.02924V6.03894H6Z" fill="#1A1C1F"/>
</g>
<defs>
<clipPath id="clip0_2204_2150">
<rect width="20" height="20" fill="white"/>
</clipPath>
</defs>
</svg>
