<svg width="24" height="24" viewBox="0 0 24 24" fill="none" xmlns="http://www.w3.org/2000/svg">
<g clip-path="url(#clip0_2204_2148)">
<path fill-rule="evenodd" clip-rule="evenodd" d="M18.9953 2C20.615 2 22 3.2207 22 4.7934V14.9812C22 16.5775 20.7793 17.9859 19.1831 17.9859H7.939C7.7512 17.9859 7.5164 18.0329 7.3521 18.1972L3.6901 21.7183C3.4789 21.9296 3.2207 22 3.0094 22C2.5 22 2 21.5 2 21V5C2 3.32328 3.36927 2 5 2H18.9953ZM4.9859 3.9953C4.446 3.9953 4 4.5 4 5V18.6432L5.8544 16.8122C6.3239 16.3897 6.9343 16.0141 7.5446 16.0141L19 16C19.5399 16 20 15.5164 20 15V5C20 4.5071 19.5164 4 19 4L4.9859 3.9953ZM17 11C17.5647 11 18 11.4366 18 12C18 12.5634 17.5176 13 17 13L6.98822 12.9953C6.42349 12.9953 6 12.5493 6 11.9859C6 11.4225 6.50584 11 7 11H17ZM17.0118 7C17.5 7 18 7.4 18 8C18 8.6 17.5 9 17 9L6.98822 8.9953C6.42349 8.9953 6 8.6 6 8C6 7.4 6.50584 7 7 7H17.0118Z" fill="#1A1C1F"/>
</g>
<defs>
<clipPath id="clip0_2204_2148">
<rect width="24" height="24" fill="white"/>
</clipPath>
</defs>
</svg>
