<svg id="icon" height="32" viewBox="0 0 32 32" width="32" xmlns="http://www.w3.org/2000/svg"><path d="M26.613 4.084 C 26.499 4.133,25.774 4.816,24.738 5.850 L 23.050 7.536 22.392 7.266 C 21.115 6.744,19.854 6.398,18.428 6.178 C 17.521 6.038,15.498 5.987,14.499 6.078 C 9.915 6.495,5.667 8.794,2.748 12.438 C 2.116 13.226,2.006 13.423,2.011 13.763 C 2.021 14.557,2.871 15.012,3.527 14.574 C 3.605 14.522,3.915 14.168,4.217 13.787 C 6.463 10.949,9.637 8.984,13.093 8.294 C 14.160 8.081,14.732 8.031,16.053 8.034 C 17.448 8.037,18.292 8.134,19.506 8.431 C 20.143 8.587,21.375 8.984,21.452 9.059 C 21.474 9.080,20.969 9.619,20.330 10.257 L 19.168 11.417 18.371 11.258 C 14.788 10.540,11.257 11.427,8.347 13.776 C 7.369 14.565,5.863 16.296,5.783 16.722 C 5.652 17.421,6.171 18.034,6.828 17.956 C 6.971 17.940,7.158 17.889,7.244 17.845 C 7.330 17.800,7.631 17.467,7.913 17.104 C 9.513 15.041,11.611 13.719,14.120 13.191 C 14.728 13.063,14.918 13.047,15.920 13.044 C 16.536 13.042,17.134 13.060,17.249 13.084 L 17.458 13.128 15.950 14.637 C 14.451 16.137,14.440 16.146,14.141 16.211 C 13.377 16.379,12.208 16.950,11.474 17.514 C 10.765 18.060,9.959 18.922,9.626 19.490 C 9.407 19.863,9.447 20.336,9.721 20.629 L 9.836 20.751 7.000 23.589 C 5.038 25.552,4.138 26.488,4.082 26.625 C 3.975 26.885,3.980 27.124,4.099 27.387 C 4.240 27.697,4.531 27.932,4.830 27.977 C 5.390 28.061,4.483 28.921,16.659 16.756 C 24.427 8.994,27.828 5.562,27.898 5.413 C 28.141 4.895,27.929 4.352,27.387 4.101 C 27.130 3.982,26.865 3.976,26.613 4.084 M25.819 10.421 L 25.111 11.130 25.556 11.494 C 26.236 12.053,27.174 13.019,27.781 13.787 C 28.399 14.568,28.621 14.741,29.012 14.741 C 29.725 14.741,30.204 13.969,29.895 13.318 C 29.792 13.101,29.022 12.125,28.459 11.498 C 28.092 11.090,26.942 10.010,26.663 9.811 L 26.526 9.713 25.819 10.421 M22.242 13.998 C 21.848 14.393,21.536 14.725,21.549 14.736 C 21.562 14.746,21.765 14.897,22.000 15.071 C 22.564 15.489,23.538 16.436,23.957 16.973 C 24.491 17.658,24.599 17.771,24.826 17.874 C 25.377 18.124,25.993 17.835,26.164 17.247 C 26.280 16.848,26.201 16.597,25.784 16.041 C 25.317 15.419,24.630 14.657,24.155 14.235 C 23.834 13.950,23.001 13.280,22.967 13.280 C 22.962 13.280,22.636 13.603,22.242 13.998 M18.654 17.587 L 17.923 18.320 18.468 18.602 C 19.188 18.974,19.855 19.517,20.307 20.097 C 20.800 20.730,20.963 20.879,21.251 20.959 C 21.446 21.014,21.543 21.015,21.710 20.965 C 21.984 20.883,22.285 20.617,22.407 20.347 C 22.597 19.930,22.521 19.679,22.008 19.022 C 21.518 18.394,20.726 17.661,20.072 17.229 C 19.759 17.022,19.477 16.853,19.444 16.853 C 19.412 16.853,19.056 17.183,18.654 17.587 M15.360 21.071 C 14.924 21.155,14.271 21.522,13.905 21.888 C 12.713 23.079,12.707 24.926,13.891 26.109 C 15.078 27.297,16.927 27.284,18.130 26.079 C 18.833 25.376,19.130 24.379,18.928 23.403 C 18.703 22.313,17.687 21.297,16.597 21.072 C 16.272 21.004,15.708 21.004,15.360 21.071 M16.430 23.122 C 16.793 23.310,17.054 23.811,16.983 24.188 C 16.881 24.732,16.225 25.131,15.711 24.961 C 15.284 24.821,15.025 24.468,15.025 24.027 C 15.025 23.261,15.771 22.781,16.430 23.122 " fill="var(--db-icon-color, currentColor)" stroke="none" fill-rule="evenodd"></path></svg>