<svg id="icon" height="24" viewBox="0 0 24 24" width="24" xmlns="http://www.w3.org/2000/svg"><path d="M11.002 4.045 C 8.098 4.284,5.307 5.617,3.304 7.724 C 2.623 8.440,2.117 9.115,2.036 9.414 C 1.982 9.613,2.011 9.908,2.101 10.083 C 2.257 10.385,2.692 10.680,2.980 10.680 C 3.140 10.680,3.476 10.558,3.598 10.456 C 3.665 10.400,3.850 10.179,4.009 9.967 C 4.169 9.754,4.515 9.357,4.780 9.085 C 5.631 8.208,6.441 7.619,7.540 7.079 C 8.542 6.586,9.301 6.339,10.378 6.155 C 10.995 6.049,12.419 6.009,13.105 6.077 C 15.073 6.274,16.925 7.033,18.361 8.232 C 18.878 8.663,19.527 9.349,19.941 9.900 C 20.344 10.436,20.455 10.537,20.729 10.619 C 20.987 10.696,21.054 10.695,21.323 10.616 C 21.867 10.455,22.160 9.754,21.899 9.235 C 21.755 8.948,21.116 8.156,20.600 7.625 C 18.111 5.063,14.593 3.751,11.002 4.045 M11.160 7.985 C 11.105 7.993,10.898 8.020,10.700 8.045 C 10.502 8.070,10.099 8.150,9.805 8.225 C 7.883 8.709,6.119 9.896,4.865 11.550 C 4.414 12.144,4.375 12.578,4.734 12.986 C 5.053 13.348,5.527 13.459,5.915 13.263 C 6.119 13.159,6.190 13.087,6.596 12.565 C 7.466 11.449,8.870 10.530,10.273 10.158 C 11.194 9.914,12.394 9.893,13.380 10.102 C 14.143 10.264,15.003 10.633,15.699 11.097 C 16.420 11.577,16.927 12.056,17.462 12.760 C 17.570 12.903,17.704 13.063,17.759 13.115 C 18.195 13.529,18.947 13.396,19.269 12.849 C 19.415 12.600,19.425 12.190,19.290 11.934 C 19.027 11.436,18.178 10.493,17.500 9.948 C 16.935 9.493,16.469 9.196,15.798 8.863 C 14.871 8.404,13.877 8.111,12.872 8.002 C 12.512 7.963,11.390 7.952,11.160 7.985 M11.107 11.980 C 10.187 12.130,9.333 12.492,8.606 13.040 C 7.939 13.543,7.194 14.447,7.138 14.821 C 7.041 15.468,7.464 15.977,8.100 15.979 C 8.510 15.980,8.731 15.848,9.044 15.414 C 9.737 14.454,10.773 13.920,11.940 13.920 C 13.105 13.920,14.096 14.429,14.838 15.408 C 14.979 15.594,15.152 15.784,15.221 15.830 C 15.621 16.092,16.131 16.036,16.464 15.694 C 16.738 15.412,16.824 15.041,16.699 14.676 C 16.613 14.423,16.185 13.871,15.765 13.471 C 15.001 12.744,14.089 12.260,13.060 12.036 C 12.573 11.929,11.588 11.901,11.107 11.980 M11.560 16.044 C 11.244 16.106,10.878 16.315,10.596 16.597 C 9.802 17.390,9.806 18.613,10.605 19.401 C 11.409 20.195,12.612 20.196,13.403 19.404 C 13.685 19.121,13.839 18.850,13.939 18.462 C 14.295 17.074,13.004 15.762,11.560 16.044 " fill="var(--db-icon-color, currentColor)" stroke="none" fill-rule="evenodd"></path></svg>