<svg id="icon" height="32" viewBox="0 0 32 32" width="32" xmlns="http://www.w3.org/2000/svg"><path d="M7.093 2.586 C 6.281 2.750,5.817 3.020,4.868 3.884 C 3.688 4.956,2.990 6.015,2.684 7.194 C 2.500 7.903,2.456 9.107,2.583 9.968 C 3.108 13.531,5.687 17.744,9.947 22.000 C 14.005 26.055,17.966 28.577,21.440 29.319 C 22.041 29.447,22.215 29.461,23.200 29.460 C 24.213 29.459,24.332 29.449,24.820 29.318 C 25.480 29.140,26.078 28.852,26.689 28.418 C 27.529 27.820,28.682 26.596,29.029 25.932 C 29.697 24.652,29.632 23.086,28.862 21.952 C 28.754 21.795,27.887 20.867,26.933 19.890 C 25.186 18.101,24.872 17.828,24.246 17.554 C 23.367 17.169,22.109 17.127,21.227 17.454 C 20.707 17.646,20.365 17.911,19.413 18.857 L 18.480 19.785 18.107 19.489 C 17.176 18.749,15.566 17.226,14.278 15.867 C 13.250 14.782,12.267 13.656,12.267 13.563 C 12.267 13.535,12.629 13.168,13.072 12.747 C 13.515 12.326,13.969 11.859,14.082 11.711 C 14.583 11.047,14.844 10.249,14.842 9.387 C 14.841 8.515,14.582 7.743,14.065 7.067 C 13.726 6.624,10.413 3.437,10.009 3.165 C 9.166 2.599,8.091 2.386,7.093 2.586 M8.753 4.679 C 9.057 4.829,9.341 5.087,10.921 6.653 C 12.624 8.340,12.745 8.472,12.836 8.747 C 12.983 9.196,12.961 9.765,12.779 10.163 C 12.655 10.435,12.462 10.649,11.403 11.680 C 10.701 12.364,10.140 12.954,10.099 13.052 C 10.005 13.276,10.007 13.610,10.105 13.843 C 10.276 14.252,11.555 15.926,12.590 17.093 C 13.954 18.633,16.160 20.583,17.779 21.680 C 18.231 21.986,18.265 22.000,18.583 22.000 C 19.006 22.000,18.992 22.011,20.500 20.535 C 21.564 19.494,21.717 19.364,22.002 19.257 C 22.261 19.160,22.404 19.141,22.773 19.156 C 23.520 19.186,23.527 19.191,25.452 21.140 C 26.383 22.082,27.206 22.955,27.281 23.080 C 27.502 23.446,27.600 23.936,27.533 24.341 C 27.432 24.948,27.251 25.232,26.455 26.030 C 25.679 26.809,25.188 27.160,24.606 27.355 C 23.035 27.879,20.699 27.395,18.193 26.028 C 13.508 23.471,7.943 17.767,5.626 13.146 C 4.809 11.517,4.426 10.130,4.428 8.800 C 4.429 7.422,4.794 6.665,6.035 5.461 C 6.886 4.635,7.213 4.473,7.975 4.494 C 8.335 4.505,8.458 4.534,8.753 4.679 " fill="var(--db-icon-color, currentColor)" stroke="none" fill-rule="evenodd"></path></svg>