<svg id="icon" height="32" viewBox="0 0 32 32" width="32" xmlns="http://www.w3.org/2000/svg"><path d="M6.347 4.084 C 5.782 4.206,5.356 4.448,4.906 4.902 C 4.443 5.369,4.253 5.693,4.106 6.271 C 4.002 6.674,4.000 6.893,4.000 16.006 C 4.000 22.526,4.017 25.413,4.058 25.611 C 4.159 26.099,4.504 26.744,4.851 27.091 C 5.202 27.442,5.505 27.635,6.020 27.836 L 6.373 27.973 15.840 27.989 C 22.729 28.001,25.394 27.989,25.627 27.945 C 26.044 27.866,26.533 27.630,26.899 27.333 C 27.261 27.038,27.691 26.406,27.852 25.931 L 27.973 25.573 27.990 16.107 C 28.002 9.085,27.990 6.564,27.944 6.347 C 27.721 5.286,26.718 4.312,25.606 4.077 C 25.336 4.019,24.736 4.002,23.040 4.002 C 21.001 4.002,20.810 4.010,20.613 4.101 C 19.724 4.511,19.848 5.749,20.801 5.969 C 20.943 6.002,21.899 6.025,23.166 6.025 C 25.268 6.027,25.295 6.028,25.505 6.146 C 25.623 6.213,25.774 6.362,25.845 6.484 L 25.973 6.703 25.973 15.994 C 25.973 24.003,25.963 25.306,25.896 25.435 C 25.795 25.631,25.476 25.908,25.292 25.959 C 25.212 25.982,21.019 26.000,15.973 26.000 L 6.800 26.000 6.571 25.878 C 6.429 25.802,6.281 25.660,6.184 25.507 L 6.027 25.259 6.027 15.986 C 6.027 9.236,6.043 6.681,6.087 6.596 C 6.175 6.424,6.407 6.188,6.571 6.102 C 6.688 6.041,7.112 6.027,8.821 6.027 C 11.219 6.027,11.391 6.008,11.688 5.711 C 12.195 5.204,12.045 4.398,11.387 4.099 C 11.191 4.010,10.990 4.003,8.933 4.005 C 7.217 4.008,6.612 4.026,6.347 4.084 M15.600 4.101 C 15.342 4.220,15.179 4.389,15.069 4.652 C 14.996 4.827,14.987 5.541,14.987 10.703 L 14.987 16.556 13.267 14.845 C 11.409 12.997,11.383 12.977,10.876 13.026 C 10.279 13.083,9.900 13.654,10.055 14.262 C 10.116 14.504,10.279 14.679,12.753 17.159 C 14.518 18.927,15.457 19.831,15.600 19.898 C 15.871 20.025,16.129 20.025,16.400 19.898 C 16.543 19.831,17.482 18.927,19.264 17.139 C 21.816 14.580,21.917 14.471,21.953 14.240 C 21.974 14.108,21.989 13.988,21.987 13.973 C 21.985 13.959,21.969 13.859,21.951 13.751 C 21.864 13.201,21.092 12.837,20.571 13.099 C 20.477 13.146,19.638 13.944,18.707 14.871 L 17.013 16.558 17.012 10.692 C 17.011 5.104,17.006 4.817,16.913 4.613 C 16.671 4.091,16.103 3.869,15.600 4.101 " fill="var(--db-icon-color, currentColor)" stroke="none" fill-rule="evenodd"></path></svg>