<svg id="icon" height="32" viewBox="0 0 32 32" width="32" xmlns="http://www.w3.org/2000/svg"><path d="M4.220 2.111 C 3.240 2.374,2.454 3.153,2.098 4.213 C 2.004 4.494,1.999 4.998,1.983 16.213 C 1.971 24.907,1.983 27.993,2.028 28.205 C 2.127 28.664,2.572 29.017,3.046 29.012 C 3.422 29.009,3.601 28.848,6.480 25.946 C 8.931 23.475,9.335 23.089,9.520 23.042 C 9.661 23.006,12.712 22.987,18.571 22.987 C 24.775 22.987,27.492 22.969,27.691 22.928 C 28.727 22.714,29.599 21.875,29.902 20.800 C 29.995 20.471,30.000 20.052,30.000 12.480 C 30.000 4.896,29.995 4.491,29.902 4.189 C 29.575 3.129,28.813 2.379,27.784 2.105 C 27.348 1.989,4.653 1.994,4.220 2.111 M27.309 4.053 C 27.413 4.082,27.574 4.184,27.666 4.279 C 28.024 4.649,28.000 4.055,27.999 12.545 C 27.998 19.898,27.993 20.249,27.900 20.453 C 27.788 20.696,27.670 20.815,27.440 20.916 C 27.310 20.973,25.556 20.992,18.187 21.013 L 9.093 21.040 8.794 21.154 C 8.630 21.217,8.390 21.334,8.261 21.414 C 8.132 21.494,7.121 22.462,6.013 23.565 L 4.000 25.571 4.000 15.199 C 4.000 8.612,4.019 4.760,4.052 4.644 C 4.119 4.410,4.293 4.224,4.560 4.101 C 4.765 4.006,5.197 4.002,15.947 4.001 C 23.119 4.001,27.188 4.019,27.309 4.053 M15.485 6.161 C 15.330 6.254,15.221 6.377,15.125 6.571 L 14.987 6.848 14.988 9.997 C 14.989 12.928,14.996 13.161,15.086 13.360 C 15.207 13.627,15.509 13.897,15.766 13.968 C 16.240 14.099,16.804 13.780,16.948 13.299 C 16.996 13.137,17.013 12.277,17.011 9.967 C 17.009 6.687,17.003 6.600,16.765 6.337 C 16.468 6.009,15.874 5.927,15.485 6.161 M15.491 15.699 C 15.171 15.848,14.817 16.232,14.729 16.523 C 14.450 17.455,15.087 18.351,16.024 18.344 C 16.824 18.339,17.366 17.854,17.427 17.091 C 17.512 16.029,16.440 15.258,15.491 15.699 " fill="var(--db-icon-color, currentColor)" stroke="none" fill-rule="evenodd"></path></svg>