<svg id="icon" height="20" viewBox="0 0 20 20" width="20" xmlns="http://www.w3.org/2000/svg"><path d="M5.692 2.032 C 4.308 2.285,2.848 3.930,2.466 5.667 C 2.252 6.639,2.438 7.808,3.022 9.167 C 3.884 11.169,5.771 13.495,7.850 15.118 C 8.315 15.481,9.240 16.098,9.717 16.362 C 11.087 17.123,12.514 17.515,13.525 17.408 C 14.608 17.294,15.760 16.695,16.604 15.807 C 17.087 15.298,17.409 14.766,17.554 14.233 C 17.647 13.890,17.633 13.355,17.522 13.014 C 17.384 12.590,17.229 12.390,16.355 11.505 C 15.313 10.450,15.112 10.319,14.550 10.320 C 14.213 10.321,13.923 10.404,13.655 10.576 C 13.536 10.653,13.128 11.027,12.681 11.472 L 11.912 12.235 11.564 11.946 C 10.828 11.333,10.422 10.958,9.617 10.151 C 8.834 9.367,7.517 7.936,7.517 7.870 C 7.517 7.854,7.880 7.465,8.324 7.005 C 9.154 6.145,9.244 6.028,9.344 5.665 C 9.430 5.356,9.439 5.190,9.385 4.930 C 9.296 4.505,9.231 4.413,8.305 3.412 C 7.365 2.395,7.231 2.282,6.777 2.126 C 6.474 2.021,5.984 1.979,5.692 2.032 " fill="var(--db-icon-color, currentColor)" stroke="none" fill-rule="evenodd"></path></svg>