<svg id="icon" height="20" viewBox="0 0 20 20" width="20" xmlns="http://www.w3.org/2000/svg"><path d="M4.560 2.036 C 3.330 2.216,2.318 3.181,2.063 4.416 C 2.004 4.702,2.001 4.978,2.001 9.983 C 2.001 13.498,2.012 15.322,2.035 15.467 C 2.222 16.625,3.023 17.525,4.191 17.892 L 4.483 17.983 9.983 17.983 C 15.149 17.983,15.497 17.980,15.700 17.924 C 16.074 17.822,16.359 17.700,16.621 17.528 C 17.242 17.123,17.655 16.564,17.892 15.809 L 17.983 15.517 17.983 10.017 L 17.983 4.517 17.907 4.239 C 17.717 3.541,17.288 2.926,16.719 2.535 C 16.490 2.377,16.049 2.176,15.750 2.093 C 15.488 2.020,15.446 2.019,13.080 2.008 L 10.677 1.997 12.250 3.573 C 14.010 5.337,13.976 5.295,13.978 5.733 C 13.979 5.931,13.962 6.018,13.899 6.150 C 13.714 6.533,13.344 6.753,12.933 6.725 C 12.586 6.701,12.487 6.630,11.708 5.855 L 11.000 5.151 11.000 8.657 C 11.000 12.117,10.999 12.167,10.931 12.348 C 10.848 12.570,10.644 12.789,10.416 12.902 C 10.182 13.017,9.819 13.017,9.586 12.903 C 9.377 12.800,9.200 12.623,9.097 12.414 L 9.017 12.250 9.000 8.725 L 8.983 5.199 8.383 5.802 C 8.053 6.133,7.716 6.454,7.633 6.515 C 7.119 6.897,6.398 6.741,6.107 6.183 C 5.987 5.954,5.982 5.557,6.096 5.333 C 6.149 5.231,6.676 4.679,7.761 3.592 L 9.350 2.000 7.050 2.004 C 5.785 2.006,4.664 2.021,4.560 2.036 " fill="var(--db-icon-color, currentColor)" stroke="none" fill-rule="evenodd"></path></svg>