<svg id="icon" height="32" viewBox="0 0 32 32" width="32" xmlns="http://www.w3.org/2000/svg"><path d="M4.220 2.111 C 3.240 2.374,2.454 3.153,2.098 4.213 C 2.004 4.494,1.999 4.998,1.983 16.213 C 1.971 24.907,1.983 27.993,2.028 28.205 C 2.127 28.664,2.572 29.017,3.046 29.012 C 3.422 29.009,3.601 28.848,6.480 25.946 C 8.931 23.475,9.335 23.089,9.520 23.042 C 9.661 23.006,12.712 22.987,18.571 22.987 C 24.775 22.987,27.492 22.969,27.691 22.928 C 28.727 22.714,29.599 21.875,29.902 20.800 C 29.995 20.471,30.000 20.052,30.000 12.480 C 30.000 4.896,29.995 4.491,29.902 4.189 C 29.575 3.129,28.813 2.379,27.784 2.105 C 27.348 1.989,4.653 1.994,4.220 2.111 M27.309 4.053 C 27.413 4.082,27.574 4.184,27.666 4.279 C 28.024 4.649,28.000 4.055,27.999 12.545 C 27.998 19.898,27.993 20.249,27.900 20.453 C 27.788 20.696,27.670 20.815,27.440 20.916 C 27.310 20.973,25.556 20.992,18.187 21.013 L 9.093 21.040 8.794 21.154 C 8.630 21.217,8.390 21.334,8.261 21.414 C 8.132 21.494,7.121 22.462,6.013 23.565 L 4.000 25.571 4.000 15.199 C 4.000 8.612,4.019 4.760,4.052 4.644 C 4.119 4.410,4.293 4.224,4.560 4.101 C 4.765 4.006,5.197 4.002,15.947 4.001 C 23.119 4.001,27.188 4.019,27.309 4.053 M14.960 6.543 C 14.239 6.633,13.612 6.859,13.313 7.137 C 12.763 7.651,12.991 8.551,13.722 8.752 C 13.921 8.807,14.028 8.794,14.667 8.635 C 15.586 8.407,16.074 8.394,16.450 8.587 C 16.798 8.766,16.922 8.994,16.890 9.391 C 16.843 9.955,16.609 10.259,15.749 10.869 C 15.170 11.280,14.735 11.710,14.570 12.034 C 14.327 12.511,14.217 13.337,14.350 13.690 C 14.427 13.894,14.657 14.131,14.865 14.220 C 15.481 14.483,16.213 14.028,16.213 13.381 C 16.213 12.965,16.467 12.648,17.223 12.120 C 18.131 11.484,18.543 10.955,18.746 10.162 C 18.853 9.741,18.851 8.902,18.742 8.530 C 18.363 7.241,17.193 6.489,15.609 6.515 C 15.340 6.519,15.048 6.532,14.960 6.543 M14.747 15.624 C 14.353 15.812,14.119 16.095,14.031 16.489 C 13.864 17.233,14.479 17.992,15.247 17.991 C 15.932 17.990,16.482 17.429,16.479 16.735 C 16.477 16.247,16.172 15.790,15.722 15.603 C 15.450 15.490,15.008 15.499,14.747 15.624 " fill="var(--db-icon-color, currentColor)" stroke="none" fill-rule="evenodd"></path></svg>