<svg id="icon" height="24" viewBox="0 0 24 24" width="24" xmlns="http://www.w3.org/2000/svg"><path d="M4.553 2.041 C 3.388 2.239,2.507 3.012,2.115 4.180 L 2.021 4.460 2.010 12.793 C 2.002 18.489,2.012 21.176,2.040 21.282 C 2.102 21.509,2.313 21.761,2.540 21.878 C 2.820 22.022,3.229 22.023,3.465 21.880 C 3.557 21.825,4.473 20.964,5.503 19.967 C 6.533 18.970,7.430 18.124,7.498 18.087 C 7.610 18.025,8.098 18.018,13.540 18.000 L 19.460 17.980 19.820 17.868 C 20.810 17.560,21.528 16.856,21.870 15.860 L 21.980 15.540 21.980 10.020 L 21.980 4.500 21.885 4.200 C 21.558 3.161,20.827 2.431,19.794 2.111 L 19.500 2.021 12.120 2.015 C 8.061 2.011,4.656 2.023,4.553 2.041 M19.391 4.102 C 19.588 4.184,19.792 4.382,19.884 4.580 C 19.955 4.733,19.958 4.961,19.959 9.995 C 19.960 13.910,19.948 15.291,19.913 15.408 C 19.850 15.618,19.601 15.894,19.391 15.985 C 19.227 16.057,18.963 16.061,13.260 16.081 C 6.653 16.104,7.239 16.079,6.657 16.371 C 6.240 16.581,6.050 16.741,5.002 17.755 L 4.040 18.688 4.040 11.722 C 4.040 4.031,4.020 4.612,4.292 4.325 C 4.362 4.251,4.492 4.157,4.580 4.116 C 4.734 4.045,5.013 4.042,11.991 4.041 C 18.453 4.040,19.259 4.047,19.391 4.102 M11.670 6.057 C 11.365 6.166,11.172 6.363,11.061 6.678 C 10.977 6.915,10.974 9.617,11.057 9.850 C 11.197 10.241,11.579 10.497,12.016 10.492 C 12.150 10.490,12.337 10.458,12.431 10.420 C 12.638 10.336,12.889 10.061,12.953 9.848 C 12.985 9.740,13.000 9.244,13.000 8.272 C 13.000 6.645,12.991 6.585,12.694 6.296 C 12.417 6.027,12.017 5.933,11.670 6.057 M11.780 11.675 C 11.467 11.757,11.136 12.018,10.992 12.297 C 10.889 12.497,10.855 12.866,10.918 13.093 C 10.945 13.189,11.033 13.354,11.114 13.460 C 11.538 14.017,12.361 14.072,12.857 13.577 C 13.280 13.154,13.307 12.509,12.919 12.068 C 12.647 11.759,12.134 11.583,11.780 11.675 " fill="var(--db-icon-color, currentColor)" stroke="none" fill-rule="evenodd"></path></svg>