<svg id="icon" height="32" viewBox="0 0 32 32" width="32" xmlns="http://www.w3.org/2000/svg"><path d="M4.219 2.111 C 3.265 2.368,2.435 3.188,2.118 4.187 L 2.000 4.560 2.000 16.453 C 2.000 27.420,2.007 28.359,2.088 28.507 C 2.208 28.723,2.390 28.880,2.608 28.953 C 2.858 29.036,2.938 29.030,3.290 28.898 C 3.575 28.792,3.798 28.585,6.444 25.978 C 8.010 24.436,9.330 23.149,9.379 23.120 C 9.436 23.085,12.608 23.057,18.453 23.038 C 26.663 23.012,27.465 23.002,27.731 22.920 C 28.815 22.586,29.573 21.836,29.902 20.771 C 29.995 20.469,30.000 20.066,30.000 12.533 C 30.000 5.001,29.995 4.598,29.902 4.296 C 29.742 3.778,29.513 3.383,29.151 3.000 C 28.764 2.591,28.351 2.322,27.843 2.149 L 27.493 2.029 16.000 2.032 C 6.136 2.033,4.466 2.045,4.219 2.111 M27.467 4.099 C 27.570 4.153,27.725 4.299,27.813 4.423 L 27.973 4.649 27.973 12.525 L 27.973 20.400 27.849 20.575 C 27.780 20.671,27.624 20.803,27.502 20.868 L 27.280 20.987 18.133 21.013 C 9.260 21.039,8.979 21.043,8.747 21.143 C 8.221 21.367,7.895 21.655,5.980 23.582 L 4.003 25.573 4.002 15.155 C 4.000 5.605,4.007 4.721,4.088 4.552 C 4.185 4.345,4.449 4.122,4.677 4.054 C 4.759 4.029,9.879 4.007,16.054 4.005 C 26.888 4.000,27.288 4.003,27.467 4.099 M7.600 9.097 C 7.203 9.304,6.944 9.743,7.004 10.110 C 7.055 10.430,7.279 10.750,7.536 10.875 L 7.767 10.987 16.046 10.987 C 25.172 10.987,24.497 11.013,24.763 10.653 C 24.912 10.453,25.013 10.179,25.013 9.976 C 25.013 9.747,24.767 9.319,24.551 9.173 L 24.354 9.040 16.057 9.027 C 8.622 9.015,7.743 9.022,7.600 9.097 M7.460 14.179 C 7.208 14.339,7.056 14.582,7.002 14.910 C 6.937 15.315,7.287 15.822,7.719 15.947 C 7.861 15.988,10.328 16.000,16.160 15.989 L 24.400 15.973 24.580 15.845 C 24.842 15.658,25.036 15.209,24.993 14.889 C 24.949 14.569,24.746 14.269,24.482 14.134 C 24.273 14.028,24.193 14.027,15.986 14.027 L 7.701 14.027 7.460 14.179 " fill="var(--db-icon-color, currentColor)" stroke="none" fill-rule="evenodd"></path></svg>