<svg id="icon" height="20" viewBox="0 0 20 20" width="20" xmlns="http://www.w3.org/2000/svg"><path d="M4.104 2.038 C 3.263 2.177,2.504 2.793,2.178 3.601 C 1.993 4.059,2.001 3.724,2.001 10.707 C 2.000 17.154,2.000 17.164,2.069 17.348 C 2.151 17.568,2.360 17.790,2.590 17.903 C 2.717 17.965,2.805 17.981,3.017 17.982 C 3.449 17.982,3.447 17.984,4.904 16.503 C 5.789 15.603,6.235 15.173,6.350 15.109 L 6.517 15.017 11.233 15.000 L 15.950 14.983 16.183 14.905 C 16.690 14.734,17.001 14.536,17.345 14.165 C 17.585 13.906,17.787 13.546,17.905 13.167 L 17.983 12.917 17.983 8.517 C 17.983 3.553,18.001 3.906,17.721 3.365 C 17.358 2.663,16.704 2.188,15.907 2.049 C 15.665 2.007,14.819 2.001,9.954 2.004 C 6.801 2.006,4.204 2.021,4.104 2.038 M11.000 3.951 C 11.119 3.981,11.357 4.074,11.529 4.156 C 11.787 4.279,11.891 4.354,12.117 4.578 C 12.340 4.799,12.417 4.903,12.526 5.133 C 12.699 5.496,12.747 5.728,12.745 6.183 C 12.743 6.632,12.678 6.924,12.498 7.283 C 12.314 7.651,12.111 7.893,11.605 8.346 C 10.999 8.888,11.019 8.851,11.006 9.408 L 10.995 9.867 9.997 9.867 L 9.000 9.867 9.000 9.425 C 9.001 8.383,9.173 8.064,10.087 7.415 C 10.563 7.076,10.710 6.914,10.763 6.670 C 10.824 6.384,10.716 6.148,10.476 6.046 C 10.313 5.976,9.795 5.987,9.483 6.067 C 9.265 6.123,9.117 6.179,8.647 6.387 C 8.625 6.397,8.474 6.049,8.272 5.527 L 7.933 4.650 8.025 4.575 C 8.222 4.412,8.843 4.128,9.248 4.014 C 9.805 3.857,10.531 3.831,11.000 3.951 M10.408 10.953 C 10.890 11.123,11.201 11.679,11.101 12.195 C 11.028 12.576,10.728 12.940,10.391 13.055 C 9.560 13.339,8.757 12.658,8.902 11.791 C 9.016 11.110,9.728 10.713,10.408 10.953 " fill="var(--db-icon-color, currentColor)" stroke="none" fill-rule="evenodd"></path></svg>