<svg id="icon" height="24" viewBox="0 0 24 24" width="24" xmlns="http://www.w3.org/2000/svg"><path d="M6.380 2.614 C 4.952 3.078,3.400 4.729,2.802 6.420 C 2.537 7.169,2.452 7.846,2.520 8.675 C 2.734 11.317,4.435 14.289,7.456 17.301 C 10.018 19.855,12.534 21.337,14.933 21.706 C 15.473 21.788,16.397 21.789,16.865 21.706 C 18.014 21.503,18.946 20.977,19.963 19.955 C 20.850 19.065,21.226 18.486,21.402 17.742 C 21.595 16.928,21.423 16.084,20.935 15.445 C 20.861 15.348,20.124 14.579,19.297 13.735 C 17.521 11.924,17.557 11.951,16.836 11.926 C 16.519 11.915,16.350 11.929,16.175 11.979 C 15.680 12.122,15.533 12.236,14.557 13.230 C 14.051 13.746,13.615 14.159,13.588 14.148 C 13.490 14.109,12.248 13.052,11.865 12.682 C 11.402 12.235,10.879 11.635,10.383 10.985 L 10.029 10.521 10.914 9.619 C 11.400 9.123,11.850 8.641,11.912 8.548 C 12.309 7.959,12.378 7.188,12.090 6.544 C 11.994 6.330,11.808 6.123,10.548 4.840 C 8.957 3.219,8.749 3.027,8.356 2.821 C 7.770 2.513,6.955 2.428,6.380 2.614 M7.533 4.597 C 7.603 4.640,8.271 5.289,9.019 6.037 L 10.377 7.398 9.336 8.449 C 8.015 9.781,7.840 10.011,7.840 10.410 C 7.840 11.054,9.531 13.256,11.040 14.578 C 11.886 15.319,12.715 15.933,13.211 16.185 C 13.315 16.238,13.510 16.310,13.644 16.344 C 14.050 16.448,14.116 16.400,15.473 15.018 C 16.109 14.370,16.646 13.840,16.667 13.840 C 16.689 13.840,17.329 14.477,18.090 15.255 C 19.607 16.805,19.596 16.790,19.545 17.218 C 19.508 17.530,19.354 17.785,18.900 18.287 C 17.821 19.479,17.096 19.840,15.782 19.840 C 14.248 19.840,12.218 18.855,10.064 17.064 C 9.338 16.461,8.273 15.413,7.641 14.680 C 6.297 13.123,5.317 11.516,4.803 10.025 C 4.575 9.363,4.481 8.876,4.453 8.220 C 4.432 7.732,4.440 7.617,4.514 7.326 C 4.668 6.718,5.098 5.973,5.623 5.406 C 6.343 4.628,7.083 4.315,7.533 4.597 " fill="var(--db-icon-color, currentColor)" stroke="none" fill-rule="evenodd"></path></svg>