<svg id="icon" height="32" viewBox="0 0 32 32" width="32" xmlns="http://www.w3.org/2000/svg"><path d="M9.562 2.104 C 8.851 2.326,8.226 3.004,8.057 3.736 C 8.023 3.883,8.002 5.132,8.001 7.027 L 8.000 10.080 7.879 10.080 C 7.637 10.080,6.953 10.305,6.536 10.522 C 5.266 11.183,4.356 12.392,3.758 14.213 C 3.337 15.494,3.127 16.795,3.028 18.738 C 2.865 21.923,3.343 24.937,4.319 26.889 C 5.174 28.597,6.399 29.651,7.847 29.924 C 8.330 30.015,9.236 30.002,9.675 29.898 C 10.475 29.709,11.150 29.225,11.482 28.604 C 11.663 28.265,11.840 27.592,11.840 27.245 L 11.840 26.987 19.091 26.987 C 24.145 26.987,26.427 26.969,26.624 26.928 C 27.089 26.832,27.647 26.534,28.027 26.179 C 28.431 25.801,28.688 25.401,28.862 24.880 L 28.987 24.507 28.987 20.000 L 28.987 15.493 28.860 15.120 C 28.680 14.591,28.426 14.195,28.027 13.821 C 27.526 13.353,26.752 13.013,26.184 13.013 L 26.027 13.013 26.027 10.010 C 26.027 7.482,26.014 6.963,25.946 6.734 C 25.871 6.482,25.710 6.305,23.777 4.347 C 22.572 3.128,21.602 2.189,21.486 2.130 C 21.290 2.030,21.114 2.027,15.535 2.030 C 10.938 2.033,9.742 2.048,9.562 2.104 M19.040 6.040 C 19.040 7.279,19.062 8.158,19.096 8.278 C 19.169 8.544,19.388 8.794,19.651 8.913 C 19.848 9.003,20.044 9.011,21.933 9.012 L 24.000 9.013 24.000 11.013 L 24.000 13.013 17.928 13.013 L 11.856 13.013 11.823 12.600 C 11.742 11.561,11.231 10.772,10.375 10.366 L 9.973 10.175 9.973 7.171 C 9.973 4.512,9.983 4.158,10.057 4.084 C 10.132 4.009,10.617 4.000,14.590 4.000 L 19.040 4.000 19.040 6.040 M23.511 6.992 C 23.521 7.020,23.003 7.040,22.271 7.040 L 21.013 7.040 21.013 5.734 L 21.013 4.428 22.253 5.686 C 22.935 6.377,23.501 6.965,23.511 6.992 M9.484 12.128 C 9.812 12.298,9.813 12.307,9.813 13.908 C 9.813 15.106,9.799 15.393,9.732 15.522 C 9.603 15.772,9.407 15.840,8.816 15.840 C 8.529 15.840,8.208 15.864,8.104 15.893 C 7.297 16.118,6.934 17.637,7.003 20.507 C 7.045 22.275,7.189 23.119,7.537 23.641 C 7.790 24.020,8.008 24.107,8.713 24.107 C 9.336 24.107,9.507 24.158,9.702 24.406 C 9.809 24.542,9.813 24.608,9.813 26.030 L 9.813 27.512 9.676 27.675 C 9.491 27.894,9.204 27.963,8.587 27.935 C 8.166 27.916,8.021 27.885,7.733 27.752 C 6.432 27.151,5.532 25.283,5.136 22.364 C 5.018 21.497,5.001 18.369,5.109 17.493 C 5.410 15.046,5.941 13.610,6.870 12.731 C 7.210 12.409,7.703 12.141,8.112 12.054 C 8.454 11.982,9.288 12.027,9.484 12.128 M26.448 15.120 C 26.547 15.179,26.703 15.319,26.794 15.432 L 26.960 15.637 26.960 20.000 L 26.960 24.363 26.797 24.568 C 26.707 24.681,26.528 24.827,26.399 24.893 L 26.164 25.013 19.002 25.013 L 11.840 25.013 11.840 24.776 C 11.840 24.408,11.740 24.009,11.543 23.594 C 11.162 22.791,10.163 22.133,9.323 22.133 C 9.149 22.133,9.116 22.113,9.081 21.987 C 9.027 21.795,9.028 18.445,9.081 18.133 L 9.123 17.893 9.581 17.804 C 10.180 17.688,10.641 17.456,11.024 17.077 C 11.515 16.593,11.837 15.856,11.839 15.212 L 11.840 14.985 19.053 14.999 C 26.158 15.013,26.269 15.015,26.448 15.120 M17.572 18.101 C 17.346 18.200,17.078 18.523,17.036 18.749 C 16.946 19.229,17.160 19.693,17.560 19.887 C 18.325 20.257,19.125 19.609,18.964 18.749 C 18.920 18.517,18.651 18.197,18.416 18.099 C 18.199 18.008,17.783 18.009,17.572 18.101 M20.560 18.111 C 20.311 18.240,20.170 18.396,20.074 18.648 C 19.770 19.445,20.554 20.230,21.352 19.926 C 21.662 19.807,21.867 19.580,21.949 19.262 C 22.118 18.610,21.677 18.026,21.016 18.027 C 20.852 18.027,20.648 18.065,20.560 18.111 M23.511 18.135 C 23.131 18.335,22.911 18.845,23.032 19.246 C 23.211 19.845,23.851 20.150,24.402 19.900 C 24.845 19.698,25.085 19.227,24.968 18.788 C 24.882 18.465,24.729 18.260,24.478 18.132 C 24.208 17.995,23.774 17.996,23.511 18.135 M17.573 21.102 C 17.210 21.294,17.013 21.610,17.013 22.001 C 17.013 22.599,17.476 23.020,18.084 22.976 C 18.448 22.950,18.717 22.773,18.880 22.452 C 19.071 22.080,18.980 21.531,18.686 21.273 C 18.389 21.013,17.888 20.936,17.573 21.102 M20.542 21.125 C 19.886 21.458,19.825 22.408,20.434 22.811 C 20.677 22.972,21.075 23.028,21.344 22.939 C 21.898 22.756,22.164 21.957,21.838 21.457 C 21.572 21.049,20.986 20.899,20.542 21.125 M23.600 21.086 C 23.266 21.242,22.990 21.655,22.988 22.003 C 22.986 22.249,23.224 22.675,23.449 22.827 C 23.610 22.936,23.710 22.960,24.000 22.960 C 24.290 22.960,24.390 22.936,24.551 22.827 C 24.776 22.674,25.013 22.250,25.013 22.000 C 25.013 21.752,24.776 21.326,24.556 21.176 C 24.322 21.018,23.843 20.973,23.600 21.086 " fill="var(--db-icon-color, currentColor)" stroke="none" fill-rule="evenodd"></path></svg>