<svg id="icon" height="20" viewBox="0 0 20 20" width="20" xmlns="http://www.w3.org/2000/svg"><path d="M4.146 2.036 C 3.591 2.130,3.120 2.374,2.714 2.780 C 2.415 3.079,2.241 3.359,2.104 3.761 L 2.017 4.017 2.008 10.615 L 1.999 17.214 2.085 17.389 C 2.185 17.594,2.314 17.712,2.567 17.829 C 2.793 17.934,3.170 17.945,3.383 17.852 C 3.476 17.812,3.915 17.398,4.833 16.484 C 5.558 15.763,6.195 15.151,6.250 15.124 C 6.495 15.003,6.621 15.000,11.280 15.000 C 15.725 15.000,15.863 14.998,16.113 14.934 C 16.932 14.725,17.599 14.060,17.905 13.150 L 17.983 12.917 17.992 8.502 C 18.001 4.189,18.000 4.081,17.935 3.825 C 17.727 3.002,17.094 2.371,16.199 2.094 L 15.950 2.017 10.133 2.012 C 6.934 2.009,4.240 2.020,4.146 2.036 M16.000 8.499 L 16.000 12.998 11.092 13.008 L 6.183 13.018 5.939 13.093 C 5.392 13.262,5.056 13.487,4.467 14.081 C 4.238 14.311,4.040 14.500,4.026 14.500 C 4.011 14.500,4.000 12.137,4.000 9.250 L 4.000 4.000 10.000 4.000 L 16.000 4.000 16.000 8.499 M6.000 7.000 L 6.000 8.000 10.000 8.000 L 14.000 8.000 14.000 7.000 L 14.000 6.000 10.000 6.000 L 6.000 6.000 6.000 7.000 M6.000 10.000 L 6.000 11.000 10.000 11.000 L 14.000 11.000 14.000 10.000 L 14.000 9.000 10.000 9.000 L 6.000 9.000 6.000 10.000 " fill="var(--db-icon-color, currentColor)" stroke="none" fill-rule="evenodd"></path></svg>