<svg id="icon" height="20" viewBox="0 0 20 20" width="20" xmlns="http://www.w3.org/2000/svg"><path d="M4.104 2.038 C 3.263 2.177,2.504 2.793,2.178 3.601 C 1.993 4.059,2.001 3.724,2.001 10.707 C 2.000 17.154,2.000 17.164,2.069 17.348 C 2.151 17.568,2.360 17.790,2.590 17.903 C 2.717 17.965,2.805 17.981,3.017 17.982 C 3.449 17.982,3.447 17.984,4.904 16.503 C 5.789 15.603,6.235 15.173,6.350 15.109 L 6.517 15.017 11.233 15.000 L 15.950 14.983 16.183 14.905 C 16.690 14.734,17.001 14.536,17.345 14.165 C 17.585 13.906,17.787 13.546,17.905 13.167 L 17.983 12.917 17.983 8.517 C 17.983 3.553,18.001 3.906,17.721 3.365 C 17.358 2.663,16.704 2.188,15.907 2.049 C 15.665 2.007,14.819 2.001,9.954 2.004 C 6.801 2.006,4.204 2.021,4.104 2.038 M16.000 8.499 L 16.000 12.998 11.175 13.009 C 5.720 13.020,6.246 12.992,5.617 13.300 C 5.205 13.502,5.010 13.649,4.445 14.184 L 4.000 14.605 4.000 9.303 L 4.000 4.000 10.000 4.000 L 16.000 4.000 16.000 8.499 M9.647 5.049 C 9.498 5.072,9.266 5.124,9.131 5.165 C 8.887 5.239,8.454 5.439,8.421 5.494 C 8.403 5.523,8.884 6.795,8.932 6.844 C 8.947 6.859,9.034 6.834,9.126 6.787 C 9.547 6.574,10.199 6.495,10.423 6.632 C 10.570 6.721,10.610 6.812,10.593 7.019 C 10.573 7.257,10.474 7.379,10.074 7.657 C 9.552 8.019,9.356 8.258,9.268 8.640 C 9.250 8.719,9.235 9.005,9.234 9.275 L 9.233 9.767 10.017 9.767 L 10.800 9.767 10.800 9.294 L 10.800 8.821 11.312 8.319 C 11.768 7.872,11.838 7.789,11.942 7.567 C 12.090 7.251,12.142 7.026,12.142 6.700 C 12.142 6.199,11.993 5.831,11.663 5.516 C 11.216 5.090,10.480 4.919,9.647 5.049 M9.723 10.546 C 9.509 10.626,9.341 10.758,9.244 10.924 C 9.161 11.065,9.150 11.116,9.150 11.369 C 9.150 11.629,9.159 11.670,9.251 11.819 C 9.518 12.253,10.069 12.373,10.491 12.089 C 10.891 11.820,10.991 11.241,10.706 10.847 C 10.509 10.576,10.034 10.430,9.723 10.546 " fill="var(--db-icon-color, currentColor)" stroke="none" fill-rule="evenodd"></path></svg>