<svg id="icon" height="20" viewBox="0 0 20 20" width="20" xmlns="http://www.w3.org/2000/svg"><path d="M5.723 2.035 C 4.315 2.271,2.814 3.960,2.451 5.715 C 2.112 7.360,2.936 9.684,4.651 11.917 C 6.762 14.665,9.761 16.769,12.317 17.295 C 13.124 17.461,13.728 17.467,14.252 17.315 C 14.976 17.105,15.629 16.700,16.312 16.036 C 16.923 15.441,17.351 14.800,17.538 14.200 C 17.702 13.675,17.605 13.010,17.295 12.530 C 17.177 12.348,14.813 9.912,14.535 9.687 C 14.210 9.424,13.734 9.296,13.325 9.363 C 12.884 9.435,12.720 9.539,12.132 10.120 L 11.605 10.640 11.328 10.431 C 10.901 10.109,10.464 9.726,10.198 9.441 C 9.952 9.178,9.142 8.185,9.110 8.107 C 9.099 8.081,9.296 7.856,9.591 7.557 C 9.916 7.227,10.121 6.991,10.176 6.882 C 10.459 6.323,10.439 5.695,10.124 5.236 C 10.066 5.152,9.404 4.467,8.651 3.713 C 7.350 2.409,7.271 2.337,7.029 2.220 C 6.631 2.029,6.157 1.962,5.723 2.035 M7.221 5.027 L 8.292 6.120 7.631 6.808 C 7.041 7.423,6.965 7.515,6.918 7.671 C 6.851 7.898,6.853 7.982,6.933 8.240 C 7.100 8.782,7.791 9.712,8.783 10.730 C 9.806 11.780,10.854 12.605,11.416 12.803 C 11.890 12.969,12.086 12.872,12.938 12.051 L 13.583 11.429 14.638 12.494 C 15.219 13.080,15.704 13.593,15.717 13.634 C 15.753 13.749,15.587 14.024,15.254 14.401 C 14.572 15.170,14.010 15.467,13.232 15.467 C 12.573 15.467,11.947 15.292,11.083 14.867 C 10.489 14.574,10.044 14.302,9.469 13.882 C 6.910 12.010,4.769 9.177,4.381 7.148 C 4.306 6.759,4.307 6.216,4.381 5.933 C 4.460 5.637,4.660 5.218,4.867 4.919 C 5.188 4.456,5.807 3.941,6.050 3.937 C 6.138 3.935,6.277 4.064,7.221 5.027 " fill="var(--db-icon-color, currentColor)" stroke="none" fill-rule="evenodd"></path></svg>