<svg id="icon" height="20" viewBox="0 0 20 20" width="20" xmlns="http://www.w3.org/2000/svg"><path d="M9.300 3.020 C 6.709 3.200,4.747 3.997,2.850 5.638 C 2.353 6.068,2.153 6.294,2.069 6.518 C 1.825 7.170,2.298 7.873,2.983 7.879 C 3.275 7.882,3.432 7.794,3.904 7.368 C 5.330 6.078,6.842 5.349,8.647 5.084 C 9.828 4.910,11.142 4.972,12.217 5.251 C 13.679 5.630,14.935 6.332,16.100 7.422 C 16.472 7.770,16.678 7.876,16.983 7.879 C 17.270 7.882,17.510 7.789,17.700 7.604 C 17.983 7.328,18.070 6.927,17.929 6.543 C 17.870 6.379,17.803 6.295,17.486 5.983 C 16.400 4.913,14.844 3.991,13.323 3.513 C 12.640 3.299,12.015 3.163,11.333 3.081 C 10.930 3.032,9.673 2.994,9.300 3.020 M9.133 8.050 C 7.977 8.225,6.941 8.746,6.056 9.597 C 5.768 9.873,5.717 9.987,5.717 10.350 C 5.717 10.696,5.775 10.842,6.005 11.071 C 6.205 11.271,6.399 11.349,6.700 11.349 C 7.013 11.349,7.186 11.275,7.455 11.027 C 7.737 10.768,7.982 10.591,8.267 10.439 C 9.415 9.827,10.840 9.852,11.948 10.505 C 12.209 10.659,12.336 10.753,12.691 11.053 C 12.982 11.299,13.207 11.384,13.499 11.358 C 14.022 11.310,14.358 10.955,14.393 10.413 C 14.421 9.982,14.303 9.769,13.808 9.357 C 13.001 8.684,12.041 8.239,11.022 8.067 C 10.557 7.988,9.599 7.980,9.133 8.050 M9.567 13.052 C 9.037 13.166,8.470 13.596,8.236 14.062 C 7.826 14.874,7.965 15.772,8.596 16.404 C 8.884 16.692,9.136 16.836,9.526 16.936 C 9.988 17.054,10.483 16.994,10.938 16.764 C 11.222 16.621,11.621 16.222,11.764 15.938 C 12.174 15.126,12.035 14.226,11.404 13.597 C 10.906 13.100,10.248 12.905,9.567 13.052 " fill="var(--db-icon-color, currentColor)" stroke="none" fill-rule="evenodd"></path></svg>