<svg id="icon" height="20" viewBox="0 0 20 20" width="20" xmlns="http://www.w3.org/2000/svg"><path d="M6.300 2.036 C 5.884 2.117,5.413 2.471,5.207 2.859 C 4.988 3.269,5.001 2.824,5.001 10.000 C 5.001 17.180,4.988 16.730,5.208 17.143 C 5.342 17.395,5.636 17.690,5.869 17.807 C 6.267 18.007,6.122 18.000,9.989 18.000 C 12.445 18.000,13.584 17.989,13.707 17.963 C 14.302 17.839,14.790 17.368,14.952 16.762 C 15.023 16.494,15.023 3.506,14.952 3.238 C 14.790 2.632,14.302 2.161,13.707 2.037 C 13.491 1.992,6.531 1.992,6.300 2.036 M8.007 4.508 L 8.017 5.017 10.000 5.017 L 11.983 5.017 11.993 4.508 L 12.002 4.000 12.501 4.000 L 13.000 4.000 13.000 10.000 L 13.000 16.000 10.000 16.000 L 7.000 16.000 7.000 10.000 L 7.000 4.000 7.499 4.000 L 7.998 4.000 8.007 4.508 M9.000 14.000 L 9.000 15.000 10.000 15.000 L 11.000 15.000 11.000 14.000 L 11.000 13.000 10.000 13.000 L 9.000 13.000 9.000 14.000 " fill="var(--db-icon-color, currentColor)" stroke="none" fill-rule="evenodd"></path></svg>