<svg id="icon" height="20" viewBox="0 0 20 20" width="20" xmlns="http://www.w3.org/2000/svg"><path d="M6.254 2.053 C 5.831 2.155,5.389 2.489,5.193 2.853 C 4.990 3.230,5.000 2.937,5.000 8.490 L 5.000 13.565 4.071 14.509 C 3.234 15.361,3.136 15.473,3.071 15.645 C 2.930 16.023,3.014 16.380,3.317 16.683 C 3.635 17.000,4.067 17.084,4.434 16.901 C 4.646 16.796,16.805 4.645,16.905 4.440 C 17.132 3.973,16.929 3.346,16.467 3.087 C 16.306 2.997,16.252 2.984,16.033 2.986 C 15.724 2.987,15.515 3.084,15.227 3.359 C 15.120 3.461,15.028 3.538,15.021 3.530 C 15.015 3.523,14.993 3.427,14.972 3.317 C 14.851 2.683,14.325 2.152,13.704 2.034 C 13.588 2.012,12.266 2.001,9.987 2.003 C 7.053 2.005,6.417 2.014,6.254 2.053 M8.000 4.500 L 8.000 5.000 10.000 5.000 L 12.000 5.000 12.000 4.500 L 12.000 4.000 12.500 4.000 L 13.000 4.000 13.000 4.775 L 13.000 5.550 10.000 8.550 L 7.000 11.550 7.000 7.775 L 7.000 4.000 7.500 4.000 L 8.000 4.000 8.000 4.500 M13.992 10.225 L 13.000 11.217 13.000 13.609 L 13.000 16.000 10.625 16.002 L 8.250 16.003 7.250 16.984 L 6.250 17.965 9.934 17.966 C 13.404 17.967,13.631 17.963,13.838 17.906 C 14.419 17.745,14.855 17.272,14.965 16.683 C 14.992 16.541,15.000 15.445,14.993 12.858 L 14.983 9.233 13.992 10.225 M10.133 14.117 L 9.250 15.000 10.142 15.000 L 11.033 15.000 11.033 14.117 C 11.033 13.631,11.029 13.233,11.025 13.233 C 11.020 13.233,10.619 13.631,10.133 14.117 " fill="var(--db-icon-color, currentColor)" stroke="none" fill-rule="evenodd"></path></svg>