<svg id="icon" height="24" viewBox="0 0 24 24" width="24" xmlns="http://www.w3.org/2000/svg"><path d="M5.503 3.042 C 4.516 3.208,3.592 3.958,3.222 4.894 C 2.992 5.479,3.001 5.163,3.001 11.992 C 3.000 18.832,2.992 18.565,3.219 19.131 C 3.510 19.858,4.120 20.470,4.849 20.766 C 5.449 21.011,5.123 21.000,12.000 21.000 C 18.847 21.000,18.557 21.009,19.137 20.777 C 19.844 20.494,20.487 19.839,20.777 19.105 C 21.012 18.513,21.002 18.850,20.990 11.869 C 20.977 4.723,21.002 5.343,20.702 4.700 C 20.301 3.838,19.441 3.199,18.472 3.042 C 18.150 2.989,16.785 2.988,16.599 3.040 C 15.971 3.214,15.669 3.911,15.977 4.470 C 16.041 4.586,16.153 4.726,16.226 4.782 C 16.474 4.971,16.632 5.000,17.418 5.000 C 18.254 5.000,18.425 5.038,18.670 5.275 C 18.754 5.357,18.858 5.495,18.902 5.582 C 18.978 5.737,18.980 5.861,18.980 12.020 L 18.980 18.300 18.869 18.489 C 18.808 18.592,18.699 18.723,18.626 18.778 C 18.318 19.013,18.704 19.000,12.002 19.000 C 5.180 19.000,5.634 19.018,5.343 18.735 C 5.264 18.658,5.159 18.520,5.110 18.428 L 5.020 18.260 5.010 12.062 C 4.998 5.245,4.984 5.664,5.240 5.352 C 5.306 5.272,5.445 5.165,5.550 5.114 C 5.726 5.027,5.803 5.018,6.580 4.999 C 7.507 4.977,7.551 4.966,7.819 4.699 C 8.018 4.499,8.090 4.337,8.109 4.040 C 8.124 3.814,8.112 3.752,8.013 3.560 C 7.887 3.316,7.644 3.107,7.409 3.042 C 7.235 2.994,5.792 2.994,5.503 3.042 M11.640 3.065 C 11.487 3.120,11.131 3.459,9.295 5.295 C 7.335 7.255,7.124 7.479,7.065 7.657 C 6.951 8.003,7.005 8.342,7.220 8.624 C 7.357 8.804,7.763 9.000,7.996 9.000 C 8.384 8.999,8.521 8.894,9.810 7.609 L 11.000 6.422 11.000 9.784 C 11.000 13.571,10.986 13.388,11.300 13.702 C 11.816 14.218,12.697 14.018,12.943 13.330 C 12.986 13.209,12.997 12.519,12.998 9.801 L 13.000 6.422 14.190 7.609 C 15.495 8.910,15.612 8.999,16.025 9.000 C 16.428 9.000,16.855 8.667,16.963 8.268 C 17.027 8.034,16.985 7.709,16.865 7.508 C 16.711 7.249,12.658 3.227,12.443 3.120 C 12.214 3.005,11.874 2.982,11.640 3.065 " fill="var(--db-icon-color, currentColor)" stroke="none" fill-rule="evenodd"></path></svg>