<svg id="icon" height="20" viewBox="0 0 20 20" width="20" xmlns="http://www.w3.org/2000/svg"><path d="M4.104 2.038 C 3.263 2.177,2.504 2.793,2.178 3.601 C 1.993 4.059,2.001 3.724,2.001 10.707 C 2.000 17.154,2.000 17.164,2.069 17.348 C 2.151 17.568,2.360 17.790,2.590 17.903 C 2.717 17.965,2.805 17.981,3.017 17.982 C 3.449 17.982,3.447 17.984,4.904 16.503 C 5.789 15.603,6.235 15.173,6.350 15.109 L 6.517 15.017 11.233 15.000 L 15.950 14.983 16.183 14.905 C 16.690 14.734,17.001 14.536,17.345 14.165 C 17.585 13.906,17.787 13.546,17.905 13.167 L 17.983 12.917 17.983 8.517 C 17.983 3.553,18.001 3.906,17.721 3.365 C 17.358 2.663,16.704 2.188,15.907 2.049 C 15.665 2.007,14.819 2.001,9.954 2.004 C 6.801 2.006,4.204 2.021,4.104 2.038 M16.000 8.499 L 16.000 12.998 11.175 13.009 C 5.720 13.020,6.246 12.992,5.617 13.300 C 5.205 13.502,5.010 13.649,4.445 14.184 L 4.000 14.605 4.000 9.303 L 4.000 4.000 10.000 4.000 L 16.000 4.000 16.000 8.499 M9.000 7.000 L 9.000 9.000 10.000 9.000 L 11.000 9.000 11.000 7.000 L 11.000 5.000 10.000 5.000 L 9.000 5.000 9.000 7.000 M9.783 10.029 C 9.446 10.117,9.120 10.403,9.005 10.711 C 8.805 11.246,9.034 11.815,9.551 12.070 C 9.815 12.200,10.113 12.217,10.400 12.119 C 10.656 12.031,10.965 11.722,11.051 11.467 C 11.129 11.236,11.130 10.967,11.054 10.741 C 10.977 10.515,10.719 10.231,10.488 10.118 C 10.300 10.026,9.960 9.983,9.783 10.029 " fill="var(--db-icon-color, currentColor)" stroke="none" fill-rule="evenodd"></path></svg>