<svg id="icon" height="20" viewBox="0 0 20 20" width="20" xmlns="http://www.w3.org/2000/svg"><path d="M4.560 2.036 C 3.330 2.216,2.318 3.181,2.063 4.416 C 2.004 4.702,2.001 4.978,2.001 9.983 C 2.001 13.498,2.012 15.322,2.035 15.467 C 2.222 16.625,3.023 17.525,4.191 17.892 L 4.483 17.983 9.983 17.983 C 15.149 17.983,15.497 17.980,15.700 17.924 C 16.074 17.822,16.359 17.700,16.621 17.528 C 17.242 17.123,17.655 16.564,17.892 15.809 L 17.983 15.517 17.983 10.017 L 17.983 4.517 17.907 4.239 C 17.717 3.541,17.288 2.926,16.719 2.535 C 16.490 2.377,16.049 2.176,15.750 2.093 C 15.489 2.021,15.438 2.019,13.242 2.008 L 11.000 1.997 11.000 5.790 L 11.000 9.583 11.692 8.895 C 12.112 8.476,12.442 8.176,12.533 8.128 C 12.660 8.062,12.733 8.050,13.000 8.050 C 13.262 8.050,13.340 8.063,13.454 8.123 C 13.665 8.236,13.777 8.345,13.885 8.539 C 13.972 8.697,13.983 8.749,13.983 9.000 C 13.983 9.249,13.972 9.304,13.889 9.453 C 13.823 9.573,13.312 10.105,12.172 11.241 C 10.632 12.777,10.540 12.862,10.350 12.933 C 10.103 13.024,9.816 13.011,9.577 12.899 C 9.454 12.841,9.052 12.460,7.856 11.270 C 6.997 10.416,6.253 9.657,6.202 9.583 C 6.074 9.398,6.027 9.235,6.029 8.977 C 6.033 8.449,6.451 8.033,6.982 8.029 C 7.219 8.027,7.396 8.073,7.550 8.176 C 7.605 8.213,7.954 8.544,8.325 8.913 L 9.000 9.583 9.000 5.791 L 9.000 2.000 6.875 2.004 C 5.706 2.006,4.664 2.021,4.560 2.036 " fill="var(--db-icon-color, currentColor)" stroke="none" fill-rule="evenodd"></path></svg>