<svg id="icon" height="32" viewBox="0 0 32 32" width="32" xmlns="http://www.w3.org/2000/svg"><path d="M14.159 6.105 C 9.694 6.615,5.586 8.895,2.748 12.438 C 2.116 13.226,2.006 13.423,2.011 13.763 C 2.021 14.557,2.871 15.012,3.527 14.574 C 3.605 14.522,3.915 14.168,4.217 13.787 C 6.463 10.949,9.637 8.984,13.093 8.294 C 14.160 8.081,14.732 8.031,16.053 8.034 C 17.069 8.036,17.453 8.059,18.080 8.155 C 21.150 8.624,23.771 9.869,26.082 11.958 C 26.718 12.533,27.196 13.052,27.865 13.893 C 28.395 14.562,28.637 14.741,29.008 14.740 C 29.644 14.738,30.100 14.163,29.965 13.531 C 29.871 13.091,28.511 11.454,27.427 10.474 C 24.833 8.131,21.856 6.710,18.429 6.177 C 17.518 6.036,15.123 5.995,14.159 6.105 M15.067 11.040 C 12.623 11.246,10.319 12.184,8.347 13.776 C 7.369 14.565,5.863 16.296,5.783 16.722 C 5.652 17.421,6.171 18.034,6.828 17.956 C 6.971 17.940,7.158 17.889,7.244 17.845 C 7.330 17.800,7.631 17.467,7.913 17.104 C 9.861 14.592,12.613 13.140,15.627 13.032 C 18.078 12.944,20.322 13.712,22.320 15.322 C 22.848 15.748,23.716 16.644,24.144 17.205 C 24.526 17.705,24.608 17.783,24.867 17.891 C 25.593 18.195,26.379 17.505,26.184 16.733 C 26.118 16.468,25.737 15.934,25.065 15.162 C 23.176 12.992,20.288 11.448,17.467 11.099 C 16.811 11.019,15.659 10.990,15.067 11.040 M14.747 16.078 C 13.374 16.328,12.106 16.945,11.020 17.893 C 10.315 18.508,9.579 19.433,9.494 19.812 C 9.357 20.419,9.997 21.098,10.603 20.988 C 10.906 20.934,11.163 20.735,11.487 20.304 C 13.191 18.040,16.034 17.347,18.473 18.601 C 19.294 19.023,19.902 19.544,20.520 20.356 C 20.844 20.781,21.037 20.925,21.378 20.993 C 21.728 21.063,22.223 20.752,22.407 20.347 C 22.597 19.930,22.521 19.679,22.008 19.022 C 20.787 17.458,19.061 16.406,17.180 16.078 C 16.632 15.982,15.270 15.982,14.747 16.078 M15.360 21.071 C 14.924 21.155,14.271 21.522,13.905 21.888 C 12.713 23.079,12.707 24.926,13.891 26.109 C 15.078 27.297,16.927 27.284,18.130 26.079 C 18.833 25.376,19.130 24.379,18.928 23.403 C 18.703 22.313,17.687 21.297,16.597 21.072 C 16.272 21.004,15.708 21.004,15.360 21.071 M16.430 23.122 C 16.793 23.310,17.054 23.811,16.983 24.188 C 16.881 24.732,16.225 25.131,15.711 24.961 C 15.284 24.821,15.025 24.468,15.025 24.027 C 15.025 23.261,15.771 22.781,16.430 23.122 " fill="var(--db-icon-color, currentColor)" stroke="none" fill-rule="evenodd"></path></svg>