<svg id="icon" height="20" viewBox="0 0 20 20" width="20" xmlns="http://www.w3.org/2000/svg"><path d="M4.560 2.034 C 3.315 2.229,2.318 3.181,2.063 4.416 C 2.004 4.702,2.001 4.978,2.001 9.983 C 2.001 13.498,2.012 15.322,2.035 15.467 C 2.222 16.625,3.023 17.525,4.191 17.892 L 4.483 17.983 9.983 17.983 C 15.149 17.983,15.497 17.980,15.700 17.924 C 16.074 17.822,16.359 17.700,16.621 17.528 C 17.242 17.123,17.655 16.564,17.892 15.809 L 17.983 15.517 17.983 10.017 L 17.983 4.517 17.907 4.239 C 17.757 3.689,17.468 3.198,17.081 2.836 C 16.810 2.583,16.632 2.462,16.292 2.299 C 15.844 2.085,15.564 2.025,14.983 2.021 C 14.502 2.017,14.477 2.020,14.315 2.106 C 13.683 2.439,13.562 3.242,14.071 3.717 C 14.299 3.931,14.418 3.972,14.885 4.001 C 15.194 4.020,15.319 4.042,15.426 4.096 C 15.641 4.206,15.789 4.354,15.890 4.561 L 15.983 4.750 15.983 10.000 L 15.983 15.250 15.890 15.441 C 15.777 15.670,15.586 15.842,15.343 15.933 C 15.167 15.999,15.089 16.000,10.000 16.000 L 4.836 16.000 4.646 15.929 C 4.420 15.845,4.214 15.652,4.098 15.416 L 4.017 15.250 4.017 10.000 L 4.017 4.750 4.095 4.600 C 4.203 4.394,4.385 4.210,4.583 4.109 C 4.722 4.037,4.815 4.019,5.133 4.000 C 5.588 3.973,5.777 3.896,5.994 3.649 C 6.428 3.156,6.279 2.417,5.683 2.108 C 5.537 2.032,5.471 2.020,5.133 2.013 C 4.923 2.008,4.664 2.018,4.560 2.034 M9.680 2.059 C 9.587 2.092,9.452 2.167,9.380 2.224 C 9.309 2.281,8.551 3.031,7.696 3.889 C 6.239 5.352,6.137 5.462,6.071 5.643 C 5.773 6.454,6.504 7.169,7.369 6.913 C 7.536 6.864,7.604 6.806,8.274 6.141 L 8.999 5.421 9.008 8.336 C 9.017 11.238,9.017 11.251,9.088 11.405 C 9.128 11.490,9.219 11.619,9.291 11.691 C 9.775 12.175,10.551 12.064,10.884 11.462 L 10.983 11.283 10.992 8.352 L 11.001 5.420 11.692 6.108 C 12.268 6.681,12.417 6.812,12.583 6.888 C 13.239 7.189,13.977 6.720,13.982 6.000 C 13.985 5.565,14.035 5.627,12.237 3.824 C 10.947 2.529,10.581 2.180,10.442 2.112 C 10.209 1.997,9.910 1.977,9.680 2.059 " fill="var(--db-icon-color, currentColor)" stroke="none" fill-rule="evenodd"></path></svg>