<svg id="icon" height="24" viewBox="0 0 24 24" width="24" xmlns="http://www.w3.org/2000/svg"><path d="M3.602 5.044 C 3.504 5.063,3.292 5.142,3.129 5.219 C 2.574 5.483,2.155 6.022,2.041 6.620 C 2.008 6.794,1.999 8.207,2.008 11.720 L 2.020 16.580 2.114 16.860 C 2.456 17.878,3.157 18.573,4.160 18.886 L 4.460 18.980 11.980 18.980 L 19.500 18.980 19.800 18.886 C 20.494 18.669,21.089 18.238,21.457 17.685 C 21.682 17.347,21.785 17.108,21.883 16.700 C 21.956 16.394,21.959 16.174,21.960 11.527 L 21.960 6.674 21.860 6.376 C 21.685 5.856,21.385 5.491,20.933 5.250 C 20.435 4.985,21.020 5.001,11.980 5.005 C 7.470 5.007,3.700 5.024,3.602 5.044 M15.520 9.882 C 13.925 11.465,12.539 12.810,12.440 12.870 C 12.186 13.025,11.827 13.023,11.536 12.865 C 11.386 12.783,10.583 11.998,8.483 9.877 L 5.633 7.000 12.027 7.001 L 18.420 7.003 15.520 9.882 M8.140 12.324 L 10.420 14.586 10.800 14.773 C 11.274 15.006,11.562 15.080,11.998 15.079 C 12.587 15.078,13.106 14.905,13.634 14.535 C 13.795 14.421,15.104 13.147,16.950 11.305 L 20.000 8.262 20.000 12.241 L 19.999 16.220 19.905 16.420 C 19.852 16.530,19.749 16.678,19.675 16.748 C 19.388 17.020,19.997 17.000,12.011 17.000 L 4.780 16.999 4.578 16.905 C 4.362 16.805,4.187 16.625,4.084 16.400 C 4.027 16.275,4.019 15.823,4.009 12.240 L 3.998 8.220 4.929 9.141 C 5.441 9.647,6.886 11.079,8.140 12.324 " fill="var(--db-icon-color, currentColor)" stroke="none" fill-rule="evenodd"></path></svg>