<svg id="icon" height="24" viewBox="0 0 24 24" width="24" xmlns="http://www.w3.org/2000/svg"><path d="M4.553 2.041 C 3.388 2.239,2.507 3.012,2.115 4.180 L 2.021 4.460 2.010 12.793 C 2.002 18.489,2.012 21.176,2.040 21.282 C 2.102 21.509,2.313 21.761,2.540 21.878 C 2.820 22.022,3.229 22.023,3.465 21.880 C 3.557 21.825,4.473 20.964,5.503 19.967 C 6.533 18.970,7.430 18.124,7.498 18.087 C 7.610 18.025,8.098 18.018,13.540 18.000 L 19.460 17.980 19.820 17.868 C 20.810 17.560,21.528 16.856,21.870 15.860 L 21.980 15.540 21.980 10.020 L 21.980 4.500 21.885 4.200 C 21.558 3.161,20.827 2.431,19.794 2.111 L 19.500 2.021 12.120 2.015 C 8.061 2.011,4.656 2.023,4.553 2.041 M19.391 4.102 C 19.588 4.184,19.792 4.382,19.884 4.580 C 19.955 4.733,19.958 4.961,19.959 9.995 C 19.960 13.910,19.948 15.291,19.913 15.408 C 19.850 15.618,19.601 15.894,19.391 15.985 C 19.227 16.057,18.963 16.061,13.260 16.081 C 6.653 16.104,7.239 16.079,6.657 16.371 C 6.240 16.581,6.050 16.741,5.002 17.755 L 4.040 18.688 4.040 11.722 C 4.040 4.031,4.020 4.612,4.292 4.325 C 4.362 4.251,4.492 4.157,4.580 4.116 C 4.734 4.045,5.013 4.042,11.991 4.041 C 18.453 4.040,19.259 4.047,19.391 4.102 M11.560 5.580 C 10.960 5.715,9.961 6.087,9.959 6.176 C 9.959 6.200,10.105 6.602,10.284 7.068 L 10.610 7.916 10.795 7.824 C 11.233 7.605,11.920 7.455,12.252 7.505 C 12.643 7.565,12.778 7.720,12.752 8.080 C 12.729 8.398,12.622 8.526,12.016 8.964 C 11.483 9.349,11.252 9.602,11.117 9.946 C 11.036 10.152,11.023 10.266,11.009 10.910 L 10.992 11.640 11.993 11.640 L 12.994 11.640 13.007 11.020 L 13.020 10.400 13.665 9.770 C 14.345 9.105,14.455 8.955,14.618 8.470 C 15.050 7.184,14.458 6.027,13.160 5.620 C 12.853 5.524,11.914 5.500,11.560 5.580 M11.720 12.555 C 11.122 12.751,10.841 13.357,11.095 13.902 C 11.389 14.534,12.197 14.684,12.687 14.196 C 12.821 14.063,12.892 13.949,12.937 13.798 C 13.015 13.534,13.015 13.466,12.939 13.209 C 12.821 12.813,12.495 12.561,12.068 12.536 C 11.932 12.528,11.775 12.537,11.720 12.555 " fill="var(--db-icon-color, currentColor)" stroke="none" fill-rule="evenodd"></path></svg>