<svg id="icon" height="20" viewBox="0 0 20 20" width="20" xmlns="http://www.w3.org/2000/svg"><path d="M4.117 2.048 C 3.592 2.144,3.131 2.394,2.733 2.798 C 2.408 3.128,2.268 3.347,2.121 3.758 L 2.017 4.050 2.017 10.650 L 2.017 17.250 2.091 17.401 C 2.327 17.881,2.871 18.110,3.350 17.932 C 3.539 17.862,3.629 17.779,4.950 16.465 C 5.720 15.698,6.392 15.055,6.444 15.035 C 6.508 15.011,7.966 15.000,11.120 15.000 C 15.163 15.000,15.733 14.994,15.960 14.947 C 16.486 14.840,16.861 14.638,17.253 14.250 C 17.556 13.951,17.745 13.645,17.892 13.217 L 17.983 12.950 17.983 8.517 L 17.983 4.083 17.907 3.819 C 17.775 3.364,17.592 3.056,17.251 2.716 C 17.009 2.474,16.894 2.387,16.667 2.274 C 16.101 1.993,16.704 2.018,10.167 2.011 C 5.557 2.007,4.302 2.014,4.117 2.048 M11.000 6.500 L 11.000 9.000 10.000 9.000 L 9.000 9.000 9.000 6.500 L 9.000 4.000 10.000 4.000 L 11.000 4.000 11.000 6.500 M10.493 10.117 C 10.725 10.223,10.910 10.395,11.028 10.617 C 11.107 10.765,11.117 10.820,11.117 11.117 C 11.117 11.414,11.107 11.468,11.028 11.617 C 10.723 12.189,10.042 12.409,9.495 12.111 C 9.048 11.867,8.807 11.304,8.946 10.827 C 9.142 10.152,9.854 9.825,10.493 10.117 " fill="var(--db-icon-color, currentColor)" stroke="none" fill-rule="evenodd"></path></svg>