<svg id="icon" height="20" viewBox="0 0 20 20" width="20" xmlns="http://www.w3.org/2000/svg"><path d="M4.560 2.035 C 3.321 2.224,2.318 3.181,2.063 4.416 C 2.004 4.702,2.001 4.978,2.001 9.983 C 2.001 13.498,2.012 15.322,2.035 15.467 C 2.222 16.625,3.023 17.525,4.191 17.892 L 4.483 17.983 9.983 17.983 C 15.149 17.983,15.497 17.980,15.700 17.924 C 16.074 17.822,16.359 17.700,16.621 17.528 C 17.242 17.123,17.655 16.564,17.892 15.809 L 17.983 15.517 17.983 10.017 L 17.983 4.517 17.907 4.239 C 17.717 3.541,17.288 2.926,16.719 2.535 C 16.486 2.375,16.045 2.175,15.750 2.096 C 15.377 1.996,14.012 1.963,13.724 2.046 C 12.858 2.298,12.751 3.493,13.559 3.890 C 13.747 3.982,13.760 3.984,14.517 4.001 C 15.226 4.017,15.294 4.024,15.424 4.093 C 15.644 4.209,15.789 4.355,15.890 4.561 L 15.983 4.750 15.983 10.000 L 15.983 15.250 15.890 15.441 C 15.777 15.670,15.586 15.842,15.343 15.933 C 15.167 15.999,15.089 16.000,10.000 16.000 L 4.836 16.000 4.646 15.929 C 4.420 15.845,4.214 15.652,4.098 15.416 L 4.017 15.250 4.017 10.000 L 4.017 4.750 4.095 4.600 C 4.202 4.395,4.384 4.212,4.583 4.106 C 4.746 4.020,4.769 4.017,5.500 4.000 C 6.353 3.981,6.446 3.958,6.695 3.701 C 7.181 3.200,7.055 2.412,6.441 2.110 C 6.250 2.017,6.250 2.017,5.500 2.011 C 5.088 2.008,4.664 2.019,4.560 2.035 M9.678 2.060 C 9.367 2.171,9.163 2.377,9.051 2.696 C 9.006 2.823,9.000 3.264,9.000 6.212 L 9.000 9.583 8.325 8.913 C 7.954 8.544,7.605 8.213,7.550 8.176 C 7.309 8.015,6.884 7.978,6.620 8.095 C 6.106 8.322,5.868 8.945,6.108 9.435 C 6.181 9.583,6.493 9.911,7.807 11.220 C 9.044 12.452,9.454 12.841,9.577 12.899 C 9.816 13.011,10.103 13.024,10.350 12.933 C 10.540 12.862,10.632 12.777,12.172 11.241 C 13.312 10.105,13.823 9.573,13.889 9.453 C 13.972 9.304,13.983 9.249,13.983 9.000 C 13.983 8.749,13.972 8.697,13.885 8.539 C 13.777 8.345,13.665 8.236,13.454 8.123 C 13.340 8.063,13.262 8.050,13.000 8.050 C 12.732 8.050,12.660 8.062,12.533 8.129 C 12.443 8.176,12.106 8.483,11.692 8.894 L 11.000 9.581 11.000 6.209 C 11.000 2.913,10.998 2.832,10.933 2.657 C 10.745 2.153,10.175 1.882,9.678 2.060 " fill="var(--db-icon-color, currentColor)" stroke="none" fill-rule="evenodd"></path></svg>