<svg id="icon" height="24" viewBox="0 0 24 24" width="24" xmlns="http://www.w3.org/2000/svg"><path d="M5.503 3.042 C 4.516 3.208,3.592 3.958,3.222 4.894 C 2.992 5.479,3.001 5.163,3.001 11.992 C 3.000 18.832,2.992 18.565,3.219 19.131 C 3.510 19.858,4.120 20.470,4.849 20.766 C 5.449 21.011,5.123 21.000,12.000 21.000 C 18.847 21.000,18.557 21.009,19.137 20.777 C 19.844 20.494,20.487 19.839,20.777 19.105 C 21.012 18.513,21.002 18.850,20.990 11.869 C 20.979 5.810,20.974 5.447,20.905 5.220 C 20.647 4.368,20.116 3.715,19.380 3.346 C 18.758 3.035,18.525 3.001,17.035 3.000 C 15.755 3.000,15.646 3.014,15.374 3.222 C 15.301 3.277,15.192 3.408,15.131 3.511 C 15.036 3.672,15.020 3.744,15.020 4.000 C 15.020 4.256,15.036 4.328,15.131 4.489 C 15.192 4.592,15.301 4.723,15.374 4.778 C 15.645 4.985,15.758 5.000,16.998 5.000 C 18.294 5.000,18.406 5.018,18.670 5.275 C 18.754 5.357,18.858 5.495,18.902 5.582 C 18.978 5.737,18.980 5.861,18.980 12.020 L 18.980 18.300 18.869 18.489 C 18.808 18.592,18.699 18.723,18.626 18.778 C 18.318 19.013,18.704 19.000,12.002 19.000 C 5.180 19.000,5.634 19.018,5.343 18.735 C 5.264 18.658,5.159 18.520,5.110 18.428 L 5.020 18.260 5.010 12.062 C 4.998 5.094,4.975 5.623,5.298 5.300 C 5.579 5.019,5.684 5.000,6.992 5.000 C 7.749 5.000,8.183 4.984,8.288 4.953 C 8.640 4.847,8.999 4.376,9.000 4.017 C 9.001 3.604,8.716 3.194,8.340 3.066 C 8.175 3.010,7.965 3.001,6.923 3.005 C 6.250 3.007,5.611 3.024,5.503 3.042 M11.664 3.061 C 11.434 3.148,11.256 3.298,11.131 3.511 L 11.020 3.700 11.009 7.638 L 10.998 11.577 9.809 10.393 C 9.042 9.629,8.556 9.175,8.440 9.115 C 8.167 8.974,7.765 8.982,7.508 9.133 C 7.047 9.404,6.879 9.963,7.114 10.446 C 7.173 10.568,7.830 11.251,9.329 12.745 C 11.336 14.746,11.473 14.875,11.675 14.940 C 11.952 15.030,12.263 15.002,12.492 14.866 C 12.584 14.811,13.607 13.815,14.765 12.653 C 16.746 10.665,16.875 10.527,16.940 10.325 C 17.076 9.905,16.939 9.455,16.605 9.223 C 16.254 8.980,15.944 8.943,15.600 9.103 C 15.420 9.186,15.164 9.420,14.190 10.391 L 13.000 11.578 13.000 7.719 C 13.000 5.184,12.985 3.809,12.958 3.711 C 12.897 3.490,12.685 3.237,12.465 3.124 C 12.229 3.003,11.887 2.976,11.664 3.061 " fill="var(--db-icon-color, currentColor)" stroke="none" fill-rule="evenodd"></path></svg>