<svg id="icon" height="20" viewBox="0 0 20 20" width="20" xmlns="http://www.w3.org/2000/svg"><path d="M4.153 2.035 C 3.078 2.215,2.246 3.074,2.104 4.150 C 2.081 4.320,2.055 6.700,2.031 10.738 C 1.997 16.433,1.999 17.078,2.045 17.238 C 2.137 17.554,2.359 17.775,2.693 17.884 C 2.907 17.954,3.260 17.939,3.434 17.852 C 3.498 17.820,4.184 17.161,4.958 16.388 L 6.367 14.983 11.142 14.967 L 15.917 14.950 16.208 14.846 C 16.612 14.702,16.837 14.560,17.152 14.250 C 17.587 13.822,17.823 13.341,17.897 12.733 C 17.916 12.571,17.947 10.704,17.968 8.350 C 18.003 4.563,18.002 4.230,17.950 3.983 C 17.788 3.206,17.325 2.608,16.619 2.266 C 16.031 1.981,16.487 1.999,10.021 2.004 C 6.884 2.006,4.243 2.020,4.153 2.035 M15.000 6.000 L 15.000 7.000 10.000 7.000 L 5.000 7.000 5.000 6.000 L 5.000 5.000 10.000 5.000 L 15.000 5.000 15.000 6.000 M15.000 10.000 L 15.000 11.000 10.000 11.000 L 5.000 11.000 5.000 10.000 L 5.000 9.000 10.000 9.000 L 15.000 9.000 15.000 10.000 " fill="var(--db-icon-color, currentColor)" stroke="none" fill-rule="evenodd"></path></svg>