<svg id="icon" height="24" viewBox="0 0 24 24" width="24" xmlns="http://www.w3.org/2000/svg"><path d="M4.400 2.065 C 3.490 2.242,2.584 2.988,2.233 3.850 C 1.987 4.456,2.000 3.931,2.001 12.948 C 2.002 20.828,2.005 21.187,2.075 21.340 C 2.178 21.566,2.339 21.744,2.554 21.871 C 2.813 22.023,3.222 22.027,3.465 21.880 C 3.556 21.825,4.471 20.970,5.497 19.980 C 6.524 18.990,7.438 18.140,7.528 18.090 L 7.693 18.000 13.476 17.999 C 17.041 17.999,19.364 17.983,19.531 17.959 C 20.693 17.791,21.603 16.919,21.928 15.660 C 21.969 15.501,21.980 14.316,21.980 9.880 L 21.980 4.300 21.867 3.980 C 21.543 3.064,20.849 2.425,19.838 2.113 L 19.540 2.021 12.120 2.014 C 5.767 2.008,4.657 2.015,4.400 2.065 M19.249 4.042 C 19.460 4.101,19.718 4.310,19.859 4.538 L 19.980 4.734 19.980 9.997 L 19.980 15.260 19.892 15.425 C 19.777 15.640,19.487 15.893,19.288 15.953 C 19.171 15.988,17.669 16.000,13.375 16.001 C 9.893 16.001,7.515 16.017,7.353 16.040 C 6.637 16.144,6.289 16.383,5.010 17.653 L 3.999 18.656 4.010 11.698 L 4.020 4.740 4.108 4.575 C 4.216 4.374,4.527 4.092,4.696 4.043 C 4.877 3.991,19.060 3.989,19.249 4.042 M6.723 7.047 C 6.180 7.203,5.875 7.802,6.058 8.353 C 6.144 8.614,6.437 8.890,6.696 8.955 C 6.937 9.016,17.071 9.019,17.289 8.958 C 17.685 8.848,18.000 8.423,18.000 8.000 C 18.000 7.577,17.685 7.152,17.289 7.042 C 17.089 6.986,6.917 6.991,6.723 7.047 M6.709 11.057 C 6.222 11.231,5.937 11.679,6.014 12.150 C 6.072 12.511,6.379 12.866,6.711 12.958 C 6.810 12.986,8.583 13.000,12.003 13.000 C 17.787 13.000,17.371 13.022,17.698 12.696 C 18.126 12.267,18.085 11.576,17.609 11.213 C 17.515 11.142,17.371 11.065,17.289 11.042 C 17.190 11.014,15.423 11.001,12.000 11.002 C 7.790 11.003,6.833 11.013,6.709 11.057 " fill="var(--db-icon-color, currentColor)" stroke="none" fill-rule="evenodd"></path></svg>