<svg id="icon" height="20" viewBox="0 0 20 20" width="20" xmlns="http://www.w3.org/2000/svg"><path d="M9.300 3.020 C 6.707 3.201,4.747 3.997,2.850 5.638 C 2.353 6.068,2.153 6.294,2.069 6.518 C 1.825 7.170,2.298 7.873,2.983 7.879 C 3.275 7.882,3.432 7.794,3.904 7.367 C 5.544 5.882,7.309 5.136,9.514 4.997 C 10.616 4.928,11.695 5.064,12.763 5.406 L 13.077 5.506 11.830 6.753 L 10.584 8.000 10.044 8.000 C 9.053 8.000,8.398 8.139,7.602 8.520 C 6.867 8.871,5.989 9.548,5.789 9.917 C 5.683 10.113,5.685 10.590,5.793 10.793 C 6.086 11.343,6.737 11.522,7.252 11.195 C 7.338 11.141,7.416 11.105,7.427 11.116 C 7.438 11.127,6.486 12.099,5.312 13.276 C 3.616 14.976,3.161 15.451,3.098 15.583 C 3.035 15.715,3.018 15.806,3.018 16.017 C 3.017 16.251,3.029 16.305,3.116 16.462 C 3.383 16.945,3.951 17.130,4.435 16.892 C 4.588 16.816,5.587 15.831,10.738 10.676 C 16.697 4.713,16.861 4.545,16.933 4.350 C 17.239 3.520,16.394 2.738,15.579 3.098 C 15.470 3.147,15.288 3.299,15.001 3.583 L 14.582 3.998 14.403 3.915 C 13.594 3.540,12.405 3.215,11.354 3.082 C 10.965 3.032,9.678 2.994,9.300 3.020 M9.600 14.616 L 8.251 15.966 8.315 16.084 C 8.412 16.265,8.840 16.652,9.069 16.768 C 9.182 16.825,9.387 16.900,9.526 16.936 C 10.206 17.110,10.893 16.915,11.407 16.401 C 12.043 15.765,12.175 14.872,11.755 14.044 C 11.620 13.776,11.109 13.267,10.977 13.267 C 10.962 13.267,10.343 13.874,9.600 14.616 " fill="var(--db-icon-color, currentColor)" stroke="none" fill-rule="evenodd"></path></svg>