<svg id="icon" height="32" viewBox="0 0 32 32" width="32" xmlns="http://www.w3.org/2000/svg"><path d="M6.427 4.052 C 5.842 4.174,5.295 4.467,4.881 4.881 C 4.554 5.209,4.361 5.514,4.164 6.020 L 4.027 6.373 4.011 15.787 C 4.001 22.417,4.013 25.302,4.054 25.547 C 4.134 26.023,4.465 26.683,4.796 27.028 C 5.126 27.371,5.599 27.683,6.041 27.849 L 6.373 27.973 15.840 27.988 C 24.330 28.002,25.346 27.994,25.691 27.918 C 26.801 27.674,27.653 26.826,27.918 25.702 C 28.038 25.193,28.040 6.837,27.920 6.267 C 27.696 5.202,27.002 4.448,25.947 4.125 C 25.676 4.042,25.439 4.027,24.400 4.027 C 23.187 4.027,23.171 4.028,22.980 4.157 C 22.416 4.539,22.354 5.314,22.853 5.752 C 23.100 5.970,23.428 6.027,24.432 6.027 C 25.073 6.027,25.323 6.046,25.435 6.104 C 25.654 6.217,25.910 6.532,25.946 6.732 C 25.963 6.828,25.970 11.062,25.962 16.142 L 25.947 25.377 25.783 25.582 C 25.693 25.694,25.525 25.835,25.410 25.893 C 25.203 25.999,25.079 26.000,16.133 26.015 C 9.632 26.026,6.999 26.013,6.827 25.971 C 6.519 25.895,6.267 25.702,6.133 25.439 C 6.028 25.234,6.027 25.111,6.027 15.973 C 6.027 7.993,6.037 6.694,6.104 6.565 C 6.202 6.375,6.526 6.089,6.681 6.056 C 6.746 6.041,7.244 6.023,7.787 6.014 C 8.577 6.001,8.805 5.980,8.933 5.911 C 9.634 5.529,9.680 4.604,9.020 4.157 C 8.832 4.030,8.798 4.026,7.733 4.017 C 7.132 4.012,6.544 4.028,6.427 4.052 M15.627 4.084 C 15.509 4.135,14.465 5.138,12.785 6.815 C 10.304 9.293,10.125 9.484,10.051 9.735 C 9.982 9.973,9.982 10.035,10.051 10.270 C 10.226 10.858,10.829 11.141,11.402 10.905 C 11.535 10.850,12.158 10.266,13.293 9.132 L 14.987 7.441 14.988 12.800 C 14.989 17.903,14.994 18.170,15.088 18.373 C 15.270 18.767,15.597 18.987,16.000 18.987 C 16.403 18.987,16.730 18.767,16.912 18.373 C 17.006 18.170,17.011 17.903,17.012 12.802 L 17.013 7.444 18.733 9.155 C 20.593 11.006,20.616 11.023,21.128 10.974 C 21.435 10.944,21.734 10.736,21.880 10.450 C 21.984 10.245,22.002 9.845,21.918 9.617 C 21.835 9.394,16.664 4.226,16.400 4.102 C 16.144 3.982,15.879 3.976,15.627 4.084 " fill="var(--db-icon-color, currentColor)" stroke="none" fill-rule="evenodd"></path></svg>