<svg id="icon" height="24" viewBox="0 0 24 24" width="24" xmlns="http://www.w3.org/2000/svg"><path d="M19.718 3.036 C 19.495 3.108,19.384 3.205,18.375 4.208 L 17.331 5.247 17.155 5.158 C 16.821 4.987,15.904 4.637,15.435 4.500 C 11.066 3.231,6.394 4.474,3.298 7.730 C 2.623 8.440,2.117 9.116,2.036 9.414 C 1.982 9.613,2.011 9.908,2.101 10.083 C 2.257 10.385,2.692 10.680,2.980 10.680 C 3.140 10.680,3.476 10.558,3.598 10.456 C 3.665 10.400,3.850 10.179,4.009 9.967 C 4.169 9.754,4.515 9.357,4.780 9.085 C 5.631 8.208,6.441 7.619,7.540 7.079 C 8.545 6.585,9.291 6.342,10.399 6.150 C 10.831 6.074,11.053 6.062,12.020 6.061 C 13.220 6.060,13.598 6.097,14.480 6.303 C 14.887 6.399,15.690 6.649,15.789 6.712 C 15.822 6.733,15.585 6.994,15.069 7.509 L 14.300 8.274 14.000 8.198 C 13.301 8.021,12.900 7.980,11.900 7.982 C 10.855 7.985,10.578 8.019,9.720 8.245 C 7.846 8.738,6.120 9.904,4.913 11.490 C 4.411 12.149,4.361 12.563,4.734 12.986 C 5.049 13.345,5.499 13.453,5.900 13.266 C 6.111 13.168,6.183 13.096,6.596 12.565 C 7.162 11.839,7.997 11.159,8.880 10.705 C 9.931 10.165,10.782 9.962,12.000 9.961 L 12.619 9.960 11.547 11.033 C 10.481 12.100,10.473 12.107,10.204 12.193 C 9.827 12.315,9.241 12.606,8.846 12.868 C 8.229 13.278,7.442 14.113,7.239 14.573 C 7.170 14.729,7.156 14.829,7.165 15.084 L 7.177 15.401 5.152 17.430 C 3.205 19.382,3.125 19.468,3.064 19.677 C 2.984 19.949,2.984 20.052,3.063 20.316 C 3.229 20.877,3.897 21.153,4.444 20.887 C 4.573 20.824,6.779 18.641,12.745 12.671 C 20.250 5.161,20.875 4.525,20.935 4.343 C 21.150 3.688,20.736 3.055,20.068 3.016 C 19.932 3.008,19.774 3.017,19.718 3.036 M19.892 8.330 L 19.205 9.020 19.405 9.240 C 19.515 9.361,19.757 9.661,19.944 9.908 C 20.345 10.437,20.456 10.538,20.729 10.619 C 20.986 10.695,21.054 10.695,21.316 10.617 C 21.877 10.451,22.162 9.752,21.887 9.215 C 21.730 8.907,20.700 7.640,20.607 7.640 C 20.592 7.640,20.270 7.950,19.892 8.330 M17.212 11.010 L 16.525 11.700 16.848 12.038 C 17.025 12.223,17.293 12.538,17.444 12.738 C 17.594 12.937,17.778 13.141,17.853 13.191 C 18.328 13.511,18.973 13.353,19.272 12.844 C 19.362 12.691,19.380 12.613,19.379 12.380 C 19.377 12.049,19.322 11.927,18.951 11.435 C 18.711 11.116,17.978 10.320,17.925 10.320 C 17.911 10.320,17.590 10.630,17.212 11.010 M14.506 13.714 L 13.797 14.424 13.988 14.561 C 14.299 14.782,14.555 15.038,14.826 15.397 C 15.111 15.773,15.264 15.895,15.537 15.963 C 16.288 16.152,16.952 15.417,16.699 14.676 C 16.582 14.331,15.795 13.416,15.337 13.092 L 15.214 13.005 14.506 13.714 M11.560 16.044 C 11.244 16.106,10.878 16.315,10.596 16.597 C 9.802 17.390,9.806 18.613,10.605 19.401 C 11.409 20.195,12.612 20.196,13.403 19.404 C 13.685 19.121,13.839 18.850,13.939 18.462 C 14.295 17.074,13.004 15.762,11.560 16.044 " fill="var(--db-icon-color, currentColor)" stroke="none" fill-rule="evenodd"></path></svg>