<svg width="24" height="24" viewBox="0 0 24 24" fill="none" xmlns="http://www.w3.org/2000/svg">
<g clip-path="url(#clip0_185_464)">
<path fill-rule="evenodd" clip-rule="evenodd" d="M21.1837 2.81009C21.4753 3.07738 21.5482 3.49054 21.4266 3.87947L15.0832 20.3576C14.8159 21.0625 14.184 21.5 13.4549 21.5H13.382C12.6285 21.4757 11.9723 20.9895 11.7536 20.2604L9.85788 14.1358L3.75755 12.2401C3.02845 12.0213 2.54231 11.3895 2.51809 10.636C2.49376 9.85826 2.93124 9.20204 3.63602 8.91042L20.1143 2.56702C20.4788 2.42116 20.8919 2.51837 21.1837 2.81009ZM17.8297 7.57364L11.8265 13.6254L13.4792 18.948L17.8297 7.57364ZM16.42 6.16399L5.04567 10.5388L10.3926 12.1914L16.42 6.16399Z" fill="#1A1C1F"/>
</g>
<defs>
<clipPath id="clip0_185_464">
<rect width="24" height="24" fill="white"/>
</clipPath>
</defs>
</svg>
