<svg width="20" height="20" viewBox="0 0 20 20" fill="none" xmlns="http://www.w3.org/2000/svg">
<g clip-path="url(#clip0_185_466)">
<path fill-rule="evenodd" clip-rule="evenodd" d="M17.7108 2.28918C17.984 2.58196 18.0816 2.99175 17.9255 3.36257L12.3047 17.3755C12.1486 17.7463 11.7973 18 11.3875 18C10.9191 17.9804 10.5677 17.7072 10.4507 17.3169L8.51857 11.4814L2.68308 9.54929C2.29278 9.43228 2.01959 9.06146 2 8.65157C2 8.22219 2.23422 7.85137 2.62453 7.69529L16.6374 2.07454C17.0083 1.91836 17.418 2.01598 17.7108 2.28918ZM15.2322 4.7678L5.88376 8.51497L9.61145 9.74454C9.90422 9.86155 10.1384 10.0763 10.236 10.3886L11.4655 14.1162L15.2322 4.7678Z" fill="#1A1C1F"/>
</g>
<defs>
<clipPath id="clip0_185_466">
<rect width="20" height="20" fill="white"/>
</clipPath>
</defs>
</svg>
