<svg width="32" height="32" viewBox="0 0 32 32" fill="none" xmlns="http://www.w3.org/2000/svg">
<g clip-path="url(#clip0_185_473)">
<path fill-rule="evenodd" clip-rule="evenodd" d="M27 2.5C28.5625 2.5 30 3.6562 30 5.5V20.5C30 22.0625 28.8773 23.5 27 23.5H9.84375C9.5625 23.5 9.35922 23.5457 9.125 23.7812L3.71875 29.2188C3.53179 29.4068 3.25 29.5 3 29.5C2.53125 29.5 2 29.1257 2 28.5V5.5C2 3.9375 3.25382 2.5 5 2.5H27ZM27 4.5H5C4.53125 4.5 4 4.75 4 5.5V26.0938L7.6875 22.375C8.2945 21.7629 8.92904 21.5 9.84375 21.5H27C27.4688 21.5 28 21.2188 28 20.5V5.5C28 5.0312 27.6277 4.5 27 4.5Z" fill="#1A1C1F"/>
</g>
<defs>
<clipPath id="clip0_185_473">
<rect width="32" height="32" fill="white"/>
</clipPath>
</defs>
</svg>
