<svg width="12" height="12" viewBox="0 0 12 12" fill="none" xmlns="http://www.w3.org/2000/svg">
<g clip-path="url(#clip0_2204_2324)">
<path fill-rule="evenodd" clip-rule="evenodd" d="M9.24704 1.20001C10.1529 1.20001 10.8 1.87931 10.8 2.69917V7.50113C10.8 8.32099 10.1294 9.00029 9.29414 9.00029H4.10593C3.92944 9.00029 3.7765 9.04712 3.67061 9.16424L2.22358 10.6282C1.84712 11.003 1.20001 10.722 1.20001 10.1949V2.69917C1.20001 1.87931 1.88241 1.20001 2.71769 1.20001H9.24704ZM6.00005 6.52501C5.6162 6.52501 5.32501 6.81908 5.32501 7.1933C5.32501 7.56758 5.6162 7.87501 6.00005 7.87501C6.38382 7.87501 6.67501 7.56758 6.67501 7.1933C6.67501 6.81908 6.38382 6.52501 6.00005 6.52501ZM6.14605 2.31591C5.60638 2.31591 5.01422 2.57714 4.75885 2.78363L5.16774 3.84486C5.42599 3.70175 5.75887 3.58949 6.0466 3.58949C6.38194 3.58949 6.46955 3.74198 6.46955 3.91137C6.46955 4.09806 6.36307 4.22041 6.21737 4.3325L5.89358 4.55901C5.6414 4.74268 5.40182 4.98439 5.40182 5.46669V5.92501H6.59859V5.46669C6.5957 5.30528 6.76058 5.18566 7.04883 4.93125C7.33708 4.67683 7.65736 4.32536 7.65736 3.68347C7.65736 2.85019 6.99749 2.31591 6.14605 2.31591Z" fill="#1A1C1F"/>
</g>
<defs>
<clipPath id="clip0_2204_2324">
<rect width="12" height="12" fill="white"/>
</clipPath>
</defs>
</svg>
