<svg width="20" height="20" viewBox="0 0 20 20" fill="none" xmlns="http://www.w3.org/2000/svg">
<g clip-path="url(#clip0_185_518)">
<path fill-rule="evenodd" clip-rule="evenodd" d="M2 17V7C2 6.5049 2.4 6 3 6C3.6 6 4 6.5 4 7L4.0098 15.1122L5.2 14.3317C5.5122 14.1366 5.8244 14 6.3122 14H13C13.5 14 14 14.4 14 15C14 15.6 13.5341 16.0098 13 16L6.3122 15.9902L3.561 17.8439C3.3854 17.922 3.1902 18 3.0146 18C2.5073 18 2 17.7024 2 17ZM15.9902 2C17.0829 2 18 2.9171 18 4.0098V13.0049C18 13.5902 17.4927 14 16.9854 14C16.8098 14 16.6146 13.961 16.439 13.8439L13.6878 11.9902H8.0098C6.9171 11.9902 6 11.0927 6 10V4.0098C6 2.9171 6.9171 2 8.0098 2H15.9902ZM15.9902 4.0098H8.0098V10H13.6878C14.0976 10 14.4683 10.1171 14.8 10.3512L15.9902 11.1317V4.0098Z" fill="#1A1C1F"/>
</g>
<defs>
<clipPath id="clip0_185_518">
<rect width="20" height="20" fill="white"/>
</clipPath>
</defs>
</svg>
