<svg width="12" height="12" viewBox="0 0 12 12" fill="none" xmlns="http://www.w3.org/2000/svg">
<g clip-path="url(#clip0_2785_1682)">
<path fill-rule="evenodd" clip-rule="evenodd" d="M8.49397 4.23883H9.60937C9.7685 4.23883 9.92111 4.17561 10.0336 4.06309C10.1462 3.95057 10.2094 3.79796 10.2094 3.63883C10.2094 3.4797 10.1462 3.32708 10.0336 3.21456C9.92111 3.10204 9.7685 3.03883 9.60937 3.03883H8.42917V1.79263C8.42917 1.6335 8.36596 1.48088 8.25343 1.36836C8.14091 1.25584 7.9883 1.19263 7.82917 1.19263C7.67004 1.19263 7.51743 1.25584 7.40491 1.36836C7.29238 1.48088 7.22917 1.6335 7.22917 1.79263V3.03883H6.04897C5.88984 3.03883 5.73723 3.10204 5.62471 3.21456C5.51218 3.32708 5.44897 3.4797 5.44897 3.63883C5.44897 3.79796 5.51218 3.95057 5.62471 4.06309C5.73723 4.17561 5.88984 4.23883 6.04897 4.23883H7.16437C6.93217 5.41663 6.08437 6.39523 5.54737 6.91303L4.50457 3.99103C4.46289 3.87459 4.38624 3.77387 4.28512 3.70266C4.184 3.63145 4.06335 3.59323 3.93967 3.59323C3.81599 3.59323 3.69534 3.63145 3.59422 3.70266C3.4931 3.77387 3.41645 3.87459 3.37477 3.99103L1.23757 9.99103C1.20868 10.0657 1.19505 10.1455 1.19748 10.2256C1.19991 10.3056 1.21835 10.3844 1.25171 10.4573C1.28508 10.5301 1.33269 10.5955 1.39174 10.6496C1.45079 10.7038 1.52009 10.7455 1.59554 10.7725C1.67099 10.7994 1.75107 10.8109 1.83105 10.8064C1.91103 10.8019 1.9893 10.7814 2.06124 10.7462C2.13318 10.7109 2.19733 10.6616 2.24991 10.6012C2.30248 10.5407 2.34242 10.4704 2.36737 10.3942L2.97277 8.69443H4.90837L5.51077 10.3822C5.53709 10.4565 5.57785 10.5249 5.63069 10.5834C5.68354 10.642 5.74743 10.6894 5.81869 10.7232C5.88995 10.7569 5.96718 10.7762 6.04593 10.78C6.12468 10.7838 6.2034 10.772 6.27757 10.7452C6.35182 10.7189 6.42015 10.6782 6.47864 10.6254C6.53712 10.5726 6.58461 10.5088 6.61839 10.4376C6.65217 10.3664 6.67157 10.2893 6.67548 10.2106C6.67939 10.1319 6.66773 10.0532 6.64117 9.97903L5.98357 8.13583C6.34597 7.83463 7.22557 7.03423 7.82797 5.89843C8.57677 7.31143 9.76957 8.21803 9.84277 8.27263C9.97007 8.36811 10.1301 8.4091 10.2876 8.3866C10.4452 8.36409 10.5873 8.27993 10.6828 8.15263C10.7782 8.02532 10.8192 7.8653 10.7967 7.70777C10.7742 7.55024 10.6901 7.4081 10.5628 7.31263C10.5442 7.29823 8.83777 5.98783 8.49397 4.23883ZM3.40117 7.49443L3.94057 5.98003L4.48057 7.49443H3.40117Z" fill="#1A1C1F"/>
</g>
<defs>
<clipPath id="clip0_2785_1682">
<rect width="12" height="12" fill="white"/>
</clipPath>
</defs>
</svg>
