<svg width="20" height="20" viewBox="0 0 20 20" fill="none" xmlns="http://www.w3.org/2000/svg">
<g clip-path="url(#clip0_2785_1676)">
<path fill-rule="evenodd" clip-rule="evenodd" d="M14.1566 7.0647H16.0156C16.2809 7.0647 16.5352 6.95934 16.7227 6.77181C16.9103 6.58427 17.0156 6.32992 17.0156 6.0647C17.0156 5.79948 16.9103 5.54513 16.7227 5.35759C16.5352 5.17006 16.2809 5.0647 16.0156 5.0647H14.0486V2.9877C14.0486 2.72248 13.9433 2.46813 13.7557 2.28059C13.5682 2.09306 13.3139 1.9877 13.0486 1.9877C12.7834 1.9877 12.5291 2.09306 12.3415 2.28059C12.154 2.46813 12.0486 2.72248 12.0486 2.9877V5.0647H10.0816C9.81642 5.0647 9.56207 5.17006 9.37453 5.35759C9.18699 5.54513 9.08164 5.79948 9.08164 6.0647C9.08164 6.32992 9.18699 6.58427 9.37453 6.77181C9.56207 6.95934 9.81642 7.0647 10.0816 7.0647H11.9406C11.5536 9.0277 10.1406 10.6587 9.24564 11.5217L7.50764 6.6517C7.43817 6.45763 7.31043 6.28977 7.14189 6.17109C6.97336 6.05241 6.77227 5.98871 6.56614 5.98871C6.36001 5.98871 6.15892 6.05241 5.99038 6.17109C5.82185 6.28977 5.69411 6.45763 5.62464 6.6517L2.06264 16.6517C2.01449 16.7762 1.99177 16.9092 1.99582 17.0426C1.99987 17.1761 2.0306 17.3074 2.08621 17.4288C2.14182 17.5501 2.22117 17.6592 2.31959 17.7494C2.418 17.8396 2.5335 17.9092 2.65925 17.9541C2.785 17.999 2.91846 18.0182 3.05177 18.0107C3.18508 18.0032 3.31553 17.969 3.43542 17.9103C3.55532 17.8515 3.66223 17.7693 3.74986 17.6686C3.83749 17.5679 3.90406 17.4506 3.94564 17.3237L4.95464 14.4907H8.18064L9.18464 17.3037C9.22851 17.4276 9.29644 17.5415 9.38451 17.6391C9.47258 17.7366 9.57907 17.8157 9.69783 17.8719C9.8166 17.9282 9.94531 17.9604 10.0766 17.9667C10.2078 17.973 10.339 17.9533 10.4626 17.9087C10.5864 17.8648 10.7003 17.7969 10.7977 17.7089C10.8952 17.621 10.9744 17.5146 11.0307 17.396C11.087 17.2773 11.1193 17.1488 11.1258 17.0176C11.1323 16.8865 11.1129 16.7553 11.0686 16.6317L9.97264 13.5597C10.5766 13.0577 12.0426 11.7237 13.0466 9.8307C14.2946 12.1857 16.2826 13.6967 16.4046 13.7877C16.6168 13.9468 16.8835 14.0152 17.1461 13.9777C17.4086 13.9401 17.6455 13.7999 17.8046 13.5877C17.9638 13.3755 18.0321 13.1088 17.9946 12.8463C17.9571 12.5837 17.8168 12.3468 17.6046 12.1877C17.5736 12.1637 14.7296 9.9797 14.1566 7.0647ZM5.66864 12.4907L6.56764 9.9667L7.46764 12.4907H5.66864Z" fill="#1A1C1F"/>
</g>
<defs>
<clipPath id="clip0_2785_1676">
<rect width="20" height="20" fill="white"/>
</clipPath>
</defs>
</svg>
