<svg width="28" height="28" viewBox="0 0 28 28" fill="none" xmlns="http://www.w3.org/2000/svg">
<g clip-path="url(#clip0_2785_1672)">
<path fill-rule="evenodd" clip-rule="evenodd" d="M19.7316 8.60449H23.7347C23.9668 8.60449 24.1893 8.5123 24.3534 8.34821C24.5175 8.18412 24.6097 7.96156 24.6097 7.72949C24.6097 7.49743 24.5175 7.27487 24.3534 7.11077C24.1893 6.94668 23.9668 6.85449 23.7347 6.85449H19.6773V2.61424C19.6773 2.38218 19.5852 2.15962 19.4211 1.99552C19.257 1.83143 19.0344 1.73924 18.8023 1.73924C18.5703 1.73924 18.3477 1.83143 18.1836 1.99552C18.0195 2.15962 17.9273 2.38218 17.9273 2.61424V6.85537H13.8691C13.637 6.85537 13.4145 6.94756 13.2504 7.11165C13.0863 7.27574 12.9941 7.4983 12.9941 7.73037C12.9941 7.96243 13.0863 8.18499 13.2504 8.34909C13.4145 8.51318 13.637 8.60537 13.8691 8.60537H17.8731C17.4688 12.7704 14.3153 16.1907 12.6756 17.7019L9.37422 8.44524C9.31343 8.27543 9.20166 8.12855 9.05419 8.02471C8.90672 7.92087 8.73077 7.86513 8.55041 7.86513C8.37004 7.86513 8.19409 7.92087 8.04662 8.02471C7.89915 8.12855 7.78738 8.27543 7.72659 8.44524L1.80459 25.0702C1.76247 25.1792 1.74259 25.2955 1.74613 25.4123C1.74967 25.5291 1.77656 25.6439 1.82522 25.7502C1.87387 25.8564 1.94331 25.9518 2.02942 26.0307C2.11554 26.1097 2.21659 26.1706 2.32663 26.2099C2.43666 26.2491 2.55344 26.266 2.67009 26.2594C2.78673 26.2528 2.90087 26.2229 3.00578 26.1715C3.11069 26.1201 3.20424 26.0482 3.28092 25.96C3.35759 25.8719 3.41584 25.7693 3.45222 25.6582L5.31597 20.4266H11.7901L13.6451 25.6267C13.7231 25.8455 13.8847 26.0243 14.0945 26.1238C14.3043 26.2233 14.5451 26.2354 14.7638 26.1574C14.9825 26.0795 15.1613 25.9178 15.2608 25.708C15.3603 25.4982 15.3724 25.2575 15.2945 25.0387L13.3126 19.4834C14.5201 18.4579 17.3568 15.7795 18.8015 12.1307C20.6145 16.7201 24.6368 19.7765 24.8556 19.9401C25.0415 20.0785 25.2746 20.1377 25.5039 20.1048C25.7333 20.0718 25.9403 19.9494 26.0797 19.7642C26.2187 19.5786 26.2783 19.3455 26.2455 19.116C26.2127 18.8865 26.0901 18.6793 25.9047 18.5401C25.8435 18.4946 20.2758 14.2386 19.7316 8.60449ZM8.55084 11.3459L11.1662 18.6766H5.93984L8.55084 11.3459Z" fill="#1A1C1F"/>
</g>
<defs>
<clipPath id="clip0_2785_1672">
<rect width="28" height="28" fill="white"/>
</clipPath>
</defs>
</svg>
