<svg width="24" height="24" viewBox="0 0 24 24" fill="none" xmlns="http://www.w3.org/2000/svg">
<g clip-path="url(#clip0_2785_1674)">
<path fill-rule="evenodd" clip-rule="evenodd" d="M16.9363 7.99994H19.7133C19.9785 7.99994 20.2329 7.89458 20.4204 7.70705C20.608 7.51951 20.7133 7.26516 20.7133 6.99994C20.7133 6.73472 20.608 6.48037 20.4204 6.29283C20.2329 6.1053 19.9785 5.99994 19.7133 5.99994H16.8563V2.99994C16.8563 2.73472 16.751 2.48037 16.5634 2.29283C16.3759 2.1053 16.1215 1.99994 15.8563 1.99994C15.5911 1.99994 15.3367 2.1053 15.1492 2.29283C14.9617 2.48037 14.8563 2.73472 14.8563 2.99994V5.99994H11.9993C11.7341 5.99994 11.4797 6.1053 11.2922 6.29283C11.1047 6.48037 10.9993 6.73472 10.9993 6.99994C10.9993 7.26516 11.1047 7.51951 11.2922 7.70705C11.4797 7.89458 11.7341 7.99994 11.9993 7.99994H14.7753C14.3513 10.8919 12.2183 13.2779 10.9883 14.4379L8.57131 7.66394C8.50185 7.46987 8.3741 7.30201 8.20557 7.18333C8.03703 7.06465 7.83594 7.00095 7.62981 7.00095C7.42369 7.00095 7.22259 7.06465 7.05406 7.18333C6.88552 7.30201 6.75778 7.46987 6.68831 7.66394L2.05831 20.6639C2.01419 20.7876 1.99486 20.9188 2.00144 21.05C2.00801 21.1812 2.04036 21.3098 2.09663 21.4284C2.1529 21.5471 2.232 21.6535 2.3294 21.7417C2.4268 21.8298 2.54061 21.8978 2.66431 21.9419C2.91415 22.0311 3.18915 22.0173 3.42882 21.9036C3.66849 21.79 3.8532 21.5858 3.94231 21.3359L5.32431 17.4539H9.94131L11.3173 21.3099C11.3613 21.4337 11.4293 21.5476 11.5174 21.6451C11.6055 21.7425 11.712 21.8216 11.8307 21.8778C11.9494 21.934 12.0781 21.9662 12.2093 21.9726C12.3405 21.979 12.4717 21.9594 12.5953 21.9149C12.719 21.8709 12.8328 21.803 12.9302 21.715C13.0276 21.627 13.1067 21.5206 13.163 21.402C13.2193 21.2834 13.2516 21.1549 13.2582 21.0238C13.2648 20.8927 13.2454 20.7616 13.2013 20.6379L11.7163 16.4749C12.5803 15.7479 14.6203 13.8529 15.8563 11.2309C17.4063 14.5279 20.2363 16.6779 20.4013 16.7999C20.6137 16.9581 20.8801 17.0258 21.1423 16.9881C21.4044 16.9505 21.641 16.8105 21.8003 16.5989C21.9591 16.3868 22.0273 16.1204 21.9898 15.8581C21.9523 15.5958 21.8122 15.3591 21.6003 15.1999C21.5543 15.1669 17.5333 12.0889 16.9363 7.99994ZM7.62731 10.9779L9.22431 15.4539H6.03431L7.62731 10.9779Z" fill="#1A1C1F"/>
</g>
<defs>
<clipPath id="clip0_2785_1674">
<rect width="24" height="24" fill="white"/>
</clipPath>
</defs>
</svg>
