<svg width="14" height="14" viewBox="0 0 14 14" fill="none" xmlns="http://www.w3.org/2000/svg">
<g clip-path="url(#clip0_2785_1680)">
<path fill-rule="evenodd" clip-rule="evenodd" d="M9.90962 4.94529H11.2109C11.3966 4.94529 11.5746 4.87154 11.7059 4.74026C11.8372 4.60899 11.9109 4.43094 11.9109 4.24529C11.9109 4.05964 11.8372 3.88159 11.7059 3.75031C11.5746 3.61904 11.3966 3.54529 11.2109 3.54529H9.83402V2.09139C9.83402 1.90574 9.76027 1.72769 9.629 1.59641C9.49772 1.46514 9.31967 1.39139 9.13402 1.39139C8.94837 1.39139 8.77032 1.46514 8.63905 1.59641C8.50777 1.72769 8.43402 1.90574 8.43402 2.09139V3.54529H7.05712C6.87147 3.54529 6.69342 3.61904 6.56215 3.75031C6.43087 3.88159 6.35712 4.05964 6.35712 4.24529C6.35712 4.43094 6.43087 4.60899 6.56215 4.74026C6.69342 4.87154 6.87147 4.94529 7.05712 4.94529H8.35842C8.08752 6.31939 7.09842 7.46109 6.47192 8.06519L5.25532 4.65619C5.20669 4.52034 5.11727 4.40284 4.9993 4.31976C4.88133 4.23669 4.74056 4.1921 4.59627 4.1921C4.45198 4.1921 4.31122 4.23669 4.19324 4.31976C4.07527 4.40284 3.98585 4.52034 3.93722 4.65619L1.44382 11.6562C1.41012 11.7434 1.39422 11.8364 1.39705 11.9298C1.39988 12.0232 1.4214 12.1152 1.46032 12.2001C1.49925 12.2851 1.55479 12.3614 1.62369 12.4246C1.69258 12.4877 1.77342 12.5365 1.86145 12.5679C1.94947 12.5993 2.0429 12.6128 2.13621 12.6075C2.22953 12.6022 2.32084 12.5783 2.40477 12.5372C2.4887 12.4961 2.56354 12.4385 2.62488 12.368C2.68622 12.2975 2.73282 12.2154 2.76192 12.1266L3.46822 10.1435H5.72642L6.42922 12.1126C6.45993 12.1993 6.50748 12.2791 6.56913 12.3473C6.63078 12.4156 6.70532 12.471 6.78846 12.5104C6.8716 12.5497 6.9617 12.5723 7.05357 12.5767C7.14545 12.5811 7.23729 12.5673 7.32382 12.5361C7.41045 12.5054 7.49017 12.4578 7.5584 12.3963C7.62663 12.3347 7.68204 12.2602 7.72145 12.1772C7.76085 12.0941 7.78349 12.0041 7.78805 11.9123C7.79261 11.8205 7.779 11.7287 7.74802 11.6422L6.98082 9.49179C7.40362 9.14039 8.42982 8.20659 9.13262 6.88149C10.0062 8.52999 11.3978 9.58769 11.4832 9.65139C11.6317 9.76278 11.8184 9.81061 12.0022 9.78435C12.186 9.7581 12.3518 9.65991 12.4632 9.51139C12.5746 9.36287 12.6224 9.17618 12.5962 8.99239C12.5699 8.80861 12.4717 8.64278 12.3232 8.53139C12.3015 8.51459 10.3107 6.98579 9.90962 4.94529ZM3.96802 8.74349L4.59732 6.97669L5.22732 8.74349H3.96802Z" fill="#1A1C1F"/>
</g>
<defs>
<clipPath id="clip0_2785_1680">
<rect width="14" height="14" fill="white"/>
</clipPath>
</defs>
</svg>
