<svg width="32" height="32" viewBox="0 0 32 32" fill="none" xmlns="http://www.w3.org/2000/svg">
<g clip-path="url(#clip0_2785_1670)">
<path fill-rule="evenodd" clip-rule="evenodd" d="M22.5504 9.8337H27.1254C27.3906 9.8337 27.6449 9.72834 27.8325 9.54081C28.02 9.35327 28.1254 9.09892 28.1254 8.8337C28.1254 8.56848 28.02 8.31413 27.8325 8.12659C27.6449 7.93906 27.3906 7.8337 27.1254 7.8337H22.4884V2.9877C22.4884 2.72248 22.383 2.46813 22.1955 2.28059C22.0079 2.09306 21.7536 1.9877 21.4884 1.9877C21.2231 1.9877 20.9688 2.09306 20.7813 2.28059C20.5937 2.46813 20.4884 2.72248 20.4884 2.9877V7.8347H15.8504C15.5851 7.8347 15.3308 7.94006 15.1433 8.12759C14.9557 8.31513 14.8504 8.56949 14.8504 8.8347C14.8504 9.09992 14.9557 9.35427 15.1433 9.54181C15.3308 9.72934 15.5851 9.8347 15.8504 9.8347H20.4264C19.9644 14.5947 16.3604 18.5037 14.4864 20.2307L10.7134 9.6517C10.6439 9.45763 10.5162 9.28977 10.3476 9.17109C10.1791 9.05241 9.97799 8.98871 9.77186 8.98871C9.56573 8.98871 9.36464 9.05241 9.19611 9.17109C9.02757 9.28977 8.89983 9.45763 8.83036 9.6517L2.06236 28.6517C2.01422 28.7762 1.9915 28.9092 1.99555 29.0426C1.99959 29.1761 2.03033 29.3074 2.08593 29.4288C2.14154 29.5501 2.22089 29.6592 2.31931 29.7494C2.41773 29.8396 2.53322 29.9092 2.65897 29.9541C2.78472 29.999 2.91819 30.0182 3.0515 30.0107C3.1848 30.0032 3.31525 29.969 3.43515 29.9103C3.55504 29.8515 3.66196 29.7693 3.74959 29.6686C3.83722 29.5679 3.90378 29.4506 3.94536 29.3237L6.07536 23.3447H13.4744L15.5944 29.2877C15.6835 29.5377 15.8682 29.742 16.108 29.8557C16.3478 29.9695 16.6229 29.9833 16.8729 29.8942C17.1228 29.8051 17.3272 29.6203 17.4409 29.3806C17.5546 29.1408 17.5685 28.8657 17.4794 28.6157L15.2144 22.2667C16.5944 21.0947 19.8364 18.0337 21.4874 13.8637C23.5594 19.1087 28.1564 22.6017 28.4064 22.7887C28.6188 22.9469 28.8852 23.0145 29.1473 22.9769C29.4095 22.9392 29.6461 22.7993 29.8054 22.5877C29.9642 22.3756 30.0323 22.1091 29.9948 21.8468C29.9573 21.5845 29.8172 21.3478 29.6054 21.1887C29.5354 21.1367 23.1724 16.2727 22.5504 9.8337ZM9.77236 12.9667L12.7614 21.3447H6.78836L9.77236 12.9667Z" fill="#1A1C1F"/>
</g>
<defs>
<clipPath id="clip0_2785_1670">
<rect width="32" height="32" fill="white"/>
</clipPath>
</defs>
</svg>
