<svg width="16" height="16" viewBox="0 0 16 16" fill="none" xmlns="http://www.w3.org/2000/svg">
<g clip-path="url(#clip0_2785_1678)">
<path fill-rule="evenodd" clip-rule="evenodd" d="M11.3253 5.65176H12.8125C13.0247 5.65176 13.2282 5.56748 13.3782 5.41745C13.5282 5.26742 13.6125 5.06394 13.6125 4.85176C13.6125 4.63959 13.5282 4.43611 13.3782 4.28608C13.2282 4.13605 13.0247 4.05176 12.8125 4.05176H11.2389V2.39016C11.2389 2.17799 11.1546 1.97451 11.0046 1.82448C10.8546 1.67445 10.6511 1.59016 10.4389 1.59016C10.2268 1.59016 10.0233 1.67445 9.87325 1.82448C9.72322 1.97451 9.63893 2.17799 9.63893 2.39016V4.05176H8.06533C7.85316 4.05176 7.64968 4.13605 7.49965 4.28608C7.34962 4.43611 7.26533 4.63959 7.26533 4.85176C7.26533 5.06394 7.34962 5.26742 7.49965 5.41745C7.64968 5.56748 7.85316 5.65176 8.06533 5.65176H9.55253C9.24293 7.22216 8.11253 8.52696 7.39653 9.21736L6.00613 5.32136C5.95056 5.16611 5.84837 5.03182 5.71354 4.93688C5.57871 4.84193 5.41784 4.79097 5.25293 4.79097C5.08803 4.79097 4.92716 4.84193 4.79233 4.93688C4.6575 5.03182 4.55531 5.16611 4.49973 5.32136L1.65013 13.3214C1.61162 13.421 1.59344 13.5273 1.59668 13.6341C1.59992 13.7409 1.62451 13.8459 1.66899 13.943C1.71348 14.0401 1.77696 14.1273 1.85569 14.1995C1.93443 14.2717 2.02682 14.3274 2.12742 14.3633C2.22802 14.3992 2.3348 14.4146 2.44144 14.4086C2.54809 14.4025 2.65245 14.3752 2.74836 14.3282C2.84428 14.2812 2.92981 14.2155 2.99991 14.1349C3.07002 14.0543 3.12327 13.9605 3.15653 13.859L3.96373 11.5926H6.54453L7.34773 13.843C7.38283 13.9421 7.43717 14.0332 7.50763 14.1112C7.57809 14.1893 7.66328 14.2526 7.75829 14.2976C7.85331 14.3425 7.95627 14.3683 8.06128 14.3733C8.16628 14.3784 8.27124 14.3626 8.37013 14.327C8.46914 14.2919 8.56024 14.2375 8.63822 14.1672C8.7162 14.0968 8.77952 14.0117 8.82456 13.9168C8.8696 13.8219 8.89546 13.719 8.90068 13.6141C8.90589 13.5092 8.89034 13.4043 8.85493 13.3054L7.97813 10.8478C8.46133 10.4462 9.63413 9.37896 10.4373 7.86456C11.4357 9.74856 13.0261 10.9574 13.1237 11.0302C13.2935 11.1575 13.5068 11.2121 13.7169 11.1821C13.9269 11.1521 14.1164 11.0399 14.2437 10.8702C14.371 10.7004 14.4257 10.4871 14.3957 10.277C14.3657 10.067 14.2535 9.87747 14.0837 9.75016C14.0589 9.73096 11.7837 7.98376 11.3253 5.65176ZM4.53493 9.99256L5.25413 7.97336L5.97413 9.99256H4.53493Z" fill="#1A1C1F"/>
</g>
<defs>
<clipPath id="clip0_2785_1678">
<rect width="16" height="16" fill="white"/>
</clipPath>
</defs>
</svg>
