<svg width="12" height="12" viewBox="0 0 12 12" fill="none" xmlns="http://www.w3.org/2000/svg">
<g clip-path="url(#clip0_3479_182)">
<path d="M4.7377 6.29086C4.9975 6.63406 5.3035 6.94006 5.6467 7.19986C5.3035 7.45966 4.9975 7.76566 4.7377 8.10886C4.4779 7.76566 4.1719 7.45966 3.8287 7.19986C4.1719 6.94006 4.4779 6.63406 4.7377 6.29086ZM4.7377 3.66166C4.6063 3.66166 4.4755 3.74446 4.4527 3.91066L4.4461 3.95746C4.2373 5.49226 3.0301 6.70006 1.4953 6.90826L1.4485 6.91486C1.1167 6.95986 1.1167 7.43986 1.4485 7.48486L1.4953 7.49146C3.0301 7.70026 4.2379 8.90746 4.4461 10.4423L4.4527 10.4891C4.4755 10.6553 4.6063 10.7381 4.7377 10.7381C4.8691 10.7381 4.9999 10.6553 5.0227 10.4891L5.0293 10.4423C5.2381 8.90746 6.4453 7.69966 7.9801 7.49146L8.0269 7.48486C8.3587 7.43986 8.3587 6.95986 8.0269 6.91486L7.9801 6.90826C6.4453 6.69946 5.2375 5.49226 5.0293 3.95746L5.0227 3.91066C4.9999 3.74446 4.8691 3.66166 4.7377 3.66166ZM7.2001 2.99446L7.1707 2.99746C6.9943 3.01426 6.9943 3.27166 7.1707 3.28846L7.2001 3.29146C8.0329 3.37066 8.6917 4.02946 8.7709 4.86226L8.7739 4.89166C8.7907 5.06806 9.0481 5.06806 9.0649 4.89166L9.0679 4.86226C9.1471 4.02946 9.8059 3.37066 10.6387 3.29146L10.6681 3.28846C10.8445 3.27166 10.8445 3.01426 10.6681 2.99746L10.6387 2.99446C9.8059 2.91526 9.1471 2.25646 9.0679 1.42366L9.0649 1.39426C9.0481 1.21786 8.7907 1.21786 8.7739 1.39426L8.7709 1.42366C8.6917 2.25646 8.0329 2.91526 7.2001 2.99446Z" fill="#1A1C1F"/>
</g>
<defs>
<clipPath id="clip0_3479_182">
<rect width="12" height="12" fill="white"/>
</clipPath>
</defs>
</svg>
