<svg width="28" height="28" viewBox="0 0 28 28" fill="none" xmlns="http://www.w3.org/2000/svg">
<g clip-path="url(#clip0_3479_167)">
<path d="M11.0666 12.1372C11.6966 13.2616 12.6284 14.1944 13.7537 14.8244C12.6293 15.4544 11.6966 16.3862 11.0666 17.5115C10.4366 16.3871 9.50468 15.4544 8.37943 14.8244C9.5038 14.1944 10.4366 13.2625 11.0666 12.1372ZM11.0666 5.50737C10.8688 5.50737 10.6702 5.6325 10.6361 5.88275L10.1513 9.45362C9.8363 11.7706 8.01368 13.5932 5.69668 13.9082L2.1258 14.3939C1.6253 14.4621 1.6253 15.1857 2.1258 15.254L5.69668 15.7387C8.01368 16.0537 9.8363 17.8764 10.1513 20.1934L10.6369 23.7642C10.6711 24.0145 10.8688 24.1396 11.0674 24.1396C11.2661 24.1396 11.4638 24.0145 11.4979 23.7642L11.9827 20.1934C12.2977 17.8764 14.1203 16.0537 16.4373 15.7387L20.0082 15.2531C20.5087 15.1849 20.5087 14.4612 20.0082 14.393L16.4373 13.9082C14.1203 13.5932 12.2977 11.7706 11.9827 9.45362L11.4971 5.88275C11.4629 5.6325 11.2652 5.50737 11.0666 5.50737ZM21.3111 2.80887L21.3863 2.01525C21.4196 1.66175 21.9358 1.66175 21.9699 2.01525L22.0452 2.80887C22.2036 4.47662 23.5239 5.79612 25.1908 5.9545L25.9844 6.02975C26.3379 6.063 26.3379 6.57925 25.9844 6.61337L25.1908 6.68862C23.5231 6.847 22.2036 8.16737 22.0452 9.83425L21.9699 10.6279C21.9367 10.9814 21.4204 10.9814 21.3863 10.6279L21.3111 9.83425C21.1527 8.1665 19.8323 6.847 18.1654 6.68862L17.3718 6.61337C17.0183 6.58012 17.0183 6.06387 17.3718 6.02975L18.1654 5.9545C19.8332 5.79612 21.1527 4.47575 21.3111 2.80887ZM16.0821 22.1131L15.1406 22.1971C14.6707 22.2391 14.6707 22.926 15.1406 22.968L16.0821 23.052C17.0936 23.1421 17.8959 23.9445 17.9861 24.956L18.0701 25.8975C18.1121 26.3674 18.7989 26.3674 18.8409 25.8975L18.9249 24.956C19.0151 23.9445 19.8174 23.1421 20.8289 23.052L21.7704 22.968C22.2403 22.926 22.2403 22.2391 21.7704 22.1971L20.8289 22.1131C19.8174 22.023 19.0151 21.2206 18.9249 20.2091L18.8409 19.2676C18.7989 18.7977 18.1121 18.7977 18.0701 19.2676L17.9861 20.2091C17.8959 21.2206 17.0936 22.023 16.0821 22.1131Z" fill="#1A1C1F"/>
</g>
<defs>
<clipPath id="clip0_3479_167">
<rect width="28" height="28" fill="white"/>
</clipPath>
</defs>
</svg>
