<svg width="20" height="20" viewBox="0 0 20 20" fill="none" xmlns="http://www.w3.org/2000/svg">
<g clip-path="url(#clip0_3479_173)">
<path d="M7.89614 10.4847C8.32914 11.0567 8.83914 11.5667 9.41114 11.9997C8.83914 12.4327 8.32914 12.9427 7.89614 13.5147C7.46314 12.9427 6.95314 12.4327 6.38114 11.9997C6.95314 11.5667 7.46314 11.0567 7.89614 10.4847ZM7.89614 6.10274C7.67714 6.10274 7.45914 6.24074 7.42114 6.51774L7.41014 6.59574C7.06214 9.15374 5.05014 11.1667 2.49214 11.5137L2.41414 11.5247C1.86114 11.5997 1.86114 12.3997 2.41414 12.4747L2.49214 12.4857C5.05014 12.8337 7.06314 14.8457 7.41014 17.4037L7.42114 17.4817C7.45914 17.7587 7.67714 17.8967 7.89614 17.8967C8.11514 17.8967 8.33314 17.7587 8.37114 17.4817L8.38214 17.4037C8.73014 14.8457 10.7421 12.8327 13.3001 12.4857L13.3781 12.4747C13.9311 12.3997 13.9311 11.5997 13.3781 11.5247L13.3001 11.5137C10.7421 11.1657 8.72914 9.15374 8.38214 6.59574L8.37114 6.51774C8.33314 6.24074 8.11514 6.10274 7.89614 6.10274ZM12.0001 4.99074L11.9511 4.99574C11.6571 5.02374 11.6571 5.45274 11.9511 5.48074L12.0001 5.48574C13.3881 5.61774 14.4861 6.71574 14.6181 8.10374L14.6231 8.15274C14.6511 8.44674 15.0801 8.44674 15.1081 8.15274L15.1131 8.10374C15.2451 6.71574 16.3431 5.61774 17.7311 5.48574L17.7801 5.48074C18.0741 5.45274 18.0741 5.02374 17.7801 4.99574L17.7311 4.99074C16.3431 4.85874 15.2451 3.76074 15.1131 2.37274L15.1081 2.32374C15.0801 2.02974 14.6511 2.02974 14.6231 2.32374L14.6181 2.37274C14.4861 3.76074 13.3881 4.85874 12.0001 4.99074Z" fill="#1A1C1F"/>
</g>
<defs>
<clipPath id="clip0_3479_173">
<rect width="20" height="20" fill="white"/>
</clipPath>
</defs>
</svg>
