<svg width="16" height="16" viewBox="0 0 16 16" fill="none" xmlns="http://www.w3.org/2000/svg">
<g clip-path="url(#clip0_3479_176)">
<path d="M6.31689 8.38779C6.66329 8.84539 7.07129 9.25339 7.52889 9.59979C7.07129 9.94619 6.66329 10.3542 6.31689 10.8118C5.97049 10.3542 5.56249 9.94619 5.10489 9.59979C5.56249 9.25339 5.97049 8.84539 6.31689 8.38779ZM6.31689 4.88219C6.14169 4.88219 5.96729 4.99259 5.93689 5.21419L5.92809 5.27659C5.64969 7.32299 4.04009 8.93339 1.99369 9.21099L1.93129 9.21979C1.48889 9.27979 1.48889 9.91979 1.93129 9.97979L1.99369 9.98859C4.04009 10.267 5.65049 11.8766 5.92809 13.923L5.93689 13.9854C5.96729 14.207 6.14169 14.3174 6.31689 14.3174C6.49209 14.3174 6.66649 14.207 6.69689 13.9854L6.70569 13.923C6.98409 11.8766 8.59369 10.2662 10.6401 9.98859L10.7025 9.97979C11.1449 9.91979 11.1449 9.27979 10.7025 9.21979L10.6401 9.21099C8.59369 8.93259 6.98329 7.32299 6.70569 5.27659L6.69689 5.21419C6.66649 4.99259 6.49209 4.88219 6.31689 4.88219ZM9.60009 3.99259L9.56089 3.99659C9.32569 4.01899 9.32569 4.36219 9.56089 4.38459L9.60009 4.38859C10.7105 4.49419 11.5889 5.37259 11.6945 6.48299L11.6985 6.52219C11.7209 6.75739 12.0641 6.75739 12.0865 6.52219L12.0905 6.48299C12.1961 5.37259 13.0745 4.49419 14.1849 4.38859L14.2241 4.38459C14.4593 4.36219 14.4593 4.01899 14.2241 3.99659L14.1849 3.99259C13.0745 3.88699 12.1961 3.00859 12.0905 1.89819L12.0865 1.85899C12.0641 1.62379 11.7209 1.62379 11.6985 1.85899L11.6945 1.89819C11.5889 3.00859 10.7105 3.88699 9.60009 3.99259Z" fill="#1A1C1F"/>
</g>
<defs>
<clipPath id="clip0_3479_176">
<rect width="16" height="16" fill="white"/>
</clipPath>
</defs>
</svg>
