<svg width="24" height="24" viewBox="0 0 24 24" fill="none" xmlns="http://www.w3.org/2000/svg">
<g clip-path="url(#clip0_3479_170)">
<path d="M9.27288 10.2516C9.81988 11.0406 10.5049 11.7256 11.2939 12.2726C10.5049 12.8196 9.81988 13.5046 9.27288 14.2936C8.72588 13.5046 8.04088 12.8196 7.25188 12.2726C8.04088 11.7256 8.72588 11.0406 9.27288 10.2516ZM9.27288 4.99964C9.04688 4.99964 8.81988 5.14264 8.78088 5.42864L8.62988 6.53864C8.26988 9.18664 6.18688 11.2696 3.53888 11.6296L2.42888 11.7806C1.85688 11.8586 1.85688 12.6856 2.42888 12.7636L3.53888 12.9146C6.18688 13.2746 8.26988 15.3576 8.62988 18.0056L8.78088 19.1156C8.81988 19.4016 9.04588 19.5446 9.27288 19.5446C9.49988 19.5446 9.72588 19.4016 9.76488 19.1156L9.91588 18.0056C10.2759 15.3576 12.3589 13.2746 15.0069 12.9146L16.1169 12.7636C16.6889 12.6856 16.6889 11.8586 16.1169 11.7806L15.0069 11.6296C12.3589 11.2696 10.2759 9.18664 9.91588 6.53864L9.76488 5.42864C9.72588 5.14264 9.49988 4.99964 9.27288 4.99964ZM15.0069 5.36664L14.9459 5.37264C14.6029 5.40564 14.6029 5.90564 14.9459 5.93764L15.0069 5.94364C16.6229 6.09664 17.9029 7.37664 18.0559 8.99264L18.0619 9.05364C18.0949 9.39664 18.5949 9.39664 18.6269 9.05364L18.6329 8.99264C18.7859 7.37664 20.0659 6.09664 21.6819 5.94364L21.7429 5.93764C22.0859 5.90464 22.0859 5.40464 21.7429 5.37264L21.6819 5.36664C20.0659 5.21364 18.7859 3.93364 18.6329 2.31764L18.6269 2.25664C18.5939 1.91364 18.0939 1.91364 18.0619 2.25664L18.0559 2.31764C17.9029 3.93364 16.6229 5.21364 15.0069 5.36664ZM13.0539 18.9346L12.9909 18.9406C12.5269 18.9816 12.5269 19.6606 12.9909 19.7026L13.0539 19.7086C14.0529 19.7976 14.8459 20.5896 14.9349 21.5896L14.9409 21.6526C14.9819 22.1166 15.6609 22.1166 15.7029 21.6526L15.7089 21.5896C15.7979 20.5906 16.5899 19.7976 17.5899 19.7086L17.6529 19.7026C18.1169 19.6616 18.1169 18.9826 17.6529 18.9406L17.5899 18.9346C16.5909 18.8456 15.7979 18.0536 15.7089 17.0536L15.7029 16.9906C15.6619 16.5266 14.9829 16.5266 14.9409 16.9906L14.9349 17.0536C14.8459 18.0526 14.0539 18.8456 13.0539 18.9346Z" fill="#1A1C1F"/>
</g>
<defs>
<clipPath id="clip0_3479_170">
<rect width="24" height="24" fill="white"/>
</clipPath>
</defs>
</svg>
