<svg width="32" height="32" viewBox="0 0 32 32" fill="none" xmlns="http://www.w3.org/2000/svg">
<g clip-path="url(#clip0_3479_164)">
<path d="M12.6475 13.8711C13.3675 15.1561 14.4325 16.2221 15.7185 16.9421C14.4335 17.6621 13.3675 18.7271 12.6475 20.0131C11.9275 18.7281 10.8625 17.6621 9.57649 16.9421C10.8615 16.2221 11.9275 15.1571 12.6475 13.8711ZM12.6475 6.29412C12.4215 6.29412 12.1945 6.43712 12.1555 6.72312L11.6015 10.8041C11.2415 13.4521 9.15849 15.5351 6.51049 15.8951L2.42949 16.4501C1.85749 16.5281 1.85749 17.3551 2.42949 17.4331L6.51049 17.9871C9.15849 18.3471 11.2415 20.4301 11.6015 23.0781L12.1565 27.1591C12.1955 27.4451 12.4215 27.5881 12.6485 27.5881C12.8755 27.5881 13.1015 27.4451 13.1405 27.1591L13.6945 23.0781C14.0545 20.4301 16.1375 18.3471 18.7855 17.9871L22.8665 17.4321C23.4385 17.3541 23.4385 16.5271 22.8665 16.4491L18.7855 15.8951C16.1375 15.5351 14.0545 13.4521 13.6945 10.8041L13.1395 6.72312C13.1005 6.43712 12.8745 6.29412 12.6475 6.29412ZM24.3555 3.21012L24.4415 2.30312C24.4795 1.89912 25.0695 1.89912 25.1085 2.30312L25.1945 3.21012C25.3755 5.11612 26.8845 6.62412 28.7895 6.80512L29.6965 6.89112C30.1005 6.92912 30.1005 7.51912 29.6965 7.55812L28.7895 7.64412C26.8835 7.82512 25.3755 9.33412 25.1945 11.2391L25.1085 12.1461C25.0705 12.5501 24.4805 12.5501 24.4415 12.1461L24.3555 11.2391C24.1745 9.33312 22.6655 7.82512 20.7605 7.64412L19.8535 7.55812C19.4495 7.52012 19.4495 6.93012 19.8535 6.89112L20.7605 6.80512C22.6665 6.62412 24.1745 5.11512 24.3555 3.21012ZM18.3795 25.2721L17.3035 25.3681C16.7665 25.4161 16.7665 26.2011 17.3035 26.2491L18.3795 26.3451C19.5355 26.4481 20.4525 27.3651 20.5555 28.5211L20.6515 29.5971C20.6995 30.1341 21.4845 30.1341 21.5325 29.5971L21.6285 28.5211C21.7315 27.3651 22.6485 26.4481 23.8045 26.3451L24.8805 26.2491C25.4175 26.2011 25.4175 25.4161 24.8805 25.3681L23.8045 25.2721C22.6485 25.1691 21.7315 24.2521 21.6285 23.0961L21.5325 22.0201C21.4845 21.4831 20.6995 21.4831 20.6515 22.0201L20.5555 23.0961C20.4525 24.2521 19.5355 25.1691 18.3795 25.2721Z" fill="#1A1C1F"/>
</g>
<defs>
<clipPath id="clip0_3479_164">
<rect width="32" height="32" fill="white"/>
</clipPath>
</defs>
</svg>
