<svg width="14" height="14" viewBox="0 0 14 14" fill="none" xmlns="http://www.w3.org/2000/svg">
<g clip-path="url(#clip0_3479_179)">
<path d="M5.52726 7.33934C5.83036 7.73974 6.18736 8.09674 6.58776 8.39984C6.18736 8.70294 5.83036 9.05994 5.52726 9.46034C5.22416 9.05994 4.86716 8.70294 4.46676 8.39984C4.86716 8.09674 5.22416 7.73974 5.52726 7.33934ZM5.52726 4.27194C5.37396 4.27194 5.22136 4.36854 5.19476 4.56244L5.18706 4.61704C4.94346 6.40764 3.53506 7.81674 1.74446 8.05964L1.68986 8.06734C1.30276 8.11984 1.30276 8.67984 1.68986 8.73234L1.74446 8.74004C3.53506 8.98364 4.94416 10.392 5.18706 12.1826L5.19476 12.2372C5.22136 12.4311 5.37396 12.5277 5.52726 12.5277C5.68056 12.5277 5.83316 12.4311 5.85976 12.2372L5.86746 12.1826C6.11106 10.392 7.51946 8.98294 9.31006 8.74004L9.36466 8.73234C9.75176 8.67984 9.75176 8.11984 9.36466 8.06734L9.31006 8.05964C7.51946 7.81604 6.11036 6.40764 5.86746 4.61704L5.85976 4.56244C5.83316 4.36854 5.68056 4.27194 5.52726 4.27194ZM8.40006 3.49354L8.36576 3.49704C8.15996 3.51664 8.15996 3.81694 8.36576 3.83654L8.40006 3.84004C9.37166 3.93244 10.1403 4.70104 10.2327 5.67264L10.2362 5.70694C10.2558 5.91274 10.5561 5.91274 10.5757 5.70694L10.5792 5.67264C10.6716 4.70104 11.4402 3.93244 12.4118 3.84004L12.4461 3.83654C12.6519 3.81694 12.6519 3.51664 12.4461 3.49704L12.4118 3.49354C11.4402 3.40114 10.6716 2.63254 10.5792 1.66094L10.5757 1.62664C10.5561 1.42084 10.2558 1.42084 10.2362 1.62664L10.2327 1.66094C10.1403 2.63254 9.37166 3.40114 8.40006 3.49354Z" fill="#1A1C1F"/>
</g>
<defs>
<clipPath id="clip0_3479_179">
<rect width="14" height="14" fill="white"/>
</clipPath>
</defs>
</svg>
