<svg width="14" height="14" viewBox="0 0 14 14" fill="none" xmlns="http://www.w3.org/2000/svg">
<g clip-path="url(#clip0_187_560)">
<path fill-rule="evenodd" clip-rule="evenodd" d="M6.06958 10.4202L7 10.8698L7.92898 10.4209C8.26968 10.2614 8.6111 10.4247 8.74698 10.7058C8.88287 10.987 8.78713 11.348 8.46685 11.5231L7.26654 12.1017C7.12222 12.1714 6.94232 12.1929 6.73346 12.1017L5.5365 11.5231C5.23194 11.3759 5.10437 11.0097 5.25158 10.7051C5.37614 10.4474 5.7095 10.2614 6.06958 10.4202ZM2.8 7.43769C3.11225 7.43769 3.4125 7.69159 3.4125 8.05019V9.13589L4.19597 9.51462C4.51811 9.66833 4.61678 10.0515 4.4809 10.3326C4.34501 10.6138 4.00178 10.7747 3.66289 10.6175L2.53346 10.0717C2.34542 9.98077 2.1875 9.77698 2.1875 9.52019V8.05019C2.1875 7.71192 2.46173 7.43769 2.8 7.43769ZM11.2 7.43769C11.5123 7.43769 11.8125 7.68723 11.8077 8.05019L11.8125 9.52019C11.8125 9.72905 11.7063 9.92154 11.5341 10.0336L10.3571 10.6079C10.0525 10.7551 9.68628 10.6275 9.53907 10.323C9.40319 10.0418 9.50537 9.6628 9.82399 9.50497L10.5868 9.13589L10.5875 8.05019C10.5875 7.68723 10.8877 7.43769 11.2 7.43769ZM8.70618 5.17587C9.41847 5.17587 9.77461 5.48913 9.77461 6.11565C9.77461 6.37208 9.71155 6.56878 9.58541 6.70574C9.49192 6.80482 9.35243 6.88204 9.16694 6.93741C9.29011 7.00297 9.3925 7.11808 9.47412 7.28272C9.69041 7.73094 9.85289 8.06616 9.96155 8.28837C10.0253 8.41876 9.91835 8.57001 9.67446 8.57001C9.55349 8.57001 9.34155 8.53351 9.26342 8.37714L8.81302 7.43352C8.75218 7.3053 8.69282 7.21861 8.63495 7.17344C8.5845 7.1341 8.50362 7.11443 8.39233 7.11443H8.16383V8.21497C8.16383 8.41105 8.00488 8.57001 7.8088 8.57001C7.61272 8.57001 7.45377 8.41105 7.45377 8.21497V5.45871C7.45377 5.3025 7.5804 5.17587 7.73661 5.17587H8.70618ZM5.5399 5.17587C5.68853 5.17587 5.82311 5.26171 5.87874 5.4092L6.95878 8.27302C7.01923 8.43332 6.99055 8.57 6.70466 8.57C6.45055 8.57 6.35582 8.50612 6.2917 8.34727L6.09053 7.84874H4.83049L4.66106 8.30484C4.58975 8.49683 4.49166 8.57 4.2375 8.57C3.98339 8.57 3.92209 8.44359 3.98339 8.28362L5.08461 5.4092C5.1326 5.28395 5.24302 5.17587 5.38109 5.17587H5.5399ZM5.48325 6.08246L5.03323 7.34253H5.93325L5.48325 6.08246ZM8.6305 5.70914C8.85309 5.70914 8.98887 5.77252 9.03784 5.89928C9.06158 5.95902 9.07345 6.05372 9.07345 6.1834C9.07345 6.34221 9.04452 6.45295 8.98664 6.5156C8.9169 6.59282 8.7967 6.63143 8.62605 6.63143H8.16229V5.70914H8.6305ZM4.46023 3.65658C4.5942 3.93864 4.4809 4.33316 4.16977 4.47264L3.4125 4.83159V5.95019C3.4125 6.31219 3.11225 6.56269 2.8 6.56269C2.48775 6.56269 2.1924 6.31219 2.1875 5.95019V4.44519C2.1875 4.235 2.29505 4.0415 2.46896 3.92984L3.64417 3.36612C3.94973 3.22099 4.31509 3.35103 4.46023 3.65658ZM10.2886 3.33636L11.4628 3.89193C11.6527 3.98212 11.7813 4.16228 11.8075 4.36728L11.8125 5.95019C11.8125 6.28847 11.5383 6.56269 11.2 6.56269C10.8877 6.56269 10.6301 6.32903 10.5923 6.02702L10.5868 4.83159L9.79534 4.45606C9.51329 4.32209 9.34839 3.9768 9.49991 3.65658C9.65142 3.33636 9.97377 3.20796 10.2886 3.33636ZM7.17767 1.86402L8.41773 2.44553C8.72329 2.59067 8.85333 2.95603 8.70819 3.26158C8.57422 3.54363 8.2526 3.67614 7.96358 3.5807L6.9993 3.12779L6.08191 3.56437C5.79986 3.69834 5.4521 3.62376 5.27897 3.30674C5.10584 2.98972 5.25158 2.59728 5.56747 2.44553L6.7372 1.89693C6.87578 1.83111 7.03291 1.82014 7.17767 1.86402Z" fill="#1A1C1F"/>
</g>
<defs>
<clipPath id="clip0_187_560">
<rect width="14" height="14" fill="white"/>
</clipPath>
</defs>
</svg>
