<svg width="12" height="12" viewBox="0 0 12 12" fill="none" xmlns="http://www.w3.org/2000/svg">
<g clip-path="url(#clip0_232_459)">
<path fill-rule="evenodd" clip-rule="evenodd" d="M4.71901 1.49927L5.29561 2.49287C5.52241 2.43767 5.75641 2.40047 6.00001 2.40047C6.23761 2.40047 6.46561 2.43527 6.68701 2.48747L7.28581 1.49147C7.45681 1.20767 7.82461 1.11647 8.10901 1.28627C8.39341 1.45727 8.48521 1.82567 8.31421 2.11007L7.77961 2.99927C8.36221 3.43187 8.78941 4.06367 8.93941 4.80047H10.2C10.5312 4.80047 10.8 5.06867 10.8 5.40047C10.8 5.73227 10.5312 6.00047 10.2 6.00047H9.00001V6.60047H10.2C10.5312 6.60047 10.8 6.86867 10.8 7.20047C10.8 7.53227 10.5312 7.80047 10.2 7.80047H9.00001C9.00001 8.00567 8.97901 8.20667 8.93941 8.40047H10.2C10.5312 8.40047 10.8 8.66867 10.8 9.00047C10.8 9.33227 10.5312 9.60047 10.2 9.60047H8.38441C7.83661 10.3247 6.97741 10.8005 6.00001 10.8005C5.02261 10.8005 4.16101 10.3241 3.61321 9.59807C3.60841 9.59807 3.60481 9.60047 3.60001 9.60047H1.80001C1.46881 9.60047 1.20001 9.33227 1.20001 9.00047C1.20001 8.66867 1.46881 8.40047 1.80001 8.40047H3.06061C3.02101 8.20667 3.00001 8.00567 3.00001 7.80047H1.80001C1.46881 7.80047 1.20001 7.53227 1.20001 7.20047C1.20001 6.86867 1.46881 6.60047 1.80001 6.60047H3.00001V6.00047H1.80001C1.46881 6.00047 1.20001 5.73227 1.20001 5.40047C1.20001 5.06867 1.46881 4.80047 1.80001 4.80047H3.06061C3.20941 4.06967 3.63181 3.44267 4.20781 3.00947L3.68101 2.10167C3.51481 1.81547 3.61201 1.44767 3.89881 1.28147C4.18501 1.11347 4.55281 1.21247 4.71901 1.49927ZM7.80001 6.00047H4.20001V7.80047C4.20001 8.79287 5.00761 9.60047 6.00001 9.60047C6.99241 9.60047 7.80001 8.79287 7.80001 7.80047V6.00047ZM6.60001 7.20047C6.93121 7.20047 7.20001 7.46867 7.20001 7.80047C7.20001 8.13227 6.93121 8.40047 6.60001 8.40047H5.40001C5.06881 8.40047 4.80001 8.13227 4.80001 7.80047C4.80001 7.46867 5.06881 7.20047 5.40001 7.20047H6.60001ZM6.00001 3.60047C5.21881 3.60047 4.55881 4.10387 4.31041 4.80047H7.68961C7.44121 4.10387 6.78121 3.60047 6.00001 3.60047Z" fill="#1A1C1F"/>
</g>
<defs>
<clipPath id="clip0_232_459">
<rect width="12" height="12" fill="white"/>
</clipPath>
</defs>
</svg>
