<svg width="12" height="12" viewBox="0 0 12 12" fill="none" xmlns="http://www.w3.org/2000/svg">
<g clip-path="url(#clip0_2214_6580)">
<path fill-rule="evenodd" clip-rule="evenodd" d="M9.59995 7.8C10.2627 7.8 10.8 8.33726 10.8 9C10.8 9.66274 10.2627 10.2 9.59995 10.2H2.39995C1.73721 10.2 1.19995 9.66274 1.19995 9C1.19995 8.33726 1.73721 7.8 2.39995 7.8H9.59995ZM2.39995 8.4C2.06858 8.4 1.79995 8.66863 1.79995 9C1.79995 9.33137 2.06858 9.6 2.39995 9.6C2.73132 9.6 2.99995 9.33137 2.99995 9C2.99995 8.66863 2.73132 8.4 2.39995 8.4ZM9.59995 4.8C10.2627 4.8 10.8 5.33726 10.8 6C10.8 6.66274 10.2627 7.2 9.59995 7.2H2.39995C1.73721 7.2 1.19995 6.66274 1.19995 6C1.19995 5.33726 1.73721 4.8 2.39995 4.8H9.59995ZM2.39995 5.4C2.06858 5.4 1.79995 5.66863 1.79995 6C1.79995 6.33137 2.06858 6.6 2.39995 6.6C2.73132 6.6 2.99995 6.33137 2.99995 6C2.99995 5.66863 2.73132 5.4 2.39995 5.4ZM9.59995 1.8C10.2627 1.8 10.8 2.33726 10.8 3C10.8 3.66274 10.2627 4.2 9.59995 4.2H2.39995C1.73721 4.2 1.19995 3.66274 1.19995 3C1.19995 2.33726 1.73721 1.8 2.39995 1.8H9.59995ZM2.39995 2.4C2.06858 2.4 1.79995 2.66863 1.79995 3C1.79995 3.33137 2.06858 3.6 2.39995 3.6C2.73132 3.6 2.99995 3.33137 2.99995 3C2.99995 2.66863 2.73132 2.4 2.39995 2.4Z" fill="#1A1C1F"/>
</g>
<defs>
<clipPath id="clip0_2214_6580">
<rect width="12" height="12" fill="white"/>
</clipPath>
</defs>
</svg>
