<svg width="14" height="14" viewBox="0 0 14 14" fill="none" xmlns="http://www.w3.org/2000/svg">
<g clip-path="url(#clip0_2214_6577)">
<path fill-rule="evenodd" clip-rule="evenodd" d="M11.2 9.1C11.9732 9.1 12.6 9.7268 12.6 10.5C12.6 11.2732 11.9732 11.9 11.2 11.9H2.80002C2.02683 11.9 1.40002 11.2732 1.40002 10.5C1.40002 9.7268 2.02683 9.1 2.80002 9.1H11.2ZM2.80002 9.8C2.41343 9.8 2.10002 10.1134 2.10002 10.5C2.10002 10.8866 2.41343 11.2 2.80002 11.2C3.18662 11.2 3.50002 10.8866 3.50002 10.5C3.50002 10.1134 3.18662 9.8 2.80002 9.8ZM11.2 5.6C11.9732 5.6 12.6 6.2268 12.6 7C12.6 7.7732 11.9732 8.4 11.2 8.4H2.80002C2.02683 8.4 1.40002 7.7732 1.40002 7C1.40002 6.2268 2.02683 5.6 2.80002 5.6H11.2ZM2.80002 6.3C2.41343 6.3 2.10002 6.6134 2.10002 7C2.10002 7.3866 2.41343 7.7 2.80002 7.7C3.18662 7.7 3.50002 7.3866 3.50002 7C3.50002 6.6134 3.18662 6.3 2.80002 6.3ZM11.2 2.1C11.9732 2.1 12.6 2.7268 12.6 3.5C12.6 4.2732 11.9732 4.9 11.2 4.9H2.80002C2.02683 4.9 1.40002 4.2732 1.40002 3.5C1.40002 2.7268 2.02683 2.1 2.80002 2.1H11.2ZM2.80002 2.8C2.41343 2.8 2.10002 3.1134 2.10002 3.5C2.10002 3.8866 2.41343 4.2 2.80002 4.2C3.18662 4.2 3.50002 3.8866 3.50002 3.5C3.50002 3.1134 3.18662 2.8 2.80002 2.8Z" fill="#1A1C1F"/>
</g>
<defs>
<clipPath id="clip0_2214_6577">
<rect width="14" height="14" fill="white"/>
</clipPath>
</defs>
</svg>
