<svg width="16" height="16" viewBox="0 0 16 16" fill="none" xmlns="http://www.w3.org/2000/svg">
<g clip-path="url(#clip0_2214_6574)">
<path fill-rule="evenodd" clip-rule="evenodd" d="M12.8 10.4C13.6836 10.4 14.4 11.1163 14.4 12C14.4 12.8837 13.6836 13.6 12.8 13.6H3.19998C2.31632 13.6 1.59998 12.8837 1.59998 12C1.59998 11.1163 2.31632 10.4 3.19998 10.4H12.8ZM3.19998 11.2C2.75815 11.2 2.39998 11.5582 2.39998 12C2.39998 12.4418 2.75815 12.8 3.19998 12.8C3.6418 12.8 3.99998 12.4418 3.99998 12C3.99998 11.5582 3.6418 11.2 3.19998 11.2ZM12.8 6.4C13.6836 6.4 14.4 7.11635 14.4 8C14.4 8.88366 13.6836 9.6 12.8 9.6H3.19998C2.31632 9.6 1.59998 8.88366 1.59998 8C1.59998 7.11635 2.31632 6.4 3.19998 6.4H12.8ZM3.19998 7.2C2.75815 7.2 2.39998 7.55817 2.39998 8C2.39998 8.44183 2.75815 8.8 3.19998 8.8C3.6418 8.8 3.99998 8.44183 3.99998 8C3.99998 7.55817 3.6418 7.2 3.19998 7.2ZM12.8 2.4C13.6836 2.4 14.4 3.11635 14.4 4C14.4 4.88366 13.6836 5.6 12.8 5.6H3.19998C2.31632 5.6 1.59998 4.88366 1.59998 4C1.59998 3.11635 2.31632 2.4 3.19998 2.4H12.8ZM3.19998 3.2C2.75815 3.2 2.39998 3.55817 2.39998 4C2.39998 4.44183 2.75815 4.8 3.19998 4.8C3.6418 4.8 3.99998 4.44183 3.99998 4C3.99998 3.55817 3.6418 3.2 3.19998 3.2Z" fill="#1A1C1F"/>
</g>
<defs>
<clipPath id="clip0_2214_6574">
<rect width="16" height="16" fill="white"/>
</clipPath>
</defs>
</svg>
