<svg width="12" height="12" viewBox="0 0 12 12" fill="none" xmlns="http://www.w3.org/2000/svg">
<g clip-path="url(#clip0_232_465)">
<path fill-rule="evenodd" clip-rule="evenodd" d="M1.20001 10.2V1.80001C1.20001 1.46053 1.46053 1.20001 1.80001 1.20001H10.2C10.5395 1.20001 10.8 1.46053 10.8 1.80001V4.19707C10.8 4.53661 10.5395 4.80001 10.2 4.80001C9.87217 4.80001 9.60001 4.53661 9.60001 4.19707V2.40001H2.40001V9.60001H4.80001C5.12779 9.60001 5.40295 9.87217 5.40295 10.2C5.40295 10.5395 5.12779 10.8 4.80001 10.8H1.80001C1.46053 10.8 1.20001 10.5395 1.20001 10.2ZM3.00295 6.01171C3.00295 4.34929 4.33759 3.00295 5.98831 3.00295C6.84295 3.00295 7.67413 3.36589 8.24779 4.02145C8.35321 4.13857 8.40001 4.27903 8.40001 4.40779C8.40001 4.73563 8.11903 5.01661 7.80295 5.01661C7.62733 5.01661 7.46341 4.94635 7.34635 4.80589C7.00681 4.41955 6.51511 4.19707 6.01171 4.19707C5.00491 4.19707 4.19707 5.01661 4.19707 6.01171C4.19707 6.51511 4.41955 7.00681 4.80589 7.34635C4.93465 7.46341 5.01661 7.62733 5.01661 7.80295C5.01661 8.15413 4.73563 8.40001 4.41955 8.40001C4.26733 8.40001 4.12681 8.34145 4.02145 8.24779C3.36577 7.67407 3.00295 6.85465 3.00295 6.01171ZM4.80001 6.00295C4.80001 5.67356 5.0588 5.40295 5.40001 5.40295C5.72941 5.40295 6.00001 5.67356 6.00001 6.00295C6.00001 6.33235 5.72941 6.60295 5.40001 6.60295C5.0588 6.60295 4.80001 6.33235 4.80001 6.00295ZM7.58047 5.42635C7.73269 5.42635 7.88491 5.48491 8.00197 5.60197L8.40001 6.00001L8.63413 5.77759C8.75125 5.66047 8.90341 5.61367 9.05563 5.61367C9.20779 5.61367 9.36001 5.66047 9.47707 5.77759L10.1796 6.46831C10.5893 6.88975 10.7883 7.44001 10.7883 8.00197C10.7883 8.50537 10.6127 9.02047 10.2615 9.43027L10.6127 9.75805C10.7298 9.87511 10.8 10.039 10.8 10.203C10.8 10.5424 10.5307 10.8 10.1913 10.8C10.0507 10.8 9.89857 10.7415 9.78145 10.6361L9.41857 10.2849C8.99707 10.6244 8.48197 10.7883 7.93171 10.7883C7.39321 10.7883 6.86635 10.5659 6.48001 10.1796L5.77759 9.47707C5.66047 9.37171 5.60197 9.21955 5.60197 9.05563C5.60197 8.89171 5.66047 8.73955 5.77759 8.63413L6.00001 8.41171L5.57857 7.99027C5.44975 7.87321 5.37955 7.72099 5.37955 7.54537C5.37955 7.21759 5.64877 6.94831 5.97661 6.94831C6.14047 6.94831 6.30439 7.00681 6.42145 7.13563L6.84295 7.55707L7.55707 6.85465L7.14733 6.44491C7.03027 6.32779 6.97171 6.17563 6.97171 6.02341C6.97171 5.87125 7.03027 5.71903 7.14733 5.60197C7.26439 5.48491 7.41661 5.42635 7.58047 5.42635ZM9.05563 7.04197L7.04197 9.05563L7.32295 9.32491C7.51027 9.51223 7.75609 9.59413 8.00197 9.59413C8.28295 9.59413 8.56393 9.48877 8.76295 9.26635L9.26635 8.76295C9.48877 8.55223 9.59413 8.28295 9.59413 8.00197C9.59413 7.75609 9.51223 7.51027 9.33661 7.32295L9.05563 7.04197Z" fill="#1A1C1F"/>
</g>
<defs>
<clipPath id="clip0_232_465">
<rect width="12" height="12" fill="white"/>
</clipPath>
</defs>
</svg>
