<svg width="12" height="12" viewBox="0 0 12 12" fill="none" xmlns="http://www.w3.org/2000/svg">
<g clip-path="url(#clip0_2214_6602)">
<path fill-rule="evenodd" clip-rule="evenodd" d="M10.2 7.20001C10.5312 7.20001 10.8 7.46821 10.8 7.80001V9.00001C10.8 9.99241 9.99241 10.8 9.00001 10.8H7.80001C7.46881 10.8 7.20001 10.5318 7.20001 10.2C7.20001 9.86821 7.46881 9.60001 7.80001 9.60001H9.00001C9.33061 9.60001 9.60001 9.33121 9.60001 9.00001V7.80001C9.60001 7.46821 9.86881 7.20001 10.2 7.20001ZM9.60001 4.20001V3.00001C9.60001 2.66881 9.33061 2.40001 9.00001 2.40001H7.80001C7.46881 2.40001 7.20001 2.13181 7.20001 1.80001C7.20001 1.46821 7.46881 1.20001 7.80001 1.20001H9.00001C9.99241 1.20001 10.8 2.00761 10.8 3.00001V4.20001C10.8 4.53181 10.5312 4.80001 10.2 4.80001C9.86881 4.80001 9.60001 4.53181 9.60001 4.20001ZM2.40001 7.80001V9.00001C2.40001 9.33121 2.66941 9.60001 3.00001 9.60001H4.20001C4.53121 9.60001 4.80001 9.86821 4.80001 10.2C4.80001 10.5318 4.53121 10.8 4.20001 10.8H3.00001C2.00761 10.8 1.20001 9.99241 1.20001 9.00001V7.80001C1.20001 7.46821 1.46881 7.20001 1.80001 7.20001C2.13121 7.20001 2.40001 7.46821 2.40001 7.80001ZM1.80001 4.80001C1.46881 4.80001 1.20001 4.53181 1.20001 4.20001V3.00001C1.20001 2.00761 2.00761 1.20001 3.00001 1.20001H4.20001C4.53121 1.20001 4.80001 1.46821 4.80001 1.80001C4.80001 2.13181 4.53121 2.40001 4.20001 2.40001H3.00001C2.66941 2.40001 2.40001 2.66881 2.40001 3.00001V4.20001C2.40001 4.53181 2.13121 4.80001 1.80001 4.80001ZM7.95001 6.90001H7.80001V6.75001C7.80001 6.50161 7.59841 6.30001 7.35001 6.30001H6.75001C6.50161 6.30001 6.30001 6.50161 6.30001 6.75001V7.35001C6.30001 7.59841 6.50161 7.80001 6.75001 7.80001H6.90001V7.95001C6.90001 8.19841 7.10161 8.40001 7.35001 8.40001H7.95001C8.19841 8.40001 8.40001 8.19841 8.40001 7.95001V7.35001C8.40001 7.10161 8.19841 6.90001 7.95001 6.90001ZM5.70001 7.80001V6.90001C5.70001 6.56881 5.43121 6.30001 5.10001 6.30001H4.20001C3.86881 6.30001 3.60001 6.56881 3.60001 6.90001V7.80001C3.60001 8.13121 3.86881 8.40001 4.20001 8.40001H5.10001C5.43121 8.40001 5.70001 8.13121 5.70001 7.80001ZM8.40001 5.10001V4.20001C8.40001 3.86881 8.13121 3.60001 7.80001 3.60001H6.90001C6.56881 3.60001 6.30001 3.86881 6.30001 4.20001V5.10001C6.30001 5.43121 6.56881 5.70001 6.90001 5.70001H7.80001C8.13121 5.70001 8.40001 5.43121 8.40001 5.10001ZM5.70001 5.10001V4.20001C5.70001 3.86881 5.43121 3.60001 5.10001 3.60001H4.20001C3.86881 3.60001 3.60001 3.86881 3.60001 4.20001V5.10001C3.60001 5.43121 3.86881 5.70001 4.20001 5.70001H5.10001C5.43121 5.70001 5.70001 5.43121 5.70001 5.10001Z" fill="#1A1C1F"/>
</g>
<defs>
<clipPath id="clip0_2214_6602">
<rect width="12" height="12" fill="white"/>
</clipPath>
</defs>
</svg>
