<svg width="14" height="14" viewBox="0 0 14 14" fill="none" xmlns="http://www.w3.org/2000/svg">
<g clip-path="url(#clip0_2214_6599)">
<path fill-rule="evenodd" clip-rule="evenodd" d="M11.9 8.40002C12.2864 8.40002 12.6 8.71292 12.6 9.10002V10.5C12.6 11.6578 11.6578 12.6 10.5 12.6H9.10002C8.71362 12.6 8.40002 12.2871 8.40002 11.9C8.40002 11.5129 8.71362 11.2 9.10002 11.2H10.5C10.8857 11.2 11.2 10.8864 11.2 10.5V9.10002C11.2 8.71292 11.5136 8.40002 11.9 8.40002ZM11.2 4.90002V3.50002C11.2 3.11362 10.8857 2.80002 10.5 2.80002H9.10002C8.71362 2.80002 8.40002 2.48712 8.40002 2.10002C8.40002 1.71292 8.71362 1.40002 9.10002 1.40002H10.5C11.6578 1.40002 12.6 2.34222 12.6 3.50002V4.90002C12.6 5.28712 12.2864 5.60002 11.9 5.60002C11.5136 5.60002 11.2 5.28712 11.2 4.90002ZM2.80002 9.10002V10.5C2.80002 10.8864 3.11432 11.2 3.50002 11.2H4.90002C5.28642 11.2 5.60002 11.5129 5.60002 11.9C5.60002 12.2871 5.28642 12.6 4.90002 12.6H3.50002C2.34222 12.6 1.40002 11.6578 1.40002 10.5V9.10002C1.40002 8.71292 1.71362 8.40002 2.10002 8.40002C2.48642 8.40002 2.80002 8.71292 2.80002 9.10002ZM2.10002 5.60002C1.71362 5.60002 1.40002 5.28712 1.40002 4.90002V3.50002C1.40002 2.34222 2.34222 1.40002 3.50002 1.40002H4.90002C5.28642 1.40002 5.60002 1.71292 5.60002 2.10002C5.60002 2.48712 5.28642 2.80002 4.90002 2.80002H3.50002C3.11432 2.80002 2.80002 3.11362 2.80002 3.50002V4.90002C2.80002 5.28712 2.48642 5.60002 2.10002 5.60002ZM9.27502 8.05002H9.10002V7.87502C9.10002 7.58522 8.86482 7.35002 8.57502 7.35002H7.87502C7.58522 7.35002 7.35002 7.58522 7.35002 7.87502V8.57502C7.35002 8.86482 7.58522 9.10002 7.87502 9.10002H8.05002V9.27502C8.05002 9.56482 8.28522 9.80002 8.57502 9.80002H9.27502C9.56482 9.80002 9.80002 9.56482 9.80002 9.27502V8.57502C9.80002 8.28522 9.56482 8.05002 9.27502 8.05002ZM6.65002 9.10002V8.05002C6.65002 7.66362 6.33642 7.35002 5.95002 7.35002H4.90002C4.51362 7.35002 4.20002 7.66362 4.20002 8.05002V9.10002C4.20002 9.48642 4.51362 9.80002 4.90002 9.80002H5.95002C6.33642 9.80002 6.65002 9.48642 6.65002 9.10002ZM9.80002 5.95002V4.90002C9.80002 4.51362 9.48642 4.20002 9.10002 4.20002H8.05002C7.66362 4.20002 7.35002 4.51362 7.35002 4.90002V5.95002C7.35002 6.33642 7.66362 6.65002 8.05002 6.65002H9.10002C9.48642 6.65002 9.80002 6.33642 9.80002 5.95002ZM6.65002 5.95002V4.90002C6.65002 4.51362 6.33642 4.20002 5.95002 4.20002H4.90002C4.51362 4.20002 4.20002 4.51362 4.20002 4.90002V5.95002C4.20002 6.33642 4.51362 6.65002 4.90002 6.65002H5.95002C6.33642 6.65002 6.65002 6.33642 6.65002 5.95002Z" fill="#1A1C1F"/>
</g>
<defs>
<clipPath id="clip0_2214_6599">
<rect width="14" height="14" fill="white"/>
</clipPath>
</defs>
</svg>
