<svg width="24" height="24" viewBox="0 0 24 24" fill="none" xmlns="http://www.w3.org/2000/svg">
<g clip-path="url(#clip0_187_619)">
<path fill-rule="evenodd" clip-rule="evenodd" d="M8.5 13C9.875 13 11 14.125 11 15.5V18.5C11 19.875 9.875 21 8.5 21H5.5C4.125 21 3 19.875 3 18.5V15.5C3 14.125 4.125 13 5.5 13H8.5ZM8.5 15H5.5C5.21875 15 5 15.2188 5 15.5V18.5C5 18.7812 5.21875 19 5.5 19H8.5C8.78125 19 9 18.7812 9 18.5V15.5C9 15.2188 8.78125 15 8.5 15ZM8.5 3C9.875 3 11 4.125 11 5.5V8.5C11 9.875 9.875 11 8.5 11H5.5C4.125 11 3 9.875 3 8.5V5.5C3 4.125 4.125 3 5.5 3H8.5ZM8.5 5H5.5C5.21875 5 5 5.21875 5 5.5V8.5C5 8.78125 5.21875 9 5.5 9H8.5C8.78125 9 9 8.78125 9 8.5V5.5C9 5.21875 8.78125 5 8.5 5ZM17 13C17.5312 13 18 13.4688 18 14V16H20C20.5625 16 21 16.4375 21 17V20C21 20.5625 20.5625 21 20 21H17C16.4375 21 16 20.5625 16 20V18H14C13.4688 18 13 17.5312 13 17V14C13 13.4688 13.4688 13 14 13H17ZM18.5 3C19.875 3 21 4.125 21 5.5V8.5C21 9.875 19.875 11 18.5 11H15.5C14.125 11 13 9.875 13 8.5V5.5C13 4.125 14.125 3 15.5 3H18.5ZM18.5 5H15.5C15.2188 5 15 5.21875 15 5.5V8.5C15 8.78125 15.2188 9 15.5 9H18.5C18.7812 9 19 8.78125 19 8.5V5.5C19 5.21875 18.7812 5 18.5 5Z" fill="#1A1C1F"/>
</g>
<defs>
<clipPath id="clip0_187_619">
<rect width="24" height="24" fill="white"/>
</clipPath>
</defs>
</svg>
