<svg width="12" height="12" viewBox="0 0 12 12" fill="none" xmlns="http://www.w3.org/2000/svg">
<g clip-path="url(#clip0_232_467)">
<path fill-rule="evenodd" clip-rule="evenodd" d="M4.30048 6.60001C4.90697 6.59939 5.39919 7.0907 5.40001 7.69751V9.70214C5.39919 10.309 4.90703 10.8004 4.30048 10.8H2.29729C1.69154 10.7994 1.20063 10.3082 1.20001 9.70214V7.69751C1.20084 7.09157 1.69168 6.60063 2.29729 6.60001H4.30048ZM4.20001 7.80001H2.40001V9.60001H4.20001V7.80001ZM9.70224 1.20001C10.3083 1.20063 10.7994 1.69171 10.8 2.29768V4.30159C10.7996 4.90777 10.3085 5.39919 9.70224 5.40001H7.69778C7.09176 5.39939 6.60063 4.90831 6.60001 4.30234V2.29768C6.60063 1.69171 7.09176 1.20063 7.69778 1.20001H9.70224ZM9.60001 2.40001H7.80001V4.20001H9.60001V2.40001ZM4.30224 1.20001C4.90812 1.20063 5.39919 1.69157 5.40001 2.29751V4.30252C5.39898 4.90837 4.90804 5.39919 4.30224 5.40001H2.29778C1.69199 5.39919 1.20104 4.90837 1.20001 4.30252V2.29751C1.20084 1.69157 1.6919 1.20063 2.29778 1.20001H4.30224ZM4.20001 2.40001H2.40001V4.20001H4.20001V2.40001ZM7.20001 9.00001C6.86864 9.00001 6.60001 8.73138 6.60001 8.40001V7.20001C6.60001 6.86864 6.86864 6.60001 7.20001 6.60001H8.40001C8.73138 6.60001 9.00001 6.86864 9.00001 7.20001V8.40001H10.2C10.5314 8.40001 10.8 8.66864 10.8 9.00001V10.2C10.8 10.5314 10.5314 10.8 10.2 10.8H9.00001C8.66864 10.8 8.40001 10.5314 8.40001 10.2V9.00001H7.20001Z" fill="#1A1C1F"/>
</g>
<defs>
<clipPath id="clip0_232_467">
<rect width="12" height="12" fill="white"/>
</clipPath>
</defs>
</svg>
