<svg width="32" height="32" viewBox="0 0 32 32" fill="none" xmlns="http://www.w3.org/2000/svg">
<g clip-path="url(#clip0_187_628)">
<path fill-rule="evenodd" clip-rule="evenodd" d="M28.92 12.6078C29.628 14.2697 30 16.1228 30 17.9997C30 21.6615 28.5867 25.1036 26.1017 27.6928C25.7193 28.0913 25.0862 28.1043 24.6878 27.7218C24.2893 27.3394 24.2763 26.7064 24.6588 26.3079C26.7898 24.0875 28 21.1401 28 17.9997C28 16.39 27.6815 14.8037 27.08 13.3916C26.8636 12.8835 27.1 12.2961 27.6081 12.0797C28.1162 11.8632 28.7036 12.0997 28.92 12.6078ZM16 3.99969C17.875 3.99969 19.7002 4.36901 21.3946 5.07712C21.9042 5.29007 22.1446 5.8758 21.9317 6.38538C21.7187 6.89496 21.133 7.13541 20.6234 6.92246C19.1722 6.31599 17.6091 5.99969 16 5.99969C9.37258 5.99969 4 11.3723 4 17.9997C4 21.1401 5.21016 24.0875 7.34125 26.3079C7.72368 26.7064 7.71069 27.3394 7.31224 27.7218C6.91378 28.1043 6.28075 28.0913 5.89832 27.6928C3.41326 25.1036 2 21.6615 2 17.9997C2 10.2677 8.26801 3.99969 16 3.99969ZM23.0732 23.6565C23.4637 24.0471 23.4637 24.6802 23.0732 25.0708C22.6827 25.4613 22.0495 25.4613 21.659 25.0708C21.2684 24.6802 21.2684 24.0471 21.659 23.6565C22.0495 23.266 22.6827 23.266 23.0732 23.6565ZM10.3453 23.6565C10.7358 24.0471 10.7358 24.6802 10.3453 25.0708C9.95473 25.4613 9.32156 25.4613 8.93104 25.0708C8.54052 24.6802 8.54052 24.0471 8.93104 23.6565C9.32156 23.266 9.95473 23.266 10.3453 23.6565ZM24.9543 19.3631C25.4877 19.5061 25.8043 20.0544 25.6614 20.5879C25.5184 21.1214 24.9701 21.4379 24.4366 21.295C23.9032 21.1521 23.5866 20.6037 23.7295 20.0702C23.8725 19.5368 24.4208 19.2202 24.9543 19.3631ZM8.2747 20.0702C8.41764 20.6037 8.10106 21.1521 7.56759 21.295C7.03413 21.4379 6.48579 21.1214 6.34285 20.5879C6.19991 20.0544 6.51649 19.5061 7.04996 19.3631C7.58342 19.2202 8.13176 19.5368 8.2747 20.0702ZM24.7071 9.29259C25.0976 9.68311 25.0988 10.3131 24.7071 10.7068L17.9346 17.4842C17.9788 17.649 18.0021 17.8216 18.0021 17.9997C18.0021 19.1043 17.1067 19.9997 16.0021 19.9997C14.8975 19.9997 14.0021 19.1043 14.0021 17.9997C14.0021 16.8951 14.8975 15.9997 16.0021 15.9997C16.1802 15.9997 16.3528 16.023 16.5171 16.0666L23.2929 9.29259C23.6834 8.90206 24.3166 8.90206 24.7071 9.29259ZM25.6614 15.4115C25.8043 15.945 25.4877 16.4933 24.9543 16.6362C24.4208 16.7792 23.8725 16.4626 23.7295 15.9291C23.5866 15.3957 23.9032 14.8473 24.4366 14.7044C24.9701 14.5615 25.5184 14.878 25.6614 15.4115ZM7.56759 14.7044C8.10106 14.8473 8.41764 15.3957 8.2747 15.9291C8.13176 16.4626 7.58342 16.7792 7.04996 16.6362C6.51649 16.4933 6.19991 15.945 6.34285 15.4115C6.48579 14.878 7.03413 14.5615 7.56759 14.7044ZM10.3453 10.9286C10.7358 11.3192 10.7358 11.9523 10.3453 12.3428C9.95473 12.7334 9.32156 12.7334 8.93104 12.3428C8.54052 11.9523 8.54052 11.3192 8.93104 10.9286C9.32156 10.5381 9.95473 10.5381 10.3453 10.9286ZM18.5903 8.34044C19.1238 8.48338 19.4403 9.03172 19.2974 9.56518C19.1545 10.0986 18.6061 10.4152 18.0727 10.2723C17.5392 10.1293 17.2226 9.58101 17.3656 9.04754C17.5085 8.51408 18.0568 8.19749 18.5903 8.34044ZM14.6387 9.04754C14.7816 9.58101 14.465 10.1293 13.9316 10.2723C13.3981 10.4152 12.8498 10.0986 12.7068 9.56518C12.5639 9.03172 12.8805 8.48338 13.4139 8.34044C13.9474 8.19749 14.4957 8.51408 14.6387 9.04754Z" fill="#1A1C1F"/>
</g>
<defs>
<clipPath id="clip0_187_628">
<rect width="32" height="32" fill="white"/>
</clipPath>
</defs>
</svg>
