<svg width="20" height="20" viewBox="0 0 20 20" fill="none" xmlns="http://www.w3.org/2000/svg">
<g clip-path="url(#clip0_2214_6614)">
<path fill-rule="evenodd" clip-rule="evenodd" d="M10 3C14.4137 3 18 6.65564 18 10.9994C18 13.2881 16.9967 15.2756 15.2827 16.7566C15.1314 16.8875 14.8807 17 14.6233 17H5.37108C5.13099 17 4.89892 16.9136 4.71725 16.7566C3.00326 15.2756 2 13.2881 2 10.9994C2 6.65564 5.5863 3 10 3ZM14.2071 6.79225C13.8466 6.43177 13.2219 6.36202 12.7929 6.79225C12.0976 7.48943 11.339 8.24762 10.517 9.06683C10.3521 9.02282 10.1788 8.99936 10 8.99936C8.89543 8.99936 8 9.89479 8 10.9994C8 12.1039 8.89543 12.9994 10 12.9994C11.1046 12.9994 12 12.1039 12 10.9994C12 10.8206 11.9765 10.6472 11.9325 10.4823L14.2071 8.20647C14.6294 7.78065 14.5676 7.15274 14.2071 6.79225Z" fill="#1A1C1F"/>
</g>
<defs>
<clipPath id="clip0_2214_6614">
<rect width="20" height="20" fill="white"/>
</clipPath>
</defs>
</svg>
