<svg width="28" height="28" viewBox="0 0 28 28" fill="none" xmlns="http://www.w3.org/2000/svg">
<g clip-path="url(#clip0_187_630)">
<path fill-rule="evenodd" clip-rule="evenodd" d="M25.305 11.0318C25.9245 12.486 26.25 14.1074 26.25 15.7497C26.25 18.9538 25.0134 21.9656 22.839 24.2312C22.5043 24.5798 21.9504 24.5912 21.6018 24.2566C21.2531 23.9219 21.2418 23.368 21.5764 23.0194C23.4411 21.0766 24.5 18.4975 24.5 15.7497C24.5 14.3412 24.2213 12.9532 23.695 11.7176C23.5056 11.273 23.7125 10.7591 24.1571 10.5697C24.6017 10.3803 25.1156 10.5872 25.305 11.0318ZM14 3.49969C15.6406 3.49969 17.2377 3.82285 18.7203 4.44244C19.1662 4.62878 19.3766 5.14129 19.1902 5.58717C19.0039 6.03305 18.4914 6.24345 18.0455 6.05711C16.7757 5.52646 15.4079 5.24969 14 5.24969C8.20101 5.24969 3.5 9.95071 3.5 15.7497C3.5 18.4975 4.55889 21.0766 6.42359 23.0194C6.75822 23.368 6.74685 23.9219 6.39821 24.2566C6.04956 24.5912 5.49566 24.5798 5.16103 24.2312C2.9866 21.9656 1.75 18.9538 1.75 15.7497C1.75 8.98421 7.23451 3.49969 14 3.49969ZM20.189 20.6994C20.5307 21.0412 20.5307 21.5952 20.189 21.9369C19.8473 22.2786 19.2933 22.2786 18.9516 21.9369C18.6099 21.5952 18.6099 21.0412 18.9516 20.6994C19.2933 20.3577 19.8473 20.3577 20.189 20.6994ZM9.0521 20.6994C9.39381 21.0412 9.39381 21.5952 9.0521 21.9369C8.71039 22.2786 8.15637 22.2786 7.81466 21.9369C7.47295 21.5952 7.47295 21.0412 7.81466 20.6994C8.15637 20.3577 8.71039 20.3577 9.0521 20.6994ZM21.835 16.9427C22.3018 17.0678 22.5788 17.5476 22.4537 18.0144C22.3286 18.4811 21.8488 18.7582 21.382 18.6331C20.9153 18.508 20.6383 18.0282 20.7633 17.5614C20.8884 17.0946 21.3682 16.8176 21.835 16.9427ZM7.24036 17.5614C7.36544 18.0282 7.08843 18.508 6.62165 18.6331C6.15486 18.7582 5.67507 18.4811 5.54999 18.0144C5.42492 17.5476 5.70193 17.0678 6.16871 16.9427C6.6355 16.8176 7.11529 17.0946 7.24036 17.5614ZM21.6187 8.13098C21.9604 8.47269 21.9614 9.02393 21.6187 9.36841L15.6928 15.2986C15.7315 15.4428 15.7518 15.5939 15.7518 15.7497C15.7518 16.7162 14.9683 17.4997 14.0018 17.4997C13.0353 17.4997 12.2518 16.7162 12.2518 15.7497C12.2518 14.7832 13.0353 13.9997 14.0018 13.9997C14.1577 13.9997 14.3087 14.0201 14.4525 14.0583L20.3813 8.13098C20.723 7.78927 21.277 7.78927 21.6187 8.13098ZM22.4537 13.485C22.5788 13.9518 22.3018 14.4316 21.835 14.5567C21.3682 14.6818 20.8884 14.4047 20.7633 13.938C20.6383 13.4712 20.9153 12.9914 21.382 12.8663C21.8488 12.7412 22.3286 13.0182 22.4537 13.485ZM6.62165 12.8663C7.08843 12.9914 7.36544 13.4712 7.24036 13.938C7.11529 14.4047 6.6355 14.6818 6.16871 14.5567C5.70193 14.4316 5.42492 13.9518 5.54999 13.485C5.67507 13.0182 6.15486 12.7412 6.62165 12.8663ZM9.0521 9.56251C9.39381 9.90422 9.39381 10.4582 9.0521 10.7999C8.71039 11.1417 8.15637 11.1417 7.81466 10.7999C7.47295 10.4582 7.47295 9.90422 7.81466 9.56251C8.15637 9.2208 8.71039 9.2208 9.0521 9.56251ZM16.2665 7.29784C16.7333 7.42292 17.0103 7.90271 16.8852 8.3695C16.7602 8.83628 16.2804 9.11329 15.8136 8.98821C15.3468 8.86314 15.0698 8.38335 15.1949 7.91656C15.3199 7.44978 15.7997 7.17277 16.2665 7.29784ZM12.8088 7.91656C12.9339 8.38335 12.6569 8.86314 12.1901 8.98821C11.7233 9.11329 11.2435 8.83628 11.1185 8.3695C10.9934 7.90271 11.2704 7.42292 11.7372 7.29784C12.204 7.17277 12.6838 7.44978 12.8088 7.91656Z" fill="#1A1C1F"/>
</g>
<defs>
<clipPath id="clip0_187_630">
<rect width="28" height="28" fill="white"/>
</clipPath>
</defs>
</svg>
