<svg width="24" height="24" viewBox="0 0 24 24" fill="none" xmlns="http://www.w3.org/2000/svg">
<g clip-path="url(#clip0_187_632)">
<path fill-rule="evenodd" clip-rule="evenodd" d="M21.4434 10.2026C21.8104 11.2538 22 12.3645 22 13.4997C22 15.9933 21.0825 18.3468 19.4528 20.1673C19.0844 20.5788 18.4522 20.6138 18.0408 20.2454C17.6293 19.877 17.5943 19.2448 17.9627 18.8334C19.2671 17.3762 20 15.4963 20 13.4997C20 12.5897 19.8484 11.7018 19.5552 10.8618C19.3732 10.3404 19.6483 9.77016 20.1697 9.58813C20.6911 9.40609 21.2614 9.68122 21.4434 10.2026ZM12 3.49969C13.1518 3.49969 14.2783 3.69488 15.3428 4.07237C15.8634 4.25695 16.1357 4.82856 15.9511 5.34908C15.7666 5.86961 15.195 6.14195 14.6744 5.95737C13.8238 5.65572 12.9232 5.49969 12 5.49969C7.58172 5.49969 4 9.08142 4 13.4997C4 15.4963 4.73285 17.3762 6.03733 18.8334C6.4057 19.2448 6.37074 19.877 5.95924 20.2454C5.54775 20.6138 4.91555 20.5788 4.54719 20.1673C2.91748 18.3468 2 15.9933 2 13.4997C2 7.97685 6.47715 3.49969 12 3.49969ZM18.7071 6.79259C19.0676 7.15307 19.1306 7.78282 18.7071 8.2068C17.1824 9.73325 15.5915 11.3249 13.9344 12.9817C13.9786 13.1469 14.0021 13.3205 14.0021 13.4997C14.0021 14.6043 13.1067 15.4997 12.0021 15.4997C10.8975 15.4997 10.0021 14.6043 10.0021 13.4997C10.0021 12.3951 10.8975 11.4997 12.0021 11.4997C12.1802 11.4997 12.3528 11.523 12.5171 11.5666L17.2929 6.79259C17.6834 6.40206 18.3166 6.40206 18.7071 6.79259Z" fill="#1A1C1F"/>
</g>
<defs>
<clipPath id="clip0_187_632">
<rect width="24" height="24" fill="white"/>
</clipPath>
</defs>
</svg>
