<svg width="14" height="14" viewBox="0 0 14 14" fill="none" xmlns="http://www.w3.org/2000/svg">
<g clip-path="url(#clip0_187_638)">
<path fill-rule="evenodd" clip-rule="evenodd" d="M12.4488 6.40216C12.578 6.94818 12.6 7.3444 12.6 7.69943C12.6 9.22484 11.9863 10.6545 10.9179 11.7007C10.6417 11.9712 10.1985 11.9665 9.92804 11.6903C9.65755 11.4141 9.66219 10.9709 9.9384 10.7004C10.7405 9.91494 11.2 8.84456 11.2 7.69943C11.2 7.43214 11.1785 7.12521 11.0867 6.72541C10.9974 6.34926 11.23 5.97196 11.6061 5.8827C11.9823 5.79344 12.3596 6.02601 12.4488 6.40216ZM7.00002 2.09943C7.41352 2.09943 7.82227 2.13948 8.19714 2.22006C8.57511 2.30131 8.81564 2.67358 8.73439 3.05154C8.65314 3.42951 8.28087 3.67004 7.90291 3.58879C7.62877 3.52986 7.31814 3.49943 7.00002 3.49943C4.68043 3.49943 2.80002 5.37983 2.80002 7.69943C2.80002 8.84456 3.25956 9.91494 4.06165 10.7004C4.33786 10.9709 4.3425 11.4141 4.07201 11.6903C3.80152 11.9665 3.35832 11.9712 3.08211 11.7007C2.01379 10.6545 1.40002 9.22484 1.40002 7.69943C1.40002 4.60663 3.90723 2.09943 7.00002 2.09943ZM10.6452 4.0545C10.8976 4.30683 10.9439 4.74422 10.6452 5.04445C9.92555 5.76782 9.16148 6.53218 8.35302 7.33754C8.38383 7.45299 8.40025 7.57431 8.40025 7.69947C8.40025 8.47267 7.77345 9.09947 7.00025 9.09947C6.22705 9.09947 5.60025 8.47267 5.60025 7.69947C5.60025 6.92627 6.22705 6.29947 7.00025 6.29947C7.12566 6.29947 7.24722 6.31596 7.36288 6.34689L9.65528 4.0545C9.92864 3.78113 10.3719 3.78113 10.6452 4.0545Z" fill="#1A1C1F"/>
</g>
<defs>
<clipPath id="clip0_187_638">
<rect width="14" height="14" fill="white"/>
</clipPath>
</defs>
</svg>
