<svg width="20" height="20" viewBox="0 0 20 20" fill="none" xmlns="http://www.w3.org/2000/svg">
<g clip-path="url(#clip0_187_634)">
<path fill-rule="evenodd" clip-rule="evenodd" d="M17.784 9.14598C17.9685 9.92599 18 10.492 18 10.9992C18 13.1784 17.1232 15.2207 15.597 16.7153C15.2024 17.1017 14.5693 17.0951 14.1829 16.7005C13.7965 16.3059 13.8031 15.6728 14.1977 15.2863C15.3435 14.1642 16 12.6351 16 10.9992C16 10.6174 15.9693 10.1789 15.8381 9.60776C15.7105 9.0704 16.0428 8.5314 16.5802 8.40389C17.1175 8.27637 17.6565 8.60861 17.784 9.14598ZM10 2.99921C10.5907 2.99921 11.1746 3.05642 11.7102 3.17154C12.2501 3.28761 12.5937 3.81942 12.4777 4.35937C12.3616 4.89932 11.8298 5.24294 11.2898 5.12687C10.8982 5.04269 10.4545 4.99921 10 4.99921C6.68629 4.99921 4 7.6855 4 10.9992C4 12.6351 4.65648 14.1642 5.80232 15.2863C6.19691 15.6728 6.20353 16.3059 5.81712 16.7005C5.4307 17.0951 4.79757 17.1017 4.40298 16.7153C2.87681 15.2207 2 13.1784 2 10.9992C2 6.58093 5.58172 2.99921 10 2.99921ZM15.2074 5.79216C15.5679 6.15265 15.6341 6.77748 15.2074 7.20638C14.1793 8.23977 13.0878 9.33172 11.9328 10.4822C11.9769 10.6472 12.0003 10.8205 12.0003 10.9993C12.0003 12.1038 11.1049 12.9993 10.0003 12.9993C8.89575 12.9993 8.00032 12.1038 8.00032 10.9993C8.00032 9.8947 8.89575 8.99927 10.0003 8.99927C10.1795 8.99927 10.3531 9.02283 10.5184 9.06701L13.7932 5.79216C14.1837 5.40164 14.8169 5.40164 15.2074 5.79216Z" fill="#1A1C1F"/>
</g>
<defs>
<clipPath id="clip0_187_634">
<rect width="20" height="20" fill="white"/>
</clipPath>
</defs>
</svg>
