<svg width="12" height="12" viewBox="0 0 12 12" fill="none" xmlns="http://www.w3.org/2000/svg">
<g clip-path="url(#clip0_232_469)">
<path fill-rule="evenodd" clip-rule="evenodd" d="M10.6704 5.48756C10.7811 5.95557 10.8 6.29519 10.8 6.5995C10.8 7.907 10.2739 9.13241 9.35822 10.0291C9.12147 10.261 8.74159 10.257 8.50974 10.0203C8.27789 9.78351 8.28187 9.40363 8.51862 9.17178C9.20613 8.49851 9.60001 7.58105 9.60001 6.5995C9.60001 6.3704 9.58157 6.10731 9.50285 5.76463C9.42634 5.44221 9.62569 5.11882 9.9481 5.04231C10.2705 4.9658 10.5939 5.16514 10.6704 5.48756ZM6.00001 1.7995C6.35444 1.7995 6.7048 1.83383 7.02611 1.9029C7.35008 1.97254 7.55625 2.29163 7.48661 2.6156C7.41697 2.93957 7.09788 3.14574 6.77391 3.0761C6.53894 3.02559 6.27269 2.9995 6.00001 2.9995C4.01179 2.9995 2.40001 4.61127 2.40001 6.5995C2.40001 7.58105 2.7939 8.49851 3.4814 9.17178C3.71816 9.40363 3.72213 9.78351 3.49028 10.0203C3.25843 10.257 2.87856 10.261 2.6418 10.0291C1.7261 9.13241 1.20001 7.907 1.20001 6.5995C1.20001 3.94853 3.34905 1.7995 6.00001 1.7995ZM9.12447 3.47527C9.34076 3.69156 9.38049 4.06646 9.12447 4.3238C8.50761 4.94384 7.85269 5.59901 7.15972 6.28931C7.18613 6.38827 7.2002 6.49226 7.2002 6.59954C7.2002 7.26228 6.66295 7.79954 6.00021 7.79954C5.33746 7.79954 4.8002 7.26228 4.8002 6.59954C4.8002 5.9368 5.33746 5.39954 6.00021 5.39954C6.1077 5.39954 6.21189 5.41367 6.31103 5.44018L8.27594 3.47527C8.51026 3.24096 8.89015 3.24096 9.12447 3.47527Z" fill="#1A1C1F"/>
</g>
<defs>
<clipPath id="clip0_232_469">
<rect width="12" height="12" fill="white"/>
</clipPath>
</defs>
</svg>
