<svg width="12" height="12" viewBox="0 0 12 12" fill="none" xmlns="http://www.w3.org/2000/svg">
<g clip-path="url(#clip0_2214_6623)">
<path fill-rule="evenodd" clip-rule="evenodd" d="M5.99995 1.79999C8.64817 1.79999 10.8 3.99337 10.8 6.5996C10.8 7.97285 10.198 9.16533 9.1696 10.054C9.07877 10.1325 8.92838 10.2 8.77395 10.2H3.2226C3.07855 10.2 2.9393 10.1482 2.8303 10.054C1.8019 9.16533 1.19995 7.97285 1.19995 6.5996C1.19995 3.99337 3.35173 1.79999 5.99995 1.79999ZM8.52422 4.07534C8.30793 3.85905 7.93312 3.8172 7.67569 4.07534C7.25853 4.49365 6.80336 4.94856 6.31018 5.44009C6.21122 5.41368 6.10723 5.3996 5.99995 5.3996C5.33721 5.3996 4.79995 5.93686 4.79995 6.5996C4.79995 7.26235 5.33721 7.7996 5.99995 7.7996C6.66269 7.7996 7.19995 7.26235 7.19995 6.5996C7.19995 6.49233 7.18587 6.38833 7.15947 6.28938L8.52422 4.92387C8.77757 4.66838 8.74051 4.29163 8.52422 4.07534Z" fill="#1A1C1F"/>
</g>
<defs>
<clipPath id="clip0_2214_6623">
<rect width="12" height="12" fill="white"/>
</clipPath>
</defs>
</svg>
