<svg width="16" height="16" viewBox="0 0 16 16" fill="none" xmlns="http://www.w3.org/2000/svg">
<g clip-path="url(#clip0_187_636)">
<path fill-rule="evenodd" clip-rule="evenodd" d="M14.2272 7.31677C14.3748 7.94078 14.4 8.39361 14.4 8.79935C14.4 10.5427 13.6985 12.1766 12.4776 13.3722C12.1619 13.6813 11.6554 13.676 11.3463 13.3604C11.0371 13.0447 11.0424 12.5382 11.3581 12.2291C12.2748 11.3314 12.8 10.1081 12.8 8.79935C12.8 8.49388 12.7754 8.1431 12.6704 7.68619C12.5684 7.2563 12.8342 6.82511 13.2641 6.7231C13.694 6.62108 14.1252 6.88688 14.2272 7.31677ZM7.99998 2.39935C8.47255 2.39935 8.93969 2.44512 9.36811 2.53722C9.80007 2.63008 10.075 3.05553 9.98211 3.48749C9.88925 3.91945 9.4638 4.19434 9.03184 4.10149C8.71854 4.03414 8.36354 3.99935 7.99998 3.99935C5.34901 3.99935 3.19998 6.14839 3.19998 8.79935C3.19998 10.1081 3.72516 11.3314 4.64183 12.2291C4.9575 12.5382 4.9628 13.0447 4.65367 13.3604C4.34454 13.676 3.83803 13.6813 3.52236 13.3722C2.30143 12.1766 1.59998 10.5427 1.59998 8.79935C1.59998 5.26473 4.46535 2.39935 7.99998 2.39935ZM12.1659 4.63372C12.4543 4.92211 12.5073 5.42197 12.1659 5.76509C11.3434 6.5918 10.4702 7.46536 9.54625 8.38577C9.58146 8.51771 9.60023 8.65637 9.60023 8.7994C9.60023 9.68306 8.88389 10.3994 8.00023 10.3994C7.11658 10.3994 6.40023 9.68306 6.40023 8.7994C6.40023 7.91575 7.11658 7.1994 8.00023 7.1994C8.14356 7.1994 8.28248 7.21825 8.41466 7.2536L11.0345 4.63372C11.347 4.3213 11.8535 4.3213 12.1659 4.63372Z" fill="#1A1C1F"/>
</g>
<defs>
<clipPath id="clip0_187_636">
<rect width="16" height="16" fill="white"/>
</clipPath>
</defs>
</svg>
