<svg width="12" height="12" viewBox="0 0 12 12" fill="none" xmlns="http://www.w3.org/2000/svg">
<g clip-path="url(#clip0_232_471)">
<path fill-rule="evenodd" clip-rule="evenodd" d="M1.20001 4.13019C1.20001 3.96106 1.25626 3.82952 1.36876 3.69798C2.66251 2.42013 4.14376 1.79999 6.03751 1.79999C7.74376 1.79999 9.39376 2.4765 10.6125 3.69798C10.725 3.81073 10.8 3.97986 10.8 4.13019C10.8 4.48724 10.5375 4.73153 10.2 4.73153C10.05 4.73153 9.90001 4.67516 9.76876 4.56241C8.77501 3.54764 7.44376 2.98389 6.03751 2.98389C4.55626 2.98389 3.22501 3.52885 2.21251 4.54361C2.10001 4.65637 1.95001 4.73153 1.80001 4.73153C1.53751 4.73153 1.20001 4.52482 1.20001 4.13019ZM3.41251 6.2161C3.41251 6.06576 3.46876 5.89663 3.60001 5.78388C4.29376 5.12616 5.04376 4.78791 6.03751 4.78791C6.95626 4.78791 7.81876 5.14496 8.47501 5.78388C8.60626 5.91543 8.64376 6.06576 8.64376 6.2161C8.64376 6.49798 8.45626 6.81744 8.04376 6.81744C7.89376 6.81744 7.74376 6.76106 7.63126 6.64831C7.20001 6.23489 6.63751 5.99059 6.03751 5.99059C5.43751 5.99059 4.83751 6.23489 4.44376 6.64831C4.33126 6.76106 4.18126 6.81744 4.01251 6.81744C3.65626 6.81744 3.41251 6.49798 3.41251 6.2161ZM4.80001 8.99999C4.80001 8.34374 5.32501 7.79999 6.00001 7.79999C6.65626 7.79999 7.20001 8.32499 7.20001 8.99999C7.20001 9.65624 6.67501 10.2 6.00001 10.2C5.34376 10.2 4.80001 9.67499 4.80001 8.99999Z" fill="#1A1C1F"/>
</g>
<defs>
<clipPath id="clip0_232_471">
<rect width="12" height="12" fill="white"/>
</clipPath>
</defs>
</svg>
