<svg width="24" height="24" viewBox="0 0 24 24" fill="none" xmlns="http://www.w3.org/2000/svg">
<g clip-path="url(#clip0_187_645)">
<path fill-rule="evenodd" clip-rule="evenodd" d="M2 9.68075C2 10.1972 2.53991 10.6667 2.93897 10.6667C3.22066 10.6667 3.55519 10.5962 3.80489 10.2423C5.69134 7.56808 8.78404 6.01878 12 6.01878C15.5446 6.01878 18.3563 7.59155 20.1948 10.2425C20.3751 10.5023 20.6854 10.6667 21.0141 10.6667C21.6009 10.6667 22 10.2207 22 9.65728C22 9.44601 21.9296 9.24695 21.8087 9.07287C19.59 5.87794 15.8967 4 12 4C8.10329 4 4.46479 5.87794 2.18779 9.07043C2.07042 9.23475 2 9.46948 2 9.68075ZM4.48826 12.4272C4.48826 12.8263 4.88732 13.3662 5.5446 13.3662C5.82629 13.3662 6.13132 13.1867 6.31925 12.9202C7.61033 11.0892 9.69953 9.93897 11.9296 9.93897C14.2077 9.93897 16.3015 11.0894 17.5843 12.922C17.7803 13.2019 18.0798 13.3662 18.385 13.3662C18.831 13.3662 19.3944 13.0141 19.3944 12.3803C19.3944 12.1455 19.3239 11.9461 19.2029 11.7725C17.5482 9.39926 14.8411 7.94366 11.9296 7.94366C9.06563 7.94366 6.35792 9.39926 4.70318 11.7725C4.58216 11.9461 4.48826 12.216 4.48826 12.4272ZM7.11737 14.9859C7.11737 15.5493 7.53991 15.9953 8.10329 15.9953C8.4554 15.9953 8.78404 15.8075 8.94836 15.5493C9.60564 14.5164 10.7324 13.9061 11.9296 13.9061C13.1502 13.9061 14.273 14.5164 14.9362 15.5481C15.118 15.831 15.4272 15.9953 15.7793 15.9953C16.3662 15.9953 16.7653 15.4789 16.7653 14.9859C16.7653 14.7981 16.6948 14.604 16.5755 14.4238C15.5488 12.8732 13.8075 11.9108 11.9296 11.9108C10.0751 11.9108 8.31625 12.8732 7.30438 14.422C7.16432 14.6364 7.11737 14.7981 7.11737 14.9859ZM10 17.9882C10 19.1008 10.9412 20 12 20C13.1059 20 14 19.1006 14 17.9882C14 16.8994 13.0824 16 11.9529 16C10.8941 16 10 16.8994 10 17.9882Z" fill="#1A1C1F"/>
</g>
<defs>
<clipPath id="clip0_187_645">
<rect width="24" height="24" fill="white"/>
</clipPath>
</defs>
</svg>
