<svg width="12" height="12" viewBox="0 0 12 12" fill="none" xmlns="http://www.w3.org/2000/svg">
<g clip-path="url(#clip0_232_473)">
<path fill-rule="evenodd" clip-rule="evenodd" d="M6.8808 7.9487C7.24834 8.15099 7.5 8.54077 7.5 8.99999C7.5 9.65624 6.975 10.2 6.3 10.2C5.85019 10.2 5.45323 9.95334 5.248 9.5808L6.8808 7.9487ZM6.3375 1.79999C7.28081 1.79999 8.20693 2.00676 9.05249 2.39809L9.47574 1.97572C9.71005 1.74141 10.0899 1.74141 10.3243 1.97572C10.5406 2.19201 10.5572 2.53235 10.3742 2.76773L10.3243 2.82425L3.12426 10.0243C2.88995 10.2586 2.51005 10.2586 2.27574 10.0243C2.05945 9.80796 2.0232 9.46197 2.27574 9.17572C3.38 8.07117 4.2082 7.24276 4.76033 6.69049C4.77302 6.67417 4.76033 6.64831 4.74375 6.64831C4.63125 6.76106 4.48125 6.81744 4.3125 6.81744C3.95625 6.81744 3.7125 6.49798 3.7125 6.2161C3.7125 6.06576 3.76875 5.89663 3.9 5.78388C4.59375 5.12616 5.34375 4.78791 6.3375 4.78791C6.44218 4.78791 6.54613 4.79254 6.64913 4.8017L8.14384 3.30786C7.57199 3.09512 6.96215 2.98389 6.3375 2.98389C4.85625 2.98389 3.525 3.52885 2.5125 4.54361C2.4 4.65637 2.25 4.73153 2.1 4.73153C1.8375 4.73153 1.5 4.52482 1.5 4.13019C1.5 3.96106 1.55625 3.82952 1.66875 3.69798C2.9625 2.42013 4.44375 1.79999 6.3375 1.79999Z" fill="#1A1C1F"/>
</g>
<defs>
<clipPath id="clip0_232_473">
<rect width="12" height="12" fill="white"/>
</clipPath>
</defs>
</svg>
