<svg id="db-vertrieb-logo" xmlns="http://www.w3.org/2000/svg" viewBox="0 0 661 141">
  <style>
    #db-vertrieb-logo { color-scheme: light dark; }

    .logo { fill: light-dark(#ec0016, #fff) }
    .text { fill: light-dark(#000, #fff) }
  </style>
<g transform="translate(0, 0)">
    <path class="logo"  d="M194.14 5.87A19.974 19.974 0 0 0 180 0H20.1c-2.63-.01-5.25.5-7.68 1.5-2.44 1-4.65 2.47-6.52 4.34a20.027 20.027 0 0 0-4.36 6.51A19.883 19.883 0 0 0 0 20.04v100.18c.03 5.32 2.16 10.42 5.92 14.17a20.1 20.1 0 0 0 14.18 5.86H180c5.32-.03 10.41-2.16 14.16-5.95 3.75-3.78 5.85-8.9 5.84-14.23V20.04c0-5.31-2.11-10.41-5.86-14.17Zm-8.73 114.21c.03.73-.09 1.46-.35 2.15s-.65 1.31-1.15 1.85c-.5.53-1.11.96-1.77 1.26-.67.3-1.39.46-2.12.47H20.1c-.74 0-1.47-.15-2.15-.44a5.54 5.54 0 0 1-1.81-1.25c-.51-.53-.91-1.17-1.18-1.86-.26-.69-.39-1.43-.36-2.17V20.04c-.04-.75.08-1.5.34-2.2s.66-1.34 1.17-1.89c.51-.54 1.13-.98 1.82-1.27.69-.3 1.43-.45 2.17-.45H180c.74.02 1.47.18 2.14.48.68.3 1.28.74 1.79 1.28.5.54.89 1.18 1.15 1.88.25.7.36 1.44.33 2.17v100.04Z"></path>
    <path class="logo"  d="M61.17 116.03H27.53v-91.8h33.64c23.7 0 36.8 14.87 36.8 45.48.04 26.57-8.86 46.1-36.8 46.32Zm14.62-44.42c0-18.49-2-32.94-21.8-32.94h-4.46v62.47h7.82c11.66 0 18.44-9.34 18.44-29.53ZM156.01 68c4.59-1.39 8.62-4.22 11.5-8.06 2.88-3.85 4.46-8.51 4.5-13.32 0-1.9-.38-22.36-26.16-22.36h-38.24v91.77h32.4c8.58 0 35.32 0 35.32-25.81 0-6.45-2.64-18.59-19.32-22.22Zm-26.6-29.59h6.92c9.86 0 13.78 3.45 13.78 11.06 0 6.01-4.32 11.1-12 11.1h-8.7V38.41Zm9.02 62.73h-9.02V77.56h9.62c11.42 0 14.22 6.67 14.22 11.8 0 11.78-11.24 11.78-14.82 11.78Z"></path>
    </g>

<path class="text" d="M28.89 0.11L0-77.79L20.76-77.79L38.41-26.86L56.50-77.79L73.19-77.79L43.76 0.11L28.89 0.11Z"  transform="translate(250.0000667580332, 116.00028158657369)"></path>
<path class="text" d="M100.90 1.71Q85.06 1.71 77.63-5.51Q70.19-12.73 70.19-28.03L70.19-28.03L70.19-28.46Q70.19-43.12 77.68-51.04Q85.17-58.96 98.76-58.96L98.76-58.96Q111.60-58.96 118.13-51.52Q124.66-44.08 124.66-29.64L124.66-29.64L124.66-24.61L88.81-24.61Q89.13-19.47 90.41-16.75Q91.70-14.02 94.64-12.89Q97.58-11.77 102.93-11.77L102.93-11.77Q107.53-11.77 111.44-12.57Q115.35-13.38 121.44-15.52L121.44-15.52L121.44-2.25Q115.99-0.21 111.12 0.75Q106.25 1.71 100.90 1.71L100.90 1.71ZM88.81-34.45L106.79-34.45Q106.36-41.20 104.54-43.92Q102.72-46.65 98.44-46.65L98.44-46.65Q93.63-46.65 91.48-43.87Q89.34-41.09 88.81-34.45L88.81-34.45Z"  transform="translate(250.0000667580332, 116.00028158657369)"></path>
<path class="text" d="M133.32-55.21Q143.70-55.53 147.13-58.74L147.13-58.74L151.30-58.74L151.30-47.72Q155.90-53.18 160.34-55.69Q164.78-58.21 169.70-58.42L169.70-58.42L169.70-42.27Q159.97-41.62 151.30-39.16L151.30-39.16L151.30 0L133.32 0L133.32-55.21Z"  transform="translate(250.0000667580332, 116.00028158657369)"></path>
<path class="text" d="M200.63 1.71Q189.82 1.71 184.95-2.89Q180.08-7.49 180.08-17.66L180.08-17.66L180.08-44.62L172.70-44.62L172.70-57.03L173.88-57.03Q178.05-57.03 180.29-58.64Q182.54-60.24 183.50-63.77L183.50-63.77L185.22-69.98L198.06-69.98L198.06-57.03L211.54-57.03L211.54-44.62L198.06-44.62L198.06-19.37Q198.06-15.09 199.66-13.43Q201.27-11.77 205.33-11.77L205.33-11.77Q207.15-11.77 208.49-12.04Q209.83-12.30 212.72-13.16L212.72-13.16L212.72-0.32Q207.37 1.71 200.63 1.71L200.63 1.71Z"  transform="translate(250.0000667580332, 116.00028158657369)"></path>
<path class="text" d="M220.21-55.21Q230.59-55.53 234.01-58.74L234.01-58.74L238.18-58.74L238.18-47.72Q242.78-53.18 247.22-55.69Q251.66-58.21 256.59-58.42L256.59-58.42L256.59-42.27Q246.85-41.62 238.18-39.16L238.18-39.16L238.18 0L220.21 0L220.21-55.21Z"  transform="translate(250.0000667580332, 116.00028158657369)"></path>
<path class="text" d="M263.65-55.21Q274.03-55.53 277.45-58.74L277.45-58.74L281.62-58.74L281.62 0L263.65 0L263.65-55.21ZM272.74-63.45Q268.57-63.45 265.95-66.13Q263.33-68.80 263.33-72.87L263.33-72.87Q263.33-76.83 266.06-79.50Q268.78-82.18 272.74-82.18L272.74-82.18Q276.70-82.18 279.38-79.50Q282.05-76.83 282.05-72.76L282.05-72.76Q282.05-68.80 279.43-66.13Q276.81-63.45 272.74-63.45L272.74-63.45Z"  transform="translate(250.0000667580332, 116.00028158657369)"></path>
<path class="text" d="M321 1.71Q305.16 1.71 297.73-5.51Q290.29-12.73 290.29-28.03L290.29-28.03L290.29-28.46Q290.29-43.12 297.78-51.04Q305.27-58.96 318.86-58.96L318.86-58.96Q331.70-58.96 338.23-51.52Q344.75-44.08 344.75-29.64L344.75-29.64L344.75-24.61L308.91-24.61Q309.23-19.47 310.51-16.75Q311.80-14.02 314.74-12.89Q317.68-11.77 323.03-11.77L323.03-11.77Q327.63-11.77 331.54-12.57Q335.44-13.38 341.54-15.52L341.54-15.52L341.54-2.25Q336.09-0.21 331.22 0.75Q326.35 1.71 321 1.71L321 1.71ZM308.91-34.45L326.88-34.45Q326.46-41.20 324.64-43.92Q322.82-46.65 318.54-46.65L318.54-46.65Q313.72-46.65 311.58-43.87Q309.44-41.09 308.91-34.45L308.91-34.45Z"  transform="translate(250.0000667580332, 116.00028158657369)"></path>
<path class="text" d="M388.09 1.71Q378.14 1.71 369.36-7.06L369.36-7.06L367.01 0L353.42 0L353.42-77.36Q363.91-77.58 367.22-80.89L367.22-80.89L371.40-80.89L371.40-49.22Q376.00-54.25 380.38-56.39Q384.77-58.53 390.01-58.53L390.01-58.53Q399.86-58.53 405.16-50.88Q410.45-43.23 410.45-28.68L410.45-28.68L410.45-28.46Q410.45-14.02 404.62-6.15Q398.79 1.71 388.09 1.71L388.09 1.71ZM381.45-11.66Q387.55-11.66 389.69-16.10Q391.83-20.54 391.83-29.21L391.83-29.21L391.83-29.53Q391.83-38.09 389.59-41.62Q387.34-45.15 381.99-45.15L381.99-45.15Q379.21-45.15 376.96-44.35Q374.71-43.55 371.40-41.30L371.40-41.30L371.40-15.09Q374.07-13.27 376.37-12.47Q378.67-11.66 381.45-11.66L381.45-11.66Z"  transform="translate(250.0000667580332, 116.00028158657369)"></path>

</svg>
