<svg id="icon" height="32" viewBox="0 0 32 32" width="32" xmlns="http://www.w3.org/2000/svg"><path d="M6.091 6.135 C 5.152 6.380,4.311 7.070,3.858 7.964 C 3.540 8.591,3.426 9.635,3.601 10.322 C 3.900 11.506,4.837 12.497,5.989 12.848 C 7.599 13.338,9.358 12.579,10.122 11.064 C 10.393 10.526,10.475 10.170,10.477 9.520 C 10.482 8.512,10.164 7.751,9.437 7.031 C 9.104 6.700,8.929 6.575,8.526 6.382 C 8.251 6.250,7.899 6.116,7.744 6.084 C 7.307 5.995,6.534 6.018,6.091 6.135 M15.033 6.105 C 13.771 6.424,12.720 7.522,12.446 8.807 C 12.125 10.316,12.920 11.940,14.309 12.611 C 15.748 13.306,17.249 13.060,18.352 11.949 C 18.827 11.470,19.140 10.902,19.283 10.263 C 19.403 9.721,19.368 8.912,19.204 8.427 C 18.851 7.387,17.972 6.506,16.960 6.178 C 16.511 6.033,15.476 5.993,15.033 6.105 M24.142 6.108 C 23.601 6.244,23.004 6.595,22.555 7.039 C 20.543 9.030,21.571 12.369,24.371 12.936 C 25.144 13.093,25.977 12.955,26.720 12.547 C 27.245 12.259,27.828 11.643,28.099 11.089 C 28.419 10.437,28.497 10.069,28.468 9.361 C 28.429 8.406,28.126 7.710,27.463 7.045 C 27.061 6.642,26.579 6.340,26.080 6.178 C 25.625 6.031,24.596 5.993,24.142 6.108 M16.486 8.147 C 17.244 8.488,17.573 9.402,17.208 10.149 C 16.683 11.222,15.179 11.283,14.577 10.256 C 14.373 9.907,14.340 9.306,14.504 8.926 C 14.834 8.157,15.727 7.806,16.486 8.147 M25.650 8.158 C 26.607 8.646,26.774 9.942,25.969 10.631 C 25.174 11.312,23.976 10.991,23.596 9.996 C 23.465 9.655,23.513 9.100,23.699 8.782 C 23.881 8.470,24.205 8.197,24.521 8.087 C 24.842 7.976,25.356 8.008,25.650 8.158 M4.556 15.041 C 3.446 15.192,2.494 16.040,2.102 17.227 C 2.012 17.497,2.003 17.813,1.986 21.190 C 1.965 25.271,1.968 25.316,2.278 25.659 C 2.622 26.040,2.500 26.031,7.125 26.015 C 11.167 26.000,11.230 25.998,11.440 25.889 C 11.557 25.827,11.725 25.675,11.813 25.551 L 11.973 25.324 11.989 21.582 C 11.999 19.048,11.985 17.728,11.946 17.493 C 11.765 16.420,10.915 15.472,9.813 15.115 C 9.553 15.031,9.260 15.019,7.200 15.008 C 5.924 15.002,4.734 15.016,4.556 15.041 M14.750 15.044 C 13.787 15.282,13.762 16.622,14.715 16.951 C 14.838 16.993,15.428 17.014,16.555 17.015 C 18.428 17.016,18.512 17.031,18.806 17.417 L 18.960 17.618 18.987 21.436 L 19.013 25.253 19.155 25.494 C 19.560 26.183,20.517 26.148,20.875 25.430 L 21.013 25.152 21.013 21.466 C 21.013 19.048,20.993 17.671,20.956 17.463 C 20.759 16.389,19.921 15.465,18.827 15.117 C 18.576 15.037,18.271 15.021,16.747 15.008 C 15.711 14.999,14.872 15.014,14.750 15.044 M23.740 15.038 C 23.220 15.168,22.896 15.732,23.038 16.261 C 23.116 16.549,23.434 16.878,23.707 16.954 C 23.841 16.991,24.528 17.013,25.562 17.013 C 26.918 17.013,27.238 17.028,27.400 17.095 C 27.664 17.206,27.783 17.320,27.900 17.573 C 27.992 17.774,27.998 18.012,28.000 21.493 C 28.002 24.997,28.008 25.212,28.102 25.420 C 28.330 25.922,28.983 26.140,29.474 25.877 C 29.694 25.759,29.910 25.451,29.973 25.163 C 30.018 24.958,30.030 23.863,30.015 21.173 C 29.997 17.777,29.988 17.442,29.899 17.173 C 29.574 16.183,28.817 15.426,27.840 15.116 C 27.590 15.037,27.280 15.021,25.733 15.008 C 24.736 14.999,23.839 15.013,23.740 15.038 " fill="var(--db-icon-color, currentColor)" stroke="none" fill-rule="evenodd"></path></svg>