<svg id="icon" height="24" viewBox="0 0 24 24" width="24" xmlns="http://www.w3.org/2000/svg"><path d="M17.649 8.056 C 17.398 8.138,17.222 8.290,17.104 8.527 C 16.982 8.772,16.964 9.116,17.062 9.351 C 17.095 9.433,17.298 9.680,17.512 9.900 C 17.725 10.120,18.053 10.457,18.239 10.650 L 18.578 11.000 13.219 10.999 L 7.860 10.998 7.732 10.726 C 7.401 10.021,6.734 9.442,5.953 9.182 C 5.699 9.097,5.515 9.066,5.178 9.050 C 4.581 9.022,4.187 9.102,3.659 9.358 C 1.857 10.232,1.441 12.591,2.833 14.050 C 3.719 14.979,5.180 15.232,6.349 14.659 C 6.939 14.369,7.466 13.841,7.734 13.271 L 7.860 13.002 13.219 13.001 L 18.577 13.000 17.852 13.730 C 17.066 14.522,17.000 14.621,17.000 15.000 C 17.000 15.412,17.228 15.756,17.609 15.920 C 17.862 16.029,18.215 16.016,18.461 15.888 C 18.657 15.787,21.801 12.639,21.905 12.440 C 21.957 12.340,21.978 12.214,21.978 12.000 C 21.978 11.786,21.957 11.660,21.905 11.560 C 21.804 11.368,18.657 8.214,18.468 8.115 C 18.270 8.013,17.871 7.984,17.649 8.056 M5.465 11.112 C 5.653 11.208,5.866 11.436,5.945 11.626 C 6.029 11.827,6.015 12.223,5.917 12.427 C 5.505 13.278,4.242 13.137,4.036 12.217 C 3.922 11.710,4.216 11.197,4.711 11.037 C 4.885 10.981,5.285 11.021,5.465 11.112 " fill="var(--db-icon-color, currentColor)" stroke="none" fill-rule="evenodd"></path></svg>