<svg id="icon" height="24" viewBox="0 0 24 24" width="24" xmlns="http://www.w3.org/2000/svg"><path d="M10.372 5.040 C 9.659 5.115,8.914 5.293,8.265 5.544 C 7.489 5.843,7.264 6.029,7.134 6.474 C 6.977 7.016,7.353 7.603,7.937 7.727 C 8.092 7.761,8.162 7.744,8.664 7.558 C 9.717 7.166,10.546 7.010,11.336 7.053 C 11.856 7.081,12.149 7.153,12.535 7.347 C 13.757 7.963,14.033 9.719,13.182 11.460 C 12.761 12.321,12.219 13.029,11.204 14.042 C 10.389 14.855,9.601 15.522,8.275 16.522 C 7.755 16.914,7.275 17.301,7.209 17.382 C 6.973 17.668,6.938 18.146,7.127 18.488 C 7.237 18.687,7.502 18.900,7.711 18.958 C 7.809 18.985,9.210 19.000,11.803 19.000 C 15.235 19.000,15.769 18.992,15.925 18.939 C 16.441 18.763,16.715 18.212,16.554 17.674 C 16.490 17.462,16.278 17.226,16.050 17.114 L 15.860 17.020 13.394 17.000 L 10.928 16.980 11.353 16.620 C 11.981 16.088,13.335 14.724,13.736 14.220 C 14.736 12.965,15.303 11.852,15.568 10.627 C 15.688 10.071,15.696 8.993,15.584 8.460 C 15.301 7.107,14.622 6.157,13.511 5.560 C 13.125 5.353,12.614 5.177,12.165 5.097 C 11.744 5.023,10.817 4.993,10.372 5.040 M19.643 17.069 C 19.291 17.193,19.000 17.614,19.000 18.000 C 19.000 18.244,19.115 18.509,19.303 18.697 C 19.703 19.096,20.297 19.096,20.697 18.697 C 21.452 17.942,20.656 16.711,19.643 17.069 " fill="var(--db-icon-color, currentColor)" stroke="none" fill-rule="evenodd"></path></svg>