<svg id="icon" height="20" viewBox="0 0 20 20" width="20" xmlns="http://www.w3.org/2000/svg"><path d="M4.704 4.036 C 4.478 4.080,4.167 4.241,3.983 4.408 C 3.107 5.204,3.488 6.646,4.656 6.950 C 5.176 7.085,5.714 6.926,6.082 6.529 C 6.447 6.135,6.581 5.623,6.450 5.123 C 6.379 4.848,6.283 4.679,6.079 4.464 C 5.723 4.092,5.219 3.935,4.704 4.036 M3.589 9.053 C 3.050 9.183,2.504 9.617,2.241 10.122 C 1.998 10.590,2.001 10.549,2.000 12.990 C 2.000 15.132,2.001 15.167,2.071 15.355 C 2.167 15.610,2.391 15.833,2.647 15.929 C 2.840 16.001,2.853 16.002,5.062 15.993 L 7.283 15.983 7.450 15.895 C 7.664 15.780,7.843 15.593,7.940 15.383 C 8.008 15.234,8.017 15.158,8.026 14.650 C 8.031 14.338,8.023 13.311,8.008 12.367 L 7.980 10.650 7.892 10.404 C 7.656 9.745,7.032 9.188,6.375 9.049 C 6.056 8.981,3.871 8.984,3.589 9.053 " fill="var(--db-icon-color, currentColor)" stroke="none" fill-rule="evenodd"></path></svg>