<svg id="icon" height="20" viewBox="0 0 20 20" width="20" xmlns="http://www.w3.org/2000/svg"><path d="M9.716 4.193 C 9.680 4.206,8.952 4.596,8.100 5.059 C 6.797 5.767,6.526 5.927,6.398 6.062 C 6.165 6.310,6.105 6.632,6.224 7.005 C 6.309 7.274,6.614 7.568,6.886 7.644 C 7.262 7.748,7.350 7.722,8.268 7.236 C 8.651 7.033,8.972 6.867,8.982 6.867 C 8.992 6.867,9.000 8.472,9.000 10.433 L 9.000 14.000 7.939 14.000 C 6.741 14.000,6.649 14.014,6.377 14.228 C 6.287 14.299,6.173 14.435,6.117 14.536 C 6.029 14.695,6.017 14.749,6.017 14.983 C 6.018 15.312,6.111 15.513,6.365 15.742 C 6.669 16.016,6.446 16.000,10.005 16.000 C 13.158 16.000,13.165 16.000,13.356 15.928 C 13.631 15.825,13.877 15.572,13.952 15.315 C 14.096 14.821,13.886 14.329,13.439 14.110 L 13.250 14.017 12.125 14.007 L 11.000 13.997 11.000 9.500 L 11.000 5.003 10.929 4.813 C 10.848 4.595,10.648 4.377,10.428 4.263 C 10.278 4.186,9.855 4.144,9.716 4.193 M16.733 14.043 C 16.312 14.162,16.000 14.571,16.000 15.003 C 16.000 15.530,16.471 16.000,16.997 16.000 C 17.277 16.000,17.495 15.908,17.701 15.701 C 17.992 15.411,18.075 15.036,17.933 14.657 C 17.754 14.179,17.220 13.905,16.733 14.043 " fill="var(--db-icon-color, currentColor)" stroke="none" fill-rule="evenodd"></path></svg>