<svg id="icon" height="20" viewBox="0 0 20 20" width="20" xmlns="http://www.w3.org/2000/svg"><path d="M8.500 4.035 C 7.880 4.112,7.221 4.294,6.574 4.568 C 6.096 4.770,5.937 4.870,5.801 5.055 C 5.399 5.602,5.628 6.396,6.257 6.634 C 6.555 6.746,6.823 6.717,7.275 6.523 C 7.981 6.220,8.496 6.100,9.086 6.100 C 10.089 6.100,10.725 6.530,10.915 7.336 C 10.982 7.620,10.982 8.263,10.914 8.593 C 10.622 10.026,9.269 11.586,6.500 13.682 C 6.106 13.981,5.758 14.254,5.726 14.289 C 5.513 14.527,5.446 15.061,5.589 15.373 C 5.681 15.573,5.926 15.818,6.127 15.911 L 6.283 15.983 9.581 15.992 C 12.525 16.000,12.898 15.996,13.062 15.948 C 13.438 15.839,13.689 15.578,13.789 15.193 C 13.835 15.016,13.837 14.954,13.803 14.792 C 13.723 14.415,13.420 14.119,13.028 14.035 C 12.924 14.013,12.239 14.000,11.176 14.000 L 9.489 14.000 9.703 13.810 C 11.440 12.265,12.528 10.670,12.883 9.147 C 13.044 8.458,13.081 7.550,12.970 7.017 C 12.822 6.302,12.514 5.724,12.000 5.198 C 11.423 4.607,10.688 4.220,9.850 4.067 C 9.571 4.016,8.799 3.998,8.500 4.035 M16.678 14.060 C 15.969 14.313,15.773 15.170,16.302 15.698 C 17.048 16.444,18.270 15.678,17.944 14.669 C 17.783 14.171,17.179 13.880,16.678 14.060 " fill="var(--db-icon-color, currentColor)" stroke="none" fill-rule="evenodd"></path></svg>