<svg id="icon" height="20" viewBox="0 0 20 20" width="20" xmlns="http://www.w3.org/2000/svg"><path d="M4.415 4.046 C 3.939 4.162,3.501 4.544,3.345 4.979 C 3.156 5.506,3.275 6.095,3.651 6.498 C 4.211 7.096,5.067 7.164,5.706 6.661 C 6.089 6.360,6.312 5.769,6.231 5.267 C 6.092 4.407,5.253 3.843,4.415 4.046 M9.915 4.046 C 9.439 4.162,9.001 4.544,8.845 4.979 C 8.656 5.506,8.775 6.095,9.151 6.498 C 9.711 7.096,10.567 7.164,11.206 6.661 C 11.589 6.360,11.812 5.769,11.731 5.267 C 11.592 4.407,10.753 3.843,9.915 4.046 M14.883 4.047 C 14.150 4.229,13.652 4.965,13.768 5.693 C 13.814 5.977,13.901 6.197,14.048 6.398 C 14.404 6.882,15.029 7.102,15.616 6.949 C 16.546 6.707,17.008 5.706,16.593 4.835 C 16.300 4.222,15.558 3.880,14.883 4.047 M3.417 9.033 C 2.681 9.186,2.045 9.788,1.811 10.550 C 1.754 10.736,1.750 10.910,1.750 12.983 L 1.750 15.217 1.829 15.392 C 1.938 15.632,2.216 15.883,2.447 15.951 C 2.599 15.995,2.925 16.001,4.820 15.993 L 7.017 15.983 7.206 15.890 C 7.428 15.782,7.578 15.622,7.690 15.378 L 7.770 15.203 7.760 12.960 L 7.749 10.717 7.661 10.457 C 7.451 9.839,6.949 9.331,6.311 9.092 C 6.125 9.023,6.062 9.019,4.833 9.012 C 4.127 9.008,3.490 9.018,3.417 9.033 M10.017 9.031 C 9.835 9.076,9.643 9.195,9.509 9.348 C 9.264 9.626,9.274 9.484,9.255 12.926 L 9.238 16.003 10.627 15.993 L 12.017 15.983 12.195 15.884 C 12.423 15.758,12.613 15.542,12.690 15.322 C 12.746 15.163,12.750 14.983,12.750 12.900 L 12.749 10.650 12.658 10.381 C 12.576 10.136,12.399 9.824,12.244 9.649 C 11.999 9.372,11.574 9.133,11.176 9.049 C 10.939 8.999,10.195 8.988,10.017 9.031 M14.907 9.063 C 14.654 9.151,14.501 9.288,14.367 9.550 L 14.250 9.777 14.241 12.890 L 14.231 16.003 15.594 15.993 L 16.957 15.983 17.186 15.867 C 17.447 15.733,17.633 15.520,17.705 15.270 C 17.741 15.149,17.750 14.651,17.749 12.883 L 17.749 10.650 17.658 10.381 C 17.429 9.702,16.866 9.193,16.183 9.050 C 15.840 8.978,15.133 8.985,14.907 9.063 " fill="var(--db-icon-color, currentColor)" stroke="none" fill-rule="evenodd"></path></svg>