<svg id="icon" height="20" viewBox="0 0 20 20" width="20" xmlns="http://www.w3.org/2000/svg"><path d="M4.583 2.035 C 3.950 2.133,3.281 2.481,2.846 2.939 C 2.509 3.293,2.264 3.720,2.111 4.224 C 2.032 4.485,2.022 4.572,2.021 5.017 C 2.021 5.467,2.029 5.546,2.111 5.810 C 2.348 6.584,2.815 7.186,3.495 7.596 C 4.278 8.068,5.315 8.140,6.174 7.781 C 6.617 7.596,7.124 7.189,7.451 6.758 C 7.580 6.586,7.833 6.113,7.833 6.041 C 7.833 6.006,8.291 5.999,10.358 6.007 L 12.883 6.017 13.083 6.096 C 13.656 6.325,14.013 6.745,14.104 7.298 C 14.223 8.015,13.790 8.696,13.058 8.944 C 12.856 9.013,12.782 9.016,10.383 9.035 C 7.564 9.057,7.679 9.046,7.005 9.368 C 6.580 9.571,6.322 9.752,6.004 10.071 C 5.573 10.505,5.290 10.998,5.109 11.633 C 4.997 12.025,4.969 12.726,5.048 13.144 C 5.315 14.560,6.382 15.644,7.793 15.932 C 8.116 15.998,8.235 16.000,11.422 16.000 L 14.717 16.000 14.490 16.216 C 14.194 16.498,14.118 16.662,14.117 17.017 C 14.117 17.254,14.128 17.304,14.220 17.467 C 14.405 17.795,14.789 18.000,15.130 17.953 C 15.452 17.910,15.564 17.820,16.706 16.700 C 17.955 15.476,17.983 15.438,17.983 15.000 C 17.983 14.599,17.947 14.552,16.695 13.330 C 15.476 12.140,15.422 12.101,15.033 12.101 C 14.367 12.101,13.930 12.748,14.168 13.383 C 14.227 13.541,14.293 13.631,14.477 13.808 L 14.710 14.033 11.512 14.033 C 8.079 14.033,8.131 14.036,7.796 13.864 C 7.260 13.591,6.937 12.932,7.034 12.306 C 7.133 11.660,7.635 11.157,8.273 11.065 C 8.389 11.048,9.484 11.034,10.707 11.034 C 12.760 11.033,12.956 11.028,13.257 10.970 C 13.865 10.851,14.318 10.650,14.809 10.281 C 15.404 9.834,15.819 9.225,16.056 8.450 C 16.142 8.167,16.147 8.114,16.147 7.517 C 16.146 6.924,16.140 6.864,16.055 6.583 C 15.752 5.580,15.157 4.866,14.250 4.415 C 14.048 4.315,13.733 4.192,13.550 4.142 L 13.217 4.051 10.545 4.041 L 7.874 4.031 7.704 3.690 C 7.509 3.301,7.233 2.951,6.908 2.681 C 6.631 2.451,6.040 2.158,5.700 2.083 C 5.398 2.015,4.857 1.992,4.583 2.035 " fill="var(--db-icon-color, currentColor)" stroke="none" fill-rule="evenodd"></path></svg>