<svg id="icon" height="20" viewBox="0 0 20 20" width="20" xmlns="http://www.w3.org/2000/svg"><path d="M13.767 4.029 C 13.317 4.178,13.034 4.553,13.034 5.002 C 13.033 5.423,13.062 5.468,13.860 6.273 L 14.576 6.996 12.546 7.008 C 10.589 7.019,10.508 7.022,10.260 7.091 C 9.202 7.387,8.433 8.137,8.112 9.185 L 8.021 9.483 8.002 10.867 L 7.983 12.250 7.890 12.439 C 7.785 12.654,7.623 12.811,7.402 12.913 C 7.254 12.981,7.195 12.984,5.233 13.000 L 3.217 13.017 3.061 13.094 C 2.714 13.267,2.500 13.610,2.500 13.995 C 2.500 14.292,2.583 14.488,2.798 14.701 C 3.109 15.010,3.021 15.000,5.312 15.000 C 7.504 14.999,7.607 14.991,8.137 14.770 C 8.856 14.471,9.488 13.830,9.787 13.099 C 9.974 12.641,9.999 12.399,10.000 11.081 C 10.000 9.744,10.009 9.674,10.215 9.395 C 10.299 9.281,10.391 9.209,10.556 9.128 L 10.782 9.017 12.683 9.007 L 14.583 8.998 14.399 9.190 C 14.298 9.297,13.974 9.631,13.679 9.933 C 13.216 10.409,13.134 10.509,13.072 10.676 C 12.981 10.920,12.981 11.113,13.071 11.355 C 13.218 11.746,13.633 12.021,14.034 11.993 C 14.402 11.967,14.423 11.950,16.190 10.189 C 17.960 8.426,17.959 8.427,17.993 8.044 C 18.002 7.934,17.986 7.801,17.949 7.678 C 17.891 7.488,17.854 7.447,16.257 5.844 C 15.135 4.718,14.573 4.178,14.462 4.117 C 14.288 4.023,13.925 3.977,13.767 4.029 M3.157 7.057 C 2.683 7.215,2.398 7.799,2.546 8.308 C 2.623 8.571,2.870 8.838,3.127 8.935 C 3.635 9.125,4.197 8.896,4.425 8.406 C 4.597 8.034,4.512 7.606,4.203 7.298 C 3.916 7.011,3.549 6.927,3.157 7.057 M6.212 7.034 C 6.032 7.090,5.788 7.277,5.675 7.445 C 5.534 7.656,5.489 7.834,5.508 8.106 C 5.527 8.373,5.627 8.563,5.851 8.761 C 6.229 9.093,6.833 9.079,7.197 8.728 C 7.705 8.240,7.570 7.426,6.927 7.096 C 6.765 7.013,6.386 6.981,6.212 7.034 " fill="var(--db-icon-color, currentColor)" stroke="none" fill-rule="evenodd"></path></svg>