<svg id="icon" height="32" viewBox="0 0 32 32" width="32" xmlns="http://www.w3.org/2000/svg"><path d="M15.600 5.089 C 15.390 5.183,15.172 5.419,15.069 5.665 C 14.996 5.842,14.987 6.956,14.988 16.012 C 14.989 25.776,14.993 26.168,15.088 26.373 C 15.470 27.199,16.530 27.199,16.912 26.373 C 17.007 26.168,17.011 25.777,17.011 16.000 C 17.011 6.223,17.007 5.832,16.912 5.627 C 16.797 5.378,16.570 5.151,16.357 5.070 C 16.153 4.993,15.795 5.002,15.600 5.089 M6.198 10.531 C 4.600 11.060,4.404 11.157,4.238 11.504 C 4.051 11.895,4.140 12.349,4.462 12.647 C 4.851 13.007,5.102 13.008,6.173 12.653 L 6.987 12.384 6.987 16.192 L 6.987 20.000 5.960 20.000 C 5.395 20.000,4.844 20.025,4.735 20.056 C 4.333 20.167,4.002 20.600,4.002 21.013 C 4.002 21.266,4.163 21.601,4.365 21.772 C 4.663 22.022,4.860 22.035,8.187 22.017 C 11.168 22.001,11.287 21.996,11.461 21.893 C 12.024 21.561,12.174 20.850,11.776 20.396 C 11.468 20.045,11.403 20.029,10.147 20.009 L 9.013 19.991 9.012 15.395 C 9.011 11.022,9.006 10.789,8.911 10.580 C 8.856 10.460,8.722 10.292,8.612 10.208 C 8.444 10.081,8.354 10.054,8.059 10.044 C 7.741 10.033,7.560 10.080,6.198 10.531 M22.773 10.106 C 21.779 10.306,20.587 10.945,20.352 11.405 C 20.153 11.795,20.210 12.198,20.513 12.533 C 20.881 12.940,21.375 12.959,21.944 12.589 C 22.836 12.007,23.862 11.846,24.527 12.183 C 24.852 12.348,25.193 12.730,25.303 13.052 C 25.401 13.340,25.414 14.025,25.328 14.390 C 25.225 14.829,24.762 15.708,24.335 16.277 C 23.823 16.961,22.591 18.224,21.219 19.474 C 20.144 20.453,20.000 20.634,20.000 21.001 C 20.001 21.268,20.104 21.523,20.279 21.693 C 20.634 22.036,20.534 22.027,23.958 22.025 C 26.859 22.024,27.081 22.018,27.282 21.926 C 28.004 21.599,28.082 20.626,27.420 20.206 L 27.179 20.053 25.403 20.053 C 24.426 20.053,23.627 20.037,23.627 20.017 C 23.627 19.997,24.006 19.595,24.469 19.123 C 25.375 18.203,25.784 17.723,26.261 17.022 C 28.083 14.345,27.698 11.505,25.360 10.372 C 25.096 10.245,24.738 10.115,24.564 10.083 C 24.142 10.008,23.204 10.020,22.773 10.106 " fill="var(--db-icon-color, currentColor)" stroke="none" fill-rule="evenodd"></path></svg>