<svg id="icon" height="20" viewBox="0 0 20 20" width="20" xmlns="http://www.w3.org/2000/svg"><path d="M9.403 5.040 C 9.026 5.082,8.447 5.233,8.098 5.381 C 7.446 5.657,6.913 6.024,6.406 6.549 C 5.727 7.252,5.311 8.035,5.094 9.022 C 4.988 9.508,4.988 10.472,5.095 10.967 C 5.315 11.981,5.726 12.755,6.430 13.478 C 7.155 14.223,7.984 14.678,9.033 14.905 C 9.530 15.012,10.492 15.013,10.980 14.905 C 12.014 14.678,12.851 14.217,13.570 13.478 C 14.267 12.761,14.685 11.980,14.905 10.980 C 15.011 10.501,15.011 9.499,14.905 9.020 C 14.673 7.967,14.212 7.139,13.446 6.399 C 12.368 5.358,10.921 4.871,9.403 5.040 M10.667 7.084 C 11.015 7.172,11.584 7.468,11.864 7.706 C 12.316 8.090,12.680 8.667,12.837 9.250 C 12.932 9.600,12.941 10.333,12.856 10.678 C 12.626 11.607,11.945 12.420,11.111 12.761 C 10.655 12.948,10.483 12.982,10.000 12.982 C 9.517 12.982,9.345 12.948,8.889 12.761 C 8.055 12.420,7.374 11.607,7.144 10.678 C 7.059 10.333,7.068 9.600,7.163 9.250 C 7.464 8.132,8.358 7.290,9.500 7.048 C 9.773 6.990,10.370 7.008,10.667 7.084 " fill="var(--db-icon-color, currentColor)" stroke="none" fill-rule="evenodd"></path></svg>