<svg id="icon" height="32" viewBox="0 0 32 32" width="32" xmlns="http://www.w3.org/2000/svg"><path d="M16.507 2.128 C 16.419 2.184,15.406 3.174,14.255 4.328 C 12.835 5.753,12.137 6.490,12.082 6.625 C 11.973 6.889,11.980 7.180,12.102 7.440 C 12.242 7.738,16.326 11.806,16.598 11.918 C 16.984 12.077,17.471 11.970,17.754 11.663 C 17.938 11.462,18.029 11.064,17.965 10.741 C 17.915 10.492,17.853 10.421,16.660 9.240 L 15.407 8.000 18.837 8.001 C 22.620 8.002,22.688 8.007,23.349 8.331 C 23.813 8.559,24.407 9.136,24.627 9.573 C 24.999 10.313,24.979 10.066,25.011 14.435 L 25.040 18.390 25.201 18.589 C 25.451 18.898,25.673 18.997,26.065 18.974 C 26.337 18.959,26.431 18.927,26.592 18.796 C 26.700 18.709,26.834 18.554,26.889 18.452 C 26.985 18.275,26.989 18.093,26.974 14.187 L 26.959 10.107 26.813 9.638 C 26.279 7.933,25.061 6.721,23.333 6.175 C 22.965 6.059,22.906 6.057,19.213 6.040 C 17.153 6.030,15.467 6.005,15.467 5.984 C 15.467 5.963,15.996 5.418,16.644 4.773 C 17.291 4.128,17.858 3.529,17.905 3.441 C 18.122 3.030,17.931 2.398,17.516 2.155 C 17.234 1.990,16.746 1.977,16.507 2.128 M5.507 3.046 C 4.496 3.162,3.513 3.704,2.884 4.493 C 1.898 5.728,1.738 7.396,2.465 8.853 C 2.644 9.213,2.790 9.407,3.172 9.792 C 3.701 10.326,4.081 10.567,4.773 10.808 C 5.167 10.945,5.262 10.957,6.000 10.957 C 6.738 10.957,6.833 10.945,7.227 10.808 C 7.919 10.567,8.299 10.326,8.828 9.792 C 9.210 9.407,9.356 9.213,9.535 8.853 C 9.851 8.221,9.980 7.679,9.980 6.987 C 9.980 4.580,7.923 2.768,5.507 3.046 M6.835 5.198 C 7.725 5.621,8.185 6.638,7.901 7.554 C 7.494 8.863,6.014 9.407,4.909 8.652 C 4.303 8.239,3.954 7.528,4.018 6.839 C 4.096 6.006,4.718 5.267,5.514 5.061 C 5.846 4.974,6.511 5.043,6.835 5.198 M5.536 13.122 C 5.428 13.179,5.272 13.315,5.190 13.422 L 5.040 13.618 5.040 17.756 L 5.040 21.893 5.187 22.362 C 5.749 24.155,7.051 25.395,8.880 25.880 C 9.291 25.988,9.443 25.993,12.928 26.013 L 16.550 26.033 15.319 27.270 C 14.435 28.158,14.078 28.552,14.053 28.667 C 14.033 28.755,14.008 28.858,13.997 28.895 C 13.985 28.933,14.001 29.085,14.033 29.234 C 14.113 29.605,14.395 29.887,14.766 29.967 C 14.915 29.999,15.067 30.015,15.105 30.003 C 15.142 29.992,15.245 29.967,15.333 29.948 C 15.549 29.901,19.751 25.727,19.898 25.413 C 20.025 25.142,20.025 24.832,19.898 24.560 C 19.832 24.418,19.090 23.642,17.673 22.232 C 15.433 20.004,15.427 19.999,14.960 20.001 C 14.749 20.003,14.405 20.165,14.246 20.337 C 14.083 20.514,13.969 20.945,14.023 21.181 C 14.101 21.529,14.246 21.701,15.416 22.845 L 16.597 24.000 13.134 24.000 C 9.858 24.000,9.648 23.994,9.258 23.894 C 8.688 23.749,8.357 23.558,7.914 23.121 C 7.524 22.736,7.298 22.366,7.115 21.813 C 7.025 21.544,7.015 21.202,6.989 17.569 L 6.960 13.618 6.810 13.422 C 6.512 13.031,5.956 12.900,5.536 13.122 M25.150 21.101 C 23.685 21.415,22.505 22.558,22.129 24.027 C 21.981 24.606,21.981 25.422,22.128 25.989 C 22.529 27.525,23.723 28.635,25.295 28.933 C 25.829 29.034,26.171 29.034,26.705 28.933 C 29.376 28.426,30.764 25.598,29.539 23.156 C 29.153 22.387,28.365 21.660,27.547 21.317 C 26.847 21.024,25.906 20.939,25.150 21.101 M26.703 23.141 C 27.518 23.458,28.061 24.315,27.982 25.161 C 27.917 25.854,27.469 26.501,26.839 26.810 C 26.566 26.944,26.477 26.960,26.000 26.960 C 25.523 26.960,25.434 26.944,25.161 26.810 C 24.300 26.387,23.826 25.378,24.078 24.504 C 24.410 23.345,25.618 22.719,26.703 23.141 " fill="var(--db-icon-color, currentColor)" stroke="none" fill-rule="evenodd"></path></svg>