<svg id="icon" height="24" viewBox="0 0 24 24" width="24" xmlns="http://www.w3.org/2000/svg"><path d="M11.320 6.041 C 8.715 6.357,6.690 8.218,6.111 10.830 C 5.986 11.395,5.986 12.605,6.111 13.170 C 6.651 15.605,8.396 17.351,10.826 17.887 C 11.397 18.013,12.603 18.013,13.174 17.887 C 15.318 17.414,17.010 15.928,17.680 13.927 C 17.920 13.209,17.974 12.858,17.974 12.000 C 17.974 11.142,17.920 10.791,17.680 10.073 C 16.995 8.028,15.184 6.476,13.041 6.097 C 12.617 6.022,11.719 5.993,11.320 6.041 M13.005 8.134 C 14.432 8.499,15.525 9.611,15.888 11.065 C 16.020 11.595,16.012 12.469,15.870 13.005 C 15.558 14.177,14.739 15.154,13.654 15.646 C 13.511 15.710,13.220 15.812,13.007 15.871 C 12.664 15.966,12.550 15.978,12.000 15.978 C 11.450 15.978,11.336 15.966,10.993 15.871 C 10.780 15.812,10.489 15.710,10.346 15.646 C 9.261 15.154,8.442 14.177,8.130 13.005 C 7.988 12.469,7.980 11.595,8.112 11.065 C 8.513 9.460,9.782 8.300,11.423 8.041 C 11.820 7.979,12.570 8.023,13.005 8.134 " fill="var(--db-icon-color, currentColor)" stroke="none" fill-rule="evenodd"></path></svg>