<svg id="icon" height="32" viewBox="0 0 32 32" width="32" xmlns="http://www.w3.org/2000/svg"><path d="M13.568 6.510 C 12.159 6.615,9.891 7.277,9.428 7.719 C 8.796 8.321,9.241 9.387,10.123 9.387 C 10.310 9.387,10.541 9.321,10.939 9.155 C 12.080 8.679,13.125 8.465,14.293 8.467 C 15.398 8.470,16.072 8.635,16.741 9.067 C 17.232 9.385,17.573 9.772,17.843 10.320 C 18.148 10.938,18.248 11.419,18.253 12.293 C 18.259 13.356,18.088 14.058,17.552 15.173 C 16.510 17.341,14.281 19.618,10.276 22.606 C 9.768 22.986,9.289 23.371,9.211 23.463 C 8.853 23.889,9.019 24.632,9.529 24.885 C 9.725 24.983,9.946 24.987,15.200 25.001 C 21.272 25.018,20.949 25.036,21.275 24.664 C 21.657 24.229,21.597 23.620,21.138 23.269 L 20.942 23.120 16.913 23.093 L 12.884 23.067 13.896 22.216 C 15.100 21.202,17.177 19.142,17.814 18.329 C 19.080 16.713,19.787 15.308,20.111 13.760 C 20.265 13.025,20.280 11.723,20.143 11.029 C 19.949 10.052,19.627 9.303,19.096 8.599 C 17.941 7.066,15.994 6.331,13.568 6.510 M25.627 23.022 C 25.303 23.193,25.113 23.461,25.040 23.847 C 24.931 24.430,25.487 25.064,26.107 25.064 C 26.723 25.064,27.276 24.437,27.180 23.846 C 27.132 23.548,26.881 23.196,26.618 23.057 C 26.337 22.909,25.872 22.893,25.627 23.022 " fill="var(--db-icon-color, currentColor)" stroke="none" fill-rule="evenodd"></path></svg>