<svg id="icon" height="24" viewBox="0 0 24 24" width="24" xmlns="http://www.w3.org/2000/svg"><path d="M11.740 5.025 C 11.587 5.060,7.499 7.236,7.345 7.364 C 7.160 7.518,7.001 7.839,7.001 8.060 C 7.000 8.775,7.657 9.282,8.308 9.067 C 8.413 9.032,9.027 8.723,9.670 8.381 C 10.314 8.038,10.867 7.747,10.900 7.734 C 10.953 7.714,10.960 8.248,10.960 12.356 L 10.960 17.000 9.410 17.000 C 8.466 17.000,7.802 17.017,7.711 17.042 C 7.499 17.101,7.237 17.314,7.120 17.522 C 7.038 17.668,7.020 17.753,7.021 18.000 C 7.022 18.431,7.187 18.707,7.560 18.905 C 7.694 18.977,7.881 18.980,12.000 18.980 C 16.119 18.980,16.306 18.977,16.440 18.905 C 16.813 18.707,16.978 18.431,16.979 18.000 C 16.980 17.753,16.962 17.668,16.880 17.522 C 16.763 17.314,16.501 17.101,16.289 17.042 C 16.198 17.017,15.528 17.000,14.570 17.000 L 13.000 17.000 13.000 11.435 C 13.000 7.285,12.988 5.829,12.953 5.712 C 12.893 5.512,12.637 5.221,12.428 5.114 C 12.271 5.034,11.905 4.987,11.740 5.025 M19.665 17.056 C 19.447 17.138,19.237 17.317,19.120 17.524 C 18.991 17.751,18.979 18.219,19.095 18.440 C 19.292 18.813,19.570 18.978,20.000 18.978 C 20.333 18.978,20.535 18.899,20.725 18.694 C 20.920 18.484,20.978 18.324,20.978 18.000 C 20.978 17.565,20.813 17.293,20.427 17.093 C 20.255 17.005,19.856 16.985,19.665 17.056 " fill="var(--db-icon-color, currentColor)" stroke="none" fill-rule="evenodd"></path></svg>