<svg id="icon" height="32" viewBox="0 0 32 32" width="32" xmlns="http://www.w3.org/2000/svg"><path d="M6.091 6.135 C 5.152 6.380,4.311 7.070,3.858 7.964 C 3.540 8.591,3.426 9.635,3.601 10.322 C 3.900 11.506,4.837 12.497,5.989 12.848 C 7.638 13.350,9.412 12.554,10.162 10.974 C 10.644 9.959,10.600 8.807,10.040 7.787 C 9.626 7.032,8.672 6.306,7.834 6.109 C 7.360 5.997,6.571 6.009,6.091 6.135 M15.022 6.111 C 14.460 6.247,13.886 6.587,13.413 7.063 C 12.956 7.524,12.730 7.891,12.525 8.507 C 12.421 8.818,12.400 8.986,12.403 9.520 C 12.405 10.077,12.425 10.216,12.553 10.586 C 12.874 11.512,13.472 12.202,14.307 12.610 C 15.735 13.308,17.248 13.061,18.352 11.949 C 18.827 11.470,19.140 10.902,19.283 10.263 C 19.403 9.721,19.368 8.912,19.204 8.427 C 18.828 7.319,17.870 6.414,16.777 6.134 C 16.278 6.007,15.495 5.996,15.022 6.111 M24.169 6.101 C 23.610 6.243,23.001 6.595,22.560 7.034 C 20.544 9.033,21.567 12.368,24.371 12.936 C 25.144 13.093,25.977 12.955,26.720 12.547 C 27.245 12.259,27.828 11.643,28.099 11.089 C 28.419 10.437,28.497 10.069,28.468 9.361 C 28.429 8.406,28.126 7.710,27.463 7.045 C 27.061 6.642,26.579 6.340,26.080 6.178 C 25.640 6.036,24.596 5.994,24.169 6.101 M7.659 8.176 C 8.164 8.432,8.431 8.843,8.469 9.421 C 8.490 9.745,8.474 9.844,8.362 10.088 C 8.110 10.638,7.598 10.985,7.036 10.986 C 5.813 10.988,5.096 9.686,5.765 8.675 C 6.181 8.048,6.987 7.836,7.659 8.176 M16.486 8.147 C 17.244 8.488,17.573 9.402,17.208 10.149 C 16.683 11.222,15.179 11.283,14.577 10.256 C 14.371 9.903,14.340 9.307,14.508 8.916 C 14.657 8.569,15.065 8.190,15.406 8.080 C 15.718 7.980,16.178 8.009,16.486 8.147 M25.650 8.158 C 26.607 8.646,26.774 9.942,25.969 10.631 C 25.174 11.312,23.976 10.991,23.596 9.996 C 23.486 9.709,23.512 9.126,23.646 8.867 C 23.844 8.485,24.198 8.193,24.640 8.047 C 24.853 7.976,25.415 8.039,25.650 8.158 M4.556 15.041 C 3.446 15.192,2.494 16.040,2.102 17.227 C 2.012 17.497,2.003 17.813,1.986 21.190 C 1.973 23.812,1.985 24.945,2.029 25.156 C 2.214 26.049,3.331 26.286,3.827 25.536 L 3.973 25.315 4.000 21.524 L 4.027 17.733 4.173 17.485 C 4.274 17.313,4.389 17.203,4.549 17.125 C 4.773 17.017,4.855 17.013,7.006 17.013 C 9.084 17.013,9.244 17.020,9.429 17.114 C 9.655 17.230,9.764 17.342,9.887 17.584 C 9.964 17.736,9.973 18.139,9.973 21.328 C 9.973 23.761,9.992 24.990,10.033 25.180 C 10.225 26.073,11.369 26.278,11.850 25.506 L 11.973 25.307 11.989 21.573 C 12.000 19.038,11.986 17.729,11.946 17.493 C 11.765 16.419,10.915 15.472,9.813 15.115 C 9.553 15.031,9.260 15.019,7.200 15.008 C 5.924 15.002,4.734 15.016,4.556 15.041 M14.750 15.044 C 13.787 15.282,13.762 16.622,14.715 16.951 C 14.838 16.993,15.428 17.014,16.555 17.015 C 18.428 17.016,18.512 17.031,18.806 17.417 L 18.960 17.618 18.987 21.436 L 19.013 25.253 19.155 25.494 C 19.560 26.183,20.517 26.148,20.875 25.430 L 21.013 25.152 21.012 21.443 C 21.012 18.467,20.997 17.664,20.937 17.381 C 20.715 16.334,19.898 15.458,18.827 15.117 C 18.576 15.037,18.271 15.021,16.747 15.008 C 15.711 14.999,14.872 15.014,14.750 15.044 M23.740 15.038 C 23.220 15.168,22.896 15.732,23.038 16.261 C 23.116 16.549,23.434 16.878,23.707 16.954 C 23.841 16.991,24.528 17.013,25.562 17.013 C 27.287 17.013,27.434 17.031,27.697 17.269 C 27.982 17.526,27.971 17.381,28.000 21.502 L 28.027 25.324 28.187 25.551 C 28.387 25.835,28.671 25.986,29.006 25.986 C 29.480 25.986,29.864 25.659,29.973 25.163 C 30.018 24.958,30.030 23.863,30.015 21.173 C 29.997 17.777,29.988 17.442,29.899 17.173 C 29.573 16.179,28.820 15.427,27.840 15.116 C 27.590 15.037,27.280 15.021,25.733 15.008 C 24.736 14.999,23.839 15.013,23.740 15.038 " fill="var(--db-icon-color, currentColor)" stroke="none" fill-rule="evenodd"></path></svg>