<svg id="icon" height="24" viewBox="0 0 24 24" width="24" xmlns="http://www.w3.org/2000/svg"><path d="M11.577 4.135 C 11.466 4.187,11.317 4.299,11.247 4.384 C 10.981 4.706,10.998 4.165,11.010 12.082 C 11.020 19.090,11.022 19.264,11.097 19.416 C 11.196 19.615,11.385 19.804,11.584 19.903 C 11.820 20.019,12.207 20.009,12.461 19.878 C 12.684 19.763,12.896 19.512,12.958 19.289 C 13.020 19.066,13.016 4.922,12.954 4.714 C 12.793 4.177,12.107 3.889,11.577 4.135 M17.780 7.024 C 17.146 7.113,16.680 7.256,16.188 7.513 C 15.478 7.883,15.189 8.217,15.186 8.672 C 15.182 9.220,15.617 9.677,16.145 9.679 C 16.388 9.680,16.644 9.597,16.827 9.457 C 17.143 9.217,17.779 9.002,18.183 9.001 C 18.605 8.999,19.014 9.251,19.185 9.618 C 19.371 10.017,19.298 10.642,18.994 11.258 C 18.576 12.106,17.774 13.005,15.980 14.639 C 15.194 15.356,15.140 15.415,15.060 15.641 C 14.933 16.000,15.006 16.349,15.269 16.641 C 15.585 16.994,15.464 16.980,18.300 16.980 C 21.039 16.980,21.028 16.981,21.320 16.731 C 21.565 16.521,21.658 16.316,21.658 15.980 C 21.658 15.661,21.576 15.465,21.354 15.252 C 21.100 15.009,21.043 15.000,19.761 15.000 C 19.123 15.000,18.600 14.989,18.600 14.976 C 18.600 14.963,18.809 14.734,19.064 14.466 C 20.123 13.358,20.774 12.394,21.077 11.489 C 21.232 11.029,21.287 10.677,21.289 10.140 C 21.291 9.686,21.278 9.574,21.183 9.261 C 20.859 8.184,20.090 7.418,19.033 7.119 C 18.748 7.039,18.049 6.985,17.780 7.024 M3.880 7.461 C 2.487 7.921,2.405 7.964,2.224 8.328 C 1.910 8.956,2.328 9.686,3.036 9.749 C 3.224 9.765,3.344 9.741,3.780 9.599 C 4.066 9.506,4.322 9.421,4.350 9.410 C 4.390 9.395,4.400 9.968,4.400 12.192 L 4.400 14.993 3.570 15.007 C 2.803 15.020,2.727 15.028,2.572 15.110 C 2.183 15.317,1.970 15.694,2.012 16.100 C 2.050 16.477,2.254 16.760,2.600 16.917 C 2.775 16.996,2.850 16.998,5.400 16.999 L 8.020 16.999 8.223 16.905 C 8.839 16.618,8.980 15.831,8.506 15.326 C 8.240 15.044,8.153 15.023,7.231 15.007 L 6.402 14.993 6.391 11.347 C 6.379 7.297,6.400 7.606,6.112 7.318 C 5.918 7.125,5.703 7.042,5.400 7.043 C 5.180 7.045,4.947 7.108,3.880 7.461 " fill="var(--db-icon-color, currentColor)" stroke="none" fill-rule="evenodd"></path></svg>