<svg id="icon" height="20" viewBox="0 0 20 20" width="20" xmlns="http://www.w3.org/2000/svg"><path d="M9.333 3.538 C 8.096 3.664,6.877 4.169,5.900 4.957 C 5.606 5.194,5.079 5.732,4.862 6.017 C 3.807 7.397,3.336 9.122,3.553 10.805 C 3.801 12.719,4.837 14.379,6.450 15.442 C 7.937 16.423,9.841 16.742,11.583 16.301 C 13.657 15.776,15.336 14.277,16.083 12.283 C 16.873 10.176,16.518 7.822,15.138 6.017 C 14.921 5.732,14.394 5.194,14.100 4.957 C 12.764 3.878,11.036 3.364,9.333 3.538 M10.891 5.598 C 12.648 5.958,14.025 7.334,14.405 9.109 C 14.509 9.594,14.509 10.406,14.405 10.891 C 14.065 12.479,12.928 13.759,11.407 14.266 C 10.887 14.439,10.603 14.483,10.000 14.483 C 9.397 14.483,9.113 14.439,8.593 14.266 C 7.480 13.895,6.542 13.090,6.011 12.050 C 5.646 11.335,5.521 10.814,5.521 10.000 C 5.521 9.399,5.584 9.002,5.754 8.526 C 5.972 7.916,6.427 7.206,6.871 6.781 C 7.608 6.076,8.510 5.655,9.567 5.521 C 9.829 5.488,10.561 5.530,10.891 5.598 M9.567 8.052 C 9.295 8.110,8.865 8.322,8.663 8.498 C 8.452 8.680,8.219 9.033,8.110 9.333 C 8.030 9.555,8.020 9.631,8.020 10.000 C 8.020 10.370,8.030 10.445,8.111 10.667 C 8.204 10.923,8.351 11.170,8.532 11.377 C 8.688 11.554,9.054 11.789,9.333 11.890 C 9.555 11.970,9.631 11.980,10.000 11.980 C 10.369 11.980,10.445 11.970,10.667 11.890 C 11.253 11.677,11.675 11.255,11.889 10.667 C 11.970 10.445,11.980 10.370,11.980 10.000 C 11.980 9.631,11.970 9.555,11.890 9.333 C 11.781 9.033,11.548 8.680,11.337 8.498 C 10.879 8.100,10.171 7.922,9.567 8.052 " fill="var(--db-icon-color, currentColor)" stroke="none" fill-rule="evenodd"></path></svg>