<svg id="icon" height="24" viewBox="0 0 24 24" width="24" xmlns="http://www.w3.org/2000/svg"><path d="M6.410 2.040 C 5.541 2.162,4.759 2.549,4.158 3.155 C 3.638 3.679,3.315 4.257,3.116 5.023 C 2.991 5.501,2.980 6.422,3.095 6.880 C 3.192 7.269,3.373 7.710,3.577 8.056 C 3.768 8.380,4.266 8.923,4.609 9.180 C 4.923 9.417,5.490 9.692,5.940 9.827 C 6.272 9.926,6.355 9.935,7.000 9.935 C 7.648 9.935,7.727 9.927,8.060 9.826 C 9.377 9.426,10.352 8.502,10.758 7.270 L 10.847 7.000 12.996 7.000 C 14.375 7.000,15.230 7.016,15.383 7.044 C 16.175 7.189,16.843 7.893,16.971 8.718 C 17.114 9.644,16.567 10.547,15.654 10.892 C 15.422 10.979,15.391 10.980,12.400 11.003 C 9.446 11.025,9.373 11.027,9.042 11.114 C 8.356 11.294,7.669 11.687,7.171 12.185 C 5.952 13.404,5.656 15.285,6.440 16.840 C 6.620 17.198,6.766 17.402,7.075 17.730 C 7.696 18.389,8.432 18.787,9.315 18.941 C 9.595 18.990,10.309 19.000,13.615 19.000 L 17.579 19.000 16.874 19.710 C 16.485 20.101,16.135 20.483,16.095 20.560 C 16.043 20.659,16.021 20.788,16.021 21.000 C 16.020 21.257,16.036 21.327,16.131 21.489 C 16.373 21.901,16.833 22.084,17.295 21.953 C 17.435 21.914,17.709 21.659,19.113 20.263 C 20.022 19.359,20.814 18.539,20.873 18.440 C 21.009 18.210,21.022 17.827,20.902 17.580 C 20.808 17.387,17.678 14.271,17.426 14.120 C 17.203 13.986,16.780 13.980,16.540 14.108 C 16.102 14.340,15.918 14.791,16.046 15.312 C 16.088 15.480,16.172 15.580,16.835 16.251 L 17.578 17.002 13.559 16.991 L 9.540 16.980 9.300 16.884 C 8.771 16.673,8.444 16.377,8.216 15.900 C 7.833 15.100,7.980 14.213,8.596 13.596 C 8.894 13.299,9.238 13.113,9.617 13.043 C 9.773 13.015,10.802 13.000,12.603 13.000 C 14.888 13.000,15.405 12.990,15.670 12.940 C 17.208 12.648,18.363 11.593,18.825 10.060 C 18.924 9.732,18.934 9.639,18.937 9.020 C 18.940 8.228,18.876 7.918,18.581 7.293 C 18.367 6.840,18.224 6.630,17.885 6.270 C 17.246 5.593,16.434 5.167,15.545 5.043 C 15.353 5.017,14.397 5.000,13.044 5.000 L 10.854 5.000 10.728 4.633 C 10.543 4.094,10.284 3.685,9.840 3.235 C 9.264 2.651,8.711 2.326,7.960 2.132 C 7.534 2.023,6.831 1.981,6.410 2.040 M7.365 4.040 C 7.694 4.101,8.121 4.330,8.369 4.577 C 9.151 5.359,9.155 6.606,8.379 7.380 C 7.988 7.771,7.538 7.960,7.000 7.960 C 6.453 7.960,5.997 7.766,5.597 7.364 C 4.807 6.570,4.807 5.386,5.596 4.596 C 6.079 4.114,6.703 3.917,7.365 4.040 " fill="var(--db-icon-color, currentColor)" stroke="none" fill-rule="evenodd"></path></svg>