<svg id="icon" height="32" viewBox="0 0 32 32" width="32" xmlns="http://www.w3.org/2000/svg"><path d="M13.680 7.124 C 12.565 7.727,11.249 8.439,10.755 8.707 C 9.793 9.228,9.652 9.351,9.542 9.763 C 9.445 10.124,9.514 10.381,9.779 10.646 C 10.031 10.898,10.360 11.015,10.662 10.961 C 10.815 10.933,14.102 9.213,14.813 8.788 L 14.987 8.685 14.987 15.862 L 14.987 23.040 12.398 23.040 C 9.654 23.040,9.593 23.045,9.316 23.295 C 8.878 23.691,8.931 24.463,9.422 24.837 L 9.618 24.987 15.911 25.001 L 22.204 25.015 22.441 24.900 C 23.114 24.574,23.175 23.627,22.550 23.213 L 22.328 23.067 19.671 23.052 L 17.013 23.037 17.013 14.957 C 17.013 6.101,17.034 6.676,16.704 6.329 C 16.492 6.105,16.305 6.027,15.989 6.027 C 15.723 6.027,15.588 6.092,13.680 7.124 M26.587 23.125 C 25.927 23.485,25.810 24.282,26.346 24.767 C 26.795 25.172,27.484 25.069,27.845 24.542 C 27.946 24.394,27.973 24.286,27.973 24.027 C 27.973 23.652,27.846 23.413,27.533 23.198 C 27.296 23.036,26.818 22.999,26.587 23.125 " fill="var(--db-icon-color, currentColor)" stroke="none" fill-rule="evenodd"></path></svg>