<svg id="icon" height="20" viewBox="0 0 20 20" width="20" xmlns="http://www.w3.org/2000/svg"><path d="M9.647 2.059 C 9.553 2.092,9.418 2.167,9.347 2.224 C 9.275 2.281,8.750 2.798,8.180 3.372 C 7.000 4.560,7.016 4.537,7.017 5.033 C 7.018 5.242,7.034 5.352,7.081 5.450 C 7.122 5.536,7.549 5.989,8.280 6.721 C 9.335 7.777,9.431 7.864,9.610 7.929 C 10.113 8.114,10.672 7.917,10.886 7.481 C 10.951 7.348,10.981 7.226,10.992 7.056 C 11.014 6.703,10.925 6.493,10.639 6.214 L 10.417 5.998 12.333 6.007 C 14.214 6.016,14.253 6.018,14.405 6.088 C 14.603 6.180,14.820 6.397,14.912 6.595 C 14.982 6.748,14.984 6.786,15.000 9.000 L 15.017 11.250 15.094 11.407 C 15.208 11.638,15.495 11.887,15.725 11.954 C 16.195 12.091,16.670 11.881,16.905 11.433 L 16.983 11.283 16.993 9.033 C 16.999 7.554,16.990 6.703,16.966 6.550 C 16.914 6.206,16.731 5.703,16.546 5.394 C 16.242 4.886,15.679 4.399,15.153 4.188 C 14.714 4.012,14.533 4.000,12.387 4.000 L 10.417 4.000 10.627 3.799 C 10.873 3.563,10.968 3.373,10.990 3.067 C 11.020 2.668,10.808 2.290,10.456 2.111 C 10.231 1.997,9.882 1.974,9.647 2.059 M3.750 4.029 C 3.485 4.099,3.237 4.299,3.107 4.547 C 3.030 4.692,3.018 4.757,3.018 5.000 C 3.018 5.242,3.030 5.308,3.106 5.450 C 3.211 5.649,3.362 5.798,3.567 5.904 C 3.690 5.968,3.768 5.983,4.000 5.983 C 4.232 5.983,4.310 5.968,4.433 5.904 C 4.638 5.798,4.789 5.649,4.894 5.450 C 4.970 5.308,4.982 5.242,4.982 5.000 C 4.982 4.757,4.970 4.692,4.893 4.547 C 4.794 4.358,4.633 4.202,4.429 4.098 C 4.281 4.022,3.916 3.985,3.750 4.029 M3.750 8.029 C 3.485 8.099,3.237 8.298,3.106 8.547 L 3.017 8.717 3.017 11.100 C 3.017 13.735,3.005 13.567,3.238 14.174 C 3.506 14.869,4.109 15.492,4.800 15.788 C 5.281 15.995,5.351 16.000,7.574 16.000 L 9.583 16.000 9.382 16.193 C 9.099 16.464,9.018 16.642,9.018 17.000 C 9.017 17.327,9.084 17.512,9.269 17.697 C 9.461 17.889,9.637 17.950,10.000 17.950 C 10.505 17.950,10.482 17.966,11.718 16.724 C 12.606 15.831,12.802 15.617,12.878 15.457 C 13.044 15.110,13.031 14.798,12.838 14.508 C 12.677 14.264,10.671 12.224,10.487 12.117 C 10.331 12.025,10.291 12.017,10.017 12.018 C 9.759 12.019,9.693 12.031,9.548 12.107 C 9.112 12.334,8.898 12.856,9.054 13.313 C 9.090 13.419,9.185 13.555,9.345 13.727 L 9.583 13.983 7.718 13.992 C 5.651 14.001,5.637 14.000,5.361 13.790 C 5.281 13.730,5.172 13.600,5.117 13.499 L 5.017 13.317 5.000 11.033 L 4.983 8.750 4.907 8.583 C 4.749 8.240,4.451 8.038,4.072 8.016 C 3.950 8.009,3.805 8.015,3.750 8.029 M15.750 14.029 C 15.485 14.099,15.237 14.299,15.107 14.547 C 15.030 14.692,15.018 14.757,15.018 15.000 C 15.018 15.242,15.030 15.308,15.106 15.450 C 15.211 15.649,15.362 15.798,15.567 15.904 C 15.782 16.017,16.218 16.017,16.433 15.904 C 16.638 15.798,16.789 15.649,16.894 15.450 C 16.970 15.308,16.982 15.242,16.982 15.000 C 16.982 14.757,16.970 14.692,16.893 14.547 C 16.794 14.358,16.633 14.202,16.429 14.098 C 16.281 14.022,15.916 13.985,15.750 14.029 " fill="var(--db-icon-color, currentColor)" stroke="none" fill-rule="evenodd"></path></svg>