<svg id="icon" height="32" viewBox="0 0 32 32" width="32" xmlns="http://www.w3.org/2000/svg"><path d="M15.093 8.058 C 13.380 8.250,11.745 9.023,10.487 10.238 C 9.261 11.422,8.523 12.747,8.151 14.431 C 7.982 15.198,7.982 16.802,8.151 17.569 C 8.504 19.168,9.172 20.418,10.288 21.565 C 11.438 22.747,12.775 23.484,14.431 23.849 C 15.198 24.018,16.802 24.018,17.569 23.849 C 19.225 23.484,20.562 22.747,21.712 21.565 C 22.828 20.418,23.496 19.168,23.849 17.569 C 24.018 16.802,24.018 15.198,23.849 14.431 C 23.476 12.743,22.733 11.410,21.508 10.235 C 19.781 8.579,17.467 7.794,15.093 8.058 M17.073 10.105 C 19.485 10.527,21.473 12.515,21.895 14.927 C 22.056 15.844,21.971 17.069,21.689 17.893 C 20.561 21.196,16.967 22.845,13.725 21.547 C 11.880 20.808,10.449 19.040,10.105 17.073 C 10.005 16.500,10.005 15.500,10.105 14.927 C 10.524 12.532,12.504 10.540,14.898 10.106 C 15.423 10.010,16.531 10.010,17.073 10.105 " fill="var(--db-icon-color, currentColor)" stroke="none" fill-rule="evenodd"></path></svg>