<svg id="icon" height="24" viewBox="0 0 24 24" width="24" xmlns="http://www.w3.org/2000/svg"><path d="M11.220 2.044 C 8.450 2.336,6.177 4.036,5.325 6.452 C 5.089 7.122,5.025 7.533,5.025 8.380 C 5.025 9.016,5.039 9.208,5.114 9.560 C 5.234 10.121,5.503 10.917,5.769 11.502 C 6.107 12.241,11.111 21.522,11.254 21.674 C 11.710 22.155,12.459 22.082,12.833 21.520 C 13.025 21.232,17.868 12.313,18.144 11.740 C 18.743 10.496,19.041 9.182,18.987 8.020 C 18.898 6.100,17.904 4.414,16.180 3.259 C 14.751 2.302,12.954 1.862,11.220 2.044 M12.365 7.041 C 13.392 7.234,14.128 8.262,13.971 9.282 C 13.791 10.440,12.642 11.222,11.538 10.939 C 10.538 10.682,9.876 9.708,10.029 8.718 C 10.202 7.601,11.270 6.834,12.365 7.041 " fill="var(--db-icon-color, currentColor)" stroke="none" fill-rule="evenodd"></path></svg>