<svg id="icon" height="32" viewBox="0 0 32 32" width="32" xmlns="http://www.w3.org/2000/svg"><path d="M8.000 2.107 C 6.821 2.345,5.730 3.038,4.975 4.027 C 4.179 5.070,3.825 6.650,4.095 7.953 C 4.429 9.562,5.414 10.837,6.854 11.527 C 7.732 11.947,8.631 12.106,9.530 11.999 C 11.639 11.747,13.312 10.289,13.845 8.240 C 13.957 7.807,13.984 7.581,13.985 7.040 C 13.988 5.979,13.733 5.113,13.171 4.272 C 12.434 3.170,11.260 2.366,10.016 2.111 C 9.519 2.009,8.493 2.007,8.000 2.107 M9.924 4.156 C 11.350 4.600,12.240 6.144,11.926 7.627 C 11.574 9.286,9.954 10.329,8.325 9.945 C 7.275 9.697,6.385 8.819,6.108 7.757 C 6.005 7.362,6.004 6.622,6.106 6.240 C 6.384 5.194,7.290 4.315,8.335 4.077 C 8.766 3.979,9.468 4.014,9.924 4.156 M16.560 6.113 C 16.304 6.251,16.169 6.400,16.074 6.647 C 15.905 7.092,16.061 7.563,16.471 7.845 L 16.659 7.973 18.876 8.001 L 21.093 8.028 21.485 8.170 C 22.060 8.379,22.418 8.617,22.852 9.077 C 24.196 10.501,24.160 12.622,22.769 14.025 C 22.418 14.378,21.845 14.728,21.360 14.885 C 21.197 14.938,20.157 14.962,16.933 14.989 C 12.431 15.027,12.527 15.021,11.715 15.303 C 9.959 15.912,8.609 17.406,8.145 19.253 C 7.982 19.900,7.982 21.114,8.145 21.760 C 8.303 22.388,8.577 23.014,8.923 23.533 C 9.835 24.902,11.289 25.786,12.933 25.972 C 13.228 26.005,15.566 26.026,18.985 26.026 L 24.557 26.027 23.322 27.267 C 22.040 28.555,22.001 28.607,22.007 29.047 C 22.016 29.727,22.794 30.196,23.420 29.899 C 23.520 29.852,24.566 28.847,25.743 27.666 C 28.087 25.317,28.055 25.358,27.976 24.819 C 27.938 24.563,27.912 24.534,25.769 22.381 C 24.321 20.926,23.529 20.168,23.387 20.102 C 23.117 19.976,22.858 19.975,22.587 20.101 C 22.044 20.351,21.856 20.961,22.148 21.525 C 22.195 21.615,22.766 22.210,23.417 22.846 L 24.600 24.003 18.687 23.988 L 12.773 23.973 12.400 23.848 C 11.736 23.625,11.313 23.369,10.849 22.907 C 10.122 22.185,9.770 21.290,9.831 20.320 C 9.932 18.719,11.071 17.433,12.692 17.089 C 12.970 17.030,13.817 17.015,16.881 17.014 C 19.212 17.014,20.901 16.991,21.175 16.958 C 24.063 16.603,26.092 14.182,25.956 11.253 C 25.893 9.907,25.396 8.742,24.461 7.753 C 23.743 6.992,22.975 6.519,21.947 6.205 L 21.467 6.058 19.093 6.042 C 16.990 6.029,16.702 6.037,16.560 6.113 " fill="var(--db-icon-color, currentColor)" stroke="none" fill-rule="evenodd"></path></svg>