<svg id="icon" height="20" viewBox="0 0 20 20" width="20" xmlns="http://www.w3.org/2000/svg"><path d="M15.717 3.044 C 15.643 3.069,15.546 3.108,15.500 3.131 C 15.454 3.155,13.748 4.840,11.710 6.877 C 9.671 8.914,7.998 10.574,7.992 10.565 C 7.986 10.557,7.947 10.442,7.906 10.310 C 7.724 9.729,7.234 9.266,6.598 9.077 C 6.449 9.032,6.195 9.020,5.153 9.009 C 4.301 8.999,3.819 9.007,3.672 9.033 C 2.978 9.154,2.378 9.649,2.107 10.326 L 2.017 10.550 2.017 12.900 L 2.017 15.250 2.095 15.397 C 2.257 15.701,2.674 16.000,2.935 16.000 C 2.982 16.000,3.000 16.023,3.000 16.082 C 3.000 16.251,3.141 16.544,3.298 16.702 C 3.581 16.984,3.975 17.069,4.357 16.930 C 4.543 16.862,4.778 16.631,10.676 10.738 C 15.831 5.587,16.816 4.588,16.892 4.435 C 17.206 3.796,16.773 3.056,16.059 3.013 C 15.940 3.006,15.793 3.019,15.717 3.044 M4.700 4.037 C 4.447 4.086,4.131 4.263,3.929 4.469 C 3.120 5.293,3.519 6.654,4.656 6.950 C 5.176 7.085,5.714 6.926,6.082 6.529 C 6.448 6.134,6.581 5.624,6.449 5.118 C 6.375 4.836,6.250 4.626,6.029 4.415 C 5.669 4.072,5.202 3.939,4.700 4.037 M10.200 4.037 C 9.953 4.085,9.631 4.264,9.431 4.464 C 8.855 5.041,8.863 5.967,9.448 6.552 C 10.049 7.153,11.013 7.143,11.582 6.529 C 11.947 6.135,12.081 5.623,11.950 5.123 C 11.879 4.848,11.783 4.679,11.579 4.464 C 11.222 4.091,10.720 3.935,10.200 4.037 M15.281 9.021 C 15.243 9.029,15.056 9.193,14.865 9.385 L 14.517 9.735 14.517 10.009 C 14.518 10.241,14.532 10.310,14.607 10.454 C 14.657 10.548,14.764 10.684,14.847 10.757 C 15.051 10.937,15.265 11.000,15.670 11.000 L 16.000 11.000 16.000 13.082 C 16.000 15.097,16.002 15.170,16.068 15.346 C 16.263 15.868,16.901 16.131,17.400 15.896 C 17.642 15.782,17.850 15.565,17.935 15.339 C 18.000 15.163,18.002 15.100,17.993 12.904 L 17.983 10.650 17.904 10.452 C 17.646 9.812,17.174 9.341,16.548 9.100 C 16.379 9.034,16.278 9.022,15.850 9.014 C 15.575 9.009,15.319 9.012,15.281 9.021 M6.000 11.792 L 6.000 12.584 5.000 13.583 L 4.000 14.583 4.000 12.791 L 4.000 11.000 5.000 11.000 L 6.000 11.000 6.000 11.792 M11.990 12.260 L 10.996 13.254 11.006 14.269 L 11.017 15.283 11.120 15.467 C 11.457 16.066,12.249 16.164,12.732 15.668 C 13.010 15.383,13.002 15.460,12.992 13.224 L 12.983 11.266 11.990 12.260 " fill="var(--db-icon-color, currentColor)" stroke="none" fill-rule="evenodd"></path></svg>