<svg id="icon" height="32" viewBox="0 0 32 32" width="32" xmlns="http://www.w3.org/2000/svg"><path d="M6.091 6.135 C 5.152 6.380,4.311 7.070,3.858 7.964 C 3.540 8.591,3.426 9.635,3.601 10.322 C 3.900 11.506,4.837 12.497,5.989 12.848 C 7.638 13.350,9.412 12.554,10.162 10.974 C 10.644 9.959,10.600 8.807,10.040 7.787 C 9.626 7.032,8.672 6.306,7.834 6.109 C 7.360 5.997,6.571 6.009,6.091 6.135 M7.659 8.176 C 8.164 8.432,8.431 8.843,8.469 9.421 C 8.490 9.745,8.474 9.844,8.362 10.088 C 8.110 10.638,7.598 10.985,7.036 10.986 C 5.813 10.988,5.096 9.686,5.765 8.675 C 6.181 8.048,6.987 7.836,7.659 8.176 M4.556 15.041 C 3.446 15.192,2.494 16.040,2.102 17.227 C 2.012 17.497,2.003 17.813,1.986 21.190 C 1.973 23.812,1.985 24.945,2.029 25.156 C 2.214 26.049,3.331 26.286,3.827 25.536 L 3.973 25.315 4.000 21.524 L 4.027 17.733 4.173 17.485 C 4.274 17.313,4.389 17.203,4.549 17.125 C 4.773 17.017,4.855 17.013,7.006 17.013 C 9.084 17.013,9.244 17.020,9.429 17.114 C 9.655 17.230,9.764 17.342,9.887 17.584 C 9.964 17.736,9.973 18.139,9.973 21.328 C 9.973 23.761,9.992 24.990,10.033 25.180 C 10.225 26.073,11.369 26.278,11.850 25.506 L 11.973 25.307 11.989 21.573 C 12.000 19.038,11.986 17.729,11.946 17.493 C 11.765 16.419,10.915 15.472,9.813 15.115 C 9.553 15.031,9.260 15.019,7.200 15.008 C 5.924 15.002,4.734 15.016,4.556 15.041 " fill="var(--db-icon-color, currentColor)" stroke="none" fill-rule="evenodd"></path></svg>