<svg id="icon" height="20" viewBox="0 0 20 20" width="20" xmlns="http://www.w3.org/2000/svg"><path d="M14.824 7.034 C 14.641 7.080,14.512 7.154,14.343 7.310 C 14.116 7.520,14.052 7.666,14.051 7.983 C 14.050 8.314,14.118 8.467,14.404 8.779 L 14.605 8.999 10.677 9.008 L 6.750 9.017 6.560 9.110 C 5.815 9.476,5.816 10.525,6.561 10.890 L 6.750 10.983 10.678 10.992 L 14.606 11.001 14.428 11.194 C 14.330 11.300,14.205 11.469,14.150 11.568 C 14.062 11.728,14.050 11.783,14.050 12.019 C 14.050 12.252,14.063 12.314,14.150 12.484 C 14.334 12.844,14.694 13.027,15.143 12.989 C 15.310 12.975,15.415 12.945,15.530 12.877 C 15.621 12.822,16.130 12.334,16.745 11.710 C 17.898 10.539,17.955 10.465,17.991 10.067 C 18.013 9.821,17.939 9.574,17.780 9.369 C 17.718 9.289,17.206 8.758,16.644 8.190 C 15.880 7.419,15.583 7.141,15.472 7.092 C 15.300 7.015,15.004 6.989,14.824 7.034 M2.717 9.044 C 2.264 9.193,1.961 9.650,2.009 10.114 C 2.031 10.327,2.154 10.579,2.305 10.721 C 2.789 11.177,3.584 11.043,3.892 10.455 C 4.015 10.220,4.022 9.828,3.906 9.594 C 3.808 9.395,3.606 9.192,3.413 9.098 C 3.229 9.009,2.901 8.984,2.717 9.044 " fill="var(--db-icon-color, currentColor)" stroke="none" fill-rule="evenodd"></path></svg>