<svg id="icon" height="24" viewBox="0 0 24 24" width="24" xmlns="http://www.w3.org/2000/svg"><path d="M5.423 4.581 C 4.663 4.790,4.023 5.437,3.819 6.202 C 3.743 6.489,3.744 6.988,3.823 7.291 C 4.121 8.441,5.304 9.192,6.448 8.956 C 7.260 8.789,7.959 8.113,8.181 7.280 C 8.255 6.999,8.256 6.482,8.181 6.202 C 7.975 5.430,7.330 4.777,6.578 4.581 C 6.292 4.507,5.695 4.507,5.423 4.581 M11.688 4.582 C 10.697 4.849,10.003 5.737,10.001 6.744 C 10.000 7.065,10.128 7.553,10.286 7.834 C 10.447 8.118,10.916 8.585,11.187 8.731 C 11.637 8.972,12.258 9.056,12.740 8.942 C 13.782 8.695,14.482 7.812,14.488 6.740 C 14.491 6.105,14.247 5.556,13.763 5.109 C 13.485 4.852,13.157 4.670,12.812 4.580 C 12.527 4.505,11.969 4.507,11.688 4.582 M17.925 4.581 C 16.793 4.896,16.063 6.053,16.296 7.160 C 16.520 8.226,17.446 8.997,18.504 8.999 C 18.808 9.000,19.302 8.876,19.573 8.731 C 19.902 8.554,20.323 8.111,20.494 7.760 C 20.647 7.449,20.759 7.016,20.759 6.740 C 20.759 6.467,20.647 6.033,20.501 5.736 C 20.266 5.257,19.775 4.821,19.258 4.633 C 18.948 4.519,18.244 4.492,17.925 4.581 M3.580 11.047 C 2.859 11.185,2.199 11.848,2.044 12.592 C 1.985 12.875,1.983 18.077,2.042 18.289 C 2.104 18.512,2.316 18.763,2.539 18.878 L 2.738 18.980 6.019 18.980 L 9.300 18.980 9.460 18.894 C 9.647 18.793,9.801 18.636,9.905 18.440 C 9.976 18.308,9.981 18.144,9.991 15.525 C 10.003 12.497,10.005 12.523,9.772 12.040 C 9.631 11.748,9.242 11.363,8.947 11.224 C 8.491 11.010,8.373 11.001,5.980 11.005 C 4.770 11.007,3.690 11.026,3.580 11.047 M12.735 11.044 C 12.502 11.111,12.229 11.329,12.127 11.529 C 11.910 11.954,11.973 12.339,12.318 12.682 C 12.599 12.962,12.727 13.000,13.390 13.000 C 13.772 13.000,13.922 13.014,13.954 13.053 C 13.984 13.089,14.001 13.891,14.009 15.683 C 14.021 18.560,14.005 18.391,14.307 18.693 C 14.519 18.906,14.699 18.980,15.001 18.980 C 15.203 18.980,15.307 18.957,15.461 18.878 C 15.684 18.763,15.896 18.512,15.958 18.289 C 15.985 18.193,15.999 17.185,15.999 15.460 C 15.999 13.210,15.989 12.739,15.938 12.524 C 15.766 11.794,15.176 11.212,14.451 11.059 C 14.145 10.994,12.942 10.983,12.735 11.044 M18.735 11.044 C 18.502 11.111,18.229 11.329,18.127 11.529 C 17.910 11.954,17.973 12.339,18.318 12.682 C 18.599 12.962,18.727 13.000,19.387 13.000 C 19.736 13.000,19.920 13.016,19.952 13.048 C 19.988 13.084,20.000 13.711,20.000 15.623 C 20.000 18.365,19.998 18.332,20.222 18.626 C 20.462 18.941,20.970 19.084,21.344 18.941 C 21.576 18.852,21.779 18.675,21.892 18.464 C 21.980 18.300,21.980 18.293,21.991 15.551 C 22.001 13.185,21.993 12.764,21.940 12.535 C 21.769 11.796,21.181 11.214,20.451 11.059 C 20.145 10.994,18.942 10.983,18.735 11.044 " fill="var(--db-icon-color, currentColor)" stroke="none" fill-rule="evenodd"></path></svg>