<svg id="icon" height="24" viewBox="0 0 24 24" width="24" xmlns="http://www.w3.org/2000/svg"><path d="M5.424 4.581 C 4.658 4.791,4.024 5.431,3.819 6.202 C 3.743 6.489,3.744 6.988,3.823 7.291 C 4.121 8.441,5.304 9.192,6.448 8.956 C 7.260 8.789,7.959 8.113,8.181 7.280 C 8.250 7.018,8.257 6.566,8.196 6.272 C 8.035 5.492,7.355 4.785,6.574 4.583 C 6.278 4.507,5.698 4.506,5.424 4.581 M11.756 4.562 C 10.738 4.803,10.003 5.717,10.001 6.744 C 10.000 7.048,10.124 7.541,10.269 7.813 C 10.412 8.079,10.921 8.588,11.187 8.731 C 11.459 8.876,11.952 9.000,12.256 8.999 C 13.053 8.997,13.808 8.549,14.211 7.840 C 14.475 7.375,14.564 6.670,14.421 6.175 C 14.196 5.397,13.571 4.777,12.812 4.580 C 12.567 4.516,11.992 4.506,11.756 4.562 M3.580 11.047 C 2.859 11.185,2.199 11.848,2.044 12.592 C 1.985 12.875,1.983 18.077,2.042 18.289 C 2.141 18.648,2.522 18.953,2.918 18.991 C 3.303 19.028,3.716 18.797,3.887 18.449 L 3.980 18.260 4.000 15.640 L 4.020 13.020 6.000 13.020 L 7.980 13.020 8.000 15.660 C 8.019 18.137,8.025 18.309,8.095 18.440 C 8.294 18.814,8.570 18.978,9.000 18.978 C 9.430 18.978,9.706 18.814,9.905 18.440 C 9.976 18.308,9.981 18.144,9.991 15.525 C 10.003 12.497,10.005 12.523,9.772 12.040 C 9.631 11.748,9.242 11.363,8.947 11.224 C 8.491 11.010,8.373 11.001,5.980 11.005 C 4.770 11.007,3.690 11.026,3.580 11.047 M12.735 11.044 C 12.502 11.111,12.229 11.329,12.127 11.529 C 11.910 11.954,11.973 12.339,12.318 12.682 C 12.599 12.962,12.727 13.000,13.390 13.000 C 13.772 13.000,13.922 13.014,13.954 13.053 C 13.984 13.089,14.001 13.891,14.009 15.683 C 14.021 18.560,14.005 18.391,14.307 18.693 C 14.704 19.091,15.308 19.095,15.700 18.702 C 16.009 18.393,16.000 18.494,16.000 15.441 C 16.000 13.142,15.991 12.702,15.939 12.502 C 15.752 11.786,15.187 11.229,14.476 11.062 C 14.188 10.994,12.951 10.981,12.735 11.044 " fill="var(--db-icon-color, currentColor)" stroke="none" fill-rule="evenodd"></path></svg>