<svg id="icon" height="20" viewBox="0 0 20 20" width="20" xmlns="http://www.w3.org/2000/svg"><path d="M4.704 4.036 C 4.478 4.080,4.167 4.241,3.983 4.408 C 3.107 5.204,3.488 6.646,4.656 6.950 C 5.176 7.085,5.714 6.926,6.082 6.529 C 6.447 6.135,6.581 5.623,6.450 5.123 C 6.379 4.848,6.283 4.679,6.079 4.464 C 5.723 4.092,5.219 3.935,4.704 4.036 M10.204 4.036 C 9.978 4.080,9.667 4.241,9.483 4.408 C 8.607 5.204,8.988 6.646,10.156 6.950 C 10.676 7.085,11.214 6.926,11.582 6.529 C 11.947 6.135,12.081 5.623,11.950 5.123 C 11.879 4.848,11.783 4.679,11.579 4.464 C 11.223 4.092,10.719 3.935,10.204 4.036 M15.173 4.036 C 14.801 4.109,14.372 4.425,14.190 4.761 C 13.872 5.344,13.962 6.036,14.418 6.529 C 14.992 7.149,15.945 7.159,16.552 6.552 C 17.158 5.946,17.149 4.992,16.531 4.420 C 16.158 4.074,15.673 3.937,15.173 4.036 M3.589 9.053 C 3.050 9.183,2.504 9.617,2.241 10.122 C 1.998 10.590,2.001 10.549,2.000 12.990 C 2.000 15.132,2.001 15.167,2.071 15.355 C 2.167 15.610,2.391 15.833,2.647 15.929 C 2.840 16.001,2.853 16.002,5.062 15.993 L 7.283 15.983 7.450 15.895 C 7.664 15.780,7.843 15.593,7.940 15.383 C 8.008 15.234,8.017 15.158,8.026 14.650 C 8.031 14.338,8.023 13.311,8.008 12.367 L 7.980 10.650 7.892 10.404 C 7.656 9.745,7.032 9.188,6.375 9.049 C 6.056 8.981,3.871 8.984,3.589 9.053 M10.206 9.047 C 10.004 9.113,9.811 9.255,9.697 9.420 C 9.497 9.712,9.500 9.656,9.500 12.974 L 9.500 16.000 10.811 16.000 C 12.382 16.000,12.371 16.002,12.686 15.686 C 13.015 15.357,13.000 15.491,12.999 12.952 C 12.999 10.538,12.997 10.511,12.780 10.071 C 12.562 9.629,12.090 9.234,11.600 9.083 C 11.345 9.004,10.410 8.981,10.206 9.047 M15.233 9.029 C 14.912 9.135,14.682 9.350,14.571 9.647 C 14.501 9.834,14.500 9.859,14.500 12.920 L 14.500 16.003 15.842 15.992 C 17.405 15.979,17.389 15.982,17.705 15.666 C 18.012 15.360,18.000 15.473,17.999 12.952 C 17.999 11.182,17.990 10.741,17.950 10.554 C 17.807 9.877,17.313 9.331,16.633 9.098 C 16.451 9.035,16.329 9.022,15.867 9.013 C 15.564 9.007,15.279 9.014,15.233 9.029 " fill="var(--db-icon-color, currentColor)" stroke="none" fill-rule="evenodd"></path></svg>