<svg id="icon" height="24" viewBox="0 0 24 24" width="24" xmlns="http://www.w3.org/2000/svg"><path d="M5.424 4.581 C 4.658 4.791,4.024 5.431,3.819 6.202 C 3.743 6.489,3.744 6.988,3.823 7.291 C 4.121 8.441,5.304 9.192,6.448 8.956 C 7.260 8.789,7.959 8.113,8.181 7.280 C 8.250 7.018,8.257 6.566,8.196 6.272 C 8.035 5.492,7.355 4.785,6.574 4.583 C 6.278 4.507,5.698 4.506,5.424 4.581 M11.756 4.562 C 10.738 4.803,10.003 5.717,10.001 6.744 C 10.000 7.048,10.124 7.541,10.269 7.813 C 10.412 8.079,10.921 8.588,11.187 8.731 C 11.459 8.876,11.952 9.000,12.256 8.999 C 13.053 8.997,13.808 8.549,14.211 7.840 C 14.475 7.375,14.564 6.670,14.421 6.175 C 14.196 5.397,13.571 4.777,12.812 4.580 C 12.567 4.516,11.992 4.506,11.756 4.562 M17.925 4.581 C 17.118 4.807,16.468 5.494,16.300 6.300 C 16.226 6.652,16.226 6.828,16.300 7.180 C 16.519 8.222,17.457 8.997,18.504 8.999 C 18.808 9.000,19.302 8.876,19.573 8.731 C 19.902 8.554,20.323 8.111,20.494 7.760 C 20.647 7.449,20.759 7.016,20.759 6.740 C 20.759 6.460,20.646 6.029,20.495 5.729 C 20.250 5.243,19.840 4.877,19.300 4.659 C 19.064 4.565,18.950 4.545,18.580 4.534 C 18.274 4.524,18.074 4.539,17.925 4.581 M3.580 11.047 C 2.859 11.185,2.199 11.848,2.044 12.592 C 1.985 12.875,1.983 18.077,2.042 18.289 C 2.104 18.512,2.316 18.763,2.539 18.878 L 2.738 18.980 6.019 18.980 L 9.300 18.980 9.460 18.894 C 9.647 18.793,9.801 18.636,9.905 18.440 C 9.976 18.308,9.981 18.144,9.991 15.525 C 10.003 12.497,10.005 12.523,9.772 12.040 C 9.631 11.748,9.242 11.363,8.947 11.224 C 8.491 11.010,8.373 11.001,5.980 11.005 C 4.770 11.007,3.690 11.026,3.580 11.047 M12.735 11.044 C 12.497 11.112,12.229 11.329,12.122 11.539 L 12.020 11.738 12.009 15.369 L 11.999 19.000 13.572 19.000 C 15.362 19.000,15.409 18.994,15.701 18.701 C 16.009 18.393,16.000 18.492,16.000 15.441 C 16.000 13.142,15.991 12.702,15.939 12.502 C 15.752 11.786,15.187 11.229,14.476 11.062 C 14.188 10.994,12.951 10.981,12.735 11.044 M18.735 11.044 C 18.497 11.112,18.229 11.329,18.122 11.539 L 18.020 11.738 18.009 15.369 L 17.999 19.000 19.609 18.999 C 21.143 18.998,21.229 18.994,21.400 18.917 C 21.622 18.816,21.781 18.669,21.894 18.460 C 21.979 18.301,21.980 18.281,21.991 15.542 C 21.999 13.649,21.988 12.716,21.958 12.571 C 21.807 11.844,21.178 11.213,20.451 11.059 C 20.145 10.994,18.942 10.983,18.735 11.044 " fill="var(--db-icon-color, currentColor)" stroke="none" fill-rule="evenodd"></path></svg>