<svg id="icon" height="24" viewBox="0 0 24 24" width="24" xmlns="http://www.w3.org/2000/svg"><path d="M11.220 2.044 C 8.450 2.336,6.177 4.036,5.325 6.452 C 5.089 7.122,5.025 7.533,5.025 8.380 C 5.025 9.016,5.039 9.208,5.114 9.560 C 5.234 10.121,5.503 10.917,5.769 11.502 C 6.107 12.241,11.111 21.522,11.254 21.674 C 11.710 22.155,12.459 22.082,12.833 21.520 C 13.084 21.142,18.141 11.799,18.321 11.380 C 18.572 10.794,18.774 10.161,18.886 9.600 C 19.017 8.952,19.017 7.815,18.887 7.212 C 18.403 4.963,16.733 3.167,14.399 2.387 C 13.438 2.066,12.242 1.937,11.220 2.044 M12.628 4.043 C 14.864 4.292,16.644 5.846,16.945 7.811 C 17.082 8.708,16.900 9.687,16.395 10.760 C 16.171 11.235,12.031 18.960,12.000 18.960 C 11.953 18.960,7.721 11.054,7.530 10.609 C 6.696 8.668,6.875 7.049,8.073 5.684 C 9.119 4.491,10.899 3.850,12.628 4.043 M11.602 7.044 C 11.265 7.110,10.847 7.343,10.585 7.612 C 9.802 8.413,9.808 9.608,10.600 10.400 C 11.398 11.198,12.602 11.198,13.400 10.400 C 14.192 9.608,14.198 8.413,13.415 7.612 C 12.944 7.129,12.260 6.915,11.602 7.044 " fill="var(--db-icon-color, currentColor)" stroke="none" fill-rule="evenodd"></path></svg>