<svg id="icon" height="32" viewBox="0 0 32 32" width="32" xmlns="http://www.w3.org/2000/svg"><path d="M24.340 8.102 C 23.861 8.320,23.646 8.894,23.856 9.397 C 23.899 9.498,24.453 10.131,25.088 10.803 L 26.243 12.027 22.228 12.054 C 17.805 12.084,18.073 12.064,17.325 12.427 C 16.404 12.873,15.643 13.757,15.330 14.743 C 15.134 15.360,15.096 15.939,15.095 18.325 L 15.093 20.463 14.933 20.784 C 14.616 21.417,13.976 21.866,13.237 21.973 C 13.032 22.003,11.147 22.025,8.811 22.026 C 4.925 22.027,4.734 22.031,4.545 22.128 C 3.778 22.519,3.842 23.579,4.652 23.917 C 4.825 23.990,5.384 24.000,9.094 24.000 C 12.753 24.000,13.394 23.988,13.749 23.916 C 15.183 23.622,16.349 22.596,16.836 21.200 L 16.985 20.773 17.015 18.187 C 17.043 15.696,17.049 15.589,17.160 15.313 C 17.394 14.731,17.734 14.380,18.284 14.154 L 18.587 14.029 22.418 14.028 L 26.249 14.027 25.103 15.220 C 24.472 15.876,23.917 16.490,23.868 16.584 C 23.690 16.929,23.777 17.414,24.068 17.694 C 24.404 18.018,24.857 18.071,25.209 17.827 C 25.519 17.611,29.233 13.736,29.373 13.481 C 29.450 13.342,29.493 13.172,29.493 13.013 C 29.493 12.855,29.450 12.684,29.373 12.545 C 29.205 12.238,25.332 8.197,25.102 8.088 C 24.862 7.974,24.613 7.978,24.340 8.102 M4.612 12.075 C 4.523 12.113,4.374 12.220,4.282 12.313 C 3.576 13.019,4.316 14.228,5.279 13.942 C 5.614 13.842,5.904 13.530,5.955 13.214 C 5.975 13.089,5.990 12.980,5.989 12.972 C 5.988 12.964,5.972 12.864,5.953 12.750 C 5.866 12.206,5.144 11.843,4.612 12.075 M8.612 12.075 C 8.381 12.175,8.126 12.448,8.051 12.673 C 7.761 13.551,8.763 14.329,9.537 13.827 C 10.059 13.489,10.141 12.696,9.698 12.283 C 9.417 12.021,8.944 11.930,8.612 12.075 M12.557 12.132 C 11.501 12.663,12.099 14.237,13.246 13.946 C 14.163 13.713,14.251 12.449,13.375 12.083 C 13.094 11.966,12.861 11.980,12.557 12.132 " fill="var(--db-icon-color, currentColor)" stroke="none" fill-rule="evenodd"></path></svg>