<svg id="icon" height="32" viewBox="0 0 32 32" width="32" xmlns="http://www.w3.org/2000/svg"><path d="M6.091 6.135 C 5.152 6.380,4.311 7.070,3.858 7.964 C 3.540 8.591,3.426 9.635,3.601 10.322 C 3.900 11.506,4.837 12.497,5.989 12.848 C 7.599 13.338,9.358 12.579,10.122 11.064 C 10.393 10.526,10.475 10.170,10.477 9.520 C 10.482 8.512,10.164 7.751,9.437 7.031 C 9.104 6.700,8.929 6.575,8.526 6.382 C 8.251 6.250,7.899 6.116,7.744 6.084 C 7.307 5.995,6.534 6.018,6.091 6.135 M15.033 6.105 C 13.771 6.424,12.720 7.522,12.446 8.807 C 12.125 10.316,12.920 11.940,14.309 12.611 C 15.748 13.306,17.249 13.060,18.352 11.949 C 18.827 11.470,19.140 10.902,19.283 10.263 C 19.403 9.721,19.368 8.912,19.204 8.427 C 18.851 7.387,17.972 6.506,16.960 6.178 C 16.511 6.033,15.476 5.993,15.033 6.105 M24.142 6.108 C 23.601 6.244,23.004 6.595,22.555 7.039 C 20.543 9.030,21.571 12.369,24.371 12.936 C 25.144 13.093,25.977 12.955,26.720 12.547 C 27.245 12.259,27.828 11.643,28.099 11.089 C 28.419 10.437,28.497 10.069,28.468 9.361 C 28.429 8.406,28.126 7.710,27.463 7.045 C 27.061 6.642,26.579 6.340,26.080 6.178 C 25.625 6.031,24.596 5.993,24.142 6.108 M4.556 15.041 C 3.446 15.192,2.494 16.040,2.102 17.227 C 2.012 17.497,2.003 17.813,1.986 21.190 C 1.965 25.271,1.968 25.316,2.278 25.659 C 2.622 26.040,2.500 26.031,7.125 26.015 C 11.167 26.000,11.230 25.998,11.440 25.889 C 11.557 25.827,11.725 25.675,11.813 25.551 L 11.973 25.324 11.989 21.582 C 11.999 19.048,11.985 17.728,11.946 17.493 C 11.765 16.420,10.915 15.472,9.813 15.115 C 9.553 15.031,9.260 15.019,7.200 15.008 C 5.924 15.002,4.734 15.016,4.556 15.041 M14.729 15.047 C 14.397 15.125,14.108 15.430,14.032 15.784 C 13.952 16.159,13.950 24.954,14.031 25.244 C 14.062 25.356,14.172 25.542,14.277 25.658 C 14.611 26.027,14.661 26.033,17.634 26.015 L 20.240 26.000 20.488 25.854 C 20.672 25.746,20.772 25.637,20.875 25.430 L 21.013 25.152 21.013 21.466 C 21.013 19.048,20.993 17.671,20.956 17.463 C 20.759 16.389,19.921 15.465,18.827 15.117 C 18.576 15.037,18.272 15.021,16.747 15.008 C 15.667 14.999,14.869 15.014,14.729 15.047 M23.760 15.034 C 23.403 15.126,23.137 15.380,23.042 15.722 C 23.006 15.851,22.987 17.525,22.987 20.536 L 22.987 25.152 23.125 25.430 C 23.228 25.637,23.328 25.746,23.512 25.854 L 23.760 26.000 26.507 26.000 C 29.561 26.000,29.410 26.017,29.748 25.633 C 30.032 25.309,30.037 25.224,30.015 21.173 C 29.997 17.777,29.988 17.442,29.899 17.173 C 29.574 16.183,28.817 15.426,27.840 15.116 C 27.590 15.037,27.280 15.021,25.733 15.008 C 24.736 14.999,23.848 15.011,23.760 15.034 " fill="var(--db-icon-color, currentColor)" stroke="none" fill-rule="evenodd"></path></svg>