<svg id="icon" height="24" viewBox="0 0 24 24" width="24" xmlns="http://www.w3.org/2000/svg"><path d="M19.365 3.281 C 19.251 3.333,18.969 3.578,18.565 3.975 C 18.027 4.504,17.911 4.599,17.733 4.657 C 17.155 4.845,16.519 5.493,16.362 6.053 C 16.318 6.211,15.981 6.563,13.141 9.425 L 9.970 12.620 9.921 12.441 C 9.725 11.723,9.139 11.188,8.407 11.058 C 8.036 10.991,4.129 10.976,3.740 11.039 C 2.988 11.162,2.262 11.837,2.058 12.605 C 2.011 12.781,2.001 13.303,2.000 15.483 C 2.000 18.515,1.987 18.385,2.318 18.694 C 2.554 18.915,2.813 19.000,3.253 19.000 L 3.572 19.000 3.345 19.239 C 3.070 19.526,3.000 19.681,3.000 20.000 C 3.000 20.286,3.061 20.450,3.245 20.659 C 3.513 20.965,3.928 21.070,4.343 20.937 C 4.526 20.878,5.113 20.299,12.571 12.827 C 17.191 8.197,20.639 4.712,20.689 4.620 C 20.812 4.397,20.813 3.967,20.691 3.736 C 20.591 3.546,20.363 3.334,20.174 3.255 C 19.979 3.173,19.574 3.187,19.365 3.281 M5.442 4.602 C 5.049 4.705,4.668 4.937,4.377 5.249 C 4.085 5.562,3.942 5.822,3.839 6.223 C 3.706 6.743,3.759 7.234,4.004 7.750 C 4.187 8.136,4.638 8.580,5.040 8.770 C 5.942 9.197,6.896 9.035,7.586 8.338 C 8.029 7.891,8.249 7.362,8.249 6.748 C 8.248 6.158,8.028 5.632,7.600 5.196 C 7.033 4.618,6.228 4.397,5.442 4.602 M11.686 4.601 C 11.286 4.706,10.992 4.883,10.659 5.217 C 10.332 5.547,10.189 5.796,10.079 6.223 C 9.881 6.997,10.092 7.740,10.676 8.324 C 11.142 8.790,11.645 9.001,12.292 9.000 C 13.292 8.998,14.209 8.250,14.441 7.246 C 14.712 6.070,13.946 4.862,12.750 4.580 C 12.414 4.501,12.041 4.508,11.686 4.601 M18.705 11.059 C 18.490 11.135,18.282 11.313,18.140 11.541 L 18.020 11.734 18.009 15.367 L 17.998 19.000 19.572 19.000 C 21.362 19.000,21.409 18.994,21.701 18.701 C 22.009 18.393,22.000 18.490,22.000 15.461 C 22.000 12.536,22.000 12.536,21.769 12.103 C 21.710 11.991,21.541 11.778,21.395 11.630 C 21.083 11.315,20.689 11.107,20.280 11.042 C 19.895 10.981,18.894 10.992,18.705 11.059 M13.930 14.185 L 12.000 16.003 12.000 17.504 L 12.000 19.004 13.630 18.992 L 15.260 18.980 15.470 18.864 C 15.586 18.800,15.726 18.687,15.782 18.614 C 16.003 18.324,16.000 18.369,16.000 15.497 C 16.000 12.994,15.981 12.491,15.886 12.394 C 15.872 12.379,14.992 13.186,13.930 14.185 " fill="var(--db-icon-color, currentColor)" stroke="none" fill-rule="evenodd"></path></svg>