<svg id="icon" height="24" viewBox="0 0 24 24" width="24" xmlns="http://www.w3.org/2000/svg"><path d="M13.640 2.048 C 13.536 2.081,13.062 2.528,11.811 3.774 C 9.984 5.593,10.000 5.574,10.000 6.002 C 10.000 6.419,9.993 6.410,11.791 8.210 C 13.646 10.066,13.603 10.033,14.078 9.989 C 14.588 9.943,14.937 9.601,14.989 9.097 C 15.034 8.656,14.989 8.582,14.165 7.750 L 13.423 7.000 14.786 7.000 C 15.540 7.000,16.245 7.018,16.365 7.041 C 17.141 7.187,17.813 7.859,17.959 8.635 C 17.985 8.770,18.000 10.044,18.000 12.020 L 18.000 15.189 17.820 15.258 C 17.540 15.365,17.082 15.684,16.834 15.947 C 16.243 16.571,15.962 17.335,16.013 18.179 C 16.109 19.773,17.230 20.902,18.801 20.988 C 19.695 21.037,20.495 20.735,21.115 20.115 C 22.310 18.919,22.286 16.993,21.061 15.847 C 20.801 15.603,20.370 15.321,20.131 15.238 L 20.003 15.193 19.990 11.767 L 19.977 8.340 19.870 7.972 C 19.450 6.531,18.421 5.511,17.005 5.129 C 16.627 5.027,16.591 5.025,15.025 5.009 L 13.429 4.994 14.171 4.247 C 14.992 3.420,15.029 3.361,14.989 2.916 C 14.956 2.552,14.772 2.271,14.460 2.110 C 14.272 2.014,13.849 1.981,13.640 2.048 M4.503 3.042 C 3.844 3.153,3.158 3.548,2.703 4.080 C 1.869 5.055,1.772 6.507,2.467 7.594 C 2.768 8.065,3.359 8.566,3.819 8.742 L 3.997 8.810 4.009 12.235 L 4.022 15.660 4.114 15.980 C 4.332 16.738,4.646 17.287,5.159 17.805 C 5.684 18.336,6.225 18.654,6.972 18.868 C 7.338 18.974,7.351 18.974,8.956 18.990 L 10.572 19.006 9.829 19.753 C 9.008 20.580,8.971 20.639,9.011 21.083 C 9.044 21.450,9.233 21.732,9.560 21.905 C 9.767 22.014,10.247 22.007,10.460 21.892 C 10.549 21.844,11.341 21.083,12.249 20.173 C 14.004 18.414,14.000 18.418,14.000 18.002 C 14.000 17.574,14.015 17.593,12.189 15.773 C 10.529 14.119,10.496 14.089,10.286 14.040 C 9.610 13.883,9.004 14.329,9.001 14.985 C 8.999 15.385,9.061 15.478,9.851 16.270 L 10.579 17.000 9.178 17.000 C 7.655 17.000,7.516 16.985,7.081 16.769 C 6.750 16.605,6.389 16.229,6.221 15.875 C 6.144 15.713,6.063 15.483,6.041 15.365 C 6.015 15.230,6.000 13.956,6.000 11.980 L 6.000 8.811 6.180 8.742 C 6.824 8.496,7.494 7.815,7.777 7.119 C 8.114 6.291,8.063 5.426,7.627 4.580 C 7.434 4.204,6.921 3.663,6.551 3.446 C 5.914 3.072,5.185 2.928,4.503 3.042 M5.500 5.138 C 6.172 5.532,6.152 6.527,5.465 6.891 C 5.219 7.021,4.764 7.016,4.522 6.880 C 3.773 6.460,3.863 5.356,4.670 5.055 C 4.899 4.969,5.277 5.007,5.500 5.138 M19.500 17.138 C 20.172 17.532,20.152 18.527,19.465 18.891 C 19.219 19.021,18.764 19.016,18.522 18.880 C 17.773 18.460,17.863 17.356,18.670 17.055 C 18.899 16.969,19.277 17.007,19.500 17.138 " fill="var(--db-icon-color, currentColor)" stroke="none" fill-rule="evenodd"></path></svg>