<svg id="icon" height="24" viewBox="0 0 24 24" width="24" xmlns="http://www.w3.org/2000/svg"><path d="M17.571 5.084 C 17.238 5.248,17.031 5.581,17.025 5.960 C 17.018 6.373,17.091 6.484,17.882 7.256 C 18.277 7.641,18.600 7.966,18.600 7.978 C 18.600 7.990,17.501 8.000,16.158 8.000 C 14.081 8.000,13.671 8.010,13.408 8.064 C 12.437 8.264,11.612 8.941,11.230 9.850 C 11.003 10.390,11.001 10.419,11.001 13.383 C 11.000 16.426,11.004 16.383,10.728 16.689 C 10.646 16.779,10.499 16.890,10.400 16.936 C 10.224 17.018,10.158 17.020,7.177 17.040 L 4.134 17.060 3.967 17.171 C 3.638 17.389,3.447 17.799,3.505 18.163 C 3.572 18.584,3.979 18.967,4.414 19.020 C 4.527 19.034,5.934 19.039,7.540 19.030 C 10.109 19.017,10.490 19.007,10.710 18.948 C 11.653 18.695,12.425 18.018,12.781 17.131 C 12.994 16.601,13.000 16.499,13.000 13.569 C 13.000 10.506,12.991 10.607,13.299 10.299 C 13.604 9.994,13.545 10.000,16.237 10.002 L 18.620 10.003 17.908 10.701 C 17.381 11.217,17.174 11.448,17.110 11.589 C 16.814 12.246,17.299 13.000,18.018 13.000 C 18.434 13.000,18.438 12.997,20.151 11.274 C 21.147 10.273,21.782 9.604,21.853 9.481 C 21.990 9.241,22.032 8.919,21.960 8.651 C 21.912 8.475,21.780 8.331,20.264 6.809 C 19.188 5.728,18.564 5.130,18.457 5.079 C 18.229 4.968,17.800 4.971,17.571 5.084 M3.998 8.130 C 3.606 8.365,3.417 8.815,3.539 9.223 C 3.728 9.859,4.378 10.147,4.957 9.852 C 5.320 9.667,5.556 9.214,5.493 8.825 C 5.452 8.569,5.243 8.275,5.002 8.130 C 4.810 8.016,4.749 8.000,4.500 8.000 C 4.251 8.000,4.190 8.016,3.998 8.130 M8.099 8.075 C 7.637 8.285,7.399 8.822,7.558 9.297 C 7.628 9.504,7.898 9.794,8.112 9.889 C 8.324 9.983,8.654 9.989,8.864 9.901 C 9.039 9.828,9.298 9.595,9.382 9.434 C 9.625 8.972,9.451 8.385,8.992 8.122 C 8.815 8.021,8.737 8.001,8.520 8.001 C 8.355 8.002,8.202 8.028,8.099 8.075 " fill="var(--db-icon-color, currentColor)" stroke="none" fill-rule="evenodd"></path></svg>