<svg id="icon" height="20" viewBox="0 0 20 20" width="20" xmlns="http://www.w3.org/2000/svg"><path d="M9.678 3.060 C 9.367 3.171,9.163 3.377,9.051 3.696 C 9.006 3.825,9.000 4.543,9.000 10.003 C 9.000 16.091,9.001 16.166,9.067 16.343 C 9.158 16.586,9.330 16.777,9.559 16.890 C 9.717 16.967,9.793 16.983,10.000 16.983 C 10.207 16.983,10.283 16.967,10.441 16.890 C 10.670 16.777,10.842 16.586,10.933 16.343 C 10.999 16.166,11.000 16.091,11.000 10.000 C 11.000 3.909,10.999 3.834,10.933 3.657 C 10.745 3.153,10.175 2.882,9.678 3.060 M14.686 5.970 C 14.054 6.062,13.219 6.443,12.893 6.788 C 12.650 7.046,12.577 7.514,12.728 7.853 C 12.865 8.161,13.174 8.393,13.523 8.449 C 13.706 8.479,14.030 8.395,14.210 8.271 C 14.563 8.029,14.949 7.908,15.254 7.942 C 15.617 7.983,15.804 8.313,15.728 8.782 C 15.616 9.480,14.987 10.269,13.371 11.739 C 13.048 12.033,12.742 12.327,12.691 12.393 C 12.581 12.536,12.500 12.790,12.500 12.988 C 12.500 13.327,12.740 13.707,13.056 13.868 L 13.217 13.950 15.213 13.959 C 17.503 13.970,17.418 13.979,17.723 13.691 C 18.242 13.201,18.092 12.353,17.435 12.055 C 17.303 11.995,17.201 11.984,16.658 11.973 L 16.032 11.959 16.225 11.754 C 17.109 10.808,17.617 9.871,17.734 8.967 C 17.972 7.125,16.525 5.702,14.686 5.970 M3.662 6.279 C 3.137 6.450,2.657 6.621,2.596 6.659 C 2.155 6.933,1.988 7.488,2.210 7.940 C 2.383 8.293,2.722 8.505,3.107 8.504 C 3.252 8.504,3.558 8.432,3.787 8.344 C 3.826 8.329,3.833 8.613,3.833 10.160 L 3.833 11.994 3.292 12.005 C 2.777 12.016,2.741 12.021,2.559 12.110 C 1.948 12.411,1.816 13.219,2.298 13.702 C 2.400 13.803,2.521 13.882,2.648 13.930 C 2.839 14.001,2.858 14.002,4.862 13.993 C 6.850 13.983,6.886 13.982,7.038 13.912 C 7.237 13.820,7.432 13.625,7.533 13.415 C 7.645 13.182,7.645 12.818,7.533 12.585 C 7.432 12.376,7.258 12.201,7.047 12.097 C 6.899 12.024,6.834 12.016,6.359 12.005 L 5.835 11.994 5.826 9.355 C 5.817 6.753,5.816 6.715,5.746 6.565 C 5.575 6.195,5.225 5.966,4.833 5.968 C 4.652 5.969,4.459 6.020,3.662 6.279 " fill="var(--db-icon-color, currentColor)" stroke="none" fill-rule="evenodd"></path></svg>