<svg id="icon" height="24" viewBox="0 0 24 24" width="24" xmlns="http://www.w3.org/2000/svg"><path d="M5.424 4.581 C 4.658 4.791,4.024 5.431,3.819 6.202 C 3.743 6.489,3.744 6.988,3.823 7.291 C 4.121 8.441,5.304 9.192,6.448 8.956 C 7.260 8.789,7.959 8.113,8.181 7.280 C 8.250 7.018,8.257 6.566,8.196 6.272 C 8.035 5.492,7.355 4.785,6.574 4.583 C 6.278 4.507,5.698 4.506,5.424 4.581 M3.580 11.047 C 2.859 11.185,2.199 11.848,2.044 12.592 C 1.985 12.875,1.983 18.077,2.042 18.289 C 2.104 18.512,2.316 18.763,2.539 18.878 L 2.738 18.980 6.019 18.980 L 9.300 18.980 9.460 18.894 C 9.647 18.793,9.801 18.636,9.905 18.440 C 9.976 18.308,9.981 18.144,9.991 15.525 C 10.003 12.497,10.005 12.523,9.772 12.040 C 9.631 11.748,9.242 11.363,8.947 11.224 C 8.491 11.010,8.373 11.001,5.980 11.005 C 4.770 11.007,3.690 11.026,3.580 11.047 " fill="var(--db-icon-color, currentColor)" stroke="none" fill-rule="evenodd"></path></svg>