<svg id="icon" height="32" viewBox="0 0 32 32" width="32" xmlns="http://www.w3.org/2000/svg"><path d="M26.587 4.102 C 26.458 4.163,26.016 4.562,25.469 5.113 C 24.586 6.002,24.557 6.025,24.269 6.083 C 24.106 6.115,23.747 6.250,23.470 6.383 C 23.054 6.583,22.892 6.700,22.533 7.059 C 22.043 7.550,21.775 8.021,21.608 8.685 L 21.510 9.077 18.555 12.032 L 15.600 14.987 15.280 14.987 C 14.678 14.988,14.286 15.176,14.108 15.551 C 14.004 15.771,13.984 16.194,14.071 16.356 C 14.120 16.448,14.002 16.586,13.063 17.523 L 12.000 18.586 12.000 18.155 C 12.000 17.646,11.853 17.018,11.641 16.623 C 11.560 16.471,11.312 16.162,11.090 15.936 C 10.770 15.609,10.596 15.481,10.237 15.309 C 9.596 15.002,9.281 14.974,6.679 14.999 C 4.786 15.018,4.469 15.033,4.213 15.115 C 3.445 15.362,2.690 15.983,2.359 16.641 C 1.995 17.362,2.008 17.195,1.986 21.227 C 1.971 23.898,1.982 24.957,2.028 25.167 C 2.147 25.711,2.726 26.105,3.210 25.971 C 3.503 25.890,3.740 25.703,3.876 25.445 L 4.000 25.210 4.002 21.525 C 4.005 17.636,4.007 17.593,4.248 17.322 C 4.302 17.261,4.443 17.168,4.560 17.114 C 4.756 17.024,4.954 17.016,7.015 17.015 C 9.236 17.013,9.260 17.015,9.495 17.133 C 9.652 17.212,9.774 17.326,9.852 17.467 C 9.968 17.673,9.972 17.728,9.972 19.146 L 9.973 20.612 7.044 23.546 C 3.839 26.757,3.943 26.632,4.025 27.181 C 4.057 27.391,4.110 27.485,4.312 27.688 C 4.515 27.890,4.609 27.943,4.819 27.975 C 5.393 28.061,4.455 28.950,16.703 16.703 C 28.928 4.478,28.061 5.391,27.977 4.830 C 27.912 4.396,27.441 4.002,26.987 4.002 C 26.884 4.002,26.704 4.047,26.587 4.102 M6.091 6.135 C 4.892 6.448,3.932 7.418,3.623 8.627 C 3.317 9.825,3.655 11.068,4.527 11.947 C 5.594 13.022,7.100 13.297,8.466 12.666 C 9.754 12.071,10.576 10.717,10.489 9.333 C 10.431 8.422,10.093 7.681,9.437 7.031 C 9.104 6.700,8.929 6.575,8.526 6.382 C 8.251 6.250,7.899 6.116,7.744 6.084 C 7.307 5.995,6.534 6.018,6.091 6.135 M15.022 6.111 C 14.460 6.247,13.886 6.587,13.413 7.063 C 12.956 7.524,12.730 7.891,12.525 8.507 C 12.421 8.818,12.400 8.986,12.403 9.520 C 12.405 10.077,12.425 10.216,12.553 10.586 C 12.875 11.514,13.478 12.209,14.309 12.611 C 15.748 13.306,17.249 13.060,18.352 11.949 C 18.827 11.470,19.140 10.902,19.283 10.263 C 19.403 9.721,19.368 8.912,19.204 8.427 C 18.828 7.319,17.870 6.414,16.777 6.134 C 16.278 6.007,15.495 5.996,15.022 6.111 M7.661 8.177 C 8.163 8.431,8.431 8.844,8.468 9.418 C 8.488 9.720,8.471 9.845,8.383 10.044 C 8.208 10.440,8.014 10.651,7.666 10.825 C 7.119 11.098,6.489 11.024,6.031 10.631 C 5.382 10.076,5.340 9.063,5.941 8.463 C 6.415 7.989,7.074 7.880,7.661 8.177 M16.486 8.147 C 17.244 8.488,17.573 9.402,17.208 10.149 C 16.683 11.222,15.179 11.283,14.577 10.256 C 14.371 9.903,14.340 9.307,14.508 8.916 C 14.657 8.569,15.065 8.190,15.406 8.080 C 15.718 7.980,16.178 8.009,16.486 8.147 M27.301 8.947 C 26.626 9.629,26.451 9.836,26.373 10.051 C 26.243 10.406,25.860 10.785,25.516 10.899 C 25.292 10.973,25.123 11.116,24.402 11.838 C 23.441 12.801,23.469 12.686,24.145 12.888 C 24.562 13.013,25.406 13.014,25.867 12.889 C 26.839 12.627,27.683 11.948,28.099 11.093 C 28.386 10.503,28.480 10.114,28.480 9.520 C 28.480 8.963,28.290 8.107,28.166 8.107 C 28.147 8.107,27.758 8.485,27.301 8.947 M23.740 15.038 C 23.047 15.210,22.773 16.091,23.239 16.645 C 23.535 16.997,23.622 17.011,25.520 17.013 C 27.188 17.015,27.231 17.018,27.438 17.135 C 27.554 17.200,27.722 17.358,27.811 17.485 L 27.973 17.716 28.000 21.511 C 28.030 25.725,28.008 25.492,28.388 25.781 C 28.872 26.150,29.566 26.011,29.869 25.483 L 30.000 25.253 30.000 21.387 L 30.000 17.520 29.876 17.173 C 29.596 16.394,29.078 15.761,28.427 15.401 C 27.763 15.034,27.692 15.024,25.707 15.008 C 24.724 14.999,23.839 15.013,23.740 15.038 M19.527 16.713 L 18.823 17.418 18.905 17.614 C 18.976 17.784,18.987 18.300,18.987 21.452 C 18.987 23.868,19.006 25.162,19.044 25.298 C 19.185 25.807,19.726 26.092,20.279 25.948 C 20.607 25.863,20.869 25.612,20.956 25.298 C 20.994 25.162,21.013 23.856,21.013 21.409 C 21.013 17.939,21.007 17.700,20.910 17.320 C 20.794 16.868,20.620 16.495,20.388 16.204 L 20.231 16.008 19.527 16.713 M11.210 25.030 C 10.388 25.853,10.388 25.855,10.789 25.964 C 11.242 26.088,11.831 25.761,11.950 25.322 C 11.980 25.210,11.997 24.927,11.989 24.692 L 11.973 24.265 11.210 25.030 " fill="var(--db-icon-color, currentColor)" stroke="none" fill-rule="evenodd"></path></svg>