<svg id="icon" height="24" viewBox="0 0 24 24" width="24" xmlns="http://www.w3.org/2000/svg"><path d="M19.365 3.281 C 19.251 3.333,18.969 3.578,18.565 3.975 C 18.027 4.504,17.911 4.599,17.733 4.657 C 17.155 4.845,16.519 5.493,16.362 6.053 C 16.318 6.211,15.981 6.563,13.141 9.425 L 9.970 12.620 9.921 12.441 C 9.755 11.833,9.321 11.355,8.726 11.124 L 8.460 11.020 6.163 11.008 C 4.640 11.000,3.799 11.011,3.667 11.039 C 2.932 11.197,2.213 11.906,2.043 12.641 C 2.017 12.754,2.002 13.801,2.001 15.483 C 2.000 18.516,1.987 18.385,2.319 18.695 C 2.547 18.909,2.873 19.024,3.133 18.983 C 3.356 18.947,3.660 18.774,3.782 18.614 C 4.002 18.325,4.000 18.358,4.000 15.623 C 4.000 13.711,4.012 13.084,4.048 13.048 C 4.084 13.012,4.578 13.000,6.024 13.000 C 7.745 13.000,7.954 13.007,7.976 13.063 C 7.989 13.098,8.000 13.453,8.000 13.853 L 8.000 14.579 5.562 17.020 C 3.870 18.713,3.104 19.506,3.062 19.609 C 2.985 19.793,2.982 20.199,3.055 20.374 C 3.198 20.716,3.608 20.999,3.963 21.000 C 4.063 21.000,4.234 20.971,4.343 20.937 C 4.526 20.878,5.113 20.299,12.571 12.827 C 17.191 8.197,20.639 4.712,20.689 4.620 C 20.812 4.397,20.813 3.967,20.691 3.736 C 20.591 3.546,20.363 3.334,20.174 3.255 C 19.979 3.173,19.574 3.187,19.365 3.281 M5.442 4.602 C 5.049 4.705,4.668 4.937,4.377 5.249 C 4.085 5.562,3.942 5.822,3.839 6.223 C 3.706 6.743,3.759 7.234,4.004 7.750 C 4.187 8.136,4.638 8.580,5.040 8.770 C 5.942 9.197,6.896 9.035,7.586 8.338 C 8.029 7.891,8.249 7.362,8.249 6.748 C 8.248 6.158,8.028 5.632,7.600 5.196 C 7.033 4.618,6.228 4.397,5.442 4.602 M11.686 4.601 C 11.286 4.706,10.992 4.883,10.659 5.217 C 10.332 5.547,10.189 5.796,10.079 6.223 C 9.881 6.997,10.092 7.740,10.676 8.324 C 11.142 8.790,11.645 9.001,12.292 9.000 C 13.292 8.998,14.209 8.250,14.441 7.246 C 14.712 6.070,13.946 4.862,12.750 4.580 C 12.414 4.501,12.041 4.508,11.686 4.601 M18.760 11.035 C 18.300 11.186,18.023 11.550,18.023 12.000 C 18.023 12.318,18.119 12.522,18.376 12.748 C 18.617 12.960,18.777 13.000,19.387 13.000 C 19.736 13.000,19.920 13.016,19.952 13.048 C 19.988 13.084,20.000 13.710,20.000 15.621 C 20.000 18.476,19.991 18.385,20.303 18.697 C 20.700 19.093,21.307 19.095,21.701 18.701 C 22.009 18.393,22.000 18.487,22.000 15.491 C 22.000 12.532,21.997 12.490,21.735 12.054 C 21.471 11.614,21.116 11.312,20.650 11.133 C 20.400 11.036,20.325 11.028,19.620 11.015 C 19.202 11.008,18.815 11.017,18.760 11.035 M14.929 13.291 L 14.000 14.221 14.000 16.185 C 14.000 18.309,14.002 18.331,14.218 18.614 C 14.488 18.967,15.054 19.087,15.461 18.878 C 15.684 18.763,15.896 18.512,15.958 18.289 C 16.017 18.077,16.015 12.915,15.956 12.632 C 15.931 12.515,15.899 12.407,15.885 12.391 C 15.870 12.375,15.440 12.780,14.929 13.291 " fill="var(--db-icon-color, currentColor)" stroke="none" fill-rule="evenodd"></path></svg>