<svg id="icon" height="32" viewBox="0 0 32 32" width="32" xmlns="http://www.w3.org/2000/svg"><path d="M14.593 2.107 C 12.645 2.423,10.909 3.324,9.542 4.728 C 8.238 6.068,7.450 7.608,7.117 9.467 C 6.974 10.263,6.984 11.637,7.139 12.360 C 7.288 13.058,7.558 13.882,7.903 14.693 C 8.349 15.740,15.128 29.449,15.306 29.665 C 15.541 29.950,15.918 30.058,16.292 29.949 C 16.458 29.901,16.626 29.803,16.729 29.695 C 16.839 29.580,18.080 27.107,20.362 22.453 C 24.379 14.266,24.373 14.278,24.724 12.918 C 25.143 11.294,25.079 9.733,24.527 8.080 C 23.897 6.192,22.471 4.399,20.773 3.358 C 19.897 2.821,18.857 2.406,17.823 2.182 C 17.139 2.034,15.309 1.991,14.593 2.107 M17.147 4.132 C 18.451 4.346,19.621 4.892,20.596 5.743 C 21.747 6.748,22.531 8.101,22.863 9.653 C 22.935 9.991,22.959 10.337,22.959 11.013 C 22.958 11.822,22.942 11.982,22.812 12.497 C 22.625 13.240,22.319 14.018,21.717 15.280 C 20.165 18.534,16.064 26.942,16.030 26.940 C 15.996 26.939,12.767 20.356,10.480 15.627 C 9.538 13.679,9.266 12.960,9.096 11.980 C 8.946 11.116,9.015 10.023,9.281 9.067 C 9.426 8.543,9.941 7.489,10.291 6.995 C 11.359 5.493,13.039 4.444,14.880 4.132 C 15.435 4.038,16.571 4.038,17.147 4.132 M15.390 8.062 C 15.246 8.090,14.958 8.192,14.750 8.289 C 13.711 8.774,13.085 9.697,13.026 10.834 C 12.979 11.748,13.250 12.460,13.888 13.099 C 14.489 13.701,15.174 13.990,16.000 13.990 C 16.826 13.990,17.511 13.701,18.112 13.099 C 18.521 12.689,18.809 12.176,18.934 11.634 C 19.034 11.203,18.976 10.401,18.815 9.966 C 18.307 8.592,16.851 7.783,15.390 8.062 " fill="var(--db-icon-color, currentColor)" stroke="none" fill-rule="evenodd"></path></svg>