<svg id="icon" height="20" viewBox="0 0 20 20" width="20" xmlns="http://www.w3.org/2000/svg"><path d="M9.343 2.036 C 7.241 2.239,5.494 3.436,4.618 5.274 C 4.391 5.749,4.262 6.120,4.155 6.603 C 3.835 8.043,4.011 9.324,4.732 10.823 C 5.150 11.691,5.131 11.660,7.554 15.186 C 9.376 17.837,9.374 17.835,9.696 17.949 C 10.023 18.064,10.429 17.969,10.669 17.723 C 10.805 17.583,14.219 12.634,14.592 12.035 C 15.862 10.000,16.239 8.370,15.846 6.604 C 15.180 3.612,12.501 1.730,9.343 2.036 M10.950 4.085 C 11.831 4.240,12.655 4.695,13.147 5.296 C 13.523 5.756,13.765 6.281,13.904 6.942 C 14.003 7.407,14.011 8.222,13.921 8.633 C 13.771 9.321,13.402 10.118,12.857 10.933 C 12.506 11.457,10.021 14.967,10.000 14.967 C 9.970 14.967,7.116 10.919,6.898 10.567 C 6.673 10.204,6.327 9.489,6.221 9.167 C 6.059 8.678,6.016 8.389,6.020 7.817 C 6.023 7.407,6.040 7.204,6.096 6.942 C 6.460 5.218,7.634 4.216,9.517 4.020 C 9.778 3.993,10.655 4.032,10.950 4.085 M9.572 6.051 C 9.214 6.129,8.882 6.316,8.600 6.599 C 8.311 6.888,8.161 7.147,8.066 7.520 C 7.893 8.198,8.089 8.894,8.597 9.403 C 8.863 9.668,9.168 9.844,9.517 9.933 C 10.198 10.108,10.894 9.912,11.403 9.403 C 11.912 8.894,12.108 8.198,11.933 7.517 C 11.842 7.159,11.667 6.861,11.386 6.583 C 10.902 6.104,10.233 5.908,9.572 6.051 " fill="var(--db-icon-color, currentColor)" stroke="none" fill-rule="evenodd"></path></svg>