<svg id="icon" height="20" viewBox="0 0 20 20" width="20" xmlns="http://www.w3.org/2000/svg"><path d="M9.343 2.036 C 7.241 2.239,5.494 3.436,4.618 5.274 C 4.391 5.749,4.262 6.120,4.155 6.603 C 3.835 8.043,4.011 9.324,4.732 10.823 C 5.150 11.691,5.131 11.660,7.554 15.186 C 9.376 17.837,9.374 17.835,9.696 17.949 C 10.023 18.064,10.429 17.969,10.669 17.723 C 10.799 17.588,14.147 12.743,14.600 12.033 C 15.857 10.062,16.241 8.389,15.845 6.604 C 15.182 3.614,12.501 1.730,9.343 2.036 M10.412 6.050 C 11.310 6.240,11.999 7.086,11.999 8.000 C 11.999 8.888,11.353 9.711,10.483 9.933 C 10.153 10.018,9.847 10.018,9.517 9.933 C 9.159 9.842,8.861 9.667,8.583 9.386 C 7.804 8.599,7.811 7.387,8.599 6.599 C 9.094 6.104,9.742 5.908,10.412 6.050 " fill="var(--db-icon-color, currentColor)" stroke="none" fill-rule="evenodd"></path></svg>