<svg id="icon" height="24" viewBox="0 0 24 24" width="24" xmlns="http://www.w3.org/2000/svg"><path d="M11.160 4.545 C 8.586 4.860,6.321 6.483,5.224 8.802 C 4.267 10.821,4.267 13.179,5.224 15.198 C 5.940 16.712,7.190 17.978,8.700 18.722 C 11.820 20.258,15.537 19.456,17.777 16.763 C 19.793 14.339,20.058 10.874,18.433 8.164 C 17.515 6.630,16.024 5.438,14.332 4.882 C 13.527 4.618,13.102 4.551,12.140 4.539 C 11.678 4.533,11.237 4.536,11.160 4.545 M12.923 6.583 C 15.188 6.963,17.037 8.812,17.417 11.077 C 17.499 11.565,17.499 12.435,17.417 12.923 C 17.130 14.633,16.018 16.127,14.444 16.918 C 13.681 17.302,12.877 17.490,12.000 17.490 C 11.089 17.490,10.293 17.296,9.471 16.874 C 7.966 16.100,6.864 14.593,6.583 12.923 C 6.501 12.435,6.501 11.565,6.583 11.077 C 6.962 8.820,8.796 6.980,11.060 6.583 C 11.506 6.505,12.458 6.505,12.923 6.583 M11.602 10.044 C 11.265 10.110,10.847 10.343,10.585 10.612 C 9.802 11.413,9.808 12.608,10.600 13.400 C 11.398 14.198,12.602 14.198,13.400 13.400 C 14.192 12.608,14.198 11.413,13.415 10.612 C 12.944 10.129,12.260 9.915,11.602 10.044 " fill="var(--db-icon-color, currentColor)" stroke="none" fill-rule="evenodd"></path></svg>