<svg id="icon" height="32" viewBox="0 0 32 32" width="32" xmlns="http://www.w3.org/2000/svg"><path d="M15.413 6.562 C 11.353 7.060,8.125 9.976,7.225 13.957 C 6.256 18.248,8.443 22.697,12.453 24.589 C 13.853 25.250,15.279 25.536,16.880 25.477 C 21.713 25.297,25.601 21.534,25.968 16.679 C 26.331 11.885,22.970 7.536,18.228 6.665 C 17.537 6.538,16.052 6.484,15.413 6.562 M18.044 8.666 C 18.609 8.783,19.283 9.027,19.893 9.334 C 21.629 10.208,23.058 11.886,23.644 13.741 C 23.898 14.543,23.969 15.047,23.966 16.027 C 23.964 17.041,23.867 17.639,23.567 18.490 C 22.795 20.678,21.062 22.385,18.876 23.110 C 18.031 23.390,17.432 23.484,16.507 23.485 C 14.457 23.486,12.679 22.753,11.222 21.307 C 10.045 20.139,9.341 18.751,9.085 17.093 C 8.985 16.441,9.017 15.107,9.149 14.508 C 9.659 12.182,11.082 10.332,13.167 9.283 C 13.670 9.030,14.366 8.787,14.938 8.664 C 15.777 8.483,17.170 8.484,18.044 8.666 M15.768 13.098 C 15.029 13.277,14.225 13.895,13.873 14.555 C 13.664 14.948,13.493 15.597,13.493 16.000 C 13.493 16.702,13.832 17.544,14.315 18.044 C 14.903 18.653,15.524 18.937,16.347 18.974 C 16.956 19.001,17.370 18.917,17.873 18.663 C 18.241 18.478,18.807 17.963,19.036 17.606 C 19.629 16.682,19.639 15.401,19.061 14.446 C 18.674 13.805,17.853 13.221,17.131 13.072 C 16.753 12.994,16.151 13.005,15.768 13.098 " fill="var(--db-icon-color, currentColor)" stroke="none" fill-rule="evenodd"></path></svg>