<svg id="icon" height="32" viewBox="0 0 32 32" width="32" xmlns="http://www.w3.org/2000/svg"><path d="M24.761 11.037 C 24.531 11.094,24.354 11.215,24.196 11.426 C 24.032 11.645,23.979 11.886,24.026 12.205 C 24.062 12.443,24.117 12.507,25.322 13.719 L 26.580 14.985 19.650 14.999 C 12.829 15.013,12.717 15.015,12.539 15.120 C 12.439 15.179,12.283 15.319,12.192 15.432 C 12.043 15.616,12.027 15.673,12.027 16.000 C 12.027 16.325,12.044 16.385,12.190 16.568 C 12.279 16.681,12.459 16.827,12.588 16.893 L 12.823 17.013 19.705 17.015 L 26.587 17.017 25.352 18.229 C 24.051 19.504,24.001 19.571,24.000 20.042 C 23.999 20.764,24.893 21.241,25.520 20.852 C 25.608 20.797,26.631 19.797,27.794 18.630 C 29.808 16.608,29.911 16.495,29.961 16.253 C 29.996 16.088,29.996 15.912,29.962 15.747 C 29.912 15.505,29.811 15.394,27.795 13.371 C 26.632 12.203,25.608 11.204,25.520 11.150 C 25.325 11.030,24.993 10.981,24.761 11.037 M5.378 12.051 C 4.978 12.124,4.532 12.266,4.242 12.411 C 2.439 13.316,1.598 15.327,2.212 17.264 C 2.402 17.864,2.684 18.311,3.200 18.829 C 3.702 19.333,4.192 19.626,4.907 19.848 C 5.483 20.027,6.517 20.027,7.093 19.848 C 7.808 19.626,8.298 19.333,8.800 18.829 C 9.316 18.311,9.598 17.864,9.788 17.264 C 10.487 15.060,9.278 12.777,7.085 12.159 C 6.646 12.036,5.765 11.980,5.378 12.051 " fill="var(--db-icon-color, currentColor)" stroke="none" fill-rule="evenodd"></path></svg>