<svg id="icon" height="32" viewBox="0 0 32 32" width="32" xmlns="http://www.w3.org/2000/svg"><path d="M2.560 5.117 C 2.280 5.266,2.127 5.459,2.049 5.758 C 1.958 6.108,2.054 6.463,2.305 6.705 C 2.526 6.917,2.652 6.964,3.138 7.013 C 4.109 7.110,4.822 7.783,4.959 8.731 C 4.988 8.930,5.012 9.789,5.012 10.640 L 5.013 12.187 6.216 18.147 C 7.439 24.212,7.503 24.480,7.855 25.076 C 8.318 25.859,9.169 26.524,10.107 26.835 C 10.479 26.958,10.492 26.959,13.813 26.976 C 16.007 26.987,17.211 26.974,17.335 26.938 C 17.763 26.812,18.067 26.256,17.962 25.789 C 17.901 25.514,17.810 25.377,17.565 25.190 L 17.368 25.040 14.111 25.013 C 10.871 24.987,10.852 24.986,10.552 24.865 C 10.044 24.659,9.656 24.293,9.436 23.809 C 9.381 23.690,8.815 20.990,8.178 17.809 L 7.020 12.027 6.987 10.107 C 6.955 8.231,6.951 8.177,6.818 7.778 C 6.448 6.673,5.606 5.755,4.560 5.317 C 3.860 5.024,2.913 4.929,2.560 5.117 M15.420 5.122 C 14.019 5.489,13.011 6.794,13.014 8.238 C 13.017 9.678,13.904 10.895,15.276 11.341 C 15.817 11.517,16.593 11.539,17.093 11.391 C 18.200 11.066,19.062 10.202,19.389 9.093 C 19.537 8.591,19.517 7.816,19.341 7.276 C 19.074 6.456,18.506 5.778,17.757 5.388 C 17.025 5.008,16.212 4.915,15.420 5.122 M16.790 7.132 C 17.381 7.410,17.647 8.129,17.385 8.738 C 16.851 9.980,15.020 9.595,15.021 8.240 C 15.022 7.326,15.957 6.740,16.790 7.132 M12.285 13.655 C 11.604 13.746,11.090 14.107,11.015 14.548 C 10.963 14.860,11.071 15.190,11.300 15.420 C 11.584 15.703,11.833 15.757,12.403 15.657 C 13.145 15.528,13.674 15.701,13.944 16.161 C 14.050 16.341,14.054 16.445,14.080 19.333 L 14.107 22.320 14.229 22.517 C 14.297 22.626,14.441 22.770,14.549 22.837 L 14.747 22.960 17.494 22.975 L 20.242 22.990 20.767 26.148 C 21.056 27.885,21.324 29.369,21.363 29.445 C 21.562 29.832,22.117 30.081,22.527 29.968 C 22.932 29.856,23.253 29.443,23.253 29.035 C 23.253 28.873,22.260 22.875,22.074 21.920 C 21.998 21.528,21.819 21.265,21.533 21.126 C 21.305 21.016,21.241 21.013,18.650 21.013 L 16.000 21.013 16.000 20.000 L 16.000 18.987 17.575 18.987 C 19.229 18.987,19.379 18.968,19.646 18.731 C 19.806 18.589,19.944 18.238,19.945 17.970 C 19.947 17.635,19.719 17.281,19.403 17.128 C 19.177 17.019,19.093 17.013,17.591 17.013 L 16.016 17.013 15.986 16.520 C 15.935 15.689,15.633 15.037,15.045 14.493 C 14.340 13.840,13.290 13.522,12.285 13.655 M24.581 15.629 C 23.925 15.705,23.197 16.092,22.743 16.606 C 22.119 17.313,21.822 18.528,22.136 19.087 C 22.405 19.565,23.008 19.728,23.482 19.449 C 23.788 19.270,23.942 19.021,24.000 18.612 C 24.054 18.230,24.169 18.015,24.436 17.800 C 24.779 17.523,25.294 17.546,25.662 17.855 C 25.980 18.123,25.973 18.032,25.980 21.745 C 25.984 23.616,26.002 26.098,26.020 27.262 L 26.053 29.377 26.219 29.582 C 26.445 29.862,26.675 29.985,26.977 29.990 C 27.298 29.994,27.598 29.848,27.810 29.582 L 27.973 29.377 27.973 23.688 L 27.973 18.000 27.850 17.643 C 27.378 16.278,26.050 15.460,24.581 15.629 " fill="var(--db-icon-color, currentColor)" stroke="none" fill-rule="evenodd"></path></svg>