<svg id="icon" height="24" viewBox="0 0 24 24" width="24" xmlns="http://www.w3.org/2000/svg"><path d="M2.665 3.056 C 2.042 3.289,1.810 4.055,2.198 4.591 C 2.377 4.839,2.624 4.964,3.005 5.003 C 3.529 5.056,3.752 5.205,3.909 5.607 C 3.966 5.756,3.979 6.028,4.000 7.540 L 4.025 9.300 4.871 13.487 C 5.456 16.377,5.751 17.758,5.827 17.947 C 6.010 18.407,6.196 18.684,6.576 19.062 C 6.892 19.376,6.995 19.451,7.360 19.629 C 8.099 19.989,7.965 19.975,10.734 19.990 C 13.449 20.005,13.416 20.008,13.696 19.736 C 13.924 19.515,13.978 19.380,13.978 19.040 C 13.978 18.810,13.958 18.703,13.893 18.580 C 13.779 18.368,13.581 18.183,13.360 18.083 C 13.186 18.004,13.106 18.002,10.911 18.001 C 8.924 18.000,8.619 17.992,8.451 17.935 C 8.171 17.840,7.948 17.670,7.800 17.440 C 7.676 17.247,7.629 17.033,6.847 13.169 L 6.025 9.100 5.999 7.340 C 5.975 5.677,5.969 5.561,5.883 5.240 C 5.518 3.886,4.560 3.093,3.200 3.019 C 2.923 3.003,2.778 3.014,2.665 3.056 M9.580 3.047 C 9.236 3.113,8.883 3.310,8.596 3.596 C 7.800 4.393,7.800 5.606,8.597 6.404 C 8.742 6.550,8.952 6.715,9.063 6.771 C 9.874 7.182,10.814 7.029,11.433 6.384 C 12.222 5.562,12.186 4.315,11.350 3.538 C 10.876 3.098,10.240 2.921,9.580 3.047 M17.664 3.063 C 17.436 3.146,17.257 3.297,17.131 3.511 C 17.024 3.693,17.020 3.723,17.007 4.350 L 16.993 5.000 16.422 5.000 C 15.631 5.000,15.371 5.103,15.131 5.511 C 15.036 5.672,15.020 5.744,15.020 6.000 C 15.020 6.256,15.036 6.328,15.131 6.489 C 15.371 6.898,15.631 7.000,16.425 7.000 L 17.000 7.000 17.000 7.570 C 17.000 8.219,17.031 8.370,17.212 8.607 C 17.570 9.076,18.281 9.121,18.700 8.702 C 18.949 8.454,19.000 8.260,19.000 7.573 L 19.000 7.000 19.573 7.000 C 20.259 7.000,20.454 6.948,20.701 6.701 C 20.881 6.521,21.000 6.242,21.000 6.000 C 21.000 5.758,20.881 5.479,20.701 5.299 C 20.454 5.052,20.259 5.000,19.573 5.000 L 19.000 5.000 19.000 4.427 C 19.000 3.741,18.948 3.546,18.701 3.299 C 18.429 3.027,18.018 2.933,17.664 3.063 M9.100 9.049 C 8.745 9.176,8.466 9.518,8.415 9.890 C 8.377 10.165,8.485 10.477,8.692 10.690 C 8.915 10.919,9.150 11.000,9.591 11.000 C 9.989 11.000,10.160 11.066,10.284 11.266 C 10.348 11.370,10.450 11.855,10.705 13.269 C 10.890 14.295,11.059 15.201,11.080 15.281 C 11.139 15.498,11.332 15.740,11.548 15.867 L 11.740 15.980 13.750 15.991 L 15.759 16.003 15.780 16.091 C 16.072 17.332,17.099 21.401,17.141 21.481 C 17.278 21.746,17.714 22.000,18.032 22.000 C 18.437 22.000,18.860 21.678,18.976 21.283 C 19.011 21.163,19.040 21.021,19.040 20.966 C 19.040 20.911,18.688 19.470,18.257 17.763 C 17.454 14.576,17.408 14.426,17.170 14.239 C 16.887 14.017,16.934 14.021,14.832 14.008 L 12.885 13.996 12.843 13.788 C 12.820 13.674,12.701 13.024,12.578 12.344 C 12.455 11.665,12.318 10.990,12.273 10.844 C 12.130 10.377,11.931 10.047,11.582 9.699 C 11.214 9.331,10.896 9.145,10.491 9.059 C 10.175 8.992,9.278 8.986,9.100 9.049 " fill="var(--db-icon-color, currentColor)" stroke="none" fill-rule="evenodd"></path></svg>