<svg id="icon" height="24" viewBox="0 0 24 24" width="24" xmlns="http://www.w3.org/2000/svg"><path d="M4.980 2.047 C 4.478 2.143,3.889 2.578,3.647 3.032 C 3.210 3.853,3.361 4.818,4.025 5.439 C 5.167 6.507,6.980 5.956,7.340 4.430 C 7.494 3.778,7.300 3.107,6.815 2.611 C 6.337 2.122,5.667 1.916,4.980 2.047 M18.150 4.041 C 17.722 4.149,17.343 4.465,17.144 4.880 C 17.025 5.129,17.019 5.165,17.006 5.740 L 16.993 6.340 16.716 6.497 C 15.986 6.912,15.410 7.657,15.130 8.548 L 15.020 8.900 15.009 13.320 C 14.996 18.279,14.983 18.037,15.287 18.645 C 15.512 19.095,15.915 19.495,16.367 19.718 C 16.909 19.984,17.100 20.008,18.620 19.991 C 19.931 19.977,19.942 19.976,20.260 19.869 C 21.061 19.598,21.594 19.078,21.867 18.300 L 21.980 17.980 21.991 13.620 C 21.999 10.767,21.988 9.167,21.961 8.992 C 21.798 7.931,21.097 6.922,20.188 6.440 L 20.007 6.344 19.993 5.742 C 19.980 5.182,19.971 5.123,19.867 4.896 C 19.725 4.589,19.414 4.278,19.110 4.139 C 18.852 4.022,18.407 3.976,18.150 4.041 M9.112 5.279 C 8.859 5.324,8.469 5.538,8.301 5.725 C 7.777 6.304,7.764 7.160,8.270 7.722 C 8.489 7.966,8.663 8.082,8.955 8.179 C 9.257 8.279,9.704 8.250,10.008 8.111 C 10.840 7.730,11.142 6.681,10.637 5.925 C 10.311 5.437,9.694 5.176,9.112 5.279 M3.730 7.060 C 2.907 7.242,2.266 7.895,2.062 8.761 C 1.933 9.308,1.931 9.296,2.841 12.915 C 3.303 14.755,3.728 16.372,3.785 16.510 C 4.070 17.195,4.704 17.727,5.471 17.923 C 5.748 17.994,5.926 18.000,7.670 18.000 C 9.752 18.000,9.749 18.000,9.921 18.241 C 9.965 18.302,10.352 19.079,10.783 19.966 C 11.214 20.854,11.614 21.631,11.673 21.694 C 12.049 22.093,12.701 22.093,13.099 21.694 C 13.369 21.424,13.457 21.076,13.345 20.716 C 13.250 20.410,11.851 17.573,11.645 17.267 C 11.229 16.650,10.794 16.281,10.286 16.112 C 10.029 16.027,9.948 16.023,7.958 16.002 C 6.050 15.982,5.888 15.975,5.785 15.907 C 5.723 15.867,5.650 15.777,5.621 15.707 C 5.552 15.539,4.000 9.353,4.000 9.244 C 4.000 9.198,4.036 9.124,4.080 9.080 C 4.156 9.004,4.214 9.000,5.130 9.000 C 6.064 8.999,6.107 8.996,6.302 8.905 C 7.052 8.556,7.077 7.500,6.346 7.109 C 6.187 7.024,6.131 7.020,5.080 7.012 C 4.264 7.006,3.915 7.018,3.730 7.060 M19.047 8.107 C 19.493 8.283,19.866 8.700,19.957 9.124 C 19.986 9.259,20.000 10.664,20.000 13.463 C 20.000 18.004,20.010 17.811,19.762 17.939 C 19.654 17.995,19.481 18.002,18.479 17.992 L 17.321 17.980 17.171 17.829 L 17.020 17.679 17.008 16.839 L 16.996 16.000 17.571 16.000 C 18.259 16.000,18.453 15.949,18.701 15.701 C 19.092 15.310,19.092 14.690,18.701 14.299 C 18.454 14.052,18.259 14.000,17.573 14.000 L 17.000 14.000 17.000 13.000 L 17.000 12.000 17.573 12.000 C 18.259 12.000,18.454 11.948,18.701 11.701 C 19.092 11.310,19.092 10.690,18.701 10.299 C 18.454 10.052,18.259 10.000,17.573 10.000 L 17.000 10.000 17.000 9.682 C 17.000 8.972,17.198 8.549,17.672 8.245 C 18.058 7.998,18.626 7.941,19.047 8.107 M8.121 9.187 C 7.869 9.280,7.553 9.607,7.451 9.881 C 7.348 10.160,6.892 13.980,6.935 14.207 C 6.976 14.428,7.194 14.721,7.417 14.859 L 7.614 14.980 9.846 14.991 C 12.062 15.002,12.081 15.002,12.281 14.916 C 13.047 14.586,13.085 13.504,12.346 13.109 C 12.184 13.022,12.143 13.020,10.611 13.008 L 9.042 12.997 9.064 12.828 C 9.076 12.736,9.117 12.394,9.156 12.070 C 9.195 11.745,9.239 11.468,9.253 11.453 C 9.268 11.439,9.590 11.550,9.970 11.699 C 10.723 11.996,10.908 12.036,11.180 11.960 C 11.399 11.899,11.692 11.650,11.810 11.425 C 11.989 11.087,11.902 10.593,11.615 10.305 C 11.457 10.148,11.341 10.094,10.087 9.595 C 9.038 9.177,8.962 9.153,8.640 9.138 C 8.390 9.125,8.253 9.139,8.121 9.187 " fill="var(--db-icon-color, currentColor)" stroke="none" fill-rule="evenodd"></path></svg>