<svg id="icon" height="20" viewBox="0 0 20 20" width="20" xmlns="http://www.w3.org/2000/svg"><path d="M2.678 2.060 C 2.367 2.171,2.163 2.377,2.051 2.696 C 2.008 2.819,2.000 3.077,2.000 4.343 L 2.000 5.844 3.085 10.463 C 3.681 13.004,4.199 15.195,4.236 15.332 C 4.430 16.049,4.983 16.634,5.703 16.886 L 5.983 16.983 8.045 16.993 C 10.319 17.004,10.274 17.007,10.562 16.796 C 10.838 16.593,11.030 16.181,10.983 15.890 C 10.928 15.551,10.725 15.270,10.417 15.105 L 10.250 15.017 8.295 15.000 C 6.071 14.981,6.241 15.006,6.151 14.686 C 6.124 14.593,5.633 12.537,5.060 10.117 L 4.017 5.717 4.000 4.233 L 3.983 2.750 3.903 2.586 C 3.675 2.123,3.141 1.894,2.678 2.060 M7.142 2.051 C 6.472 2.232,6.001 2.830,6.001 3.500 C 6.001 4.303,6.697 4.999,7.500 4.999 C 8.302 4.999,8.999 4.302,8.999 3.500 C 8.999 2.548,8.049 1.807,7.142 2.051 M7.233 7.029 C 6.809 7.168,6.539 7.506,6.508 7.935 C 6.494 8.130,6.545 8.377,6.983 10.235 C 7.253 11.380,7.496 12.373,7.524 12.441 C 7.596 12.621,7.887 12.875,8.099 12.944 C 8.255 12.994,8.470 13.000,10.013 13.000 L 11.752 13.000 12.247 15.125 C 12.542 16.396,12.774 17.320,12.822 17.423 C 12.981 17.762,13.350 18.000,13.717 18.000 C 14.074 18.000,14.447 17.766,14.605 17.441 C 14.759 17.125,14.743 17.029,14.094 14.231 C 13.772 12.846,13.481 11.654,13.447 11.581 C 13.362 11.403,13.130 11.177,12.940 11.089 C 12.786 11.018,12.750 11.016,10.998 11.007 L 9.214 10.998 8.835 9.357 C 8.627 8.455,8.427 7.653,8.392 7.575 C 8.307 7.393,8.116 7.203,7.916 7.103 C 7.745 7.018,7.386 6.979,7.233 7.029 " fill="var(--db-icon-color, currentColor)" stroke="none" fill-rule="evenodd"></path></svg>