<svg id="icon" height="20" viewBox="0 0 20 20" width="20" xmlns="http://www.w3.org/2000/svg"><path d="M2.678 2.060 C 2.367 2.171,2.163 2.377,2.051 2.696 C 2.008 2.819,2.000 3.077,2.000 4.343 L 2.000 5.844 2.755 9.064 C 3.170 10.835,3.516 12.290,3.523 12.299 C 3.530 12.307,3.909 11.939,4.366 11.482 L 5.195 10.650 4.608 8.200 L 4.021 5.750 4.002 4.250 L 3.983 2.750 3.903 2.586 C 3.675 2.123,3.141 1.894,2.678 2.060 M7.142 2.051 C 6.472 2.232,6.001 2.830,6.001 3.500 C 6.001 4.303,6.697 4.999,7.500 4.999 C 8.302 4.999,8.999 4.302,8.999 3.500 C 8.999 2.548,8.049 1.807,7.142 2.051 M16.211 2.546 C 16.134 2.571,16.022 2.623,15.961 2.661 C 15.900 2.699,12.765 5.817,8.995 9.590 C 2.390 16.200,2.138 16.457,2.070 16.643 C 1.931 17.025,2.016 17.419,2.298 17.702 C 2.581 17.984,2.977 18.069,3.357 17.929 C 3.529 17.865,3.624 17.784,4.250 17.164 L 4.950 16.471 5.184 16.629 C 5.312 16.715,5.545 16.830,5.700 16.885 L 5.983 16.983 8.045 16.993 C 10.319 17.004,10.274 17.007,10.562 16.796 C 10.838 16.593,11.030 16.181,10.983 15.890 C 10.928 15.551,10.725 15.270,10.417 15.105 L 10.250 15.017 8.335 15.007 L 6.419 14.998 7.418 13.999 L 8.416 13.000 10.084 13.000 L 11.752 13.000 12.247 15.125 C 12.542 16.396,12.774 17.320,12.822 17.423 C 12.981 17.762,13.350 18.000,13.717 18.000 C 14.074 18.000,14.447 17.766,14.605 17.441 C 14.759 17.125,14.743 17.029,14.094 14.231 C 13.772 12.846,13.481 11.654,13.447 11.581 C 13.362 11.403,13.130 11.177,12.940 11.089 C 12.790 11.020,12.733 11.016,11.602 11.007 L 10.421 10.997 13.890 7.523 C 17.207 4.202,17.362 4.042,17.430 3.857 C 17.664 3.214,17.236 2.554,16.559 2.513 C 16.437 2.506,16.292 2.519,16.211 2.546 M7.233 7.029 C 6.809 7.168,6.539 7.506,6.508 7.935 C 6.495 8.106,6.516 8.257,6.601 8.619 C 6.660 8.874,6.715 9.090,6.723 9.098 C 6.742 9.120,8.333 7.524,8.333 7.483 C 8.333 7.417,8.086 7.194,7.919 7.109 C 7.739 7.018,7.391 6.977,7.233 7.029 " fill="var(--db-icon-color, currentColor)" stroke="none" fill-rule="evenodd"></path></svg>