<svg id="icon" height="32" viewBox="0 0 32 32" width="32" xmlns="http://www.w3.org/2000/svg"><path d="M11.206 2.111 C 10.439 2.317,9.659 2.966,9.319 3.680 C 9.074 4.194,8.991 4.628,9.027 5.215 C 9.092 6.310,9.736 7.243,10.747 7.709 C 11.597 8.101,12.403 8.101,13.253 7.709 C 14.264 7.243,14.908 6.310,14.973 5.215 C 15.029 4.285,14.750 3.537,14.112 2.905 C 13.699 2.496,13.261 2.236,12.771 2.108 C 12.380 2.007,11.589 2.008,11.206 2.111 M12.361 4.083 C 12.765 4.251,12.975 4.562,12.975 4.991 C 12.975 5.754,12.178 6.230,11.520 5.860 C 10.955 5.543,10.848 4.719,11.315 4.283 C 11.604 4.014,12.010 3.936,12.361 4.083 M20.335 4.077 C 19.823 4.194,19.277 4.504,18.880 4.905 C 18.286 5.503,18.012 6.172,18.015 7.012 C 18.020 8.663,19.337 9.980,20.988 9.985 C 21.843 9.988,22.501 9.713,23.120 9.094 C 23.744 8.469,24.038 7.695,23.982 6.827 C 23.917 5.839,23.435 5.024,22.591 4.472 C 21.987 4.077,21.051 3.914,20.335 4.077 M21.402 6.100 C 21.760 6.253,21.973 6.597,21.973 7.019 C 21.973 8.080,20.542 8.362,20.099 7.387 C 19.805 6.739,20.259 6.035,20.975 6.029 C 21.115 6.028,21.307 6.060,21.402 6.100 M8.920 9.574 C 8.005 9.773,7.298 10.498,7.068 11.476 C 6.949 11.979,6.948 19.668,7.066 20.123 C 7.297 21.011,8.035 21.787,8.766 21.912 L 8.987 21.950 9.013 25.655 C 9.033 28.333,9.057 29.390,9.102 29.467 C 9.317 29.836,9.804 30.053,10.211 29.962 C 10.487 29.901,10.623 29.810,10.810 29.565 L 10.960 29.368 10.974 25.050 L 10.989 20.733 10.855 20.504 C 10.643 20.144,10.419 20.037,9.795 19.999 C 9.302 19.969,9.256 19.957,9.139 19.820 L 9.013 19.674 9.013 15.753 L 9.013 11.832 9.169 11.676 L 9.325 11.520 11.518 11.520 L 13.712 11.520 13.834 11.643 C 13.916 11.724,13.969 11.860,13.995 12.051 C 14.042 12.409,14.139 12.598,14.361 12.767 C 14.763 13.074,15.263 13.071,15.632 12.761 C 16.236 12.253,16.055 11.027,15.260 10.243 C 14.892 9.879,14.517 9.672,14.042 9.572 C 13.537 9.465,9.415 9.467,8.920 9.574 M18.587 11.603 C 18.205 11.804,18.027 12.092,18.027 12.507 C 18.027 12.764,18.160 13.084,18.330 13.238 C 18.599 13.482,18.713 13.493,20.817 13.493 C 22.680 13.493,22.816 13.500,22.898 13.591 C 22.979 13.680,22.987 14.004,22.987 17.152 C 22.987 20.995,23.006 20.784,22.635 20.939 C 22.537 20.980,22.299 21.013,22.106 21.013 C 21.605 21.013,21.309 21.176,21.113 21.560 C 21.015 21.752,21.012 21.907,21.026 25.568 L 21.040 29.377 21.203 29.582 C 21.536 29.999,22.034 30.104,22.469 29.849 C 22.602 29.771,22.767 29.617,22.835 29.507 L 22.960 29.307 22.987 26.116 L 23.013 22.926 23.285 22.834 C 24.104 22.557,24.802 21.756,24.960 20.913 C 25.032 20.523,25.032 13.818,24.959 13.434 C 24.820 12.701,24.332 12.063,23.655 11.730 L 23.283 11.547 21.015 11.532 C 19.031 11.520,18.727 11.529,18.587 11.603 M15.573 15.061 C 14.501 15.299,13.829 16.329,14.051 17.394 C 14.185 18.033,14.586 18.534,15.191 18.818 C 15.452 18.941,15.563 18.960,16.000 18.960 C 16.437 18.960,16.548 18.941,16.809 18.818 C 17.414 18.534,17.815 18.033,17.949 17.394 C 18.177 16.301,17.461 15.251,16.348 15.045 C 15.976 14.976,15.953 14.976,15.573 15.061 M14.901 20.079 C 13.977 20.280,13.364 20.887,13.119 21.843 C 13.028 22.198,13.013 22.435,13.013 23.499 C 13.013 24.838,13.048 25.119,13.280 25.632 C 13.538 26.205,14.004 26.611,14.657 26.832 L 14.981 26.941 14.997 28.097 C 15.016 29.441,15.051 29.565,15.482 29.833 C 15.967 30.134,16.616 29.963,16.875 29.467 C 16.977 29.273,16.988 29.148,17.003 28.097 L 17.019 26.940 17.351 26.830 C 18.054 26.596,18.554 26.100,18.817 25.376 C 18.954 25.000,18.959 24.941,18.977 23.641 C 18.993 22.421,18.984 22.255,18.885 21.860 C 18.638 20.886,18.022 20.278,17.081 20.078 C 16.627 19.982,15.346 19.983,14.901 20.079 M16.689 22.105 C 16.955 22.242,17.014 22.499,17.010 23.508 C 17.006 24.897,16.942 24.987,15.965 24.987 L 15.351 24.987 15.199 24.817 C 15.002 24.596,14.973 24.381,14.995 23.302 C 15.015 22.365,15.046 22.249,15.320 22.097 C 15.496 21.999,16.496 22.005,16.689 22.105 " fill="var(--db-icon-color, currentColor)" stroke="none" fill-rule="evenodd"></path></svg>