<svg id="icon" height="32" viewBox="0 0 32 32" width="32" xmlns="http://www.w3.org/2000/svg"><path d="M20.228 2.109 C 19.232 2.377,18.420 3.189,18.098 4.240 C 18.006 4.540,18.000 4.841,18.000 9.013 C 18.000 13.185,18.006 13.487,18.098 13.787 C 18.427 14.860,19.276 15.671,20.334 15.920 C 20.612 15.986,21.362 15.998,24.933 15.998 C 28.986 15.998,29.211 15.993,29.420 15.898 C 30.133 15.574,30.182 14.527,29.502 14.145 L 29.292 14.027 25.166 14.025 C 22.524 14.025,20.954 14.004,20.801 13.969 C 20.487 13.897,20.225 13.691,20.102 13.420 C 20.007 13.211,20.002 12.987,20.001 9.010 L 20.000 4.821 20.133 4.557 C 20.212 4.400,20.347 4.239,20.466 4.160 L 20.667 4.027 24.987 4.000 C 28.875 3.976,29.323 3.965,29.467 3.885 C 29.721 3.745,29.876 3.545,29.950 3.261 C 30.067 2.808,29.888 2.361,29.502 2.145 L 29.292 2.027 24.899 2.030 C 21.299 2.033,20.456 2.047,20.228 2.109 M2.550 5.122 C 1.983 5.421,1.840 6.220,2.272 6.674 C 2.492 6.905,2.566 6.935,3.112 7.011 C 3.967 7.131,4.443 7.454,4.785 8.147 L 4.987 8.554 5.017 10.477 L 5.047 12.400 6.203 18.107 C 6.839 21.245,7.410 23.981,7.471 24.187 C 7.666 24.835,7.925 25.260,8.452 25.792 C 8.980 26.325,9.358 26.565,10.053 26.810 L 10.480 26.960 13.787 26.976 C 15.605 26.985,17.172 26.978,17.268 26.960 C 17.473 26.922,17.784 26.665,17.904 26.433 C 18.012 26.224,18.013 25.778,17.906 25.572 C 17.798 25.365,17.559 25.141,17.370 25.070 C 17.270 25.032,16.194 25.013,14.168 25.013 C 11.582 25.013,11.067 25.001,10.798 24.931 C 10.200 24.775,9.720 24.393,9.471 23.875 C 9.370 23.667,9.051 22.154,8.162 17.674 L 6.987 11.749 6.987 10.096 C 6.987 8.622,6.975 8.398,6.880 8.022 C 6.507 6.540,5.324 5.407,3.829 5.098 C 3.267 4.982,2.798 4.991,2.550 5.122 M11.529 5.838 C 10.393 6.097,9.438 7.018,9.123 8.159 C 8.638 9.919,9.719 11.740,11.517 12.192 C 12.022 12.319,12.813 12.275,13.327 12.093 C 14.279 11.754,15.025 10.981,15.341 10.004 C 15.541 9.383,15.541 8.626,15.339 8.033 C 15.151 7.481,14.981 7.199,14.580 6.775 C 14.208 6.381,13.818 6.127,13.293 5.935 C 12.838 5.768,12.032 5.724,11.529 5.838 M12.861 7.936 C 13.272 8.150,13.494 8.526,13.493 9.011 C 13.492 9.300,13.465 9.407,13.333 9.638 C 13.039 10.150,12.488 10.381,11.942 10.222 C 11.359 10.051,11.040 9.621,11.041 9.010 C 11.042 8.055,12.002 7.488,12.861 7.936 M11.213 14.106 C 10.443 14.322,10.018 14.722,10.018 15.232 C 10.018 15.560,10.108 15.794,10.308 15.987 C 10.636 16.304,10.868 16.332,11.463 16.127 C 11.949 15.959,12.348 15.973,12.702 16.168 C 13.141 16.410,13.166 16.487,13.732 19.360 C 14.013 20.783,14.269 22.063,14.301 22.206 C 14.360 22.466,14.579 22.772,14.794 22.895 C 14.877 22.943,15.699 22.967,17.918 22.987 L 20.928 23.013 21.529 26.133 C 21.859 27.849,22.171 29.346,22.223 29.461 C 22.341 29.724,22.660 29.958,22.960 30.003 C 23.539 30.090,24.107 29.609,24.107 29.034 C 24.107 28.837,22.763 21.982,22.664 21.677 C 22.601 21.481,22.272 21.148,22.063 21.070 C 21.964 21.033,20.928 21.013,19.023 21.013 L 16.133 21.013 15.639 18.547 C 15.106 15.889,15.043 15.676,14.606 15.110 C 14.332 14.756,13.789 14.384,13.279 14.203 C 12.941 14.083,12.775 14.058,12.187 14.044 C 11.695 14.033,11.412 14.050,11.213 14.106 " fill="var(--db-icon-color, currentColor)" stroke="none" fill-rule="evenodd"></path></svg>