<svg id="icon" height="24" viewBox="0 0 24 24" width="24" xmlns="http://www.w3.org/2000/svg"><path d="M2.665 3.056 C 2.042 3.289,1.810 4.055,2.198 4.591 C 2.377 4.839,2.624 4.964,3.005 5.003 C 3.529 5.056,3.752 5.205,3.909 5.607 C 3.967 5.756,3.979 6.022,3.999 7.520 L 4.021 9.260 4.557 11.920 C 4.851 13.383,5.103 14.593,5.117 14.609 C 5.131 14.625,5.518 14.262,5.978 13.802 L 6.813 12.966 6.417 11.013 L 6.021 9.060 5.997 7.320 C 5.975 5.672,5.969 5.562,5.883 5.240 C 5.518 3.886,4.560 3.093,3.200 3.019 C 2.923 3.003,2.778 3.014,2.665 3.056 M9.580 3.047 C 9.236 3.113,8.883 3.310,8.596 3.596 C 7.800 4.393,7.800 5.606,8.597 6.404 C 8.742 6.550,8.952 6.715,9.063 6.771 C 9.874 7.182,10.814 7.029,11.433 6.384 C 12.222 5.562,12.186 4.315,11.350 3.538 C 10.876 3.098,10.240 2.921,9.580 3.047 M19.060 3.616 C 18.904 3.696,17.032 5.548,10.476 12.109 C 3.123 19.469,2.087 20.520,2.046 20.665 C 1.939 21.048,2.033 21.435,2.299 21.701 C 2.577 21.979,2.954 22.064,3.343 21.935 C 3.518 21.876,3.702 21.708,5.000 20.418 L 6.460 18.966 6.712 19.200 C 7.001 19.468,7.515 19.750,7.962 19.886 C 8.256 19.975,8.297 19.977,10.714 19.990 C 13.450 20.006,13.415 20.009,13.696 19.736 C 13.924 19.515,13.978 19.380,13.978 19.040 C 13.978 18.699,13.900 18.507,13.674 18.294 C 13.367 18.006,13.521 18.022,10.880 18.000 C 8.504 17.980,8.500 17.980,8.317 17.889 C 8.217 17.839,8.073 17.746,7.997 17.681 L 7.860 17.565 9.388 16.034 C 10.365 15.056,10.923 14.525,10.934 14.562 C 10.944 14.594,10.982 14.782,11.018 14.980 C 11.093 15.385,11.213 15.625,11.421 15.783 C 11.699 15.995,11.711 15.996,13.809 15.998 L 15.758 16.000 15.780 16.090 C 16.076 17.349,17.099 21.401,17.141 21.481 C 17.278 21.746,17.714 22.000,18.032 22.000 C 18.437 22.000,18.860 21.678,18.976 21.283 C 19.011 21.163,19.040 21.021,19.040 20.966 C 19.040 20.911,18.688 19.470,18.257 17.763 C 17.454 14.576,17.408 14.426,17.170 14.239 C 16.887 14.017,16.934 14.021,14.830 14.008 C 13.758 14.002,12.880 13.993,12.880 13.988 C 12.879 13.984,12.829 13.707,12.767 13.373 L 12.654 12.766 16.468 8.953 C 20.703 4.720,20.502 4.946,20.474 4.446 C 20.443 3.903,20.088 3.553,19.544 3.528 C 19.303 3.517,19.230 3.530,19.060 3.616 M9.100 9.049 C 8.411 9.295,8.186 10.166,8.680 10.675 C 8.768 10.766,8.863 10.840,8.890 10.840 C 8.951 10.840,10.665 9.132,10.635 9.102 C 10.539 9.006,9.338 8.964,9.100 9.049 " fill="var(--db-icon-color, currentColor)" stroke="none" fill-rule="evenodd"></path></svg>