<svg id="icon" height="24" viewBox="0 0 24 24" width="24" xmlns="http://www.w3.org/2000/svg"><path d="M2.665 3.056 C 2.042 3.289,1.810 4.055,2.198 4.591 C 2.377 4.839,2.624 4.964,3.005 5.003 C 3.529 5.056,3.752 5.205,3.909 5.607 C 3.966 5.756,3.979 6.028,4.000 7.540 L 4.025 9.300 4.871 13.487 C 5.456 16.377,5.751 17.758,5.827 17.947 C 6.010 18.407,6.196 18.684,6.576 19.062 C 6.892 19.376,6.995 19.451,7.360 19.629 C 8.081 19.980,8.029 19.974,10.233 19.990 C 12.394 20.006,12.421 20.003,12.696 19.736 C 12.924 19.515,12.978 19.380,12.978 19.040 C 12.978 18.810,12.958 18.703,12.893 18.580 C 12.779 18.368,12.581 18.183,12.360 18.083 C 12.188 18.005,12.103 18.002,10.411 18.001 C 8.886 18.000,8.616 17.991,8.451 17.935 C 8.171 17.840,7.948 17.670,7.800 17.440 C 7.676 17.247,7.629 17.033,6.847 13.169 L 6.025 9.100 5.999 7.340 C 5.975 5.677,5.969 5.561,5.883 5.240 C 5.518 3.886,4.560 3.093,3.200 3.019 C 2.923 3.003,2.778 3.014,2.665 3.056 M11.580 3.047 C 11.236 3.113,10.883 3.310,10.596 3.596 C 9.800 4.393,9.800 5.606,10.597 6.404 C 10.742 6.550,10.952 6.715,11.063 6.771 C 11.874 7.182,12.814 7.029,13.433 6.384 C 14.222 5.562,14.186 4.315,13.350 3.538 C 12.876 3.098,12.240 2.921,11.580 3.047 M9.065 9.059 C 8.678 9.197,8.394 9.602,8.394 10.017 C 8.394 10.425,8.629 10.771,9.020 10.941 C 9.064 10.960,9.436 10.986,9.847 10.998 C 10.662 11.022,10.702 11.033,10.898 11.295 C 10.977 11.402,10.981 11.465,11.000 13.334 L 11.020 15.262 11.122 15.461 C 11.237 15.684,11.488 15.896,11.711 15.958 C 11.800 15.983,12.415 16.000,13.248 16.000 L 14.636 16.000 14.659 16.130 C 14.671 16.202,14.816 17.393,14.980 18.777 C 15.307 21.525,15.307 21.525,15.591 21.759 C 16.153 22.222,17.033 21.989,17.226 21.325 C 17.291 21.101,17.290 21.088,16.906 17.940 C 16.542 14.947,16.516 14.768,16.410 14.562 C 16.286 14.318,16.042 14.106,15.809 14.042 C 15.720 14.017,15.123 14.000,14.330 14.000 L 13.000 14.000 13.000 13.000 L 13.000 12.000 13.973 12.000 C 15.046 12.000,15.184 11.977,15.450 11.758 C 16.045 11.268,15.839 10.280,15.095 10.057 C 14.951 10.013,14.621 10.000,13.662 10.000 L 12.417 10.000 12.238 9.816 C 11.866 9.432,11.356 9.154,10.847 9.056 C 10.453 8.981,9.279 8.983,9.065 9.059 M17.720 10.035 C 17.419 10.133,17.175 10.352,17.057 10.631 C 16.974 10.826,16.975 11.183,17.058 11.382 C 17.140 11.579,17.331 11.781,17.540 11.892 C 17.683 11.968,17.786 11.980,18.500 12.000 C 19.357 12.024,19.405 12.034,19.677 12.264 C 19.747 12.322,19.843 12.444,19.892 12.535 L 19.980 12.700 20.000 17.000 L 20.020 21.300 20.106 21.460 C 20.295 21.810,20.576 21.977,20.981 21.979 C 21.205 21.980,21.302 21.959,21.460 21.878 C 21.688 21.761,21.898 21.509,21.960 21.280 C 21.989 21.174,21.999 19.727,21.991 16.772 L 21.980 12.420 21.885 12.140 C 21.752 11.745,21.624 11.502,21.379 11.180 C 20.977 10.652,20.452 10.303,19.740 10.090 C 19.514 10.023,17.894 9.979,17.720 10.035 " fill="var(--db-icon-color, currentColor)" stroke="none" fill-rule="evenodd"></path></svg>