<svg id="icon" height="24" viewBox="0 0 24 24" width="24" xmlns="http://www.w3.org/2000/svg"><path d="M8.580 2.047 C 7.859 2.185,7.199 2.848,7.044 3.592 C 6.789 4.816,7.751 6.000,9.000 6.000 C 10.080 6.000,11.000 5.080,11.000 4.000 C 11.000 3.477,10.790 2.983,10.404 2.596 C 9.913 2.106,9.277 1.914,8.580 2.047 M14.580 4.047 C 13.859 4.185,13.199 4.848,13.044 5.592 C 12.789 6.816,13.751 8.000,15.000 8.000 C 16.080 8.000,17.000 7.080,17.000 6.000 C 17.000 5.477,16.790 4.983,16.404 4.596 C 15.913 4.106,15.277 3.914,14.580 4.047 M6.681 7.285 C 6.144 7.376,5.518 7.840,5.251 8.343 C 5.000 8.818,5.000 8.815,5.000 11.422 C 5.000 13.646,5.005 13.806,5.079 14.096 C 5.186 14.514,5.370 14.845,5.674 15.168 C 6.014 15.529,6.397 15.763,6.930 15.935 C 6.996 15.956,7.000 16.116,7.000 18.552 C 7.000 21.484,6.990 21.384,7.303 21.697 C 7.700 22.093,8.307 22.095,8.701 21.701 C 9.013 21.389,9.000 21.548,9.000 17.972 C 9.000 14.445,9.015 14.644,8.728 14.347 C 8.477 14.086,8.320 14.028,7.800 14.002 C 7.297 13.977,7.196 13.941,7.078 13.747 C 7.004 13.625,7.000 13.528,7.000 11.430 L 7.000 9.240 8.607 9.240 C 10.446 9.240,10.402 9.247,10.732 8.881 C 11.183 8.379,11.044 7.679,10.428 7.350 C 10.262 7.261,10.238 7.260,8.580 7.254 C 7.656 7.250,6.801 7.264,6.681 7.285 M14.716 9.302 C 14.615 9.333,14.451 9.430,14.352 9.518 C 13.799 10.005,13.927 10.852,14.600 11.157 C 14.767 11.232,14.860 11.238,15.890 11.239 L 17.000 11.240 17.000 12.922 C 17.000 14.716,17.000 14.719,16.801 14.899 C 16.726 14.967,16.636 14.982,16.204 15.001 C 15.744 15.022,15.677 15.034,15.509 15.133 C 15.406 15.193,15.277 15.301,15.222 15.374 C 14.997 15.669,15.000 15.622,15.000 18.515 L 15.001 21.180 15.095 21.380 C 15.337 21.890,15.895 22.127,16.360 21.917 C 16.602 21.808,16.790 21.622,16.905 21.380 L 16.999 21.180 17.000 19.060 L 17.001 16.940 17.295 16.851 C 18.048 16.622,18.706 15.895,18.921 15.056 C 18.994 14.770,19.000 14.607,19.000 12.882 C 19.000 10.853,18.993 10.773,18.769 10.320 C 18.517 9.811,17.887 9.367,17.298 9.282 C 16.859 9.218,14.939 9.233,14.716 9.302 M11.601 12.064 C 11.044 12.214,10.632 12.671,10.523 13.260 C 10.405 13.900,10.776 14.583,11.400 14.873 C 11.587 14.961,11.676 14.976,12.000 14.976 C 12.324 14.976,12.413 14.961,12.600 14.873 C 13.224 14.583,13.595 13.900,13.477 13.260 C 13.366 12.662,12.954 12.211,12.381 12.062 C 12.091 11.986,11.888 11.987,11.601 12.064 M11.150 16.042 C 10.724 16.147,10.343 16.465,10.144 16.880 L 10.020 17.140 10.020 18.000 L 10.020 18.860 10.144 19.120 C 10.288 19.420,10.538 19.685,10.810 19.824 L 11.000 19.921 11.000 20.531 C 11.000 21.220,11.030 21.368,11.212 21.607 C 11.570 22.076,12.281 22.121,12.700 21.702 C 12.952 21.450,13.000 21.263,13.000 20.534 L 13.000 19.921 13.190 19.824 C 13.462 19.685,13.712 19.420,13.856 19.120 L 13.980 18.860 13.980 18.000 C 13.980 17.142,13.980 17.139,13.868 16.900 C 13.721 16.585,13.413 16.275,13.104 16.133 C 12.866 16.023,12.842 16.021,12.080 16.013 C 11.651 16.008,11.232 16.021,11.150 16.042 " fill="var(--db-icon-color, currentColor)" stroke="none" fill-rule="evenodd"></path></svg>