<svg id="icon" height="20" viewBox="0 0 20 20" width="20" xmlns="http://www.w3.org/2000/svg"><path d="M5.650 2.029 C 5.225 2.142,4.941 2.501,4.908 2.966 C 4.897 3.130,4.909 3.224,4.958 3.350 C 4.994 3.442,5.490 4.294,6.062 5.244 C 6.633 6.194,7.100 6.976,7.100 6.982 C 7.100 6.988,6.886 6.999,6.625 7.007 C 6.218 7.019,6.115 7.034,5.901 7.110 C 5.310 7.320,4.821 7.809,4.591 8.419 C 4.517 8.615,4.517 8.638,4.507 10.625 L 4.498 12.633 4.091 12.634 C 3.386 12.635,3.004 12.768,2.630 13.142 C 2.399 13.373,2.206 13.741,2.092 14.167 C 2.019 14.440,2.017 14.499,2.017 15.867 L 2.017 17.283 2.111 17.476 C 2.478 18.222,3.633 18.146,3.929 17.355 C 3.996 17.174,4.000 17.107,4.000 16.062 C 4.000 15.111,4.007 14.944,4.054 14.845 C 4.137 14.672,4.243 14.633,4.643 14.633 C 5.044 14.633,5.425 14.550,5.664 14.411 C 6.005 14.211,6.277 13.830,6.420 13.348 C 6.473 13.170,6.481 12.942,6.491 11.075 L 6.503 9.000 7.193 8.999 C 8.180 8.999,8.516 8.909,8.886 8.548 C 9.157 8.284,9.332 7.860,9.333 7.461 C 9.334 7.236,9.251 6.839,9.149 6.578 C 9.041 6.302,6.802 2.551,6.624 2.348 C 6.554 2.269,6.419 2.166,6.324 2.119 C 6.136 2.027,5.818 1.985,5.650 2.029 M9.977 2.063 C 9.745 2.209,9.750 2.165,9.750 4.000 C 9.750 5.525,9.755 5.658,9.810 5.760 C 9.973 6.058,10.362 6.074,10.535 5.790 C 10.593 5.694,10.600 5.620,10.600 5.067 L 10.600 4.450 10.875 4.461 C 11.357 4.481,11.761 4.317,11.963 4.021 C 12.166 3.721,12.238 3.303,12.154 2.905 C 12.064 2.482,11.867 2.237,11.500 2.094 C 11.342 2.032,11.233 2.020,10.700 2.009 C 10.127 1.997,10.076 2.001,9.977 2.063 M17.366 2.410 C 17.269 2.459,17.186 2.610,17.114 2.875 C 17.063 3.062,17.059 3.067,16.946 3.067 C 16.682 3.067,16.571 3.376,16.764 3.569 C 16.818 3.623,16.891 3.667,16.928 3.667 C 16.992 3.667,16.995 3.694,17.005 4.525 C 17.017 5.381,17.017 5.384,17.107 5.568 C 17.217 5.790,17.334 5.884,17.589 5.950 C 17.817 6.009,18.017 6.014,18.217 5.963 C 18.398 5.918,18.467 5.844,18.490 5.672 C 18.505 5.560,18.494 5.525,18.423 5.453 C 18.349 5.379,18.313 5.369,18.139 5.376 C 17.983 5.382,17.925 5.370,17.870 5.320 C 17.803 5.259,17.800 5.228,17.800 4.462 L 17.800 3.667 18.002 3.667 C 18.254 3.667,18.383 3.603,18.431 3.456 C 18.473 3.329,18.454 3.251,18.356 3.142 C 18.298 3.077,18.255 3.067,18.044 3.067 L 17.800 3.067 17.800 2.852 C 17.800 2.524,17.753 2.442,17.533 2.389 C 17.487 2.378,17.412 2.388,17.366 2.410 M11.133 2.758 C 11.289 2.836,11.337 2.951,11.337 3.248 C 11.337 3.519,11.284 3.665,11.155 3.749 C 11.062 3.810,10.803 3.850,10.686 3.820 L 10.600 3.799 10.600 3.249 L 10.600 2.700 10.808 2.700 C 10.940 2.700,11.060 2.722,11.133 2.758 M13.105 3.000 C 12.914 3.041,12.689 3.175,12.598 3.303 C 12.389 3.596,12.378 4.167,12.575 4.445 C 12.687 4.602,12.888 4.724,13.219 4.834 C 13.571 4.952,13.633 4.996,13.633 5.132 C 13.633 5.383,13.349 5.459,12.867 5.337 C 12.518 5.249,12.514 5.249,12.415 5.348 C 12.265 5.499,12.324 5.757,12.529 5.846 C 12.893 6.006,13.394 6.041,13.748 5.931 C 14.170 5.801,14.351 5.508,14.328 4.990 C 14.307 4.505,14.143 4.319,13.571 4.136 C 13.385 4.077,13.211 4.006,13.183 3.979 C 13.106 3.901,13.120 3.713,13.207 3.652 C 13.303 3.585,13.635 3.584,13.853 3.649 C 14.051 3.709,14.118 3.692,14.184 3.566 C 14.259 3.420,14.247 3.258,14.154 3.170 C 13.996 3.022,13.433 2.931,13.105 3.000 M15.200 3.020 C 15.099 3.047,14.961 3.108,14.892 3.156 C 14.631 3.337,14.501 3.823,14.612 4.205 C 14.708 4.535,14.860 4.662,15.371 4.836 C 15.543 4.895,15.702 4.966,15.725 4.995 C 15.791 5.076,15.776 5.248,15.697 5.320 C 15.601 5.406,15.225 5.406,14.945 5.321 C 14.698 5.245,14.586 5.266,14.517 5.399 C 14.334 5.753,14.701 5.983,15.450 5.983 C 15.761 5.983,15.842 5.971,15.983 5.906 C 16.329 5.748,16.477 5.491,16.479 5.048 C 16.481 4.546,16.284 4.314,15.704 4.135 C 15.524 4.079,15.352 4.006,15.322 3.973 C 15.241 3.883,15.251 3.715,15.341 3.652 C 15.437 3.584,15.767 3.584,15.994 3.651 C 16.203 3.713,16.283 3.682,16.354 3.511 C 16.393 3.418,16.396 3.371,16.366 3.280 C 16.321 3.146,16.223 3.087,15.927 3.017 C 15.665 2.956,15.437 2.957,15.200 3.020 M2.678 4.060 C 1.974 4.311,1.774 5.177,2.298 5.702 C 3.046 6.449,4.303 5.645,3.933 4.657 C 3.745 4.153,3.175 3.882,2.678 4.060 M11.083 8.111 C 10.793 8.225,10.577 8.430,10.485 8.680 C 10.457 8.755,10.116 9.927,9.726 11.283 L 9.017 13.750 9.007 15.445 C 8.996 17.387,8.990 17.341,9.269 17.646 C 9.764 18.187,10.547 18.066,10.907 17.393 C 10.983 17.251,10.983 17.239,11.000 15.650 C 11.016 14.083,11.018 14.044,11.097 13.775 L 11.177 13.500 11.634 13.500 C 11.897 13.500,12.138 13.517,12.202 13.539 C 12.264 13.561,12.597 13.765,12.943 13.993 C 13.289 14.221,13.640 14.429,13.724 14.454 C 13.834 14.487,14.079 14.500,14.587 14.500 C 14.977 14.500,15.303 14.512,15.312 14.526 C 15.321 14.540,15.254 14.850,15.164 15.214 L 15.000 15.876 15.000 16.504 C 15.000 17.053,15.008 17.153,15.068 17.312 C 15.154 17.543,15.344 17.758,15.571 17.884 C 15.725 17.969,15.785 17.983,16.000 17.983 C 16.214 17.983,16.275 17.969,16.427 17.885 C 16.628 17.774,16.796 17.601,16.906 17.393 C 16.974 17.265,16.983 17.187,17.001 16.633 L 17.021 16.017 17.261 15.071 C 17.392 14.552,17.500 14.071,17.500 14.003 C 17.500 13.799,17.407 13.548,17.266 13.369 C 17.144 13.216,17.071 13.170,16.447 12.859 L 15.762 12.517 15.029 12.506 L 14.297 12.495 13.610 12.043 C 13.233 11.794,12.856 11.570,12.773 11.545 C 12.680 11.517,12.459 11.500,12.191 11.500 L 11.759 11.500 11.782 11.408 C 11.795 11.358,11.940 10.844,12.105 10.267 C 12.443 9.086,12.461 8.955,12.323 8.654 C 12.152 8.281,11.818 8.066,11.417 8.070 C 11.288 8.071,11.138 8.089,11.083 8.111 " fill="var(--db-icon-color, currentColor)" stroke="none" fill-rule="evenodd"></path></svg>