<svg id="icon" height="32" viewBox="0 0 32 32" width="32" xmlns="http://www.w3.org/2000/svg"><path d="M22.044 5.477 C 21.884 5.508,21.665 5.723,21.623 5.889 C 21.569 6.104,21.641 6.370,21.792 6.511 C 21.927 6.639,21.940 6.640,23.204 6.656 C 23.906 6.665,24.480 6.685,24.480 6.702 C 24.480 6.718,23.814 7.587,23.001 8.632 C 22.187 9.678,21.479 10.616,21.428 10.718 C 21.231 11.103,21.376 11.799,21.683 11.938 C 21.778 11.982,22.447 12.000,23.925 12.000 C 26.268 12.000,26.258 12.001,26.424 11.650 C 26.574 11.336,26.470 11.050,26.133 10.848 C 26.089 10.822,25.447 10.788,24.706 10.773 L 23.358 10.747 24.823 8.789 C 25.629 7.712,26.325 6.759,26.371 6.672 C 26.498 6.426,26.478 5.973,26.332 5.755 C 26.119 5.440,26.125 5.441,24.053 5.448 C 23.012 5.452,22.108 5.465,22.044 5.477 M16.764 7.970 C 16.449 8.109,16.372 8.520,16.617 8.751 C 16.750 8.875,16.790 8.881,17.712 8.907 L 18.669 8.933 17.515 10.399 C 16.881 11.205,16.340 11.920,16.314 11.989 C 16.288 12.057,16.267 12.243,16.267 12.400 C 16.267 12.627,16.294 12.719,16.395 12.837 L 16.524 12.987 18.192 13.002 C 19.387 13.013,19.904 13.000,20.013 12.955 C 20.166 12.891,20.320 12.666,20.320 12.507 C 20.320 12.375,20.175 12.125,20.069 12.074 C 20.016 12.048,19.511 12.015,18.947 12.000 L 17.921 11.973 19.065 10.489 C 20.272 8.922,20.349 8.787,20.260 8.378 C 20.239 8.278,20.159 8.134,20.083 8.058 L 19.944 7.920 18.439 7.908 C 17.242 7.898,16.899 7.910,16.764 7.970 M12.501 10.422 C 12.281 10.519,12.221 10.740,12.362 10.929 C 12.463 11.064,12.478 11.067,13.219 11.081 C 13.634 11.090,13.973 11.111,13.973 11.128 C 13.973 11.146,13.647 11.567,13.249 12.064 C 12.263 13.296,12.174 13.472,12.374 13.801 C 12.508 14.021,12.615 14.037,13.852 14.017 C 14.819 14.001,14.884 13.993,14.992 13.885 C 15.131 13.746,15.140 13.527,15.012 13.385 C 14.926 13.290,14.845 13.280,14.178 13.280 C 13.772 13.280,13.440 13.265,13.440 13.246 C 13.440 13.228,13.766 12.806,14.164 12.309 C 14.562 11.812,14.934 11.327,14.991 11.232 C 15.139 10.980,15.141 10.637,14.994 10.490 C 14.882 10.378,14.830 10.373,13.772 10.361 C 12.923 10.351,12.628 10.365,12.501 10.422 M2.792 15.038 C 2.517 15.103,2.271 15.287,2.131 15.531 C 2.001 15.758,2.000 15.774,1.983 17.333 C 1.973 18.201,1.991 19.170,2.023 19.493 C 2.157 20.876,2.704 22.102,3.636 23.114 L 3.975 23.482 3.482 25.701 C 3.210 26.921,2.989 27.980,2.989 28.053 C 2.989 28.259,3.167 28.603,3.355 28.761 C 3.567 28.940,3.896 29.031,4.164 28.986 C 4.412 28.944,4.768 28.697,4.872 28.494 C 4.914 28.413,5.136 27.500,5.366 26.465 C 5.714 24.896,5.797 24.589,5.865 24.616 C 6.181 24.738,6.877 24.905,7.280 24.954 C 7.613 24.995,10.589 25.013,16.987 25.013 L 26.213 25.014 26.633 26.680 C 26.864 27.597,27.086 28.411,27.127 28.491 C 27.224 28.682,27.496 28.881,27.771 28.962 C 28.242 29.102,28.826 28.757,28.965 28.256 C 29.024 28.042,29.003 27.925,28.654 26.520 L 28.280 25.013 28.693 25.013 C 29.126 25.013,29.494 24.917,29.670 24.759 C 29.846 24.599,29.986 24.261,29.986 23.992 C 29.986 23.651,29.791 23.321,29.485 23.146 L 29.253 23.013 18.240 22.986 C 5.917 22.954,7.078 22.995,6.213 22.564 C 5.403 22.160,4.837 21.591,4.431 20.773 C 4.051 20.006,4.042 19.939,4.006 17.707 C 3.977 15.958,3.962 15.686,3.882 15.540 C 3.758 15.313,3.505 15.109,3.265 15.042 C 3.044 14.981,3.030 14.981,2.792 15.038 M7.782 15.576 C 7.196 15.715,6.561 16.091,6.190 16.518 C 5.905 16.846,5.572 17.533,5.489 17.964 C 5.364 18.619,5.518 19.444,5.883 20.067 C 6.127 20.484,6.644 20.947,7.119 21.173 C 7.615 21.410,7.968 21.493,8.471 21.493 C 9.746 21.493,10.917 20.614,11.312 19.360 C 11.455 18.906,11.466 18.176,11.337 17.733 C 11.029 16.678,10.177 15.840,9.168 15.602 C 8.801 15.516,8.093 15.502,7.782 15.576 M8.705 17.549 C 8.970 17.623,9.220 17.841,9.340 18.104 C 9.591 18.657,9.303 19.273,8.713 19.444 C 8.411 19.532,8.239 19.511,7.942 19.348 C 7.216 18.951,7.349 17.787,8.149 17.546 C 8.352 17.485,8.477 17.486,8.705 17.549 M15.108 17.574 C 14.005 17.814,13.044 18.801,12.698 20.051 C 12.531 20.652,12.641 21.034,13.061 21.317 C 13.655 21.718,14.349 21.409,14.609 20.627 C 14.809 20.027,15.174 19.628,15.616 19.528 C 15.784 19.491,16.282 19.517,17.535 19.632 C 23.609 20.185,26.842 20.492,27.117 20.540 C 27.710 20.643,27.830 20.748,28.098 21.392 C 28.155 21.528,28.282 21.700,28.381 21.776 C 28.555 21.909,28.961 22.038,29.087 22.000 C 29.120 21.990,29.212 21.968,29.292 21.950 C 29.475 21.910,29.792 21.636,29.903 21.421 C 30.255 20.741,29.544 19.441,28.529 18.908 C 27.992 18.626,27.753 18.569,26.720 18.479 C 25.383 18.361,19.101 17.780,17.493 17.625 C 15.971 17.478,15.588 17.470,15.108 17.574 " fill="var(--db-icon-color, currentColor)" stroke="none" fill-rule="evenodd"></path></svg>