<svg id="icon" height="32" viewBox="0 0 32 32" width="32" xmlns="http://www.w3.org/2000/svg"><path d="M22.044 5.477 C 21.884 5.508,21.665 5.723,21.623 5.889 C 21.569 6.104,21.641 6.370,21.792 6.511 C 21.927 6.639,21.940 6.640,23.204 6.656 C 23.906 6.665,24.480 6.685,24.480 6.702 C 24.480 6.718,23.814 7.587,23.001 8.632 C 22.187 9.678,21.479 10.616,21.428 10.718 C 21.231 11.103,21.376 11.799,21.683 11.938 C 21.778 11.982,22.447 12.000,23.925 12.000 C 26.268 12.000,26.258 12.001,26.424 11.650 C 26.574 11.336,26.470 11.050,26.133 10.848 C 26.089 10.822,25.447 10.788,24.706 10.773 L 23.358 10.747 24.823 8.789 C 25.629 7.712,26.325 6.759,26.371 6.672 C 26.498 6.426,26.478 5.973,26.332 5.755 C 26.119 5.440,26.125 5.441,24.053 5.448 C 23.012 5.452,22.108 5.465,22.044 5.477 M16.764 7.970 C 16.449 8.109,16.372 8.520,16.617 8.751 C 16.750 8.875,16.790 8.881,17.712 8.907 L 18.669 8.933 17.515 10.399 C 16.881 11.205,16.340 11.920,16.314 11.989 C 16.288 12.057,16.267 12.243,16.267 12.400 C 16.267 12.627,16.294 12.719,16.395 12.837 L 16.524 12.987 18.192 13.002 C 19.387 13.013,19.904 13.000,20.013 12.955 C 20.166 12.891,20.320 12.666,20.320 12.507 C 20.320 12.375,20.175 12.125,20.069 12.074 C 20.016 12.048,19.511 12.015,18.947 12.000 L 17.921 11.973 19.065 10.489 C 20.272 8.922,20.349 8.787,20.260 8.378 C 20.239 8.278,20.159 8.134,20.083 8.058 L 19.944 7.920 18.439 7.908 C 17.242 7.898,16.899 7.910,16.764 7.970 M12.501 10.422 C 12.281 10.519,12.221 10.740,12.362 10.929 C 12.463 11.064,12.478 11.067,13.219 11.081 C 13.634 11.090,13.973 11.111,13.973 11.128 C 13.973 11.146,13.647 11.567,13.249 12.064 C 12.263 13.296,12.174 13.472,12.374 13.801 C 12.508 14.021,12.615 14.037,13.852 14.017 C 14.819 14.001,14.884 13.993,14.992 13.885 C 15.131 13.746,15.140 13.527,15.012 13.385 C 14.926 13.290,14.845 13.280,14.178 13.280 C 13.772 13.280,13.440 13.265,13.440 13.246 C 13.440 13.228,13.766 12.806,14.164 12.309 C 14.562 11.812,14.934 11.327,14.991 11.232 C 15.139 10.980,15.141 10.637,14.994 10.490 C 14.882 10.378,14.830 10.373,13.772 10.361 C 12.923 10.351,12.628 10.365,12.501 10.422 M5.347 16.081 C 4.792 16.201,4.340 16.458,3.893 16.906 C 3.153 17.648,2.855 18.600,3.061 19.573 C 3.360 20.994,4.573 21.991,6.000 21.991 C 8.056 21.991,9.512 19.942,8.821 18.020 C 8.302 16.574,6.838 15.757,5.347 16.081 M12.457 17.575 C 11.326 17.885,10.390 18.904,10.055 20.188 C 9.826 21.069,10.648 21.770,11.453 21.380 C 11.727 21.248,11.902 21.002,12.020 20.583 C 12.175 20.036,12.643 19.556,13.084 19.494 C 13.452 19.442,27.128 20.509,27.413 20.611 C 27.741 20.730,27.915 20.914,28.050 21.283 C 28.186 21.657,28.441 21.892,28.791 21.966 C 28.922 21.994,29.056 22.009,29.088 22.000 C 29.120 21.990,29.212 21.968,29.292 21.950 C 29.475 21.910,29.792 21.636,29.903 21.421 C 30.076 21.087,29.969 20.499,29.630 19.920 C 29.216 19.214,28.248 18.622,27.360 18.533 C 26.156 18.412,13.626 17.494,13.226 17.498 C 12.948 17.501,12.602 17.535,12.457 17.575 M6.383 18.084 C 6.894 18.277,7.128 18.929,6.874 19.453 C 6.442 20.345,5.108 20.070,5.025 19.073 C 4.990 18.655,5.238 18.231,5.600 18.087 C 5.779 18.015,6.198 18.013,6.383 18.084 M2.707 23.062 C 2.394 23.175,2.250 23.291,2.125 23.534 C 1.958 23.858,1.973 24.205,2.167 24.518 C 2.351 24.813,2.627 24.970,3.022 25.003 C 3.179 25.016,3.307 25.045,3.307 25.069 C 3.307 25.092,3.233 25.579,3.144 26.152 C 2.960 27.332,2.971 27.483,3.268 27.822 C 3.669 28.278,4.330 28.280,4.729 27.826 C 4.950 27.574,4.977 27.471,5.179 26.147 L 5.352 25.013 15.999 25.013 L 26.647 25.013 26.824 26.173 C 26.922 26.811,27.035 27.417,27.077 27.519 C 27.285 28.034,27.890 28.296,28.389 28.088 C 28.623 27.990,28.890 27.675,28.961 27.410 C 29.010 27.229,28.992 27.019,28.856 26.162 C 28.767 25.595,28.693 25.105,28.693 25.073 C 28.693 25.039,28.784 25.013,28.900 25.013 C 29.146 25.013,29.528 24.887,29.670 24.759 C 29.846 24.599,29.986 24.261,29.986 23.992 C 29.986 23.651,29.791 23.321,29.485 23.146 L 29.253 23.013 16.080 23.002 C 5.181 22.993,2.872 23.003,2.707 23.062 " fill="var(--db-icon-color, currentColor)" stroke="none" fill-rule="evenodd"></path></svg>