<svg id="icon" height="32" viewBox="0 0 32 32" width="32" xmlns="http://www.w3.org/2000/svg"><path d="M2.550 5.122 C 1.983 5.421,1.840 6.220,2.272 6.674 C 2.492 6.905,2.566 6.935,3.112 7.011 C 3.967 7.131,4.443 7.454,4.785 8.147 L 4.987 8.554 5.017 10.477 L 5.047 12.400 5.914 16.666 C 6.390 19.012,6.792 20.943,6.806 20.957 C 6.819 20.971,7.204 20.609,7.660 20.153 L 8.490 19.323 7.738 15.533 L 6.987 11.744 6.987 10.094 C 6.987 8.622,6.975 8.398,6.880 8.022 C 6.507 6.540,5.324 5.407,3.829 5.098 C 3.267 4.982,2.798 4.991,2.550 5.122 M24.936 5.784 C 24.769 5.845,22.574 8.013,14.420 16.171 C 3.135 27.461,3.939 26.608,4.025 27.181 C 4.057 27.391,4.110 27.485,4.312 27.688 C 4.515 27.890,4.609 27.943,4.819 27.975 C 5.330 28.052,5.397 28.006,6.775 26.635 L 8.029 25.387 8.481 25.831 C 8.981 26.321,9.433 26.603,10.071 26.820 L 10.480 26.960 13.787 26.976 C 15.605 26.985,17.172 26.978,17.268 26.960 C 17.473 26.922,17.784 26.665,17.904 26.433 C 18.005 26.237,18.015 25.779,17.921 25.597 C 17.837 25.434,17.607 25.184,17.467 25.102 C 17.390 25.058,16.441 25.032,14.107 25.013 C 10.920 24.987,10.848 24.984,10.570 24.871 C 10.215 24.725,9.886 24.474,9.654 24.173 L 9.475 23.939 11.604 21.809 C 12.775 20.638,13.748 19.680,13.766 19.680 C 13.785 19.680,13.914 20.262,14.054 20.973 C 14.194 21.685,14.330 22.327,14.357 22.400 C 14.413 22.550,14.639 22.804,14.800 22.898 C 14.876 22.942,15.768 22.968,17.918 22.987 L 20.928 23.013 21.529 26.133 C 21.859 27.849,22.171 29.346,22.223 29.461 C 22.341 29.724,22.660 29.958,22.960 30.003 C 23.539 30.090,24.107 29.609,24.107 29.034 C 24.107 28.837,22.763 21.982,22.664 21.677 C 22.601 21.481,22.272 21.148,22.063 21.070 C 21.964 21.033,20.928 21.013,19.022 21.013 L 16.131 21.013 15.822 19.458 L 15.512 17.902 20.794 12.618 C 24.518 8.892,26.100 7.275,26.158 7.135 C 26.342 6.691,26.195 6.139,25.829 5.897 C 25.570 5.726,25.215 5.681,24.936 5.784 M11.529 5.838 C 10.393 6.097,9.438 7.018,9.123 8.159 C 8.638 9.919,9.719 11.740,11.517 12.192 C 12.022 12.319,12.813 12.275,13.327 12.093 C 14.279 11.754,15.025 10.981,15.341 10.004 C 15.541 9.383,15.541 8.626,15.339 8.033 C 15.151 7.481,14.981 7.199,14.580 6.775 C 14.208 6.381,13.818 6.127,13.293 5.935 C 12.838 5.768,12.032 5.724,11.529 5.838 M12.861 7.936 C 13.272 8.150,13.494 8.526,13.493 9.011 C 13.492 9.300,13.465 9.407,13.333 9.638 C 13.039 10.150,12.488 10.381,11.942 10.222 C 11.359 10.051,11.040 9.621,11.041 9.010 C 11.042 8.055,12.002 7.488,12.861 7.936 M11.213 14.109 C 10.692 14.249,10.258 14.534,10.100 14.839 C 9.925 15.177,10.022 15.712,10.308 15.987 C 10.628 16.296,10.870 16.331,11.425 16.147 C 11.770 16.032,11.824 15.989,12.647 15.166 C 13.463 14.349,13.501 14.301,13.391 14.242 C 13.012 14.039,11.758 13.963,11.213 14.109 " fill="var(--db-icon-color, currentColor)" stroke="none" fill-rule="evenodd"></path></svg>