<svg id="icon" height="32" viewBox="0 0 32 32" width="32" xmlns="http://www.w3.org/2000/svg"><path d="M11.040 2.590 C 10.441 2.719,9.948 3.001,9.467 3.488 C 8.762 4.201,8.501 4.894,8.549 5.920 C 8.579 6.569,8.703 6.980,9.011 7.456 C 9.595 8.361,10.506 8.884,11.600 8.944 C 12.560 8.997,13.342 8.695,14.032 8.005 C 15.308 6.728,15.306 4.747,14.027 3.462 C 13.231 2.663,12.157 2.349,11.040 2.590 M12.316 4.638 C 12.773 4.871,13.061 5.410,12.994 5.903 C 12.880 6.730,11.972 7.217,11.234 6.846 C 10.298 6.375,10.293 5.113,11.227 4.622 C 11.463 4.497,12.058 4.506,12.316 4.638 M11.200 11.037 C 10.135 11.190,9.493 11.662,9.493 12.293 C 9.493 12.738,9.790 13.133,10.219 13.257 C 10.487 13.335,10.506 13.333,10.994 13.170 C 11.803 12.900,12.350 13.009,12.652 13.498 C 12.735 13.633,13.039 14.506,13.365 15.547 C 13.678 16.544,13.966 17.425,14.007 17.504 C 14.111 17.709,14.390 17.905,14.668 17.969 C 15.005 18.047,20.812 18.046,21.175 17.968 C 21.489 17.901,21.792 17.665,21.901 17.403 C 22.078 16.980,21.918 16.444,21.536 16.179 L 21.316 16.027 18.449 16.012 L 15.581 15.997 15.447 15.585 C 15.374 15.359,15.165 14.705,14.985 14.133 C 14.573 12.832,14.387 12.467,13.867 11.943 C 13.446 11.518,13.125 11.310,12.640 11.147 C 12.292 11.030,11.610 10.978,11.200 11.037 M7.092 17.507 C 6.818 17.645,6.422 18.113,6.051 18.736 C 4.627 21.127,4.671 24.253,6.162 26.544 C 8.057 29.457,11.421 30.670,14.693 29.620 C 16.392 29.076,18.056 27.691,18.859 26.153 C 19.027 25.832,19.047 25.754,19.020 25.525 C 18.955 24.971,18.506 24.605,17.947 24.651 C 17.581 24.681,17.339 24.845,17.109 25.217 C 16.383 26.393,15.412 27.222,14.246 27.659 C 12.347 28.373,10.241 27.937,8.745 26.521 C 7.257 25.112,6.671 23.062,7.202 21.120 C 7.348 20.587,7.768 19.744,8.128 19.264 C 8.475 18.801,8.558 18.581,8.512 18.249 C 8.419 17.568,7.706 17.196,7.092 17.507 M15.001 20.087 C 14.474 20.347,14.266 20.900,14.500 21.416 C 14.633 21.707,14.876 21.899,15.201 21.969 C 15.380 22.007,16.629 22.027,18.899 22.027 L 22.327 22.027 22.409 22.200 C 22.454 22.295,23.074 23.717,23.787 25.360 C 24.500 27.003,25.143 28.427,25.216 28.526 C 25.552 28.983,26.275 29.029,26.708 28.621 C 26.905 28.435,27.057 28.011,27.005 27.793 C 26.987 27.716,26.278 26.045,25.429 24.080 C 24.451 21.813,23.834 20.451,23.743 20.353 C 23.664 20.269,23.504 20.155,23.387 20.101 C 23.185 20.008,22.954 20.002,19.173 20.002 C 15.623 20.002,15.154 20.012,15.001 20.087 " fill="var(--db-icon-color, currentColor)" stroke="none" fill-rule="evenodd"></path></svg>