<svg id="icon" height="20" viewBox="0 0 20 20" width="20" xmlns="http://www.w3.org/2000/svg"><path d="M2.677 2.060 C 2.431 2.148,2.222 2.332,2.111 2.559 L 2.017 2.750 2.017 4.367 L 2.017 5.983 3.060 10.433 C 4.298 15.716,4.241 15.486,4.368 15.741 C 4.640 16.290,5.086 16.682,5.672 16.886 L 5.950 16.983 7.527 16.993 C 9.406 17.006,9.361 17.012,9.683 16.689 C 9.986 16.386,10.065 16.096,9.950 15.709 C 9.886 15.496,9.652 15.229,9.420 15.106 L 9.250 15.017 7.776 15.000 L 6.301 14.983 6.217 14.899 C 6.142 14.824,6.024 14.340,5.067 10.202 L 4.000 5.588 4.000 4.233 C 4.000 2.675,3.996 2.648,3.745 2.368 C 3.455 2.045,3.047 1.928,2.677 2.060 M9.642 2.051 C 8.972 2.232,8.501 2.830,8.501 3.500 C 8.501 4.303,9.197 4.999,10.000 4.999 C 10.802 4.999,11.499 4.302,11.499 3.500 C 11.499 2.548,10.549 1.807,9.642 2.051 M8.783 6.096 C 8.492 6.173,8.223 6.402,8.093 6.683 L 8.017 6.850 8.007 9.417 C 7.997 12.030,8.006 12.283,8.122 12.514 C 8.209 12.687,8.371 12.830,8.558 12.900 C 8.725 12.963,8.818 12.967,10.081 12.967 L 11.426 12.967 11.446 13.075 C 11.456 13.135,11.609 14.083,11.784 15.183 C 11.959 16.283,12.127 17.258,12.156 17.350 C 12.235 17.589,12.528 17.876,12.767 17.947 C 13.006 18.018,13.194 18.014,13.410 17.933 C 13.767 17.799,14.017 17.476,14.056 17.096 C 14.078 16.872,13.294 11.811,13.196 11.548 C 13.120 11.344,12.968 11.180,12.767 11.087 C 12.624 11.020,12.555 11.016,11.308 11.006 L 10.000 10.996 10.000 10.001 L 10.000 9.006 10.825 8.991 C 11.380 8.981,11.690 8.963,11.772 8.934 C 12.149 8.801,12.433 8.405,12.433 8.015 C 12.433 7.609,12.235 7.288,11.867 7.095 C 11.722 7.020,11.684 7.016,10.862 7.006 L 10.008 6.995 9.986 6.861 C 9.939 6.567,9.737 6.310,9.447 6.178 C 9.263 6.093,8.943 6.054,8.783 6.096 M14.678 7.062 C 14.362 7.171,14.114 7.433,14.029 7.749 C 13.946 8.056,14.055 8.442,14.292 8.683 C 14.513 8.906,14.709 8.972,15.212 8.991 C 15.730 9.011,15.806 9.043,15.953 9.307 L 16.050 9.483 16.067 13.383 L 16.083 17.283 16.161 17.441 C 16.265 17.653,16.517 17.874,16.734 17.944 C 17.113 18.066,17.451 17.985,17.736 17.701 C 18.060 17.379,18.036 17.756,18.025 13.181 C 18.013 8.657,18.040 9.080,17.728 8.436 C 17.582 8.133,17.522 8.051,17.255 7.783 C 16.670 7.196,16.167 6.999,15.250 7.001 C 14.954 7.002,14.805 7.018,14.678 7.062 " fill="var(--db-icon-color, currentColor)" stroke="none" fill-rule="evenodd"></path></svg>