<svg id="icon" height="20" viewBox="0 0 20 20" width="20" xmlns="http://www.w3.org/2000/svg"><path d="M6.567 2.052 C 6.207 2.130,5.889 2.309,5.601 2.596 C 5.310 2.887,5.163 3.141,5.066 3.520 C 4.946 3.990,5.008 4.502,5.240 4.944 C 5.381 5.214,5.786 5.619,6.056 5.760 C 6.322 5.899,6.718 6.000,7.000 6.000 C 7.282 6.000,7.678 5.899,7.944 5.760 C 8.214 5.619,8.619 5.214,8.760 4.944 C 8.992 4.502,9.054 3.990,8.934 3.520 C 8.838 3.145,8.690 2.888,8.401 2.597 C 7.909 2.101,7.249 1.905,6.567 2.052 M13.567 3.052 C 13.047 3.164,12.482 3.592,12.239 4.056 C 12.008 4.499,11.946 5.010,12.066 5.480 C 12.162 5.857,12.310 6.112,12.599 6.401 C 12.888 6.690,13.143 6.838,13.520 6.934 C 13.990 7.054,14.502 6.992,14.944 6.760 C 15.214 6.619,15.619 6.214,15.760 5.944 C 15.992 5.502,16.054 4.990,15.934 4.520 C 15.838 4.145,15.690 3.888,15.401 3.597 C 14.909 3.101,14.249 2.905,13.567 3.052 M4.567 7.051 C 4.013 7.173,3.456 7.606,3.219 8.100 C 3.000 8.557,2.996 8.609,3.007 10.617 L 3.017 12.417 3.108 12.666 C 3.284 13.149,3.652 13.568,4.088 13.781 C 4.296 13.883,4.724 14.000,4.889 14.000 L 5.000 14.000 5.000 15.580 C 5.000 17.412,4.998 17.397,5.283 17.687 C 5.476 17.885,5.741 18.000,6.000 18.000 C 6.396 18.000,6.790 17.726,6.929 17.355 C 6.999 17.167,7.000 17.131,7.000 14.983 C 7.000 12.845,6.999 12.799,6.930 12.614 C 6.846 12.391,6.658 12.189,6.438 12.089 C 6.301 12.026,6.210 12.016,5.642 12.006 L 5.000 11.994 5.000 10.497 L 5.000 9.000 6.082 9.000 C 7.107 9.000,7.174 8.996,7.355 8.929 C 7.479 8.882,7.601 8.802,7.702 8.702 C 8.184 8.219,8.052 7.411,7.441 7.110 L 7.250 7.017 6.017 7.010 C 5.054 7.005,4.736 7.014,4.567 7.051 M13.750 8.031 C 13.444 8.106,13.185 8.341,13.071 8.647 C 12.931 9.021,13.017 9.420,13.298 9.702 C 13.553 9.956,13.719 10.000,14.418 10.000 L 15.000 10.000 15.000 11.497 L 15.000 12.995 14.375 13.006 C 13.769 13.016,13.744 13.020,13.561 13.110 C 13.346 13.215,13.189 13.377,13.087 13.598 C 13.018 13.747,13.017 13.791,13.017 15.517 L 13.017 17.283 13.106 17.452 C 13.431 18.068,14.232 18.182,14.723 17.682 C 14.991 17.409,15.000 17.356,15.000 16.082 L 15.000 15.009 15.213 14.987 C 15.669 14.941,16.060 14.749,16.401 14.404 C 16.690 14.112,16.838 13.854,16.934 13.480 C 16.996 13.240,17.000 13.106,17.000 11.500 C 17.000 9.894,16.996 9.760,16.934 9.520 C 16.839 9.147,16.689 8.888,16.400 8.599 C 16.113 8.311,15.785 8.129,15.412 8.050 C 15.168 7.998,13.942 7.984,13.750 8.031 M9.650 9.046 C 9.251 9.144,8.835 9.469,8.667 9.816 C 8.371 10.427,8.477 11.081,8.948 11.552 C 9.526 12.130,10.410 12.150,11.010 11.600 C 11.773 10.900,11.617 9.664,10.707 9.190 C 10.352 9.005,10.009 8.959,9.650 9.046 M9.150 13.046 C 8.751 13.144,8.335 13.469,8.167 13.816 C 7.948 14.269,7.949 14.730,8.170 15.191 C 8.273 15.407,8.609 15.737,8.825 15.836 L 9.000 15.916 9.000 16.540 C 9.000 17.286,9.041 17.444,9.298 17.702 C 9.691 18.094,10.309 18.094,10.702 17.702 C 10.959 17.444,11.000 17.286,11.001 16.540 L 11.003 15.917 11.176 15.836 C 11.381 15.740,11.728 15.407,11.829 15.209 C 12.207 14.467,11.930 13.567,11.207 13.190 C 11.084 13.126,10.904 13.057,10.807 13.037 C 10.569 12.987,9.364 12.994,9.150 13.046 " fill="var(--db-icon-color, currentColor)" stroke="none" fill-rule="evenodd"></path></svg>