<svg id="icon" height="20" viewBox="0 0 20 20" width="20" xmlns="http://www.w3.org/2000/svg"><path d="M15.117 2.032 C 15.017 2.073,14.902 2.209,14.868 2.327 C 14.827 2.471,14.878 2.633,15.002 2.752 L 15.104 2.850 15.937 2.867 L 16.769 2.883 15.884 4.033 C 14.949 5.248,14.867 5.384,14.867 5.703 C 14.867 5.898,14.924 6.025,15.068 6.146 L 15.172 6.233 16.444 6.233 C 17.630 6.233,17.724 6.229,17.819 6.170 C 17.930 6.103,18.033 5.921,18.033 5.794 C 18.033 5.669,17.921 5.494,17.798 5.428 C 17.697 5.374,17.596 5.367,16.909 5.367 C 16.482 5.367,16.133 5.358,16.133 5.348 C 16.133 5.338,16.516 4.832,16.984 4.223 C 17.451 3.615,17.865 3.053,17.903 2.975 C 17.941 2.897,17.989 2.739,18.009 2.623 C 18.041 2.437,18.037 2.397,17.981 2.282 C 17.945 2.210,17.866 2.117,17.803 2.075 C 17.691 2.000,17.685 2.000,16.437 2.002 C 15.747 2.003,15.153 2.017,15.117 2.032 M11.181 3.063 C 10.970 3.191,10.948 3.489,11.137 3.648 L 11.238 3.733 11.969 3.733 C 12.371 3.733,12.700 3.742,12.700 3.754 C 12.700 3.765,12.348 4.215,11.917 4.754 C 11.486 5.294,11.111 5.789,11.083 5.856 C 10.960 6.150,10.992 6.398,11.171 6.549 L 11.272 6.633 12.404 6.633 C 13.647 6.633,13.683 6.628,13.783 6.434 C 13.846 6.312,13.847 6.223,13.786 6.104 C 13.690 5.920,13.680 5.918,12.874 5.900 L 12.125 5.883 12.896 4.917 C 13.320 4.385,13.700 3.882,13.741 3.800 C 13.793 3.694,13.815 3.588,13.816 3.439 C 13.817 3.238,13.811 3.223,13.692 3.114 L 13.568 3.000 12.425 3.000 C 11.367 3.000,11.276 3.005,11.181 3.063 M7.812 4.179 C 7.685 4.288,7.685 4.466,7.811 4.593 C 7.900 4.682,7.906 4.683,8.417 4.694 C 8.701 4.700,8.933 4.712,8.933 4.722 C 8.933 4.731,8.649 5.095,8.301 5.531 C 7.953 5.968,7.653 6.365,7.634 6.414 C 7.558 6.615,7.623 6.890,7.765 6.966 C 7.805 6.987,8.196 7.000,8.795 7.000 L 9.762 7.000 9.864 6.914 C 9.995 6.804,10.003 6.646,9.886 6.510 L 9.806 6.417 9.203 6.400 L 8.600 6.383 9.221 5.585 C 9.563 5.146,9.863 4.738,9.888 4.678 C 9.965 4.494,9.947 4.289,9.845 4.188 L 9.758 4.100 8.831 4.100 L 7.904 4.100 7.812 4.179 M2.583 8.579 C 2.352 8.686,2.114 8.957,2.047 9.189 C 2.002 9.342,1.996 9.526,2.009 10.360 C 2.022 11.296,2.028 11.369,2.111 11.691 C 2.272 12.317,2.504 12.839,2.819 13.285 L 2.961 13.487 2.478 15.169 C 2.042 16.688,1.997 16.869,2.010 17.052 C 2.047 17.564,2.421 17.945,2.933 17.991 C 3.278 18.022,3.645 17.842,3.830 17.550 C 3.895 17.448,4.036 17.004,4.300 16.077 C 4.508 15.347,4.682 14.745,4.687 14.738 C 4.692 14.732,4.790 14.758,4.906 14.796 C 5.497 14.991,5.155 14.979,10.368 14.991 L 15.152 15.002 15.331 16.093 C 15.429 16.692,15.538 17.260,15.572 17.353 C 15.757 17.858,16.341 18.123,16.848 17.932 C 17.215 17.793,17.500 17.399,17.500 17.030 C 17.500 16.956,17.433 16.493,17.350 16.000 C 17.267 15.507,17.200 15.077,17.200 15.043 C 17.200 15.000,17.250 14.965,17.371 14.921 C 17.480 14.883,17.600 14.803,17.700 14.703 C 18.185 14.219,18.053 13.411,17.441 13.110 L 17.250 13.017 11.517 13.000 L 5.783 12.983 5.517 12.893 C 4.947 12.700,4.513 12.322,4.242 11.783 C 4.037 11.377,4.026 11.304,4.003 10.217 C 3.979 9.091,3.973 9.064,3.723 8.804 C 3.516 8.589,3.306 8.501,3.000 8.501 C 2.808 8.501,2.711 8.519,2.583 8.579 M6.150 9.047 C 5.328 9.253,4.839 10.070,5.052 10.885 C 5.183 11.390,5.612 11.818,6.115 11.949 C 6.977 12.171,7.823 11.614,7.975 10.723 C 8.150 9.704,7.160 8.795,6.150 9.047 M10.421 9.186 C 9.649 9.373,9.068 10.079,9.011 10.900 C 8.987 11.231,9.077 11.480,9.298 11.702 C 9.817 12.221,10.678 12.025,10.924 11.332 C 10.968 11.208,10.999 11.167,11.049 11.167 C 11.171 11.167,13.091 11.432,14.417 11.633 C 17.176 12.049,17.105 12.043,17.421 11.895 C 17.759 11.736,18.000 11.364,18.000 11.000 C 18.000 10.786,17.896 10.513,17.749 10.341 C 17.506 10.057,17.614 10.080,14.132 9.583 C 12.400 9.336,10.901 9.135,10.800 9.137 C 10.699 9.138,10.529 9.160,10.421 9.186 " fill="var(--db-icon-color, currentColor)" stroke="none" fill-rule="evenodd"></path></svg>