<svg id="icon" height="24" viewBox="0 0 24 24" width="24" xmlns="http://www.w3.org/2000/svg"><path d="M18.481 2.971 C 18.354 3.036,18.200 3.264,18.200 3.390 C 18.200 3.573,18.319 3.752,18.496 3.838 C 18.651 3.913,18.741 3.920,19.533 3.920 C 20.010 3.920,20.400 3.929,20.400 3.940 C 20.400 3.951,19.895 4.601,19.279 5.385 C 18.662 6.168,18.127 6.866,18.091 6.935 C 18.046 7.020,18.024 7.164,18.022 7.389 C 18.020 7.709,18.024 7.722,18.151 7.849 L 18.281 7.980 19.931 7.992 C 21.031 8.000,21.629 7.990,21.728 7.961 C 22.018 7.876,22.150 7.490,21.973 7.247 C 21.804 7.017,21.712 7.000,20.650 7.000 C 20.117 7.000,19.680 6.990,19.680 6.978 C 19.680 6.966,20.170 6.323,20.769 5.548 C 21.368 4.774,21.890 4.078,21.929 4.002 C 22.103 3.662,22.069 3.299,21.841 3.072 L 21.689 2.920 20.135 2.921 C 18.971 2.921,18.555 2.934,18.481 2.971 M14.174 5.437 C 13.944 5.577,13.943 5.902,14.172 6.042 C 14.286 6.111,14.377 6.120,14.990 6.120 C 15.370 6.120,15.680 6.130,15.680 6.141 C 15.680 6.153,15.353 6.570,14.953 7.069 C 14.102 8.129,14.025 8.253,14.022 8.551 C 14.020 8.745,14.033 8.778,14.151 8.883 L 14.281 9.000 15.398 9.000 C 16.012 9.000,16.560 8.983,16.615 8.962 C 16.747 8.912,16.855 8.704,16.820 8.566 C 16.806 8.508,16.756 8.420,16.710 8.370 C 16.629 8.283,16.602 8.280,15.893 8.280 C 15.418 8.280,15.160 8.266,15.160 8.239 C 15.160 8.216,15.487 7.790,15.887 7.291 C 16.738 6.231,16.815 6.107,16.818 5.809 C 16.820 5.615,16.807 5.582,16.689 5.477 L 16.559 5.360 15.429 5.360 C 14.385 5.360,14.291 5.366,14.174 5.437 M10.893 7.120 C 10.708 7.195,10.664 7.453,10.811 7.592 C 10.894 7.669,10.954 7.679,11.431 7.689 L 11.960 7.700 11.335 8.480 C 10.991 8.909,10.685 9.318,10.655 9.389 C 10.568 9.592,10.585 9.789,10.698 9.902 L 10.796 10.000 11.791 10.000 C 12.779 10.000,12.787 9.999,12.873 9.907 C 12.985 9.788,12.986 9.596,12.876 9.496 C 12.804 9.431,12.709 9.417,12.198 9.400 L 11.604 9.380 12.243 8.560 C 12.638 8.052,12.897 7.684,12.922 7.591 C 12.974 7.401,12.937 7.259,12.810 7.159 C 12.716 7.086,12.648 7.080,11.845 7.083 C 11.369 7.084,10.941 7.101,10.893 7.120 M2.664 10.060 C 2.433 10.148,2.256 10.299,2.131 10.511 L 2.020 10.700 2.020 12.660 C 2.020 14.775,2.026 14.857,2.243 15.526 C 2.381 15.951,2.581 16.377,2.804 16.720 L 2.973 16.980 2.485 18.940 C 2.217 20.018,1.998 20.955,1.999 21.023 C 2.002 21.403,2.312 21.818,2.685 21.942 C 2.964 22.034,3.272 22.001,3.514 21.851 C 3.855 21.641,3.887 21.563,4.283 19.979 C 4.481 19.187,4.651 18.518,4.660 18.491 C 4.672 18.456,4.771 18.482,4.997 18.579 C 5.422 18.760,5.779 18.864,6.240 18.938 C 6.569 18.991,7.401 19.000,12.447 19.000 L 18.273 19.000 18.662 20.170 C 18.876 20.814,19.084 21.405,19.123 21.484 C 19.357 21.949,20.035 22.134,20.503 21.861 C 20.803 21.685,21.000 21.337,21.000 20.985 C 21.000 20.887,20.878 20.457,20.700 19.923 C 20.535 19.430,20.400 19.021,20.400 19.013 C 20.400 19.006,20.567 19.000,20.770 19.000 C 21.217 19.000,21.385 18.957,21.607 18.788 C 22.179 18.351,22.093 17.430,21.450 17.114 L 21.260 17.020 13.860 16.999 C 5.560 16.975,6.326 17.005,5.660 16.678 C 4.940 16.323,4.398 15.671,4.117 14.820 C 4.026 14.547,4.023 14.489,4.002 12.640 C 3.978 10.548,3.983 10.589,3.721 10.327 C 3.442 10.048,2.992 9.935,2.664 10.060 M7.040 11.062 C 6.139 11.256,5.369 12.000,5.141 12.898 C 5.063 13.204,5.063 13.796,5.141 14.102 C 5.255 14.550,5.465 14.911,5.817 15.260 C 6.595 16.032,7.678 16.213,8.673 15.736 C 9.084 15.539,9.567 15.065,9.772 14.657 C 10.148 13.909,10.153 13.123,9.788 12.363 C 9.604 11.981,9.082 11.467,8.680 11.271 C 8.162 11.019,7.583 10.946,7.040 11.062 M13.300 12.580 C 12.495 12.760,11.834 13.224,11.391 13.920 C 11.232 14.170,11.060 14.617,11.020 14.889 C 10.933 15.466,11.414 16.001,12.018 15.999 C 12.489 15.997,12.849 15.708,12.996 15.213 C 13.125 14.779,13.448 14.520,13.860 14.520 C 13.961 14.520,15.339 14.628,16.923 14.760 C 18.507 14.892,19.848 15.000,19.902 15.000 C 19.992 15.000,20.000 15.015,20.000 15.185 C 20.000 15.488,20.081 15.682,20.299 15.907 C 20.458 16.070,20.549 16.127,20.734 16.181 C 21.215 16.319,21.740 16.108,21.925 15.702 C 22.011 15.512,22.026 14.971,21.956 14.632 C 21.811 13.937,21.180 13.267,20.499 13.086 C 20.138 12.990,17.741 12.764,15.347 12.601 C 13.983 12.508,13.637 12.505,13.300 12.580 M7.779 13.057 C 8.127 13.202,8.127 13.798,7.779 13.943 C 7.605 14.016,7.503 14.015,7.344 13.939 C 6.997 13.774,6.993 13.232,7.338 13.062 C 7.492 12.986,7.606 12.985,7.779 13.057 " fill="var(--db-icon-color, currentColor)" stroke="none" fill-rule="evenodd"></path></svg>