<svg id="icon" height="20" viewBox="0 0 20 20" width="20" xmlns="http://www.w3.org/2000/svg"><path d="M8.437 2.053 C 7.693 2.253,7.208 2.991,7.334 3.734 C 7.508 4.769,8.619 5.311,9.539 4.810 C 9.769 4.685,10.050 4.376,10.176 4.110 C 10.278 3.896,10.283 3.863,10.283 3.500 C 10.283 3.141,10.277 3.103,10.181 2.900 C 9.864 2.233,9.117 1.870,8.437 2.053 M8.878 7.062 C 8.577 7.166,8.350 7.384,8.251 7.665 C 8.142 7.973,8.159 8.052,8.816 10.261 C 9.155 11.400,9.461 12.391,9.497 12.462 C 9.594 12.650,9.863 12.878,10.067 12.944 C 10.219 12.993,10.424 13.000,11.698 13.000 L 13.155 13.000 14.016 15.125 C 14.490 16.294,14.911 17.318,14.952 17.402 C 15.266 18.033,16.071 18.191,16.547 17.714 C 16.756 17.505,16.843 17.260,16.825 16.933 C 16.812 16.696,16.763 16.562,15.853 14.317 C 15.325 13.015,14.854 11.876,14.805 11.785 C 14.599 11.401,14.181 11.104,13.746 11.033 C 13.638 11.015,13.025 11.000,12.383 11.000 L 11.217 11.000 10.683 9.309 C 10.287 8.053,10.124 7.580,10.047 7.468 C 9.779 7.073,9.312 6.911,8.878 7.062 M5.673 10.047 C 5.465 10.115,5.321 10.223,5.137 10.450 C 4.611 11.099,4.252 11.843,4.077 12.643 C 3.993 13.031,3.994 13.940,4.079 14.333 C 4.279 15.256,4.693 16.025,5.334 16.666 C 6.551 17.884,8.319 18.306,9.938 17.767 C 10.557 17.561,10.988 17.319,11.490 16.893 C 11.829 16.607,11.936 16.415,11.958 16.056 C 11.978 15.741,11.885 15.483,11.677 15.275 C 11.464 15.062,11.273 14.984,10.967 14.986 C 10.671 14.988,10.537 15.046,10.247 15.300 C 9.842 15.654,9.459 15.852,8.993 15.947 C 7.625 16.228,6.258 15.293,6.017 13.912 C 5.958 13.574,5.955 13.395,6.002 13.100 C 6.080 12.621,6.300 12.167,6.649 11.772 C 6.896 11.492,6.973 11.332,6.992 11.067 C 7.020 10.663,6.810 10.308,6.431 10.116 C 6.220 10.008,5.884 9.978,5.673 10.047 " fill="var(--db-icon-color, currentColor)" stroke="none" fill-rule="evenodd"></path></svg>