<svg id="icon" height="32" viewBox="0 0 32 32" width="32" xmlns="http://www.w3.org/2000/svg"><path d="M6.347 2.101 C 5.507 2.348,4.819 2.906,4.446 3.642 C 4.272 3.985,4.106 4.641,4.108 4.982 C 4.110 5.782,4.423 6.515,5.008 7.094 C 5.476 7.557,5.800 7.747,6.378 7.894 C 6.901 8.028,7.339 8.028,7.864 7.894 C 8.409 7.755,8.801 7.525,9.240 7.089 C 9.771 6.561,10.131 5.711,10.131 4.987 C 10.131 4.071,9.580 3.057,8.787 2.515 C 8.315 2.192,7.887 2.066,7.200 2.047 C 6.799 2.036,6.504 2.054,6.347 2.101 M7.675 4.183 C 8.195 4.543,8.241 5.320,7.769 5.755 C 7.580 5.928,7.185 6.024,6.909 5.962 C 6.633 5.901,6.497 5.810,6.310 5.565 C 6.180 5.395,6.160 5.320,6.160 5.014 C 6.160 4.719,6.184 4.623,6.302 4.444 C 6.603 3.990,7.225 3.872,7.675 4.183 M24.507 5.060 C 24.028 5.187,23.460 5.629,23.249 6.038 C 23.093 6.341,22.987 6.810,22.987 7.200 C 22.987 7.531,22.978 7.555,22.829 7.643 C 22.553 7.806,22.141 8.186,21.858 8.538 C 21.524 8.954,21.264 9.485,21.121 10.049 C 21.016 10.459,21.013 10.630,21.013 16.197 C 21.013 21.853,21.015 21.927,21.124 22.255 C 21.413 23.118,22.136 23.765,23.020 23.948 C 23.202 23.986,23.963 24.000,25.184 23.989 C 26.994 23.973,27.078 23.967,27.366 23.851 C 28.064 23.571,28.626 22.990,28.862 22.307 L 28.987 21.947 28.987 16.160 L 28.987 10.373 28.864 9.950 C 28.606 9.057,28.060 8.277,27.333 7.758 L 26.999 7.519 26.978 6.996 C 26.960 6.536,26.936 6.428,26.783 6.119 C 26.454 5.450,25.843 5.057,25.093 5.032 C 24.859 5.025,24.595 5.037,24.507 5.060 M12.506 7.646 C 11.990 7.886,11.685 8.323,11.640 8.884 C 11.565 9.812,12.344 10.585,13.258 10.491 C 14.503 10.362,15.059 8.827,14.174 7.961 C 13.714 7.511,13.060 7.388,12.506 7.646 M4.872 9.088 C 3.922 9.322,3.278 10.016,3.061 11.040 C 2.954 11.546,2.992 12.143,3.170 12.753 C 3.673 14.476,5.949 21.614,6.050 21.786 C 6.211 22.061,6.744 22.569,7.016 22.707 C 7.564 22.987,7.562 22.987,11.116 22.988 C 14.229 22.989,14.440 22.995,14.645 23.088 C 14.766 23.143,14.919 23.266,14.987 23.361 C 15.065 23.470,15.443 24.630,16.006 26.488 C 16.498 28.113,16.950 29.512,17.011 29.597 C 17.155 29.799,17.523 29.973,17.806 29.973 C 18.233 29.973,18.623 29.678,18.747 29.262 C 18.790 29.117,18.811 28.936,18.793 28.860 C 18.690 28.413,16.989 22.864,16.887 22.641 C 16.612 22.039,15.957 21.443,15.266 21.164 L 14.960 21.040 11.481 21.013 L 8.002 20.987 7.872 20.853 C 7.769 20.749,7.452 19.795,6.400 16.427 C 5.659 14.053,5.046 12.001,5.030 11.837 C 4.998 11.514,5.068 11.312,5.280 11.120 C 5.390 11.020,5.494 11.012,6.881 10.987 L 8.364 10.960 8.569 10.797 C 8.806 10.608,9.013 10.236,9.013 9.999 C 9.013 9.750,8.776 9.325,8.552 9.173 L 8.355 9.040 6.751 9.030 C 5.603 9.023,5.068 9.039,4.872 9.088 M25.826 9.187 C 26.418 9.458,26.896 10.098,26.969 10.716 L 27.002 10.987 24.997 10.987 L 22.993 10.987 23.022 10.787 C 23.137 9.969,23.660 9.347,24.453 9.085 C 24.799 8.970,25.461 9.019,25.826 9.187 M11.679 12.317 C 11.453 12.437,11.218 12.665,11.115 12.863 C 11.074 12.942,10.628 14.071,10.125 15.371 L 9.209 17.733 9.205 18.240 C 9.201 18.665,9.220 18.786,9.321 18.992 C 9.492 19.339,9.785 19.615,10.187 19.807 L 10.533 19.973 13.387 19.990 C 15.303 20.001,16.304 19.988,16.434 19.950 C 16.676 19.879,16.986 19.543,17.070 19.262 C 17.201 18.825,17.004 18.304,16.639 18.120 C 16.470 18.035,16.224 18.027,13.889 18.027 C 12.478 18.027,11.312 18.014,11.296 17.998 C 11.271 17.973,12.431 14.911,12.488 14.854 C 12.501 14.841,12.779 15.080,13.105 15.384 C 13.635 15.880,13.724 15.943,13.948 15.976 C 14.714 16.091,15.291 15.399,15.046 14.657 C 14.966 14.414,12.962 12.413,12.681 12.296 C 12.410 12.183,11.914 12.193,11.679 12.317 M26.987 17.352 L 26.987 21.691 26.859 21.829 C 26.789 21.904,26.651 21.981,26.552 22.000 C 26.454 22.018,25.684 22.026,24.841 22.017 L 23.309 22.000 23.161 21.852 C 23.014 21.705,23.013 21.703,22.996 20.852 L 22.979 20.000 23.583 19.999 C 24.267 19.998,24.519 19.920,24.758 19.636 C 25.139 19.182,25.052 18.515,24.569 18.195 C 24.373 18.065,24.298 18.051,23.684 18.027 L 23.013 18.000 22.998 17.507 L 22.983 17.013 23.531 17.013 C 24.213 17.013,24.450 16.949,24.700 16.699 C 25.159 16.240,25.080 15.529,24.529 15.164 C 24.324 15.028,24.260 15.016,23.647 14.996 L 22.987 14.974 22.987 13.994 L 22.987 13.013 24.987 13.013 L 26.987 13.013 26.987 17.352 " fill="var(--db-icon-color, currentColor)" stroke="none" fill-rule="evenodd"></path></svg>