<svg id="icon" height="24" viewBox="0 0 24 24" width="24" xmlns="http://www.w3.org/2000/svg"><path d="M9.100 2.047 C 8.756 2.113,8.403 2.310,8.116 2.597 C 7.704 3.007,7.511 3.460,7.513 4.012 C 7.519 5.815,9.753 6.685,10.971 5.360 C 11.229 5.079,11.425 4.667,11.485 4.279 C 11.611 3.464,11.150 2.595,10.395 2.224 C 9.957 2.010,9.573 1.957,9.100 2.047 M8.100 8.092 C 7.731 8.268,7.509 8.609,7.508 9.004 C 7.506 9.278,7.626 9.544,7.830 9.723 C 8.078 9.941,8.199 9.972,8.927 9.997 C 9.555 10.019,9.599 10.025,9.694 10.114 C 9.749 10.166,9.813 10.256,9.836 10.314 C 9.859 10.372,10.204 11.527,10.604 12.880 C 11.003 14.233,11.356 15.394,11.389 15.460 C 11.475 15.633,11.636 15.794,11.820 15.894 C 11.977 15.978,12.020 15.980,13.901 15.991 L 15.821 16.003 16.821 18.331 C 17.777 20.561,17.829 20.669,18.020 20.861 C 18.500 21.344,19.253 21.233,19.582 20.630 C 19.811 20.212,19.844 20.322,18.562 17.284 C 17.936 15.802,17.377 14.519,17.320 14.433 C 17.205 14.262,17.013 14.118,16.804 14.047 C 16.708 14.014,16.125 14.000,14.841 14.000 L 13.015 14.000 12.726 13.030 C 12.567 12.496,12.438 12.047,12.439 12.030 C 12.439 12.013,13.102 12.000,13.910 12.000 C 14.799 12.000,15.439 11.983,15.529 11.958 C 16.054 11.812,16.393 11.124,16.185 10.626 C 16.107 10.438,15.894 10.210,15.704 10.108 C 15.543 10.022,15.507 10.020,13.679 10.009 L 11.817 9.997 11.723 9.694 C 11.539 9.100,11.100 8.592,10.519 8.300 C 10.075 8.076,9.859 8.034,9.040 8.014 C 8.323 7.996,8.294 7.999,8.100 8.092 M5.835 12.053 C 5.597 12.142,5.456 12.266,5.187 12.624 C 4.242 13.884,3.835 15.460,4.062 16.987 C 4.431 19.472,6.274 21.407,8.749 21.908 C 9.276 22.015,10.400 22.004,10.946 21.887 C 12.173 21.624,13.139 21.104,14.001 20.241 C 14.617 19.626,14.771 19.395,14.793 19.062 C 14.821 18.611,14.640 18.284,14.257 18.097 C 13.813 17.879,13.374 17.969,13.029 18.348 C 12.360 19.085,12.164 19.253,11.668 19.521 C 9.717 20.573,7.362 19.831,6.399 17.860 C 6.091 17.229,6.020 16.906,6.023 16.140 C 6.026 15.562,6.037 15.465,6.135 15.142 C 6.266 14.712,6.550 14.150,6.803 13.820 C 7.060 13.485,7.125 13.344,7.150 13.074 C 7.186 12.673,6.978 12.293,6.625 12.112 C 6.422 12.009,6.032 11.979,5.835 12.053 " fill="var(--db-icon-color, currentColor)" stroke="none" fill-rule="evenodd"></path></svg>