<svg id="icon" height="24" viewBox="0 0 24 24" width="24" xmlns="http://www.w3.org/2000/svg"><path d="M18.481 2.971 C 18.354 3.036,18.200 3.264,18.200 3.390 C 18.200 3.573,18.319 3.752,18.496 3.838 C 18.651 3.913,18.741 3.920,19.533 3.920 C 20.010 3.920,20.400 3.929,20.400 3.940 C 20.400 3.951,19.895 4.601,19.279 5.385 C 18.662 6.168,18.127 6.866,18.091 6.935 C 18.046 7.020,18.024 7.164,18.022 7.389 C 18.020 7.709,18.024 7.722,18.151 7.849 L 18.281 7.980 19.931 7.992 C 21.031 8.000,21.629 7.990,21.728 7.961 C 22.018 7.876,22.150 7.490,21.973 7.247 C 21.804 7.017,21.712 7.000,20.650 7.000 C 20.117 7.000,19.680 6.990,19.680 6.978 C 19.680 6.966,20.170 6.323,20.769 5.548 C 21.368 4.774,21.890 4.078,21.929 4.002 C 22.103 3.662,22.069 3.299,21.841 3.072 L 21.689 2.920 20.135 2.921 C 18.971 2.921,18.555 2.934,18.481 2.971 M14.174 5.437 C 13.944 5.577,13.943 5.902,14.172 6.042 C 14.286 6.111,14.377 6.120,14.990 6.120 C 15.370 6.120,15.680 6.130,15.680 6.141 C 15.680 6.153,15.353 6.570,14.953 7.069 C 14.102 8.129,14.025 8.253,14.022 8.551 C 14.020 8.745,14.033 8.778,14.151 8.883 L 14.281 9.000 15.398 9.000 C 16.012 9.000,16.560 8.983,16.615 8.962 C 16.747 8.912,16.855 8.704,16.820 8.566 C 16.806 8.508,16.756 8.420,16.710 8.370 C 16.629 8.283,16.602 8.280,15.893 8.280 C 15.418 8.280,15.160 8.266,15.160 8.239 C 15.160 8.216,15.487 7.790,15.887 7.291 C 16.738 6.231,16.815 6.107,16.818 5.809 C 16.820 5.615,16.807 5.582,16.689 5.477 L 16.559 5.360 15.429 5.360 C 14.385 5.360,14.291 5.366,14.174 5.437 M10.893 7.120 C 10.708 7.195,10.664 7.453,10.811 7.592 C 10.894 7.669,10.954 7.679,11.431 7.689 L 11.960 7.700 11.335 8.480 C 10.991 8.909,10.685 9.318,10.655 9.389 C 10.568 9.592,10.585 9.789,10.698 9.902 L 10.796 10.000 11.791 10.000 C 12.779 10.000,12.787 9.999,12.873 9.907 C 12.985 9.788,12.986 9.596,12.876 9.496 C 12.804 9.431,12.709 9.417,12.198 9.400 L 11.604 9.380 12.243 8.560 C 12.638 8.052,12.897 7.684,12.922 7.591 C 12.974 7.401,12.937 7.259,12.810 7.159 C 12.716 7.086,12.648 7.080,11.845 7.083 C 11.369 7.084,10.941 7.101,10.893 7.120 M4.960 11.062 C 4.542 11.151,4.069 11.414,3.741 11.739 C 2.759 12.714,2.759 14.277,3.742 15.264 C 4.710 16.237,6.288 16.236,7.262 15.262 C 8.237 14.287,8.237 12.703,7.262 11.740 C 6.649 11.135,5.795 10.884,4.960 11.062 M11.192 12.582 C 10.040 12.861,9.034 13.974,9.023 14.980 C 9.020 15.261,9.033 15.323,9.131 15.489 C 9.471 16.067,10.234 16.168,10.705 15.697 C 10.837 15.565,10.896 15.461,10.963 15.241 C 11.063 14.911,11.174 14.762,11.434 14.610 C 11.671 14.471,11.407 14.462,16.006 14.759 C 18.067 14.891,19.808 15.000,19.876 15.000 C 19.997 15.000,20.000 15.005,20.000 15.185 C 20.000 15.488,20.081 15.682,20.299 15.907 C 20.458 16.070,20.549 16.127,20.734 16.181 C 21.215 16.319,21.740 16.108,21.925 15.702 C 22.011 15.512,22.026 14.971,21.956 14.632 C 21.812 13.937,21.194 13.281,20.500 13.084 C 20.336 13.037,19.297 12.963,14.846 12.681 C 12.152 12.510,11.556 12.494,11.192 12.582 M5.724 13.062 C 5.872 13.139,6.000 13.341,6.000 13.500 C 6.000 13.748,5.748 14.000,5.500 14.000 C 5.256 14.000,5.000 13.748,5.000 13.508 C 5.000 13.257,5.248 13.000,5.492 13.000 C 5.554 13.000,5.658 13.028,5.724 13.062 M2.643 17.069 C 2.244 17.210,1.967 17.666,2.012 18.107 C 2.067 18.640,2.500 19.000,3.084 19.000 C 3.317 19.000,3.318 19.000,3.299 19.110 C 3.094 20.273,2.997 20.968,3.015 21.134 C 3.056 21.499,3.313 21.811,3.678 21.939 C 4.139 22.102,4.672 21.890,4.879 21.461 C 4.938 21.341,5.027 20.915,5.154 20.151 L 5.343 19.020 11.991 19.010 L 18.638 19.000 18.659 19.090 C 18.670 19.139,18.752 19.621,18.841 20.160 C 19.035 21.335,19.077 21.479,19.298 21.700 C 19.760 22.162,20.531 22.065,20.861 21.503 C 21.023 21.226,21.023 21.037,20.863 20.080 C 20.783 19.607,20.709 19.171,20.696 19.110 L 20.674 19.000 20.910 19.000 C 21.238 19.000,21.502 18.900,21.701 18.701 C 22.092 18.310,22.092 17.690,21.701 17.299 C 21.375 16.972,22.268 17.000,11.983 17.003 C 3.791 17.006,2.801 17.013,2.643 17.069 " fill="var(--db-icon-color, currentColor)" stroke="none" fill-rule="evenodd"></path></svg>