<svg id="icon" height="32" viewBox="0 0 32 32" width="32" xmlns="http://www.w3.org/2000/svg"><path d="M9.550 2.117 C 9.159 2.323,8.950 2.765,9.033 3.210 C 9.052 3.308,9.809 4.647,10.715 6.187 L 12.364 8.987 11.395 9.016 C 10.801 9.034,10.365 9.072,10.267 9.113 C 9.715 9.345,9.308 9.775,9.119 10.324 C 9.032 10.575,9.013 10.772,9.013 11.423 C 9.013 11.984,9.035 12.267,9.088 12.388 C 9.129 12.483,9.380 12.775,9.646 13.037 L 10.129 13.513 9.916 13.696 C 9.647 13.926,9.512 14.190,9.443 14.622 C 9.342 15.253,9.520 15.905,9.891 16.265 L 10.077 16.445 9.648 16.892 C 9.018 17.548,9.016 17.554,9.013 18.960 C 9.010 20.497,8.976 20.582,8.257 20.866 C 8.001 20.967,7.828 20.981,6.504 21.009 L 5.034 21.040 4.630 21.240 C 4.096 21.504,3.656 21.968,3.364 22.574 C 3.017 23.296,2.979 23.611,2.997 25.586 L 3.013 27.298 3.174 27.529 C 3.359 27.795,3.719 28.001,3.998 27.999 C 4.229 27.997,4.573 27.845,4.731 27.673 C 4.999 27.381,5.013 27.270,5.013 25.466 C 5.013 23.890,5.020 23.769,5.120 23.574 C 5.238 23.341,5.483 23.138,5.755 23.047 C 5.863 23.011,6.322 22.987,6.901 22.986 C 9.419 22.986,10.509 22.438,10.880 20.987 C 10.970 20.636,10.987 20.395,10.987 19.480 L 10.987 18.391 11.593 17.796 C 12.239 17.161,12.398 16.913,12.475 16.425 C 12.557 15.912,12.358 15.439,11.946 15.167 C 11.829 15.089,11.735 15.011,11.736 14.993 C 11.738 14.975,11.855 14.872,11.996 14.765 C 12.494 14.386,12.626 13.796,12.350 13.192 C 12.195 12.855,11.798 12.348,11.310 11.868 C 10.997 11.560,10.987 11.541,10.987 11.273 L 10.987 10.997 11.960 10.975 C 13.155 10.949,13.400 10.876,13.871 10.404 C 14.238 10.037,14.355 9.729,14.355 9.131 C 14.355 8.357,14.245 8.127,12.429 5.099 C 11.220 3.085,10.748 2.342,10.598 2.221 C 10.339 2.012,9.843 1.963,9.550 2.117 M18.524 3.061 C 18.431 3.103,18.329 3.186,18.298 3.245 C 18.260 3.316,18.240 3.976,18.240 5.185 C 18.240 7.189,18.238 7.173,18.557 7.305 C 18.757 7.388,18.956 7.342,19.125 7.174 C 19.247 7.051,19.253 7.013,19.253 6.354 L 19.253 5.663 19.667 5.692 C 19.958 5.712,20.182 5.694,20.427 5.631 C 21.067 5.467,21.351 5.175,21.453 4.572 C 21.562 3.933,21.285 3.385,20.734 3.145 C 20.487 3.037,20.348 3.020,19.573 3.003 C 18.887 2.988,18.656 3.001,18.524 3.061 M28.012 3.544 C 27.955 3.616,27.878 3.784,27.841 3.917 C 27.782 4.128,27.754 4.160,27.630 4.160 C 27.459 4.160,27.330 4.252,27.284 4.405 C 27.244 4.542,27.432 4.800,27.572 4.800 C 27.662 4.800,27.671 4.872,27.689 5.747 C 27.711 6.770,27.747 6.917,28.029 7.139 C 28.333 7.378,29.174 7.413,29.392 7.194 C 29.448 7.139,29.493 7.035,29.493 6.964 C 29.493 6.754,29.359 6.667,29.038 6.667 C 28.808 6.667,28.739 6.646,28.695 6.564 C 28.664 6.505,28.640 6.100,28.640 5.630 L 28.640 4.800 28.933 4.800 C 29.263 4.800,29.440 4.681,29.440 4.462 C 29.440 4.256,29.282 4.160,28.942 4.160 L 28.640 4.160 28.640 3.870 C 28.640 3.630,28.619 3.565,28.521 3.496 C 28.344 3.372,28.131 3.392,28.012 3.544 M20.263 3.838 C 20.513 3.972,20.534 4.591,20.296 4.828 C 20.153 4.972,19.791 5.041,19.471 4.987 L 19.253 4.951 19.253 4.334 L 19.253 3.717 19.705 3.749 C 19.954 3.767,20.205 3.807,20.263 3.838 M6.022 4.080 C 5.722 4.176,5.316 4.524,5.158 4.820 C 5.001 5.116,4.990 5.851,5.140 6.133 C 5.277 6.393,5.587 6.708,5.840 6.844 C 6.148 7.010,6.867 7.008,7.180 6.842 C 7.655 6.589,8.000 6.022,8.000 5.493 C 8.000 4.501,6.980 3.772,6.022 4.080 M22.578 4.104 C 22.065 4.227,21.788 4.612,21.832 5.141 C 21.874 5.646,22.088 5.858,22.787 6.084 C 23.197 6.217,23.228 6.237,23.243 6.385 C 23.252 6.477,23.226 6.570,23.179 6.609 C 23.083 6.688,22.556 6.692,22.294 6.615 C 21.896 6.498,21.688 6.600,21.717 6.900 C 21.730 7.033,21.774 7.087,21.935 7.165 C 22.255 7.322,22.822 7.390,23.208 7.318 C 23.822 7.204,24.114 6.882,24.114 6.320 C 24.114 5.758,23.856 5.487,23.147 5.306 C 22.744 5.203,22.667 5.151,22.667 4.987 C 22.667 4.785,22.789 4.732,23.186 4.762 C 23.384 4.777,23.598 4.805,23.662 4.826 C 23.937 4.915,24.130 4.405,23.880 4.247 C 23.625 4.085,22.963 4.013,22.578 4.104 M25.405 4.104 C 24.892 4.227,24.614 4.612,24.658 5.141 C 24.701 5.646,24.915 5.858,25.614 6.084 C 26.024 6.217,26.054 6.237,26.069 6.385 C 26.079 6.477,26.052 6.570,26.005 6.609 C 25.910 6.688,25.382 6.692,25.120 6.615 C 24.722 6.498,24.515 6.600,24.544 6.900 C 24.557 7.033,24.601 7.087,24.762 7.165 C 25.082 7.322,25.649 7.390,26.035 7.318 C 26.649 7.204,26.941 6.882,26.941 6.320 C 26.941 5.758,26.682 5.487,25.973 5.306 C 25.571 5.203,25.493 5.151,25.493 4.987 C 25.493 4.785,25.616 4.732,26.013 4.762 C 26.211 4.777,26.425 4.805,26.488 4.826 C 26.764 4.915,26.956 4.405,26.707 4.247 C 26.451 4.085,25.789 4.013,25.405 4.104 M17.413 11.022 C 16.422 11.168,15.654 11.767,15.354 12.628 C 15.270 12.868,15.115 14.259,14.627 19.141 L 14.006 25.350 14.206 27.234 C 14.315 28.271,14.432 29.197,14.465 29.293 C 14.676 29.906,15.363 30.169,15.912 29.847 C 16.178 29.691,16.287 29.547,16.369 29.241 C 16.417 29.063,16.390 28.720,16.216 27.299 L 16.005 25.573 16.618 19.413 L 17.231 13.253 17.365 13.133 C 17.656 12.873,18.133 13.058,18.133 13.431 C 18.133 13.539,17.940 15.524,17.705 17.841 C 17.469 20.158,17.275 22.189,17.274 22.354 C 17.271 22.688,17.354 22.889,17.582 23.100 C 18.050 23.534,18.899 23.376,19.147 22.809 C 19.210 22.666,19.276 22.274,19.332 21.707 C 19.413 20.890,19.428 20.818,19.552 20.707 C 19.711 20.564,20.025 20.546,20.201 20.670 C 20.349 20.773,20.351 20.877,20.231 22.170 C 20.158 22.958,20.153 23.180,20.206 23.357 C 20.349 23.835,20.891 24.137,21.375 24.007 C 21.915 23.863,22.104 23.580,22.188 22.790 C 22.218 22.502,22.270 22.213,22.303 22.148 C 22.375 22.007,22.670 21.897,22.839 21.949 C 23.168 22.049,23.197 22.199,23.088 23.203 C 23.017 23.857,23.074 24.127,23.337 24.384 C 23.925 24.960,24.797 24.695,25.038 23.867 C 25.086 23.699,25.184 23.505,25.254 23.434 C 25.416 23.273,25.694 23.264,25.857 23.415 C 25.999 23.548,26.003 23.720,25.893 24.773 C 25.850 25.184,25.787 26.336,25.752 27.333 C 25.690 29.116,25.691 29.151,25.798 29.392 C 26.147 30.177,27.273 30.173,27.614 29.387 C 27.676 29.243,27.712 28.759,27.766 27.307 C 27.805 26.265,27.873 25.089,27.917 24.693 C 28.027 23.712,28.022 23.367,27.889 22.974 C 27.671 22.328,27.202 21.822,26.529 21.509 C 26.252 21.380,26.136 21.360,25.573 21.343 L 24.933 21.323 24.773 21.109 C 24.498 20.740,23.989 20.309,23.628 20.138 C 23.308 19.986,23.235 19.973,22.720 19.973 L 22.160 19.973 21.944 19.653 C 21.688 19.273,21.194 18.882,20.772 18.724 C 20.606 18.662,20.292 18.596,20.075 18.578 C 19.693 18.545,19.680 18.540,19.680 18.404 C 19.680 18.327,19.790 17.197,19.925 15.892 C 20.079 14.392,20.159 13.392,20.142 13.173 C 20.053 12.025,19.110 11.113,17.920 11.024 C 17.729 11.010,17.501 11.009,17.413 11.022 " fill="var(--db-icon-color, currentColor)" stroke="none" fill-rule="evenodd"></path></svg>