<svg id="icon" height="20" viewBox="0 0 20 20" width="20" xmlns="http://www.w3.org/2000/svg"><path d="M3.767 2.050 C 3.293 2.156,2.806 2.496,2.535 2.909 C 2.215 3.396,2.127 4.063,2.310 4.617 C 2.806 6.117,4.731 6.478,5.751 5.262 C 6.279 4.633,6.346 3.676,5.913 2.962 C 5.682 2.580,5.236 2.233,4.801 2.097 C 4.515 2.007,4.049 1.986,3.767 2.050 M15.150 3.047 C 14.755 3.145,14.360 3.451,14.186 3.794 C 14.041 4.080,14.000 4.305,14.000 4.805 L 14.000 5.263 13.856 5.363 C 13.645 5.508,13.366 5.823,13.241 6.057 C 13.181 6.170,13.102 6.378,13.066 6.520 C 13.002 6.768,13.000 6.899,13.000 10.030 C 13.001 13.612,12.995 13.507,13.208 13.914 C 13.365 14.216,13.785 14.619,14.104 14.777 C 14.485 14.964,14.706 14.999,15.520 14.999 C 16.112 15.000,16.263 14.990,16.480 14.934 C 16.842 14.842,17.112 14.687,17.386 14.417 C 17.667 14.139,17.842 13.842,17.933 13.483 C 17.998 13.232,18.000 13.112,18.000 9.985 C 18.000 6.402,18.010 6.577,17.781 6.108 C 17.653 5.847,17.376 5.522,17.144 5.363 L 17.000 5.263 17.000 4.789 C 17.000 4.469,16.983 4.249,16.949 4.115 C 16.749 3.343,15.926 2.854,15.150 3.047 M7.976 4.334 C 7.857 4.373,7.678 4.470,7.560 4.559 C 6.499 5.362,6.936 7.045,8.254 7.232 C 8.944 7.329,9.631 6.909,9.873 6.241 C 9.924 6.101,9.942 5.970,9.942 5.750 C 9.942 5.141,9.629 4.651,9.073 4.390 C 8.877 4.298,8.810 4.284,8.517 4.276 C 8.254 4.269,8.139 4.281,7.976 4.334 M3.509 7.085 C 2.816 7.271,2.259 7.866,2.064 8.626 C 1.948 9.079,1.954 9.115,2.501 11.308 C 3.101 13.712,3.117 13.753,3.615 14.253 C 3.870 14.509,3.966 14.580,4.233 14.711 C 4.784 14.981,4.763 14.978,6.387 14.992 L 7.823 15.004 8.337 16.277 C 8.782 17.381,8.867 17.567,8.978 17.678 C 9.393 18.093,10.067 18.085,10.448 17.662 C 10.622 17.468,10.700 17.260,10.700 16.988 C 10.700 16.807,10.650 16.661,10.195 15.518 C 9.917 14.821,9.645 14.160,9.591 14.050 C 9.410 13.684,9.134 13.394,8.815 13.236 C 8.412 13.036,8.323 13.026,6.700 13.004 C 5.671 12.990,5.196 12.972,5.150 12.945 C 4.949 12.828,4.943 12.811,4.462 10.910 C 4.208 9.905,4.001 9.074,4.000 9.063 C 4.000 9.051,4.214 9.035,4.475 9.027 C 4.873 9.014,4.977 9.000,5.117 8.938 C 5.470 8.780,5.701 8.431,5.699 8.057 C 5.698 7.718,5.492 7.455,5.017 7.185 L 4.752 7.033 4.217 7.036 C 3.870 7.037,3.623 7.054,3.509 7.085 M7.412 8.003 C 7.237 8.054,6.989 8.241,6.878 8.407 C 6.790 8.540,6.729 8.743,6.502 9.674 C 6.352 10.284,6.222 10.845,6.211 10.920 C 6.172 11.206,6.346 11.585,6.617 11.800 C 6.863 11.996,6.946 12.004,8.506 11.993 L 9.917 11.983 10.103 11.896 C 10.319 11.795,10.501 11.624,10.608 11.424 C 10.716 11.221,10.716 10.746,10.608 10.543 C 10.507 10.353,10.341 10.193,10.145 10.096 C 9.992 10.021,9.945 10.016,9.242 10.006 C 8.834 10.000,8.500 9.982,8.500 9.966 C 8.500 9.950,8.545 9.753,8.600 9.528 C 8.766 8.847,8.725 8.587,8.400 8.261 C 8.256 8.117,8.169 8.060,8.033 8.020 C 7.839 7.962,7.577 7.955,7.412 8.003 " fill="var(--db-icon-color, currentColor)" stroke="none" fill-rule="evenodd"></path></svg>