<svg id="icon" height="20" viewBox="0 0 20 20" width="20" xmlns="http://www.w3.org/2000/svg"><path d="M15.117 2.032 C 15.017 2.073,14.902 2.209,14.868 2.327 C 14.827 2.471,14.878 2.633,15.002 2.752 L 15.104 2.850 15.937 2.867 L 16.769 2.883 15.884 4.033 C 14.949 5.248,14.867 5.384,14.867 5.703 C 14.867 5.898,14.924 6.025,15.068 6.146 L 15.172 6.233 16.444 6.233 C 17.630 6.233,17.724 6.229,17.819 6.170 C 17.930 6.103,18.033 5.921,18.033 5.794 C 18.033 5.669,17.921 5.494,17.798 5.428 C 17.697 5.374,17.596 5.367,16.909 5.367 C 16.482 5.367,16.133 5.358,16.133 5.348 C 16.133 5.338,16.516 4.832,16.984 4.223 C 17.451 3.615,17.865 3.053,17.903 2.975 C 17.941 2.897,17.989 2.739,18.009 2.623 C 18.041 2.437,18.037 2.397,17.981 2.282 C 17.945 2.210,17.866 2.117,17.803 2.075 C 17.691 2.000,17.685 2.000,16.437 2.002 C 15.747 2.003,15.153 2.017,15.117 2.032 M11.181 3.063 C 10.970 3.191,10.948 3.489,11.137 3.648 L 11.238 3.733 11.969 3.733 C 12.371 3.733,12.700 3.742,12.700 3.754 C 12.700 3.765,12.348 4.215,11.917 4.754 C 11.486 5.294,11.111 5.789,11.083 5.856 C 10.960 6.150,10.992 6.398,11.171 6.549 L 11.272 6.633 12.404 6.633 C 13.647 6.633,13.683 6.628,13.783 6.434 C 13.846 6.312,13.847 6.223,13.786 6.104 C 13.690 5.920,13.680 5.918,12.874 5.900 L 12.125 5.883 12.896 4.917 C 13.320 4.385,13.700 3.882,13.741 3.800 C 13.793 3.694,13.815 3.588,13.816 3.439 C 13.817 3.238,13.811 3.223,13.692 3.114 L 13.568 3.000 12.425 3.000 C 11.367 3.000,11.276 3.005,11.181 3.063 M7.812 4.179 C 7.685 4.288,7.685 4.466,7.811 4.593 C 7.900 4.682,7.906 4.683,8.417 4.694 C 8.701 4.700,8.933 4.712,8.933 4.722 C 8.933 4.731,8.649 5.095,8.301 5.531 C 7.953 5.968,7.653 6.365,7.634 6.414 C 7.558 6.615,7.623 6.890,7.765 6.966 C 7.805 6.987,8.196 7.000,8.795 7.000 L 9.762 7.000 9.864 6.914 C 9.995 6.804,10.003 6.646,9.886 6.510 L 9.806 6.417 9.203 6.400 L 8.600 6.383 9.221 5.585 C 9.563 5.146,9.863 4.738,9.888 4.678 C 9.965 4.494,9.947 4.289,9.845 4.188 L 9.758 4.100 8.831 4.100 L 7.904 4.100 7.812 4.179 M4.150 9.046 C 3.751 9.144,3.335 9.469,3.167 9.816 C 2.948 10.269,2.949 10.730,3.170 11.191 C 3.268 11.395,3.605 11.732,3.809 11.830 C 4.430 12.128,5.079 12.025,5.552 11.552 C 6.131 10.973,6.150 10.092,5.597 9.487 C 5.242 9.098,4.662 8.922,4.150 9.046 M8.600 9.036 C 8.518 9.052,8.323 9.128,8.167 9.205 C 7.350 9.608,6.813 10.663,7.071 11.355 C 7.206 11.716,7.604 12.000,7.974 12.000 C 8.462 12.000,8.819 11.720,8.985 11.208 C 9.032 11.061,9.054 11.033,9.122 11.033 C 9.166 11.033,10.938 11.252,13.060 11.519 C 15.500 11.826,16.966 11.997,17.050 11.985 C 17.468 11.922,17.808 11.676,17.932 11.347 C 18.109 10.873,17.899 10.335,17.452 10.116 C 17.285 10.035,16.979 9.992,13.178 9.515 C 10.926 9.233,9.008 9.003,8.917 9.004 C 8.825 9.006,8.683 9.020,8.600 9.036 M2.678 13.062 C 1.975 13.305,1.774 14.177,2.300 14.703 C 2.400 14.803,2.520 14.883,2.629 14.921 C 2.750 14.965,2.800 15.000,2.800 15.043 C 2.800 15.077,2.732 15.507,2.650 16.000 C 2.568 16.493,2.500 16.956,2.500 17.030 C 2.500 17.531,2.984 18.000,3.500 18.000 C 3.892 18.000,4.292 17.725,4.424 17.365 C 4.460 17.265,4.571 16.692,4.669 16.092 L 4.848 15.000 10.000 15.000 L 15.152 15.000 15.331 16.092 C 15.429 16.692,15.540 17.265,15.576 17.365 C 15.708 17.725,16.108 18.000,16.500 18.000 C 17.016 18.000,17.500 17.531,17.500 17.030 C 17.500 16.956,17.433 16.493,17.350 16.000 C 17.267 15.507,17.200 15.077,17.200 15.043 C 17.200 15.000,17.250 14.965,17.371 14.921 C 17.480 14.883,17.600 14.803,17.700 14.703 C 18.185 14.219,18.053 13.411,17.441 13.110 L 17.250 13.017 10.050 13.009 C 3.206 13.002,2.841 13.005,2.678 13.062 " fill="var(--db-icon-color, currentColor)" stroke="none" fill-rule="evenodd"></path></svg>