<svg id="icon" height="24" viewBox="0 0 24 24" width="24" xmlns="http://www.w3.org/2000/svg"><path d="M6.100 2.036 C 5.801 2.112,5.614 2.271,5.483 2.560 C 5.391 2.764,5.374 3.113,5.447 3.322 C 5.472 3.396,5.985 4.276,6.587 5.278 L 7.680 7.100 7.170 7.125 C 6.853 7.140,6.592 7.175,6.480 7.216 C 6.011 7.388,5.627 7.795,5.477 8.278 C 5.409 8.498,5.396 8.644,5.398 9.192 C 5.400 9.652,5.417 9.884,5.456 9.977 C 5.487 10.050,5.631 10.236,5.777 10.391 L 6.042 10.672 5.922 10.851 C 5.599 11.329,5.623 12.141,5.970 12.510 L 6.056 12.602 5.810 12.851 C 5.403 13.263,5.387 13.321,5.362 14.527 C 5.340 15.553,5.340 15.554,5.240 15.662 C 5.076 15.840,4.926 15.880,4.427 15.880 C 3.592 15.880,3.275 15.997,2.800 16.476 C 2.450 16.830,2.207 17.268,2.079 17.776 C 2.007 18.065,2.000 18.229,2.000 19.616 C 2.000 20.543,2.017 21.198,2.042 21.289 C 2.103 21.509,2.315 21.762,2.531 21.874 C 3.036 22.134,3.643 21.944,3.886 21.450 C 3.979 21.263,3.980 21.235,4.000 19.691 L 4.020 18.122 4.127 18.015 C 4.224 17.917,4.273 17.905,4.667 17.875 C 6.266 17.754,6.997 17.284,7.303 16.177 C 7.351 16.002,7.374 15.699,7.389 15.020 L 7.409 14.100 7.778 13.720 C 8.186 13.301,8.320 13.097,8.421 12.745 C 8.501 12.466,8.487 12.076,8.390 11.900 C 8.220 11.592,8.225 11.612,8.309 11.505 C 8.435 11.345,8.493 11.072,8.471 10.741 C 8.442 10.286,8.283 9.997,7.792 9.510 L 7.399 9.120 7.889 9.119 C 8.892 9.118,9.394 8.887,9.686 8.293 C 9.909 7.841,9.894 7.176,9.646 6.568 C 9.510 6.233,7.243 2.555,7.047 2.349 C 6.802 2.093,6.398 1.960,6.100 2.036 M11.252 2.078 C 10.998 2.233,11.000 2.216,11.000 4.132 L 11.000 5.868 11.091 6.004 C 11.249 6.237,11.530 6.309,11.758 6.175 C 11.974 6.047,12.000 5.948,12.000 5.252 L 12.000 4.617 12.530 4.618 C 13.204 4.620,13.508 4.531,13.800 4.245 C 14.073 3.979,14.173 3.690,14.152 3.233 C 14.130 2.765,13.993 2.486,13.679 2.270 C 13.363 2.053,13.068 2.002,12.140 2.001 C 11.456 2.000,11.367 2.008,11.252 2.078 M20.592 2.478 C 20.520 2.535,20.454 2.656,20.394 2.841 C 20.307 3.113,20.301 3.120,20.170 3.120 C 19.995 3.120,19.840 3.270,19.840 3.440 C 19.840 3.593,19.996 3.760,20.138 3.760 L 20.240 3.760 20.240 4.593 C 20.240 5.545,20.281 5.769,20.496 5.984 C 20.718 6.206,21.322 6.311,21.729 6.198 C 21.982 6.128,22.082 5.870,21.929 5.681 C 21.868 5.606,21.813 5.592,21.571 5.586 C 21.397 5.583,21.263 5.560,21.232 5.528 C 21.193 5.490,21.177 5.255,21.168 4.618 L 21.156 3.760 21.436 3.760 C 21.778 3.760,21.933 3.660,21.933 3.440 C 21.933 3.220,21.778 3.120,21.438 3.120 L 21.160 3.120 21.160 2.864 C 21.160 2.550,21.089 2.444,20.860 2.414 C 20.736 2.397,20.676 2.411,20.592 2.478 M13.038 2.861 C 13.213 3.036,13.215 3.594,13.041 3.779 C 12.916 3.912,12.601 3.978,12.265 3.942 L 12.000 3.914 12.000 3.333 L 12.000 2.753 12.479 2.767 C 12.895 2.778,12.969 2.791,13.038 2.861 M15.130 3.115 C 14.697 3.265,14.528 3.517,14.524 4.020 C 14.520 4.551,14.723 4.786,15.349 4.977 C 15.836 5.125,15.898 5.160,15.912 5.301 C 15.918 5.367,15.898 5.454,15.868 5.496 C 15.786 5.608,15.428 5.627,15.017 5.541 C 14.615 5.456,14.494 5.478,14.422 5.649 C 14.308 5.920,14.466 6.079,14.953 6.182 C 15.728 6.346,16.402 6.176,16.638 5.755 C 16.748 5.559,16.789 5.172,16.723 4.932 C 16.631 4.592,16.424 4.439,15.822 4.264 C 15.420 4.147,15.320 4.077,15.320 3.912 C 15.320 3.694,15.669 3.623,16.149 3.744 C 16.381 3.802,16.411 3.802,16.500 3.744 C 16.613 3.669,16.668 3.447,16.602 3.325 C 16.467 3.072,15.608 2.950,15.130 3.115 M17.890 3.115 C 17.457 3.265,17.288 3.517,17.284 4.020 C 17.280 4.551,17.483 4.786,18.109 4.977 C 18.596 5.125,18.658 5.160,18.672 5.301 C 18.678 5.367,18.658 5.454,18.628 5.496 C 18.546 5.608,18.188 5.627,17.777 5.541 C 17.375 5.456,17.254 5.478,17.182 5.649 C 17.068 5.920,17.226 6.079,17.713 6.182 C 18.488 6.346,19.162 6.176,19.398 5.755 C 19.508 5.559,19.549 5.172,19.483 4.932 C 19.391 4.592,19.184 4.439,18.582 4.264 C 18.180 4.147,18.080 4.077,18.080 3.912 C 18.080 3.694,18.429 3.623,18.909 3.744 C 19.141 3.802,19.171 3.802,19.260 3.744 C 19.373 3.669,19.428 3.447,19.362 3.325 C 19.227 3.072,18.368 2.950,17.890 3.115 M2.893 4.055 C 2.511 4.180,2.220 4.454,2.085 4.816 C 1.713 5.811,2.658 6.760,3.682 6.419 C 3.983 6.319,4.319 5.983,4.421 5.680 C 4.634 5.042,4.364 4.399,3.766 4.117 C 3.541 4.012,3.117 3.981,2.893 4.055 M12.972 7.525 C 12.109 7.621,11.336 8.273,11.080 9.120 C 11.028 9.293,10.833 10.814,10.495 13.680 L 9.989 17.980 10.257 19.620 C 10.436 20.710,10.553 21.317,10.607 21.430 C 10.828 21.898,11.474 22.130,11.917 21.901 C 12.072 21.821,12.301 21.593,12.381 21.439 C 12.528 21.154,12.521 21.044,12.259 19.477 L 12.011 17.986 12.506 13.803 C 12.964 9.933,13.008 9.615,13.085 9.550 C 13.255 9.408,13.520 9.522,13.520 9.738 C 13.520 9.792,13.402 10.868,13.258 12.128 C 13.087 13.617,13.003 14.493,13.018 14.629 C 13.084 15.237,13.508 15.790,14.070 16.001 C 14.305 16.089,14.805 16.124,14.988 16.064 C 15.065 16.040,15.090 16.065,15.187 16.263 C 15.333 16.563,15.612 16.854,15.860 16.966 C 16.071 17.062,16.545 17.093,16.840 17.030 C 16.973 17.002,16.985 17.009,17.088 17.170 C 17.471 17.775,18.043 18.036,18.689 17.901 C 18.849 17.867,18.985 17.840,18.990 17.840 C 18.995 17.840,19.000 18.584,19.000 19.493 C 19.000 21.355,19.005 21.396,19.284 21.674 C 19.700 22.091,20.300 22.102,20.701 21.701 C 21.005 21.397,21.006 21.389,20.990 19.253 C 20.975 17.227,20.972 17.198,20.740 16.690 C 20.603 16.390,20.280 16.065,19.964 15.909 C 19.710 15.784,19.685 15.780,19.195 15.780 L 18.687 15.780 18.617 15.650 C 18.511 15.453,18.146 15.128,17.910 15.020 C 17.682 14.916,17.180 14.822,16.995 14.849 C 16.892 14.864,16.859 14.838,16.682 14.595 C 16.345 14.133,15.932 13.920,15.374 13.920 C 15.165 13.920,15.080 13.905,15.080 13.870 C 15.080 13.843,15.181 12.956,15.304 11.900 C 15.553 9.761,15.566 9.377,15.405 8.956 C 15.103 8.168,14.314 7.582,13.460 7.510 C 13.350 7.501,13.131 7.508,12.972 7.525 " fill="var(--db-icon-color, currentColor)" stroke="none" fill-rule="evenodd"></path></svg>