<svg width="12" height="12" viewBox="0 0 12 12" fill="none" xmlns="http://www.w3.org/2000/svg">
<g clip-path="url(#clip0_232_477)">
<path fill-rule="evenodd" clip-rule="evenodd" d="M5.28488 2.12421C5.83535 2.67111 6.38514 3.21854 6.93425 3.7665L7.11896 3.70901C8.5328 3.25426 10.1882 3.73613 10.6789 4.84622C11.0327 5.6465 10.5799 6.51377 9.68588 6.83693L8.06726 7.34612L6.79981 9.6619C6.71046 9.81042 6.60798 9.9223 6.4096 10.02C5.51498 10.4606 4.8889 9.85324 4.8889 9.24009C4.88538 8.94298 4.88263 8.64586 4.88066 8.34872L4.31935 8.52188C3.40191 8.82186 2.36568 8.40372 2.01907 7.41612C1.75938 6.68852 1.50045 5.96071 1.24227 5.23269C1.12672 4.84328 1.24227 4.39705 1.69276 4.16824C1.73736 4.14595 1.78282 4.12494 1.82914 4.10522C2.18596 3.94643 2.55007 4.0519 2.80365 4.28945L3.39566 4.87532L4.18685 4.6275L3.50503 3.23383C3.28666 2.72331 3.55301 2.06411 4.13304 1.92391C4.19873 1.90468 4.26472 1.88619 4.33102 1.86846C4.64401 1.78006 4.99493 1.8321 5.28488 2.12421ZM7.48214 4.85273C6.124 5.27719 4.7668 5.70259 3.41054 6.12893C3.22218 6.18796 2.93092 6.18796 2.76806 5.94212C2.84036 6.16328 2.96781 6.52128 3.15043 7.01611C3.24117 7.27467 3.5524 7.5337 3.95643 7.37813C4.4042 7.24112 4.8514 7.10352 5.29803 6.96533C5.65925 6.85418 6.06939 7.10429 6.07446 7.5337C6.07816 7.84716 6.08063 8.16063 6.08186 8.47412L7.1303 6.55844C7.17995 6.46767 7.22903 6.37253 7.47722 6.27386C7.87058 6.1477 8.45176 5.96553 9.22078 5.72736C9.5452 5.62788 9.62582 5.50687 9.57321 5.32074C9.5206 5.13461 9.2318 4.94672 8.91352 4.84367C8.52059 4.71645 7.92005 4.71645 7.48214 4.85273Z" fill="#1A1C1F"/>
</g>
<defs>
<clipPath id="clip0_232_477">
<rect width="12" height="12" fill="white"/>
</clipPath>
</defs>
</svg>
