<svg width="14" height="14" viewBox="0 0 14 14" fill="none" xmlns="http://www.w3.org/2000/svg">
<g clip-path="url(#clip0_2214_6636)">
<path fill-rule="evenodd" clip-rule="evenodd" d="M11.4328 4.75455L9.73545 5.31678L10.0874 6.28981C11.2028 5.92697 11.9784 5.67547 12.4143 5.53531C12.8109 6.28981 12.5266 7.03461 11.5284 7.33981L9.21214 8.06571L7.38654 11.4033C7.32773 11.5013 7.22974 11.5797 7.11214 11.6196L6.69564 11.7274C6.42054 11.8058 6.14614 11.5902 6.14614 11.2955L6.12654 9.03801L4.52074 9.53851C3.55894 9.85211 2.71474 9.28371 2.45994 8.55711L1.43934 5.69131C1.37984 5.49461 1.41694 5.32241 1.60804 5.22721L1.94614 5.08721C2.08579 5.02534 2.24044 5.07067 2.37634 5.19082L3.48824 6.28981L8.74104 4.65041C9.7264 4.3334 10.7115 4.44087 11.4328 4.75455ZM4.71531 6.96952C4.47801 7.13539 4.41921 7.46291 4.58511 7.70016C4.75101 7.93845 5.07756 7.99619 5.31591 7.83033C5.55426 7.66447 5.61201 7.33799 5.44611 7.0997C5.28021 6.8614 4.95366 6.80366 4.71531 6.96952ZM6.45875 6.44472C6.22145 6.60957 6.16265 6.93717 6.32855 7.17447C6.49445 7.41282 6.821 7.47162 7.05935 7.30467C7.2977 7.13982 7.35545 6.81327 7.18955 6.57492C7.02365 6.33657 6.69605 6.27882 6.45875 6.44472ZM8.2022 5.90981C7.9649 6.07466 7.9061 6.40331 8.072 6.63956C8.2379 6.87791 8.56445 6.93671 8.8028 6.77081C9.04115 6.60491 9.0989 6.27836 8.933 6.04001C8.7671 5.80166 8.4395 5.74391 8.2022 5.90981ZM5.3977 2.40404L7.2842 4.18134L5.03929 4.86944L4.1125 3.08724C3.9816 2.79324 4.1377 2.48244 4.4359 2.40334L4.8937 2.27454C5.0736 2.22624 5.2675 2.27594 5.3977 2.40404Z" fill="#1A1C1F"/>
</g>
<defs>
<clipPath id="clip0_2214_6636">
<rect width="14" height="14" fill="white"/>
</clipPath>
</defs>
</svg>
