<svg width="12" height="12" viewBox="0 0 12 12" fill="none" xmlns="http://www.w3.org/2000/svg">
<g clip-path="url(#clip0_2214_6638)">
<path fill-rule="evenodd" clip-rule="evenodd" d="M9.79958 4.07531L8.34468 4.55722L8.64633 5.39125C9.60238 5.08025 10.2672 4.86467 10.6409 4.74454C10.9808 5.39125 10.7371 6.02964 9.88152 6.29124L7.89612 6.91344L6.33132 9.77425C6.28092 9.85825 6.19692 9.92545 6.09612 9.95965L5.73912 10.052C5.50332 10.1192 5.26812 9.93445 5.26812 9.68185L5.25132 7.74685L3.87492 8.17585C3.05052 8.44464 2.32692 7.95745 2.10852 7.33465L1.23372 4.87825C1.18272 4.70965 1.21452 4.56205 1.37832 4.48045L1.66812 4.36045C1.78782 4.30742 1.92038 4.34627 2.03686 4.44926L2.98992 5.39125L7.49232 3.98605C8.33691 3.71432 9.1813 3.80644 9.79958 4.07531ZM4.04169 5.97386C3.83829 6.11603 3.78789 6.39676 3.93009 6.60012C4.07229 6.80437 4.35219 6.85386 4.55649 6.71169C4.76079 6.56953 4.81029 6.28969 4.66809 6.08544C4.52589 5.88118 4.24599 5.83169 4.04169 5.97386ZM5.53607 5.52403C5.33267 5.66533 5.28227 5.94613 5.42447 6.14953C5.56667 6.35383 5.84657 6.40423 6.05087 6.26113C6.25517 6.11983 6.30467 5.83993 6.16247 5.63563C6.02027 5.43133 5.73947 5.38183 5.53607 5.52403ZM7.03045 5.06553C6.82705 5.20683 6.77665 5.48853 6.91885 5.69103C7.06105 5.89533 7.34095 5.94573 7.54525 5.80353C7.74955 5.66133 7.79905 5.38143 7.65685 5.17713C7.51465 4.97283 7.23385 4.92333 7.03045 5.06553ZM4.6266 2.06059L6.2436 3.58399L4.3194 4.17379L3.525 2.64619C3.4128 2.39419 3.5466 2.12779 3.8022 2.05999L4.1946 1.94959C4.3488 1.90819 4.515 1.95079 4.6266 2.06059Z" fill="#1A1C1F"/>
</g>
<defs>
<clipPath id="clip0_2214_6638">
<rect width="12" height="12" fill="white"/>
</clipPath>
</defs>
</svg>
