<svg width="16" height="16" viewBox="0 0 16 16" fill="none" xmlns="http://www.w3.org/2000/svg">
<g clip-path="url(#clip0_187_833)">
<path fill-rule="evenodd" clip-rule="evenodd" d="M11.6177 4.66775C11.4359 4.70566 11.2535 4.74208 11.0704 4.777L12.1146 8.11945C13.3229 8.12727 14.3 9.10923 14.3 10.3194C14.3 11.5344 13.315 12.5194 12.1 12.5194C10.885 12.5194 9.90001 11.5344 9.90001 10.3194C9.90001 9.52315 10.323 8.8257 10.9566 8.43952L10.6944 7.59769L8.14858 10.2839C8.07049 10.3663 7.97575 10.4311 7.87066 10.4741C7.4909 10.6293 7.02972 10.4741 6.82741 10.0363C6.63475 9.56969 6.44375 9.10268 6.25441 8.63529L5.79822 9.20659C5.96877 9.49687 6.10001 9.88092 6.10001 10.3194C6.10001 11.5344 5.11504 12.5194 3.90001 12.5194C2.68499 12.5194 1.70001 11.5344 1.70001 10.3194C1.70001 9.10438 2.68499 8.1194 3.90001 8.1194C4.27143 8.1194 4.62136 8.21144 4.92822 8.37396L5.73521 7.36409L5.06241 5.71929L4.70001 5.7194C4.36864 5.7194 4.10001 5.45077 4.10001 5.1194C4.10001 4.81565 4.34903 4.5194 4.70001 4.5194C5.23199 4.51767 5.76408 4.51767 6.29629 4.5194C6.62766 4.5194 6.89629 4.78803 6.89629 5.1194C6.89629 5.42316 6.64464 5.71529 6.35681 5.71529C6.45471 5.97234 6.56138 6.23367 6.67681 6.49929L10.0368 5.49129L9.72726 4.49816C9.62928 4.18422 9.785 3.82212 10.1823 3.73105C10.6944 3.62775 11.0574 3.55604 11.3823 3.49105C11.6177 3.44425 11.9832 3.54948 12.0747 3.908C12.2017 4.40018 11.8002 4.63363 11.6177 4.66775ZM3.90001 9.3194C3.34773 9.3194 2.90001 9.76712 2.90001 10.3194C2.90001 10.8717 3.34773 11.3194 3.90001 11.3194C4.4523 11.3194 4.90001 10.8717 4.90001 10.3194C4.90001 9.76712 4.4523 9.3194 3.90001 9.3194ZM12.1 9.3194C11.5477 9.3194 11.1 9.76712 11.1 10.3194C11.1 10.8717 11.5477 11.3194 12.1 11.3194C12.6523 11.3194 13.1 10.8717 13.1 10.3194C13.1 9.76712 12.6523 9.3194 12.1 9.3194ZM9.77441 6.82329L7.13361 7.61529L7.70321 9.0082L9.77441 6.82329Z" fill="#1A1C1F"/>
</g>
<defs>
<clipPath id="clip0_187_833">
<rect width="16" height="16" fill="white"/>
</clipPath>
</defs>
</svg>
