<svg width="14" height="14" viewBox="0 0 14 14" fill="none" xmlns="http://www.w3.org/2000/svg">
<g clip-path="url(#clip0_187_848)">
<path fill-rule="evenodd" clip-rule="evenodd" d="M2.90181 3.40014C2.98031 3.39269 3.09918 3.40629 3.25845 3.44094C3.41771 3.47559 4.48725 3.7399 6.46708 4.23387C6.52739 4.24877 6.58546 4.27164 6.63974 4.30187C7.91239 5.01065 8.90555 5.75553 9.61839 6.54397C9.79165 6.73562 9.84363 7.00471 9.76014 7.24391L8.91745 8.907C8.79867 9.13939 8.56047 9.28641 8.29949 9.2884L6.18728 9.23603C6.047 10.0127 5.3675 10.6018 4.55041 10.6018C3.64746 10.6018 2.91255 9.88239 2.88765 8.98547L2.22067 8.9343C1.88892 8.90888 1.62089 8.65345 1.57956 8.32329C1.4621 7.43655 1.40238 6.92763 1.4004 6.79654C1.39842 6.66546 1.43998 5.97204 1.52508 4.71629C1.56924 3.97956 2.17551 3.41015 2.90181 3.40014ZM12.5795 8.06865C12.6666 8.41692 12.4668 8.82595 12.0702 8.91752L10.6702 9.26752C10.2951 9.36129 9.91507 9.13326 9.82131 8.7582C9.73424 8.40993 9.9296 8.02029 10.3306 7.90932L11.7306 7.55932C12.1057 7.46556 12.4857 7.69359 12.5795 8.06865ZM2.73863 5.16292L2.73409 6.325C2.73409 6.65361 3.00048 6.92 3.32909 6.92C3.63243 6.92 3.88274 6.69302 3.91946 6.39964L3.92409 5.97042L5.71959 6.34772L6.6697 6.98309C6.92013 7.15049 7.29482 7.09859 7.48195 6.8432C7.66909 6.58781 7.61465 6.23728 7.3951 6.04314L6.28546 5.2949C6.25739 5.27614 6.18801 5.24694 6.07732 5.20732L3.45159 4.65489C3.10645 4.58227 2.78055 4.82322 2.73863 5.16292Z" fill="#1A1C1F"/>
</g>
<defs>
<clipPath id="clip0_187_848">
<rect width="14" height="14" fill="white"/>
</clipPath>
</defs>
</svg>
