<svg width="12" height="12" viewBox="0 0 12 12" fill="none" xmlns="http://www.w3.org/2000/svg">
<g clip-path="url(#clip0_2214_6666)">
<path fill-rule="evenodd" clip-rule="evenodd" d="M3.8487 7.23235C4.34576 7.23235 4.7487 7.6353 4.7487 8.13235C4.7487 8.62941 4.34576 9.03235 3.8487 9.03235C3.35165 9.03235 2.9487 8.62941 2.9487 8.13235C2.9487 7.6353 3.35165 7.23235 3.8487 7.23235ZM3.69255 2.99318C3.8487 3.01345 4.63215 3.21377 5.59684 3.63679C6.67968 4.23986 7.52327 4.87256 8.127 5.54032C8.26902 5.6974 8.29919 5.9259 8.20282 6.11446L7.47649 7.56249C7.38995 7.7318 7.21641 7.83891 7.02627 7.84036C6.23794 7.84343 5.76252 7.84343 5.60001 7.84036C5.53734 7.0091 4.69906 6.33235 3.8487 6.33235C3.14152 6.33235 2.52959 6.74017 2.23526 7.33345L1.84428 7.28911C1.61414 7.26304 1.43046 7.08515 1.39703 6.85596C1.29958 6.1514 1.25085 5.73799 1.25085 5.61573C1.25085 5.49348 1.33609 5.11247 1.50657 4.47271C1.729 3.47237 2.69375 2.829 3.69255 2.99318ZM10.734 6.86699C10.7984 7.11888 10.6522 7.4249 10.3663 7.4875L9.07513 7.81788C8.80225 7.8877 8.52444 7.7231 8.45462 7.45022C8.39017 7.19834 8.52909 6.90942 8.82228 6.82972L10.1135 6.49933C10.3863 6.42951 10.6642 6.59412 10.734 6.86699ZM2.48925 4.01102L2.16262 4.96974C2.07282 5.23671 2.21643 5.52593 2.4834 5.61573C2.72983 5.69863 2.99522 5.58264 3.10522 5.35433L3.28921 4.82035C3.89822 4.93725 4.37252 5.09453 4.71212 5.2922L5.68674 5.86989C5.92838 6.01461 6.24159 5.93603 6.3863 5.69438C6.51896 5.47287 6.46399 5.19123 6.26777 5.03436L5.41874 4.52047C4.96344 4.24781 4.47021 4.04516 3.95561 3.91892L3.04897 3.73229C2.81821 3.68605 2.58892 3.80367 2.48925 4.01102Z" fill="#1A1C1F"/>
</g>
<defs>
<clipPath id="clip0_2214_6666">
<rect width="12" height="12" fill="white"/>
</clipPath>
</defs>
</svg>
