<svg width="14" height="14" viewBox="0 0 14 14" fill="none" xmlns="http://www.w3.org/2000/svg">
<g clip-path="url(#clip0_2214_6650)">
<path fill-rule="evenodd" clip-rule="evenodd" d="M10.1655 4.08428C10.0065 4.11745 9.84687 4.14932 9.68665 4.17988L10.6003 7.10452C11.6576 7.11136 12.5125 7.97057 12.5125 9.02948C12.5125 10.0926 11.6507 10.9545 10.5875 10.9545C9.5244 10.9545 8.66255 10.0926 8.66255 9.02948C8.66255 8.33276 9.03268 7.72249 9.58704 7.38458L9.35765 6.64798L7.13005 8.99839C7.06172 9.0705 6.97882 9.12723 6.88686 9.16483C6.55458 9.30068 6.15104 9.16483 5.97402 8.78178C5.80544 8.37348 5.63832 7.96484 5.47265 7.55588L5.07348 8.05577C5.22271 8.30977 5.33755 8.64581 5.33755 9.02948C5.33755 10.0926 4.4757 10.9545 3.41255 10.9545C2.3494 10.9545 1.48755 10.0926 1.48755 9.02948C1.48755 7.96633 2.3494 7.10448 3.41255 7.10448C3.73754 7.10448 4.04373 7.18501 4.31223 7.32722L5.01835 6.44358L4.42965 5.00438L4.11255 5.00448C3.8226 5.00448 3.58755 4.76943 3.58755 4.47948C3.58755 4.21369 3.80544 3.95448 4.11255 3.95448C4.57803 3.95296 5.04361 3.95296 5.50929 3.95448C5.79924 3.95448 6.03429 4.18953 6.03429 4.47948C6.03429 4.74526 5.81409 5.00088 5.56225 5.00088C5.64791 5.2258 5.74124 5.45446 5.84225 5.68688L8.78225 4.80488L8.51139 3.93589C8.42566 3.6612 8.56191 3.34436 8.90959 3.26467C9.35765 3.17428 9.67527 3.11154 9.95959 3.05467C10.1655 3.01372 10.4853 3.1058 10.5654 3.4195C10.6766 3.85016 10.3252 4.05443 10.1655 4.08428ZM3.41255 8.15448C2.9293 8.15448 2.53755 8.54623 2.53755 9.02948C2.53755 9.51273 2.9293 9.90448 3.41255 9.90448C3.8958 9.90448 4.28755 9.51273 4.28755 9.02948C4.28755 8.54623 3.8958 8.15448 3.41255 8.15448ZM10.5875 8.15448C10.1043 8.15448 9.71255 8.54623 9.71255 9.02948C9.71255 9.51273 10.1043 9.90448 10.5875 9.90448C11.0708 9.90448 11.4625 9.51273 11.4625 9.02948C11.4625 8.54623 11.0708 8.15448 10.5875 8.15448ZM8.55265 5.97038L6.24195 6.66338L6.74035 7.88218L8.55265 5.97038Z" fill="#1A1C1F"/>
</g>
<defs>
<clipPath id="clip0_2214_6650">
<rect width="14" height="14" fill="white"/>
</clipPath>
</defs>
</svg>
