<svg width="12" height="12" viewBox="0 0 12 12" fill="none" xmlns="http://www.w3.org/2000/svg">
<g clip-path="url(#clip0_232_485)">
<path fill-rule="evenodd" clip-rule="evenodd" d="M8.06162 1.2C8.63989 1.2 8.94797 1.25949 9.26902 1.43119C9.56913 1.59169 9.80826 1.83081 9.96876 2.13093C10.1034 2.38274 10.1691 2.62657 10.1911 2.99906L10.8 3V5.4H10.2V8.83083C10.2 9.12122 10.1653 9.37839 10.0489 9.57601C9.93247 9.77363 9.77387 9.94063 9.59995 10.0344V10.8H8.09995V10.2H3.89995V10.8H2.39995L2.39997 10.0358C2.20876 9.92775 2.05491 9.7703 1.951 9.57601C1.85277 9.39232 1.81079 9.2156 1.80184 8.95026L1.79995 5.4H1.19995V3L1.80878 2.99906C1.83083 2.62657 1.89647 2.38274 2.03114 2.13093C2.19165 1.83081 2.43077 1.59169 2.73088 1.43119C3.02518 1.2738 3.35164 1.2 3.83662 1.20127L8.06162 1.2ZM3.88807 7.65H2.98807V8.55H3.88807V7.65ZM9.05304 7.65H8.15304V8.55H9.05304V7.65ZM8.16329 2.40059C7.94067 2.40006 4.02976 2.40059 3.83662 2.40059C3.64348 2.40059 3.38518 2.40059 3.19597 2.56205C3.00675 2.72352 3.00197 3.00127 3.00054 3.23666C2.99959 3.39359 3 4.46437 3.00177 6.44899C4.12899 6.53574 5.12861 6.57903 5.99995 6.57903C6.8713 6.57903 7.87091 6.53574 8.99813 6.44899C8.99895 4.47592 8.99936 3.40515 8.99936 3.23666C8.99936 2.98394 8.99426 2.72299 8.80712 2.56205C8.61999 2.40112 8.3859 2.40112 8.16329 2.40059ZM7.79995 3V4.02H4.19995V3H7.79995Z" fill="#1A1C1F"/>
</g>
<defs>
<clipPath id="clip0_232_485">
<rect width="12" height="12" fill="white"/>
</clipPath>
</defs>
</svg>
