<svg width="14" height="14" viewBox="0 0 14 14" fill="none" xmlns="http://www.w3.org/2000/svg">
<g clip-path="url(#clip0_2214_6706)">
<path fill-rule="evenodd" clip-rule="evenodd" d="M9.54157 2.42981C10.1302 2.42981 10.6899 2.8458 10.843 3.41688C10.945 3.7976 11.1347 4.63525 11.4121 5.92981H12.6V7.32981H11.8265C11.7215 8.28573 11.6515 8.89916 11.6165 9.1701C11.5815 9.44105 11.4428 9.72011 11.2007 10.0073V11.5702H9.45002V10.6485C8.63336 10.7694 7.81669 10.8298 7.00002 10.8298C6.18336 10.8298 5.36669 10.7694 4.55002 10.6485L4.54531 11.5702H2.80002L2.80001 10.008C2.55096 9.72346 2.40516 9.39806 2.3626 9.03177C2.32004 8.66549 2.25678 8.09817 2.17282 7.32981H1.40002V5.92981H2.58722L3.12004 3.52767C3.28665 2.96412 3.78002 2.43452 4.40619 2.43452C5.03236 2.43452 8.95292 2.42981 9.54157 2.42981ZM6.04603 8.03575C5.86516 8.06319 5.71111 8.18347 5.64062 8.35229L5.42807 9.19775C5.40249 9.42908 5.5103 9.63924 5.76794 9.7448C6.02557 9.85036 6.34579 9.6711 6.43477 9.45662L6.53452 9.07981H7.46482L7.56263 9.45009C7.6585 9.69026 7.9195 9.8286 8.17736 9.76413C8.43521 9.69967 8.6004 9.45479 8.57198 9.19775L8.35943 8.35229C8.28894 8.18347 8.13488 8.06319 7.95402 8.03575H6.04603ZM3.44277 7.57704C3.16025 7.51182 2.87835 7.68797 2.81312 7.97049C2.75333 8.22947 2.89637 8.48792 3.13823 8.57944L4.22966 8.83633C4.51218 8.90156 4.79408 8.7254 4.8593 8.44289C4.91909 8.18391 4.77606 7.92546 4.53419 7.83394L3.44277 7.57704ZM11.1943 7.97049C11.1345 7.71151 10.8927 7.54192 10.6351 7.56569L9.54157 7.81324C9.25905 7.87847 9.0829 8.16037 9.14812 8.44289C9.20791 8.70186 9.44977 8.87146 9.70728 8.84769L10.8009 8.60013C11.0834 8.53491 11.2595 8.25301 11.1943 7.97049ZM9.77044 3.61981H4.23031L3.78002 5.92981H10.22L9.77044 3.61981Z" fill="#1A1C1F"/>
</g>
<defs>
<clipPath id="clip0_2214_6706">
<rect width="14" height="14" fill="white"/>
</clipPath>
</defs>
</svg>
