<svg width="14" height="14" viewBox="0 0 14 14" fill="none" xmlns="http://www.w3.org/2000/svg">
<g clip-path="url(#clip0_187_887)">
<path fill-rule="evenodd" clip-rule="evenodd" d="M9.54157 2.45472C10.1291 2.45943 10.7093 2.92003 10.843 3.43708C10.932 3.78179 11.1218 4.61943 11.4121 5.95001H12.6V7.35001H11.8265C11.7215 8.39493 11.6515 9.00836 11.6165 9.1903C11.564 9.46322 11.4121 9.82746 11.2007 10.0282V11.55H9.45002V10.6687C8.63336 10.7896 7.81669 10.85 7.00002 10.85C6.18336 10.85 5.36669 10.7896 4.55002 10.6687L4.54531 11.55H2.80002L2.79955 10.0282C2.63574 9.86511 2.47597 9.5459 2.41503 9.32499C2.3744 9.17771 2.29367 8.51939 2.17282 7.35001H1.40002V5.95001H2.58722L3.12004 3.54787C3.28665 2.98432 3.78002 2.45001 4.5804 2.45001C5.38078 2.45001 8.95404 2.45001 9.54157 2.45472ZM6.04603 8.05595C5.86516 8.08339 5.71111 8.20367 5.64062 8.37249L5.42807 9.21796C5.40249 9.44929 5.53695 9.72068 5.834 9.78807C6.13105 9.85546 6.34579 9.6913 6.43477 9.47682L6.53452 9.10001H7.46482L7.56263 9.47029C7.6585 9.71046 7.9195 9.8488 8.17736 9.78434C8.43521 9.71987 8.6004 9.47499 8.57198 9.21796L8.35943 8.37249C8.28894 8.20367 8.13488 8.08339 7.95402 8.05595H6.04603ZM3.44277 7.59725C3.16025 7.53202 2.87835 7.70817 2.81312 7.99069C2.75333 8.24967 2.89637 8.50812 3.13823 8.59964L4.22966 8.85653C4.51218 8.92176 4.79408 8.74561 4.8593 8.46309C4.91909 8.20411 4.77606 7.94566 4.53419 7.85414L3.44277 7.59725ZM11.1943 7.99069C11.1345 7.73172 10.8927 7.56212 10.6351 7.58589L9.54157 7.83345C9.25905 7.89867 9.0829 8.18057 9.14812 8.46309C9.20791 8.72206 9.44977 8.89166 9.70728 8.86789L10.8009 8.62034C11.0834 8.55511 11.2595 8.27321 11.1943 7.99069ZM9.77044 3.64001H4.23031L3.78002 5.95001H10.22L9.77044 3.64001Z" fill="#1A1C1F"/>
</g>
<defs>
<clipPath id="clip0_187_887">
<rect width="14" height="14" fill="white"/>
</clipPath>
</defs>
</svg>
