<svg width="12" height="12" viewBox="0 0 12 12" fill="none" xmlns="http://www.w3.org/2000/svg">
<g clip-path="url(#clip0_232_487)">
<path fill-rule="evenodd" clip-rule="evenodd" d="M8.17842 2.10404C8.68202 2.10808 9.17936 2.50288 9.29389 2.94607C9.37024 3.24153 9.53286 3.95951 9.78175 5.10001H10.8V6.30001H10.137C10.0469 7.19565 9.98693 7.72145 9.95693 7.8774C9.91192 8.11133 9.78175 8.42353 9.60049 8.59557V9.90001H8.09995V9.14461C7.39995 9.24821 6.69995 9.30001 5.99995 9.30001C5.29995 9.30001 4.59995 9.24821 3.89995 9.14461L3.89591 9.90001H2.39995L2.39955 8.59557C2.25914 8.4558 2.12219 8.18219 2.06995 7.99284C2.03513 7.86661 1.96593 7.30233 1.86235 6.30001H1.19995V5.10001H2.21755L2.67425 3.04103C2.81705 2.55799 3.23995 2.10001 3.92599 2.10001C4.61203 2.10001 7.67482 2.10001 8.17842 2.10404ZM5.18224 6.9051C5.02721 6.92861 4.89516 7.03172 4.83475 7.17641L4.65256 7.9011C4.63063 8.09938 4.74588 8.33201 5.0005 8.38977C5.25511 8.44754 5.43918 8.30682 5.51544 8.12298L5.60095 7.80001H6.39835L6.48218 8.11739C6.56436 8.32325 6.78808 8.44182 7.00909 8.38657C7.23011 8.33132 7.3717 8.12141 7.34734 7.9011L7.16515 7.17641C7.10474 7.03172 6.97269 6.92861 6.81766 6.9051H5.18224ZM2.95087 6.51192C2.70872 6.45602 2.46709 6.607 2.41118 6.84916C2.35993 7.07114 2.48253 7.29267 2.68984 7.37112L3.62535 7.59131C3.86751 7.64722 4.10914 7.49623 4.16505 7.25407C4.21629 7.03209 4.09369 6.81056 3.88638 6.73212L2.95087 6.51192ZM9.59505 6.84916C9.5438 6.62718 9.33649 6.48181 9.11577 6.50219L8.17842 6.71438C7.93626 6.77028 7.78527 7.01191 7.84118 7.25407C7.89243 7.47605 8.09973 7.62142 8.32045 7.60104L9.25781 7.38885C9.49996 7.33295 9.65095 7.09132 9.59505 6.84916ZM8.3746 3.12001H3.62591L3.23995 5.10001H8.75995L8.3746 3.12001Z" fill="#1A1C1F"/>
</g>
<defs>
<clipPath id="clip0_232_487">
<rect width="12" height="12" fill="white"/>
</clipPath>
</defs>
</svg>
