<svg width="12" height="12" viewBox="0 0 12 12" fill="none" xmlns="http://www.w3.org/2000/svg">
<g clip-path="url(#clip0_2214_6806)">
<path fill-rule="evenodd" clip-rule="evenodd" d="M8.63684 1.39195L7.84334 1.65514C7.4614 1.76971 7.22353 2.14293 7.27222 2.53105L8.13451 6.51979C7.59853 6.7491 7.17321 7.06684 6.86698 7.47515C6.59183 7.84201 6.39085 8.274 6.26236 8.76801L3.68328 8.76872C3.47132 8.35872 3.04342 8.07851 2.54998 8.07851C1.84595 8.07851 1.27498 8.64933 1.27498 9.35351C1.27498 10.0577 1.84595 10.6285 2.54998 10.6285C3.10134 10.6285 3.57089 10.2787 3.74876 9.78879C5.7283 9.78879 6.71807 9.78672 6.71807 9.78672C6.80202 9.78672 7.11788 9.69198 7.178 9.3626C7.26514 8.84125 7.43463 8.41828 7.68298 8.08715C7.84544 7.87053 8.07055 7.6871 8.36314 7.53806L8.56486 8.43584C8.3245 8.66772 8.17498 8.99316 8.17498 9.35351C8.17498 10.0577 8.74595 10.6285 9.44998 10.6285C10.1542 10.6285 10.725 10.0578 10.725 9.35351C10.725 8.71051 10.2401 8.13299 9.53158 8.08078C9.53158 8.08503 9.12918 6.24997 8.32438 2.57559L8.92989 2.36895C9.18852 2.29074 9.3599 1.98943 9.27186 1.73392C9.18383 1.47841 8.92989 1.31132 8.63684 1.39195ZM4.47901 6.96154C3.81833 6.32368 3.11584 6.1186 2.26328 6.22217C1.98367 6.25614 1.78454 6.51034 1.8185 6.78995C1.85247 7.06956 2.10667 7.26869 2.38628 7.23473C2.94718 7.16659 3.34236 7.28195 3.77055 7.69535C3.97318 7.89099 4.29605 7.88532 4.49168 7.68268C4.68732 7.48004 4.68165 7.15718 4.47901 6.96154Z" fill="#1A1C1F"/>
</g>
<defs>
<clipPath id="clip0_2214_6806">
<rect width="12" height="12" fill="white"/>
</clipPath>
</defs>
</svg>
