<svg width="12" height="12" viewBox="0 0 12 12" fill="none" xmlns="http://www.w3.org/2000/svg">
<g clip-path="url(#clip0_2214_6736)">
<path fill-rule="evenodd" clip-rule="evenodd" d="M3.89824 8.5453L3.89419 9.29932H2.39823V7.99626C2.18476 7.7524 2.05979 7.47349 2.02331 7.15953L1.86064 5.7007H1.19824V4.5007H2.21584L2.67254 2.44173C2.81535 1.95868 3.23824 1.5007 3.77496 1.5007L6.38813 1.5013C6.6698 1.5013 6.89813 1.72964 6.89813 2.0113C6.89813 2.29297 6.6698 2.5213 6.38813 2.5213L3.6242 2.5207L3.23824 4.5007C4.67762 4.5003 5.59762 4.5001 5.99824 4.5001C5.99994 3.83665 6.53709 3.30426 7.19789 3.30199C7.19824 2.96933 7.46687 2.7007 7.79824 2.7007H9.00551C9.31321 2.7007 9.59824 2.98475 9.60511 3.3019C10.2377 3.30199 10.8016 3.86936 10.8016 4.50198L10.7982 9.29932C10.7982 9.96206 10.261 10.4993 9.59824 10.4993H7.1987C6.53596 10.4993 5.9987 9.96206 5.9987 9.29932L5.99824 8.7007C5.29824 8.7007 4.59824 8.6489 3.89824 8.5453ZM9.59824 4.33499C9.44252 4.33499 8.64267 4.33499 7.1987 4.33499C7.11349 4.33499 7.0187 4.39855 7.0187 4.51501C7.0187 4.64161 7.0187 6.23638 7.0187 9.29932C7.0187 9.38453 7.09752 9.47226 7.1987 9.47934C7.3978 9.47934 8.19764 9.47934 9.59824 9.47934C9.68345 9.47934 9.77824 9.41608 9.77824 9.29932C9.77824 9.0949 9.77824 7.50013 9.77824 4.51501C9.77824 4.4298 9.68942 4.33499 9.59824 4.33499ZM4.94217 6.33591C4.74588 6.41634 4.61141 6.62233 4.65085 6.80481C4.70617 7.02617 4.7669 7.26774 4.83304 7.52949C4.88482 7.65352 5.03693 7.8007 5.18054 7.80081C5.40267 7.80074 5.67524 7.8007 5.99824 7.8007V6.9055L5.59924 6.9059L5.51373 6.58293C5.45364 6.40133 5.163 6.24543 4.94217 6.33591ZM8.77403 5.14198C8.98184 5.23534 9.10896 5.47798 9.00008 5.73687C8.89155 5.97727 8.78134 6.21501 8.66944 6.4501L8.85052 6.4507C9.15659 6.4507 9.40408 6.76696 9.26096 7.08521C9.08908 7.47566 8.87316 7.92961 8.61318 8.44706C8.51128 8.67373 8.24492 8.77489 8.01824 8.67299C7.81045 8.57958 7.67547 8.32336 7.79231 8.07804C7.86142 7.91023 7.9822 7.66758 8.15464 7.3501L7.97448 7.3507C7.66845 7.3507 7.42715 7.02901 7.564 6.71628C7.69367 6.42188 7.89872 5.97246 8.17914 5.36803C8.28099 5.14133 8.54733 5.04012 8.77403 5.14198ZM2.94916 5.91262L3.88467 6.13281C4.09198 6.21126 4.21458 6.43279 4.16334 6.65477C4.10743 6.89693 3.8658 7.04791 3.62364 6.99201L2.68814 6.77181C2.48082 6.69337 2.35822 6.47183 2.40947 6.24986C2.46538 6.0077 2.70701 5.85671 2.94916 5.91262Z" fill="#1A1C1F"/>
</g>
<defs>
<clipPath id="clip0_2214_6736">
<rect width="12" height="12" fill="white"/>
</clipPath>
</defs>
</svg>
