<svg width="28" height="28" viewBox="0 0 28 28" fill="none" xmlns="http://www.w3.org/2000/svg">
<g clip-path="url(#clip0_2214_7296)">
<path fill-rule="evenodd" clip-rule="evenodd" d="M6.12144 18.9437C7.4987 18.9437 8.61519 20.0602 8.61519 21.4375C8.61519 22.8147 7.4987 23.9312 6.12144 23.9312C4.74418 23.9312 3.62769 22.8147 3.62769 21.4375C3.62769 20.0602 4.74418 18.9437 6.12144 18.9437ZM17.4964 18.9437C18.8737 18.9437 19.9902 20.0602 19.9902 21.4375C19.9902 22.8147 18.8737 23.9312 17.4964 23.9312C16.1192 23.9312 15.0027 22.8147 15.0027 21.4375C15.0027 20.0602 16.1192 18.9437 17.4964 18.9437ZM6.12144 20.4312C5.5657 20.4312 5.11519 20.8817 5.11519 21.4375C5.11519 21.9932 5.5657 22.4437 6.12144 22.4437C6.67717 22.4437 7.12769 21.9932 7.12769 21.4375C7.12769 20.8817 6.67717 20.4312 6.12144 20.4312ZM17.4964 20.4312C16.9407 20.4312 16.4902 20.8817 16.4902 21.4375C16.4902 21.9932 16.9407 22.4437 17.4964 22.4437C18.0522 22.4437 18.5027 21.9932 18.5027 21.4375C18.5027 20.8817 18.0522 20.4312 17.4964 20.4312ZM13.534 19.9436C13.8758 20.1715 13.9681 20.6333 13.7403 20.975C13.5124 21.3168 13.0507 21.4092 12.7089 21.1813C12.1639 20.818 11.454 20.818 10.909 21.1813C10.5672 21.4092 10.1054 21.3168 9.8776 20.975C9.64975 20.6333 9.7421 20.1715 10.0839 19.9436C11.1285 19.2472 12.4894 19.2472 13.534 19.9436ZM21.8714 4.06873C22.9933 4.06873 23.9537 4.85379 24.1873 5.93713L26.11 18.724C26.1742 19.1459 25.9882 19.4159 25.5518 19.534C25.168 19.6263 24.0013 19.9179 22.0518 20.409C21.6533 20.5086 21.2495 20.2664 21.1499 19.8679C21.0579 19.5 21.2573 19.1276 21.6019 18.9942L24.5349 18.2542L22.7436 6.30731C22.6838 5.90881 22.3472 5.55623 21.8714 5.55623C21.4607 5.55623 21.1277 5.22324 21.1277 4.81248C21.1277 4.40171 21.4607 4.06873 21.8714 4.06873ZM20.9964 11.8125C21.4072 11.8125 21.7402 12.1455 21.7402 12.5562C21.7402 12.9354 21.4434 13.3 20.9964 13.3C20.9964 13.3 20.9964 13.9708 20.9964 15.3125C20.9964 16.7638 19.7638 17.9375 18.3714 17.9375H5.24644C3.85403 17.9375 2.62144 16.7638 2.62144 15.3125C2.62144 13.9708 2.62144 13.3 2.62144 13.3C2.22459 13.3 1.87769 12.967 1.87769 12.5562C1.87769 12.1771 2.1826 11.8125 2.62144 11.8125H20.9964Z" fill="#1A1C1F"/>
</g>
<defs>
<clipPath id="clip0_2214_7296">
<rect width="28" height="28" fill="white"/>
</clipPath>
</defs>
</svg>
