<svg width="32" height="32" viewBox="0 0 32 32" fill="none" xmlns="http://www.w3.org/2000/svg">
<g clip-path="url(#clip0_2214_7293)">
<path fill-rule="evenodd" clip-rule="evenodd" d="M6.99587 21.65C8.56989 21.65 9.84587 22.926 9.84587 24.5C9.84587 26.074 8.56989 27.35 6.99587 27.35C5.42186 27.35 4.14587 26.074 4.14587 24.5C4.14587 22.926 5.42186 21.65 6.99587 21.65ZM19.9959 21.65C21.5699 21.65 22.8459 22.926 22.8459 24.5C22.8459 26.074 21.5699 27.35 19.9959 27.35C18.4219 27.35 17.1459 26.074 17.1459 24.5C17.1459 22.926 18.4219 21.65 19.9959 21.65ZM6.99587 23.35C6.36075 23.35 5.84587 23.8649 5.84587 24.5C5.84587 25.1352 6.36075 25.65 6.99587 25.65C7.631 25.65 8.14587 25.1352 8.14587 24.5C8.14587 23.8649 7.631 23.35 6.99587 23.35ZM19.9959 23.35C19.3607 23.35 18.8459 23.8649 18.8459 24.5C18.8459 25.1352 19.3607 25.65 19.9959 25.65C20.631 25.65 21.1459 25.1352 21.1459 24.5C21.1459 23.8649 20.631 23.35 19.9959 23.35ZM15.4674 22.7928C15.858 23.0532 15.9635 23.5809 15.7031 23.9715C15.4427 24.3621 14.915 24.4677 14.5244 24.2073C13.9016 23.7921 13.0902 23.7921 12.4674 24.2073C12.0768 24.4677 11.549 24.3621 11.2886 23.9715C11.0282 23.5809 11.1338 23.0532 11.5244 22.7928C12.7182 21.9969 14.2735 21.9969 15.4674 22.7928ZM24.9959 4.65002C26.278 4.65002 27.3756 5.54724 27.6426 6.78534L29.8399 21.3989C29.9134 21.8811 29.7007 22.1897 29.202 22.3246C28.7633 22.4301 27.43 22.7634 25.202 23.3246C24.7466 23.4385 24.2851 23.1616 24.1713 22.7062C24.0662 22.2858 24.294 21.8602 24.6879 21.7077L28.0399 20.862L25.9926 7.20841C25.9243 6.75298 25.5396 6.35002 24.9959 6.35002C24.5264 6.35002 24.1459 5.96947 24.1459 5.50002C24.1459 5.03058 24.5264 4.65002 24.9959 4.65002ZM23.9959 13.5C24.4653 13.5 24.8459 13.8806 24.8459 14.35C24.8459 14.7834 24.5067 15.2 23.9959 15.2C23.9959 15.2 23.9959 15.9667 23.9959 17.5C23.9959 19.1587 22.5872 20.5 20.9959 20.5H5.99587C4.40455 20.5 2.99587 19.1587 2.99587 17.5C2.99587 15.9667 2.99587 15.2 2.99587 15.2C2.54233 15.2 2.14587 14.8195 2.14587 14.35C2.14587 13.9167 2.49435 13.5 2.99587 13.5H23.9959Z" fill="#1A1C1F"/>
</g>
<defs>
<clipPath id="clip0_2214_7293">
<rect width="32" height="32" fill="white"/>
</clipPath>
</defs>
</svg>
