<svg width="12" height="12" viewBox="0 0 12 12" fill="none" xmlns="http://www.w3.org/2000/svg">
<g clip-path="url(#clip0_2214_7311)">
<path fill-rule="evenodd" clip-rule="evenodd" d="M2.70053 8.35497C3.19758 8.35497 3.60053 8.75791 3.60053 9.25497C3.60053 9.75203 3.19758 10.155 2.70053 10.155C2.20347 10.155 1.80053 9.75203 1.80053 9.25497C1.80053 8.75791 2.20347 8.35497 2.70053 8.35497ZM6.90053 8.35497C7.39758 8.35497 7.80053 8.75791 7.80053 9.25497C7.80053 9.75203 7.39758 10.155 6.90053 10.155C6.40347 10.155 6.00053 9.75203 6.00053 9.25497C6.00053 8.75791 6.40347 8.35497 6.90053 8.35497ZM5.10053 8.74497C5.38219 8.74497 5.61053 8.97331 5.61053 9.25497C5.61053 9.51497 5.41464 9.76497 5.10053 9.76497C4.96278 9.76497 4.76278 9.76497 4.50053 9.76497C4.21886 9.76497 3.99053 9.53664 3.99053 9.25497C3.99053 8.99497 4.19439 8.74497 4.50053 8.74497H5.10053ZM8.42246 1.84497C9.24276 1.84497 9.94196 2.42622 10.0996 3.22125L10.7095 7.72129C10.7095 7.95364 10.6159 8.11692 10.4286 8.21113C10.2413 8.30533 9.8413 8.50533 9.22861 8.81113C8.97668 8.93709 8.67033 8.83498 8.54437 8.58305C8.42809 8.3505 8.49559 8.03369 8.77245 7.89881L9.64613 7.46157L9.10626 3.46263C9.06334 3.1448 8.77245 2.86882 8.49559 2.86882C8.12089 2.86882 7.89981 2.63664 7.89981 2.35497C7.89981 2.09497 8.10413 1.84497 8.42246 1.84497ZM7.80053 4.75497C8.08219 4.75497 8.31053 4.98331 8.31053 5.26497C8.31053 5.52497 8.13968 5.77497 7.80053 5.77497V6.85497C7.79118 7.48085 7.57262 7.7484 6.92796 7.75497H2.71526C2.26894 7.75046 1.80053 7.57927 1.80053 6.85497V5.77497C1.4866 5.77497 1.29053 5.54664 1.29053 5.26497C1.29053 5.00497 1.49469 4.75497 1.80053 4.75497C5.61275 4.75497 7.61275 4.75497 7.80053 4.75497Z" fill="#1A1C1F"/>
</g>
<defs>
<clipPath id="clip0_2214_7311">
<rect width="12" height="12" fill="white"/>
</clipPath>
</defs>
</svg>
