<svg width="12" height="12" viewBox="0 0 12 12" fill="none" xmlns="http://www.w3.org/2000/svg">
<g clip-path="url(#clip0_2214_6750)">
<path fill-rule="evenodd" clip-rule="evenodd" d="M6.23393 3.79683C6.86024 4.18992 7.48608 4.58474 8.11144 4.98128C8.34966 5.13156 8.42095 5.44651 8.27066 5.68473C8.1329 5.9031 7.83317 5.99709 7.56721 5.84396C7.19863 5.61305 6.83047 5.38065 6.46271 5.14677C6.36715 6.27255 6.31937 6.83545 6.31937 6.83545C6.35194 6.84985 6.44047 6.90954 6.46613 6.934C6.99031 7.43391 7.51264 7.9382 7.51264 7.9382C7.55532 7.97916 7.62945 8.10589 7.63963 8.13414C7.84902 8.71518 8.05751 9.29698 8.26509 9.87952C8.36011 10.1447 8.22219 10.4366 7.95703 10.5317C7.71227 10.6194 7.42104 10.504 7.30488 10.2236C7.10875 9.68024 6.91366 9.136 6.71962 8.59089L5.93111 7.83417L4.69339 10.2793C4.56616 10.5306 4.25931 10.6312 4.00802 10.504C3.77605 10.3865 3.63982 10.0519 3.78338 9.81861C4.28636 8.82201 4.7903 7.82637 5.29522 6.83169L5.44871 5.02977L4.81462 5.32569L4.66359 6.2313C4.62066 6.48773 4.33281 6.69302 4.07638 6.65009C3.81995 6.60715 3.64046 6.37984 3.65095 6.12663L3.85346 4.89293C3.87723 4.75097 3.97965 4.5754 4.14084 4.51497C4.67558 4.26373 5.21069 4.01407 5.74619 3.766C5.88097 3.70312 6.06503 3.70312 6.23393 3.79683ZM6.1263 1.43958C6.57365 1.43958 6.9363 1.80222 6.9363 2.24958C6.9363 2.69693 6.57365 3.05958 6.1263 3.05958C5.67894 3.05958 5.3163 2.69693 5.3163 2.24958C5.3163 1.80222 5.67894 1.43958 6.1263 1.43958Z" fill="#1A1C1F"/>
</g>
<defs>
<clipPath id="clip0_2214_6750">
<rect width="12" height="12" fill="white"/>
</clipPath>
</defs>
</svg>
