<svg width="12" height="12" viewBox="0 0 12 12" fill="none" xmlns="http://www.w3.org/2000/svg">
<g clip-path="url(#clip0_232_493)">
<path fill-rule="evenodd" clip-rule="evenodd" d="M3.73562 9.74761L5.21285 6.81358L5.34728 5.19718L4.86725 5.40835L4.75205 6.23398C4.71365 6.54118 4.44485 6.75241 4.15682 6.75241C3.83045 6.75241 3.56165 6.46438 3.56165 6.15718C3.56165 6.11877 3.56165 6.08038 3.56165 6.06121L3.75365 4.90921C3.77281 4.69798 3.90725 4.52521 4.08001 4.44841L5.25125 3.91081C5.44325 3.83401 5.76961 3.64194 6.00001 3.64194C6.21125 3.64194 6.46082 3.83401 6.59525 3.91081L8.16965 4.90921C8.32325 5.02434 8.43845 5.21641 8.43845 5.42758C8.43845 5.77318 8.15041 6.02275 7.84321 6.02275C7.70885 6.02275 7.59365 5.98441 7.49768 5.92678L6.53761 5.29321L6.43059 6.82943L7.50128 7.78914C7.61641 7.86594 7.70463 7.97875 7.75085 8.11558L8.38082 9.88198C8.38082 9.93955 8.40005 9.99718 8.40005 10.0548C8.40005 10.362 8.13125 10.65 7.80488 10.65C7.51685 10.65 7.28645 10.4771 7.20965 10.2084L6.63725 8.65318L5.93292 7.94081L4.75325 10.3428C4.63805 10.5348 4.46528 10.65 4.23488 10.65C3.88921 10.65 3.63965 10.362 3.63965 10.0548C3.63965 9.93955 3.65882 9.84358 3.73562 9.74761ZM5.21285 2.24994C5.21285 1.75213 5.63412 1.34998 6.11288 1.34998C6.62987 1.34998 7.01285 1.75213 7.01285 2.24994C7.01285 2.7287 6.62987 3.14998 6.11288 3.14998C5.63412 3.14998 5.21285 2.7287 5.21285 2.24994Z" fill="#1A1C1F"/>
</g>
<defs>
<clipPath id="clip0_232_493">
<rect width="12" height="12" fill="white"/>
</clipPath>
</defs>
</svg>
