<svg width="12" height="12" viewBox="0 0 12 12" fill="none" xmlns="http://www.w3.org/2000/svg">
<g clip-path="url(#clip0_2214_6764)">
<path fill-rule="evenodd" clip-rule="evenodd" d="M9.705 7.45123C10.2849 7.45123 10.755 7.92133 10.755 8.50123C10.755 9.08113 10.2849 9.55123 9.705 9.55123C9.1251 9.55123 8.655 9.08113 8.655 8.50123C8.655 7.92133 9.1251 7.45123 9.705 7.45123ZM4.61056 8.2748C4.7983 9.00222 4.1649 9.55123 3.585 9.55123C3.0051 9.55123 2.40328 9.05153 2.55943 8.2748C2.55943 8.2748 2.29133 8.2748 1.75512 8.2748C1.49512 8.2748 1.28056 8.08025 1.24909 7.82878L1.24512 7.5648C1.24512 6.43837 2.19506 5.45479 3.23948 5.45793L4.72392 5.45479L4.4568 4.57063L2.955 4.57123C2.66024 4.57123 2.445 4.3316 2.445 4.06123C2.445 3.79086 2.66024 3.55123 2.955 3.55123H4.51485C4.88887 3.55123 5.27496 3.84235 5.40446 4.18624L6.333 7.25443H6.9474L9.045 5.14063V3.79165C9.045 3.63921 8.96752 3.47356 8.82199 3.47356L7.72247 3.46879C7.4408 3.46879 7.21247 3.24046 7.21247 2.95879C7.21247 2.69879 7.43258 2.44879 7.72247 2.44879H8.82199C9.49328 2.44879 10.0176 3.0114 10.062 3.69739L10.065 5.35123C10.065 5.46338 10.0281 5.57174 9.96089 5.66003L7.52206 8.12403C7.44227 8.20444 7.30331 8.2748 7.16005 8.2748C7.01678 8.2748 4.61056 8.2748 4.61056 8.2748Z" fill="#1A1C1F"/>
</g>
<defs>
<clipPath id="clip0_2214_6764">
<rect width="12" height="12" fill="white"/>
</clipPath>
</defs>
</svg>
