<svg width="12" height="12" viewBox="0 0 12 12" fill="none" xmlns="http://www.w3.org/2000/svg">
<g clip-path="url(#clip0_232_499)">
<path fill-rule="evenodd" clip-rule="evenodd" d="M7.20175 10.8H4.80175C4.51604 10.8 4.27697 10.6003 4.21651 10.3328C3.85666 10.0774 3.54555 9.69153 3.30627 9.12022C3.72721 9.42324 4.02584 9.62887 4.20217 9.73711C4.46666 9.89946 4.8003 10.0186 5.19716 10.045L6.80637 10.045C7.15362 10.0219 7.50853 9.91532 7.80223 9.73711C7.99804 9.6183 8.34438 9.37749 8.84125 9.01468C8.59168 9.61657 8.23138 10.0844 7.77722 10.3703C7.68844 10.6567 7.49662 10.8 7.20175 10.8ZM5.9861 1.19995C8.1963 1.19995 9.27047 2.7014 9.29805 4.80343L9.29995 6.00807C9.29995 6.47593 9.27821 7.05526 9.21163 7.57549C8.99305 7.76532 8.72205 7.98097 8.39864 8.22245C8.07523 8.46393 7.74686 8.6958 7.41352 8.91807C7.22207 9.0476 6.94425 9.14995 6.65701 9.14995H5.34651C5.06204 9.14995 4.77906 9.04485 4.58999 8.91808C4.40092 8.79131 3.9535 8.48014 3.60486 8.22246C3.37243 8.05067 3.14404 7.87103 2.91968 7.68354C2.77319 6.89659 2.69995 6.33694 2.69995 6.00459C2.69995 5.9358 2.69995 5.53541 2.69995 4.80343C2.69995 2.7014 3.72451 1.19995 5.9861 1.19995ZM4.90545 6.70102C4.80772 6.50207 4.57557 6.401 4.35944 6.47304C4.14332 6.54509 4.01824 6.76523 4.05943 6.98303L4.39805 7.99888C4.49577 8.19783 4.72792 8.2989 4.94405 8.22686C5.16018 8.15482 5.28526 7.93467 5.24407 7.71688L4.90545 6.70102ZM7.64405 6.47304C7.42792 6.401 7.19577 6.50207 7.09805 6.70102L6.75943 7.71688C6.71824 7.93467 6.84332 8.15482 7.05944 8.22686C7.27557 8.2989 7.50772 8.19783 7.60545 7.99888L7.94407 6.98303C7.98526 6.76523 7.86018 6.54509 7.64405 6.47304ZM6.00178 2.39995C5.30944 2.39995 4.7587 2.50914 4.34953 2.72752C3.88577 2.97504 3.58206 3.53779 3.66309 4.09291C3.78092 4.66118 3.85571 4.99965 3.88744 5.10832C3.98312 5.43601 4.24518 5.68572 4.57216 5.76803C5.15365 5.87199 5.6302 5.92508 6.00182 5.92731C6.37344 5.92954 6.82301 5.88201 7.35053 5.78472C7.71552 5.72648 8.01432 5.46326 8.11814 5.10854C8.16467 4.94954 8.31515 4.27112 8.34182 4.09098C8.41856 3.57261 7.93764 2.85341 7.54188 2.67203C7.14612 2.49064 6.63275 2.39995 6.00178 2.39995Z" fill="#1A1C1F"/>
</g>
<defs>
<clipPath id="clip0_232_499">
<rect width="12" height="12" fill="white"/>
</clipPath>
</defs>
</svg>
