<svg width="12" height="12" viewBox="0 0 12 12" fill="none" xmlns="http://www.w3.org/2000/svg">
<g clip-path="url(#clip0_2214_6820)">
<path fill-rule="evenodd" clip-rule="evenodd" d="M1.80632 9.12031C2.22692 9.42331 2.52572 9.62911 2.70212 9.73711C2.96612 9.89971 3.30032 10.0191 3.69692 10.0455H4.49972V10.8003H3.30152C3.01592 10.8003 2.77712 10.6005 2.71652 10.3329C2.35652 10.0773 2.04572 9.69151 1.80632 9.12031ZM8.12672 5.70031C8.18012 5.70091 8.23352 5.70091 8.28572 5.70091L8.9747 5.70151C9.01188 5.70161 9.04687 5.70171 9.07937 5.70181L9.29732 5.70271C9.64352 5.70571 9.98552 5.97931 10.0641 6.28591C10.1169 6.49051 10.2285 6.68731 10.3995 7.47691L10.4943 7.79911H10.7997V8.99911L10.5717 9.00031C10.5483 9.20791 10.5315 9.34051 10.5201 9.39871C10.5153 9.42511 10.5081 9.45331 10.4997 9.48211V10.7991H9.29972V10.2549L9.24332 10.2759C8.76212 10.3473 8.28092 10.3833 7.79972 10.3833C7.31852 10.3833 6.83732 10.3479 6.35612 10.2759L6.29972 10.2555V10.7991H5.09972V9.48571C5.08412 9.42751 5.06132 9.26731 5.03012 8.99971H4.79972V7.79971H5.10452L5.19932 7.47691L5.51312 6.35131C5.61092 6.01711 5.90192 5.70031 6.37352 5.70031H8.12672ZM4.48652 1.19971C6.69692 1.19971 7.77092 2.70151 7.79852 4.80331V5.09971H6.62012C6.66872 4.92931 6.81512 4.26811 6.84152 4.09051C6.91832 3.57211 6.43772 2.85271 6.04172 2.67151C5.64572 2.49031 5.13272 2.39971 4.50152 2.39971C3.80912 2.39971 3.25832 2.50891 2.84912 2.72731C2.38532 2.97511 2.08172 3.53791 2.16272 4.09291C2.28032 4.66111 2.35532 4.99951 2.38712 5.10811C2.48252 5.43571 2.74472 5.68531 3.07172 5.76751C3.65312 5.87191 4.13012 5.92471 4.50152 5.92711C4.66892 5.92831 4.85732 5.91571 5.05592 5.89651C5.00972 5.98591 4.96832 6.07951 4.93832 6.18151L4.64912 7.21831C4.39112 7.28551 4.20032 7.52011 4.20032 7.79911V8.99911C4.20032 9.05131 4.20752 9.10111 4.22012 9.14911H3.84692C3.56252 9.14911 3.27932 9.04411 3.09032 8.91751C2.97219 8.83838 2.75305 8.68707 2.5202 8.52187L2.23978 8.3207L2.10512 8.22211C1.87292 8.05051 1.64432 7.87051 1.41992 7.68331C1.27352 6.89671 1.20032 6.33691 1.20032 6.00451V4.80331C1.20032 2.70091 2.22512 1.19971 4.48652 1.19971ZM6.08732 8.33251C5.92772 8.28991 5.76272 8.38531 5.72012 8.54491C5.67752 8.70451 5.77232 8.86951 5.93252 8.91211L6.51212 9.06751C6.67172 9.11011 6.83672 9.01531 6.87932 8.85511C6.92192 8.69551 6.82712 8.53051 6.66692 8.48791L6.08732 8.33251ZM9.51212 8.33251L8.93252 8.48791C8.77232 8.53051 8.67752 8.69491 8.72012 8.85511C8.76272 9.01531 8.92712 9.11011 9.08732 9.06751L9.66692 8.91211C9.82712 8.86951 9.92192 8.70511 9.87932 8.54491C9.83672 8.38471 9.67232 8.28991 9.51212 8.33251ZM2.85932 6.47311C2.64332 6.54511 2.51792 6.76531 2.55932 6.98311L2.89772 7.99891C2.99552 8.19811 3.22772 8.29891 3.44372 8.22691C3.65972 8.15491 3.78512 7.93471 3.74372 7.71691L3.40532 6.70111C3.30752 6.50191 3.07532 6.40111 2.85932 6.47311ZM9.23972 6.59971H6.35972L6.00572 7.79971H9.59972L9.23972 6.59971Z" fill="#1A1C1F"/>
</g>
<defs>
<clipPath id="clip0_2214_6820">
<rect width="12" height="12" fill="white"/>
</clipPath>
</defs>
</svg>
