<svg width="16" height="16" viewBox="0 0 16 16" fill="none" xmlns="http://www.w3.org/2000/svg">
<g clip-path="url(#clip0_2214_6816)">
<path fill-rule="evenodd" clip-rule="evenodd" d="M2.40834 12.1604C2.96914 12.5644 3.36754 12.8388 3.60274 12.9828C3.95474 13.1996 4.40034 13.3588 4.92914 13.394H5.99954V14.4004H4.40194C4.02114 14.4004 3.70274 14.134 3.62194 13.7772C3.14194 13.4364 2.72754 12.922 2.40834 12.1604ZM10.8355 7.60041C10.9067 7.60121 10.9779 7.60121 11.0475 7.60121L11.7852 7.60155C11.8331 7.60167 11.8791 7.60178 11.923 7.60189L12.1596 7.60258C12.1943 7.60269 12.2264 7.60281 12.2557 7.60292L12.3963 7.60361C12.8579 7.60761 13.3139 7.97241 13.4187 8.38121C13.4891 8.65401 13.6379 8.91641 13.8659 9.96921L13.9923 10.3988H14.3995V11.9988L14.0955 12.0004C14.0643 12.2772 14.0419 12.454 14.0267 12.5316C14.0203 12.5668 14.0107 12.6044 13.9995 12.6428V14.3988H12.3995V13.6732L12.3243 13.7012C11.6827 13.7964 11.0411 13.8444 10.3995 13.8444C9.75794 13.8444 9.11634 13.7972 8.47474 13.7012L8.39954 13.674V14.3988H6.79954V12.6476C6.77874 12.57 6.74834 12.3564 6.70674 11.9996H6.39954V10.3996H6.80594L6.93234 9.96921L7.35074 8.46841C7.48114 8.02281 7.86914 7.60041 8.49794 7.60041H10.8355ZM5.98194 1.59961C8.92914 1.59961 10.3611 3.60201 10.3979 6.40441V6.79961H8.82674C8.89154 6.57241 9.08674 5.69081 9.12194 5.45401C9.22434 4.76281 8.58354 3.80361 8.05554 3.56201C7.52754 3.32041 6.84354 3.19961 6.00194 3.19961C5.07874 3.19961 4.34434 3.34521 3.79874 3.63641C3.18034 3.96681 2.77554 4.71721 2.88354 5.45721C3.04034 6.21481 3.14034 6.66601 3.18274 6.81081C3.30994 7.24761 3.65954 7.58041 4.09554 7.69001C4.87074 7.82921 5.50674 7.89961 6.00194 7.90281C6.22514 7.90441 6.47634 7.88761 6.74114 7.86201C6.67954 7.98121 6.62434 8.10601 6.58434 8.24201L6.19874 9.62441C5.85474 9.71401 5.60034 10.0268 5.60034 10.3988V11.9988C5.60034 12.0684 5.60994 12.1348 5.62674 12.1988H5.12914C4.74994 12.1988 4.37234 12.0588 4.12034 11.89C3.86834 11.7212 3.27154 11.306 2.80674 10.9628C2.49714 10.734 2.19234 10.494 1.89314 10.2444C1.69794 9.19561 1.60034 8.44921 1.60034 8.00601V6.40441C1.60034 3.60121 2.96674 1.59961 5.98194 1.59961ZM8.11634 11.11C7.90354 11.0532 7.68354 11.1804 7.62674 11.3932C7.56994 11.606 7.69634 11.826 7.90994 11.8828L8.68274 12.09C8.89554 12.1468 9.11554 12.0204 9.17234 11.8068C9.22914 11.594 9.10274 11.374 8.88914 11.3172L8.11634 11.11ZM12.6827 11.11L11.9099 11.3172C11.6963 11.374 11.5699 11.5932 11.6267 11.8068C11.6835 12.0204 11.9027 12.1468 12.1163 12.09L12.8891 11.8828C13.1027 11.826 13.2291 11.6068 13.1723 11.3932C13.1155 11.1796 12.8963 11.0532 12.6827 11.11ZM3.81234 8.63081C3.52434 8.72681 3.35714 9.02041 3.41234 9.31081L3.86354 10.6652C3.99394 10.9308 4.30354 11.0652 4.59154 10.9692C4.87954 10.8732 5.04674 10.5796 4.99154 10.2892L4.54034 8.93481C4.40994 8.66921 4.10034 8.53481 3.81234 8.63081ZM12.3195 8.79961H8.47954L8.00754 10.3996H12.7995L12.3195 8.79961Z" fill="#1A1C1F"/>
</g>
<defs>
<clipPath id="clip0_2214_6816">
<rect width="16" height="16" fill="white"/>
</clipPath>
</defs>
</svg>
