<svg id="db-cargo-logo" xmlns="http://www.w3.org/2000/svg" viewBox="0 0 535 141">
  <style>
    #db-cargo-logo { color-scheme: light dark; }

    .logo { fill: light-dark(#ec0016, #fff) }
    .text { fill: light-dark(#000, #fff) }
  </style>
<g transform="translate(0, 0)">
    <path class="logo"  d="M194.14 5.87A19.974 19.974 0 0 0 180 0H20.1c-2.63-.01-5.25.5-7.68 1.5-2.44 1-4.65 2.47-6.52 4.34a20.027 20.027 0 0 0-4.36 6.51A19.883 19.883 0 0 0 0 20.04v100.18c.03 5.32 2.16 10.42 5.92 14.17a20.1 20.1 0 0 0 14.18 5.86H180c5.32-.03 10.41-2.16 14.16-5.95 3.75-3.78 5.85-8.9 5.84-14.23V20.04c0-5.31-2.11-10.41-5.86-14.17Zm-8.73 114.21c.03.73-.09 1.46-.35 2.15s-.65 1.31-1.15 1.85c-.5.53-1.11.96-1.77 1.26-.67.3-1.39.46-2.12.47H20.1c-.74 0-1.47-.15-2.15-.44a5.54 5.54 0 0 1-1.81-1.25c-.51-.53-.91-1.17-1.18-1.86-.26-.69-.39-1.43-.36-2.17V20.04c-.04-.75.08-1.5.34-2.2s.66-1.34 1.17-1.89c.51-.54 1.13-.98 1.82-1.27.69-.3 1.43-.45 2.17-.45H180c.74.02 1.47.18 2.14.48.68.3 1.28.74 1.79 1.28.5.54.89 1.18 1.15 1.88.25.7.36 1.44.33 2.17v100.04Z"></path>
    <path class="logo"  d="M61.17 116.03H27.53v-91.8h33.64c23.7 0 36.8 14.87 36.8 45.48.04 26.57-8.86 46.1-36.8 46.32Zm14.62-44.42c0-18.49-2-32.94-21.8-32.94h-4.46v62.47h7.82c11.66 0 18.44-9.34 18.44-29.53ZM156.01 68c4.59-1.39 8.62-4.22 11.5-8.06 2.88-3.85 4.46-8.51 4.5-13.32 0-1.9-.38-22.36-26.16-22.36h-38.24v91.77h32.4c8.58 0 35.32 0 35.32-25.81 0-6.45-2.64-18.59-19.32-22.22Zm-26.6-29.59h6.92c9.86 0 13.78 3.45 13.78 11.06 0 6.01-4.32 11.1-12 11.1h-8.7V38.41Zm9.02 62.73h-9.02V77.56h9.62c11.42 0 14.22 6.67 14.22 11.8 0 11.78-11.24 11.78-14.82 11.78Z"></path>
    </g>

<path class="text" d="M38.41 1.60Q19.47 1.60 9.74-8.56Q0-18.72 0-38.31L0-38.31L0-38.52Q0-58.42 10.11-69.02Q20.22-79.61 39.16-79.61L39.16-79.61Q49.01-79.61 58.21-76.50L58.21-76.50L58.21-61.20Q49.01-64.95 39.59-64.95L39.59-64.95Q32.63-64.95 28.57-62.33Q24.50-59.71 22.68-54.03Q20.86-48.36 20.86-38.63L20.86-38.63L20.86-38.31Q20.86-24.93 25.20-18.99Q29.53-13.05 39.70-13.05L39.70-13.05Q48.58-13.05 58.53-16.69L58.53-16.69L58.53-2.57Q54.36-0.54 49.17 0.54Q43.98 1.60 38.41 1.60L38.41 1.60Z"  transform="translate(250.0000667580332, 116.00028158657369)"></path>
<path class="text" d="M100.90 0L98.44-8.03Q95.02-3.00 90.74-0.64Q86.46 1.71 80.79 1.71L80.79 1.71Q72.87 1.71 68.48-2.78Q64.09-7.28 64.09-15.52L64.09-15.52Q64.09-23.22 68.43-26.96Q72.76-30.71 79.23-31.78Q85.71-32.85 97.69-33.38L97.69-33.38L97.69-36.38Q97.69-41.20 95.60-43.12Q93.52-45.05 88.49-45.05L88.49-45.05Q84.53-45.05 80.68-44.35Q76.83-43.66 68.69-41.52L68.69-41.52L68.69-55.21Q75.01-57.14 79.98-58.05Q84.96-58.96 90.20-58.96L90.20-58.96Q103.79-58.96 109.73-53.66Q115.67-48.36 115.67-36.49L115.67-36.49L115.67 0L100.90 0ZM81.64-17.23Q81.64-13.48 83.14-11.88Q84.64-10.27 87.95-10.27L87.95-10.27Q93.30-10.27 97.69-14.55L97.69-14.55L97.69-25.04Q91.38-24.93 88.06-24.34Q84.74-23.75 83.19-22.15Q81.64-20.54 81.64-17.23L81.64-17.23Z"  transform="translate(250.0000667580332, 116.00028158657369)"></path>
<path class="text" d="M126.58-55.21Q136.96-55.53 140.38-58.74L140.38-58.74L144.56-58.74L144.56-47.72Q149.16-53.18 153.60-55.69Q158.04-58.21 162.96-58.42L162.96-58.42L162.96-42.27Q153.22-41.62 144.56-39.16L144.56-39.16L144.56 0L126.58 0L126.58-55.21Z"  transform="translate(250.0000667580332, 116.00028158657369)"></path>
<path class="text" d="M192.39 23.11Q164.14 23.11 164.14 9.52L164.14 9.52Q164.14 5.88 166.22 2.94Q168.31 0 173.23-2.25L173.23-2.25Q170.34-3.85 169.06-5.83Q167.78-7.81 167.78-10.81L167.78-10.81Q167.78-17.98 175.59-23.97L175.59-23.97Q171.84-26.86 170.18-30.39Q168.53-33.92 168.53-38.84L168.53-38.84Q168.53-48.47 174.94-53.71Q181.37-58.96 193.03-58.96L193.03-58.96Q199.45-58.96 205.33-57.03L205.33-57.03L222.77-57.03L222.77-47.40L220.96-47.40Q218.17-47.40 215.61-46.76L215.61-46.76Q216.35-44.83 216.68-43.28Q217.00-41.73 217.00-39.59L217.00-39.59Q217.00-29.96 210.74-24.72Q204.48-19.47 192.92-19.47L192.92-19.47Q187.46-19.47 182.65-20.76L182.65-20.76Q181.26-19.05 181.26-17.01L181.26-17.01Q181.26-12.41 187.25-12.41L187.25-12.41L201.27-12.41Q212.29-12.41 217.48-8.56Q222.67-4.71 222.67 3.42L222.67 3.42Q222.67 13.27 215.12 18.19Q207.58 23.11 192.39 23.11L192.39 23.11ZM192.92-29.43Q196.88-29.43 198.49-31.62Q200.09-33.81 200.09-39.05L200.09-39.05Q200.09-44.19 198.43-46.28Q196.77-48.36 192.81-48.36L192.81-48.36Q188.86-48.36 187.14-46.22Q185.43-44.08 185.43-39.05L185.43-39.05Q185.43-33.70 187.09-31.56Q188.75-29.43 192.92-29.43L192.92-29.43ZM180.40 6.53Q180.40 9.42 183.29 10.65Q186.18 11.88 192.81 11.88L192.81 11.88Q199.88 11.88 203.19 10.59Q206.51 9.31 206.51 5.46L206.51 5.46Q206.51 2.67 204.58 1.55Q202.66 0.43 197.84 0.43L197.84 0.43L190.25 0.43Q186.50 0.43 183.08 0L183.08 0Q180.40 3.42 180.40 6.53L180.40 6.53Z"  transform="translate(250.0000667580332, 116.00028158657369)"></path>
<path class="text" d="M255.84 1.71Q241.82 1.71 234.33-6.05Q226.84-13.80 226.84-28.57L226.84-28.57L226.84-28.89Q226.84-43.34 234.38-51.15Q241.93-58.96 255.84-58.96L255.84-58.96Q269.85-58.96 277.34-51.09Q284.83-43.23 284.83-28.68L284.83-28.68L284.83-28.25Q284.83-13.80 277.29-6.05Q269.75 1.71 255.84 1.71L255.84 1.71ZM255.94-10.70Q261.94-10.70 264.02-15.03Q266.11-19.37 266.11-28.46L266.11-28.46L266.11-28.68Q266.11-37.77 263.97-42.10Q261.83-46.44 255.94-46.44L255.94-46.44Q249.74-46.44 247.65-42.21Q245.56-37.98 245.56-28.68L245.56-28.68L245.56-28.46Q245.56-18.94 247.65-14.82Q249.74-10.70 255.94-10.70L255.94-10.70Z"  transform="translate(250.0000667580332, 116.00028158657369)"></path>

</svg>
