<svg id="icon" height="24" viewBox="0 0 24 24" width="24" xmlns="http://www.w3.org/2000/svg"><path d="M11.760 5.038 L 3.540 5.060 3.311 5.153 C 2.655 5.417,2.231 5.890,2.060 6.548 C 1.969 6.897,1.970 17.106,2.061 17.462 C 2.255 18.217,2.855 18.802,3.592 18.956 C 3.743 18.987,6.175 19.000,12.014 19.000 C 19.155 19.000,20.253 18.992,20.452 18.940 C 21.187 18.749,21.747 18.188,21.937 17.454 C 21.993 17.236,22.000 16.622,22.000 11.993 C 22.000 6.315,22.010 6.573,21.777 6.092 C 21.502 5.525,20.832 5.069,20.215 5.030 C 20.086 5.022,16.281 5.025,11.760 5.038 M20.238 6.499 C 20.301 6.532,20.391 6.606,20.436 6.665 L 20.520 6.771 20.520 12.004 L 20.520 17.237 20.396 17.378 C 20.324 17.461,20.210 17.536,20.121 17.560 C 20.019 17.587,17.314 17.597,11.914 17.590 C 3.079 17.579,3.720 17.598,3.559 17.338 C 3.481 17.213,3.480 17.119,3.480 12.001 C 3.480 6.276,3.463 6.663,3.715 6.507 C 3.811 6.448,4.507 6.442,11.972 6.441 C 19.092 6.440,20.138 6.447,20.238 6.499 M4.750 7.423 C 4.734 7.440,4.720 9.511,4.720 12.027 L 4.720 16.600 6.456 16.600 C 8.343 16.600,8.820 16.570,9.350 16.416 C 11.042 15.926,11.878 14.295,11.788 11.660 C 11.718 9.629,11.101 8.387,9.858 7.778 C 9.181 7.445,9.066 7.432,6.780 7.411 C 5.680 7.401,4.766 7.407,4.750 7.423 M12.760 12.022 L 12.760 16.607 14.770 16.590 C 16.901 16.571,17.148 16.551,17.782 16.357 C 18.477 16.144,19.009 15.725,19.257 15.195 C 19.600 14.464,19.598 13.549,19.251 12.910 C 19.002 12.450,18.506 12.043,17.998 11.879 L 17.724 11.791 17.965 11.671 C 18.450 11.429,18.903 10.902,19.087 10.368 C 19.218 9.986,19.218 9.334,19.087 8.952 C 18.897 8.399,18.543 7.997,18.020 7.739 C 17.454 7.460,17.503 7.465,15.010 7.450 L 12.760 7.436 12.760 12.022 M16.328 8.919 C 16.809 9.068,17.031 9.431,16.991 10.001 C 16.958 10.463,16.686 10.837,16.279 10.980 C 16.159 11.023,15.942 11.040,15.535 11.040 L 14.960 11.040 14.960 9.940 L 14.960 8.840 15.516 8.840 C 15.957 8.840,16.125 8.856,16.328 8.919 M8.048 8.964 C 8.705 9.101,9.145 9.518,9.374 10.220 C 9.624 10.988,9.627 12.997,9.378 13.742 C 9.262 14.091,9.077 14.429,8.901 14.612 C 8.539 14.990,8.163 15.120,7.432 15.120 L 6.960 15.120 6.960 12.020 L 6.960 8.920 7.398 8.920 C 7.639 8.920,7.931 8.940,8.048 8.964 M16.642 12.865 C 16.896 12.981,17.098 13.170,17.207 13.392 C 17.281 13.543,17.299 13.646,17.299 13.920 C 17.299 14.323,17.204 14.562,16.961 14.770 C 16.680 15.010,16.504 15.052,15.690 15.071 L 14.960 15.088 14.960 13.920 L 14.960 12.753 15.710 12.767 C 16.366 12.780,16.483 12.792,16.642 12.865 " fill="var(--db-icon-color, currentColor)" stroke="none" fill-rule="evenodd"></path></svg>