<svg id="icon" height="48" viewBox="0 0 48 48" width="48" xmlns="http://www.w3.org/2000/svg"><path d="M5.120 9.191 C 4.359 9.437,3.818 9.765,3.273 10.311 C 2.693 10.891,2.244 11.707,2.088 12.464 C 2.026 12.760,2.000 16.349,2.001 24.384 C 2.002 37.120,1.973 36.388,2.529 37.447 C 3.055 38.447,4.004 39.235,5.131 39.606 L 5.720 39.800 23.960 39.800 C 41.429 39.800,42.220 39.794,42.676 39.653 C 43.514 39.394,44.089 39.050,44.681 38.449 C 45.337 37.784,45.623 37.287,45.842 36.433 C 45.996 35.831,46.000 35.510,46.000 24.360 C 46.000 13.196,45.996 12.890,45.841 12.285 C 45.754 11.943,45.567 11.460,45.426 11.212 C 45.089 10.616,44.315 9.863,43.712 9.542 C 42.694 9.002,44.188 9.040,23.923 9.044 C 6.540 9.048,5.537 9.056,5.120 9.191 M42.160 12.300 C 42.323 12.382,42.512 12.573,42.613 12.760 L 42.788 13.080 42.810 24.401 C 42.831 35.494,42.828 35.728,42.676 35.987 C 42.590 36.132,42.394 36.330,42.240 36.426 L 41.960 36.600 24.000 36.600 C 7.106 36.600,6.025 36.592,5.786 36.461 C 5.647 36.385,5.449 36.205,5.346 36.061 L 5.160 35.800 5.160 24.400 C 5.160 13.577,5.167 12.987,5.304 12.736 C 5.383 12.592,5.563 12.403,5.704 12.317 C 5.956 12.163,6.248 12.161,23.920 12.160 C 40.859 12.160,41.896 12.168,42.160 12.300 M8.000 24.396 L 8.000 34.480 12.020 34.480 C 14.460 34.480,16.323 34.445,16.760 34.391 C 19.952 34.000,22.061 32.158,22.988 28.951 C 23.450 27.356,23.659 25.035,23.520 23.049 C 23.183 18.218,21.347 15.472,17.837 14.547 C 17.182 14.375,17.011 14.368,12.580 14.340 L 8.000 14.312 8.000 24.396 M25.680 24.401 L 25.680 34.492 30.220 34.460 C 35.134 34.425,35.363 34.407,36.830 33.947 C 38.749 33.346,39.903 32.192,40.375 30.400 C 40.587 29.597,40.571 28.042,40.344 27.320 C 39.804 25.606,38.439 24.381,36.600 23.959 L 36.360 23.904 36.751 23.749 C 37.604 23.411,38.677 22.478,39.154 21.659 C 39.742 20.652,39.967 19.283,39.729 18.160 C 39.579 17.451,39.167 16.576,38.758 16.099 C 38.181 15.425,37.097 14.801,35.997 14.508 C 35.542 14.387,34.895 14.367,30.580 14.341 L 25.680 14.311 25.680 24.401 M33.852 17.740 C 34.682 18.149,34.960 18.657,34.960 19.765 C 34.960 20.544,34.795 21.019,34.355 21.509 C 33.770 22.159,33.410 22.272,31.820 22.305 L 30.480 22.333 30.480 19.878 L 30.480 17.422 31.903 17.452 C 33.319 17.481,33.328 17.483,33.852 17.740 M15.382 17.638 C 17.258 18.035,18.283 19.498,18.557 22.170 C 18.664 23.208,18.664 25.688,18.558 26.562 C 18.327 28.454,17.658 29.891,16.703 30.543 C 16.010 31.016,15.521 31.137,14.140 31.181 L 12.880 31.221 12.880 24.371 L 12.880 17.520 13.860 17.521 C 14.400 17.522,15.083 17.574,15.382 17.638 M34.339 26.383 C 35.340 26.877,35.725 27.576,35.664 28.789 C 35.622 29.608,35.464 29.970,34.935 30.458 C 34.351 30.996,33.788 31.134,31.980 31.180 L 30.480 31.219 30.480 28.643 L 30.480 26.066 32.142 26.093 L 33.804 26.120 34.339 26.383 " fill="var(--db-icon-color, currentColor)" stroke="none" fill-rule="evenodd"></path></svg>