<svg id="icon" height="20" viewBox="0 0 20 20" width="20" xmlns="http://www.w3.org/2000/svg"><path d="M3.217 4.047 C 2.646 4.188,2.202 4.628,2.048 5.204 C 1.976 5.478,1.977 13.697,2.050 13.977 C 2.197 14.542,2.630 14.982,3.192 15.138 C 3.406 15.197,3.688 15.200,9.973 15.200 C 14.631 15.200,16.581 15.189,16.707 15.163 C 17.296 15.040,17.789 14.576,17.939 14.003 C 17.991 13.801,17.996 13.444,17.998 9.610 C 17.999 6.693,17.989 5.383,17.963 5.260 C 17.839 4.663,17.308 4.145,16.704 4.033 C 16.420 3.981,3.431 3.994,3.217 4.047 M16.601 5.194 C 16.850 5.326,16.833 5.000,16.833 9.600 C 16.833 13.670,16.832 13.718,16.766 13.827 C 16.631 14.048,17.121 14.033,9.992 14.033 C 3.783 14.033,3.511 14.031,3.402 13.972 C 3.340 13.939,3.261 13.860,3.228 13.798 C 3.170 13.690,3.167 13.492,3.167 9.584 C 3.167 5.747,3.171 5.476,3.225 5.367 C 3.258 5.300,3.333 5.225,3.400 5.192 C 3.510 5.137,3.894 5.133,10.001 5.133 C 16.225 5.133,16.489 5.136,16.601 5.194 M4.200 9.598 L 4.200 13.267 5.675 13.266 C 7.310 13.266,7.588 13.243,8.062 13.070 C 8.427 12.937,8.675 12.781,8.925 12.528 C 9.168 12.282,9.259 12.153,9.413 11.843 C 9.697 11.270,9.799 10.752,9.823 9.767 C 9.850 8.650,9.744 8.046,9.395 7.335 C 9.247 7.034,9.183 6.945,8.920 6.681 C 8.658 6.416,8.574 6.354,8.300 6.224 C 7.727 5.951,7.767 5.955,5.875 5.942 L 4.200 5.929 4.200 9.598 M10.600 9.600 L 10.600 13.272 12.258 13.257 C 14.040 13.241,14.175 13.230,14.694 13.052 C 15.319 12.839,15.694 12.487,15.889 11.931 C 15.965 11.716,15.977 11.626,15.980 11.250 C 15.983 10.881,15.972 10.785,15.908 10.600 C 15.759 10.169,15.438 9.807,15.022 9.598 C 14.877 9.526,14.732 9.467,14.699 9.467 C 14.523 9.467,14.544 9.421,14.771 9.312 C 15.205 9.104,15.564 8.669,15.714 8.167 C 15.779 7.951,15.787 7.513,15.731 7.280 C 15.584 6.667,15.109 6.218,14.405 6.026 C 14.165 5.960,14.047 5.955,12.375 5.941 L 10.600 5.927 10.600 9.600 M13.507 7.135 C 13.682 7.194,13.865 7.356,13.937 7.514 C 13.980 7.610,13.999 7.729,13.999 7.917 C 14.000 8.339,13.840 8.610,13.500 8.764 C 13.371 8.822,13.281 8.832,12.858 8.833 L 12.367 8.833 12.367 7.946 L 12.367 7.059 12.875 7.076 C 13.155 7.085,13.439 7.112,13.507 7.135 M6.892 7.150 C 7.466 7.286,7.802 7.641,7.968 8.288 C 8.053 8.621,8.112 9.459,8.085 9.950 C 8.014 11.250,7.590 11.935,6.775 12.068 C 6.670 12.085,6.445 12.100,6.275 12.100 L 5.967 12.100 5.967 9.600 L 5.967 7.100 6.325 7.100 C 6.523 7.101,6.777 7.123,6.892 7.150 M13.720 10.294 C 14.079 10.455,14.244 10.725,14.241 11.142 C 14.239 11.454,14.159 11.644,13.960 11.815 C 13.738 12.005,13.588 12.040,12.942 12.058 L 12.367 12.074 12.367 11.134 L 12.367 10.195 12.958 10.206 C 13.490 10.216,13.567 10.225,13.720 10.294 " fill="var(--db-icon-color, currentColor)" stroke="none" fill-rule="evenodd"></path></svg>