<svg id="icon" height="64" viewBox="0 0 64 64" width="64" xmlns="http://www.w3.org/2000/svg"><path d="M6.827 11.107 C 6.504 11.160,5.839 11.394,5.348 11.629 C 3.788 12.374,2.636 13.774,2.184 15.472 C 2.052 15.968,2.029 18.394,2.028 31.931 C 2.027 46.032,2.045 47.882,2.195 48.457 C 2.751 50.603,4.409 52.250,6.569 52.802 C 7.379 53.010,7.833 53.013,31.891 53.013 C 49.029 53.013,56.578 52.979,57.020 52.898 C 59.284 52.484,61.242 50.632,61.813 48.364 C 61.957 47.793,61.973 45.794,61.948 31.671 L 61.920 15.627 61.626 14.893 C 61.042 13.433,60.003 12.302,58.625 11.626 C 57.253 10.952,58.868 10.989,31.947 11.001 C 18.052 11.007,7.159 11.053,6.827 11.107 M56.357 15.354 C 56.802 15.457,57.218 15.789,57.441 16.218 C 57.556 16.438,57.589 19.406,57.618 32.023 L 57.653 47.557 57.433 47.852 C 57.312 48.014,57.081 48.246,56.919 48.367 L 56.624 48.587 32.179 48.616 C 4.703 48.648,7.070 48.719,6.559 47.848 L 6.293 47.395 6.294 31.937 L 6.294 16.480 6.521 16.109 C 6.792 15.663,6.988 15.502,7.413 15.371 C 7.833 15.242,55.803 15.225,56.357 15.354 M10.240 32.000 L 10.240 45.760 15.600 45.759 C 21.107 45.758,22.244 45.697,23.731 45.324 C 24.893 45.032,26.569 44.195,27.426 43.478 C 29.524 41.722,30.851 38.720,31.260 34.802 C 31.433 33.147,31.337 29.065,31.094 27.733 C 30.214 22.908,28.008 19.994,24.316 18.780 C 22.825 18.289,22.074 18.241,15.973 18.240 L 10.240 18.240 10.240 32.000 M34.240 32.002 L 34.240 45.777 40.347 45.730 C 46.582 45.683,47.148 45.649,48.809 45.224 C 51.833 44.451,53.628 42.824,54.304 40.245 C 54.595 39.133,54.625 37.236,54.367 36.279 C 53.719 33.876,51.910 32.074,49.572 31.504 L 48.850 31.329 49.414 31.099 C 53.667 29.371,54.995 23.513,51.837 20.415 C 50.841 19.438,49.933 18.945,48.373 18.532 C 47.557 18.316,47.235 18.304,40.880 18.267 L 34.240 18.228 34.240 32.002 M45.250 22.815 C 45.961 23.092,46.614 23.759,46.808 24.406 C 46.877 24.636,46.933 25.254,46.933 25.778 C 46.933 26.589,46.892 26.814,46.658 27.283 C 46.315 27.972,45.489 28.727,44.834 28.950 C 44.458 29.078,43.907 29.120,42.594 29.120 L 40.853 29.120 40.853 25.801 L 40.853 22.483 42.747 22.530 C 44.379 22.571,44.724 22.611,45.250 22.815 M20.179 22.768 C 22.364 23.231,23.763 24.751,24.320 27.269 C 24.435 27.789,24.588 29.117,24.659 30.221 C 24.995 35.433,24.074 38.968,22.011 40.389 C 21.091 41.022,20.438 41.184,18.533 41.251 L 16.853 41.310 16.853 31.962 L 16.853 22.613 18.160 22.615 C 18.879 22.616,19.787 22.685,20.179 22.768 M45.159 34.399 C 46.385 34.659,47.236 35.302,47.698 36.320 C 47.892 36.747,47.939 37.035,47.933 37.760 C 47.922 39.261,47.331 40.230,46.085 40.789 C 45.283 41.149,44.338 41.275,42.427 41.278 L 40.853 41.280 40.853 37.760 L 40.853 34.240 42.640 34.242 C 43.789 34.243,44.688 34.299,45.159 34.399 " fill="var(--db-icon-color, currentColor)" stroke="none" fill-rule="evenodd"></path></svg>