<svg id="icon" height="32" viewBox="0 0 32 32" width="32" xmlns="http://www.w3.org/2000/svg"><path d="M4.006 6.111 C 3.140 6.344,2.401 7.072,2.118 7.971 L 2.000 8.347 2.000 15.787 L 2.000 23.227 2.118 23.602 C 2.418 24.554,3.208 25.292,4.173 25.520 C 4.462 25.588,6.055 25.599,16.002 25.599 C 26.107 25.600,27.536 25.590,27.815 25.519 C 28.831 25.260,29.585 24.529,29.902 23.493 C 29.995 23.189,30.000 22.805,30.000 15.760 C 30.000 8.997,29.992 8.323,29.911 8.073 C 29.587 7.071,28.910 6.394,27.950 6.112 C 27.689 6.035,26.523 6.027,15.977 6.030 C 5.943 6.033,4.253 6.045,4.006 6.111 M27.560 8.106 C 27.656 8.165,27.779 8.286,27.834 8.376 C 27.929 8.533,27.935 8.845,27.973 15.726 L 28.013 22.912 27.897 23.140 C 27.812 23.305,27.719 23.396,27.557 23.470 C 27.339 23.568,27.025 23.571,15.973 23.572 C 5.262 23.573,4.603 23.568,4.430 23.480 C 4.330 23.429,4.198 23.319,4.137 23.236 C 4.027 23.086,4.027 23.074,4.013 15.823 C 4.000 8.650,4.001 8.558,4.106 8.386 C 4.165 8.291,4.291 8.165,4.386 8.106 C 4.558 8.001,4.679 8.000,15.973 8.000 C 27.268 8.000,27.388 8.001,27.560 8.106 M5.826 15.797 L 5.840 22.213 8.053 22.229 C 11.275 22.251,12.030 22.168,13.040 21.679 C 13.870 21.277,14.438 20.713,14.904 19.828 C 15.975 17.797,16.008 13.931,14.973 11.867 C 14.731 11.384,14.447 10.996,14.071 10.634 C 13.497 10.080,12.955 9.775,12.129 9.541 C 11.719 9.424,11.623 9.420,8.760 9.401 L 5.813 9.381 5.826 15.797 M17.067 15.813 L 17.067 22.240 19.267 22.239 C 20.477 22.238,21.828 22.215,22.269 22.188 C 23.895 22.088,24.942 21.726,25.645 21.021 C 26.228 20.437,26.510 19.663,26.513 18.640 C 26.515 18.152,26.492 17.980,26.377 17.618 C 26.055 16.605,25.209 15.816,24.166 15.556 L 23.878 15.484 24.104 15.394 C 25.167 14.968,25.971 13.860,26.063 12.693 C 26.173 11.284,25.371 10.087,24.010 9.627 C 23.371 9.410,22.970 9.387,19.943 9.387 L 17.067 9.387 17.067 15.813 M22.081 11.466 C 22.664 11.666,22.931 12.041,22.973 12.716 C 23.011 13.319,22.903 13.637,22.538 14.002 C 22.147 14.394,21.933 14.453,20.924 14.453 L 20.107 14.453 20.107 12.901 L 20.107 11.348 21.000 11.374 C 21.491 11.389,21.978 11.430,22.081 11.466 M10.462 11.491 C 11.544 11.720,12.161 12.408,12.442 13.695 C 12.543 14.155,12.556 14.387,12.557 15.760 C 12.559 17.179,12.549 17.348,12.439 17.813 C 12.279 18.491,11.968 19.131,11.636 19.462 C 11.143 19.956,10.670 20.107,9.615 20.107 L 8.907 20.107 8.907 15.760 L 8.907 11.413 9.507 11.414 C 9.837 11.415,10.267 11.449,10.462 11.491 M22.453 17.002 C 22.860 17.163,23.114 17.389,23.290 17.748 C 23.418 18.009,23.439 18.116,23.437 18.485 C 23.432 19.221,23.114 19.697,22.453 19.958 C 22.197 20.060,22.031 20.077,21.133 20.095 L 20.107 20.116 20.107 18.480 L 20.107 16.844 21.133 16.865 C 22.031 16.883,22.197 16.900,22.453 17.002 " fill="var(--db-icon-color, currentColor)" stroke="none" fill-rule="evenodd"></path></svg>