<svg id="icon" height="16" viewBox="0 0 16 16" width="16" xmlns="http://www.w3.org/2000/svg"><path d="M7.734 2.043 C 7.654 2.064,7.534 2.117,7.468 2.160 C 7.401 2.203,6.506 3.081,5.477 4.112 C 3.351 6.245,3.481 6.087,3.480 6.534 C 3.480 6.767,3.487 6.802,3.567 6.965 C 3.766 7.369,4.210 7.602,4.625 7.520 C 4.941 7.458,4.989 7.419,6.019 6.392 L 6.986 5.429 6.993 9.308 L 7.000 13.187 7.061 13.337 C 7.227 13.749,7.571 13.987,8.000 13.987 C 8.429 13.987,8.773 13.749,8.939 13.337 L 9.000 13.187 9.007 9.308 L 9.015 5.430 9.994 6.404 C 11.035 7.439,11.057 7.457,11.376 7.520 C 11.790 7.601,12.234 7.369,12.433 6.965 C 12.513 6.802,12.520 6.767,12.520 6.534 C 12.520 6.084,12.639 6.229,10.512 4.099 C 9.490 3.075,8.599 2.203,8.533 2.160 C 8.396 2.072,8.146 1.999,7.988 2.002 C 7.928 2.003,7.814 2.021,7.734 2.043 " fill="var(--db-icon-color, currentColor)" stroke="none" fill-rule="evenodd"></path></svg>