<svg id="icon" height="20" viewBox="0 0 20 20" width="20" xmlns="http://www.w3.org/2000/svg"><path d="M9.578 4.826 C 9.026 5.023,8.663 5.634,8.765 6.192 C 8.952 7.205,10.158 7.596,10.877 6.877 C 11.485 6.269,11.312 5.255,10.536 4.875 C 10.293 4.756,9.840 4.733,9.578 4.826 M9.578 8.826 C 9.026 9.023,8.663 9.634,8.765 10.192 C 8.952 11.205,10.158 11.596,10.877 10.877 C 11.485 10.269,11.312 9.255,10.536 8.875 C 10.293 8.756,9.840 8.733,9.578 8.826 M9.578 12.826 C 9.026 13.023,8.674 13.615,8.768 14.190 C 8.932 15.196,10.158 15.596,10.877 14.877 C 11.485 14.269,11.312 13.255,10.536 12.875 C 10.293 12.756,9.840 12.733,9.578 12.826 " fill="var(--db-icon-color, currentColor)" stroke="none" fill-rule="evenodd"></path></svg>