<svg id="icon" height="24" viewBox="0 0 24 24" width="24" xmlns="http://www.w3.org/2000/svg"><path d="M11.280 2.024 C 10.135 2.127,9.102 2.376,8.132 2.782 C 5.210 4.007,3.039 6.554,2.285 9.645 C 2.071 10.521,2.022 10.962,2.022 12.000 C 2.022 13.038,2.071 13.479,2.285 14.355 C 2.464 15.090,2.689 15.704,3.040 16.420 C 4.021 18.417,5.583 19.978,7.580 20.960 C 8.556 21.439,9.512 21.739,10.600 21.907 C 11.245 22.007,12.755 22.007,13.400 21.907 C 15.616 21.565,17.512 20.612,19.062 19.062 C 20.389 17.735,21.273 16.166,21.715 14.355 C 21.928 13.483,21.978 13.039,21.978 12.000 C 21.978 10.961,21.928 10.517,21.715 9.645 C 21.276 7.844,20.391 6.270,19.082 4.957 C 17.506 3.378,15.640 2.440,13.400 2.101 C 12.994 2.040,11.648 1.991,11.280 2.024 M13.220 4.099 C 16.363 4.585,18.954 6.936,19.738 10.011 C 19.924 10.744,19.978 11.187,19.978 12.000 C 19.978 12.813,19.924 13.256,19.738 13.989 C 18.842 17.504,15.630 19.999,12.000 19.999 C 8.029 19.999,4.622 17.024,4.075 13.080 C 4.007 12.591,4.007 11.409,4.075 10.920 C 4.424 8.399,5.984 6.162,8.241 4.948 C 9.024 4.526,10.107 4.177,10.920 4.084 C 11.129 4.060,11.354 4.032,11.420 4.023 C 11.659 3.989,12.830 4.039,13.220 4.099 M8.044 7.625 C 7.557 7.868,7.370 8.464,7.623 8.970 C 7.659 9.041,8.338 9.752,9.133 10.550 L 10.579 11.999 9.134 13.450 C 8.339 14.247,7.660 14.957,7.625 15.026 C 7.591 15.095,7.543 15.237,7.520 15.341 C 7.397 15.890,7.895 16.490,8.477 16.494 C 8.917 16.498,8.895 16.515,10.511 14.906 L 12.001 13.421 13.451 14.867 C 14.248 15.662,14.957 16.341,15.026 16.375 C 15.095 16.410,15.237 16.457,15.341 16.480 C 15.715 16.564,16.171 16.340,16.366 15.977 C 16.520 15.689,16.539 15.507,16.444 15.201 C 16.363 14.944,16.361 14.941,14.892 13.472 L 13.421 12.001 14.869 10.550 C 16.467 8.948,16.496 8.911,16.491 8.460 C 16.490 8.328,16.458 8.143,16.420 8.049 C 16.341 7.853,16.093 7.624,15.889 7.556 C 15.700 7.494,15.214 7.530,15.040 7.618 C 14.963 7.657,14.247 8.339,13.449 9.134 L 11.999 10.579 10.549 9.131 C 9.467 8.050,9.054 7.663,8.920 7.603 C 8.654 7.483,8.312 7.492,8.044 7.625 " fill="var(--db-icon-color, currentColor)" stroke="none" fill-rule="evenodd"></path></svg>