<svg id="icon" height="20" viewBox="0 0 20 20" width="20" xmlns="http://www.w3.org/2000/svg"><path d="M3.783 4.030 C 3.347 4.142,3.000 4.562,3.000 4.979 C 3.000 5.261,3.089 5.462,3.311 5.683 C 3.605 5.974,3.705 6.000,4.519 6.000 C 5.280 6.000,5.432 5.963,5.680 5.715 C 6.189 5.206,6.060 4.415,5.416 4.098 C 5.258 4.020,5.218 4.016,4.567 4.011 C 4.191 4.007,3.838 4.016,3.783 4.030 M8.783 4.031 C 8.462 4.109,8.180 4.355,8.065 4.659 C 7.888 5.129,8.118 5.672,8.594 5.906 L 8.750 5.983 12.456 5.992 C 16.137 6.001,16.162 6.001,16.346 5.932 C 16.570 5.848,16.789 5.645,16.901 5.416 C 16.966 5.285,16.983 5.197,16.983 5.000 C 16.983 4.671,16.868 4.422,16.628 4.232 C 16.318 3.987,16.539 4.000,12.502 4.003 C 10.512 4.005,8.838 4.018,8.783 4.031 M3.783 9.030 C 3.025 9.225,2.748 10.142,3.285 10.680 C 3.564 10.959,3.650 10.982,4.451 10.994 C 5.288 11.007,5.422 10.975,5.698 10.698 C 6.090 10.307,6.097 9.709,5.714 9.315 C 5.448 9.042,5.355 9.018,4.567 9.011 C 4.191 9.007,3.838 9.016,3.783 9.030 M8.733 9.045 C 8.316 9.158,8.000 9.570,8.000 10.003 C 8.000 10.364,8.255 10.755,8.593 10.911 L 8.750 10.983 12.517 10.983 L 16.283 10.983 16.462 10.884 C 17.094 10.534,17.181 9.669,16.628 9.232 C 16.318 8.987,16.538 9.000,12.502 9.002 C 9.772 9.004,8.846 9.014,8.733 9.045 M3.783 14.030 C 3.347 14.142,3.000 14.562,3.000 14.979 C 3.000 15.261,3.089 15.462,3.311 15.683 C 3.605 15.974,3.705 16.000,4.519 16.000 C 5.280 16.000,5.432 15.963,5.680 15.715 C 6.189 15.206,6.060 14.415,5.416 14.098 C 5.258 14.020,5.218 14.016,4.567 14.011 C 4.191 14.007,3.838 14.016,3.783 14.030 M8.783 14.031 C 8.462 14.109,8.180 14.355,8.065 14.659 C 7.888 15.129,8.118 15.672,8.594 15.906 L 8.750 15.983 12.456 15.992 C 16.137 16.001,16.162 16.001,16.346 15.932 C 16.570 15.848,16.789 15.645,16.901 15.416 C 16.966 15.285,16.983 15.197,16.983 15.000 C 16.983 14.671,16.868 14.422,16.628 14.232 C 16.318 13.987,16.539 14.000,12.502 14.003 C 10.512 14.005,8.838 14.018,8.783 14.031 " fill="var(--db-icon-color, currentColor)" stroke="none" fill-rule="evenodd"></path></svg>