<svg id="icon" height="24" viewBox="0 0 24 24" width="24" xmlns="http://www.w3.org/2000/svg"><path d="M11.280 2.024 C 10.135 2.127,9.102 2.376,8.132 2.782 C 5.210 4.007,3.039 6.554,2.285 9.645 C 2.071 10.521,2.022 10.962,2.022 12.000 C 2.022 13.038,2.071 13.479,2.285 14.355 C 2.464 15.090,2.689 15.704,3.040 16.420 C 4.021 18.417,5.583 19.978,7.580 20.960 C 8.556 21.439,9.512 21.739,10.600 21.907 C 11.245 22.007,12.755 22.007,13.400 21.907 C 15.616 21.565,17.512 20.612,19.062 19.062 C 20.389 17.735,21.273 16.166,21.715 14.355 C 21.928 13.483,21.978 13.039,21.978 12.000 C 21.978 10.961,21.928 10.517,21.715 9.645 C 21.276 7.844,20.391 6.270,19.082 4.957 C 17.506 3.378,15.640 2.440,13.400 2.101 C 12.994 2.040,11.648 1.991,11.280 2.024 M8.920 7.603 C 9.054 7.663,9.467 8.050,10.549 9.131 L 11.998 10.578 13.449 9.136 C 15.080 7.514,15.097 7.501,15.557 7.527 C 16.081 7.556,16.440 7.909,16.473 8.426 C 16.504 8.909,16.518 8.890,14.886 10.530 L 13.422 12.000 14.867 13.450 C 15.794 14.381,16.342 14.960,16.396 15.068 C 16.455 15.186,16.480 15.313,16.480 15.491 C 16.480 16.059,16.054 16.493,15.500 16.489 C 15.071 16.486,15.060 16.478,13.471 14.890 L 12.001 13.421 10.550 14.869 C 8.963 16.452,8.917 16.488,8.483 16.488 C 7.931 16.488,7.522 16.067,7.522 15.500 C 7.522 15.070,7.550 15.034,9.131 13.450 L 10.579 12.000 9.113 10.530 C 8.080 9.494,7.628 9.014,7.583 8.905 C 7.503 8.708,7.502 8.321,7.581 8.131 C 7.799 7.609,8.403 7.370,8.920 7.603 " fill="var(--db-icon-color, currentColor)" stroke="none" fill-rule="evenodd"></path></svg>