<svg id="icon" height="24" viewBox="0 0 24 24" width="24" xmlns="http://www.w3.org/2000/svg"><path d="M11.720 7.035 C 11.665 7.053,11.563 7.097,11.495 7.132 C 11.426 7.168,9.986 8.592,8.295 10.298 C 6.015 12.598,5.191 13.454,5.106 13.610 C 5.007 13.793,4.995 13.852,5.011 14.062 C 5.040 14.441,5.218 14.721,5.540 14.893 C 5.753 15.006,6.234 15.013,6.440 14.905 C 6.517 14.865,7.799 13.615,9.290 12.127 L 11.999 9.421 14.750 12.165 C 17.320 14.729,17.513 14.912,17.691 14.960 C 18.181 15.091,18.673 14.880,18.904 14.440 C 19.020 14.220,19.008 13.787,18.880 13.572 C 18.732 13.323,12.666 7.215,12.466 7.113 C 12.289 7.022,11.886 6.980,11.720 7.035 " fill="var(--db-icon-color, currentColor)" stroke="none" fill-rule="evenodd"></path></svg>