<svg id="icon" height="32" viewBox="0 0 32 32" width="32" xmlns="http://www.w3.org/2000/svg"><path d="M15.507 6.137 C 15.396 6.195,15.240 6.342,15.160 6.464 L 15.013 6.686 14.987 14.632 L 14.960 22.578 11.813 19.394 C 9.565 17.120,8.601 16.178,8.435 16.098 C 8.253 16.010,8.143 15.992,7.916 16.016 C 7.229 16.087,6.813 16.755,7.069 17.375 C 7.126 17.514,8.382 18.807,11.269 21.697 C 13.533 23.965,15.459 25.859,15.547 25.905 C 15.754 26.016,16.246 26.016,16.453 25.906 C 16.541 25.859,18.477 23.953,20.756 21.670 C 24.326 18.093,24.906 17.491,24.955 17.307 C 25.035 17.009,25.026 16.860,24.913 16.613 C 24.668 16.083,24.062 15.857,23.550 16.105 C 23.404 16.176,22.312 17.244,20.187 19.394 L 17.040 22.578 17.013 14.632 L 16.987 6.686 16.840 6.464 C 16.564 6.047,15.958 5.899,15.507 6.137 " fill="var(--db-icon-color, currentColor)" stroke="none" fill-rule="evenodd"></path></svg>