<svg id="icon" height="32" viewBox="0 0 32 32" width="32" xmlns="http://www.w3.org/2000/svg"><path d="M15.520 10.132 C 15.417 10.188,13.492 12.077,11.242 14.330 C 7.778 17.797,7.137 18.463,7.068 18.660 C 6.962 18.964,6.967 19.124,7.090 19.397 C 7.330 19.925,7.889 20.131,8.427 19.890 C 8.613 19.806,9.493 18.950,12.333 16.091 L 16.000 12.400 19.667 16.091 C 23.683 20.135,23.581 20.046,24.123 19.981 C 24.474 19.940,24.719 19.766,24.881 19.443 C 25.029 19.148,25.041 19.018,24.951 18.700 C 24.898 18.510,24.337 17.925,20.778 14.356 C 18.470 12.041,16.580 10.187,16.469 10.130 C 16.211 9.996,15.771 9.997,15.520 10.132 " fill="var(--db-icon-color, currentColor)" stroke="none" fill-rule="evenodd"></path></svg>