<svg id="icon" height="32" viewBox="0 0 32 32" width="32" xmlns="http://www.w3.org/2000/svg"><path d="M14.720 2.060 C 13.383 2.220,12.528 2.405,11.506 2.754 C 5.079 4.950,1.162 11.379,2.160 18.095 C 2.376 19.552,2.906 21.166,3.608 22.507 C 5.016 25.195,7.498 27.535,10.229 28.748 C 13.977 30.411,18.044 30.412,21.770 28.749 C 24.880 27.361,27.559 24.622,28.873 21.487 C 29.633 19.673,29.984 17.937,29.983 16.000 C 29.982 13.221,29.201 10.599,27.701 8.335 C 25.479 4.983,22.049 2.781,18.080 2.157 C 17.543 2.073,15.182 2.004,14.720 2.060 M10.815 9.575 C 10.951 9.631,11.792 10.436,13.506 12.148 L 15.999 14.639 18.520 12.124 C 20.783 9.864,21.064 9.602,21.275 9.546 C 21.858 9.393,22.390 9.738,22.484 10.328 C 22.557 10.794,22.574 10.773,19.875 13.480 L 17.362 15.999 19.877 18.520 C 22.132 20.781,22.397 21.064,22.453 21.275 C 22.564 21.694,22.422 22.102,22.092 22.315 C 21.843 22.476,21.608 22.526,21.319 22.479 C 21.107 22.446,20.935 22.285,18.546 19.902 L 15.999 17.361 13.506 19.852 C 11.792 21.564,10.951 22.369,10.815 22.425 C 10.240 22.662,9.616 22.300,9.516 21.672 C 9.443 21.206,9.426 21.227,12.125 18.520 L 14.638 16.001 12.123 13.480 C 9.868 11.219,9.603 10.936,9.547 10.725 C 9.339 9.938,10.076 9.270,10.815 9.575 " fill="var(--db-icon-color, currentColor)" stroke="none" fill-rule="evenodd"></path></svg>