<svg id="icon" height="20" viewBox="0 0 20 20" width="20" xmlns="http://www.w3.org/2000/svg"><path d="M6.750 2.031 C 6.466 2.101,6.220 2.308,6.094 2.583 C 6.036 2.711,6.018 2.810,6.018 3.002 C 6.018 3.220,6.034 3.286,6.128 3.477 C 6.256 3.738,6.346 3.816,6.961 4.201 L 7.405 4.479 6.950 4.636 C 5.436 5.159,4.266 6.119,3.621 7.366 C 2.431 9.666,2.984 12.557,4.973 14.450 C 5.392 14.849,5.491 14.916,5.761 14.985 C 6.115 15.075,6.458 14.973,6.714 14.700 C 6.918 14.482,6.976 14.336,6.979 14.033 C 6.983 13.649,6.909 13.516,6.449 13.086 C 5.712 12.396,5.285 11.672,5.078 10.761 C 5.038 10.586,5.022 10.357,5.022 9.950 C 5.021 9.439,5.030 9.350,5.110 9.050 C 5.378 8.051,6.016 7.244,6.900 6.786 C 7.180 6.641,7.752 6.441,7.787 6.476 C 7.797 6.486,7.651 6.724,7.463 7.005 C 7.070 7.593,7.000 7.750,7.000 8.044 C 7.000 8.443,7.166 8.730,7.505 8.918 C 7.662 9.005,7.716 9.017,7.950 9.016 C 8.277 9.015,8.505 8.924,8.692 8.721 C 8.831 8.571,10.766 5.716,10.897 5.469 C 10.955 5.359,10.982 5.245,10.993 5.062 C 11.006 4.841,10.997 4.783,10.925 4.625 C 10.879 4.525,10.791 4.395,10.729 4.337 C 10.504 4.127,7.476 2.113,7.298 2.056 C 7.119 1.998,6.922 1.989,6.750 2.031 M13.711 5.060 C 13.131 5.267,12.863 5.916,13.135 6.459 C 13.211 6.612,13.293 6.708,13.470 6.853 C 14.045 7.323,14.576 8.115,14.810 8.850 C 14.968 9.348,14.983 9.457,14.983 10.100 C 14.983 10.641,14.974 10.751,14.906 11.000 C 14.600 12.120,13.817 13.017,12.794 13.419 C 12.562 13.510,12.227 13.605,12.207 13.585 C 12.200 13.577,12.365 13.319,12.574 13.011 C 13.088 12.252,13.151 12.025,12.963 11.601 C 12.882 11.417,12.733 11.257,12.533 11.139 C 12.399 11.059,12.350 11.050,12.067 11.050 C 11.788 11.050,11.730 11.061,11.583 11.139 C 11.492 11.188,11.369 11.277,11.312 11.339 C 11.122 11.539,9.121 14.542,9.060 14.717 C 8.946 15.044,9.019 15.430,9.242 15.676 C 9.344 15.788,12.287 17.791,12.558 17.933 C 12.862 18.091,13.222 18.083,13.540 17.910 C 13.723 17.810,13.833 17.695,13.942 17.487 C 14.053 17.278,14.047 16.881,13.928 16.628 C 13.805 16.366,13.652 16.228,13.106 15.887 C 12.844 15.724,12.642 15.579,12.657 15.566 C 12.671 15.553,12.833 15.493,13.017 15.433 C 15.339 14.673,16.852 12.802,16.994 10.517 C 17.085 9.050,16.698 7.696,15.842 6.488 C 15.559 6.088,14.736 5.277,14.472 5.138 C 14.205 4.997,13.958 4.971,13.711 5.060 " fill="var(--db-icon-color, currentColor)" stroke="none" fill-rule="evenodd"></path></svg>