<svg id="icon" height="24" viewBox="0 0 24 24" width="24" xmlns="http://www.w3.org/2000/svg"><path d="M17.660 5.059 C 17.572 5.092,17.492 5.119,17.481 5.119 C 17.471 5.120,16.233 6.348,14.731 7.849 L 12.000 10.579 9.310 7.894 C 7.831 6.417,6.557 5.177,6.480 5.138 C 6.403 5.100,6.223 5.060,6.079 5.049 C 5.749 5.026,5.459 5.138,5.265 5.365 C 5.029 5.640,4.969 6.098,5.123 6.440 C 5.185 6.578,5.827 7.244,7.891 9.310 L 10.579 12.000 7.874 14.710 C 6.386 16.201,5.137 17.481,5.100 17.556 C 4.994 17.767,4.976 18.125,5.059 18.344 C 5.262 18.875,5.863 19.142,6.355 18.919 C 6.484 18.860,7.229 18.145,9.248 16.140 C 10.743 14.655,11.981 13.440,12.000 13.440 C 12.018 13.440,13.256 14.655,14.752 16.140 C 16.769 18.143,17.516 18.860,17.646 18.919 C 18.232 19.185,18.920 18.768,18.988 18.105 C 19.035 17.643,19.189 17.824,16.177 14.790 C 14.671 13.273,13.440 12.018,13.440 12.001 C 13.440 11.983,14.672 10.728,16.177 9.211 C 19.189 6.175,19.035 6.357,18.988 5.895 C 18.951 5.540,18.759 5.265,18.427 5.093 C 18.252 5.003,17.856 4.985,17.660 5.059 " fill="var(--db-icon-color, currentColor)" stroke="none" fill-rule="evenodd"></path></svg>