<svg id="icon" height="24" viewBox="0 0 24 24" width="24" xmlns="http://www.w3.org/2000/svg"><path d="M11.665 4.056 C 11.447 4.138,11.237 4.317,11.120 4.524 L 11.020 4.700 11.009 10.639 L 10.999 16.577 8.789 14.373 C 7.574 13.161,6.519 12.138,6.445 12.101 C 5.838 11.795,5.084 12.239,5.011 12.945 C 4.964 13.397,4.812 13.222,8.255 16.673 C 10.161 18.583,11.442 19.838,11.539 19.888 C 11.758 20.002,12.152 20.029,12.370 19.946 C 12.508 19.893,13.148 19.271,15.724 16.690 C 18.482 13.926,18.913 13.478,18.954 13.335 C 19.097 12.825,18.866 12.326,18.380 12.095 C 18.145 11.984,17.929 11.975,17.657 12.065 C 17.479 12.124,17.244 12.346,15.230 14.354 L 13.000 16.578 12.999 10.679 C 12.998 4.831,12.998 4.778,12.917 4.600 C 12.753 4.239,12.463 4.040,12.061 4.014 C 11.913 4.005,11.760 4.021,11.665 4.056 " fill="var(--db-icon-color, currentColor)" stroke="none" fill-rule="evenodd"></path></svg>