<svg id="icon" height="16" viewBox="0 0 16 16" width="16" xmlns="http://www.w3.org/2000/svg"><path d="M5.987 3.503 C 5.913 3.522,5.812 3.559,5.762 3.585 C 5.598 3.671,5.398 3.885,5.317 4.061 C 5.250 4.205,5.240 4.259,5.240 4.467 C 5.240 4.675,5.250 4.730,5.318 4.880 C 5.391 5.040,5.506 5.163,6.864 6.527 L 8.331 8.000 6.864 9.473 C 5.506 10.837,5.391 10.960,5.318 11.120 C 5.250 11.270,5.240 11.325,5.240 11.533 C 5.240 11.740,5.250 11.795,5.315 11.933 C 5.413 12.144,5.618 12.350,5.824 12.444 C 5.964 12.508,6.020 12.519,6.227 12.518 C 6.660 12.518,6.504 12.647,8.674 10.483 C 10.261 8.900,10.601 8.548,10.661 8.427 C 10.726 8.295,10.733 8.251,10.733 8.000 C 10.733 7.745,10.727 7.707,10.658 7.570 C 10.595 7.447,10.246 7.086,8.671 5.514 C 6.840 3.686,6.753 3.604,6.602 3.548 C 6.403 3.476,6.160 3.458,5.987 3.503 " fill="var(--db-icon-color, currentColor)" stroke="none" fill-rule="evenodd"></path></svg>