<svg id="icon" height="20" viewBox="0 0 20 20" width="20" xmlns="http://www.w3.org/2000/svg"><path d="M9.714 3.045 C 9.640 3.069,9.524 3.126,9.458 3.171 C 9.392 3.217,8.173 4.412,6.750 5.828 C 4.699 7.869,4.148 8.436,4.091 8.560 C 4.037 8.680,4.020 8.783,4.019 9.000 C 4.018 9.244,4.030 9.307,4.106 9.450 C 4.349 9.910,4.868 10.111,5.350 9.932 C 5.540 9.862,5.635 9.773,7.275 8.139 L 8.999 6.420 9.008 11.351 L 9.017 16.283 9.095 16.433 C 9.272 16.770,9.566 16.966,9.933 16.992 C 10.368 17.022,10.777 16.760,10.929 16.355 L 11.000 16.164 11.001 11.290 L 11.002 6.417 12.688 8.112 C 14.541 9.974,14.531 9.966,14.950 9.993 C 15.502 10.029,16.000 9.557,16.000 9.000 C 16.000 8.910,15.968 8.749,15.928 8.643 C 15.859 8.460,15.721 8.316,13.225 5.833 C 11.495 4.113,10.538 3.184,10.429 3.121 C 10.233 3.008,9.927 2.975,9.714 3.045 " fill="var(--db-icon-color, currentColor)" stroke="none" fill-rule="evenodd"></path></svg>