<svg id="icon" height="16" viewBox="0 0 16 16" width="16" xmlns="http://www.w3.org/2000/svg"><path d="M7.734 2.043 C 7.363 2.142,7.088 2.447,7.016 2.839 C 6.996 2.948,6.987 4.166,6.987 6.784 L 6.987 10.572 6.007 9.597 C 4.975 8.570,4.934 8.536,4.639 8.479 C 4.211 8.397,3.744 8.641,3.557 9.046 C 3.489 9.194,3.480 9.243,3.480 9.467 C 3.480 9.912,3.360 9.767,5.530 11.936 C 7.566 13.972,7.505 13.917,7.845 13.981 C 8.029 14.015,8.258 13.981,8.449 13.891 C 8.544 13.846,9.011 13.396,10.434 11.976 C 11.458 10.955,12.330 10.066,12.371 10.000 C 12.637 9.579,12.567 9.060,12.199 8.724 C 11.898 8.449,11.471 8.387,11.094 8.564 C 11.007 8.605,10.704 8.889,9.993 9.597 L 9.013 10.572 9.013 6.800 C 9.013 4.334,9.003 2.968,8.985 2.857 C 8.920 2.451,8.643 2.143,8.254 2.041 C 8.061 1.991,7.926 1.991,7.734 2.043 " fill="var(--db-icon-color, currentColor)" stroke="none" fill-rule="evenodd"></path></svg>