<svg id="icon" height="32" viewBox="0 0 32 32" width="32" xmlns="http://www.w3.org/2000/svg"><path d="M13.573 10.102 C 13.098 10.314,12.885 10.893,13.095 11.402 C 13.151 11.538,13.941 12.364,15.615 14.040 L 18.052 16.479 15.592 18.946 C 12.948 21.597,12.972 21.569,13.027 22.061 C 13.098 22.684,13.788 23.100,14.383 22.877 C 14.607 22.793,20.254 17.144,20.378 16.880 C 20.433 16.763,20.478 16.583,20.478 16.480 C 20.478 16.377,20.433 16.197,20.378 16.080 C 20.254 15.816,14.607 10.167,14.383 10.083 C 14.178 10.006,13.767 10.016,13.573 10.102 " fill="var(--db-icon-color, currentColor)" stroke="none" fill-rule="evenodd"></path></svg>