<svg id="icon" height="16" viewBox="0 0 16 16" width="16" xmlns="http://www.w3.org/2000/svg"><path d="M4.249 3.494 C 3.972 3.549,3.689 3.775,3.555 4.047 C 3.488 4.184,3.480 4.228,3.480 4.467 C 3.480 4.919,3.405 4.824,5.103 6.527 L 6.572 8.000 5.101 9.473 C 3.402 11.175,3.480 11.075,3.480 11.533 C 3.480 11.770,3.488 11.817,3.553 11.949 C 3.653 12.152,3.844 12.338,4.053 12.437 C 4.205 12.509,4.255 12.519,4.453 12.518 C 4.626 12.518,4.718 12.503,4.840 12.456 C 4.991 12.397,5.086 12.307,6.493 10.904 L 7.987 9.414 9.453 10.879 C 10.798 12.222,10.934 12.351,11.094 12.425 C 11.596 12.659,12.164 12.466,12.411 11.978 C 12.510 11.782,12.545 11.560,12.506 11.371 C 12.439 11.045,12.456 11.064,10.883 9.487 L 9.401 8.000 10.883 6.513 C 12.462 4.930,12.442 4.953,12.507 4.623 C 12.586 4.221,12.342 3.756,11.959 3.575 C 11.677 3.443,11.396 3.440,11.108 3.566 C 10.961 3.630,10.813 3.769,9.466 5.111 L 7.986 6.586 6.533 5.132 C 5.734 4.333,5.030 3.649,4.969 3.613 C 4.758 3.488,4.497 3.445,4.249 3.494 " fill="var(--db-icon-color, currentColor)" stroke="none" fill-rule="evenodd"></path></svg>