<svg id="icon" height="32" viewBox="0 0 32 32" width="32" xmlns="http://www.w3.org/2000/svg"><path d="M15.493 6.128 C 15.405 6.184,13.492 8.074,11.242 10.328 C 8.376 13.199,7.126 14.486,7.069 14.625 C 6.955 14.901,6.966 15.137,7.107 15.412 C 7.275 15.742,7.545 15.942,7.876 15.981 C 8.418 16.045,8.282 16.162,11.771 12.648 L 14.981 9.413 14.984 17.253 C 14.986 22.601,15.005 25.158,15.044 25.297 C 15.075 25.409,15.192 25.592,15.305 25.705 C 15.823 26.223,16.739 25.998,16.948 25.299 C 16.998 25.131,17.014 23.272,17.016 17.247 L 17.018 9.413 20.229 12.648 C 22.847 15.285,23.478 15.895,23.647 15.948 C 23.923 16.035,24.344 15.980,24.569 15.828 C 24.766 15.695,25.014 15.257,25.013 15.043 C 25.012 14.582,25.125 14.707,20.756 10.330 C 18.477 8.047,16.549 6.145,16.469 6.103 C 16.255 5.989,15.690 6.004,15.493 6.128 " fill="var(--db-icon-color, currentColor)" stroke="none" fill-rule="evenodd"></path></svg>