<svg id="icon" height="32" viewBox="0 0 32 32" width="32" xmlns="http://www.w3.org/2000/svg"><path d="M7.534 12.137 C 7.310 12.248,7.235 12.323,7.123 12.547 C 6.966 12.863,6.955 13.016,7.068 13.340 C 7.137 13.537,7.779 14.203,11.242 17.670 C 13.700 20.132,15.417 21.811,15.543 21.876 C 15.815 22.018,16.184 22.018,16.457 21.877 C 16.584 21.811,18.291 20.139,20.778 17.644 C 24.337 14.075,24.898 13.490,24.951 13.300 C 25.041 12.982,25.029 12.852,24.881 12.557 C 24.721 12.240,24.463 12.059,24.112 12.017 C 23.582 11.955,23.671 11.876,19.667 15.908 L 16.000 19.600 12.333 15.909 C 8.493 12.042,8.450 12.004,7.997 12.001 C 7.893 12.001,7.684 12.061,7.534 12.137 " fill="var(--db-icon-color, currentColor)" stroke="none" fill-rule="evenodd"></path></svg>