<svg id="icon" height="20" viewBox="0 0 20 20" width="20" xmlns="http://www.w3.org/2000/svg"><path d="M10.750 4.029 C 10.179 4.180,9.861 4.794,10.068 5.350 C 10.138 5.540,10.227 5.635,11.861 7.274 L 13.580 8.999 8.648 9.008 L 3.717 9.017 3.576 9.092 C 3.225 9.279,3.034 9.563,3.008 9.933 C 2.978 10.368,3.240 10.777,3.645 10.929 L 3.836 11.000 8.710 11.001 L 13.583 11.002 11.888 12.688 C 10.026 14.540,10.034 14.530,10.007 14.950 C 9.969 15.530,10.471 16.030,11.055 15.993 C 11.454 15.969,11.389 16.026,14.259 13.133 C 16.634 10.740,16.894 10.467,16.944 10.319 C 17.020 10.097,17.014 9.874,16.928 9.643 C 16.860 9.461,16.714 9.307,14.288 6.867 C 12.875 5.446,11.674 4.249,11.618 4.206 C 11.562 4.163,11.464 4.106,11.400 4.079 C 11.262 4.020,10.892 3.992,10.750 4.029 " fill="var(--db-icon-color, currentColor)" stroke="none" fill-rule="evenodd"></path></svg>