<svg id="icon" height="24" viewBox="0 0 24 24" width="24" xmlns="http://www.w3.org/2000/svg"><path d="M9.665 5.056 C 9.447 5.138,9.237 5.317,9.120 5.524 C 8.992 5.750,8.979 6.218,9.095 6.440 C 9.135 6.517,10.385 7.799,11.873 9.290 L 14.579 11.999 11.835 14.750 C 9.271 17.320,9.088 17.513,9.040 17.691 C 8.909 18.181,9.120 18.673,9.560 18.904 C 9.780 19.020,10.213 19.008,10.428 18.880 C 10.671 18.735,16.783 12.668,16.891 12.464 C 17.014 12.232,17.014 11.768,16.891 11.536 C 16.786 11.337,10.675 5.267,10.439 5.126 C 10.240 5.008,9.882 4.976,9.665 5.056 " fill="var(--db-icon-color, currentColor)" stroke="none" fill-rule="evenodd"></path></svg>