<svg id="icon" height="24" viewBox="0 0 24 24" width="24" xmlns="http://www.w3.org/2000/svg"><path d="M10.240 6.035 C 9.788 6.183,9.509 6.550,9.508 7.000 C 9.506 7.446,9.484 7.420,11.871 9.810 L 14.058 12.000 11.871 14.190 C 9.484 16.581,9.506 16.554,9.508 17.000 C 9.510 17.301,9.613 17.528,9.840 17.733 C 10.135 17.998,10.441 18.061,10.823 17.935 C 11.002 17.876,11.262 17.629,13.653 15.245 C 16.478 12.429,16.490 12.415,16.493 12.020 C 16.497 11.591,16.599 11.708,13.746 8.847 C 12.164 7.261,11.037 6.162,10.943 6.113 C 10.772 6.024,10.399 5.983,10.240 6.035 " fill="var(--db-icon-color, currentColor)" stroke="none" fill-rule="evenodd"></path></svg>