<svg id="icon" height="24" viewBox="0 0 24 24" width="24" xmlns="http://www.w3.org/2000/svg"><path d="M10.660 5.059 C 10.572 5.092,10.491 5.119,10.481 5.119 C 10.470 5.120,9.043 6.538,7.310 8.270 C 4.438 11.141,4.152 11.439,4.079 11.632 C 3.984 11.885,3.977 12.188,4.062 12.391 C 4.140 12.581,10.302 18.764,10.540 18.892 C 10.763 19.012,11.196 19.012,11.420 18.892 C 11.913 18.629,12.129 18.070,11.917 17.600 C 11.856 17.463,11.311 16.894,9.629 15.211 L 7.422 13.001 13.361 12.991 L 19.300 12.980 19.460 12.894 C 20.178 12.506,20.178 11.494,19.460 11.106 L 19.300 11.020 13.361 11.009 L 7.423 10.999 9.646 8.769 C 12.089 6.320,12.030 6.392,11.992 5.951 C 11.961 5.584,11.756 5.281,11.425 5.112 C 11.216 5.006,10.866 4.981,10.660 5.059 " fill="var(--db-icon-color, currentColor)" stroke="none" fill-rule="evenodd"></path></svg>