<svg id="icon" height="20" viewBox="0 0 20 20" width="20" xmlns="http://www.w3.org/2000/svg"><path d="M3.712 3.036 C 3.429 3.119,3.114 3.441,3.034 3.727 C 3.013 3.805,3.000 4.642,3.000 6.007 C 3.000 8.086,3.002 8.171,3.067 8.343 C 3.158 8.586,3.330 8.777,3.559 8.890 L 3.750 8.983 6.000 8.983 L 8.250 8.983 8.441 8.890 C 8.671 8.777,8.842 8.586,8.934 8.341 C 9.000 8.164,9.002 8.102,8.993 5.938 L 8.983 3.717 8.885 3.539 C 8.775 3.341,8.634 3.204,8.424 3.092 L 8.283 3.017 6.050 3.011 C 4.765 3.008,3.772 3.018,3.712 3.036 M11.712 3.036 C 11.429 3.119,11.114 3.441,11.034 3.727 C 11.013 3.805,11.000 4.642,11.000 6.007 C 11.000 8.086,11.002 8.171,11.067 8.343 C 11.158 8.586,11.330 8.777,11.559 8.890 L 11.750 8.983 14.000 8.983 L 16.250 8.983 16.441 8.890 C 16.671 8.777,16.842 8.586,16.934 8.341 C 17.000 8.164,17.002 8.102,16.993 5.938 L 16.983 3.717 16.885 3.539 C 16.775 3.341,16.634 3.204,16.424 3.092 L 16.283 3.017 14.050 3.011 C 12.765 3.008,11.772 3.018,11.712 3.036 M7.000 6.000 L 7.000 7.000 6.000 7.000 L 5.000 7.000 5.000 6.000 L 5.000 5.000 6.000 5.000 L 7.000 5.000 7.000 6.000 M15.000 6.000 L 15.000 7.000 14.000 7.000 L 13.000 7.000 13.000 6.000 L 13.000 5.000 14.000 5.000 L 15.000 5.000 15.000 6.000 M3.683 11.060 C 3.468 11.134,3.318 11.242,3.199 11.407 C 2.994 11.690,2.997 11.638,3.007 14.070 L 3.017 16.283 3.092 16.424 C 3.205 16.636,3.358 16.794,3.547 16.894 L 3.717 16.983 6.000 16.983 L 8.283 16.983 8.455 16.893 C 8.668 16.780,8.846 16.576,8.933 16.343 C 8.998 16.171,9.000 16.085,9.000 14.000 C 9.000 11.915,8.998 11.829,8.933 11.657 C 8.842 11.414,8.670 11.223,8.441 11.110 L 8.250 11.017 6.050 11.009 C 4.028 11.002,3.836 11.006,3.683 11.060 M11.677 11.061 C 11.432 11.147,11.223 11.331,11.111 11.559 L 11.017 11.750 11.017 14.017 L 11.017 16.283 11.092 16.424 C 11.205 16.636,11.358 16.794,11.547 16.894 L 11.717 16.983 14.000 16.983 L 16.283 16.983 16.453 16.894 C 16.642 16.794,16.795 16.636,16.908 16.424 L 16.983 16.283 16.993 14.062 C 17.002 11.898,17.000 11.836,16.934 11.659 C 16.842 11.414,16.671 11.223,16.441 11.110 L 16.250 11.017 14.050 11.009 C 12.004 11.002,11.838 11.005,11.677 11.061 M7.000 14.000 L 7.000 15.000 6.000 15.000 L 5.000 15.000 5.000 14.000 L 5.000 13.000 6.000 13.000 L 7.000 13.000 7.000 14.000 M15.000 14.000 L 15.000 15.000 14.000 15.000 L 13.000 15.000 13.000 14.000 L 13.000 13.000 14.000 13.000 L 15.000 13.000 15.000 14.000 " fill="var(--db-icon-color, currentColor)" stroke="none" fill-rule="evenodd"></path></svg>