<svg id="icon" height="16" viewBox="0 0 16 16" width="16" xmlns="http://www.w3.org/2000/svg"><path d="M7.427 2.028 C 5.344 2.242,3.523 3.507,2.612 5.373 C 1.344 7.971,2.101 11.065,4.434 12.816 C 5.630 13.714,7.187 14.134,8.672 13.960 C 11.179 13.667,13.222 11.876,13.824 9.445 C 14.063 8.478,14.063 7.522,13.824 6.555 C 13.396 4.826,12.237 3.397,10.627 2.612 C 10.049 2.331,9.510 2.163,8.880 2.067 C 8.538 2.016,7.753 1.994,7.427 2.028 M9.058 5.550 L 10.120 4.504 10.809 5.203 L 11.498 5.902 10.449 6.951 L 9.400 8.000 10.447 9.047 L 11.493 10.094 10.793 10.793 L 10.094 11.493 9.047 10.447 L 8.000 9.400 6.953 10.447 L 5.906 11.493 5.207 10.793 L 4.507 10.094 5.553 9.047 L 6.600 8.000 5.553 6.953 L 4.507 5.906 5.207 5.207 L 5.906 4.507 6.951 5.551 L 7.996 6.595 9.058 5.550 " fill="var(--db-icon-color, currentColor)" stroke="none" fill-rule="evenodd"></path></svg>