<svg id="icon" height="24" viewBox="0 0 24 24" width="24" xmlns="http://www.w3.org/2000/svg"><path d="M5.665 9.056 C 5.287 9.197,5.043 9.524,5.011 9.933 C 4.995 10.149,5.007 10.206,5.106 10.390 C 5.252 10.660,11.282 16.757,11.536 16.891 C 11.768 17.014,12.232 17.014,12.464 16.891 C 12.668 16.783,18.735 10.671,18.880 10.428 C 19.023 10.189,19.023 9.776,18.880 9.522 C 18.759 9.306,18.497 9.098,18.268 9.037 C 18.062 8.981,17.735 9.010,17.555 9.100 C 17.481 9.137,16.200 10.385,14.710 11.874 L 12.000 14.580 9.290 11.874 C 7.800 10.385,6.518 9.137,6.442 9.099 C 6.255 9.005,5.860 8.984,5.665 9.056 " fill="var(--db-icon-color, currentColor)" stroke="none" fill-rule="evenodd"></path></svg>