<svg id="icon" height="32" viewBox="0 0 32 32" width="32" xmlns="http://www.w3.org/2000/svg"><path d="M12.761 7.038 C 12.316 7.144,12.012 7.530,12.005 8.000 C 11.998 8.444,12.041 8.491,15.909 12.333 L 19.600 15.999 15.860 19.720 C 12.355 23.206,12.116 23.456,12.053 23.693 C 11.971 24.004,12.018 24.339,12.176 24.574 C 12.304 24.764,12.744 25.013,12.951 25.013 C 13.406 25.013,13.299 25.110,17.644 20.778 C 20.139 18.291,21.811 16.584,21.877 16.457 C 22.018 16.185,22.018 15.815,21.877 15.543 C 21.811 15.416,20.135 13.704,17.644 11.219 L 13.520 7.104 13.237 7.045 C 13.082 7.013,12.950 6.989,12.944 6.992 C 12.938 6.995,12.856 7.016,12.761 7.038 " fill="var(--db-icon-color, currentColor)" stroke="none" fill-rule="evenodd"></path></svg>