<svg id="icon" height="32" viewBox="0 0 32 32" width="32" xmlns="http://www.w3.org/2000/svg"><path d="M11.173 2.126 C 11.085 2.180,10.972 2.271,10.921 2.328 C 10.814 2.449,10.667 2.843,10.667 3.007 C 10.668 3.229,10.781 3.525,10.931 3.695 C 11.014 3.789,11.648 4.202,12.339 4.611 C 13.030 5.021,13.584 5.367,13.571 5.380 C 13.558 5.393,13.329 5.460,13.062 5.530 C 11.256 5.997,9.549 6.984,8.186 8.346 C 6.433 10.099,5.357 12.340,5.062 14.848 C 4.982 15.523,5.027 17.146,5.143 17.787 C 5.502 19.779,6.215 21.368,7.463 22.960 C 8.028 23.682,9.257 24.819,9.619 24.957 C 9.700 24.988,9.874 25.013,10.005 25.013 C 10.586 25.013,10.987 24.608,10.987 24.021 C 10.987 23.646,10.837 23.429,10.236 22.933 C 8.729 21.689,7.660 19.939,7.230 18.015 C 6.254 13.640,8.588 9.320,12.799 7.705 C 13.236 7.538,14.177 7.279,14.213 7.315 C 14.223 7.325,13.855 7.954,13.396 8.712 C 12.580 10.061,12.562 10.097,12.562 10.392 C 12.562 11.149,13.322 11.635,13.995 11.309 C 14.129 11.244,14.284 11.127,14.340 11.049 C 14.627 10.643,17.207 6.234,17.271 6.041 C 17.380 5.711,17.316 5.470,17.050 5.199 C 16.908 5.055,16.008 4.474,14.587 3.612 C 13.355 2.865,12.246 2.202,12.122 2.140 C 11.834 1.995,11.396 1.988,11.173 2.126 M21.573 7.141 C 21.188 7.319,21.013 7.598,21.013 8.035 C 21.013 8.405,21.145 8.611,21.648 9.029 C 24.305 11.236,25.480 14.528,24.801 17.863 C 24.346 20.093,22.963 22.129,21.013 23.439 C 20.199 23.985,18.741 24.603,17.976 24.726 L 17.754 24.761 18.579 23.396 C 19.104 22.527,19.416 21.954,19.439 21.821 C 19.541 21.216,19.031 20.637,18.400 20.641 C 18.206 20.643,17.862 20.816,17.701 20.993 C 17.624 21.078,16.923 22.223,16.143 23.538 C 14.582 26.172,14.565 26.210,14.770 26.634 C 14.834 26.764,14.962 26.929,15.056 26.999 C 15.247 27.141,19.616 29.806,19.867 29.933 C 20.278 30.141,20.659 30.105,20.965 29.829 C 21.216 29.602,21.361 29.208,21.310 28.888 C 21.240 28.441,21.115 28.333,19.702 27.486 C 18.696 26.882,18.411 26.689,18.487 26.660 C 18.542 26.639,18.823 26.560,19.111 26.483 C 21.257 25.913,23.359 24.490,24.745 22.668 C 25.825 21.250,26.521 19.654,26.863 17.813 C 26.997 17.093,26.998 15.015,26.865 14.293 C 26.501 12.326,25.736 10.603,24.591 9.173 C 24.211 8.698,23.359 7.834,22.931 7.488 C 22.363 7.029,22.011 6.939,21.573 7.141 " fill="var(--db-icon-color, currentColor)" stroke="none" fill-rule="evenodd"></path></svg>