<svg id="icon" height="20" viewBox="0 0 20 20" width="20" xmlns="http://www.w3.org/2000/svg"><path d="M9.677 3.060 C 9.431 3.148,9.222 3.332,9.111 3.559 L 9.017 3.750 9.000 8.662 L 8.983 13.574 7.304 11.883 C 5.488 10.054,5.484 10.051,5.089 10.010 C 4.697 9.970,4.288 10.198,4.112 10.556 C 4.033 10.718,4.017 10.792,4.017 11.002 C 4.017 11.449,3.903 11.319,6.867 14.260 C 9.358 16.732,9.527 16.893,9.695 16.948 C 9.924 17.024,10.196 17.006,10.417 16.901 C 10.549 16.838,11.120 16.288,13.167 14.253 C 14.588 12.841,15.777 11.651,15.811 11.609 C 15.844 11.567,15.902 11.447,15.940 11.341 C 16.071 10.970,15.963 10.516,15.685 10.272 C 15.470 10.084,15.310 10.022,15.033 10.019 C 14.559 10.015,14.657 9.936,12.725 11.861 L 11.001 13.580 10.992 8.649 L 10.983 3.717 10.894 3.547 C 10.663 3.109,10.132 2.897,9.677 3.060 " fill="var(--db-icon-color, currentColor)" stroke="none" fill-rule="evenodd"></path></svg>