<svg id="icon" height="32" viewBox="0 0 32 32" width="32" xmlns="http://www.w3.org/2000/svg"><path d="M6.479 6.156 C 6.064 6.405,5.891 6.989,6.106 7.417 C 6.156 7.518,8.085 9.490,10.392 11.800 L 14.586 16.000 10.365 20.227 C 8.044 22.551,6.115 24.512,6.078 24.584 C 6.041 24.656,6.011 24.839,6.011 24.990 C 6.011 25.650,6.577 26.098,7.238 25.962 C 7.486 25.911,7.623 25.780,11.747 21.662 L 16.000 17.415 20.227 21.635 C 22.551 23.956,24.512 25.885,24.584 25.922 C 24.803 26.034,25.236 26.005,25.491 25.862 C 25.925 25.618,26.113 25.019,25.893 24.580 C 25.843 24.481,23.915 22.510,21.608 20.200 L 17.414 16.000 21.635 11.773 C 23.956 9.449,25.885 7.488,25.922 7.416 C 26.123 7.022,25.910 6.374,25.505 6.146 C 25.248 6.002,24.822 5.986,24.571 6.112 C 24.477 6.159,22.510 8.085,20.200 10.392 L 16.000 14.586 11.773 10.362 C 9.402 7.993,7.481 6.114,7.397 6.082 C 7.126 5.982,6.714 6.015,6.479 6.156 " fill="var(--db-icon-color, currentColor)" stroke="none" fill-rule="evenodd"></path></svg>