<svg id="icon" height="20" viewBox="0 0 20 20" width="20" xmlns="http://www.w3.org/2000/svg"><path d="M8.683 4.058 C 8.592 4.091,8.485 4.140,8.446 4.167 C 8.408 4.194,7.192 5.409,5.744 6.867 C 3.365 9.261,3.106 9.533,3.056 9.681 C 2.980 9.903,2.986 10.126,3.072 10.357 C 3.140 10.539,3.287 10.694,5.729 13.150 C 7.151 14.580,8.348 15.777,8.391 15.811 C 8.540 15.930,8.833 16.008,9.067 15.992 C 9.741 15.944,10.167 15.283,9.932 14.650 C 9.862 14.460,9.773 14.365,8.139 12.725 L 6.420 11.001 11.351 10.992 L 16.283 10.983 16.450 10.895 C 16.649 10.789,16.798 10.637,16.904 10.433 C 16.966 10.314,16.982 10.230,16.982 10.017 C 16.984 9.670,16.873 9.426,16.628 9.232 C 16.315 8.984,16.674 9.000,11.269 8.999 L 6.417 8.998 8.112 7.311 C 9.975 5.458,9.966 5.468,9.993 5.050 C 10.037 4.367,9.325 3.828,8.683 4.058 " fill="var(--db-icon-color, currentColor)" stroke="none" fill-rule="evenodd"></path></svg>