<svg id="icon" height="24" viewBox="0 0 24 24" width="24" xmlns="http://www.w3.org/2000/svg"><path d="M4.340 3.056 C 3.694 3.217,3.176 3.747,3.039 4.388 C 3.012 4.515,3.001 5.470,3.009 7.121 C 3.020 9.647,3.020 9.661,3.110 9.880 C 3.291 10.324,3.676 10.709,4.120 10.890 L 4.340 10.980 7.000 10.980 L 9.660 10.980 9.880 10.890 C 10.324 10.709,10.709 10.324,10.890 9.880 C 10.979 9.661,10.980 9.644,10.993 7.140 C 11.002 5.311,10.993 4.560,10.958 4.400 C 10.813 3.725,10.278 3.187,9.608 3.045 C 9.297 2.979,4.612 2.989,4.340 3.056 M14.340 3.056 C 13.694 3.217,13.176 3.747,13.039 4.388 C 13.012 4.515,13.001 5.470,13.009 7.121 C 13.020 9.647,13.020 9.661,13.110 9.880 C 13.291 10.324,13.676 10.709,14.120 10.890 L 14.340 10.980 17.000 10.980 L 19.660 10.980 19.880 10.889 C 20.329 10.705,20.692 10.340,20.887 9.880 L 20.980 9.660 20.993 7.140 C 21.002 5.311,20.993 4.560,20.958 4.400 C 20.813 3.725,20.278 3.187,19.608 3.045 C 19.297 2.979,14.612 2.989,14.340 3.056 M9.000 7.000 L 9.000 9.000 7.000 9.000 L 5.000 9.000 5.000 7.000 L 5.000 5.000 7.000 5.000 L 9.000 5.000 9.000 7.000 M19.000 7.000 L 19.000 9.000 17.000 9.000 L 15.000 9.000 15.000 7.000 L 15.000 5.000 17.000 5.000 L 19.000 5.000 19.000 7.000 M4.375 13.041 C 3.960 13.125,3.475 13.472,3.252 13.846 C 3.001 14.264,3.000 14.280,3.001 16.998 C 3.002 18.512,3.018 19.528,3.042 19.636 C 3.187 20.264,3.690 20.772,4.340 20.946 C 4.497 20.987,5.072 20.999,7.000 20.999 C 8.928 20.999,9.503 20.987,9.660 20.946 C 10.306 20.773,10.774 20.307,10.944 19.667 C 11.030 19.344,11.025 14.633,10.938 14.298 C 10.807 13.792,10.483 13.416,9.960 13.164 L 9.660 13.020 7.100 13.014 C 5.692 13.010,4.466 13.022,4.375 13.041 M14.375 13.041 C 13.960 13.125,13.475 13.472,13.252 13.846 C 13.001 14.264,13.000 14.280,13.001 16.998 C 13.002 18.512,13.018 19.528,13.042 19.636 C 13.187 20.264,13.690 20.772,14.340 20.946 C 14.497 20.987,15.072 20.999,17.000 20.999 C 19.656 20.999,19.648 21.000,20.078 20.781 C 20.343 20.647,20.667 20.323,20.795 20.064 C 20.998 19.654,20.999 19.632,20.999 17.000 C 20.998 15.485,20.982 14.473,20.958 14.364 C 20.838 13.845,20.481 13.412,19.973 13.169 L 19.660 13.020 17.100 13.014 C 15.692 13.010,14.466 13.022,14.375 13.041 M9.000 17.000 L 9.000 19.000 7.000 19.000 L 5.000 19.000 5.000 17.000 L 5.000 15.000 7.000 15.000 L 9.000 15.000 9.000 17.000 M19.000 17.000 L 19.000 19.000 17.000 19.000 L 15.000 19.000 15.000 17.000 L 15.000 15.000 17.000 15.000 L 19.000 15.000 19.000 17.000 " fill="var(--db-icon-color, currentColor)" stroke="none" fill-rule="evenodd"></path></svg>