<svg id="icon" height="20" viewBox="0 0 20 20" width="20" xmlns="http://www.w3.org/2000/svg"><path d="M11.672 4.062 C 11.507 4.121,11.299 4.319,8.855 6.754 C 7.262 8.342,6.179 9.446,6.122 9.542 C 5.997 9.749,5.971 10.016,6.048 10.286 L 6.105 10.483 8.761 13.144 C 10.774 15.161,11.457 15.826,11.583 15.890 C 11.953 16.080,12.398 16.005,12.702 15.702 C 12.984 15.419,13.069 15.024,12.930 14.643 C 12.863 14.460,12.745 14.335,10.638 12.225 L 8.417 10.000 10.638 7.775 C 12.745 5.665,12.863 5.540,12.930 5.357 C 13.164 4.715,12.738 4.057,12.059 4.012 C 11.909 4.002,11.799 4.016,11.672 4.062 " fill="var(--db-icon-color, currentColor)" stroke="none" fill-rule="evenodd"></path></svg>