<svg id="icon" height="24" viewBox="0 0 24 24" width="24" xmlns="http://www.w3.org/2000/svg"><path d="M11.640 4.044 C 11.532 4.076,10.787 4.797,8.347 7.233 C 6.496 9.081,5.159 10.446,5.108 10.540 C 4.988 10.765,4.988 11.195,5.110 11.425 C 5.229 11.651,5.521 11.899,5.741 11.960 C 5.953 12.020,6.259 11.993,6.448 11.898 C 6.521 11.862,7.574 10.840,8.789 9.627 L 10.999 7.422 11.009 13.361 L 11.020 19.300 11.106 19.460 C 11.278 19.778,11.553 19.956,11.926 19.990 C 12.347 20.028,12.726 19.808,12.906 19.420 L 12.999 19.220 13.000 13.321 L 13.000 7.422 15.230 9.646 C 17.244 11.654,17.479 11.876,17.657 11.935 C 18.048 12.064,18.349 11.997,18.662 11.711 C 18.894 11.500,19.000 11.269,19.000 10.978 C 19.000 10.569,19.109 10.692,15.749 7.327 C 13.924 5.501,12.556 4.161,12.466 4.115 C 12.285 4.020,11.845 3.983,11.640 4.044 " fill="var(--db-icon-color, currentColor)" stroke="none" fill-rule="evenodd"></path></svg>