<svg id="icon" height="16" viewBox="0 0 16 16" width="16" xmlns="http://www.w3.org/2000/svg"><path d="M4.233 5.254 C 3.948 5.326,3.695 5.537,3.563 5.813 C 3.489 5.969,3.480 6.012,3.481 6.227 C 3.484 6.660,3.357 6.508,5.491 8.649 C 6.526 9.688,7.415 10.565,7.467 10.598 C 7.744 10.776,8.127 10.796,8.427 10.648 C 8.583 10.571,8.791 10.371,10.497 8.661 C 12.296 6.858,12.397 6.752,12.456 6.600 C 12.503 6.479,12.518 6.385,12.519 6.213 C 12.520 6.009,12.511 5.967,12.434 5.810 C 12.329 5.598,12.138 5.411,11.926 5.312 C 11.796 5.251,11.738 5.241,11.533 5.241 C 11.326 5.241,11.269 5.252,11.120 5.319 C 10.959 5.391,10.842 5.500,9.473 6.864 L 8.000 8.332 6.527 6.864 C 5.165 5.508,5.041 5.391,4.885 5.323 C 4.699 5.241,4.407 5.210,4.233 5.254 " fill="var(--db-icon-color, currentColor)" stroke="none" fill-rule="evenodd"></path></svg>