<svg id="icon" height="32" viewBox="0 0 32 32" width="32" xmlns="http://www.w3.org/2000/svg"><path d="M10.747 3.035 C 10.360 3.131,10.118 3.386,10.031 3.788 C 9.993 3.965,9.973 5.091,9.973 7.041 L 9.973 10.024 6.782 10.039 L 3.592 10.053 3.396 10.203 C 2.810 10.650,2.892 11.603,3.541 11.898 C 3.748 11.992,3.966 11.998,7.493 11.998 C 11.014 11.998,11.239 11.992,11.444 11.899 C 11.698 11.784,11.871 11.583,11.949 11.313 C 11.987 11.184,12.000 9.882,11.989 7.383 L 11.973 3.645 11.831 3.431 C 11.620 3.112,11.142 2.937,10.747 3.035 M20.728 3.045 C 20.436 3.115,20.240 3.272,20.111 3.537 C 20.002 3.764,20.000 3.824,20.001 7.497 C 20.002 11.002,20.008 11.240,20.100 11.440 C 20.217 11.694,20.336 11.807,20.600 11.918 C 20.771 11.989,21.288 12.000,24.518 11.999 C 28.032 11.998,28.252 11.992,28.459 11.898 C 29.108 11.603,29.190 10.650,28.604 10.203 L 28.408 10.053 25.218 10.039 L 22.027 10.024 22.027 7.041 C 22.027 5.091,22.007 3.965,21.969 3.788 C 21.845 3.214,21.324 2.901,20.728 3.045 M3.533 20.113 C 3.287 20.234,3.145 20.403,3.048 20.688 C 2.859 21.246,3.199 21.842,3.776 21.966 C 3.968 22.007,5.011 22.027,7.016 22.027 L 9.973 22.027 9.973 24.984 C 9.973 26.989,9.993 28.032,10.034 28.224 C 10.226 29.122,11.490 29.287,11.887 28.467 C 11.999 28.235,12.000 28.195,12.000 24.515 C 12.000 21.289,11.989 20.771,11.918 20.600 C 11.807 20.336,11.694 20.217,11.440 20.100 C 11.240 20.008,11.002 20.002,7.493 20.001 C 3.802 20.000,3.757 20.001,3.533 20.113 M20.560 20.100 C 20.306 20.217,20.192 20.336,20.082 20.600 C 20.011 20.771,20.000 21.289,20.000 24.515 C 20.000 28.195,20.001 28.235,20.113 28.467 C 20.510 29.287,21.774 29.122,21.966 28.224 C 22.007 28.032,22.027 26.989,22.027 24.984 L 22.027 22.027 24.984 22.027 C 26.989 22.027,28.032 22.007,28.224 21.966 C 29.065 21.786,29.284 20.642,28.569 20.169 L 28.355 20.027 24.564 20.014 C 20.975 20.002,20.762 20.006,20.560 20.100 " fill="var(--db-icon-color, currentColor)" stroke="none" fill-rule="evenodd"></path></svg>