<svg id="icon" height="32" viewBox="0 0 32 32" width="32" xmlns="http://www.w3.org/2000/svg"><path d="M18.800 7.036 C 18.712 7.057,18.580 7.105,18.507 7.143 C 18.319 7.239,10.252 15.298,10.148 15.493 C 10.015 15.745,9.981 15.975,10.038 16.251 C 10.089 16.499,10.218 16.635,14.257 20.679 C 17.855 24.282,18.455 24.862,18.661 24.932 C 18.989 25.044,19.137 25.034,19.443 24.881 C 19.766 24.719,19.940 24.474,19.981 24.123 C 20.046 23.580,20.137 23.684,16.092 19.667 L 12.400 16.000 16.091 12.333 C 19.956 8.494,19.996 8.449,19.999 7.997 C 20.001 7.707,19.770 7.293,19.534 7.163 C 19.294 7.031,19.019 6.984,18.800 7.036 " fill="var(--db-icon-color, currentColor)" stroke="none" fill-rule="evenodd"></path></svg>