<svg id="icon" height="16" viewBox="0 0 16 16" width="16" xmlns="http://www.w3.org/2000/svg"><path d="M9.520 3.502 C 9.454 3.521,9.352 3.558,9.293 3.585 C 9.220 3.619,8.595 4.226,7.288 5.531 C 5.116 7.699,5.242 7.547,5.241 8.000 C 5.240 8.446,5.110 8.288,7.237 10.421 C 8.266 11.452,9.161 12.330,9.227 12.372 C 9.480 12.534,9.767 12.571,10.057 12.480 C 10.499 12.343,10.766 11.947,10.741 11.471 C 10.721 11.077,10.779 11.148,9.123 9.487 L 7.641 8.000 9.123 6.513 C 10.822 4.809,10.733 4.922,10.733 4.467 C 10.733 4.233,10.724 4.181,10.662 4.048 C 10.468 3.635,9.938 3.381,9.520 3.502 " fill="var(--db-icon-color, currentColor)" stroke="none" fill-rule="evenodd"></path></svg>