<svg id="icon" height="16" viewBox="0 0 16 16" width="16" xmlns="http://www.w3.org/2000/svg"><path d="M9.233 3.440 C 8.947 3.500,8.640 3.766,8.531 4.047 C 8.447 4.263,8.447 4.569,8.531 4.787 C 8.589 4.935,8.666 5.019,9.603 5.961 C 10.159 6.519,10.613 6.983,10.613 6.994 C 10.613 7.004,8.840 7.016,6.673 7.020 L 2.732 7.027 2.554 7.114 C 2.347 7.216,2.185 7.384,2.084 7.600 C 2.026 7.725,2.016 7.784,2.016 8.000 C 2.016 8.216,2.026 8.275,2.084 8.400 C 2.226 8.705,2.509 8.924,2.838 8.984 C 2.947 9.004,4.164 9.013,6.758 9.013 L 10.519 9.013 9.584 9.953 C 9.069 10.470,8.623 10.936,8.591 10.989 C 8.383 11.339,8.434 11.825,8.713 12.135 C 8.944 12.391,9.186 12.494,9.517 12.475 C 9.922 12.451,9.816 12.541,11.901 10.459 C 12.925 9.436,13.797 8.546,13.840 8.479 C 14.021 8.199,14.040 7.840,13.892 7.521 C 13.817 7.360,13.672 7.208,11.939 5.475 C 10.192 3.728,10.055 3.597,9.889 3.520 C 9.693 3.429,9.435 3.397,9.233 3.440 " fill="var(--db-icon-color, currentColor)" stroke="none" fill-rule="evenodd"></path></svg>