<svg id="icon" height="20" viewBox="0 0 20 20" width="20" xmlns="http://www.w3.org/2000/svg"><path d="M8.178 5.062 C 7.636 5.249,7.372 5.813,7.570 6.357 C 7.637 6.539,7.741 6.651,9.362 8.275 L 11.082 10.000 9.362 11.725 C 7.741 13.349,7.637 13.461,7.570 13.643 C 7.394 14.126,7.585 14.633,8.038 14.884 C 8.195 14.971,8.249 14.983,8.483 14.983 C 8.707 14.982,8.777 14.968,8.917 14.894 C 9.039 14.828,9.655 14.231,11.236 12.644 C 13.287 10.586,13.392 10.475,13.445 10.305 C 13.518 10.068,13.515 9.875,13.434 9.660 C 13.374 9.499,13.167 9.283,11.176 7.294 C 9.053 5.175,8.978 5.104,8.802 5.053 C 8.569 4.985,8.392 4.987,8.178 5.062 " fill="var(--db-icon-color, currentColor)" stroke="none" fill-rule="evenodd"></path></svg>