<svg id="icon" height="20" viewBox="0 0 20 20" width="20" xmlns="http://www.w3.org/2000/svg"><path d="M5.578 8.826 C 5.026 9.023,4.674 9.615,4.768 10.190 C 4.932 11.196,6.158 11.596,6.877 10.877 C 7.485 10.269,7.312 9.255,6.536 8.875 C 6.293 8.756,5.840 8.733,5.578 8.826 M9.556 8.831 C 8.710 9.171,8.484 10.238,9.123 10.877 C 9.615 11.370,10.385 11.370,10.877 10.877 C 11.485 10.269,11.312 9.255,10.536 8.875 C 10.288 8.754,9.802 8.732,9.556 8.831 M13.556 8.831 C 12.710 9.171,12.484 10.238,13.123 10.877 C 13.615 11.370,14.385 11.370,14.877 10.877 C 15.485 10.269,15.312 9.255,14.536 8.875 C 14.288 8.754,13.802 8.732,13.556 8.831 " fill="var(--db-icon-color, currentColor)" stroke="none" fill-rule="evenodd"></path></svg>