<svg id="icon" height="20" viewBox="0 0 20 20" width="20" xmlns="http://www.w3.org/2000/svg"><path d="M9.767 6.031 C 9.721 6.045,9.623 6.088,9.550 6.126 C 9.351 6.230,4.194 11.407,4.099 11.599 C 3.921 11.956,4.002 12.406,4.298 12.702 C 4.581 12.984,4.976 13.069,5.357 12.930 C 5.540 12.863,5.665 12.745,7.775 10.638 L 10.000 8.417 12.225 10.638 C 14.335 12.745,14.460 12.863,14.643 12.930 C 15.448 13.223,16.231 12.452,15.934 11.660 C 15.874 11.499,15.631 11.247,13.176 8.794 C 10.559 6.181,10.478 6.104,10.302 6.053 C 10.111 5.997,9.905 5.989,9.767 6.031 " fill="var(--db-icon-color, currentColor)" stroke="none" fill-rule="evenodd"></path></svg>