<svg id="icon" height="24" viewBox="0 0 24 24" width="24" xmlns="http://www.w3.org/2000/svg"><path d="M13.717 5.052 C 13.638 5.082,13.533 5.135,13.482 5.170 C 13.432 5.205,11.997 6.615,10.294 8.302 C 8.351 10.227,7.164 11.432,7.109 11.536 C 6.986 11.768,6.986 12.232,7.109 12.464 C 7.243 12.717,13.341 18.748,13.610 18.894 C 13.793 18.993,13.852 19.005,14.062 18.989 C 14.326 18.969,14.518 18.889,14.694 18.725 C 14.947 18.490,15.058 18.058,14.960 17.691 C 14.912 17.513,14.729 17.320,12.165 14.750 L 9.421 11.999 12.127 9.290 C 13.615 7.799,14.865 6.517,14.905 6.440 C 15.014 6.232,15.006 5.753,14.891 5.535 C 14.798 5.359,14.628 5.197,14.429 5.094 C 14.262 5.008,13.893 4.986,13.717 5.052 " fill="var(--db-icon-color, currentColor)" stroke="none" fill-rule="evenodd"></path></svg>