<svg id="icon" height="16" viewBox="0 0 16 16" width="16" xmlns="http://www.w3.org/2000/svg"><path d="M7.731 5.263 C 7.664 5.281,7.556 5.328,7.491 5.366 C 7.426 5.405,6.542 6.269,5.501 7.312 C 3.801 9.014,3.622 9.201,3.559 9.345 C 3.316 9.898,3.610 10.544,4.181 10.710 C 4.395 10.772,4.689 10.750,4.894 10.657 C 5.036 10.592,5.215 10.422,6.527 9.113 L 8.000 7.641 9.487 9.123 C 11.192 10.823,11.078 10.733,11.533 10.733 C 11.772 10.733,11.816 10.725,11.952 10.658 C 12.382 10.447,12.611 9.970,12.496 9.522 C 12.472 9.428,12.427 9.308,12.395 9.256 C 12.317 9.123,8.682 5.483,8.533 5.388 C 8.300 5.239,7.997 5.192,7.731 5.263 " fill="var(--db-icon-color, currentColor)" stroke="none" fill-rule="evenodd"></path></svg>