<svg id="icon" height="32" viewBox="0 0 32 32" width="32" xmlns="http://www.w3.org/2000/svg"><path d="M14.643 7.064 C 14.478 7.124,13.530 8.043,10.306 11.264 C 8.037 13.531,6.141 15.459,6.095 15.547 C 6.046 15.637,6.009 15.834,6.009 16.000 C 6.009 16.166,6.046 16.363,6.095 16.453 C 6.141 16.541,8.035 18.467,10.303 20.731 C 13.193 23.618,14.486 24.874,14.625 24.931 C 14.901 25.045,15.137 25.034,15.412 24.893 C 15.742 24.725,15.942 24.455,15.981 24.124 C 16.045 23.582,16.162 23.718,12.648 20.229 L 9.413 17.019 17.253 17.016 C 22.601 17.014,25.158 16.995,25.297 16.956 C 25.409 16.925,25.592 16.808,25.705 16.695 C 26.252 16.148,25.981 15.207,25.230 15.046 C 25.036 15.004,22.648 14.986,17.184 14.984 L 9.413 14.981 12.648 11.771 C 15.281 9.157,15.894 8.521,15.948 8.353 C 16.035 8.077,15.980 7.656,15.829 7.435 C 15.589 7.085,15.048 6.916,14.643 7.064 " fill="var(--db-icon-color, currentColor)" stroke="none" fill-rule="evenodd"></path></svg>