<svg id="icon" height="24" viewBox="0 0 24 24" width="24" xmlns="http://www.w3.org/2000/svg"><path d="M4.726 5.046 C 3.865 5.293,3.747 6.466,4.540 6.894 C 4.689 6.974,4.757 6.980,5.500 6.980 C 6.410 6.980,6.500 6.956,6.771 6.640 C 7.217 6.118,6.948 5.225,6.289 5.042 C 6.104 4.990,4.908 4.993,4.726 5.046 M9.715 5.055 C 9.261 5.218,9.000 5.578,9.000 6.039 C 9.000 6.422,9.334 6.853,9.711 6.958 C 9.917 7.015,19.083 7.015,19.289 6.958 C 19.501 6.899,19.763 6.686,19.880 6.478 C 19.959 6.336,19.979 6.244,19.980 6.020 C 19.980 5.598,19.806 5.312,19.425 5.108 L 19.260 5.020 14.560 5.011 C 10.785 5.005,9.832 5.013,9.715 5.055 M4.712 11.053 C 4.630 11.079,4.484 11.156,4.388 11.225 C 3.889 11.580,3.892 12.406,4.394 12.789 C 4.646 12.981,4.804 13.008,5.596 12.993 C 6.226 12.981,6.317 12.971,6.460 12.893 C 6.818 12.701,6.978 12.424,6.979 11.997 C 6.980 11.729,6.966 11.671,6.859 11.498 C 6.719 11.272,6.482 11.090,6.257 11.038 C 6.031 10.986,4.889 10.997,4.712 11.053 M9.715 11.055 C 9.372 11.178,9.168 11.375,9.058 11.687 C 8.934 12.036,9.028 12.430,9.299 12.701 C 9.617 13.020,9.277 13.000,14.500 13.000 C 19.723 13.000,19.383 13.020,19.701 12.701 C 20.176 12.226,20.064 11.466,19.470 11.136 L 19.260 11.020 14.560 11.011 C 10.785 11.005,9.832 11.013,9.715 11.055 M4.695 17.057 C 4.466 17.129,4.256 17.299,4.128 17.516 C 4.037 17.672,4.020 17.746,4.020 18.000 C 4.020 18.257,4.036 18.327,4.133 18.492 C 4.263 18.713,4.502 18.901,4.732 18.963 C 4.828 18.989,5.175 19.001,5.596 18.993 C 6.226 18.981,6.317 18.971,6.460 18.893 C 6.817 18.701,6.978 18.424,6.979 18.000 C 6.980 17.753,6.962 17.668,6.880 17.522 C 6.763 17.314,6.501 17.101,6.289 17.042 C 6.074 16.982,4.898 16.993,4.695 17.057 M9.723 17.047 C 9.503 17.110,9.251 17.308,9.131 17.511 C 9.036 17.672,9.020 17.744,9.020 18.000 C 9.020 18.256,9.036 18.328,9.131 18.489 C 9.256 18.702,9.449 18.864,9.670 18.943 C 9.892 19.022,19.108 19.022,19.330 18.943 C 19.551 18.864,19.744 18.702,19.869 18.489 C 19.964 18.328,19.980 18.256,19.980 18.000 C 19.980 17.744,19.964 17.672,19.869 17.511 C 19.745 17.300,19.498 17.111,19.259 17.045 C 19.050 16.987,9.925 16.989,9.723 17.047 " fill="var(--db-icon-color, currentColor)" stroke="none" fill-rule="evenodd"></path></svg>