<svg id="icon" height="20" viewBox="0 0 20 20" width="20" xmlns="http://www.w3.org/2000/svg"><path d="M9.267 2.034 C 8.610 2.102,7.973 2.242,7.364 2.451 C 6.906 2.608,6.033 3.041,5.617 3.319 C 1.661 5.952,0.814 11.293,3.766 14.997 C 4.729 16.206,6.039 17.111,7.533 17.601 C 10.389 18.537,13.505 17.788,15.642 15.650 C 16.289 15.003,16.756 14.353,17.166 13.528 C 18.549 10.743,18.185 7.431,16.229 4.999 C 15.493 4.084,14.593 3.365,13.517 2.833 C 12.728 2.443,12.000 2.215,11.133 2.084 C 10.715 2.021,9.663 1.992,9.267 2.034 M8.641 7.158 L 10.033 8.549 10.325 8.267 C 10.485 8.111,11.123 7.481,11.742 6.867 L 12.867 5.750 13.575 6.458 L 14.283 7.167 12.867 8.583 L 11.450 10.000 12.867 11.417 L 14.283 12.833 13.575 13.542 L 12.867 14.250 11.449 12.833 L 10.031 11.417 8.627 12.828 L 7.223 14.239 6.522 13.539 L 5.822 12.838 7.211 11.432 C 7.975 10.658,8.600 10.014,8.600 10.001 C 8.600 9.987,7.975 9.343,7.211 8.569 L 5.822 7.162 6.519 6.464 C 6.902 6.081,7.224 5.767,7.233 5.767 C 7.242 5.767,7.876 6.393,8.641 7.158 " fill="var(--db-icon-color, currentColor)" stroke="none" fill-rule="evenodd"></path></svg>