<svg id="icon" height="24" viewBox="0 0 24 24" width="24" xmlns="http://www.w3.org/2000/svg"><path d="M8.710 3.055 C 8.440 3.155,8.219 3.359,8.095 3.620 L 8.001 3.820 8.000 5.909 L 8.000 7.997 5.870 8.009 C 3.773 8.020,3.737 8.021,3.580 8.106 C 3.246 8.287,3.044 8.591,3.010 8.965 C 2.992 9.162,3.005 9.230,3.097 9.418 C 3.157 9.539,3.270 9.692,3.350 9.758 C 3.649 10.004,3.592 10.000,6.537 10.000 L 9.220 9.999 9.420 9.905 C 9.660 9.791,9.807 9.642,9.917 9.400 C 9.996 9.225,9.998 9.150,9.999 6.560 C 9.999 4.739,9.986 3.850,9.955 3.741 C 9.890 3.505,9.701 3.256,9.499 3.137 C 9.280 3.009,8.930 2.972,8.710 3.055 M14.711 3.037 C 14.415 3.133,14.154 3.399,14.046 3.716 C 14.013 3.814,14.000 4.604,14.001 6.536 C 14.002 9.150,14.004 9.225,14.083 9.400 C 14.193 9.642,14.340 9.791,14.580 9.905 L 14.780 9.999 17.463 10.000 C 20.408 10.000,20.351 10.004,20.650 9.758 C 20.730 9.692,20.843 9.539,20.903 9.418 C 20.994 9.231,21.008 9.162,20.990 8.966 C 20.956 8.588,20.746 8.279,20.400 8.094 C 20.269 8.025,20.118 8.019,18.130 8.009 L 16.000 7.997 16.000 5.909 L 15.999 3.820 15.906 3.620 C 15.809 3.412,15.610 3.209,15.393 3.096 C 15.245 3.020,14.867 2.987,14.711 3.037 M3.680 14.061 C 3.429 14.140,3.224 14.323,3.097 14.582 C 3.006 14.769,2.992 14.838,3.010 15.034 C 3.022 15.162,3.068 15.339,3.114 15.428 C 3.221 15.637,3.512 15.893,3.712 15.953 C 3.824 15.986,4.467 16.000,5.935 16.000 L 8.000 16.000 8.001 18.090 C 8.002 20.105,8.005 20.186,8.083 20.360 C 8.249 20.727,8.567 20.954,8.966 20.990 C 9.163 21.008,9.230 20.994,9.421 20.901 C 9.678 20.775,9.890 20.519,9.958 20.252 C 9.985 20.142,10.000 19.169,9.999 17.432 C 9.998 14.851,9.996 14.775,9.917 14.600 C 9.816 14.378,9.669 14.219,9.460 14.106 C 9.301 14.021,9.283 14.020,6.580 14.012 C 4.334 14.006,3.829 14.014,3.680 14.061 M14.720 14.037 C 14.424 14.127,14.213 14.314,14.083 14.600 C 14.004 14.776,14.002 14.847,14.004 17.480 C 14.005 19.443,14.019 20.215,14.053 20.307 C 14.148 20.565,14.343 20.786,14.577 20.900 C 14.770 20.995,14.837 21.008,15.034 20.990 C 15.433 20.954,15.751 20.727,15.917 20.360 C 15.995 20.186,15.998 20.105,15.999 18.090 L 16.000 16.000 18.065 16.000 C 19.533 16.000,20.176 15.986,20.288 15.953 C 20.488 15.893,20.779 15.637,20.886 15.428 C 20.932 15.339,20.978 15.162,20.990 15.034 C 21.029 14.607,20.733 14.187,20.303 14.059 C 20.137 14.009,19.680 14.001,17.463 14.003 C 16.009 14.005,14.775 14.021,14.720 14.037 " fill="var(--db-icon-color, currentColor)" stroke="none" fill-rule="evenodd"></path></svg>