<svg id="icon" height="20" viewBox="0 0 20 20" width="20" xmlns="http://www.w3.org/2000/svg"><path d="M4.678 4.060 C 4.133 4.254,3.872 4.813,4.071 5.357 C 4.137 5.539,4.252 5.661,6.062 7.483 C 7.119 8.547,8.111 9.548,8.266 9.708 L 8.549 10.000 6.359 12.192 C 3.965 14.589,4.038 14.503,4.008 14.933 C 3.958 15.665,4.687 16.191,5.388 15.929 C 5.567 15.862,5.711 15.725,7.789 13.637 L 10.000 11.417 12.203 13.628 C 13.956 15.389,14.437 15.853,14.561 15.908 C 15.262 16.218,16.044 15.686,15.992 14.933 C 15.962 14.504,16.035 14.588,13.641 12.192 L 11.451 10.000 11.767 9.675 C 11.941 9.496,12.933 8.495,13.971 7.450 C 15.769 5.640,15.862 5.541,15.932 5.350 C 16.239 4.520,15.395 3.737,14.582 4.097 C 14.457 4.152,13.974 4.615,12.230 6.350 C 11.023 7.551,10.019 8.533,10.000 8.533 C 9.981 8.533,8.977 7.551,7.770 6.350 C 6.000 4.589,5.544 4.153,5.414 4.096 C 5.191 3.997,4.894 3.982,4.678 4.060 " fill="var(--db-icon-color, currentColor)" stroke="none" fill-rule="evenodd"></path></svg>