<svg id="icon" height="20" viewBox="0 0 20 20" width="20" xmlns="http://www.w3.org/2000/svg"><path d="M7.750 3.029 C 7.483 3.100,7.234 3.312,7.099 3.585 L 7.017 3.750 7.007 5.374 L 6.998 6.998 5.374 7.007 L 3.750 7.017 3.559 7.110 C 2.893 7.438,2.811 8.361,3.410 8.792 C 3.701 9.001,3.694 9.000,6.038 9.000 C 8.130 9.000,8.167 8.999,8.355 8.929 C 8.610 8.833,8.833 8.609,8.929 8.353 C 9.001 8.160,9.002 8.146,8.993 5.971 L 8.983 3.783 8.907 3.617 C 8.748 3.271,8.423 3.041,8.057 3.017 C 7.943 3.009,7.805 3.015,7.750 3.029 M11.883 3.017 C 11.865 3.023,11.796 3.037,11.730 3.048 C 11.564 3.075,11.317 3.247,11.202 3.413 C 11.000 3.708,11.000 3.704,11.000 6.038 C 11.000 8.130,11.001 8.167,11.071 8.355 C 11.167 8.610,11.391 8.833,11.647 8.929 C 11.840 9.001,11.853 9.002,14.062 8.993 L 16.283 8.983 16.462 8.884 C 17.038 8.565,17.173 7.844,16.745 7.368 C 16.660 7.274,16.514 7.156,16.420 7.106 L 16.250 7.017 14.625 7.007 L 13.000 6.998 13.000 5.433 C 13.000 3.916,12.998 3.863,12.929 3.678 C 12.844 3.452,12.622 3.214,12.400 3.112 C 12.259 3.047,11.958 2.991,11.883 3.017 M3.811 11.035 C 3.351 11.126,3.000 11.544,3.000 12.000 C 3.000 12.396,3.274 12.790,3.645 12.929 C 3.830 12.998,3.882 13.000,5.418 13.000 L 7.000 13.000 7.000 14.582 C 7.000 16.118,7.002 16.170,7.071 16.355 C 7.210 16.726,7.604 17.000,8.000 17.000 C 8.397 17.000,8.790 16.726,8.930 16.352 C 9.002 16.159,9.002 16.147,8.993 13.971 L 8.983 11.783 8.904 11.608 C 8.797 11.372,8.519 11.118,8.292 11.051 C 8.146 11.007,7.813 11.001,6.036 11.004 C 4.889 11.006,3.888 11.020,3.811 11.035 M11.694 11.052 C 11.482 11.118,11.198 11.382,11.096 11.608 L 11.017 11.783 11.007 13.971 C 10.998 16.147,10.998 16.159,11.070 16.352 C 11.210 16.726,11.603 17.000,12.000 17.000 C 12.396 17.000,12.790 16.726,12.929 16.355 C 12.998 16.170,13.000 16.118,13.000 14.583 L 13.000 13.002 14.625 12.993 C 16.247 12.983,16.250 12.983,16.406 12.906 C 17.169 12.531,17.189 11.478,16.441 11.110 L 16.250 11.017 14.050 11.010 C 12.206 11.005,11.825 11.012,11.694 11.052 " fill="var(--db-icon-color, currentColor)" stroke="none" fill-rule="evenodd"></path></svg>