<svg id="icon" height="16" viewBox="0 0 16 16" width="16" xmlns="http://www.w3.org/2000/svg"><path d="M6.320 3.530 C 6.239 3.548,6.119 3.591,6.053 3.624 C 5.916 3.694,2.393 7.188,2.200 7.445 C 1.991 7.725,1.945 8.101,2.081 8.427 C 2.135 8.558,2.344 8.777,4.051 10.488 C 5.552 11.993,5.989 12.416,6.094 12.468 C 6.352 12.595,6.710 12.594,6.974 12.467 C 7.354 12.283,7.603 11.802,7.522 11.409 C 7.453 11.076,7.425 11.041,6.379 9.993 L 5.402 9.013 9.203 9.013 C 11.824 9.013,13.053 9.004,13.162 8.984 C 13.491 8.924,13.774 8.705,13.915 8.400 C 14.008 8.199,14.013 7.845,13.926 7.627 C 13.841 7.413,13.660 7.220,13.446 7.114 L 13.268 7.027 9.367 7.020 C 7.222 7.016,5.467 7.004,5.467 6.994 C 5.467 6.983,5.903 6.537,6.437 6.001 C 7.320 5.114,7.411 5.014,7.460 4.880 C 7.543 4.652,7.557 4.483,7.508 4.292 C 7.400 3.868,7.119 3.599,6.707 3.522 C 6.521 3.488,6.510 3.488,6.320 3.530 " fill="var(--db-icon-color, currentColor)" stroke="none" fill-rule="evenodd"></path></svg>