<svg id="icon" height="32" viewBox="0 0 32 32" width="32" xmlns="http://www.w3.org/2000/svg"><path d="M16.761 7.038 C 16.206 7.170,15.874 7.787,16.052 8.353 C 16.106 8.522,16.717 9.155,19.352 11.771 L 22.587 14.981 14.816 14.984 C 9.352 14.986,6.964 15.004,6.770 15.046 C 6.019 15.207,5.748 16.148,6.295 16.695 C 6.408 16.808,6.591 16.925,6.703 16.956 C 6.842 16.995,9.400 17.014,14.747 17.016 L 22.587 17.019 19.375 20.203 C 17.112 22.446,16.139 23.445,16.081 23.585 C 15.738 24.420,16.555 25.270,17.375 24.931 C 17.514 24.874,18.807 23.618,21.697 20.731 C 23.965 18.467,25.859 16.541,25.905 16.453 C 26.016 16.246,26.016 15.754,25.906 15.547 C 25.859 15.459,23.953 13.523,21.670 11.244 C 18.093 7.674,17.491 7.094,17.307 7.045 C 17.068 6.981,17.008 6.980,16.761 7.038 " fill="var(--db-icon-color, currentColor)" stroke="none" fill-rule="evenodd"></path></svg>