<svg id="icon" height="20" viewBox="0 0 20 20" width="20" xmlns="http://www.w3.org/2000/svg"><path d="M7.678 4.062 C 7.136 4.249,6.872 4.813,7.070 5.357 C 7.137 5.540,7.255 5.665,9.362 7.775 L 11.583 10.000 9.362 12.225 C 7.255 14.335,7.137 14.460,7.070 14.643 C 6.894 15.126,7.085 15.633,7.538 15.884 C 7.695 15.971,7.749 15.983,7.983 15.983 C 8.207 15.982,8.277 15.968,8.417 15.893 C 8.540 15.828,9.274 15.112,11.236 13.144 C 13.774 10.599,13.892 10.476,13.945 10.305 C 14.018 10.068,14.015 9.875,13.934 9.660 C 13.874 9.499,13.631 9.247,11.176 6.794 C 8.559 4.181,8.478 4.104,8.302 4.053 C 8.069 3.985,7.892 3.988,7.678 4.062 " fill="var(--db-icon-color, currentColor)" stroke="none" fill-rule="evenodd"></path></svg>