<svg id="icon" height="20" viewBox="0 0 20 20" width="20" xmlns="http://www.w3.org/2000/svg"><path d="M4.683 7.058 C 4.362 7.173,4.155 7.384,4.048 7.707 C 3.974 7.928,3.998 8.201,4.111 8.419 C 4.174 8.543,4.850 9.236,6.856 11.237 C 9.491 13.865,9.519 13.891,9.712 13.949 C 9.940 14.018,10.227 14.005,10.403 13.917 C 10.465 13.886,11.721 12.658,13.192 11.188 C 15.632 8.752,15.873 8.501,15.934 8.340 C 16.111 7.869,15.897 7.334,15.441 7.110 C 15.287 7.035,15.205 7.017,15.017 7.017 C 14.552 7.017,14.700 6.892,12.225 9.362 L 10.000 11.582 7.792 9.376 C 5.969 7.555,5.555 7.157,5.419 7.097 C 5.193 6.998,4.895 6.982,4.683 7.058 " fill="var(--db-icon-color, currentColor)" stroke="none" fill-rule="evenodd"></path></svg>