<svg id="icon" height="24" viewBox="0 0 24 24" width="24" xmlns="http://www.w3.org/2000/svg"><path d="M12.760 5.035 C 12.553 5.103,12.405 5.203,12.252 5.376 C 12.001 5.661,11.942 5.970,12.065 6.343 C 12.124 6.521,12.346 6.756,14.354 8.770 L 16.578 11.000 10.719 11.000 C 6.806 11.000,4.811 11.014,4.711 11.042 C 4.499 11.101,4.237 11.314,4.120 11.522 C 4.038 11.668,4.020 11.753,4.021 12.000 C 4.022 12.431,4.187 12.707,4.560 12.905 C 4.695 12.977,4.932 12.980,10.638 12.991 L 16.577 13.001 14.354 15.231 C 12.346 17.245,12.124 17.479,12.065 17.657 C 11.929 18.068,12.037 18.450,12.374 18.746 C 12.672 19.008,13.093 19.072,13.441 18.907 C 13.524 18.867,14.881 17.538,16.746 15.670 C 19.736 12.674,19.912 12.490,19.955 12.312 C 20.017 12.052,20.011 11.785,19.939 11.609 C 19.860 11.417,13.695 5.234,13.463 5.113 C 13.292 5.024,12.919 4.983,12.760 5.035 " fill="var(--db-icon-color, currentColor)" stroke="none" fill-rule="evenodd"></path></svg>