<svg id="icon" height="20" viewBox="0 0 20 20" width="20" xmlns="http://www.w3.org/2000/svg"><path d="M6.695 5.052 C 6.503 5.111,6.229 5.353,6.137 5.542 C 6.015 5.795,5.988 6.003,6.047 6.234 C 6.143 6.605,6.417 6.883,6.767 6.964 C 6.862 6.986,7.764 6.999,9.250 6.999 L 11.583 7.000 8.611 9.975 C 6.977 11.611,5.612 13.002,5.579 13.067 C 5.483 13.249,5.494 13.667,5.600 13.883 C 5.823 14.339,6.355 14.592,6.824 14.467 C 6.974 14.427,7.167 14.241,9.991 11.422 L 12.998 8.420 13.007 10.835 L 13.017 13.250 13.094 13.406 C 13.343 13.906,13.931 14.123,14.408 13.889 C 14.613 13.789,14.789 13.613,14.907 13.393 L 14.983 13.250 14.992 9.517 C 15.002 5.423,15.012 5.634,14.803 5.370 C 14.748 5.301,14.609 5.193,14.493 5.130 L 14.283 5.017 10.567 5.010 C 7.414 5.005,6.827 5.011,6.695 5.052 " fill="var(--db-icon-color, currentColor)" stroke="none" fill-rule="evenodd"></path></svg>