<svg id="icon" height="32" viewBox="0 0 32 32" width="32" xmlns="http://www.w3.org/2000/svg"><path d="M10.586 9.088 C 10.497 9.126,10.350 9.243,10.258 9.348 C 9.811 9.857,9.922 10.554,10.495 10.836 L 10.747 10.960 15.141 10.987 L 19.535 11.013 13.843 16.739 C 10.242 20.360,8.122 22.530,8.075 22.644 C 7.878 23.116,8.115 23.669,8.613 23.899 C 8.883 24.024,9.142 24.024,9.413 23.900 C 9.565 23.831,11.264 22.151,15.280 18.101 L 20.933 12.400 20.960 16.773 C 20.985 20.807,20.994 21.160,21.080 21.317 C 21.400 21.903,22.284 22.008,22.719 21.513 C 22.811 21.408,22.910 21.263,22.937 21.191 C 22.967 21.113,22.987 18.754,22.987 15.349 C 22.987 9.697,22.986 9.637,22.878 9.463 C 22.813 9.359,22.657 9.232,22.494 9.150 L 22.219 9.013 16.483 9.015 C 11.863 9.017,10.715 9.031,10.586 9.088 " fill="var(--db-icon-color, currentColor)" stroke="none" fill-rule="evenodd"></path></svg>