<svg width="12" height="12" viewBox="0 0 12 12" fill="none" xmlns="http://www.w3.org/2000/svg">
<g clip-path="url(#clip0_232_333)">
<path fill-rule="evenodd" clip-rule="evenodd" d="M6.86251 1.22814C7.40629 1.22814 7.83751 1.65936 7.85629 2.20314V2.80314L8.00629 2.89686L8.55001 2.57814C8.70001 2.48436 8.86873 2.44686 9.03751 2.44686C9.37501 2.44686 9.71251 2.61564 9.88129 2.93436L10.6687 4.24686C10.7625 4.41564 10.8 4.58436 10.8 4.75314C10.8 5.05314 10.65 5.42814 10.2937 5.61564L9.75001 5.91564V6.12186L10.275 6.44064C10.65 6.66564 10.725 6.92814 10.7625 7.28436C10.7625 7.47186 10.725 7.64064 10.6313 7.79064L9.88129 9.04686C9.71251 9.34686 9.37501 9.53436 9.03751 9.53436C8.85001 9.53436 8.68129 9.49686 8.53129 9.40314L7.98751 9.06564L7.80001 9.17814V9.77814C7.80001 10.3219 7.35001 10.7719 6.80629 10.7719H5.17501C4.63129 10.7719 4.20001 10.3219 4.20001 9.77814V9.17814L4.01251 9.06564L3.46873 9.40314C3.31873 9.47814 3.13129 9.53436 2.96263 9.53442C2.68969 9.53418 2.31961 9.3912 2.11873 9.04686L1.36873 7.79064C1.27501 7.64064 1.23751 7.45314 1.23751 7.28436C1.23751 6.92814 1.40629 6.62814 1.72501 6.44064L2.25001 6.12186V5.91564L1.70629 5.61564C1.40629 5.44686 1.20001 5.10936 1.20001 4.75314C1.20001 4.58436 1.23751 4.41564 1.33129 4.24686L2.11873 2.93436C2.30629 2.61564 2.62501 2.44686 2.96251 2.44686C3.13129 2.44686 3.30001 2.48436 3.45001 2.57814L3.99373 2.89686L4.14373 2.80314V2.20314C4.14373 1.65936 4.59373 1.22814 5.13751 1.22814H6.86251ZM6.65629 2.40936H5.34373V3.47814L3.99373 4.28436L3.03751 3.72186L2.47501 4.67814L3.43129 5.20314L3.45001 6.81564L2.51251 7.35936L3.03751 8.25936L3.97501 7.69686L5.40001 8.46564V9.57186H6.60001V8.46564L8.00629 7.69686L8.96251 8.25936L9.48751 7.35936L8.53129 6.81564L8.56873 5.20314L9.52501 4.67814L8.96251 3.72186L7.98751 4.28436L6.65629 3.47814V2.40936ZM6.00945 4.8C6.67089 4.8 7.20001 5.32913 7.20001 5.99057C7.20001 6.67087 6.67089 7.2 6.00945 7.2C5.32914 7.2 4.80001 6.67087 4.80001 5.99057C4.80001 5.32913 5.32914 4.8 6.00945 4.8Z" fill="#1A1C1F"/>
</g>
<defs>
<clipPath id="clip0_232_333">
<rect width="12" height="12" fill="white"/>
</clipPath>
</defs>
</svg>
