<svg width="12" height="12" viewBox="0 0 12 12" fill="none" xmlns="http://www.w3.org/2000/svg">
<g clip-path="url(#clip0_232_335)">
<path fill-rule="evenodd" clip-rule="evenodd" d="M10.5 3.6C10.5 2.6064 9.6936 1.8 8.7 1.8H7.5C7.1628 1.8 6.9 2.0814 6.9 2.4C6.9 2.7378 7.1628 3 7.5 3H8.7C9.0186 3 9.3 3.2628 9.3 3.6V8.4C9.3 8.7378 9.0186 9 8.7 9H7.5C7.1628 9 6.9 9.2628 6.9 9.6C6.9 9.9186 7.1628 10.2 7.5 10.2H8.7C9.6936 10.2 10.5 9.3936 10.5 8.4V3.6ZM1.5 6C1.5 6.3186 1.7622 6.6 2.1 6.6H5.4564L4.6872 7.3686C4.5564 7.4814 4.5 7.6314 4.5 7.8C4.5 8.1372 4.7622 8.4 5.1 8.4C5.25 8.4 5.4 8.3436 5.5314 8.2314L7.3314 6.4122C7.4436 6.3 7.5 6.15 7.5 6C7.5 5.85 7.4436 5.7 7.3314 5.5686L5.5314 3.7686C5.4186 3.6564 5.25 3.6 5.1 3.6C4.7814 3.6 4.5 3.8622 4.5 4.2C4.5 4.35 4.5564 4.5186 4.6872 4.6314L5.4564 5.4H2.1C1.7622 5.4 1.5 5.6628 1.5 6Z" fill="#1A1C1F"/>
</g>
<defs>
<clipPath id="clip0_232_335">
<rect width="12" height="12" fill="white"/>
</clipPath>
</defs>
</svg>
