<svg width="14" height="14" viewBox="0 0 14 14" fill="none" xmlns="http://www.w3.org/2000/svg">
<g clip-path="url(#clip0_187_52)">
<path fill-rule="evenodd" clip-rule="evenodd" d="M12.25 4.20001C12.25 3.04081 11.3092 2.10001 10.15 2.10001H8.75C8.3566 2.10001 8.05 2.42831 8.05 2.80001C8.05 3.19411 8.3566 3.50001 8.75 3.50001H10.15C10.5217 3.50001 10.85 3.80661 10.85 4.20001V9.80001C10.85 10.1941 10.5217 10.5 10.15 10.5H8.75C8.3566 10.5 8.05 10.8066 8.05 11.2C8.05 11.5717 8.3566 11.9 8.75 11.9H10.15C11.3092 11.9 12.25 10.9592 12.25 9.80001V4.20001ZM1.75 7.00001C1.75 7.37171 2.0559 7.70001 2.45 7.70001H6.3658L5.4684 8.59671C5.3158 8.72831 5.25 8.90331 5.25 9.10001C5.25 9.49341 5.5559 9.80001 5.95 9.80001C6.125 9.80001 6.3 9.73421 6.4533 9.60331L8.5533 7.48091C8.6842 7.35001 8.75 7.17501 8.75 7.00001C8.75 6.82501 8.6842 6.65001 8.5533 6.49671L6.4533 4.39671C6.3217 4.26581 6.125 4.20001 5.95 4.20001C5.5783 4.20001 5.25 4.50591 5.25 4.90001C5.25 5.07501 5.3158 5.27171 5.4684 5.40331L6.3658 6.30001H2.45C2.0559 6.30001 1.75 6.60661 1.75 7.00001Z" fill="#1A1C1F"/>
</g>
<defs>
<clipPath id="clip0_187_52">
<rect width="14" height="14" fill="white"/>
</clipPath>
</defs>
</svg>
