<svg width="14" height="14" viewBox="0 0 14 14" fill="none" xmlns="http://www.w3.org/2000/svg">
<g clip-path="url(#clip0_187_65)">
<path fill-rule="evenodd" clip-rule="evenodd" d="M1.75 9.80001C1.75 10.9593 2.69066 11.9 3.85 11.9H5.25C5.64375 11.9 5.95 11.5718 5.95 11.2C5.95 10.8063 5.64375 10.5 5.25 10.5H3.85C3.47816 10.5 3.15 10.1938 3.15 9.80001V4.20001C3.15 3.80626 3.47816 3.50001 3.85 3.50001H5.25C5.64375 3.50001 5.95 3.19376 5.95 2.80001C5.95 2.42817 5.64375 2.10001 5.25 2.10001H3.85C2.69066 2.10001 1.75 3.04067 1.75 4.20001V9.80001ZM5.25 7.00001C5.25 7.37185 5.55625 7.70001 5.95 7.70001H9.86566L8.96875 8.59685C8.81566 8.72817 8.75 8.90317 8.75 9.10001C8.75 9.49376 9.05625 9.80001 9.45 9.80001C9.625 9.80001 9.8 9.73435 9.95316 9.60317L12.0532 7.48126C12.1843 7.35001 12.25 7.17501 12.25 7.00001C12.25 6.82501 12.1843 6.65001 12.0532 6.49685L9.95316 4.39685C9.82184 4.26567 9.625 4.20001 9.45 4.20001C9.07816 4.20001 8.75 4.50626 8.75 4.90001C8.75 5.07501 8.81566 5.27185 8.96875 5.40317L9.86566 6.30001H5.95C5.55625 6.30001 5.25 6.60626 5.25 7.00001Z" fill="#1A1C1F"/>
</g>
<defs>
<clipPath id="clip0_187_65">
<rect width="14" height="14" fill="white"/>
</clipPath>
</defs>
</svg>
