<svg width="12" height="12" viewBox="0 0 12 12" fill="none" xmlns="http://www.w3.org/2000/svg">
<g clip-path="url(#clip0_232_337)">
<path fill-rule="evenodd" clip-rule="evenodd" d="M1.5 8.39999C1.5 9.39371 2.30628 10.2 3.3 10.2H4.5C4.8375 10.2 5.1 9.91871 5.1 9.59999C5.1 9.26249 4.8375 8.99999 4.5 8.99999H3.3C2.98128 8.99999 2.7 8.73749 2.7 8.39999V3.59999C2.7 3.26249 2.98128 2.99999 3.3 2.99999H4.5C4.8375 2.99999 5.1 2.73749 5.1 2.39999C5.1 2.08127 4.8375 1.79999 4.5 1.79999H3.3C2.30628 1.79999 1.5 2.60627 1.5 3.59999V8.39999ZM4.5 5.99999C4.5 6.31871 4.7625 6.59999 5.1 6.59999H8.45628L7.6875 7.36871C7.55628 7.48127 7.5 7.63127 7.5 7.79999C7.5 8.13749 7.7625 8.39999 8.1 8.39999C8.25 8.39999 8.4 8.34371 8.53128 8.23127L10.3313 6.41249C10.4437 6.29999 10.5 6.14999 10.5 5.99999C10.5 5.84999 10.4437 5.69999 10.3313 5.56871L8.53128 3.76871C8.41872 3.65627 8.25 3.59999 8.1 3.59999C7.78128 3.59999 7.5 3.86249 7.5 4.19999C7.5 4.34999 7.55628 4.51871 7.6875 4.63127L8.45628 5.39999H5.1C4.7625 5.39999 4.5 5.66249 4.5 5.99999Z" fill="#1A1C1F"/>
</g>
<defs>
<clipPath id="clip0_232_337">
<rect width="12" height="12" fill="white"/>
</clipPath>
</defs>
</svg>
