<svg width="24" height="24" viewBox="0 0 24 24" fill="none" xmlns="http://www.w3.org/2000/svg">
<g clip-path="url(#clip0_187_98)">
<path fill-rule="evenodd" clip-rule="evenodd" d="M9.5 2C13.6563 2 17.0313 5.37358 17.0313 9.49685C17.0313 11.2149 16.4688 12.808 15.5 14.0887L21.7188 20.3048C22.0938 20.6797 22.0938 21.3044 21.7188 21.7105C21.3438 22.0854 20.7813 22.0854 20.375 21.773L14.0938 15.4943C12.8125 16.4627 11.2188 17.025 9.5 17.025C5.375 17.025 2 13.6514 2 9.49685C2 5.37358 5.375 2 9.5 2ZM9.5 3.99916C6.4688 3.99916 4 6.46692 4 9.49685C4 12.5581 6.4688 15.0258 9.5 15.0258C12.5625 15.0258 15.0313 12.5581 15.0313 9.49685C15.0313 6.46692 12.5625 3.99916 9.5 3.99916Z" fill="#1A1C1F"/>
</g>
<defs>
<clipPath id="clip0_187_98">
<rect width="24" height="24" fill="white"/>
</clipPath>
</defs>
</svg>
