<svg width="12" height="12" viewBox="0 0 12 12" fill="none" xmlns="http://www.w3.org/2000/svg">
<g clip-path="url(#clip0_232_343)">
<path fill-rule="evenodd" clip-rule="evenodd" d="M5.40001 1.20001C7.72196 1.20001 9.60001 3.07806 9.60001 5.40001C9.60001 6.35611 9.27806 7.20977 8.77074 7.91221L10.6244 9.76587C10.7415 9.88294 10.8 10.039 10.8 10.1951C10.8 10.526 10.5374 10.8 10.2171 10.8C10.0683 10.8 9.9122 10.7415 9.76587 10.6244L7.91221 8.77074C7.20977 9.29757 6.3366 9.60001 5.40001 9.60001C3.07806 9.60001 1.20001 7.72196 1.20001 5.40001C1.20001 3.07806 3.07806 1.20001 5.40001 1.20001ZM5.39513 2.40977C3.7366 2.40977 2.40977 3.7366 2.40977 5.39513C2.40977 7.05367 3.7366 8.40001 5.39513 8.40001C7.05367 8.40001 8.40001 7.05367 8.40001 5.39513C8.40001 3.7366 7.05367 2.40977 5.39513 2.40977Z" fill="#1A1C1F"/>
</g>
<defs>
<clipPath id="clip0_232_343">
<rect width="12" height="12" fill="white"/>
</clipPath>
</defs>
</svg>
