<svg width="20" height="20" viewBox="0 0 20 20" fill="none" xmlns="http://www.w3.org/2000/svg">
<g clip-path="url(#clip0_187_87)">
<path fill-rule="evenodd" clip-rule="evenodd" d="M3 10C3 9.4375 3.4375 9 4 9H12.7188C13.2812 9 13.7188 9.4375 13.7188 10C13.7188 10.5312 13.2812 11 12.7188 11H4C3.4375 11 3 10.5312 3 10ZM3 15C3 14.4375 3.4375 14 4 14H16C16.5625 14 17 14.4375 17 15C17 15.5625 16.5625 16 16 16H4C3.4375 16 3 15.5625 3 15ZM3 5C3 4.4375 3.4375 4 4 4H16C16.5625 4 17 4.4375 17 5C17 5.5625 16.5625 6 16 6H4C3.4375 6 3 5.5625 3 5Z" fill="#1A1C1F"/>
</g>
<defs>
<clipPath id="clip0_187_87">
<rect width="20" height="20" fill="white"/>
</clipPath>
</defs>
</svg>
