<svg width="12" height="12" viewBox="0 0 12 12" fill="none" xmlns="http://www.w3.org/2000/svg">
<g clip-path="url(#clip0_232_341)">
<path fill-rule="evenodd" clip-rule="evenodd" d="M1.79999 6.00002C1.79999 5.66252 2.06249 5.40002 2.39999 5.40002H7.63127C7.96871 5.40002 8.23127 5.66252 8.23127 6.00002C8.23127 6.31874 7.96871 6.60002 7.63127 6.60002H2.39999C2.06249 6.60002 1.79999 6.31874 1.79999 6.00002ZM1.79999 9.00002C1.79999 8.66252 2.06249 8.40002 2.39999 8.40002H9.59999C9.93749 8.40002 10.2 8.66252 10.2 9.00002C10.2 9.33752 9.93749 9.60002 9.59999 9.60002H2.39999C2.06249 9.60002 1.79999 9.33752 1.79999 9.00002ZM1.79999 3.00002C1.79999 2.66252 2.06249 2.40002 2.39999 2.40002H9.59999C9.93749 2.40002 10.2 2.66252 10.2 3.00002C10.2 3.33752 9.93749 3.60002 9.59999 3.60002H2.39999C2.06249 3.60002 1.79999 3.33752 1.79999 3.00002Z" fill="#1A1C1F"/>
</g>
<defs>
<clipPath id="clip0_232_341">
<rect width="12" height="12" fill="white"/>
</clipPath>
</defs>
</svg>
