<svg width="24" height="24" viewBox="0 0 24 24" fill="none" xmlns="http://www.w3.org/2000/svg">
<g clip-path="url(#clip0_187_85)">
<path fill-rule="evenodd" clip-rule="evenodd" d="M4 18C4 17.4688 4.4688 17 5.0312 17H18.9688C19.5312 17 20 17.4688 20 18C20 18.5625 19.5312 19 18.9688 19H5.0312C4.4688 19 4 18.5625 4 18ZM4 12C4 11.4688 4.4688 11 5.0312 11H15.5C16.0312 11 16.5 11.4688 16.5 12C16.5 12.5312 16.0312 13 15.5 13H5.0312C4.4688 13 4 12.5312 4 12ZM4 6C4 5.4375 4.4688 5 5.0312 5H18.9688C19.5312 5 20 5.4375 20 6C20 6.5312 19.5312 7 18.9688 7H5.0312C4.4688 7 4 6.5312 4 6Z" fill="#1A1C1F"/>
</g>
<defs>
<clipPath id="clip0_187_85">
<rect width="24" height="24" fill="white"/>
</clipPath>
</defs>
</svg>
