<svg width="20" height="20" viewBox="0 0 20 20" fill="none" xmlns="http://www.w3.org/2000/svg">
<g clip-path="url(#clip0_187_9)">
<path fill-rule="evenodd" clip-rule="evenodd" d="M10.0003 11.25C9.30984 11.25 8.75 10.6897 8.75 10C8.75 9.31032 9.30984 8.75 10.0003 8.75C10.6908 8.75 11.25 9.31032 11.25 10C11.25 10.6897 10.6908 11.25 10.0003 11.25ZM14.0003 11.25C13.3098 11.25 12.75 10.6897 12.75 10C12.75 9.31032 13.3098 8.75 14.0003 8.75C14.6908 8.75 15.25 9.31032 15.25 10C15.25 10.6897 14.6908 11.25 14.0003 11.25ZM5.99969 11.25C5.30922 11.25 4.75 10.6902 4.75 9.99969C4.75 9.30984 5.30922 8.75 5.99969 8.75C6.69016 8.75 7.25 9.30984 7.25 9.99969C7.25 10.6902 6.69016 11.25 5.99969 11.25Z" fill="#1A1C1F"/>
</g>
<defs>
<clipPath id="clip0_187_9">
<rect width="20" height="20" fill="white"/>
</clipPath>
</defs>
</svg>
