<svg width="14" height="14" viewBox="0 0 14 14" fill="none" xmlns="http://www.w3.org/2000/svg">
<g clip-path="url(#clip0_187_26)">
<path fill-rule="evenodd" clip-rule="evenodd" d="M7.875 6.99978C7.875 7.48311 7.48277 7.875 7 7.875C6.51723 7.875 6.125 7.48311 6.125 6.99978C6.125 6.51645 6.51723 6.125 7 6.125C7.48277 6.125 7.875 6.51645 7.875 6.99978ZM7.875 4.19978C7.875 4.68311 7.48277 5.075 7 5.075C6.51723 5.075 6.125 4.68311 6.125 4.19978C6.125 3.71645 6.51723 3.325 7 3.325C7.48277 3.325 7.875 3.71645 7.875 4.19978ZM7.875 9.80021C7.875 10.2835 7.48311 10.675 6.99978 10.675C6.51689 10.675 6.125 10.2835 6.125 9.80021C6.125 9.31689 6.51689 8.925 6.99978 8.925C7.48311 8.925 7.875 9.31689 7.875 9.80021Z" fill="#1A1C1F"/>
</g>
<defs>
<clipPath id="clip0_187_26">
<rect width="14" height="14" fill="white"/>
</clipPath>
</defs>
</svg>
