<svg width="12" height="12" viewBox="0 0 12 12" fill="none" xmlns="http://www.w3.org/2000/svg">
<g clip-path="url(#clip0_232_329)">
<path fill-rule="evenodd" clip-rule="evenodd" d="M6.00016 6.75C5.58588 6.75 5.24998 6.41381 5.24998 6C5.24998 5.58619 5.58588 5.25 6.00016 5.25C6.41444 5.25 6.74998 5.58619 6.74998 6C6.74998 6.41381 6.41444 6.75 6.00016 6.75ZM8.40016 6.75C7.98588 6.75 7.64998 6.41381 7.64998 6C7.64998 5.58619 7.98588 5.25 8.40016 5.25C8.81444 5.25 9.14998 5.58619 9.14998 6C9.14998 6.41381 8.81444 6.75 8.40016 6.75ZM3.59979 6.75C3.18551 6.75 2.84998 6.4141 2.84998 5.99981C2.84998 5.5859 3.18551 5.25 3.59979 5.25C4.01407 5.25 4.34998 5.5859 4.34998 5.99981C4.34998 6.4141 4.01407 6.75 3.59979 6.75Z" fill="#1A1C1F"/>
</g>
<defs>
<clipPath id="clip0_232_329">
<rect width="12" height="12" fill="white"/>
</clipPath>
</defs>
</svg>
