<svg width="14" height="14" viewBox="0 0 14 14" fill="none" xmlns="http://www.w3.org/2000/svg">
<g clip-path="url(#clip0_187_13)">
<path fill-rule="evenodd" clip-rule="evenodd" d="M7.00023 7.875C6.5169 7.875 6.12501 7.48277 6.12501 7C6.12501 6.51723 6.5169 6.125 7.00023 6.125C7.48356 6.125 7.87501 6.51723 7.87501 7C7.87501 7.48277 7.48356 7.875 7.00023 7.875ZM9.80023 7.875C9.3169 7.875 8.92501 7.48277 8.92501 7C8.92501 6.51723 9.3169 6.125 9.80023 6.125C10.2836 6.125 10.675 6.51723 10.675 7C10.675 7.48277 10.2836 7.875 9.80023 7.875ZM4.19979 7.875C3.71647 7.875 3.32501 7.48311 3.32501 6.99978C3.32501 6.51689 3.71647 6.125 4.19979 6.125C4.68312 6.125 5.07501 6.51689 5.07501 6.99978C5.07501 7.48311 4.68312 7.875 4.19979 7.875Z" fill="#1A1C1F"/>
</g>
<defs>
<clipPath id="clip0_187_13">
<rect width="14" height="14" fill="white"/>
</clipPath>
</defs>
</svg>
