<svg width="12" height="12" viewBox="0 0 12 12" fill="none" xmlns="http://www.w3.org/2000/svg">
<g clip-path="url(#clip0_232_331)">
<path fill-rule="evenodd" clip-rule="evenodd" d="M6.75 5.99981C6.75 6.41409 6.41381 6.75 6 6.75C5.58619 6.75 5.25 6.41409 5.25 5.99981C5.25 5.58553 5.58619 5.25 6 5.25C6.41381 5.25 6.75 5.58553 6.75 5.99981ZM6.75 3.59981C6.75 4.01409 6.41381 4.35 6 4.35C5.58619 4.35 5.25 4.01409 5.25 3.59981C5.25 3.18553 5.58619 2.85 6 2.85C6.41381 2.85 6.75 3.18553 6.75 3.59981ZM6.75 8.40019C6.75 8.81447 6.4141 9.15 5.99981 9.15C5.5859 9.15 5.25 8.81447 5.25 8.40019C5.25 7.9859 5.5859 7.65 5.99981 7.65C6.4141 7.65 6.75 7.9859 6.75 8.40019Z" fill="#1A1C1F"/>
</g>
<defs>
<clipPath id="clip0_232_331">
<rect width="12" height="12" fill="white"/>
</clipPath>
</defs>
</svg>
