<svg width="20" height="20" viewBox="0 0 20 20" fill="none" xmlns="http://www.w3.org/2000/svg">
<g clip-path="url(#clip0_187_22)">
<path fill-rule="evenodd" clip-rule="evenodd" d="M11.25 9.99969C11.25 10.6902 10.6897 11.25 10 11.25C9.31032 11.25 8.75 10.6902 8.75 9.99969C8.75 9.30922 9.31032 8.75 10 8.75C10.6897 8.75 11.25 9.30922 11.25 9.99969ZM11.25 5.99969C11.25 6.69016 10.6897 7.25 10 7.25C9.31032 7.25 8.75 6.69016 8.75 5.99969C8.75 5.30922 9.31032 4.75 10 4.75C10.6897 4.75 11.25 5.30922 11.25 5.99969ZM11.25 14.0003C11.25 14.6908 10.6902 15.25 9.99969 15.25C9.30984 15.25 8.75 14.6908 8.75 14.0003C8.75 13.3098 9.30984 12.75 9.99969 12.75C10.6902 12.75 11.25 13.3098 11.25 14.0003Z" fill="#1A1C1F"/>
</g>
<defs>
<clipPath id="clip0_187_22">
<rect width="20" height="20" fill="white"/>
</clipPath>
</defs>
</svg>
