<svg id="icon" height="32" viewBox="0 0 32 32" width="32" xmlns="http://www.w3.org/2000/svg"><path d="M19.747 3.038 C 19.527 3.091,19.221 3.324,19.127 3.509 C 19.087 3.589,18.353 5.760,17.496 8.334 L 15.937 13.014 13.663 13.001 L 11.390 12.987 9.858 10.587 C 9.015 9.267,8.220 8.074,8.090 7.937 C 7.769 7.596,7.287 7.295,6.817 7.141 C 6.436 7.016,6.385 7.013,4.587 7.013 L 2.747 7.013 2.515 7.146 C 2.021 7.429,1.867 8.035,2.167 8.518 C 2.452 8.976,2.485 8.983,4.516 9.013 L 6.285 9.040 6.462 9.170 C 6.689 9.336,6.613 9.226,7.907 11.253 L 9.014 12.987 7.454 13.013 C 6.273 13.034,5.861 13.058,5.760 13.113 C 5.346 13.340,5.124 13.801,5.232 14.209 C 5.430 14.959,6.645 18.598,6.801 18.907 C 7.274 19.848,8.190 20.580,9.280 20.889 C 9.609 20.982,10.017 20.987,17.467 20.987 L 25.307 20.987 25.731 20.864 C 26.802 20.554,27.715 19.818,28.182 18.888 C 28.533 18.189,29.607 15.167,29.805 14.319 C 30.245 12.435,29.906 9.938,28.951 8.032 C 27.586 5.308,24.988 3.549,21.707 3.126 C 20.930 3.026,19.972 2.983,19.747 3.038 M21.371 5.096 C 24.096 5.453,26.143 6.788,27.197 8.898 C 27.408 9.320,27.701 10.194,27.807 10.720 C 27.910 11.232,28.000 12.114,28.000 12.619 L 28.000 13.013 23.040 13.013 C 20.312 13.013,18.080 12.996,18.080 12.974 C 18.080 12.926,20.715 5.013,20.730 5.013 C 20.736 5.013,21.024 5.050,21.371 5.096 M27.506 15.053 C 27.493 15.090,27.296 15.636,27.068 16.267 C 26.377 18.185,26.209 18.464,25.555 18.786 L 25.202 18.960 17.538 18.974 C 9.979 18.988,9.870 18.986,9.588 18.881 C 9.203 18.737,8.896 18.502,8.695 18.199 C 8.586 18.034,8.371 17.461,8.070 16.534 C 7.818 15.756,7.601 15.090,7.587 15.053 C 7.567 15.000,9.581 14.987,17.547 14.987 C 25.512 14.987,27.526 15.000,27.506 15.053 M11.100 22.106 C 10.635 22.211,9.855 22.604,9.458 22.933 C 8.051 24.097,7.629 26.089,8.433 27.772 C 8.653 28.233,9.146 28.837,9.553 29.143 C 10.320 29.720,11.081 29.980,12.000 29.980 C 13.814 29.980,15.293 28.870,15.848 27.093 C 16.029 26.517,16.029 25.483,15.848 24.907 C 15.441 23.601,14.509 22.633,13.253 22.209 C 12.895 22.087,12.716 22.061,12.133 22.046 C 11.661 22.034,11.332 22.053,11.100 22.106 M22.080 22.109 C 21.613 22.209,20.850 22.596,20.427 22.947 C 19.903 23.381,19.465 24.002,19.250 24.618 C 19.103 25.037,18.987 25.650,18.987 26.000 C 18.987 26.572,19.221 27.456,19.501 27.942 C 20.309 29.343,21.851 30.142,23.412 29.967 C 25.046 29.784,26.330 28.706,26.834 27.092 C 27.014 26.517,27.014 25.483,26.834 24.908 C 26.378 23.448,25.265 22.404,23.843 22.103 C 23.402 22.009,22.533 22.012,22.080 22.109 M12.822 24.178 C 13.857 24.652,14.289 25.933,13.752 26.939 C 13.043 28.270,11.165 28.354,10.349 27.091 C 9.599 25.931,10.212 24.395,11.560 24.055 C 11.895 23.970,12.497 24.029,12.822 24.178 M23.524 24.085 C 24.083 24.248,24.503 24.598,24.787 25.135 C 24.921 25.390,24.933 25.463,24.933 26.000 C 24.933 26.566,24.927 26.599,24.753 26.920 C 24.020 28.271,22.159 28.364,21.336 27.091 C 21.080 26.695,20.993 26.343,21.025 25.839 C 21.105 24.601,22.335 23.737,23.524 24.085 " fill="var(--db-icon-color, currentColor)" stroke="none" fill-rule="evenodd"></path></svg>