<svg id="icon" height="20" viewBox="0 0 20 20" width="20" xmlns="http://www.w3.org/2000/svg"><path d="M9.783 2.003 C 8.129 2.095,6.837 2.505,5.584 3.337 C 3.681 4.601,2.433 6.567,2.078 8.867 C 1.995 9.402,1.995 10.598,2.078 11.133 C 2.454 13.568,3.815 15.609,5.900 16.867 C 7.560 17.869,9.591 18.224,11.526 17.849 C 12.536 17.654,13.510 17.260,14.350 16.708 C 14.892 16.351,15.215 16.090,15.652 15.652 C 16.334 14.970,16.795 14.310,17.291 13.300 C 17.650 12.569,17.692 12.404,17.569 12.208 C 17.531 12.148,17.452 12.069,17.392 12.032 C 17.288 11.967,17.250 11.965,16.483 11.985 C 15.571 12.010,15.122 11.969,14.475 11.800 C 12.102 11.182,10.335 9.147,10.049 6.702 C 9.961 5.950,10.010 5.221,10.197 4.496 C 10.312 4.047,10.411 3.789,10.731 3.104 C 10.992 2.547,11.019 2.402,10.899 2.206 C 10.860 2.143,10.772 2.069,10.691 2.032 C 10.540 1.963,10.505 1.962,9.783 2.003 M8.154 4.425 C 8.031 5.134,8.021 5.248,8.019 6.000 C 8.017 6.839,8.053 7.165,8.221 7.859 C 8.729 9.958,10.041 11.748,11.883 12.857 C 12.622 13.301,13.283 13.569,14.210 13.798 L 14.583 13.890 14.233 14.239 C 13.335 15.135,12.273 15.684,10.982 15.920 C 10.571 15.995,9.485 16.006,9.100 15.939 C 6.903 15.554,5.209 14.186,4.397 12.143 C 4.170 11.571,4.000 10.659,4.000 10.012 C 4.000 8.611,4.506 7.226,5.417 6.133 C 6.042 5.385,6.830 4.820,7.817 4.413 C 8.166 4.269,8.181 4.269,8.154 4.425 " fill="var(--db-icon-color, currentColor)" stroke="none" fill-rule="evenodd"></path></svg>