<svg id="icon" height="20" viewBox="0 0 20 20" width="20" xmlns="http://www.w3.org/2000/svg"><path d="M9.642 2.049 C 9.380 2.123,9.160 2.246,8.973 2.424 C 8.857 2.533,8.257 3.400,7.074 5.167 C 6.123 6.587,5.249 7.907,5.133 8.100 C 4.632 8.929,4.219 9.938,4.041 10.767 C 3.960 11.146,3.952 11.248,3.952 11.900 C 3.953 12.676,4.002 13.051,4.184 13.684 C 4.934 16.283,7.255 18.000,10.017 18.000 C 12.242 18.000,14.227 16.876,15.294 15.010 C 16.107 13.590,16.320 11.765,15.854 10.214 C 15.652 9.541,15.287 8.732,14.893 8.083 C 14.495 7.427,11.220 2.576,11.106 2.473 C 10.897 2.286,10.702 2.162,10.506 2.093 C 10.257 2.005,9.868 1.986,9.642 2.049 M7.900 8.908 C 8.150 9.079,8.149 9.072,8.160 10.052 L 8.170 10.933 9.016 10.933 L 9.863 10.933 9.873 10.075 C 9.883 9.280,9.888 9.208,9.952 9.100 C 9.989 9.036,10.070 8.950,10.132 8.908 C 10.364 8.752,10.739 8.850,10.866 9.099 C 10.931 9.227,10.933 9.292,10.933 11.394 L 10.933 13.557 10.858 13.667 C 10.694 13.908,10.473 13.983,10.215 13.884 C 10.108 13.844,10.036 13.786,9.973 13.691 L 9.883 13.555 9.873 12.644 L 9.863 11.733 9.015 11.733 L 8.167 11.733 8.167 12.618 C 8.167 13.433,8.162 13.513,8.101 13.632 C 8.001 13.828,7.857 13.914,7.629 13.916 C 7.423 13.917,7.316 13.861,7.185 13.687 C 7.118 13.597,7.117 13.558,7.108 11.404 L 7.099 9.212 7.175 9.098 C 7.352 8.836,7.671 8.752,7.900 8.908 M12.700 12.581 C 12.862 12.665,12.961 12.761,13.045 12.917 C 13.104 13.026,13.116 13.105,13.115 13.350 C 13.114 13.614,13.102 13.674,13.015 13.848 C 12.961 13.956,12.808 14.161,12.674 14.303 L 12.432 14.560 12.769 14.572 C 13.090 14.583,13.110 14.588,13.186 14.677 C 13.339 14.855,13.250 15.098,13.007 15.165 C 12.846 15.210,11.753 15.210,11.593 15.165 C 11.443 15.124,11.367 15.024,11.367 14.873 C 11.367 14.774,11.414 14.715,11.779 14.355 C 12.250 13.891,12.373 13.697,12.379 13.407 C 12.386 13.121,12.252 13.051,11.871 13.139 C 11.727 13.172,11.692 13.169,11.617 13.120 C 11.497 13.041,11.455 12.918,11.502 12.778 C 11.566 12.584,11.816 12.497,12.267 12.511 C 12.492 12.518,12.617 12.538,12.700 12.581 " fill="var(--db-icon-color, currentColor)" stroke="none" fill-rule="evenodd"></path></svg>