<svg id="icon" height="24" viewBox="0 0 24 24" width="24" xmlns="http://www.w3.org/2000/svg"><path d="M9.300 2.055 C 8.813 2.174,8.396 2.520,8.165 3.000 L 8.020 3.300 8.007 4.150 L 7.993 5.000 6.265 5.000 C 4.388 5.000,4.271 5.011,3.873 5.228 C 3.636 5.357,3.361 5.623,3.223 5.858 C 2.990 6.256,2.998 6.044,3.009 11.603 L 3.020 16.700 3.113 16.930 C 3.289 17.366,3.636 17.707,4.096 17.896 L 4.300 17.980 11.880 17.992 C 17.521 18.001,19.516 17.993,19.680 17.958 C 20.187 17.851,20.620 17.501,20.853 17.009 L 20.980 16.740 20.980 11.520 L 20.980 6.300 20.887 6.070 C 20.711 5.634,20.363 5.293,19.904 5.104 C 19.709 5.024,19.620 5.020,17.850 5.008 L 16.000 4.996 16.000 4.248 C 15.999 3.743,15.981 3.433,15.944 3.294 C 15.780 2.676,15.259 2.175,14.648 2.045 C 14.340 1.980,9.573 1.989,9.300 2.055 M14.000 4.500 L 14.000 5.000 12.000 5.000 L 10.000 5.000 10.000 4.500 L 10.000 4.000 12.000 4.000 L 14.000 4.000 14.000 4.500 M19.000 11.500 L 19.000 16.000 12.000 16.000 L 5.000 16.000 5.000 11.500 L 5.000 7.000 12.000 7.000 L 19.000 7.000 19.000 11.500 M7.577 9.095 C 7.466 9.147,7.317 9.260,7.246 9.345 C 7.011 9.629,7.000 9.724,7.000 11.500 C 7.000 13.276,7.011 13.371,7.246 13.655 C 7.507 13.971,8.048 14.095,8.420 13.925 C 8.629 13.830,8.903 13.528,8.957 13.334 C 9.015 13.124,9.015 9.876,8.957 9.666 C 8.903 9.472,8.629 9.170,8.420 9.075 C 8.187 8.969,7.831 8.977,7.577 9.095 M15.555 9.111 C 15.298 9.245,15.108 9.502,15.043 9.801 C 14.985 10.074,14.985 12.926,15.043 13.199 C 15.185 13.857,15.877 14.193,16.476 13.895 C 16.722 13.772,16.894 13.558,16.980 13.266 C 17.068 12.972,17.068 10.028,16.980 9.734 C 16.793 9.102,16.130 8.813,15.555 9.111 M2.640 20.083 C 2.236 20.266,2.022 20.590,2.022 21.020 C 2.022 21.352,2.117 21.565,2.347 21.755 C 2.667 22.019,1.925 22.000,12.012 22.000 C 18.972 22.000,21.209 21.989,21.329 21.952 C 21.572 21.880,21.861 21.598,21.942 21.355 C 22.121 20.815,21.808 20.186,21.289 20.042 C 21.188 20.014,18.169 20.001,11.980 20.001 C 2.854 20.002,2.819 20.002,2.640 20.083 " fill="var(--db-icon-color, currentColor)" stroke="none" fill-rule="evenodd"></path></svg>