<svg id="icon" height="24" viewBox="0 0 24 24" width="24" xmlns="http://www.w3.org/2000/svg"><path d="M3.960 2.062 C 3.064 2.253,2.313 2.989,2.079 3.904 C 2.002 4.206,2.000 4.381,2.000 12.000 C 2.000 19.619,2.002 19.794,2.079 20.096 C 2.262 20.811,2.732 21.404,3.362 21.715 C 3.978 22.018,3.373 21.999,12.000 21.999 C 20.627 21.999,20.022 22.018,20.638 21.715 C 21.287 21.395,21.789 20.741,21.940 20.020 C 21.990 19.780,21.999 18.643,21.999 12.000 C 21.999 3.372,22.019 3.978,21.714 3.361 C 21.399 2.722,20.729 2.207,20.020 2.060 C 19.611 1.975,4.359 1.977,3.960 2.062 M19.748 4.078 C 20.021 4.245,20.000 3.599,20.000 12.000 C 20.000 20.401,20.021 19.755,19.748 19.922 C 19.622 19.998,19.487 20.000,12.008 20.000 C 3.598 20.000,4.245 20.021,4.078 19.748 C 4.002 19.622,4.000 19.487,4.000 12.008 C 4.000 3.598,3.979 4.245,4.252 4.078 C 4.378 4.002,4.513 4.000,12.000 4.000 C 19.487 4.000,19.622 4.002,19.748 4.078 M8.808 6.984 C 8.693 7.041,8.545 7.153,8.479 7.234 C 8.229 7.534,8.238 7.364,8.249 12.043 C 8.260 16.107,8.263 16.306,8.334 16.440 C 8.687 17.103,9.507 17.239,10.038 16.722 C 10.356 16.412,10.360 16.384,10.360 14.453 L 10.360 12.800 10.687 12.800 C 11.387 12.800,11.729 12.931,12.035 13.318 C 12.204 13.533,13.073 14.886,13.755 16.000 C 14.197 16.721,14.421 16.970,14.693 17.044 C 15.205 17.182,15.746 16.849,15.887 16.310 C 15.982 15.944,15.925 15.812,15.095 14.493 C 14.682 13.837,14.269 13.201,14.177 13.080 C 13.979 12.818,13.697 12.552,13.525 12.462 C 13.456 12.427,13.400 12.391,13.400 12.382 C 13.400 12.373,13.497 12.337,13.616 12.303 C 13.926 12.213,14.503 11.912,14.767 11.704 C 15.314 11.270,15.598 10.492,15.547 9.560 C 15.475 8.233,14.866 7.439,13.640 7.075 C 13.084 6.910,12.673 6.882,10.798 6.881 L 9.016 6.880 8.808 6.984 M12.347 8.443 C 13.172 8.558,13.457 8.921,13.457 9.860 C 13.457 10.613,13.279 10.991,12.827 11.202 C 12.492 11.359,12.166 11.398,11.190 11.399 L 10.360 11.400 10.360 9.900 L 10.360 8.400 11.197 8.400 C 11.658 8.400,12.175 8.420,12.347 8.443 " fill="var(--db-icon-color, currentColor)" stroke="none" fill-rule="evenodd"></path></svg>