<svg id="icon" height="20" viewBox="0 0 20 20" width="20" xmlns="http://www.w3.org/2000/svg"><path d="M8.583 2.046 C 8.153 2.151,7.748 2.485,7.558 2.891 C 7.413 3.201,7.390 3.619,7.499 3.947 C 7.768 4.755,8.657 5.194,9.437 4.902 C 10.110 4.650,10.517 3.960,10.400 3.266 C 10.253 2.396,9.426 1.841,8.583 2.046 M6.883 6.114 C 6.792 6.156,6.592 6.283,6.439 6.397 C 5.351 7.207,4.729 8.427,4.679 9.850 C 4.663 10.296,4.627 10.534,4.346 12.050 L 4.031 13.750 3.515 15.300 C 3.143 16.421,3.000 16.893,3.000 17.007 C 3.000 17.246,3.118 17.521,3.298 17.702 C 3.641 18.044,4.158 18.091,4.570 17.818 C 4.824 17.650,4.864 17.558,5.445 15.806 C 5.906 14.418,6.009 14.069,6.085 13.650 C 6.135 13.375,6.186 13.138,6.199 13.123 C 6.213 13.109,6.390 13.352,6.594 13.665 L 6.964 14.233 6.987 15.708 C 7.013 17.403,7.015 17.418,7.298 17.702 C 7.810 18.213,8.677 18.026,8.932 17.348 C 9.006 17.151,9.006 17.143,8.993 15.467 C 8.980 13.870,8.976 13.775,8.912 13.617 C 8.875 13.525,8.352 12.693,7.751 11.768 L 6.658 10.085 6.678 9.801 C 6.703 9.449,6.771 9.187,6.919 8.878 C 7.023 8.660,7.320 8.237,7.371 8.234 C 7.383 8.234,7.761 8.466,8.211 8.750 C 9.250 9.406,9.416 9.457,9.867 9.262 C 10.363 9.047,10.597 8.416,10.360 7.933 C 10.310 7.832,10.220 7.703,10.160 7.645 C 10.026 7.519,7.915 6.185,7.709 6.097 C 7.494 6.004,7.104 6.012,6.883 6.114 M11.673 9.061 C 11.337 9.181,11.101 9.451,11.028 9.801 C 10.961 10.121,10.997 10.223,11.606 11.445 L 12.174 12.583 12.551 12.967 L 12.928 13.350 12.580 13.883 C 12.183 14.495,12.118 14.652,12.141 14.947 C 12.170 15.304,12.370 15.599,12.700 15.771 C 12.823 15.835,12.901 15.849,13.133 15.850 C 13.383 15.850,13.437 15.839,13.589 15.754 C 13.684 15.702,13.799 15.619,13.844 15.571 C 13.986 15.421,15.840 12.560,15.921 12.367 C 16.120 11.894,15.908 11.340,15.441 11.110 L 15.250 11.017 14.432 11.006 L 13.614 10.996 13.225 10.218 C 13.011 9.789,12.790 9.386,12.733 9.321 C 12.496 9.051,12.025 8.936,11.673 9.061 M10.678 16.060 C 9.796 16.375,9.782 17.606,10.657 17.933 C 11.445 18.228,12.228 17.445,11.933 16.657 C 11.745 16.153,11.175 15.882,10.678 16.060 M14.678 16.060 C 13.796 16.375,13.782 17.606,14.657 17.933 C 15.445 18.228,16.228 17.445,15.933 16.657 C 15.745 16.153,15.175 15.882,14.678 16.060 " fill="var(--db-icon-color, currentColor)" stroke="none" fill-rule="evenodd"></path></svg>