<svg id="icon" height="32" viewBox="0 0 32 32" width="32" xmlns="http://www.w3.org/2000/svg"><path d="M5.493 5.077 C 3.904 5.275,2.611 6.377,2.189 7.895 C 1.985 8.629,1.965 9.495,1.987 16.587 C 2.007 23.255,2.009 23.339,2.122 23.840 C 2.193 24.156,2.330 24.537,2.486 24.852 C 2.898 25.684,3.680 26.380,4.564 26.700 C 5.303 26.969,5.581 26.987,9.017 26.987 C 11.141 26.987,12.257 26.968,12.357 26.930 C 12.688 26.805,13.011 26.346,13.011 26.000 C 13.011 25.654,12.688 25.195,12.357 25.070 C 12.257 25.032,11.213 25.013,9.262 25.013 C 7.574 25.013,6.124 24.990,5.865 24.959 C 4.807 24.830,4.189 24.228,4.054 23.194 C 3.986 22.668,3.986 9.332,4.054 8.806 C 4.170 7.915,4.683 7.304,5.495 7.089 C 5.659 7.046,6.771 7.016,9.044 6.993 L 12.355 6.960 12.552 6.827 C 12.776 6.675,13.014 6.249,13.012 6.003 C 13.010 5.652,12.689 5.195,12.357 5.070 C 12.167 4.999,6.073 5.005,5.493 5.077 M23.173 10.060 C 23.115 10.072,22.935 10.106,22.773 10.137 C 21.720 10.340,20.593 10.945,19.783 11.744 C 19.472 12.051,19.076 12.544,18.904 12.840 L 18.804 13.013 13.800 13.013 C 9.399 13.013,8.773 13.023,8.598 13.096 C 8.347 13.201,6.276 15.249,6.120 15.547 C 5.984 15.807,5.978 16.177,6.107 16.430 C 6.246 16.706,8.305 18.766,8.560 18.885 C 8.735 18.967,8.905 18.985,9.509 18.985 C 10.340 18.987,10.329 18.990,11.064 18.493 L 11.487 18.207 12.104 18.601 C 12.719 18.996,12.721 18.996,13.042 18.976 C 13.334 18.958,13.414 18.924,13.910 18.598 C 14.211 18.401,14.480 18.240,14.509 18.240 C 14.538 18.240,14.804 18.402,15.101 18.600 L 15.642 18.960 17.221 18.976 L 18.800 18.992 18.995 19.296 C 19.251 19.695,19.671 20.172,20.074 20.524 C 22.443 22.586,26.016 22.462,28.239 20.239 C 30.589 17.889,30.572 14.053,28.202 11.729 C 27.358 10.901,26.207 10.303,25.073 10.105 C 24.670 10.034,23.450 10.005,23.173 10.060 M25.008 12.129 C 25.457 12.252,26.126 12.596,26.497 12.894 C 27.406 13.625,28.000 14.853,28.000 16.000 C 28.000 17.560,26.967 19.105,25.535 19.688 C 23.585 20.482,21.381 19.670,20.450 17.817 C 20.270 17.458,20.081 17.243,19.835 17.118 C 19.645 17.021,19.513 17.013,17.978 17.013 L 16.326 17.013 15.596 16.534 C 15.195 16.271,14.785 16.040,14.686 16.022 C 14.337 15.956,14.085 16.066,13.119 16.707 C 12.986 16.796,12.976 16.792,12.403 16.412 C 11.838 16.037,11.814 16.027,11.492 16.028 C 11.164 16.028,11.154 16.033,10.419 16.521 C 9.982 16.811,9.622 17.013,9.544 17.013 C 9.447 17.013,9.274 16.875,8.907 16.507 L 8.402 16.000 8.907 15.493 L 9.411 14.987 14.515 14.987 C 18.001 14.987,19.667 14.969,19.770 14.930 C 20.006 14.840,20.142 14.683,20.494 14.091 C 20.680 13.780,20.963 13.397,21.145 13.214 C 21.685 12.668,22.432 12.246,23.093 12.113 C 23.255 12.081,23.435 12.043,23.493 12.030 C 23.695 11.983,24.720 12.050,25.008 12.129 M23.481 14.595 C 23.132 14.718,22.746 15.098,22.616 15.444 C 22.154 16.679,23.315 17.848,24.546 17.387 C 25.557 17.009,25.814 15.637,25.010 14.914 C 24.580 14.528,24.008 14.408,23.481 14.595 " fill="var(--db-icon-color, currentColor)" stroke="none" fill-rule="evenodd"></path></svg>