<svg id="icon" height="20" viewBox="0 0 20 20" width="20" xmlns="http://www.w3.org/2000/svg"><path d="M13.634 4.783 C 12.501 4.901,11.407 5.165,10.508 5.539 C 8.817 6.241,7.534 7.274,6.569 8.712 C 6.297 9.118,6.220 9.308,6.219 9.583 C 6.216 10.289,6.908 10.748,7.537 10.460 C 7.803 10.338,7.962 10.181,8.283 9.721 C 9.465 8.024,11.107 7.120,13.558 6.814 C 14.003 6.759,15.136 6.708,15.490 6.728 L 15.696 6.739 15.511 7.278 C 15.060 8.590,14.597 9.571,13.998 10.482 C 13.358 11.455,12.678 12.145,11.860 12.653 C 11.172 13.080,10.596 13.262,9.842 13.291 C 9.574 13.301,9.367 13.296,9.367 13.280 C 9.367 13.263,9.553 13.118,9.780 12.957 C 10.440 12.488,11.001 12.005,11.725 11.282 C 12.281 10.726,12.416 10.572,12.490 10.412 C 12.670 10.020,12.583 9.582,12.267 9.286 C 12.052 9.086,11.901 9.024,11.615 9.021 C 11.232 9.017,11.094 9.104,10.367 9.815 C 9.159 10.995,8.268 11.654,7.183 12.169 C 6.317 12.580,5.604 12.767,4.800 12.792 C 4.235 12.809,3.914 12.768,3.437 12.615 C 2.914 12.448,2.521 12.538,2.259 12.885 C 2.080 13.121,2.022 13.319,2.040 13.633 C 2.058 13.936,2.153 14.130,2.365 14.298 C 2.627 14.506,3.496 14.732,4.308 14.804 C 5.026 14.868,5.865 14.774,6.634 14.546 L 6.917 14.461 7.150 14.604 C 7.990 15.117,9.183 15.375,10.233 15.269 C 10.996 15.193,11.659 15.004,12.350 14.668 C 14.778 13.488,16.677 10.659,17.867 6.452 C 18.027 5.884,18.031 5.724,17.889 5.445 C 17.787 5.244,17.549 5.019,17.347 4.932 C 17.093 4.823,16.361 4.762,15.167 4.749 C 14.400 4.740,13.952 4.751,13.634 4.783 " fill="var(--db-icon-color, currentColor)" stroke="none" fill-rule="evenodd"></path></svg>