<svg id="icon" height="20" viewBox="0 0 20 20" width="20" xmlns="http://www.w3.org/2000/svg"><path d="M9.783 2.003 C 8.129 2.095,6.837 2.505,5.584 3.337 C 3.681 4.601,2.433 6.567,2.078 8.867 C 1.995 9.402,1.995 10.598,2.078 11.133 C 2.454 13.568,3.815 15.609,5.900 16.867 C 7.560 17.869,9.591 18.224,11.526 17.849 C 12.536 17.654,13.510 17.260,14.350 16.708 C 14.892 16.351,15.215 16.090,15.652 15.652 C 16.334 14.970,16.795 14.310,17.291 13.300 C 17.650 12.569,17.692 12.404,17.569 12.208 C 17.531 12.148,17.452 12.069,17.392 12.032 C 17.288 11.967,17.250 11.965,16.483 11.985 C 15.571 12.010,15.122 11.969,14.475 11.800 C 12.102 11.182,10.335 9.147,10.049 6.702 C 9.961 5.950,10.010 5.221,10.197 4.496 C 10.312 4.047,10.411 3.789,10.731 3.104 C 10.992 2.547,11.019 2.402,10.899 2.206 C 10.860 2.143,10.772 2.069,10.691 2.032 C 10.540 1.963,10.505 1.962,9.783 2.003 " fill="var(--db-icon-color, currentColor)" stroke="none" fill-rule="evenodd"></path></svg>