<svg id="icon" height="32" viewBox="0 0 32 32" width="32" xmlns="http://www.w3.org/2000/svg"><path d="M14.240 3.127 C 9.971 3.706,6.233 6.403,4.344 10.267 C 2.161 14.732,2.657 19.859,5.660 23.877 C 6.162 24.549,7.451 25.838,8.123 26.340 C 9.961 27.714,11.998 28.559,14.267 28.888 C 15.135 29.014,16.852 29.014,17.733 28.887 C 21.957 28.280,25.572 25.744,27.513 22.027 C 27.997 21.099,28.034 20.804,27.721 20.359 C 27.498 20.040,27.327 20.003,25.989 19.979 C 24.705 19.957,24.171 19.892,23.253 19.649 C 22.059 19.334,20.856 18.794,19.893 18.143 C 16.028 15.528,14.249 10.927,15.329 6.342 C 15.434 5.895,15.643 5.269,15.873 4.710 C 16.081 4.206,16.104 3.881,15.952 3.585 C 15.828 3.340,15.706 3.228,15.453 3.122 C 15.220 3.025,14.988 3.025,14.240 3.127 M13.407 5.763 C 13.103 6.932,13.044 7.451,13.042 8.933 C 13.039 10.723,13.178 11.636,13.676 13.114 C 14.312 15.002,15.267 16.569,16.666 18.017 C 18.808 20.236,21.567 21.590,24.625 21.922 L 25.223 21.987 25.063 22.218 C 24.278 23.359,23.170 24.437,21.969 25.227 C 18.825 27.296,14.681 27.567,11.280 25.927 C 7.981 24.336,5.767 21.383,5.138 17.733 C 5.005 16.968,5.004 15.014,5.135 14.235 C 5.541 11.827,6.524 9.941,8.248 8.263 C 9.518 7.026,10.994 6.142,12.880 5.488 C 13.203 5.376,13.481 5.283,13.500 5.282 C 13.518 5.281,13.476 5.497,13.407 5.763 " fill="var(--db-icon-color, currentColor)" stroke="none" fill-rule="evenodd"></path></svg>