<svg id="icon" height="24" viewBox="0 0 24 24" width="24" xmlns="http://www.w3.org/2000/svg"><path d="M5.810 3.061 C 5.478 3.133,5.197 3.290,4.891 3.575 C 4.485 3.954,4.446 4.060,3.735 6.780 C 2.990 9.628,3.002 9.576,3.001 9.972 C 2.999 10.748,3.288 11.483,3.819 12.055 L 4.000 12.249 4.000 15.620 L 4.000 18.991 3.825 19.017 C 3.474 19.070,3.158 19.359,3.039 19.736 C 2.931 20.080,3.084 20.557,3.374 20.778 C 3.684 21.015,3.106 21.000,11.995 21.000 C 17.483 21.000,20.189 20.986,20.289 20.958 C 20.509 20.897,20.762 20.685,20.874 20.469 C 21.080 20.068,21.012 19.610,20.702 19.300 C 20.544 19.142,20.246 19.000,20.073 19.000 C 20.003 19.000,20.000 18.863,20.000 15.619 L 20.000 12.237 20.182 12.049 C 20.740 11.470,21.034 10.667,20.989 9.843 C 20.971 9.514,20.874 9.099,20.302 6.920 C 19.815 5.061,19.599 4.303,19.498 4.094 C 19.245 3.572,18.743 3.180,18.171 3.059 C 17.779 2.976,6.193 2.978,5.810 3.061 M18.344 7.380 C 18.682 8.678,18.970 9.824,18.984 9.926 C 19.041 10.345,18.745 10.799,18.321 10.940 C 17.766 11.124,17.165 10.819,16.698 10.117 C 16.597 9.965,16.508 9.840,16.500 9.840 C 16.492 9.840,16.405 9.962,16.305 10.112 C 16.079 10.452,15.739 10.778,15.490 10.891 C 15.225 11.013,14.774 11.012,14.509 10.891 C 14.263 10.778,13.889 10.421,13.677 10.096 C 13.586 9.955,13.504 9.840,13.497 9.840 C 13.489 9.840,13.407 9.953,13.314 10.090 C 13.091 10.420,12.765 10.735,12.508 10.869 C 12.336 10.959,12.249 10.978,12.000 10.978 C 11.749 10.978,11.665 10.960,11.483 10.865 C 11.224 10.730,10.918 10.432,10.686 10.090 C 10.593 9.953,10.510 9.840,10.502 9.840 C 10.493 9.840,10.405 9.962,10.305 10.112 C 10.079 10.452,9.739 10.778,9.490 10.891 C 9.225 11.013,8.774 11.012,8.509 10.891 C 8.263 10.778,7.889 10.421,7.677 10.096 C 7.586 9.955,7.505 9.840,7.499 9.840 C 7.492 9.840,7.406 9.953,7.308 10.090 C 6.777 10.829,6.221 11.120,5.678 10.939 C 5.297 10.813,5.000 10.406,5.000 10.012 C 5.000 9.912,6.160 5.345,6.261 5.050 C 6.274 5.010,7.443 5.002,12.004 5.010 L 17.731 5.020 18.344 7.380 M8.408 12.937 C 9.003 13.058,9.622 12.993,10.200 12.747 L 10.500 12.619 10.829 12.752 C 11.653 13.082,12.348 13.082,13.173 12.751 L 13.505 12.617 13.742 12.726 C 14.090 12.885,14.616 13.000,15.000 13.000 C 15.384 13.000,15.910 12.885,16.258 12.726 L 16.495 12.617 16.827 12.751 C 17.186 12.895,17.611 12.998,17.850 12.999 L 18.000 13.000 18.000 14.000 L 18.000 15.000 12.000 15.000 L 6.000 15.000 6.000 14.000 L 6.000 13.000 6.142 13.000 C 6.385 13.000,6.887 12.880,7.200 12.746 L 7.500 12.618 7.800 12.746 C 7.965 12.817,8.239 12.903,8.408 12.937 M18.000 18.000 L 18.000 19.000 12.000 19.000 L 6.000 19.000 6.000 18.000 L 6.000 17.000 12.000 17.000 L 18.000 17.000 18.000 18.000 " fill="var(--db-icon-color, currentColor)" stroke="none" fill-rule="evenodd"></path></svg>