<svg id="icon" height="32" viewBox="0 0 32 32" width="32" xmlns="http://www.w3.org/2000/svg"><path d="M4.364 2.147 C 3.958 2.395,3.775 2.824,3.892 3.253 C 3.976 3.560,3.824 3.408,9.413 8.750 C 11.907 11.132,13.955 13.102,13.964 13.127 C 13.974 13.153,11.964 13.173,9.452 13.173 L 4.922 13.173 4.741 13.052 C 4.349 12.788,4.090 11.969,4.009 10.737 C 3.971 10.166,3.949 10.062,3.826 9.877 C 3.563 9.480,2.989 9.328,2.565 9.544 C 2.073 9.795,1.953 10.150,2.028 11.130 C 2.110 12.216,2.347 13.103,2.724 13.739 C 2.931 14.088,3.435 14.620,3.675 14.744 L 3.837 14.828 3.854 20.840 C 3.872 27.359,3.853 26.918,4.158 27.679 C 4.457 28.426,5.131 29.160,5.868 29.544 C 7.507 30.397,9.439 29.995,10.596 28.559 C 10.939 28.133,11.168 27.672,11.306 27.125 C 11.403 26.743,11.413 26.529,11.413 24.892 C 11.413 23.190,11.419 23.084,11.507 23.118 C 11.558 23.138,11.804 23.214,12.053 23.286 C 13.518 23.712,14.792 23.703,16.330 23.257 L 16.846 23.107 16.865 25.007 C 16.883 26.885,16.885 26.911,17.021 27.316 C 17.616 29.078,19.270 30.169,21.048 29.969 C 21.957 29.867,22.642 29.530,23.315 28.853 C 23.701 28.466,23.816 28.307,24.018 27.888 C 24.446 27.002,24.427 27.353,24.427 20.408 L 24.427 14.252 24.547 14.220 C 24.613 14.203,24.778 14.188,24.913 14.187 C 25.270 14.186,26.003 14.049,26.516 13.888 C 27.378 13.616,27.999 13.228,28.621 12.573 C 29.420 11.732,29.835 10.708,29.972 9.245 C 30.044 8.478,29.987 8.181,29.715 7.898 C 29.529 7.705,29.389 7.652,26.747 6.775 L 23.973 5.855 22.080 3.971 C 20.420 2.320,20.162 2.083,19.983 2.051 C 19.459 1.955,19.007 2.162,18.826 2.581 C 18.769 2.710,18.377 4.923,17.870 7.971 C 17.397 10.815,16.999 13.152,16.987 13.165 C 16.955 13.196,16.885 13.129,10.859 7.360 C 7.933 4.559,5.450 2.213,5.343 2.147 C 5.073 1.982,4.634 1.982,4.364 2.147 M22.960 7.587 C 23.048 7.630,24.188 8.020,25.493 8.453 C 26.799 8.886,27.889 9.261,27.916 9.286 C 27.996 9.359,27.807 10.116,27.601 10.549 C 27.209 11.374,26.486 11.892,25.413 12.114 C 24.951 12.210,24.768 12.221,24.038 12.192 C 23.120 12.157,23.018 12.178,22.705 12.471 C 22.452 12.708,22.400 13.012,22.400 14.255 C 22.400 15.295,22.394 15.369,22.307 15.339 C 22.255 15.321,21.468 15.014,20.557 14.658 L 18.900 14.010 19.636 9.605 C 20.040 7.182,20.372 5.177,20.372 5.148 C 20.373 5.120,20.919 5.639,21.587 6.302 C 22.254 6.965,22.872 7.543,22.960 7.587 M15.467 18.289 L 15.467 21.431 15.187 21.494 C 14.677 21.608,13.781 21.621,13.257 21.523 C 12.655 21.409,11.805 21.126,11.155 20.822 C 10.599 20.562,10.305 20.524,10.011 20.673 C 9.768 20.796,9.657 20.905,9.541 21.131 C 9.446 21.317,9.440 21.482,9.439 23.825 C 9.438 26.622,9.425 26.748,9.094 27.229 C 8.323 28.349,6.634 28.201,6.024 26.960 L 5.893 26.693 5.879 20.920 L 5.865 15.147 10.666 15.147 L 15.467 15.147 15.467 18.289 M20.039 16.602 L 22.398 17.520 22.399 22.080 L 22.400 26.640 22.248 26.960 C 22.073 27.329,21.710 27.688,21.343 27.858 C 20.954 28.036,20.285 28.022,19.886 27.826 C 19.552 27.662,19.219 27.332,19.030 26.979 C 18.907 26.747,18.907 26.746,18.880 24.027 C 18.850 20.969,18.872 21.133,18.435 20.779 C 18.250 20.629,18.194 20.613,17.862 20.613 L 17.493 20.613 17.493 18.114 C 17.493 15.757,17.499 15.617,17.587 15.649 C 17.638 15.668,18.741 16.097,20.039 16.602 " fill="var(--db-icon-color, currentColor)" stroke="none" fill-rule="evenodd"></path></svg>