<svg id="icon" height="32" viewBox="0 0 32 32" width="32" xmlns="http://www.w3.org/2000/svg"><path d="M12.589 3.044 C 11.970 3.168,11.372 3.667,11.139 4.254 C 11.028 4.534,11.016 4.663,10.998 5.773 L 10.978 6.987 8.459 6.987 C 6.875 6.987,5.822 7.008,5.623 7.045 C 4.992 7.160,4.476 7.562,4.192 8.160 L 4.027 8.507 4.027 16.000 L 4.027 23.493 4.166 23.787 C 4.449 24.383,5.001 24.820,5.643 24.954 C 5.844 24.996,8.850 25.013,16.071 25.013 C 27.337 25.013,26.578 25.038,27.137 24.656 C 27.293 24.550,27.512 24.334,27.624 24.177 C 28.029 23.612,28.007 24.112,27.989 15.867 L 27.973 8.507 27.808 8.160 C 27.523 7.565,27.002 7.159,26.377 7.045 C 26.178 7.008,25.125 6.987,23.541 6.987 L 21.022 6.987 21.002 5.773 C 20.984 4.648,20.973 4.537,20.856 4.240 C 20.683 3.803,20.200 3.319,19.760 3.142 L 19.440 3.013 16.133 3.005 C 14.315 3.000,12.720 3.018,12.589 3.044 M18.987 6.000 L 18.987 6.987 16.035 6.987 L 13.083 6.987 13.048 6.467 C 13.029 6.181,13.014 5.737,13.014 5.480 L 13.013 5.013 16.000 5.013 L 18.987 5.013 18.987 6.000 M25.973 16.000 L 25.973 22.987 16.035 22.987 L 6.098 22.987 6.062 19.587 C 6.043 17.717,6.027 14.573,6.027 12.600 L 6.027 9.013 16.000 9.013 L 25.973 9.013 25.973 16.000 M8.880 11.013 C 8.851 11.023,8.763 11.045,8.684 11.062 C 8.477 11.107,8.213 11.350,8.100 11.598 C 8.008 11.801,8.002 12.052,8.002 16.000 C 8.002 19.948,8.008 20.199,8.100 20.402 C 8.300 20.843,8.774 21.085,9.207 20.969 C 9.540 20.880,9.689 20.770,9.856 20.486 L 10.000 20.240 10.000 16.000 L 10.000 11.760 9.859 11.519 C 9.775 11.378,9.633 11.232,9.512 11.166 C 9.312 11.056,8.987 10.977,8.880 11.013 M22.792 11.038 C 22.518 11.103,22.271 11.287,22.131 11.531 L 22.000 11.760 22.000 16.000 L 22.000 20.240 22.144 20.486 C 22.311 20.770,22.460 20.880,22.793 20.969 C 23.226 21.085,23.700 20.843,23.900 20.402 C 23.992 20.199,23.998 19.947,23.999 16.012 C 24.000 11.496,24.008 11.627,23.717 11.316 C 23.492 11.074,23.115 10.961,22.792 11.038 M2.792 27.037 C 2.115 27.200,1.805 27.934,2.167 28.518 C 2.260 28.667,2.404 28.807,2.533 28.875 L 2.747 28.987 16.000 28.987 L 29.253 28.987 29.467 28.875 C 30.143 28.522,30.153 27.529,29.485 27.146 L 29.253 27.013 16.107 27.005 C 8.876 27.001,2.885 27.015,2.792 27.037 " fill="var(--db-icon-color, currentColor)" stroke="none" fill-rule="evenodd"></path></svg>