<svg id="icon" height="20" viewBox="0 0 20 20" width="20" xmlns="http://www.w3.org/2000/svg"><path d="M7.678 2.047 C 7.227 2.158,6.851 2.466,6.641 2.896 C 6.522 3.142,6.517 3.164,6.505 3.575 L 6.493 4.000 5.432 4.000 C 4.772 4.000,4.303 4.014,4.193 4.038 C 3.787 4.124,3.343 4.460,3.171 4.811 C 2.996 5.170,3.001 5.044,3.000 9.002 C 3.000 12.295,3.006 12.707,3.054 12.869 C 3.221 13.432,3.602 13.806,4.156 13.950 C 4.445 14.025,15.555 14.025,15.844 13.950 C 16.398 13.806,16.779 13.432,16.946 12.869 C 16.994 12.707,17.000 12.295,17.000 9.002 C 16.999 4.968,17.008 5.163,16.798 4.769 C 16.611 4.417,16.213 4.124,15.807 4.038 C 15.697 4.014,15.228 4.000,14.570 4.000 L 13.509 4.000 13.492 3.625 C 13.471 3.185,13.384 2.907,13.182 2.632 C 13.028 2.422,12.735 2.199,12.474 2.094 L 12.283 2.017 10.067 2.010 C 8.367 2.006,7.810 2.014,7.678 2.047 M15.000 9.000 L 15.000 12.000 10.000 12.000 L 5.000 12.000 5.000 9.000 L 5.000 6.000 10.000 6.000 L 15.000 6.000 15.000 9.000 M2.727 16.046 C 2.414 16.131,2.186 16.344,2.064 16.665 C 1.888 17.128,2.106 17.667,2.559 17.890 L 2.750 17.983 10.000 17.983 L 17.250 17.983 17.441 17.890 C 18.046 17.592,18.184 16.783,17.711 16.309 C 17.629 16.228,17.493 16.129,17.407 16.089 L 17.250 16.017 10.067 16.010 C 4.348 16.005,2.851 16.013,2.727 16.046 " fill="var(--db-icon-color, currentColor)" stroke="none" fill-rule="evenodd"></path></svg>