<svg id="icon" height="20" viewBox="0 0 20 20" width="20" xmlns="http://www.w3.org/2000/svg"><path d="M11.583 2.045 C 11.510 2.069,11.404 2.113,11.348 2.142 C 11.217 2.210,10.994 2.453,10.938 2.588 C 10.914 2.645,10.628 3.665,10.302 4.855 L 9.708 7.017 8.637 7.025 L 7.565 7.034 6.878 5.992 C 6.005 4.670,5.784 4.441,5.128 4.176 C 4.632 3.976,3.872 3.944,3.546 4.110 C 3.207 4.282,3.000 4.620,3.000 5.000 C 3.000 5.260,3.080 5.471,3.253 5.663 C 3.462 5.896,3.643 5.971,4.054 5.998 C 4.287 6.013,4.419 6.038,4.479 6.077 C 4.556 6.128,5.073 6.858,5.122 6.985 C 5.138 7.026,5.041 7.033,4.443 7.033 C 3.761 7.033,3.743 7.035,3.574 7.119 C 3.239 7.286,3.000 7.658,3.000 8.014 C 3.000 8.222,3.944 11.396,4.088 11.671 C 4.397 12.260,4.937 12.701,5.606 12.907 L 5.850 12.982 9.767 12.992 C 13.253 13.001,13.713 12.996,13.950 12.949 C 14.474 12.844,14.848 12.645,15.233 12.267 C 15.531 11.975,15.711 11.683,15.884 11.217 C 16.195 10.379,16.832 8.494,16.870 8.299 C 16.894 8.173,16.913 7.801,16.914 7.400 C 16.916 6.817,16.906 6.662,16.842 6.348 C 16.483 4.576,15.355 3.162,13.730 2.446 C 13.010 2.128,11.938 1.928,11.583 2.045 M13.167 4.416 C 13.900 4.783,14.425 5.377,14.697 6.146 C 14.776 6.371,14.900 6.904,14.900 7.021 C 14.900 7.028,14.202 7.033,13.350 7.033 C 12.197 7.033,11.800 7.023,11.800 6.995 C 11.800 6.958,12.465 4.508,12.537 4.277 L 12.570 4.171 12.743 4.231 C 12.839 4.264,13.029 4.347,13.167 4.416 M14.300 9.847 C 14.177 10.294,14.042 10.716,14.000 10.784 C 13.953 10.859,13.869 10.932,13.787 10.970 C 13.656 11.029,13.487 11.032,10.044 11.033 C 7.575 11.033,6.408 11.022,6.344 10.998 C 6.127 10.916,6.077 10.825,5.831 10.051 C 5.702 9.647,5.575 9.253,5.550 9.175 L 5.504 9.033 10.014 9.033 L 14.524 9.033 14.300 9.847 M6.567 14.052 C 6.203 14.130,5.883 14.310,5.599 14.597 C 5.310 14.888,5.162 15.145,5.066 15.520 C 4.946 15.990,5.008 16.502,5.240 16.944 C 5.381 17.214,5.786 17.619,6.056 17.760 C 6.322 17.899,6.718 18.000,7.000 18.000 C 7.282 18.000,7.678 17.899,7.944 17.760 C 8.214 17.619,8.619 17.214,8.760 16.944 C 8.992 16.502,9.054 15.990,8.934 15.520 C 8.838 15.145,8.690 14.888,8.401 14.597 C 7.909 14.101,7.249 13.905,6.567 14.052 M12.567 14.052 C 12.203 14.130,11.883 14.310,11.599 14.597 C 11.310 14.888,11.162 15.145,11.066 15.520 C 10.946 15.990,11.008 16.502,11.240 16.944 C 11.381 17.214,11.786 17.619,12.056 17.760 C 12.322 17.899,12.718 18.000,13.000 18.000 C 13.282 18.000,13.678 17.899,13.944 17.760 C 14.214 17.619,14.619 17.214,14.760 16.944 C 14.992 16.502,15.054 15.990,14.934 15.520 C 14.838 15.145,14.690 14.888,14.401 14.597 C 13.909 14.101,13.249 13.905,12.567 14.052 " fill="var(--db-icon-color, currentColor)" stroke="none" fill-rule="evenodd"></path></svg>