<svg id="icon" height="24" viewBox="0 0 24 24" width="24" xmlns="http://www.w3.org/2000/svg"><path d="M11.081 2.064 C 10.834 2.131,10.583 2.267,10.378 2.447 C 10.190 2.612,5.642 9.409,5.253 10.106 C 4.144 12.094,3.773 13.917,4.098 15.790 C 4.685 19.170,7.265 21.585,10.688 21.958 C 12.129 22.115,13.592 21.860,14.900 21.225 C 17.293 20.064,18.793 17.771,18.999 14.959 C 19.102 13.564,18.802 12.220,18.042 10.660 C 17.684 9.926,17.422 9.516,15.025 5.940 C 13.544 3.731,12.737 2.562,12.613 2.447 C 12.190 2.056,11.631 1.916,11.081 2.064 M13.504 7.259 C 15.856 10.770,15.890 10.823,16.262 11.580 C 16.789 12.653,17.006 13.477,17.005 14.407 C 17.004 15.521,16.780 16.436,16.294 17.303 C 15.539 18.653,14.330 19.526,12.715 19.887 C 12.354 19.968,12.196 19.980,11.500 19.978 C 10.832 19.977,10.636 19.962,10.313 19.890 C 9.173 19.636,8.361 19.204,7.596 18.442 C 6.532 17.383,6.000 16.057,6.000 14.461 C 6.000 13.586,6.133 12.967,6.517 12.059 C 6.628 11.795,6.829 11.381,6.962 11.139 C 7.263 10.595,11.487 4.269,11.523 4.310 C 11.537 4.327,12.429 5.654,13.504 7.259 " fill="var(--db-icon-color, currentColor)" stroke="none" fill-rule="evenodd"></path></svg>