<svg id="icon" height="24" viewBox="0 0 24 24" width="24" xmlns="http://www.w3.org/2000/svg"><path d="M10.665 3.482 C 10.221 3.593,9.805 3.938,9.604 4.360 C 9.512 4.554,9.500 4.630,9.500 5.000 C 9.500 5.370,9.512 5.446,9.604 5.640 C 9.766 5.981,10.001 6.216,10.350 6.389 C 10.631 6.528,10.683 6.540,10.998 6.540 C 11.407 6.540,11.657 6.463,11.938 6.250 C 12.926 5.501,12.719 3.978,11.571 3.546 C 11.343 3.460,10.881 3.428,10.665 3.482 M10.578 7.515 C 10.254 7.663,10.000 8.059,10.000 8.418 C 10.000 8.540,10.884 11.680,11.051 12.154 C 11.118 12.341,11.338 12.587,11.534 12.691 C 11.694 12.777,11.747 12.780,12.986 12.792 L 14.272 12.804 14.793 14.092 C 15.079 14.800,15.415 15.634,15.539 15.946 C 15.682 16.304,15.815 16.570,15.902 16.672 C 16.275 17.108,16.943 17.131,17.352 16.722 C 17.564 16.509,17.618 16.374,17.619 16.040 C 17.620 15.741,17.617 15.731,16.766 13.620 C 16.297 12.454,15.865 11.413,15.808 11.306 C 15.699 11.104,15.482 10.927,15.244 10.846 C 15.153 10.815,14.716 10.800,13.921 10.800 L 12.734 10.800 12.342 9.450 C 12.126 8.707,11.917 8.035,11.877 7.956 C 11.791 7.786,11.558 7.572,11.374 7.495 C 11.185 7.416,10.774 7.427,10.578 7.515 M8.007 10.003 C 7.777 10.048,7.602 10.161,7.377 10.412 C 6.972 10.862,6.688 11.380,6.495 12.020 C 6.396 12.347,6.386 12.440,6.384 13.040 C 6.382 13.823,6.449 14.137,6.757 14.780 C 6.984 15.255,7.216 15.572,7.606 15.940 C 8.614 16.891,10.026 17.243,11.367 16.877 C 12.071 16.684,12.994 16.092,13.259 15.663 C 13.366 15.489,13.380 15.431,13.380 15.163 C 13.380 14.914,13.362 14.828,13.280 14.682 C 13.084 14.332,12.695 14.131,12.295 14.172 C 12.042 14.198,11.912 14.263,11.635 14.503 C 11.053 15.008,10.297 15.147,9.589 14.879 C 8.876 14.610,8.360 13.847,8.360 13.060 C 8.360 12.587,8.531 12.145,8.863 11.760 C 9.112 11.471,9.213 11.238,9.211 10.959 C 9.205 10.329,8.641 9.881,8.007 10.003 M2.670 19.057 C 1.981 19.304,1.782 20.184,2.299 20.701 C 2.621 21.023,2.229 21.003,7.922 20.991 L 12.980 20.980 13.146 20.891 C 13.857 20.511,13.857 19.489,13.146 19.109 L 12.980 19.020 7.900 19.011 C 3.726 19.004,2.793 19.012,2.670 19.057 M16.440 19.037 C 15.884 19.207,15.585 19.731,15.740 20.269 C 15.822 20.553,16.125 20.873,16.385 20.951 C 16.507 20.987,17.146 21.000,18.848 21.000 C 21.445 21.000,21.397 21.005,21.701 20.701 C 22.092 20.310,22.092 19.690,21.701 19.299 C 21.396 18.994,21.447 19.000,18.843 19.003 C 17.576 19.005,16.495 19.021,16.440 19.037 " fill="var(--db-icon-color, currentColor)" stroke="none" fill-rule="evenodd"></path></svg>