<svg id="icon" height="24" viewBox="0 0 24 24" width="24" xmlns="http://www.w3.org/2000/svg"><path d="M3.960 2.062 C 3.064 2.253,2.313 2.989,2.079 3.904 C 2.002 4.206,2.000 4.381,2.000 12.000 C 2.000 19.619,2.002 19.794,2.079 20.096 C 2.262 20.811,2.732 21.404,3.362 21.715 C 3.978 22.018,3.373 21.999,12.000 21.999 C 20.627 21.999,20.022 22.018,20.638 21.715 C 21.287 21.395,21.789 20.741,21.940 20.020 C 21.990 19.780,21.999 18.643,21.999 12.000 C 21.999 3.372,22.019 3.978,21.714 3.361 C 21.399 2.722,20.729 2.207,20.020 2.060 C 19.611 1.975,4.359 1.977,3.960 2.062 M19.748 4.078 C 20.021 4.245,20.000 3.599,20.000 12.000 C 20.000 20.401,20.021 19.755,19.748 19.922 C 19.622 19.998,19.487 20.000,12.008 20.000 C 3.598 20.000,4.245 20.021,4.078 19.748 C 4.002 19.622,4.000 19.487,4.000 12.008 C 4.000 3.598,3.979 4.245,4.252 4.078 C 4.378 4.002,4.513 4.000,12.000 4.000 C 19.487 4.000,19.622 4.002,19.748 4.078 M11.554 6.698 C 9.892 6.936,8.650 7.751,7.984 9.040 C 7.515 9.947,7.334 10.907,7.371 12.297 C 7.399 13.397,7.542 14.094,7.897 14.861 C 8.287 15.707,9.027 16.423,9.883 16.783 C 10.613 17.091,11.218 17.203,12.300 17.228 C 13.455 17.255,14.247 17.152,15.162 16.854 C 15.497 16.745,15.628 16.681,15.742 16.570 C 16.005 16.314,16.000 16.361,16.000 14.274 C 16.000 12.431,15.998 12.381,15.915 12.210 C 15.864 12.104,15.766 11.992,15.668 11.927 L 15.506 11.820 14.243 11.808 C 13.433 11.800,12.928 11.810,12.835 11.838 C 12.247 12.010,12.133 12.829,12.648 13.186 C 12.807 13.296,12.835 13.301,13.397 13.320 L 13.980 13.340 13.991 14.371 L 14.001 15.402 13.907 15.496 C 13.769 15.635,13.343 15.700,12.580 15.698 C 12.057 15.696,11.875 15.680,11.583 15.607 C 11.075 15.481,10.748 15.308,10.437 15.000 C 9.781 14.353,9.528 13.406,9.574 11.760 C 9.603 10.692,9.712 10.133,10.001 9.558 C 10.248 9.067,10.706 8.657,11.240 8.446 C 12.001 8.146,13.116 8.157,14.494 8.479 C 14.924 8.579,15.133 8.580,15.340 8.484 C 15.767 8.287,15.927 7.812,15.707 7.396 C 15.540 7.080,15.183 6.927,14.220 6.757 C 13.596 6.647,12.137 6.615,11.554 6.698 " fill="var(--db-icon-color, currentColor)" stroke="none" fill-rule="evenodd"></path></svg>