<svg id="icon" height="24" viewBox="0 0 24 24" width="24" xmlns="http://www.w3.org/2000/svg"><path d="M5.440 2.042 C 4.516 2.124,3.752 2.451,3.166 3.015 C 2.592 3.566,2.264 4.182,2.092 5.028 C 2.024 5.358,2.020 5.791,2.020 12.000 C 2.020 18.209,2.024 18.642,2.092 18.972 C 2.410 20.535,3.422 21.566,4.974 21.909 C 5.212 21.961,5.670 21.975,7.686 21.989 C 9.369 22.000,10.161 21.992,10.274 21.962 C 10.506 21.899,10.760 21.691,10.874 21.469 C 11.134 20.964,10.944 20.357,10.450 20.114 L 10.260 20.020 7.840 19.998 C 5.488 19.977,5.413 19.974,5.158 19.889 C 4.459 19.656,4.127 19.205,4.038 18.367 C 4.010 18.112,4.001 15.849,4.009 11.720 C 4.021 5.879,4.026 5.444,4.092 5.220 C 4.241 4.715,4.580 4.330,5.024 4.163 C 5.379 4.029,5.914 4.000,8.071 4.000 C 10.419 4.000,10.400 4.002,10.701 3.701 C 11.092 3.310,11.092 2.690,10.701 2.299 C 10.398 1.995,10.433 1.999,7.963 2.006 C 6.762 2.009,5.627 2.025,5.440 2.042 M17.030 7.681 C 16.032 7.794,14.959 8.321,14.346 8.999 L 14.200 9.160 11.308 9.160 L 8.416 9.160 8.207 9.264 C 8.046 9.344,7.753 9.619,6.929 10.464 C 6.341 11.067,5.838 11.609,5.812 11.670 C 5.740 11.834,5.752 12.158,5.836 12.344 C 5.877 12.435,6.385 13.040,6.977 13.704 C 8.131 14.999,8.236 15.089,8.589 15.089 C 8.856 15.089,9.003 15.016,9.440 14.665 C 9.649 14.498,9.831 14.360,9.846 14.360 C 9.860 14.360,10.067 14.512,10.306 14.698 C 11.006 15.244,11.155 15.241,12.020 14.658 L 12.580 14.280 13.185 14.280 L 13.789 14.280 13.991 14.550 C 14.269 14.923,14.803 15.432,15.153 15.658 C 16.871 16.768,19.126 16.520,20.579 15.060 C 21.121 14.517,21.495 13.866,21.709 13.095 C 21.810 12.733,21.819 12.641,21.819 12.000 C 21.819 11.359,21.810 11.267,21.709 10.905 C 21.365 9.667,20.569 8.684,19.460 8.128 C 18.707 7.749,17.839 7.590,17.030 7.681 M18.072 9.422 C 18.798 9.569,19.412 10.004,19.781 10.633 C 20.254 11.439,20.254 12.560,19.781 13.367 C 19.327 14.142,18.576 14.585,17.636 14.630 C 16.699 14.676,15.968 14.335,15.376 13.577 C 15.066 13.179,14.860 12.996,14.561 12.849 L 14.340 12.740 13.004 12.728 L 11.668 12.716 11.524 12.849 C 11.445 12.921,11.326 13.030,11.259 13.089 L 11.139 13.197 10.683 12.839 C 9.951 12.263,9.744 12.256,9.080 12.778 C 8.723 13.059,8.696 13.073,8.634 13.008 C 8.598 12.971,8.386 12.734,8.164 12.481 L 7.758 12.022 8.349 11.431 L 8.939 10.840 11.779 10.839 C 14.541 10.838,14.625 10.836,14.798 10.758 C 14.997 10.667,15.225 10.493,15.580 10.160 C 16.313 9.474,17.130 9.232,18.072 9.422 M17.115 10.813 C 16.570 11.017,16.264 11.443,16.264 12.000 C 16.264 12.487,16.505 12.885,16.937 13.113 C 17.113 13.205,17.187 13.219,17.500 13.219 C 17.813 13.219,17.887 13.205,18.063 13.113 C 18.306 12.985,18.539 12.737,18.653 12.485 C 18.782 12.198,18.772 11.766,18.628 11.473 C 18.506 11.223,18.293 11.009,18.032 10.875 C 17.818 10.765,17.331 10.732,17.115 10.813 " fill="var(--db-icon-color, currentColor)" stroke="none" fill-rule="evenodd"></path></svg>