<svg id="icon" height="24" viewBox="0 0 24 24" width="24" xmlns="http://www.w3.org/2000/svg"><path d="M8.465 2.063 C 7.580 2.278,6.949 3.083,6.949 4.000 C 6.949 5.291,8.183 6.260,9.418 5.939 C 10.326 5.702,10.927 4.930,10.927 4.000 C 10.927 2.700,9.729 1.758,8.465 2.063 M8.438 7.078 C 8.260 7.132,8.172 7.190,6.720 8.211 C 5.257 9.239,5.074 9.381,4.975 9.571 C 4.943 9.633,4.709 10.398,4.455 11.271 C 4.044 12.689,3.996 12.885,4.013 13.090 C 4.067 13.734,4.714 14.154,5.322 13.939 C 5.542 13.862,5.730 13.718,5.836 13.547 C 5.881 13.473,6.090 12.820,6.299 12.096 C 6.509 11.372,6.693 10.749,6.710 10.710 C 6.738 10.646,7.360 10.186,7.385 10.211 C 7.391 10.218,7.289 10.996,7.159 11.941 C 7.029 12.887,6.922 13.750,6.922 13.860 C 6.922 13.970,6.955 14.132,6.996 14.220 C 7.036 14.308,7.512 14.983,8.054 15.720 L 9.039 17.060 9.783 19.290 C 10.523 21.510,10.528 21.521,10.703 21.697 C 11.331 22.324,12.390 21.889,12.398 21.001 C 12.400 20.872,12.182 20.168,11.617 18.474 L 10.835 16.126 9.899 14.848 L 8.963 13.569 9.145 12.215 C 9.245 11.470,9.335 10.835,9.344 10.805 C 9.354 10.775,9.627 11.135,9.952 11.604 C 10.443 12.314,10.574 12.478,10.733 12.576 C 10.958 12.715,11.271 12.755,11.541 12.680 C 11.765 12.617,12.067 12.356,12.165 12.142 C 12.262 11.928,12.262 11.551,12.165 11.340 C 12.050 11.090,9.611 7.563,9.405 7.349 C 9.150 7.084,8.768 6.978,8.438 7.078 M13.180 12.876 C 12.727 12.993,12.424 13.379,12.421 13.841 C 12.419 14.323,12.308 14.207,15.500 17.064 C 17.174 18.563,18.452 19.677,18.551 19.725 C 18.766 19.830,19.116 19.836,19.350 19.741 C 19.561 19.655,19.849 19.342,19.912 19.129 C 20.013 18.793,19.949 18.455,19.736 18.207 C 19.509 17.941,14.085 13.105,13.888 12.992 C 13.686 12.876,13.375 12.825,13.180 12.876 M6.420 16.287 C 6.170 16.381,5.975 16.552,5.851 16.787 C 5.690 17.091,4.126 20.493,4.055 20.695 C 3.838 21.308,4.339 22.000,5.000 22.000 C 5.241 22.000,5.521 21.881,5.697 21.703 C 5.834 21.566,6.009 21.215,6.778 19.540 C 7.602 17.747,7.699 17.515,7.713 17.294 C 7.722 17.159,7.708 16.986,7.683 16.910 C 7.620 16.719,7.384 16.454,7.187 16.353 C 6.994 16.255,6.596 16.220,6.420 16.287 M20.760 20.035 C 20.325 20.177,20.002 20.589,20.002 21.000 C 20.002 21.499,20.501 21.999,21.000 21.999 C 21.499 21.999,21.998 21.499,21.998 21.000 C 21.998 20.662,21.753 20.282,21.425 20.113 C 21.253 20.024,20.914 19.985,20.760 20.035 " fill="var(--db-icon-color, currentColor)" stroke="none" fill-rule="evenodd"></path></svg>