<svg id="icon" height="32" viewBox="0 0 32 32" width="32" xmlns="http://www.w3.org/2000/svg"><path d="M15.253 2.142 C 14.702 2.358,14.514 2.609,11.216 7.547 C 7.798 12.663,7.615 12.945,7.156 13.813 C 5.430 17.077,5.119 19.991,6.163 23.120 C 6.326 23.609,6.857 24.749,7.106 25.145 C 8.910 28.011,11.830 29.742,15.240 29.967 C 19.110 30.223,22.617 28.549,24.670 25.467 C 25.640 24.009,26.232 22.261,26.404 20.347 C 26.611 18.034,25.912 15.566,24.277 12.834 C 23.774 11.993,23.539 11.717,23.228 11.598 C 22.586 11.352,21.906 11.836,21.912 12.535 C 21.914 12.824,21.963 12.935,22.367 13.561 C 23.283 14.982,23.989 16.611,24.269 17.950 C 24.484 18.980,24.462 20.357,24.210 21.520 C 24.052 22.250,23.862 22.789,23.514 23.493 C 22.376 25.798,20.348 27.318,17.703 27.849 C 17.180 27.954,16.935 27.971,15.973 27.969 C 14.969 27.967,14.784 27.952,14.181 27.825 C 13.064 27.588,12.118 27.210,11.280 26.665 C 8.839 25.075,7.461 22.277,7.591 19.173 C 7.641 17.971,7.917 16.911,8.527 15.573 C 9.013 14.507,9.354 13.948,11.272 11.068 C 13.109 8.310,15.027 5.393,15.595 4.493 C 15.767 4.222,15.914 4.000,15.923 4.000 C 15.932 4.000,16.749 5.201,17.739 6.668 C 19.073 8.646,19.586 9.366,19.723 9.450 C 19.947 9.589,20.348 9.634,20.604 9.550 C 21.008 9.416,21.327 8.867,21.248 8.439 C 21.223 8.306,20.831 7.676,20.064 6.533 C 17.277 2.387,17.330 2.458,16.804 2.199 C 16.393 1.997,15.689 1.972,15.253 2.142 M12.133 13.627 C 11.883 13.762,11.736 13.924,11.676 14.130 C 11.640 14.255,11.627 15.495,11.637 17.743 C 11.653 21.104,11.655 21.168,11.763 21.313 C 11.972 21.593,12.143 21.680,12.480 21.680 C 12.830 21.680,13.007 21.583,13.213 21.281 C 13.331 21.108,13.333 21.070,13.333 19.645 L 13.333 18.187 14.690 18.187 L 16.047 18.187 16.064 19.640 C 16.078 20.898,16.092 21.116,16.173 21.262 C 16.479 21.822,17.290 21.851,17.645 21.316 L 17.787 21.101 17.787 17.631 L 17.787 14.160 17.665 13.964 C 17.530 13.747,17.178 13.547,16.933 13.547 C 16.689 13.547,16.337 13.747,16.202 13.964 C 16.084 14.153,16.079 14.210,16.063 15.533 L 16.047 16.907 14.693 16.907 L 13.338 16.907 13.322 15.497 C 13.308 14.170,13.300 14.079,13.197 13.940 C 13.136 13.859,13.024 13.746,12.947 13.689 C 12.758 13.548,12.339 13.516,12.133 13.627 M19.245 19.487 C 19.109 19.524,18.934 19.596,18.856 19.647 C 18.571 19.833,18.564 20.185,18.841 20.392 C 18.972 20.490,19.010 20.493,19.347 20.433 C 19.971 20.321,20.174 20.500,20.061 21.060 C 19.980 21.459,19.760 21.774,19.159 22.352 C 18.873 22.626,18.598 22.911,18.547 22.985 C 18.418 23.173,18.430 23.381,18.582 23.557 L 18.711 23.707 19.861 23.723 C 20.830 23.737,21.040 23.726,21.192 23.654 C 21.501 23.507,21.596 23.101,21.370 22.889 C 21.260 22.786,21.188 22.773,20.703 22.773 C 20.404 22.773,20.160 22.755,20.160 22.733 C 20.161 22.711,20.325 22.532,20.526 22.334 C 21.019 21.849,21.236 21.437,21.269 20.923 C 21.303 20.401,21.211 20.095,20.937 19.810 C 20.587 19.446,19.890 19.314,19.245 19.487 " fill="var(--db-icon-color, currentColor)" stroke="none" fill-rule="evenodd"></path></svg>