<svg id="icon" height="32" viewBox="0 0 32 32" width="32" xmlns="http://www.w3.org/2000/svg"><path d="M24.080 6.383 C 23.459 6.415,22.099 6.564,21.440 6.673 C 15.355 7.676,11.148 10.766,9.070 15.759 C 8.764 16.494,8.774 16.945,9.106 17.292 C 9.478 17.682,10.293 17.624,10.606 17.184 C 10.665 17.101,10.789 16.843,10.881 16.611 C 11.142 15.953,11.695 14.901,12.100 14.290 C 13.995 11.431,17.028 9.575,21.147 8.751 C 22.649 8.451,23.283 8.400,25.529 8.400 C 26.648 8.400,27.582 8.417,27.603 8.438 C 27.647 8.483,27.205 9.883,26.819 10.922 C 25.024 15.749,22.941 18.827,20.230 20.658 C 19.243 21.324,18.301 21.735,17.143 22.005 C 16.573 22.138,16.403 22.154,15.520 22.157 C 14.545 22.160,14.283 22.130,13.600 21.937 L 13.307 21.854 14.000 21.523 C 15.938 20.597,17.938 19.300,20.080 17.579 C 21.205 16.675,22.120 15.843,23.190 14.752 C 24.336 13.584,24.461 13.350,24.219 12.827 C 23.995 12.341,23.424 12.090,22.951 12.270 C 22.869 12.301,22.286 12.836,21.654 13.458 C 20.136 14.956,19.190 15.782,17.787 16.836 C 14.948 18.967,12.265 20.341,9.744 20.956 C 7.576 21.484,5.740 21.442,3.760 20.817 C 3.338 20.684,3.109 20.638,2.946 20.656 C 2.086 20.748,1.777 21.894,2.470 22.423 C 2.833 22.699,4.409 23.120,5.593 23.256 C 5.940 23.296,6.567 23.309,7.273 23.293 C 8.446 23.265,9.105 23.179,10.223 22.908 L 10.747 22.781 11.067 22.984 C 12.108 23.640,13.374 24.040,14.813 24.169 C 16.314 24.302,18.069 23.991,19.590 23.323 C 21.804 22.349,23.896 20.471,25.612 17.915 C 27.197 15.553,28.638 12.257,29.678 8.618 C 29.993 7.512,29.991 7.262,29.663 6.915 C 29.436 6.675,29.294 6.628,28.531 6.538 C 27.129 6.372,25.439 6.314,24.080 6.383 " fill="var(--db-icon-color, currentColor)" stroke="none" fill-rule="evenodd"></path></svg>