<svg id="icon" height="24" viewBox="0 0 24 24" width="24" xmlns="http://www.w3.org/2000/svg"><path d="M16.888 5.841 C 14.900 5.997,13.177 6.465,11.562 7.288 C 9.566 8.305,8.187 9.817,7.175 12.100 C 6.886 12.751,6.857 12.971,7.017 13.298 C 7.144 13.558,7.367 13.736,7.676 13.826 C 8.173 13.971,8.646 13.735,8.856 13.240 C 9.290 12.213,9.618 11.625,10.071 11.062 C 11.466 9.323,13.582 8.265,16.400 7.897 C 16.961 7.824,19.104 7.768,19.161 7.825 C 19.202 7.866,18.876 8.845,18.543 9.677 C 17.050 13.407,15.173 15.475,12.771 16.036 C 12.355 16.133,11.575 16.201,11.230 16.170 L 10.999 16.150 11.417 15.879 C 12.341 15.277,13.125 14.634,14.024 13.740 C 14.962 12.808,16.049 11.540,16.181 11.223 C 16.423 10.643,15.877 9.880,15.220 9.880 C 14.886 9.880,14.646 10.028,14.286 10.454 C 11.858 13.333,9.791 14.880,7.630 15.437 C 6.950 15.613,6.556 15.654,5.800 15.627 C 5.092 15.603,4.744 15.541,4.049 15.318 C 3.542 15.155,3.228 15.162,2.936 15.342 C 2.449 15.643,2.365 16.402,2.768 16.859 C 2.946 17.061,3.295 17.212,4.024 17.401 C 4.799 17.601,5.279 17.652,6.180 17.629 C 6.991 17.608,7.457 17.546,8.156 17.362 L 8.452 17.285 8.705 17.437 C 9.289 17.790,10.161 18.072,10.951 18.165 C 11.437 18.223,12.477 18.189,12.917 18.101 C 14.037 17.879,15.174 17.361,16.109 16.648 C 18.358 14.932,20.109 11.935,21.323 7.720 C 21.525 7.020,21.535 6.813,21.383 6.502 C 21.186 6.099,20.959 5.988,20.154 5.899 C 19.476 5.824,17.541 5.790,16.888 5.841 " fill="var(--db-icon-color, currentColor)" stroke="none" fill-rule="evenodd"></path></svg>