<svg id="icon" height="20" viewBox="0 0 20 20" width="20" xmlns="http://www.w3.org/2000/svg"><path d="M4.350 2.049 C 3.931 2.141,3.491 2.413,3.230 2.740 C 2.966 3.073,2.896 3.280,2.444 5.067 L 2.019 6.750 2.018 7.250 C 2.018 7.801,2.072 8.082,2.270 8.546 C 2.391 8.832,2.680 9.270,2.864 9.448 L 3.000 9.580 3.000 12.786 L 3.000 15.991 2.860 16.014 C 2.375 16.091,2.000 16.521,2.000 17.000 C 2.000 17.396,2.274 17.790,2.646 17.929 L 2.837 18.001 10.060 17.992 L 17.283 17.983 17.462 17.884 C 17.910 17.636,18.107 17.123,17.933 16.657 C 17.806 16.318,17.500 16.069,17.142 16.013 L 17.000 15.991 17.000 12.786 L 17.000 9.580 17.136 9.448 C 17.319 9.271,17.609 8.832,17.730 8.548 C 17.959 8.008,18.054 7.306,17.969 6.767 C 17.948 6.629,17.750 5.812,17.529 4.950 C 17.060 3.118,17.004 2.973,16.633 2.602 C 16.363 2.332,15.987 2.127,15.617 2.050 C 15.287 1.981,4.664 1.980,4.350 2.049 M15.613 5.569 C 15.979 7.019,16.008 7.154,15.989 7.354 C 15.933 7.951,15.440 8.444,14.852 8.492 C 14.424 8.526,14.030 8.326,13.502 7.805 L 13.152 7.461 12.973 7.663 C 12.733 7.936,12.352 8.237,12.077 8.372 C 11.878 8.470,11.820 8.483,11.583 8.483 C 11.347 8.483,11.289 8.470,11.089 8.372 C 10.816 8.238,10.433 7.935,10.189 7.662 L 10.010 7.461 9.680 7.791 C 9.306 8.165,9.071 8.331,8.774 8.431 C 8.514 8.518,8.319 8.518,8.059 8.431 C 7.763 8.331,7.527 8.165,7.157 7.794 L 6.830 7.468 6.528 7.784 C 6.027 8.308,5.599 8.528,5.150 8.492 C 4.577 8.446,4.081 7.966,4.014 7.394 C 3.994 7.229,4.036 7.031,4.386 5.604 L 4.780 4.000 9.999 4.000 L 15.217 4.000 15.613 5.569 M7.022 10.181 C 7.868 10.603,8.954 10.601,9.824 10.175 L 9.998 10.090 10.259 10.209 C 10.722 10.421,11.014 10.481,11.583 10.481 C 12.152 10.481,12.445 10.421,12.904 10.211 L 13.162 10.093 13.354 10.184 C 13.791 10.391,14.264 10.500,14.720 10.500 L 15.000 10.500 15.000 11.250 L 15.000 12.000 10.000 12.000 L 5.000 12.000 5.000 11.255 L 5.000 10.510 5.392 10.491 C 5.822 10.470,6.228 10.371,6.583 10.201 C 6.693 10.148,6.801 10.104,6.822 10.103 C 6.844 10.101,6.934 10.136,7.022 10.181 M15.000 15.000 L 15.000 16.000 10.000 16.000 L 5.000 16.000 5.000 15.000 L 5.000 14.000 10.000 14.000 L 15.000 14.000 15.000 15.000 " fill="var(--db-icon-color, currentColor)" stroke="none" fill-rule="evenodd"></path></svg>