<svg id="icon" height="20" viewBox="0 0 20 20" width="20" xmlns="http://www.w3.org/2000/svg"><path d="M9.650 2.045 C 9.403 2.109,9.162 2.244,8.972 2.424 C 8.856 2.534,8.257 3.399,7.041 5.217 C 6.071 6.665,5.191 7.997,5.086 8.177 C 4.600 9.005,4.213 9.962,4.041 10.767 C 3.960 11.146,3.952 11.248,3.952 11.900 C 3.953 12.676,4.002 13.051,4.184 13.684 C 4.934 16.283,7.255 18.000,10.017 18.000 C 12.880 18.000,15.255 16.158,15.917 13.424 C 16.119 12.590,16.151 11.582,16.000 10.817 C 15.841 10.010,15.408 8.940,14.903 8.104 C 14.526 7.481,11.274 2.653,11.133 2.508 C 10.826 2.192,10.487 2.035,10.067 2.014 C 9.925 2.007,9.744 2.020,9.650 2.045 M11.672 6.850 C 13.271 9.244,13.513 9.644,13.781 10.329 C 13.848 10.500,13.943 10.800,13.992 10.995 C 14.071 11.309,14.081 11.414,14.081 11.900 C 14.081 12.504,14.036 12.796,13.866 13.307 C 13.317 14.953,11.821 16.000,10.017 16.000 C 8.183 16.000,6.677 14.925,6.141 13.233 C 5.990 12.757,5.951 12.476,5.952 11.883 C 5.953 11.419,5.964 11.304,6.042 10.993 C 6.159 10.525,6.321 10.111,6.584 9.607 C 6.841 9.113,6.818 9.150,8.591 6.505 C 9.753 4.772,10.015 4.401,10.050 4.438 C 10.073 4.463,10.803 5.548,11.672 6.850 " fill="var(--db-icon-color, currentColor)" stroke="none" fill-rule="evenodd"></path></svg>