<svg id="icon" height="24" viewBox="0 0 24 24" width="24" xmlns="http://www.w3.org/2000/svg"><path d="M18.176 2.053 C 17.987 2.124,17.783 2.278,17.683 2.423 C 17.530 2.647,17.480 2.896,17.480 3.432 L 17.480 3.931 16.285 5.916 C 15.628 7.007,15.068 7.969,15.041 8.054 C 14.962 8.300,15.005 8.642,15.144 8.867 C 15.278 9.084,15.585 9.294,15.829 9.334 C 15.912 9.348,17.124 9.359,18.523 9.360 C 21.363 9.360,21.345 9.362,21.645 9.090 C 21.949 8.816,22.067 8.415,21.947 8.063 C 21.913 7.962,21.652 7.514,21.368 7.069 C 21.084 6.624,20.555 5.747,20.191 5.120 L 19.531 3.980 19.511 3.380 C 19.489 2.715,19.446 2.555,19.228 2.325 C 18.963 2.046,18.507 1.928,18.176 2.053 M6.946 4.042 C 6.206 4.166,5.461 4.566,4.951 5.112 C 4.230 5.884,3.880 7.024,4.055 8.028 C 4.188 8.789,4.509 9.428,5.019 9.945 C 6.868 11.819,9.978 11.085,10.844 8.569 C 10.976 8.187,10.978 8.168,10.978 7.500 C 10.977 6.862,10.970 6.799,10.864 6.480 C 10.504 5.398,9.803 4.646,8.772 4.237 C 8.252 4.030,7.496 3.950,6.946 4.042 M8.126 6.130 C 8.444 6.277,8.696 6.522,8.849 6.831 C 9.024 7.188,9.053 7.657,8.921 8.010 C 8.541 9.023,7.276 9.321,6.488 8.584 C 5.645 7.795,5.976 6.428,7.100 6.053 C 7.349 5.970,7.865 6.009,8.126 6.130 M18.835 6.766 C 19.015 7.077,19.155 7.339,19.146 7.347 C 19.138 7.355,18.823 7.357,18.445 7.351 L 17.759 7.340 18.105 6.770 C 18.295 6.457,18.464 6.200,18.480 6.200 C 18.496 6.200,18.655 6.455,18.835 6.766 M17.720 11.037 C 17.283 11.170,17.145 11.361,16.885 12.188 C 16.383 13.789,16.116 14.598,16.083 14.618 C 16.048 14.640,14.763 14.109,13.640 13.610 C 13.015 13.332,12.819 13.262,12.380 13.159 C 11.740 13.008,11.309 12.994,7.660 13.009 C 4.417 13.022,4.121 13.029,3.900 13.095 C 3.214 13.300,2.589 13.820,2.285 14.440 C 1.999 15.025,2.001 14.986,2.001 18.223 C 2.000 21.483,1.991 21.380,2.293 21.691 C 2.684 22.093,3.305 22.097,3.701 21.701 C 4.010 21.392,4.000 21.506,4.000 18.326 C 4.000 15.587,4.002 15.500,4.080 15.340 C 4.132 15.234,4.216 15.143,4.319 15.086 L 4.477 14.996 8.069 15.011 C 11.235 15.024,11.692 15.034,11.928 15.092 C 12.075 15.128,12.930 15.473,13.828 15.858 C 15.666 16.646,15.812 16.690,16.344 16.607 C 16.949 16.513,17.557 16.106,17.850 15.600 C 17.907 15.501,18.184 14.700,18.464 13.820 C 19.048 11.988,19.064 11.897,18.861 11.526 C 18.638 11.121,18.143 10.909,17.720 11.037 M11.729 17.056 C 11.492 17.134,11.302 17.289,11.171 17.511 L 11.060 17.700 11.048 19.429 C 11.037 21.125,11.038 21.162,11.123 21.359 C 11.218 21.578,11.453 21.816,11.663 21.904 C 11.826 21.972,12.155 21.977,12.366 21.914 C 12.566 21.853,12.819 21.635,12.931 21.426 C 13.018 21.263,13.020 21.227,13.032 19.565 C 13.045 17.659,13.039 17.612,12.766 17.331 C 12.492 17.049,12.084 16.941,11.729 17.056 " fill="var(--db-icon-color, currentColor)" stroke="none" fill-rule="evenodd"></path></svg>