<svg id="icon" height="24" viewBox="0 0 24 24" width="24" xmlns="http://www.w3.org/2000/svg"><path d="M13.540 2.094 C 13.278 2.217,13.098 2.407,13.006 2.658 C 12.965 2.769,12.547 4.277,12.077 6.010 L 11.223 9.160 9.656 9.160 L 8.088 9.160 7.234 7.778 C 6.764 7.017,6.304 6.298,6.210 6.179 C 5.849 5.717,5.204 5.294,4.599 5.119 C 4.363 5.051,4.151 5.028,3.600 5.012 C 2.809 4.988,2.653 5.014,2.394 5.211 C 1.836 5.637,1.896 6.508,2.508 6.867 C 2.691 6.974,2.727 6.979,3.379 7.002 C 4.415 7.038,4.457 7.068,5.222 8.304 C 5.496 8.747,5.720 9.120,5.720 9.134 C 5.720 9.148,5.295 9.160,4.775 9.160 C 4.149 9.160,3.774 9.176,3.665 9.209 C 3.445 9.274,3.114 9.605,3.049 9.825 C 3.022 9.915,3.000 10.058,3.000 10.142 C 3.000 10.354,3.933 13.232,4.114 13.580 C 4.418 14.163,5.056 14.657,5.801 14.887 L 6.100 14.979 11.720 14.992 C 15.875 15.001,17.418 14.993,17.640 14.958 C 18.017 14.899,18.486 14.734,18.781 14.557 C 19.070 14.384,19.501 13.955,19.671 13.672 C 19.910 13.273,20.741 10.951,20.881 10.288 C 20.935 10.034,20.972 9.672,20.987 9.240 C 21.127 5.283,18.615 2.398,14.720 2.042 C 14.000 1.977,13.770 1.987,13.540 2.094 M15.271 4.146 C 16.201 4.331,17.081 4.793,17.711 5.427 C 18.536 6.259,18.962 7.374,19.010 8.830 L 19.021 9.160 16.148 9.160 C 13.430 9.160,13.276 9.156,13.296 9.090 C 13.308 9.052,13.615 7.922,13.979 6.580 C 14.342 5.238,14.649 4.117,14.659 4.088 C 14.680 4.033,14.723 4.037,15.271 4.146 M18.520 11.033 C 18.520 11.113,18.032 12.387,17.943 12.538 C 17.834 12.724,17.605 12.901,17.397 12.961 C 17.311 12.985,15.269 13.000,11.897 13.000 C 5.872 13.000,6.301 13.022,6.006 12.701 C 5.867 12.551,5.816 12.435,5.603 11.783 C 5.469 11.373,5.360 11.029,5.360 11.019 C 5.360 11.009,8.321 11.000,11.940 11.000 C 15.559 11.000,18.520 11.015,18.520 11.033 M7.503 16.040 C 7.218 16.091,6.942 16.188,6.643 16.340 C 5.185 17.081,4.596 18.826,5.303 20.307 C 6.027 21.822,7.903 22.438,9.405 21.654 C 10.766 20.943,11.357 19.287,10.763 17.848 C 10.430 17.040,9.704 16.395,8.820 16.121 C 8.503 16.023,7.825 15.981,7.503 16.040 M15.503 16.040 C 15.218 16.091,14.942 16.188,14.643 16.340 C 13.185 17.081,12.596 18.826,13.303 20.307 C 14.027 21.822,15.903 22.438,17.405 21.654 C 18.766 20.943,19.357 19.287,18.763 17.848 C 18.326 16.788,17.276 16.060,16.125 16.019 C 15.891 16.011,15.611 16.020,15.503 16.040 M8.461 18.111 C 9.051 18.414,9.175 19.209,8.708 19.690 C 8.316 20.093,7.696 20.098,7.299 19.701 C 7.125 19.527,7.000 19.243,7.000 19.020 C 7.000 18.618,7.283 18.199,7.643 18.066 C 7.873 17.982,8.250 18.002,8.461 18.111 M16.461 18.111 C 17.051 18.414,17.175 19.209,16.708 19.690 C 16.316 20.093,15.696 20.098,15.299 19.701 C 15.125 19.527,15.000 19.243,15.000 19.020 C 15.000 18.618,15.283 18.199,15.643 18.066 C 15.873 17.982,16.250 18.002,16.461 18.111 " fill="var(--db-icon-color, currentColor)" stroke="none" fill-rule="evenodd"></path></svg>