<svg id="icon" height="24" viewBox="0 0 24 24" width="24" xmlns="http://www.w3.org/2000/svg"><path d="M10.960 2.043 C 9.555 2.227,8.588 2.518,7.430 3.106 C 4.869 4.409,2.952 6.848,2.280 9.660 C 2.112 10.360,2.040 10.896,2.013 11.640 C 1.818 16.963,5.831 21.492,11.160 21.963 C 11.799 22.020,12.834 21.991,13.440 21.899 C 16.342 21.462,18.876 19.817,20.456 17.344 C 20.855 16.721,21.440 15.528,21.440 15.339 C 21.440 15.136,21.347 14.982,21.176 14.901 C 21.035 14.834,20.998 14.834,20.246 14.921 C 18.642 15.104,17.363 14.961,16.080 14.454 C 14.204 13.713,12.681 12.297,11.801 10.474 C 10.980 8.774,10.791 6.852,11.262 4.993 C 11.401 4.446,11.557 4.041,11.930 3.260 C 12.264 2.562,12.306 2.399,12.203 2.205 C 12.126 2.062,11.922 1.960,11.720 1.964 C 11.621 1.966,11.279 2.002,10.960 2.043 M9.240 4.831 C 9.062 5.648,9.023 6.029,9.022 7.000 C 9.021 8.014,9.068 8.455,9.267 9.300 C 10.061 12.667,12.587 15.420,15.880 16.507 C 16.582 16.739,17.645 16.960,18.057 16.960 C 18.133 16.960,18.206 16.978,18.219 16.999 C 18.258 17.061,17.307 18.011,16.884 18.333 C 14.432 20.200,11.229 20.523,8.492 19.180 C 5.223 17.576,3.462 14.017,4.161 10.422 C 4.457 8.898,5.254 7.425,6.385 6.312 C 6.964 5.743,7.496 5.342,8.180 4.961 C 8.415 4.830,9.290 4.440,9.310 4.457 C 9.315 4.462,9.284 4.630,9.240 4.831 " fill="var(--db-icon-color, currentColor)" stroke="none" fill-rule="evenodd"></path></svg>