<svg id="icon" height="32" viewBox="0 0 32 32" width="32" xmlns="http://www.w3.org/2000/svg"><path d="M26.587 4.087 C 26.351 4.210,4.226 26.335,4.103 26.571 C 3.713 27.320,4.470 28.192,5.299 27.949 C 5.483 27.895,5.763 27.642,6.960 26.450 L 8.401 25.015 18.160 25.001 L 27.920 24.987 28.253 24.872 C 29.074 24.591,29.661 23.984,29.899 23.173 C 30.011 22.792,30.028 21.364,29.926 20.939 C 29.716 20.065,29.050 19.365,28.187 19.110 C 27.889 19.022,27.392 19.015,21.149 18.999 L 14.431 18.983 21.159 12.252 C 24.974 8.436,27.912 5.455,27.944 5.370 C 28.016 5.177,28.016 4.848,27.943 4.657 C 27.751 4.149,27.041 3.851,26.587 4.087 M4.080 5.059 C 3.543 5.233,3.242 5.800,3.412 6.316 C 3.447 6.423,3.607 6.660,3.767 6.842 C 3.927 7.024,4.144 7.346,4.249 7.557 C 4.433 7.927,4.439 7.959,4.416 8.396 C 4.396 8.790,4.366 8.903,4.194 9.239 C 4.085 9.452,3.876 9.771,3.731 9.947 C 2.694 11.202,2.340 11.793,2.130 12.613 C 1.981 13.195,1.981 13.957,2.130 14.590 C 2.361 15.574,3.092 16.742,3.596 16.935 C 4.220 17.173,4.884 16.769,4.947 16.113 C 4.976 15.811,4.874 15.563,4.513 15.058 C 4.157 14.561,4.037 14.201,4.035 13.627 C 4.032 12.901,4.276 12.380,5.007 11.547 C 5.627 10.841,6.062 10.096,6.299 9.333 C 6.478 8.759,6.480 7.814,6.303 7.280 C 6.077 6.598,5.569 5.782,5.085 5.323 C 4.811 5.063,4.400 4.955,4.080 5.059 M4.187 19.043 C 3.170 19.180,2.388 19.848,2.101 20.827 C 1.989 21.208,1.972 22.636,2.074 23.061 C 2.212 23.635,2.665 24.304,3.078 24.544 L 3.234 24.634 4.049 23.818 L 4.865 23.001 4.562 22.976 C 4.346 22.958,4.227 22.918,4.143 22.834 C 4.035 22.725,4.027 22.667,4.027 21.994 L 4.027 21.271 4.176 21.142 C 4.325 21.014,4.330 21.013,5.590 21.013 L 6.854 21.013 7.867 20.000 L 8.879 18.987 6.693 18.993 C 5.490 18.997,4.363 19.020,4.187 19.043 M27.852 21.161 C 27.962 21.271,27.975 21.342,27.991 21.899 C 28.003 22.304,27.987 22.569,27.944 22.673 C 27.806 23.007,28.399 22.987,19.003 22.987 L 10.428 22.987 11.414 21.999 L 12.400 21.012 20.065 21.026 L 27.730 21.040 27.852 21.161 " fill="var(--db-icon-color, currentColor)" stroke="none" fill-rule="evenodd"></path></svg>