<svg id="icon" height="32" viewBox="0 0 32 32" width="32" xmlns="http://www.w3.org/2000/svg"><path d="M8.912 3.064 C 8.330 3.253,7.804 3.789,7.620 4.381 C 7.282 5.466,7.869 6.552,8.974 6.888 C 9.894 7.167,10.927 6.693,11.339 5.802 C 11.473 5.511,11.493 5.404,11.493 4.987 C 11.493 4.561,11.475 4.467,11.329 4.160 C 11.126 3.732,10.763 3.361,10.359 3.167 C 9.986 2.989,9.295 2.939,8.912 3.064 M10.613 8.834 C 10.125 8.929,9.437 9.144,9.273 9.252 C 8.839 9.538,8.722 10.228,9.038 10.642 C 9.203 10.858,9.538 11.036,9.787 11.040 C 9.875 11.041,10.218 10.976,10.550 10.896 C 11.097 10.763,11.166 10.757,11.290 10.828 C 11.380 10.879,11.897 11.675,12.780 13.120 C 13.524 14.337,14.196 15.414,14.273 15.512 C 14.433 15.716,14.776 15.891,15.013 15.890 C 15.101 15.890,15.965 15.677,16.932 15.416 C 17.900 15.156,18.709 14.953,18.730 14.966 C 18.751 14.979,19.481 15.892,20.352 16.995 C 21.756 18.772,21.963 19.012,22.176 19.106 C 22.649 19.315,23.237 19.116,23.466 18.669 C 23.608 18.389,23.607 18.003,23.463 17.766 C 23.223 17.373,19.833 13.069,19.673 12.955 C 19.343 12.720,19.126 12.747,17.257 13.250 C 16.321 13.503,15.536 13.703,15.512 13.695 C 15.489 13.687,15.232 13.296,14.941 12.827 C 14.500 12.115,14.427 11.967,14.500 11.934 C 14.548 11.912,15.170 11.738,15.883 11.547 C 16.596 11.356,17.244 11.166,17.323 11.125 C 17.516 11.024,17.740 10.780,17.810 10.597 C 17.939 10.255,17.858 9.844,17.610 9.582 C 17.214 9.163,17.011 9.174,14.963 9.725 L 13.313 10.168 13.101 9.851 C 12.853 9.479,12.396 9.123,11.959 8.959 C 11.657 8.846,10.907 8.776,10.613 8.834 M8.187 13.635 C 7.915 13.779,7.830 13.880,7.645 14.277 C 7.356 14.897,7.200 15.561,7.164 16.323 C 7.084 17.990,7.668 19.539,8.817 20.712 C 11.105 23.046,14.795 23.058,17.111 20.739 C 17.757 20.093,18.428 19.020,18.541 18.454 C 18.621 18.057,18.287 17.517,17.880 17.382 C 17.606 17.292,17.211 17.347,16.964 17.511 C 16.803 17.618,16.706 17.749,16.556 18.065 C 16.279 18.649,16.017 19.014,15.590 19.414 C 15.133 19.840,14.754 20.070,14.147 20.285 C 13.711 20.440,13.632 20.451,12.960 20.449 C 12.326 20.447,12.189 20.430,11.812 20.305 C 10.227 19.779,9.173 18.346,9.173 16.718 C 9.173 16.062,9.241 15.675,9.445 15.162 C 9.607 14.752,9.641 14.409,9.543 14.150 C 9.466 13.946,9.236 13.709,9.028 13.620 C 8.801 13.523,8.386 13.530,8.187 13.635 M25.493 21.894 C 25.303 21.933,22.963 22.433,20.293 23.006 C 17.624 23.579,13.280 24.506,10.641 25.068 L 5.842 26.089 4.988 26.073 C 3.741 26.050,3.556 26.058,3.383 26.149 C 2.740 26.485,2.630 27.302,3.165 27.772 C 3.271 27.866,3.452 27.967,3.566 27.998 C 3.680 28.029,4.322 28.059,4.993 28.066 L 6.213 28.079 11.813 26.870 C 14.893 26.205,19.345 25.248,21.707 24.744 L 26.000 23.826 27.057 23.859 C 28.216 23.895,28.353 23.872,28.660 23.584 C 29.124 23.148,29.038 22.362,28.491 22.041 C 28.260 21.906,28.192 21.895,27.336 21.859 C 26.113 21.807,25.898 21.811,25.493 21.894 " fill="var(--db-icon-color, currentColor)" stroke="none" fill-rule="evenodd"></path></svg>