<svg id="icon" height="20" viewBox="0 0 20 20" width="20" xmlns="http://www.w3.org/2000/svg"><path d="M3.229 2.011 C 2.777 2.180,2.508 2.575,2.542 3.019 C 2.562 3.278,2.650 3.468,2.866 3.717 C 3.139 4.033,3.215 4.203,3.215 4.500 C 3.215 4.715,3.200 4.778,3.110 4.952 C 3.053 5.063,2.944 5.231,2.869 5.326 C 2.482 5.817,2.254 6.266,2.130 6.790 C 2.071 7.037,2.062 7.155,2.076 7.533 C 2.094 8.079,2.165 8.368,2.400 8.859 C 2.694 9.475,3.039 9.874,3.372 9.985 C 4.115 10.232,4.870 9.532,4.655 8.796 C 4.626 8.697,4.505 8.470,4.385 8.290 C 3.938 7.616,3.950 7.237,4.440 6.570 C 4.750 6.150,5.040 5.586,5.136 5.217 C 5.275 4.685,5.256 4.107,5.081 3.593 C 4.871 2.976,4.357 2.265,3.984 2.075 C 3.782 1.972,3.416 1.941,3.229 2.011 M16.650 2.052 C 16.493 2.101,16.048 2.540,9.295 9.294 C 2.380 16.211,2.105 16.490,2.049 16.663 C 1.893 17.148,2.111 17.669,2.561 17.890 C 2.818 18.016,3.205 18.023,3.433 17.904 C 3.533 17.853,4.058 17.354,5.001 16.413 L 6.418 15.000 11.735 15.000 C 17.569 15.000,17.278 15.010,17.580 14.802 C 17.916 14.571,18.019 14.203,17.990 13.333 C 17.970 12.706,17.924 12.531,17.724 12.327 C 17.561 12.159,17.409 12.079,17.165 12.033 C 17.057 12.012,15.559 12.000,13.204 12.000 L 9.417 12.000 13.639 7.775 C 15.960 5.451,17.886 3.498,17.919 3.433 C 17.951 3.369,17.984 3.212,17.992 3.083 C 18.028 2.500,17.630 2.053,17.039 2.015 C 16.893 2.005,16.759 2.018,16.650 2.052 M2.809 12.035 C 2.491 12.098,2.247 12.281,2.110 12.559 L 2.017 12.750 2.017 13.483 C 2.017 14.257,2.033 14.367,2.175 14.543 L 2.250 14.635 3.567 13.318 L 4.883 12.000 3.917 12.004 C 3.385 12.006,2.887 12.020,2.809 12.035 " fill="var(--db-icon-color, currentColor)" stroke="none" fill-rule="evenodd"></path></svg>