<svg id="icon" height="24" viewBox="0 0 24 24" width="24" xmlns="http://www.w3.org/2000/svg"><path d="M3.930 2.064 C 3.692 2.152,3.427 2.422,3.346 2.659 C 3.263 2.903,3.263 3.047,3.343 3.323 C 3.405 3.534,3.499 3.632,6.493 6.630 L 9.579 9.721 6.961 9.710 L 4.343 9.700 4.252 9.540 C 4.130 9.323,4.046 8.917,4.005 8.338 C 3.965 7.785,3.898 7.610,3.642 7.391 C 3.136 6.958,2.347 7.149,2.080 7.768 C 1.996 7.964,1.991 8.020,2.011 8.500 C 2.066 9.767,2.443 10.708,3.110 11.243 L 3.280 11.380 3.280 15.352 C 3.280 19.691,3.276 19.607,3.514 20.191 C 3.669 20.574,3.876 20.868,4.217 21.192 C 4.728 21.678,5.339 21.944,6.041 21.987 C 7.204 22.059,8.304 21.426,8.816 20.388 C 9.100 19.813,9.127 19.657,9.149 18.427 C 9.165 17.534,9.178 17.358,9.224 17.376 C 9.255 17.388,9.437 17.429,9.630 17.468 C 9.893 17.521,10.168 17.538,10.740 17.536 C 11.464 17.535,11.635 17.516,12.170 17.379 L 12.280 17.351 12.280 18.306 C 12.280 18.831,12.299 19.375,12.322 19.516 C 12.376 19.851,12.530 20.284,12.691 20.560 C 12.877 20.877,13.447 21.438,13.760 21.611 C 15.445 22.544,17.478 21.704,18.046 19.840 L 18.137 19.540 18.150 15.574 L 18.163 11.607 18.372 11.558 C 19.788 11.224,20.995 10.291,21.539 9.109 C 21.817 8.506,21.999 7.680,22.000 7.025 C 22.000 6.586,21.941 6.419,21.700 6.176 L 21.498 5.973 19.599 5.342 L 17.700 4.711 16.420 3.440 C 15.716 2.740,15.077 2.135,15.000 2.095 C 14.903 2.045,14.773 2.022,14.580 2.022 C 14.161 2.022,13.863 2.202,13.676 2.567 C 13.625 2.668,13.419 3.806,13.021 6.196 C 12.701 8.111,12.440 9.692,12.440 9.709 C 12.440 9.726,10.735 8.036,8.650 5.954 C 6.566 3.872,4.798 2.137,4.722 2.099 C 4.531 2.003,4.142 1.986,3.930 2.064 M16.662 6.449 C 16.727 6.482,17.473 6.739,18.320 7.020 C 19.167 7.300,19.877 7.545,19.897 7.564 C 19.950 7.612,19.819 8.053,19.667 8.339 C 19.511 8.633,19.148 9.027,18.855 9.221 C 18.467 9.479,17.643 9.720,17.149 9.720 C 16.893 9.720,16.686 9.803,16.480 9.987 C 16.202 10.238,16.152 10.392,16.129 11.070 C 16.119 11.383,16.103 11.640,16.095 11.640 C 16.086 11.640,15.683 11.442,15.200 11.200 C 14.488 10.844,14.320 10.744,14.320 10.679 C 14.320 10.601,15.177 5.399,15.222 5.205 C 15.242 5.120,15.307 5.172,15.894 5.750 C 16.251 6.102,16.596 6.416,16.662 6.449 M11.000 13.660 L 11.000 15.600 10.750 15.600 C 10.208 15.599,9.528 15.416,8.804 15.076 C 8.437 14.903,8.357 14.880,8.122 14.880 C 7.894 14.880,7.826 14.898,7.640 15.010 C 7.382 15.164,7.219 15.404,7.161 15.715 C 7.137 15.840,7.120 16.646,7.120 17.627 C 7.120 19.509,7.129 19.436,6.848 19.729 C 6.447 20.148,5.738 20.055,5.421 19.542 L 5.300 19.346 5.289 15.533 L 5.278 11.720 8.139 11.720 L 11.000 11.720 11.000 13.660 M14.580 13.130 L 16.120 13.900 16.120 16.612 C 16.120 19.623,16.137 19.428,15.848 19.729 C 15.447 20.148,14.738 20.055,14.421 19.542 L 14.300 19.346 14.280 17.463 C 14.258 15.384,14.263 15.430,13.997 15.163 C 13.798 14.964,13.586 14.882,13.270 14.881 L 13.000 14.880 13.000 13.620 C 13.000 12.927,13.009 12.360,13.020 12.360 C 13.031 12.360,13.733 12.706,14.580 13.130 " fill="var(--db-icon-color, currentColor)" stroke="none" fill-rule="evenodd"></path></svg>