<svg id="icon" height="20" viewBox="0 0 20 20" width="20" xmlns="http://www.w3.org/2000/svg"><path d="M9.683 2.322 C 9.536 2.400,9.403 2.533,9.323 2.683 C 9.259 2.803,9.250 2.886,9.234 3.495 L 9.217 4.174 8.841 3.787 C 8.411 3.344,8.287 3.266,8.010 3.267 C 7.577 3.269,7.259 3.581,7.259 4.003 C 7.259 4.294,7.334 4.391,8.313 5.366 L 9.233 6.283 9.233 7.475 C 9.233 8.130,9.223 8.667,9.211 8.667 C 9.171 8.667,7.085 7.458,7.030 7.403 C 7.001 7.374,6.854 6.882,6.701 6.300 C 6.549 5.723,6.395 5.172,6.360 5.077 C 6.205 4.655,5.725 4.478,5.304 4.687 C 5.099 4.790,4.985 4.942,4.934 5.184 C 4.902 5.334,4.910 5.397,5.017 5.812 C 5.083 6.066,5.130 6.282,5.121 6.290 C 5.112 6.299,4.898 6.189,4.646 6.046 C 4.238 5.814,4.166 5.784,3.985 5.773 C 3.754 5.758,3.611 5.805,3.437 5.952 C 3.120 6.219,3.121 6.775,3.438 7.050 C 3.501 7.105,3.788 7.285,4.076 7.449 C 4.364 7.613,4.600 7.756,4.600 7.767 C 4.600 7.777,4.401 7.836,4.158 7.898 C 3.263 8.126,3.126 8.195,2.995 8.483 C 2.913 8.665,2.914 8.965,2.999 9.131 C 3.098 9.325,3.311 9.490,3.522 9.537 C 3.701 9.577,3.716 9.574,5.090 9.205 L 6.477 8.833 7.472 9.407 C 8.019 9.723,8.467 9.990,8.467 10.001 C 8.467 10.027,6.144 11.367,6.098 11.367 C 6.078 11.367,5.559 11.232,4.945 11.067 C 4.227 10.874,3.767 10.767,3.658 10.767 C 3.324 10.767,3.046 10.986,2.946 11.327 C 2.878 11.560,2.926 11.773,3.089 11.965 C 3.261 12.165,3.316 12.188,4.131 12.401 L 4.278 12.439 3.859 12.686 C 3.382 12.968,3.259 13.088,3.201 13.328 C 3.092 13.784,3.467 14.243,3.949 14.243 C 4.137 14.243,4.238 14.198,4.830 13.852 C 5.038 13.730,5.215 13.638,5.224 13.646 C 5.232 13.655,5.163 13.938,5.070 14.276 C 4.976 14.613,4.900 14.933,4.900 14.987 C 4.901 15.118,5.037 15.397,5.154 15.507 C 5.521 15.850,6.147 15.727,6.346 15.272 C 6.375 15.205,6.535 14.640,6.701 14.017 C 6.867 13.393,7.024 12.806,7.051 12.712 L 7.100 12.540 8.147 11.937 C 8.722 11.605,9.203 11.333,9.213 11.333 C 9.224 11.333,9.233 11.937,9.233 12.674 L 9.233 14.014 8.288 14.965 C 7.277 15.982,7.253 16.014,7.257 16.333 C 7.264 16.868,7.862 17.224,8.342 16.980 C 8.402 16.949,8.626 16.751,8.842 16.539 L 9.233 16.154 9.233 16.575 C 9.233 17.119,9.273 17.303,9.426 17.473 C 9.807 17.894,10.411 17.819,10.677 17.317 C 10.737 17.202,10.749 17.112,10.761 16.672 L 10.774 16.161 11.179 16.559 C 11.640 17.013,11.779 17.090,12.070 17.056 C 12.619 16.991,12.922 16.379,12.633 15.918 C 12.598 15.862,12.164 15.412,11.668 14.917 L 10.767 14.017 10.767 12.675 C 10.767 11.937,10.776 11.333,10.787 11.333 C 10.797 11.333,11.278 11.605,11.853 11.937 L 12.900 12.540 12.949 12.712 C 12.975 12.806,13.133 13.393,13.299 14.017 C 13.465 14.640,13.619 15.194,13.641 15.248 C 13.808 15.664,14.344 15.847,14.718 15.616 C 14.928 15.486,15.066 15.238,15.067 14.988 C 15.068 14.888,15.004 14.578,14.913 14.240 C 14.828 13.923,14.766 13.657,14.775 13.647 C 14.784 13.638,14.962 13.730,15.170 13.852 C 15.777 14.207,15.861 14.244,16.067 14.244 C 16.602 14.244,16.962 13.676,16.738 13.183 C 16.657 13.005,16.517 12.890,16.092 12.651 C 15.897 12.541,15.742 12.447,15.748 12.441 C 15.754 12.435,15.944 12.381,16.171 12.321 C 16.398 12.260,16.628 12.187,16.683 12.158 C 17.211 11.882,17.191 11.080,16.650 10.830 C 16.416 10.721,16.248 10.746,15.055 11.067 C 14.441 11.232,13.922 11.367,13.902 11.367 C 13.857 11.367,11.533 10.028,11.533 10.001 C 11.533 9.991,11.980 9.724,12.527 9.408 L 13.521 8.834 14.885 9.200 C 15.636 9.401,16.293 9.566,16.346 9.566 C 16.613 9.567,16.879 9.399,16.997 9.156 C 17.095 8.953,17.092 8.658,16.989 8.464 C 16.853 8.206,16.721 8.136,16.025 7.951 C 15.681 7.860,15.400 7.777,15.400 7.767 C 15.400 7.756,15.636 7.613,15.924 7.449 C 16.212 7.285,16.499 7.105,16.562 7.050 C 16.714 6.919,16.798 6.725,16.799 6.507 C 16.801 6.068,16.498 5.769,16.049 5.767 C 15.861 5.767,15.822 5.782,15.433 6.003 C 15.204 6.132,14.977 6.260,14.928 6.285 L 14.840 6.332 14.922 6.041 C 15.106 5.387,15.115 5.221,14.986 4.971 C 14.880 4.768,14.587 4.602,14.333 4.601 C 14.161 4.601,13.888 4.717,13.777 4.838 C 13.663 4.961,13.625 5.076,13.315 6.235 C 13.156 6.830,13.013 7.340,12.998 7.369 C 12.974 7.415,10.843 8.667,10.789 8.667 C 10.777 8.667,10.767 8.131,10.767 7.476 L 10.767 6.285 11.714 5.334 C 12.631 4.414,12.663 4.377,12.717 4.190 C 12.789 3.938,12.745 3.731,12.577 3.535 C 12.417 3.348,12.247 3.267,12.017 3.267 C 11.730 3.267,11.620 3.333,11.179 3.772 L 10.774 4.175 10.751 3.512 C 10.739 3.148,10.713 2.800,10.694 2.739 C 10.647 2.586,10.477 2.402,10.317 2.329 C 10.149 2.253,9.822 2.249,9.683 2.322 " fill="var(--db-icon-color, currentColor)" stroke="none" fill-rule="evenodd"></path></svg>