<svg id="icon" height="20" viewBox="0 0 20 20" width="20" xmlns="http://www.w3.org/2000/svg"><path d="M3.567 2.052 C 3.203 2.130,2.883 2.310,2.599 2.597 C 2.310 2.888,2.162 3.145,2.066 3.520 C 2.001 3.772,2.000 3.912,2.000 10.000 C 2.000 16.088,2.001 16.228,2.066 16.480 C 2.162 16.857,2.310 17.112,2.599 17.401 C 2.888 17.690,3.143 17.838,3.520 17.934 C 3.772 17.999,3.912 18.000,10.000 18.000 C 16.088 18.000,16.228 17.999,16.480 17.934 C 16.857 17.838,17.112 17.690,17.401 17.401 C 17.690 17.112,17.838 16.857,17.934 16.480 C 17.999 16.228,18.000 16.088,18.000 10.000 C 18.000 3.912,17.999 3.772,17.934 3.520 C 17.838 3.145,17.690 2.888,17.401 2.597 C 17.112 2.306,16.795 2.130,16.417 2.050 C 16.076 1.979,3.899 1.980,3.567 2.052 M10.850 5.967 C 11.550 6.031,12.288 6.198,12.557 6.354 C 12.800 6.494,12.941 6.824,12.870 7.088 C 12.809 7.314,12.514 7.533,12.270 7.533 C 12.216 7.533,12.017 7.497,11.828 7.451 C 10.820 7.212,9.875 7.207,9.291 7.437 C 8.906 7.589,8.560 7.914,8.381 8.291 C 8.094 8.899,7.993 10.126,8.153 11.061 C 8.360 12.261,9.021 12.782,10.333 12.779 C 10.895 12.778,11.156 12.732,11.258 12.615 C 11.331 12.532,11.333 12.507,11.333 11.852 C 11.333 11.350,11.323 11.166,11.292 11.141 C 11.269 11.123,11.085 11.101,10.883 11.093 C 10.473 11.076,10.371 11.040,10.205 10.851 C 10.079 10.707,10.054 10.619,10.074 10.384 C 10.091 10.169,10.206 9.999,10.401 9.900 C 10.522 9.838,10.598 9.833,11.577 9.833 C 12.609 9.833,12.625 9.834,12.737 9.909 C 12.971 10.066,12.969 10.049,12.959 11.650 L 12.950 13.083 12.860 13.254 C 12.671 13.612,12.411 13.759,11.712 13.899 C 10.937 14.054,10.243 14.098,9.595 14.031 C 7.735 13.842,6.729 12.989,6.362 11.293 C 6.264 10.841,6.238 9.691,6.314 9.175 C 6.552 7.555,7.435 6.511,8.895 6.120 C 9.158 6.049,9.475 5.999,9.933 5.955 C 10.187 5.931,10.500 5.935,10.850 5.967 " fill="var(--db-icon-color, currentColor)" stroke="none" fill-rule="evenodd"></path></svg>