<svg id="icon" height="32" viewBox="0 0 32 32" width="32" xmlns="http://www.w3.org/2000/svg"><path d="M13.063 4.656 C 12.426 4.837,11.904 5.307,11.681 5.902 C 11.503 6.378,11.540 7.000,11.775 7.479 C 11.979 7.893,12.315 8.217,12.747 8.418 C 12.994 8.532,13.120 8.554,13.547 8.557 C 13.989 8.560,14.092 8.542,14.358 8.417 C 14.978 8.127,15.408 7.565,15.526 6.892 C 15.682 6.006,15.096 5.015,14.240 4.718 C 13.907 4.602,13.356 4.573,13.063 4.656 M12.132 10.099 C 11.904 10.201,11.638 10.524,11.596 10.749 C 11.506 11.229,11.720 11.693,12.120 11.887 C 12.316 11.982,12.451 12.000,12.953 12.000 C 13.583 12.000,13.817 12.063,13.892 12.251 C 13.913 12.304,14.263 13.493,14.671 14.894 C 15.119 16.438,15.456 17.502,15.524 17.594 C 15.586 17.677,15.736 17.803,15.858 17.873 C 16.079 17.999,16.090 18.000,17.983 18.016 L 19.885 18.033 20.969 20.758 C 22.150 23.725,22.196 23.813,22.648 23.948 C 23.299 24.142,23.945 23.652,23.946 22.962 C 23.947 22.876,23.377 21.377,22.680 19.632 C 21.312 16.207,21.296 16.175,20.859 16.054 C 20.748 16.023,19.904 16.000,18.870 16.000 C 17.205 16.000,17.072 15.993,17.047 15.907 C 17.032 15.855,16.911 15.438,16.777 14.978 C 16.643 14.519,16.533 14.117,16.533 14.085 C 16.533 14.045,16.831 14.026,17.480 14.025 C 18.001 14.025,18.534 13.999,18.666 13.969 C 19.618 13.749,19.743 12.511,18.853 12.101 C 18.664 12.013,18.488 12.002,17.276 12.001 L 15.913 12.000 15.824 11.719 C 15.628 11.097,15.159 10.571,14.519 10.254 L 14.113 10.053 13.203 10.040 C 12.527 10.030,12.252 10.045,12.132 10.099 M9.691 13.978 C 9.246 14.213,8.497 15.515,8.237 16.507 C 7.961 17.558,8.004 18.828,8.351 19.867 C 9.754 24.064,15.061 25.381,18.203 22.312 C 18.798 21.730,19.001 21.431,19.029 21.093 C 19.093 20.319,18.319 19.772,17.631 20.104 C 17.497 20.169,17.338 20.287,17.277 20.365 C 16.475 21.405,15.379 21.940,14.053 21.940 C 13.160 21.940,12.562 21.769,11.840 21.305 C 11.035 20.788,10.382 19.863,10.161 18.924 C 10.059 18.489,10.058 17.513,10.160 17.080 C 10.265 16.635,10.502 16.125,10.822 15.655 C 11.142 15.185,11.227 14.912,11.146 14.613 C 11.081 14.370,10.831 14.059,10.608 13.944 C 10.393 13.833,9.934 13.850,9.691 13.978 M3.460 26.179 C 2.956 26.499,2.854 27.174,3.239 27.632 C 3.318 27.725,3.479 27.846,3.598 27.900 C 3.804 27.993,4.154 27.998,11.356 27.999 L 18.900 28.000 19.133 27.887 C 19.534 27.693,19.747 27.229,19.657 26.749 C 19.614 26.517,19.344 26.197,19.109 26.099 C 18.967 26.039,17.596 26.027,11.319 26.027 L 3.701 26.027 3.460 26.179 M22.244 26.120 C 22.143 26.171,21.987 26.306,21.897 26.418 C 21.751 26.601,21.733 26.662,21.733 26.982 C 21.733 27.430,21.897 27.714,22.253 27.887 C 22.483 27.998,22.541 28.000,25.337 27.999 C 27.986 27.998,28.202 27.991,28.402 27.900 C 29.128 27.570,29.206 26.602,28.540 26.179 L 28.299 26.027 25.363 26.027 C 22.673 26.027,22.411 26.035,22.244 26.120 " fill="var(--db-icon-color, currentColor)" stroke="none" fill-rule="evenodd"></path></svg>