<svg id="icon" height="20" viewBox="0 0 20 20" width="20" xmlns="http://www.w3.org/2000/svg"><path d="M9.478 3.047 C 8.355 3.262,7.444 4.036,7.097 5.070 C 6.983 5.411,6.975 5.599,7.067 5.843 C 7.154 6.075,7.316 6.261,7.538 6.384 C 7.697 6.472,7.748 6.483,8.000 6.483 C 8.252 6.483,8.303 6.472,8.462 6.384 C 8.695 6.255,8.844 6.076,8.950 5.801 C 9.106 5.392,9.351 5.155,9.730 5.045 C 10.324 4.872,10.926 5.290,10.991 5.919 C 11.028 6.285,10.834 6.540,10.200 6.959 C 9.615 7.345,9.280 7.768,9.104 8.342 C 9.066 8.467,9.025 8.663,9.013 8.779 L 8.992 8.990 6.104 10.248 C 4.360 11.007,3.143 11.556,3.031 11.633 C 2.369 12.089,1.945 12.970,2.012 13.750 C 2.086 14.615,2.597 15.379,3.346 15.746 C 3.870 16.002,3.291 15.981,9.883 15.992 C 15.180 16.001,15.810 15.996,16.048 15.949 C 16.959 15.765,17.647 15.123,17.905 14.215 C 17.964 14.007,17.980 13.867,17.980 13.567 C 17.979 13.224,17.967 13.150,17.871 12.867 C 17.811 12.692,17.696 12.442,17.614 12.311 C 17.448 12.044,17.102 11.706,16.829 11.543 C 16.731 11.485,15.383 10.887,13.833 10.214 C 12.284 9.542,11.012 8.988,11.005 8.982 C 10.999 8.977,11.018 8.922,11.048 8.861 C 11.086 8.782,11.198 8.688,11.439 8.533 C 12.039 8.147,12.545 7.610,12.765 7.126 C 12.941 6.737,12.981 6.530,12.979 6.000 C 12.979 5.608,12.964 5.466,12.905 5.250 C 12.614 4.186,11.792 3.369,10.740 3.097 C 10.404 3.010,9.797 2.986,9.478 3.047 M10.252 10.849 C 10.497 10.922,15.794 13.251,15.869 13.319 C 15.905 13.351,15.950 13.432,15.970 13.499 C 16.018 13.660,15.945 13.840,15.794 13.932 C 15.684 13.999,15.642 14.000,10.000 14.000 C 4.358 14.000,4.316 13.999,4.206 13.932 C 4.056 13.841,3.982 13.659,4.030 13.500 C 4.049 13.433,4.100 13.348,4.141 13.310 C 4.215 13.242,9.535 10.905,9.767 10.839 C 9.936 10.791,10.066 10.794,10.252 10.849 " fill="var(--db-icon-color, currentColor)" stroke="none" fill-rule="evenodd"></path></svg>