<svg id="icon" height="20" viewBox="0 0 20 20" width="20" xmlns="http://www.w3.org/2000/svg"><path d="M6.333 2.036 C 5.923 2.116,5.489 2.472,5.291 2.890 C 5.189 3.104,5.183 3.138,5.183 3.500 C 5.183 3.862,5.189 3.896,5.291 4.110 C 5.607 4.777,6.325 5.129,7.010 4.950 C 7.770 4.752,8.263 4.017,8.134 3.275 C 7.985 2.414,7.193 1.869,6.333 2.036 M6.083 5.896 C 6.010 5.929,5.313 6.298,4.533 6.715 C 3.130 7.468,2.923 7.600,2.809 7.817 C 2.700 8.023,2.000 10.380,2.000 10.540 C 2.000 11.039,2.413 11.485,2.912 11.525 C 3.165 11.545,3.346 11.498,3.555 11.358 C 3.827 11.177,3.891 11.042,4.219 9.970 L 4.516 8.995 4.849 8.816 C 5.032 8.718,5.187 8.642,5.193 8.649 C 5.199 8.655,5.127 9.228,5.032 9.922 L 4.860 11.183 3.723 13.950 C 2.696 16.452,2.586 16.738,2.573 16.939 C 2.548 17.349,2.747 17.701,3.113 17.893 C 3.349 18.016,3.739 18.022,3.977 17.904 C 4.163 17.813,4.347 17.636,4.436 17.462 C 4.470 17.395,4.845 16.495,5.269 15.462 C 5.693 14.429,6.051 13.563,6.065 13.538 C 6.082 13.507,6.160 13.588,6.317 13.803 L 6.544 14.112 7.107 15.777 C 7.713 17.572,7.749 17.652,8.031 17.831 C 8.319 18.014,8.609 18.046,8.920 17.929 C 9.300 17.787,9.532 17.467,9.558 17.050 C 9.572 16.820,9.564 16.791,8.969 15.035 C 8.637 14.055,8.334 13.201,8.296 13.136 C 8.258 13.072,7.946 12.636,7.602 12.168 C 7.259 11.700,6.957 11.284,6.932 11.244 C 6.893 11.181,6.904 11.040,7.015 10.211 C 7.085 9.682,7.154 9.238,7.167 9.223 C 7.180 9.208,7.331 9.358,7.501 9.556 C 8.163 10.326,8.262 10.400,8.654 10.426 C 9.091 10.455,9.434 10.259,9.623 9.874 C 9.753 9.610,9.754 9.262,9.625 9.017 C 9.553 8.879,7.591 6.563,7.172 6.121 C 6.984 5.922,6.766 5.834,6.467 5.834 C 6.296 5.835,6.174 5.854,6.083 5.896 M10.617 10.596 C 10.216 10.702,9.903 11.059,9.846 11.477 C 9.816 11.697,9.930 12.045,10.091 12.222 C 10.188 12.328,12.860 14.695,14.067 15.743 C 14.295 15.941,14.616 16.053,14.860 16.018 C 15.547 15.921,15.951 15.195,15.654 14.589 C 15.568 14.412,15.399 14.254,13.514 12.590 C 12.236 11.462,11.400 10.748,11.289 10.689 C 11.098 10.588,10.802 10.547,10.617 10.596 M16.778 16.030 C 16.619 16.071,16.389 16.216,16.271 16.350 C 16.079 16.569,16.018 16.724,16.017 17.000 C 16.017 17.215,16.030 17.275,16.115 17.427 C 16.226 17.628,16.399 17.796,16.607 17.906 C 16.719 17.965,16.804 17.982,17.000 17.982 C 17.196 17.982,17.281 17.965,17.393 17.906 C 17.601 17.796,17.774 17.628,17.885 17.427 C 17.969 17.275,17.983 17.214,17.983 17.000 C 17.983 16.786,17.969 16.725,17.885 16.573 C 17.654 16.155,17.185 15.925,16.778 16.030 " fill="var(--db-icon-color, currentColor)" stroke="none" fill-rule="evenodd"></path></svg>