<svg id="icon" height="20" viewBox="0 0 20 20" width="20" xmlns="http://www.w3.org/2000/svg"><path d="M3.567 2.052 C 3.203 2.130,2.883 2.310,2.599 2.597 C 2.310 2.888,2.162 3.145,2.066 3.520 C 2.001 3.772,2.000 3.912,2.000 10.000 C 2.000 16.088,2.001 16.228,2.066 16.480 C 2.162 16.857,2.310 17.112,2.599 17.401 C 2.888 17.690,3.143 17.838,3.520 17.934 C 3.772 17.999,3.912 18.000,10.000 18.000 C 16.088 18.000,16.228 17.999,16.480 17.934 C 16.857 17.838,17.112 17.690,17.401 17.401 C 17.690 17.112,17.838 16.857,17.934 16.480 C 17.999 16.228,18.000 16.088,18.000 10.000 C 18.000 3.912,17.999 3.772,17.934 3.520 C 17.838 3.145,17.690 2.888,17.401 2.597 C 17.112 2.306,16.795 2.130,16.417 2.050 C 16.076 1.979,3.899 1.980,3.567 2.052 M16.000 10.000 L 16.000 16.000 10.000 16.000 L 4.000 16.000 4.000 10.000 L 4.000 4.000 10.000 4.000 L 16.000 4.000 16.000 10.000 M7.583 6.389 C 7.436 6.466,7.303 6.599,7.222 6.750 L 7.150 6.883 7.150 9.933 C 7.150 13.291,7.140 13.130,7.360 13.373 C 7.546 13.580,7.706 13.648,8.000 13.648 C 8.295 13.648,8.454 13.580,8.642 13.371 C 8.850 13.141,8.867 13.026,8.867 11.844 L 8.867 10.800 9.042 10.800 C 9.325 10.801,9.640 10.865,9.790 10.952 C 9.993 11.071,10.162 11.309,10.819 12.405 C 11.142 12.943,11.438 13.419,11.478 13.463 C 11.741 13.752,12.342 13.720,12.609 13.403 C 12.702 13.293,12.800 13.018,12.800 12.869 C 12.799 12.679,12.708 12.485,12.288 11.788 C 11.836 11.037,11.574 10.700,11.311 10.533 L 11.172 10.445 11.358 10.388 C 11.789 10.255,12.254 9.952,12.438 9.683 C 12.659 9.361,12.787 8.816,12.755 8.334 C 12.701 7.510,12.369 6.967,11.717 6.641 C 11.178 6.371,10.857 6.333,9.117 6.335 C 7.877 6.336,7.670 6.343,7.583 6.389 M10.369 7.600 C 10.737 7.670,10.946 7.838,11.036 8.136 C 11.054 8.199,11.070 8.400,11.071 8.583 C 11.072 9.136,10.945 9.402,10.604 9.562 C 10.421 9.648,10.398 9.650,9.642 9.661 L 8.867 9.671 8.867 8.619 L 8.867 7.567 9.529 7.567 C 9.893 7.567,10.271 7.582,10.369 7.600 " fill="var(--db-icon-color, currentColor)" stroke="none" fill-rule="evenodd"></path></svg>