<svg id="icon" height="20" viewBox="0 0 20 20" width="20" xmlns="http://www.w3.org/2000/svg"><path d="M3.567 2.052 C 3.203 2.130,2.883 2.310,2.599 2.597 C 2.310 2.888,2.162 3.145,2.066 3.520 C 2.001 3.772,2.000 3.912,2.000 10.000 C 2.000 16.088,2.001 16.228,2.066 16.480 C 2.162 16.857,2.310 17.112,2.599 17.401 C 2.888 17.690,3.143 17.838,3.520 17.934 C 3.772 17.999,3.912 18.000,10.000 18.000 C 16.088 18.000,16.228 17.999,16.480 17.934 C 16.857 17.838,17.112 17.690,17.401 17.401 C 17.690 17.112,17.838 16.857,17.934 16.480 C 17.999 16.228,18.000 16.088,18.000 10.000 C 18.000 3.912,17.999 3.772,17.934 3.520 C 17.838 3.145,17.690 2.888,17.401 2.597 C 17.112 2.306,16.795 2.130,16.417 2.050 C 16.076 1.979,3.899 1.980,3.567 2.052 M10.638 6.035 C 11.903 6.162,12.630 6.668,12.888 7.600 C 12.981 7.938,12.975 8.738,12.876 9.051 C 12.787 9.333,12.599 9.633,12.391 9.823 C 12.221 9.979,11.862 10.172,11.533 10.283 L 11.317 10.356 11.457 10.428 C 11.624 10.513,11.850 10.739,12.048 11.017 C 12.262 11.318,13.104 12.723,13.154 12.862 C 13.293 13.251,13.101 13.727,12.731 13.912 C 12.388 14.082,11.912 14.000,11.685 13.729 C 11.639 13.675,11.277 13.087,10.880 12.424 C 9.914 10.810,9.869 10.767,9.188 10.767 L 8.867 10.767 8.866 12.025 C 8.866 13.275,8.865 13.284,8.788 13.451 C 8.744 13.546,8.641 13.680,8.552 13.758 C 8.093 14.162,7.416 14.038,7.115 13.494 L 7.017 13.317 7.007 10.000 C 7.000 7.442,7.007 6.649,7.039 6.533 C 7.088 6.353,7.328 6.098,7.500 6.044 C 7.654 5.995,10.171 5.988,10.638 6.035 M8.882 7.475 C 8.873 7.498,8.870 7.982,8.875 8.550 L 8.883 9.583 9.600 9.581 C 10.165 9.580,10.356 9.568,10.500 9.524 C 10.952 9.389,11.135 9.088,11.136 8.483 C 11.136 7.817,10.924 7.553,10.321 7.469 C 9.944 7.417,8.903 7.421,8.882 7.475 " fill="var(--db-icon-color, currentColor)" stroke="none" fill-rule="evenodd"></path></svg>