<svg id="icon" height="32" viewBox="0 0 32 32" width="32" xmlns="http://www.w3.org/2000/svg"><path d="M4.220 2.111 C 3.550 2.291,2.874 2.785,2.476 3.387 C 2.379 3.533,2.232 3.845,2.150 4.080 L 2.000 4.507 2.000 16.000 L 2.000 27.493 2.148 27.911 C 2.490 28.878,3.122 29.510,4.089 29.852 L 4.507 30.000 16.000 30.000 L 27.493 30.000 27.911 29.852 C 28.878 29.510,29.510 28.878,29.852 27.911 L 30.000 27.493 30.000 16.000 L 30.000 4.507 29.852 4.089 C 29.582 3.324,29.077 2.719,28.423 2.375 C 27.708 2.000,28.672 2.026,15.975 2.030 C 6.147 2.033,4.466 2.045,4.220 2.111 M27.348 4.083 C 27.611 4.193,27.780 4.355,27.899 4.613 C 27.994 4.819,27.998 5.250,27.999 15.973 C 27.999 23.108,27.981 27.188,27.947 27.309 C 27.888 27.522,27.567 27.859,27.343 27.943 C 27.132 28.023,4.867 28.023,4.657 27.943 C 4.443 27.863,4.216 27.635,4.101 27.387 C 4.006 27.181,4.002 26.762,4.001 16.012 C 4.000 6.056,4.009 4.829,4.083 4.652 C 4.193 4.389,4.355 4.220,4.613 4.101 C 4.819 4.006,5.251 4.002,15.988 4.001 C 25.944 4.000,27.171 4.009,27.348 4.083 M15.413 8.482 C 14.456 8.599,13.409 8.893,12.720 9.240 C 11.904 9.649,11.092 10.324,10.561 11.032 C 9.530 12.410,9.040 14.505,9.181 16.941 C 9.381 20.398,10.944 22.526,13.838 23.278 C 14.760 23.518,15.512 23.587,16.853 23.558 C 18.214 23.528,18.970 23.421,20.000 23.112 C 20.876 22.850,21.151 22.706,21.339 22.410 L 21.493 22.166 21.493 19.366 C 21.493 16.623,21.491 16.562,21.380 16.333 C 21.311 16.189,21.183 16.045,21.047 15.957 L 20.827 15.813 18.988 15.797 C 16.900 15.779,16.837 15.789,16.510 16.171 C 16.250 16.475,16.169 16.852,16.288 17.209 C 16.383 17.497,16.677 17.824,16.923 17.917 C 17.006 17.948,17.407 17.973,17.815 17.973 C 18.493 17.973,18.561 17.982,18.611 18.076 C 18.645 18.140,18.667 18.712,18.667 19.564 C 18.667 20.804,18.657 20.960,18.573 21.062 C 18.408 21.262,17.813 21.354,16.667 21.356 C 15.787 21.358,15.591 21.343,15.179 21.239 C 13.673 20.857,12.850 19.934,12.479 18.210 C 12.389 17.795,12.358 17.422,12.335 16.493 C 12.303 15.161,12.363 14.403,12.565 13.603 C 12.924 12.184,13.797 11.243,15.088 10.885 C 16.217 10.572,17.954 10.625,19.413 11.018 C 20.219 11.234,20.546 11.190,20.945 10.811 C 21.163 10.605,21.304 10.198,21.258 9.910 C 21.218 9.659,21.065 9.342,20.926 9.220 C 20.639 8.967,19.863 8.735,18.720 8.559 C 18.061 8.457,16.009 8.410,15.413 8.482 " fill="var(--db-icon-color, currentColor)" stroke="none" fill-rule="evenodd"></path></svg>