<svg id="icon" height="20" viewBox="0 0 20 20" width="20" xmlns="http://www.w3.org/2000/svg"><path d="M4.692 2.036 C 4.300 2.078,4.014 2.158,3.678 2.319 C 2.837 2.722,2.284 3.472,2.076 4.490 C 2.020 4.765,2.017 5.114,2.017 9.983 C 2.017 14.245,2.025 15.228,2.062 15.433 C 2.325 16.870,3.277 17.796,4.666 17.965 C 4.825 17.985,5.651 18.000,6.556 18.000 C 8.118 18.000,8.170 17.998,8.355 17.929 C 8.479 17.882,8.601 17.802,8.702 17.702 C 9.184 17.219,9.052 16.411,8.441 16.110 L 8.250 16.017 6.550 16.000 C 4.964 15.984,4.837 15.979,4.650 15.917 C 4.290 15.796,4.111 15.525,4.036 14.986 C 3.987 14.633,3.986 5.394,4.035 4.999 C 4.094 4.528,4.274 4.237,4.600 4.086 C 4.744 4.019,4.814 4.016,6.500 4.000 L 8.250 3.983 8.441 3.890 C 8.670 3.777,8.842 3.586,8.933 3.343 C 9.111 2.868,8.898 2.335,8.441 2.110 L 8.250 2.017 6.600 2.012 C 5.692 2.010,4.834 2.020,4.692 2.036 M14.400 6.903 C 14.072 6.953,13.565 7.139,13.260 7.321 C 12.927 7.519,12.434 7.994,12.234 8.308 L 12.091 8.533 9.377 8.533 C 7.458 8.533,6.641 8.544,6.589 8.570 C 6.485 8.623,5.438 9.666,5.381 9.773 C 5.305 9.917,5.322 10.074,5.429 10.220 C 5.581 10.427,6.481 11.295,6.584 11.334 C 6.767 11.403,6.861 11.347,7.318 10.897 L 7.752 10.468 8.168 10.886 C 8.396 11.116,8.624 11.326,8.673 11.352 C 8.723 11.379,8.826 11.400,8.902 11.400 C 9.035 11.400,9.058 11.382,9.500 10.947 L 9.961 10.494 10.218 10.764 C 10.624 11.189,10.585 11.176,11.326 11.148 L 11.954 11.124 12.012 11.275 C 12.113 11.540,12.451 12.012,12.719 12.263 C 13.687 13.166,15.041 13.381,16.217 12.819 C 16.574 12.647,16.777 12.505,17.062 12.225 C 17.454 11.839,17.721 11.394,17.888 10.847 C 17.970 10.578,17.978 10.500,17.979 10.017 C 17.980 9.529,17.972 9.457,17.889 9.183 C 17.520 7.971,16.702 7.199,15.520 6.948 C 15.219 6.884,14.672 6.862,14.400 6.903 M15.967 8.898 C 16.240 9.038,16.390 9.187,16.518 9.446 C 16.626 9.664,16.639 9.718,16.639 9.954 C 16.639 10.362,16.477 10.695,16.172 10.916 C 15.581 11.346,14.733 11.132,14.408 10.470 C 14.328 10.306,14.317 10.245,14.317 9.967 C 14.317 9.687,14.328 9.628,14.410 9.460 C 14.526 9.224,14.806 8.962,15.042 8.869 C 15.287 8.772,15.749 8.787,15.967 8.898 " fill="var(--db-icon-color, currentColor)" stroke="none" fill-rule="evenodd"></path></svg>