<svg id="icon" height="32" viewBox="0 0 32 32" width="32" xmlns="http://www.w3.org/2000/svg"><path d="M9.607 2.111 C 8.846 2.315,8.079 2.924,7.722 3.606 C 7.435 4.155,7.341 4.531,7.347 5.120 C 7.354 5.975,7.636 6.630,8.272 7.268 C 8.884 7.883,9.773 8.212,10.636 8.144 C 11.885 8.045,12.948 7.209,13.339 6.017 C 13.505 5.511,13.517 4.664,13.366 4.213 C 13.007 3.146,12.207 2.378,11.174 2.109 C 10.780 2.007,9.991 2.008,9.607 2.111 M10.732 4.056 C 11.305 4.215,11.635 4.937,11.395 5.508 C 11.206 5.957,10.635 6.247,10.172 6.131 C 9.699 6.012,9.337 5.560,9.335 5.086 C 9.334 4.947,9.388 4.761,9.482 4.581 C 9.602 4.351,9.684 4.269,9.915 4.148 C 10.218 3.990,10.415 3.968,10.732 4.056 M9.294 9.769 C 8.923 9.973,5.931 12.438,5.786 12.660 C 5.667 12.842,4.427 16.941,4.427 17.153 C 4.427 17.362,4.547 17.681,4.682 17.830 C 4.947 18.123,5.517 18.222,5.866 18.034 C 6.239 17.835,6.304 17.689,6.917 15.675 L 7.495 13.777 7.988 13.367 C 8.258 13.142,8.480 12.985,8.480 13.017 C 8.480 13.050,8.358 14.290,8.209 15.773 C 7.965 18.203,7.946 18.490,8.012 18.687 C 8.054 18.812,8.668 19.699,9.433 20.742 C 10.175 21.751,10.814 22.627,10.854 22.688 C 10.895 22.750,11.395 24.296,11.967 26.124 C 12.694 28.450,13.047 29.500,13.140 29.623 C 13.697 30.354,14.917 29.912,14.896 28.987 C 14.892 28.800,14.563 27.682,13.804 25.277 L 12.717 21.834 11.353 19.970 L 9.989 18.107 10.353 14.507 C 10.553 12.527,10.717 10.800,10.718 10.670 C 10.724 9.925,9.927 9.421,9.294 9.769 M11.902 11.954 C 11.610 12.099,11.405 12.402,11.374 12.735 C 11.340 13.111,11.942 15.246,12.158 15.514 C 12.471 15.903,14.058 17.436,14.203 17.491 C 14.778 17.705,15.477 17.301,15.557 16.710 C 15.618 16.254,15.521 16.095,14.634 15.197 L 13.811 14.364 13.543 13.384 C 13.247 12.303,13.144 12.108,12.780 11.942 C 12.489 11.810,12.185 11.814,11.902 11.954 M16.225 17.871 C 16.128 17.900,15.957 18.017,15.843 18.130 C 15.515 18.459,15.461 18.961,15.714 19.351 C 15.857 19.572,24.136 27.630,24.367 27.773 C 24.506 27.859,24.642 27.893,24.856 27.893 C 25.553 27.894,26.032 27.221,25.789 26.584 C 25.710 26.379,25.064 25.726,21.431 22.184 C 19.086 19.897,17.096 17.990,17.011 17.945 C 16.805 17.839,16.443 17.805,16.225 17.871 M7.493 20.822 C 7.405 20.862,7.267 20.964,7.186 21.050 C 7.005 21.243,4.065 28.538,4.018 28.911 C 3.923 29.668,4.790 30.247,5.468 29.880 C 5.784 29.708,5.872 29.520,7.393 25.726 C 8.453 23.082,8.907 21.890,8.907 21.747 C 8.907 21.520,8.791 21.204,8.651 21.050 C 8.402 20.773,7.847 20.665,7.493 20.822 M26.640 28.076 C 25.962 28.380,25.804 29.167,26.319 29.681 C 26.725 30.088,27.212 30.101,27.639 29.716 C 28.003 29.388,28.089 29.024,27.899 28.613 C 27.670 28.117,27.095 27.872,26.640 28.076 " fill="var(--db-icon-color, currentColor)" stroke="none" fill-rule="evenodd"></path></svg>