<svg id="icon" height="32" viewBox="0 0 32 32" width="32" xmlns="http://www.w3.org/2000/svg"><path d="M4.220 2.111 C 3.550 2.291,2.874 2.785,2.476 3.387 C 2.379 3.533,2.232 3.845,2.150 4.080 L 2.000 4.507 2.000 16.000 L 2.000 27.493 2.148 27.911 C 2.490 28.878,3.122 29.510,4.089 29.852 L 4.507 30.000 16.000 30.000 L 27.493 30.000 27.911 29.852 C 28.878 29.510,29.510 28.878,29.852 27.911 L 30.000 27.493 30.000 16.000 L 30.000 4.507 29.852 4.089 C 29.582 3.324,29.077 2.719,28.423 2.375 C 27.708 2.000,28.672 2.026,15.975 2.030 C 6.147 2.033,4.466 2.045,4.220 2.111 M27.348 4.083 C 27.611 4.193,27.780 4.355,27.899 4.613 C 27.994 4.819,27.998 5.251,27.999 15.988 C 28.000 25.953,27.991 27.171,27.917 27.348 C 27.804 27.620,27.536 27.884,27.309 27.947 C 27.024 28.026,4.926 28.019,4.688 27.939 C 4.446 27.859,4.222 27.647,4.101 27.387 C 4.006 27.181,4.002 26.762,4.001 16.012 C 4.000 6.056,4.009 4.829,4.083 4.652 C 4.193 4.389,4.355 4.220,4.613 4.101 C 4.819 4.006,5.251 4.002,15.988 4.001 C 25.944 4.000,27.171 4.009,27.348 4.083 M11.893 8.591 C 11.549 8.746,11.218 9.091,11.093 9.427 C 10.989 9.704,10.987 9.851,10.987 15.726 C 10.987 22.568,10.953 22.053,11.437 22.537 C 12.187 23.287,13.388 23.073,13.846 22.107 L 13.972 21.840 13.973 19.400 L 13.973 16.960 14.577 16.960 C 15.858 16.960,15.866 16.968,17.725 19.986 C 19.103 22.223,19.259 22.457,19.511 22.673 C 20.068 23.150,20.915 23.074,21.404 22.503 C 21.601 22.273,21.760 21.869,21.760 21.599 C 21.760 21.267,21.552 20.870,20.473 19.146 C 19.286 17.248,18.959 16.823,18.432 16.489 C 18.274 16.388,18.200 16.314,18.245 16.300 C 18.700 16.163,19.242 15.954,19.547 15.797 C 20.065 15.531,20.618 14.968,20.873 14.448 C 21.189 13.800,21.253 13.476,21.247 12.533 C 21.243 11.796,21.227 11.655,21.098 11.228 C 21.019 10.965,20.877 10.606,20.783 10.430 C 20.330 9.579,19.376 8.928,18.201 8.669 C 17.483 8.510,16.896 8.480,14.535 8.481 C 12.237 8.482,12.123 8.487,11.893 8.591 M17.120 10.796 C 17.997 11.074,18.291 11.571,18.292 12.773 C 18.292 14.064,17.850 14.661,16.750 14.858 C 16.494 14.903,15.913 14.930,15.160 14.931 L 13.973 14.933 13.973 12.795 L 13.973 10.656 15.400 10.680 C 16.562 10.699,16.881 10.720,17.120 10.796 " fill="var(--db-icon-color, currentColor)" stroke="none" fill-rule="evenodd"></path></svg>