<svg id="icon" height="20" viewBox="0 0 20 20" width="20" xmlns="http://www.w3.org/2000/svg"><path d="M3.567 2.052 C 3.203 2.130,2.883 2.310,2.599 2.597 C 2.310 2.888,2.162 3.145,2.066 3.520 C 2.001 3.772,2.000 3.912,2.000 10.000 C 2.000 16.088,2.001 16.228,2.066 16.480 C 2.162 16.857,2.310 17.112,2.599 17.401 C 2.888 17.690,3.143 17.838,3.520 17.934 C 3.772 17.999,3.912 18.000,10.000 18.000 C 16.088 18.000,16.228 17.999,16.480 17.934 C 16.857 17.838,17.112 17.690,17.401 17.401 C 17.690 17.112,17.838 16.857,17.934 16.480 C 17.999 16.228,18.000 16.088,18.000 10.000 C 18.000 3.912,17.999 3.772,17.934 3.520 C 17.838 3.145,17.690 2.888,17.401 2.597 C 17.112 2.306,16.795 2.130,16.417 2.050 C 16.076 1.979,3.899 1.980,3.567 2.052 M16.000 10.000 L 16.000 16.000 10.000 16.000 L 4.000 16.000 4.000 10.000 L 4.000 4.000 10.000 4.000 L 16.000 4.000 16.000 10.000 M9.802 6.234 C 7.866 6.436,6.793 7.452,6.546 9.313 C 6.478 9.826,6.502 10.699,6.596 11.167 C 6.896 12.652,7.734 13.459,9.250 13.722 C 9.713 13.802,10.787 13.802,11.250 13.722 C 11.695 13.644,12.083 13.543,12.238 13.464 C 12.523 13.319,12.708 13.050,12.765 12.696 C 12.810 12.418,12.809 10.430,12.764 10.233 C 12.724 10.061,12.630 9.944,12.476 9.879 C 12.339 9.821,10.656 9.814,10.450 9.871 C 9.951 10.009,9.928 10.776,10.417 10.968 C 10.472 10.990,10.674 11.017,10.867 11.029 L 11.217 11.050 11.226 11.709 C 11.231 12.119,11.222 12.393,11.200 12.433 C 11.140 12.545,10.922 12.582,10.317 12.582 C 9.873 12.581,9.703 12.568,9.533 12.521 C 8.892 12.343,8.500 11.919,8.333 11.225 C 8.182 10.598,8.182 9.513,8.333 8.876 C 8.506 8.146,8.918 7.703,9.582 7.534 C 10.136 7.392,10.813 7.414,11.629 7.599 C 11.873 7.654,12.112 7.700,12.160 7.700 C 12.291 7.700,12.511 7.579,12.600 7.460 C 12.784 7.211,12.698 6.788,12.428 6.609 C 12.027 6.344,10.642 6.146,9.802 6.234 " fill="var(--db-icon-color, currentColor)" stroke="none" fill-rule="evenodd"></path></svg>