<svg id="icon" height="20" viewBox="0 0 20 20" width="20" xmlns="http://www.w3.org/2000/svg"><path d="M5.850 2.047 C 5.105 2.283,4.644 3.051,4.813 3.775 C 4.984 4.507,5.558 4.976,6.278 4.972 C 7.119 4.967,7.767 4.314,7.767 3.470 C 7.767 2.832,7.346 2.259,6.738 2.067 C 6.493 1.990,6.061 1.980,5.850 2.047 M7.044 5.632 C 6.709 5.802,6.523 6.068,6.482 6.436 C 6.469 6.554,6.479 6.672,6.511 6.774 C 6.556 6.919,8.038 9.569,8.288 9.952 C 8.348 10.045,8.463 10.167,8.542 10.224 C 8.728 10.357,9.033 10.447,9.216 10.422 C 9.293 10.411,9.960 10.275,10.697 10.118 C 11.435 9.961,12.044 9.833,12.051 9.833 C 12.057 9.833,12.449 10.385,12.922 11.058 C 13.395 11.732,13.848 12.354,13.928 12.441 C 14.143 12.673,14.391 12.784,14.683 12.781 C 15.428 12.772,15.876 11.990,15.522 11.316 C 15.355 10.996,13.541 8.441,13.328 8.225 C 13.077 7.969,12.852 7.849,12.527 7.796 C 12.248 7.751,12.133 7.767,10.870 8.036 C 10.276 8.163,9.780 8.267,9.767 8.267 C 9.755 8.267,9.438 7.763,9.064 7.147 C 8.690 6.531,8.329 5.964,8.262 5.887 C 8.068 5.665,7.835 5.556,7.517 5.541 C 7.271 5.529,7.234 5.536,7.044 5.632 M5.117 8.429 C 4.614 8.562,4.069 9.282,3.820 10.142 C 3.464 11.371,3.816 12.693,4.739 13.586 C 5.210 14.043,5.705 14.325,6.326 14.491 C 6.611 14.568,6.714 14.578,7.183 14.578 C 7.653 14.578,7.755 14.568,8.040 14.491 C 8.698 14.315,9.246 13.989,9.718 13.493 C 10.105 13.086,10.182 12.932,10.182 12.567 C 10.182 12.324,10.170 12.259,10.093 12.114 C 9.913 11.770,9.601 11.585,9.200 11.584 C 8.857 11.583,8.707 11.663,8.323 12.050 C 8.154 12.219,7.953 12.390,7.876 12.429 C 7.115 12.815,6.225 12.516,5.845 11.746 C 5.733 11.519,5.718 11.459,5.706 11.182 C 5.687 10.748,5.766 10.495,6.033 10.142 C 6.261 9.840,6.333 9.665,6.333 9.419 C 6.333 8.876,5.948 8.452,5.423 8.417 C 5.310 8.409,5.172 8.415,5.117 8.429 M16.483 13.548 C 11.528 14.737,5.134 16.273,4.555 16.414 C 3.549 16.659,3.401 16.741,3.207 17.162 C 3.136 17.316,3.127 17.375,3.140 17.595 C 3.173 18.134,3.524 18.493,4.050 18.525 C 4.267 18.538,4.706 18.437,10.183 17.121 C 13.428 16.342,16.357 15.638,16.691 15.557 C 17.124 15.452,17.345 15.382,17.457 15.313 C 17.994 14.980,18.086 14.220,17.642 13.776 C 17.350 13.483,17.022 13.419,16.483 13.548 " fill="var(--db-icon-color, currentColor)" stroke="none" fill-rule="evenodd"></path></svg>