<svg id="icon" height="24" viewBox="0 0 24 24" width="24" xmlns="http://www.w3.org/2000/svg"><path d="M5.964 2.138 C 5.557 2.270,5.173 2.652,5.016 3.080 C 4.977 3.186,4.950 3.383,4.950 3.560 C 4.947 4.679,6.094 5.394,7.102 4.901 C 7.352 4.778,7.695 4.426,7.804 4.179 C 8.138 3.425,7.805 2.557,7.049 2.209 C 6.769 2.081,6.246 2.046,5.964 2.138 M7.360 6.012 C 7.164 6.074,6.829 6.421,6.769 6.625 C 6.685 6.907,6.707 7.167,6.833 7.406 C 7.049 7.814,9.086 11.100,9.190 11.210 C 9.248 11.271,9.373 11.358,9.469 11.404 C 9.775 11.552,9.966 11.525,11.472 11.120 C 12.226 10.916,12.848 10.757,12.855 10.765 C 12.861 10.773,13.502 11.622,14.278 12.651 C 15.055 13.680,15.764 14.585,15.853 14.662 C 16.010 14.796,16.320 14.920,16.500 14.920 C 16.547 14.920,16.680 14.892,16.796 14.857 C 17.338 14.697,17.618 14.057,17.386 13.511 C 17.331 13.381,17.130 13.108,15.153 10.493 C 14.033 9.013,13.920 8.895,13.468 8.752 C 13.108 8.637,12.869 8.671,11.581 9.017 C 10.965 9.182,10.450 9.304,10.436 9.289 C 10.422 9.273,10.002 8.621,9.504 7.840 C 9.005 7.059,8.540 6.359,8.470 6.284 C 8.205 6.002,7.748 5.890,7.360 6.012 M4.995 9.751 C 4.726 9.891,4.582 10.098,4.363 10.656 C 4.113 11.296,4.037 11.657,4.012 12.320 C 3.996 12.765,4.006 12.982,4.057 13.251 C 4.550 15.866,7.114 17.505,9.660 16.833 C 10.593 16.586,11.463 16.023,12.049 15.286 C 12.385 14.862,12.454 14.712,12.455 14.400 C 12.455 13.800,12.036 13.363,11.458 13.361 C 11.089 13.360,10.855 13.493,10.594 13.853 C 10.216 14.374,9.821 14.676,9.284 14.854 C 8.840 15.001,8.462 15.028,8.038 14.943 C 7.165 14.768,6.465 14.194,6.145 13.391 C 5.863 12.681,5.905 12.034,6.283 11.266 C 6.525 10.775,6.548 10.511,6.378 10.171 C 6.133 9.678,5.503 9.487,4.995 9.751 M18.760 16.643 C 18.639 16.661,15.453 17.444,11.680 18.383 C 4.849 20.083,4.818 20.091,4.420 20.087 C 4.200 20.085,3.729 20.071,3.374 20.057 C 2.589 20.025,2.407 20.068,2.133 20.349 C 1.633 20.864,1.841 21.759,2.512 21.976 C 2.741 22.049,4.516 22.123,4.940 22.077 C 5.173 22.051,9.935 20.883,17.549 18.984 L 19.077 18.602 20.064 18.643 C 21.178 18.688,21.334 18.667,21.615 18.434 C 21.931 18.173,22.055 17.632,21.885 17.260 C 21.789 17.050,21.487 16.776,21.294 16.724 C 21.209 16.701,20.681 16.664,20.120 16.642 C 18.993 16.597,19.066 16.597,18.760 16.643 " fill="var(--db-icon-color, currentColor)" stroke="none" fill-rule="evenodd"></path></svg>