<svg id="icon" height="24" viewBox="0 0 24 24" width="24" xmlns="http://www.w3.org/2000/svg"><path d="M9.780 2.058 C 9.494 2.132,9.323 2.213,9.092 2.387 C 8.154 3.094,8.068 4.363,8.903 5.186 C 9.308 5.585,9.870 5.799,10.367 5.742 C 11.191 5.649,11.812 5.108,12.019 4.302 C 12.126 3.883,12.082 3.479,11.881 3.050 C 11.523 2.285,10.598 1.848,9.780 2.058 M7.685 7.400 C 6.643 7.974,5.966 9.147,5.839 10.595 C 5.742 11.697,6.086 13.429,6.532 14.088 C 6.626 14.227,7.220 15.003,7.851 15.814 L 9.000 17.288 9.000 19.217 C 9.000 21.404,9.000 21.402,9.300 21.702 C 9.830 22.232,10.769 21.991,10.961 21.275 C 10.988 21.176,10.999 20.331,10.991 18.891 C 10.981 16.786,10.976 16.652,10.904 16.520 C 10.862 16.443,10.234 15.618,9.508 14.685 C 8.529 13.427,8.174 12.942,8.132 12.805 C 7.733 11.520,7.751 10.299,8.178 9.655 L 8.260 9.531 9.560 10.467 C 11.076 11.558,11.160 11.599,11.624 11.461 C 12.305 11.259,12.554 10.403,12.093 9.853 C 11.990 9.731,8.740 7.404,8.577 7.336 C 8.503 7.305,8.320 7.280,8.171 7.281 C 7.947 7.281,7.863 7.302,7.685 7.400 M13.643 11.067 C 13.289 11.196,13.000 11.615,13.000 12.000 C 13.000 12.539,13.472 13.000,14.024 13.000 L 14.194 13.000 15.014 14.310 C 15.465 15.030,15.885 15.667,15.947 15.725 C 16.095 15.863,16.219 15.926,16.448 15.978 L 16.636 16.021 15.795 16.900 C 14.892 17.844,14.761 18.029,14.760 18.363 C 14.759 18.809,15.050 19.220,15.450 19.339 C 15.788 19.440,16.027 19.404,16.308 19.210 C 16.517 19.065,19.753 15.679,19.873 15.480 C 20.086 15.124,20.011 14.609,19.702 14.300 C 19.427 14.025,19.299 14.000,18.162 14.000 L 17.179 14.000 16.402 12.750 C 15.975 12.063,15.584 11.444,15.533 11.376 C 15.482 11.308,15.346 11.200,15.230 11.136 C 15.027 11.024,15.000 11.020,14.420 11.011 C 13.953 11.005,13.781 11.017,13.643 11.067 M5.982 16.057 C 5.896 16.089,5.780 16.149,5.725 16.191 C 5.457 16.391,5.418 16.485,4.699 18.695 C 4.292 19.948,4.000 20.908,4.000 20.997 C 4.000 21.344,4.201 21.687,4.511 21.869 C 4.673 21.964,4.744 21.980,5.003 21.980 C 5.271 21.980,5.329 21.966,5.502 21.859 C 5.609 21.793,5.747 21.667,5.808 21.579 C 5.883 21.472,6.143 20.735,6.605 19.320 C 7.323 17.121,7.354 16.993,7.243 16.665 C 7.176 16.467,6.951 16.218,6.746 16.113 C 6.538 16.007,6.187 15.981,5.982 16.057 M13.049 19.587 C 12.955 19.620,12.782 19.735,12.665 19.843 C 12.192 20.275,12.120 20.936,12.487 21.470 C 13.018 22.242,14.217 22.139,14.626 21.286 C 14.775 20.978,14.782 20.557,14.644 20.249 C 14.525 19.985,14.192 19.672,13.934 19.584 C 13.701 19.505,13.277 19.506,13.049 19.587 M18.218 19.632 C 17.523 19.968,17.296 20.807,17.724 21.454 C 18.152 22.099,19.067 22.182,19.624 21.624 C 20.117 21.132,20.121 20.361,19.635 19.875 C 19.391 19.631,19.190 19.548,18.800 19.530 C 18.489 19.517,18.439 19.525,18.218 19.632 " fill="var(--db-icon-color, currentColor)" stroke="none" fill-rule="evenodd"></path></svg>