<svg id="icon" height="20" viewBox="0 0 20 20" width="20" xmlns="http://www.w3.org/2000/svg"><path d="M9.055 2.634 C 8.821 2.674,8.571 2.808,8.387 2.991 C 7.995 3.381,7.896 3.959,8.137 4.458 C 8.242 4.676,8.526 4.951,8.758 5.060 C 8.926 5.139,8.991 5.150,9.283 5.150 C 9.575 5.150,9.640 5.139,9.807 5.061 C 10.553 4.711,10.794 3.784,10.310 3.125 C 10.038 2.754,9.525 2.554,9.055 2.634 M9.133 6.029 C 8.820 6.132,8.545 6.387,8.453 6.658 C 8.350 6.959,8.373 7.080,8.819 8.612 C 9.049 9.403,9.273 10.112,9.318 10.188 C 9.416 10.356,9.566 10.487,9.767 10.580 C 9.905 10.644,9.993 10.651,10.878 10.667 L 11.839 10.683 12.381 12.034 C 12.679 12.777,12.947 13.429,12.976 13.484 C 13.048 13.622,13.254 13.811,13.433 13.904 C 13.658 14.021,14.052 14.016,14.287 13.893 C 14.711 13.671,14.937 13.156,14.805 12.717 C 14.756 12.555,13.466 9.365,13.381 9.197 C 13.295 9.025,13.133 8.870,12.924 8.759 C 12.789 8.686,12.744 8.683,11.850 8.673 L 10.916 8.662 10.624 7.659 C 10.463 7.107,10.308 6.606,10.279 6.545 C 10.203 6.386,9.992 6.186,9.808 6.099 C 9.638 6.019,9.279 5.981,9.133 6.029 M6.417 8.112 C 6.103 8.260,5.649 8.822,5.433 9.328 C 5.220 9.828,5.183 10.029,5.185 10.667 C 5.186 11.160,5.198 11.290,5.259 11.509 C 5.593 12.708,6.514 13.604,7.723 13.907 C 8.166 14.019,8.859 14.010,9.317 13.889 C 9.802 13.760,10.288 13.509,10.498 13.279 C 10.961 12.772,10.801 11.995,10.175 11.708 C 10.016 11.636,9.959 11.627,9.719 11.640 C 9.482 11.652,9.417 11.670,9.231 11.774 C 8.793 12.019,8.411 12.057,7.990 11.900 C 7.723 11.800,7.433 11.526,7.292 11.239 C 7.190 11.032,7.183 10.996,7.183 10.667 C 7.183 10.358,7.194 10.295,7.272 10.128 C 7.320 10.024,7.445 9.837,7.548 9.712 C 7.752 9.465,7.833 9.260,7.833 8.995 C 7.833 8.637,7.593 8.274,7.250 8.112 C 7.016 8.002,6.651 8.002,6.417 8.112 M2.678 16.061 C 1.841 16.352,1.766 17.500,2.559 17.890 L 2.750 17.983 6.850 17.983 L 10.950 17.983 11.105 17.912 C 11.303 17.820,11.500 17.623,11.602 17.414 C 11.710 17.191,11.714 16.819,11.611 16.595 C 11.520 16.397,11.303 16.180,11.105 16.088 L 10.950 16.017 6.900 16.009 C 3.080 16.002,2.840 16.005,2.678 16.061 M14.444 16.031 C 14.386 16.045,14.271 16.097,14.189 16.145 C 13.468 16.568,13.570 17.639,14.361 17.934 C 14.535 18.000,14.601 18.002,15.897 17.993 L 17.250 17.983 17.441 17.890 C 17.670 17.777,17.842 17.586,17.933 17.343 C 18.111 16.868,17.898 16.335,17.441 16.110 L 17.250 16.017 15.900 16.011 C 15.158 16.008,14.502 16.017,14.444 16.031 " fill="var(--db-icon-color, currentColor)" stroke="none" fill-rule="evenodd"></path></svg>