<svg id="icon" height="32" viewBox="0 0 32 32" width="32" xmlns="http://www.w3.org/2000/svg"><path d="M25.760 2.017 C 25.485 2.092,25.280 2.248,25.135 2.494 C 24.990 2.742,24.986 2.765,24.968 3.747 L 24.948 4.747 23.567 7.044 C 22.807 8.308,22.134 9.440,22.073 9.560 C 21.837 10.023,22.049 10.645,22.520 10.874 C 22.750 10.985,22.800 10.987,25.977 10.985 C 28.989 10.984,29.214 10.978,29.416 10.886 C 29.850 10.689,30.095 10.209,29.981 9.776 C 29.948 9.652,29.263 8.460,28.458 7.126 L 26.995 4.700 26.977 3.662 L 26.960 2.623 26.794 2.418 C 26.703 2.305,26.559 2.173,26.474 2.123 C 26.293 2.017,25.950 1.966,25.760 2.017 M10.080 7.020 C 8.496 7.207,7.161 8.131,6.466 9.520 C 5.552 11.346,6.024 13.593,7.602 14.933 C 8.844 15.987,10.558 16.280,12.100 15.701 C 13.099 15.327,14.042 14.477,14.521 13.520 C 14.594 13.373,14.722 13.049,14.805 12.800 C 14.944 12.379,14.955 12.286,14.956 11.493 C 14.956 10.681,14.948 10.617,14.792 10.151 C 14.180 8.331,12.619 7.125,10.744 7.024 C 10.481 7.010,10.183 7.008,10.080 7.020 M26.585 7.967 C 26.894 8.491,27.147 8.941,27.147 8.967 C 27.147 8.992,26.605 9.013,25.942 9.013 C 25.269 9.013,24.746 8.993,24.756 8.966 C 24.814 8.811,25.954 6.990,25.985 7.000 C 26.006 7.007,26.276 7.442,26.585 7.967 M11.120 9.086 C 11.939 9.305,12.616 9.937,12.853 10.704 C 12.985 11.132,12.995 11.807,12.875 12.217 C 12.447 13.685,10.788 14.413,9.413 13.736 C 8.173 13.124,7.664 11.659,8.254 10.400 C 8.526 9.821,9.271 9.221,9.904 9.072 C 10.213 8.999,10.822 9.006,11.120 9.086 M24.320 13.045 C 24.099 13.141,23.909 13.309,23.815 13.493 C 23.777 13.567,23.332 15.007,22.826 16.693 C 22.321 18.380,21.873 19.826,21.832 19.906 C 21.685 20.194,21.632 20.177,19.621 19.170 C 18.583 18.650,17.613 18.187,17.467 18.141 C 17.233 18.067,16.497 18.055,11.448 18.040 C 6.474 18.026,5.653 18.034,5.383 18.103 C 4.338 18.371,3.513 19.144,3.160 20.187 L 3.015 20.613 2.998 24.811 C 2.986 27.866,2.998 29.071,3.043 29.238 C 3.126 29.545,3.528 29.950,3.801 30.001 C 4.240 30.084,4.698 29.845,4.900 29.428 C 5.013 29.194,5.013 29.169,5.014 25.090 C 5.014 22.274,5.032 20.920,5.073 20.773 C 5.148 20.499,5.524 20.131,5.807 20.055 C 5.950 20.017,7.744 20.003,11.450 20.013 L 16.882 20.027 18.885 21.036 L 20.887 22.046 21.377 22.070 C 21.785 22.089,21.931 22.073,22.246 21.971 C 22.862 21.773,23.335 21.372,23.627 20.800 C 23.749 20.561,25.707 14.138,25.706 13.978 C 25.706 13.931,25.681 13.804,25.651 13.695 C 25.495 13.135,24.845 12.817,24.320 13.045 M16.560 22.115 C 16.313 22.246,16.207 22.355,16.100 22.587 C 16.009 22.786,16.002 23.009,16.001 25.989 C 16.000 29.041,16.004 29.186,16.104 29.381 C 16.239 29.645,16.533 29.900,16.784 29.969 C 17.169 30.076,17.638 29.846,17.867 29.438 L 18.000 29.200 18.000 26.027 C 18.000 24.281,17.982 22.788,17.959 22.708 C 17.903 22.506,17.610 22.185,17.403 22.099 C 17.173 22.003,16.758 22.011,16.560 22.115 " fill="var(--db-icon-color, currentColor)" stroke="none" fill-rule="evenodd"></path></svg>