<svg id="icon" height="20" viewBox="0 0 20 20" width="20" xmlns="http://www.w3.org/2000/svg"><path d="M14.073 2.102 C 13.830 2.224,13.659 2.411,13.567 2.657 C 13.512 2.804,13.500 2.917,13.500 3.287 L 13.500 3.738 12.742 5.233 L 11.983 6.728 11.984 7.005 C 11.984 7.228,11.999 7.311,12.059 7.424 C 12.176 7.644,12.322 7.789,12.527 7.890 L 12.717 7.983 14.431 7.993 C 16.351 8.003,16.344 8.004,16.653 7.771 C 16.762 7.688,16.848 7.584,16.916 7.451 C 17.002 7.282,17.017 7.219,17.016 7.000 L 17.015 6.745 16.268 5.233 L 15.522 3.721 15.500 3.219 C 15.481 2.767,15.470 2.700,15.392 2.550 C 15.206 2.190,14.905 2.002,14.514 2.001 C 14.316 2.000,14.244 2.017,14.073 2.102 M6.116 4.066 C 5.295 4.187,4.620 4.688,4.249 5.450 C 3.570 6.849,4.341 8.503,5.867 8.922 C 6.200 9.013,6.809 9.005,7.133 8.904 C 7.585 8.765,7.885 8.585,8.221 8.250 C 8.480 7.993,8.547 7.901,8.678 7.632 C 8.879 7.218,8.944 6.939,8.942 6.500 C 8.939 5.809,8.716 5.281,8.217 4.779 C 7.951 4.512,7.871 4.454,7.565 4.305 C 7.078 4.068,6.619 3.992,6.116 4.066 M13.712 9.501 C 13.546 9.552,13.294 9.738,13.192 9.883 C 13.140 9.958,12.945 10.448,12.750 10.998 C 12.557 11.537,12.400 11.982,12.400 11.985 C 12.400 11.988,11.879 11.828,11.242 11.628 C 9.072 10.950,9.420 10.994,6.333 11.009 C 3.631 11.021,3.803 11.007,3.267 11.271 C 3.041 11.382,2.925 11.469,2.696 11.697 C 2.454 11.938,2.385 12.033,2.256 12.300 C 1.993 12.847,1.997 12.794,2.007 15.700 L 2.017 18.250 2.110 18.439 C 2.211 18.645,2.356 18.791,2.576 18.908 C 2.779 19.016,3.222 19.015,3.427 18.906 C 3.635 18.796,3.807 18.628,3.901 18.444 L 3.983 18.283 4.000 15.750 C 4.009 14.357,4.030 13.190,4.046 13.157 C 4.122 13.000,4.126 13.000,6.423 13.000 C 9.127 13.000,8.766 12.954,10.683 13.551 C 11.233 13.722,11.816 13.901,11.979 13.948 C 12.470 14.090,12.900 14.052,13.347 13.827 C 13.606 13.696,13.964 13.350,14.093 13.106 C 14.148 13.002,14.377 12.399,14.600 11.767 C 14.992 10.659,15.006 10.609,14.992 10.400 C 14.956 9.883,14.576 9.510,14.057 9.482 C 13.925 9.474,13.770 9.483,13.712 9.501 M8.811 14.534 C 8.604 14.576,8.429 14.677,8.275 14.845 C 8.007 15.135,8.017 15.068,8.017 16.700 L 8.017 18.150 8.105 18.317 C 8.232 18.557,8.433 18.771,8.638 18.884 C 9.101 19.140,9.734 18.876,9.933 18.344 C 10.000 18.163,10.002 18.111,9.993 16.687 L 9.983 15.217 9.884 15.038 C 9.672 14.655,9.231 14.448,8.811 14.534 " fill="var(--db-icon-color, currentColor)" stroke="none" fill-rule="evenodd"></path></svg>