<svg id="icon" height="24" viewBox="0 0 24 24" width="24" xmlns="http://www.w3.org/2000/svg"><path d="M11.700 2.180 C 11.495 2.253,11.220 2.542,11.164 2.744 C 11.138 2.835,11.120 3.282,11.120 3.818 L 11.120 4.737 10.530 4.153 C 10.205 3.832,9.877 3.538,9.800 3.498 C 9.622 3.407,9.226 3.402,9.059 3.489 C 8.774 3.639,8.562 3.966,8.561 4.260 C 8.560 4.650,8.565 4.657,9.884 5.982 L 11.121 7.224 11.110 8.849 L 11.100 10.474 9.620 9.618 C 8.806 9.147,8.128 8.757,8.113 8.751 C 8.098 8.745,7.902 8.056,7.678 7.220 C 7.454 6.384,7.247 5.652,7.217 5.594 C 7.187 5.536,7.088 5.424,6.997 5.346 C 6.504 4.924,5.738 5.186,5.595 5.826 C 5.550 6.026,5.558 6.074,5.737 6.742 C 5.841 7.130,5.920 7.453,5.913 7.460 C 5.906 7.467,5.585 7.289,5.200 7.066 L 4.500 6.660 4.193 6.660 C 3.916 6.660,3.870 6.672,3.713 6.782 C 3.356 7.033,3.232 7.527,3.431 7.906 C 3.545 8.125,3.596 8.162,4.504 8.684 C 4.931 8.930,5.280 9.142,5.280 9.155 C 5.280 9.169,4.915 9.277,4.470 9.396 C 3.543 9.643,3.362 9.716,3.204 9.907 C 2.741 10.469,3.133 11.316,3.857 11.319 C 3.986 11.320,4.655 11.159,5.765 10.860 L 7.475 10.401 8.828 11.181 C 9.571 11.609,10.185 11.976,10.191 11.994 C 10.199 12.018,7.474 13.620,7.071 13.829 C 7.055 13.837,6.365 13.663,5.537 13.442 C 4.634 13.201,3.956 13.040,3.842 13.040 C 3.167 13.040,2.761 13.869,3.173 14.408 C 3.353 14.644,3.461 14.696,4.162 14.884 C 4.502 14.975,4.802 15.061,4.829 15.076 C 4.858 15.091,4.653 15.232,4.329 15.419 C 3.629 15.822,3.574 15.863,3.446 16.080 C 3.223 16.459,3.351 16.981,3.729 17.231 C 3.872 17.326,3.934 17.340,4.197 17.340 L 4.500 17.340 5.253 16.906 C 5.667 16.668,6.013 16.479,6.022 16.488 C 6.030 16.497,5.929 16.907,5.795 17.400 C 5.532 18.377,5.524 18.482,5.691 18.776 C 5.887 19.120,6.308 19.303,6.672 19.203 C 6.857 19.152,7.132 18.931,7.218 18.763 C 7.248 18.706,7.474 17.904,7.721 16.980 C 7.967 16.056,8.183 15.275,8.199 15.245 C 8.216 15.214,8.875 14.815,9.665 14.359 L 11.100 13.529 11.110 15.333 L 11.121 17.137 9.902 18.359 C 9.093 19.170,8.663 19.630,8.622 19.729 C 8.426 20.200,8.708 20.779,9.203 20.921 C 9.609 21.037,9.803 20.933,10.530 20.209 L 11.120 19.621 11.120 20.363 C 11.120 21.243,11.155 21.391,11.419 21.635 C 11.784 21.971,12.251 21.960,12.605 21.605 C 12.720 21.491,12.808 21.359,12.835 21.260 C 12.860 21.170,12.880 20.778,12.880 20.362 L 12.880 19.623 13.490 20.226 C 13.967 20.697,14.142 20.844,14.290 20.900 C 14.989 21.161,15.668 20.410,15.357 19.720 C 15.297 19.588,14.955 19.219,14.077 18.339 L 12.879 17.137 12.890 15.335 L 12.900 13.532 14.339 14.363 C 15.131 14.821,15.792 15.227,15.808 15.267 C 15.825 15.307,16.038 16.086,16.282 16.997 C 16.526 17.909,16.750 18.702,16.780 18.760 C 16.876 18.945,17.090 19.119,17.306 19.187 C 17.812 19.347,18.339 19.000,18.421 18.454 C 18.438 18.339,18.383 18.072,18.203 17.402 C 18.071 16.908,17.969 16.497,17.978 16.489 C 17.986 16.481,18.331 16.668,18.744 16.906 C 19.462 17.319,19.507 17.339,19.758 17.352 C 19.974 17.364,20.051 17.350,20.200 17.271 C 20.541 17.090,20.740 16.652,20.644 16.293 C 20.559 15.979,20.414 15.845,19.746 15.462 C 19.369 15.246,19.140 15.092,19.170 15.076 C 19.198 15.061,19.472 14.982,19.780 14.900 C 20.639 14.673,20.736 14.618,20.905 14.260 C 21.030 13.994,21.026 13.786,20.890 13.517 C 20.744 13.229,20.521 13.073,20.220 13.048 C 20.030 13.033,19.775 13.089,18.469 13.438 L 16.940 13.846 15.347 12.926 C 13.807 12.037,13.757 12.004,13.847 11.947 C 13.898 11.914,14.520 11.553,15.229 11.145 L 16.518 10.402 18.308 10.881 C 20.206 11.389,20.218 11.391,20.520 11.238 C 20.889 11.052,21.084 10.583,20.954 10.196 C 20.892 10.010,20.748 9.824,20.591 9.727 C 20.519 9.682,20.068 9.541,19.590 9.414 C 19.111 9.286,18.720 9.170,18.720 9.156 C 18.720 9.142,19.058 8.936,19.470 8.698 C 19.883 8.461,20.263 8.233,20.316 8.192 C 20.825 7.802,20.747 6.991,20.174 6.721 C 20.024 6.651,19.931 6.635,19.739 6.647 C 19.515 6.662,19.439 6.695,18.798 7.067 C 18.414 7.289,18.094 7.466,18.086 7.458 C 18.078 7.451,18.157 7.127,18.260 6.739 C 18.401 6.208,18.441 5.996,18.420 5.887 C 18.289 5.187,17.509 4.902,16.985 5.364 C 16.880 5.457,16.780 5.591,16.743 5.691 C 16.709 5.784,16.510 6.497,16.302 7.277 C 16.093 8.056,15.905 8.711,15.883 8.733 C 15.862 8.754,15.182 9.154,14.372 9.621 L 12.900 10.470 12.890 8.846 L 12.879 7.223 14.077 6.021 C 15.351 4.744,15.438 4.633,15.438 4.280 C 15.438 3.652,14.726 3.227,14.160 3.517 C 14.105 3.546,13.795 3.832,13.470 4.154 L 12.880 4.739 12.880 3.819 C 12.880 3.279,12.862 2.834,12.836 2.740 C 12.774 2.515,12.470 2.227,12.229 2.166 C 11.995 2.107,11.898 2.110,11.700 2.180 " fill="var(--db-icon-color, currentColor)" stroke="none" fill-rule="evenodd"></path></svg>