<svg id="icon" height="24" viewBox="0 0 24 24" width="24" xmlns="http://www.w3.org/2000/svg"><path d="M3.280 2.021 C 2.774 2.179,2.472 2.780,2.647 3.283 C 2.673 3.357,2.787 3.555,2.902 3.722 C 3.183 4.136,3.254 4.362,3.232 4.778 C 3.212 5.164,3.088 5.459,2.686 6.079 C 1.977 7.171,1.827 8.283,2.227 9.490 C 2.462 10.200,2.843 10.777,3.181 10.938 C 3.646 11.159,4.203 10.982,4.469 10.529 C 4.564 10.368,4.580 10.296,4.580 10.039 C 4.580 9.749,4.572 9.724,4.374 9.379 C 4.117 8.932,4.024 8.630,4.025 8.240 C 4.026 7.838,4.124 7.548,4.408 7.105 C 4.909 6.322,5.157 5.707,5.237 5.047 C 5.340 4.202,5.060 3.249,4.487 2.494 C 4.130 2.023,3.751 1.875,3.280 2.021 M20.578 2.099 C 20.423 2.177,18.417 4.162,11.251 11.329 C 4.728 17.855,2.105 20.502,2.061 20.609 C 1.852 21.115,2.165 21.783,2.684 21.937 C 2.951 22.017,3.059 22.016,3.325 21.933 C 3.526 21.871,3.634 21.773,4.981 20.433 L 6.422 19.000 13.494 19.000 C 18.438 19.000,20.651 18.987,20.852 18.956 C 21.878 18.799,22.673 18.079,22.925 17.080 C 23.011 16.736,23.000 15.220,22.909 14.880 C 22.634 13.860,21.859 13.191,20.780 13.041 C 20.614 13.017,18.861 13.001,16.460 13.001 L 12.421 13.000 17.149 8.270 C 20.492 4.926,21.895 3.496,21.938 3.391 C 21.972 3.309,22.000 3.138,22.000 3.009 C 22.000 2.273,21.223 1.776,20.578 2.099 M4.180 13.044 C 3.162 13.189,2.372 13.871,2.095 14.842 C 2.012 15.133,1.975 16.314,2.035 16.763 C 2.083 17.121,2.206 17.539,2.299 17.664 C 2.352 17.735,2.409 17.688,3.173 16.925 L 3.991 16.110 4.009 15.745 C 4.040 15.129,4.134 15.032,4.725 15.007 L 5.109 14.991 6.104 13.996 L 7.099 13.000 5.760 13.005 C 5.023 13.008,4.312 13.025,4.180 13.044 M20.720 15.070 C 20.955 15.188,21.000 15.335,20.998 15.980 C 20.995 16.626,20.957 16.779,20.764 16.909 L 20.628 17.000 14.524 17.000 L 8.421 17.000 9.420 16.000 L 10.419 15.000 15.500 15.000 C 20.256 15.000,20.589 15.005,20.720 15.070 " fill="var(--db-icon-color, currentColor)" stroke="none" fill-rule="evenodd"></path></svg>