<svg id="icon" height="32" viewBox="0 0 32 32" width="32" xmlns="http://www.w3.org/2000/svg"><path d="M7.346 4.057 C 6.787 4.190,6.266 4.619,6.023 5.147 C 5.913 5.383,5.698 6.319,5.193 8.747 C 4.568 11.750,4.511 12.072,4.516 12.560 C 4.526 13.508,4.876 14.311,5.587 15.019 L 5.973 15.404 5.973 20.715 L 5.973 26.027 5.837 26.027 C 5.646 26.027,5.430 26.150,5.237 26.369 C 4.833 26.830,5.001 27.616,5.560 27.887 L 5.794 28.000 16.000 28.000 L 26.206 28.000 26.440 27.887 C 26.841 27.693,27.054 27.229,26.964 26.748 C 26.910 26.460,26.538 26.095,26.252 26.049 L 26.027 26.013 26.027 20.709 L 26.027 15.404 26.413 15.019 C 27.135 14.300,27.477 13.504,27.482 12.533 C 27.484 12.016,27.432 11.724,26.804 8.720 C 26.354 6.572,26.077 5.363,25.988 5.161 C 25.821 4.783,25.397 4.369,24.973 4.170 L 24.667 4.027 16.107 4.018 C 11.241 4.014,7.460 4.030,7.346 4.057 M24.844 9.187 C 25.204 10.925,25.497 12.432,25.496 12.537 C 25.486 13.337,24.843 13.980,24.046 13.988 C 23.488 13.993,22.867 13.586,22.210 12.784 L 22.000 12.528 21.600 12.993 C 20.898 13.809,20.332 14.094,19.703 13.948 C 19.217 13.835,18.810 13.507,18.123 12.676 L 17.998 12.524 17.648 12.942 C 16.490 14.325,15.492 14.322,14.341 12.931 L 14.004 12.523 13.878 12.675 C 13.190 13.507,12.783 13.835,12.297 13.948 C 11.596 14.111,11.041 13.786,10.123 12.676 L 9.998 12.524 9.634 12.960 C 8.884 13.855,8.259 14.134,7.489 13.919 C 7.114 13.814,6.705 13.402,6.592 13.017 C 6.545 12.858,6.506 12.642,6.506 12.537 C 6.505 12.432,6.799 10.925,7.157 9.187 L 7.810 6.027 16.000 6.027 L 24.190 6.027 24.844 9.187 M10.907 15.821 C 11.286 15.954,11.407 15.971,12.000 15.971 C 12.585 15.971,12.716 15.953,13.072 15.828 C 13.295 15.750,13.595 15.617,13.739 15.532 L 14.000 15.378 14.240 15.525 C 14.372 15.606,14.672 15.739,14.907 15.821 C 15.286 15.954,15.407 15.971,16.000 15.971 C 16.585 15.971,16.716 15.953,17.072 15.828 C 17.295 15.750,17.595 15.617,17.739 15.532 L 18.000 15.378 18.240 15.525 C 18.372 15.606,18.672 15.739,18.907 15.821 C 19.286 15.954,19.407 15.971,20.000 15.971 C 20.585 15.971,20.716 15.953,21.072 15.828 C 21.295 15.750,21.594 15.618,21.735 15.535 L 21.992 15.384 22.379 15.586 C 22.795 15.805,23.464 16.000,23.795 16.000 L 24.000 16.000 24.000 18.000 L 24.000 20.000 16.000 20.000 L 8.000 20.000 8.000 18.008 L 8.000 16.015 8.373 15.981 C 8.782 15.943,9.460 15.717,9.788 15.509 L 9.998 15.376 10.239 15.524 C 10.372 15.606,10.672 15.739,10.907 15.821 M24.000 24.027 L 24.000 26.027 16.000 26.027 L 8.000 26.027 8.000 24.027 L 8.000 22.027 16.000 22.027 L 24.000 22.027 24.000 24.027 " fill="var(--db-icon-color, currentColor)" stroke="none" fill-rule="evenodd"></path></svg>