<svg id="icon" height="20" viewBox="0 0 20 20" width="20" xmlns="http://www.w3.org/2000/svg"><path d="M3.933 2.055 C 3.657 2.152,3.406 2.390,3.307 2.650 C 3.230 2.850,2.089 6.622,2.046 6.817 C 1.836 7.763,2.347 8.808,3.235 9.246 C 3.921 9.584,4.577 9.586,5.258 9.250 C 5.565 9.098,5.859 8.854,6.079 8.567 L 6.168 8.450 6.242 8.550 C 6.681 9.147,7.374 9.501,8.098 9.499 C 8.634 9.498,9.238 9.255,9.611 8.890 C 9.727 8.777,9.863 8.631,9.912 8.567 L 10.002 8.450 10.075 8.550 C 10.514 9.147,11.207 9.501,11.931 9.499 C 12.467 9.498,13.072 9.255,13.444 8.890 C 13.561 8.777,13.696 8.631,13.746 8.567 L 13.835 8.450 13.909 8.550 C 14.348 9.147,15.041 9.501,15.764 9.499 C 16.098 9.499,16.417 9.418,16.765 9.246 C 17.660 8.804,18.162 7.770,17.952 6.800 C 17.888 6.505,16.722 2.707,16.646 2.547 C 16.567 2.380,16.372 2.193,16.175 2.095 L 16.017 2.017 10.050 2.010 C 4.703 2.004,4.068 2.008,3.933 2.055 M3.000 13.246 L 3.000 15.991 2.858 16.013 C 2.500 16.069,2.194 16.318,2.067 16.657 C 1.878 17.162,2.140 17.740,2.645 17.929 L 2.836 18.000 10.000 18.000 L 17.164 18.000 17.355 17.929 C 17.860 17.740,18.122 17.162,17.933 16.657 C 17.806 16.318,17.500 16.069,17.142 16.013 L 17.000 15.991 17.000 13.246 L 17.000 10.500 10.000 10.500 L 3.000 10.500 3.000 13.246 " fill="var(--db-icon-color, currentColor)" stroke="none" fill-rule="evenodd"></path></svg>