<svg id="icon" height="32" viewBox="0 0 32 32" width="32" xmlns="http://www.w3.org/2000/svg"><path d="M11.639 2.104 C 10.865 2.291,10.010 2.981,9.665 3.694 C 9.184 4.693,9.239 5.826,9.814 6.715 C 10.681 8.056,12.317 8.524,13.741 7.838 C 15.519 6.982,16.042 4.691,14.807 3.169 C 14.394 2.659,13.784 2.259,13.195 2.111 C 12.796 2.011,12.037 2.007,11.639 2.104 M12.897 4.138 C 13.557 4.467,13.684 5.306,13.154 5.836 C 12.780 6.209,12.331 6.263,11.855 5.992 C 11.538 5.812,11.360 5.491,11.360 5.100 C 11.360 4.250,12.141 3.762,12.897 4.138 M9.307 9.755 C 9.067 9.866,8.864 10.069,8.356 10.705 C 6.466 13.068,5.761 15.487,6.385 17.467 C 6.716 18.519,6.945 18.821,8.799 20.667 C 9.654 21.517,10.472 22.348,10.617 22.514 L 10.880 22.814 11.412 26.048 C 11.789 28.333,11.976 29.342,12.051 29.489 C 12.334 30.044,13.132 30.159,13.600 29.712 C 14.002 29.329,14.012 29.502,13.365 25.557 C 13.049 23.630,12.759 21.978,12.720 21.885 C 12.681 21.792,11.762 20.819,10.652 19.698 C 9.139 18.169,8.620 17.612,8.513 17.399 C 8.060 16.504,8.096 15.264,8.609 14.097 C 8.905 13.423,9.525 12.387,9.736 12.211 C 9.808 12.152,9.966 12.288,10.896 13.212 C 11.489 13.800,12.046 14.318,12.136 14.363 C 12.225 14.408,12.929 14.607,13.701 14.806 C 15.019 15.145,15.117 15.162,15.341 15.103 C 15.661 15.017,15.872 14.852,16.000 14.586 C 16.240 14.090,16.053 13.505,15.573 13.254 C 15.500 13.216,14.913 13.049,14.268 12.885 L 13.096 12.585 11.706 11.201 C 10.811 10.310,10.246 9.788,10.119 9.735 C 9.859 9.627,9.568 9.634,9.307 9.755 M17.550 14.120 C 16.887 14.458,16.834 15.418,17.456 15.830 C 17.659 15.965,17.718 15.975,18.445 16.000 L 19.219 16.027 19.650 17.745 C 20.061 19.381,20.091 19.472,20.268 19.656 C 20.370 19.762,20.501 19.877,20.560 19.911 C 20.632 19.953,21.178 19.982,22.223 20.000 L 23.778 20.027 21.429 22.720 C 20.137 24.201,19.047 25.491,19.007 25.585 C 18.779 26.117,19.112 26.780,19.683 26.934 C 19.941 27.004,20.192 26.962,20.440 26.809 C 20.542 26.745,21.145 26.097,21.780 25.369 C 22.449 24.600,22.944 24.074,22.958 24.116 C 22.972 24.155,23.081 24.583,23.200 25.067 C 23.461 26.128,23.482 26.182,23.697 26.390 C 24.283 26.955,25.256 26.617,25.364 25.812 C 25.389 25.621,25.311 25.236,24.972 23.883 L 24.548 22.193 25.647 20.933 C 26.252 20.240,26.801 19.575,26.867 19.455 C 26.997 19.218,27.023 18.877,26.930 18.630 C 26.868 18.465,26.647 18.212,26.480 18.115 C 26.405 18.072,25.683 18.045,24.080 18.027 L 21.787 18.000 21.352 16.282 C 21.064 15.146,20.877 14.509,20.801 14.401 C 20.737 14.311,20.591 14.190,20.478 14.132 C 20.289 14.036,20.161 14.027,19.002 14.027 C 17.900 14.027,17.709 14.039,17.550 14.120 M6.445 20.852 C 6.196 20.987,6.054 21.168,5.952 21.483 C 5.756 22.089,4.000 28.883,4.001 29.033 C 4.003 29.280,4.177 29.621,4.381 29.775 C 4.991 30.236,5.771 29.940,5.991 29.164 C 6.458 27.512,7.893 21.882,7.893 21.701 C 7.893 21.403,7.761 21.145,7.505 20.940 C 7.239 20.727,6.748 20.687,6.445 20.852 M17.109 27.059 C 15.963 27.379,15.627 28.786,16.505 29.589 C 16.986 30.029,17.616 30.119,18.183 29.828 C 18.843 29.491,19.149 28.709,18.904 27.989 C 18.668 27.296,17.824 26.859,17.109 27.059 M26.123 27.059 C 25.400 27.261,24.967 27.878,25.024 28.625 C 25.093 29.551,25.954 30.175,26.847 29.946 C 27.577 29.759,28.042 29.124,27.985 28.393 C 27.913 27.461,27.007 26.812,26.123 27.059 " fill="var(--db-icon-color, currentColor)" stroke="none" fill-rule="evenodd"></path></svg>