<svg id="icon" height="24" viewBox="0 0 24 24" width="24" xmlns="http://www.w3.org/2000/svg"><path d="M11.485 5.045 C 11.161 5.099,10.749 5.254,10.428 5.443 C 10.009 5.689,9.501 6.216,9.293 6.620 C 8.904 7.374,8.905 7.782,9.299 8.187 C 9.627 8.524,10.063 8.596,10.477 8.381 C 10.648 8.293,10.899 7.986,10.956 7.796 C 11.070 7.416,11.372 7.133,11.765 7.039 C 12.308 6.908,12.842 7.236,12.962 7.774 C 13.061 8.216,12.907 8.479,12.321 8.872 C 11.779 9.234,11.634 9.363,11.425 9.669 C 11.167 10.046,11.035 10.443,11.005 10.936 L 10.980 11.332 7.235 12.781 C 5.175 13.578,3.393 14.281,3.275 14.345 C 2.941 14.524,2.486 15.003,2.311 15.360 C 1.562 16.886,2.436 18.645,4.100 18.958 C 4.275 18.991,6.462 19.000,12.140 18.992 L 19.940 18.980 20.260 18.867 C 21.289 18.506,21.961 17.575,21.959 16.514 C 21.958 15.815,21.725 15.245,21.241 14.757 C 21.025 14.540,20.855 14.412,20.640 14.304 C 20.475 14.221,18.693 13.519,16.680 12.743 L 13.020 11.332 13.007 11.199 C 12.975 10.877,13.014 10.819,13.449 10.530 C 14.464 9.856,14.933 9.134,14.989 8.159 C 15.097 6.266,13.371 4.732,11.485 5.045 M16.020 14.633 C 20.135 16.230,19.960 16.147,19.960 16.501 C 19.960 16.650,19.937 16.707,19.823 16.831 L 19.686 16.980 12.000 16.980 L 4.314 16.980 4.177 16.831 C 4.063 16.706,4.040 16.651,4.040 16.500 C 4.040 16.133,3.878 16.210,7.980 14.628 C 10.004 13.847,11.696 13.198,11.740 13.186 C 11.784 13.174,11.928 13.170,12.060 13.177 C 12.266 13.187,12.844 13.400,16.020 14.633 " fill="var(--db-icon-color, currentColor)" stroke="none" fill-rule="evenodd"></path></svg>