<svg id="icon" height="32" viewBox="0 0 32 32" width="32" xmlns="http://www.w3.org/2000/svg"><path d="M15.680 2.190 C 15.503 2.265,15.317 2.443,15.210 2.640 C 15.141 2.766,15.118 3.001,15.103 3.754 L 15.083 4.708 14.515 4.146 C 14.202 3.837,13.870 3.546,13.776 3.499 C 13.123 3.172,12.334 3.895,12.612 4.567 C 12.669 4.706,13.088 5.165,13.896 5.975 L 15.095 7.176 15.081 8.814 L 15.067 10.452 13.627 9.622 C 12.835 9.166,12.159 8.764,12.126 8.730 C 12.092 8.695,11.882 7.985,11.659 7.152 C 11.211 5.479,11.152 5.352,10.750 5.198 C 10.351 5.046,9.912 5.209,9.687 5.594 C 9.543 5.841,9.558 6.106,9.755 6.821 C 9.848 7.154,9.916 7.435,9.906 7.445 C 9.897 7.454,9.581 7.285,9.204 7.068 C 8.430 6.623,8.229 6.565,7.902 6.696 C 7.294 6.939,7.144 7.693,7.620 8.120 C 7.726 8.215,8.145 8.482,8.551 8.713 C 8.957 8.943,9.269 9.149,9.245 9.171 C 9.220 9.192,8.852 9.300,8.427 9.411 C 8.001 9.521,7.562 9.658,7.451 9.715 C 6.761 10.067,6.911 11.100,7.683 11.307 C 7.875 11.359,8.056 11.321,9.684 10.883 L 11.473 10.402 12.830 11.182 C 13.576 11.611,14.187 11.980,14.187 12.001 C 14.187 12.059,11.124 13.813,11.022 13.813 C 10.974 13.813,10.252 13.632,9.418 13.410 C 8.030 13.042,7.882 13.012,7.683 13.066 C 7.079 13.228,6.832 13.852,7.158 14.388 C 7.296 14.615,7.520 14.722,8.253 14.910 C 8.583 14.995,8.853 15.077,8.853 15.092 C 8.853 15.107,8.589 15.272,8.267 15.458 C 7.635 15.822,7.446 16.001,7.362 16.311 C 7.211 16.874,7.769 17.473,8.342 17.364 C 8.432 17.346,8.842 17.142,9.251 16.909 C 9.661 16.676,10.004 16.493,10.014 16.503 C 10.024 16.513,9.932 16.890,9.810 17.341 C 9.687 17.791,9.587 18.264,9.589 18.390 C 9.591 18.672,9.790 18.997,10.040 19.128 C 10.448 19.341,11.028 19.162,11.213 18.765 C 11.259 18.667,11.493 17.843,11.735 16.933 C 11.976 16.024,12.200 15.251,12.233 15.216 C 12.280 15.166,14.563 13.827,15.000 13.593 C 15.088 13.546,15.093 13.646,15.093 15.352 L 15.093 17.162 13.863 18.419 C 12.525 19.787,12.476 19.857,12.590 20.277 C 12.670 20.575,12.981 20.886,13.248 20.936 C 13.632 21.008,13.841 20.894,14.486 20.258 L 15.078 19.674 15.112 19.925 C 15.131 20.062,15.147 20.420,15.147 20.720 C 15.147 21.316,15.213 21.488,15.537 21.728 C 15.747 21.884,16.252 21.885,16.459 21.730 C 16.827 21.455,16.904 21.210,16.905 20.296 L 16.907 19.659 17.507 20.251 C 18.155 20.889,18.368 21.008,18.743 20.938 C 19.002 20.889,19.280 20.634,19.391 20.342 C 19.563 19.892,19.511 19.813,18.129 18.426 L 16.905 17.198 16.919 15.374 L 16.933 13.550 18.320 14.352 C 19.083 14.793,19.734 15.182,19.767 15.217 C 19.800 15.252,20.024 16.024,20.265 16.933 C 20.506 17.843,20.740 18.665,20.785 18.761 C 20.880 18.965,21.101 19.135,21.361 19.207 C 21.768 19.319,22.275 19.015,22.393 18.587 C 22.458 18.353,22.463 18.385,22.177 17.316 C 22.060 16.880,21.973 16.516,21.984 16.505 C 21.995 16.494,22.339 16.676,22.749 16.909 C 23.158 17.142,23.568 17.346,23.658 17.364 C 24.240 17.475,24.790 16.871,24.634 16.292 C 24.553 15.992,24.376 15.829,23.722 15.451 C 23.406 15.269,23.147 15.107,23.147 15.092 C 23.147 15.077,23.417 14.995,23.747 14.910 C 24.480 14.722,24.704 14.615,24.842 14.388 C 25.168 13.852,24.921 13.228,24.317 13.066 C 24.118 13.012,23.970 13.042,22.582 13.410 C 21.748 13.632,21.026 13.813,20.977 13.813 C 20.875 13.813,17.813 12.063,17.813 12.004 C 17.813 11.982,18.423 11.612,19.168 11.182 L 20.523 10.400 22.325 10.885 C 24.293 11.415,24.311 11.417,24.666 11.138 C 24.833 11.006,25.011 10.653,25.011 10.453 C 25.011 10.243,24.828 9.894,24.651 9.768 C 24.562 9.705,24.112 9.554,23.645 9.431 C 23.180 9.309,22.780 9.192,22.757 9.172 C 22.733 9.151,23.069 8.929,23.503 8.678 C 24.503 8.101,24.649 7.950,24.649 7.494 C 24.649 7.111,24.466 6.851,24.085 6.692 C 23.778 6.564,23.563 6.627,22.796 7.068 C 22.419 7.285,22.103 7.454,22.094 7.445 C 22.084 7.435,22.152 7.154,22.244 6.821 C 22.336 6.487,22.411 6.114,22.411 5.994 C 22.408 5.269,21.569 4.885,20.987 5.342 C 20.787 5.500,20.758 5.582,20.320 7.227 C 20.109 8.019,19.908 8.695,19.875 8.730 C 19.841 8.764,19.165 9.166,18.373 9.622 L 16.933 10.452 16.919 8.815 L 16.905 7.178 18.129 5.949 C 19.007 5.067,19.362 4.675,19.387 4.560 C 19.407 4.472,19.430 4.373,19.440 4.340 C 19.450 4.306,19.433 4.181,19.403 4.060 C 19.334 3.790,19.017 3.487,18.750 3.437 C 18.345 3.361,18.212 3.433,17.538 4.093 L 16.907 4.711 16.905 3.889 C 16.904 2.783,16.842 2.555,16.467 2.276 C 16.305 2.155,15.875 2.108,15.680 2.190 M19.424 23.387 C 18.277 23.595,17.466 24.361,17.140 25.547 C 17.004 26.039,17.001 27.456,17.134 27.947 C 17.512 29.338,18.431 30.041,19.976 30.118 C 21.289 30.185,22.002 29.859,21.901 29.240 C 21.838 28.846,21.643 28.774,20.966 28.892 C 19.866 29.083,19.155 28.801,18.879 28.066 C 18.653 27.461,18.639 26.044,18.853 25.440 C 19.124 24.675,19.757 24.383,20.808 24.540 C 21.459 24.637,21.543 24.627,21.717 24.433 C 21.982 24.136,21.902 23.677,21.555 23.497 C 21.206 23.317,20.119 23.261,19.424 23.387 M12.918 23.555 C 12.822 23.603,12.699 23.704,12.646 23.781 C 12.462 24.042,10.453 29.285,10.453 29.502 C 10.453 29.800,10.673 30.029,10.994 30.065 C 11.362 30.106,11.523 29.935,11.782 29.227 L 11.987 28.667 13.129 28.652 L 14.270 28.638 14.477 29.201 C 14.752 29.952,14.962 30.133,15.478 30.064 C 15.805 30.020,16.061 29.744,16.090 29.405 C 16.111 29.172,16.014 28.891,15.101 26.515 C 14.479 24.898,14.041 23.832,13.965 23.750 C 13.695 23.462,13.269 23.382,12.918 23.555 M13.519 26.556 C 13.711 27.095,13.860 27.545,13.848 27.556 C 13.837 27.567,13.503 27.570,13.107 27.562 L 12.386 27.547 12.699 26.667 C 13.050 25.682,13.114 25.523,13.146 25.555 C 13.158 25.567,13.326 26.018,13.519 26.556 " fill="var(--db-icon-color, currentColor)" stroke="none" fill-rule="evenodd"></path></svg>