<svg width="20" height="20" viewBox="0 0 20 20" fill="none" xmlns="http://www.w3.org/2000/svg">
<g clip-path="url(#clip0_185_1142)">
<path fill-rule="evenodd" clip-rule="evenodd" d="M12.5433 10C14.2753 10.0161 15.9547 10.6508 17.2263 11.8163L17.7123 12.2929C18.1028 12.6834 18.1028 13.3166 17.7123 13.7071C17.3518 14.0676 16.7846 14.0953 16.3923 13.7903L16.0324 13.4415C15.1679 12.5769 14.0009 12.0272 12.8044 11.9865C11.6079 11.9457 11.341 11.9901 10.9987 11.9869C10.6563 11.9838 10.3505 12.1927 10.2694 12.5253C10.2447 12.6269 10.3074 12.7364 10.4358 12.7585C10.5214 12.7732 11.4086 12.8554 13.0974 13.0049C13.6473 13.0559 14.0518 13.5429 14.0009 14.0929C13.9536 14.6035 13.5458 15.0299 13.0297 15.0005C12.5136 14.971 10.7476 14.8021 10.2514 14.75C9.75518 14.6978 9.32056 14.5415 8.79904 14.3764C8.45136 14.2664 7.35455 13.9243 5.50863 13.3502C4.97084 13.1842 4.38613 13.3621 4.03195 13.7995C3.97423 13.8708 3.97733 14.0064 4.14434 14.071C4.25569 14.114 5.53568 14.6038 7.98431 15.5403C8.68144 15.8062 9.41595 15.9587 10.1599 15.9927L17.0052 16C17.5575 16 18.0052 16.4477 18.0052 17C18.0052 17.5128 17.5785 18 17.0052 18H10.4793C9.50476 18 8.38853 17.8225 7.61516 17.5321C7.09959 17.3385 5.69086 16.8037 3.38897 15.9278C3.17524 15.8463 2.97577 15.7314 2.79798 15.5875C1.86824 14.8347 1.72478 13.4707 2.47757 12.541C3.30264 11.5219 4.63789 11.0773 5.90003 11.3844L8.31026 12.1226C8.62649 10.8764 9.62139 10.0639 10.82 10H12.5433ZM6.25518 7.75C6.6694 7.75 7.00518 8.08579 7.00518 8.5C7.00518 8.91421 6.6694 9.25 6.25518 9.25C5.84097 9.25 5.50518 8.91421 5.50518 8.5C5.50518 8.08579 5.84097 7.75 6.25518 7.75ZM9.75518 7C10.1694 7 10.5052 7.33579 10.5052 7.75C10.5052 8.16421 10.1694 8.5 9.75518 8.5C9.34097 8.5 9.00518 8.16421 9.00518 7.75C9.00518 7.33579 9.34097 7 9.75518 7ZM2.7551 6.96614C3.16931 6.96614 3.5051 7.30192 3.5051 7.71614C3.5051 8.13035 3.16931 8.46614 2.7551 8.46614C2.34088 8.46614 2.0051 8.13035 2.0051 7.71614C2.0051 7.30192 2.34088 6.96614 2.7551 6.96614ZM6.25518 5C6.6694 5 7.00518 5.33579 7.00518 5.75C7.00518 6.16421 6.6694 6.5 6.25518 6.5C5.84097 6.5 5.50518 6.16421 5.50518 5.75C5.50518 5.33579 5.84097 5 6.25518 5ZM9.25518 4.5C9.6694 4.5 10.0052 4.83579 10.0052 5.25C10.0052 5.66421 9.6694 6 9.25518 6C8.84097 6 8.50518 5.66421 8.50518 5.25C8.50518 4.83579 8.84097 4.5 9.25518 4.5ZM3.25518 4.47845C3.6694 4.47845 4.00518 4.81424 4.00518 5.22845C4.00518 5.64267 3.6694 5.97845 3.25518 5.97845C2.84097 5.97845 2.50518 5.64267 2.50518 5.22845C2.50518 4.81424 2.84097 4.47845 3.25518 4.47845ZM6.25518 2.25C6.6694 2.25 7.00518 2.58579 7.00518 3C7.00518 3.41421 6.6694 3.75 6.25518 3.75C5.84097 3.75 5.50518 3.41421 5.50518 3C5.50518 2.58579 5.84097 2.25 6.25518 2.25ZM3.74487 2C4.15909 2 4.49487 2.33579 4.49487 2.75C4.49487 3.16421 4.15909 3.5 3.74487 3.5C3.33066 3.5 2.99487 3.16421 2.99487 2.75C2.99487 2.33579 3.33066 2 3.74487 2ZM8.75518 2C9.1694 2 9.50518 2.33579 9.50518 2.75C9.50518 3.16421 9.1694 3.5 8.75518 3.5C8.34097 3.5 8.00518 3.16421 8.00518 2.75C8.00518 2.33579 8.34097 2 8.75518 2Z" fill="#1A1C1F"/>
</g>
<defs>
<clipPath id="clip0_185_1142">
<rect width="20" height="20" fill="white"/>
</clipPath>
</defs>
</svg>
