<svg width="16" height="16" viewBox="0 0 16 16" fill="none" xmlns="http://www.w3.org/2000/svg">
<g clip-path="url(#clip0_185_1144)">
<path fill-rule="evenodd" clip-rule="evenodd" d="M10.0346 8C11.4203 8.01285 12.7637 8.52066 13.7811 9.45306L14.1698 9.83431C14.4822 10.1467 14.4822 10.6533 14.1698 10.9657C13.8814 11.2541 13.4276 11.2763 13.1138 11.0322L12.8259 10.7532C12.1343 10.0615 11.2007 9.6218 10.2435 9.58916C9.28632 9.55653 9.07281 9.59209 8.79891 9.58955C8.52502 9.58701 8.28036 9.75414 8.21553 10.0203C8.19575 10.1015 8.24591 10.1891 8.34862 10.2068C8.4171 10.2186 9.12685 10.2843 10.4779 10.404C10.9178 10.4447 11.2415 10.8344 11.2007 11.2743C11.1629 11.6828 10.8367 12.0239 10.4238 12.0004C10.0109 11.9768 8.59807 11.8417 8.2011 11.8C7.80413 11.7583 7.45644 11.6332 7.03922 11.5011C6.76107 11.4131 5.88363 11.1394 4.4069 10.6802C3.97666 10.5473 3.50889 10.6897 3.22555 11.0396C3.17937 11.0966 3.18185 11.2051 3.31546 11.2568C3.40454 11.2912 4.42853 11.683 6.38744 12.4322C6.94514 12.645 7.53275 12.767 8.12794 12.7942L13.6041 12.8C14.046 12.8 14.4041 13.1582 14.4041 13.6C14.4041 14.0103 14.0628 14.4 13.6041 14.4H8.38342C7.60379 14.4 6.71081 14.258 6.09212 14.0257C5.67966 13.8708 4.55267 13.443 2.71117 12.7423C2.54018 12.677 2.3806 12.5851 2.23837 12.47C1.49458 11.8677 1.37981 10.7766 1.98204 10.0328C2.6421 9.21756 3.7103 8.86182 4.72001 9.10754L6.64819 9.69808C6.90118 8.70109 7.6971 8.05109 8.65596 8H10.0346ZM5.00413 6.2C5.33551 6.2 5.60414 6.46863 5.60414 6.8C5.60414 7.13137 5.33551 7.4 5.00413 7.4C4.67276 7.4 4.40413 7.13137 4.40413 6.8C4.40413 6.46863 4.67276 6.2 5.00413 6.2ZM7.80414 5.6C8.13551 5.6 8.40413 5.86863 8.40413 6.2C8.40413 6.53137 8.13551 6.8 7.80414 6.8C7.47276 6.8 7.20413 6.53137 7.20413 6.2C7.20413 5.86863 7.47276 5.6 7.80414 5.6ZM2.20407 5.57291C2.53544 5.57291 2.80407 5.84154 2.80407 6.17291C2.80407 6.50428 2.53544 6.77291 2.20407 6.77291C1.8727 6.77291 1.60407 6.50428 1.60407 6.17291C1.60407 5.84154 1.8727 5.57291 2.20407 5.57291ZM5.00413 4C5.33551 4 5.60414 4.26863 5.60414 4.6C5.60414 4.93137 5.33551 5.2 5.00413 5.2C4.67276 5.2 4.40413 4.93137 4.40413 4.6C4.40413 4.26863 4.67276 4 5.00413 4ZM7.40414 3.6C7.73551 3.6 8.00414 3.86863 8.00414 4.2C8.00414 4.53137 7.73551 4.8 7.40414 4.8C7.07276 4.8 6.80414 4.53137 6.80414 4.2C6.80414 3.86863 7.07276 3.6 7.40414 3.6ZM2.60413 3.58276C2.93551 3.58276 3.20413 3.85139 3.20413 4.18276C3.20413 4.51413 2.93551 4.78276 2.60413 4.78276C2.27276 4.78276 2.00413 4.51413 2.00413 4.18276C2.00413 3.85139 2.27276 3.58276 2.60413 3.58276ZM5.00413 1.8C5.33551 1.8 5.60414 2.06863 5.60414 2.4C5.60414 2.73137 5.33551 3 5.00413 3C4.67276 3 4.40413 2.73137 4.40413 2.4C4.40413 2.06863 4.67276 1.8 5.00413 1.8ZM2.99589 1.6C3.32726 1.6 3.59589 1.86863 3.59589 2.2C3.59589 2.53137 3.32726 2.8 2.99589 2.8C2.66452 2.8 2.39589 2.53137 2.39589 2.2C2.39589 1.86863 2.66452 1.6 2.99589 1.6ZM7.00414 1.6C7.33551 1.6 7.60414 1.86863 7.60414 2.2C7.60414 2.53137 7.33551 2.8 7.00414 2.8C6.67276 2.8 6.40414 2.53137 6.40414 2.2C6.40414 1.86863 6.67276 1.6 7.00414 1.6Z" fill="#1A1C1F"/>
</g>
<defs>
<clipPath id="clip0_185_1144">
<rect width="16" height="16" fill="white"/>
</clipPath>
</defs>
</svg>
