<svg width="12" height="12" viewBox="0 0 12 12" fill="none" xmlns="http://www.w3.org/2000/svg">
<g clip-path="url(#clip0_232_253)">
<path fill-rule="evenodd" clip-rule="evenodd" d="M7.52594 6C8.56518 6.00964 9.57277 6.3905 10.3358 7.0898L10.6273 7.37574C10.8617 7.61005 10.8617 7.98995 10.6273 8.22427C10.4111 8.44056 10.0707 8.45719 9.83535 8.27418L9.61943 8.06488C9.10069 7.54613 8.40053 7.21635 7.68263 7.19187C6.96473 7.1674 6.80459 7.19407 6.59917 7.19217C6.39375 7.19026 6.21026 7.31561 6.16163 7.5152C6.14679 7.57611 6.18442 7.64184 6.26145 7.6551C6.31281 7.66393 6.84512 7.71322 7.85841 7.80296C8.18836 7.83352 8.43108 8.12577 8.40053 8.45573C8.37216 8.76212 8.12748 9.01794 7.81781 9.00028C7.50815 8.98263 6.44854 8.88127 6.15081 8.84998C5.85309 8.8187 5.59231 8.7249 5.2794 8.62585C5.07079 8.55982 4.41271 8.35458 3.30516 8.01012C2.98248 7.91049 2.63165 8.01724 2.41914 8.2797C2.38451 8.32247 2.38637 8.40385 2.48658 8.44258C2.55339 8.46841 3.32138 8.76227 4.79056 9.32416C5.20884 9.48372 5.64955 9.57524 6.09594 9.59563L10.2031 9.6C10.5345 9.6 10.8031 9.86863 10.8031 10.2C10.8031 10.5077 10.5471 10.8 10.2031 10.8H6.28755C5.70283 10.8 5.03309 10.6935 4.56907 10.5193C4.25973 10.4031 3.41449 10.0822 2.03336 9.55669C1.90512 9.50777 1.78544 9.43885 1.67877 9.35248C1.12092 8.90081 1.03485 8.08243 1.48652 7.52458C1.98156 6.91317 2.78271 6.64636 3.53999 6.83065L4.98613 7.27356C5.17587 6.52582 5.77281 6.03832 6.49195 6H7.52594ZM3.75309 4.65C4.00161 4.65 4.20309 4.85147 4.20309 5.1C4.20309 5.34853 4.00161 5.55 3.75309 5.55C3.50456 5.55 3.30309 5.34853 3.30309 5.1C3.30309 4.85147 3.50456 4.65 3.75309 4.65ZM5.85309 4.2C6.10161 4.2 6.30309 4.40147 6.30309 4.65C6.30309 4.89853 6.10161 5.1 5.85309 5.1C5.60456 5.1 5.40309 4.89853 5.40309 4.65C5.40309 4.40147 5.60456 4.2 5.85309 4.2ZM1.65303 4.17968C1.90156 4.17968 2.10303 4.38116 2.10303 4.62968C2.10303 4.87821 1.90156 5.07968 1.65303 5.07968C1.40451 5.07968 1.20303 4.87821 1.20303 4.62968C1.20303 4.38116 1.40451 4.17968 1.65303 4.17968ZM3.75309 3C4.00161 3 4.20309 3.20147 4.20309 3.45C4.20309 3.69853 4.00161 3.9 3.75309 3.9C3.50456 3.9 3.30309 3.69853 3.30309 3.45C3.30309 3.20147 3.50456 3 3.75309 3ZM5.55309 2.7C5.80161 2.7 6.00309 2.90147 6.00309 3.15C6.00309 3.39853 5.80161 3.6 5.55309 3.6C5.30456 3.6 5.10309 3.39853 5.10309 3.15C5.10309 2.90147 5.30456 2.7 5.55309 2.7ZM1.95309 2.68707C2.20161 2.68707 2.40309 2.88855 2.40309 3.13707C2.40309 3.3856 2.20161 3.58707 1.95309 3.58707C1.70456 3.58707 1.50309 3.3856 1.50309 3.13707C1.50309 2.88855 1.70456 2.68707 1.95309 2.68707ZM3.75309 1.35C4.00161 1.35 4.20309 1.55147 4.20309 1.8C4.20309 2.04853 4.00161 2.25 3.75309 2.25C3.50456 2.25 3.30309 2.04853 3.30309 1.8C3.30309 1.55147 3.50456 1.35 3.75309 1.35ZM2.2469 1.2C2.49543 1.2 2.6969 1.40147 2.6969 1.65C2.6969 1.89853 2.49543 2.1 2.2469 2.1C1.99837 2.1 1.7969 1.89853 1.7969 1.65C1.7969 1.40147 1.99837 1.2 2.2469 1.2ZM5.25309 1.2C5.50161 1.2 5.70309 1.40147 5.70309 1.65C5.70309 1.89853 5.50161 2.1 5.25309 2.1C5.00456 2.1 4.80309 1.89853 4.80309 1.65C4.80309 1.40147 5.00456 1.2 5.25309 1.2Z" fill="#1A1C1F"/>
</g>
<defs>
<clipPath id="clip0_232_253">
<rect width="12" height="12" fill="white"/>
</clipPath>
</defs>
</svg>
