<svg width="14" height="14" viewBox="0 0 14 14" fill="none" xmlns="http://www.w3.org/2000/svg">
<g clip-path="url(#clip0_185_1146)">
<path fill-rule="evenodd" clip-rule="evenodd" d="M8.78024 7C9.99268 7.01124 11.1682 7.45558 12.0584 8.27143L12.3986 8.60502C12.6719 8.87839 12.6719 9.32161 12.3986 9.59497C12.1462 9.84731 11.7492 9.86672 11.4746 9.65321L11.2227 9.40902C10.6175 8.80382 9.8006 8.41907 8.96305 8.39052C8.12549 8.36196 7.93867 8.39308 7.69901 8.39086C7.45935 8.38864 7.24528 8.53488 7.18855 8.76774C7.17124 8.83879 7.21513 8.91548 7.30501 8.93094C7.36492 8.94125 7.98596 8.99876 9.16812 9.10346C9.55307 9.1391 9.83624 9.48006 9.8006 9.86502C9.7675 10.2225 9.48203 10.5209 9.12076 10.5003C8.75949 10.4797 7.52327 10.3615 7.17593 10.325C6.82858 10.2885 6.52435 10.179 6.15928 10.0635C5.9159 9.98646 5.14814 9.747 3.856 9.34513C3.47954 9.22891 3.07024 9.35345 2.82231 9.65965C2.78191 9.70955 2.78408 9.80449 2.90099 9.84968C2.97893 9.87981 3.87493 10.2226 5.58897 10.8782C6.07696 11.0643 6.59112 11.1711 7.11191 11.1949L11.9036 11.2C12.2902 11.2 12.6036 11.5134 12.6036 11.9C12.6036 12.259 12.3049 12.6 11.9036 12.6H7.33546C6.65328 12.6 5.87192 12.4758 5.33057 12.2725C4.96966 12.1369 3.98355 11.7626 2.37223 11.1495C2.22262 11.0924 2.08299 11.012 1.95854 10.9112C1.30772 10.3843 1.2073 9.4295 1.73425 8.77868C2.3118 8.06536 3.24648 7.75409 4.12997 7.96909L5.81713 8.48582C6.0385 7.61346 6.73492 7.04471 7.57393 7H8.78024ZM4.37858 5.425C4.66853 5.425 4.90358 5.66005 4.90358 5.95C4.90358 6.23995 4.66853 6.475 4.37858 6.475C4.08863 6.475 3.85358 6.23995 3.85358 5.95C3.85358 5.66005 4.08863 5.425 4.37858 5.425ZM6.82858 4.9C7.11853 4.9 7.35358 5.13505 7.35358 5.425C7.35358 5.71495 7.11853 5.95 6.82858 5.95C6.53863 5.95 6.30358 5.71495 6.30358 5.425C6.30358 5.13505 6.53863 4.9 6.82858 4.9ZM1.92852 4.8763C2.21847 4.8763 2.45352 5.11135 2.45352 5.4013C2.45352 5.69125 2.21847 5.9263 1.92852 5.9263C1.63857 5.9263 1.40352 5.69125 1.40352 5.4013C1.40352 5.11135 1.63857 4.8763 1.92852 4.8763ZM4.37858 3.5C4.66853 3.5 4.90358 3.73505 4.90358 4.025C4.90358 4.31495 4.66853 4.55 4.37858 4.55C4.08863 4.55 3.85358 4.31495 3.85358 4.025C3.85358 3.73505 4.08863 3.5 4.37858 3.5ZM6.47858 3.15C6.76853 3.15 7.00358 3.38505 7.00358 3.675C7.00358 3.96495 6.76853 4.2 6.47858 4.2C6.18863 4.2 5.95358 3.96495 5.95358 3.675C5.95358 3.38505 6.18863 3.15 6.47858 3.15ZM2.27858 3.13492C2.56853 3.13492 2.80358 3.36997 2.80358 3.65992C2.80358 3.94987 2.56853 4.18492 2.27858 4.18492C1.98863 4.18492 1.75358 3.94987 1.75358 3.65992C1.75358 3.36997 1.98863 3.13492 2.27858 3.13492ZM4.37858 1.575C4.66853 1.575 4.90358 1.81005 4.90358 2.1C4.90358 2.38995 4.66853 2.625 4.37858 2.625C4.08863 2.625 3.85358 2.38995 3.85358 2.1C3.85358 1.81005 4.08863 1.575 4.37858 1.575ZM2.62136 1.4C2.91131 1.4 3.14636 1.63505 3.14636 1.925C3.14636 2.21495 2.91131 2.45 2.62136 2.45C2.33141 2.45 2.09636 2.21495 2.09636 1.925C2.09636 1.63505 2.33141 1.4 2.62136 1.4ZM6.12858 1.4C6.41853 1.4 6.65358 1.63505 6.65358 1.925C6.65358 2.21495 6.41853 2.45 6.12858 2.45C5.83863 2.45 5.60358 2.21495 5.60358 1.925C5.60358 1.63505 5.83863 1.4 6.12858 1.4Z" fill="#1A1C1F"/>
</g>
<defs>
<clipPath id="clip0_185_1146">
<rect width="14" height="14" fill="white"/>
</clipPath>
</defs>
</svg>
