<svg width="20" height="20" viewBox="0 0 20 20" fill="none" xmlns="http://www.w3.org/2000/svg">
<g clip-path="url(#clip0_185_1246)">
<path fill-rule="evenodd" clip-rule="evenodd" d="M14.3014 10C15.2891 10 15.836 10.1116 16.3953 10.4232C16.9165 10.7136 17.3291 11.1433 17.6047 11.6801C17.872 12.2007 17.9814 12.7075 17.9978 13.5675L18 16C18 16.5523 17.5523 17 17 17C16.4872 17 16.0026 16.5928 16 16C15.9963 15.1542 15.9947 14.3083 15.9951 13.4624C15.9803 13.0009 15.9299 12.797 15.8255 12.5936C15.7292 12.4061 15.596 12.2674 15.422 12.1704C15.2382 12.068 15.0563 12.0191 14.627 12.0047L11.6776 12C11.0247 12 10.8014 12.046 10.578 12.1704C10.404 12.2674 10.2708 12.4061 10.1745 12.5936C10.0707 12.7959 10.0199 13.0006 10.0049 13.4504L10 16C10 16.5523 9.55228 17 9 17C8.48716 17 8.00172 16.5964 8 16C7.99787 15.2631 7.99787 14.5262 8 13.7892C8 12.7992 8.10508 12.2455 8.39534 11.6801C8.67093 11.1433 9.08346 10.7136 9.6047 10.4232C10.1109 10.1413 10.6107 10.0222 11.4239 10.0029L14.3014 10ZM6.25 10C6.80228 10 7.25 10.4477 7.25 11C7.25 11.5128 6.85118 12 6.25 12L5.27068 12.0102C4.9131 12.0296 4.74901 12.0783 4.58125 12.1713C4.40572 12.2687 4.27169 12.4077 4.17499 12.5952C4.08891 12.7621 4.03983 12.9272 4.01667 13.243L4 16C4 16.5523 3.55228 17 3 17C2.48716 17 2 16.5921 2 16V13.8488C2 12.7994 2.10207 12.2512 2.39744 11.6785C2.67425 11.1417 3.08834 10.7123 3.61122 10.4223C4.1291 10.1351 4.62951 10.0196 5.50011 10.0023L6.25 10ZM13 3C11.3431 3 10 4.34315 10 6C10 7.65685 11.3431 9 13 9C14.6569 9 16 7.65685 16 6C16 4.34315 14.6569 3 13 3ZM13 5C13.5523 5 14 5.44772 14 6C14 6.55228 13.5523 7 13 7C12.4477 7 12 6.55228 12 6C12 5.44772 12.4477 5 13 5ZM7 3C7.3024 3 7.5999 3.04507 7.88452 3.1328C8.4123 3.2955 8.70826 3.85523 8.54557 4.38301C8.3945 4.87309 7.90108 5.16329 7.40879 5.07198C7.18357 5.01576 7.10212 5 7 5C6.44772 5 6 5.44772 6 6C6 6.55228 6.44772 7 7 7C7.06065 7 7.16116 6.99642 7.26432 6.96496C7.79716 6.81968 8.34687 7.13386 8.49215 7.66669C8.63742 8.19953 8.32325 8.74925 7.79041 8.89452C7.53444 8.96431 7.2691 9 7 9C5.34315 9 4 7.65685 4 6C4 4.34315 5.34315 3 7 3Z" fill="#1A1C1F"/>
</g>
<defs>
<clipPath id="clip0_185_1246">
<rect width="20" height="20" fill="white"/>
</clipPath>
</defs>
</svg>
