<svg width="20" height="20" viewBox="0 0 20 20" fill="none" xmlns="http://www.w3.org/2000/svg">
<g clip-path="url(#clip0_2209_3807)">
<path fill-rule="evenodd" clip-rule="evenodd" d="M10 10C12.2095 10 14.0083 8.20047 14.0083 5.99027C14.0083 3.77998 12.2095 2 10 2C7.79048 2 6.01121 3.77998 6.01121 5.99027C6.01121 8.20047 7.79048 10 10 10ZM3.99722 18C3.4497 18 3 17.5696 3 17.0024V15.0073C3 13.3447 4.34921 11.9951 5.99167 11.9951H14.0083C15.6508 11.9951 17 13.3447 17 15.0073V17.0024C17 17.5696 16.5503 18 16.0028 18H3.99722Z" fill="#1A1C1F"/>
</g>
<defs>
<clipPath id="clip0_2209_3807">
<rect width="20" height="20" fill="white"/>
</clipPath>
</defs>
</svg>
