<svg width="12" height="12" viewBox="0 0 12 12" fill="none" xmlns="http://www.w3.org/2000/svg">
<g clip-path="url(#clip0_232_267)">
<path fill-rule="evenodd" clip-rule="evenodd" d="M2.39832 10.8008C2.72683 10.8008 2.99665 10.5427 2.99665 10.2025V9.00583C2.99665 8.66559 3.26648 8.39577 3.59499 8.39577H8.40499C8.7335 8.39577 9.00332 8.66559 9.00332 9.00583V10.2025C9.00332 10.5427 9.27314 10.8008 9.60165 10.8008C9.93017 10.8008 10.2 10.5427 10.2 10.2025V9.00583C10.2 8.00863 9.39046 7.19917 8.40499 7.19917H3.59499C2.60951 7.19917 1.79999 8.00863 1.79999 9.00583V10.2025C1.79999 10.5427 2.06981 10.8008 2.39832 10.8008ZM5.99999 1.19917C7.3257 1.19917 8.40499 2.26678 8.40499 3.5925C8.40499 4.91815 7.3257 5.9975 5.99999 5.9975C4.67427 5.9975 3.60671 4.91815 3.60671 3.5925C3.60671 2.26678 4.67427 1.19917 5.99999 1.19917ZM6.00332 2.39917C5.34453 2.39917 4.80332 2.94032 4.80332 3.5992C4.80332 4.26977 5.34453 4.79917 6.00332 4.79917C6.67387 4.79917 7.20332 4.26977 7.20332 3.5992C7.20332 2.94032 6.67387 2.39917 6.00332 2.39917Z" fill="#1A1C1F"/>
</g>
<defs>
<clipPath id="clip0_232_267">
<rect width="12" height="12" fill="white"/>
</clipPath>
</defs>
</svg>
