<svg width="20" height="20" viewBox="0 0 20 20" fill="none" xmlns="http://www.w3.org/2000/svg">
<g clip-path="url(#clip0_185_1233)">
<path fill-rule="evenodd" clip-rule="evenodd" d="M3.99722 18.0014C4.54474 18.0014 4.99444 17.5711 4.99444 17.0042V15.0097C4.99444 14.4427 5.44415 13.993 5.99167 13.993H14.0083C14.5559 13.993 15.0056 14.4427 15.0056 15.0097V17.0042C15.0056 17.5711 15.4553 18.0014 16.0028 18.0014C16.5503 18.0014 17 17.5711 17 17.0042V15.0097C17 13.3477 15.6508 11.9986 14.0083 11.9986H5.99167C4.34921 11.9986 3 13.3477 3 15.0097V17.0042C3 17.5711 3.4497 18.0014 3.99722 18.0014ZM10 1.99861C12.2095 1.99861 14.0083 3.77798 14.0083 5.9875C14.0083 8.19693 12.2095 9.99583 10 9.99583C7.79048 9.99583 6.01121 8.19693 6.01121 5.9875C6.01121 3.77798 7.79048 1.99861 10 1.99861ZM10.0056 3.99861C8.90757 3.99861 8.00556 4.90054 8.00556 5.99866C8.00556 7.11628 8.90757 7.99861 10.0056 7.99861C11.1231 7.99861 12.0056 7.11628 12.0056 5.99866C12.0056 4.90054 11.1231 3.99861 10.0056 3.99861Z" fill="#1A1C1F"/>
</g>
<defs>
<clipPath id="clip0_185_1233">
<rect width="20" height="20" fill="white"/>
</clipPath>
</defs>
</svg>
