<svg width="32" height="32" viewBox="0 0 32 32" fill="none" xmlns="http://www.w3.org/2000/svg">
<g clip-path="url(#clip0_185_1227)">
<path fill-rule="evenodd" clip-rule="evenodd" d="M21.5 16.5C25.2188 16.5 28 19.4062 28 23.5V29C28 29.5625 27.5625 30 27 30C26.4375 30 26 29.5625 26 29V23.5C26 20.0625 23.8438 18.6875 21.75 18.5C20 19.4687 18 19.9375 16 19.9375C14 19.9375 12 19.4687 10.25 18.5C8.1563 18.6875 6 20.0625 6 23.5V29C6 29.5625 5.5625 30 5 30C4.4375 30 4 29.5625 4 29V23.5C4 19.4375 6.75 16.4687 10.4688 16.5C10.6875 16.5019 10.8438 16.5312 11 16.625C12.5 17.5312 14.25 18 16 18C17.7813 18 19.4688 17.5312 21 16.625C21.1563 16.5312 21.3125 16.5 21.5 16.5ZM16 2C19.875 2 23 5.1563 23 9C23 12.8438 19.875 16 15.9999 16C12.125 16 9 12.8438 9 9C9 5.1563 12.125 2 16 2ZM16 4C13.25 4 11 6.25 11 9C11 11.75 13.25 14 16 14C18.75 14 21 11.75 21 9C21 6.25 18.75 4 16 4Z" fill="#1A1C1F"/>
</g>
<defs>
<clipPath id="clip0_185_1227">
<rect width="32" height="32" fill="white"/>
</clipPath>
</defs>
</svg>
