<svg width="14" height="14" viewBox="0 0 14 14" fill="none" xmlns="http://www.w3.org/2000/svg">
<g clip-path="url(#clip0_185_1250)">
<path fill-rule="evenodd" clip-rule="evenodd" d="M10.011 7.00001C10.7024 7.00001 11.0852 7.07815 11.4767 7.29626C11.8416 7.49953 12.1304 7.80033 12.3233 8.17608C12.5104 8.54052 12.587 8.89524 12.5985 9.49724L12.6 11.2C12.6 11.5866 12.2866 11.9 11.9 11.9C11.541 11.9 11.2018 11.615 11.2 11.2C11.1974 10.6079 11.1963 10.0158 11.1966 9.42368C11.1862 9.10062 11.1509 8.95789 11.0778 8.81551C11.0105 8.68426 10.9173 8.58717 10.7954 8.51929C10.6668 8.44763 10.5394 8.41338 10.2389 8.4033L8.17436 8.40001C7.7173 8.40001 7.56099 8.43219 7.40465 8.51929C7.2828 8.58717 7.18959 8.68426 7.12221 8.81551C7.0495 8.95712 7.01398 9.10041 7.00346 9.41526L7.00002 11.2C7.00002 11.5866 6.68662 11.9 6.30002 11.9C5.94104 11.9 5.60123 11.6175 5.60002 11.2C5.59853 10.6842 5.59853 10.1683 5.60002 9.65243C5.60002 8.95946 5.67358 8.57183 5.87676 8.17608C6.06967 7.80033 6.35845 7.49953 6.72331 7.29626C7.07762 7.09888 7.42749 7.01554 7.99677 7.00201L10.011 7.00001ZM4.37502 7.00001C4.76162 7.00001 5.07502 7.31341 5.07502 7.70001C5.07502 8.05899 4.79585 8.40001 4.37502 8.40001L3.6895 8.40715C3.43919 8.4207 3.32433 8.4548 3.2069 8.51993C3.08403 8.58808 2.99021 8.68537 2.92252 8.81663C2.86226 8.93348 2.8279 9.04906 2.8117 9.27011L2.80002 11.2C2.80002 11.5866 2.48662 11.9 2.10002 11.9C1.74104 11.9 1.40002 11.6145 1.40002 11.2V9.69414C1.40002 8.95958 1.47148 8.57587 1.67823 8.17495C1.872 7.79922 2.16187 7.49862 2.52788 7.29562C2.89039 7.09457 3.24068 7.01371 3.8501 7.00163L4.37502 7.00001ZM9.10002 2.10001C7.94023 2.10001 7.00002 3.04021 7.00002 4.20001C7.00002 5.3598 7.94023 6.30001 9.10002 6.30001C10.2598 6.30001 11.2 5.3598 11.2 4.20001C11.2 3.04021 10.2598 2.10001 9.10002 2.10001ZM9.10002 3.50001C9.48662 3.50001 9.80002 3.81341 9.80002 4.20001C9.80002 4.58661 9.48662 4.90001 9.10002 4.90001C8.71343 4.90001 8.40002 4.58661 8.40002 4.20001C8.40002 3.81341 8.71343 3.50001 9.10002 3.50001ZM4.90002 2.10001C5.1117 2.10001 5.31995 2.13155 5.51919 2.19297C5.88863 2.30685 6.09581 2.69867 5.98192 3.06811C5.87617 3.41117 5.53078 3.61431 5.18618 3.55039C5.02852 3.51103 4.97151 3.50001 4.90002 3.50001C4.51343 3.50001 4.20002 3.81341 4.20002 4.20001C4.20002 4.58661 4.51343 4.90001 4.90002 4.90001C4.94248 4.90001 5.01283 4.8975 5.08505 4.87548C5.45803 4.77378 5.84284 4.99371 5.94453 5.36669C6.04622 5.73968 5.8263 6.12448 5.45331 6.22617C5.27413 6.27502 5.0884 6.30001 4.90002 6.30001C3.74023 6.30001 2.80002 5.3598 2.80002 4.20001C2.80002 3.04021 3.74023 2.10001 4.90002 2.10001Z" fill="#1A1C1F"/>
</g>
<defs>
<clipPath id="clip0_185_1250">
<rect width="14" height="14" fill="white"/>
</clipPath>
</defs>
</svg>
