<svg width="14" height="14" viewBox="0 0 14 14" fill="none" xmlns="http://www.w3.org/2000/svg">
<g clip-path="url(#clip0_185_1237)">
<path fill-rule="evenodd" clip-rule="evenodd" d="M2.79803 12.601C3.1813 12.601 3.49609 12.2998 3.49609 11.9029V10.5068C3.49609 10.1099 3.81088 9.79507 4.19414 9.79507H9.80581C10.1891 9.79507 10.5039 10.1099 10.5039 10.5068V11.9029C10.5039 12.2998 10.8187 12.601 11.2019 12.601C11.5852 12.601 11.9 12.2998 11.9 11.9029V10.5068C11.9 9.3434 10.9555 8.39902 9.80581 8.39902H4.19414C3.04442 8.39902 2.09998 9.3434 2.09998 10.5068V11.9029C2.09998 12.2998 2.41477 12.601 2.79803 12.601ZM6.99998 1.39902C8.54664 1.39902 9.80581 2.64458 9.80581 4.19125C9.80581 5.73784 8.54664 6.99708 6.99998 6.99708C5.45331 6.99708 4.20782 5.73784 4.20782 4.19125C4.20782 2.64458 5.45331 1.39902 6.99998 1.39902ZM7.00386 2.79902C6.23527 2.79902 5.60386 3.43038 5.60386 4.19906C5.60386 4.98139 6.23527 5.59902 7.00386 5.59902C7.78618 5.59902 8.40386 4.98139 8.40386 4.19906C8.40386 3.43038 7.78618 2.79902 7.00386 2.79902Z" fill="#1A1C1F"/>
</g>
<defs>
<clipPath id="clip0_185_1237">
<rect width="14" height="14" fill="white"/>
</clipPath>
</defs>
</svg>
