<svg width="16" height="16" viewBox="0 0 16 16" fill="none" xmlns="http://www.w3.org/2000/svg">
<g clip-path="url(#clip0_185_1235)">
<path fill-rule="evenodd" clip-rule="evenodd" d="M3.1978 14.4011C3.63582 14.4011 3.99558 14.0569 3.99558 13.6033V12.0078C3.99558 11.5541 4.35534 11.1944 4.79336 11.1944H11.2067C11.6447 11.1944 12.0045 11.5541 12.0045 12.0078V13.6033C12.0045 14.0569 12.3642 14.4011 12.8022 14.4011C13.2403 14.4011 13.6 14.0569 13.6 13.6033V12.0078C13.6 10.6782 12.5207 9.59889 11.2067 9.59889H4.79336C3.47939 9.59889 2.40002 10.6782 2.40002 12.0078V13.6033C2.40002 14.0569 2.75979 14.4011 3.1978 14.4011ZM8.00002 1.59889C9.76764 1.59889 11.2067 3.02238 11.2067 4.79C11.2067 6.55754 9.76764 7.99667 8.00002 7.99667C6.23241 7.99667 4.80899 6.55754 4.80899 4.79C4.80899 3.02238 6.23241 1.59889 8.00002 1.59889ZM8.00447 3.19889C7.12608 3.19889 6.40447 3.92044 6.40447 4.79893C6.40447 5.69303 7.12608 6.39889 8.00447 6.39889C8.89854 6.39889 9.60447 5.69303 9.60447 4.79893C9.60447 3.92044 8.89854 3.19889 8.00447 3.19889Z" fill="#1A1C1F"/>
</g>
<defs>
<clipPath id="clip0_185_1235">
<rect width="16" height="16" fill="white"/>
</clipPath>
</defs>
</svg>
