<svg width="32" height="32" viewBox="0 0 32 32" fill="none" xmlns="http://www.w3.org/2000/svg">
<g clip-path="url(#clip0_185_1240)">
<path fill-rule="evenodd" clip-rule="evenodd" d="M27.4253 17.6525C28.2396 18.1033 28.9057 18.7486 29.3475 19.5747C29.798 20.417 29.9773 21.2408 29.998 22.749L30 27C30 27.5523 29.5523 28 29 28C28.4872 28 27.9947 27.603 27.9947 27V22.5703C27.9693 21.5121 27.8513 21.0178 27.5839 20.5179C27.3285 20.0403 26.9597 19.6715 26.4821 19.4161C25.9465 19.1296 25.4173 19.0146 24.1942 19.0013L19.0205 19C17.6534 19 17.0863 19.1121 16.5179 19.4161C16.0403 19.6715 15.6715 20.0403 15.4161 20.5179C15.1311 21.0508 15.0148 21.5825 15.0013 22.7734L15 27C15 27.5523 14.5523 28 14 28C13.4872 28 13 27.5875 13 27V23.0205C13 21.3502 13.1742 20.469 13.6525 19.5747C14.0943 18.7486 14.7486 18.0943 15.5747 17.6525C16.4131 17.2041 17.24 17.023 18.7164 17.0021C21.6875 17.0007 23.4939 17 24.1357 17C25.0984 17 26.3447 17.0542 27.4253 17.6525ZM10.25 17C10.8023 17 11.25 17.4477 11.25 18C11.25 18.5128 10.8513 19.0013 10.25 19H8.12777C7.95428 19 7.59185 19.0101 7.04048 19.0304C6.32276 19.0808 5.92459 19.1986 5.51791 19.4161C5.04032 19.6715 4.67149 20.0403 4.41608 20.5179C4.19858 20.9246 4.08082 21.3228 4.03036 22.0405L4 23.1278V27C4 27.5523 3.55228 28 3 28C2.48716 28 2 27.5846 2 27C2 26.6102 2 25.3195 2 23.1278C2 21.3512 2.16819 20.4802 2.65245 19.5747C3.09427 18.7486 3.74859 18.0943 4.57471 17.6525C5.42693 17.1967 6.24858 17.0209 7.82346 17.0018L10.25 17ZM21.5 4C18.4624 4 16 6.46243 16 9.5C16 12.5376 18.4624 15 21.5 15C24.5376 15 27 12.5376 27 9.5C27 6.46243 24.5376 4 21.5 4ZM21.5 6C23.433 6 25 7.567 25 9.5C25 11.433 23.433 13 21.5 13C19.567 13 18 11.433 18 9.5C18 7.567 19.567 6 21.5 6ZM10.5 4C11.6104 4 12.674 4.33076 13.5754 4.93961C14.033 5.24874 14.1534 5.87035 13.8443 6.32802C13.5352 6.78568 12.9136 6.9061 12.4559 6.59697C11.8826 6.20971 11.2082 6 10.5 6C8.567 6 7 7.567 7 9.5C7 11.433 8.567 13 10.5 13C11.2015 13 11.8699 12.7942 12.4399 12.4138C12.8992 12.1072 13.5202 12.231 13.8268 12.6904C14.1334 13.1498 14.0095 13.7707 13.5502 14.0773C12.654 14.6755 11.5999 15 10.5 15C7.46243 15 5 12.5376 5 9.5C5 6.46243 7.46243 4 10.5 4Z" fill="#1A1C1F"/>
</g>
<defs>
<clipPath id="clip0_185_1240">
<rect width="32" height="32" fill="white"/>
</clipPath>
</defs>
</svg>
