<svg width="12" height="12" viewBox="0 0 12 12" fill="none" xmlns="http://www.w3.org/2000/svg">
<g clip-path="url(#clip0_2209_3813)">
<path fill-rule="evenodd" clip-rule="evenodd" d="M6.00005 6C7.32576 6 8.40505 4.92028 8.40505 3.59416C8.40505 2.26799 7.32576 1.2 6.00005 1.2C4.67433 1.2 3.60678 2.26799 3.60678 3.59416C3.60678 4.92028 4.67433 6 6.00005 6ZM2.39838 10.8C2.06987 10.8 1.80005 10.5418 1.80005 10.2015V9.00437C1.80005 8.00682 2.60957 7.19708 3.59505 7.19708H8.40505C9.39052 7.19708 10.2 8.00682 10.2 9.00437V10.2015C10.2 10.5418 9.93023 10.8 9.60172 10.8H2.39838Z" fill="#1A1C1F"/>
</g>
<defs>
<clipPath id="clip0_2209_3813">
<rect width="12" height="12" fill="white"/>
</clipPath>
</defs>
</svg>
