<svg width="16" height="16" viewBox="0 0 16 16" fill="none" xmlns="http://www.w3.org/2000/svg">
<g clip-path="url(#clip0_185_1248)">
<path fill-rule="evenodd" clip-rule="evenodd" d="M11.4411 7.99999C12.2313 7.99999 12.6688 8.0893 13.1162 8.33857C13.5332 8.57088 13.8632 8.91465 14.0837 9.34408C14.2975 9.76058 14.3851 10.166 14.3982 10.854L14.4 12.8C14.4 13.2418 14.0418 13.6 13.6 13.6C13.1897 13.6 12.802 13.2742 12.8 12.8C12.797 12.1233 12.7957 11.4466 12.7961 10.7699C12.7842 10.4007 12.7439 10.2376 12.6603 10.0749C12.5833 9.92485 12.4768 9.81389 12.3376 9.73632C12.1906 9.65443 12.045 9.61528 11.7016 9.60375L9.34207 9.59999C8.81972 9.59999 8.64108 9.63677 8.4624 9.73632C8.32314 9.81389 8.21662 9.92485 8.13961 10.0749C8.05652 10.2367 8.01592 10.4005 8.0039 10.7603L7.99998 12.8C7.99998 13.2418 7.6418 13.6 7.19998 13.6C6.78971 13.6 6.40135 13.2771 6.39998 12.8C6.39827 12.2105 6.39827 11.6209 6.39998 11.0313C6.39998 10.2394 6.48404 9.79636 6.71625 9.34408C6.93672 8.91465 7.26674 8.57088 7.68373 8.33857C8.08866 8.113 8.48851 8.01774 9.13911 8.00229L11.4411 7.99999ZM4.99998 7.99999C5.4418 7.99999 5.79998 8.35817 5.79998 8.79999C5.79998 9.21026 5.48092 9.59999 4.99998 9.59999L4.21652 9.60815C3.93045 9.62365 3.79919 9.66262 3.66498 9.73705C3.52455 9.81493 3.41733 9.92612 3.33997 10.0761C3.2711 10.2097 3.23184 10.3418 3.21331 10.5944L3.19998 12.8C3.19998 13.2418 2.8418 13.6 2.39998 13.6C1.98971 13.6 1.59998 13.2737 1.59998 12.8V11.079C1.59998 10.2395 1.68163 9.80098 1.91793 9.34279C2.13937 8.91338 2.47065 8.56984 2.88895 8.33784C3.30326 8.10806 3.70358 8.01566 4.40007 8.00185L4.99998 7.99999ZM10.4 2.39999C9.07449 2.39999 7.99998 3.47451 7.99998 4.79999C7.99998 6.12548 9.07449 7.19999 10.4 7.19999C11.7255 7.19999 12.8 6.12548 12.8 4.79999C12.8 3.47451 11.7255 2.39999 10.4 2.39999ZM10.4 3.99999C10.8418 3.99999 11.2 4.35817 11.2 4.79999C11.2 5.24182 10.8418 5.59999 10.4 5.59999C9.95815 5.59999 9.59998 5.24182 9.59998 4.79999C9.59998 4.35817 9.95815 3.99999 10.4 3.99999ZM5.59998 2.39999C5.84189 2.39999 6.07989 2.43605 6.30759 2.50624C6.72981 2.63639 6.96658 3.08418 6.83643 3.5064C6.71557 3.89847 6.32084 4.13062 5.92701 4.05758C5.74683 4.0126 5.68167 3.99999 5.59998 3.99999C5.15815 3.99999 4.79998 4.35817 4.79998 4.79999C4.79998 5.24182 5.15815 5.59999 5.59998 5.59999C5.6485 5.59999 5.7289 5.59713 5.81143 5.57196C6.2377 5.45574 6.67747 5.70708 6.7937 6.13335C6.90992 6.55962 6.65857 6.99939 6.2323 7.11561C6.02753 7.17144 5.81526 7.19999 5.59998 7.19999C4.27449 7.19999 3.19998 6.12548 3.19998 4.79999C3.19998 3.47451 4.27449 2.39999 5.59998 2.39999Z" fill="#1A1C1F"/>
</g>
<defs>
<clipPath id="clip0_185_1248">
<rect width="16" height="16" fill="white"/>
</clipPath>
</defs>
</svg>
