<svg width="24" height="24" viewBox="0 0 24 24" fill="none" xmlns="http://www.w3.org/2000/svg">
<g clip-path="url(#clip0_185_1244)">
<path fill-rule="evenodd" clip-rule="evenodd" d="M17.6267 13C18.8167 13 19.4539 13.1249 20.1074 13.4744C20.7162 13.8 21.2 14.2838 21.5256 14.8926C21.8483 15.4959 21.9795 16.0852 21.9977 17.1082L22 20C22 20.5523 21.5523 21 21 21C20.4872 21 19.9953 20.5768 19.9953 20V17.0017C19.9778 16.3863 19.9097 16.112 19.762 15.8358C19.6228 15.5755 19.4245 15.3772 19.1642 15.238C18.888 15.0903 18.6137 15.0222 17.9983 15.0047L14.347 15C13.4861 15 13.1605 15.0644 12.8358 15.238C12.5755 15.3772 12.3772 15.5755 12.238 15.8358C12.0788 16.1334 12.0115 16.4318 12.0014 17.1426L12 20C12 20.5523 11.5523 21 11 21C10.4872 21 10 20.5872 10.0067 20L10 17.347C10 16.183 10.1265 15.5431 10.4744 14.8926C10.8 14.2838 11.2838 13.8 11.8926 13.4744C12.4931 13.1532 13.0845 13.0208 14.0875 13.0023L17.6267 13ZM7.25 13C7.80228 13 8.25 13.4477 8.25 14C8.25 14.5128 7.82921 15 7.25 15L6.09128 15.0096C5.58844 15.0232 5.1941 15.1037 4.90826 15.2509C4.61737 15.3961 4.39919 15.5997 4.24927 15.8614C4.09277 16.1345 4.02264 16.3991 4.00477 17.0335L4 20C4 20.5523 3.55228 21 3 21C2.48716 21 2 20.5902 2 20V17.4185C2 16.1745 2.13294 15.532 2.51397 14.867C2.86206 14.2595 3.37471 13.7811 4.01504 13.4614C4.65311 13.143 5.26538 13.0181 6.39306 13.0019L7.25 13ZM16 3C18.2091 3 20 4.79086 20 7C20 9.20914 18.2091 11 16 11C13.7909 11 12 9.20914 12 7C12 4.79086 13.7909 3 16 3ZM8.20712 3C8.71922 3 9.22027 3.08737 9.69114 3.25606C10.2111 3.44233 10.4774 4.0125 10.2953 4.53473C10.1917 4.8317 9.7867 5.34375 9.12866 5.17188L8.72663 5.07251C8.69117 5.06445 8.65847 5.05729 8.62821 5.05093L8.47331 5.02148L8.31728 5.00269L8.20712 5C6.97379 5 6 5.9109 6 7C6 8.0891 6.97379 9 8.20712 9L8.35968 8.99784C8.51889 8.99135 8.71025 8.96532 9.04335 8.86099C9.48749 8.72189 10.0661 8.98007 10.2426 9.50339C10.4191 10.0267 10.138 10.594 9.61466 10.7705C9.166 10.9219 8.69144 11 8.20712 11C5.89796 11 4 9.22461 4 7C4 4.77539 5.89796 3 8.20712 3ZM16 5C14.8954 5 14 5.89543 14 7C14 8.10457 14.8954 9 16 9C17.1046 9 18 8.10457 18 7C18 5.89543 17.1046 5 16 5Z" fill="#1A1C1F"/>
</g>
<defs>
<clipPath id="clip0_185_1244">
<rect width="24" height="24" fill="white"/>
</clipPath>
</defs>
</svg>
