<svg width="24" height="24" viewBox="0 0 24 24" fill="none" xmlns="http://www.w3.org/2000/svg">
<g clip-path="url(#clip0_185_1231)">
<path fill-rule="evenodd" clip-rule="evenodd" d="M16.125 13.0312C18.875 13.0312 21 15.0938 21 18.125V21C21 21.5625 20.5625 22 20 22C19.4375 22 19 21.5625 19 21V18.125C19 15.5938 17.125 15.0312 16.2188 15.0312C14.9688 15.6562 13.5312 16 12 16C10.4688 16 9.03125 15.6562 7.78125 15.0312C6.84375 15.0312 5 15.5938 5 18.125V21C5 21.5625 4.5625 22 4 22C3.4375 22 3 21.5625 3 21V18.125C3 15.2188 5.09375 13.0312 7.71875 13.0312C8.03125 13.0312 8.4375 13.0938 8.65625 13.2188C9.625 13.75 10.75 14 12 14C13.25 14 14.375 13.75 15.3438 13.2188C15.5938 13.0938 15.875 13.0312 16.125 13.0312ZM12 2C14.75 2 17 4.25 17 7C17 9.75 14.75 12 12 12C9.25 12 7 9.75 7 7C7 4.25 9.25 2 12 2ZM12 4C10.3438 4 9 5.3438 9 7C9 8.6562 10.3438 10 12 10C13.6562 10 15 8.6562 15 7C15 5.3438 13.6562 4 12 4Z" fill="#1A1C1F"/>
</g>
<defs>
<clipPath id="clip0_185_1231">
<rect width="24" height="24" fill="white"/>
</clipPath>
</defs>
</svg>
