<svg width="14" height="14" viewBox="0 0 14 14" fill="none" xmlns="http://www.w3.org/2000/svg">
<g clip-path="url(#clip0_2209_3811)">
<path fill-rule="evenodd" clip-rule="evenodd" d="M6.99998 7C8.54664 7 9.80581 5.74033 9.80581 4.19319C9.80581 2.64599 8.54664 1.4 6.99998 1.4C5.45331 1.4 4.20782 2.64599 4.20782 4.19319C4.20782 5.74033 5.45331 7 6.99998 7ZM2.79803 12.6C2.41477 12.6 2.09998 12.2987 2.09998 11.9017V10.5051C2.09998 9.3413 3.04442 8.3966 4.19414 8.3966H9.80581C10.9555 8.3966 11.9 9.3413 11.9 10.5051V11.9017C11.9 12.2987 11.5852 12.6 11.2019 12.6H2.79803Z" fill="#1A1C1F"/>
</g>
<defs>
<clipPath id="clip0_2209_3811">
<rect width="14" height="14" fill="white"/>
</clipPath>
</defs>
</svg>
