<svg width="28" height="28" viewBox="0 0 28 28" fill="none" xmlns="http://www.w3.org/2000/svg">
<g clip-path="url(#clip0_185_1242)">
<path fill-rule="evenodd" clip-rule="evenodd" d="M23.9971 15.4459C24.7097 15.8404 25.2925 16.405 25.6791 17.1279C26.0733 17.8649 26.2301 18.5857 26.2482 19.9053L26.25 23.625C26.25 24.1082 25.8582 24.5 25.375 24.5C24.9263 24.5 24.4953 24.1526 24.4953 23.625V19.749C24.4732 18.8231 24.3699 18.3906 24.1359 17.9532C23.9124 17.5353 23.5897 17.2126 23.1718 16.9891C22.7032 16.7384 22.2401 16.6378 21.1699 16.6262L16.643 16.625C15.4467 16.625 14.9505 16.7231 14.4532 16.9891C14.0353 17.2126 13.7126 17.5353 13.4891 17.9532C13.2397 18.4195 13.1379 18.8847 13.1262 19.9267L13.125 23.625C13.125 24.1082 12.7332 24.5 12.25 24.5C11.8013 24.5 11.375 24.1391 11.375 23.625V20.143C11.375 18.6815 11.5274 17.9104 11.9459 17.1279C12.3325 16.405 12.905 15.8325 13.6279 15.4459C14.3615 15.0536 15.085 14.8951 16.3769 14.8768C18.9766 14.8756 20.5572 14.875 21.1188 14.875C21.9611 14.875 23.0516 14.9224 23.9971 15.4459ZM8.96875 14.875C9.452 14.875 9.84375 15.2668 9.84375 15.75C9.84375 16.1987 9.49488 16.6262 8.96875 16.625H7.1118C6.96 16.625 6.64287 16.6339 6.16042 16.6516C5.53242 16.6957 5.18402 16.7988 4.82817 16.9891C4.41028 17.2126 4.08756 17.5353 3.86407 17.9532C3.67376 18.309 3.57072 18.6574 3.52657 19.2854L3.5 20.2368V23.625C3.5 24.1082 3.10825 24.5 2.625 24.5C2.17627 24.5 1.75 24.1366 1.75 23.625C1.75 23.284 1.75 22.1546 1.75 20.2368C1.75 18.6823 1.89717 17.9202 2.3209 17.1279C2.70748 16.405 3.28002 15.8325 4.00287 15.4459C4.74856 15.0471 5.46751 14.8933 6.84553 14.8766L8.96875 14.875ZM18.8125 3.5C16.1546 3.5 14 5.65463 14 8.3125C14 10.9704 16.1546 13.125 18.8125 13.125C21.4704 13.125 23.625 10.9704 23.625 8.3125C23.625 5.65463 21.4704 3.5 18.8125 3.5ZM18.8125 5.25C20.5039 5.25 21.875 6.62113 21.875 8.3125C21.875 10.0039 20.5039 11.375 18.8125 11.375C17.1211 11.375 15.75 10.0039 15.75 8.3125C15.75 6.62113 17.1211 5.25 18.8125 5.25ZM9.1875 3.5C10.1591 3.5 11.0897 3.78941 11.8784 4.32216C12.2789 4.59265 12.3843 5.13656 12.1138 5.53702C11.8433 5.93747 11.2994 6.04283 10.8989 5.77235C10.3973 5.4335 9.80719 5.25 9.1875 5.25C7.49613 5.25 6.125 6.62113 6.125 8.3125C6.125 10.0039 7.49613 11.375 9.1875 11.375C9.80135 11.375 10.3862 11.195 10.8849 10.8621C11.2868 10.5938 11.8301 10.7022 12.0984 11.1041C12.3667 11.506 12.2583 12.0494 11.8564 12.3176C11.0722 12.841 10.1499 13.125 9.1875 13.125C6.52963 13.125 4.375 10.9704 4.375 8.3125C4.375 5.65463 6.52963 3.5 9.1875 3.5Z" fill="#1A1C1F"/>
</g>
<defs>
<clipPath id="clip0_185_1242">
<rect width="28" height="28" fill="white"/>
</clipPath>
</defs>
</svg>
