<svg width="28" height="28" viewBox="0 0 28 28" fill="none" xmlns="http://www.w3.org/2000/svg">
<g clip-path="url(#clip0_185_1229)">
<path fill-rule="evenodd" clip-rule="evenodd" d="M18.8125 14.4375C22.0665 14.4375 24.5 16.9804 24.5 20.5625V25.375C24.5 25.8672 24.1172 26.25 23.625 26.25C23.1328 26.25 22.75 25.8672 22.75 25.375V20.5625C22.75 17.5547 20.8633 16.3516 19.0312 16.1875C17.5 17.0351 15.75 17.4453 14 17.4453C12.25 17.4453 10.5 17.0351 8.96875 16.1875C7.13676 16.3516 5.25 17.5547 5.25 20.5625V25.375C5.25 25.8672 4.86719 26.25 4.375 26.25C3.88281 26.25 3.5 25.8672 3.5 25.375V20.5625C3.5 17.0078 5.90625 14.4101 9.1602 14.4375C9.35156 14.4392 9.48833 14.4648 9.625 14.5469C10.9375 15.3398 12.4688 15.75 14 15.75C15.5586 15.75 17.0352 15.3398 18.375 14.5469C18.5118 14.4648 18.6484 14.4375 18.8125 14.4375ZM14 1.75C17.3906 1.75 20.125 4.51176 20.125 7.875C20.125 11.2383 17.3906 14 13.9999 14C10.6094 14 7.875 11.2383 7.875 7.875C7.875 4.51176 10.6094 1.75 14 1.75ZM14 3.5C11.5938 3.5 9.625 5.46875 9.625 7.875C9.625 10.2812 11.5938 12.25 14 12.25C16.4062 12.25 18.375 10.2812 18.375 7.875C18.375 5.46875 16.4062 3.5 14 3.5Z" fill="#1A1C1F"/>
</g>
<defs>
<clipPath id="clip0_185_1229">
<rect width="28" height="28" fill="white"/>
</clipPath>
</defs>
</svg>
