<svg width="16" height="16" viewBox="0 0 16 16" fill="none" xmlns="http://www.w3.org/2000/svg">
<g clip-path="url(#clip0_2209_3809)">
<path fill-rule="evenodd" clip-rule="evenodd" d="M8.00002 8C9.76764 8 11.2067 6.56037 11.2067 4.79222C11.2067 3.02399 9.76764 1.6 8.00002 1.6C6.23241 1.6 4.80899 3.02399 4.80899 4.79222C4.80899 6.56037 6.23241 8 8.00002 8ZM3.1978 14.4C2.75979 14.4 2.40002 14.0557 2.40002 13.6019V12.0058C2.40002 10.6758 3.47939 9.59611 4.79336 9.59611H11.2067C12.5207 9.59611 13.6 10.6758 13.6 12.0058V13.6019C13.6 14.0557 13.2403 14.4 12.8022 14.4H3.1978Z" fill="#1A1C1F"/>
</g>
<defs>
<clipPath id="clip0_2209_3809">
<rect width="16" height="16" fill="white"/>
</clipPath>
</defs>
</svg>
