<svg width="12" height="12" viewBox="0 0 12 12" fill="none" xmlns="http://www.w3.org/2000/svg">
<g clip-path="url(#clip0_232_269)">
<path fill-rule="evenodd" clip-rule="evenodd" d="M8.58084 6C9.17348 6 9.5016 6.06698 9.83719 6.25394C10.1499 6.42816 10.3975 6.686 10.5628 7.00807C10.7232 7.32044 10.7889 7.62449 10.7987 8.14049L10.8 9.6C10.8 9.93137 10.5314 10.2 10.2 10.2C9.89231 10.2 9.60157 9.95568 9.60001 9.6C9.5978 9.0925 9.59683 8.58498 9.5971 8.07744C9.58818 7.80053 9.55794 7.67819 9.49529 7.55615C9.43753 7.44365 9.35764 7.36043 9.25319 7.30224C9.14295 7.24083 9.03378 7.21147 8.77619 7.20282L7.00658 7.2C6.61482 7.2 6.48084 7.22759 6.34683 7.30224C6.24239 7.36043 6.1625 7.44365 6.10474 7.55615C6.04242 7.67753 6.01197 7.80035 6.00296 8.07022L6.00001 9.6C6.00001 9.93137 5.73138 10.2 5.40001 10.2C5.09231 10.2 4.80105 9.95785 4.80001 9.6C4.79873 9.15786 4.79873 8.71569 4.80001 8.27351C4.80001 7.67953 4.86306 7.34728 5.03721 7.00807C5.20257 6.686 5.45009 6.42816 5.76283 6.25394C6.06652 6.08476 6.36641 6.01331 6.85436 6.00172L8.58084 6ZM3.75001 6C4.08138 6 4.35001 6.26863 4.35001 6.6C4.35001 6.9077 4.11072 7.2 3.75001 7.2L3.16242 7.20612C2.94787 7.21774 2.84942 7.24697 2.74876 7.3028C2.64344 7.36121 2.56303 7.4446 2.505 7.55711C2.45336 7.65726 2.42391 7.75633 2.41002 7.94581L2.40001 9.6C2.40001 9.93137 2.13138 10.2 1.80001 10.2C1.49231 10.2 1.20001 9.95527 1.20001 9.6V8.30926C1.20001 7.67964 1.26126 7.35074 1.43848 7.0071C1.60456 6.68504 1.85302 6.42738 2.16675 6.25339C2.47747 6.08105 2.77772 6.01175 3.30008 6.0014L3.75001 6ZM7.80001 1.8C6.8059 1.8 6.00001 2.60589 6.00001 3.6C6.00001 4.59412 6.8059 5.4 7.80001 5.4C8.79413 5.4 9.60001 4.59412 9.60001 3.6C9.60001 2.60589 8.79413 1.8 7.80001 1.8ZM7.80001 3C8.13138 3 8.40001 3.26863 8.40001 3.6C8.40001 3.93137 8.13138 4.2 7.80001 4.2C7.46864 4.2 7.20001 3.93137 7.20001 3.6C7.20001 3.26863 7.46864 3 7.80001 3ZM4.20001 1.8C4.38145 1.8 4.55995 1.82704 4.73072 1.87969C5.04739 1.9773 5.22497 2.31314 5.12735 2.62981C5.03671 2.92386 4.74066 3.09797 4.44529 3.04319C4.31015 3.00946 4.26128 3 4.20001 3C3.86864 3 3.60001 3.26863 3.60001 3.6C3.60001 3.93137 3.86864 4.2 4.20001 4.2C4.2364 4.2 4.29671 4.19786 4.3586 4.17898C4.67831 4.09181 5.00814 4.28032 5.0953 4.60002C5.18247 4.91972 4.99396 5.24955 4.67426 5.33672C4.52068 5.37859 4.36147 5.4 4.20001 5.4C3.2059 5.4 2.40001 4.59412 2.40001 3.6C2.40001 2.60589 3.2059 1.8 4.20001 1.8Z" fill="#1A1C1F"/>
</g>
<defs>
<clipPath id="clip0_232_269">
<rect width="12" height="12" fill="white"/>
</clipPath>
</defs>
</svg>
