<svg width="28" height="28" viewBox="0 0 28 28" fill="none" xmlns="http://www.w3.org/2000/svg">
<g clip-path="url(#clip0_185_1164)">
<path fill-rule="evenodd" clip-rule="evenodd" d="M10.9321 20.1431C12.8066 20.1431 14.4907 21.748 14.4321 23.6431C14.4334 24.2204 14.4334 24.7977 14.4321 25.375C14.4321 25.8582 14.0404 26.25 13.5571 26.25C13.1084 26.25 12.6821 25.8871 12.6821 25.375C12.6803 24.7977 12.6803 24.2204 12.6821 23.6431C12.6821 22.7205 11.8754 21.8931 10.9321 21.8931C9.18627 21.8915 7.44029 21.8915 5.6942 21.8931C4.77163 21.8931 3.93214 22.6147 3.9442 23.6431C3.94271 24.2204 3.94271 24.7977 3.9442 25.375C3.9442 25.8582 3.55245 26.25 3.0692 26.25C2.62047 26.25 2.1942 25.8915 2.1942 25.375C2.19235 24.7977 2.19235 24.2204 2.1942 23.6431C2.1942 21.7687 3.70295 20.1431 5.6942 20.1431C7.44011 20.1417 9.18609 20.1417 10.9321 20.1431ZM8.30714 9.625C10.7234 9.625 12.6821 11.5838 12.6821 14C12.6821 16.4162 10.7234 18.375 8.30714 18.375C5.89089 18.375 3.93214 16.4162 3.93214 14C3.93214 11.5838 5.89089 9.625 8.30714 9.625ZM8.30714 11.375C6.85739 11.375 5.68214 12.5503 5.68214 14C5.68214 15.4497 6.85739 16.625 8.30714 16.625C9.75689 16.625 10.9321 15.4497 10.9321 14C10.9321 12.5503 9.75689 11.375 8.30714 11.375ZM19.8152 15.2863C20.0712 14.8766 20.611 14.7521 21.0209 15.008C21.4307 15.2639 21.5555 15.8036 21.2994 16.2132C21.0432 16.6228 20.5036 16.7474 20.0936 16.4914C19.6837 16.2355 19.5591 15.6959 19.8152 15.2863ZM15.4258 14.4346C15.6685 14.0172 16.2039 13.8758 16.6216 14.1191C17.0395 14.3623 17.1814 14.8979 16.9385 15.3152C16.6956 15.7328 16.1602 15.8742 15.7425 15.631C15.3248 15.3877 15.1829 14.8521 15.4258 14.4346ZM24.1758 14.4346C24.4185 14.0172 24.9539 13.8758 25.3716 14.1191C25.7895 14.3623 25.9314 14.8979 25.6885 15.3152C25.4456 15.7328 24.9102 15.8742 24.4925 15.631C24.0748 15.3877 23.9329 14.8521 24.1758 14.4346ZM19.8152 12.6613C20.0712 12.2516 20.611 12.1271 21.0209 12.383C21.4307 12.6389 21.5555 13.1786 21.2994 13.5882C21.0432 13.9978 20.5036 14.1224 20.0936 13.8664C19.6837 13.6105 19.5591 13.0709 19.8152 12.6613ZM16.3008 11.8096C16.5435 11.3922 17.0789 11.2508 17.4966 11.4941C17.9145 11.7373 18.0564 12.2729 17.8135 12.6902C17.5706 13.1078 17.0352 13.2492 16.6175 13.006C16.1998 12.7627 16.0579 12.2271 16.3008 11.8096ZM23.6167 11.4935C24.0343 11.2508 24.57 11.3927 24.8132 11.8104C25.0562 12.2281 24.9149 12.7636 24.4975 13.0065C24.08 13.2492 23.5444 13.1073 23.3012 12.6896C23.058 12.2717 23.1992 11.7362 23.6167 11.4935ZM19.8152 10.0362C20.0713 9.62659 20.6112 9.50206 21.0208 9.75803C21.4308 10.0139 21.5555 10.5534 21.2993 10.9631C21.0433 11.3728 20.5035 11.4974 20.0935 11.2414C19.6838 10.9856 19.5592 10.446 19.8152 10.0362ZM17.1757 9.18475C17.4183 8.7672 17.954 8.62582 18.3717 8.86904C18.7894 9.11227 18.9313 9.64784 18.6886 10.0654C18.4457 10.483 17.9103 10.6241 17.4926 10.3809C17.0749 10.1379 16.933 9.60211 17.1757 9.18475ZM22.7417 8.86866C23.1593 8.62578 23.6949 8.76768 23.9381 9.18539C24.1813 9.6031 24.0399 10.1386 23.6226 10.3814C23.205 10.6241 22.6694 10.4824 22.4262 10.0645C22.183 9.6468 22.3243 9.11134 22.7417 8.86866ZM20.5571 1.75C21.0059 1.75 21.4321 2.10852 21.4321 2.625L21.4328 4.85006C22.413 4.93417 23.3908 5.15938 24.3644 5.52446C24.8169 5.69414 25.0461 6.1985 24.8764 6.65098C24.7067 7.10346 24.2024 7.33272 23.7499 7.16304C22.6799 6.76178 21.6171 6.5625 20.5571 6.5625C19.4972 6.5625 18.4344 6.76178 17.3644 7.16304C16.9119 7.33272 16.4075 7.10346 16.2378 6.65098C16.0682 6.1985 16.2974 5.69414 16.7499 5.52446C17.7238 5.15927 18.7019 4.93403 19.6823 4.84999L19.6821 2.625C19.6821 2.14175 20.0739 1.75 20.5571 1.75Z" fill="#1A1C1F"/>
</g>
<defs>
<clipPath id="clip0_185_1164">
<rect width="28" height="28" fill="white"/>
</clipPath>
</defs>
</svg>
