<svg width="32" height="32" viewBox="0 0 32 32" fill="none" xmlns="http://www.w3.org/2000/svg">
<g clip-path="url(#clip0_185_1162)">
<path fill-rule="evenodd" clip-rule="evenodd" d="M12.4939 23.0207C14.6361 23.0207 16.5609 24.8549 16.4939 27.0207C16.4954 27.6804 16.4954 28.3402 16.4939 29C16.4939 29.5523 16.0462 30 15.4939 30C14.9811 30 14.4939 29.5852 14.4939 29C14.4918 28.3402 14.4918 27.6805 14.4939 27.0207C14.4939 25.9663 13.5719 25.0207 12.4939 25.0207C10.4986 25.0189 8.50323 25.0189 6.50769 25.0207C5.45333 25.0207 4.49391 25.8453 4.50769 27.0207C4.50599 27.6804 4.50599 28.3402 4.50769 29C4.50769 29.5523 4.05998 30 3.50769 30C2.99486 30 2.50769 29.5903 2.50769 29C2.50557 28.3402 2.50557 27.6805 2.50769 27.0207C2.50769 24.8785 4.23198 23.0207 6.50769 23.0207C8.50302 23.0191 10.4984 23.0191 12.4939 23.0207ZM9.49391 11C12.2553 11 14.4939 13.2386 14.4939 16C14.4939 18.7614 12.2553 21 9.49391 21C6.73248 21 4.49391 18.7614 4.49391 16C4.49391 13.2386 6.73248 11 9.49391 11ZM9.49391 13C7.83705 13 6.49391 14.3431 6.49391 16C6.49391 17.6569 7.83705 19 9.49391 19C11.1508 19 12.4939 17.6569 12.4939 16C12.4939 14.3431 11.1508 13 9.49391 13ZM22.646 17.4701C22.9386 17.0018 23.5555 16.8595 24.024 17.152C24.4923 17.4444 24.6349 18.0612 24.3422 18.5293C24.0494 18.9975 23.4327 19.1399 22.9642 18.8474C22.4957 18.5548 22.3533 17.9382 22.646 17.4701ZM17.6295 16.4967C17.9069 16.0197 18.5188 15.8581 18.9961 16.1361C19.4737 16.414 19.6359 17.0261 19.3583 17.5031C19.0807 17.9803 18.4688 18.1419 17.9915 17.8639C17.5141 17.586 17.3519 16.9739 17.6295 16.4967ZM27.6295 16.4967C27.9069 16.0197 28.5188 15.8581 28.9961 16.1361C29.4737 16.414 29.6359 17.0261 29.3583 17.5031C29.0807 17.9803 28.4688 18.1419 27.9915 17.8639C27.5141 17.586 27.3519 16.9739 27.6295 16.4967ZM22.646 14.4701C22.9386 14.0018 23.5555 13.8595 24.024 14.152C24.4923 14.4444 24.6349 15.0612 24.3422 15.5293C24.0494 15.9975 23.4327 16.1399 22.9642 15.8474C22.4957 15.5548 22.3533 14.9382 22.646 14.4701ZM18.6295 13.4967C18.9069 13.0197 19.5188 12.8581 19.9961 13.1361C20.4737 13.414 20.6359 14.0261 20.3583 14.5031C20.0807 14.9803 19.4688 15.1419 18.9915 14.8639C18.5141 14.586 18.3519 13.9739 18.6295 13.4967ZM26.9906 13.1355C27.4678 12.8581 28.0801 13.0203 28.358 13.4976C28.6357 13.975 28.4742 14.587 27.9972 14.8645C27.52 15.1419 26.908 14.9797 26.63 14.5024C26.352 14.0247 26.5134 13.4128 26.9906 13.1355ZM22.6459 11.47C22.9387 11.0018 23.5556 10.8595 24.0238 11.152C24.4924 11.4444 24.6348 12.0611 24.3421 12.5292C24.0495 12.9975 23.4326 13.1398 22.9641 12.8473C22.4958 12.5549 22.3534 11.9383 22.6459 11.47ZM19.6294 10.4969C19.9067 10.0197 20.5189 9.85808 20.9963 10.136C21.4736 10.414 21.6358 11.0261 21.3585 11.5033C21.0809 11.9805 20.4689 12.1419 19.9916 11.8639C19.5142 11.5862 19.352 10.9738 19.6294 10.4969ZM25.9906 10.1356C26.4678 9.85804 27.0799 10.0202 27.3578 10.4976C27.6358 10.975 27.4742 11.5869 26.9973 11.8645C26.52 12.1418 25.9079 11.9799 25.63 11.5023C25.352 11.0249 25.5136 10.413 25.9906 10.1356ZM23.4939 2C24.0067 2 24.4939 2.40974 24.4939 3L24.4947 5.54293C25.6149 5.63905 26.7324 5.89643 27.845 6.31367C28.3622 6.50759 28.6242 7.084 28.4302 7.60112C28.2363 8.11824 27.6599 8.38025 27.1428 8.18633C25.9199 7.72775 24.7052 7.5 23.4939 7.5C22.2826 7.5 21.0679 7.72775 19.845 8.18633C19.3279 8.38025 18.7515 8.11824 18.5576 7.60112C18.3637 7.084 18.6257 6.50759 19.1428 6.31367C20.2558 5.89631 21.3736 5.63889 22.4941 5.54284L22.4939 3C22.4939 2.44772 22.9416 2 23.4939 2Z" fill="#1A1C1F"/>
</g>
<defs>
<clipPath id="clip0_185_1162">
<rect width="32" height="32" fill="white"/>
</clipPath>
</defs>
</svg>
