<svg width="28" height="28" viewBox="0 0 28 28" fill="none" xmlns="http://www.w3.org/2000/svg">
<g clip-path="url(#clip0_185_1190)">
<path fill-rule="evenodd" clip-rule="evenodd" d="M11.4132 20.1249C12.4802 20.1249 13.4292 20.8071 13.6597 21.8105L14.4156 25.1801C14.5232 25.6512 14.2285 26.1203 13.7574 26.2279C13.2862 26.3355 12.8171 26.0408 12.7095 25.5697L11.9528 22.1964C11.919 22.0492 11.7439 21.9096 11.5054 21.8805L5.21687 21.8749C4.93076 21.8749 4.71387 22.0307 4.67688 22.1916L3.91561 25.5697C3.80803 26.0408 3.3389 26.3355 2.86778 26.2279C2.39666 26.1203 2.10195 25.6512 2.20953 25.1801L2.97025 21.8044C3.18861 20.8543 4.11886 20.1295 5.21687 20.1295L11.4132 20.1249ZM8.31257 9.62488C10.7288 9.62488 12.6876 11.5836 12.6876 13.9999C12.6876 16.4161 10.7288 18.3749 8.31257 18.3749C5.89632 18.3749 3.93757 16.4161 3.93757 13.9999C3.93757 11.5836 5.89632 9.62488 8.31257 9.62488ZM8.31257 11.3749C6.86282 11.3749 5.68757 12.5501 5.68757 13.9999C5.68757 15.4496 6.86282 16.6249 8.31257 16.6249C9.76232 16.6249 10.9376 15.4496 10.9376 13.9999C10.9376 12.5501 9.76232 11.3749 8.31257 11.3749ZM21.0264 15.0079C21.4361 15.2637 21.5609 15.8034 21.3048 16.213C21.0487 16.6227 20.509 16.7473 20.0991 16.4913C19.6892 16.2354 19.5645 15.6958 19.8207 15.2862C20.0767 14.8764 20.6165 14.7519 21.0264 15.0079ZM16.627 14.1189C17.0449 14.3622 17.1868 14.8977 16.9439 15.3151C16.701 15.7327 16.1656 15.8741 15.7479 15.6308C15.3302 15.3876 15.1884 14.852 15.4312 14.4345C15.6739 14.0171 16.2093 13.8757 16.627 14.1189ZM25.377 14.1189C25.7949 14.3622 25.9368 14.8977 25.6939 15.3151C25.4511 15.7327 24.9156 15.8741 24.4979 15.6308C24.0802 15.3876 23.9384 14.852 24.1812 14.4345C24.4239 14.0171 24.9593 13.8757 25.377 14.1189ZM21.0264 12.3829C21.4361 12.6387 21.5609 13.1784 21.3048 13.588C21.0487 13.9977 20.509 14.1223 20.0991 13.8663C19.6892 13.6104 19.5645 13.0708 19.8207 12.6612C20.0767 12.2514 20.6165 12.1269 21.0264 12.3829ZM17.502 11.4939C17.9199 11.7372 18.0618 12.2727 17.8189 12.6901C17.576 13.1077 17.0406 13.2491 16.6229 13.0058C16.2052 12.7626 16.0634 12.227 16.3062 11.8095C16.5489 11.3921 17.0843 11.2507 17.502 11.4939ZM24.8187 11.8103C25.0617 12.228 24.9203 12.7635 24.503 13.0064C24.0854 13.249 23.5499 13.1071 23.3067 12.6894C23.0634 12.2715 23.2046 11.7361 23.6222 11.4934C24.0397 11.2507 24.5755 11.3926 24.8187 11.8103ZM21.0262 9.75791C21.4363 10.0137 21.5609 10.5533 21.3047 10.9629C21.0487 11.3727 20.5089 11.4972 20.099 11.2413C19.6892 10.9854 19.5646 10.4459 19.8206 10.0361C20.0767 9.62646 20.6166 9.50194 21.0262 9.75791ZM18.3771 8.86892C18.7948 9.11214 18.9367 9.64772 18.694 10.0653C18.4512 10.4828 17.9157 10.624 17.498 10.3808C17.0803 10.1378 16.9384 9.60199 17.1811 9.18463C17.4238 8.76708 17.9594 8.62569 18.3771 8.86892ZM23.9435 9.18526C24.1867 9.60297 24.0454 10.1384 23.628 10.3813C23.2104 10.624 22.6749 10.4823 22.4316 10.0644C22.1884 9.64668 22.3298 9.11122 22.7471 8.86854C23.1647 8.62566 23.7003 8.76756 23.9435 9.18526ZM20.5626 1.74988C21.0113 1.74988 21.4376 2.1084 21.4376 2.62488L21.4383 4.84994C22.4184 4.93404 23.3962 5.15925 24.3698 5.52434C24.8223 5.69402 25.0515 6.19838 24.8819 6.65086C24.7122 7.10334 24.2078 7.3326 23.7553 7.16292C22.6853 6.76166 21.6225 6.56238 20.5626 6.56238C19.5027 6.56238 18.4398 6.76166 17.3698 7.16292C16.9173 7.3326 16.413 7.10334 16.2433 6.65086C16.0736 6.19838 16.3029 5.69402 16.7553 5.52434C17.7292 5.15915 18.7073 4.93391 19.6878 4.84986L19.6876 2.62488C19.6876 2.14163 20.0793 1.74988 20.5626 1.74988Z" fill="#1A1C1F"/>
</g>
<defs>
<clipPath id="clip0_185_1190">
<rect width="28" height="28" fill="white"/>
</clipPath>
</defs>
</svg>
