<svg width="28" height="28" viewBox="0 0 28 28" fill="none" xmlns="http://www.w3.org/2000/svg">
<g clip-path="url(#clip0_185_1177)">
<path fill-rule="evenodd" clip-rule="evenodd" d="M12.477 20.1249C13.6864 20.1249 14.5932 21.228 14.4161 22.4323L13.988 25.5018C13.9179 25.9799 13.4735 26.3108 12.9954 26.2407C12.5172 26.1706 12.1864 25.7262 12.2565 25.2481L12.6846 22.1781C12.7062 22.0314 12.623 21.8749 12.4483 21.8749H4.14959C4.02882 21.8749 3.91738 22.0101 3.94129 22.1777L4.36572 25.2506C4.43439 25.729 4.10227 26.1724 3.62393 26.2411C3.17975 26.3048 2.76567 26.023 2.6538 25.5994L2.20892 22.4256C2.0296 21.2198 2.97291 20.1294 4.01679 20.1294C4.7127 20.1294 7.53276 20.1279 12.477 20.1249ZM8.3131 9.62494C10.7293 9.62494 12.6881 11.5837 12.6881 13.9999C12.6881 16.4162 10.7293 18.3749 8.3131 18.3749C5.89686 18.3749 3.9381 16.4162 3.9381 13.9999C3.9381 11.5837 5.89686 9.62494 8.3131 9.62494ZM8.3131 11.3749C6.86335 11.3749 5.6881 12.5502 5.6881 13.9999C5.6881 15.4497 6.86335 16.6249 8.3131 16.6249C9.76285 16.6249 10.9381 15.4497 10.9381 13.9999C10.9381 12.5502 9.76285 11.3749 8.3131 11.3749ZM19.8212 15.2863C20.0772 14.8765 20.617 14.752 21.0269 15.008C21.4367 15.2638 21.5614 15.8035 21.3053 16.2131C21.0492 16.6227 20.5095 16.7474 20.0996 16.4914C19.6897 16.2354 19.5651 15.6959 19.8212 15.2863ZM15.4318 14.4345C15.6744 14.0171 16.2099 13.8758 16.6275 14.119C17.0454 14.3622 17.1873 14.8978 16.9445 15.3152C16.7016 15.7327 16.1662 15.8741 15.7485 15.6309C15.3308 15.3877 15.1889 14.8521 15.4318 14.4345ZM24.1818 14.4345C24.4244 14.0171 24.9599 13.8758 25.3775 14.119C25.7954 14.3622 25.9373 14.8978 25.6945 15.3152C25.4516 15.7327 24.9162 15.8741 24.4985 15.6309C24.0808 15.3877 23.9389 14.8521 24.1818 14.4345ZM19.8212 12.6613C20.0772 12.2515 20.617 12.127 21.0269 12.383C21.4367 12.6388 21.5614 13.1785 21.3053 13.5881C21.0492 13.9977 20.5095 14.1224 20.0996 13.8664C19.6897 13.6104 19.5651 13.0709 19.8212 12.6613ZM16.3068 11.8095C16.5494 11.3921 17.0849 11.2508 17.5025 11.494C17.9204 11.7372 18.0623 12.2728 17.8195 12.6902C17.5766 13.1077 17.0412 13.2491 16.6235 13.0059C16.2058 12.7627 16.0639 12.2271 16.3068 11.8095ZM23.6227 11.4935C24.0402 11.2508 24.576 11.3927 24.8192 11.8104C25.0622 12.2281 24.9208 12.7635 24.5035 13.0064C24.086 13.2491 23.5504 13.1072 23.3072 12.6895C23.064 12.2716 23.2052 11.7361 23.6227 11.4935ZM19.8211 10.0362C20.0773 9.62652 20.6171 9.502 21.0268 9.75797C21.4368 10.0138 21.5614 10.5534 21.3053 10.963C21.0493 11.3728 20.5094 11.4973 20.0995 11.2413C19.6897 10.9855 19.5651 10.4459 19.8211 10.0362ZM17.1816 9.18469C17.4243 8.76714 17.96 8.62576 18.3777 8.86898C18.7954 9.11221 18.9373 9.64778 18.6946 10.0653C18.4517 10.4829 17.9162 10.6241 17.4985 10.3808C17.0808 10.1378 16.9389 9.60205 17.1816 9.18469ZM22.7477 8.8686C23.1652 8.62572 23.7008 8.76762 23.944 9.18533C24.1873 9.60303 24.0459 10.1385 23.6285 10.3814C23.211 10.6241 22.6754 10.4824 22.4322 10.0644C22.1889 9.64674 22.3303 9.11128 22.7477 8.8686ZM20.5631 1.74994C21.0118 1.74994 21.4381 2.10846 21.4381 2.62494L21.4388 4.85C22.4189 4.9341 23.3968 5.15932 24.3703 5.5244C24.8228 5.69408 25.0521 6.19844 24.8824 6.65092C24.7127 7.1034 24.2083 7.33266 23.7559 7.16298C22.6858 6.76172 21.623 6.56244 20.5631 6.56244C19.5032 6.56244 18.4404 6.76172 17.3703 7.16298C16.9179 7.33266 16.4135 7.1034 16.2438 6.65092C16.0741 6.19844 16.3034 5.69408 16.7559 5.5244C17.7297 5.15921 18.7078 4.93397 19.6883 4.84993L19.6881 2.62494C19.6881 2.14169 20.0799 1.74994 20.5631 1.74994Z" fill="#1A1C1F"/>
</g>
<defs>
<clipPath id="clip0_185_1177">
<rect width="28" height="28" fill="white"/>
</clipPath>
</defs>
</svg>
