<svg width="32" height="32" viewBox="0 0 32 32" fill="none" xmlns="http://www.w3.org/2000/svg">
<g clip-path="url(#clip0_185_1175)">
<path fill-rule="evenodd" clip-rule="evenodd" d="M14.2594 22.9999C15.6417 22.9999 16.678 24.2605 16.4755 25.6369L15.9863 29.1449C15.9062 29.6914 15.3983 30.0694 14.8519 29.9894C14.3054 29.9093 13.9274 29.4014 14.0074 28.855L14.4967 25.3465C14.5214 25.1787 14.4263 24.9999 14.2267 24.9999H4.74242C4.60439 24.9999 4.47704 25.1544 4.50435 25.346L4.98942 28.8579C5.0679 29.4045 4.68834 29.9113 4.14166 29.9898C3.63402 30.0627 3.16079 29.7406 3.03294 29.2565L2.52451 25.6292C2.31957 24.2512 3.39764 23.005 4.59064 23.005C5.38597 23.005 8.6089 23.0033 14.2594 22.9999ZM9.50071 10.9999C12.2621 10.9999 14.5007 13.2385 14.5007 15.9999C14.5007 18.7614 12.2621 20.9999 9.50071 20.9999C6.73929 20.9999 4.50071 18.7614 4.50071 15.9999C4.50071 13.2385 6.73929 10.9999 9.50071 10.9999ZM9.50071 12.9999C7.84386 12.9999 6.50071 14.3431 6.50071 15.9999C6.50071 17.6568 7.84386 18.9999 9.50071 18.9999C11.1576 18.9999 12.5007 17.6568 12.5007 15.9999C12.5007 14.3431 11.1576 12.9999 9.50071 12.9999ZM22.6528 17.47C22.9454 17.0017 23.5623 16.8594 24.0308 17.152C24.4991 17.4443 24.6417 18.0611 24.349 18.5293C24.0563 18.9974 23.4395 19.1398 22.971 18.8473C22.5026 18.5548 22.3601 17.9381 22.6528 17.47ZM17.6363 16.4966C17.9137 16.0196 18.5256 15.858 19.0029 16.136C19.4805 16.414 19.6427 17.0261 19.3651 17.5031C19.0875 17.9803 18.4756 18.1419 17.9983 17.8639C17.5209 17.5859 17.3588 16.9738 17.6363 16.4966ZM27.6363 16.4966C27.9137 16.0196 28.5256 15.858 29.0029 16.136C29.4805 16.414 29.6427 17.0261 29.3651 17.5031C29.0875 17.9803 28.4756 18.1419 27.9983 17.8639C27.5209 17.5859 27.3588 16.9738 27.6363 16.4966ZM22.6528 14.47C22.9454 14.0017 23.5623 13.8594 24.0308 14.152C24.4991 14.4443 24.6417 15.0611 24.349 15.5293C24.0563 15.9974 23.4395 16.1398 22.971 15.8473C22.5026 15.5548 22.3601 14.9381 22.6528 14.47ZM18.6363 13.4966C18.9137 13.0196 19.5256 12.858 20.0029 13.136C20.4805 13.414 20.6427 14.0261 20.3651 14.5031C20.0875 14.9803 19.4756 15.1419 18.9983 14.8639C18.5209 14.5859 18.3588 13.9738 18.6363 13.4966ZM26.9974 13.1354C27.4746 12.858 28.0869 13.0202 28.3648 13.4976C28.6426 13.975 28.481 14.5869 28.004 14.8645C27.5268 15.1418 26.9148 14.9797 26.6368 14.5023C26.3589 14.0247 26.5202 13.4127 26.9974 13.1354ZM22.6527 11.4699C22.9455 11.0017 23.5625 10.8594 24.0306 11.152C24.4992 11.4443 24.6417 12.061 24.3489 12.5291C24.0563 12.9975 23.4394 13.1398 22.9709 12.8472C22.5026 12.5549 22.3602 11.9382 22.6527 11.4699ZM19.6362 10.4968C19.9135 10.0196 20.5257 9.85802 21.0031 10.136C21.4804 10.414 21.6426 11.026 21.3653 11.5032C21.0877 11.9805 20.4757 12.1418 19.9984 11.8638C19.521 11.5861 19.3588 10.9738 19.6362 10.4968ZM25.9974 10.1356C26.4746 9.85797 27.0867 10.0201 27.3647 10.4975C27.6426 10.9749 27.481 11.5869 27.0041 11.8644C26.5268 12.1418 25.9147 11.9798 25.6368 11.5022C25.3588 11.0249 25.5204 10.4129 25.9974 10.1356ZM23.5007 1.99994C24.0135 1.99994 24.5007 2.40968 24.5007 2.99994L24.5015 5.54287C25.6217 5.63898 26.7392 5.89637 27.8518 6.31361C28.369 6.50753 28.631 7.08394 28.437 7.60106C28.2431 8.11818 27.6667 8.38019 27.1496 8.18627C25.9267 7.72769 24.7121 7.49994 23.5007 7.49994C22.2894 7.49994 21.0747 7.72769 19.8518 8.18627C19.3347 8.38019 18.7583 8.11818 18.5644 7.60106C18.3705 7.08394 18.6325 6.50753 19.1496 6.31361C20.2626 5.89625 21.3804 5.63883 22.5009 5.54278L22.5007 2.99994C22.5007 2.44765 22.9484 1.99994 23.5007 1.99994Z" fill="#1A1C1F"/>
</g>
<defs>
<clipPath id="clip0_185_1175">
<rect width="32" height="32" fill="white"/>
</clipPath>
</defs>
</svg>
