<svg width="32" height="32" viewBox="0 0 32 32" fill="none" xmlns="http://www.w3.org/2000/svg">
<g clip-path="url(#clip0_185_1188)">
<path fill-rule="evenodd" clip-rule="evenodd" d="M13.0436 22.9999C14.2632 22.9999 15.3476 23.7796 15.6111 24.9263L16.475 28.7773C16.598 29.3157 16.2611 29.8518 15.7227 29.9748C15.1843 30.0977 14.6481 29.7609 14.5252 29.2225L13.6604 25.3673C13.6217 25.199 13.4217 25.0396 13.1491 25.0062L5.96215 24.9999C5.63517 24.9999 5.3873 25.178 5.34503 25.3618L4.475 29.2225C4.35206 29.7609 3.81591 30.0977 3.27748 29.9748C2.73906 29.8518 2.40224 29.3157 2.52519 28.7773L3.39459 24.9194C3.64414 23.8335 4.70728 23.0051 5.96215 23.0051L13.0436 22.9999ZM9.5001 10.9999C12.2615 10.9999 14.5001 13.2385 14.5001 15.9999C14.5001 18.7613 12.2615 20.9999 9.5001 20.9999C6.73867 20.9999 4.5001 18.7613 4.5001 15.9999C4.5001 13.2385 6.73867 10.9999 9.5001 10.9999ZM9.5001 12.9999C7.84324 12.9999 6.5001 14.343 6.5001 15.9999C6.5001 17.6567 7.84324 18.9999 9.5001 18.9999C11.157 18.9999 12.5001 17.6567 12.5001 15.9999C12.5001 14.343 11.157 12.9999 9.5001 12.9999ZM24.0302 17.1519C24.4985 17.4443 24.6411 18.0611 24.3484 18.5292C24.0556 18.9973 23.4389 19.1398 22.9704 18.8472C22.5019 18.5547 22.3595 17.9381 22.6522 17.47C22.9448 17.0017 23.5617 16.8594 24.0302 17.1519ZM19.0023 16.1359C19.4799 16.4139 19.6421 17.026 19.3645 17.503C19.0869 17.9802 18.475 18.1418 17.9977 17.8638C17.5203 17.5858 17.3581 16.9738 17.6357 16.4965C17.913 16.0195 18.525 15.858 19.0023 16.1359ZM29.0023 16.1359C29.4799 16.4139 29.6421 17.026 29.3645 17.503C29.0869 17.9802 28.475 18.1418 27.9977 17.8638C27.5203 17.5858 27.3581 16.9738 27.6357 16.4965C27.913 16.0195 28.525 15.858 29.0023 16.1359ZM24.0302 14.1519C24.4985 14.4443 24.6411 15.0611 24.3484 15.5292C24.0556 15.9973 23.4389 16.1398 22.9704 15.8472C22.5019 15.5547 22.3595 14.9381 22.6522 14.47C22.9448 14.0017 23.5617 13.8594 24.0302 14.1519ZM20.0023 13.1359C20.4799 13.4139 20.6421 14.026 20.3645 14.503C20.0869 14.9802 19.475 15.1418 18.9977 14.8638C18.5203 14.5858 18.3581 13.9738 18.6357 13.4965C18.913 13.0195 19.525 12.858 20.0023 13.1359ZM28.3642 13.4975C28.6419 13.9749 28.4804 14.5868 28.0034 14.8644C27.5262 15.1418 26.9142 14.9796 26.6362 14.5022C26.3582 14.0246 26.5196 13.4127 26.9968 13.1353C27.474 12.858 28.0862 13.0201 28.3642 13.4975ZM24.03 11.1519C24.4986 11.4443 24.641 12.0609 24.3483 12.5291C24.0557 12.9974 23.4387 13.1397 22.9703 12.8472C22.502 12.5548 22.3595 11.9382 22.6521 11.4698C22.9449 11.0017 23.5618 10.8594 24.03 11.1519ZM21.0024 10.1359C21.4798 10.4139 21.642 11.026 21.3646 11.5032C21.0871 11.9804 20.4751 12.1417 19.9977 11.8638C19.5204 11.586 19.3582 10.9737 19.6356 10.4967C19.9129 10.0195 20.5251 9.85795 21.0024 10.1359ZM27.364 10.4975C27.642 10.9748 27.4804 11.5868 27.0034 11.8644C26.5262 12.1417 25.9141 11.9798 25.6362 11.5022C25.3582 11.0248 25.5198 10.4128 25.9967 10.1355C26.474 9.85791 27.0861 10.0201 27.364 10.4975ZM23.5001 1.99988C24.0129 1.99988 24.5001 2.40962 24.5001 2.99988L24.5009 5.54281C25.6211 5.63892 26.7386 5.89631 27.8512 6.31355C28.3683 6.50747 28.6303 7.08388 28.4364 7.601C28.2425 8.11812 27.6661 8.38013 27.149 8.18621C25.9261 7.72763 24.7114 7.49988 23.5001 7.49988C22.2888 7.49988 21.0741 7.72763 19.8512 8.18621C19.3341 8.38013 18.7577 8.11812 18.5638 7.601C18.3698 7.08388 18.6319 6.50747 19.149 6.31355C20.2619 5.89618 21.3798 5.63877 22.5003 5.54272L22.5001 2.99988C22.5001 2.44759 22.9478 1.99988 23.5001 1.99988Z" fill="#1A1C1F"/>
</g>
<defs>
<clipPath id="clip0_185_1188">
<rect width="32" height="32" fill="white"/>
</clipPath>
</defs>
</svg>
