<svg width="12" height="12" viewBox="0 0 12 12" fill="none" xmlns="http://www.w3.org/2000/svg">
<g clip-path="url(#clip0_232_275)">
<path fill-rule="evenodd" clip-rule="evenodd" d="M6.86508 4.19995C7.35252 4.19995 7.76508 4.53745 7.8213 5.00623L8.25252 7.19995C8.3463 7.74367 7.99008 8.24995 7.46508 8.34367V10.2C7.46508 10.5562 7.1838 10.8 6.8838 10.8C6.5463 10.8 6.2838 10.5375 6.2838 10.2V7.76245C6.2838 7.42495 6.5463 7.16245 6.8838 7.16245H7.0338L6.6963 5.38123H5.32752L4.9713 7.16245H5.10252C5.44008 7.16245 5.70252 7.42495 5.70252 7.76245V10.2C5.70252 10.5375 5.44008 10.8 5.10252 10.8C4.7838 10.8 4.5213 10.5375 4.5213 10.2V8.34367C4.01508 8.24995 3.64008 7.78123 3.75252 7.19995L4.20252 4.98745C4.2588 4.51867 4.6713 4.19995 5.14008 4.19995H6.86508ZM6.00252 3.54367C6.64008 3.54367 7.16508 3.01867 7.16508 2.38123C7.16508 1.72495 6.64008 1.19995 6.00252 1.19995C5.3463 1.19995 4.8213 1.72495 4.8213 2.38123C4.8213 3.01867 5.3463 3.54367 6.00252 3.54367Z" fill="#1A1C1F"/>
</g>
<defs>
<clipPath id="clip0_232_275">
<rect width="12" height="12" fill="white"/>
</clipPath>
</defs>
</svg>
