<svg width="24" height="24" viewBox="0 0 24 24" fill="none" xmlns="http://www.w3.org/2000/svg">
<g clip-path="url(#clip0_185_1257)">
<path fill-rule="evenodd" clip-rule="evenodd" d="M8.22999 7.74939C9.07379 7.74939 9.79249 8.34319 9.91749 9.18689L10.6675 13.9682C10.8238 15.0306 10.105 15.9682 8.88629 15.9682V21.0319C8.88629 21.5632 8.44879 22.0006 7.91749 22.0006C7.38629 22.0006 6.94879 21.5632 6.94879 21.0319V14.9682C6.94879 14.4369 7.38629 13.9994 7.91749 13.9994H8.69879L8.01129 9.68689H4.88629L4.22999 13.9994H5.04249C5.57379 13.9994 6.01129 14.4369 6.01129 14.9682V21.0319C6.01129 21.5632 5.54249 22.0006 5.01129 22.0006C4.51129 22.0006 4.04249 21.5632 4.04249 21.0319V15.9682C2.88629 15.9682 2.07379 15.0932 2.22999 13.9682L3.01129 9.18689C3.13629 8.34319 3.85499 7.74939 4.69879 7.74939H8.22999ZM20.0824 7.74939C21.1136 7.74939 21.9261 8.65569 21.7699 9.65569L21.0199 14.9994C20.9261 15.5932 20.5511 16.0932 19.9574 16.312V21.0307C19.9574 21.562 19.5199 21.9994 18.9886 21.9994C18.4574 21.9994 18.0199 21.562 18.0199 21.0307V15.437C18.0199 14.9057 18.3636 14.4682 19.1449 14.4682L19.8011 9.68699H15.2074L15.8949 14.4682C16.6449 14.4682 17.0511 14.8744 17.0511 15.437V21.0307C17.0511 21.562 16.6136 21.9994 16.0824 21.9994C15.5511 21.9994 15.1136 21.562 15.1136 21.0307V16.312C14.5511 16.0932 14.1136 15.5932 14.0199 15.0307L13.2386 9.71819C13.0511 8.68699 13.8324 7.74939 14.8949 7.74939H20.0824ZM6.44963 1.99939C7.69232 1.99939 8.69973 3.00669 8.69973 4.2494C8.69973 5.49211 7.69232 6.49939 6.44963 6.49939C5.20713 6.49939 4.19973 5.49211 4.19973 4.2494C4.19973 3.00669 5.20713 1.99939 6.44963 1.99939ZM17.4999 1.99939C18.7426 1.99939 19.75 3.00669 19.75 4.2494C19.75 5.49211 18.7426 6.49939 17.4999 6.49939C16.2574 6.49939 15.25 5.49211 15.25 4.2494C15.25 3.00669 16.2574 1.99939 17.4999 1.99939Z" fill="#1A1C1F"/>
</g>
<defs>
<clipPath id="clip0_185_1257">
<rect width="24" height="24" fill="white"/>
</clipPath>
</defs>
</svg>
