<svg width="24" height="24" viewBox="0 0 24 24" fill="none" xmlns="http://www.w3.org/2000/svg">
<g clip-path="url(#clip0_185_1270)">
<path fill-rule="evenodd" clip-rule="evenodd" d="M7.73863 9.7188C7.55113 8.6876 8.33243 7.75 9.39493 7.75H14.5824C15.6136 7.75 16.4261 8.6563 16.2699 9.6563L15.5199 15C15.4261 15.5938 15.0511 16.0938 14.4574 16.3126V21.0313C14.4574 21.5626 14.0199 22 13.4886 22C12.9574 22 12.5199 21.5626 12.5199 21.0313V15.4376C12.5199 14.9063 12.8636 14.4688 13.6449 14.4688L14.3011 9.6876H9.70743L10.3949 14.4688C11.1449 14.4688 11.5511 14.875 11.5511 15.4376V21.0313C11.5511 21.5626 11.1136 22 10.5824 22C10.0511 22 9.61363 21.5626 9.61363 21.0313V16.3126C9.05113 16.0938 8.61363 15.5938 8.51993 15.0313L7.73863 9.7188ZM9.74999 4.25001C9.74999 5.49272 10.7574 6.5 11.9999 6.5C13.2426 6.5 14.25 5.49272 14.25 4.25001C14.25 3.0073 13.2426 2 11.9999 2C10.7574 2 9.74999 3.0073 9.74999 4.25001Z" fill="#1A1C1F"/>
</g>
<defs>
<clipPath id="clip0_185_1270">
<rect width="24" height="24" fill="white"/>
</clipPath>
</defs>
</svg>
