<svg width="14" height="14" viewBox="0 0 14 14" fill="none" xmlns="http://www.w3.org/2000/svg">
<g clip-path="url(#clip0_185_1276)">
<path fill-rule="evenodd" clip-rule="evenodd" d="M8.54342 4.90002C9.19974 4.90002 9.76842 5.44686 9.63724 6.19068L9.04658 9.20936C9.02474 9.38436 8.89342 9.55936 8.71842 9.66877V11.9C8.71842 12.2938 8.41224 12.6 8.04033 12.6C7.64658 12.6 7.34033 12.2938 7.34033 11.9V9.05627C7.34033 8.77186 7.51533 8.50936 7.79974 8.42186L8.21533 6.27818H5.78724L6.22474 8.42186C6.50908 8.50936 6.68408 8.77186 6.68408 9.05627V11.9C6.68408 12.2938 6.37783 12.6 5.98408 12.6C5.61224 12.6 5.30592 12.2938 5.30592 11.9V9.66877C5.13092 9.55936 4.99974 9.38436 4.97783 9.20936L4.36533 6.21252C4.23408 5.60002 4.71533 4.90002 5.48092 4.90002H8.54342ZM7.011 4.13436C7.75468 4.13436 8.36718 3.52186 8.36718 2.77818C8.36718 2.01252 7.75468 1.40002 7.011 1.40002C6.24534 1.40002 5.63284 2.01252 5.63284 2.77818C5.63284 3.52186 6.24534 4.13436 7.011 4.13436Z" fill="#1A1C1F"/>
</g>
<defs>
<clipPath id="clip0_185_1276">
<rect width="14" height="14" fill="white"/>
</clipPath>
</defs>
</svg>
