<svg width="28" height="28" viewBox="0 0 28 28" fill="none" xmlns="http://www.w3.org/2000/svg">
<g clip-path="url(#clip0_185_1281)">
<path fill-rule="evenodd" clip-rule="evenodd" d="M9.04945 17.1713L10.4438 9.70763C10.6014 8.91348 11.3186 8.31332 12.1114 8.31332H15.8843C16.7045 8.31332 17.3938 8.91357 17.5519 9.70763L18.9462 17.1439C19.1676 18.255 18.3448 19.2218 17.2513 19.2218H16.5677V25.4004C16.5677 25.8651 16.185 26.2479 15.7202 26.2479C15.2555 26.2479 14.8454 25.8651 14.8454 25.4004V18.3469C14.8454 17.8821 15.2555 17.4993 15.7202 17.4993H17.2513L15.8843 10.0357H12.1114L10.7445 17.4993H12.2755C12.7676 17.4993 13.1503 17.8821 13.1503 18.3469V25.4004C13.1503 25.8651 12.7676 26.2479 12.2755 26.2479C11.8107 26.2479 11.428 25.8651 11.428 25.4004V19.2218H10.7445C9.65093 19.2218 8.84479 18.2029 9.04945 17.1713ZM13.9978 1.75195C15.4468 1.75195 16.6224 2.94886 16.6224 4.39058C16.6224 5.8323 15.4468 7.00195 13.9978 7.00195C12.5489 7.00195 11.3733 5.8323 11.3733 4.39058C11.3733 2.94886 12.5489 1.75195 13.9978 1.75195ZM13.9978 3.52908C13.5057 3.52908 13.123 3.9118 13.123 4.4039C13.123 4.896 13.5057 5.27873 13.9978 5.27873C14.4899 5.27873 14.8728 4.896 14.8728 4.4039C14.8728 3.9118 14.4899 3.52908 13.9978 3.52908Z" fill="#1A1C1F"/>
</g>
<defs>
<clipPath id="clip0_185_1281">
<rect width="28" height="28" fill="white"/>
</clipPath>
</defs>
</svg>
