<svg width="12" height="12" viewBox="0 0 12 12" fill="none" xmlns="http://www.w3.org/2000/svg">
<g clip-path="url(#clip0_232_273)">
<path fill-rule="evenodd" clip-rule="evenodd" d="M7.32293 4.20001C7.88549 4.20001 8.37293 4.66873 8.26049 5.30629L7.75421 7.89373C7.73549 8.04373 7.62293 8.19373 7.47293 8.28751V10.2C7.47293 10.5375 7.21049 10.8 6.89171 10.8C6.55421 10.8 6.29171 10.5375 6.29171 10.2V7.76251C6.29171 7.51873 6.44171 7.29373 6.68549 7.21873L7.04171 5.38129H4.96049L5.33549 7.21873C5.57921 7.29373 5.72921 7.51873 5.72921 7.76251V10.2C5.72921 10.5375 5.46671 10.8 5.12921 10.8C4.81049 10.8 4.54793 10.5375 4.54793 10.2V8.28751C4.39793 8.19373 4.28549 8.04373 4.26671 7.89373L3.74171 5.32501C3.62921 4.80001 4.04171 4.20001 4.69793 4.20001H7.32293ZM6.00943 3.54373C6.64687 3.54373 7.17187 3.01873 7.17187 2.38129C7.17187 1.72501 6.64687 1.20001 6.00943 1.20001C5.35315 1.20001 4.82815 1.72501 4.82815 2.38129C4.82815 3.01873 5.35315 3.54373 6.00943 3.54373Z" fill="#1A1C1F"/>
</g>
<defs>
<clipPath id="clip0_232_273">
<rect width="12" height="12" fill="white"/>
</clipPath>
</defs>
</svg>
