<svg width="14" height="14" viewBox="0 0 14 14" fill="none" xmlns="http://www.w3.org/2000/svg">
<g clip-path="url(#clip0_185_1263)">
<path fill-rule="evenodd" clip-rule="evenodd" d="M11.5046 4.90002C12.1609 4.90002 12.7296 5.44686 12.5984 6.19068L12.0077 9.20936C11.9859 9.38436 11.8546 9.55936 11.6796 9.66877V11.9C11.6796 12.2938 11.3734 12.6 11.0015 12.6C10.6077 12.6 10.3015 12.2938 10.3015 11.9V9.05627C10.3015 8.77186 10.4765 8.50936 10.7609 8.42186L11.1765 6.27818H8.74839L9.18589 8.42186C9.47023 8.50936 9.64523 8.77186 9.64523 9.05627V11.9C9.64523 12.2938 9.33898 12.6 8.94523 12.6C8.57339 12.6 8.26707 12.2938 8.26707 11.9V9.66877C8.09207 9.55936 7.96089 9.38436 7.93898 9.20936L7.32648 6.21252C7.19523 5.60002 7.67648 4.90002 8.44207 4.90002H11.5046ZM9.97215 4.13436C10.7158 4.13436 11.3283 3.52186 11.3283 2.77818C11.3283 2.01252 10.7158 1.40002 9.97215 1.40002C9.20649 1.40002 8.59399 2.01252 8.59399 2.77818C8.59399 3.52186 9.20649 4.13436 9.97215 4.13436ZM5.03739 4.90002C5.60607 4.90002 6.08739 5.29377 6.15298 5.84068L6.65607 8.40002C6.76548 9.03436 6.34989 9.62502 5.73739 9.73436V11.9C5.73739 12.3157 5.40923 12.6 5.05923 12.6C4.66548 12.6 4.35923 12.2938 4.35923 11.9V9.05627C4.35923 8.66252 4.66548 8.35627 5.05923 8.35627H5.23423L4.84048 6.27818H3.24357L2.82798 8.35627H2.98107C3.37489 8.35627 3.68107 8.66252 3.68107 9.05627V11.9C3.68107 12.2938 3.37489 12.6 2.98107 12.6C2.60923 12.6 2.30298 12.2938 2.30298 11.9V9.73436C1.71239 9.62502 1.27489 9.07818 1.40607 8.40002L1.93107 5.81877C1.99673 5.27186 2.47798 4.90002 3.02489 4.90002H5.03739ZM4.03107 4.13436C4.77489 4.13436 5.38739 3.52186 5.38739 2.77818C5.38739 2.01252 4.77489 1.40002 4.03107 1.40002C3.26548 1.40002 2.65298 2.01252 2.65298 2.77818C2.65298 3.52186 3.26548 4.13436 4.03107 4.13436Z" fill="#1A1C1F"/>
</g>
<defs>
<clipPath id="clip0_185_1263">
<rect width="14" height="14" fill="white"/>
</clipPath>
</defs>
</svg>
