<svg width="14" height="14" viewBox="0 0 14 14" fill="none" xmlns="http://www.w3.org/2000/svg">
<g clip-path="url(#clip0_185_1289)">
<path fill-rule="evenodd" clip-rule="evenodd" d="M8.00925 4.90002C8.57793 4.90002 9.05925 5.29377 9.12484 5.84068L9.62793 8.40002C9.73734 9.03436 9.32175 9.62502 8.70925 9.73436V11.9C8.70925 12.3157 8.38109 12.6 8.03109 12.6C7.63734 12.6 7.33109 12.2938 7.33109 11.9V9.05627C7.33109 8.66252 7.63734 8.35627 8.03109 8.35627H8.20609L7.81234 6.27818H6.21543L5.79984 8.35627H5.95293C6.34675 8.35627 6.65293 8.66252 6.65293 9.05627V11.9C6.65293 12.2938 6.34675 12.6 5.95293 12.6C5.58109 12.6 5.27484 12.2938 5.27484 11.9V9.73436C4.68425 9.62502 4.24675 9.07818 4.37793 8.40002L4.90293 5.81877C4.96859 5.27186 5.44984 4.90002 5.99675 4.90002H8.00925ZM7.00293 4.13436C7.74675 4.13436 8.35925 3.52186 8.35925 2.77818C8.35925 2.01252 7.74675 1.40002 7.00293 1.40002C6.23734 1.40002 5.62484 2.01252 5.62484 2.77818C5.62484 3.52186 6.23734 4.13436 7.00293 4.13436Z" fill="#1A1C1F"/>
</g>
<defs>
<clipPath id="clip0_185_1289">
<rect width="14" height="14" fill="white"/>
</clipPath>
</defs>
</svg>
