<svg width="32" height="32" viewBox="0 0 32 32" fill="none" xmlns="http://www.w3.org/2000/svg">
<g clip-path="url(#clip0_185_1279)">
<path fill-rule="evenodd" clip-rule="evenodd" d="M10.3422 19.6244L11.9357 11.0945C12.1158 10.1869 12.9355 9.50102 13.8416 9.50102H18.1534C19.0908 9.50102 19.8786 10.187 20.0593 11.0945L21.6528 19.5931C21.9058 20.8629 20.9654 21.9678 19.7157 21.9678H18.9345V29.0291C18.9345 29.5602 18.4971 29.9977 17.9659 29.9977C17.4348 29.9977 16.9661 29.5602 16.9661 29.0291V20.9679C16.9661 20.4368 17.4348 19.9993 17.9659 19.9993H19.7157L18.1534 11.4694H13.8416L12.2794 19.9993H14.0291C14.5915 19.9993 15.0289 20.4368 15.0289 20.9679V29.0291C15.0289 29.5602 14.5915 29.9977 14.0291 29.9977C13.4979 29.9977 13.0605 29.5602 13.0605 29.0291V21.9678H12.2794C11.0296 21.9678 10.1083 20.8034 10.3422 19.6244ZM15.9975 2.00232C17.6535 2.00232 18.997 3.37021 18.997 5.01789C18.997 6.66557 17.6535 8.00232 15.9975 8.00232C14.3416 8.00232 12.998 6.66557 12.998 5.01789C12.998 3.37021 14.3416 2.00232 15.9975 2.00232ZM15.9975 4.03332C15.4351 4.03332 14.9977 4.47072 14.9977 5.03312C14.9977 5.59552 15.4351 6.03292 15.9975 6.03292C16.5599 6.03292 16.9974 5.59552 16.9974 5.03312C16.9974 4.47072 16.5599 4.03332 15.9975 4.03332Z" fill="#1A1C1F"/>
</g>
<defs>
<clipPath id="clip0_185_1279">
<rect width="32" height="32" fill="white"/>
</clipPath>
</defs>
</svg>
