<svg width="32" height="32" viewBox="0 0 32 32" fill="none" xmlns="http://www.w3.org/2000/svg">
<g clip-path="url(#clip0_185_1253)">
<path fill-rule="evenodd" clip-rule="evenodd" d="M2.94701 19.6244L4.54051 11.0945C4.72061 10.1869 5.54031 9.50102 6.44641 9.50102H10.7582C11.6956 9.50102 12.4834 10.187 12.6641 11.0945L14.2576 19.5931C14.5106 20.8629 13.5702 21.9678 12.3205 21.9678H11.5393V29.0291C11.5393 29.5602 11.1019 29.9977 10.5707 29.9977C10.0396 29.9977 9.57091 29.5602 9.57091 29.0291V20.9679C9.57091 20.4368 10.0396 19.9993 10.5707 19.9993H12.3205L10.7582 11.4694H6.44641L4.88421 19.9993H6.63391C7.19631 19.9993 7.63371 20.4368 7.63371 20.9679V29.0291C7.63371 29.5602 7.19631 29.9977 6.63391 29.9977C6.10271 29.9977 5.66531 29.5602 5.66531 29.0291V21.9678H4.88421C3.63441 21.9678 2.71311 20.8034 2.94701 19.6244ZM8.60231 2.00232C10.2583 2.00232 11.6018 3.37021 11.6018 5.01789C11.6018 6.66557 10.2583 8.00232 8.60231 8.00232C6.94641 8.00232 5.60281 6.66557 5.60281 5.01789C5.60281 3.37021 6.94641 2.00232 8.60231 2.00232ZM8.60231 4.03332C8.03991 4.03332 7.60251 4.47072 7.60251 5.03312C7.60251 5.59552 8.03991 6.03292 8.60231 6.03292C9.16471 6.03292 9.60221 5.59552 9.60221 5.03312C9.60221 4.47072 9.16471 4.03332 8.60231 4.03332ZM17.6322 11.7819C17.4564 10.5973 18.3821 9.50102 19.6006 9.50102H27.1306C28.3179 9.50102 29.2443 10.5929 29.0678 11.7819L27.8805 20.2805C27.7598 21.0935 27.1306 21.749 26.3183 21.9365V29.0291C26.3183 29.5602 25.8808 29.9977 25.3184 29.9977C24.7873 29.9977 24.3499 29.5602 24.3499 29.0291V20.9679C24.3499 20.4368 24.7873 19.9993 25.3184 19.9993H25.9121L27.1306 11.4694H19.6006L20.7567 19.9993H21.3816C21.944 19.9993 22.3814 20.4368 22.3814 20.9679V29.0291C22.3814 29.5602 21.944 29.9977 21.3816 29.9977C20.8504 29.9977 20.413 29.5602 20.413 29.0291V21.9678H19.9131C19.4444 21.9678 19.0137 21.5919 18.9445 21.1241L17.6322 11.7819ZM23.1786 2.00232C24.7952 2.00232 26.1631 3.37021 26.1631 5.01789C26.1631 6.66557 24.7952 8.00232 23.1786 8.00232C21.4999 8.00232 20.1631 6.66537 20.1631 5.01789C20.1631 3.37021 21.4999 2.00232 23.1786 2.00232ZM23.1938 4.03332C22.6314 4.03332 22.194 4.47072 22.194 5.03312C22.194 5.59552 22.6314 6.03292 23.1938 6.03292C23.725 6.03292 24.1936 5.59552 24.1936 5.03312C24.1936 4.47072 23.725 4.03332 23.1938 4.03332Z" fill="#1A1C1F"/>
</g>
<defs>
<clipPath id="clip0_185_1253">
<rect width="32" height="32" fill="white"/>
</clipPath>
</defs>
</svg>
