<svg width="28" height="28" viewBox="0 0 28 28" fill="none" xmlns="http://www.w3.org/2000/svg">
<g clip-path="url(#clip0_185_1268)">
<path fill-rule="evenodd" clip-rule="evenodd" d="M8.99688 10.3092C8.84305 9.27264 9.65304 8.31338 10.7192 8.31338H17.308C18.3469 8.31338 19.1575 9.26879 19.003 10.3092L17.9641 17.7454C17.8585 18.4568 17.308 19.0304 16.5972 19.1944V25.4005C16.5972 25.8652 16.2144 26.248 15.7223 26.248C15.2576 26.248 14.8749 25.8652 14.8749 25.4005V18.3469C14.8749 17.8822 15.2576 17.4994 15.7223 17.4994H16.2418L17.308 10.0357H10.7192L11.7308 17.4994H12.2776C12.7697 17.4994 13.1524 17.8822 13.1524 18.3469V25.4005C13.1524 25.8652 12.7697 26.248 12.2776 26.248C11.8128 26.248 11.4301 25.8652 11.4301 25.4005V19.2218H10.9927C10.5826 19.2218 10.2057 18.8929 10.1451 18.4836L8.99688 10.3092ZM13.85 1.75201C15.2645 1.75201 16.4614 2.94892 16.4614 4.39064C16.4614 5.83236 15.2645 7.00201 13.85 7.00201C12.3811 7.00201 11.2114 5.83218 11.2114 4.39064C11.2114 2.94892 12.3811 1.75201 13.85 1.75201ZM13.8633 3.52914C13.3712 3.52914 12.9885 3.91186 12.9885 4.40396C12.9885 4.89606 13.3712 5.27879 13.8633 5.27879C14.3281 5.27879 14.7381 4.89606 14.7381 4.40396C14.7381 3.91186 14.3281 3.52914 13.8633 3.52914Z" fill="#1A1C1F"/>
</g>
<defs>
<clipPath id="clip0_185_1268">
<rect width="28" height="28" fill="white"/>
</clipPath>
</defs>
</svg>
