<svg width="16" height="16" viewBox="0 0 16 16" fill="none" xmlns="http://www.w3.org/2000/svg">
<g clip-path="url(#clip0_185_1287)">
<path fill-rule="evenodd" clip-rule="evenodd" d="M9.15342 5.59998C9.80334 5.59998 10.3534 6.04998 10.4284 6.67502L11.0033 9.59998C11.1284 10.3249 10.6534 11 9.95342 11.1249V13.6C9.95342 14.075 9.57838 14.4 9.17838 14.4C8.72838 14.4 8.37838 14.05 8.37838 13.6V10.35C8.37838 9.89998 8.72838 9.54998 9.17838 9.54998H9.37838L8.92838 7.17502H7.10334L6.62838 9.54998H6.80334C7.25342 9.54998 7.60334 9.89998 7.60334 10.35V13.6C7.60334 14.05 7.25342 14.4 6.80334 14.4C6.37838 14.4 6.02838 14.05 6.02838 13.6V11.1249C5.35342 11 4.85342 10.375 5.00334 9.59998L5.60334 6.64998C5.67838 6.02494 6.22838 5.59998 6.85342 5.59998H9.15342ZM8.00334 4.72494C8.85342 4.72494 9.55342 4.02494 9.55342 3.17502C9.55342 2.29998 8.85342 1.59998 8.00334 1.59998C7.12838 1.59998 6.42838 2.29998 6.42838 3.17502C6.42838 4.02494 7.12838 4.72494 8.00334 4.72494Z" fill="#1A1C1F"/>
</g>
<defs>
<clipPath id="clip0_185_1287">
<rect width="16" height="16" fill="white"/>
</clipPath>
</defs>
</svg>
