<svg width="20" height="20" viewBox="0 0 20 20" fill="none" xmlns="http://www.w3.org/2000/svg">
<g clip-path="url(#clip0_185_1259)">
<path fill-rule="evenodd" clip-rule="evenodd" d="M16.435 7C17.3726 7 18.185 7.7812 17.9976 8.8438L17.1538 13.1562C17.1226 13.4062 16.935 13.6562 16.685 13.8125V17C16.685 17.5625 16.2476 18 15.7163 18C15.1538 18 14.7163 17.5625 14.7163 17V12.9375C14.7163 12.5312 14.9663 12.1562 15.3726 12.0312L15.9663 8.9688H12.4976L13.1226 12.0312C13.5288 12.1562 13.7788 12.5312 13.7788 12.9375V17C13.7788 17.5625 13.3413 18 12.7788 18C12.2476 18 11.81 17.5625 11.81 17V13.8125C11.56 13.6562 11.3726 13.4062 11.3413 13.1562L10.4663 8.875C10.2788 8 10.9663 7 12.06 7H16.435ZM14.2459 5.9062C15.3083 5.9062 16.1833 5.0312 16.1833 3.9688C16.1833 2.875 15.3083 2 14.2459 2C13.1521 2 12.2771 2.875 12.2771 3.9688C12.2771 5.0312 13.1521 5.9062 14.2459 5.9062ZM7.19622 7C8.00862 7 8.69622 7.5625 8.78992 8.3438L9.50861 12C9.66491 12.9062 9.07121 13.75 8.19621 13.9062V17C8.19621 17.5938 7.72742 18 7.22742 18C6.66492 18 6.22742 17.5625 6.22742 17V12.9375C6.22742 12.375 6.66492 11.9375 7.22742 11.9375H7.47742L6.91492 8.9688H4.63362L4.03992 11.9375H4.25862C4.82122 11.9375 5.25862 12.375 5.25862 12.9375V17C5.25862 17.5625 4.82122 18 4.25862 18C3.72742 18 3.28991 17.5625 3.28991 17V13.9062C2.44621 13.75 1.82121 12.9688 2.00861 12L2.75861 8.3125C2.85241 7.5312 3.53992 7 4.32122 7H7.19622ZM5.75862 5.9062C6.82122 5.9062 7.69622 5.0312 7.69622 3.9688C7.69622 2.875 6.82122 2 5.75862 2C4.66492 2 3.78991 2.875 3.78991 3.9688C3.78991 5.0312 4.66492 5.9062 5.75862 5.9062Z" fill="#1A1C1F"/>
</g>
<defs>
<clipPath id="clip0_185_1259">
<rect width="20" height="20" fill="white"/>
</clipPath>
</defs>
</svg>
