<svg width="20" height="20" viewBox="0 0 20 20" fill="none" xmlns="http://www.w3.org/2000/svg">
<g clip-path="url(#clip0_185_1272)">
<path fill-rule="evenodd" clip-rule="evenodd" d="M12.2049 7C13.1425 7 13.9549 7.7812 13.7675 8.8438L12.9237 13.1562C12.8925 13.4062 12.7049 13.6562 12.4549 13.8125V17C12.4549 17.5625 12.0175 18 11.4862 18C10.9237 18 10.4862 17.5625 10.4862 17V12.9375C10.4862 12.5312 10.7362 12.1562 11.1425 12.0312L11.7362 8.9688H8.26748L8.89248 12.0312C9.29868 12.1562 9.54868 12.5312 9.54868 12.9375V17C9.54868 17.5625 9.11118 18 8.54868 18C8.01748 18 7.57988 17.5625 7.57988 17V13.8125C7.32988 13.6562 7.14248 13.4062 7.11118 13.1562L6.23618 8.875C6.04868 8 6.73618 7 7.82988 7H12.2049ZM10.0157 5.9062C11.0781 5.9062 11.9531 5.0312 11.9531 3.9688C11.9531 2.875 11.0781 2 10.0157 2C8.92192 2 8.04692 2.875 8.04692 3.9688C8.04692 5.0312 8.92192 5.9062 10.0157 5.9062Z" fill="#1A1C1F"/>
</g>
<defs>
<clipPath id="clip0_185_1272">
<rect width="20" height="20" fill="white"/>
</clipPath>
</defs>
</svg>
