<svg width="28" height="28" viewBox="0 0 28 28" fill="none" xmlns="http://www.w3.org/2000/svg">
<g clip-path="url(#clip0_185_1255)">
<path fill-rule="evenodd" clip-rule="evenodd" d="M2.57863 17.1713L3.97294 9.70763C4.13053 8.91348 4.84776 8.31332 5.6406 8.31332H9.41343C10.2337 8.31332 10.923 8.91357 11.0811 9.70763L12.4754 17.1439C12.6968 18.255 11.8739 19.2218 10.7804 19.2218H10.0969V25.4004C10.0969 25.8651 9.71416 26.2479 9.24936 26.2479C8.78465 26.2479 8.37454 25.8651 8.37454 25.4004V18.3469C8.37454 17.8821 8.78465 17.4993 9.24936 17.4993H10.7804L9.41343 10.0357H5.6406L4.27368 17.4993H5.80466C6.29676 17.4993 6.67949 17.8821 6.67949 18.3469V25.4004C6.67949 25.8651 6.29676 26.2479 5.80466 26.2479C5.33986 26.2479 4.95714 25.8651 4.95714 25.4004V19.2218H4.27368C3.1801 19.2218 2.37396 18.2029 2.57863 17.1713ZM7.52701 1.75195C8.97601 1.75195 10.1516 2.94886 10.1516 4.39058C10.1516 5.8323 8.97601 7.00195 7.52701 7.00195C6.0781 7.00195 4.90245 5.8323 4.90245 4.39058C4.90245 2.94886 6.0781 1.75195 7.52701 1.75195ZM7.52701 3.52908C7.03491 3.52908 6.65219 3.9118 6.65219 4.4039C6.65219 4.896 7.03491 5.27873 7.52701 5.27873C8.01911 5.27873 8.40193 4.896 8.40193 4.4039C8.40193 3.9118 8.01911 3.52908 7.52701 3.52908ZM15.4282 10.3091C15.2744 9.27258 16.0843 8.31332 17.1505 8.31332H23.7393C24.7782 8.31332 25.5888 9.26873 25.4343 10.3091L24.3954 17.7454C24.2898 18.4568 23.7393 19.0303 23.0285 19.1944V25.4004C23.0285 25.8651 22.6457 26.2479 22.1536 26.2479C21.6889 26.2479 21.3062 25.8651 21.3062 25.4004V18.3469C21.3062 17.8821 21.6889 17.4993 22.1536 17.4993H22.6731L23.7393 10.0357H17.1505L18.1621 17.4993H18.7089C19.201 17.4993 19.5837 17.8821 19.5837 18.3469V25.4004C19.5837 25.8651 19.201 26.2479 18.7089 26.2479C18.2441 26.2479 17.8614 25.8651 17.8614 25.4004V19.2218H17.424C17.0139 19.2218 16.637 18.8929 16.5764 18.4835L15.4282 10.3091ZM20.2813 1.75195C21.6958 1.75195 22.8927 2.94886 22.8927 4.39058C22.8927 5.8323 21.6958 7.00195 20.2813 7.00195C18.8124 7.00195 17.6427 5.83212 17.6427 4.39058C17.6427 2.94886 18.8124 1.75195 20.2813 1.75195ZM20.2946 3.52908C19.8025 3.52908 19.4198 3.9118 19.4198 4.4039C19.4198 4.896 19.8025 5.27873 20.2946 5.27873C20.7594 5.27873 21.1694 4.896 21.1694 4.4039C21.1694 3.9118 20.7594 3.52908 20.2946 3.52908Z" fill="#1A1C1F"/>
</g>
<defs>
<clipPath id="clip0_185_1255">
<rect width="28" height="28" fill="white"/>
</clipPath>
</defs>
</svg>
