<svg width="32" height="32" viewBox="0 0 32 32" fill="none" xmlns="http://www.w3.org/2000/svg">
<g clip-path="url(#clip0_185_1266)">
<path fill-rule="evenodd" clip-rule="evenodd" d="M10.2821 11.7819C10.1063 10.5973 11.032 9.50102 12.2505 9.50102H19.7805C20.9678 9.50102 21.8942 10.5929 21.7177 11.7819L20.5304 20.2805C20.4097 21.0935 19.7805 21.749 18.9682 21.9365V29.0291C18.9682 29.5602 18.5307 29.9977 17.9683 29.9977C17.4372 29.9977 16.9998 29.5602 16.9998 29.0291V20.9679C16.9998 20.4368 17.4372 19.9993 17.9683 19.9993H18.562L19.7805 11.4694H12.2505L13.4066 19.9993H14.0315C14.5939 19.9993 15.0313 20.4368 15.0313 20.9679V29.0291C15.0313 29.5602 14.5939 29.9977 14.0315 29.9977C13.5003 29.9977 13.0629 29.5602 13.0629 29.0291V21.9678H12.563C12.0943 21.9678 11.6636 21.5919 11.5944 21.1241L10.2821 11.7819ZM15.8285 2.00232C17.4451 2.00232 18.813 3.37021 18.813 5.01789C18.813 6.66557 17.4451 8.00232 15.8285 8.00232C14.1498 8.00232 12.813 6.66537 12.813 5.01789C12.813 3.37021 14.1498 2.00232 15.8285 2.00232ZM15.8437 4.03332C15.2813 4.03332 14.8439 4.47072 14.8439 5.03312C14.8439 5.59552 15.2813 6.03292 15.8437 6.03292C16.3749 6.03292 16.8435 5.59552 16.8435 5.03312C16.8435 4.47072 16.3749 4.03332 15.8437 4.03332Z" fill="#1A1C1F"/>
</g>
<defs>
<clipPath id="clip0_185_1266">
<rect width="32" height="32" fill="white"/>
</clipPath>
</defs>
</svg>
