<svg width="24" height="24" viewBox="0 0 24 24" fill="none" xmlns="http://www.w3.org/2000/svg">
<g clip-path="url(#clip0_185_1283)">
<path fill-rule="evenodd" clip-rule="evenodd" d="M7.78028 13.9682L8.56158 9.18689C8.68658 8.34319 9.40528 7.74939 10.2491 7.74939H13.7803C14.6241 7.74939 15.3428 8.34319 15.4678 9.18689L16.2178 13.9682C16.3741 15.0306 15.6553 15.9682 14.4366 15.9682V21.0319C14.4366 21.5632 13.9991 22.0006 13.4678 22.0006C12.9366 22.0006 12.4991 21.5632 12.4991 21.0319V14.9682C12.4991 14.4369 12.9366 13.9994 13.4678 13.9994H14.2491L13.5616 9.68689H10.4366L9.78028 13.9994H10.5928C11.1241 13.9994 11.5616 14.4369 11.5616 14.9682V21.0319C11.5616 21.5632 11.0928 22.0006 10.5616 22.0006C10.0616 22.0006 9.59278 21.5632 9.59278 21.0319V15.9682C8.43658 15.9682 7.62408 15.0932 7.78028 13.9682ZM9.75002 4.2494C9.75002 5.49211 10.7574 6.49939 11.9999 6.49939C13.2426 6.49939 14.25 5.49211 14.25 4.2494C14.25 3.00669 13.2426 1.99939 11.9999 1.99939C10.7574 1.99939 9.75002 3.00669 9.75002 4.2494Z" fill="#1A1C1F"/>
</g>
<defs>
<clipPath id="clip0_185_1283">
<rect width="24" height="24" fill="white"/>
</clipPath>
</defs>
</svg>
