<svg width="16" height="16" viewBox="0 0 16 16" fill="none" xmlns="http://www.w3.org/2000/svg">
<g clip-path="url(#clip0_185_1261)">
<path fill-rule="evenodd" clip-rule="evenodd" d="M13.1481 5.59998C13.8981 5.59998 14.5481 6.22494 14.3981 7.07502L13.7231 10.5249C13.6981 10.7249 13.5481 10.9249 13.3481 11.05V13.6C13.3481 14.05 12.9981 14.4 12.5731 14.4C12.1231 14.4 11.7731 14.05 11.7731 13.6V10.35C11.7731 10.0249 11.9731 9.72494 12.2981 9.62494L12.7731 7.17502H9.99814L10.4981 9.62494C10.8231 9.72494 11.0231 10.0249 11.0231 10.35V13.6C11.0231 14.05 10.6731 14.4 10.2231 14.4C9.79814 14.4 9.44806 14.05 9.44806 13.6V11.05C9.24806 10.9249 9.09814 10.7249 9.0731 10.5249L8.3731 7.09998C8.2231 6.39998 8.7731 5.59998 9.64806 5.59998H13.1481ZM11.3967 4.72494C12.2467 4.72494 12.9467 4.02494 12.9467 3.17502C12.9467 2.29998 12.2467 1.59998 11.3967 1.59998C10.5217 1.59998 9.82169 2.29998 9.82169 3.17502C9.82169 4.02494 10.5217 4.72494 11.3967 4.72494ZM5.757 5.59998C6.40692 5.59998 6.957 6.04998 7.03196 6.67502L7.60692 9.59998C7.73196 10.3249 7.257 11 6.557 11.1249V13.6C6.557 14.075 6.18196 14.4 5.78196 14.4C5.33196 14.4 4.98196 14.05 4.98196 13.6V10.35C4.98196 9.89998 5.33196 9.54998 5.78196 9.54998H5.98196L5.53196 7.17502H3.70692L3.23196 9.54998H3.40692C3.857 9.54998 4.20692 9.89998 4.20692 10.35V13.6C4.20692 14.05 3.857 14.4 3.40692 14.4C2.98196 14.4 2.63196 14.05 2.63196 13.6V11.1249C1.957 11 1.457 10.375 1.60692 9.59998L2.20692 6.64998C2.28196 6.02494 2.83196 5.59998 3.457 5.59998H5.757ZM4.60692 4.72494C5.457 4.72494 6.157 4.02494 6.157 3.17502C6.157 2.29998 5.457 1.59998 4.60692 1.59998C3.73196 1.59998 3.03196 2.29998 3.03196 3.17502C3.03196 4.02494 3.73196 4.72494 4.60692 4.72494Z" fill="#1A1C1F"/>
</g>
<defs>
<clipPath id="clip0_185_1261">
<rect width="16" height="16" fill="white"/>
</clipPath>
</defs>
</svg>
