<svg width="20" height="20" viewBox="0 0 20 20" fill="none" xmlns="http://www.w3.org/2000/svg">
<g clip-path="url(#clip0_185_1285)">
<path fill-rule="evenodd" clip-rule="evenodd" d="M11.4418 7C12.2542 7 12.9418 7.5625 13.0355 8.3438L13.7542 12C13.9105 12.9062 13.3168 13.75 12.4418 13.9062V17C12.4418 17.5938 11.973 18 11.473 18C10.9105 18 10.473 17.5625 10.473 17V12.9375C10.473 12.375 10.9105 11.9375 11.473 11.9375H11.723L11.1605 8.9688H8.87922L8.28552 11.9375H8.50422C9.06682 11.9375 9.50422 12.375 9.50422 12.9375V17C9.50422 17.5625 9.06682 18 8.50422 18C7.97302 18 7.53552 17.5625 7.53552 17V13.9062C6.69182 13.75 6.06682 12.9688 6.25422 12L7.00422 8.3125C7.09802 7.5312 7.78552 7 8.56682 7H11.4418ZM10.0042 5.9062C11.0668 5.9062 11.9418 5.0312 11.9418 3.9688C11.9418 2.875 11.0668 2 10.0042 2C8.91052 2 8.03552 2.875 8.03552 3.9688C8.03552 5.0312 8.91052 5.9062 10.0042 5.9062Z" fill="#1A1C1F"/>
</g>
<defs>
<clipPath id="clip0_185_1285">
<rect width="20" height="20" fill="white"/>
</clipPath>
</defs>
</svg>
