<svg width="16" height="16" viewBox="0 0 16 16" fill="none" xmlns="http://www.w3.org/2000/svg">
<g clip-path="url(#clip0_185_1274)">
<path fill-rule="evenodd" clip-rule="evenodd" d="M9.7639 5.59998C10.514 5.59998 11.1639 6.22494 11.014 7.07502L10.3389 10.5249C10.314 10.7249 10.1639 10.9249 9.96391 11.05V13.6C9.96391 14.05 9.61399 14.4 9.18894 14.4C8.73894 14.4 8.38894 14.05 8.38894 13.6V10.35C8.38894 10.0249 8.58895 9.72494 8.91399 9.62494L9.38894 7.17502H6.61399L7.11399 9.62494C7.43895 9.72494 7.63895 10.0249 7.63895 10.35V13.6C7.63895 14.05 7.28894 14.4 6.83894 14.4C6.41398 14.4 6.0639 14.05 6.0639 13.6V11.05C5.8639 10.9249 5.71398 10.7249 5.68894 10.5249L4.98894 7.09998C4.83894 6.39998 5.38895 5.59998 6.26391 5.59998H9.7639ZM8.01258 4.72494C8.8625 4.72494 9.5625 4.02494 9.5625 3.17502C9.5625 2.29998 8.8625 1.59998 8.01258 1.59998C7.13754 1.59998 6.43754 2.29998 6.43754 3.17502C6.43754 4.02494 7.13754 4.72494 8.01258 4.72494Z" fill="#1A1C1F"/>
</g>
<defs>
<clipPath id="clip0_185_1274">
<rect width="16" height="16" fill="white"/>
</clipPath>
</defs>
</svg>
