<svg width="12" height="12" viewBox="0 0 12 12" fill="none" xmlns="http://www.w3.org/2000/svg">
<g clip-path="url(#clip0_232_271)">
<path fill-rule="evenodd" clip-rule="evenodd" d="M9.86102 4.19995C10.4236 4.19995 10.911 4.66867 10.7986 5.30623L10.2923 7.89367C10.2736 8.04367 10.161 8.19367 10.011 8.28745V10.2C10.011 10.5375 9.74858 10.8 9.4298 10.8C9.0923 10.8 8.82979 10.5375 8.82979 10.2V7.76245C8.82979 7.51867 8.97979 7.29367 9.22357 7.21867L9.57979 5.38123H7.49857L7.87357 7.21867C8.11729 7.29367 8.26729 7.51867 8.26729 7.76245V10.2C8.26729 10.5375 8.0048 10.8 7.66729 10.8C7.34858 10.8 7.08601 10.5375 7.08601 10.2V8.28745C6.93601 8.19367 6.82358 8.04367 6.80479 7.89367L6.27979 5.32495C6.16729 4.79995 6.57979 4.19995 7.23601 4.19995H9.86102ZM8.54752 3.54367C9.18496 3.54367 9.70996 3.01867 9.70996 2.38123C9.70996 1.72495 9.18496 1.19995 8.54752 1.19995C7.89124 1.19995 7.36624 1.72495 7.36624 2.38123C7.36624 3.01867 7.89124 3.54367 8.54752 3.54367ZM4.31772 4.19995C4.80516 4.19995 5.21772 4.53745 5.27394 5.00623L5.70516 7.19995C5.79894 7.74367 5.44272 8.24995 4.91772 8.34367V10.2C4.91772 10.5562 4.63644 10.8 4.33644 10.8C3.99894 10.8 3.73644 10.5375 3.73644 10.2V7.76245C3.73644 7.42495 3.99894 7.16245 4.33644 7.16245H4.48644L4.14894 5.38123H2.78016L2.42394 7.16245H2.55516C2.89272 7.16245 3.15516 7.42495 3.15516 7.76245V10.2C3.15516 10.5375 2.89272 10.8 2.55516 10.8C2.23644 10.8 1.97394 10.5375 1.97394 10.2V8.34367C1.46772 8.24995 1.09272 7.78123 1.20516 7.19995L1.65516 4.98745C1.71144 4.51867 2.12394 4.19995 2.59272 4.19995H4.31772ZM3.45516 3.54367C4.09272 3.54367 4.61772 3.01867 4.61772 2.38123C4.61772 1.72495 4.09272 1.19995 3.45516 1.19995C2.79894 1.19995 2.27394 1.72495 2.27394 2.38123C2.27394 3.01867 2.79894 3.54367 3.45516 3.54367Z" fill="#1A1C1F"/>
</g>
<defs>
<clipPath id="clip0_232_271">
<rect width="12" height="12" fill="white"/>
</clipPath>
</defs>
</svg>
