<svg width="12" height="12" viewBox="0 0 12 12" fill="none" xmlns="http://www.w3.org/2000/svg">
<g clip-path="url(#clip0_232_277)">
<path fill-rule="evenodd" clip-rule="evenodd" d="M1.20001 3.90937C1.20001 3.55309 1.51873 3.32809 1.81873 3.32809C2.06251 3.32809 2.31553 3.47593 2.38129 3.77809L2.90149 6.17047L3.48751 3.75937C3.55627 3.47653 3.82501 3.32809 4.06873 3.32809C4.31251 3.32809 4.58149 3.47095 4.65001 3.75937L5.22325 6.17935L5.73751 3.77809C5.80627 3.45799 6.05629 3.32809 6.30001 3.32809C6.61873 3.32809 6.91873 3.55309 6.91873 3.90937C6.91873 3.96565 6.91495 4.02073 6.90001 4.07809L5.81251 8.25937C5.73469 8.55865 5.47501 8.69065 5.23129 8.69065C4.98751 8.69065 4.73425 8.55691 4.65001 8.25937L4.05001 6.14065L3.45001 8.25937C3.36439 8.56177 3.11251 8.69065 2.86873 8.69065C2.62501 8.69065 2.36443 8.54011 2.28751 8.24065L1.21873 4.07809C1.20403 4.02067 1.20001 3.96565 1.20001 3.90937ZM7.18129 6.02809C7.18129 3.55309 8.64373 3.29065 9.28129 3.29065C9.65629 3.29065 10.05 3.36565 10.4063 3.53437C10.6687 3.64687 10.7813 3.85309 10.7813 4.05937C10.7813 4.37809 10.5375 4.69687 10.2 4.69687C10.125 4.69687 10.0313 4.67809 9.95629 4.64065C9.75001 4.54687 9.54373 4.49065 9.33751 4.49065C9.07501 4.49065 8.38129 4.49065 8.38129 6.02809C8.38129 7.50937 9.00001 7.50937 9.33751 7.50937C9.56251 7.49065 9.78751 7.43437 9.99373 7.35937C10.0687 7.34065 10.1437 7.32187 10.2187 7.32187C10.5563 7.32187 10.8 7.64065 10.8 7.95937C10.8 8.18437 10.6875 8.39065 10.4063 8.50309C10.05 8.61565 9.67501 8.69065 9.30001 8.70937C8.51251 8.70937 7.18129 8.35309 7.18129 6.02809Z" fill="#1A1C1F"/>
</g>
<defs>
<clipPath id="clip0_232_277">
<rect width="12" height="12" fill="white"/>
</clipPath>
</defs>
</svg>
