<svg id="icon" height="32" viewBox="0 0 32 32" width="32" xmlns="http://www.w3.org/2000/svg"><path d="M6.325 2.086 C 5.885 2.189,5.422 2.469,5.013 2.879 C 4.572 3.321,4.345 3.700,4.152 4.320 L 4.027 4.720 4.027 16.000 L 4.027 27.280 4.152 27.680 C 4.326 28.239,4.551 28.639,4.914 29.035 C 5.287 29.442,5.625 29.668,6.146 29.858 L 6.533 30.000 13.973 30.000 L 21.413 30.000 21.804 29.872 C 22.303 29.709,22.725 29.435,23.084 29.041 C 23.440 28.651,23.641 28.304,23.827 27.760 L 23.973 27.333 23.988 23.078 C 24.003 18.984,24.000 18.815,23.901 18.593 C 23.747 18.242,23.475 18.062,23.062 18.036 C 22.773 18.018,22.690 18.034,22.495 18.149 C 22.357 18.229,22.212 18.376,22.133 18.515 L 22.000 18.747 21.973 22.933 C 21.944 27.521,21.962 27.272,21.624 27.674 C 21.332 28.021,21.814 28.000,14.000 28.000 C 8.075 28.000,6.847 27.988,6.701 27.927 C 6.604 27.886,6.449 27.761,6.356 27.648 C 6.001 27.217,6.025 28.091,6.040 15.917 L 6.053 4.877 6.187 4.618 C 6.260 4.475,6.413 4.283,6.525 4.192 L 6.730 4.027 10.018 4.000 C 13.608 3.971,13.451 3.985,13.754 3.661 C 13.920 3.483,14.031 3.056,13.975 2.809 C 13.911 2.522,13.735 2.276,13.502 2.145 L 13.292 2.027 9.913 2.032 C 8.054 2.035,6.439 2.059,6.325 2.086 M20.053 2.062 C 16.563 2.597,14.018 5.503,14.012 8.960 C 14.009 10.409,14.385 11.670,15.176 12.864 C 16.899 15.468,20.165 16.615,23.128 15.657 C 25.556 14.872,27.324 12.892,27.870 10.347 C 28.000 9.743,28.026 8.665,27.928 8.027 C 27.687 6.466,27.036 5.169,25.947 4.080 C 24.885 3.018,23.625 2.359,22.191 2.113 C 21.731 2.034,20.435 2.003,20.053 2.062 M19.947 5.686 L 19.947 7.212 19.827 7.134 C 19.761 7.091,19.215 6.750,18.613 6.376 C 18.012 6.001,17.489 5.665,17.450 5.629 C 17.331 5.517,18.119 4.890,18.827 4.533 C 19.239 4.325,19.661 4.169,19.827 4.164 L 19.947 4.160 19.947 5.686 M22.752 4.372 C 23.940 4.848,24.889 5.723,25.442 6.853 C 25.976 7.943,26.094 9.026,25.811 10.229 C 25.618 11.054,25.206 11.793,24.560 12.473 C 23.920 13.148,23.114 13.630,22.213 13.875 C 21.579 14.048,20.367 14.049,19.737 13.877 C 18.255 13.472,17.104 12.511,16.457 11.140 C 16.085 10.350,16.029 10.084,16.028 9.067 C 16.027 8.298,16.043 8.131,16.153 7.744 C 16.250 7.404,16.299 7.307,16.359 7.331 C 16.402 7.347,17.335 7.926,18.432 8.617 C 19.530 9.307,20.510 9.907,20.612 9.950 C 20.843 10.046,21.125 10.048,21.349 9.955 C 21.575 9.860,21.846 9.547,21.922 9.294 C 21.963 9.154,21.976 8.343,21.964 6.622 L 21.947 4.151 22.157 4.184 C 22.272 4.203,22.540 4.287,22.752 4.372 M8.560 6.109 C 8.310 6.241,8.170 6.396,8.074 6.647 C 7.905 7.092,8.061 7.564,8.471 7.845 C 8.657 7.972,8.670 7.973,10.000 7.973 C 11.330 7.973,11.343 7.972,11.529 7.845 C 12.116 7.443,12.150 6.629,11.597 6.208 L 11.395 6.053 10.058 6.039 C 8.920 6.027,8.696 6.037,8.560 6.109 M8.560 10.109 C 8.310 10.241,8.170 10.396,8.074 10.647 C 7.905 11.092,8.061 11.564,8.471 11.845 C 8.657 11.972,8.670 11.973,10.000 11.973 C 11.330 11.973,11.343 11.972,11.529 11.845 C 12.116 11.443,12.150 10.629,11.597 10.208 L 11.395 10.053 10.058 10.039 C 8.920 10.027,8.696 10.037,8.560 10.109 M8.560 14.109 C 8.310 14.241,8.170 14.396,8.074 14.647 C 7.905 15.092,8.061 15.564,8.471 15.845 C 8.657 15.972,8.670 15.973,10.000 15.973 C 11.330 15.973,11.343 15.972,11.529 15.845 C 12.116 15.443,12.150 14.629,11.597 14.208 L 11.395 14.053 10.058 14.039 C 8.920 14.027,8.696 14.037,8.560 14.109 M8.560 18.110 C 8.311 18.240,8.170 18.396,8.074 18.647 C 7.905 19.092,8.061 19.564,8.471 19.845 L 8.659 19.973 14.000 19.973 L 19.341 19.973 19.529 19.845 C 20.116 19.443,20.150 18.629,19.597 18.208 L 19.395 18.053 14.057 18.040 C 9.297 18.028,8.703 18.036,8.560 18.110 M8.560 22.110 C 8.311 22.240,8.170 22.396,8.074 22.647 C 7.905 23.092,8.061 23.564,8.471 23.845 L 8.659 23.973 14.000 23.973 L 19.341 23.973 19.529 23.845 C 20.116 23.443,20.150 22.629,19.597 22.208 L 19.395 22.053 14.057 22.040 C 9.297 22.028,8.703 22.036,8.560 22.110 " fill="var(--db-icon-color, currentColor)" stroke="none" fill-rule="evenodd"></path></svg>