<svg id="icon" height="32" viewBox="0 0 32 32" width="32" xmlns="http://www.w3.org/2000/svg"><path d="M7.947 4.293 C 5.913 4.748,4.412 6.312,4.052 8.353 C 3.957 8.895,4.011 9.993,4.158 10.503 C 4.417 11.401,4.847 12.117,5.520 12.773 C 6.693 13.916,8.366 14.413,9.947 14.086 C 11.980 13.666,13.512 12.106,13.904 10.053 C 14.025 9.425,13.975 8.439,13.792 7.825 C 13.460 6.707,12.734 5.692,11.823 5.072 C 11.464 4.827,10.653 4.456,10.240 4.347 C 9.758 4.220,8.416 4.188,7.947 4.293 M20.240 7.947 C 18.937 8.215,17.848 8.804,16.905 9.755 C 16.359 10.304,16.016 10.780,15.685 11.447 C 14.619 13.595,14.855 16.225,16.286 18.155 C 18.657 21.352,23.306 21.708,26.107 18.907 C 27.341 17.673,28.000 16.077,28.000 14.321 C 28.000 12.527,27.351 10.964,26.082 9.704 C 25.143 8.772,23.940 8.148,22.646 7.923 C 21.994 7.809,20.858 7.821,20.240 7.947 M13.878 21.121 C 12.682 21.434,11.741 22.377,11.430 23.573 C 11.297 24.086,11.311 24.834,11.462 25.333 C 11.651 25.957,11.874 26.329,12.346 26.804 C 13.024 27.487,13.759 27.793,14.720 27.793 C 15.311 27.793,15.714 27.700,16.240 27.442 C 17.468 26.838,18.188 25.611,18.117 24.240 C 18.069 23.295,17.720 22.559,17.010 21.901 C 16.179 21.132,14.979 20.833,13.878 21.121 " fill="var(--db-icon-color, currentColor)" stroke="none" fill-rule="evenodd"></path></svg>