<svg id="icon" height="32" viewBox="0 0 32 32" width="32" xmlns="http://www.w3.org/2000/svg"><path d="M6.193 2.110 C 5.453 2.311,4.666 2.954,4.335 3.629 C 3.979 4.356,4.002 3.504,4.002 16.000 C 4.002 25.953,4.011 27.375,4.083 27.677 C 4.328 28.720,5.109 29.549,6.160 29.882 L 6.533 30.000 13.973 30.000 C 22.121 30.000,21.612 30.020,22.341 29.671 C 23.117 29.299,23.788 28.411,23.943 27.550 C 23.980 27.346,24.000 25.991,23.999 23.737 C 23.998 20.437,23.992 20.228,23.898 20.020 C 23.748 19.690,23.471 19.504,23.088 19.477 C 22.905 19.463,22.706 19.482,22.614 19.520 C 22.353 19.628,22.099 19.953,22.032 20.263 C 21.993 20.448,21.973 21.643,21.973 23.905 L 21.973 27.271 21.845 27.489 C 21.771 27.617,21.620 27.763,21.485 27.841 L 21.253 27.973 14.000 27.973 L 6.747 27.973 6.506 27.832 C 6.364 27.748,6.217 27.604,6.146 27.478 L 6.027 27.265 6.027 16.000 L 6.027 4.735 6.145 4.525 C 6.210 4.409,6.348 4.262,6.451 4.197 L 6.640 4.080 10.667 4.053 C 14.560 4.028,14.700 4.023,14.903 3.920 C 15.019 3.861,15.185 3.724,15.272 3.614 C 15.595 3.208,15.496 2.537,15.064 2.208 L 14.862 2.053 10.671 2.043 C 7.143 2.034,6.435 2.045,6.193 2.110 M22.068 2.136 C 21.958 2.194,21.651 2.491,21.385 2.796 C 20.680 3.605,20.423 3.692,19.493 3.439 C 18.621 3.201,18.185 3.272,17.822 3.713 C 17.630 3.946,17.564 4.214,17.519 4.933 C 17.480 5.580,17.333 5.940,17.026 6.148 C 16.916 6.223,16.569 6.384,16.255 6.505 C 15.773 6.692,15.650 6.765,15.473 6.965 C 15.210 7.264,15.111 7.617,15.199 7.943 C 15.232 8.065,15.386 8.362,15.541 8.602 C 15.969 9.266,16.000 9.342,16.000 9.733 C 16.000 10.126,15.945 10.261,15.523 10.907 C 15.204 11.396,15.129 11.693,15.227 12.074 C 15.333 12.483,15.674 12.769,16.371 13.032 C 17.275 13.373,17.460 13.619,17.520 14.560 C 17.579 15.482,17.698 15.759,18.148 16.023 C 18.520 16.241,18.728 16.246,19.444 16.054 C 20.408 15.795,20.688 15.857,21.183 16.439 C 21.976 17.370,22.243 17.545,22.749 17.469 C 23.073 17.420,23.335 17.220,23.787 16.674 C 24.474 15.843,24.653 15.786,25.712 16.053 C 26.474 16.245,26.647 16.241,27.025 16.022 C 27.475 15.760,27.594 15.484,27.652 14.560 C 27.711 13.613,27.862 13.415,28.831 13.013 C 29.588 12.699,29.872 12.447,29.967 12.005 C 30.049 11.625,29.950 11.321,29.545 10.694 L 29.200 10.162 29.200 9.735 L 29.200 9.307 29.505 8.841 C 29.944 8.170,29.991 8.064,29.991 7.733 C 29.991 7.125,29.705 6.811,28.849 6.476 C 27.866 6.092,27.721 5.890,27.633 4.783 C 27.570 3.989,27.468 3.748,27.083 3.492 C 26.752 3.271,26.357 3.254,25.696 3.434 C 24.723 3.699,24.511 3.628,23.777 2.790 C 23.485 2.456,23.183 2.166,23.077 2.115 C 22.818 1.992,22.321 2.003,22.068 2.136 M20.310 6.201 C 20.926 6.608,20.858 7.569,20.191 7.891 C 19.550 8.202,18.844 7.791,18.785 7.073 C 18.734 6.458,19.195 6.002,19.823 6.043 C 20.009 6.056,20.169 6.107,20.310 6.201 M25.029 6.700 C 25.252 6.812,25.432 6.978,25.525 7.157 C 25.613 7.327,25.624 7.770,25.544 7.983 C 25.486 8.140,21.302 12.375,20.939 12.645 C 20.764 12.775,20.680 12.800,20.415 12.800 C 20.242 12.800,20.047 12.773,19.983 12.740 C 19.811 12.652,19.574 12.420,19.489 12.256 C 19.380 12.048,19.394 11.607,19.516 11.371 C 19.660 11.094,23.976 6.800,24.213 6.698 C 24.460 6.592,24.817 6.593,25.029 6.700 M25.916 11.725 C 26.630 12.154,26.531 13.243,25.748 13.571 C 25.059 13.859,24.322 13.335,24.320 12.556 C 24.320 12.305,24.584 11.832,24.791 11.713 C 25.180 11.491,25.532 11.494,25.916 11.725 M8.534 22.126 C 7.871 22.481,7.819 23.392,8.437 23.821 C 8.647 23.966,8.689 23.974,9.352 23.992 C 10.137 24.014,10.366 23.967,10.637 23.728 C 11.140 23.287,11.063 22.499,10.484 22.160 C 10.271 22.035,10.212 22.027,9.488 22.027 C 8.840 22.027,8.689 22.042,8.534 22.126 M12.977 22.161 C 12.402 22.506,12.328 23.289,12.829 23.728 C 13.101 23.967,13.330 24.014,14.115 23.992 C 14.743 23.975,14.826 23.961,14.995 23.845 C 15.321 23.622,15.440 23.392,15.440 22.986 C 15.440 22.680,15.420 22.605,15.290 22.435 C 15.023 22.085,14.832 22.027,13.962 22.027 C 13.244 22.028,13.187 22.035,12.977 22.161 M17.573 22.102 C 16.882 22.411,16.811 23.403,17.450 23.827 C 17.659 23.965,17.712 23.974,18.369 23.991 C 18.787 24.002,19.147 23.985,19.267 23.949 C 19.754 23.803,20.075 23.250,19.947 22.776 C 19.876 22.512,19.610 22.197,19.376 22.099 C 19.140 22.000,17.796 22.003,17.573 22.102 " fill="var(--db-icon-color, currentColor)" stroke="none" fill-rule="evenodd"></path></svg>