<svg id="icon" height="24" viewBox="0 0 24 24" width="24" xmlns="http://www.w3.org/2000/svg"><path d="M14.715 2.055 C 14.484 2.138,14.337 2.263,14.064 2.613 C 13.501 3.331,13.327 3.390,12.449 3.155 C 11.926 3.016,11.720 3.017,11.438 3.161 C 11.050 3.359,10.957 3.560,10.920 4.280 C 10.876 5.128,10.739 5.318,9.945 5.626 C 9.348 5.858,9.165 6.014,9.058 6.381 C 8.954 6.737,9.008 6.929,9.366 7.484 C 9.644 7.914,9.659 7.949,9.673 8.204 C 9.693 8.551,9.652 8.665,9.341 9.134 C 8.989 9.663,8.950 9.817,9.064 10.202 C 9.166 10.546,9.362 10.709,9.940 10.934 C 10.501 11.152,10.645 11.254,10.787 11.534 C 10.878 11.714,10.895 11.809,10.920 12.280 C 10.951 12.886,10.996 13.033,11.215 13.253 C 11.353 13.390,11.663 13.520,11.854 13.520 C 11.898 13.520,12.142 13.464,12.397 13.395 C 13.282 13.157,13.490 13.225,14.063 13.945 C 14.419 14.392,14.627 14.520,15.000 14.519 C 15.316 14.518,15.507 14.415,15.783 14.097 C 16.565 13.196,16.688 13.149,17.603 13.395 C 17.858 13.464,18.108 13.520,18.159 13.520 C 18.467 13.520,18.860 13.248,18.978 12.953 C 19.015 12.861,19.070 12.526,19.100 12.210 C 19.183 11.345,19.269 11.234,20.100 10.917 C 20.636 10.712,20.839 10.534,20.943 10.177 C 21.043 9.833,21.001 9.681,20.648 9.094 L 20.340 8.583 20.340 8.281 L 20.340 7.980 20.633 7.505 C 20.990 6.927,21.044 6.731,20.945 6.389 C 20.837 6.019,20.644 5.854,20.055 5.626 C 19.550 5.430,19.348 5.287,19.217 5.034 C 19.180 4.962,19.132 4.683,19.100 4.346 C 19.070 4.035,19.025 3.726,19.000 3.660 C 18.880 3.345,18.555 3.095,18.213 3.054 C 18.065 3.037,17.903 3.062,17.551 3.155 C 16.757 3.367,16.538 3.318,16.117 2.836 C 15.629 2.276,15.429 2.091,15.260 2.045 C 15.054 1.988,14.895 1.991,14.715 2.055 M4.520 2.066 C 3.386 2.242,2.478 3.047,2.115 4.200 L 2.020 4.500 2.020 12.000 L 2.020 19.500 2.114 19.798 C 2.434 20.818,3.128 21.539,4.113 21.875 L 4.420 21.980 8.820 21.991 C 13.618 22.004,13.510 22.008,14.082 21.776 C 14.802 21.485,15.427 20.858,15.734 20.120 C 15.934 19.639,15.959 19.409,15.958 18.060 C 15.958 16.899,15.953 16.809,15.877 16.640 C 15.511 15.832,14.501 15.797,14.100 16.579 L 13.980 16.814 13.960 18.057 L 13.940 19.300 13.829 19.489 C 13.704 19.702,13.511 19.864,13.290 19.943 C 13.168 19.986,12.346 19.997,8.955 19.998 L 4.769 20.000 4.555 19.889 C 4.318 19.766,4.111 19.505,4.040 19.240 C 4.013 19.139,4.003 16.717,4.010 11.914 L 4.020 4.740 4.109 4.574 C 4.219 4.367,4.490 4.132,4.677 4.080 C 4.761 4.057,5.496 4.040,6.445 4.040 C 7.838 4.040,8.100 4.031,8.273 3.975 C 8.541 3.888,8.730 3.725,8.856 3.472 C 9.106 2.971,8.894 2.373,8.382 2.135 L 8.180 2.041 6.400 2.046 C 5.421 2.049,4.575 2.058,4.520 2.066 M13.139 5.349 C 13.668 5.615,13.767 6.317,13.334 6.728 C 12.794 7.241,11.917 6.846,11.921 6.091 C 11.924 5.469,12.583 5.068,13.139 5.349 M17.026 5.984 C 17.345 6.166,17.445 6.574,17.261 6.942 C 17.115 7.236,13.725 10.609,13.505 10.680 C 13.304 10.744,12.982 10.712,12.849 10.613 C 12.505 10.356,12.396 10.004,12.560 9.677 C 12.658 9.480,15.907 6.186,16.170 6.016 C 16.462 5.827,16.733 5.817,17.026 5.984 M17.592 9.836 C 18.279 10.190,18.227 11.185,17.509 11.424 C 16.893 11.628,16.268 11.040,16.436 10.414 C 16.576 9.896,17.150 9.609,17.592 9.836 M5.665 16.056 C 4.979 16.312,4.784 17.186,5.298 17.700 C 5.691 18.093,6.309 18.093,6.702 17.700 C 7.190 17.212,7.054 16.418,6.427 16.093 C 6.255 16.005,5.856 15.985,5.665 16.056 M8.712 16.051 C 8.190 16.224,7.899 16.754,8.042 17.270 C 8.111 17.517,8.465 17.881,8.705 17.952 C 9.391 18.153,10.061 17.604,9.988 16.900 C 9.951 16.540,9.761 16.266,9.429 16.094 C 9.269 16.011,8.898 15.989,8.712 16.051 M11.665 16.059 C 10.981 16.302,10.784 17.186,11.298 17.700 C 11.564 17.966,11.932 18.059,12.295 17.952 C 12.535 17.881,12.889 17.517,12.958 17.270 C 13.170 16.504,12.411 15.793,11.665 16.059 " fill="var(--db-icon-color, currentColor)" stroke="none" fill-rule="evenodd"></path></svg>