<svg id="icon" height="20" viewBox="0 0 20 20" width="20" xmlns="http://www.w3.org/2000/svg"><path d="M8.713 2.047 C 8.411 2.142,8.160 2.388,8.051 2.696 C 7.897 3.134,8.125 3.681,8.554 3.900 L 8.717 3.983 12.342 3.992 L 15.967 4.001 15.967 7.998 L 15.967 11.995 15.342 12.006 C 14.769 12.016,14.705 12.023,14.576 12.092 C 14.355 12.210,14.211 12.355,14.110 12.561 C 13.988 12.809,13.981 13.167,14.095 13.403 C 14.190 13.599,14.400 13.811,14.596 13.907 C 14.739 13.978,14.800 13.984,15.463 13.994 C 16.031 14.003,16.225 13.994,16.421 13.950 C 16.808 13.864,17.111 13.695,17.401 13.403 C 17.690 13.112,17.838 12.855,17.934 12.480 C 17.998 12.230,18.000 12.096,18.000 8.000 C 18.000 3.904,17.998 3.770,17.934 3.520 C 17.837 3.141,17.690 2.887,17.399 2.596 C 17.106 2.304,16.791 2.129,16.417 2.050 C 16.093 1.982,8.930 1.979,8.713 2.047 M3.569 6.052 C 2.897 6.198,2.346 6.681,2.108 7.334 L 2.017 7.583 2.008 11.874 C 1.998 16.644,1.988 16.423,2.222 16.900 C 2.387 17.238,2.755 17.608,3.092 17.775 C 3.564 18.010,3.439 18.004,7.100 17.993 L 10.383 17.983 10.633 17.892 C 11.235 17.672,11.708 17.189,11.903 16.594 L 11.983 16.350 11.983 11.983 C 11.983 7.789,11.981 7.609,11.920 7.433 C 11.672 6.711,11.113 6.196,10.417 6.050 C 10.080 5.979,3.896 5.981,3.569 6.052 M10.000 12.033 L 10.000 16.033 7.000 16.033 L 4.000 16.033 4.000 12.033 L 4.000 8.033 7.000 8.033 L 10.000 8.033 10.000 12.033 M5.500 13.000 L 5.500 14.000 6.000 14.000 L 6.500 14.000 6.500 13.000 L 6.500 12.000 6.000 12.000 L 5.500 12.000 5.500 13.000 M7.500 13.000 L 7.500 14.000 8.000 14.000 L 8.500 14.000 8.500 13.000 L 8.500 12.000 8.000 12.000 L 7.500 12.000 7.500 13.000 " fill="var(--db-icon-color, currentColor)" stroke="none" fill-rule="evenodd"></path></svg>