<svg id="icon" height="24" viewBox="0 0 24 24" width="24" xmlns="http://www.w3.org/2000/svg"><path d="M4.380 2.066 C 3.186 2.320,2.304 3.217,2.061 4.425 C 2.004 4.707,1.999 5.514,2.010 12.140 C 2.023 20.440,1.994 19.664,2.320 20.340 C 2.679 21.084,3.319 21.622,4.161 21.886 L 4.460 21.980 8.980 21.980 C 14.067 21.980,13.677 22.002,14.360 21.670 C 14.641 21.533,14.766 21.438,15.081 21.122 C 15.391 20.812,15.495 20.676,15.632 20.400 C 15.948 19.765,15.973 19.601,15.977 18.140 C 15.980 16.739,15.971 16.666,15.750 16.414 C 15.550 16.187,15.346 16.102,15.000 16.102 C 14.768 16.102,14.662 16.122,14.534 16.190 C 14.313 16.307,14.098 16.565,14.044 16.780 C 14.017 16.887,14.000 17.384,14.000 18.051 C 14.000 19.318,13.983 19.411,13.693 19.701 C 13.375 20.019,13.642 20.002,8.918 19.991 C 4.990 19.981,4.731 19.976,4.596 19.908 C 4.406 19.814,4.214 19.623,4.107 19.422 L 4.020 19.260 4.020 12.000 L 4.020 4.740 4.106 4.579 C 4.215 4.375,4.375 4.215,4.579 4.106 C 4.735 4.023,4.795 4.019,6.520 4.000 C 8.158 3.982,8.312 3.974,8.451 3.905 C 8.793 3.735,9.036 3.269,8.984 2.884 C 8.932 2.494,8.638 2.139,8.289 2.042 C 8.196 2.016,7.486 2.002,6.400 2.003 C 5.019 2.006,4.602 2.019,4.380 2.066 M15.380 2.043 C 14.919 2.098,14.356 2.246,13.855 2.445 C 13.143 2.727,12.875 3.070,12.932 3.627 C 12.964 3.936,13.124 4.185,13.397 4.348 C 13.690 4.524,13.904 4.551,14.192 4.449 C 14.317 4.405,14.603 4.303,14.826 4.223 C 15.968 3.815,17.279 3.988,18.319 4.684 C 19.169 5.252,19.812 6.194,20.023 7.180 C 20.106 7.567,20.118 8.396,20.045 8.740 C 19.736 10.215,18.701 11.373,17.299 11.812 C 15.509 12.373,13.567 11.605,12.656 9.976 C 12.506 9.707,12.274 9.153,12.301 9.126 C 12.309 9.118,12.555 9.225,12.848 9.365 C 13.364 9.611,13.390 9.618,13.703 9.619 C 13.994 9.620,14.046 9.608,14.222 9.499 C 14.787 9.150,14.874 8.408,14.404 7.960 C 14.243 7.808,13.952 7.658,12.497 6.982 C 10.785 6.186,10.779 6.184,10.500 6.183 C 10.182 6.182,9.985 6.258,9.782 6.460 C 9.696 6.547,9.420 7.093,8.901 8.203 C 8.486 9.092,8.113 9.906,8.073 10.010 C 7.775 10.789,8.516 11.567,9.306 11.305 C 9.645 11.192,9.776 11.048,10.046 10.486 C 10.179 10.208,10.306 9.935,10.327 9.881 C 10.362 9.790,10.379 9.817,10.516 10.164 C 10.842 10.993,11.284 11.659,11.927 12.289 C 12.746 13.093,13.768 13.636,14.932 13.887 C 15.520 14.014,16.679 14.014,17.266 13.888 C 18.508 13.620,19.462 13.103,20.343 12.223 C 21.064 11.501,21.489 10.820,21.801 9.884 C 22.435 7.985,22.079 5.926,20.840 4.326 C 19.971 3.204,18.720 2.425,17.320 2.134 C 16.790 2.024,15.891 1.982,15.380 2.043 M5.715 16.053 C 5.261 16.223,4.999 16.575,5.000 17.015 C 5.001 17.376,5.359 17.847,5.712 17.953 C 6.051 18.055,6.354 17.986,6.628 17.744 C 7.185 17.254,7.088 16.451,6.433 16.116 C 6.226 16.011,5.904 15.982,5.715 16.053 M8.670 16.057 C 7.875 16.341,7.772 17.435,8.499 17.862 C 9.191 18.267,10.070 17.694,9.988 16.893 C 9.923 16.268,9.259 15.847,8.670 16.057 M11.723 16.044 C 11.500 16.112,11.250 16.309,11.131 16.511 C 11.038 16.669,11.020 16.746,11.020 16.980 C 11.020 17.310,11.100 17.502,11.330 17.725 C 11.694 18.078,12.238 18.088,12.624 17.748 C 12.879 17.524,12.976 17.319,12.978 17.000 C 12.980 16.706,12.909 16.526,12.710 16.322 C 12.458 16.064,12.042 15.947,11.723 16.044 " fill="var(--db-icon-color, currentColor)" stroke="none" fill-rule="evenodd"></path></svg>