<svg id="icon" height="20" viewBox="0 0 20 20" width="20" xmlns="http://www.w3.org/2000/svg"><path d="M9.711 2.046 C 9.523 2.107,9.355 2.215,9.248 2.341 C 9.200 2.399,8.703 3.362,8.143 4.481 C 7.584 5.601,7.122 6.521,7.117 6.527 C 7.112 6.532,6.274 5.982,5.256 5.305 C 3.267 3.984,3.242 3.970,2.890 4.012 C 2.413 4.068,2.044 4.447,2.010 4.916 C 1.998 5.089,2.141 5.765,3.031 9.749 C 4.163 14.815,4.095 14.561,4.395 14.790 C 4.688 15.014,4.343 15.002,10.068 14.992 L 15.250 14.983 15.439 14.890 C 15.651 14.787,15.813 14.621,15.902 14.418 C 16.002 14.192,18.000 5.178,18.000 4.954 C 18.000 4.492,17.608 4.077,17.111 4.014 C 16.752 3.968,16.733 3.979,14.740 5.307 C 13.724 5.984,12.889 6.533,12.884 6.527 C 12.878 6.521,12.415 5.599,11.855 4.478 C 11.294 3.356,10.789 2.385,10.732 2.321 C 10.510 2.068,10.035 1.940,9.711 2.046 M10.857 6.946 C 11.798 8.827,11.804 8.836,12.193 8.945 C 12.665 9.078,12.725 9.052,14.200 8.067 C 14.887 7.609,15.454 7.245,15.458 7.259 C 15.463 7.273,15.182 8.566,14.833 10.133 C 14.485 11.700,14.200 12.986,14.200 12.991 C 14.200 12.996,12.310 13.000,10.000 13.000 C 7.690 13.000,5.800 12.996,5.800 12.991 C 5.800 12.986,5.515 11.700,5.167 10.133 C 4.818 8.566,4.537 7.273,4.542 7.259 C 4.546 7.245,5.112 7.608,5.800 8.067 C 6.528 8.552,7.118 8.923,7.213 8.954 C 7.540 9.063,8.006 8.937,8.233 8.679 C 8.290 8.614,8.707 7.820,9.160 6.914 C 9.612 6.008,9.991 5.267,10.000 5.267 C 10.009 5.267,10.395 6.022,10.857 6.946 M4.183 16.060 C 3.881 16.165,3.660 16.387,3.551 16.696 C 3.383 17.174,3.659 17.747,4.145 17.929 L 4.336 18.000 10.000 18.000 L 15.664 18.000 15.855 17.929 C 15.979 17.882,16.101 17.802,16.202 17.702 C 16.684 17.219,16.552 16.411,15.941 16.110 L 15.750 16.017 10.050 16.009 C 4.712 16.002,4.339 16.005,4.183 16.060 " fill="var(--db-icon-color, currentColor)" stroke="none" fill-rule="evenodd"></path></svg>