<svg id="icon" height="32" viewBox="0 0 32 32" width="32" xmlns="http://www.w3.org/2000/svg"><path d="M14.987 5.046 C 12.200 5.384,10.083 6.384,8.237 8.235 C 7.258 9.216,6.670 10.043,6.072 11.280 C 5.363 12.746,5.013 14.307,5.013 16.000 C 5.013 18.443,5.778 20.716,7.260 22.678 C 7.688 23.246,8.754 24.312,9.322 24.740 C 10.945 25.967,12.794 26.702,14.848 26.939 C 15.964 27.068,17.794 26.927,18.763 26.638 C 19.622 26.382,19.847 25.391,19.164 24.869 C 18.990 24.736,18.925 24.720,18.564 24.720 C 18.342 24.720,17.980 24.762,17.760 24.813 C 15.953 25.234,13.775 24.943,11.973 24.040 C 8.714 22.407,6.763 18.965,7.040 15.336 C 7.285 12.119,9.136 9.379,12.046 7.923 C 13.878 7.006,16.158 6.770,18.206 7.284 C 18.549 7.370,18.589 7.370,18.855 7.287 C 19.554 7.066,19.798 6.216,19.313 5.689 C 19.070 5.425,18.779 5.325,17.707 5.139 C 17.270 5.063,15.380 4.998,14.987 5.046 " fill="var(--db-icon-color, currentColor)" stroke="none" fill-rule="evenodd"></path></svg>