<svg id="icon" height="32" viewBox="0 0 32 32" width="32" xmlns="http://www.w3.org/2000/svg"><path d="M21.779 2.107 C 20.854 2.269,19.882 2.667,19.040 3.227 C 18.529 3.566,17.594 4.496,17.243 5.013 C 16.723 5.780,16.327 6.708,16.127 7.627 C 15.989 8.260,15.988 9.708,16.124 10.347 C 16.662 12.868,18.409 14.846,20.804 15.647 C 21.561 15.900,22.043 15.972,22.987 15.973 C 23.965 15.973,24.324 15.920,25.161 15.648 C 26.273 15.287,27.282 14.648,28.095 13.790 C 29.344 12.470,29.992 10.816,29.986 8.960 C 29.976 5.779,27.844 3.032,24.762 2.230 C 24.195 2.083,24.039 2.065,23.173 2.049 C 22.508 2.037,22.080 2.055,21.779 2.107 M24.204 4.158 C 25.057 4.367,25.808 4.790,26.471 5.434 C 28.318 7.228,28.502 10.077,26.902 12.101 C 25.659 13.672,23.590 14.348,21.663 13.813 C 19.903 13.323,18.476 11.799,18.111 10.016 C 18.014 9.545,18.000 8.595,18.083 8.130 C 18.453 6.041,20.154 4.384,22.267 4.056 C 22.740 3.982,23.692 4.032,24.204 4.158 M21.787 6.271 C 21.699 6.316,21.572 6.405,21.505 6.468 C 21.378 6.587,21.207 7.076,21.247 7.205 C 21.260 7.246,21.287 7.352,21.307 7.440 C 21.331 7.549,21.574 7.834,22.069 8.334 L 22.797 9.068 22.097 9.774 C 21.713 10.162,21.368 10.539,21.331 10.611 C 21.239 10.792,21.248 11.250,21.348 11.441 C 21.468 11.671,21.714 11.888,21.924 11.948 C 22.471 12.105,22.684 11.968,23.983 10.621 C 25.174 9.386,25.236 9.288,25.120 8.851 C 25.066 8.644,24.910 8.465,23.929 7.476 C 23.308 6.850,22.735 6.304,22.656 6.263 C 22.465 6.162,21.987 6.166,21.787 6.271 M12.267 8.032 C 11.285 8.142,10.999 8.183,10.560 8.276 C 8.940 8.618,7.212 9.450,5.971 10.483 C 1.425 14.267,0.686 21.149,4.308 25.972 C 6.374 28.723,9.881 30.220,13.672 29.969 C 19.026 29.615,23.359 25.400,23.889 20.031 C 23.998 18.928,23.941 18.551,23.620 18.257 C 23.224 17.893,22.442 17.967,22.135 18.397 C 22.001 18.585,21.944 18.882,21.868 19.787 C 21.526 23.814,18.920 26.816,14.987 27.713 C 12.546 28.269,9.744 27.756,7.681 26.375 C 5.861 25.156,4.593 23.265,4.163 21.126 C 3.530 17.983,4.331 15.015,6.399 12.836 C 8.028 11.121,10.057 10.180,12.457 10.028 C 13.376 9.970,13.593 9.884,13.796 9.498 C 14.038 9.039,13.932 8.513,13.533 8.194 C 13.351 8.049,13.293 8.033,12.893 8.023 C 12.651 8.016,12.369 8.020,12.267 8.032 M9.627 14.110 C 9.394 14.231,9.171 14.455,9.087 14.652 C 8.992 14.872,8.993 15.240,9.088 15.423 C 9.129 15.501,9.775 16.417,10.524 17.458 C 11.272 18.499,11.907 19.394,11.935 19.448 C 11.963 19.502,12.138 20.229,12.324 21.063 C 12.680 22.655,12.737 22.806,13.059 23.023 C 13.700 23.455,14.584 22.939,14.569 22.140 C 14.563 21.823,13.918 18.926,13.803 18.701 C 13.674 18.447,10.926 14.541,10.728 14.329 C 10.650 14.245,10.522 14.143,10.443 14.102 C 10.252 14.002,9.826 14.007,9.627 14.110 " fill="var(--db-icon-color, currentColor)" stroke="none" fill-rule="evenodd"></path></svg>