<svg id="icon" height="24" viewBox="0 0 24 24" width="24" xmlns="http://www.w3.org/2000/svg"><path d="M12.320 3.028 C 10.602 3.157,8.951 3.786,7.520 4.856 C 7.031 5.221,6.221 6.032,5.850 6.527 C 3.381 9.821,3.381 14.179,5.850 17.473 C 6.391 18.194,7.346 19.076,8.120 19.569 C 9.879 20.690,11.979 21.177,14.020 20.939 C 14.615 20.870,15.288 20.718,15.516 20.602 C 15.847 20.433,16.076 19.984,16.024 19.607 C 15.968 19.195,15.599 18.795,15.224 18.739 C 15.102 18.720,14.852 18.752,14.375 18.845 C 13.758 18.967,13.637 18.978,12.960 18.977 C 12.122 18.977,11.705 18.918,10.972 18.696 C 10.174 18.455,9.476 18.105,8.800 17.605 C 8.372 17.289,7.626 16.525,7.311 16.080 C 5.789 13.928,5.585 11.121,6.782 8.803 C 7.142 8.108,7.497 7.623,8.060 7.060 C 8.623 6.497,9.108 6.142,9.803 5.782 C 10.660 5.340,11.445 5.119,12.470 5.032 C 13.133 4.976,13.667 5.015,14.528 5.183 C 15.148 5.304,15.314 5.292,15.586 5.108 C 15.942 4.865,16.107 4.408,15.986 3.996 C 15.851 3.535,15.559 3.342,14.760 3.183 C 13.967 3.026,13.085 2.970,12.320 3.028 " fill="var(--db-icon-color, currentColor)" stroke="none" fill-rule="evenodd"></path></svg>