<svg id="icon" height="24" viewBox="0 0 24 24" width="24" xmlns="http://www.w3.org/2000/svg"><path d="M3.965 5.061 C 3.227 5.222,2.568 5.756,2.234 6.464 C 1.991 6.977,1.997 6.817,2.009 12.132 L 2.020 16.980 2.109 17.240 C 2.379 18.028,3.003 18.645,3.780 18.891 L 4.060 18.980 12.000 18.980 L 19.940 18.980 20.220 18.891 C 21.009 18.641,21.641 18.009,21.891 17.220 L 21.980 16.940 21.980 12.000 L 21.980 7.060 21.891 6.780 C 21.646 6.006,21.025 5.378,20.240 5.109 L 19.980 5.020 12.100 5.013 C 5.504 5.007,4.179 5.015,3.965 5.061 M7.000 7.015 C 7.000 7.023,6.921 7.147,6.825 7.290 C 6.264 8.128,6.328 9.245,6.985 10.082 C 7.542 10.791,8.502 11.137,9.374 10.943 C 10.297 10.737,11.028 10.000,11.225 9.075 C 11.356 8.460,11.218 7.716,10.883 7.230 L 10.724 7.000 15.172 7.000 C 19.513 7.000,19.623 7.002,19.748 7.078 C 20.017 7.242,20.000 6.915,20.000 12.012 L 20.000 16.628 19.909 16.764 C 19.859 16.838,19.773 16.921,19.719 16.949 C 19.642 16.988,18.848 16.999,16.165 16.999 L 12.711 17.000 12.860 16.835 C 12.942 16.744,13.057 16.568,13.115 16.445 C 13.208 16.247,13.220 16.170,13.220 15.800 C 13.220 15.408,13.211 15.362,13.091 15.117 C 12.934 14.796,12.612 14.479,12.290 14.328 C 12.084 14.231,12.014 14.220,11.620 14.220 C 11.208 14.220,11.163 14.228,10.910 14.348 C 10.416 14.582,10.093 15.006,9.991 15.558 C 9.913 15.975,10.068 16.522,10.358 16.852 L 10.488 17.000 7.434 16.999 C 5.071 16.999,4.358 16.988,4.281 16.949 C 4.227 16.921,4.141 16.838,4.091 16.764 L 4.000 16.628 4.000 12.012 C 4.000 6.915,3.983 7.242,4.252 7.078 C 4.372 7.005,4.461 7.000,5.690 7.000 C 6.410 7.000,7.000 7.007,7.000 7.015 M14.240 7.937 C 13.622 8.068,13.141 8.332,12.676 8.796 C 12.291 9.181,12.066 9.543,11.892 10.060 C 11.793 10.353,11.784 10.433,11.784 11.000 C 11.784 11.589,11.790 11.637,11.906 11.968 C 12.219 12.857,12.849 13.530,13.681 13.867 C 14.203 14.078,14.930 14.140,15.487 14.022 C 16.806 13.742,17.784 12.644,17.917 11.293 C 18.063 9.804,17.152 8.453,15.700 8.001 C 15.341 7.889,14.616 7.858,14.240 7.937 " fill="var(--db-icon-color, currentColor)" stroke="none" fill-rule="evenodd"></path></svg>