<svg id="icon" height="20" viewBox="0 0 20 20" width="20" xmlns="http://www.w3.org/2000/svg"><path d="M3.567 4.052 C 3.217 4.127,2.886 4.314,2.599 4.600 C 2.310 4.887,2.163 5.141,2.066 5.520 C 2.002 5.770,2.000 5.904,2.000 10.000 C 2.000 14.096,2.002 14.230,2.066 14.480 C 2.163 14.859,2.310 15.113,2.599 15.400 C 2.889 15.688,3.149 15.839,3.520 15.934 C 3.772 15.999,3.912 16.000,10.000 16.000 C 16.088 16.000,16.228 15.999,16.480 15.934 C 16.851 15.839,17.111 15.688,17.401 15.400 C 17.690 15.113,17.837 14.859,17.934 14.480 C 17.998 14.230,18.000 14.096,18.000 10.000 C 18.000 5.904,17.998 5.770,17.934 5.520 C 17.837 5.141,17.690 4.887,17.401 4.600 C 17.110 4.309,16.781 4.126,16.417 4.050 C 16.076 3.979,3.899 3.980,3.567 4.052 M14.783 6.137 C 15.044 6.169,15.688 6.311,15.721 6.343 C 15.728 6.350,15.703 6.736,15.667 7.202 C 15.630 7.669,15.601 8.068,15.600 8.090 C 15.600 8.118,15.542 8.109,15.408 8.063 C 14.604 7.781,13.648 7.764,13.134 8.021 C 12.889 8.143,12.649 8.373,12.537 8.592 C 12.287 9.082,12.205 10.109,12.356 10.867 C 12.490 11.540,12.857 11.909,13.536 12.054 C 13.726 12.094,13.911 12.103,14.333 12.090 C 14.868 12.075,15.031 12.048,15.585 11.883 C 15.651 11.863,15.658 11.890,15.746 12.573 C 15.796 12.964,15.846 13.337,15.855 13.403 L 15.873 13.522 15.562 13.610 C 14.210 13.988,12.775 13.917,11.903 13.429 C 11.116 12.989,10.656 12.237,10.479 11.098 C 10.406 10.627,10.407 9.641,10.481 9.156 C 10.623 8.234,10.970 7.490,11.491 6.995 C 11.976 6.533,12.637 6.234,13.388 6.138 C 13.721 6.095,14.437 6.095,14.783 6.137 M7.817 6.381 C 7.945 6.413,8.186 6.504,8.353 6.584 C 8.937 6.864,9.226 7.313,9.287 8.033 C 9.353 8.820,9.027 9.365,8.306 9.669 C 8.181 9.721,8.106 9.769,8.134 9.778 C 8.161 9.786,8.281 9.819,8.400 9.850 C 9.052 10.021,9.530 10.473,9.671 11.054 C 9.729 11.294,9.720 11.909,9.654 12.163 C 9.493 12.786,9.052 13.230,8.359 13.469 C 7.798 13.662,7.618 13.677,5.675 13.691 L 3.900 13.705 3.900 10.000 L 3.900 6.296 5.742 6.309 C 7.358 6.320,7.612 6.329,7.817 6.381 M5.700 8.413 L 5.700 9.067 6.311 9.067 C 7.014 9.067,7.213 9.027,7.387 8.853 C 7.575 8.665,7.615 8.296,7.474 8.054 C 7.441 7.998,7.341 7.915,7.250 7.868 C 7.092 7.787,7.058 7.783,6.393 7.772 L 5.700 7.760 5.700 8.413 M5.700 11.383 L 5.700 12.200 6.408 12.200 C 7.110 12.199,7.329 12.174,7.535 12.067 C 7.983 11.837,8.074 11.125,7.699 10.787 C 7.487 10.595,7.328 10.567,6.461 10.567 L 5.700 10.567 5.700 11.383 " fill="var(--db-icon-color, currentColor)" stroke="none" fill-rule="evenodd"></path></svg>