<svg id="icon" height="20" viewBox="0 0 20 20" width="20" xmlns="http://www.w3.org/2000/svg"><path d="M3.784 4.055 C 2.990 4.225,2.366 4.802,2.095 5.617 L 2.017 5.850 2.017 10.000 L 2.017 14.150 2.095 14.383 C 2.349 15.147,2.852 15.649,3.620 15.906 L 3.850 15.983 10.000 15.983 L 16.150 15.983 16.380 15.906 C 17.148 15.649,17.651 15.147,17.905 14.383 L 17.983 14.150 17.983 10.000 L 17.983 5.850 17.905 5.617 C 17.687 4.963,17.275 4.490,16.683 4.215 C 16.196 3.988,16.575 4.000,9.976 4.003 C 4.818 4.005,3.985 4.012,3.784 4.055 M6.307 6.225 C 5.937 6.595,5.749 7.062,5.758 7.583 C 5.776 8.581,6.619 9.400,7.627 9.400 C 8.498 9.400,9.250 8.807,9.448 7.965 C 9.596 7.337,9.415 6.686,8.963 6.225 L 8.742 6.000 12.371 6.000 L 16.000 6.000 16.000 10.000 L 16.000 14.000 13.317 14.000 L 10.634 14.000 10.747 13.852 C 10.925 13.619,10.983 13.428,10.983 13.083 C 10.983 12.811,10.973 12.761,10.875 12.562 C 10.743 12.294,10.536 12.096,10.247 11.960 C 10.063 11.874,9.994 11.860,9.758 11.860 C 9.565 11.860,9.432 11.880,9.309 11.927 C 8.491 12.238,8.215 13.199,8.754 13.857 L 8.871 14.000 6.436 14.000 L 4.000 14.000 4.000 10.000 L 4.000 6.000 5.266 6.000 L 6.531 6.000 6.307 6.225 M11.825 7.032 C 10.515 7.272,9.624 8.512,9.850 9.783 C 10.015 10.713,10.749 11.490,11.675 11.715 C 11.958 11.784,12.458 11.786,12.746 11.719 C 14.052 11.416,14.877 10.089,14.551 8.817 C 14.432 8.353,14.099 7.832,13.741 7.549 C 13.516 7.370,13.091 7.151,12.833 7.081 C 12.609 7.021,12.040 6.993,11.825 7.032 " fill="var(--db-icon-color, currentColor)" stroke="none" fill-rule="evenodd"></path></svg>