<svg id="icon" height="32" viewBox="0 0 32 32" width="32" xmlns="http://www.w3.org/2000/svg"><path d="M4.220 6.111 C 3.543 6.293,2.861 6.794,2.473 7.396 C 2.375 7.548,2.229 7.860,2.148 8.089 L 2.000 8.507 2.000 16.000 L 2.000 23.493 2.148 23.911 C 2.490 24.878,3.122 25.510,4.089 25.852 L 4.507 26.000 16.000 26.000 L 27.493 26.000 27.911 25.852 C 28.424 25.671,28.796 25.434,29.154 25.060 C 29.508 24.690,29.673 24.419,29.853 23.908 L 30.000 23.493 30.000 16.000 L 30.000 8.507 29.852 8.089 C 29.582 7.324,29.077 6.719,28.423 6.375 C 27.708 6.000,28.672 6.026,15.975 6.030 C 6.147 6.033,4.466 6.045,4.220 6.111 M27.524 8.156 C 27.629 8.227,27.773 8.371,27.844 8.476 L 27.973 8.667 27.973 16.000 L 27.973 23.333 27.843 23.526 C 27.771 23.632,27.629 23.776,27.527 23.846 L 27.341 23.973 16.000 23.973 L 4.659 23.973 4.471 23.845 C 4.368 23.774,4.226 23.632,4.155 23.529 L 4.027 23.341 4.013 16.119 C 4.003 11.401,4.017 8.828,4.052 8.698 C 4.116 8.459,4.437 8.123,4.663 8.057 C 4.758 8.029,9.587 8.013,16.080 8.018 L 27.333 8.027 27.524 8.156 M22.160 9.603 C 19.308 9.831,17.573 11.368,16.958 14.213 C 16.795 14.969,16.751 16.787,16.875 17.633 C 17.042 18.773,17.299 19.510,17.786 20.241 C 18.757 21.701,20.434 22.414,22.907 22.418 C 23.905 22.419,24.268 22.369,24.993 22.130 C 25.625 21.922,25.978 21.442,25.985 20.781 C 25.991 20.237,25.748 19.837,25.260 19.590 C 24.932 19.424,24.599 19.407,23.787 19.514 C 22.841 19.639,21.913 19.534,21.241 19.227 C 20.706 18.983,20.264 18.403,20.078 17.700 C 19.852 16.847,19.869 15.167,20.111 14.287 C 20.302 13.596,20.674 13.099,21.219 12.809 C 21.784 12.507,22.745 12.375,23.600 12.480 C 23.864 12.512,24.215 12.553,24.379 12.569 C 24.951 12.628,25.476 12.341,25.747 11.821 C 25.867 11.591,25.890 11.478,25.892 11.116 C 25.893 10.729,25.877 10.659,25.732 10.423 C 25.535 10.102,25.164 9.843,24.788 9.762 C 24.050 9.604,22.969 9.538,22.160 9.603 M6.747 9.916 C 6.362 10.009,6.118 10.266,6.031 10.668 C 5.950 11.046,5.950 21.008,6.031 21.386 C 6.101 21.711,6.293 21.954,6.584 22.086 C 6.783 22.177,6.984 22.184,9.104 22.185 C 10.850 22.186,11.556 22.167,12.018 22.107 C 14.446 21.788,15.639 20.656,15.644 18.667 C 15.646 17.743,15.446 17.173,14.926 16.616 C 14.580 16.246,14.097 15.965,13.493 15.785 C 13.273 15.719,13.057 15.655,13.013 15.641 C 12.969 15.628,13.080 15.564,13.259 15.498 C 14.282 15.124,14.810 14.491,14.940 13.483 C 15.008 12.956,14.947 12.348,14.777 11.865 C 14.379 10.731,13.358 10.096,11.656 9.925 C 11.019 9.861,7.006 9.854,6.747 9.916 M11.548 12.481 C 11.887 12.654,12.053 12.952,12.053 13.387 C 12.053 13.803,11.886 14.120,11.573 14.293 C 11.341 14.422,11.295 14.427,10.173 14.444 L 9.013 14.461 9.013 13.386 L 9.013 12.311 10.148 12.329 C 11.239 12.346,11.294 12.352,11.548 12.481 M11.934 17.114 C 12.468 17.354,12.672 17.742,12.628 18.434 C 12.599 18.881,12.424 19.234,12.147 19.404 C 11.759 19.641,11.445 19.692,10.200 19.720 L 9.013 19.746 9.013 18.349 L 9.013 16.952 10.333 16.970 C 11.587 16.987,11.667 16.994,11.934 17.114 " fill="var(--db-icon-color, currentColor)" stroke="none" fill-rule="evenodd"></path></svg>