<svg id="icon" height="20" viewBox="0 0 20 20" width="20" xmlns="http://www.w3.org/2000/svg"><path d="M3.567 2.052 C 2.885 2.198,2.347 2.680,2.110 3.356 C 2.027 3.591,2.018 3.660,2.019 4.067 C 2.020 4.587,2.048 4.678,2.286 4.933 C 2.688 5.363,3.329 5.353,3.733 4.910 C 3.923 4.703,4.000 4.495,4.000 4.194 L 4.000 4.000 10.000 4.000 L 16.000 4.000 16.000 4.211 C 16.000 4.524,16.079 4.718,16.298 4.936 C 16.723 5.362,17.331 5.351,17.733 4.910 C 17.939 4.685,18.000 4.497,18.000 4.083 C 18.000 3.475,17.814 3.013,17.401 2.597 C 17.112 2.306,16.795 2.130,16.417 2.050 C 16.076 1.979,3.900 1.980,3.567 2.052 M3.567 6.052 C 3.217 6.127,2.886 6.314,2.599 6.600 C 2.310 6.887,2.163 7.141,2.066 7.520 C 2.002 7.770,2.000 7.904,2.000 12.000 C 2.000 16.096,2.002 16.230,2.066 16.480 C 2.163 16.859,2.310 17.113,2.599 17.400 C 2.889 17.688,3.149 17.839,3.520 17.934 C 3.772 17.999,3.912 18.000,10.000 18.000 C 16.088 18.000,16.228 17.999,16.480 17.934 C 16.851 17.839,17.111 17.688,17.401 17.400 C 17.690 17.113,17.837 16.859,17.934 16.480 C 17.998 16.230,18.000 16.096,18.000 12.000 C 18.000 7.904,17.998 7.770,17.934 7.520 C 17.837 7.141,17.690 6.887,17.401 6.600 C 17.110 6.309,16.781 6.126,16.417 6.050 C 16.076 5.979,3.899 5.980,3.567 6.052 M14.783 8.137 C 15.044 8.169,15.688 8.311,15.721 8.343 C 15.728 8.350,15.703 8.736,15.667 9.202 C 15.630 9.669,15.601 10.068,15.600 10.090 C 15.600 10.118,15.542 10.109,15.408 10.063 C 14.604 9.781,13.648 9.764,13.134 10.021 C 12.889 10.143,12.649 10.373,12.537 10.592 C 12.287 11.082,12.205 12.109,12.356 12.867 C 12.490 13.540,12.857 13.909,13.536 14.054 C 13.726 14.094,13.911 14.103,14.333 14.090 C 14.868 14.075,15.031 14.048,15.585 13.883 C 15.651 13.863,15.658 13.890,15.746 14.573 C 15.796 14.964,15.846 15.337,15.855 15.403 L 15.873 15.522 15.562 15.610 C 14.210 15.988,12.775 15.917,11.903 15.429 C 11.116 14.989,10.656 14.237,10.479 13.098 C 10.406 12.627,10.407 11.641,10.481 11.156 C 10.623 10.234,10.970 9.490,11.491 8.995 C 11.976 8.533,12.637 8.234,13.388 8.138 C 13.721 8.095,14.437 8.095,14.783 8.137 M7.817 8.381 C 7.945 8.413,8.186 8.504,8.353 8.584 C 8.937 8.864,9.226 9.313,9.287 10.033 C 9.353 10.820,9.027 11.365,8.306 11.669 C 8.181 11.721,8.106 11.769,8.134 11.778 C 8.161 11.786,8.281 11.819,8.400 11.850 C 9.052 12.021,9.530 12.473,9.671 13.054 C 9.729 13.294,9.720 13.909,9.654 14.163 C 9.493 14.786,9.052 15.230,8.359 15.469 C 7.798 15.662,7.618 15.677,5.675 15.691 L 3.900 15.705 3.900 12.000 L 3.900 8.296 5.742 8.309 C 7.358 8.320,7.612 8.329,7.817 8.381 M5.700 10.413 L 5.700 11.067 6.311 11.067 C 7.014 11.067,7.213 11.027,7.387 10.853 C 7.575 10.665,7.615 10.296,7.474 10.054 C 7.441 9.998,7.341 9.915,7.250 9.868 C 7.092 9.787,7.058 9.783,6.393 9.772 L 5.700 9.760 5.700 10.413 M5.700 13.383 L 5.700 14.200 6.408 14.200 C 7.110 14.199,7.329 14.174,7.535 14.067 C 7.983 13.837,8.074 13.125,7.699 12.787 C 7.487 12.595,7.328 12.567,6.461 12.567 L 5.700 12.567 5.700 13.383 " fill="var(--db-icon-color, currentColor)" stroke="none" fill-rule="evenodd"></path></svg>