<svg id="icon" height="20" viewBox="0 0 20 20" width="20" xmlns="http://www.w3.org/2000/svg"><path d="M4.197 2.060 C 3.790 2.168,3.449 2.431,3.221 2.811 C 2.986 3.203,3.000 2.745,3.000 10.000 C 3.000 17.255,2.986 16.797,3.221 17.189 C 3.449 17.570,3.792 17.833,4.197 17.939 C 4.400 17.992,4.775 17.996,9.000 17.996 C 13.225 17.996,13.600 17.992,13.803 17.939 C 14.366 17.792,14.825 17.318,14.950 16.754 C 14.995 16.554,15.001 16.298,14.993 15.117 L 14.983 13.717 14.894 13.547 C 14.794 13.357,14.634 13.203,14.424 13.094 C 14.225 12.990,13.814 12.988,13.593 13.089 C 13.368 13.193,13.156 13.419,13.071 13.646 C 13.004 13.825,13.000 13.895,13.000 14.918 L 13.000 16.000 9.000 16.000 L 5.000 16.000 5.000 10.003 L 5.000 4.005 5.642 3.994 C 6.262 3.984,6.289 3.980,6.450 3.895 C 6.649 3.789,6.798 3.638,6.904 3.433 C 6.969 3.310,6.983 3.232,6.982 3.000 C 6.982 2.758,6.970 2.692,6.893 2.547 C 6.794 2.359,6.637 2.205,6.424 2.092 C 6.289 2.020,6.247 2.016,5.350 2.009 C 4.550 2.003,4.385 2.010,4.197 2.060 M12.067 2.021 C 11.195 2.131,10.457 2.425,9.795 2.924 C 8.907 3.592,8.319 4.533,8.077 5.667 C 7.993 6.062,7.993 6.938,8.077 7.333 C 8.277 8.270,8.675 9.011,9.332 9.668 C 9.989 10.325,10.730 10.723,11.667 10.923 C 12.062 11.007,12.938 11.007,13.333 10.923 C 14.270 10.723,15.011 10.325,15.668 9.668 C 16.195 9.141,16.537 8.592,16.766 7.907 C 16.939 7.387,16.983 7.103,16.983 6.500 C 16.983 5.897,16.939 5.613,16.766 5.093 C 16.259 3.571,14.961 2.420,13.391 2.098 C 13.061 2.030,12.329 1.988,12.067 2.021 M13.300 4.153 C 13.637 4.259,13.932 4.437,14.223 4.712 C 14.693 5.156,14.943 5.690,14.988 6.350 C 15.083 7.754,13.914 9.000,12.500 9.000 C 11.088 9.000,9.915 7.752,10.013 6.354 C 10.038 5.993,10.220 5.414,10.306 5.421 C 10.335 5.423,10.879 5.749,11.516 6.146 C 12.153 6.542,12.687 6.867,12.704 6.867 C 12.721 6.867,12.733 6.258,12.733 5.448 L 12.733 4.029 12.892 4.052 C 12.979 4.065,13.162 4.110,13.300 4.153 M7.750 12.030 C 7.488 12.096,7.237 12.298,7.107 12.547 C 7.030 12.692,7.018 12.757,7.018 13.000 C 7.018 13.242,7.030 13.308,7.106 13.450 C 7.211 13.648,7.362 13.797,7.567 13.905 L 7.717 13.983 9.000 13.983 L 10.283 13.983 10.433 13.905 C 10.638 13.797,10.789 13.648,10.894 13.450 C 10.970 13.308,10.982 13.242,10.982 13.000 C 10.982 12.757,10.970 12.692,10.893 12.547 C 10.794 12.359,10.637 12.205,10.424 12.092 C 10.286 12.018,10.260 12.017,9.067 12.011 C 8.398 12.008,7.805 12.016,7.750 12.030 " fill="var(--db-icon-color, currentColor)" stroke="none" fill-rule="evenodd"></path></svg>