<svg id="icon" height="20" viewBox="0 0 20 20" width="20" xmlns="http://www.w3.org/2000/svg"><path d="M3.567 4.052 C 3.217 4.127,2.886 4.314,2.599 4.600 C 2.310 4.887,2.163 5.141,2.066 5.520 C 2.002 5.770,2.000 5.904,2.000 10.000 C 2.000 14.096,2.002 14.230,2.066 14.480 C 2.163 14.859,2.310 15.113,2.599 15.400 C 2.889 15.688,3.149 15.839,3.520 15.934 C 3.772 15.999,3.912 16.000,10.000 16.000 C 16.088 16.000,16.228 15.999,16.480 15.934 C 16.851 15.839,17.111 15.688,17.401 15.400 C 17.690 15.113,17.837 14.859,17.934 14.480 C 17.998 14.230,18.000 14.096,18.000 10.000 C 18.000 5.904,17.998 5.770,17.934 5.520 C 17.837 5.141,17.690 4.887,17.401 4.600 C 17.110 4.309,16.781 4.126,16.417 4.050 C 16.076 3.979,3.899 3.980,3.567 4.052 M16.000 10.000 L 16.000 14.000 10.000 14.000 L 4.000 14.000 4.000 10.000 L 4.000 6.000 10.000 6.000 L 16.000 6.000 16.000 10.000 M13.020 6.901 C 11.702 7.051,10.881 7.745,10.569 8.971 C 10.364 9.778,10.423 10.854,10.712 11.567 C 10.967 12.198,11.429 12.653,12.062 12.895 C 12.619 13.109,13.307 13.177,13.987 13.087 C 14.379 13.035,14.952 12.893,15.014 12.833 C 15.041 12.806,14.856 11.312,14.821 11.276 C 14.813 11.269,14.744 11.279,14.667 11.300 C 14.116 11.448,13.355 11.479,12.995 11.368 C 12.483 11.209,12.300 10.855,12.300 10.021 C 12.300 9.204,12.447 8.861,12.883 8.660 C 13.037 8.590,13.094 8.583,13.600 8.585 C 14.040 8.586,14.219 8.602,14.496 8.661 C 14.686 8.703,14.848 8.730,14.856 8.722 C 14.877 8.701,15.002 7.091,14.985 7.074 C 14.977 7.066,14.763 7.024,14.510 6.981 C 13.972 6.890,13.391 6.859,13.020 6.901 M5.033 9.999 L 5.033 13.005 6.642 12.992 C 8.249 12.980,8.250 12.980,8.568 12.894 C 9.364 12.678,9.769 12.317,9.916 11.692 C 10.009 11.298,9.954 10.805,9.784 10.514 C 9.621 10.236,9.260 9.997,8.842 9.891 L 8.667 9.847 8.865 9.756 C 9.186 9.609,9.379 9.434,9.506 9.177 C 9.610 8.965,9.617 8.931,9.617 8.601 C 9.617 8.196,9.559 7.968,9.395 7.720 C 9.264 7.522,8.965 7.296,8.707 7.199 C 8.289 7.042,8.133 7.028,6.542 7.010 L 5.033 6.992 5.033 9.999 M7.790 8.532 C 7.964 8.611,8.027 8.780,7.959 8.985 C 7.880 9.218,7.799 9.249,7.214 9.261 L 6.700 9.271 6.700 8.869 L 6.700 8.467 7.175 8.467 C 7.570 8.468,7.674 8.479,7.790 8.532 M8.025 10.576 C 8.173 10.657,8.235 10.763,8.254 10.972 C 8.277 11.219,8.201 11.358,7.983 11.467 C 7.829 11.544,7.775 11.551,7.258 11.561 L 6.700 11.572 6.700 11.033 L 6.700 10.495 7.308 10.506 C 7.813 10.515,7.935 10.527,8.025 10.576 " fill="var(--db-icon-color, currentColor)" stroke="none" fill-rule="evenodd"></path></svg>