<svg id="icon" height="20" viewBox="0 0 20 20" width="20" xmlns="http://www.w3.org/2000/svg"><path d="M3.567 2.052 C 3.295 2.110,2.865 2.322,2.663 2.498 C 2.454 2.679,2.220 3.031,2.109 3.333 L 2.017 3.583 2.007 9.883 C 1.997 16.877,1.983 16.407,2.219 16.900 C 2.305 17.080,2.403 17.211,2.593 17.401 C 2.884 17.692,3.135 17.836,3.526 17.936 C 3.768 17.998,3.936 18.000,8.000 18.000 C 12.112 18.000,12.230 17.998,12.483 17.933 C 12.832 17.844,13.137 17.668,13.403 17.403 C 13.668 17.137,13.844 16.832,13.933 16.483 C 13.992 16.254,14.000 16.113,14.000 15.313 C 14.000 14.483,13.994 14.387,13.933 14.224 C 13.846 13.991,13.684 13.806,13.462 13.682 C 13.303 13.594,13.252 13.583,13.000 13.583 C 12.748 13.583,12.697 13.594,12.538 13.682 C 12.316 13.806,12.154 13.991,12.067 14.224 C 12.007 14.384,12.000 14.483,12.000 15.201 L 12.000 16.000 8.000 16.000 L 4.000 16.000 4.000 10.000 L 4.000 4.000 5.582 4.000 C 7.118 4.000,7.170 3.998,7.355 3.929 C 7.753 3.780,8.020 3.370,7.994 2.948 C 7.968 2.534,7.680 2.166,7.292 2.051 C 7.052 1.979,3.899 1.980,3.567 2.052 M12.401 2.040 C 11.290 2.164,10.212 2.709,9.395 3.559 C 8.748 4.234,8.333 5.008,8.113 5.950 C 8.028 6.317,8.020 6.404,8.021 7.000 C 8.022 7.540,8.034 7.705,8.094 7.976 C 8.319 8.995,8.752 9.791,9.481 10.519 C 10.200 11.238,10.952 11.654,11.950 11.887 C 12.316 11.972,12.406 11.980,13.000 11.980 C 13.594 11.980,13.684 11.972,14.050 11.887 C 15.048 11.654,15.800 11.238,16.519 10.519 C 17.254 9.784,17.683 8.995,17.905 7.967 C 18.014 7.461,18.014 6.539,17.905 6.033 C 17.695 5.063,17.268 4.251,16.606 3.560 C 15.495 2.403,14.000 1.863,12.401 2.040 M14.000 5.295 L 14.000 6.590 14.583 7.163 C 14.904 7.478,15.167 7.746,15.167 7.758 C 15.167 7.784,13.833 9.142,13.788 9.162 C 13.772 9.169,13.363 8.779,12.879 8.296 L 12.000 7.417 12.000 5.709 L 12.000 4.000 13.000 4.000 L 14.000 4.000 14.000 5.295 M5.744 12.030 C 5.579 12.072,5.348 12.221,5.235 12.358 C 4.821 12.860,4.982 13.593,5.576 13.908 C 5.688 13.967,5.771 13.982,5.983 13.982 C 6.305 13.982,6.491 13.909,6.700 13.700 C 7.309 13.091,6.913 12.060,6.052 12.014 C 5.941 12.008,5.802 12.015,5.744 12.030 M8.713 12.045 C 8.507 12.113,8.287 12.279,8.170 12.455 C 7.898 12.866,7.958 13.354,8.324 13.715 C 8.588 13.975,8.930 14.057,9.298 13.948 C 9.653 13.842,10.000 13.377,10.000 13.005 C 10.000 12.506,9.556 12.043,9.051 12.012 C 8.938 12.006,8.790 12.020,8.713 12.045 " fill="var(--db-icon-color, currentColor)" stroke="none" fill-rule="evenodd"></path></svg>