<svg id="icon" height="24" viewBox="0 0 24 24" width="24" xmlns="http://www.w3.org/2000/svg"><path d="M11.647 2.065 C 11.283 2.199,11.263 2.233,9.865 5.030 C 9.147 6.465,8.553 7.640,8.544 7.640 C 8.536 7.640,7.348 7.053,5.905 6.335 C 3.995 5.386,3.231 5.025,3.100 5.010 C 2.568 4.950,2.064 5.358,2.015 5.888 C 1.986 6.197,4.000 17.218,4.133 17.480 C 4.238 17.686,4.494 17.898,4.711 17.958 C 4.811 17.986,7.206 18.000,12.003 18.000 C 18.547 18.000,19.162 17.994,19.340 17.934 C 19.597 17.846,19.850 17.591,19.933 17.336 C 20.041 17.005,22.000 6.191,22.000 5.928 C 22.000 5.709,21.814 5.366,21.613 5.215 C 21.408 5.061,21.102 4.982,20.853 5.019 C 20.728 5.038,19.834 5.464,18.074 6.343 C 16.647 7.056,15.470 7.640,15.460 7.640 C 15.449 7.640,14.862 6.484,14.156 5.070 C 13.450 3.656,12.828 2.442,12.775 2.371 C 12.542 2.062,12.032 1.923,11.647 2.065 M13.108 7.456 C 14.295 9.827,14.310 9.851,14.701 9.960 C 15.089 10.069,15.128 10.054,17.468 8.885 C 18.663 8.289,19.640 7.819,19.640 7.841 C 19.640 7.884,18.215 15.752,18.179 15.910 L 18.158 16.000 12.000 16.000 L 5.842 16.000 5.821 15.910 C 5.784 15.751,4.360 7.884,4.360 7.841 C 4.360 7.818,5.335 8.288,6.527 8.884 C 8.910 10.075,8.911 10.076,9.321 9.940 C 9.716 9.808,9.755 9.746,10.920 7.408 C 11.503 6.238,11.989 5.280,12.000 5.280 C 12.011 5.280,12.510 6.259,13.108 7.456 M4.182 20.059 C 3.715 20.227,3.419 20.730,3.521 21.185 C 3.578 21.438,3.649 21.563,3.831 21.727 C 4.162 22.026,3.452 22.003,12.060 21.991 L 19.780 21.980 19.966 21.871 C 20.309 21.669,20.488 21.371,20.490 21.000 C 20.492 20.621,20.293 20.297,19.940 20.106 L 19.780 20.020 12.060 20.012 C 5.504 20.004,4.316 20.012,4.182 20.059 " fill="var(--db-icon-color, currentColor)" stroke="none" fill-rule="evenodd"></path></svg>