<svg id="icon" height="24" viewBox="0 0 24 24" width="24" xmlns="http://www.w3.org/2000/svg"><path d="M15.220 2.025 C 12.830 2.285,10.875 3.909,10.221 6.180 C 9.993 6.969,9.931 7.970,10.062 8.753 C 10.367 10.587,11.587 12.214,13.260 13.019 C 14.087 13.416,14.819 13.578,15.780 13.576 C 16.513 13.574,16.978 13.502,17.600 13.295 C 19.288 12.732,20.677 11.365,21.252 9.699 C 22.194 6.976,21.002 4.002,18.432 2.660 C 17.946 2.406,17.323 2.190,16.820 2.101 C 16.459 2.037,15.519 1.993,15.220 2.025 M17.060 4.575 C 17.425 4.748,17.638 5.081,17.638 5.480 C 17.638 5.849,17.550 5.977,16.723 6.814 L 15.965 7.580 16.721 8.343 C 17.539 9.168,17.639 9.311,17.637 9.660 C 17.635 10.230,17.230 10.639,16.669 10.640 C 16.542 10.640,16.373 10.613,16.293 10.580 C 16.204 10.542,15.687 10.069,14.929 9.330 C 13.485 7.923,13.428 7.840,13.564 7.340 C 13.600 7.206,13.812 6.974,14.873 5.909 C 15.653 5.127,16.201 4.608,16.300 4.559 C 16.520 4.450,16.809 4.457,17.060 4.575 M6.634 7.496 C 5.575 7.975,4.606 8.705,3.949 9.520 C 2.394 11.444,1.997 14.150,2.908 16.600 C 3.427 17.998,4.386 19.231,5.580 20.039 C 6.210 20.464,6.869 20.762,7.620 20.960 C 8.212 21.116,8.471 21.158,9.089 21.199 C 12.011 21.393,14.718 19.812,16.042 17.140 C 16.249 16.723,16.260 16.684,16.260 16.393 C 16.260 16.117,16.248 16.070,16.139 15.914 C 15.968 15.671,15.704 15.518,15.410 15.492 C 14.902 15.445,14.663 15.631,14.316 16.345 C 13.921 17.156,13.416 17.782,12.757 18.277 C 11.024 19.578,8.478 19.608,6.573 18.350 C 5.530 17.661,4.787 16.622,4.473 15.411 C 4.365 14.998,4.348 14.854,4.331 14.240 C 4.316 13.703,4.327 13.451,4.377 13.160 C 4.570 12.032,5.036 11.126,5.840 10.317 C 6.313 9.841,6.730 9.548,7.370 9.239 C 7.955 8.957,8.132 8.735,8.132 8.280 C 8.132 7.748,7.726 7.322,7.220 7.322 C 7.069 7.321,6.925 7.364,6.634 7.496 M7.741 11.163 C 7.375 11.345,7.128 11.759,7.176 12.110 C 7.210 12.366,7.306 12.525,8.018 13.506 L 8.672 14.407 8.818 15.034 C 8.998 15.804,9.057 15.971,9.211 16.147 C 9.577 16.563,10.232 16.566,10.581 16.152 C 10.744 15.959,10.838 15.725,10.839 15.512 C 10.840 15.296,10.519 13.916,10.400 13.625 C 10.297 13.373,8.909 11.426,8.745 11.303 C 8.420 11.060,8.050 11.008,7.741 11.163 " fill="var(--db-icon-color, currentColor)" stroke="none" fill-rule="evenodd"></path></svg>