<svg id="icon" height="32" viewBox="0 0 32 32" width="32" xmlns="http://www.w3.org/2000/svg"><path d="M4.220 6.111 C 3.543 6.293,2.861 6.794,2.473 7.396 C 2.375 7.548,2.229 7.860,2.148 8.089 L 2.000 8.507 2.000 16.000 L 2.000 23.493 2.148 23.911 C 2.490 24.878,3.122 25.510,4.089 25.852 L 4.507 26.000 16.000 26.000 L 27.493 26.000 27.911 25.852 C 28.424 25.671,28.796 25.434,29.154 25.060 C 29.508 24.690,29.673 24.419,29.853 23.908 L 30.000 23.493 30.000 16.000 L 30.000 8.507 29.852 8.089 C 29.582 7.324,29.077 6.719,28.423 6.375 C 27.708 6.000,28.672 6.026,15.975 6.030 C 6.147 6.033,4.466 6.045,4.220 6.111 M8.649 8.372 C 8.052 9.082,7.793 9.736,7.748 10.641 C 7.693 11.763,8.021 12.608,8.826 13.419 C 9.224 13.819,9.389 13.944,9.761 14.124 C 11.322 14.879,13.055 14.546,14.212 13.268 C 14.585 12.856,14.958 12.122,15.073 11.573 C 15.315 10.416,14.960 9.170,14.140 8.306 L 13.849 7.998 20.591 8.013 L 27.333 8.027 27.524 8.156 C 27.629 8.227,27.773 8.371,27.844 8.476 L 27.973 8.667 27.973 16.000 L 27.973 23.333 27.843 23.526 C 27.771 23.632,27.629 23.776,27.527 23.846 L 27.341 23.973 22.181 23.987 L 17.022 24.002 17.354 23.667 C 17.978 23.042,18.245 22.192,18.074 21.376 C 17.742 19.782,16.015 18.944,14.520 19.652 C 13.383 20.190,12.838 21.553,13.284 22.744 C 13.423 23.118,13.801 23.632,14.088 23.840 L 14.312 24.002 9.485 23.988 L 4.659 23.973 4.473 23.846 C 4.371 23.776,4.229 23.632,4.157 23.526 L 4.027 23.333 4.027 16.000 L 4.027 8.667 4.159 8.480 C 4.333 8.234,4.472 8.119,4.667 8.059 C 4.755 8.032,5.757 8.007,6.894 8.005 L 8.961 8.000 8.649 8.372 M19.571 9.860 C 18.406 10.115,17.302 10.851,16.639 11.814 C 16.034 12.694,15.721 13.921,15.838 14.962 C 16.058 16.939,17.378 18.512,19.283 19.067 C 21.085 19.592,23.088 18.946,24.271 17.457 C 25.319 16.138,25.597 14.306,24.982 12.766 C 24.427 11.377,23.266 10.336,21.804 9.917 C 21.233 9.754,20.179 9.727,19.571 9.860 " fill="var(--db-icon-color, currentColor)" stroke="none" fill-rule="evenodd"></path></svg>