<svg id="icon" height="20" viewBox="0 0 20 20" width="20" xmlns="http://www.w3.org/2000/svg"><path d="M4.883 2.188 C 4.332 2.277,3.680 2.565,3.242 2.914 C 1.866 4.010,1.596 6.100,2.647 7.526 C 3.506 8.691,5.022 9.181,6.417 8.743 C 7.381 8.440,8.141 7.716,8.514 6.743 C 8.781 6.049,8.820 5.331,8.631 4.634 C 8.320 3.494,7.378 2.572,6.205 2.261 C 5.953 2.194,5.129 2.149,4.883 2.188 M13.017 4.647 C 12.021 4.814,11.211 5.242,10.523 5.966 C 9.952 6.566,9.596 7.255,9.413 8.117 C 9.327 8.521,9.335 9.316,9.429 9.758 C 9.978 12.342,12.619 13.861,15.083 13.009 C 16.191 12.626,17.076 11.830,17.581 10.763 C 18.067 9.735,18.129 8.524,17.749 7.467 C 17.241 6.053,16.044 5.010,14.550 4.681 C 14.225 4.610,13.354 4.590,13.017 4.647 M8.920 13.370 C 8.421 13.425,8.000 13.633,7.614 14.016 C 7.314 14.313,7.183 14.521,7.045 14.917 C 6.963 15.154,6.953 15.229,6.954 15.600 C 6.954 15.967,6.966 16.049,7.046 16.283 C 7.182 16.677,7.314 16.886,7.614 17.184 C 8.060 17.626,8.560 17.833,9.183 17.833 C 10.058 17.833,10.824 17.358,11.203 16.579 C 11.511 15.947,11.511 15.253,11.203 14.621 C 10.784 13.758,9.881 13.264,8.920 13.370 " fill="var(--db-icon-color, currentColor)" stroke="none" fill-rule="evenodd"></path></svg>