<svg id="icon" height="32" viewBox="0 0 32 32" width="32" xmlns="http://www.w3.org/2000/svg"><path d="M11.125 2.562 C 8.726 2.940,6.802 4.677,6.189 7.019 C 5.395 10.049,7.156 13.234,10.160 14.202 C 10.862 14.429,11.187 14.477,12.000 14.477 C 12.813 14.477,13.138 14.429,13.840 14.202 C 15.761 13.583,17.273 12.001,17.785 10.073 C 18.654 6.807,16.732 3.532,13.449 2.685 C 12.868 2.535,11.690 2.473,11.125 2.562 M12.980 4.638 C 14.819 5.109,16.119 6.900,15.982 8.773 C 15.875 10.229,15.049 11.445,13.733 12.080 C 13.068 12.401,12.577 12.499,11.795 12.467 C 10.702 12.422,9.963 12.095,9.171 11.307 C 8.796 10.933,8.672 10.765,8.465 10.347 C 8.172 9.758,8.061 9.367,8.018 8.773 C 7.876 6.834,9.274 4.981,11.173 4.589 C 11.599 4.501,12.545 4.527,12.980 4.638 M19.241 15.070 C 18.267 15.306,17.448 16.070,17.146 17.025 L 17.013 17.446 17.014 22.469 C 17.015 27.979,17.001 27.733,17.340 28.421 C 17.682 29.116,18.518 29.755,19.296 29.915 C 19.485 29.954,20.884 29.973,23.528 29.973 C 26.959 29.973,27.521 29.962,27.806 29.889 C 28.799 29.633,29.578 28.861,29.902 27.811 C 29.994 27.512,30.000 27.193,30.000 22.480 C 30.000 17.765,29.994 17.448,29.902 17.147 C 29.576 16.084,28.772 15.315,27.731 15.069 C 27.243 14.954,19.715 14.955,19.241 15.070 M6.524 15.279 C 4.507 15.645,2.955 17.004,2.321 18.959 C 2.003 19.940,2.006 19.880,2.023 24.747 C 2.035 28.493,2.050 29.230,2.115 29.387 C 2.431 30.149,3.483 30.196,3.885 29.467 C 3.965 29.323,3.976 28.854,4.004 24.747 C 4.034 20.228,4.035 20.183,4.154 19.765 C 4.454 18.707,5.059 17.949,5.947 17.521 C 6.345 17.329,6.875 17.173,7.132 17.173 C 7.219 17.173,7.575 17.316,7.925 17.489 C 9.043 18.046,10.152 18.351,11.435 18.455 C 12.335 18.528,13.706 18.400,14.118 18.204 C 14.771 17.894,14.836 16.895,14.230 16.494 C 14.027 16.360,14.014 16.358,13.452 16.405 C 12.600 16.477,11.231 16.463,10.800 16.379 C 10.147 16.252,9.200 15.911,8.495 15.550 L 7.811 15.200 7.359 15.205 C 7.110 15.207,6.735 15.241,6.524 15.279 M27.463 17.091 C 27.670 17.199,27.879 17.459,27.948 17.696 C 27.987 17.832,28.000 19.363,27.989 22.622 L 27.973 27.350 27.810 27.555 C 27.721 27.668,27.541 27.814,27.412 27.880 L 27.177 28.000 23.549 28.000 C 21.217 28.000,19.849 27.980,19.722 27.944 C 19.482 27.878,19.229 27.674,19.105 27.447 C 19.020 27.293,19.013 26.913,19.013 22.480 C 19.013 17.283,19.000 17.531,19.288 17.270 C 19.580 17.006,19.441 17.014,23.509 17.014 C 26.744 17.013,27.335 17.025,27.463 17.091 M20.556 24.101 C 19.830 24.431,19.825 25.511,20.547 25.860 C 20.749 25.958,20.876 25.973,21.485 25.973 C 22.416 25.973,22.656 25.878,22.891 25.418 C 23.133 24.945,22.915 24.321,22.433 24.102 C 22.114 23.957,20.873 23.957,20.556 24.101 M24.556 24.101 C 23.830 24.431,23.825 25.511,24.547 25.860 C 24.749 25.958,24.876 25.973,25.485 25.973 C 26.416 25.973,26.656 25.878,26.891 25.418 C 27.133 24.945,26.915 24.321,26.433 24.102 C 26.114 23.957,24.873 23.957,24.556 24.101 " fill="var(--db-icon-color, currentColor)" stroke="none" fill-rule="evenodd"></path></svg>