<svg id="icon" height="24" viewBox="0 0 24 24" width="24" xmlns="http://www.w3.org/2000/svg"><path d="M5.000 2.073 C 4.364 2.239,3.828 2.745,3.593 3.400 L 3.500 3.660 3.500 11.740 C 3.500 20.669,3.479 19.988,3.769 20.600 C 3.985 21.055,4.444 21.522,4.884 21.734 C 5.463 22.012,5.184 21.999,10.460 21.999 C 15.779 21.999,15.516 22.012,16.119 21.714 C 16.571 21.491,17.002 21.068,17.214 20.639 C 17.505 20.050,17.493 20.189,17.510 17.268 C 17.523 14.992,17.516 14.608,17.463 14.426 C 17.326 13.953,16.970 13.680,16.491 13.680 C 16.077 13.680,15.803 13.846,15.608 14.215 L 15.500 14.420 15.480 17.067 L 15.460 19.714 15.366 19.814 C 15.314 19.869,15.224 19.933,15.166 19.957 C 15.091 19.988,13.710 19.998,10.407 19.991 L 5.753 19.980 5.637 19.849 L 5.520 19.719 5.520 11.859 L 5.520 4.000 7.065 4.000 C 8.134 4.000,8.659 3.985,8.768 3.953 C 8.962 3.895,9.258 3.639,9.358 3.444 C 9.633 2.905,9.358 2.229,8.796 2.063 C 8.472 1.966,5.375 1.974,5.000 2.073 M14.820 2.046 C 14.067 2.142,13.188 2.496,12.578 2.950 C 12.216 3.219,11.763 3.668,11.499 4.020 C 11.104 4.547,10.720 5.456,10.596 6.160 C 10.527 6.546,10.527 7.454,10.596 7.840 C 10.925 9.697,12.253 11.218,14.034 11.776 C 15.009 12.082,16.121 12.067,17.119 11.734 C 18.563 11.253,19.755 10.057,20.237 8.605 C 20.414 8.073,20.492 7.582,20.491 7.000 C 20.490 5.975,20.217 5.075,19.649 4.220 C 18.610 2.659,16.712 1.805,14.820 2.046 M17.308 4.454 C 17.816 4.828,18.236 5.481,18.405 6.158 C 18.478 6.448,18.487 6.572,18.468 7.018 C 18.443 7.618,18.379 7.889,18.156 8.337 C 17.669 9.313,16.757 9.921,15.679 9.988 C 14.275 10.074,13.010 9.121,12.637 7.695 C 12.542 7.335,12.508 6.396,12.586 6.318 C 12.617 6.287,12.970 6.492,13.865 7.063 C 14.544 7.496,15.158 7.875,15.229 7.905 C 15.628 8.075,16.209 7.809,16.417 7.360 C 16.496 7.189,16.501 7.103,16.512 5.591 L 16.525 4.001 16.792 4.136 C 16.940 4.211,17.171 4.353,17.308 4.454 M8.189 12.056 C 7.831 12.187,7.599 12.447,7.523 12.806 C 7.450 13.144,7.557 13.472,7.826 13.732 C 8.091 13.990,8.196 14.006,9.567 13.992 L 10.780 13.980 10.972 13.867 C 11.633 13.478,11.633 12.522,10.972 12.133 L 10.780 12.020 9.560 12.011 C 8.605 12.003,8.307 12.013,8.189 12.056 M8.150 16.061 C 7.631 16.251,7.366 16.869,7.579 17.390 C 7.669 17.610,7.985 17.894,8.208 17.956 C 8.334 17.991,8.969 18.001,10.580 17.992 C 13.012 17.979,12.881 17.993,13.157 17.717 C 13.591 17.283,13.557 16.571,13.087 16.212 C 12.994 16.141,12.851 16.065,12.769 16.042 C 12.674 16.016,11.833 16.001,10.460 16.003 C 8.731 16.005,8.270 16.017,8.150 16.061 " fill="var(--db-icon-color, currentColor)" stroke="none" fill-rule="evenodd"></path></svg>