<svg id="icon" height="24" viewBox="0 0 24 24" width="24" xmlns="http://www.w3.org/2000/svg"><path d="M4.513 2.041 C 3.333 2.240,2.419 3.070,2.093 4.240 C 2.024 4.487,2.020 4.876,2.020 12.000 C 2.020 20.424,1.993 19.662,2.320 20.340 C 2.674 21.073,3.293 21.599,4.140 21.885 L 4.420 21.980 8.840 21.991 C 13.683 22.004,13.554 22.009,14.148 21.768 C 14.979 21.429,15.640 20.658,15.887 19.740 C 15.966 19.446,15.973 19.318,15.977 18.140 C 15.980 16.739,15.971 16.666,15.750 16.414 C 15.508 16.139,15.071 16.016,14.701 16.120 C 14.484 16.181,14.199 16.420,14.095 16.629 C 14.028 16.764,14.018 16.913,14.000 18.040 C 13.978 19.450,13.983 19.421,13.673 19.722 C 13.373 20.013,13.594 20.000,8.987 20.000 C 5.947 20.000,4.828 19.988,4.712 19.953 C 4.513 19.893,4.223 19.640,4.108 19.425 L 4.020 19.260 4.020 12.000 C 4.020 4.996,4.023 4.735,4.094 4.600 C 4.198 4.405,4.391 4.208,4.580 4.106 C 4.735 4.022,4.791 4.019,6.520 4.000 C 8.158 3.982,8.312 3.974,8.451 3.905 C 8.793 3.735,9.036 3.269,8.984 2.884 C 8.932 2.494,8.638 2.139,8.289 2.042 C 8.114 1.993,4.801 1.992,4.513 2.041 M15.440 2.027 C 14.709 2.099,13.937 2.326,13.281 2.661 C 11.605 3.518,10.467 5.045,10.092 6.940 C 9.984 7.482,9.995 8.638,10.113 9.188 C 10.627 11.583,12.415 13.371,14.812 13.887 C 15.410 14.016,16.561 14.015,17.160 13.886 C 19.301 13.424,20.972 11.967,21.677 9.948 C 21.911 9.275,21.975 8.864,21.976 8.020 C 21.977 7.378,21.963 7.195,21.886 6.840 C 21.758 6.245,21.588 5.771,21.315 5.240 C 20.402 3.471,18.628 2.256,16.648 2.044 C 16.261 2.003,15.757 1.995,15.440 2.027 M15.628 4.686 C 15.840 4.764,15.960 4.871,17.032 5.935 C 17.676 6.576,18.269 7.195,18.349 7.311 C 18.465 7.480,18.498 7.569,18.512 7.753 C 18.542 8.165,18.486 8.238,17.130 9.580 C 15.792 10.904,15.666 11.001,15.285 10.998 C 14.705 10.994,14.295 10.624,14.250 10.063 C 14.215 9.625,14.313 9.472,15.211 8.570 L 15.978 7.799 15.212 7.030 C 14.326 6.139,14.260 6.041,14.260 5.600 C 14.260 5.344,14.276 5.272,14.371 5.111 C 14.432 5.007,14.559 4.869,14.654 4.804 C 14.970 4.587,15.264 4.551,15.628 4.686 M5.715 16.053 C 5.261 16.223,4.999 16.575,5.000 17.015 C 5.001 17.376,5.359 17.847,5.712 17.953 C 6.051 18.055,6.354 17.986,6.628 17.744 C 7.185 17.254,7.088 16.451,6.433 16.116 C 6.226 16.011,5.904 15.982,5.715 16.053 M8.670 16.057 C 7.875 16.341,7.772 17.435,8.499 17.862 C 9.191 18.267,10.070 17.694,9.988 16.893 C 9.923 16.268,9.259 15.847,8.670 16.057 M11.760 16.035 C 11.272 16.195,10.960 16.633,11.013 17.082 C 11.077 17.620,11.585 18.048,12.092 17.991 C 12.867 17.904,13.255 17.006,12.783 16.387 C 12.577 16.118,12.056 15.938,11.760 16.035 " fill="var(--db-icon-color, currentColor)" stroke="none" fill-rule="evenodd"></path></svg>