<svg id="icon" height="24" viewBox="0 0 24 24" width="24" xmlns="http://www.w3.org/2000/svg"><path d="M4.608 4.043 C 3.548 4.180,2.612 4.907,2.222 5.894 C 1.996 6.467,2.001 6.346,2.001 10.923 C 2.000 15.628,1.985 15.371,2.275 15.670 C 2.681 16.088,3.300 16.102,3.700 15.702 C 4.018 15.384,4.000 15.662,4.000 11.020 C 4.000 6.417,3.988 6.626,4.272 6.333 C 4.355 6.247,4.495 6.142,4.582 6.098 C 4.736 6.022,4.882 6.020,11.020 6.000 L 17.300 5.980 17.489 5.869 C 18.067 5.529,18.168 4.766,17.697 4.295 C 17.380 3.978,17.866 3.999,10.983 4.005 C 7.615 4.008,4.746 4.025,4.608 4.043 M7.640 8.045 C 6.915 8.162,6.258 8.786,6.060 9.548 C 5.969 9.897,5.970 18.109,6.061 18.458 C 6.246 19.170,6.830 19.754,7.542 19.939 C 7.748 19.992,8.540 20.000,13.986 20.000 C 18.365 20.000,20.259 19.987,20.408 19.956 C 20.948 19.843,21.532 19.398,21.769 18.920 C 22.008 18.435,22.000 18.610,22.000 14.014 C 22.000 11.095,21.986 9.739,21.956 9.592 C 21.802 8.852,21.192 8.240,20.430 8.060 C 20.215 8.009,19.321 8.002,14.020 8.005 C 10.632 8.008,7.761 8.025,7.640 8.045 M20.000 14.000 L 20.000 18.000 14.000 18.000 L 8.000 18.000 8.000 14.000 L 8.000 10.000 14.000 10.000 L 20.000 10.000 20.000 14.000 M16.880 11.041 C 15.551 11.226,14.699 12.068,14.481 13.409 C 14.419 13.790,14.431 14.663,14.503 15.042 C 14.675 15.949,15.122 16.587,15.818 16.919 C 16.272 17.135,16.578 17.204,17.197 17.229 C 17.802 17.254,18.254 17.202,18.722 17.056 L 19.024 16.961 18.919 16.201 C 18.861 15.783,18.805 15.432,18.795 15.422 C 18.785 15.411,18.606 15.438,18.398 15.481 C 17.942 15.575,17.259 15.586,16.985 15.503 C 16.710 15.421,16.526 15.262,16.406 15.004 C 16.313 14.806,16.299 14.720,16.287 14.255 C 16.270 13.640,16.317 13.364,16.483 13.102 C 16.632 12.867,16.902 12.733,17.304 12.696 C 17.611 12.667,18.255 12.729,18.599 12.820 C 18.719 12.851,18.823 12.870,18.831 12.862 C 18.861 12.833,18.971 11.237,18.945 11.212 C 18.930 11.197,18.743 11.153,18.529 11.113 C 18.061 11.027,17.238 10.991,16.880 11.041 M9.000 14.165 L 9.000 17.171 10.510 17.149 C 11.389 17.137,12.120 17.109,12.260 17.082 C 13.165 16.908,13.682 16.541,13.861 15.946 C 13.896 15.829,13.923 15.591,13.923 15.395 C 13.923 14.671,13.644 14.297,12.924 14.054 L 12.668 13.967 12.904 13.848 C 13.420 13.586,13.619 13.230,13.591 12.620 C 13.570 12.165,13.466 11.913,13.194 11.659 C 13.086 11.557,12.901 11.430,12.782 11.376 C 12.360 11.182,12.138 11.161,10.510 11.161 L 9.000 11.160 9.000 14.165 M11.864 12.732 C 12.000 12.891,11.992 13.083,11.843 13.249 L 11.727 13.380 11.203 13.393 L 10.680 13.406 10.680 13.000 L 10.680 12.594 11.224 12.607 C 11.763 12.620,11.768 12.621,11.864 12.732 M11.983 14.699 C 12.215 14.795,12.311 15.146,12.177 15.405 C 12.067 15.619,11.861 15.678,11.230 15.679 L 10.680 15.680 10.680 15.160 L 10.680 14.640 11.261 14.640 C 11.681 14.640,11.881 14.656,11.983 14.699 " fill="var(--db-icon-color, currentColor)" stroke="none" fill-rule="evenodd"></path></svg>