<svg id="icon" height="24" viewBox="0 0 24 24" width="24" xmlns="http://www.w3.org/2000/svg"><path d="M19.720 6.035 C 19.665 6.053,19.563 6.097,19.495 6.132 C 19.426 6.168,17.938 7.642,16.186 9.408 L 13.002 12.620 11.811 11.433 C 11.038 10.662,10.557 10.214,10.441 10.154 C 10.331 10.098,10.170 10.057,10.021 10.048 C 9.309 10.007,8.786 10.793,9.094 11.442 C 9.133 11.523,9.869 12.288,10.831 13.245 C 12.650 15.056,12.580 15.000,13.048 15.000 C 13.200 15.000,13.317 14.972,13.431 14.910 C 13.527 14.857,15.074 13.331,17.197 11.193 C 19.885 8.489,20.821 7.523,20.880 7.393 C 21.088 6.933,20.881 6.345,20.429 6.114 C 20.252 6.024,19.880 5.982,19.720 6.035 " fill="var(--db-icon-color, currentColor)" stroke="none" fill-rule="evenodd"></path></svg>