<svg id="icon" height="20" viewBox="0 0 20 20" width="20" xmlns="http://www.w3.org/2000/svg"><path d="M3.567 2.051 C 2.828 2.213,2.206 2.842,2.050 3.583 C 2.008 3.784,2.001 4.688,2.001 10.000 C 2.001 16.834,1.988 16.425,2.216 16.887 C 2.436 17.335,2.846 17.696,3.359 17.896 L 3.583 17.983 8.000 17.983 L 12.417 17.983 12.641 17.896 C 13.333 17.627,13.812 17.080,13.953 16.400 C 13.992 16.208,14.002 15.987,13.994 15.450 C 13.982 14.651,13.957 14.553,13.701 14.305 C 13.479 14.090,13.297 14.016,12.983 14.018 C 12.752 14.019,12.693 14.032,12.538 14.117 C 12.440 14.170,12.309 14.273,12.248 14.344 C 12.057 14.568,12.024 14.711,12.008 15.392 L 11.994 16.000 7.997 16.000 L 4.000 16.000 4.000 10.018 L 4.000 4.037 5.592 4.026 C 7.423 4.013,7.386 4.018,7.686 3.718 C 8.168 3.237,8.035 2.431,7.421 2.107 L 7.250 2.017 5.517 2.010 C 4.123 2.005,3.741 2.013,3.567 2.051 M12.401 2.040 C 10.556 2.245,8.908 3.576,8.286 5.365 C 8.073 5.975,8.020 6.302,8.019 7.000 C 8.019 7.682,8.060 7.971,8.240 8.532 C 8.722 10.038,9.900 11.233,11.398 11.734 C 11.999 11.936,12.285 11.980,13.000 11.980 C 13.544 11.980,13.703 11.968,13.975 11.908 C 14.655 11.757,15.226 11.521,15.750 11.174 C 16.869 10.434,17.617 9.330,17.906 7.990 C 18.012 7.500,18.012 6.534,17.906 6.045 C 17.695 5.067,17.267 4.249,16.605 3.559 C 15.495 2.403,14.000 1.863,12.401 2.040 M11.420 4.102 C 11.623 4.200,11.801 4.379,11.902 4.586 C 12.021 4.832,12.016 5.183,11.890 5.441 C 11.665 5.898,11.132 6.111,10.657 5.933 C 10.057 5.708,9.824 5.001,10.172 4.458 C 10.287 4.280,10.504 4.114,10.713 4.045 C 10.905 3.983,11.227 4.008,11.420 4.102 M15.358 5.671 C 15.354 5.682,14.519 6.511,13.504 7.511 L 11.658 9.330 11.162 8.857 L 10.666 8.384 12.525 6.525 L 14.383 4.667 14.875 5.158 C 15.145 5.428,15.363 5.659,15.358 5.671 M15.420 8.102 C 15.623 8.200,15.801 8.379,15.902 8.586 C 16.021 8.832,16.016 9.183,15.890 9.441 C 15.531 10.171,14.482 10.181,14.113 9.458 C 13.944 9.127,13.984 8.692,14.210 8.394 C 14.325 8.242,14.614 8.048,14.762 8.022 C 14.952 7.988,15.264 8.026,15.420 8.102 M5.744 12.030 C 5.579 12.072,5.348 12.221,5.235 12.358 C 4.821 12.860,4.982 13.593,5.576 13.908 C 5.688 13.967,5.771 13.982,5.983 13.982 C 6.305 13.982,6.491 13.909,6.700 13.700 C 7.309 13.091,6.913 12.060,6.052 12.014 C 5.941 12.008,5.802 12.015,5.744 12.030 M8.713 12.045 C 8.507 12.113,8.287 12.279,8.170 12.455 C 7.898 12.866,7.958 13.354,8.324 13.715 C 8.588 13.975,8.930 14.057,9.298 13.948 C 9.653 13.842,10.000 13.377,10.000 13.005 C 10.000 12.506,9.556 12.043,9.051 12.012 C 8.938 12.006,8.790 12.020,8.713 12.045 " fill="var(--db-icon-color, currentColor)" stroke="none" fill-rule="evenodd"></path></svg>