<svg id="icon" height="20" viewBox="0 0 20 20" width="20" xmlns="http://www.w3.org/2000/svg"><path d="M16.857 5.034 C 16.788 5.052,16.683 5.090,16.624 5.120 C 16.565 5.149,15.216 6.473,13.625 8.061 L 10.734 10.949 9.659 9.878 C 9.067 9.289,8.531 8.780,8.467 8.748 C 8.391 8.709,8.248 8.683,8.062 8.673 C 7.807 8.661,7.752 8.669,7.592 8.742 C 7.213 8.915,7.019 9.216,7.018 9.633 C 7.016 10.082,6.961 10.013,8.658 11.705 C 9.497 12.542,10.236 13.252,10.300 13.285 C 10.472 13.372,10.851 13.388,11.071 13.317 C 11.242 13.262,11.405 13.105,14.608 9.905 C 17.135 7.381,17.985 6.513,18.038 6.400 C 18.089 6.293,18.110 6.183,18.112 6.017 C 18.115 5.619,17.899 5.269,17.544 5.097 C 17.376 5.016,17.050 4.986,16.857 5.034 " fill="var(--db-icon-color, currentColor)" stroke="none" fill-rule="evenodd"></path></svg>