<svg id="icon" height="20" viewBox="0 0 20 20" width="20" xmlns="http://www.w3.org/2000/svg"><path d="M9.400 2.020 C 7.459 2.199,5.718 2.996,4.386 4.314 C 3.135 5.552,2.352 7.097,2.078 8.867 C 1.994 9.403,1.995 10.599,2.078 11.131 C 2.393 13.144,3.366 14.877,4.900 16.155 C 6.813 17.748,9.422 18.362,11.825 17.784 C 12.228 17.687,12.373 17.618,12.540 17.444 C 13.005 16.963,12.865 16.190,12.256 15.879 C 12.008 15.752,11.851 15.750,11.200 15.866 C 10.156 16.052,9.360 16.033,8.471 15.800 C 6.097 15.177,4.335 13.145,4.049 10.702 C 3.987 10.174,3.987 9.826,4.049 9.298 C 4.230 7.748,5.007 6.334,6.221 5.343 C 6.927 4.767,7.883 4.312,8.761 4.135 C 9.596 3.967,10.205 3.966,11.181 4.133 C 11.504 4.188,11.818 4.233,11.878 4.233 C 12.190 4.233,12.559 3.975,12.722 3.643 C 12.901 3.275,12.818 2.811,12.524 2.546 C 12.278 2.323,11.810 2.151,11.217 2.066 C 10.969 2.030,9.653 1.997,9.400 2.020 M16.857 5.034 C 16.788 5.052,16.683 5.090,16.624 5.120 C 16.565 5.149,15.216 6.473,13.625 8.061 L 10.734 10.949 9.659 9.878 C 9.067 9.289,8.531 8.780,8.467 8.748 C 8.391 8.709,8.248 8.683,8.062 8.673 C 7.807 8.661,7.752 8.669,7.592 8.742 C 7.213 8.915,7.019 9.216,7.018 9.633 C 7.016 10.082,6.961 10.013,8.658 11.705 C 9.497 12.542,10.236 13.252,10.300 13.285 C 10.472 13.372,10.851 13.388,11.071 13.317 C 11.242 13.262,11.405 13.105,14.608 9.905 C 17.135 7.381,17.985 6.513,18.038 6.400 C 18.089 6.293,18.110 6.183,18.112 6.017 C 18.115 5.619,17.899 5.269,17.544 5.097 C 17.376 5.016,17.050 4.986,16.857 5.034 " fill="var(--db-icon-color, currentColor)" stroke="none" fill-rule="evenodd"></path></svg>