<svg id="icon" height="32" viewBox="0 0 32 32" width="32" xmlns="http://www.w3.org/2000/svg"><path d="M5.253 2.106 C 4.117 2.414,3.308 3.266,3.066 4.409 C 2.949 4.961,2.950 27.043,3.067 27.600 C 3.305 28.733,4.195 29.648,5.333 29.928 C 5.573 29.987,6.988 30.000,13.040 30.000 C 20.081 30.000,20.469 29.995,20.771 29.902 C 21.325 29.731,21.713 29.499,22.112 29.099 C 22.526 28.685,22.821 28.157,22.928 27.637 C 22.968 27.446,22.987 25.970,22.987 23.062 C 22.987 19.536,22.974 18.739,22.913 18.598 C 22.824 18.391,22.588 18.161,22.383 18.083 C 22.191 18.011,21.809 18.011,21.617 18.083 C 21.452 18.146,21.199 18.367,21.102 18.533 C 21.057 18.611,21.033 19.814,21.013 22.960 C 20.987 27.159,20.984 27.285,20.880 27.461 C 20.821 27.561,20.681 27.717,20.568 27.808 L 20.363 27.973 13.128 27.989 C 8.202 28.000,5.832 27.987,5.701 27.949 C 5.430 27.871,5.230 27.698,5.114 27.444 C 5.019 27.235,5.016 26.815,5.016 16.000 C 5.016 5.085,5.018 4.767,5.117 4.550 C 5.181 4.410,5.302 4.271,5.445 4.177 L 5.672 4.027 9.729 4.000 C 13.373 3.976,13.803 3.964,13.947 3.885 C 14.273 3.705,14.507 3.326,14.507 2.979 C 14.507 2.693,14.305 2.352,14.035 2.181 L 13.792 2.027 9.656 2.030 C 6.350 2.033,5.466 2.048,5.253 2.106 M20.773 2.112 C 19.121 2.403,17.527 3.356,16.512 4.659 C 14.617 7.090,14.496 10.355,16.204 12.931 C 16.535 13.431,17.388 14.307,17.907 14.681 C 18.694 15.248,19.765 15.703,20.773 15.900 C 21.265 15.996,22.735 15.996,23.227 15.900 C 24.191 15.712,25.285 15.256,26.019 14.738 C 26.490 14.405,27.245 13.667,27.611 13.182 C 28.835 11.559,29.294 9.320,28.803 7.362 C 28.116 4.620,25.942 2.582,23.204 2.113 C 22.585 2.007,21.370 2.006,20.773 2.112 M23.227 4.158 C 24.098 4.381,25.181 5.036,25.717 5.664 C 26.260 6.300,26.649 7.035,26.859 7.818 C 27.008 8.376,26.995 9.686,26.835 10.267 C 26.024 13.212,22.870 14.769,20.069 13.607 C 18.690 13.035,17.574 11.752,17.165 10.267 C 17.005 9.686,16.992 8.376,17.141 7.818 C 17.672 5.833,19.278 4.363,21.253 4.055 C 21.738 3.980,22.733 4.032,23.227 4.158 M20.726 6.313 C 20.333 6.551,20.158 7.068,20.323 7.502 C 20.355 7.584,20.696 7.970,21.082 8.360 L 21.783 9.068 21.076 9.777 C 20.476 10.379,20.357 10.525,20.291 10.747 C 20.146 11.229,20.385 11.717,20.865 11.917 C 21.397 12.140,21.644 11.991,22.965 10.654 C 23.857 9.752,24.045 9.535,24.100 9.343 C 24.171 9.097,24.145 8.875,24.014 8.613 C 23.906 8.397,22.060 6.532,21.763 6.340 C 21.450 6.137,21.034 6.126,20.726 6.313 M7.507 22.137 C 7.243 22.276,7.044 22.585,7.008 22.912 C 6.972 23.237,7.129 23.569,7.432 23.810 C 7.635 23.972,7.642 23.973,8.383 23.992 C 8.977 24.007,9.177 23.993,9.356 23.924 C 10.124 23.631,10.213 22.544,9.502 22.145 C 9.311 22.037,9.221 22.027,8.499 22.029 C 7.815 22.031,7.679 22.046,7.507 22.137 M12.024 22.126 C 11.326 22.552,11.354 23.571,12.074 23.898 C 12.250 23.978,12.424 23.998,12.960 23.999 C 13.747 24.000,13.947 23.954,14.173 23.721 C 14.490 23.393,14.580 23.000,14.425 22.627 C 14.319 22.374,14.207 22.252,13.962 22.128 C 13.794 22.042,13.645 22.027,12.975 22.027 C 12.301 22.027,12.163 22.041,12.024 22.126 M16.560 22.111 C 16.311 22.240,16.170 22.396,16.074 22.647 C 15.905 23.092,16.061 23.563,16.471 23.845 C 16.642 23.962,16.720 23.975,17.383 23.991 C 18.381 24.016,18.675 23.909,18.886 23.444 C 19.125 22.916,18.915 22.314,18.415 22.100 C 18.159 21.991,16.775 21.998,16.560 22.111 " fill="var(--db-icon-color, currentColor)" stroke="none" fill-rule="evenodd"></path></svg>