<svg id="icon" height="24" viewBox="0 0 24 24" width="24" xmlns="http://www.w3.org/2000/svg"><path d="M9.419 2.042 C 9.024 2.093,8.682 2.196,8.295 2.378 C 7.170 2.909,6.445 3.776,6.111 4.993 C 6.041 5.246,6.026 5.413,6.026 5.940 C 6.026 6.467,6.041 6.634,6.111 6.887 C 6.388 7.897,6.963 8.694,7.807 9.240 C 8.531 9.709,9.235 9.900,10.120 9.868 C 10.929 9.839,11.546 9.648,12.183 9.230 C 12.564 8.981,13.083 8.475,13.319 8.125 C 14.647 6.147,13.946 3.523,11.800 2.440 C 11.081 2.077,10.233 1.935,9.419 2.042 M10.365 4.041 C 10.929 4.147,11.504 4.574,11.756 5.072 C 12.171 5.895,12.039 6.769,11.404 7.403 C 11.121 7.685,10.850 7.839,10.462 7.939 C 9.412 8.208,8.294 7.515,8.056 6.449 C 7.743 5.042,8.957 3.775,10.365 4.041 M14.976 10.058 C 14.208 10.229,13.572 10.725,13.244 11.411 C 12.969 11.986,12.979 11.807,12.992 16.020 C 12.999 18.465,13.019 19.898,13.046 20.040 C 13.069 20.161,13.158 20.412,13.245 20.597 C 13.374 20.875,13.458 20.990,13.731 21.257 C 14.105 21.625,14.406 21.796,14.896 21.920 C 15.195 21.995,15.343 22.000,17.496 21.999 C 20.044 21.999,20.111 21.993,20.640 21.734 C 21.057 21.530,21.530 21.057,21.734 20.640 C 22.010 20.077,22.004 20.197,21.991 15.867 L 21.980 11.980 21.859 11.660 C 21.576 10.912,21.036 10.383,20.280 10.115 C 20.021 10.023,20.015 10.022,17.620 10.013 C 15.724 10.006,15.169 10.016,14.976 10.058 M4.997 11.118 C 4.062 11.315,3.186 11.919,2.673 12.720 C 2.402 13.142,2.266 13.449,2.128 13.950 L 2.020 14.340 2.020 17.820 L 2.020 21.300 2.108 21.464 C 2.440 22.085,3.272 22.176,3.729 21.642 C 3.805 21.553,3.888 21.411,3.914 21.326 C 3.947 21.214,3.960 20.318,3.960 18.115 C 3.961 14.967,3.978 14.528,4.121 14.146 C 4.350 13.533,4.905 13.085,5.525 13.012 C 5.683 12.993,5.781 13.018,6.166 13.171 C 7.030 13.517,8.090 13.803,9.005 13.937 C 9.798 14.054,10.125 14.006,10.415 13.728 C 10.619 13.532,10.718 13.311,10.719 13.045 C 10.720 12.751,10.653 12.549,10.489 12.358 C 10.280 12.114,10.093 12.037,9.603 11.996 C 8.807 11.928,7.695 11.649,6.894 11.316 C 6.677 11.227,6.437 11.129,6.360 11.098 C 6.156 11.019,5.418 11.029,4.997 11.118 M19.761 12.021 C 19.826 12.054,19.910 12.140,19.949 12.211 C 20.015 12.332,20.020 12.576,20.020 16.000 C 20.020 20.083,20.037 19.836,19.744 19.976 C 19.618 20.035,19.389 20.041,17.465 20.031 C 15.364 20.020,15.324 20.018,15.213 19.936 C 15.151 19.890,15.078 19.809,15.051 19.756 C 15.012 19.682,15.001 18.818,15.001 15.965 L 15.000 12.271 15.155 12.115 L 15.311 11.960 17.477 11.960 C 19.336 11.960,19.661 11.969,19.761 12.021 M16.231 17.063 C 16.023 17.175,15.989 17.310,15.997 17.996 C 16.004 18.664,16.027 18.759,16.212 18.895 C 16.446 19.069,16.779 18.968,16.932 18.677 C 17.033 18.484,17.016 17.449,16.909 17.251 C 16.784 17.020,16.470 16.933,16.231 17.063 M18.213 17.078 C 18.008 17.203,17.993 17.265,17.998 17.989 C 18.003 18.733,18.030 18.828,18.274 18.944 C 18.525 19.063,18.839 18.948,18.943 18.698 C 19.023 18.508,19.022 17.491,18.942 17.300 C 18.829 17.029,18.471 16.920,18.213 17.078 " fill="var(--db-icon-color, currentColor)" stroke="none" fill-rule="evenodd"></path></svg>