<svg id="icon" height="32" viewBox="0 0 32 32" width="32" xmlns="http://www.w3.org/2000/svg"><path d="M13.573 2.111 C 13.325 2.240,13.184 2.396,13.088 2.647 C 12.897 3.148,13.100 3.678,13.577 3.920 C 13.782 4.024,13.920 4.027,20.082 4.053 C 27.115 4.083,26.492 4.045,26.810 4.461 L 26.960 4.658 26.974 13.431 C 26.987 22.118,26.987 22.207,26.881 22.425 C 26.763 22.668,26.576 22.828,26.299 22.924 C 26.182 22.964,25.708 22.987,24.969 22.987 C 23.907 22.987,23.803 22.995,23.587 23.100 C 23.230 23.272,23.067 23.557,23.067 24.005 C 23.067 24.325,23.085 24.386,23.230 24.569 C 23.320 24.681,23.499 24.829,23.630 24.896 C 23.862 25.017,23.892 25.019,25.227 25.000 C 26.529 24.982,26.602 24.975,26.940 24.846 C 27.134 24.772,27.410 24.644,27.553 24.560 C 27.946 24.332,28.431 23.802,28.658 23.352 C 29.036 22.602,29.017 23.170,29.001 13.319 L 28.987 4.453 28.845 4.072 C 28.567 3.325,28.048 2.710,27.410 2.375 C 26.711 2.008,27.108 2.027,20.082 2.027 C 14.434 2.027,13.716 2.037,13.573 2.111 M5.227 6.103 C 4.404 6.332,3.674 6.945,3.301 7.721 C 2.969 8.411,2.983 7.943,2.999 17.668 L 3.013 26.533 3.159 26.932 C 3.541 27.978,4.368 28.711,5.418 28.933 C 5.969 29.050,18.031 29.050,18.582 28.933 C 19.632 28.711,20.459 27.978,20.841 26.932 L 20.987 26.533 21.001 17.668 C 21.017 7.943,21.031 8.411,20.699 7.721 C 20.321 6.935,19.591 6.329,18.747 6.100 C 18.370 5.998,5.594 6.001,5.227 6.103 M18.544 8.170 C 18.675 8.256,18.805 8.406,18.874 8.548 L 18.988 8.782 18.974 17.555 L 18.960 26.328 18.827 26.525 C 18.749 26.639,18.583 26.777,18.430 26.854 L 18.166 26.987 12.000 26.987 L 5.834 26.987 5.570 26.854 C 5.417 26.777,5.251 26.639,5.173 26.525 L 5.040 26.328 5.040 17.493 L 5.040 8.659 5.182 8.444 C 5.265 8.318,5.421 8.181,5.556 8.114 L 5.787 7.999 12.057 8.013 L 18.328 8.027 18.544 8.170 M23.460 17.166 C 22.794 17.588,22.872 18.557,23.598 18.886 C 23.871 19.011,24.129 19.011,24.402 18.886 C 25.381 18.442,25.074 17.013,24.000 17.013 C 23.762 17.013,23.651 17.045,23.460 17.166 M7.661 22.051 C 7.367 22.156,7.159 22.379,7.059 22.696 C 6.918 23.142,7.047 23.518,7.445 23.820 C 7.619 23.953,7.692 23.973,8.000 23.973 C 8.309 23.973,8.382 23.953,8.556 23.820 C 8.955 23.516,9.082 23.142,8.939 22.690 C 8.837 22.364,8.589 22.115,8.281 22.030 C 8.022 21.958,7.913 21.962,7.661 22.051 M11.661 22.051 C 11.367 22.156,11.159 22.379,11.059 22.696 C 10.918 23.142,11.047 23.518,11.445 23.820 C 11.619 23.953,11.692 23.973,12.000 23.973 C 12.309 23.973,12.382 23.953,12.556 23.820 C 12.955 23.516,13.082 23.142,12.939 22.690 C 12.837 22.364,12.589 22.115,12.281 22.030 C 12.022 21.958,11.913 21.962,11.661 22.051 M15.661 22.051 C 15.367 22.156,15.159 22.379,15.059 22.696 C 14.918 23.142,15.047 23.518,15.445 23.820 C 15.619 23.953,15.692 23.973,16.000 23.973 C 16.309 23.973,16.382 23.953,16.556 23.820 C 16.955 23.516,17.082 23.142,16.939 22.690 C 16.837 22.364,16.589 22.115,16.281 22.030 C 16.022 21.958,15.913 21.962,15.661 22.051 " fill="var(--db-icon-color, currentColor)" stroke="none" fill-rule="evenodd"></path></svg>