<svg id="icon" height="32" viewBox="0 0 32 32" width="32" xmlns="http://www.w3.org/2000/svg"><path d="M5.253 2.106 C 4.117 2.414,3.308 3.266,3.066 4.409 C 2.949 4.961,2.950 27.043,3.067 27.600 C 3.305 28.733,4.195 29.648,5.333 29.928 C 5.573 29.987,6.988 30.000,13.040 30.000 C 20.081 30.000,20.469 29.995,20.771 29.902 C 21.325 29.731,21.713 29.499,22.112 29.099 C 22.526 28.685,22.821 28.157,22.928 27.637 C 22.968 27.446,22.987 25.970,22.987 23.062 C 22.987 19.536,22.974 18.739,22.913 18.598 C 22.824 18.391,22.588 18.161,22.383 18.083 C 22.191 18.011,21.809 18.011,21.617 18.083 C 21.452 18.146,21.199 18.367,21.102 18.533 C 21.057 18.611,21.033 19.814,21.013 22.960 C 20.987 27.159,20.984 27.285,20.880 27.461 C 20.821 27.561,20.681 27.717,20.568 27.808 L 20.363 27.973 13.128 27.989 C 8.202 28.000,5.832 27.987,5.701 27.949 C 5.430 27.871,5.230 27.698,5.114 27.444 C 5.019 27.235,5.016 26.815,5.016 16.000 C 5.016 5.085,5.018 4.767,5.117 4.550 C 5.181 4.410,5.302 4.271,5.445 4.177 L 5.672 4.027 9.729 4.000 C 13.373 3.976,13.803 3.964,13.947 3.885 C 14.273 3.705,14.507 3.326,14.507 2.979 C 14.507 2.693,14.305 2.352,14.035 2.181 L 13.792 2.027 9.656 2.030 C 6.350 2.033,5.466 2.048,5.253 2.106 M20.827 2.108 C 19.872 2.284,18.846 2.709,18.052 3.258 C 17.509 3.633,17.324 3.993,17.443 4.442 C 17.597 5.020,18.191 5.364,18.701 5.171 C 18.782 5.140,19.053 4.985,19.304 4.827 C 20.221 4.248,20.964 4.033,22.053 4.033 C 22.962 4.033,23.445 4.143,24.240 4.532 C 25.245 5.023,26.009 5.786,26.511 6.800 C 26.907 7.600,27.003 8.022,27.008 8.987 C 27.011 9.663,26.993 9.856,26.890 10.236 C 26.240 12.630,23.995 14.217,21.606 13.971 C 19.821 13.788,18.372 12.786,17.560 11.173 C 17.395 10.845,17.154 10.135,17.194 10.094 C 17.207 10.082,17.885 10.389,18.702 10.776 C 19.518 11.163,20.271 11.491,20.374 11.505 C 20.778 11.560,21.239 11.324,21.423 10.968 C 21.634 10.561,21.463 9.928,21.079 9.690 C 20.970 9.623,19.710 9.023,18.280 8.357 C 15.960 7.277,15.650 7.147,15.408 7.147 C 15.097 7.147,14.850 7.248,14.651 7.456 C 14.575 7.535,13.953 8.800,13.270 10.267 C 12.073 12.834,12.027 12.945,12.028 13.259 C 12.028 13.521,12.056 13.625,12.171 13.799 C 12.514 14.317,13.290 14.387,13.717 13.938 C 13.833 13.816,14.593 12.260,15.158 10.987 L 15.265 10.747 15.416 11.200 C 16.209 13.574,18.197 15.331,20.706 15.875 C 21.262 15.995,22.723 16.010,23.280 15.900 C 25.776 15.407,27.811 13.675,28.633 11.344 C 29.288 9.487,29.170 7.616,28.284 5.840 C 27.534 4.339,26.133 3.076,24.524 2.452 C 23.795 2.170,23.219 2.069,22.213 2.049 C 21.524 2.035,21.133 2.052,20.827 2.108 M7.507 22.137 C 7.243 22.276,7.044 22.585,7.008 22.912 C 6.972 23.237,7.129 23.569,7.432 23.810 C 7.635 23.972,7.642 23.973,8.383 23.992 C 8.977 24.007,9.177 23.993,9.356 23.924 C 10.124 23.631,10.213 22.544,9.502 22.145 C 9.311 22.037,9.221 22.027,8.499 22.029 C 7.815 22.031,7.679 22.046,7.507 22.137 M12.024 22.126 C 11.326 22.552,11.354 23.571,12.074 23.898 C 12.250 23.978,12.424 23.998,12.960 23.999 C 13.747 24.000,13.947 23.954,14.173 23.721 C 14.490 23.393,14.580 23.000,14.425 22.627 C 14.319 22.374,14.207 22.252,13.962 22.128 C 13.794 22.042,13.645 22.027,12.975 22.027 C 12.301 22.027,12.163 22.041,12.024 22.126 M16.560 22.111 C 16.311 22.240,16.170 22.396,16.074 22.647 C 15.905 23.092,16.061 23.563,16.471 23.845 C 16.642 23.962,16.720 23.975,17.383 23.991 C 18.381 24.016,18.675 23.909,18.886 23.444 C 19.125 22.916,18.915 22.314,18.415 22.100 C 18.159 21.991,16.775 21.998,16.560 22.111 " fill="var(--db-icon-color, currentColor)" stroke="none" fill-rule="evenodd"></path></svg>