<svg id="icon" height="24" viewBox="0 0 24 24" width="24" xmlns="http://www.w3.org/2000/svg"><path d="M11.712 2.052 C 10.861 2.326,10.757 3.496,11.550 3.886 L 11.740 3.980 15.500 4.000 C 19.069 4.019,19.267 4.024,19.400 4.094 C 19.595 4.198,19.792 4.391,19.894 4.580 L 19.980 4.740 19.992 9.880 C 20.001 13.549,19.992 15.079,19.960 15.227 C 19.902 15.499,19.696 15.765,19.451 15.886 C 19.277 15.972,19.194 15.982,18.500 16.001 C 17.638 16.025,17.529 16.057,17.271 16.358 C 16.940 16.745,16.974 17.381,17.345 17.728 C 17.597 17.964,17.750 17.998,18.552 17.999 C 19.590 18.000,20.053 17.890,20.635 17.503 C 21.288 17.069,21.777 16.345,21.942 15.567 C 22.030 15.150,22.027 4.848,21.938 4.419 C 21.741 3.464,21.128 2.692,20.241 2.283 C 19.640 2.006,19.937 2.024,15.700 2.014 C 12.819 2.007,11.823 2.017,11.712 2.052 M4.503 6.042 C 3.294 6.248,2.312 7.204,2.062 8.419 C 2.008 8.678,2.000 9.400,2.000 14.000 C 2.000 18.600,2.008 19.322,2.062 19.581 C 2.309 20.780,3.220 21.691,4.419 21.938 C 4.865 22.031,12.135 22.031,12.581 21.938 C 13.780 21.691,14.691 20.780,14.938 19.581 C 14.992 19.322,15.000 18.600,15.000 14.000 C 15.000 8.223,15.008 8.444,14.767 7.850 C 14.493 7.179,13.931 6.601,13.241 6.283 C 12.640 6.006,12.947 6.024,8.620 6.016 C 6.464 6.011,4.611 6.023,4.503 6.042 M12.418 8.098 C 12.505 8.142,12.645 8.248,12.729 8.334 C 13.017 8.631,13.002 8.305,12.991 14.082 L 12.980 19.260 12.892 19.425 C 12.777 19.640,12.487 19.893,12.288 19.953 C 12.063 20.020,4.937 20.020,4.712 19.953 C 4.513 19.893,4.223 19.640,4.108 19.425 L 4.020 19.260 4.008 14.080 C 3.999 10.319,4.009 8.856,4.041 8.740 C 4.133 8.416,4.406 8.138,4.726 8.045 C 4.810 8.021,6.250 8.009,8.560 8.013 C 12.148 8.020,12.265 8.022,12.418 8.098 M6.712 16.051 C 6.190 16.224,5.899 16.754,6.042 17.270 C 6.111 17.517,6.465 17.881,6.705 17.952 C 7.391 18.153,8.061 17.604,7.988 16.900 C 7.951 16.540,7.761 16.266,7.429 16.094 C 7.269 16.011,6.898 15.989,6.712 16.051 M9.665 16.059 C 8.981 16.302,8.784 17.186,9.298 17.700 C 9.564 17.966,9.932 18.059,10.295 17.952 C 10.535 17.881,10.889 17.517,10.958 17.270 C 11.170 16.504,10.411 15.793,9.665 16.059 " fill="var(--db-icon-color, currentColor)" stroke="none" fill-rule="evenodd"></path></svg>