<svg id="icon" height="20" viewBox="0 0 20 20" width="20" xmlns="http://www.w3.org/2000/svg"><path d="M12.500 2.020 C 11.871 2.097,11.330 2.243,10.850 2.465 C 9.206 3.228,8.087 4.852,7.972 6.642 C 7.878 8.102,8.362 9.443,9.349 10.462 C 9.767 10.893,10.141 11.175,10.633 11.429 C 11.076 11.657,11.472 11.798,11.967 11.905 C 12.469 12.013,13.428 12.014,13.922 11.907 C 14.609 11.758,15.194 11.512,15.768 11.130 C 16.188 10.852,16.818 10.222,17.096 9.804 C 18.229 8.097,18.237 5.960,17.117 4.250 C 16.394 3.146,15.211 2.353,13.910 2.100 C 13.563 2.032,12.769 1.987,12.500 2.020 M14.185 4.875 C 14.461 5.155,14.715 5.418,14.750 5.460 L 14.813 5.536 13.973 6.377 L 13.134 7.217 14.002 8.048 L 14.870 8.880 14.268 9.482 L 13.667 10.083 12.233 8.650 L 10.800 7.217 12.225 5.792 C 13.009 5.008,13.657 4.367,13.667 4.367 C 13.676 4.367,13.910 4.595,14.185 4.875 M4.660 6.945 C 4.421 7.012,4.254 7.138,3.800 7.597 C 3.301 8.100,3.012 8.496,2.704 9.101 C 1.723 11.029,1.848 13.344,3.038 15.291 C 3.361 15.820,3.924 16.462,4.417 16.866 C 6.417 18.503,9.348 18.668,11.599 17.270 C 12.258 16.860,13.045 16.136,13.222 15.776 C 13.412 15.388,13.325 14.947,12.998 14.652 C 12.794 14.468,12.592 14.388,12.333 14.388 C 12.001 14.388,11.876 14.461,11.398 14.939 C 10.677 15.660,9.948 16.052,9.017 16.217 C 8.625 16.286,7.908 16.286,7.517 16.217 C 5.991 15.945,4.775 14.888,4.241 13.367 C 4.056 12.840,4.017 12.582,4.017 11.867 C 4.017 11.272,4.025 11.187,4.107 10.867 C 4.322 10.023,4.645 9.487,5.348 8.809 C 5.802 8.371,5.881 8.236,5.881 7.900 C 5.880 7.628,5.782 7.395,5.590 7.208 C 5.322 6.948,4.986 6.853,4.660 6.945 M6.580 9.228 C 6.409 9.308,6.232 9.483,6.149 9.653 C 6.068 9.819,6.064 10.143,6.141 10.287 C 6.172 10.343,6.506 10.806,6.884 11.315 L 7.571 12.240 7.714 12.967 C 7.798 13.395,7.884 13.739,7.922 13.805 C 8.019 13.971,8.239 14.123,8.445 14.166 C 8.789 14.237,9.106 14.087,9.277 13.772 C 9.426 13.499,9.424 13.352,9.257 12.500 L 9.111 11.750 8.264 10.554 C 7.652 9.689,7.381 9.333,7.287 9.271 C 7.112 9.155,6.780 9.135,6.580 9.228 " fill="var(--db-icon-color, currentColor)" stroke="none" fill-rule="evenodd"></path></svg>