<svg id="icon" height="24" viewBox="0 0 24 24" width="24" xmlns="http://www.w3.org/2000/svg"><path d="M4.440 5.060 C 3.455 5.263,2.596 5.959,2.233 6.850 C 1.995 7.436,2.000 7.320,2.000 12.000 C 2.000 16.687,1.994 16.563,2.236 17.157 C 2.515 17.842,3.171 18.489,3.879 18.777 C 4.456 19.011,4.064 19.000,12.008 18.999 C 19.951 18.999,19.552 19.010,20.120 18.774 C 21.058 18.384,21.735 17.568,21.938 16.581 C 22.031 16.133,22.031 7.867,21.938 7.419 C 21.751 6.513,21.157 5.738,20.344 5.339 C 19.631 4.989,20.435 5.021,12.100 5.014 C 6.062 5.008,4.652 5.017,4.440 5.060 M19.339 7.066 C 19.559 7.141,19.786 7.349,19.901 7.581 C 19.978 7.736,19.980 7.844,19.980 12.000 L 19.980 16.260 19.862 16.474 C 19.739 16.696,19.528 16.870,19.284 16.954 C 19.183 16.988,17.313 17.000,11.999 17.000 C 4.201 17.000,4.683 17.014,4.374 16.778 C 4.301 16.723,4.192 16.592,4.131 16.489 L 4.020 16.300 4.020 12.000 L 4.020 7.700 4.131 7.511 C 4.256 7.298,4.449 7.136,4.670 7.057 C 4.793 7.013,6.104 7.003,11.983 7.002 C 18.524 7.000,19.162 7.006,19.339 7.066 M14.986 8.320 C 13.757 8.579,12.967 9.297,12.589 10.500 C 12.435 10.989,12.384 11.398,12.388 12.100 C 12.395 13.398,12.710 14.284,13.396 14.930 C 14.007 15.507,14.813 15.773,15.940 15.768 C 16.517 15.766,17.153 15.668,17.390 15.545 C 17.887 15.286,17.935 14.557,17.476 14.253 C 17.278 14.121,17.106 14.111,16.540 14.196 C 16.103 14.262,15.638 14.235,15.276 14.122 C 14.545 13.895,14.240 13.273,14.240 12.008 C 14.240 10.238,14.856 9.650,16.550 9.801 C 16.841 9.828,17.143 9.837,17.221 9.823 C 17.393 9.790,17.633 9.587,17.706 9.412 C 17.842 9.086,17.716 8.638,17.437 8.454 C 17.116 8.241,15.721 8.165,14.986 8.320 M6.260 8.463 C 6.194 8.497,6.097 8.565,6.045 8.613 C 5.835 8.805,5.840 8.728,5.840 12.031 L 5.840 15.104 5.955 15.286 C 6.034 15.410,6.130 15.497,6.255 15.558 C 6.438 15.646,6.451 15.647,7.950 15.628 C 9.564 15.609,9.691 15.595,10.255 15.383 C 11.170 15.039,11.635 14.226,11.482 13.238 C 11.372 12.525,11.028 12.139,10.288 11.895 L 9.955 11.786 10.237 11.648 C 10.597 11.472,10.891 11.182,10.998 10.897 C 11.165 10.451,11.143 9.874,10.941 9.418 C 10.733 8.949,10.205 8.592,9.526 8.463 C 9.037 8.371,6.438 8.370,6.260 8.463 M9.100 9.980 C 9.311 10.085,9.412 10.278,9.382 10.517 C 9.328 10.943,9.114 11.046,8.230 11.072 L 7.600 11.091 7.600 10.481 L 7.600 9.872 8.270 9.886 C 8.840 9.899,8.964 9.913,9.100 9.980 M9.379 12.720 C 9.642 12.852,9.730 13.007,9.730 13.335 C 9.730 13.947,9.444 14.109,8.290 14.148 L 7.600 14.172 7.600 13.383 L 7.600 12.594 8.390 12.607 C 9.139 12.619,9.190 12.625,9.379 12.720 " fill="var(--db-icon-color, currentColor)" stroke="none" fill-rule="evenodd"></path></svg>