<svg id="icon" height="20" viewBox="0 0 20 20" width="20" xmlns="http://www.w3.org/2000/svg"><path d="M6.633 2.022 C 6.096 2.102,5.827 2.185,5.400 2.403 C 4.058 3.087,3.293 4.605,3.550 6.076 C 3.762 7.295,4.640 8.341,5.823 8.787 C 6.244 8.945,6.483 8.984,7.033 8.980 C 7.596 8.977,7.795 8.939,8.321 8.736 C 9.111 8.431,9.892 7.657,10.220 6.853 C 10.439 6.316,10.478 6.111,10.478 5.500 C 10.478 5.013,10.468 4.913,10.392 4.629 C 10.023 3.257,8.919 2.260,7.533 2.049 C 7.240 2.004,6.832 1.992,6.633 2.022 M7.364 4.051 C 7.657 4.121,7.867 4.242,8.085 4.471 C 8.982 5.411,8.300 6.997,6.998 7.000 C 6.108 7.002,5.377 6.140,5.527 5.266 C 5.676 4.392,6.500 3.848,7.364 4.051 M11.300 9.036 C 10.881 9.118,10.415 9.467,10.209 9.856 C 9.994 10.261,10.000 10.149,10.000 13.506 C 10.000 16.831,9.995 16.736,10.193 17.131 C 10.387 17.519,10.853 17.872,11.293 17.963 C 11.539 18.014,16.461 18.014,16.707 17.963 C 17.302 17.840,17.792 17.361,17.949 16.751 C 18.025 16.455,18.025 10.592,17.949 10.270 C 17.803 9.653,17.279 9.146,16.670 9.033 C 16.447 8.992,11.515 8.995,11.300 9.036 M3.942 11.036 C 3.482 11.115,3.050 11.344,2.697 11.697 C 2.416 11.978,2.238 12.267,2.104 12.661 L 2.017 12.917 2.017 15.100 L 2.017 17.283 2.105 17.450 C 2.211 17.649,2.362 17.798,2.567 17.904 C 2.782 18.017,3.218 18.017,3.433 17.904 C 3.638 17.798,3.789 17.649,3.895 17.450 L 3.983 17.283 4.000 15.242 L 4.017 13.201 4.109 13.109 L 4.201 13.017 5.742 13.000 C 7.281 12.983,7.284 12.983,7.433 12.905 C 7.638 12.797,7.789 12.648,7.894 12.450 C 7.970 12.308,7.982 12.242,7.982 12.000 C 7.982 11.757,7.970 11.692,7.893 11.547 C 7.794 11.359,7.637 11.205,7.424 11.092 C 7.284 11.017,7.275 11.017,5.700 11.011 C 4.829 11.009,4.038 11.020,3.942 11.036 M16.000 13.500 L 16.000 16.000 14.000 16.000 L 12.000 16.000 12.000 13.500 L 12.000 11.000 14.000 11.000 L 16.000 11.000 16.000 13.500 " fill="var(--db-icon-color, currentColor)" stroke="none" fill-rule="evenodd"></path></svg>