<svg id="icon" height="24" viewBox="0 0 24 24" width="24" xmlns="http://www.w3.org/2000/svg"><path d="M15.220 2.025 C 12.830 2.285,10.875 3.909,10.221 6.180 C 9.993 6.969,9.931 7.970,10.062 8.753 C 10.367 10.587,11.587 12.214,13.260 13.019 C 14.087 13.416,14.819 13.578,15.780 13.576 C 16.513 13.574,16.978 13.502,17.600 13.295 C 19.288 12.732,20.677 11.365,21.252 9.699 C 22.194 6.976,21.002 4.002,18.432 2.660 C 17.946 2.406,17.323 2.190,16.820 2.101 C 16.459 2.037,15.519 1.993,15.220 2.025 M15.391 4.542 C 15.596 4.627,18.020 7.039,18.123 7.260 C 18.165 7.348,18.198 7.492,18.199 7.580 C 18.200 7.928,18.090 8.066,16.806 9.320 C 16.143 9.968,15.542 10.529,15.470 10.567 C 15.386 10.612,15.247 10.637,15.078 10.638 C 14.614 10.641,14.280 10.409,14.134 9.981 C 14.058 9.757,14.079 9.436,14.183 9.235 C 14.221 9.161,14.590 8.758,15.003 8.340 L 15.754 7.580 15.043 6.858 C 14.652 6.461,14.283 6.062,14.223 5.972 C 14.095 5.778,14.050 5.458,14.117 5.212 C 14.262 4.673,14.900 4.338,15.391 4.542 M6.634 7.496 C 5.575 7.975,4.606 8.705,3.949 9.520 C 2.394 11.444,1.997 14.150,2.908 16.600 C 3.427 17.998,4.386 19.231,5.580 20.039 C 6.210 20.464,6.869 20.762,7.620 20.960 C 8.212 21.116,8.471 21.158,9.089 21.199 C 12.011 21.393,14.718 19.812,16.042 17.140 C 16.249 16.723,16.260 16.684,16.260 16.393 C 16.260 16.117,16.248 16.070,16.139 15.914 C 15.968 15.671,15.704 15.518,15.410 15.492 C 14.902 15.445,14.663 15.631,14.316 16.345 C 13.921 17.156,13.416 17.782,12.757 18.277 C 11.024 19.578,8.478 19.608,6.573 18.350 C 5.530 17.661,4.787 16.622,4.473 15.411 C 4.365 14.998,4.348 14.854,4.331 14.240 C 4.316 13.703,4.327 13.451,4.377 13.160 C 4.570 12.032,5.036 11.126,5.840 10.317 C 6.313 9.841,6.730 9.548,7.370 9.239 C 7.955 8.957,8.132 8.735,8.132 8.280 C 8.132 7.748,7.726 7.322,7.220 7.322 C 7.069 7.321,6.925 7.364,6.634 7.496 M7.741 11.163 C 7.375 11.345,7.128 11.759,7.176 12.110 C 7.210 12.366,7.306 12.525,8.018 13.506 L 8.672 14.407 8.818 15.034 C 8.998 15.804,9.057 15.971,9.211 16.147 C 9.577 16.563,10.232 16.566,10.581 16.152 C 10.744 15.959,10.838 15.725,10.839 15.512 C 10.840 15.296,10.519 13.916,10.400 13.625 C 10.297 13.373,8.909 11.426,8.745 11.303 C 8.420 11.060,8.050 11.008,7.741 11.163 " fill="var(--db-icon-color, currentColor)" stroke="none" fill-rule="evenodd"></path></svg>