<svg id="icon" height="20" viewBox="0 0 20 20" width="20" xmlns="http://www.w3.org/2000/svg"><path d="M3.567 4.052 C 3.205 4.130,2.884 4.310,2.596 4.597 C 2.308 4.884,2.164 5.136,2.064 5.526 C 2.002 5.768,2.000 5.936,2.000 10.000 C 2.000 14.064,2.002 14.232,2.064 14.474 C 2.164 14.864,2.308 15.116,2.596 15.404 C 2.884 15.692,3.136 15.836,3.526 15.936 C 3.770 15.998,3.960 16.000,10.000 16.000 C 16.040 16.000,16.230 15.998,16.474 15.936 C 16.864 15.836,17.116 15.692,17.404 15.404 C 17.692 15.116,17.836 14.864,17.936 14.474 C 17.998 14.232,18.000 14.064,18.000 10.000 C 18.000 5.936,17.998 5.768,17.936 5.526 C 17.836 5.136,17.692 4.884,17.404 4.597 C 17.112 4.306,16.793 4.129,16.417 4.050 C 16.076 3.979,3.899 3.980,3.567 4.052 M7.917 5.407 C 8.155 5.458,8.409 5.577,8.651 5.749 C 9.604 6.429,9.695 7.902,8.838 8.759 C 8.462 9.136,7.980 9.333,7.439 9.333 C 6.895 9.333,6.432 9.140,6.048 8.754 C 5.636 8.339,5.459 7.931,5.454 7.383 C 5.450 6.899,5.544 6.580,5.804 6.195 C 6.023 5.871,6.445 5.562,6.839 5.436 C 7.137 5.340,7.556 5.329,7.917 5.407 M12.943 6.853 C 13.837 7.049,14.604 7.791,14.855 8.700 C 14.948 9.037,14.940 9.706,14.838 10.032 C 14.484 11.168,13.521 11.900,12.383 11.899 C 11.364 11.898,10.499 11.341,10.051 10.396 C 9.878 10.033,9.825 9.734,9.841 9.233 C 9.853 8.892,9.872 8.769,9.946 8.550 C 10.234 7.705,10.973 7.032,11.816 6.849 C 12.098 6.788,12.655 6.789,12.943 6.853 M10.209 12.067 C 10.624 12.222,10.997 12.709,11.050 13.165 C 11.149 14.019,10.341 14.790,9.507 14.637 C 8.746 14.496,8.276 13.881,8.367 13.144 C 8.434 12.605,8.843 12.149,9.383 12.011 C 9.608 11.953,9.974 11.978,10.209 12.067 " fill="var(--db-icon-color, currentColor)" stroke="none" fill-rule="evenodd"></path></svg>