<svg id="icon" height="20" viewBox="0 0 20 20" width="20" xmlns="http://www.w3.org/2000/svg"><path d="M3.567 2.052 C 3.295 2.110,2.865 2.322,2.663 2.498 C 2.454 2.679,2.220 3.031,2.109 3.333 L 2.017 3.583 2.007 9.883 C 1.997 16.877,1.983 16.407,2.219 16.900 C 2.305 17.080,2.403 17.211,2.593 17.401 C 2.884 17.692,3.135 17.836,3.526 17.936 C 3.768 17.998,3.936 18.000,8.000 18.000 C 12.112 18.000,12.230 17.998,12.483 17.933 C 12.832 17.844,13.137 17.668,13.403 17.403 C 13.668 17.137,13.844 16.832,13.933 16.483 C 13.992 16.254,14.000 16.113,14.000 15.313 C 14.000 14.483,13.994 14.387,13.933 14.224 C 13.846 13.991,13.684 13.806,13.462 13.682 C 13.303 13.594,13.252 13.583,13.000 13.583 C 12.748 13.583,12.697 13.594,12.538 13.682 C 12.316 13.806,12.154 13.991,12.067 14.224 C 12.007 14.384,12.000 14.483,12.000 15.201 L 12.000 16.000 8.000 16.000 L 4.000 16.000 4.000 10.000 L 4.000 4.000 5.582 4.000 C 7.118 4.000,7.170 3.998,7.355 3.929 C 7.753 3.780,8.020 3.370,7.994 2.948 C 7.968 2.534,7.680 2.166,7.292 2.051 C 7.052 1.979,3.899 1.980,3.567 2.052 M12.392 2.036 C 12.042 2.079,11.404 2.247,11.204 2.348 C 11.001 2.451,10.788 2.689,10.719 2.891 C 10.603 3.233,10.676 3.621,10.907 3.883 C 11.181 4.194,11.568 4.299,11.988 4.174 C 12.435 4.042,12.588 4.018,12.983 4.018 C 13.445 4.019,13.775 4.083,14.170 4.250 C 15.042 4.617,15.692 5.385,15.923 6.322 C 15.999 6.634,15.999 7.366,15.923 7.678 C 15.596 9.003,14.481 9.927,13.133 9.989 C 12.272 10.029,11.481 9.715,10.880 9.095 C 10.676 8.884,10.367 8.467,10.367 8.402 C 10.367 8.391,10.444 8.378,10.539 8.374 C 10.732 8.365,10.995 8.257,11.156 8.121 C 11.215 8.071,11.309 7.939,11.365 7.827 C 11.450 7.656,11.467 7.584,11.467 7.383 C 11.467 7.183,11.450 7.111,11.365 6.940 C 11.305 6.820,11.209 6.693,11.132 6.632 C 11.060 6.575,10.517 6.302,9.925 6.026 C 8.956 5.573,8.828 5.522,8.629 5.508 C 8.319 5.485,8.112 5.560,7.881 5.778 C 7.711 5.940,7.670 6.015,7.196 7.033 C 6.743 8.006,6.690 8.139,6.675 8.337 C 6.652 8.646,6.730 8.865,6.942 9.090 C 7.308 9.477,7.918 9.511,8.309 9.167 L 8.455 9.038 8.564 9.261 C 8.899 9.946,9.581 10.722,10.218 11.143 C 10.784 11.517,11.362 11.759,12.047 11.907 C 12.532 12.012,13.468 12.012,13.953 11.907 C 14.997 11.681,15.776 11.259,16.519 10.518 C 17.252 9.786,17.683 8.990,17.906 7.955 C 18.012 7.466,18.011 6.532,17.906 6.042 C 17.566 4.464,16.620 3.231,15.217 2.536 C 14.769 2.314,14.310 2.159,13.875 2.082 C 13.512 2.018,12.735 1.993,12.392 2.036 M5.744 12.030 C 5.579 12.072,5.348 12.221,5.235 12.358 C 4.821 12.860,4.982 13.593,5.576 13.908 C 5.688 13.967,5.771 13.982,5.983 13.982 C 6.305 13.982,6.491 13.909,6.700 13.700 C 7.309 13.091,6.913 12.060,6.052 12.014 C 5.941 12.008,5.802 12.015,5.744 12.030 M8.713 12.045 C 8.398 12.149,8.112 12.443,8.029 12.748 C 7.905 13.209,8.195 13.760,8.652 13.931 C 9.029 14.072,9.372 13.996,9.666 13.706 C 10.078 13.300,10.109 12.773,9.745 12.368 C 9.470 12.062,9.057 11.933,8.713 12.045 " fill="var(--db-icon-color, currentColor)" stroke="none" fill-rule="evenodd"></path></svg>