<svg id="icon" height="24" viewBox="0 0 24 24" width="24" xmlns="http://www.w3.org/2000/svg"><path d="M7.440 2.060 C 6.436 2.267,5.588 2.969,5.222 3.894 C 4.990 4.482,5.001 4.073,5.001 12.000 C 5.001 19.930,4.990 19.520,5.223 20.106 C 5.593 21.036,6.427 21.729,7.434 21.942 C 7.828 22.026,16.172 22.026,16.566 21.942 C 17.680 21.706,18.538 20.914,18.886 19.800 L 18.980 19.500 18.980 12.000 L 18.980 4.500 18.886 4.200 C 18.716 3.656,18.501 3.298,18.102 2.897 C 17.796 2.589,17.682 2.505,17.360 2.347 C 16.644 1.995,17.063 2.022,12.100 2.014 C 8.555 2.008,7.650 2.017,7.440 2.060 M16.391 4.102 C 16.579 4.180,16.782 4.373,16.894 4.580 L 16.980 4.740 16.980 12.020 L 16.980 19.300 16.894 19.460 C 16.781 19.669,16.622 19.816,16.400 19.917 C 16.223 19.997,16.160 19.998,12.000 19.998 C 7.840 19.998,7.777 19.997,7.600 19.917 C 7.358 19.807,7.209 19.660,7.095 19.420 L 7.001 19.220 7.001 12.020 L 7.001 4.820 7.095 4.620 C 7.148 4.510,7.251 4.362,7.325 4.292 C 7.604 4.027,7.310 4.043,11.991 4.042 C 15.744 4.040,16.260 4.047,16.391 4.102 M8.568 16.104 C 7.925 16.424,7.818 17.246,8.355 17.731 C 8.951 18.269,9.916 17.887,9.989 17.084 C 10.059 16.308,9.261 15.758,8.568 16.104 M11.578 16.093 C 10.859 16.435,10.799 17.422,11.472 17.826 C 11.749 17.991,11.978 18.024,12.271 17.939 C 12.726 17.806,13.047 17.319,12.978 16.862 C 12.938 16.592,12.735 16.285,12.505 16.142 C 12.232 15.974,11.868 15.955,11.578 16.093 M14.580 16.092 C 13.860 16.436,13.799 17.422,14.472 17.826 C 14.746 17.990,14.978 18.024,15.263 17.941 C 15.928 17.748,16.202 16.961,15.798 16.403 C 15.532 16.037,14.986 15.897,14.580 16.092 " fill="var(--db-icon-color, currentColor)" stroke="none" fill-rule="evenodd"></path></svg>