<svg id="icon" height="24" viewBox="0 0 24 24" width="24" xmlns="http://www.w3.org/2000/svg"><path d="M6.700 4.059 C 5.063 4.364,3.880 5.782,3.880 7.440 C 3.880 9.081,5.071 10.483,6.720 10.783 C 7.548 10.933,8.456 10.748,9.163 10.284 C 9.536 10.039,10.017 9.541,10.233 9.176 C 10.563 8.617,10.751 7.829,10.702 7.207 C 10.630 6.306,10.249 5.508,9.607 4.916 C 8.815 4.185,7.735 3.867,6.700 4.059 M14.997 6.518 C 14.089 6.684,13.343 7.066,12.681 7.703 C 11.798 8.554,11.357 9.593,11.357 10.820 C 11.356 11.811,11.648 12.688,12.239 13.472 C 13.650 15.345,16.225 15.790,18.180 14.499 C 18.522 14.273,19.079 13.725,19.320 13.377 C 19.598 12.974,19.862 12.404,19.989 11.931 C 20.083 11.580,20.094 11.468,20.095 10.840 C 20.096 10.203,20.086 10.104,19.988 9.741 C 19.643 8.466,18.794 7.453,17.594 6.882 C 16.961 6.581,16.666 6.516,15.860 6.499 C 15.486 6.491,15.098 6.500,14.997 6.518 M10.680 15.459 C 10.067 15.597,9.449 16.058,9.169 16.587 C 9.005 16.898,8.880 17.378,8.880 17.700 C 8.880 18.022,9.005 18.502,9.169 18.813 C 9.423 19.292,9.938 19.709,10.520 19.904 C 10.847 20.014,11.491 20.008,11.862 19.891 C 12.559 19.672,13.152 19.079,13.371 18.382 C 13.495 17.989,13.495 17.411,13.371 17.018 C 13.219 16.534,12.863 16.070,12.415 15.772 C 11.951 15.463,11.237 15.334,10.680 15.459 " fill="var(--db-icon-color, currentColor)" stroke="none" fill-rule="evenodd"></path></svg>