<svg id="icon" height="32" viewBox="0 0 32 32" width="32" xmlns="http://www.w3.org/2000/svg"><path d="M25.893 8.080 C 25.864 8.089,25.768 8.113,25.680 8.132 C 25.559 8.158,24.357 9.329,20.770 12.913 L 16.019 17.660 14.333 15.949 C 12.584 14.173,12.408 14.029,12.000 14.029 C 11.559 14.029,11.160 14.361,11.034 14.835 C 10.900 15.334,10.917 15.355,13.274 17.722 C 15.430 19.886,15.625 20.054,16.004 20.053 C 16.486 20.052,16.285 20.238,21.709 14.788 C 24.834 11.647,26.870 9.563,26.914 9.457 C 27.064 9.099,26.950 8.544,26.678 8.302 C 26.490 8.135,26.078 8.018,25.893 8.080 " fill="var(--db-icon-color, currentColor)" stroke="none" fill-rule="evenodd"></path></svg>