<svg id="icon" height="32" viewBox="0 0 32 32" width="32" xmlns="http://www.w3.org/2000/svg"><path d="M5.204 6.108 C 4.144 6.399,3.296 7.309,3.067 8.400 C 2.950 8.955,2.951 17.021,3.067 17.572 C 3.314 18.739,4.194 19.648,5.336 19.917 C 5.852 20.039,7.105 20.029,7.387 19.901 C 8.053 19.598,8.198 18.782,7.675 18.282 C 7.435 18.054,7.382 18.042,6.365 17.984 C 5.651 17.943,5.600 17.933,5.412 17.789 C 5.303 17.706,5.168 17.535,5.113 17.409 C 5.016 17.190,5.012 17.006,5.026 12.920 L 5.040 8.659 5.183 8.443 C 5.269 8.312,5.419 8.181,5.560 8.113 L 5.794 8.000 12.979 8.000 C 20.778 8.000,20.362 7.985,20.686 8.283 C 20.854 8.437,21.011 8.782,21.012 9.002 C 21.015 9.387,21.305 9.814,21.639 9.924 C 22.035 10.055,22.443 9.966,22.707 9.692 C 22.925 9.466,22.987 9.290,22.986 8.890 C 22.984 7.656,22.008 6.430,20.771 6.108 C 20.496 6.037,19.531 6.027,12.962 6.031 C 6.837 6.035,5.419 6.049,5.204 6.108 M11.787 11.021 C 11.017 11.097,10.427 11.374,9.888 11.914 C 9.474 12.328,9.179 12.857,9.072 13.376 C 9.032 13.568,9.014 15.059,9.014 18.016 C 9.015 21.711,9.027 22.425,9.095 22.715 C 9.321 23.674,10.064 24.484,11.046 24.843 L 11.440 24.987 18.812 25.001 C 25.210 25.014,26.234 25.005,26.572 24.935 C 27.727 24.696,28.612 23.845,28.908 22.688 C 29.009 22.295,29.013 22.086,29.012 18.031 C 29.011 13.344,29.014 13.379,28.675 12.667 C 28.345 11.971,27.686 11.408,26.880 11.132 L 26.533 11.013 19.253 11.008 C 15.249 11.005,11.889 11.011,11.787 11.021 M26.442 13.114 C 26.687 13.239,26.799 13.360,26.905 13.614 C 26.976 13.785,26.987 14.349,26.985 18.012 C 26.984 21.974,26.979 22.225,26.886 22.427 C 26.770 22.680,26.651 22.794,26.386 22.905 C 26.213 22.977,25.349 22.987,18.992 22.987 C 14.036 22.987,11.747 22.969,11.643 22.930 C 11.457 22.860,11.219 22.638,11.102 22.427 C 11.021 22.281,11.014 21.887,11.023 17.991 C 11.033 13.371,11.021 13.566,11.315 13.300 C 11.647 12.999,11.127 13.018,19.002 13.015 C 26.006 13.013,26.251 13.017,26.442 13.114 M22.000 14.316 C 20.732 14.608,19.878 15.428,19.550 16.667 C 19.327 17.511,19.340 18.775,19.580 19.560 C 19.844 20.421,20.378 21.083,21.073 21.411 C 21.699 21.707,22.059 21.780,22.907 21.784 C 24.027 21.788,24.563 21.621,24.750 21.210 C 24.876 20.932,24.876 20.829,24.754 20.560 C 24.692 20.424,24.587 20.308,24.466 20.243 C 24.286 20.146,24.238 20.144,23.618 20.209 C 22.041 20.373,21.413 19.923,21.284 18.539 C 21.241 18.071,21.280 17.265,21.362 16.933 C 21.423 16.689,21.628 16.307,21.769 16.176 C 22.019 15.942,22.394 15.821,22.933 15.798 C 23.212 15.786,23.576 15.801,23.741 15.832 C 24.121 15.902,24.393 15.834,24.595 15.618 C 24.985 15.200,24.766 14.518,24.187 14.347 C 23.853 14.249,22.382 14.227,22.000 14.316 M13.189 14.505 C 12.843 14.716,12.853 14.607,12.853 18.031 C 12.853 21.049,12.856 21.139,12.961 21.308 C 13.162 21.633,13.272 21.653,14.817 21.653 C 16.674 21.653,17.287 21.532,17.885 21.045 C 18.293 20.712,18.468 20.335,18.497 19.728 C 18.545 18.720,18.223 18.239,17.269 17.893 L 16.953 17.779 17.162 17.716 C 17.464 17.626,17.829 17.281,17.976 16.949 C 18.133 16.594,18.146 15.999,18.008 15.591 C 17.890 15.244,17.584 14.893,17.234 14.702 C 16.768 14.449,16.390 14.402,14.800 14.401 C 13.465 14.400,13.348 14.408,13.189 14.505 M16.194 16.031 C 16.497 16.257,16.468 16.771,16.142 16.946 C 16.016 17.014,15.802 17.042,15.293 17.057 L 14.613 17.077 14.613 16.480 L 14.613 15.883 15.330 15.901 C 15.954 15.918,16.065 15.934,16.194 16.031 M16.412 18.736 C 16.898 18.996,16.847 19.815,16.332 20.040 C 16.190 20.102,15.916 20.133,15.373 20.149 L 14.613 20.172 14.613 19.387 L 14.613 18.602 15.427 18.623 C 16.065 18.640,16.277 18.664,16.412 18.736 " fill="var(--db-icon-color, currentColor)" stroke="none" fill-rule="evenodd"></path></svg>