<svg id="icon" height="20" viewBox="0 0 20 20" width="20" xmlns="http://www.w3.org/2000/svg"><path d="M3.567 2.052 C 2.885 2.198,2.347 2.680,2.110 3.356 C 2.027 3.591,2.018 3.660,2.019 4.067 C 2.020 4.587,2.048 4.678,2.286 4.933 C 2.688 5.363,3.329 5.353,3.733 4.910 C 3.923 4.703,4.000 4.495,4.000 4.194 L 4.000 4.000 10.000 4.000 L 16.000 4.000 16.000 4.211 C 16.000 4.524,16.079 4.718,16.298 4.936 C 16.723 5.362,17.331 5.351,17.733 4.910 C 17.939 4.685,18.000 4.497,18.000 4.083 C 18.000 3.475,17.814 3.013,17.401 2.597 C 17.112 2.306,16.795 2.130,16.417 2.050 C 16.076 1.979,3.900 1.980,3.567 2.052 M3.674 6.038 C 2.887 6.152,2.227 6.778,2.050 7.580 C 2.004 7.789,1.999 8.309,2.007 12.100 L 2.017 16.383 2.095 16.600 C 2.343 17.290,2.887 17.788,3.567 17.948 C 3.757 17.993,4.543 17.999,10.003 18.000 C 16.089 18.000,16.228 17.999,16.480 17.934 C 16.853 17.839,17.112 17.689,17.401 17.400 C 17.682 17.120,17.861 16.804,17.948 16.433 C 18.023 16.114,18.025 7.940,17.950 7.583 C 17.806 6.901,17.265 6.311,16.567 6.078 C 16.392 6.019,16.102 6.016,10.133 6.012 C 6.535 6.010,3.795 6.020,3.674 6.038 M16.000 12.000 L 16.000 16.000 10.000 16.000 L 4.000 16.000 4.000 12.000 L 4.000 8.000 10.000 8.000 L 16.000 8.000 16.000 12.000 M12.917 9.035 C 11.664 9.204,10.855 9.903,10.546 11.083 C 10.474 11.359,10.456 11.516,10.442 11.990 C 10.420 12.747,10.481 13.174,10.689 13.696 C 10.976 14.415,11.585 14.933,12.378 15.133 C 13.107 15.316,14.020 15.283,14.777 15.045 C 14.985 14.979,15.033 14.952,15.020 14.906 C 15.011 14.875,14.962 14.538,14.912 14.158 C 14.861 13.777,14.811 13.451,14.800 13.433 C 14.787 13.412,14.660 13.427,14.465 13.472 C 14.091 13.558,13.213 13.579,12.980 13.508 C 12.668 13.413,12.457 13.200,12.344 12.864 C 12.258 12.608,12.257 11.672,12.342 11.394 C 12.426 11.121,12.578 10.936,12.817 10.817 L 13.017 10.717 13.600 10.719 C 14.075 10.721,14.242 10.735,14.498 10.794 C 14.693 10.839,14.820 10.854,14.833 10.834 C 14.844 10.816,14.879 10.446,14.912 10.012 C 14.957 9.406,14.961 9.217,14.931 9.198 C 14.909 9.185,14.687 9.141,14.437 9.101 C 13.923 9.017,13.262 8.989,12.917 9.035 M5.000 12.133 L 5.000 15.138 6.592 15.124 C 8.082 15.111,8.202 15.106,8.483 15.038 C 9.504 14.793,9.981 14.209,9.925 13.274 C 9.902 12.892,9.808 12.647,9.606 12.439 C 9.435 12.264,9.121 12.094,8.833 12.022 L 8.650 11.976 8.883 11.863 C 9.019 11.798,9.189 11.679,9.289 11.580 C 9.503 11.368,9.600 11.095,9.600 10.705 C 9.599 10.071,9.335 9.639,8.791 9.382 C 8.341 9.170,8.251 9.160,6.542 9.143 L 5.000 9.128 5.000 12.133 M7.766 10.658 C 7.973 10.762,8.027 11.000,7.891 11.203 C 7.783 11.363,7.654 11.396,7.125 11.398 L 6.667 11.400 6.667 11.000 L 6.667 10.600 7.158 10.600 C 7.560 10.600,7.671 10.611,7.766 10.658 M7.986 12.701 C 8.156 12.784,8.233 12.926,8.233 13.155 C 8.233 13.375,8.140 13.519,7.941 13.609 C 7.806 13.670,7.704 13.682,7.225 13.694 L 6.667 13.708 6.667 13.171 L 6.667 12.633 7.256 12.633 C 7.782 12.633,7.861 12.641,7.986 12.701 " fill="var(--db-icon-color, currentColor)" stroke="none" fill-rule="evenodd"></path></svg>