<svg id="icon" height="32" viewBox="0 0 32 32" width="32" xmlns="http://www.w3.org/2000/svg"><path d="M14.987 5.046 C 12.200 5.384,10.083 6.384,8.237 8.235 C 7.258 9.216,6.670 10.043,6.072 11.280 C 5.363 12.746,5.013 14.307,5.013 16.000 C 5.013 18.443,5.778 20.716,7.260 22.678 C 7.688 23.246,8.754 24.312,9.322 24.740 C 10.945 25.967,12.794 26.702,14.848 26.939 C 15.964 27.068,17.794 26.927,18.763 26.638 C 19.622 26.382,19.847 25.391,19.164 24.869 C 18.990 24.736,18.925 24.720,18.564 24.720 C 18.342 24.720,17.980 24.762,17.760 24.813 C 15.953 25.234,13.775 24.943,11.973 24.040 C 8.714 22.407,6.763 18.965,7.040 15.336 C 7.285 12.119,9.136 9.379,12.046 7.923 C 13.878 7.006,16.158 6.770,18.206 7.284 C 18.549 7.370,18.589 7.370,18.855 7.287 C 19.554 7.066,19.798 6.216,19.313 5.689 C 19.070 5.425,18.779 5.325,17.707 5.139 C 17.270 5.063,15.380 4.998,14.987 5.046 M25.893 8.080 C 25.864 8.089,25.768 8.113,25.680 8.132 C 25.559 8.158,24.357 9.329,20.770 12.913 L 16.019 17.660 14.333 15.949 C 12.584 14.173,12.408 14.029,12.000 14.029 C 11.559 14.029,11.160 14.361,11.034 14.835 C 10.900 15.334,10.917 15.355,13.274 17.722 C 15.430 19.886,15.625 20.054,16.004 20.053 C 16.486 20.052,16.285 20.238,21.709 14.788 C 24.834 11.647,26.870 9.563,26.914 9.457 C 27.064 9.099,26.950 8.544,26.678 8.302 C 26.490 8.135,26.078 8.018,25.893 8.080 " fill="var(--db-icon-color, currentColor)" stroke="none" fill-rule="evenodd"></path></svg>