<svg id="icon" height="32" viewBox="0 0 32 32" width="32" xmlns="http://www.w3.org/2000/svg"><path d="M15.600 4.089 C 15.512 4.135,15.384 4.224,15.315 4.286 C 15.247 4.349,14.181 6.016,12.946 7.991 C 11.276 10.663,10.681 11.575,10.618 11.557 C 10.571 11.545,8.919 10.524,6.946 9.290 C 4.101 7.511,3.309 7.039,3.122 7.011 C 2.807 6.964,2.344 7.168,2.188 7.423 C 1.956 7.801,1.957 7.840,2.270 9.857 C 2.821 13.421,3.634 18.243,3.816 19.030 C 3.929 19.520,4.136 19.904,4.469 20.240 C 4.803 20.576,5.363 20.878,5.807 20.960 C 6.207 21.034,25.802 21.033,26.192 20.959 C 27.089 20.789,27.931 20.022,28.153 19.173 C 28.183 19.056,28.343 18.096,28.508 17.040 C 28.859 14.785,29.462 11.135,29.762 9.451 C 30.004 8.088,30.018 7.818,29.865 7.516 C 29.690 7.173,29.240 6.958,28.836 7.022 C 28.687 7.046,27.600 7.698,25.047 9.295 C 23.078 10.526,21.429 11.545,21.382 11.557 C 21.319 11.575,20.724 10.663,19.054 7.991 C 17.819 6.016,16.753 4.347,16.684 4.283 C 16.397 4.013,15.908 3.926,15.600 4.089 M18.129 10.298 C 19.454 12.418,20.293 13.708,20.397 13.788 C 20.604 13.946,20.957 14.028,21.199 13.974 C 21.429 13.922,21.278 14.012,24.693 11.874 C 26.493 10.748,27.553 10.114,27.563 10.159 C 27.579 10.229,26.265 18.500,26.209 18.679 C 26.193 18.729,26.119 18.819,26.043 18.879 C 25.906 18.986,25.867 18.987,16.000 18.987 C 6.133 18.987,6.094 18.986,5.957 18.879 C 5.881 18.819,5.807 18.729,5.791 18.679 C 5.734 18.494,4.425 10.264,4.439 10.177 C 4.450 10.110,5.206 10.559,7.520 12.006 C 9.206 13.060,10.676 13.947,10.786 13.977 C 11.033 14.043,11.368 13.965,11.604 13.786 C 11.708 13.707,12.543 12.422,13.871 10.298 C 15.027 8.447,15.985 6.933,16.000 6.933 C 16.015 6.933,16.973 8.447,18.129 10.298 M9.556 22.621 C 9.008 22.892,8.849 23.641,9.235 24.131 C 9.479 24.442,10.027 24.570,10.416 24.408 C 10.966 24.178,11.168 23.385,10.799 22.901 C 10.513 22.526,9.987 22.408,9.556 22.621 M15.627 22.592 C 15.097 22.821,14.866 23.441,15.123 23.947 C 15.485 24.661,16.551 24.654,16.899 23.936 C 17.296 23.115,16.460 22.231,15.627 22.592 M21.556 22.621 C 21.008 22.892,20.849 23.641,21.235 24.131 C 21.479 24.442,22.027 24.570,22.416 24.408 C 22.966 24.178,23.168 23.385,22.799 22.901 C 22.513 22.526,21.987 22.408,21.556 22.621 M4.880 23.013 C 4.851 23.023,4.763 23.045,4.684 23.062 C 4.477 23.107,4.213 23.350,4.100 23.598 C 4.017 23.782,4.002 23.958,4.001 24.802 C 4.000 25.886,4.053 26.212,4.308 26.689 C 4.494 27.036,4.964 27.506,5.311 27.692 C 5.922 28.018,5.283 28.000,16.000 28.000 C 26.675 28.000,26.053 28.017,26.678 27.701 C 27.032 27.521,27.521 27.032,27.701 26.678 C 27.950 26.186,28.000 25.875,28.000 24.814 C 28.000 23.772,27.964 23.579,27.717 23.316 C 27.279 22.846,26.476 22.950,26.141 23.519 C 26.005 23.751,25.999 23.797,25.973 24.765 C 25.948 25.736,25.943 25.773,25.823 25.870 C 25.755 25.925,25.623 25.984,25.530 26.000 C 25.436 26.017,21.071 26.024,15.828 26.015 L 6.296 26.000 6.175 25.879 C 6.059 25.763,6.052 25.707,6.024 24.759 C 5.991 23.595,5.933 23.410,5.533 23.182 C 5.318 23.058,4.995 22.975,4.880 23.013 " fill="var(--db-icon-color, currentColor)" stroke="none" fill-rule="evenodd"></path></svg>