<svg id="icon" height="24" viewBox="0 0 24 24" width="24" xmlns="http://www.w3.org/2000/svg"><path d="M11.664 2.060 C 11.433 2.148,11.256 2.299,11.131 2.511 L 11.020 2.700 11.008 4.034 C 10.998 5.157,11.006 5.397,11.058 5.555 C 11.193 5.961,11.577 6.240,12.001 6.240 C 12.423 6.240,12.848 5.924,12.958 5.529 C 13.023 5.295,13.010 2.818,12.943 2.630 C 12.861 2.401,12.702 2.218,12.499 2.119 C 12.265 2.006,11.877 1.979,11.664 2.060 M11.620 7.715 C 11.448 7.794,11.127 8.114,11.029 8.304 C 10.868 8.615,6.192 20.804,6.173 20.960 C 6.108 21.504,6.584 22.040,7.133 22.040 C 7.584 22.040,7.475 22.131,9.830 19.784 L 12.000 17.622 14.170 19.784 C 16.032 21.640,16.363 21.953,16.505 21.993 C 17.164 22.180,17.769 21.781,17.829 21.120 C 17.850 20.897,17.809 20.787,15.482 14.737 C 14.179 11.350,13.070 8.484,13.017 8.367 C 12.799 7.881,12.467 7.639,12.022 7.641 C 11.874 7.641,11.718 7.670,11.620 7.715 " fill="var(--db-icon-color, currentColor)" stroke="none" fill-rule="evenodd"></path></svg>