<svg id="icon" height="32" viewBox="0 0 32 32" width="32" xmlns="http://www.w3.org/2000/svg"><path d="M14.560 2.134 C 11.297 2.712,8.787 5.199,8.126 8.509 C 7.993 9.173,7.992 10.714,8.124 11.387 C 8.327 12.419,8.678 13.399,9.196 14.373 C 9.623 15.178,15.138 24.541,15.271 24.687 C 15.411 24.841,15.764 25.011,15.947 25.012 C 16.198 25.014,16.490 24.899,16.667 24.729 C 16.861 24.544,22.617 14.737,23.074 13.813 C 23.896 12.153,24.192 10.164,23.866 8.486 C 23.232 5.211,20.672 2.690,17.416 2.134 C 16.593 1.993,15.357 1.993,14.560 2.134 M16.827 4.059 C 19.752 4.418,21.840 6.771,21.956 9.840 C 21.980 10.473,21.967 10.672,21.869 11.147 C 21.722 11.862,21.493 12.546,21.210 13.120 C 20.962 13.624,16.048 21.973,16.000 21.973 C 15.954 21.973,10.954 13.398,10.713 12.906 C 10.433 12.334,10.209 11.649,10.103 11.038 C 9.974 10.297,10.020 9.112,10.203 8.416 C 10.470 7.400,10.983 6.512,11.734 5.761 C 13.062 4.433,14.891 3.822,16.827 4.059 M15.520 8.070 C 14.709 8.305,14.178 8.889,14.026 9.715 C 13.899 10.398,14.258 11.217,14.867 11.636 C 16.186 12.544,17.984 11.600,17.984 10.000 C 17.984 9.164,17.489 8.449,16.695 8.138 C 16.381 8.015,15.821 7.983,15.520 8.070 M8.560 28.075 C 8.082 28.290,7.870 28.908,8.100 29.416 C 8.233 29.707,8.476 29.899,8.801 29.969 C 9.139 30.041,22.962 30.048,23.273 29.976 C 23.533 29.916,23.813 29.648,23.926 29.351 C 24.095 28.908,23.938 28.436,23.529 28.155 L 23.341 28.027 16.031 28.015 C 10.004 28.006,8.692 28.016,8.560 28.075 " fill="var(--db-icon-color, currentColor)" stroke="none" fill-rule="evenodd"></path></svg>