<svg id="icon" height="24" viewBox="0 0 24 24" width="24" xmlns="http://www.w3.org/2000/svg"><path d="M5.094 3.044 C 4.619 3.123,4.101 3.398,3.728 3.769 C 3.453 4.042,3.271 4.332,3.127 4.727 L 3.020 5.020 3.020 7.980 L 3.020 10.940 3.142 11.282 C 3.425 12.072,4.003 12.624,4.840 12.905 C 5.044 12.973,5.269 12.979,8.030 12.991 L 11.000 13.003 11.000 16.501 L 11.000 20.000 9.295 20.000 C 8.073 20.000,7.543 20.014,7.425 20.049 C 7.205 20.114,6.874 20.445,6.809 20.665 C 6.664 21.155,6.905 21.727,7.340 21.925 C 7.492 21.994,7.728 21.998,11.860 21.999 L 16.220 21.999 16.423 21.905 C 16.769 21.744,17.000 21.357,17.000 20.940 C 17.000 20.582,16.652 20.143,16.289 20.042 C 16.198 20.017,15.528 20.000,14.570 20.000 L 13.000 20.000 13.000 16.500 L 13.000 13.000 15.294 13.000 C 17.430 13.000,17.608 12.995,17.890 12.923 C 18.246 12.832,18.549 12.686,18.804 12.483 C 19.043 12.294,21.960 9.474,22.068 9.327 C 22.646 8.546,22.630 7.285,22.033 6.577 C 21.902 6.421,19.554 4.134,19.030 3.652 C 18.700 3.348,18.274 3.134,17.848 3.058 C 17.595 3.013,16.446 3.003,11.420 3.006 C 8.054 3.008,5.207 3.025,5.094 3.044 M17.612 5.059 C 17.737 5.092,17.916 5.167,18.010 5.226 C 18.237 5.369,20.220 7.332,20.365 7.558 C 20.511 7.783,20.522 8.080,20.395 8.332 C 20.343 8.436,19.876 8.937,19.169 9.648 C 18.259 10.563,17.986 10.814,17.824 10.888 L 17.620 10.980 11.682 10.991 C 5.172 11.002,5.503 11.013,5.269 10.769 C 5.036 10.526,5.040 10.575,5.041 7.991 C 5.042 5.771,5.046 5.610,5.116 5.460 C 5.212 5.250,5.352 5.127,5.566 5.060 C 5.839 4.975,17.285 4.974,17.612 5.059 " fill="var(--db-icon-color, currentColor)" stroke="none" fill-rule="evenodd"></path></svg>