<svg id="icon" height="20" viewBox="0 0 20 20" width="20" xmlns="http://www.w3.org/2000/svg"><path d="M9.433 2.019 C 9.369 2.027,9.177 2.049,9.007 2.069 C 7.090 2.292,5.164 3.324,3.941 4.782 C 2.913 6.007,2.318 7.311,2.078 8.867 C 1.995 9.402,1.995 10.598,2.078 11.133 C 2.628 14.691,5.309 17.372,8.867 17.922 C 9.402 18.005,10.598 18.005,11.133 17.922 C 12.644 17.689,14.032 17.061,15.183 16.090 C 16.447 15.024,17.377 13.512,17.778 11.866 C 17.938 11.208,17.982 10.810,17.982 10.000 C 17.982 9.447,17.966 9.149,17.922 8.867 C 17.533 6.348,16.075 4.235,13.882 3.012 C 13.033 2.539,12.144 2.239,11.133 2.084 C 10.800 2.033,9.680 1.991,9.433 2.019 M7.756 6.050 C 7.968 6.113,8.208 6.321,8.327 6.546 L 8.417 6.717 8.427 7.958 L 8.438 9.200 10.000 9.200 L 11.563 9.200 11.573 7.958 C 11.582 6.865,11.590 6.701,11.641 6.589 C 11.844 6.141,12.318 5.913,12.772 6.045 C 13.007 6.114,13.249 6.323,13.354 6.549 L 13.433 6.717 13.433 10.000 L 13.433 13.283 13.355 13.450 C 13.252 13.670,13.024 13.876,12.801 13.950 C 12.310 14.113,11.766 13.826,11.618 13.326 C 11.576 13.185,11.567 12.925,11.567 11.877 L 11.567 10.600 10.002 10.600 L 8.437 10.600 8.427 11.942 L 8.417 13.283 8.336 13.447 C 8.175 13.774,7.826 14.000,7.483 14.000 C 7.141 14.000,6.793 13.773,6.628 13.441 L 6.550 13.283 6.550 10.000 L 6.550 6.717 6.626 6.567 C 6.760 6.303,6.929 6.148,7.174 6.063 C 7.390 5.988,7.537 5.985,7.756 6.050 " fill="var(--db-icon-color, currentColor)" stroke="none" fill-rule="evenodd"></path></svg>