<svg id="icon" height="20" viewBox="0 0 20 20" width="20" xmlns="http://www.w3.org/2000/svg"><path d="M9.412 2.034 C 7.492 2.236,5.866 3.457,5.257 5.153 C 5.078 5.652,5.017 6.035,5.018 6.650 C 5.019 7.285,5.061 7.545,5.256 8.133 C 5.483 8.817,5.508 8.858,8.695 13.814 C 8.953 14.217,9.221 14.605,9.290 14.678 C 9.675 15.084,10.325 15.084,10.710 14.678 C 10.835 14.546,13.945 9.733,14.285 9.145 C 14.585 8.626,14.794 8.084,14.920 7.500 C 15.015 7.059,15.008 6.193,14.906 5.736 C 14.812 5.316,14.702 5.005,14.525 4.650 C 13.627 2.861,11.568 1.807,9.412 2.034 M10.867 4.111 C 11.741 4.335,12.391 4.836,12.733 5.547 C 12.944 5.988,12.984 6.165,12.981 6.650 C 12.978 7.011,12.967 7.082,12.868 7.376 C 12.807 7.555,12.685 7.829,12.596 7.984 C 12.342 8.426,10.036 11.950,10.000 11.950 C 9.951 11.950,7.554 8.260,7.369 7.900 C 7.101 7.377,7.023 7.089,7.022 6.617 C 7.020 6.136,7.074 5.910,7.290 5.491 C 7.685 4.725,8.489 4.192,9.486 4.035 C 9.826 3.981,10.509 4.019,10.867 4.111 M9.698 6.043 C 9.291 6.159,9.000 6.557,9.000 7.000 C 9.000 7.293,9.087 7.498,9.299 7.706 C 9.588 7.988,9.927 8.067,10.333 7.947 C 10.583 7.873,10.873 7.583,10.947 7.333 C 11.097 6.828,10.885 6.308,10.446 6.102 C 10.254 6.011,9.906 5.984,9.698 6.043 M5.778 16.032 C 5.397 16.124,5.050 16.522,5.010 16.915 C 4.979 17.213,5.069 17.442,5.313 17.686 C 5.654 18.027,5.254 18.000,10.000 18.000 C 14.746 18.000,14.346 18.027,14.687 17.686 C 14.857 17.516,14.905 17.442,14.952 17.283 C 15.092 16.800,14.888 16.340,14.424 16.092 L 14.283 16.017 10.083 16.011 C 7.773 16.009,5.836 16.018,5.778 16.032 " fill="var(--db-icon-color, currentColor)" stroke="none" fill-rule="evenodd"></path></svg>