<svg id="icon" height="20" viewBox="0 0 20 20" width="20" xmlns="http://www.w3.org/2000/svg"><path d="M9.412 2.034 C 8.142 2.168,6.909 2.788,6.126 3.688 C 5.599 4.293,5.272 4.942,5.094 5.736 C 4.992 6.192,4.985 7.058,5.080 7.500 C 5.229 8.200,5.511 8.850,5.989 9.600 C 9.344 14.856,9.330 14.837,9.705 14.948 C 9.924 15.014,10.076 15.014,10.295 14.948 C 10.643 14.845,10.708 14.757,12.526 11.917 C 14.245 9.232,14.399 8.983,14.567 8.598 C 14.869 7.911,14.980 7.388,14.982 6.650 C 14.983 6.035,14.922 5.652,14.743 5.153 C 13.998 3.079,11.785 1.784,9.412 2.034 M10.636 5.113 C 11.392 5.376,11.928 6.078,11.987 6.881 C 12.029 7.453,11.825 7.982,11.403 8.401 C 11.112 8.690,10.855 8.838,10.480 8.934 C 10.010 9.054,9.498 8.992,9.056 8.760 C 8.752 8.601,8.374 8.212,8.222 7.900 C 7.647 6.727,8.309 5.340,9.583 5.047 C 9.879 4.979,10.332 5.007,10.636 5.113 M5.778 16.032 C 5.397 16.124,5.050 16.522,5.010 16.915 C 4.979 17.213,5.069 17.442,5.313 17.686 C 5.654 18.027,5.254 18.000,10.000 18.000 C 14.746 18.000,14.346 18.027,14.687 17.686 C 14.857 17.516,14.905 17.442,14.952 17.283 C 15.092 16.800,14.888 16.340,14.424 16.092 L 14.283 16.017 10.083 16.011 C 7.773 16.009,5.836 16.018,5.778 16.032 " fill="var(--db-icon-color, currentColor)" stroke="none" fill-rule="evenodd"></path></svg>