<svg id="icon" height="32" viewBox="0 0 32 32" width="32" xmlns="http://www.w3.org/2000/svg"><path d="M15.413 8.880 C 3.656 14.210,3.599 14.237,3.347 14.507 C 2.653 15.255,2.897 16.440,3.835 16.873 C 4.079 16.986,4.104 16.987,9.462 17.001 C 13.290 17.011,14.865 17.032,14.916 17.074 C 14.974 17.122,14.987 18.064,14.987 22.290 C 14.987 27.980,14.975 27.768,15.321 28.219 C 15.416 28.342,15.625 28.517,15.787 28.608 C 16.048 28.755,16.127 28.773,16.507 28.772 C 16.839 28.772,16.981 28.746,17.147 28.658 C 17.472 28.485,17.734 28.200,17.908 27.829 C 17.995 27.644,20.401 22.396,23.254 16.166 C 26.678 8.689,28.450 4.762,28.467 4.612 C 28.515 4.183,28.301 3.792,27.924 3.621 C 27.442 3.402,28.223 3.074,15.413 8.880 " fill="var(--db-icon-color, currentColor)" stroke="none" fill-rule="evenodd"></path></svg>