<svg id="icon" height="20" viewBox="0 0 20 20" width="20" xmlns="http://www.w3.org/2000/svg"><path d="M6.650 2.045 C 6.401 2.128,2.317 4.192,2.243 4.272 C 2.203 4.315,2.135 4.426,2.093 4.517 L 2.017 4.683 2.017 10.983 L 2.017 17.283 2.111 17.476 C 2.320 17.902,2.874 18.112,3.337 17.940 C 3.421 17.909,4.294 17.474,5.278 16.974 L 7.066 16.064 9.825 16.994 C 11.342 17.505,12.686 17.943,12.811 17.966 C 13.236 18.045,13.029 18.134,16.183 16.522 C 17.081 16.064,17.635 15.761,17.728 15.679 C 17.830 15.588,17.891 15.496,17.935 15.367 C 17.996 15.190,17.998 14.969,17.999 8.967 C 17.999 4.649,17.989 2.711,17.964 2.622 C 17.918 2.455,17.697 2.217,17.485 2.106 C 17.336 2.027,17.279 2.017,16.992 2.017 L 16.668 2.017 14.808 2.946 L 12.948 3.876 10.149 2.950 C 7.519 2.081,7.333 2.025,7.067 2.013 C 6.886 2.005,6.735 2.016,6.650 2.045 M10.025 5.025 L 12.000 5.683 12.000 10.655 L 12.000 15.626 10.000 14.955 L 8.001 14.283 8.000 9.325 C 8.000 6.598,8.011 4.367,8.025 4.367 C 8.038 4.367,8.938 4.663,10.025 5.025 M6.000 9.492 L 6.000 14.384 5.017 14.875 C 4.476 15.146,4.026 15.367,4.017 15.367 C 4.007 15.367,4.000 13.169,4.000 10.483 L 4.000 5.600 4.992 5.102 C 5.537 4.828,5.987 4.603,5.992 4.602 C 5.996 4.601,6.000 6.801,6.000 9.492 M16.000 9.492 L 16.000 14.384 15.017 14.875 C 14.476 15.146,14.026 15.367,14.017 15.367 C 14.007 15.367,14.000 13.169,14.000 10.483 L 14.000 5.600 14.992 5.102 C 15.537 4.828,15.987 4.603,15.992 4.602 C 15.996 4.601,16.000 6.801,16.000 9.492 " fill="var(--db-icon-color, currentColor)" stroke="none" fill-rule="evenodd"></path></svg>