<svg id="icon" height="32" viewBox="0 0 32 32" width="32" xmlns="http://www.w3.org/2000/svg"><path d="M15.507 2.137 C 15.396 2.195,15.240 2.342,15.160 2.464 L 15.013 2.685 14.998 4.876 L 14.982 7.067 14.423 7.158 C 13.352 7.333,11.965 7.891,11.023 8.527 C 10.007 9.212,9.228 9.995,8.530 11.031 C 7.873 12.005,7.365 13.243,7.170 14.347 C 7.121 14.625,7.072 14.883,7.062 14.920 C 7.047 14.972,6.598 14.987,5.044 14.987 C 3.786 14.987,2.943 15.009,2.770 15.046 C 1.904 15.231,1.729 16.387,2.494 16.863 C 2.692 16.986,2.708 16.987,4.878 17.013 L 7.062 17.040 7.124 17.440 C 7.158 17.660,7.250 18.073,7.327 18.357 C 8.251 21.741,11.070 24.289,14.533 24.869 L 14.960 24.941 14.987 27.124 C 15.013 29.292,15.014 29.308,15.137 29.506 C 15.591 30.236,16.705 30.109,16.948 29.299 C 16.995 29.143,17.013 28.493,17.013 27.019 C 17.013 25.415,17.028 24.953,17.080 24.938 C 17.117 24.928,17.375 24.879,17.653 24.830 C 18.756 24.635,19.995 24.127,20.969 23.471 C 22.012 22.768,22.768 22.012,23.471 20.968 C 24.122 20.003,24.637 18.747,24.830 17.653 C 24.879 17.375,24.928 17.117,24.938 17.080 C 24.953 17.028,25.416 17.013,27.025 17.013 C 28.317 17.013,29.170 16.992,29.297 16.956 C 29.932 16.780,30.199 15.922,29.787 15.382 C 29.510 15.019,29.489 15.016,27.096 14.987 L 24.938 14.960 24.876 14.560 C 24.797 14.050,24.582 13.266,24.371 12.720 C 23.301 9.942,20.758 7.800,17.818 7.201 C 17.528 7.142,17.229 7.093,17.154 7.093 L 17.018 7.093 17.002 4.889 L 16.987 2.685 16.840 2.464 C 16.564 2.047,15.958 1.899,15.507 2.137 M17.440 9.148 C 18.792 9.442,19.942 10.073,20.934 11.066 C 21.943 12.074,22.565 13.218,22.863 14.613 C 22.935 14.953,22.960 15.300,22.960 16.000 C 22.960 17.295,22.784 18.074,22.256 19.120 C 21.307 21.001,19.689 22.289,17.615 22.813 C 17.086 22.947,16.956 22.959,16.000 22.959 C 15.044 22.959,14.914 22.947,14.385 22.813 C 11.683 22.130,9.716 20.096,9.137 17.387 C 9.001 16.750,9.001 15.250,9.137 14.613 C 9.756 11.716,11.989 9.578,14.907 9.088 C 15.463 8.995,16.892 9.029,17.440 9.148 M15.253 13.098 C 14.219 13.370,13.368 14.220,13.092 15.256 C 12.991 15.635,12.992 16.322,13.094 16.722 C 13.367 17.790,14.212 18.634,15.278 18.906 C 16.849 19.306,18.501 18.312,18.906 16.722 C 19.306 15.151,18.312 13.499,16.722 13.094 C 16.328 12.994,15.642 12.995,15.253 13.098 " fill="var(--db-icon-color, currentColor)" stroke="none" fill-rule="evenodd"></path></svg>