<svg id="icon" height="32" viewBox="0 0 32 32" width="32" xmlns="http://www.w3.org/2000/svg"><path d="M15.600 2.181 C 15.342 2.300,15.179 2.469,15.069 2.732 C 15.001 2.894,14.987 3.194,14.987 4.400 C 14.987 5.606,15.001 5.906,15.069 6.068 C 15.426 6.922,16.574 6.922,16.931 6.068 C 16.998 5.906,17.013 5.611,17.013 4.442 C 17.013 3.624,16.989 2.929,16.958 2.815 C 16.846 2.413,16.414 2.082,16.000 2.082 C 15.897 2.082,15.717 2.127,15.600 2.181 M15.799 8.161 C 15.539 8.220,15.228 8.447,15.133 8.649 C 14.994 8.942,8.049 27.423,8.017 27.583 C 7.882 28.256,8.479 28.962,9.181 28.959 C 9.733 28.957,9.718 28.970,12.934 25.757 C 14.578 24.116,15.957 22.773,16.000 22.773 C 16.043 22.773,17.422 24.116,19.066 25.757 C 22.266 28.954,22.270 28.957,22.803 28.959 C 23.516 28.962,24.119 28.260,23.983 27.583 C 23.932 27.328,16.957 8.837,16.828 8.613 C 16.631 8.273,16.180 8.075,15.799 8.161 " fill="var(--db-icon-color, currentColor)" stroke="none" fill-rule="evenodd"></path></svg>