<svg id="icon" height="20" viewBox="0 0 20 20" width="20" xmlns="http://www.w3.org/2000/svg"><path d="M9.317 6.211 C 5.760 7.793,2.805 9.112,2.750 9.141 C 2.695 9.170,2.594 9.252,2.527 9.322 C 2.038 9.828,2.226 10.684,2.879 10.929 C 3.068 11.000,3.090 11.000,6.050 11.000 L 9.031 11.000 9.041 14.008 C 9.050 17.001,9.050 17.017,9.121 17.171 C 9.367 17.702,9.963 17.929,10.474 17.687 C 10.691 17.584,10.858 17.407,10.976 17.155 C 11.020 17.061,12.330 14.118,13.886 10.617 C 16.536 4.654,16.715 4.238,16.714 4.067 C 16.712 3.649,16.386 3.332,15.959 3.334 C 15.799 3.335,15.209 3.591,9.317 6.211 M13.491 6.558 C 13.484 6.572,12.924 7.831,12.247 9.357 L 11.017 12.130 11.008 10.582 L 10.999 9.034 9.460 9.025 L 7.920 9.017 10.702 7.778 C 13.801 6.397,13.508 6.525,13.491 6.558 " fill="var(--db-icon-color, currentColor)" stroke="none" fill-rule="evenodd"></path></svg>