<svg id="icon" height="32" viewBox="0 0 32 32" width="32" xmlns="http://www.w3.org/2000/svg"><path d="M15.321 4.077 C 14.856 4.183,14.280 4.501,13.921 4.850 C 13.528 5.233,3.256 16.505,3.135 16.687 C 2.828 17.147,3.058 17.841,3.598 18.086 C 4.119 18.323,4.377 18.205,5.267 17.319 L 5.973 16.615 5.973 22.337 C 5.973 26.371,5.991 28.129,6.033 28.296 C 6.104 28.580,6.401 28.872,6.703 28.956 C 6.836 28.993,7.996 29.013,10.042 29.013 C 12.743 29.013,13.204 29.002,13.373 28.931 C 13.628 28.825,13.745 28.715,13.886 28.453 C 13.998 28.243,14.000 28.193,14.015 25.133 L 14.031 22.027 16.027 22.027 L 18.024 22.027 18.039 25.218 L 18.053 28.408 18.197 28.597 C 18.276 28.700,18.432 28.830,18.544 28.886 C 18.735 28.981,18.934 28.988,21.947 29.003 C 24.088 29.014,25.211 29.000,25.341 28.962 C 25.620 28.881,25.895 28.554,25.968 28.217 C 26.009 28.025,26.027 26.220,26.027 22.278 L 26.027 16.615 26.760 17.341 C 27.500 18.074,27.671 18.188,28.021 18.185 C 28.257 18.184,28.594 18.017,28.761 17.818 C 29.020 17.510,29.068 17.052,28.879 16.695 C 28.840 16.621,26.352 13.884,23.350 10.613 C 19.513 6.431,17.806 4.608,17.600 4.470 C 17.006 4.072,16.059 3.909,15.321 4.077 M16.462 6.120 C 16.609 6.189,17.607 7.294,20.329 10.400 L 23.997 14.587 23.998 20.787 L 24.000 26.987 22.000 26.987 L 20.000 26.987 20.000 23.865 C 20.000 21.349,19.986 20.709,19.927 20.569 C 19.835 20.347,19.573 20.126,19.318 20.056 C 19.041 19.979,12.807 19.980,12.603 20.057 C 12.390 20.138,12.215 20.313,12.101 20.560 C 12.009 20.760,12.002 20.974,12.001 23.880 L 12.000 26.987 10.000 26.987 L 8.000 26.987 8.001 20.787 L 8.003 14.587 11.695 10.390 C 13.725 8.082,15.459 6.157,15.547 6.111 C 15.762 6.001,16.217 6.005,16.462 6.120 " fill="var(--db-icon-color, currentColor)" stroke="none" fill-rule="evenodd"></path></svg>