<svg id="icon" height="32" viewBox="0 0 32 32" width="32" xmlns="http://www.w3.org/2000/svg"><path d="M5.257 2.108 C 4.278 2.377,3.467 3.173,3.113 4.213 C 3.020 4.489,3.013 4.728,3.013 8.080 C 3.013 11.431,3.020 11.672,3.113 11.947 C 3.359 12.669,3.869 13.274,4.521 13.616 C 5.275 14.013,5.033 13.994,9.773 14.014 L 14.027 14.031 14.027 21.014 L 14.027 27.997 11.739 28.012 L 9.450 28.027 9.219 28.195 C 8.789 28.506,8.646 28.974,8.847 29.416 C 8.979 29.707,9.222 29.899,9.548 29.969 C 9.918 30.048,19.943 30.049,20.228 29.970 C 20.626 29.860,21.011 29.376,21.011 28.987 C 21.011 28.782,20.850 28.433,20.686 28.283 C 20.388 28.008,20.315 28.000,18.108 28.000 L 16.053 28.000 16.053 21.016 L 16.053 14.032 19.853 14.016 L 23.653 14.000 24.008 13.862 C 24.203 13.786,24.518 13.613,24.709 13.477 C 25.121 13.182,28.382 9.867,28.594 9.526 C 28.803 9.190,28.959 8.679,28.996 8.209 C 29.036 7.694,28.917 7.129,28.655 6.600 C 28.480 6.247,28.303 6.053,26.592 4.344 C 25.248 3.002,24.644 2.434,24.449 2.332 C 23.834 2.009,24.395 2.026,14.535 2.031 C 7.132 2.035,5.473 2.049,5.257 2.108 M23.523 4.154 C 23.653 4.239,24.478 5.029,25.355 5.910 L 26.950 7.511 26.975 7.806 C 27.026 8.427,27.085 8.345,25.289 10.148 C 24.242 11.200,23.576 11.827,23.437 11.895 C 23.223 11.998,23.070 12.000,14.488 12.000 C 7.143 12.000,5.728 11.988,5.579 11.926 C 5.361 11.835,5.150 11.566,5.072 11.280 C 4.997 11.004,4.990 4.906,5.065 4.644 C 5.133 4.410,5.306 4.224,5.573 4.101 C 5.778 4.006,6.144 4.002,14.536 4.001 L 23.286 4.000 23.523 4.154 " fill="var(--db-icon-color, currentColor)" stroke="none" fill-rule="evenodd"></path></svg>