<svg id="icon" height="20" viewBox="0 0 20 20" width="20" xmlns="http://www.w3.org/2000/svg"><path d="M9.678 2.060 C 9.367 2.171,9.163 2.377,9.051 2.696 C 9.009 2.815,9.000 3.028,9.000 3.853 C 9.000 4.784,9.005 4.878,9.067 5.043 C 9.154 5.275,9.316 5.461,9.538 5.584 C 9.697 5.672,9.748 5.683,10.000 5.683 C 10.252 5.683,10.303 5.672,10.462 5.584 C 10.684 5.461,10.846 5.275,10.933 5.043 C 10.995 4.878,11.000 4.784,11.000 3.850 C 11.000 2.897,10.996 2.824,10.929 2.646 C 10.746 2.157,10.166 1.885,9.678 2.060 M9.745 7.030 C 9.581 7.072,9.418 7.188,9.318 7.332 C 9.177 7.536,5.525 17.044,5.507 17.255 C 5.458 17.820,6.093 18.238,6.609 17.981 C 6.668 17.951,7.455 17.190,8.358 16.289 L 10.000 14.650 11.642 16.289 C 12.545 17.190,13.336 17.954,13.400 17.987 C 13.477 18.027,13.591 18.048,13.736 18.049 C 13.923 18.050,13.979 18.035,14.118 17.949 C 14.219 17.887,14.320 17.786,14.382 17.685 C 14.468 17.547,14.483 17.489,14.483 17.303 C 14.483 17.093,14.403 16.876,12.655 12.333 C 11.649 9.721,10.804 7.538,10.776 7.483 C 10.703 7.337,10.536 7.171,10.384 7.093 C 10.239 7.018,9.915 6.986,9.745 7.030 " fill="var(--db-icon-color, currentColor)" stroke="none" fill-rule="evenodd"></path></svg>