<svg id="icon" height="24" viewBox="0 0 24 24" width="24" xmlns="http://www.w3.org/2000/svg"><path d="M11.510 2.057 C 11.289 2.136,11.096 2.298,10.971 2.511 L 10.860 2.700 10.848 4.028 C 10.840 4.889,10.851 5.413,10.879 5.517 C 10.987 5.918,11.414 6.240,11.837 6.240 C 12.264 6.240,12.688 5.926,12.798 5.529 C 12.823 5.441,12.840 4.857,12.840 4.097 C 12.840 2.645,12.824 2.544,12.557 2.277 C 12.310 2.030,11.853 1.935,11.510 2.057 M11.456 7.716 C 11.258 7.806,11.040 8.017,10.905 8.249 C 10.850 8.343,9.729 11.201,8.413 14.600 C 6.061 20.677,6.022 20.785,6.022 21.060 C 6.023 21.267,6.045 21.382,6.108 21.500 C 6.340 21.937,6.833 22.136,7.335 21.993 C 7.477 21.953,7.808 21.640,9.670 19.784 L 11.840 17.622 14.010 19.784 C 15.872 21.640,16.203 21.953,16.345 21.993 C 16.847 22.136,17.340 21.937,17.572 21.500 C 17.637 21.379,17.657 21.272,17.656 21.060 C 17.654 20.787,17.590 20.615,15.263 14.581 C 13.949 11.172,12.845 8.328,12.811 8.261 C 12.606 7.860,12.269 7.639,11.862 7.641 C 11.713 7.641,11.557 7.670,11.456 7.716 M12.974 14.217 L 14.035 16.975 12.938 15.878 L 11.840 14.781 10.755 15.860 C 10.158 16.454,9.682 16.904,9.697 16.860 C 9.757 16.686,11.810 11.378,11.831 11.343 C 11.843 11.323,11.866 11.341,11.883 11.383 C 11.899 11.425,12.390 12.701,12.974 14.217 " fill="var(--db-icon-color, currentColor)" stroke="none" fill-rule="evenodd"></path></svg>