<svg id="icon" height="32" viewBox="0 0 32 32" width="32" xmlns="http://www.w3.org/2000/svg"><path d="M28.733 4.055 C 28.623 4.083,26.697 4.957,24.454 5.999 C 22.210 7.041,20.361 7.893,20.344 7.893 C 20.327 7.893,18.579 7.079,16.458 6.084 C 14.338 5.090,12.475 4.238,12.318 4.191 C 11.990 4.094,11.482 4.082,11.173 4.164 C 10.851 4.250,2.446 8.156,2.302 8.287 C 2.233 8.349,2.137 8.472,2.088 8.560 C 2.007 8.707,2.000 9.428,2.000 17.467 L 2.000 26.213 2.125 26.466 C 2.193 26.605,2.321 26.771,2.409 26.833 C 2.611 26.977,2.965 27.019,3.234 26.933 C 3.347 26.896,5.289 26.018,7.548 24.981 L 11.656 23.095 15.815 24.999 L 19.973 26.903 20.347 26.905 L 20.720 26.907 24.987 24.942 C 27.333 23.861,29.372 22.913,29.516 22.835 C 29.698 22.737,29.813 22.628,29.889 22.480 L 30.000 22.267 30.000 13.440 C 30.000 4.709,29.999 4.611,29.893 4.432 C 29.730 4.155,29.537 4.038,29.216 4.020 C 29.060 4.012,28.843 4.028,28.733 4.055 M10.627 21.340 C 10.596 21.370,4.384 24.277,4.067 24.410 C 4.014 24.432,4.000 22.936,4.000 17.032 L 4.000 9.626 7.320 8.100 L 10.640 6.573 10.654 13.937 C 10.661 17.987,10.649 21.319,10.627 21.340 M16.080 8.147 C 17.664 8.881,19.050 9.525,19.160 9.577 L 19.360 9.673 19.360 17.050 C 19.360 21.107,19.342 24.425,19.320 24.423 C 19.298 24.421,17.792 23.729,15.973 22.885 L 12.667 21.351 12.653 13.956 L 12.640 6.561 12.920 6.687 C 13.074 6.756,14.496 7.413,16.080 8.147 M27.959 21.342 C 27.921 21.381,21.397 24.427,21.353 24.427 C 21.342 24.427,21.333 21.104,21.333 17.043 C 21.333 11.195,21.347 9.651,21.400 9.617 C 21.437 9.593,22.931 8.900,24.720 8.076 L 27.973 6.578 27.987 13.939 C 27.994 17.988,27.982 21.320,27.959 21.342 " fill="var(--db-icon-color, currentColor)" stroke="none" fill-rule="evenodd"></path></svg>