<svg id="icon" height="24" viewBox="0 0 24 24" width="24" xmlns="http://www.w3.org/2000/svg"><path d="M11.680 2.059 C 11.432 2.139,11.227 2.321,11.104 2.568 L 11.000 2.776 11.000 3.902 L 11.000 5.029 10.650 5.098 C 9.785 5.269,8.709 5.736,7.980 6.258 C 6.534 7.294,5.524 8.838,5.180 10.540 L 5.091 10.980 3.895 11.000 C 2.600 11.022,2.613 11.019,2.323 11.264 C 2.109 11.443,2.022 11.657,2.022 12.000 C 2.022 12.333,2.101 12.535,2.306 12.725 C 2.576 12.975,2.593 12.978,3.896 13.000 L 5.092 13.020 5.168 13.400 C 5.628 15.692,7.234 17.629,9.395 18.498 C 9.825 18.671,10.716 18.920,10.905 18.920 L 11.000 18.920 11.000 20.033 C 11.000 21.313,11.020 21.422,11.300 21.702 C 11.776 22.178,12.571 22.058,12.894 21.460 C 12.976 21.308,12.981 21.240,12.992 20.120 L 13.004 18.940 13.360 18.871 C 15.200 18.511,16.824 17.408,17.879 15.800 C 18.335 15.104,18.711 14.180,18.868 13.370 L 18.940 13.000 20.060 12.998 C 21.264 12.996,21.357 12.984,21.619 12.783 C 21.696 12.725,21.808 12.592,21.869 12.489 C 21.964 12.328,21.980 12.256,21.980 12.000 C 21.980 11.754,21.962 11.668,21.880 11.522 C 21.763 11.314,21.501 11.101,21.289 11.042 C 21.203 11.018,20.674 11.000,20.040 11.000 L 18.939 11.000 18.870 10.623 C 18.720 9.808,18.307 8.806,17.821 8.080 C 16.809 6.568,15.208 5.490,13.420 5.114 L 13.000 5.026 12.999 3.903 C 12.998 2.860,12.992 2.767,12.917 2.600 C 12.702 2.125,12.180 1.897,11.680 2.059 M12.601 7.042 C 13.703 7.177,14.722 7.678,15.522 8.478 C 16.797 9.753,17.285 11.575,16.820 13.320 C 16.690 13.806,16.312 14.580,16.006 14.986 C 15.232 16.013,14.102 16.693,12.827 16.900 C 12.346 16.978,11.588 16.976,11.117 16.895 C 10.717 16.827,10.077 16.620,9.742 16.452 C 8.699 15.928,7.829 14.992,7.387 13.920 C 6.612 12.042,7.038 9.918,8.478 8.478 C 9.578 7.378,11.079 6.855,12.601 7.042 M11.602 10.044 C 11.265 10.110,10.847 10.343,10.585 10.612 C 9.802 11.413,9.808 12.608,10.600 13.400 C 11.398 14.198,12.602 14.198,13.400 13.400 C 14.192 12.608,14.198 11.413,13.415 10.612 C 12.944 10.129,12.260 9.915,11.602 10.044 " fill="var(--db-icon-color, currentColor)" stroke="none" fill-rule="evenodd"></path></svg>