<svg id="icon" height="24" viewBox="0 0 24 24" width="24" xmlns="http://www.w3.org/2000/svg"><path d="M8.760 2.035 C 8.569 2.099,2.459 5.169,2.330 5.266 C 2.258 5.320,2.159 5.440,2.110 5.532 L 2.020 5.700 2.009 12.960 C 2.000 18.595,2.008 20.260,2.046 20.399 C 2.108 20.625,2.361 20.884,2.585 20.951 C 2.803 21.016,2.979 21.013,3.243 20.939 C 3.362 20.906,4.717 20.253,6.253 19.489 L 9.046 18.100 11.919 19.550 C 14.674 20.940,14.802 21.000,15.016 21.000 C 15.230 21.000,15.372 20.933,18.435 19.402 C 21.892 17.673,21.840 17.704,21.954 17.326 C 22.020 17.105,22.020 2.857,21.954 2.637 C 21.808 2.150,21.311 1.934,20.717 2.101 C 20.598 2.135,19.262 2.778,17.749 3.530 L 14.998 4.899 12.132 3.466 C 9.124 1.962,9.061 1.935,8.760 2.035 M8.039 10.490 L 8.038 16.340 6.043 17.350 C 4.946 17.905,4.038 18.360,4.024 18.360 C 4.011 18.360,4.000 15.728,4.001 12.510 L 4.002 6.660 5.991 5.651 C 7.085 5.097,7.994 4.642,8.010 4.641 C 8.027 4.641,8.040 7.272,8.039 10.490 M13.590 6.450 L 13.999 6.660 14.000 12.510 C 14.000 15.728,13.992 18.360,13.982 18.360 C 13.972 18.360,13.081 17.908,12.002 17.356 L 10.040 16.353 10.040 10.494 L 10.040 4.635 11.610 5.437 C 12.473 5.878,13.364 6.334,13.590 6.450 M20.000 10.493 L 20.000 16.345 18.020 17.353 C 16.930 17.907,16.030 18.360,16.020 18.360 C 16.009 18.360,16.000 15.727,16.000 12.510 L 16.000 6.659 17.970 5.654 C 19.053 5.101,19.953 4.646,19.970 4.644 C 19.987 4.642,20.000 7.274,20.000 10.493 " fill="var(--db-icon-color, currentColor)" stroke="none" fill-rule="evenodd"></path></svg>