<svg id="icon" height="24" viewBox="0 0 24 24" width="24" xmlns="http://www.w3.org/2000/svg"><path d="M11.294 2.041 C 9.875 2.190,8.606 2.790,7.619 3.778 C 6.830 4.568,6.359 5.427,6.113 6.523 C 5.979 7.123,5.979 8.117,6.113 8.717 C 6.246 9.308,6.445 9.868,6.711 10.400 C 6.985 10.945,11.121 17.517,11.311 17.707 C 11.566 17.964,11.916 18.056,12.264 17.959 C 12.646 17.852,12.711 17.761,15.005 14.100 C 16.176 12.230,17.230 10.511,17.346 10.280 C 17.578 9.820,17.791 9.209,17.904 8.680 C 18.008 8.197,18.008 7.074,17.905 6.602 C 17.547 4.963,16.572 3.642,15.100 2.803 C 14.010 2.182,12.613 1.902,11.294 2.041 M12.600 4.041 C 13.859 4.204,14.925 4.873,15.517 5.871 C 16.172 6.976,16.145 8.427,15.447 9.600 C 15.059 10.252,12.033 14.940,12.000 14.940 C 11.970 14.940,9.855 11.668,8.820 10.020 C 8.487 9.489,8.227 8.913,8.110 8.446 C 7.988 7.958,7.989 7.187,8.111 6.754 C 8.290 6.120,8.571 5.640,9.027 5.190 C 9.391 4.829,9.622 4.668,10.100 4.437 C 10.866 4.068,11.740 3.930,12.600 4.041 M11.602 6.044 C 11.265 6.110,10.847 6.343,10.585 6.612 C 9.802 7.413,9.808 8.608,10.600 9.400 C 11.398 10.198,12.602 10.198,13.400 9.400 C 14.192 8.608,14.198 7.413,13.415 6.612 C 12.944 6.129,12.260 5.915,11.602 6.044 M6.760 20.037 C 6.559 20.099,6.406 20.201,6.252 20.376 C 6.013 20.647,5.946 20.948,6.048 21.295 C 6.114 21.518,6.482 21.886,6.705 21.952 C 6.943 22.022,17.057 22.022,17.295 21.952 C 17.518 21.886,17.886 21.518,17.952 21.295 C 18.054 20.948,17.987 20.647,17.748 20.376 C 17.661 20.277,17.516 20.157,17.425 20.108 L 17.260 20.020 12.060 20.013 C 9.200 20.009,6.815 20.020,6.760 20.037 " fill="var(--db-icon-color, currentColor)" stroke="none" fill-rule="evenodd"></path></svg>