<svg id="icon" height="32" viewBox="0 0 32 32" width="32" xmlns="http://www.w3.org/2000/svg"><path d="M15.460 2.179 C 15.033 2.450,15.016 2.526,14.997 4.213 C 14.979 5.746,15.002 5.960,15.209 6.241 C 15.621 6.799,16.553 6.723,16.875 6.107 C 16.981 5.904,16.987 5.813,16.987 4.289 L 16.987 2.685 16.840 2.464 C 16.542 2.013,15.923 1.886,15.460 2.179 M15.627 8.138 C 15.423 8.227,15.220 8.398,15.137 8.551 C 14.990 8.824,8.045 27.366,8.018 27.559 C 7.951 28.027,8.219 28.529,8.658 28.759 C 8.960 28.917,9.440 28.918,9.733 28.761 C 9.857 28.695,11.202 27.390,12.933 25.657 C 14.576 24.012,15.956 22.667,16.000 22.667 C 16.044 22.667,17.424 24.012,19.067 25.657 C 20.798 27.390,22.143 28.695,22.267 28.761 C 22.560 28.918,23.040 28.917,23.342 28.759 C 23.781 28.529,24.049 28.027,23.982 27.559 C 23.929 27.191,16.886 8.548,16.740 8.390 C 16.460 8.086,15.991 7.980,15.627 8.138 M18.343 18.121 C 19.616 21.516,20.670 24.329,20.684 24.373 C 20.697 24.417,19.811 23.565,18.714 22.478 C 16.612 20.396,16.453 20.267,16.000 20.267 C 15.547 20.267,15.388 20.396,13.286 22.478 C 12.189 23.565,11.303 24.417,11.316 24.373 C 11.420 24.043,15.979 11.949,16.000 11.949 C 16.015 11.949,17.069 14.727,18.343 18.121 " fill="var(--db-icon-color, currentColor)" stroke="none" fill-rule="evenodd"></path></svg>