<svg id="icon" height="24" viewBox="0 0 24 24" width="24" xmlns="http://www.w3.org/2000/svg"><path d="M20.100 2.894 C 19.550 3.123,3.792 10.003,3.566 10.113 C 3.166 10.308,2.922 10.737,2.982 11.138 C 3.022 11.409,3.225 11.715,3.457 11.859 L 3.654 11.980 7.847 11.991 L 12.040 12.001 12.040 15.996 C 12.040 19.388,12.049 20.015,12.098 20.155 C 12.241 20.560,12.610 20.819,13.040 20.818 C 13.357 20.817,13.567 20.718,13.780 20.471 C 13.895 20.337,14.723 18.503,17.585 12.040 C 20.016 6.551,21.251 3.718,21.267 3.596 C 21.279 3.493,21.269 3.347,21.243 3.268 C 21.157 3.009,20.792 2.759,20.500 2.761 C 20.456 2.761,20.276 2.821,20.100 2.894 " fill="var(--db-icon-color, currentColor)" stroke="none" fill-rule="evenodd"></path></svg>