<svg width="16" height="16" viewBox="0 0 16 16" fill="none" xmlns="http://www.w3.org/2000/svg">
<g clip-path="url(#clip0_186_50)">
<path fill-rule="evenodd" clip-rule="evenodd" d="M8 1.49841C8.45714 1.49841 8.8127 1.85397 8.8127 2.31111V3.14917C10.8698 3.5048 12.4952 5.1302 12.8508 7.1873H13.6889C14.1715 7.1873 14.5016 7.54286 14.5016 8C14.5016 8.43171 14.1715 8.8127 13.6889 8.8127H12.8508C12.4952 10.8698 10.8698 12.4952 8.8127 12.8254V13.6889C8.8127 14.146 8.45714 14.5016 8 14.5016C7.54286 14.5016 7.1873 14.146 7.1873 13.6889V12.8254C5.1302 12.4952 3.5048 10.8698 3.14917 8.8127H2.31111C1.93012 8.8127 1.49841 8.53329 1.49841 8C1.49841 7.54286 1.87941 7.1873 2.31111 7.1873H3.14917C3.5048 5.1302 5.1302 3.5048 7.1873 3.14917V2.31111C7.1873 1.85397 7.54286 1.49841 8 1.49841ZM8 4.74921C6.19679 4.74921 4.74921 6.19679 4.74921 8C4.74921 9.80322 6.19679 11.2508 8 11.2508C9.80322 11.2508 11.2508 9.80322 11.2508 8C11.2508 6.19679 9.80322 4.74921 8 4.74921ZM6.3746 8C6.3746 8.88893 7.11107 9.6254 8 9.6254C8.88893 9.6254 9.6254 8.88893 9.6254 8C9.6254 7.11107 8.88893 6.3746 8 6.3746C7.11107 6.3746 6.3746 7.11107 6.3746 8Z" fill="#1A1C1F"/>
</g>
<defs>
<clipPath id="clip0_186_50">
<rect width="16" height="16" fill="white"/>
</clipPath>
</defs>
</svg>
