<svg width="14" height="14" viewBox="0 0 14 14" fill="none" xmlns="http://www.w3.org/2000/svg">
<g clip-path="url(#clip0_2213_4832)">
<path fill-rule="evenodd" clip-rule="evenodd" d="M7.00023 4.82393C7.36372 4.82517 7.529 5.07688 7.6003 5.26229L10.1937 12.012C10.3034 12.2972 10.1611 12.6174 9.87591 12.7271C9.6718 12.8056 9.4406 12.7565 9.28598 12.6019L7.00023 10.3159L4.71386 12.6023C4.49777 12.8184 4.14741 12.8184 3.93131 12.6023C3.77669 12.4477 3.72763 12.2165 3.80612 12.0124L6.40454 5.26219C6.4758 5.07688 6.6135 4.82264 7.00023 4.82393ZM7 1.23566C7.36819 1.23566 7.67164 1.51281 7.71311 1.86988L7.71794 1.95361V3.17547C7.71794 3.57199 7.39651 3.89342 7 3.89342C6.63181 3.89342 6.32835 3.61627 6.28688 3.2592L6.28205 3.17547V1.95361C6.28205 1.55709 6.60348 1.23566 7 1.23566Z" fill="#1A1C1F"/>
</g>
<defs>
<clipPath id="clip0_2213_4832">
<rect width="14" height="14" fill="white"/>
</clipPath>
</defs>
</svg>
