<svg width="14" height="14" viewBox="0 0 14 14" fill="none" xmlns="http://www.w3.org/2000/svg">
<g clip-path="url(#clip0_186_52)">
<path fill-rule="evenodd" clip-rule="evenodd" d="M7 1.25641C7.40384 1.25641 7.71795 1.57051 7.71795 1.97436V2.71471C9.53522 3.02888 10.9711 4.46478 11.2853 6.28205H12.0256C12.452 6.28205 12.7436 6.59615 12.7436 7C12.7436 7.38137 12.452 7.71795 12.0256 7.71795H11.2853C10.9711 9.53522 9.53522 10.9711 7.71795 11.2628V12.0256C7.71795 12.4295 7.40384 12.7436 7 12.7436C6.59615 12.7436 6.28205 12.4295 6.28205 12.0256V11.2628C4.46478 10.9711 3.02888 9.53522 2.71471 7.71795H1.97436C1.63778 7.71795 1.25641 7.47112 1.25641 7C1.25641 6.59615 1.59298 6.28205 1.97436 6.28205H2.71471C3.02888 4.46478 4.46478 3.02888 6.28205 2.71471V1.97436C6.28205 1.57051 6.59615 1.25641 7 1.25641ZM7 4.1282C5.40701 4.1282 4.1282 5.40701 4.1282 7C4.1282 8.59298 5.40701 9.87179 7 9.87179C8.59298 9.87179 9.87179 8.59298 9.87179 7C9.87179 5.40701 8.59298 4.1282 7 4.1282ZM5.5641 7C5.5641 7.78529 6.21471 8.4359 7 8.4359C7.78529 8.4359 8.4359 7.78529 8.4359 7C8.4359 6.21471 7.78529 5.5641 7 5.5641C6.21471 5.5641 5.5641 6.21471 5.5641 7Z" fill="#1A1C1F"/>
</g>
<defs>
<clipPath id="clip0_186_52">
<rect width="14" height="14" fill="white"/>
</clipPath>
</defs>
</svg>
