<svg width="24" height="24" viewBox="0 0 24 24" fill="none" xmlns="http://www.w3.org/2000/svg">
<g clip-path="url(#clip0_186_46)">
<path fill-rule="evenodd" clip-rule="evenodd" d="M12 2C12.5625 2 13 2.4375 13 2.9688V5.0312C16.0938 5.5 18.5 7.9062 18.9375 11H21C21.5625 11 22 11.4375 22 12C22 12.5625 21.5625 13 21 13H18.9375C18.5 16.0625 16.0625 18.5 13 18.9375V21C13 21.5625 12.5625 22 12 22C11.4688 22 11 21.5625 11 21V18.9375C7.9375 18.5 5.5312 16.0625 5.0938 13H3C2.4375 13 2 12.5625 2 12C2 11.4375 2.4375 11 3 11H5.0938C5.5312 7.9062 7.9375 5.5 11 5.0312V2.9688C11 2.4375 11.4688 2 12 2ZM12 7C9.25 7 7 9.25 7 12C7 14.6875 9.125 16.9688 12 16.9688C14.8438 16.9688 17 14.7188 17 12C17 9.25 14.75 7 12 7ZM10 12C10 10.9062 10.9062 10 12 10C13.0938 10 14 10.9062 14 12C14 13.0938 13.0938 14 12 14C10.9062 14 10 13.0938 10 12Z" fill="#1A1C1F"/>
</g>
<defs>
<clipPath id="clip0_186_46">
<rect width="24" height="24" fill="white"/>
</clipPath>
</defs>
</svg>
