<svg width="20" height="20" viewBox="0 0 20 20" fill="none" xmlns="http://www.w3.org/2000/svg">
<g clip-path="url(#clip0_2213_5043)">
<path fill-rule="evenodd" clip-rule="evenodd" d="M5 17C5 16.4688 5.5 16 6 16H14C14.5625 16 15 16.4375 15 17C15 17.5625 14.5 18 14 18H6C5.5 18 5 17.5625 5 17ZM10 2C12.7812 2 15 4.03125 15 6.65625C15 7.59375 14.6875 8.5625 14.0938 9.46875L10.8438 14.5312C10.625 14.8438 10.3125 15 10 15C9.6875 15 9.375 14.8438 9.15625 14.5312L5.90625 9.46875C5.3125 8.5625 5 7.59375 5 6.65625C5 4.03125 7.21875 2 10 2ZM10 5C8.90625 5 8 5.91339 8 7.01575C8 8.11811 8.90625 9 10 9C11.0938 9 12 8.11811 12 7.01575C12 5.91339 11.0938 5 10 5Z" fill="#1A1C1F"/>
</g>
<defs>
<clipPath id="clip0_2213_5043">
<rect width="20" height="20" fill="white"/>
</clipPath>
</defs>
</svg>
