<svg width="16" height="16" viewBox="0 0 16 16" fill="none" xmlns="http://www.w3.org/2000/svg">
<g clip-path="url(#clip0_2213_4829)">
<path fill-rule="evenodd" clip-rule="evenodd" d="M8.00024 5.53674C8.41171 5.53815 8.59879 5.82308 8.67951 6.03295L11.6152 13.6734C11.7394 13.9963 11.5783 14.3587 11.2554 14.4829C11.0244 14.5718 10.7627 14.5162 10.5876 14.3412L8.00024 11.7535L5.41214 14.3416C5.16752 14.5862 4.77093 14.5862 4.52631 14.3416C4.35129 14.1666 4.29575 13.9049 4.38459 13.6739L7.32594 6.03284C7.4066 5.82308 7.56247 5.53529 8.00024 5.53674ZM7.99998 1.47492C8.41676 1.47492 8.76026 1.78865 8.80721 2.19284L8.81268 2.28762V3.67074C8.81268 4.11958 8.44882 4.48344 7.99998 4.48344C7.5832 4.48344 7.23969 4.1697 7.19275 3.76552L7.18728 3.67074V2.28762C7.18728 1.83878 7.55114 1.47492 7.99998 1.47492Z" fill="#1A1C1F"/>
</g>
<defs>
<clipPath id="clip0_2213_4829">
<rect width="16" height="16" fill="white"/>
</clipPath>
</defs>
</svg>
