<svg width="12" height="12" viewBox="0 0 12 12" fill="none" xmlns="http://www.w3.org/2000/svg">
<g clip-path="url(#clip0_232_309)">
<path fill-rule="evenodd" clip-rule="evenodd" d="M2.9231 10.3077C2.9231 9.98081 3.23079 9.69232 3.53848 9.69232H8.46156C8.80771 9.69232 9.07694 9.96155 9.07694 10.3077C9.07694 10.6539 8.76925 10.9231 8.46156 10.9231H3.53848C3.23079 10.9231 2.9231 10.6539 2.9231 10.3077ZM6.00002 1.07693C7.71153 1.07693 9.07694 2.3269 9.07694 3.94229C9.07694 4.51927 8.88463 5.1154 8.51928 5.67312L6.51928 8.78844C6.40383 8.96155 6.19233 9.07693 6.00002 9.07693C5.80771 9.07693 5.5962 8.96155 5.48076 8.78844L3.48076 5.67312C3.1154 5.1154 2.9231 4.51927 2.9231 3.94229C2.9231 2.3269 4.28851 1.07693 6.00002 1.07693ZM6.00002 2.3077C4.9423 2.3077 4.15387 3.01921 4.15387 3.92309C4.15387 4.23078 4.28851 4.5962 4.51928 4.96155L6.00002 7.23078L7.48076 4.96155C7.71153 4.5962 7.84617 4.2885 7.84617 3.92309C7.84617 3.01921 7.05774 2.3077 6.00002 2.3077ZM5.38463 4.15386C5.38463 3.8077 5.6346 3.53847 6.00002 3.53847C6.34617 3.53847 6.6154 3.78844 6.6154 4.15386C6.6154 4.50001 6.36543 4.76924 6.00002 4.76924C5.65387 4.76924 5.38463 4.51927 5.38463 4.15386Z" fill="#1A1C1F"/>
</g>
<defs>
<clipPath id="clip0_232_309">
<rect width="12" height="12" fill="white"/>
</clipPath>
</defs>
</svg>
