<svg width="12" height="12" viewBox="0 0 12 12" fill="none" xmlns="http://www.w3.org/2000/svg">
<g clip-path="url(#clip0_2213_4835)">
<path fill-rule="evenodd" clip-rule="evenodd" d="M6.0002 4.13479C6.31177 4.13586 6.45343 4.35161 6.51455 4.51053L8.73749 10.296C8.83153 10.5405 8.70956 10.8149 8.46507 10.9089C8.29012 10.9762 8.09195 10.9342 7.95942 10.8016L6.0002 8.84221L4.04046 10.8019C3.85524 10.9872 3.55493 10.9872 3.36971 10.8019C3.23717 10.6694 3.19512 10.4713 3.26239 10.2963L5.48961 4.51044C5.55069 4.35161 5.66872 4.13369 6.0002 4.13479ZM6 1.05913C6.3156 1.05913 6.5757 1.29669 6.61125 1.60275L6.61539 1.67452V2.72183C6.61539 3.0617 6.33987 3.33722 6 3.33722C5.68441 3.33722 5.42431 3.09965 5.38876 2.7936L5.38462 2.72183V1.67452C5.38462 1.33465 5.66014 1.05913 6 1.05913Z" fill="#1A1C1F"/>
</g>
<defs>
<clipPath id="clip0_2213_4835">
<rect width="12" height="12" fill="white"/>
</clipPath>
</defs>
</svg>
