<svg width="20" height="20" viewBox="0 0 20 20" fill="none" xmlns="http://www.w3.org/2000/svg">
<g clip-path="url(#clip0_186_48)">
<path fill-rule="evenodd" clip-rule="evenodd" d="M10 2C10.5625 2 11 2.4375 11 3V4.0312C13.5312 4.4688 15.5312 6.4688 15.9688 9H17C17.5938 9 18 9.4375 18 10C18 10.5312 17.5938 11 17 11H15.9688C15.5312 13.5312 13.5312 15.5312 11 15.9375V17C11 17.5625 10.5625 18 10 18C9.4375 18 9 17.5625 9 17V15.9375C6.4688 15.5312 4.4688 13.5312 4.0312 11H3C2.5312 11 2 10.6562 2 10C2 9.4375 2.4688 9 3 9H4.0312C4.4688 6.4688 6.4688 4.4688 9 4.0312V3C9 2.4375 9.4375 2 10 2ZM10 6C7.7812 6 6 7.7812 6 10C6 12.2188 7.7812 14 10 14C12.2188 14 14 12.2188 14 10C14 7.7812 12.2188 6 10 6ZM8 10C8 11.0938 8.9062 12 10 12C11.0938 12 12 11.0938 12 10C12 8.9062 11.0938 8 10 8C8.9062 8 8 8.9062 8 10Z" fill="#1A1C1F"/>
</g>
<defs>
<clipPath id="clip0_186_48">
<rect width="20" height="20" fill="white"/>
</clipPath>
</defs>
</svg>
