<svg width="20" height="20" viewBox="0 0 20 20" fill="none" xmlns="http://www.w3.org/2000/svg">
<g clip-path="url(#clip0_186_87)">
<path fill-rule="evenodd" clip-rule="evenodd" d="M10 2C13.4688 2 16 4.5938 16 8C16 9.375 15.375 10.9062 14.25 12.5625L10.8125 17.5625C10.625 17.8438 10.3438 18 10 18C9.6562 18 9.375 17.8438 9.1875 17.5625L5.75 12.5625C4.5938 10.875 4 9.375 4 8C4 4.6875 6.4375 2 10 2ZM10 4C7.5312 4 6 5.5 6 7.9062C6 9.125 6.6562 10.2812 7.375 11.2812L10 15L12.625 11.2812C13.3125 10.2812 14 9.125 14 7.9062C14 5.5 12.4688 4 10 4ZM8 8C8 6.9062 8.9062 6 10 6C11.0938 6 12 6.9062 12 8C12 9.0938 11.0938 10 10 10C8.9062 10 8 9.0938 8 8Z" fill="#1A1C1F"/>
</g>
<defs>
<clipPath id="clip0_186_87">
<rect width="20" height="20" fill="white"/>
</clipPath>
</defs>
</svg>
