<svg width="24" height="24" viewBox="0 0 24 24" fill="none" xmlns="http://www.w3.org/2000/svg">
<g clip-path="url(#clip0_186_85)">
<path fill-rule="evenodd" clip-rule="evenodd" d="M12 2C15.875 2 19 4.8438 19 8.375C19 9.7812 18.5312 11.125 17.8438 12.3438L12.875 21.4688C12.6875 21.8125 12.3438 22 12 22C11.625 22 11.2812 21.8125 11.0938 21.4688L6.1875 12.3438C5.5312 11.125 5 9.7812 5 8.375C5 4.8438 8.125 2 12 2ZM12 4C9.25 4 7 5.9688 7 8.4062C7 9.4688 7.4375 10.5312 7.9375 11.4688L12 19L16.0625 11.4375C16.5625 10.5312 17 9.4688 17 8.4062C17 5.9688 14.75 4 12 4ZM10 9C10 7.9062 10.9062 7 12 7C13.0938 7 14 7.9062 14 9C14 10.0938 13.0938 11 12 11C10.9062 11 10 10.0938 10 9Z" fill="#1A1C1F"/>
</g>
<defs>
<clipPath id="clip0_186_85">
<rect width="24" height="24" fill="white"/>
</clipPath>
</defs>
</svg>
