<svg width="20" height="20" viewBox="0 0 20 20" fill="none" xmlns="http://www.w3.org/2000/svg">
<g clip-path="url(#clip0_2213_5496)">
<path fill-rule="evenodd" clip-rule="evenodd" d="M10 2C13.4688 2 16 4.5938 16 8C16 9.375 15.4062 10.9062 14.25 12.5625L10.8125 17.5625C10.625 17.8438 10.3438 18 10 18C9.6562 18 9.375 17.8438 9.1875 17.5625L5.75 12.5625C4.5938 10.875 4 9.375 4 8C4 4.6875 6.4375 2 10 2ZM10 6C8.9062 6 8 6.9062 8 8C8 9.0938 8.9062 10 10 10C11.0938 10 12 9.0938 12 8C12 6.9062 11.0938 6 10 6Z" fill="#1A1C1F"/>
</g>
<defs>
<clipPath id="clip0_2213_5496">
<rect width="20" height="20" fill="white"/>
</clipPath>
</defs>
</svg>
