<svg width="24" height="24" viewBox="0 0 24 24" fill="none" xmlns="http://www.w3.org/2000/svg">
<g clip-path="url(#clip0_2213_5493)">
<path fill-rule="evenodd" clip-rule="evenodd" d="M12 2C15.8125 2 19 4.7812 19 8.25C19 9.6875 18.5312 11.0938 17.8438 12.3438L12.875 21.4688C12.6875 21.8125 12.3438 22 12 22C11.625 22 11.2812 21.8125 11.0938 21.4688L6.1875 12.3438C5.5312 11.125 5 9.7812 5 8.375C5 4.8438 8.125 2 12 2ZM12 7C10.9062 7 10 7.9062 10 9C10 10.0938 10.9062 11 12 11C13.0938 11 14 10.0938 14 9C14 7.9062 13.0938 7 12 7Z" fill="#1A1C1F"/>
</g>
<defs>
<clipPath id="clip0_2213_5493">
<rect width="24" height="24" fill="white"/>
</clipPath>
</defs>
</svg>
