<svg width="32" height="32" viewBox="0 0 32 32" fill="none" xmlns="http://www.w3.org/2000/svg">
<g clip-path="url(#clip0_186_81)">
<path fill-rule="evenodd" clip-rule="evenodd" d="M16 2C21 2 25 6 25 10.9375C25 12.8438 24.2195 14.5941 23.3754 16.3124L16.93 29.4338C16.7575 29.7849 16.4062 30 16.0312 30C15.6562 30 15.3053 29.7848 15.1322 29.434L8.6573 16.3099C7.8109 14.5945 7 12.8438 7 10.9375C7 5.9688 11.0312 2 16 2ZM16.0312 4.0312C12.1562 4.0312 9 7.1562 9 11.0312C9 12.625 9.7448 14.1275 10.4402 15.5548L16.0312 27.0312L21.5918 15.557C22.2849 14.1268 23 12.625 23 11.0625C23 7.1562 19.9062 4.0312 16.0312 4.0312ZM13 11C13 9.3438 14.3438 8 16 8C17.6562 8 19 9.3438 19 11C19 12.6562 17.6562 14 16 14C14.3438 14 13 12.6562 13 11Z" fill="#1A1C1F"/>
</g>
<defs>
<clipPath id="clip0_186_81">
<rect width="32" height="32" fill="white"/>
</clipPath>
</defs>
</svg>
