<svg width="12" height="12" viewBox="0 0 12 12" fill="none" xmlns="http://www.w3.org/2000/svg">
<g clip-path="url(#clip0_2213_5505)">
<path fill-rule="evenodd" clip-rule="evenodd" d="M6.00005 1.0769C8.13469 1.0769 9.69236 2.67309 9.69236 4.76921C9.69236 5.61537 9.32694 6.55764 8.61543 7.5769L6.50005 10.6538C6.38466 10.8269 6.21162 10.9231 6.00005 10.9231C5.78848 10.9231 5.61543 10.8269 5.50005 10.6538L3.38466 7.5769C2.67315 6.53844 2.30774 5.61537 2.30774 4.76921C2.30774 2.73075 3.80774 1.0769 6.00005 1.0769ZM6.00005 3.53844C5.32694 3.53844 4.76928 4.0961 4.76928 4.76921C4.76928 5.44232 5.32694 5.99998 6.00005 5.99998C6.67315 5.99998 7.23082 5.44232 7.23082 4.76921C7.23082 4.0961 6.67315 3.53844 6.00005 3.53844Z" fill="#1A1C1F"/>
</g>
<defs>
<clipPath id="clip0_2213_5505">
<rect width="12" height="12" fill="white"/>
</clipPath>
</defs>
</svg>
