<svg width="12" height="12" viewBox="0 0 12 12" fill="none" xmlns="http://www.w3.org/2000/svg">
<g clip-path="url(#clip0_232_313)">
<path fill-rule="evenodd" clip-rule="evenodd" d="M5.99999 1.0769C8.13463 1.0769 9.69229 2.67309 9.69229 4.76921C9.69229 5.61537 9.30768 6.55764 8.61537 7.5769L6.49999 10.6538C6.3846 10.8269 6.21156 10.9231 5.99999 10.9231C5.78842 10.9231 5.61537 10.8269 5.49999 10.6538L3.3846 7.5769C2.67309 6.53844 2.30768 5.61537 2.30768 4.76921C2.30768 2.73075 3.80768 1.0769 5.99999 1.0769ZM5.99999 2.30767C4.48072 2.30767 3.53845 3.23075 3.53845 4.71149C3.53845 5.46152 3.94226 6.17303 4.3846 6.78841L5.99999 9.0769L7.61537 6.78841C8.03845 6.17303 8.46152 5.46152 8.46152 4.71149C8.46152 3.23075 7.51925 2.30767 5.99999 2.30767ZM4.76922 4.76921C4.76922 4.0961 5.32688 3.53844 5.99999 3.53844C6.67309 3.53844 7.23075 4.0961 7.23075 4.76921C7.23075 5.44232 6.67309 5.99998 5.99999 5.99998C5.32688 5.99998 4.76922 5.44232 4.76922 4.76921Z" fill="#1A1C1F"/>
</g>
<defs>
<clipPath id="clip0_232_313">
<rect width="12" height="12" fill="white"/>
</clipPath>
</defs>
</svg>
