<svg width="12" height="12" viewBox="0 0 12 12" fill="none" xmlns="http://www.w3.org/2000/svg">
<g clip-path="url(#clip0_2213_5398)">
<path fill-rule="evenodd" clip-rule="evenodd" d="M5.94137 1.10767C5.77805 1.10767 5.61473 1.16885 5.5127 1.29121L3.10685 3.69465C2.98433 3.79666 2.9231 3.95986 2.9231 4.12305C2.9231 4.26583 2.98433 4.42903 3.10685 4.55145L5.57423 7.01643C5.67627 7.11838 5.83959 7.19997 6.00291 7.19997C6.34999 7.19997 6.6154 6.91441 6.6154 6.58802C6.6154 6.42483 6.55417 6.26163 6.43165 6.1392L5.02894 4.73782L7.23079 4.73844C7.57066 4.73844 7.84617 5.01395 7.84617 5.35382V10.2769C7.84617 10.6168 8.12169 10.8923 8.46156 10.8923C8.80142 10.8923 9.07694 10.6168 9.07694 10.2769V5.35382C9.07694 4.33422 8.25039 3.50767 7.23079 3.50767L5.03017 3.50705L6.37011 2.16844C6.49156 2.03763 6.55281 1.88803 6.55386 1.71962C6.55386 1.39323 6.28845 1.10767 5.94137 1.10767Z" fill="#1A1C1F"/>
</g>
<defs>
<clipPath id="clip0_2213_5398">
<rect width="12" height="12" fill="white"/>
</clipPath>
</defs>
</svg>
