<svg width="12" height="12" viewBox="0 0 12 12" fill="none" xmlns="http://www.w3.org/2000/svg">
<g clip-path="url(#clip0_2213_5442)">
<path fill-rule="evenodd" clip-rule="evenodd" d="M5.06153 1.06152C6.59093 1.06152 7.83076 2.30135 7.83076 3.83075V8.86214L8.64691 8.04528C8.77997 7.92277 8.92957 7.86152 9.09573 7.86152C9.42212 7.86152 9.70768 8.12694 9.70768 8.47402C9.70768 8.63734 9.6465 8.80066 9.52413 8.90269L7.67455 10.7547C7.57253 10.8772 7.40934 10.9384 7.24614 10.9384C7.10336 10.9384 6.94017 10.8772 6.81774 10.7547L4.96815 8.90269C4.8662 8.80066 4.7846 8.63734 4.7846 8.47402C4.7846 8.12694 5.07017 7.86152 5.39656 7.86152C5.55975 7.86152 5.72295 7.92275 5.84537 8.04528L6.59999 8.80122V3.83075C6.59999 2.98109 5.9112 2.29229 5.06153 2.29229C4.21186 2.29229 3.52307 2.98109 3.52307 3.83075V6.44614C3.52307 6.78601 3.24755 7.06152 2.90768 7.06152C2.56781 7.06152 2.2923 6.78601 2.2923 6.44614V3.83075C2.2923 2.30135 3.53212 1.06152 5.06153 1.06152Z" fill="#1A1C1F"/>
</g>
<defs>
<clipPath id="clip0_2213_5442">
<rect width="12" height="12" fill="white"/>
</clipPath>
</defs>
</svg>
