<svg width="12" height="12" viewBox="0 0 12 12" fill="none" xmlns="http://www.w3.org/2000/svg">
<g clip-path="url(#clip0_2213_5376)">
<path fill-rule="evenodd" clip-rule="evenodd" d="M6.00002 1.7077C6.1399 1.7077 6.27978 1.75269 6.38113 1.8427L8.89339 4.35884C9.01576 4.46087 9.07694 4.62419 9.07694 4.78752C9.07694 5.13459 8.79138 5.40001 8.46499 5.40001C8.3018 5.40001 8.1386 5.33878 8.01617 5.21626L6.58463 3.78278V9.67693C6.58463 9.99253 6.30912 10.2923 5.96925 10.2923C5.62938 10.2923 5.35387 10.0168 5.35387 9.67693V3.84432L3.98386 5.21626C3.86144 5.33878 3.69824 5.40001 3.53505 5.40001C3.20866 5.40001 2.9231 5.13459 2.9231 4.78752C2.9231 4.62419 3.00469 4.46087 3.10664 4.35884L5.57162 1.89146C5.69404 1.76893 5.85724 1.7077 6.00002 1.7077Z" fill="#1A1C1F"/>
</g>
<defs>
<clipPath id="clip0_2213_5376">
<rect width="12" height="12" fill="white"/>
</clipPath>
</defs>
</svg>
