<svg width="12" height="12" viewBox="0 0 12 12" fill="none" xmlns="http://www.w3.org/2000/svg">
<g clip-path="url(#clip0_2213_5313)">
<path fill-rule="evenodd" clip-rule="evenodd" d="M9.59995 1.19995C10.2627 1.19995 10.8 1.73721 10.8 2.39995V9.59995C10.8 10.2627 10.2627 10.8 9.59995 10.8H2.39995C1.73721 10.8 1.19995 10.2627 1.19995 9.59995V2.39995C1.19995 1.73721 1.73721 1.19995 2.39995 1.19995H9.59995ZM5.47939 7.83591L5.47936 6.5642C5.72642 6.5958 5.95964 6.6116 6.17901 6.6116C6.75981 6.6116 7.20201 6.4818 7.50561 6.2222C7.80921 5.9626 7.96101 5.5842 7.96101 5.087C7.96101 4.6074 7.81471 4.24 7.52211 3.9848C7.22951 3.7296 6.80821 3.602 6.25821 3.602H4.80081C4.55228 3.602 4.35081 3.80348 4.35081 4.052V7.83591C4.35081 8.14756 4.60345 8.4002 4.91511 8.4002C5.22675 8.4002 5.47939 8.14755 5.47939 7.83591C5.47939 7.83591 5.47939 7.8359 5.47939 7.83591ZM6.08001 5.88234C5.95681 5.88234 5.54428 5.85721 5.47936 5.84454C5.47936 5.41733 5.47936 4.95693 5.47936 4.46334H6.15921C6.41063 4.46334 6.58993 4.51614 6.69711 4.62174C6.80491 4.72734 6.85881 4.90334 6.85881 5.14974C6.85881 5.40934 6.79831 5.59634 6.67731 5.71074C6.55631 5.82514 6.35721 5.88234 6.08001 5.88234Z" fill="#1A1C1F"/>
</g>
<defs>
<clipPath id="clip0_2213_5313">
<rect width="12" height="12" fill="white"/>
</clipPath>
</defs>
</svg>
