<svg width="12" height="12" viewBox="0 0 12 12" fill="none" xmlns="http://www.w3.org/2000/svg">
<g clip-path="url(#clip0_232_315)">
<path fill-rule="evenodd" clip-rule="evenodd" d="M9.69229 1.0769C10.372 1.0769 10.9231 1.62794 10.9231 2.30767V9.69229C10.9231 10.372 10.372 10.9231 9.69229 10.9231H2.30767C1.62794 10.9231 1.0769 10.372 1.0769 9.69229V2.30767C1.0769 1.62794 1.62794 1.0769 2.30767 1.0769H9.69229ZM9.69229 2.30767H2.30767V9.69229H9.69229V2.30767ZM6.21955 3.73352C6.75187 3.73352 7.15863 3.85587 7.43982 4.10056C7.72101 4.34526 7.8616 4.70158 7.8616 5.16951C7.8616 5.65032 7.71564 6.0163 7.42372 6.26744C7.15834 6.49574 6.7812 6.62028 6.2923 6.64103C5.92655 6.64271 5.64256 6.6283 5.44033 6.59778L5.44036 7.73224C5.44036 8.02208 5.2054 8.25705 4.91556 8.25705C4.64801 8.25705 4.39075 8.04621 4.39075 7.73223V4.19506C4.39075 3.9614 4.57532 3.71457 4.85228 3.73352C5.30801 3.73217 5.76377 3.73217 6.21955 3.73352ZM6.13583 4.4998H5.44033V5.89202C5.61022 5.91692 5.81415 5.92937 6.05212 5.92937C6.33116 5.92937 6.53186 5.87141 6.65421 5.7555C6.77656 5.63959 6.83773 5.45285 6.83773 5.19527C6.83773 4.98185 6.79801 4.78333 6.67353 4.6608C6.53972 4.53757 6.34926 4.4998 6.13583 4.4998Z" fill="#1A1C1F"/>
</g>
<defs>
<clipPath id="clip0_232_315">
<rect width="12" height="12" fill="white"/>
</clipPath>
</defs>
</svg>
