<svg width="12" height="12" viewBox="0 0 12 12" fill="none" xmlns="http://www.w3.org/2000/svg">
<g clip-path="url(#clip0_232_319)">
<path fill-rule="evenodd" clip-rule="evenodd" d="M5.99998 1.0769C8.71892 1.0769 10.9231 3.28104 10.9231 5.99998C10.9231 8.71892 8.71892 10.9231 5.99998 10.9231C3.28104 10.9231 1.0769 8.71892 1.0769 5.99998C1.0769 3.28104 3.28104 1.0769 5.99998 1.0769ZM5.99998 2.30767C3.96078 2.30767 2.30767 3.96078 2.30767 5.99998C2.30767 8.03919 3.96078 9.69229 5.99998 9.69229C8.03919 9.69229 9.69229 8.03919 9.69229 5.99998C9.69229 3.96078 8.03919 2.30767 5.99998 2.30767ZM4.59028 3.76306C4.84596 3.76306 5.09094 3.96371 5.0918 4.2646C5.09303 4.69839 5.09302 5.13224 5.09177 5.56613H6.90716L6.90718 4.2646C6.90719 3.9876 7.13174 3.76306 7.40873 3.76306C7.66442 3.76306 7.90994 3.96713 7.91027 4.2646C7.91155 5.42146 7.91155 6.57839 7.91027 7.73537C7.91027 8.01236 7.68572 8.2369 7.40873 8.2369C7.15305 8.2369 6.90718 8.03255 6.90718 7.73537C6.90718 7.5273 6.90718 7.05674 6.90716 6.32367H5.09177L5.0918 7.73538C5.0918 8.01236 4.86726 8.2369 4.59027 8.2369C4.33459 8.2369 4.08873 8.0355 4.08873 7.73537C4.08873 7.32982 4.08873 6.17289 4.08873 4.2646C4.08873 4.00891 4.3346 3.76306 4.59028 3.76306Z" fill="#1A1C1F"/>
</g>
<defs>
<clipPath id="clip0_232_319">
<rect width="12" height="12" fill="white"/>
</clipPath>
</defs>
</svg>
