<svg width="20" height="20" viewBox="0 0 20 20" fill="none" xmlns="http://www.w3.org/2000/svg">
<g clip-path="url(#clip0_186_126)">
<path fill-rule="evenodd" clip-rule="evenodd" d="M10 2C14.4183 2 18 5.58172 18 10C18 14.4183 14.4183 18 10 18C5.58172 18 2 14.4183 2 10C2 5.58172 5.58172 2 10 2ZM10 4C6.68629 4 4 6.68629 4 10C4 13.3137 6.68629 16 10 16C13.3137 16 16 13.3137 16 10C16 6.68629 13.3137 4 10 4ZM7.70924 6.365C8.12472 6.365 8.52281 6.69105 8.5242 7.18C8.52621 7.88491 8.5262 8.58991 8.52416 9.295H11.4742L11.4742 7.18C11.4742 6.72989 11.8391 6.365 12.2892 6.365C12.7047 6.365 13.1037 6.69662 13.1042 7.18C13.1063 9.05991 13.1063 10.9399 13.1042 12.82C13.1042 13.2701 12.7393 13.635 12.2892 13.635C11.8737 13.635 11.4742 13.3029 11.4742 12.82C11.4742 12.4819 11.4742 11.7172 11.4742 10.526H8.52416L8.52421 12.82C8.52421 13.2701 8.15932 13.635 7.70922 13.635C7.29373 13.635 6.89422 13.3077 6.89422 12.82C6.89422 12.161 6.89422 10.281 6.89422 7.18C6.89422 6.76451 7.29376 6.365 7.70924 6.365Z" fill="#1A1C1F"/>
</g>
<defs>
<clipPath id="clip0_186_126">
<rect width="20" height="20" fill="white"/>
</clipPath>
</defs>
</svg>
