<svg width="16" height="16" viewBox="0 0 16 16" fill="none" xmlns="http://www.w3.org/2000/svg">
<g clip-path="url(#clip0_186_128)">
<path fill-rule="evenodd" clip-rule="evenodd" d="M8 1.49841C11.5907 1.49841 14.5016 4.40927 14.5016 8C14.5016 11.5907 11.5907 14.5016 8 14.5016C4.40927 14.5016 1.49841 11.5907 1.49841 8C1.49841 4.40927 4.40927 1.49841 8 1.49841ZM8 3.12381C5.30696 3.12381 3.12381 5.30696 3.12381 8C3.12381 10.693 5.30696 12.8762 8 12.8762C10.693 12.8762 12.8762 10.693 12.8762 8C12.8762 5.30696 10.693 3.12381 8 3.12381ZM6.1383 5.04584C6.47596 5.04584 6.79949 5.31082 6.80062 5.70819C6.80225 6.28107 6.80224 6.85403 6.80059 7.42705H9.19805L9.19808 5.70819C9.19809 5.34238 9.49464 5.04584 9.86045 5.04584C10.1981 5.04584 10.5224 5.31535 10.5228 5.70819C10.5245 7.23599 10.5245 8.76386 10.5228 10.2918C10.5228 10.6576 10.2263 10.9542 9.86045 10.9542C9.52278 10.9542 9.19808 10.6843 9.19808 10.2918C9.19808 10.017 9.19807 9.39559 9.19805 8.42748H6.80059L6.80062 10.2918C6.80062 10.6576 6.50409 10.9542 6.13829 10.9542C5.80062 10.9542 5.47594 10.6882 5.47594 10.2918C5.47594 9.75623 5.47594 8.22835 5.47594 5.70819C5.47594 5.37052 5.80064 5.04584 6.1383 5.04584Z" fill="#1A1C1F"/>
</g>
<defs>
<clipPath id="clip0_186_128">
<rect width="16" height="16" fill="white"/>
</clipPath>
</defs>
</svg>
