<svg width="14" height="14" viewBox="0 0 14 14" fill="none" xmlns="http://www.w3.org/2000/svg">
<g clip-path="url(#clip0_186_130)">
<path fill-rule="evenodd" clip-rule="evenodd" d="M7 1.25647C10.1721 1.25647 12.7436 3.82796 12.7436 7.00006C12.7436 10.1722 10.1721 12.7436 7 12.7436C3.8279 12.7436 1.25641 10.1722 1.25641 7.00006C1.25641 3.82796 3.8279 1.25647 7 1.25647ZM7 2.69237C4.62093 2.69237 2.69231 4.62099 2.69231 7.00006C2.69231 9.37913 4.62093 11.3078 7 11.3078C9.37907 11.3078 11.3077 9.37913 11.3077 7.00006C11.3077 4.62099 9.37907 2.69237 7 2.69237ZM5.35535 4.39032C5.65364 4.39032 5.93945 4.6244 5.94045 4.97544C5.94189 5.48154 5.94188 5.98769 5.94042 6.49391H8.05837L8.0584 4.97544C8.05841 4.65229 8.32038 4.39032 8.64354 4.39032C8.94184 4.39032 9.22829 4.6284 9.22867 4.97544C9.23016 6.32512 9.23016 7.67487 9.22867 9.02467C9.22867 9.34783 8.9667 9.6098 8.64354 9.6098C8.34524 9.6098 8.0584 9.37139 8.0584 9.02467C8.0584 8.78194 8.05839 8.23295 8.05837 7.3777H5.94042L5.94045 9.02469C5.94045 9.34784 5.67849 9.6098 5.35534 9.6098C5.05704 9.6098 4.77021 9.37484 4.77021 9.02467C4.77021 8.55153 4.77021 7.20179 4.77021 4.97544C4.77021 4.67715 5.05705 4.39032 5.35535 4.39032Z" fill="#1A1C1F"/>
</g>
<defs>
<clipPath id="clip0_186_130">
<rect width="14" height="14" fill="white"/>
</clipPath>
</defs>
</svg>
